<svg width="386" height="112" viewBox="0 0 386 112" fill="none" xmlns="http://www.w3.org/2000/svg">
<path d="M152.424 76.536V99H146.952V85.528L141.928 99H137.512L132.456 85.496V99H126.984V76.536H133.448L139.752 92.088L145.992 76.536H152.424ZM161.831 80.92V85.464H169.159V89.688H161.831V94.616H170.119V99H156.359V76.536H170.119V80.92H161.831ZM193.768 99H188.296L179.144 85.144V99H173.672V76.536H179.144L188.296 90.456V76.536H193.768V99ZM213.894 76.536V80.92H207.942V99H202.47V80.92H196.518V76.536H213.894ZM227.264 99.224C225.152 99.224 223.211 98.7333 221.44 97.752C219.691 96.7707 218.294 95.4053 217.248 93.656C216.224 91.8853 215.712 89.9013 215.712 87.704C215.712 85.5067 216.224 83.5333 217.248 81.784C218.294 80.0347 219.691 78.6693 221.44 77.688C223.211 76.7067 225.152 76.216 227.264 76.216C229.376 76.216 231.307 76.7067 233.056 77.688C234.827 78.6693 236.214 80.0347 237.216 81.784C238.24 83.5333 238.752 85.5067 238.752 87.704C238.752 89.9013 238.24 91.8853 237.216 93.656C236.192 95.4053 234.806 96.7707 233.056 97.752C231.307 98.7333 229.376 99.224 227.264 99.224ZM227.264 94.232C229.056 94.232 230.486 93.6347 231.552 92.44C232.64 91.2453 233.184 89.6667 233.184 87.704C233.184 85.72 232.64 84.1413 231.552 82.968C230.486 81.7733 229.056 81.176 227.264 81.176C225.451 81.176 224 81.7627 222.912 82.936C221.846 84.1093 221.312 85.6987 221.312 87.704C221.312 89.688 221.846 91.2773 222.912 92.472C224 93.6453 225.451 94.232 227.264 94.232ZM253.253 99L248.581 90.52H247.269V99H241.797V76.536H250.981C252.751 76.536 254.255 76.8453 255.493 77.464C256.751 78.0827 257.69 78.936 258.309 80.024C258.927 81.0907 259.237 82.2853 259.237 83.608C259.237 85.1013 258.81 86.4347 257.957 87.608C257.125 88.7813 255.887 89.6133 254.245 90.104L259.429 99H253.253ZM247.269 86.648H250.661C251.663 86.648 252.41 86.4027 252.901 85.912C253.413 85.4213 253.669 84.728 253.669 83.832C253.669 82.9787 253.413 82.3067 252.901 81.816C252.41 81.3253 251.663 81.08 250.661 81.08H247.269V86.648Z" fill="#955EAB"/>
<path d="M185.2 14.648H182.44V26H180.256V14.648H178.552V12.848H180.256V11.912C180.256 10.44 180.632 9.368 181.384 8.696C182.152 8.008 183.376 7.664 185.056 7.664V9.488C184.096 9.488 183.416 9.68 183.016 10.064C182.632 10.432 182.44 11.048 182.44 11.912V12.848H185.2V14.648ZM193.482 26.216C192.25 26.216 191.13 25.936 190.122 25.376C189.13 24.816 188.346 24.024 187.77 23C187.21 21.96 186.93 20.76 186.93 19.4C186.93 18.056 187.218 16.872 187.794 15.848C188.386 14.808 189.186 14.016 190.194 13.472C191.202 12.912 192.33 12.632 193.578 12.632C194.826 12.632 195.954 12.912 196.962 13.472C197.97 14.016 198.762 14.8 199.338 15.824C199.93 16.848 200.226 18.04 200.226 19.4C200.226 20.76 199.922 21.96 199.314 23C198.722 24.024 197.914 24.816 196.89 25.376C195.866 25.936 194.73 26.216 193.482 26.216ZM193.482 24.296C194.266 24.296 195.002 24.112 195.69 23.744C196.378 23.376 196.93 22.824 197.346 22.088C197.778 21.352 197.994 20.456 197.994 19.4C197.994 18.344 197.786 17.448 197.37 16.712C196.954 15.976 196.41 15.432 195.738 15.08C195.066 14.712 194.338 14.528 193.554 14.528C192.754 14.528 192.018 14.712 191.346 15.08C190.69 15.432 190.162 15.976 189.762 16.712C189.362 17.448 189.162 18.344 189.162 19.4C189.162 20.472 189.354 21.376 189.738 22.112C190.138 22.848 190.666 23.4 191.322 23.768C191.978 24.12 192.698 24.296 193.482 24.296ZM205.282 14.984C205.666 14.232 206.21 13.648 206.914 13.232C207.634 12.816 208.506 12.608 209.53 12.608V14.864H208.954C206.506 14.864 205.282 16.192 205.282 18.848V26H203.098V12.848H205.282V14.984Z" fill="#955EAB"/>
<line y1="17.5" x2="156" y2="17.5" stroke="#955EAB"/>
<line x1="230" y1="17.5" x2="386" y2="17.5" stroke="#955EAB"/>
</svg>
