<svg width="20" height="20" viewBox="0 0 20 20" fill="none" xmlns="http://www.w3.org/2000/svg">
<path fill-rule="evenodd" clip-rule="evenodd" d="M5.41652 5C5.73217 5 6.02072 5.17834 6.16188 5.46066L8.65439 10.4457C8.65978 10.4559 8.66497 10.4663 8.66995 10.4768L9.91188 12.9607C10.1177 13.3723 9.95085 13.8729 9.5392 14.0787C9.12755 14.2845 8.62699 14.1177 8.42117 13.706L7.40149 11.6667H3.43155L2.41188 13.706C2.20606 14.1177 1.70549 14.2845 1.29385 14.0787C0.882197 13.8729 0.715343 13.3723 0.921168 12.9607L2.1631 10.4768C2.16807 10.4663 2.17326 10.4559 2.17866 10.4457L4.67117 5.46066C4.81233 5.17834 5.10088 5 5.41652 5ZM4.26489 10H6.56816L5.41652 7.69672L4.26489 10ZM14.4106 5.24408C14.736 4.91864 15.2637 4.91864 15.5891 5.24408L18.9224 8.57741C19.2479 8.90285 19.2479 9.43049 18.9224 9.75592C18.597 10.0814 18.0694 10.0814 17.7439 9.75592L15.8332 7.84518V13.3333C15.8332 13.7936 15.4601 14.1667 14.9999 14.1667C14.5396 14.1667 14.1665 13.7936 14.1665 13.3333V7.84518L12.2558 9.75592C11.9303 10.0814 11.4027 10.0814 11.0773 9.75592C10.7518 9.43049 10.7518 8.90285 11.0773 8.57741L14.4106 5.24408Z" fill="black"/>
</svg>
