<svg width="20" height="20" viewBox="0 0 20 20" fill="none" xmlns="http://www.w3.org/2000/svg">
<path fill-rule="evenodd" clip-rule="evenodd" d="M6.25002 5C6.56566 5 6.85422 5.17834 6.99538 5.46066L9.48789 10.4457C9.49328 10.4559 9.49847 10.4663 9.50344 10.4768L10.7454 12.9607C10.9512 13.3723 10.7843 13.8729 10.3727 14.0787C9.96105 14.2845 9.46049 14.1177 9.25466 13.706L8.23499 11.6667H4.26505L3.24538 13.706C3.03955 14.1177 2.53899 14.2845 2.12734 14.0787C1.71569 13.8729 1.54884 13.3723 1.75466 12.9607L2.99659 10.4768C3.00157 10.4663 3.00676 10.4559 3.01216 10.4457L5.50466 5.46066C5.64582 5.17834 5.93438 5 6.25002 5ZM5.09838 10H7.40166L6.25002 7.69672L5.09838 10ZM15.4167 9.16667C15.0852 9.16667 14.7672 9.29836 14.5328 9.53278C14.2984 9.7672 14.1667 10.0851 14.1667 10.4167V10.8333H16.6667V10.4167C16.6667 10.0851 16.535 9.7672 16.3006 9.53278C16.0661 9.29836 15.7482 9.16667 15.4167 9.16667ZM18.3334 10.4167C18.3334 9.64312 18.0261 8.90125 17.4791 8.35427C16.9321 7.80729 16.1902 7.5 15.4167 7.5C14.6431 7.5 13.9013 7.80729 13.3543 8.35427C12.8073 8.90125 12.5 9.64312 12.5 10.4167V13.3333C12.5 13.7936 12.8731 14.1667 13.3334 14.1667C13.7936 14.1667 14.1667 13.7936 14.1667 13.3333V12.5H16.6667V13.3333C16.6667 13.7936 17.0398 14.1667 17.5 14.1667C17.9603 14.1667 18.3334 13.7936 18.3334 13.3333V10.4167Z" fill="black"/>
</svg>
