<svg width="20" height="20" viewBox="0 0 20 20" fill="none" xmlns="http://www.w3.org/2000/svg">
<path fill-rule="evenodd" clip-rule="evenodd" d="M13.3335 3.33238L13.3334 3.33241C13.3335 3.33236 13.3335 3.33235 13.3335 3.33238ZM11.6667 3.33341C11.6667 2.41294 12.4129 1.66675 13.3334 1.66675C14.2539 1.66675 15.0001 2.41294 15.0001 3.33341C15.0001 4.25389 14.2539 5.00008 13.3334 5.00008C12.4129 5.00008 11.6667 4.25389 11.6667 3.33341ZM13.3335 3.33445C13.3335 3.33448 13.3335 3.33447 13.3334 3.33442L13.3335 3.33445ZM6.07749 3.57749C6.33889 3.31609 6.74125 3.25815 7.06579 3.43517L11.6491 5.93517C11.8551 6.04751 12.0041 6.24146 12.0597 6.4694C12.1153 6.69733 12.0722 6.93812 11.941 7.13264L10.4511 9.3423C10.56 9.42268 10.6659 9.50765 10.7684 9.59707C10.8931 9.70579 11.0119 9.82029 11.1245 9.94007L15.6964 9.17809C15.9585 9.1344 16.2257 9.21833 16.4158 9.40402C16.6058 9.5897 16.6959 9.85489 16.6584 10.1179L15.825 15.9513C15.7599 16.4069 15.3378 16.7235 14.8822 16.6584C14.4266 16.5933 14.11 16.1712 14.1751 15.7156L14.8475 11.0092L12.1072 11.4659C12.1774 11.6369 12.2383 11.8121 12.2895 11.9909C12.5548 12.919 12.5458 13.904 12.2637 14.827C12.1291 15.2672 11.6633 15.5149 11.2231 15.3803C10.783 15.2458 10.5353 14.7799 10.6698 14.3398C10.8579 13.7244 10.8639 13.0678 10.687 12.4491C10.5101 11.8304 10.1579 11.2761 9.67296 10.8532C9.18799 10.4302 8.59097 10.1567 7.95397 10.0656C7.31697 9.97452 6.66721 10.0697 6.08314 10.3398C5.6654 10.533 5.17017 10.3509 4.97702 9.93315C4.78386 9.51541 4.96593 9.02018 5.38367 8.82702C6.25978 8.42194 7.23441 8.27909 8.18991 8.41573C8.44869 8.45274 8.70306 8.50982 8.95089 8.58598L10.0473 6.95993L6.81509 5.19691L4.756 7.256C4.43056 7.58144 3.90292 7.58144 3.57749 7.256C3.25205 6.93057 3.25205 6.40293 3.57749 6.07749L6.07749 3.57749ZM3.77702 11.2865C4.21715 11.421 4.46488 11.8869 4.33034 12.327C4.14223 12.9424 4.13626 13.5991 4.31315 14.2178C4.49004 14.8365 4.84222 15.3907 5.32719 15.8137C5.81216 16.2366 6.40918 16.5101 7.04618 16.6012C7.68318 16.6923 8.33294 16.5971 8.91701 16.327C9.33475 16.1339 9.82998 16.3159 10.0231 16.7337C10.2163 17.1514 10.0342 17.6467 9.61648 17.8398C8.74037 18.2449 7.76574 18.3877 6.81024 18.2511C5.85473 18.1145 4.9592 17.7042 4.23175 17.0698C3.5043 16.4354 2.97602 15.6039 2.71069 14.6759C2.44536 13.7479 2.45431 12.7629 2.73648 11.8398C2.87102 11.3997 3.33688 11.1519 3.77702 11.2865Z" fill="black"/>
</svg>
