<svg width="20" height="20" viewBox="0 0 20 20" fill="none" xmlns="http://www.w3.org/2000/svg">
<path fill-rule="evenodd" clip-rule="evenodd" d="M6.87492 1.04159C7.05523 0.906354 7.27453 0.833252 7.49992 0.833252C7.72531 0.833252 7.94461 0.906354 8.12492 1.04159C8.30523 1.17682 8.43681 1.36688 8.49992 1.58325C8.50068 1.58587 8.50143 1.58848 8.50217 1.59111L12.5 15.8151L13.8559 10.9916C14.0034 10.4656 14.3191 10.0024 14.7548 9.6728C15.1902 9.34343 15.7214 9.16565 16.2673 9.16659H18.3333C18.7935 9.16659 19.1666 9.53968 19.1666 9.99992C19.1666 10.4602 18.7935 10.8333 18.3333 10.8333H16.2666L16.2648 10.8333C16.0827 10.8329 15.9055 10.8921 15.7603 11.002C15.615 11.1118 15.5098 11.2662 15.4606 11.4416L13.5022 18.4088C13.5014 18.4114 13.5007 18.414 13.4999 18.4166C13.4368 18.6329 13.3052 18.823 13.1249 18.9583C12.9446 19.0935 12.7253 19.1666 12.4999 19.1666C12.2745 19.1666 12.0552 19.0935 11.8749 18.9583C11.6946 18.823 11.563 18.6329 11.4999 18.4166C11.4992 18.414 11.4984 18.4114 11.4977 18.4087L7.49987 4.18469L6.14397 9.00825C5.99705 9.53219 5.6832 9.99389 5.25005 10.3233C4.8169 10.6526 4.28812 10.8317 3.74397 10.8332L3.74159 10.8333H1.66659C1.20635 10.8333 0.833252 10.4602 0.833252 9.99992C0.833252 9.53968 1.20635 9.16659 1.66659 9.16659H3.74022C3.92125 9.16584 4.09712 9.10618 4.24123 8.99659C4.38561 8.8868 4.49023 8.7329 4.5392 8.55826L6.49768 1.59108C6.49841 1.58846 6.49916 1.58586 6.49992 1.58325C6.56303 1.36688 6.69461 1.17682 6.87492 1.04159Z" fill="black"/>
</svg>
