<svg width="20" height="20" viewBox="0 0 20 20" fill="none" xmlns="http://www.w3.org/2000/svg">
<path fill-rule="evenodd" clip-rule="evenodd" d="M3.33325 3.33341C3.11224 3.33341 2.90028 3.42121 2.744 3.57749C2.58772 3.73377 2.49992 3.94573 2.49992 4.16675V8.33341C2.49992 8.55443 2.58772 8.76639 2.744 8.92267C2.90028 9.07895 3.11224 9.16675 3.33325 9.16675H4.99992C5.46016 9.16675 5.83325 9.53984 5.83325 10.0001C5.83325 10.4603 5.46016 10.8334 4.99992 10.8334H3.33325C2.67021 10.8334 2.03433 10.57 1.56549 10.1012C1.09664 9.63234 0.833252 8.99646 0.833252 8.33341V4.16675C0.833252 3.50371 1.09664 2.86782 1.56549 2.39898C2.03433 1.93014 2.67021 1.66675 3.33325 1.66675H16.6666C17.3296 1.66675 17.9655 1.93014 18.4344 2.39898C18.9032 2.86782 19.1666 3.50371 19.1666 4.16675V8.33341C19.1666 8.99646 18.9032 9.63234 18.4344 10.1012C17.9655 10.57 17.3296 10.8334 16.6666 10.8334H14.9999C14.5397 10.8334 14.1666 10.4603 14.1666 10.0001C14.1666 9.53984 14.5397 9.16675 14.9999 9.16675H16.6666C16.8876 9.16675 17.0996 9.07895 17.2558 8.92267C17.4121 8.76639 17.4999 8.55443 17.4999 8.33341V4.16675C17.4999 3.94573 17.4121 3.73377 17.2558 3.57749C17.0996 3.42121 16.8876 3.33341 16.6666 3.33341H3.33325ZM4.16659 6.66675C4.16659 6.20651 4.53968 5.83341 4.99992 5.83341H14.9999C15.4602 5.83341 15.8333 6.20651 15.8333 6.66675C15.8333 7.12699 15.4602 7.50008 14.9999 7.50008H4.99992C4.53968 7.50008 4.16659 7.12699 4.16659 6.66675ZM8.33325 9.16675C8.79349 9.16675 9.16659 9.53984 9.16659 10.0001V14.1615C9.1713 14.5729 9.07441 14.9792 8.88445 15.3442C8.6935 15.7111 8.41448 16.025 8.0724 16.2576C7.73033 16.4901 7.33589 16.6342 6.92443 16.6768C6.51298 16.7195 6.09737 16.6594 5.71488 16.5019C5.33237 16.3444 4.99494 16.0944 4.7328 15.7744C4.47067 15.4544 4.29203 15.0744 4.21291 14.6684C4.13379 14.2623 4.15665 13.843 4.27944 13.448C4.40224 13.053 4.62113 12.6946 4.9165 12.405C5.24513 12.0828 5.77275 12.088 6.09496 12.4167C6.41717 12.7453 6.41197 13.2729 6.08333 13.5951C5.98488 13.6917 5.91191 13.8111 5.87098 13.9428C5.83005 14.0744 5.82243 14.2142 5.8488 14.3496C5.87518 14.4849 5.93472 14.6116 6.0221 14.7182C6.10948 14.8249 6.22196 14.9082 6.34946 14.9607C6.47696 15.0132 6.61549 15.0333 6.75264 15.0191C6.88979 15.0048 7.02127 14.9568 7.1353 14.8793C7.24933 14.8018 7.34233 14.6972 7.40598 14.5748C7.46963 14.4525 7.50194 14.3163 7.5 14.1785C7.49995 14.1746 7.49992 14.1706 7.49992 14.1667V10.0001C7.49992 9.53984 7.87302 9.16675 8.33325 9.16675ZM11.6666 9.16675C12.1268 9.16675 12.4999 9.53984 12.4999 10.0001V16.2536C12.5114 16.4493 12.5679 16.6397 12.665 16.8101C12.7643 16.9843 12.9033 17.1326 13.0706 17.243C13.3274 17.4072 13.6354 17.4721 13.9367 17.4252C14.2391 17.3781 14.5137 17.2217 14.7085 16.9856C14.9033 16.7495 15.0047 16.4501 14.9935 16.1443C14.9823 15.8384 14.8592 15.5473 14.6477 15.3261C14.3296 14.9935 14.3413 14.466 14.6739 14.1478C15.0065 13.8297 15.534 13.8415 15.8522 14.1741C16.3458 14.6902 16.6329 15.3695 16.659 16.0832C16.6852 16.7969 16.4486 17.4954 15.9941 18.0463C15.5396 18.5971 14.8988 18.9621 14.1931 19.072C13.4874 19.1819 12.766 19.029 12.1655 18.6424C12.1635 18.6412 12.1616 18.6399 12.1596 18.6386C11.7705 18.3835 11.4475 18.0396 11.2171 17.6354C10.9866 17.2311 10.8554 16.778 10.8341 16.3132C10.8335 16.3005 10.8333 16.2878 10.8333 16.2751V10.0001C10.8333 9.53984 11.2063 9.16675 11.6666 9.16675Z" fill="black"/>
</svg>
