<svg width="20" height="20" viewBox="0 0 20 20" fill="none" xmlns="http://www.w3.org/2000/svg">
<path fill-rule="evenodd" clip-rule="evenodd" d="M3.33325 3.33341C3.11224 3.33341 2.90028 3.42121 2.744 3.57749C2.58772 3.73377 2.49992 3.94573 2.49992 4.16675V12.5001C2.49992 12.7211 2.58772 12.9331 2.744 13.0893C2.90028 13.2456 3.11224 13.3334 3.33325 13.3334H4.16659C4.62682 13.3334 4.99992 13.7065 4.99992 14.1667C4.99992 14.627 4.62682 15.0001 4.16659 15.0001H3.33325C2.67021 15.0001 2.03433 14.7367 1.56549 14.2678C1.09664 13.799 0.833252 13.1631 0.833252 12.5001V4.16675C0.833252 3.50371 1.09664 2.86782 1.56549 2.39898C2.03433 1.93014 2.67021 1.66675 3.33325 1.66675H16.6666C17.3296 1.66675 17.9655 1.93014 18.4344 2.39898C18.9032 2.86782 19.1666 3.50371 19.1666 4.16675V12.5001C19.1666 13.1631 18.9032 13.799 18.4344 14.2678C17.9655 14.7367 17.3296 15.0001 16.6666 15.0001H15.8333C15.373 15.0001 14.9999 14.627 14.9999 14.1667C14.9999 13.7065 15.373 13.3334 15.8333 13.3334H16.6666C16.8876 13.3334 17.0996 13.2456 17.2558 13.0893C17.4121 12.9331 17.4999 12.7211 17.4999 12.5001V4.16675C17.4999 3.94573 17.4121 3.73377 17.2558 3.57749C17.0996 3.42121 16.8876 3.33341 16.6666 3.33341H3.33325ZM9.99992 11.6667C10.2472 11.6667 10.4818 11.7766 10.6401 11.9666L14.8068 16.9666C15.0138 17.215 15.0584 17.5607 14.9212 17.8535C14.7841 18.1464 14.4899 18.3334 14.1666 18.3334H5.83325C5.5099 18.3334 5.21574 18.1464 5.07859 17.8535C4.94144 17.5607 4.98606 17.215 5.19307 16.9666L9.35973 11.9666C9.51806 11.7766 9.7526 11.6667 9.99992 11.6667ZM7.61245 16.6667H12.3874L9.99992 13.8018L7.61245 16.6667Z" fill="black"/>
</svg>
