<svg width="20" height="20" viewBox="0 0 20 20" fill="none" xmlns="http://www.w3.org/2000/svg">
<path fill-rule="evenodd" clip-rule="evenodd" d="M1.32141 2.1549C1.63397 1.84234 2.05789 1.66675 2.49992 1.66675H17.4999C17.9419 1.66675 18.3659 1.84234 18.6784 2.1549C18.991 2.46747 19.1666 2.89139 19.1666 3.33341V5.00008C19.1666 5.66312 18.9032 6.29901 18.4344 6.76785C17.9655 7.23669 17.3296 7.50008 16.6666 7.50008H16.4735L15.9772 9.36102C15.888 9.76719 15.6662 10.1325 15.3463 10.399C15.0191 10.6717 14.6089 10.8248 14.1831 10.8333C14.1776 10.8334 14.1721 10.8334 14.1666 10.8334H5.83325C5.82774 10.8334 5.82223 10.8334 5.81672 10.8333C5.39094 10.8248 4.98073 10.6717 4.65357 10.399C4.33369 10.1325 4.11185 9.76719 4.0226 9.36102L3.52635 7.50008H3.33325C2.67021 7.50008 2.03433 7.23669 1.56549 6.76785C1.09664 6.29901 0.833252 5.66312 0.833252 5.00008V3.33341C0.833252 2.89139 1.00885 2.46746 1.32141 2.1549ZM4.18559 5.83341C4.17331 5.83314 4.16099 5.83314 4.14864 5.83341H3.33325C3.11224 5.83341 2.90028 5.74562 2.744 5.58934C2.58772 5.43306 2.49992 5.2211 2.49992 5.00008V3.33341H17.4999V5.00008C17.4999 5.22109 17.4121 5.43306 17.2558 5.58934C17.0996 5.74562 16.8876 5.83341 16.6666 5.83341H15.8512C15.8388 5.83314 15.8265 5.83314 15.8143 5.83341H4.18559ZM5.25126 7.50008L5.63845 8.95203C5.6427 8.96799 5.64648 8.98406 5.64978 9.00024C5.65924 9.04661 5.68419 9.08837 5.72054 9.11867C5.75558 9.14787 5.7992 9.16473 5.84468 9.16675H14.1552C14.2006 9.16473 14.2443 9.14787 14.2793 9.11867C14.3156 9.08837 14.3406 9.04661 14.3501 9.00024C14.3534 8.98406 14.3571 8.96799 14.3614 8.95203L14.7486 7.50008H5.25126ZM6.66659 12.5001C7.12682 12.5001 7.49992 12.8732 7.49992 13.3334C7.49992 13.9752 7.36937 14.4895 7.15744 14.931C6.95966 15.343 6.70043 15.6669 6.50086 15.9162C6.49518 15.9233 6.48956 15.9304 6.48398 15.9373C6.26896 16.2061 6.12069 16.3964 6.0116 16.6237C5.91104 16.8332 5.83325 17.1002 5.83325 17.5001C5.83325 17.9603 5.46016 18.3334 4.99992 18.3334C4.53968 18.3334 4.16659 17.9603 4.16659 17.5001C4.16659 16.8583 4.29713 16.344 4.50907 15.9025C4.70685 15.4904 4.96607 15.1666 5.16564 14.9173C5.17132 14.9102 5.17695 14.9031 5.18253 14.8962C5.39754 14.6274 5.54581 14.4371 5.6549 14.2098C5.75547 14.0003 5.83325 13.7333 5.83325 13.3334C5.83325 12.8732 6.20635 12.5001 6.66659 12.5001ZM10.8333 12.5001C11.2935 12.5001 11.6666 12.8732 11.6666 13.3334C11.6666 13.9752 11.536 14.4895 11.3241 14.931C11.1263 15.343 10.8671 15.6669 10.6675 15.9162L10.6506 15.9373C10.4356 16.2061 10.2874 16.3964 10.1783 16.6237C10.0777 16.8332 9.99992 17.1002 9.99992 17.5001C9.99992 17.9603 9.62682 18.3334 9.16659 18.3334C8.70635 18.3334 8.33325 17.9603 8.33325 17.5001C8.33325 16.8583 8.4638 16.344 8.67573 15.9025C8.87352 15.4904 9.13274 15.1666 9.33231 14.9173C9.33799 14.9102 9.34362 14.9031 9.3492 14.8962C9.56421 14.6274 9.71248 14.4371 9.82157 14.2098C9.92213 14.0003 9.99992 13.7333 9.99992 13.3334C9.99992 12.8732 10.373 12.5001 10.8333 12.5001ZM14.9999 12.5001C15.4602 12.5001 15.8333 12.8732 15.8333 13.3334C15.8333 13.9752 15.7027 14.4895 15.4908 14.931C15.293 15.343 15.0338 15.6669 14.8342 15.9162L14.8173 15.9373C14.6023 16.2061 14.454 16.3964 14.3449 16.6237C14.2444 16.8332 14.1666 17.1002 14.1666 17.5001C14.1666 17.9603 13.7935 18.3334 13.3333 18.3334C12.873 18.3334 12.4999 17.9603 12.4999 17.5001C12.4999 16.8583 12.6305 16.344 12.8424 15.9025C13.0402 15.4904 13.2994 15.1666 13.499 14.9173L13.5159 14.8962C13.7309 14.6274 13.8791 14.4371 13.9882 14.2098C14.0888 14.0003 14.1666 13.7333 14.1666 13.3334C14.1666 12.8732 14.5397 12.5001 14.9999 12.5001Z" fill="black"/>
</svg>
