<svg width="20" height="20" viewBox="0 0 20 20" fill="none" xmlns="http://www.w3.org/2000/svg">
<g clip-path="url(#clip0_2001_3995)">
<path fill-rule="evenodd" clip-rule="evenodd" d="M1.07733 1.07733C1.40277 0.751893 1.9304 0.751893 2.25584 1.07733L3.92226 2.74375C3.92234 2.74383 3.92243 2.74391 3.92251 2.744C3.92259 2.74408 3.92267 2.74416 3.92276 2.74424L6.30639 5.12788C6.31116 5.13253 6.31588 5.13726 6.32056 5.14205L15.6911 14.5126C15.6959 14.5173 15.7006 14.522 15.7053 14.5268L18.9225 17.744C19.2479 18.0694 19.2479 18.5971 18.9225 18.9225C18.5971 19.2479 18.0694 19.2479 17.744 18.9225L15.129 16.3075C14.5951 16.8158 13.988 17.2437 13.3264 17.5763C12.3914 18.0463 11.3684 18.3155 10.3232 18.3665C9.27797 18.4174 8.23365 18.2491 7.25737 17.8724C6.53226 17.5925 5.85662 17.2023 5.25379 16.7168L3.93142 18.0801C3.61099 18.4105 3.08341 18.4185 2.75305 18.0981C2.42269 17.7777 2.41464 17.2501 2.73508 16.9197L4.07969 15.5335C3.61123 14.9423 3.23359 14.2826 2.96082 13.5758C2.58403 12.5995 2.41572 11.5552 2.4667 10.51C2.51769 9.46475 2.78684 8.44177 3.25685 7.50679C3.58943 6.84521 4.01738 6.23805 4.52563 5.70414L3.33325 4.51176L2.25584 5.58917C1.9304 5.91461 1.40277 5.91461 1.07733 5.58917C0.751893 5.26374 0.751893 4.7361 1.07733 4.41066L2.15474 3.33325L1.07733 2.25584C0.751893 1.9304 0.751893 1.40277 1.07733 1.07733ZM5.7046 6.88312C5.32164 7.29112 4.99846 7.75307 4.74595 8.25536C4.38039 8.98257 4.17105 9.77822 4.13139 10.5912C4.09174 11.4041 4.22265 12.2164 4.51571 12.9757C4.79687 13.7042 5.22131 14.3685 5.76355 14.9295C5.77484 14.9394 5.78592 14.9495 5.79679 14.9601C5.81645 14.9792 5.83498 14.999 5.85236 15.0194C6.42396 15.5857 7.10662 16.0277 7.85746 16.3175C8.61679 16.6105 9.42904 16.7414 10.242 16.7018C11.0549 16.6621 11.8506 16.4528 12.5778 16.0872C13.0801 15.8347 13.5421 15.5115 13.9501 15.1286L5.7046 6.88312ZM15.244 1.91066C15.5694 1.58523 16.0971 1.58523 16.4225 1.91066L18.9225 4.41066C19.2479 4.7361 19.2479 5.26374 18.9225 5.58917C18.5971 5.91461 18.0694 5.91461 17.744 5.58917L15.244 3.08917C14.9186 2.76374 14.9186 2.2361 15.244 1.91066ZM8.82826 3.42679C9.99679 3.24225 11.1924 3.33675 12.3174 3.70257C13.4424 4.06839 14.465 4.69516 15.3015 5.53167C16.138 6.36819 16.7648 7.39072 17.1306 8.51575C17.4964 9.64078 17.5909 10.8364 17.4064 12.0049C17.3346 12.4595 16.9079 12.7698 16.4533 12.6981C15.9987 12.6263 15.6883 12.1995 15.7601 11.7449C15.9037 10.8361 15.8302 9.90615 15.5456 9.03113C15.2611 8.15611 14.7736 7.36081 14.123 6.71019C13.4724 6.05956 12.6771 5.57208 11.802 5.28755C10.927 5.00302 9.9971 4.92952 9.08825 5.07305C8.63364 5.14484 8.20691 4.83452 8.13512 4.37991C8.06333 3.92531 8.37366 3.49858 8.82826 3.42679Z" fill="black"/>
</g>
<defs>
<clipPath id="clip0_2001_3995">
<rect width="20" height="20" fill="white"/>
</clipPath>
</defs>
</svg>
