<svg width="20" height="20" viewBox="0 0 20 20" fill="none" xmlns="http://www.w3.org/2000/svg">
<path fill-rule="evenodd" clip-rule="evenodd" d="M4.75584 1.91083C5.08128 2.23626 5.08128 2.7639 4.75584 3.08934L2.25584 5.58934C1.9304 5.91477 1.40277 5.91477 1.07733 5.58934C0.751893 5.2639 0.751893 4.73626 1.07733 4.41083L3.57733 1.91083C3.90277 1.58539 4.4304 1.58539 4.75584 1.91083ZM15.244 1.91083C15.5694 1.58539 16.0971 1.58539 16.4225 1.91083L18.9225 4.41083C19.2479 4.73626 19.2479 5.2639 18.9225 5.58934C18.5971 5.91477 18.0694 5.91477 17.744 5.58934L15.244 3.08934C14.9186 2.7639 14.9186 2.23626 15.244 1.91083ZM9.99992 5.00008C6.77826 5.00008 4.16659 7.61175 4.16659 10.8334C4.16659 14.0551 6.77826 16.6667 9.99992 16.6667C11.5849 16.6667 13.0222 16.0346 14.0735 15.0088C14.0842 14.9966 14.0954 14.9846 14.1069 14.9729C14.1221 14.9576 14.1377 14.9429 14.1537 14.929C15.1923 13.8757 15.8333 12.4294 15.8333 10.8334C15.8333 7.61175 13.2216 5.00008 9.99992 5.00008ZM15.8519 15.5247C16.883 14.2401 17.4999 12.6088 17.4999 10.8334C17.4999 6.69128 14.1421 3.33341 9.99992 3.33341C5.85778 3.33341 2.49992 6.69128 2.49992 10.8334C2.49992 12.6164 3.12208 14.2541 4.16115 15.5411L2.75415 16.9008C2.4232 17.2207 2.41418 17.7482 2.73401 18.0792C3.05384 18.4101 3.5814 18.4192 3.91235 18.0993L5.34523 16.7146C6.62413 17.7282 8.24134 18.3334 9.99992 18.3334C11.7662 18.3334 13.3899 17.7229 14.6714 16.7013L16.0811 18.0931C16.4086 18.4164 16.9363 18.4131 17.2596 18.0856C17.5829 17.758 17.5796 17.2304 17.2521 16.9071L15.8519 15.5247ZM9.99992 6.66675C10.4602 6.66675 10.8333 7.03984 10.8333 7.50008V10.4882L12.2558 11.9108C12.5813 12.2363 12.5813 12.7639 12.2558 13.0893C11.9304 13.4148 11.4028 13.4148 11.0773 13.0893L9.41066 11.4227C9.25438 11.2664 9.16659 11.0544 9.16659 10.8334V7.50008C9.16659 7.03984 9.53968 6.66675 9.99992 6.66675Z" fill="black"/>
</svg>
