<svg width="20" height="20" viewBox="0 0 20 20" fill="none" xmlns="http://www.w3.org/2000/svg">
<path fill-rule="evenodd" clip-rule="evenodd" d="M4.16675 3.33341C3.70651 3.33341 3.33341 3.70651 3.33341 4.16675V15.8334C3.33341 16.2937 3.70651 16.6667 4.16675 16.6667H15.8334C16.2937 16.6667 16.6667 16.2937 16.6667 15.8334V4.16675C16.6667 3.70651 16.2937 3.33341 15.8334 3.33341H15.0001V9.16675C15.0001 9.5038 14.797 9.80766 14.4857 9.93665C14.1743 10.0656 13.8158 9.99434 13.5775 9.756L11.6667 7.84526L9.756 9.756C9.51767 9.99434 9.15924 10.0656 8.84784 9.93665C8.53645 9.80766 8.33341 9.5038 8.33341 9.16675V3.33341H4.16675ZM4.16675 1.66675C2.78604 1.66675 1.66675 2.78604 1.66675 4.16675V15.8334C1.66675 17.2141 2.78604 18.3334 4.16675 18.3334H15.8334C17.2141 18.3334 18.3334 17.2141 18.3334 15.8334V4.16675C18.3334 2.78604 17.2141 1.66675 15.8334 1.66675H4.16675ZM10.0001 3.33341V7.1549L11.0775 6.07749C11.4029 5.75206 11.9306 5.75206 12.256 6.07749L13.3334 7.1549V3.33341H10.0001Z" fill="black"/>
</svg>
