<svg width="20" height="20" viewBox="0 0 20 20" fill="none" xmlns="http://www.w3.org/2000/svg">
<path fill-rule="evenodd" clip-rule="evenodd" d="M2.50008 0.833252C2.96032 0.833252 3.33341 1.20635 3.33341 1.66659V3.47551C3.59406 3.38338 3.87455 3.33325 4.16675 3.33325H5.83341C7.21413 3.33325 8.33341 4.45254 8.33341 5.83325V14.1666C8.33341 15.5473 7.21413 16.6666 5.83341 16.6666H4.16675C3.87455 16.6666 3.59406 16.6165 3.33341 16.5243V18.3333C3.33341 18.7935 2.96032 19.1666 2.50008 19.1666C2.03984 19.1666 1.66675 18.7935 1.66675 18.3333V1.66659C1.66675 1.20635 2.03984 0.833252 2.50008 0.833252ZM3.33341 14.1666C3.33341 14.6268 3.70651 14.9999 4.16675 14.9999H5.83341C6.29365 14.9999 6.66675 14.6268 6.66675 14.1666V5.83325C6.66675 5.37301 6.29365 4.99992 5.83341 4.99992H4.16675C3.70651 4.99992 3.33341 5.37301 3.33341 5.83325V14.1666ZM17.5001 0.833252C17.9603 0.833252 18.3334 1.20635 18.3334 1.66659V18.3333C18.3334 18.7935 17.9603 19.1666 17.5001 19.1666C17.0398 19.1666 16.6667 18.7935 16.6667 18.3333V14.8577C16.4061 14.9498 16.1256 14.9999 15.8334 14.9999H14.1667C12.786 14.9999 11.6667 13.8806 11.6667 12.4999V7.49992C11.6667 6.11921 12.786 4.99992 14.1667 4.99992H15.8334C16.1256 4.99992 16.4061 5.05005 16.6667 5.14217V1.66659C16.6667 1.20635 17.0398 0.833252 17.5001 0.833252ZM16.6667 7.49992C16.6667 7.03968 16.2937 6.66659 15.8334 6.66659H14.1667C13.7065 6.66659 13.3334 7.03968 13.3334 7.49992V12.4999C13.3334 12.9602 13.7065 13.3333 14.1667 13.3333H15.8334C16.2937 13.3333 16.6667 12.9602 16.6667 12.4999V7.49992Z" fill="black"/>
</svg>
