<svg width="20" height="20" viewBox="0 0 20 20" fill="none" xmlns="http://www.w3.org/2000/svg">
<g clip-path="url(#clip0_2001_4068)">
<path fill-rule="evenodd" clip-rule="evenodd" d="M5.83325 14.1667C5.37301 14.1667 4.99992 14.5398 4.99992 15V16.6667C4.99992 17.1269 5.37301 17.5 5.83325 17.5H14.1666C14.6268 17.5 14.9999 17.1269 14.9999 16.6667V15C14.9999 14.5398 14.6268 14.1667 14.1666 14.1667H5.83325ZM3.33325 15C3.33325 13.6193 4.45254 12.5 5.83325 12.5H14.1666C15.5473 12.5 16.6666 13.6193 16.6666 15V16.6667C16.6666 18.0474 15.5473 19.1667 14.1666 19.1667H5.83325C4.45254 19.1667 3.33325 18.0474 3.33325 16.6667V15Z" fill="black"/>
<path fill-rule="evenodd" clip-rule="evenodd" d="M7.5 5.83341C7.03976 5.83341 6.66667 6.20651 6.66667 6.66675V8.33341C6.66667 8.79365 7.03976 9.16675 7.5 9.16675H12.5C12.9602 9.16675 13.3333 8.79365 13.3333 8.33341V6.66675C13.3333 6.20651 12.9602 5.83341 12.5 5.83341H7.5ZM5 6.66675C5 5.28604 6.11929 4.16675 7.5 4.16675H12.5C13.8807 4.16675 15 5.28604 15 6.66675V8.33341C15 9.71413 13.8807 10.8334 12.5 10.8334H7.5C6.11929 10.8334 5 9.71413 5 8.33341V6.66675Z" fill="black"/>
<path fill-rule="evenodd" clip-rule="evenodd" d="M0.833252 1.66659C0.833252 1.20635 1.20635 0.833252 1.66659 0.833252H18.3333C18.7935 0.833252 19.1666 1.20635 19.1666 1.66659C19.1666 2.12682 18.7935 2.49992 18.3333 2.49992H1.66659C1.20635 2.49992 0.833252 2.12682 0.833252 1.66659Z" fill="black"/>
</g>
<defs>
<clipPath id="clip0_2001_4068">
<rect width="20" height="20" fill="white"/>
</clipPath>
</defs>
</svg>
