<svg width="20" height="20" viewBox="0 0 20 20" fill="none" xmlns="http://www.w3.org/2000/svg">
<g clip-path="url(#clip0_2001_4025)">
<path fill-rule="evenodd" clip-rule="evenodd" d="M1.66659 0.833252C2.12682 0.833252 2.49992 1.20635 2.49992 1.66659V18.3333C2.49992 18.7935 2.12682 19.1666 1.66659 19.1666C1.20635 19.1666 0.833252 18.7935 0.833252 18.3333V1.66659C0.833252 1.20635 1.20635 0.833252 1.66659 0.833252ZM6.66659 4.99992C6.20635 4.99992 5.83325 5.37301 5.83325 5.83325V14.1666C5.83325 14.6268 6.20635 14.9999 6.66659 14.9999H8.33325C8.79349 14.9999 9.16659 14.6268 9.16659 14.1666V5.83325C9.16659 5.37301 8.79349 4.99992 8.33325 4.99992H6.66659ZM4.16659 5.83325C4.16659 4.45254 5.28587 3.33325 6.66659 3.33325H8.33325C9.71396 3.33325 10.8333 4.45254 10.8333 5.83325V14.1666C10.8333 15.5473 9.71396 16.6666 8.33325 16.6666H6.66659C5.28587 16.6666 4.16659 15.5473 4.16659 14.1666V5.83325ZM14.9999 6.66659C14.5397 6.66659 14.1666 7.03968 14.1666 7.49992V12.4999C14.1666 12.9602 14.5397 13.3333 14.9999 13.3333H16.6666C17.1268 13.3333 17.4999 12.9602 17.4999 12.4999V7.49992C17.4999 7.03968 17.1268 6.66659 16.6666 6.66659H14.9999ZM12.4999 7.49992C12.4999 6.11921 13.6192 4.99992 14.9999 4.99992H16.6666C18.0473 4.99992 19.1666 6.11921 19.1666 7.49992V12.4999C19.1666 13.8806 18.0473 14.9999 16.6666 14.9999H14.9999C13.6192 14.9999 12.4999 13.8806 12.4999 12.4999V7.49992Z" fill="black"/>
</g>
<defs>
<clipPath id="clip0_2001_4025">
<rect width="20" height="20" fill="white"/>
</clipPath>
</defs>
</svg>
