<svg width="20" height="20" viewBox="0 0 20 20" fill="none" xmlns="http://www.w3.org/2000/svg">
<g clip-path="url(#clip0_2001_4013)">
<path fill-rule="evenodd" clip-rule="evenodd" d="M18.3333 0.833252C18.7935 0.833252 19.1666 1.20635 19.1666 1.66659V18.3333C19.1666 18.7935 18.7935 19.1666 18.3333 19.1666C17.873 19.1666 17.4999 18.7935 17.4999 18.3333V1.66659C17.4999 1.20635 17.873 0.833252 18.3333 0.833252ZM3.33325 4.16659C2.87301 4.16659 2.49992 4.53968 2.49992 4.99992V6.66659C2.49992 7.12682 2.87301 7.49992 3.33325 7.49992H13.3333C13.7935 7.49992 14.1666 7.12682 14.1666 6.66659V4.99992C14.1666 4.53968 13.7935 4.16659 13.3333 4.16659H3.33325ZM0.833252 4.99992C0.833252 3.61921 1.95254 2.49992 3.33325 2.49992H13.3333C14.714 2.49992 15.8333 3.61921 15.8333 4.99992V6.66659C15.8333 8.0473 14.714 9.16659 13.3333 9.16659H3.33325C1.95254 9.16659 0.833252 8.0473 0.833252 6.66659V4.99992ZM9.16659 12.4999C8.70635 12.4999 8.33325 12.873 8.33325 13.3333V14.9999C8.33325 15.4602 8.70635 15.8333 9.16659 15.8333H13.3333C13.7935 15.8333 14.1666 15.4602 14.1666 14.9999V13.3333C14.1666 12.873 13.7935 12.4999 13.3333 12.4999H9.16659ZM6.66659 13.3333C6.66659 11.9525 7.78587 10.8333 9.16659 10.8333H13.3333C14.714 10.8333 15.8333 11.9525 15.8333 13.3333V14.9999C15.8333 16.3806 14.714 17.4999 13.3333 17.4999H9.16659C7.78587 17.4999 6.66659 16.3806 6.66659 14.9999V13.3333Z" fill="black"/>
</g>
<defs>
<clipPath id="clip0_2001_4013">
<rect width="20" height="20" fill="white"/>
</clipPath>
</defs>
</svg>
