<svg width="20" height="20" viewBox="0 0 20 20" fill="none" xmlns="http://www.w3.org/2000/svg">
<path fill-rule="evenodd" clip-rule="evenodd" d="M3.33333 0.833252C3.79357 0.833252 4.16667 1.20635 4.16667 1.66659V3.47551C4.42732 3.38338 4.7078 3.33325 5 3.33325H6.66667C8.04738 3.33325 9.16667 4.45254 9.16667 5.83325V14.1666C9.16667 15.5473 8.04738 16.6666 6.66667 16.6666H5C4.7078 16.6666 4.42732 16.6165 4.16667 16.5243V18.3333C4.16667 18.7935 3.79357 19.1666 3.33333 19.1666C2.8731 19.1666 2.5 18.7935 2.5 18.3333V1.66659C2.5 1.20635 2.8731 0.833252 3.33333 0.833252ZM4.16667 14.1666C4.16667 14.6268 4.53976 14.9999 5 14.9999H6.66667C7.1269 14.9999 7.5 14.6268 7.5 14.1666V5.83325C7.5 5.37301 7.1269 4.99992 6.66667 4.99992H5C4.53976 4.99992 4.16667 5.37301 4.16667 5.83325V14.1666ZM11.6667 0.833252C12.1269 0.833252 12.5 1.20635 12.5 1.66659V5.14217C12.7606 5.05005 13.0411 4.99992 13.3333 4.99992H15C16.3807 4.99992 17.5 6.11921 17.5 7.49992V12.4999C17.5 13.8806 16.3807 14.9999 15 14.9999H13.3333C13.0411 14.9999 12.7606 14.9498 12.5 14.8577V18.3333C12.5 18.7935 12.1269 19.1666 11.6667 19.1666C11.2064 19.1666 10.8333 18.7935 10.8333 18.3333V1.66659C10.8333 1.20635 11.2064 0.833252 11.6667 0.833252ZM12.5 12.4999C12.5 12.9602 12.8731 13.3333 13.3333 13.3333H15C15.4602 13.3333 15.8333 12.9602 15.8333 12.4999V7.49992C15.8333 7.03968 15.4602 6.66659 15 6.66659H13.3333C12.8731 6.66659 12.5 7.03968 12.5 7.49992V12.4999Z" fill="black"/>
</svg>
