<svg width="20" height="20" viewBox="0 0 20 20" fill="none" xmlns="http://www.w3.org/2000/svg">
<g clip-path="url(#clip0_2001_4005)">
<path fill-rule="evenodd" clip-rule="evenodd" d="M3.23215 1.56549C3.70099 1.09664 4.33688 0.833252 4.99992 0.833252H6.66659C7.32963 0.833252 7.96551 1.09664 8.43435 1.56549C8.90319 2.03433 9.16659 2.67021 9.16659 3.33325V6.66659C9.16659 7.12682 8.79349 7.49992 8.33325 7.49992C7.87302 7.49992 7.49992 7.12682 7.49992 6.66659V3.33325C7.49992 3.11224 7.41212 2.90028 7.25584 2.744C7.09956 2.58772 6.8876 2.49992 6.66659 2.49992H4.99992C4.7789 2.49992 4.56694 2.58772 4.41066 2.744C4.25438 2.90028 4.16659 3.11224 4.16659 3.33325V6.66659C4.16659 7.12682 3.79349 7.49992 3.33325 7.49992C2.87301 7.49992 2.49992 7.12682 2.49992 6.66659V3.33325C2.49992 2.67021 2.76331 2.03433 3.23215 1.56549ZM13.3333 4.99992C12.8768 4.99992 12.4999 5.37682 12.4999 5.83325V6.66659C12.4999 7.12682 12.1268 7.49992 11.6666 7.49992C11.2063 7.49992 10.8333 7.12682 10.8333 6.66659V5.83325C10.8333 4.45635 11.9563 3.33325 13.3333 3.33325H14.9999C15.663 3.33325 16.2988 3.59664 16.7677 4.06549C17.2365 4.53433 17.4999 5.17021 17.4999 5.83325V6.66659C17.4999 7.12682 17.1268 7.49992 16.6666 7.49992C16.2063 7.49992 15.8333 7.12682 15.8333 6.66659V5.83325C15.8333 5.61224 15.7455 5.40028 15.5892 5.244C15.4329 5.08772 15.2209 4.99992 14.9999 4.99992H13.3333ZM0.833252 9.99992C0.833252 9.53968 1.20635 9.16659 1.66659 9.16659H18.3333C18.7935 9.16659 19.1666 9.53968 19.1666 9.99992C19.1666 10.4602 18.7935 10.8333 18.3333 10.8333H1.66659C1.20635 10.8333 0.833252 10.4602 0.833252 9.99992ZM3.33325 12.4999C3.79349 12.4999 4.16659 12.873 4.16659 13.3333V16.6666C4.16659 16.8876 4.25438 17.0996 4.41066 17.2558C4.56694 17.4121 4.77891 17.4999 4.99992 17.4999H6.66659C6.8876 17.4999 7.09956 17.4121 7.25584 17.2558C7.41212 17.0996 7.49992 16.8876 7.49992 16.6666V13.3333C7.49992 12.873 7.87302 12.4999 8.33325 12.4999C8.79349 12.4999 9.16659 12.873 9.16659 13.3333V16.6666C9.16659 17.3296 8.90319 17.9655 8.43435 18.4344C7.96551 18.9032 7.32963 19.1666 6.66659 19.1666H4.99992C4.33688 19.1666 3.70099 18.9032 3.23215 18.4344C2.76331 17.9655 2.49992 17.3296 2.49992 16.6666V13.3333C2.49992 12.873 2.87301 12.4999 3.33325 12.4999ZM11.6666 12.4999C12.1268 12.4999 12.4999 12.873 12.4999 13.3333V14.1666C12.4999 14.3876 12.5877 14.5996 12.744 14.7558C12.9003 14.9121 13.1122 14.9999 13.3333 14.9999H14.9999C15.2209 14.9999 15.4329 14.9121 15.5892 14.7558C15.7455 14.5996 15.8333 14.3876 15.8333 14.1666V13.3333C15.8333 12.873 16.2063 12.4999 16.6666 12.4999C17.1268 12.4999 17.4999 12.873 17.4999 13.3333V14.1666C17.4999 14.8296 17.2365 15.4655 16.7677 15.9344C16.2988 16.4032 15.663 16.6666 14.9999 16.6666H13.3333C12.6702 16.6666 12.0343 16.4032 11.5655 15.9344C11.0966 15.4655 10.8333 14.8296 10.8333 14.1666V13.3333C10.8333 12.873 11.2063 12.4999 11.6666 12.4999Z" fill="black"/>
</g>
<defs>
<clipPath id="clip0_2001_4005">
<rect width="20" height="20" fill="white"/>
</clipPath>
</defs>
</svg>
