<svg width="20" height="20" viewBox="0 0 20 20" fill="none" xmlns="http://www.w3.org/2000/svg">
<g clip-path="url(#clip0_2001_4039)">
<path fill-rule="evenodd" clip-rule="evenodd" d="M6.66675 12.4999C6.20651 12.4999 5.83341 12.873 5.83341 13.3333V14.9999C5.83341 15.4602 6.20651 15.8333 6.66675 15.8333H10.8334C11.2937 15.8333 11.6667 15.4602 11.6667 14.9999V13.3333C11.6667 12.873 11.2937 12.4999 10.8334 12.4999H6.66675ZM4.16675 13.3333C4.16675 11.9525 5.28604 10.8333 6.66675 10.8333H10.8334C12.2141 10.8333 13.3334 11.9525 13.3334 13.3333V14.9999C13.3334 16.3806 12.2141 17.4999 10.8334 17.4999H6.66675C5.28604 17.4999 4.16675 16.3806 4.16675 14.9999V13.3333Z" fill="black"/>
<path fill-rule="evenodd" clip-rule="evenodd" d="M6.66675 4.16667C6.20651 4.16667 5.83341 4.53976 5.83341 5V6.66667C5.83341 7.1269 6.20651 7.5 6.66675 7.5H16.6667C17.127 7.5 17.5001 7.1269 17.5001 6.66667V5C17.5001 4.53976 17.127 4.16667 16.6667 4.16667H6.66675ZM4.16675 5C4.16675 3.61929 5.28604 2.5 6.66675 2.5H16.6667C18.0475 2.5 19.1667 3.61929 19.1667 5V6.66667C19.1667 8.04738 18.0475 9.16667 16.6667 9.16667H6.66675C5.28604 9.16667 4.16675 8.04738 4.16675 6.66667V5Z" fill="black"/>
<path fill-rule="evenodd" clip-rule="evenodd" d="M1.66659 0.833252C2.12682 0.833252 2.49992 1.20635 2.49992 1.66659V18.3333C2.49992 18.7935 2.12682 19.1666 1.66659 19.1666C1.20635 19.1666 0.833252 18.7935 0.833252 18.3333V1.66659C0.833252 1.20635 1.20635 0.833252 1.66659 0.833252Z" fill="black"/>
</g>
<defs>
<clipPath id="clip0_2001_4039">
<rect width="20" height="20" fill="white"/>
</clipPath>
</defs>
</svg>
