<svg width="20" height="20" viewBox="0 0 20 20" fill="none" xmlns="http://www.w3.org/2000/svg">
<g clip-path="url(#clip0_2001_4011)">
<path fill-rule="evenodd" clip-rule="evenodd" d="M5.00016 2.50016C4.53993 2.50016 4.16683 2.87326 4.16683 3.3335V13.3335C4.16683 13.7937 4.53993 14.1668 5.00016 14.1668H6.66683C7.12707 14.1668 7.50016 13.7937 7.50016 13.3335V3.3335C7.50016 2.87326 7.12707 2.50016 6.66683 2.50016H5.00016ZM2.50016 3.3335C2.50016 1.95278 3.61945 0.833496 5.00016 0.833496H6.66683C8.04754 0.833496 9.16683 1.95278 9.16683 3.3335V13.3335C9.16683 14.7142 8.04754 15.8335 6.66683 15.8335H5.00016C3.61945 15.8335 2.50016 14.7142 2.50016 13.3335V3.3335ZM13.3335 8.3335C12.8733 8.3335 12.5002 8.70659 12.5002 9.16683V13.3335C12.5002 13.7937 12.8733 14.1668 13.3335 14.1668H15.0002C15.4604 14.1668 15.8335 13.7937 15.8335 13.3335V9.16683C15.8335 8.70659 15.4604 8.3335 15.0002 8.3335H13.3335ZM10.8335 9.16683C10.8335 7.78612 11.9528 6.66683 13.3335 6.66683H15.0002C16.3809 6.66683 17.5002 7.78612 17.5002 9.16683V13.3335C17.5002 14.7142 16.3809 15.8335 15.0002 15.8335H13.3335C11.9528 15.8335 10.8335 14.7142 10.8335 13.3335V9.16683ZM0.833496 18.3335C0.833496 17.8733 1.20659 17.5002 1.66683 17.5002H18.3335C18.7937 17.5002 19.1668 17.8733 19.1668 18.3335C19.1668 18.7937 18.7937 19.1668 18.3335 19.1668H1.66683C1.20659 19.1668 0.833496 18.7937 0.833496 18.3335Z" fill="black"/>
</g>
<defs>
<clipPath id="clip0_2001_4011">
<rect width="20" height="20" fill="white"/>
</clipPath>
</defs>
</svg>
