<svg width="20" height="20" viewBox="0 0 20 20" fill="none" xmlns="http://www.w3.org/2000/svg">
<g clip-path="url(#clip0_2001_4060)">
<path fill-rule="evenodd" clip-rule="evenodd" d="M5.83325 14.1667C5.37301 14.1667 4.99992 14.5398 4.99992 15V16.6667C4.99992 17.1269 5.37301 17.5 5.83325 17.5H14.1666C14.6268 17.5 14.9999 17.1269 14.9999 16.6667V15C14.9999 14.5398 14.6268 14.1667 14.1666 14.1667H5.83325ZM3.33325 15C3.33325 13.6193 4.45254 12.5 5.83325 12.5H14.1666C15.5473 12.5 16.6666 13.6193 16.6666 15V16.6667C16.6666 18.0474 15.5473 19.1667 14.1666 19.1667H5.83325C4.45254 19.1667 3.33325 18.0474 3.33325 16.6667V15Z" fill="black"/>
<path fill-rule="evenodd" clip-rule="evenodd" d="M7.5 2.49992C7.03976 2.49992 6.66667 2.87301 6.66667 3.33325V4.99992C6.66667 5.46016 7.03976 5.83325 7.5 5.83325H12.5C12.9602 5.83325 13.3333 5.46016 13.3333 4.99992V3.33325C13.3333 2.87301 12.9602 2.49992 12.5 2.49992H7.5ZM5 3.33325C5 1.95254 6.11929 0.833252 7.5 0.833252H12.5C13.8807 0.833252 15 1.95254 15 3.33325V4.99992C15 6.38063 13.8807 7.49992 12.5 7.49992H7.5C6.11929 7.49992 5 6.38063 5 4.99992V3.33325Z" fill="black"/>
<path fill-rule="evenodd" clip-rule="evenodd" d="M0.833252 10.0001C0.833252 9.53984 1.20635 9.16675 1.66659 9.16675H18.3333C18.7935 9.16675 19.1666 9.53984 19.1666 10.0001C19.1666 10.4603 18.7935 10.8334 18.3333 10.8334H1.66659C1.20635 10.8334 0.833252 10.4603 0.833252 10.0001Z" fill="black"/>
</g>
<defs>
<clipPath id="clip0_2001_4060">
<rect width="20" height="20" fill="white"/>
</clipPath>
</defs>
</svg>
