<svg width="20" height="20" viewBox="0 0 20 20" fill="none" xmlns="http://www.w3.org/2000/svg">
<path fill-rule="evenodd" clip-rule="evenodd" d="M3.33333 0.833252C3.79357 0.833252 4.16667 1.20635 4.16667 1.66659V18.3333C4.16667 18.7935 3.79357 19.1666 3.33333 19.1666C2.8731 19.1666 2.5 18.7935 2.5 18.3333V1.66659C2.5 1.20635 2.8731 0.833252 3.33333 0.833252ZM16.6667 0.833252C17.1269 0.833252 17.5 1.20635 17.5 1.66659V18.3333C17.5 18.7935 17.1269 19.1666 16.6667 19.1666C16.2064 19.1666 15.8333 18.7935 15.8333 18.3333V1.66659C15.8333 1.20635 16.2064 0.833252 16.6667 0.833252ZM9.16667 6.66659C8.70643 6.66659 8.33333 7.03968 8.33333 7.49992V12.4999C8.33333 12.9602 8.70643 13.3333 9.16667 13.3333H10.8333C11.2936 13.3333 11.6667 12.9602 11.6667 12.4999V7.49992C11.6667 7.03968 11.2936 6.66659 10.8333 6.66659H9.16667ZM6.66667 7.49992C6.66667 6.11921 7.78595 4.99992 9.16667 4.99992H10.8333C12.214 4.99992 13.3333 6.11921 13.3333 7.49992V12.4999C13.3333 13.8806 12.214 14.9999 10.8333 14.9999H9.16667C7.78595 14.9999 6.66667 13.8806 6.66667 12.4999V7.49992Z" fill="black"/>
</svg>
