<svg width="20" height="20" viewBox="0 0 20 20" fill="none" xmlns="http://www.w3.org/2000/svg">
<g clip-path="url(#clip0_2001_4064)">
<path fill-rule="evenodd" clip-rule="evenodd" d="M5.83325 10.8334C5.37301 10.8334 4.99992 11.2065 4.99992 11.6667V13.3334C4.99992 13.7937 5.37301 14.1667 5.83325 14.1667H14.1666C14.6268 14.1667 14.9999 13.7937 14.9999 13.3334V11.6667C14.9999 11.2065 14.6268 10.8334 14.1666 10.8334H5.83325ZM3.33325 11.6667C3.33325 10.286 4.45254 9.16675 5.83325 9.16675H14.1666C15.5473 9.16675 16.6666 10.286 16.6666 11.6667V13.3334C16.6666 14.7141 15.5473 15.8334 14.1666 15.8334H5.83325C4.45254 15.8334 3.33325 14.7141 3.33325 13.3334V11.6667Z" fill="black"/>
<path fill-rule="evenodd" clip-rule="evenodd" d="M7.5 2.49992C7.03976 2.49992 6.66667 2.87301 6.66667 3.33325V4.99992C6.66667 5.46016 7.03976 5.83325 7.5 5.83325H12.5C12.9602 5.83325 13.3333 5.46016 13.3333 4.99992V3.33325C13.3333 2.87301 12.9602 2.49992 12.5 2.49992H7.5ZM5 3.33325C5 1.95254 6.11929 0.833252 7.5 0.833252H12.5C13.8807 0.833252 15 1.95254 15 3.33325V4.99992C15 6.38063 13.8807 7.49992 12.5 7.49992H7.5C6.11929 7.49992 5 6.38063 5 4.99992V3.33325Z" fill="black"/>
<path fill-rule="evenodd" clip-rule="evenodd" d="M0.833252 18.3333C0.833252 17.8731 1.20635 17.5 1.66659 17.5H18.3333C18.7935 17.5 19.1666 17.8731 19.1666 18.3333C19.1666 18.7936 18.7935 19.1667 18.3333 19.1667H1.66659C1.20635 19.1667 0.833252 18.7936 0.833252 18.3333Z" fill="black"/>
</g>
<defs>
<clipPath id="clip0_2001_4064">
<rect width="20" height="20" fill="white"/>
</clipPath>
</defs>
</svg>
