<svg width="20" height="20" viewBox="0 0 20 20" fill="none" xmlns="http://www.w3.org/2000/svg">
<g clip-path="url(#clip0_2001_4021)">
<path fill-rule="evenodd" clip-rule="evenodd" d="M9.99992 0.833252C10.4602 0.833252 10.8333 1.20635 10.8333 1.66659V18.3333C10.8333 18.7935 10.4602 19.1666 9.99992 19.1666C9.53968 19.1666 9.16659 18.7935 9.16659 18.3333V1.66659C9.16659 1.20635 9.53968 0.833252 9.99992 0.833252ZM3.33325 4.99992C2.87301 4.99992 2.49992 5.37301 2.49992 5.83325V14.1666C2.49992 14.6268 2.87301 14.9999 3.33325 14.9999H4.99992C5.46016 14.9999 5.83325 14.6268 5.83325 14.1666V5.83325C5.83325 5.37301 5.46016 4.99992 4.99992 4.99992H3.33325ZM0.833252 5.83325C0.833252 4.45254 1.95254 3.33325 3.33325 3.33325H4.99992C6.38063 3.33325 7.49992 4.45254 7.49992 5.83325V14.1666C7.49992 15.5473 6.38063 16.6666 4.99992 16.6666H3.33325C1.95254 16.6666 0.833252 15.5473 0.833252 14.1666V5.83325ZM14.9999 6.66659C14.5397 6.66659 14.1666 7.03968 14.1666 7.49992V12.4999C14.1666 12.9602 14.5397 13.3333 14.9999 13.3333H16.6666C17.1268 13.3333 17.4999 12.9602 17.4999 12.4999V7.49992C17.4999 7.03968 17.1268 6.66659 16.6666 6.66659H14.9999ZM12.4999 7.49992C12.4999 6.11921 13.6192 4.99992 14.9999 4.99992H16.6666C18.0473 4.99992 19.1666 6.11921 19.1666 7.49992V12.4999C19.1666 13.8806 18.0473 14.9999 16.6666 14.9999H14.9999C13.6192 14.9999 12.4999 13.8806 12.4999 12.4999V7.49992Z" fill="black"/>
</g>
<defs>
<clipPath id="clip0_2001_4021">
<rect width="20" height="20" fill="white"/>
</clipPath>
</defs>
</svg>
