<svg width="20" height="20" viewBox="0 0 20 20" fill="none" xmlns="http://www.w3.org/2000/svg">
<g clip-path="url(#clip0_2001_4023)">
<path fill-rule="evenodd" clip-rule="evenodd" d="M18.3333 0.833252C18.7935 0.833252 19.1666 1.20635 19.1666 1.66659V18.3333C19.1666 18.7935 18.7935 19.1666 18.3333 19.1666C17.873 19.1666 17.4999 18.7935 17.4999 18.3333V1.66659C17.4999 1.20635 17.873 0.833252 18.3333 0.833252ZM3.33325 4.99992C2.87301 4.99992 2.49992 5.37301 2.49992 5.83325V14.1666C2.49992 14.6268 2.87301 14.9999 3.33325 14.9999H4.99992C5.46016 14.9999 5.83325 14.6268 5.83325 14.1666V5.83325C5.83325 5.37301 5.46016 4.99992 4.99992 4.99992H3.33325ZM0.833252 5.83325C0.833252 4.45254 1.95254 3.33325 3.33325 3.33325H4.99992C6.38063 3.33325 7.49992 4.45254 7.49992 5.83325V14.1666C7.49992 15.5473 6.38063 16.6666 4.99992 16.6666H3.33325C1.95254 16.6666 0.833252 15.5473 0.833252 14.1666V5.83325ZM11.6666 6.66659C11.2063 6.66659 10.8333 7.03968 10.8333 7.49992V12.4999C10.8333 12.9602 11.2063 13.3333 11.6666 13.3333H13.3333C13.7935 13.3333 14.1666 12.9602 14.1666 12.4999V7.49992C14.1666 7.03968 13.7935 6.66659 13.3333 6.66659H11.6666ZM9.16659 7.49992C9.16659 6.11921 10.2859 4.99992 11.6666 4.99992H13.3333C14.714 4.99992 15.8333 6.11921 15.8333 7.49992V12.4999C15.8333 13.8806 14.714 14.9999 13.3333 14.9999H11.6666C10.2859 14.9999 9.16659 13.8806 9.16659 12.4999V7.49992Z" fill="black"/>
</g>
<defs>
<clipPath id="clip0_2001_4023">
<rect width="20" height="20" fill="white"/>
</clipPath>
</defs>
</svg>
