<svg width="20" height="20" viewBox="0 0 20 20" fill="none" xmlns="http://www.w3.org/2000/svg">
<path fill-rule="evenodd" clip-rule="evenodd" d="M1.66675 5.00008C1.66675 4.53984 2.03984 4.16675 2.50008 4.16675H17.5001C17.9603 4.16675 18.3334 4.53984 18.3334 5.00008C18.3334 5.46032 17.9603 5.83341 17.5001 5.83341H2.50008C2.03984 5.83341 1.66675 5.46032 1.66675 5.00008ZM5.00008 10.0001C5.00008 9.53984 5.37318 9.16675 5.83341 9.16675H14.1667C14.627 9.16675 15.0001 9.53984 15.0001 10.0001C15.0001 10.4603 14.627 10.8334 14.1667 10.8334H5.83341C5.37318 10.8334 5.00008 10.4603 5.00008 10.0001ZM3.33341 15.0001C3.33341 14.5398 3.70651 14.1667 4.16675 14.1667H15.8334C16.2937 14.1667 16.6667 14.5398 16.6667 15.0001C16.6667 15.4603 16.2937 15.8334 15.8334 15.8334H4.16675C3.70651 15.8334 3.33341 15.4603 3.33341 15.0001Z" fill="black"/>
</svg>
