<svg width="20" height="20" viewBox="0 0 20 20" fill="none" xmlns="http://www.w3.org/2000/svg">
<g clip-path="url(#clip0_2001_4037)">
<path fill-rule="evenodd" clip-rule="evenodd" d="M0.833252 1.66659C0.833252 1.20635 1.20635 0.833252 1.66659 0.833252H18.3333C18.7935 0.833252 19.1666 1.20635 19.1666 1.66659C19.1666 2.12682 18.7935 2.49992 18.3333 2.49992H1.66659C1.20635 2.49992 0.833252 2.12682 0.833252 1.66659ZM4.99992 5.83325C4.53968 5.83325 4.16659 6.20635 4.16659 6.66659V16.6666C4.16659 17.1268 4.53968 17.4999 4.99992 17.4999H6.66659C7.12682 17.4999 7.49992 17.1268 7.49992 16.6666V6.66659C7.49992 6.20635 7.12682 5.83325 6.66659 5.83325H4.99992ZM2.49992 6.66659C2.49992 5.28587 3.61921 4.16659 4.99992 4.16659H6.66659C8.0473 4.16659 9.16659 5.28587 9.16659 6.66659V16.6666C9.16659 18.0473 8.0473 19.1666 6.66659 19.1666H4.99992C3.61921 19.1666 2.49992 18.0473 2.49992 16.6666V6.66659ZM13.3333 5.83325C12.873 5.83325 12.4999 6.20635 12.4999 6.66659V10.8333C12.4999 11.2935 12.873 11.6666 13.3333 11.6666H14.9999C15.4602 11.6666 15.8333 11.2935 15.8333 10.8333V6.66659C15.8333 6.20635 15.4602 5.83325 14.9999 5.83325H13.3333ZM10.8333 6.66659C10.8333 5.28587 11.9525 4.16659 13.3333 4.16659H14.9999C16.3806 4.16659 17.4999 5.28587 17.4999 6.66659V10.8333C17.4999 12.214 16.3806 13.3333 14.9999 13.3333H13.3333C11.9525 13.3333 10.8333 12.214 10.8333 10.8333V6.66659Z" fill="black"/>
</g>
<defs>
<clipPath id="clip0_2001_4037">
<rect width="20" height="20" fill="white"/>
</clipPath>
</defs>
</svg>
