<svg width="20" height="20" viewBox="0 0 20 20" fill="none" xmlns="http://www.w3.org/2000/svg">
<path fill-rule="evenodd" clip-rule="evenodd" d="M8.33333 0.833252C8.79357 0.833252 9.16667 1.20635 9.16667 1.66659V18.3333C9.16667 18.7935 8.79357 19.1666 8.33333 19.1666C7.8731 19.1666 7.5 18.7935 7.5 18.3333V16.5243C7.23935 16.6165 6.95886 16.6666 6.66667 16.6666H5C3.61929 16.6666 2.5 15.5473 2.5 14.1666V5.83325C2.5 4.45254 3.61929 3.33325 5 3.33325H6.66667C6.95886 3.33325 7.23935 3.38338 7.5 3.47551V1.66659C7.5 1.20635 7.8731 0.833252 8.33333 0.833252ZM7.5 5.83325C7.5 5.37301 7.1269 4.99992 6.66667 4.99992H5C4.53976 4.99992 4.16667 5.37301 4.16667 5.83325V14.1666C4.16667 14.6268 4.53976 14.9999 5 14.9999H6.66667C7.1269 14.9999 7.5 14.6268 7.5 14.1666V5.83325ZM16.6667 0.833252C17.1269 0.833252 17.5 1.20635 17.5 1.66659V18.3333C17.5 18.7935 17.1269 19.1666 16.6667 19.1666C16.2064 19.1666 15.8333 18.7935 15.8333 18.3333V14.8577C15.5727 14.9498 15.2922 14.9999 15 14.9999H13.3333C11.9526 14.9999 10.8333 13.8806 10.8333 12.4999V7.49992C10.8333 6.11921 11.9526 4.99992 13.3333 4.99992H15C15.2922 4.99992 15.5727 5.05005 15.8333 5.14217V1.66659C15.8333 1.20635 16.2064 0.833252 16.6667 0.833252ZM15.8333 7.49992C15.8333 7.03968 15.4602 6.66659 15 6.66659H13.3333C12.8731 6.66659 12.5 7.03968 12.5 7.49992V12.4999C12.5 12.9602 12.8731 13.3333 13.3333 13.3333H15C15.4602 13.3333 15.8333 12.9602 15.8333 12.4999V7.49992Z" fill="black"/>
</svg>
