<svg width="20" height="20" viewBox="0 0 20 20" fill="none" xmlns="http://www.w3.org/2000/svg">
<path fill-rule="evenodd" clip-rule="evenodd" d="M5.83333 0.833252C6.29357 0.833252 6.66667 1.20635 6.66667 1.66659V3.33325C8.04738 3.33325 9.16667 4.45254 9.16667 5.83325V14.1666C9.16667 15.5473 8.04738 16.6666 6.66667 16.6666V18.3333C6.66667 18.7935 6.29357 19.1666 5.83333 19.1666C5.3731 19.1666 5 18.7935 5 18.3333V16.6666C3.61929 16.6666 2.5 15.5473 2.5 14.1666V5.83325C2.5 4.45254 3.61929 3.33325 5 3.33325V1.66659C5 1.20635 5.3731 0.833252 5.83333 0.833252ZM5 4.99992C4.53976 4.99992 4.16667 5.37301 4.16667 5.83325V14.1666C4.16667 14.6268 4.53976 14.9999 5 14.9999H6.66667C7.1269 14.9999 7.5 14.6268 7.5 14.1666V5.83325C7.5 5.37301 7.1269 4.99992 6.66667 4.99992H5ZM14.1667 0.833252C14.6269 0.833252 15 1.20635 15 1.66659V4.99992C16.3807 4.99992 17.5 6.11921 17.5 7.49992V12.4999C17.5 13.8806 16.3807 14.9999 15 14.9999V18.3333C15 18.7935 14.6269 19.1666 14.1667 19.1666C13.7064 19.1666 13.3333 18.7935 13.3333 18.3333V14.9999C11.9526 14.9999 10.8333 13.8806 10.8333 12.4999V7.49992C10.8333 6.11921 11.9526 4.99992 13.3333 4.99992V1.66659C13.3333 1.20635 13.7064 0.833252 14.1667 0.833252ZM13.3333 6.66659C12.8731 6.66659 12.5 7.03968 12.5 7.49992V12.4999C12.5 12.9602 12.8731 13.3333 13.3333 13.3333H15C15.4602 13.3333 15.8333 12.9602 15.8333 12.4999V7.49992C15.8333 7.03968 15.4602 6.66659 15 6.66659H13.3333Z" fill="black"/>
</svg>
