<svg width="20" height="20" viewBox="0 0 20 20" fill="none" xmlns="http://www.w3.org/2000/svg">
<path fill-rule="evenodd" clip-rule="evenodd" d="M5.83325 13.3334C5.37301 13.3334 4.99992 13.7065 4.99992 14.1667V15.8334C4.99992 16.2937 5.37301 16.6667 5.83325 16.6667H14.1666C14.6268 16.6667 14.9999 16.2937 14.9999 15.8334V14.1667C14.9999 13.7065 14.6268 13.3334 14.1666 13.3334H5.83325ZM3.33325 14.1667C3.33325 12.786 4.45254 11.6667 5.83325 11.6667H14.1666C15.5473 11.6667 16.6666 12.786 16.6666 14.1667V15.8334C16.6666 17.2141 15.5473 18.3334 14.1666 18.3334H5.83325C4.45254 18.3334 3.33325 17.2141 3.33325 15.8334V14.1667Z" fill="black"/>
<path fill-rule="evenodd" clip-rule="evenodd" d="M7.5 3.33341C7.03976 3.33341 6.66667 3.70651 6.66667 4.16675V5.83341C6.66667 6.29365 7.03976 6.66675 7.5 6.66675H12.5C12.9602 6.66675 13.3333 6.29365 13.3333 5.83341V4.16675C13.3333 3.70651 12.9602 3.33341 12.5 3.33341H7.5ZM5 4.16675C5 2.78604 6.11929 1.66675 7.5 1.66675H12.5C13.8807 1.66675 15 2.78604 15 4.16675V5.83341C15 7.21413 13.8807 8.33341 12.5 8.33341H7.5C6.11929 8.33341 5 7.21413 5 5.83341V4.16675Z" fill="black"/>
<path fill-rule="evenodd" clip-rule="evenodd" d="M0.833252 17.5001C0.833252 17.0398 1.20635 16.6667 1.66659 16.6667H18.3333C18.7935 16.6667 19.1666 17.0398 19.1666 17.5001C19.1666 17.9603 18.7935 18.3334 18.3333 18.3334H1.66659C1.20635 18.3334 0.833252 17.9603 0.833252 17.5001Z" fill="black"/>
<path fill-rule="evenodd" clip-rule="evenodd" d="M0.833252 2.50008C0.833252 2.03984 1.20635 1.66675 1.66659 1.66675H18.3333C18.7935 1.66675 19.1666 2.03984 19.1666 2.50008C19.1666 2.96032 18.7935 3.33341 18.3333 3.33341H1.66659C1.20635 3.33341 0.833252 2.96032 0.833252 2.50008Z" fill="black"/>
</svg>
