<svg width="20" height="20" viewBox="0 0 20 20" fill="none" xmlns="http://www.w3.org/2000/svg">
<path fill-rule="evenodd" clip-rule="evenodd" d="M7.5 8.33341C7.03976 8.33341 6.66667 8.70651 6.66667 9.16675V10.8334C6.66667 11.2937 7.03976 11.6667 7.5 11.6667H12.5C12.9602 11.6667 13.3333 11.2937 13.3333 10.8334V9.16675C13.3333 8.70651 12.9602 8.33341 12.5 8.33341H7.5ZM5 9.16675C5 7.78604 6.11929 6.66675 7.5 6.66675H12.5C13.8807 6.66675 15 7.78604 15 9.16675V10.8334C15 12.2141 13.8807 13.3334 12.5 13.3334H7.5C6.11929 13.3334 5 12.2141 5 10.8334V9.16675Z" fill="black"/>
<path fill-rule="evenodd" clip-rule="evenodd" d="M0.833252 16.6666C0.833252 16.2063 1.20635 15.8333 1.66659 15.8333H18.3333C18.7935 15.8333 19.1666 16.2063 19.1666 16.6666C19.1666 17.1268 18.7935 17.4999 18.3333 17.4999H1.66659C1.20635 17.4999 0.833252 17.1268 0.833252 16.6666Z" fill="black"/>
<path fill-rule="evenodd" clip-rule="evenodd" d="M0.833252 3.33333C0.833252 2.8731 1.20635 2.5 1.66659 2.5H18.3333C18.7935 2.5 19.1666 2.8731 19.1666 3.33333C19.1666 3.79357 18.7935 4.16667 18.3333 4.16667H1.66659C1.20635 4.16667 0.833252 3.79357 0.833252 3.33333Z" fill="black"/>
</svg>
