<svg width="20" height="20" viewBox="0 0 20 20" fill="none" xmlns="http://www.w3.org/2000/svg">
<path fill-rule="evenodd" clip-rule="evenodd" d="M1.66675 5.00008C1.66675 4.53984 2.03984 4.16675 2.50008 4.16675H17.5001C17.9603 4.16675 18.3334 4.53984 18.3334 5.00008C18.3334 5.46032 17.9603 5.83341 17.5001 5.83341H2.50008C2.03984 5.83341 1.66675 5.46032 1.66675 5.00008ZM1.66675 10.0001C1.66675 9.53984 2.03984 9.16675 2.50008 9.16675H17.5001C17.9603 9.16675 18.3334 9.53984 18.3334 10.0001C18.3334 10.4603 17.9603 10.8334 17.5001 10.8334H2.50008C2.03984 10.8334 1.66675 10.4603 1.66675 10.0001ZM1.66675 15.0001C1.66675 14.5398 2.03984 14.1667 2.50008 14.1667H17.5001C17.9603 14.1667 18.3334 14.5398 18.3334 15.0001C18.3334 15.4603 17.9603 15.8334 17.5001 15.8334H2.50008C2.03984 15.8334 1.66675 15.4603 1.66675 15.0001Z" fill="black"/>
</svg>
