<svg width="20" height="20" viewBox="0 0 20 20" fill="none" xmlns="http://www.w3.org/2000/svg">
<path fill-rule="evenodd" clip-rule="evenodd" d="M5.83325 12.4999C5.37301 12.4999 4.99992 12.873 4.99992 13.3333V14.9999C4.99992 15.4602 5.37301 15.8333 5.83325 15.8333H14.1666C14.6268 15.8333 14.9999 15.4602 14.9999 14.9999V13.3333C14.9999 12.873 14.6268 12.4999 14.1666 12.4999H5.83325ZM3.33325 13.3333C3.33325 11.9525 4.45254 10.8333 5.83325 10.8333H14.1666C15.5473 10.8333 16.6666 11.9525 16.6666 13.3333V14.9999C16.6666 16.3806 15.5473 17.4999 14.1666 17.4999H5.83325C4.45254 17.4999 3.33325 16.3806 3.33325 14.9999V13.3333Z" fill="black"/>
<path fill-rule="evenodd" clip-rule="evenodd" d="M7.5 4.16667C7.03976 4.16667 6.66667 4.53976 6.66667 5V6.66667C6.66667 7.1269 7.03976 7.5 7.5 7.5H12.5C12.9602 7.5 13.3333 7.1269 13.3333 6.66667V5C13.3333 4.53976 12.9602 4.16667 12.5 4.16667H7.5ZM5 5C5 3.61929 6.11929 2.5 7.5 2.5H12.5C13.8807 2.5 15 3.61929 15 5V6.66667C15 8.04738 13.8807 9.16667 12.5 9.16667H7.5C6.11929 9.16667 5 8.04738 5 6.66667V5Z" fill="black"/>
<path fill-rule="evenodd" clip-rule="evenodd" d="M0.833252 16.6666C0.833252 16.2063 1.20635 15.8333 1.66659 15.8333H18.3333C18.7935 15.8333 19.1666 16.2063 19.1666 16.6666C19.1666 17.1268 18.7935 17.4999 18.3333 17.4999H1.66659C1.20635 17.4999 0.833252 17.1268 0.833252 16.6666Z" fill="black"/>
<path fill-rule="evenodd" clip-rule="evenodd" d="M0.833252 8.33333C0.833252 7.8731 1.20635 7.5 1.66659 7.5H18.3333C18.7935 7.5 19.1666 7.8731 19.1666 8.33333C19.1666 8.79357 18.7935 9.16667 18.3333 9.16667H1.66659C1.20635 9.16667 0.833252 8.79357 0.833252 8.33333Z" fill="black"/>
</svg>
