<svg width="20" height="20" viewBox="0 0 20 20" fill="none" xmlns="http://www.w3.org/2000/svg">
<g clip-path="url(#clip0_2001_4007)">
<path fill-rule="evenodd" clip-rule="evenodd" d="M9.99992 0.833252C10.4602 0.833252 10.8333 1.20635 10.8333 1.66659V18.3333C10.8333 18.7935 10.4602 19.1666 9.99992 19.1666C9.53968 19.1666 9.16659 18.7935 9.16659 18.3333V1.66659C9.16659 1.20635 9.53968 0.833252 9.99992 0.833252ZM3.33325 4.16659C2.87682 4.16659 2.49992 4.54349 2.49992 4.99992V6.66659C2.49992 6.8876 2.58772 7.09956 2.744 7.25584C2.90028 7.41212 3.11224 7.49992 3.33325 7.49992H6.66659C7.12682 7.49992 7.49992 7.87302 7.49992 8.33325C7.49992 8.79349 7.12682 9.16659 6.66659 9.16659H3.33325C2.67021 9.16659 2.03433 8.90319 1.56549 8.43435C1.09664 7.96551 0.833252 7.32963 0.833252 6.66659V4.99992C0.833252 3.62301 1.95635 2.49992 3.33325 2.49992H6.66659C7.12682 2.49992 7.49992 2.87301 7.49992 3.33325C7.49992 3.79349 7.12682 4.16659 6.66659 4.16659H3.33325ZM12.4999 3.33325C12.4999 2.87301 12.873 2.49992 13.3333 2.49992H16.6666C17.3296 2.49992 17.9655 2.76331 18.4344 3.23215C18.9032 3.70099 19.1666 4.33688 19.1666 4.99992V6.66659C19.1666 7.32963 18.9032 7.96551 18.4344 8.43435C17.9655 8.90319 17.3296 9.16659 16.6666 9.16659H13.3333C12.873 9.16659 12.4999 8.79349 12.4999 8.33325C12.4999 7.87302 12.873 7.49992 13.3333 7.49992H16.6666C16.8876 7.49992 17.0996 7.41212 17.2558 7.25584C17.4121 7.09956 17.4999 6.8876 17.4999 6.66659V4.99992C17.4999 4.77891 17.4121 4.56694 17.2558 4.41066C17.0996 4.25438 16.8876 4.16659 16.6666 4.16659H13.3333C12.873 4.16659 12.4999 3.79349 12.4999 3.33325ZM5.83325 12.4999C5.37682 12.4999 4.99992 12.8768 4.99992 13.3333V14.9999C4.99992 15.2209 5.08772 15.4329 5.244 15.5892C5.40028 15.7455 5.61224 15.8333 5.83325 15.8333H6.66659C7.12682 15.8333 7.49992 16.2063 7.49992 16.6666C7.49992 17.1268 7.12682 17.4999 6.66659 17.4999H5.83325C5.17021 17.4999 4.53433 17.2365 4.06549 16.7677C3.59664 16.2988 3.33325 15.663 3.33325 14.9999V13.3333C3.33325 11.9563 4.45635 10.8333 5.83325 10.8333H6.66659C7.12682 10.8333 7.49992 11.2063 7.49992 11.6666C7.49992 12.1268 7.12682 12.4999 6.66659 12.4999H5.83325ZM12.4999 11.6666C12.4999 11.2063 12.873 10.8333 13.3333 10.8333H14.1666C14.8296 10.8333 15.4655 11.0966 15.9344 11.5655C16.4032 12.0343 16.6666 12.6702 16.6666 13.3333V14.9999C16.6666 15.663 16.4032 16.2988 15.9344 16.7677C15.4655 17.2365 14.8296 17.4999 14.1666 17.4999H13.3333C12.873 17.4999 12.4999 17.1268 12.4999 16.6666C12.4999 16.2063 12.873 15.8333 13.3333 15.8333H14.1666C14.3876 15.8333 14.5996 15.7455 14.7558 15.5892C14.9121 15.4329 14.9999 15.2209 14.9999 14.9999V13.3333C14.9999 13.1122 14.9121 12.9003 14.7558 12.744C14.5996 12.5877 14.3876 12.4999 14.1666 12.4999H13.3333C12.873 12.4999 12.4999 12.1268 12.4999 11.6666Z" fill="black"/>
</g>
<defs>
<clipPath id="clip0_2001_4007">
<rect width="20" height="20" fill="white"/>
</clipPath>
</defs>
</svg>
