<svg width="20" height="20" viewBox="0 0 20 20" fill="none" xmlns="http://www.w3.org/2000/svg">
<path fill-rule="evenodd" clip-rule="evenodd" d="M4.16675 8.33333C4.16675 7.8731 4.53984 7.5 5.00008 7.5H8.33342C8.79365 7.5 9.16675 7.8731 9.16675 8.33333C9.16675 8.79357 8.79365 9.16667 8.33342 9.16667H5.00008C4.53984 9.16667 4.16675 8.79357 4.16675 8.33333Z" fill="black"/>
<path fill-rule="evenodd" clip-rule="evenodd" d="M1.56549 3.23223C2.03433 2.76339 2.67021 2.5 3.33325 2.5H9.99992C10.663 2.5 11.2988 2.76339 11.7677 3.23223C12.2365 3.70107 12.4999 4.33696 12.4999 5V15C12.4999 15.4602 12.1268 15.8333 11.6666 15.8333C11.2063 15.8333 10.8333 15.4602 10.8333 15V5C10.8333 4.77899 10.7455 4.56702 10.5892 4.41074C10.4329 4.25446 10.2209 4.16667 9.99992 4.16667H3.33325C3.11224 4.16667 2.90028 4.25446 2.744 4.41074C2.58772 4.56702 2.49992 4.77899 2.49992 5V14.1667H4.16659C4.62682 14.1667 4.99992 14.5398 4.99992 15C4.99992 15.4602 4.62682 15.8333 4.16659 15.8333H2.49992C2.05789 15.8333 1.63397 15.6577 1.32141 15.3452C1.00885 15.0326 0.833252 14.6087 0.833252 14.1667V5C0.833252 4.33696 1.09664 3.70107 1.56549 3.23223Z" fill="black"/>
<path fill-rule="evenodd" clip-rule="evenodd" d="M10.8333 6.66659C10.8333 6.20635 11.2063 5.83325 11.6666 5.83325L13.652 5.83325C13.9615 5.83342 14.2647 5.91972 14.5279 6.08251C14.791 6.24522 15.0035 6.47791 15.1418 6.75455C15.1419 6.75461 15.1419 6.75467 15.1419 6.75473C15.142 6.7548 15.142 6.75486 15.142 6.75492L16.4247 9.31867L18.0266 9.85262C18.0266 9.85264 18.0267 9.85266 18.0268 9.85268C18.3584 9.96319 18.647 10.1752 18.8515 10.4587C19.0561 10.7422 19.1663 11.083 19.1666 11.4326V14.1666C19.1666 14.6086 18.991 15.0325 18.6784 15.3451C18.3659 15.6577 17.9419 15.8333 17.4999 15.8333H15.8333C15.373 15.8333 14.9999 15.4602 14.9999 14.9999C14.9999 14.5397 15.373 14.1666 15.8333 14.1666H17.4999V11.4339L15.8968 10.8995C15.6891 10.8301 15.4972 10.7206 15.3319 10.577C15.1666 10.4335 15.0313 10.2589 14.9335 10.063C14.9335 10.063 14.9335 10.0629 14.9334 10.0628L13.6513 7.50029L13.6511 7.49992H11.6666C11.2063 7.49992 10.8333 7.12682 10.8333 6.66659Z" fill="black"/>
<path fill-rule="evenodd" clip-rule="evenodd" d="M6.66659 5.83325C7.12682 5.83325 7.49992 6.20635 7.49992 6.66659V9.99992C7.49992 10.4602 7.12682 10.8333 6.66659 10.8333C6.20635 10.8333 5.83325 10.4602 5.83325 9.99992V6.66659C5.83325 6.20635 6.20635 5.83325 6.66659 5.83325Z" fill="black"/>
<path fill-rule="evenodd" clip-rule="evenodd" d="M6.66675 15.0001C6.66675 14.5398 7.03984 14.1667 7.50008 14.1667H12.5001C12.9603 14.1667 13.3334 14.5398 13.3334 15.0001C13.3334 15.4603 12.9603 15.8334 12.5001 15.8334H7.50008C7.03984 15.8334 6.66675 15.4603 6.66675 15.0001Z" fill="black"/>
<path fill-rule="evenodd" clip-rule="evenodd" d="M14.1667 14.1667C13.7065 14.1667 13.3334 14.5398 13.3334 15C13.3334 15.4602 13.7065 15.8333 14.1667 15.8333C14.627 15.8333 15.0001 15.4602 15.0001 15C15.0001 14.5398 14.627 14.1667 14.1667 14.1667ZM11.6667 15C11.6667 13.6193 12.786 12.5 14.1667 12.5C15.5475 12.5 16.6667 13.6193 16.6667 15C16.6667 16.3807 15.5475 17.5 14.1667 17.5C12.786 17.5 11.6667 16.3807 11.6667 15Z" fill="black"/>
<path fill-rule="evenodd" clip-rule="evenodd" d="M5.83325 14.1667C5.37301 14.1667 4.99992 14.5398 4.99992 15C4.99992 15.4602 5.37301 15.8333 5.83325 15.8333C6.29349 15.8333 6.66659 15.4602 6.66659 15C6.66659 14.5398 6.29349 14.1667 5.83325 14.1667ZM3.33325 15C3.33325 13.6193 4.45254 12.5 5.83325 12.5C7.21396 12.5 8.33325 13.6193 8.33325 15C8.33325 16.3807 7.21396 17.5 5.83325 17.5C4.45254 17.5 3.33325 16.3807 3.33325 15Z" fill="black"/>
</svg>
