<svg width="20" height="20" viewBox="0 0 20 20" fill="none" xmlns="http://www.w3.org/2000/svg">
<path fill-rule="evenodd" clip-rule="evenodd" d="M5.97623 3.47631C6.60135 2.85119 7.4492 2.5 8.33325 2.5C9.21731 2.5 10.0652 2.85119 10.6903 3.47631C11.3154 4.10143 11.6666 4.94928 11.6666 5.83333C11.6666 7.08697 11.0788 7.92011 10.2779 8.49569C9.65206 8.94555 8.85258 9.26381 8.15046 9.54331C8.10969 9.55954 8.06925 9.57563 8.02919 9.59162C8.90355 10.8922 10.2783 12.3309 12.371 13.7544C13.2302 12.7377 13.7499 11.4262 13.7499 10C13.7499 9.53976 14.123 9.16667 14.5833 9.16667C15.0435 9.16667 15.4166 9.53976 15.4166 10C15.4166 11.7532 14.8078 13.3703 13.7912 14.6506C14.5188 15.0774 15.3164 15.4998 16.19 15.9136C16.6059 16.1106 16.7834 16.6075 16.5864 17.0234C16.3893 17.4393 15.8924 17.6168 15.4765 17.4198C14.4147 16.9168 13.4509 16.3967 12.5779 15.8661C11.2959 16.8879 9.67466 17.5 7.91658 17.5C6.70101 17.5 5.53522 17.0171 4.67568 16.1576C3.81614 15.298 3.33325 14.1322 3.33325 12.9167C3.33325 11.4509 3.83445 10.3985 4.62842 9.62933C4.95464 9.31331 5.32206 9.05396 5.70137 8.83401C5.20613 7.72086 4.99992 6.69658 4.99992 5.83333C4.99992 4.94928 5.35111 4.10143 5.97623 3.47631ZM7.21329 8.12323C7.3336 8.07444 7.45041 8.02761 7.56374 7.98217C8.28134 7.69447 8.85956 7.46265 9.30522 7.14233C9.75442 6.81947 9.99992 6.4547 9.99992 5.83333C9.99992 5.39131 9.82432 4.96738 9.51176 4.65482C9.1992 4.34226 8.77528 4.16667 8.33325 4.16667C7.89122 4.16667 7.4673 4.34226 7.15474 4.65482C6.84218 4.96738 6.66658 5.39131 6.66658 5.83333C6.66658 6.42849 6.81475 7.2158 7.21329 8.12323ZM6.49763 10.2988C6.23035 10.4563 5.99253 10.6283 5.78808 10.8264C5.33205 11.2682 4.99992 11.8824 4.99992 12.9167C4.99992 13.6902 5.30721 14.4321 5.85419 14.9791C6.40117 15.526 7.14304 15.8333 7.91658 15.8333C9.08276 15.8333 10.1723 15.4859 11.0866 14.8894C8.92753 13.3635 7.45359 11.7847 6.49763 10.2988Z" fill="black"/>
<path fill-rule="evenodd" clip-rule="evenodd" d="M12.5 10.0001C12.5 9.53984 12.8731 9.16675 13.3333 9.16675H15.8333C16.2936 9.16675 16.6667 9.53984 16.6667 10.0001C16.6667 10.4603 16.2936 10.8334 15.8333 10.8334H13.3333C12.8731 10.8334 12.5 10.4603 12.5 10.0001Z" fill="black"/>
</svg>
