<svg width="20" height="20" viewBox="0 0 20 20" fill="none" xmlns="http://www.w3.org/2000/svg">
<path fill-rule="evenodd" clip-rule="evenodd" d="M4.16659 5.83341C3.94557 5.83341 3.73361 5.92121 3.57733 6.07749C3.42105 6.23377 3.33325 6.44573 3.33325 6.66675C3.33325 6.97989 3.42049 7.42357 3.62844 7.95676C4.04746 7.70827 4.37737 7.51153 4.63644 7.28701C4.9233 7.03839 4.99992 6.8581 4.99992 6.66675C4.99992 6.44573 4.91212 6.23377 4.75584 6.07749C4.59956 5.92121 4.3876 5.83341 4.16659 5.83341ZM4.40667 9.43352C4.40968 9.43174 4.4127 9.42996 4.41572 9.42818C4.84455 9.1751 5.34012 8.88264 5.72799 8.54649C6.22237 8.11802 6.66659 7.51706 6.66659 6.66675C6.66659 6.00371 6.40319 5.36782 5.93435 4.89898C5.46551 4.43014 4.82963 4.16675 4.16659 4.16675C3.50354 4.16675 2.86766 4.43014 2.39882 4.89898C1.92998 5.36782 1.66659 6.00371 1.66659 6.66675C1.66659 7.30704 1.85136 8.07416 2.21445 8.89561C1.47979 9.50349 0.833252 10.3597 0.833252 11.6667C0.833252 13.5437 2.28968 15.0001 4.16659 15.0001C5.17199 15.0001 6.10134 14.7143 6.87916 14.2182C7.20406 14.4445 7.5457 14.666 7.90451 14.8813C8.29916 15.1181 8.81104 14.9901 9.04783 14.5955C9.28462 14.2008 9.15665 13.689 8.762 13.4522C8.54789 13.3237 8.34095 13.1931 8.14102 13.0607C8.78608 12.219 9.16659 11.1602 9.16659 10.0001C9.16659 9.53984 8.79349 9.16675 8.33325 9.16675C7.87302 9.16675 7.49992 9.53984 7.49992 10.0001C7.49992 10.7881 7.2415 11.503 6.80264 12.0668C5.83037 11.2569 5.08537 10.4188 4.53925 9.62991C4.49356 9.56392 4.44938 9.49845 4.40667 9.43352ZM3.04268 10.3924C2.69129 10.7461 2.49992 11.1388 2.49992 11.6667C2.49992 12.6232 3.21016 13.3334 4.16659 13.3334C4.61921 13.3334 5.04773 13.2481 5.43736 13.0924C4.49389 12.266 3.74359 11.4087 3.16893 10.5786C3.12594 10.5165 3.08386 10.4544 3.04268 10.3924Z" fill="black"/>
<path fill-rule="evenodd" clip-rule="evenodd" d="M14.1666 5.83341C13.9456 5.83341 13.7336 5.92121 13.5773 6.07749C13.421 6.23377 13.3333 6.44573 13.3333 6.66675C13.3333 6.97989 13.4205 7.42357 13.6284 7.95676C14.0475 7.70827 14.3774 7.51153 14.6364 7.28701C14.9233 7.03839 14.9999 6.8581 14.9999 6.66675C14.9999 6.44573 14.9121 6.23377 14.7558 6.07749C14.5996 5.92121 14.3876 5.83341 14.1666 5.83341ZM14.4067 9.43352C14.4097 9.43174 14.4127 9.42996 14.4157 9.42818C14.8446 9.1751 15.3401 8.88264 15.728 8.54649C16.2224 8.11802 16.6666 7.51706 16.6666 6.66675C16.6666 6.00371 16.4032 5.36782 15.9344 4.89898C15.4655 4.43014 14.8296 4.16675 14.1666 4.16675C13.5035 4.16675 12.8677 4.43014 12.3988 4.89898C11.93 5.36782 11.6666 6.00371 11.6666 6.66675C11.6666 7.30704 11.8514 8.07416 12.2145 8.89561C11.4798 9.50349 10.8333 10.3597 10.8333 11.6667C10.8333 13.5437 12.2897 15.0001 14.1666 15.0001C15.172 15.0001 16.1013 14.7143 16.8792 14.2182C17.2041 14.4445 17.5457 14.666 17.9045 14.8813C18.2992 15.1181 18.811 14.9901 19.0478 14.5955C19.2846 14.2008 19.1566 13.689 18.762 13.4522C18.5479 13.3237 18.3409 13.1931 18.141 13.0607C18.7861 12.219 19.1666 11.1602 19.1666 10.0001C19.1666 9.53984 18.7935 9.16675 18.3333 9.16675C17.873 9.16675 17.4999 9.53984 17.4999 10.0001C17.4999 10.7881 17.2415 11.503 16.8026 12.0668C15.8304 11.2569 15.0854 10.4188 14.5392 9.62991C14.4936 9.56392 14.4494 9.49845 14.4067 9.43352ZM13.0427 10.3924C12.6913 10.7461 12.4999 11.1388 12.4999 11.6667C12.4999 12.6232 13.2102 13.3334 14.1666 13.3334C14.6192 13.3334 15.0477 13.2481 15.4374 13.0924C14.4939 12.266 13.7436 11.4087 13.1689 10.5786C13.1259 10.5165 13.0839 10.4544 13.0427 10.3924Z" fill="black"/>
</svg>
