<svg width="20" height="20" viewBox="0 0 20 20" fill="none" xmlns="http://www.w3.org/2000/svg">
<path fill-rule="evenodd" clip-rule="evenodd" d="M8.33342 0.833252C8.79365 0.833252 9.16675 1.20635 9.16675 1.66659V6.35992C9.16675 7.08439 8.70816 7.65521 8.1572 7.92595C7.45934 8.2701 6.87178 8.80279 6.46108 9.46369C6.05033 10.1247 5.83289 10.8875 5.83342 11.6657C5.83569 13.1189 6.38036 14.4099 7.13441 15.4475C7.89426 16.4931 8.83397 17.2352 9.53943 17.5879C9.95108 17.7937 10.1179 18.2943 9.91211 18.7059C9.70628 19.1176 9.20572 19.2844 8.79407 19.0786C7.83286 18.598 6.69174 17.6734 5.78617 16.4273C4.87487 15.1733 4.16957 13.5478 4.16675 11.6678L4.16675 11.6672C4.16595 10.5776 4.47036 9.50949 5.04548 8.584C5.62061 7.65851 6.44345 6.91261 7.42078 6.43081L7.42208 6.43017C7.45761 6.41273 7.48089 6.38977 7.49246 6.37283C7.49754 6.36541 7.49945 6.36076 7.50008 6.35868V1.66659C7.50008 1.20635 7.87318 0.833252 8.33342 0.833252ZM7.50035 6.3574C7.50039 6.35739 7.50036 6.35774 7.50015 6.35846C7.50022 6.35777 7.50032 6.35741 7.50035 6.3574Z" fill="black"/>
<path fill-rule="evenodd" clip-rule="evenodd" d="M4.89898 4.06549C5.36782 3.59664 6.00371 3.33325 6.66675 3.33325H8.33342C8.79365 3.33325 9.16675 3.70635 9.16675 4.16659C9.16675 4.62682 8.79365 4.99992 8.33342 4.99992H6.66675C6.44573 4.99992 6.23377 5.08772 6.07749 5.244C5.92121 5.40028 5.83341 5.61224 5.83341 5.83325C5.83341 6.05427 5.92121 6.26623 6.07749 6.42251C6.23377 6.57879 6.44573 6.66659 6.66675 6.66659H7.23342C7.69365 6.66659 8.06675 7.03968 8.06675 7.49992C8.06675 7.96016 7.69365 8.33325 7.23342 8.33325H6.66675C6.00371 8.33325 5.36782 8.06986 4.89898 7.60102C4.43014 7.13218 4.16675 6.49629 4.16675 5.83325C4.16675 5.17021 4.43014 4.53433 4.89898 4.06549Z" fill="black"/>
<path fill-rule="evenodd" clip-rule="evenodd" d="M11.6666 0.833252C12.1268 0.833252 12.4999 1.20635 12.4999 1.66659V6.35871C12.5006 6.36082 12.5025 6.36557 12.5077 6.37318C12.5194 6.39029 12.5427 6.41323 12.5779 6.43055L12.5783 6.43074C13.5558 6.9124 14.3788 7.65825 14.9541 8.58375C15.5294 9.50925 15.834 10.5774 15.8333 11.6671C15.8331 13.5477 15.1275 15.1736 14.2156 16.4276C13.3092 17.6738 12.1668 18.5982 11.2059 19.0786C10.7943 19.2844 10.2937 19.1176 10.0879 18.7059C9.88209 18.2943 10.0489 17.7937 10.4606 17.5879C11.1664 17.235 12.1073 16.4927 12.8677 15.4473C13.6223 14.4097 14.1666 13.1191 14.1666 11.6666V11.666C14.1671 10.8877 13.9496 10.1247 13.5386 9.46363C13.1277 8.80256 12.5398 8.26981 11.8416 7.92577C11.2917 7.655 10.8333 7.08426 10.8333 6.35992V1.66659C10.8333 1.20635 11.2064 0.833252 11.6666 0.833252ZM12.4997 6.35745C12.4997 6.35746 12.4998 6.35781 12.4999 6.35851C12.4997 6.35779 12.4996 6.35744 12.4997 6.35745Z" fill="black"/>
<path fill-rule="evenodd" clip-rule="evenodd" d="M10.8333 4.16659C10.8333 3.70635 11.2063 3.33325 11.6666 3.33325H13.3333C13.9963 3.33325 14.6322 3.59664 15.101 4.06549C15.5699 4.53433 15.8333 5.17021 15.8333 5.83325C15.8333 6.49629 15.5699 7.13218 15.101 7.60102C14.6322 8.06986 13.9963 8.33325 13.3333 8.33325H12.7666C12.3063 8.33325 11.9333 7.96016 11.9333 7.49992C11.9333 7.03968 12.3063 6.66659 12.7666 6.66659H13.3333C13.5543 6.66659 13.7662 6.57879 13.9225 6.42251C14.0788 6.26623 14.1666 6.05427 14.1666 5.83325C14.1666 5.61224 14.0788 5.40028 13.9225 5.244C13.7662 5.08772 13.5543 4.99992 13.3333 4.99992H11.6666C11.2063 4.99992 10.8333 4.62682 10.8333 4.16659Z" fill="black"/>
<path fill-rule="evenodd" clip-rule="evenodd" d="M4.16675 18.3333C4.16675 17.8731 4.53984 17.5 5.00008 17.5H15.0001C15.4603 17.5 15.8334 17.8731 15.8334 18.3333C15.8334 18.7936 15.4603 19.1667 15.0001 19.1667H5.00008C4.53984 19.1667 4.16675 18.7936 4.16675 18.3333Z" fill="black"/>
<path fill-rule="evenodd" clip-rule="evenodd" d="M6.66675 1.66659C6.66675 1.20635 7.03984 0.833252 7.50008 0.833252H12.5001C12.9603 0.833252 13.3334 1.20635 13.3334 1.66659C13.3334 2.12682 12.9603 2.49992 12.5001 2.49992H7.50008C7.03984 2.49992 6.66675 2.12682 6.66675 1.66659Z" fill="black"/>
</svg>
