<svg width="20" height="20" viewBox="0 0 20 20" fill="none" xmlns="http://www.w3.org/2000/svg">
<g clip-path="url(#clip0_2001_4102)">
<path fill-rule="evenodd" clip-rule="evenodd" d="M10.0001 5.83325C10.4603 5.83325 10.8334 6.20635 10.8334 6.66659V18.3333C10.8334 18.7935 10.4603 19.1666 10.0001 19.1666C9.53984 19.1666 9.16675 18.7935 9.16675 18.3333V6.66659C9.16675 6.20635 9.53984 5.83325 10.0001 5.83325Z" fill="black"/>
<path fill-rule="evenodd" clip-rule="evenodd" d="M1.07733 9.41083C1.23361 9.25455 1.44557 9.16675 1.66659 9.16675H4.16659C4.62682 9.16675 4.99992 9.53984 4.99992 10.0001C4.99992 10.4603 4.62682 10.8334 4.16659 10.8334H2.54633C2.7344 12.5159 3.48793 14.0947 4.69662 15.3034C6.10314 16.7099 8.0108 17.5001 9.99992 17.5001C11.989 17.5001 13.8967 16.7099 15.3032 15.3034C16.5119 14.0947 17.2654 12.5159 17.4535 10.8334H15.8333C15.373 10.8334 14.9999 10.4603 14.9999 10.0001C14.9999 9.53984 15.373 9.16675 15.8333 9.16675H18.3333C18.7935 9.16675 19.1666 9.53984 19.1666 10.0001C19.1666 12.4312 18.2008 14.7628 16.4817 16.4819C14.7626 18.201 12.4311 19.1667 9.99992 19.1667C7.56877 19.1667 5.23719 18.201 3.51811 16.4819C1.79902 14.7628 0.833252 12.4312 0.833252 10.0001C0.833252 9.77907 0.921049 9.56711 1.07733 9.41083Z" fill="black"/>
<path fill-rule="evenodd" clip-rule="evenodd" d="M10.0001 2.49992C9.07961 2.49992 8.33341 3.24611 8.33341 4.16658C8.33341 5.08706 9.07961 5.83325 10.0001 5.83325C10.9206 5.83325 11.6667 5.08706 11.6667 4.16658C11.6667 3.24611 10.9206 2.49992 10.0001 2.49992ZM6.66675 4.16658C6.66675 2.32564 8.15913 0.833252 10.0001 0.833252C11.841 0.833252 13.3334 2.32564 13.3334 4.16658C13.3334 6.00753 11.841 7.49992 10.0001 7.49992C8.15913 7.49992 6.66675 6.00753 6.66675 4.16658Z" fill="black"/>
</g>
<defs>
<clipPath id="clip0_2001_4102">
<rect width="20" height="20" fill="white"/>
</clipPath>
</defs>
</svg>
