<svg width="20" height="20" viewBox="0 0 20 20" fill="none" xmlns="http://www.w3.org/2000/svg">
<g clip-path="url(#clip0_2001_4113)">
<path fill-rule="evenodd" clip-rule="evenodd" d="M9.99992 2.49992C5.85778 2.49992 2.49992 5.85778 2.49992 9.99992C2.49992 14.1421 5.85778 17.4999 9.99992 17.4999C14.1421 17.4999 17.4999 14.1421 17.4999 9.99992C17.4999 5.85778 14.1421 2.49992 9.99992 2.49992ZM0.833252 9.99992C0.833252 4.93731 4.93731 0.833252 9.99992 0.833252C15.0625 0.833252 19.1666 4.93731 19.1666 9.99992C19.1666 15.0625 15.0625 19.1666 9.99992 19.1666C4.93731 19.1666 0.833252 15.0625 0.833252 9.99992Z" fill="black"/>
<path fill-rule="evenodd" clip-rule="evenodd" d="M5.83325 12.5001C5.83325 12.0398 6.20635 11.6667 6.66659 11.6667H13.3333C13.7935 11.6667 14.1666 12.0398 14.1666 12.5001C14.1666 12.9603 13.7935 13.3334 13.3333 13.3334H6.66659C6.20635 13.3334 5.83325 12.9603 5.83325 12.5001Z" fill="black"/>
<path fill-rule="evenodd" clip-rule="evenodd" d="M5.83325 7.50008C5.83325 7.03984 6.20635 6.66675 6.66659 6.66675H8.33325C8.79349 6.66675 9.16658 7.03984 9.16658 7.50008C9.16658 7.96032 8.79349 8.33341 8.33325 8.33341H6.66659C6.20635 8.33341 5.83325 7.96032 5.83325 7.50008Z" fill="black"/>
<path fill-rule="evenodd" clip-rule="evenodd" d="M10.8333 7.50008C10.8333 7.03984 11.2063 6.66675 11.6666 6.66675H13.3333C13.7935 6.66675 14.1666 7.03984 14.1666 7.50008C14.1666 7.96032 13.7935 8.33341 13.3333 8.33341H11.6666C11.2063 8.33341 10.8333 7.96032 10.8333 7.50008Z" fill="black"/>
</g>
<defs>
<clipPath id="clip0_2001_4113">
<rect width="20" height="20" fill="white"/>
</clipPath>
</defs>
</svg>
