<svg width="20" height="20" viewBox="0 0 20 20" fill="none" xmlns="http://www.w3.org/2000/svg">
<g clip-path="url(#clip0_2001_4118)">
<path fill-rule="evenodd" clip-rule="evenodd" d="M6.20611 0.921412C6.61776 1.12724 6.78461 1.6278 6.57879 2.03945L2.41212 10.3728C2.2063 10.7844 1.70574 10.9513 1.29409 10.7455C0.882441 10.5396 0.715587 10.0391 0.921412 9.62742L5.08808 1.29409C5.2939 0.882441 5.79446 0.715587 6.20611 0.921412Z" fill="black"/>
<path fill-rule="evenodd" clip-rule="evenodd" d="M10.3726 0.921412C10.7843 1.12724 10.9511 1.6278 10.7453 2.03945L6.57863 10.3728C6.3728 10.7844 5.87224 10.9513 5.46059 10.7455C5.04895 10.5396 4.88209 10.0391 5.08792 9.62742L9.25458 1.29409C9.46041 0.882441 9.96097 0.715587 10.3726 0.921412Z" fill="black"/>
<path fill-rule="evenodd" clip-rule="evenodd" d="M14.5394 0.921412C14.951 1.12724 15.1179 1.6278 14.912 2.03945L10.7454 10.3728C10.5396 10.7844 10.039 10.9513 9.62734 10.7455C9.21569 10.5396 9.04884 10.0391 9.25466 9.62742L13.4213 1.29409C13.6272 0.882441 14.1277 0.715587 14.5394 0.921412Z" fill="black"/>
<path fill-rule="evenodd" clip-rule="evenodd" d="M18.7061 0.921412C19.1178 1.12724 19.2846 1.6278 19.0788 2.03945L14.9121 10.3728C14.7063 10.7844 14.2057 10.9513 13.7941 10.7455C13.3824 10.5396 13.2156 10.0391 13.4214 9.62742L17.5881 1.29409C17.7939 0.882441 18.2945 0.715587 18.7061 0.921412Z" fill="black"/>
<path fill-rule="evenodd" clip-rule="evenodd" d="M2.91675 5.83333C2.91675 5.3731 3.28984 5 3.75008 5H16.2501C16.7103 5 17.0834 5.3731 17.0834 5.83333C17.0834 6.29357 16.7103 6.66667 16.2501 6.66667H3.75008C3.28984 6.66667 2.91675 6.29357 2.91675 5.83333Z" fill="black"/>
<path fill-rule="evenodd" clip-rule="evenodd" d="M10.0001 12.5C10.4603 12.5 10.8334 12.8731 10.8334 13.3333V18.3333C10.8334 18.7936 10.4603 19.1667 10.0001 19.1667C9.53984 19.1667 9.16675 18.7936 9.16675 18.3333V13.3333C9.16675 12.8731 9.53984 12.5 10.0001 12.5Z" fill="black"/>
</g>
<defs>
<clipPath id="clip0_2001_4118">
<rect width="20" height="20" fill="white"/>
</clipPath>
</defs>
</svg>
