<svg width="20" height="20" viewBox="0 0 20 20" fill="none" xmlns="http://www.w3.org/2000/svg">
<path fill-rule="evenodd" clip-rule="evenodd" d="M1.32141 3.82141C1.63397 3.50885 2.05789 3.33325 2.49992 3.33325H5.83325C6.29349 3.33325 6.66659 3.70635 6.66659 4.16659C6.66659 4.62682 6.29349 4.99992 5.83325 4.99992L2.49992 4.99992C2.49992 5.66296 2.76331 6.29885 3.23215 6.76769C3.70099 7.23653 4.33688 7.49992 4.99992 7.49992H5.83325C6.29349 7.49992 6.66659 7.87301 6.66659 8.33325C6.66659 8.79349 6.29349 9.16659 5.83325 9.16659H4.99992C3.89485 9.16659 2.83504 8.7276 2.05364 7.9462C1.27224 7.1648 0.833252 6.10499 0.833252 4.99992C0.833252 4.55789 1.00885 4.13397 1.32141 3.82141Z" fill="black"/>
<path fill-rule="evenodd" clip-rule="evenodd" d="M5.48816 2.98816C5.80072 2.6756 6.22464 2.5 6.66667 2.5H17.5C17.942 2.5 18.366 2.67559 18.6785 2.98816C18.9911 3.30072 19.1667 3.72464 19.1667 4.16667C19.1667 5.93478 18.4643 7.63047 17.214 8.88071C15.9638 10.131 14.2681 10.8333 12.5 10.8333H6.66667C6.22464 10.8333 5.80072 10.6577 5.48816 10.3452C5.1756 10.0326 5 9.60869 5 9.16667V4.16667C5 3.72464 5.1756 3.30072 5.48816 2.98816ZM17.5 4.16667H6.66667L6.66667 9.16667H12.5C13.8261 9.16667 15.0979 8.63988 16.0355 7.7022C16.9732 6.76452 17.5 5.49275 17.5 4.16667Z" fill="black"/>
<path fill-rule="evenodd" clip-rule="evenodd" d="M7.50008 9.16675C7.96032 9.16675 8.33341 9.53984 8.33341 10.0001V14.1667C8.33341 14.627 7.96032 15.0001 7.50008 15.0001C7.03984 15.0001 6.66675 14.627 6.66675 14.1667V10.0001C6.66675 9.53984 7.03984 9.16675 7.50008 9.16675Z" fill="black"/>
<path fill-rule="evenodd" clip-rule="evenodd" d="M12.5001 9.16675C12.9603 9.16675 13.3334 9.53984 13.3334 10.0001V14.1667C13.3334 14.627 12.9603 15.0001 12.5001 15.0001C12.0398 15.0001 11.6667 14.627 11.6667 14.1667V10.0001C11.6667 9.53984 12.0398 9.16675 12.5001 9.16675Z" fill="black"/>
<path fill-rule="evenodd" clip-rule="evenodd" d="M6.66658 14.9999C6.22456 14.9999 5.80063 15.1755 5.48807 15.4881C5.17551 15.8006 4.99992 16.2246 4.99992 16.6666H14.9999C14.9999 16.2246 14.8243 15.8006 14.5118 15.4881C14.1992 15.1755 13.7753 14.9999 13.3333 14.9999H6.66658ZM4.30956 14.3096C4.93468 13.6844 5.78253 13.3333 6.66658 13.3333H13.3333C14.2173 13.3333 15.0652 13.6844 15.6903 14.3096C16.3154 14.9347 16.6666 15.7825 16.6666 16.6666C16.6666 17.1086 16.491 17.5325 16.1784 17.8451C15.8659 18.1577 15.4419 18.3333 14.9999 18.3333H4.99992C4.55789 18.3333 4.13397 18.1577 3.82141 17.8451C3.50885 17.5325 3.33325 17.1086 3.33325 16.6666C3.33325 15.7825 3.68444 14.9347 4.30956 14.3096Z" fill="black"/>
</svg>
