<svg width="20" height="20" viewBox="0 0 20 20" fill="none" xmlns="http://www.w3.org/2000/svg">
<g clip-path="url(#clip0_2001_4131)">
<path fill-rule="evenodd" clip-rule="evenodd" d="M9.99992 2.49992C5.85778 2.49992 2.49992 5.85778 2.49992 9.99992C2.49992 14.1421 5.85778 17.4999 9.99992 17.4999C14.1421 17.4999 17.4999 14.1421 17.4999 9.99992C17.4999 5.85778 14.1421 2.49992 9.99992 2.49992ZM0.833252 9.99992C0.833252 4.93731 4.93731 0.833252 9.99992 0.833252C15.0625 0.833252 19.1666 4.93731 19.1666 9.99992C19.1666 15.0625 15.0625 19.1666 9.99992 19.1666C4.93731 19.1666 0.833252 15.0625 0.833252 9.99992Z" fill="black"/>
<path fill-rule="evenodd" clip-rule="evenodd" d="M11.5083 5.94507C11.9069 5.71492 12.4165 5.85144 12.6467 6.25L17.43 14.5333C17.6602 14.9319 17.5236 15.4416 17.1251 15.6717C16.7265 15.9019 16.2169 15.7653 15.9867 15.3668L11.2034 7.08345C10.9732 6.6849 11.1097 6.17523 11.5083 5.94507Z" fill="black"/>
<path fill-rule="evenodd" clip-rule="evenodd" d="M7.2417 6.66659C7.2417 6.20635 7.6148 5.83325 8.07503 5.83325H17.6417C18.1019 5.83325 18.475 6.20635 18.475 6.66659C18.475 7.12682 18.1019 7.49992 17.6417 7.49992H8.07503C7.6148 7.49992 7.2417 7.12682 7.2417 6.66659Z" fill="black"/>
<path fill-rule="evenodd" clip-rule="evenodd" d="M11.3502 0.995121C11.7487 1.22527 11.8853 1.73494 11.6551 2.1335L6.87177 10.4168C6.64162 10.8154 6.13195 10.9519 5.73339 10.7218C5.33484 10.4916 5.19832 9.98194 5.42847 9.58338L10.2118 1.30004C10.442 0.901487 10.9516 0.764968 11.3502 0.995121Z" fill="black"/>
<path fill-rule="evenodd" clip-rule="evenodd" d="M2.875 4.32837C3.27355 4.09822 3.78322 4.23474 4.01338 4.6333L8.79671 12.9166C9.02686 13.3152 8.89034 13.8249 8.49179 14.055C8.09323 14.2852 7.58356 14.1486 7.35341 13.7501L2.57007 5.46675C2.33992 5.0682 2.47644 4.55853 2.875 4.32837Z" fill="black"/>
<path fill-rule="evenodd" clip-rule="evenodd" d="M1.5249 13.3333C1.5249 12.8731 1.898 12.5 2.35824 12.5H11.9249C12.3851 12.5 12.7582 12.8731 12.7582 13.3333C12.7582 13.7936 12.3851 14.1667 11.9249 14.1667H2.35824C1.898 14.1667 1.5249 13.7936 1.5249 13.3333Z" fill="black"/>
<path fill-rule="evenodd" clip-rule="evenodd" d="M14.2667 9.27832C14.6652 9.50848 14.8018 10.0181 14.5716 10.4167L9.78828 18.7C9.55813 19.0986 9.04846 19.2351 8.6499 19.005C8.25134 18.7748 8.11482 18.2651 8.34497 17.8666L13.1283 9.58325C13.3585 9.18469 13.8681 9.04817 14.2667 9.27832Z" fill="black"/>
</g>
<defs>
<clipPath id="clip0_2001_4131">
<rect width="20" height="20" fill="white"/>
</clipPath>
</defs>
</svg>
