<svg width="20" height="20" viewBox="0 0 20 20" fill="none" xmlns="http://www.w3.org/2000/svg">
<path fill-rule="evenodd" clip-rule="evenodd" d="M3.33325 4.16667C2.87301 4.16667 2.49992 4.53976 2.49992 5V15C2.49992 15.4602 2.87301 15.8333 3.33325 15.8333H16.6666C17.1268 15.8333 17.4999 15.4602 17.4999 15V5C17.4999 4.53976 17.1268 4.16667 16.6666 4.16667H3.33325ZM0.833252 5C0.833252 3.61929 1.95254 2.5 3.33325 2.5H16.6666C18.0473 2.5 19.1666 3.61929 19.1666 5V15C19.1666 16.3807 18.0473 17.5 16.6666 17.5H3.33325C1.95254 17.5 0.833252 16.3807 0.833252 15V5Z" fill="black"/>
<path fill-rule="evenodd" clip-rule="evenodd" d="M8.33333 2.5C8.79357 2.5 9.16667 2.8731 9.16667 3.33333V6.66667C9.16667 7.1269 8.79357 7.5 8.33333 7.5C7.8731 7.5 7.5 7.1269 7.5 6.66667V3.33333C7.5 2.8731 7.8731 2.5 8.33333 2.5Z" fill="black"/>
<path fill-rule="evenodd" clip-rule="evenodd" d="M0.833252 6.66659C0.833252 6.20635 1.20635 5.83325 1.66659 5.83325H18.3333C18.7935 5.83325 19.1666 6.20635 19.1666 6.66659C19.1666 7.12682 18.7935 7.49992 18.3333 7.49992H1.66659C1.20635 7.49992 0.833252 7.12682 0.833252 6.66659Z" fill="black"/>
<path fill-rule="evenodd" clip-rule="evenodd" d="M5.00008 2.5C5.46032 2.5 5.83341 2.8731 5.83341 3.33333V6.66667C5.83341 7.1269 5.46032 7.5 5.00008 7.5C4.53984 7.5 4.16675 7.1269 4.16675 6.66667V3.33333C4.16675 2.8731 4.53984 2.5 5.00008 2.5Z" fill="black"/>
</svg>
