<svg width="20" height="20" viewBox="0 0 20 20" fill="none" xmlns="http://www.w3.org/2000/svg">
<g clip-path="url(#clip0_2001_4149)">
<path fill-rule="evenodd" clip-rule="evenodd" d="M5.84186 3.3334C6.94365 3.33526 7.90762 3.69262 8.67489 4.08191C9.06082 4.27772 9.40657 4.48669 9.69896 4.66933C9.78603 4.72372 9.86562 4.77396 9.93918 4.8204C9.95989 4.83347 9.98013 4.84625 9.99992 4.85873C10.0197 4.84625 10.0399 4.83347 10.0607 4.8204C10.1342 4.77396 10.2138 4.72372 10.3009 4.66933C10.5933 4.48669 10.939 4.27772 11.3249 4.08191C12.0924 3.69252 13.0567 3.33507 14.1588 3.3334C15.4555 3.31123 16.7087 3.80143 17.6463 4.69774C18.5858 5.59586 19.1321 6.82891 19.1663 8.12814C19.1664 8.13263 19.1665 8.13711 19.1665 8.14159C19.1666 8.14441 19.1666 8.14724 19.1666 8.15006C19.1666 10.057 18.5021 12.72 17.5321 14.8993C17.045 15.9937 16.4589 17.0167 15.8005 17.7808C15.1658 18.5173 14.3293 19.1667 13.3333 19.1667C12.6663 19.1667 12.0248 18.9055 11.5409 18.7084C11.5039 18.6933 11.4678 18.6786 11.4327 18.6644C10.8741 18.4389 10.442 18.2834 9.99992 18.2834C9.55787 18.2834 9.12578 18.4389 8.56716 18.6644C8.53205 18.6786 8.49596 18.6933 8.45895 18.7084C7.97501 18.9055 7.33355 19.1667 6.66659 19.1667C5.67056 19.1667 4.83402 18.5173 4.19937 17.7808C3.54093 17.0167 2.95488 15.9937 2.46776 14.8993C1.49771 12.72 0.833252 10.057 0.833252 8.15006C0.833252 8.14332 0.833334 8.13658 0.833498 8.12983C0.865078 6.82928 1.41082 5.59425 2.35117 4.69527C3.28945 3.79828 4.54427 3.30881 5.84186 3.3334ZM5.816 4.99988C4.95624 4.98208 4.12447 5.30575 3.50288 5.89999C2.88366 6.49196 2.5233 7.30438 2.49993 8.16046C2.50244 9.77025 3.08741 12.1929 3.99041 14.2216C4.4408 15.2335 4.94849 16.097 5.46193 16.6928C5.99915 17.3162 6.41262 17.5001 6.66659 17.5001C6.99028 17.5001 7.34353 17.3611 7.9431 17.119C8.47822 16.9029 9.19196 16.6167 9.99992 16.6167C10.8079 16.6167 11.5216 16.9029 12.0567 17.119C12.6563 17.3611 13.0096 17.5001 13.3333 17.5001C13.5872 17.5001 14.0007 17.3162 14.5379 16.6928C15.0513 16.097 15.559 15.2335 16.0094 14.2216C16.9123 12.1932 17.4972 9.77114 17.4999 8.16134C17.4746 7.30569 17.1136 6.49419 16.4946 5.90246C15.8731 5.30828 15.0419 4.98386 14.1821 4.99992C14.177 5.00001 14.1718 5.00006 14.1666 5.00006C13.422 5.00006 12.7223 5.24185 12.0791 5.56821C11.7587 5.73074 11.4618 5.90927 11.1839 6.08288C11.1191 6.12332 11.0531 6.16502 10.9868 6.20685C10.7851 6.33427 10.5814 6.46287 10.4071 6.56048C10.1541 6.70214 9.84571 6.70214 9.59275 6.56048C9.41844 6.46287 9.21477 6.33426 9.01299 6.20684C8.94675 6.16501 8.88071 6.12331 8.81598 6.08288C8.53806 5.90927 8.2411 5.73074 7.92078 5.56821C7.27754 5.24185 6.57788 5.00006 5.83325 5.00006C5.8275 5.00006 5.82175 5 5.816 4.99988Z" fill="black"/>
<path fill-rule="evenodd" clip-rule="evenodd" d="M7.58792 1.29409C7.79374 0.882441 8.2943 0.715587 8.70595 0.921412C9.94896 1.54291 10.8333 3.19117 10.8333 5.83343C10.8333 6.29367 10.4602 6.66677 9.99994 6.66677C9.5397 6.66677 9.16661 6.29367 9.16661 5.83343C9.16661 3.4757 8.38425 2.62395 7.96059 2.41212C7.54895 2.2063 7.38209 1.70574 7.58792 1.29409Z" fill="black"/>
</g>
<defs>
<clipPath id="clip0_2001_4149">
<rect width="20" height="20" fill="white"/>
</clipPath>
</defs>
</svg>
