<svg width="20" height="20" viewBox="0 0 20 20" fill="none" xmlns="http://www.w3.org/2000/svg">
<path fill-rule="evenodd" clip-rule="evenodd" d="M2.49992 3.33341V5.83342H17.4999V3.33341H2.49992ZM2.49891 5.83338C2.49886 5.83337 2.49885 5.83337 2.49888 5.83337L2.49891 5.83338ZM0.833252 3.33341C0.833252 2.41294 1.57944 1.66675 2.49992 1.66675H17.4999C18.4204 1.66675 19.1666 2.41294 19.1666 3.33341V5.83342C19.1666 6.75389 18.4204 7.50008 17.4999 7.50008H2.49992C1.57944 7.50008 0.833252 6.75389 0.833252 5.83342V3.33341Z" fill="black"/>
<path fill-rule="evenodd" clip-rule="evenodd" d="M3.33333 5.83325C3.79357 5.83325 4.16667 6.20635 4.16667 6.66659V15.8333C4.16667 16.0543 4.25446 16.2662 4.41074 16.4225C4.56702 16.5788 4.77899 16.6666 5 16.6666H15C15.221 16.6666 15.433 16.5788 15.5893 16.4225C15.7455 16.2662 15.8333 16.0543 15.8333 15.8333V6.66659C15.8333 6.20635 16.2064 5.83325 16.6667 5.83325C17.1269 5.83325 17.5 6.20635 17.5 6.66659V15.8333C17.5 16.4963 17.2366 17.1322 16.7678 17.601C16.2989 18.0699 15.663 18.3333 15 18.3333H5C4.33696 18.3333 3.70107 18.0699 3.23223 17.601C2.76339 17.1322 2.5 16.4963 2.5 15.8333V6.66659C2.5 6.20635 2.8731 5.83325 3.33333 5.83325Z" fill="black"/>
<path fill-rule="evenodd" clip-rule="evenodd" d="M12.6725 9.41083C12.9979 9.73626 12.9979 10.2639 12.6725 10.5893L8.50584 14.756C8.1804 15.0814 7.65277 15.0814 7.32733 14.756C7.00189 14.4306 7.00189 13.9029 7.32733 13.5775L11.494 9.41083C11.8194 9.08539 12.3471 9.08539 12.6725 9.41083Z" fill="black"/>
<path fill-rule="evenodd" clip-rule="evenodd" d="M7.32733 9.41083C7.65277 9.08539 8.1804 9.08539 8.50584 9.41083L12.6725 13.5775C12.9979 13.9029 12.9979 14.4306 12.6725 14.756C12.3471 15.0814 11.8194 15.0814 11.494 14.756L7.32733 10.5893C7.00189 10.2639 7.00189 9.73626 7.32733 9.41083Z" fill="black"/>
</svg>
