<svg width="20" height="20" viewBox="0 0 20 20" fill="none" xmlns="http://www.w3.org/2000/svg">
<path fill-rule="evenodd" clip-rule="evenodd" d="M2.49992 3.33341V5.83342H17.4999V3.33341H2.49992ZM2.49891 5.83338C2.49886 5.83337 2.49885 5.83337 2.49888 5.83337L2.49891 5.83338ZM0.833252 3.33341C0.833252 2.41294 1.57944 1.66675 2.49992 1.66675H17.4999C18.4204 1.66675 19.1666 2.41294 19.1666 3.33341V5.83342C19.1666 6.75389 18.4204 7.50008 17.4999 7.50008H2.49992C1.57944 7.50008 0.833252 6.75389 0.833252 5.83342V3.33341Z" fill="black"/>
<path fill-rule="evenodd" clip-rule="evenodd" d="M3.33333 5.83325C3.79357 5.83325 4.16667 6.20635 4.16667 6.66659V15.8333C4.16667 16.0543 4.25446 16.2662 4.41074 16.4225C4.56702 16.5788 4.77899 16.6666 5 16.6666H6.66667C7.1269 16.6666 7.5 17.0397 7.5 17.4999C7.5 17.9602 7.1269 18.3333 6.66667 18.3333H5C4.33696 18.3333 3.70107 18.0699 3.23223 17.601C2.76339 17.1322 2.5 16.4963 2.5 15.8333V6.66659C2.5 6.20635 2.8731 5.83325 3.33333 5.83325Z" fill="black"/>
<path fill-rule="evenodd" clip-rule="evenodd" d="M16.6667 5.83325C17.1269 5.83325 17.5 6.20635 17.5 6.66659V15.8333C17.5 16.4963 17.2366 17.1322 16.7678 17.601C16.2989 18.0699 15.663 18.3333 15 18.3333H13.3333C12.8731 18.3333 12.5 17.9602 12.5 17.4999C12.5 17.0397 12.8731 16.6666 13.3333 16.6666H15C15.221 16.6666 15.433 16.5788 15.5893 16.4225C15.7455 16.2662 15.8333 16.0543 15.8333 15.8333V6.66659C15.8333 6.20635 16.2064 5.83325 16.6667 5.83325Z" fill="black"/>
<path fill-rule="evenodd" clip-rule="evenodd" d="M9.41083 9.41083C9.73626 9.08539 10.2639 9.08539 10.5893 9.41083L13.0893 11.9108C13.4148 12.2363 13.4148 12.7639 13.0893 13.0893C12.7639 13.4148 12.2363 13.4148 11.9108 13.0893L10.0001 11.1786L8.08934 13.0893C7.7639 13.4148 7.23626 13.4148 6.91083 13.0893C6.58539 12.7639 6.58539 12.2363 6.91083 11.9108L9.41083 9.41083Z" fill="black"/>
<path fill-rule="evenodd" clip-rule="evenodd" d="M10.0001 9.16675C10.4603 9.16675 10.8334 9.53984 10.8334 10.0001V17.5001C10.8334 17.9603 10.4603 18.3334 10.0001 18.3334C9.53984 18.3334 9.16675 17.9603 9.16675 17.5001V10.0001C9.16675 9.53984 9.53984 9.16675 10.0001 9.16675Z" fill="black"/>
</svg>
