<svg width="20" height="20" viewBox="0 0 20 20" fill="none" xmlns="http://www.w3.org/2000/svg">
<path fill-rule="evenodd" clip-rule="evenodd" d="M4.06548 3.23223C4.53433 2.76339 5.17021 2.5 5.83325 2.5H14.1666C14.8296 2.5 15.4655 2.76339 15.9344 3.23223C16.4032 3.70107 16.6666 4.33696 16.6666 5V7.5C16.6666 7.96024 16.2935 8.33333 15.8333 8.33333C15.373 8.33333 14.9999 7.96024 14.9999 7.5V5C14.9999 4.77899 14.9121 4.56702 14.7558 4.41074C14.5996 4.25446 14.3876 4.16667 14.1666 4.16667H5.83325C5.61224 4.16667 5.40028 4.25446 5.244 4.41074C5.08772 4.56702 4.99992 4.77899 4.99992 5V7.5C4.99992 7.96024 4.62682 8.33333 4.16659 8.33333C3.70635 8.33333 3.33325 7.96024 3.33325 7.5V5C3.33325 4.33696 3.59664 3.70107 4.06548 3.23223Z" fill="black"/>
<path fill-rule="evenodd" clip-rule="evenodd" d="M2.39898 7.39898C2.86782 6.93014 3.50371 6.66675 4.16675 6.66675C4.82979 6.66675 5.46567 6.93014 5.93451 7.39898C6.40336 7.86782 6.66675 8.50371 6.66675 9.16675V10.0001H13.3334V9.16675C13.3334 8.50371 13.5968 7.86782 14.0656 7.39898C14.5345 6.93014 15.1704 6.66675 15.8334 6.66675C16.4965 6.66675 17.1323 6.93014 17.6012 7.39898C18.07 7.86782 18.3334 8.50371 18.3334 9.16675V13.3334C18.3334 13.9965 18.07 14.6323 17.6012 15.1012C17.1323 15.57 16.4965 15.8334 15.8334 15.8334H4.16675C3.50371 15.8334 2.86782 15.57 2.39898 15.1012C1.93014 14.6323 1.66675 13.9965 1.66675 13.3334V9.16675C1.66675 8.50371 1.93014 7.86782 2.39898 7.39898ZM4.16675 8.33341C3.94573 8.33341 3.73377 8.42121 3.57749 8.57749C3.42121 8.73377 3.33341 8.94573 3.33341 9.16675V13.3334C3.33341 13.5544 3.42121 13.7664 3.57749 13.9227C3.73377 14.079 3.94573 14.1667 4.16675 14.1667H15.8334C16.0544 14.1667 16.2664 14.079 16.4227 13.9227C16.5789 13.7664 16.6667 13.5544 16.6667 13.3334V9.16675C16.6667 8.94573 16.5789 8.73377 16.4227 8.57749C16.2664 8.42121 16.0544 8.33341 15.8334 8.33341C15.6124 8.33341 15.4004 8.42121 15.2442 8.57749C15.0879 8.73377 15.0001 8.94573 15.0001 9.16675V10.4167C15.0001 10.7483 14.8684 11.0662 14.634 11.3006C14.3995 11.5351 14.0816 11.6667 13.7501 11.6667H6.25008C5.91856 11.6667 5.60062 11.5351 5.3662 11.3006C5.13178 11.0662 5.00008 10.7483 5.00008 10.4167V9.16675C5.00008 8.94573 4.91228 8.73377 4.756 8.57749C4.59972 8.42121 4.38776 8.33341 4.16675 8.33341Z" fill="black"/>
<path fill-rule="evenodd" clip-rule="evenodd" d="M4.16659 14.1667C4.62682 14.1667 4.99992 14.5398 4.99992 15.0001V16.6667C4.99992 17.127 4.62682 17.5001 4.16659 17.5001C3.70635 17.5001 3.33325 17.127 3.33325 16.6667V15.0001C3.33325 14.5398 3.70635 14.1667 4.16659 14.1667Z" fill="black"/>
<path fill-rule="evenodd" clip-rule="evenodd" d="M15.8333 14.1667C16.2936 14.1667 16.6667 14.5398 16.6667 15.0001V16.6667C16.6667 17.127 16.2936 17.5001 15.8333 17.5001C15.3731 17.5001 15 17.127 15 16.6667V15.0001C15 14.5398 15.3731 14.1667 15.8333 14.1667Z" fill="black"/>
</svg>
