<svg width="20" height="20" viewBox="0 0 20 20" fill="none" xmlns="http://www.w3.org/2000/svg">
<path fill-rule="evenodd" clip-rule="evenodd" d="M5.24416 2.74408C5.5696 2.41864 6.09723 2.41864 6.42267 2.74408L9.756 6.07741C10.0814 6.40285 10.0814 6.93049 9.756 7.25592C9.43057 7.58136 8.90293 7.58136 8.57749 7.25592L5.83341 4.51184L3.08934 7.25592C2.7639 7.58136 2.23626 7.58136 1.91083 7.25592C1.58539 6.93049 1.58539 6.40285 1.91083 6.07741L5.24416 2.74408Z" fill="black"/>
<path fill-rule="evenodd" clip-rule="evenodd" d="M5.83333 2.5C6.29357 2.5 6.66667 2.8731 6.66667 3.33333V16.6667C6.66667 17.1269 6.29357 17.5 5.83333 17.5C5.3731 17.5 5 17.1269 5 16.6667V3.33333C5 2.8731 5.3731 2.5 5.83333 2.5Z" fill="black"/>
<path fill-rule="evenodd" clip-rule="evenodd" d="M11.6668 3.33333C11.6668 2.8731 12.0399 2.5 12.5001 2.5H16.6668C16.9901 2.5 17.2843 2.68705 17.4214 2.97987C17.5586 3.27269 17.5139 3.61842 17.3069 3.86682L14.2793 7.5H16.6668C17.127 7.5 17.5001 7.8731 17.5001 8.33333C17.5001 8.79357 17.127 9.16667 16.6668 9.16667H12.5001C12.1767 9.16667 11.8826 8.97962 11.7454 8.6868C11.6083 8.39397 11.6529 8.04825 11.8599 7.79985L14.8876 4.16667H12.5001C12.0399 4.16667 11.6668 3.79357 11.6668 3.33333Z" fill="black"/>
<path fill-rule="evenodd" clip-rule="evenodd" d="M14.5834 12.4999C14.2519 12.4999 13.934 12.6316 13.6995 12.866C13.4651 13.1005 13.3334 13.4184 13.3334 13.7499V16.6666C13.3334 17.1268 12.9603 17.4999 12.5001 17.4999C12.0398 17.4999 11.6667 17.1268 11.6667 16.6666V13.7499C11.6667 12.9764 11.974 12.2345 12.521 11.6875C13.068 11.1405 13.8099 10.8333 14.5834 10.8333C15.357 10.8333 16.0988 11.1405 16.6458 11.6875C17.1928 12.2345 17.5001 12.9764 17.5001 13.7499V16.6666C17.5001 17.1268 17.127 17.4999 16.6667 17.4999C16.2065 17.4999 15.8334 17.1268 15.8334 16.6666V13.7499C15.8334 13.4184 15.7017 13.1005 15.4673 12.866C15.2329 12.6316 14.9149 12.4999 14.5834 12.4999Z" fill="black"/>
<path fill-rule="evenodd" clip-rule="evenodd" d="M11.6667 15.0001C11.6667 14.5398 12.0398 14.1667 12.5001 14.1667H16.6667C17.127 14.1667 17.5001 14.5398 17.5001 15.0001C17.5001 15.4603 17.127 15.8334 16.6667 15.8334H12.5001C12.0398 15.8334 11.6667 15.4603 11.6667 15.0001Z" fill="black"/>
</svg>
