<svg width="20" height="20" viewBox="0 0 20 20" fill="none" xmlns="http://www.w3.org/2000/svg">
<path fill-rule="evenodd" clip-rule="evenodd" d="M10.0001 0.833252C10.4603 0.833252 10.8334 1.20635 10.8334 1.66659V13.3333C10.8334 13.7935 10.4603 14.1666 10.0001 14.1666C9.53984 14.1666 9.16675 13.7935 9.16675 13.3333V1.66659C9.16675 1.20635 9.53984 0.833252 10.0001 0.833252Z" fill="black"/>
<path fill-rule="evenodd" clip-rule="evenodd" d="M3.57733 6.91083C3.90277 6.58539 4.4304 6.58539 4.75584 6.91083L9.99992 12.1549L15.244 6.91083C15.5694 6.58539 16.0971 6.58539 16.4225 6.91083C16.7479 7.23626 16.7479 7.7639 16.4225 8.08934L10.5892 13.9227C10.2637 14.2481 9.7361 14.2481 9.41066 13.9227L3.57733 8.08934C3.25189 7.7639 3.25189 7.23626 3.57733 6.91083Z" fill="black"/>
<path fill-rule="evenodd" clip-rule="evenodd" d="M8.33325 17.4999C8.33325 16.5794 9.07944 15.8333 9.99992 15.8333C10.9204 15.8333 11.6666 16.5794 11.6666 17.4999C11.6666 18.4204 10.9204 19.1666 9.99992 19.1666C9.07944 19.1666 8.33325 18.4204 8.33325 17.4999Z" fill="black"/>
</svg>
