<svg width="20" height="20" viewBox="0 0 20 20" fill="none" xmlns="http://www.w3.org/2000/svg">
<path fill-rule="evenodd" clip-rule="evenodd" d="M1.91083 12.7441C2.23626 12.4186 2.7639 12.4186 3.08934 12.7441L5.83341 15.4882L8.57749 12.7441C8.90293 12.4186 9.43057 12.4186 9.756 12.7441C10.0814 13.0695 10.0814 13.5972 9.756 13.9226L6.42267 17.2559C6.09723 17.5814 5.5696 17.5814 5.24416 17.2559L1.91083 13.9226C1.58539 13.5972 1.58539 13.0695 1.91083 12.7441Z" fill="black"/>
<path fill-rule="evenodd" clip-rule="evenodd" d="M5.83333 2.5C6.29357 2.5 6.66667 2.8731 6.66667 3.33333V16.6667C6.66667 17.1269 6.29357 17.5 5.83333 17.5C5.3731 17.5 5 17.1269 5 16.6667V3.33333C5 2.8731 5.3731 2.5 5.83333 2.5Z" fill="black"/>
<path fill-rule="evenodd" clip-rule="evenodd" d="M13.5774 2.74408C13.9028 2.41864 14.4305 2.41864 14.7559 2.74408L18.0893 6.07741C18.4147 6.40285 18.4147 6.93049 18.0893 7.25592C17.7638 7.58136 17.2362 7.58136 16.9107 7.25592L14.1667 4.51184L11.4226 7.25592C11.0972 7.58136 10.5695 7.58136 10.2441 7.25592C9.91864 6.93049 9.91864 6.40285 10.2441 6.07741L13.5774 2.74408Z" fill="black"/>
<path fill-rule="evenodd" clip-rule="evenodd" d="M14.1666 2.5C14.6268 2.5 14.9999 2.8731 14.9999 3.33333V16.6667C14.9999 17.1269 14.6268 17.5 14.1666 17.5C13.7063 17.5 13.3333 17.1269 13.3333 16.6667V3.33333C13.3333 2.8731 13.7063 2.5 14.1666 2.5Z" fill="black"/>
</svg>
