<svg width="20" height="20" viewBox="0 0 20 20" fill="none" xmlns="http://www.w3.org/2000/svg">
<path fill-rule="evenodd" clip-rule="evenodd" d="M1.66675 10.0001C1.66675 9.53984 2.03984 9.16675 2.50008 9.16675H14.1667C14.627 9.16675 15.0001 9.53984 15.0001 10.0001C15.0001 10.4603 14.627 10.8334 14.1667 10.8334H2.50008C2.03984 10.8334 1.66675 10.4603 1.66675 10.0001Z" fill="black"/>
<path fill-rule="evenodd" clip-rule="evenodd" d="M8.57733 4.41083C8.90277 4.08539 9.4304 4.08539 9.75584 4.41083L14.7558 9.41083C15.0813 9.73626 15.0813 10.2639 14.7558 10.5893L9.75584 15.5893C9.4304 15.9148 8.90277 15.9148 8.57733 15.5893C8.25189 15.2639 8.25189 14.7363 8.57733 14.4108L12.9881 10.0001L8.57733 5.58934C8.25189 5.2639 8.25189 4.73626 8.57733 4.41083Z" fill="black"/>
<path fill-rule="evenodd" clip-rule="evenodd" d="M17.5001 3.33325C17.9603 3.33325 18.3334 3.70635 18.3334 4.16659V15.8333C18.3334 16.2935 17.9603 16.6666 17.5001 16.6666C17.0398 16.6666 16.6667 16.2935 16.6667 15.8333V4.16659C16.6667 3.70635 17.0398 3.33325 17.5001 3.33325Z" fill="black"/>
</svg>
