<svg width="20" height="20" viewBox="0 0 20 20" fill="none" xmlns="http://www.w3.org/2000/svg">
<path fill-rule="evenodd" clip-rule="evenodd" d="M3.33325 2.50008C3.33325 2.03984 3.70635 1.66675 4.16659 1.66675H15.8333C16.2935 1.66675 16.6666 2.03984 16.6666 2.50008C16.6666 2.96032 16.2935 3.33341 15.8333 3.33341H4.16659C3.70635 3.33341 3.33325 2.96032 3.33325 2.50008Z" fill="black"/>
<path fill-rule="evenodd" clip-rule="evenodd" d="M10.0001 5C10.4603 5 10.8334 5.3731 10.8334 5.83333V17.5C10.8334 17.9602 10.4603 18.3333 10.0001 18.3333C9.53984 18.3333 9.16675 17.9602 9.16675 17.5V5.83333C9.16675 5.3731 9.53984 5 10.0001 5Z" fill="black"/>
<path fill-rule="evenodd" clip-rule="evenodd" d="M4.41083 11.9108C4.73626 11.5854 5.2639 11.5854 5.58934 11.9108L10.0001 16.3216L14.4108 11.9108C14.7363 11.5854 15.2639 11.5854 15.5893 11.9108C15.9148 12.2363 15.9148 12.7639 15.5893 13.0893L10.5893 18.0893C10.2639 18.4148 9.73626 18.4148 9.41083 18.0893L4.41083 13.0893C4.08539 12.7639 4.08539 12.2363 4.41083 11.9108Z" fill="black"/>
</svg>
