<svg width="20" height="20" viewBox="0 0 20 20" fill="none" xmlns="http://www.w3.org/2000/svg">
<path fill-rule="evenodd" clip-rule="evenodd" d="M1.91083 12.7441C2.23626 12.4186 2.7639 12.4186 3.08934 12.7441L5.83341 15.4882L8.57749 12.7441C8.90293 12.4186 9.43057 12.4186 9.756 12.7441C10.0814 13.0695 10.0814 13.5972 9.756 13.9226L6.42267 17.2559C6.09723 17.5814 5.5696 17.5814 5.24416 17.2559L1.91083 13.9226C1.58539 13.5972 1.58539 13.0695 1.91083 12.7441Z" fill="black"/>
<path fill-rule="evenodd" clip-rule="evenodd" d="M5.83333 2.5C6.29357 2.5 6.66667 2.8731 6.66667 3.33333V16.6667C6.66667 17.1269 6.29357 17.5 5.83333 17.5C5.3731 17.5 5 17.1269 5 16.6667V3.33333C5 2.8731 5.3731 2.5 5.83333 2.5Z" fill="black"/>
<path fill-rule="evenodd" clip-rule="evenodd" d="M14.1667 4.16667C13.7065 4.16667 13.3334 4.53976 13.3334 5V6.66667C13.3334 7.1269 13.7065 7.5 14.1667 7.5C14.627 7.5 15.0001 7.1269 15.0001 6.66667V5C15.0001 4.53976 14.627 4.16667 14.1667 4.16667ZM11.6667 5C11.6667 3.61929 12.786 2.5 14.1667 2.5C15.5475 2.5 16.6667 3.61929 16.6667 5V6.66667C16.6667 8.04738 15.5475 9.16667 14.1667 9.16667C12.786 9.16667 11.6667 8.04738 11.6667 6.66667V5Z" fill="black"/>
<path fill-rule="evenodd" clip-rule="evenodd" d="M11.6667 11.6666C11.6667 11.2063 12.0398 10.8333 12.5001 10.8333H14.1667C14.627 10.8333 15.0001 11.2063 15.0001 11.6666V16.6666C15.0001 17.1268 14.627 17.4999 14.1667 17.4999C13.7065 17.4999 13.3334 17.1268 13.3334 16.6666V12.4999H12.5001C12.0398 12.4999 11.6667 12.1268 11.6667 11.6666Z" fill="black"/>
<path fill-rule="evenodd" clip-rule="evenodd" d="M11.6667 16.6666C11.6667 16.2063 12.0398 15.8333 12.5001 15.8333H15.8334C16.2937 15.8333 16.6667 16.2063 16.6667 16.6666C16.6667 17.1268 16.2937 17.4999 15.8334 17.4999H12.5001C12.0398 17.4999 11.6667 17.1268 11.6667 16.6666Z" fill="black"/>
</svg>
