<svg width="20" height="20" viewBox="0 0 20 20" fill="none" xmlns="http://www.w3.org/2000/svg">
<path fill-rule="evenodd" clip-rule="evenodd" d="M5.24416 2.74408C5.5696 2.41864 6.09723 2.41864 6.42267 2.74408L9.756 6.07741C10.0814 6.40285 10.0814 6.93049 9.756 7.25592C9.43057 7.58136 8.90293 7.58136 8.57749 7.25592L5.83341 4.51184L3.08934 7.25592C2.7639 7.58136 2.23626 7.58136 1.91083 7.25592C1.58539 6.93049 1.58539 6.40285 1.91083 6.07741L5.24416 2.74408Z" fill="black"/>
<path fill-rule="evenodd" clip-rule="evenodd" d="M5.83333 2.5C6.29357 2.5 6.66667 2.8731 6.66667 3.33333V16.6667C6.66667 17.1269 6.29357 17.5 5.83333 17.5C5.3731 17.5 5 17.1269 5 16.6667V3.33333C5 2.8731 5.3731 2.5 5.83333 2.5Z" fill="black"/>
<path fill-rule="evenodd" clip-rule="evenodd" d="M11.6667 3.33333C11.6667 2.8731 12.0398 2.5 12.5001 2.5H14.1667C14.627 2.5 15.0001 2.8731 15.0001 3.33333V8.33333C15.0001 8.79357 14.627 9.16667 14.1667 9.16667C13.7065 9.16667 13.3334 8.79357 13.3334 8.33333V4.16667H12.5001C12.0398 4.16667 11.6667 3.79357 11.6667 3.33333Z" fill="black"/>
<path fill-rule="evenodd" clip-rule="evenodd" d="M11.6667 8.33333C11.6667 7.8731 12.0398 7.5 12.5001 7.5H15.8334C16.2937 7.5 16.6667 7.8731 16.6667 8.33333C16.6667 8.79357 16.2937 9.16667 15.8334 9.16667H12.5001C12.0398 9.16667 11.6667 8.79357 11.6667 8.33333Z" fill="black"/>
<path fill-rule="evenodd" clip-rule="evenodd" d="M14.1667 12.4999C13.7065 12.4999 13.3334 12.873 13.3334 13.3333V14.9999C13.3334 15.4602 13.7065 15.8333 14.1667 15.8333C14.627 15.8333 15.0001 15.4602 15.0001 14.9999V13.3333C15.0001 12.873 14.627 12.4999 14.1667 12.4999ZM11.6667 13.3333C11.6667 11.9525 12.786 10.8333 14.1667 10.8333C15.5475 10.8333 16.6667 11.9525 16.6667 13.3333V14.9999C16.6667 16.3806 15.5475 17.4999 14.1667 17.4999C12.786 17.4999 11.6667 16.3806 11.6667 14.9999V13.3333Z" fill="black"/>
</svg>
