<svg width="20" height="20" viewBox="0 0 20 20" fill="none" xmlns="http://www.w3.org/2000/svg">
<path fill-rule="evenodd" clip-rule="evenodd" d="M1.91083 12.7441C2.23626 12.4186 2.7639 12.4186 3.08934 12.7441L5.83341 15.4882L8.57749 12.7441C8.90293 12.4186 9.43057 12.4186 9.756 12.7441C10.0814 13.0695 10.0814 13.5972 9.756 13.9226L6.42267 17.2559C6.09723 17.5814 5.5696 17.5814 5.24416 17.2559L1.91083 13.9226C1.58539 13.5972 1.58539 13.0695 1.91083 12.7441Z" fill="black"/>
<path fill-rule="evenodd" clip-rule="evenodd" d="M5.83333 2.5C6.29357 2.5 6.66667 2.8731 6.66667 3.33333V16.6667C6.66667 17.1269 6.29357 17.5 5.83333 17.5C5.3731 17.5 5 17.1269 5 16.6667V3.33333C5 2.8731 5.3731 2.5 5.83333 2.5Z" fill="black"/>
<path fill-rule="evenodd" clip-rule="evenodd" d="M8.33325 3.33333C8.33325 2.8731 8.70635 2.5 9.16659 2.5H12.4999C12.9602 2.5 13.3333 2.8731 13.3333 3.33333C13.3333 3.79357 12.9602 4.16667 12.4999 4.16667H9.16659C8.70635 4.16667 8.33325 3.79357 8.33325 3.33333Z" fill="black"/>
<path fill-rule="evenodd" clip-rule="evenodd" d="M8.33325 6.66659C8.33325 6.20635 8.70635 5.83325 9.16659 5.83325H14.9999C15.4602 5.83325 15.8333 6.20635 15.8333 6.66659C15.8333 7.12682 15.4602 7.49992 14.9999 7.49992H9.16659C8.70635 7.49992 8.33325 7.12682 8.33325 6.66659Z" fill="black"/>
<path fill-rule="evenodd" clip-rule="evenodd" d="M8.33325 10.0001C8.33325 9.53984 8.70635 9.16675 9.16659 9.16675H17.4999C17.9602 9.16675 18.3333 9.53984 18.3333 10.0001C18.3333 10.4603 17.9602 10.8334 17.4999 10.8334H9.16659C8.70635 10.8334 8.33325 10.4603 8.33325 10.0001Z" fill="black"/>
</svg>
