<svg width="20" height="20" viewBox="0 0 20 20" fill="none" xmlns="http://www.w3.org/2000/svg">
<path fill-rule="evenodd" clip-rule="evenodd" d="M2.50008 3.33325C2.96032 3.33325 3.33341 3.70635 3.33341 4.16659V15.8333C3.33341 16.2935 2.96032 16.6666 2.50008 16.6666C2.03984 16.6666 1.66675 16.2935 1.66675 15.8333V4.16659C1.66675 3.70635 2.03984 3.33325 2.50008 3.33325Z" fill="black"/>
<path fill-rule="evenodd" clip-rule="evenodd" d="M11.4226 4.41083C11.748 4.73626 11.748 5.2639 11.4226 5.58934L7.01184 10.0001L11.4226 14.4108C11.748 14.7363 11.748 15.2639 11.4226 15.5893C11.0972 15.9148 10.5695 15.9148 10.2441 15.5893L5.24408 10.5893C4.91864 10.2639 4.91864 9.73626 5.24408 9.41083L10.2441 4.41083C10.5695 4.08539 11.0972 4.08539 11.4226 4.41083Z" fill="black"/>
<path fill-rule="evenodd" clip-rule="evenodd" d="M5 10.0001C5 9.53984 5.3731 9.16675 5.83333 9.16675H17.5C17.9602 9.16675 18.3333 9.53984 18.3333 10.0001C18.3333 10.4603 17.9602 10.8334 17.5 10.8334H5.83333C5.3731 10.8334 5 10.4603 5 10.0001Z" fill="black"/>
</svg>
