<svg width="20" height="20" viewBox="0 0 20 20" fill="none" xmlns="http://www.w3.org/2000/svg">
<path fill-rule="evenodd" clip-rule="evenodd" d="M1.91083 12.7441C2.23626 12.4186 2.7639 12.4186 3.08934 12.7441L5.83341 15.4882L8.57749 12.7441C8.90293 12.4186 9.43057 12.4186 9.756 12.7441C10.0814 13.0695 10.0814 13.5972 9.756 13.9226L6.42267 17.2559C6.09723 17.5814 5.5696 17.5814 5.24416 17.2559L1.91083 13.9226C1.58539 13.5972 1.58539 13.0695 1.91083 12.7441Z" fill="black"/>
<path fill-rule="evenodd" clip-rule="evenodd" d="M5.83333 2.5C6.29357 2.5 6.66667 2.8731 6.66667 3.33333V16.6667C6.66667 17.1269 6.29357 17.5 5.83333 17.5C5.3731 17.5 5 17.1269 5 16.6667V3.33333C5 2.8731 5.3731 2.5 5.83333 2.5Z" fill="black"/>
<path fill-rule="evenodd" clip-rule="evenodd" d="M11.6667 6.66659C11.6667 6.20635 12.0398 5.83325 12.5001 5.83325H16.6667C17.127 5.83325 17.5001 6.20635 17.5001 6.66659C17.5001 7.12682 17.127 7.49992 16.6667 7.49992H12.5001C12.0398 7.49992 11.6667 7.12682 11.6667 6.66659Z" fill="black"/>
<path fill-rule="evenodd" clip-rule="evenodd" d="M14.5834 4.16667C14.2519 4.16667 13.934 4.29836 13.6995 4.53278C13.4651 4.7672 13.3334 5.08515 13.3334 5.41667V8.33333C13.3334 8.79357 12.9603 9.16667 12.5001 9.16667C12.0398 9.16667 11.6667 8.79357 11.6667 8.33333V5.41667C11.6667 4.64312 11.974 3.90125 12.521 3.35427C13.068 2.80729 13.8099 2.5 14.5834 2.5C15.357 2.5 16.0988 2.80729 16.6458 3.35427C17.1928 3.90125 17.5001 4.64312 17.5001 5.41667V8.33333C17.5001 8.79357 17.127 9.16667 16.6667 9.16667C16.2065 9.16667 15.8334 8.79357 15.8334 8.33333V5.41667C15.8334 5.08515 15.7017 4.7672 15.4673 4.53278C15.2329 4.29836 14.9149 4.16667 14.5834 4.16667Z" fill="black"/>
<path fill-rule="evenodd" clip-rule="evenodd" d="M11.6668 11.6666C11.6668 11.2063 12.0399 10.8333 12.5001 10.8333H16.6668C16.9901 10.8333 17.2843 11.0203 17.4214 11.3131C17.5586 11.6059 17.5139 11.9517 17.3069 12.2001L14.2793 15.8333H16.6668C17.127 15.8333 17.5001 16.2063 17.5001 16.6666C17.5001 17.1268 17.127 17.4999 16.6668 17.4999H12.5001C12.1767 17.4999 11.8826 17.3129 11.7454 17.02C11.6083 16.7272 11.6529 16.3815 11.8599 16.1331L14.8876 12.4999H12.5001C12.0399 12.4999 11.6668 12.1268 11.6668 11.6666Z" fill="black"/>
</svg>
