<svg width="20" height="20" viewBox="0 0 20 20" fill="none" xmlns="http://www.w3.org/2000/svg">
<path fill-rule="evenodd" clip-rule="evenodd" d="M5.24408 1.91083C5.56951 1.58539 6.09715 1.58539 6.42259 1.91083L8.92259 4.41083C9.24803 4.73626 9.24803 5.2639 8.92259 5.58934C8.59715 5.91477 8.06951 5.91477 7.74408 5.58934L5.83333 3.67859L3.92259 5.58934C3.59715 5.91477 3.06951 5.91477 2.74408 5.58934C2.41864 5.2639 2.41864 4.73626 2.74408 4.41083L5.24408 1.91083Z" fill="black"/>
<path fill-rule="evenodd" clip-rule="evenodd" d="M5.83333 1.66675C6.29357 1.66675 6.66667 2.03984 6.66667 2.50008V14.1667C6.66667 14.627 6.29357 15.0001 5.83333 15.0001C5.3731 15.0001 5 14.627 5 14.1667V2.50008C5 2.03984 5.3731 1.66675 5.83333 1.66675Z" fill="black"/>
<path fill-rule="evenodd" clip-rule="evenodd" d="M13.5773 1.91083C13.9028 1.58539 14.4304 1.58539 14.7558 1.91083L17.2558 4.41083C17.5813 4.73626 17.5813 5.2639 17.2558 5.58934C16.9304 5.91477 16.4028 5.91477 16.0773 5.58934L14.1666 3.67859L12.2558 5.58934C11.9304 5.91477 11.4028 5.91477 11.0773 5.58934C10.7519 5.2639 10.7519 4.73626 11.0773 4.41083L13.5773 1.91083Z" fill="black"/>
<path fill-rule="evenodd" clip-rule="evenodd" d="M14.1666 1.66675C14.6268 1.66675 14.9999 2.03984 14.9999 2.50008V14.1667C14.9999 14.627 14.6268 15.0001 14.1666 15.0001C13.7063 15.0001 13.3333 14.627 13.3333 14.1667V2.50008C13.3333 2.03984 13.7063 1.66675 14.1666 1.66675Z" fill="black"/>
<path fill-rule="evenodd" clip-rule="evenodd" d="M2.5 17.5001C2.5 17.0398 2.8731 16.6667 3.33333 16.6667H16.6667C17.1269 16.6667 17.5 17.0398 17.5 17.5001C17.5 17.9603 17.1269 18.3334 16.6667 18.3334H3.33333C2.8731 18.3334 2.5 17.9603 2.5 17.5001Z" fill="black"/>
</svg>
