<svg width="20" height="20" viewBox="0 0 20 20" fill="none" xmlns="http://www.w3.org/2000/svg">
<path fill-rule="evenodd" clip-rule="evenodd" d="M9.41066 3.57733C9.7361 3.25189 10.2637 3.25189 10.5892 3.57733L16.4225 9.41066C16.7479 9.7361 16.7479 10.2637 16.4225 10.5892C16.0971 10.9146 15.5694 10.9146 15.244 10.5892L9.99992 5.3451L4.75584 10.5892C4.4304 10.9146 3.90277 10.9146 3.57733 10.5892C3.25189 10.2637 3.25189 9.7361 3.57733 9.41066L9.41066 3.57733Z" fill="black"/>
<path fill-rule="evenodd" clip-rule="evenodd" d="M10.0001 3.33325C10.4603 3.33325 10.8334 3.70635 10.8334 4.16659V15.8333C10.8334 16.2935 10.4603 16.6666 10.0001 16.6666C9.53984 16.6666 9.16675 16.2935 9.16675 15.8333V4.16659C9.16675 3.70635 9.53984 3.33325 10.0001 3.33325Z" fill="black"/>
</svg>
