<svg width="20" height="20" viewBox="0 0 20 20" fill="none" xmlns="http://www.w3.org/2000/svg">
<path fill-rule="evenodd" clip-rule="evenodd" d="M8.08934 4.41083C8.41477 4.73626 8.41477 5.2639 8.08934 5.58934L3.67859 10.0001L8.08934 14.4108C8.41477 14.7363 8.41477 15.2639 8.08934 15.5893C7.7639 15.9148 7.23626 15.9148 6.91083 15.5893L1.91083 10.5893C1.58539 10.2639 1.58539 9.73626 1.91083 9.41083L6.91083 4.41083C7.23626 4.08539 7.7639 4.08539 8.08934 4.41083Z" fill="black"/>
<path fill-rule="evenodd" clip-rule="evenodd" d="M1.66675 10.0001C1.66675 9.53984 2.03984 9.16675 2.50008 9.16675H14.1667C14.627 9.16675 15.0001 9.53984 15.0001 10.0001C15.0001 10.4603 14.627 10.8334 14.1667 10.8334H2.50008C2.03984 10.8334 1.66675 10.4603 1.66675 10.0001Z" fill="black"/>
<path fill-rule="evenodd" clip-rule="evenodd" d="M17.5001 3.33325C17.9603 3.33325 18.3334 3.70635 18.3334 4.16659V15.8333C18.3334 16.2935 17.9603 16.6666 17.5001 16.6666C17.0398 16.6666 16.6667 16.2935 16.6667 15.8333V4.16659C16.6667 3.70635 17.0398 3.33325 17.5001 3.33325Z" fill="black"/>
</svg>
