<svg width="20" height="20" viewBox="0 0 20 20" fill="none" xmlns="http://www.w3.org/2000/svg">
<path fill-rule="evenodd" clip-rule="evenodd" d="M9.68118 3.39671C9.99257 3.26773 10.351 3.33902 10.5893 3.57735L16.4227 9.41069C16.7481 9.73612 16.7481 10.2638 16.4227 10.5892L10.5893 16.4225C10.351 16.6609 9.99257 16.7322 9.68118 16.6032C9.36978 16.4742 9.16675 16.1703 9.16675 15.8333V13.3333H5.00008C4.53984 13.3333 4.16675 12.9602 4.16675 12.4999V7.49994C4.16675 7.03971 4.53984 6.66661 5.00008 6.66661H9.16675V4.16661C9.16675 3.82956 9.36978 3.52569 9.68118 3.39671ZM10.8334 6.17845V7.49994C10.8334 7.96018 10.4603 8.33328 10.0001 8.33328H5.83341V11.6666H10.0001C10.4603 11.6666 10.8334 12.0397 10.8334 12.4999V13.8214L14.6549 9.99994L10.8334 6.17845Z" fill="black"/>
</svg>
