<svg width="20" height="20" viewBox="0 0 20 20" fill="none" xmlns="http://www.w3.org/2000/svg">
<path fill-rule="evenodd" clip-rule="evenodd" d="M12.7441 1.91083C13.0695 1.58539 13.5972 1.58539 13.9226 1.91083L17.2559 5.24416C17.5814 5.5696 17.5814 6.09723 17.2559 6.42267L13.9226 9.756C13.5972 10.0814 13.0695 10.0814 12.7441 9.756C12.4186 9.43057 12.4186 8.90293 12.7441 8.57749L15.4882 5.83341L12.7441 3.08934C12.4186 2.7639 12.4186 2.23626 12.7441 1.91083Z" fill="black"/>
<path fill-rule="evenodd" clip-rule="evenodd" d="M2.5 5.83333C2.5 5.3731 2.8731 5 3.33333 5H16.6667C17.1269 5 17.5 5.3731 17.5 5.83333C17.5 6.29357 17.1269 6.66667 16.6667 6.66667H3.33333C2.8731 6.66667 2.5 6.29357 2.5 5.83333Z" fill="black"/>
<path fill-rule="evenodd" clip-rule="evenodd" d="M7.25592 10.2441C7.58136 10.5695 7.58136 11.0972 7.25592 11.4226L4.51184 14.1667L7.25592 16.9107C7.58136 17.2362 7.58136 17.7638 7.25592 18.0893C6.93049 18.4147 6.40285 18.4147 6.07741 18.0893L2.74408 14.7559C2.41864 14.4305 2.41864 13.9028 2.74408 13.5774L6.07741 10.2441C6.40285 9.91864 6.93049 9.91864 7.25592 10.2441Z" fill="black"/>
<path fill-rule="evenodd" clip-rule="evenodd" d="M2.5 14.1666C2.5 13.7063 2.8731 13.3333 3.33333 13.3333H16.6667C17.1269 13.3333 17.5 13.7063 17.5 14.1666C17.5 14.6268 17.1269 14.9999 16.6667 14.9999H3.33333C2.8731 14.9999 2.5 14.6268 2.5 14.1666Z" fill="black"/>
</svg>
