<svg width="20" height="20" viewBox="0 0 20 20" fill="none" xmlns="http://www.w3.org/2000/svg">
<path fill-rule="evenodd" clip-rule="evenodd" d="M6.66661 5.00008C6.66661 4.53984 7.03971 4.16675 7.49994 4.16675H12.4999C12.9602 4.16675 13.3333 4.53984 13.3333 5.00008V9.16675H15.8333C16.1703 9.16675 16.4742 9.36978 16.6032 9.68118C16.7322 9.99257 16.6609 10.351 16.4225 10.5893L10.5892 16.4227C10.2638 16.7481 9.73612 16.7481 9.41069 16.4227L3.57735 10.5893C3.33902 10.351 3.26773 9.99257 3.39671 9.68118C3.52569 9.36978 3.82956 9.16675 4.16661 9.16675H6.66661V5.00008ZM8.33328 5.83341V10.0001C8.33328 10.4603 7.96018 10.8334 7.49994 10.8334H6.17845L9.99994 14.6549L13.8214 10.8334H12.4999C12.0397 10.8334 11.6666 10.4603 11.6666 10.0001V5.83341H8.33328Z" fill="black"/>
</svg>
