<svg width="20" height="20" viewBox="0 0 20 20" fill="none" xmlns="http://www.w3.org/2000/svg">
<path fill-rule="evenodd" clip-rule="evenodd" d="M2.50008 3.33325C2.96032 3.33325 3.33341 3.70635 3.33341 4.16659V15.8333C3.33341 16.2935 2.96032 16.6666 2.50008 16.6666C2.03984 16.6666 1.66675 16.2935 1.66675 15.8333V4.16659C1.66675 3.70635 2.03984 3.33325 2.50008 3.33325Z" fill="black"/>
<path fill-rule="evenodd" clip-rule="evenodd" d="M5 10.0001C5 9.53984 5.3731 9.16675 5.83333 9.16675H17.5C17.9602 9.16675 18.3333 9.53984 18.3333 10.0001C18.3333 10.4603 17.9602 10.8334 17.5 10.8334H5.83333C5.3731 10.8334 5 10.4603 5 10.0001Z" fill="black"/>
<path fill-rule="evenodd" clip-rule="evenodd" d="M11.9108 4.41083C12.2363 4.08539 12.7639 4.08539 13.0893 4.41083L18.0893 9.41083C18.4148 9.73626 18.4148 10.2639 18.0893 10.5893L13.0893 15.5893C12.7639 15.9148 12.2363 15.9148 11.9108 15.5893C11.5854 15.2639 11.5854 14.7363 11.9108 14.4108L16.3216 10.0001L11.9108 5.58934C11.5854 5.2639 11.5854 4.73626 11.9108 4.41083Z" fill="black"/>
</svg>
