<svg width="20" height="20" viewBox="0 0 20 20" fill="none" xmlns="http://www.w3.org/2000/svg">
<path fill-rule="evenodd" clip-rule="evenodd" d="M6.66675 15.8333C6.66675 15.3731 7.03984 15 7.50008 15H12.5001C12.9603 15 13.3334 15.3731 13.3334 15.8333C13.3334 16.2936 12.9603 16.6667 12.5001 16.6667H7.50008C7.03984 16.6667 6.66675 16.2936 6.66675 15.8333Z" fill="black"/>
<path fill-rule="evenodd" clip-rule="evenodd" d="M9.41069 3.57733C9.73612 3.25189 10.2638 3.25189 10.5892 3.57733L16.4225 9.41066C16.6609 9.64899 16.7322 10.0074 16.6032 10.3188C16.4742 10.6302 16.1703 10.8333 15.8333 10.8333H13.3333V12.4999C13.3333 12.9602 12.9602 13.3333 12.4999 13.3333H7.49994C7.03971 13.3333 6.66661 12.9602 6.66661 12.4999V10.8333H4.16661C3.82956 10.8333 3.52569 10.6302 3.39671 10.3188C3.26773 10.0074 3.33902 9.64899 3.57735 9.41066L9.41069 3.57733ZM6.17845 9.16659H7.49994C7.96018 9.16659 8.33328 9.53968 8.33328 9.99992V11.6666H11.6666V9.99992C11.6666 9.53968 12.0397 9.16659 12.4999 9.16659H13.8214L9.99994 5.3451L6.17845 9.16659Z" fill="black"/>
</svg>
