<svg width="20" height="20" viewBox="0 0 20 20" fill="none" xmlns="http://www.w3.org/2000/svg">
<path fill-rule="evenodd" clip-rule="evenodd" d="M3.33325 10.0001C3.33325 9.53984 3.70635 9.16675 4.16659 9.16675H15.8333C16.2935 9.16675 16.6666 9.53984 16.6666 10.0001C16.6666 10.4603 16.2935 10.8334 15.8333 10.8334H4.16659C3.70635 10.8334 3.33325 10.4603 3.33325 10.0001Z" fill="black"/>
<path fill-rule="evenodd" clip-rule="evenodd" d="M9.41083 3.57733C9.73626 3.25189 10.2639 3.25189 10.5893 3.57733L16.4227 9.41066C16.7481 9.7361 16.7481 10.2637 16.4227 10.5892L10.5893 16.4225C10.2639 16.7479 9.73626 16.7479 9.41083 16.4225C9.08539 16.0971 9.08539 15.5694 9.41083 15.244L14.6549 9.99992L9.41083 4.75584C9.08539 4.4304 9.08539 3.90277 9.41083 3.57733Z" fill="black"/>
</svg>
