<svg width="20" height="20" viewBox="0 0 20 20" fill="none" xmlns="http://www.w3.org/2000/svg">
<path fill-rule="evenodd" clip-rule="evenodd" d="M5.24416 2.74408C5.5696 2.41864 6.09723 2.41864 6.42267 2.74408L9.756 6.07741C10.0814 6.40285 10.0814 6.93049 9.756 7.25592C9.43057 7.58136 8.90293 7.58136 8.57749 7.25592L5.83341 4.51184L3.08934 7.25592C2.7639 7.58136 2.23626 7.58136 1.91083 7.25592C1.58539 6.93049 1.58539 6.40285 1.91083 6.07741L5.24416 2.74408Z" fill="black"/>
<path fill-rule="evenodd" clip-rule="evenodd" d="M5.83333 2.5C6.29357 2.5 6.66667 2.8731 6.66667 3.33333V16.6667C6.66667 17.1269 6.29357 17.5 5.83333 17.5C5.3731 17.5 5 17.1269 5 16.6667V3.33333C5 2.8731 5.3731 2.5 5.83333 2.5Z" fill="black"/>
<path fill-rule="evenodd" clip-rule="evenodd" d="M8.33325 10.0001C8.33325 9.53984 8.70635 9.16675 9.16659 9.16675H12.4999C12.9602 9.16675 13.3333 9.53984 13.3333 10.0001C13.3333 10.4603 12.9602 10.8334 12.4999 10.8334H9.16659C8.70635 10.8334 8.33325 10.4603 8.33325 10.0001Z" fill="black"/>
<path fill-rule="evenodd" clip-rule="evenodd" d="M8.33325 13.3333C8.33325 12.8731 8.70635 12.5 9.16659 12.5H14.9999C15.4602 12.5 15.8333 12.8731 15.8333 13.3333C15.8333 13.7936 15.4602 14.1667 14.9999 14.1667H9.16659C8.70635 14.1667 8.33325 13.7936 8.33325 13.3333Z" fill="black"/>
<path fill-rule="evenodd" clip-rule="evenodd" d="M8.33325 16.6666C8.33325 16.2063 8.70635 15.8333 9.16659 15.8333H17.4999C17.9602 15.8333 18.3333 16.2063 18.3333 16.6666C18.3333 17.1268 17.9602 17.4999 17.4999 17.4999H9.16659C8.70635 17.4999 8.33325 17.1268 8.33325 16.6666Z" fill="black"/>
</svg>
