<svg width="20" height="20" viewBox="0 0 20 20" fill="none" xmlns="http://www.w3.org/2000/svg">
<path fill-rule="evenodd" clip-rule="evenodd" d="M9.41069 3.57733C9.73612 3.25189 10.2638 3.25189 10.5892 3.57733L16.4225 9.41066C16.6609 9.64899 16.7322 10.0074 16.6032 10.3188C16.4742 10.6302 16.1703 10.8333 15.8333 10.8333H13.3333V14.9999C13.3333 15.4602 12.9602 15.8333 12.4999 15.8333H7.49994C7.03971 15.8333 6.66661 15.4602 6.66661 14.9999V10.8333H4.16661C3.82956 10.8333 3.52569 10.6302 3.39671 10.3188C3.26773 10.0074 3.33902 9.64899 3.57735 9.41066L9.41069 3.57733ZM6.17845 9.16659H7.49994C7.96018 9.16659 8.33328 9.53968 8.33328 9.99992V14.1666H11.6666V9.99992C11.6666 9.53968 12.0397 9.16659 12.4999 9.16659H13.8214L9.99994 5.3451L6.17845 9.16659Z" fill="black"/>
</svg>
