<svg width="20" height="20" viewBox="0 0 20 20" fill="none" xmlns="http://www.w3.org/2000/svg">
<path fill-rule="evenodd" clip-rule="evenodd" d="M9.41066 1.07733C9.7361 0.751893 10.2637 0.751893 10.5892 1.07733L16.4225 6.91066C16.7479 7.2361 16.7479 7.76374 16.4225 8.08917C16.0971 8.41461 15.5694 8.41461 15.244 8.08917L9.99992 2.8451L4.75584 8.08917C4.4304 8.41461 3.90277 8.41461 3.57733 8.08917C3.25189 7.76374 3.25189 7.2361 3.57733 6.91066L9.41066 1.07733Z" fill="black"/>
<path fill-rule="evenodd" clip-rule="evenodd" d="M10.0001 0.833252C10.4603 0.833252 10.8334 1.20635 10.8334 1.66659V13.3333C10.8334 13.7935 10.4603 14.1666 10.0001 14.1666C9.53984 14.1666 9.16675 13.7935 9.16675 13.3333V1.66659C9.16675 1.20635 9.53984 0.833252 10.0001 0.833252Z" fill="black"/>
<path fill-rule="evenodd" clip-rule="evenodd" d="M8.33325 17.4999C8.33325 16.5794 9.07944 15.8333 9.99992 15.8333C10.9204 15.8333 11.6666 16.5794 11.6666 17.4999C11.6666 18.4204 10.9204 19.1666 9.99992 19.1666C9.07944 19.1666 8.33325 18.4204 8.33325 17.4999Z" fill="black"/>
</svg>
