<svg width="20" height="20" viewBox="0 0 20 20" fill="none" xmlns="http://www.w3.org/2000/svg">
<path fill-rule="evenodd" clip-rule="evenodd" d="M10.0001 3.33325C10.4603 3.33325 10.8334 3.70635 10.8334 4.16659V15.8333C10.8334 16.2935 10.4603 16.6666 10.0001 16.6666C9.53984 16.6666 9.16675 16.2935 9.16675 15.8333V4.16659C9.16675 3.70635 9.53984 3.33325 10.0001 3.33325Z" fill="black"/>
<path fill-rule="evenodd" clip-rule="evenodd" d="M3.57733 9.41083C3.90277 9.08539 4.4304 9.08539 4.75584 9.41083L9.99992 14.6549L15.244 9.41083C15.5694 9.08539 16.0971 9.08539 16.4225 9.41083C16.7479 9.73626 16.7479 10.2639 16.4225 10.5893L10.5892 16.4227C10.2637 16.7481 9.7361 16.7481 9.41066 16.4227L3.57733 10.5893C3.25189 10.2639 3.25189 9.73626 3.57733 9.41083Z" fill="black"/>
</svg>
