<svg width="20" height="20" viewBox="0 0 20 20" fill="none" xmlns="http://www.w3.org/2000/svg">
<path fill-rule="evenodd" clip-rule="evenodd" d="M3.33325 2.50008C3.33325 2.03984 3.70635 1.66675 4.16659 1.66675H15.8333C16.2935 1.66675 16.6666 2.03984 16.6666 2.50008C16.6666 2.96032 16.2935 3.33341 15.8333 3.33341H4.16659C3.70635 3.33341 3.33325 2.96032 3.33325 2.50008Z" fill="black"/>
<path fill-rule="evenodd" clip-rule="evenodd" d="M9.41083 5.24408C9.73626 4.91864 10.2639 4.91864 10.5893 5.24408L15.5893 10.2441C15.9148 10.5695 15.9148 11.0972 15.5893 11.4226C15.2639 11.748 14.7363 11.748 14.4108 11.4226L10.0001 7.01184L5.58934 11.4226C5.2639 11.748 4.73626 11.748 4.41083 11.4226C4.08539 11.0972 4.08539 10.5695 4.41083 10.2441L9.41083 5.24408Z" fill="black"/>
<path fill-rule="evenodd" clip-rule="evenodd" d="M10.0001 5C10.4603 5 10.8334 5.3731 10.8334 5.83333V17.5C10.8334 17.9602 10.4603 18.3333 10.0001 18.3333C9.53984 18.3333 9.16675 17.9602 9.16675 17.5V5.83333C9.16675 5.3731 9.53984 5 10.0001 5Z" fill="black"/>
</svg>
