<svg width="20" height="20" viewBox="0 0 20 20" fill="none" xmlns="http://www.w3.org/2000/svg">
<path fill-rule="evenodd" clip-rule="evenodd" d="M10.3188 3.39671C10.6302 3.52569 10.8333 3.82956 10.8333 4.16661V6.66661H14.9999C15.4602 6.66661 15.8333 7.03971 15.8333 7.49994V12.4999C15.8333 12.9602 15.4602 13.3333 14.9999 13.3333H10.8333V15.8333C10.8333 16.1703 10.6302 16.4742 10.3188 16.6032C10.0074 16.7322 9.64899 16.6609 9.41066 16.4225L3.57733 10.5892C3.25189 10.2638 3.25189 9.73612 3.57733 9.41069L9.41066 3.57735C9.64899 3.33902 10.0074 3.26773 10.3188 3.39671ZM5.3451 9.99994L9.16659 13.8214V12.4999C9.16659 12.0397 9.53968 11.6666 9.99992 11.6666H14.1666V8.33328H9.99992C9.53968 8.33328 9.16659 7.96018 9.16659 7.49994V6.17845L5.3451 9.99994Z" fill="black"/>
</svg>
