<svg width="20" height="20" viewBox="0 0 20 20" fill="none" xmlns="http://www.w3.org/2000/svg">
<path fill-rule="evenodd" clip-rule="evenodd" d="M7.25592 1.91083C7.58136 2.23626 7.58136 2.7639 7.25592 3.08934L4.51184 5.83341L7.25592 8.57749C7.58136 8.90293 7.58136 9.43057 7.25592 9.756C6.93049 10.0814 6.40285 10.0814 6.07741 9.756L2.74408 6.42267C2.41864 6.09723 2.41864 5.5696 2.74408 5.24416L6.07741 1.91083C6.40285 1.58539 6.93049 1.58539 7.25592 1.91083Z" fill="black"/>
<path fill-rule="evenodd" clip-rule="evenodd" d="M2.5 5.83333C2.5 5.3731 2.8731 5 3.33333 5H16.6667C17.1269 5 17.5 5.3731 17.5 5.83333C17.5 6.29357 17.1269 6.66667 16.6667 6.66667H3.33333C2.8731 6.66667 2.5 6.29357 2.5 5.83333Z" fill="black"/>
<path fill-rule="evenodd" clip-rule="evenodd" d="M12.7441 10.2441C13.0695 9.91864 13.5972 9.91864 13.9226 10.2441L17.2559 13.5774C17.5814 13.9028 17.5814 14.4305 17.2559 14.7559L13.9226 18.0893C13.5972 18.4147 13.0695 18.4147 12.7441 18.0893C12.4186 17.7638 12.4186 17.2362 12.7441 16.9107L15.4882 14.1667L12.7441 11.4226C12.4186 11.0972 12.4186 10.5695 12.7441 10.2441Z" fill="black"/>
<path fill-rule="evenodd" clip-rule="evenodd" d="M2.5 14.1666C2.5 13.7063 2.8731 13.3333 3.33333 13.3333H16.6667C17.1269 13.3333 17.5 13.7063 17.5 14.1666C17.5 14.6268 17.1269 14.9999 16.6667 14.9999H3.33333C2.8731 14.9999 2.5 14.6268 2.5 14.1666Z" fill="black"/>
</svg>
