<svg width="20" height="20" viewBox="0 0 20 20" fill="none" xmlns="http://www.w3.org/2000/svg">
<path fill-rule="evenodd" clip-rule="evenodd" d="M10.2441 12.7441C10.5695 12.4186 11.0972 12.4186 11.4226 12.7441L14.1667 15.4882L16.9107 12.7441C17.2362 12.4186 17.7638 12.4186 18.0893 12.7441C18.4147 13.0695 18.4147 13.5972 18.0893 13.9226L14.7559 17.2559C14.4305 17.5814 13.9028 17.5814 13.5774 17.2559L10.2441 13.9226C9.91864 13.5972 9.91864 13.0695 10.2441 12.7441Z" fill="black"/>
<path fill-rule="evenodd" clip-rule="evenodd" d="M14.1666 2.5C14.6268 2.5 14.9999 2.8731 14.9999 3.33333V16.6667C14.9999 17.1269 14.6268 17.5 14.1666 17.5C13.7063 17.5 13.3333 17.1269 13.3333 16.6667V3.33333C13.3333 2.8731 13.7063 2.5 14.1666 2.5Z" fill="black"/>
<path fill-rule="evenodd" clip-rule="evenodd" d="M5.24416 2.74408C5.5696 2.41864 6.09723 2.41864 6.42267 2.74408L9.756 6.07741C10.0814 6.40285 10.0814 6.93049 9.756 7.25592C9.43057 7.58136 8.90293 7.58136 8.57749 7.25592L5.83341 4.51184L3.08934 7.25592C2.7639 7.58136 2.23626 7.58136 1.91083 7.25592C1.58539 6.93049 1.58539 6.40285 1.91083 6.07741L5.24416 2.74408Z" fill="black"/>
<path fill-rule="evenodd" clip-rule="evenodd" d="M5.83333 2.5C6.29357 2.5 6.66667 2.8731 6.66667 3.33333V16.6667C6.66667 17.1269 6.29357 17.5 5.83333 17.5C5.3731 17.5 5 17.1269 5 16.6667V3.33333C5 2.8731 5.3731 2.5 5.83333 2.5Z" fill="black"/>
</svg>
