<svg width="20" height="20" viewBox="0 0 20 20" fill="none" xmlns="http://www.w3.org/2000/svg">
<path fill-rule="evenodd" clip-rule="evenodd" d="M10.0001 4.16675C10.4603 4.16675 10.8334 4.53984 10.8334 5.00008V15.0001C10.8334 15.4603 10.4603 15.8334 10.0001 15.8334C9.53984 15.8334 9.16675 15.4603 9.16675 15.0001V5.00008C9.16675 4.53984 9.53984 4.16675 10.0001 4.16675Z" fill="black"/>
<path fill-rule="evenodd" clip-rule="evenodd" d="M15.0516 7.0833C15.2817 7.48187 15.1451 7.99154 14.7466 8.22166L6.08657 13.2217C5.688 13.4518 5.17834 13.3152 4.94822 12.9167C4.71809 12.5181 4.85465 12.0084 5.25322 11.7783L13.9132 6.77829C14.3118 6.54817 14.8215 6.68473 15.0516 7.0833Z" fill="black"/>
<path fill-rule="evenodd" clip-rule="evenodd" d="M4.94822 7.0833C5.17834 6.68473 5.688 6.54817 6.08657 6.77829L14.7466 11.7783C15.1451 12.0084 15.2817 12.5181 15.0516 12.9167C14.8215 13.3152 14.3118 13.4518 13.9132 13.2217L5.25322 8.22166C4.85465 7.99154 4.71809 7.48187 4.94822 7.0833Z" fill="black"/>
</svg>
