<svg width="20" height="20" viewBox="0 0 20 20" fill="none" xmlns="http://www.w3.org/2000/svg">
<g clip-path="url(#clip0_2001_4358)">
<path fill-rule="evenodd" clip-rule="evenodd" d="M9.99992 7.49992C8.61921 7.49992 7.49992 8.61921 7.49992 9.99992C7.49992 11.3806 8.61921 12.4999 9.99992 12.4999C11.3806 12.4999 12.4999 11.3806 12.4999 9.99992C12.4999 8.61921 11.3806 7.49992 9.99992 7.49992ZM5.83325 9.99992C5.83325 7.69873 7.69873 5.83325 9.99992 5.83325C12.3011 5.83325 14.1666 7.69873 14.1666 9.99992C14.1666 12.3011 12.3011 14.1666 9.99992 14.1666C7.69873 14.1666 5.83325 12.3011 5.83325 9.99992Z" fill="black"/>
<path fill-rule="evenodd" clip-rule="evenodd" d="M6.11488 1.69727C7.98522 0.822083 10.0963 0.604044 12.106 1.07848C14.1157 1.55291 15.9064 2.69202 17.1879 4.31125C18.4694 5.93047 19.1666 7.93496 19.1666 9.99993V10.8333C19.1666 11.7173 18.8154 12.5652 18.1903 13.1903C17.5652 13.8154 16.7173 14.1666 15.8333 14.1666C14.9492 14.1666 14.1014 13.8154 13.4762 13.1903C12.8511 12.5652 12.4999 11.7173 12.4999 10.8333V6.66659C12.4999 6.20636 12.873 5.83326 13.3333 5.83326C13.7935 5.83326 14.1666 6.20636 14.1666 6.66659V10.8333C14.1666 11.2753 14.3422 11.6992 14.6548 12.0118C14.9673 12.3243 15.3912 12.4999 15.8333 12.4999C16.2753 12.4999 16.6992 12.3243 17.0118 12.0118C17.3243 11.6992 17.4999 11.2753 17.4999 10.8333V9.99993C17.4999 8.31041 16.9295 6.67038 15.881 5.34555C14.8325 4.02073 13.3674 3.08873 11.7231 2.70056C10.0788 2.31239 8.35153 2.49078 6.82125 3.20684C5.29098 3.9229 4.0473 5.13467 3.29173 6.64582C2.53615 8.15698 2.31294 9.87898 2.65826 11.5328C3.00357 13.1867 3.89719 14.6755 5.19432 15.7581C6.49146 16.8406 8.11611 17.4535 9.80506 17.4974C11.494 17.5413 13.1483 17.0136 14.4999 15.9999C14.8681 15.7238 15.3905 15.7984 15.6666 16.1666C15.9427 16.5348 15.8681 17.0571 15.4999 17.3333C13.848 18.5722 11.826 19.2171 9.76176 19.1635C7.69748 19.1098 5.7118 18.3608 4.12641 17.0377C2.54103 15.7145 1.44883 13.8949 1.02677 11.8735C0.604716 9.85211 0.877531 7.74744 1.80101 5.90047C2.7245 4.0535 4.24455 2.57245 6.11488 1.69727Z" fill="black"/>
</g>
<defs>
<clipPath id="clip0_2001_4358">
<rect width="20" height="20" fill="white"/>
</clipPath>
</defs>
</svg>
