<svg width="20" height="20" viewBox="0 0 20 20" fill="none" xmlns="http://www.w3.org/2000/svg">
<path fill-rule="evenodd" clip-rule="evenodd" d="M8.33325 9.99992C8.33325 9.07944 9.07944 8.33325 9.99992 8.33325C10.9204 8.33325 11.6666 9.07944 11.6666 9.99992C11.6666 10.9204 10.9204 11.6666 9.99992 11.6666C9.07944 11.6666 8.33325 10.9204 8.33325 9.99992Z" fill="black"/>
<path fill-rule="evenodd" clip-rule="evenodd" d="M7.63554 2.21226C9.56366 2.94187 11.7161 4.37957 13.6713 6.3261C13.6721 6.32696 13.673 6.32783 13.6739 6.3287C15.6204 8.28384 17.0581 10.4363 17.7877 12.3644C18.1522 13.3275 18.3541 14.272 18.3272 15.1283C18.3001 15.9902 18.037 16.8103 17.4226 17.4226C16.8103 18.037 15.9902 18.3001 15.1283 18.3272C14.272 18.3541 13.3275 18.1522 12.3644 17.7877C10.4363 17.0581 8.28384 15.6204 6.3287 13.6739C6.32783 13.673 6.32696 13.6721 6.3261 13.6713C4.37957 11.7161 2.94187 9.56366 2.21226 7.63554C1.84782 6.67246 1.64591 5.72798 1.67279 4.87163C1.69985 4.0098 1.96299 3.18967 2.5774 2.5774C3.18967 1.96299 4.0098 1.69985 4.87163 1.67279C5.72798 1.64591 6.67246 1.84782 7.63554 2.21226ZM4.92392 3.33864C4.3596 3.35635 3.99076 3.5199 3.75735 3.75446C3.75639 3.75543 3.75543 3.75639 3.75446 3.75735C3.5199 3.99076 3.35635 4.3596 3.33864 4.92392C3.32073 5.49439 3.45632 6.21397 3.77105 7.04568C4.39962 8.70677 5.68648 10.6663 7.50597 12.4941C9.33377 14.3135 11.2932 15.6004 12.9543 16.2289C13.786 16.5436 14.5056 16.6792 15.0761 16.6613C15.6404 16.6436 16.0092 16.4801 16.2426 16.2455C16.2433 16.2448 16.244 16.2442 16.2446 16.2435L16.2455 16.2426C16.4801 16.0092 16.6436 15.6404 16.6613 15.0761C16.6792 14.5056 16.5436 13.786 16.2289 12.9543C15.6004 11.2932 14.3135 9.33377 12.4941 7.50597C10.6663 5.68648 8.70677 4.39962 7.04568 3.77105C6.21397 3.45632 5.49439 3.32073 4.92392 3.33864Z" fill="black"/>
<path fill-rule="evenodd" clip-rule="evenodd" d="M15.1283 1.67279C15.9901 1.69985 16.8102 1.96297 17.4225 2.57733C18.037 3.1896 18.3001 4.00977 18.3272 4.87163C18.3541 5.72798 18.1522 6.67246 17.7877 7.63554C17.0581 9.56366 15.6204 11.7161 13.6739 13.6713C13.673 13.6721 13.6721 13.673 13.6713 13.6739C11.7161 15.6204 9.56366 17.0581 7.63554 17.7877C6.67246 18.1522 5.72798 18.3541 4.87163 18.3272C4.00977 18.3001 3.1896 18.037 2.57733 17.4225C1.96297 16.8102 1.69985 15.9901 1.67279 15.1283C1.64591 14.272 1.84782 13.3275 2.21226 12.3644C2.94187 10.4363 4.37957 8.28384 6.3261 6.3287C6.32696 6.32783 6.32783 6.32696 6.3287 6.3261C8.28384 4.37957 10.4363 2.94187 12.3644 2.21226C13.3275 1.84782 14.272 1.64591 15.1283 1.67279ZM7.50591 7.50591C5.68646 9.33373 4.39962 11.2932 3.77105 12.9543C3.45632 13.786 3.32073 14.5056 3.33864 15.0761C3.35635 15.6404 3.5199 16.0092 3.75446 16.2426C3.75543 16.2436 3.75639 16.2445 3.75735 16.2455C3.99076 16.4801 4.3596 16.6436 4.92392 16.6613C5.49439 16.6792 6.21397 16.5436 7.04568 16.2289C8.70676 15.6004 10.6662 14.3135 12.4941 12.4941C14.3135 10.6662 15.6004 8.70676 16.2289 7.04568C16.5436 6.21397 16.6792 5.49439 16.6613 4.92392C16.6436 4.3596 16.4801 3.99076 16.2455 3.75735C16.2445 3.75639 16.2436 3.75543 16.2426 3.75446C16.0092 3.5199 15.6404 3.35635 15.0761 3.33864C14.5056 3.32073 13.786 3.45632 12.9543 3.77105C11.2932 4.39962 9.33373 5.68645 7.50591 7.50591Z" fill="black"/>
</svg>
