<svg width="48" height="48" viewBox="0 0 48 48" fill="none" xmlns="http://www.w3.org/2000/svg">
<path d="M32 28C30.3333 28 28.9167 27.4167 27.75 26.25C26.5833 25.0833 26 23.6667 26 22C26 20.3333 26.5833 18.9167 27.75 17.75C28.9167 16.5833 30.3333 16 32 16C33.6667 16 35.0833 16.5833 36.25 17.75C37.4167 18.9167 38 20.3333 38 22C38 23.6667 37.4167 25.0833 36.25 26.25C35.0833 27.4167 33.6667 28 32 28ZM20 40V36.2C20 35.5 20.1667 34.8333 20.5 34.2C20.8333 33.5667 21.3 33.0667 21.9 32.7C23.4 31.8 24.9917 31.125 26.675 30.675C28.3583 30.225 30.1333 30 32 30C33.8667 30 35.6417 30.225 37.325 30.675C39.0083 31.125 40.6 31.8 42.1 32.7C42.7 33.0667 43.1667 33.5667 43.5 34.2C43.8333 34.8333 44 35.5 44 36.2V40H20ZM24.3 36H39.7C38.5333 35.3333 37.3 34.8333 36 34.5C34.7 34.1667 33.3667 34 32 34C30.6333 34 29.3 34.1667 28 34.5C26.7 34.8333 25.4667 35.3333 24.3 36ZM32 24C32.5667 24 33.0417 23.8083 33.425 23.425C33.8083 23.0417 34 22.5667 34 22C34 21.4333 33.8083 20.9583 33.425 20.575C33.0417 20.1917 32.5667 20 32 20C31.4333 20 30.9583 20.1917 30.575 20.575C30.1917 20.9583 30 21.4333 30 22C30 22.5667 30.1917 23.0417 30.575 23.425C30.9583 23.8083 31.4333 24 32 24ZM6 28V24H22V28H6ZM6 12V8H30V12H6ZM22.2 20H6V16H24C23.5333 16.5667 23.1583 17.1833 22.875 17.85C22.5917 18.5167 22.3667 19.2333 22.2 20Z" fill="white"/>
</svg>
