<svg width="20" height="20" viewBox="0 0 20 20" fill="none" xmlns="http://www.w3.org/2000/svg">
<path fill-rule="evenodd" clip-rule="evenodd" d="M1.66659 7.5C2.12682 7.5 2.49992 7.8731 2.49992 8.33333V10.8333C2.49992 11.2936 2.12682 11.6667 1.66659 11.6667C1.20635 11.6667 0.833252 11.2936 0.833252 10.8333V8.33333C0.833252 7.8731 1.20635 7.5 1.66659 7.5Z" fill="black"/>
<path fill-rule="evenodd" clip-rule="evenodd" d="M5.00008 4.16675C5.46032 4.16675 5.83341 4.53984 5.83341 5.00008V14.1667C5.83341 14.627 5.46032 15.0001 5.00008 15.0001C4.53984 15.0001 4.16675 14.627 4.16675 14.1667V5.00008C4.16675 4.53984 4.53984 4.16675 5.00008 4.16675Z" fill="black"/>
<path fill-rule="evenodd" clip-rule="evenodd" d="M8.33333 1.66675C8.79357 1.66675 9.16667 2.03984 9.16667 2.50008V17.5001C9.16667 17.9603 8.79357 18.3334 8.33333 18.3334C7.8731 18.3334 7.5 17.9603 7.5 17.5001V2.50008C7.5 2.03984 7.8731 1.66675 8.33333 1.66675Z" fill="black"/>
<path fill-rule="evenodd" clip-rule="evenodd" d="M11.6666 5.83325C12.1268 5.83325 12.4999 6.20635 12.4999 6.66659V12.4999C12.4999 12.9602 12.1268 13.3333 11.6666 13.3333C11.2063 13.3333 10.8333 12.9602 10.8333 12.4999V6.66659C10.8333 6.20635 11.2063 5.83325 11.6666 5.83325Z" fill="black"/>
<path fill-rule="evenodd" clip-rule="evenodd" d="M15.0001 3.33325C15.4603 3.33325 15.8334 3.70635 15.8334 4.16659V14.9999C15.8334 15.4602 15.4603 15.8333 15.0001 15.8333C14.5398 15.8333 14.1667 15.4602 14.1667 14.9999V4.16659C14.1667 3.70635 14.5398 3.33325 15.0001 3.33325Z" fill="black"/>
<path fill-rule="evenodd" clip-rule="evenodd" d="M18.3333 7.5C18.7936 7.5 19.1667 7.8731 19.1667 8.33333V10.8333C19.1667 11.2936 18.7936 11.6667 18.3333 11.6667C17.8731 11.6667 17.5 11.2936 17.5 10.8333V8.33333C17.5 7.8731 17.8731 7.5 18.3333 7.5Z" fill="black"/>
</svg>
