<svg width="20" height="20" viewBox="0 0 20 20" fill="none" xmlns="http://www.w3.org/2000/svg">
<g clip-path="url(#clip0_2001_4372)">
<path fill-rule="evenodd" clip-rule="evenodd" d="M11.6666 2.49992C11.4456 2.49992 11.2336 2.58772 11.0773 2.744C10.921 2.90028 10.8333 3.11224 10.8333 3.33325V16.6666C10.8333 17.3296 10.5699 17.9655 10.101 18.4344C9.63218 18.9032 8.99629 19.1666 8.33325 19.1666C7.67021 19.1666 7.03433 18.9032 6.56549 18.4344C6.09664 17.9655 5.83325 17.3296 5.83325 16.6666V5.83325C5.83325 5.61224 5.74545 5.40028 5.58917 5.244C5.43289 5.08772 5.22093 4.99992 4.99992 4.99992C4.7789 4.99992 4.56694 5.08772 4.41066 5.244C4.25438 5.40028 4.16659 5.61224 4.16659 5.83325V9.16659C4.16659 9.82963 3.90319 10.4655 3.43435 10.9344C2.96551 11.4032 2.32963 11.6666 1.66659 11.6666C1.20635 11.6666 0.833252 11.2935 0.833252 10.8333C0.833252 10.373 1.20635 9.99992 1.66659 9.99992C1.8876 9.99992 2.09956 9.91212 2.25584 9.75584C2.41212 9.59956 2.49992 9.3876 2.49992 9.16659V5.83325C2.49992 5.17021 2.76331 4.53433 3.23215 4.06549C3.70099 3.59664 4.33688 3.33325 4.99992 3.33325C5.66296 3.33325 6.29884 3.59664 6.76769 4.06549C7.23653 4.53433 7.49992 5.17021 7.49992 5.83325V16.6666C7.49992 16.8876 7.58772 17.0996 7.744 17.2558C7.90028 17.4121 8.11224 17.4999 8.33325 17.4999C8.55427 17.4999 8.76623 17.4121 8.92251 17.2558C9.07879 17.0996 9.16659 16.8876 9.16659 16.6666V3.33325C9.16659 2.67021 9.42998 2.03433 9.89882 1.56549C10.3677 1.09664 11.0035 0.833252 11.6666 0.833252C12.3296 0.833252 12.9655 1.09664 13.4344 1.56549C13.9032 2.03433 14.1666 2.67021 14.1666 3.33325V14.1666C14.1666 14.3876 14.2544 14.5996 14.4107 14.7558C14.5669 14.9121 14.7789 14.9999 14.9999 14.9999C15.2209 14.9999 15.4329 14.9121 15.5892 14.7558C15.7455 14.5996 15.8333 14.3876 15.8333 14.1666V10.8333C15.8333 10.1702 16.0966 9.53433 16.5655 9.06549C17.0343 8.59664 17.6702 8.33325 18.3333 8.33325C18.7935 8.33325 19.1666 8.70635 19.1666 9.16659C19.1666 9.62682 18.7935 9.99992 18.3333 9.99992C18.1122 9.99992 17.9003 10.0877 17.744 10.244C17.5877 10.4003 17.4999 10.6122 17.4999 10.8333V14.1666C17.4999 14.8296 17.2365 15.4655 16.7677 15.9344C16.2988 16.4032 15.663 16.6666 14.9999 16.6666C14.3369 16.6666 13.701 16.4032 13.2322 15.9344C12.7633 15.4655 12.4999 14.8296 12.4999 14.1666V3.33325C12.4999 3.11224 12.4121 2.90028 12.2558 2.744C12.0996 2.58772 11.8876 2.49992 11.6666 2.49992Z" fill="black"/>
</g>
<defs>
<clipPath id="clip0_2001_4372">
<rect width="20" height="20" fill="white"/>
</clipPath>
</defs>
</svg>
