<svg width="20" height="20" viewBox="0 0 20 20" fill="none" xmlns="http://www.w3.org/2000/svg">
<path fill-rule="evenodd" clip-rule="evenodd" d="M12.7516 9.9212C13.2047 9.84068 13.6373 10.1427 13.7179 10.5959L14.9804 17.7009C14.9806 17.7023 14.9808 17.7036 14.9811 17.705C14.9812 17.7059 14.9814 17.7069 14.9816 17.7078C15.024 17.9588 14.9888 18.2168 14.8806 18.4472C14.7725 18.6776 14.5966 18.8695 14.3764 18.9973C14.1562 19.125 13.9023 19.1825 13.6486 19.1621C13.4024 19.1422 13.1677 19.0499 12.9742 18.897L10.0028 16.6668L7.02587 18.8966C6.83252 19.0491 6.59825 19.1412 6.35244 19.1611C6.09902 19.1816 5.84538 19.1243 5.62536 18.9969C5.40534 18.8695 5.2294 18.6781 5.121 18.4481C5.01261 18.2181 4.97692 17.9605 5.0187 17.7097C5.01919 17.7068 5.01969 17.7039 5.02021 17.701L6.28188 10.596C6.36234 10.1428 6.79493 9.84071 7.24807 9.92118C7.70122 10.0016 8.00334 10.4342 7.92287 10.8874L6.84657 16.9485L9.00529 15.3316C9.29333 15.1164 9.64324 15.0001 10.0028 15.0001C10.3623 15.0001 10.7122 15.1164 11.0003 15.3316L13.1538 16.9479L12.0769 10.8875C11.9964 10.4343 12.2984 10.0017 12.7516 9.9212Z" fill="black"/>
<path fill-rule="evenodd" clip-rule="evenodd" d="M10.0001 2.49992C7.6989 2.49992 5.83341 4.3654 5.83341 6.66659C5.83341 8.96777 7.6989 10.8333 10.0001 10.8333C12.3013 10.8333 14.1667 8.96777 14.1667 6.66659C14.1667 4.3654 12.3013 2.49992 10.0001 2.49992ZM4.16675 6.66659C4.16675 3.44492 6.77842 0.833252 10.0001 0.833252C13.2217 0.833252 15.8334 3.44492 15.8334 6.66659C15.8334 9.88825 13.2217 12.4999 10.0001 12.4999C6.77842 12.4999 4.16675 9.88825 4.16675 6.66659Z" fill="black"/>
</svg>
