<svg width="20" height="20" viewBox="0 0 20 20" fill="none" xmlns="http://www.w3.org/2000/svg">
<path fill-rule="evenodd" clip-rule="evenodd" d="M9.75587 6.91083C10.0813 7.23626 10.0813 7.7639 9.75587 8.08934L2.67253 15.1727C2.49729 15.3479 2.39884 15.5856 2.39884 15.8334C2.39884 16.0812 2.49729 16.3189 2.67253 16.4942C2.84777 16.6694 3.08545 16.7678 3.33328 16.7678C3.5811 16.7678 3.81878 16.6694 3.99402 16.4942L11.0774 9.41083C11.4028 9.08539 11.9304 9.08539 12.2559 9.41083C12.5813 9.73626 12.5813 10.2639 12.2559 10.5893L5.17253 17.6727C4.68473 18.1605 4.02313 18.4345 3.33328 18.4345C2.64342 18.4345 1.98182 18.1605 1.49402 17.6727C1.00622 17.1849 0.732178 16.5233 0.732178 15.8334C0.732178 15.1436 1.00622 14.482 1.49402 13.9942L8.57736 6.91083C8.90279 6.58539 9.43043 6.58539 9.75587 6.91083Z" fill="black"/>
<path fill-rule="evenodd" clip-rule="evenodd" d="M10.2442 1.91083C10.5696 1.58539 11.0972 1.58539 11.4227 1.91083L16.1786 6.66675H18.3334C18.5716 6.66675 18.7983 6.76863 18.9565 6.94669C19.1146 7.12474 19.189 7.36194 19.1609 7.59842C18.9623 9.27007 18.207 10.8263 17.0166 12.0166C15.8263 13.207 14.2701 13.9623 12.5984 14.1609C12.3619 14.189 12.1247 14.1146 11.9467 13.9565C11.7686 13.7983 11.6667 13.5716 11.6667 13.3334V11.1786L6.91083 6.42267C6.58539 6.09723 6.58539 5.5696 6.91083 5.24416L10.2442 1.91083ZM8.67859 5.83341L13.0893 10.2442C13.2456 10.4004 13.3334 10.6124 13.3334 10.8334V12.3172C14.2749 12.045 15.1379 11.5383 15.8381 10.8381C16.5383 10.1379 17.045 9.27491 17.3172 8.33341H15.8334C15.6124 8.33341 15.4004 8.24562 15.2442 8.08934L10.8334 3.67859L8.67859 5.83341Z" fill="black"/>
</svg>
