<svg width="20" height="20" viewBox="0 0 20 20" fill="none" xmlns="http://www.w3.org/2000/svg">
<path fill-rule="evenodd" clip-rule="evenodd" d="M3.33333 2.5C3.79357 2.5 4.16667 2.8731 4.16667 3.33333V15.8333H16.6667C17.1269 15.8333 17.5 16.2064 17.5 16.6667C17.5 17.1269 17.1269 17.5 16.6667 17.5H3.33333C2.8731 17.5 2.5 17.1269 2.5 16.6667V3.33333C2.5 2.8731 2.8731 2.5 3.33333 2.5Z" fill="black"/>
<path fill-rule="evenodd" clip-rule="evenodd" d="M9.75592 10.2441C10.0814 10.5695 10.0814 11.0972 9.75592 11.4226L3.92259 17.2559C3.59715 17.5814 3.06951 17.5814 2.74408 17.2559C2.41864 16.9305 2.41864 16.4028 2.74408 16.0774L8.57741 10.2441C8.90285 9.91864 9.43049 9.91864 9.75592 10.2441Z" fill="black"/>
</svg>
