<svg width="20" height="20" viewBox="0 0 20 20" fill="none" xmlns="http://www.w3.org/2000/svg">
<path fill-rule="evenodd" clip-rule="evenodd" d="M6.66675 10.0001C6.66675 9.53984 7.03984 9.16675 7.50008 9.16675H7.50841C7.96865 9.16675 8.34175 9.53984 8.34175 10.0001C8.34175 10.4603 7.96865 10.8334 7.50841 10.8334H7.50008C7.03984 10.8334 6.66675 10.4603 6.66675 10.0001Z" fill="black"/>
<path fill-rule="evenodd" clip-rule="evenodd" d="M11.6667 10.0001C11.6667 9.53984 12.0398 9.16675 12.5001 9.16675H12.5084C12.9687 9.16675 13.3417 9.53984 13.3417 10.0001C13.3417 10.4603 12.9687 10.8334 12.5084 10.8334H12.5001C12.0398 10.8334 11.6667 10.4603 11.6667 10.0001Z" fill="black"/>
<path fill-rule="evenodd" clip-rule="evenodd" d="M7.61864 12.9045C7.85543 12.5098 8.36731 12.3818 8.76196 12.6186C9.03326 12.7814 9.46462 12.9165 9.99988 12.9165C10.5351 12.9165 10.9665 12.7814 11.2378 12.6186C11.6325 12.3818 12.1443 12.5098 12.3811 12.9045C12.6179 13.2991 12.4899 13.811 12.0953 14.0478C11.5333 14.385 10.798 14.5832 9.99988 14.5832C9.20181 14.5832 8.46651 14.385 7.90447 14.0478C7.50982 13.811 7.38185 13.2991 7.61864 12.9045Z" fill="black"/>
<path fill-rule="evenodd" clip-rule="evenodd" d="M9.99823 1.66675L9.99992 1.66675C10.979 1.66675 11.8857 1.93512 12.5702 2.42797C13.2589 2.92382 13.7499 3.67624 13.7499 4.58341C13.7499 6.03304 12.786 7.50008 11.2499 7.50008C10.7896 7.50008 10.3147 7.38701 9.92752 7.14063C9.53515 6.89094 9.16658 6.44913 9.16658 5.83342C9.16658 5.37318 9.53968 5.00008 9.99992 5.00008C10.4279 5.00008 10.7805 5.32268 10.8278 5.73797C10.9011 5.78249 11.0488 5.83342 11.2499 5.83342C11.5471 5.83342 12.0832 5.46713 12.0832 4.58341C12.0832 4.32392 11.9493 4.03467 11.5963 3.78053C11.2393 3.52347 10.6879 3.33356 10.0007 3.33341C8.46671 3.33671 6.98075 3.86894 5.79347 4.84035C4.60596 5.81195 3.78994 7.16342 3.48308 8.66675C3.43114 8.92119 3.26355 9.13688 3.02982 9.25008C2.88893 9.31832 2.77011 9.42486 2.68697 9.55751C2.60383 9.69015 2.55973 9.84353 2.55973 10.0001C2.55973 10.1566 2.60383 10.31 2.68697 10.4427C2.77011 10.5753 2.88893 10.6818 3.02982 10.7501C3.26095 10.862 3.42756 11.0743 3.4814 11.3254C3.80118 12.8168 4.62276 14.1535 5.80904 15.1124C6.99532 16.0713 8.47455 16.5944 9.99992 16.5944C11.5253 16.5944 13.0045 16.0713 14.1908 15.1124C15.3771 14.1535 16.1987 12.8168 16.5184 11.3254C16.5723 11.0743 16.7389 10.862 16.97 10.7501C17.1109 10.6818 17.2297 10.5753 17.3129 10.4427C17.396 10.31 17.4401 10.1566 17.4401 10.0001C17.4401 9.84354 17.396 9.69016 17.3129 9.55751C17.2297 9.42486 17.1109 9.31832 16.97 9.25008C16.7337 9.13562 16.5651 8.91645 16.5151 8.65865C16.3104 7.60219 15.8529 6.611 15.1818 5.76976C14.8948 5.40998 14.9538 4.88565 15.3136 4.59864C15.6733 4.31163 16.1977 4.37062 16.4847 4.7304C17.2453 5.68384 17.7864 6.79138 18.0715 7.97412C18.3312 8.16185 18.5534 8.39857 18.7251 8.67236C18.9745 9.07029 19.1068 9.53044 19.1068 10.0001C19.1068 10.4697 18.9745 10.9299 18.7251 11.3278C18.5516 11.6045 18.3264 11.8434 18.0632 12.032C17.6143 13.7521 16.626 15.2871 15.2385 16.4086C13.7557 17.6072 11.9066 18.2611 9.99992 18.2611C8.09321 18.2611 6.24417 17.6072 4.76132 16.4086C3.37384 15.2871 2.38548 13.7521 1.93663 12.032C1.67341 11.8434 1.44821 11.6045 1.27478 11.3278C1.02535 10.9299 0.893066 10.4697 0.893066 10.0001C0.893066 9.53044 1.02535 9.0703 1.27478 8.67236C1.4473 8.39711 1.67104 8.15932 1.93249 7.97111C2.36761 6.23763 3.34974 4.68633 4.73807 3.55042C6.22246 2.33593 8.08033 1.67062 9.99823 1.66675Z" fill="black"/>
</svg>
