<svg width="20" height="20" viewBox="0 0 20 20" fill="none" xmlns="http://www.w3.org/2000/svg">
<path fill-rule="evenodd" clip-rule="evenodd" d="M6.66667 5.83341C6.00363 5.83341 5.36774 6.09681 4.8989 6.56565C4.43006 7.03449 4.16667 7.67037 4.16667 8.33342V16.6667C4.16667 16.8878 4.25446 17.0997 4.41074 17.256C4.56702 17.4123 4.77899 17.5001 5 17.5001H15C15.221 17.5001 15.433 17.4123 15.5893 17.256C15.7455 17.0997 15.8333 16.8878 15.8333 16.6667V8.33342C15.8333 7.67037 15.5699 7.03449 15.1011 6.56565C14.6323 6.09681 13.9964 5.83341 13.3333 5.83341H6.66667ZM3.72039 5.38714C4.50179 4.60573 5.5616 4.16675 6.66667 4.16675H13.3333C14.4384 4.16675 15.4982 4.60573 16.2796 5.38714C17.061 6.16854 17.5 7.22835 17.5 8.33342V16.6667C17.5 17.3298 17.2366 17.9657 16.7678 18.4345C16.2989 18.9034 15.663 19.1667 15 19.1667H5C4.33696 19.1667 3.70107 18.9034 3.23223 18.4345C2.76339 17.9657 2.5 17.3298 2.5 16.6667V8.33342C2.5 7.22835 2.93899 6.16854 3.72039 5.38714Z" fill="black"/>
<path fill-rule="evenodd" clip-rule="evenodd" d="M5.83325 8.33333C5.83325 7.8731 6.20635 7.5 6.66659 7.5H13.3333C13.7935 7.5 14.1666 7.8731 14.1666 8.33333C14.1666 8.79357 13.7935 9.16667 13.3333 9.16667H6.66659C6.20635 9.16667 5.83325 8.79357 5.83325 8.33333Z" fill="black"/>
<path fill-rule="evenodd" clip-rule="evenodd" d="M5.83325 15.0001C5.83325 14.5398 6.20635 14.1667 6.66659 14.1667H13.3333C13.7935 14.1667 14.1666 14.5398 14.1666 15.0001C14.1666 15.4603 13.7935 15.8334 13.3333 15.8334H6.66659C6.20635 15.8334 5.83325 15.4603 5.83325 15.0001Z" fill="black"/>
<path fill-rule="evenodd" clip-rule="evenodd" d="M8.33325 12.4999C8.11224 12.4999 7.90028 12.5877 7.744 12.744C7.58772 12.9003 7.49992 13.1122 7.49992 13.3333V18.3333C7.49992 18.7935 7.12682 19.1666 6.66659 19.1666C6.20635 19.1666 5.83325 18.7935 5.83325 18.3333V13.3333C5.83325 12.6702 6.09664 12.0343 6.56549 11.5655C7.03433 11.0966 7.67021 10.8333 8.33325 10.8333H11.6666C12.3296 10.8333 12.9655 11.0966 13.4344 11.5655C13.9032 12.0343 14.1666 12.6702 14.1666 13.3333V18.3333C14.1666 18.7935 13.7935 19.1666 13.3333 19.1666C12.873 19.1666 12.4999 18.7935 12.4999 18.3333V13.3333C12.4999 13.1122 12.4121 12.9003 12.2558 12.744C12.0996 12.5877 11.8876 12.4999 11.6666 12.4999H8.33325Z" fill="black"/>
<path fill-rule="evenodd" clip-rule="evenodd" d="M9.16675 2.49992C8.94573 2.49992 8.73377 2.58772 8.57749 2.744C8.42121 2.90028 8.33341 3.11224 8.33341 3.33325V4.99992C8.33341 5.46016 7.96032 5.83325 7.50008 5.83325C7.03984 5.83325 6.66675 5.46016 6.66675 4.99992V3.33325C6.66675 2.67021 6.93014 2.03433 7.39898 1.56549C7.86782 1.09664 8.50371 0.833252 9.16675 0.833252H10.8334C11.4965 0.833252 12.1323 1.09664 12.6012 1.56549C13.07 2.03433 13.3334 2.67021 13.3334 3.33325V4.99992C13.3334 5.46016 12.9603 5.83325 12.5001 5.83325C12.0398 5.83325 11.6667 5.46016 11.6667 4.99992V3.33325C11.6667 3.11224 11.579 2.90028 11.4227 2.744C11.2664 2.58772 11.0544 2.49992 10.8334 2.49992H9.16675Z" fill="black"/>
</svg>
