<svg width="20" height="20" viewBox="0 0 20 20" fill="none" xmlns="http://www.w3.org/2000/svg">
<g clip-path="url(#clip0_2001_4464)">
<path fill-rule="evenodd" clip-rule="evenodd" d="M0.833252 4.16659C0.833252 3.70635 1.20635 3.33325 1.66659 3.33325C2.32963 3.33325 2.96551 3.59664 3.43435 4.06549C3.90319 4.53433 4.16659 5.17021 4.16659 5.83325V13.3333C4.16659 13.5543 4.25438 13.7662 4.41066 13.9225C4.56694 14.0788 4.77891 14.1666 4.99992 14.1666H18.3333C18.7935 14.1666 19.1666 14.5397 19.1666 14.9999C19.1666 15.4602 18.7935 15.8333 18.3333 15.8333H4.99992C4.33688 15.8333 3.70099 15.5699 3.23215 15.101C2.76331 14.6322 2.49992 13.9963 2.49992 13.3333V5.83325C2.49992 5.61224 2.41212 5.40028 2.25584 5.244C2.09956 5.08772 1.8876 4.99992 1.66659 4.99992C1.20635 4.99992 0.833252 4.62682 0.833252 4.16659Z" fill="black"/>
<path fill-rule="evenodd" clip-rule="evenodd" d="M9.89898 1.56549C10.3678 1.09664 11.0037 0.833252 11.6667 0.833252H12.5001C13.1631 0.833252 13.799 1.09664 14.2678 1.56549C14.7367 2.03433 15.0001 2.67021 15.0001 3.33325V11.6666C15.0001 12.1268 14.627 12.4999 14.1667 12.4999C13.7065 12.4999 13.3334 12.1268 13.3334 11.6666V3.33325C13.3334 3.11224 13.2456 2.90028 13.0893 2.744C12.9331 2.58772 12.7211 2.49992 12.5001 2.49992H11.6667C11.4457 2.49992 11.2338 2.58772 11.0775 2.744C10.9212 2.90028 10.8334 3.11224 10.8334 3.33325V11.6666C10.8334 12.1268 10.4603 12.4999 10.0001 12.4999C9.53984 12.4999 9.16675 12.1268 9.16675 11.6666V3.33325C9.16675 2.67021 9.43014 2.03433 9.89898 1.56549Z" fill="black"/>
<path fill-rule="evenodd" clip-rule="evenodd" d="M7.49992 5.83341V10.8334H16.6666V5.83341H7.49992ZM16.6665 5.83238C16.6665 5.83235 16.6665 5.83236 16.6665 5.83241L16.6665 5.83238ZM16.6676 10.8334C16.6677 10.8334 16.6676 10.8334 16.6676 10.8334L16.6676 10.8334ZM5.83325 5.83341C5.83325 4.91294 6.57944 4.16675 7.49992 4.16675H16.6666C17.5871 4.16675 18.3333 4.91294 18.3333 5.83341V10.8334C18.3333 11.7539 17.5871 12.5001 16.6666 12.5001H7.49992C6.57944 12.5001 5.83325 11.7539 5.83325 10.8334V5.83341Z" fill="black"/>
<path fill-rule="evenodd" clip-rule="evenodd" d="M15 15.8334C14.5398 15.8334 14.1667 16.2065 14.1667 16.6667C14.1667 17.127 14.5398 17.5001 15 17.5001C15.4602 17.5001 15.8333 17.127 15.8333 16.6667C15.8333 16.2065 15.4602 15.8334 15 15.8334ZM12.5 16.6667C12.5 15.286 13.6193 14.1667 15 14.1667C16.3807 14.1667 17.5 15.286 17.5 16.6667C17.5 18.0475 16.3807 19.1667 15 19.1667C13.6193 19.1667 12.5 18.0475 12.5 16.6667Z" fill="black"/>
<path fill-rule="evenodd" clip-rule="evenodd" d="M7.5 15.8334C7.03976 15.8334 6.66667 16.2065 6.66667 16.6667C6.66667 17.127 7.03976 17.5001 7.5 17.5001C7.96024 17.5001 8.33333 17.127 8.33333 16.6667C8.33333 16.2065 7.96024 15.8334 7.5 15.8334ZM5 16.6667C5 15.286 6.11929 14.1667 7.5 14.1667C8.88071 14.1667 10 15.286 10 16.6667C10 18.0475 8.88071 19.1667 7.5 19.1667C6.11929 19.1667 5 18.0475 5 16.6667Z" fill="black"/>
</g>
<defs>
<clipPath id="clip0_2001_4464">
<rect width="20" height="20" fill="white"/>
</clipPath>
</defs>
</svg>
