<svg width="20" height="20" viewBox="0 0 20 20" fill="none" xmlns="http://www.w3.org/2000/svg">
<g clip-path="url(#clip0_2001_4470)">
<path fill-rule="evenodd" clip-rule="evenodd" d="M9.99992 2.49992C5.85778 2.49992 2.49992 5.85778 2.49992 9.99992C2.49992 14.1421 5.85778 17.4999 9.99992 17.4999C14.1421 17.4999 17.4999 14.1421 17.4999 9.99992C17.4999 5.85778 14.1421 2.49992 9.99992 2.49992ZM0.833252 9.99992C0.833252 4.93731 4.93731 0.833252 9.99992 0.833252C15.0625 0.833252 19.1666 4.93731 19.1666 9.99992C19.1666 15.0625 15.0625 19.1666 9.99992 19.1666C4.93731 19.1666 0.833252 15.0625 0.833252 9.99992Z" fill="black"/>
<path fill-rule="evenodd" clip-rule="evenodd" d="M3.49408 3.49408C3.81951 3.16864 4.34715 3.16864 4.67259 3.49408L16.5059 15.3274C16.8314 15.6528 16.8314 16.1805 16.5059 16.5059C16.1805 16.8314 15.6528 16.8314 15.3274 16.5059L3.49408 4.67259C3.16864 4.34715 3.16864 3.81951 3.49408 3.49408Z" fill="black"/>
</g>
<defs>
<clipPath id="clip0_2001_4470">
<rect width="20" height="20" fill="white"/>
</clipPath>
</defs>
</svg>
