<svg width="20" height="20" viewBox="0 0 20 20" fill="none" xmlns="http://www.w3.org/2000/svg">
<g clip-path="url(#clip0_2001_4473)">
<path fill-rule="evenodd" clip-rule="evenodd" d="M7.85478 10.6171C6.56659 10.4394 5.08434 10.7924 3.74668 11.5567C3.34708 11.7851 2.83804 11.6462 2.6097 11.2466C2.38135 10.8471 2.52018 10.338 2.91978 10.1097C4.49879 9.20738 6.34987 8.72703 8.08251 8.96602C9.63052 9.17954 11.0474 9.96618 12.022 11.4485C12.6515 11.2366 13.3169 11.1414 13.985 11.1704C14.9198 11.2108 15.8281 11.4927 16.6215 11.9886C17.4149 12.4845 18.0664 13.1775 18.5124 14C18.9583 14.8224 19.1837 15.7464 19.1664 16.6819C19.1579 17.1421 18.778 17.5082 18.3179 17.4997C17.8577 17.4912 17.4915 17.1113 17.5 16.6512C17.512 16.0035 17.356 15.3638 17.0472 14.7944C16.7385 14.225 16.2875 13.7453 15.7382 13.402C15.1889 13.0587 14.56 12.8635 13.9129 12.8355C13.2658 12.8074 12.6224 12.9475 12.0455 13.2421C11.8476 13.3431 11.6175 13.3609 11.4064 13.2915C11.1952 13.2221 11.0206 13.0713 10.9212 12.8725C10.2167 11.4636 9.10634 10.7897 7.85478 10.6171Z" fill="black"/>
<path fill-rule="evenodd" clip-rule="evenodd" d="M10.6486 2.80895C10.5896 3.24325 10.684 3.91466 10.9186 4.65431C12.4538 9.41292 9.51797 14.3328 4.51403 15.7113C4.29728 15.7717 4.09341 15.8249 3.90681 15.8732C3.88369 15.8792 3.86091 15.8851 3.83844 15.8909C3.67673 15.9328 3.53136 15.9704 3.39528 16.0077C3.07769 16.0949 2.87021 16.1652 2.72572 16.238C2.59301 16.3048 2.56108 16.3504 2.55062 16.3673C2.53905 16.3861 2.49992 16.4587 2.49992 16.6666C2.49992 16.8316 2.54909 16.9153 2.64422 16.9967C2.7729 17.1066 3.01101 17.2227 3.40076 17.3132C4.18656 17.4955 5.2295 17.4999 6.25825 17.4999C10.909 17.4999 14.1666 13.4323 14.1666 8.33325C14.1666 7.43556 13.8328 5.89616 13.1781 4.59267C12.495 3.23243 11.6626 2.49992 10.8333 2.49992C10.7722 2.49992 10.7464 2.50954 10.7425 2.51111C10.7424 2.51122 10.7423 2.51135 10.7421 2.51151C10.7321 2.52259 10.6774 2.59648 10.6486 2.80895ZM9.5077 1.39171C9.84918 1.01527 10.3163 0.833252 10.8333 0.833252C12.6872 0.833252 13.9382 2.39241 14.6675 3.84467C15.4254 5.35368 15.8333 7.14761 15.8333 8.33325C15.8333 14.0676 12.0909 19.1666 6.25825 19.1666L6.20492 19.1666C5.24146 19.1667 4.01572 19.1668 3.02407 18.9367C2.51591 18.8188 1.98111 18.6224 1.56135 18.2636C1.10804 17.8762 0.833252 17.3349 0.833252 16.6666C0.833252 16.2495 0.912867 15.8481 1.13177 15.4929C1.35178 15.1359 1.66203 14.9075 1.9762 14.7494C2.27859 14.5971 2.62267 14.4914 2.9543 14.4005C3.10297 14.3597 3.26114 14.3187 3.42121 14.2773C3.44376 14.2715 3.46635 14.2657 3.48896 14.2598C3.67457 14.2117 3.86638 14.1616 4.06793 14.1055C4.06874 14.1053 4.06954 14.105 4.07035 14.1048C8.26493 12.9498 10.545 8.92133 9.3319 5.16431C9.33148 5.16301 9.33106 5.16171 9.33065 5.1604C9.06568 4.32576 8.88945 3.37707 8.99708 2.58464C9.05156 2.18357 9.18963 1.74235 9.5077 1.39171Z" fill="black"/>
</g>
<defs>
<clipPath id="clip0_2001_4473">
<rect width="20" height="20" fill="white"/>
</clipPath>
</defs>
</svg>
