<svg width="20" height="20" viewBox="0 0 20 20" fill="none" xmlns="http://www.w3.org/2000/svg">
<path fill-rule="evenodd" clip-rule="evenodd" d="M7.5 8.34163C7.5 7.8814 7.8731 7.5083 8.33333 7.5083H8.34167C8.8019 7.5083 9.175 7.8814 9.175 8.34163C9.175 8.80187 8.8019 9.17497 8.34167 9.17497H8.33333C7.8731 9.17497 7.5 8.80187 7.5 8.34163Z" fill="black"/>
<path fill-rule="evenodd" clip-rule="evenodd" d="M7.5 11.6749C7.5 11.2146 7.8731 10.8416 8.33333 10.8416H8.34167C8.8019 10.8416 9.175 11.2146 9.175 11.6749C9.175 12.1351 8.8019 12.5082 8.34167 12.5082H8.33333C7.8731 12.5082 7.5 12.1351 7.5 11.6749Z" fill="black"/>
<path fill-rule="evenodd" clip-rule="evenodd" d="M10.8333 8.34163C10.8333 7.8814 11.2063 7.5083 11.6666 7.5083H11.6749C12.1352 7.5083 12.5083 7.8814 12.5083 8.34163C12.5083 8.80187 12.1352 9.17497 11.6749 9.17497H11.6666C11.2063 9.17497 10.8333 8.80187 10.8333 8.34163Z" fill="black"/>
<path fill-rule="evenodd" clip-rule="evenodd" d="M10.8333 11.6749C10.8333 11.2146 11.2063 10.8416 11.6666 10.8416H11.6749C12.1352 10.8416 12.5083 11.2146 12.5083 11.6749C12.5083 12.1351 12.1352 12.5082 11.6749 12.5082H11.6666C11.2063 12.5082 10.8333 12.1351 10.8333 11.6749Z" fill="black"/>
<path fill-rule="evenodd" clip-rule="evenodd" d="M15.0001 4.16675C15.4603 4.16675 15.8334 4.53984 15.8334 5.00008V14.5834C15.8334 15.0437 15.4603 15.4167 15.0001 15.4167C14.5398 15.4167 14.1667 15.0437 14.1667 14.5834V5.00008C14.1667 4.53984 14.5398 4.16675 15.0001 4.16675Z" fill="black"/>
<path fill-rule="evenodd" clip-rule="evenodd" d="M5.00008 4.16675C5.46032 4.16675 5.83341 4.53984 5.83341 5.00008V15.0001C5.83341 15.4603 5.46032 15.8334 5.00008 15.8334C4.53984 15.8334 4.16675 15.4603 4.16675 15.0001V5.00008C4.16675 4.53984 4.53984 4.16675 5.00008 4.16675Z" fill="black"/>
<path fill-rule="evenodd" clip-rule="evenodd" d="M3.33325 5.83341C2.87301 5.83341 2.49992 6.20651 2.49992 6.66675V13.3334C2.49992 13.7937 2.87301 14.1667 3.33325 14.1667H16.6666C17.1268 14.1667 17.4999 13.7937 17.4999 13.3334V6.66675C17.4999 6.20651 17.1268 5.83341 16.6666 5.83341H3.33325ZM0.833252 6.66675C0.833252 5.28604 1.95254 4.16675 3.33325 4.16675H16.6666C18.0473 4.16675 19.1666 5.28604 19.1666 6.66675V13.3334C19.1666 14.7141 18.0473 15.8334 16.6666 15.8334H3.33325C1.95254 15.8334 0.833252 14.7141 0.833252 13.3334V6.66675Z" fill="black"/>
</svg>
