<svg width="20" height="20" viewBox="0 0 20 20" fill="none" xmlns="http://www.w3.org/2000/svg">
<path fill-rule="evenodd" clip-rule="evenodd" d="M3.33325 5.83341C2.87301 5.83341 2.49992 6.20651 2.49992 6.66675V13.3334C2.49992 13.7937 2.87301 14.1667 3.33325 14.1667H16.6666C17.1268 14.1667 17.4999 13.7937 17.4999 13.3334V6.66675C17.4999 6.20651 17.1268 5.83341 16.6666 5.83341H3.33325ZM0.833252 6.66675C0.833252 5.28604 1.95254 4.16675 3.33325 4.16675H16.6666C18.0473 4.16675 19.1666 5.28604 19.1666 6.66675V13.3334C19.1666 14.7141 18.0473 15.8334 16.6666 15.8334H3.33325C1.95254 15.8334 0.833252 14.7141 0.833252 13.3334V6.66675Z" fill="black"/>
<path fill-rule="evenodd" clip-rule="evenodd" d="M10 9.16667C9.53976 9.16667 9.16667 9.53976 9.16667 10C9.16667 10.4602 9.53976 10.8333 10 10.8333C10.4602 10.8333 10.8333 10.4602 10.8333 10C10.8333 9.53976 10.4602 9.16667 10 9.16667ZM7.5 10C7.5 8.61929 8.61929 7.5 10 7.5C11.3807 7.5 12.5 8.61929 12.5 10C12.5 11.3807 11.3807 12.5 10 12.5C8.61929 12.5 7.5 11.3807 7.5 10Z" fill="black"/>
<path fill-rule="evenodd" clip-rule="evenodd" d="M4.16675 10.0001C4.16675 9.53984 4.53984 9.16675 5.00008 9.16675H5.00841C5.46865 9.16675 5.84175 9.53984 5.84175 10.0001C5.84175 10.4603 5.46865 10.8334 5.00841 10.8334H5.00008C4.53984 10.8334 4.16675 10.4603 4.16675 10.0001ZM14.1667 10.0001C14.1667 9.53984 14.5398 9.16675 15.0001 9.16675H15.0084C15.4687 9.16675 15.8417 9.53984 15.8417 10.0001C15.8417 10.4603 15.4687 10.8334 15.0084 10.8334H15.0001C14.5398 10.8334 14.1667 10.4603 14.1667 10.0001Z" fill="black"/>
</svg>
