<svg width="20" height="20" viewBox="0 0 20 20" fill="none" xmlns="http://www.w3.org/2000/svg">
<path fill-rule="evenodd" clip-rule="evenodd" d="M2.50008 3.33325C2.96032 3.33325 3.33341 3.70635 3.33341 4.16659V15.8333C3.33341 16.2935 2.96032 16.6666 2.50008 16.6666C2.03984 16.6666 1.66675 16.2935 1.66675 15.8333V4.16659C1.66675 3.70635 2.03984 3.33325 2.50008 3.33325Z" fill="black"/>
<path fill-rule="evenodd" clip-rule="evenodd" d="M6.66659 3.33325C7.12682 3.33325 7.49992 3.70635 7.49992 4.16659V15.8333C7.49992 16.2935 7.12682 16.6666 6.66659 16.6666C6.20635 16.6666 5.83325 16.2935 5.83325 15.8333V4.16659C5.83325 3.70635 6.20635 3.33325 6.66659 3.33325Z" fill="black"/>
<path fill-rule="evenodd" clip-rule="evenodd" d="M10.0001 3.33325C10.4603 3.33325 10.8334 3.70635 10.8334 4.16659V15.8333C10.8334 16.2935 10.4603 16.6666 10.0001 16.6666C9.53984 16.6666 9.16675 16.2935 9.16675 15.8333V4.16659C9.16675 3.70635 9.53984 3.33325 10.0001 3.33325Z" fill="black"/>
<path fill-rule="evenodd" clip-rule="evenodd" d="M14.1666 3.33325C14.6268 3.33325 14.9999 3.70635 14.9999 4.16659V15.8333C14.9999 16.2935 14.6268 16.6666 14.1666 16.6666C13.7063 16.6666 13.3333 16.2935 13.3333 15.8333V4.16659C13.3333 3.70635 13.7063 3.33325 14.1666 3.33325Z" fill="black"/>
<path fill-rule="evenodd" clip-rule="evenodd" d="M17.5001 3.33325C17.9603 3.33325 18.3334 3.70635 18.3334 4.16659V15.8333C18.3334 16.2935 17.9603 16.6666 17.5001 16.6666C17.0398 16.6666 16.6667 16.2935 16.6667 15.8333V4.16659C16.6667 3.70635 17.0398 3.33325 17.5001 3.33325Z" fill="black"/>
</svg>
