<svg width="20" height="20" viewBox="0 0 20 20" fill="none" xmlns="http://www.w3.org/2000/svg">
<path fill-rule="evenodd" clip-rule="evenodd" d="M2.5 16.6666C2.5 16.2063 2.8731 15.8333 3.33333 15.8333H16.6667C17.1269 15.8333 17.5 16.2063 17.5 16.6666C17.5 17.1268 17.1269 17.4999 16.6667 17.4999H3.33333C2.8731 17.4999 2.5 17.1268 2.5 16.6666Z" fill="black"/>
<path fill-rule="evenodd" clip-rule="evenodd" d="M10 2.5C10.3157 2.5 10.6042 2.67834 10.7454 2.96066L15.7454 12.9607C15.9512 13.3723 15.7843 13.8729 15.3727 14.0787C14.961 14.2845 14.4605 14.1177 14.2547 13.706L10 5.19672L5.74538 13.706C5.53955 14.1177 5.03899 14.2845 4.62734 14.0787C4.21569 13.8729 4.04884 13.3723 4.25466 12.9607L9.25466 2.96066C9.39582 2.67834 9.68438 2.5 10 2.5Z" fill="black"/>
<path fill-rule="evenodd" clip-rule="evenodd" d="M5.83325 10.0001C5.83325 9.53984 6.20635 9.16675 6.66659 9.16675H13.3333C13.7935 9.16675 14.1666 9.53984 14.1666 10.0001C14.1666 10.4603 13.7935 10.8334 13.3333 10.8334H6.66659C6.20635 10.8334 5.83325 10.4603 5.83325 10.0001Z" fill="black"/>
</svg>
