<svg width="20" height="20" viewBox="0 0 20 20" fill="none" xmlns="http://www.w3.org/2000/svg">
<path fill-rule="evenodd" clip-rule="evenodd" d="M2.5 3.75008C2.5 2.60901 3.44226 1.66675 4.58333 1.66675C4.60605 1.66675 4.62875 1.66768 4.65139 1.66953C5.17715 1.71261 5.66663 1.95349 6.0214 2.34297L8.08926 4.41083C8.41469 4.73626 8.41469 5.2639 8.08926 5.58934C7.76382 5.91477 7.23618 5.91477 6.91074 5.58934L4.82741 3.506C4.8156 3.49419 4.80414 3.48202 4.79306 3.46952C4.72955 3.39788 4.64357 3.35056 4.54982 3.33492C4.34326 3.35346 4.16667 3.54073 4.16667 3.75008V14.1667C4.16667 14.3878 4.25446 14.5997 4.41074 14.756C4.56702 14.9123 4.77899 15.0001 5 15.0001H15C15.221 15.0001 15.433 14.9123 15.5893 14.756C15.7455 14.5997 15.8333 14.3878 15.8333 14.1667V10.0001C15.8333 9.53984 16.2064 9.16675 16.6667 9.16675C17.1269 9.16675 17.5 9.53984 17.5 10.0001V14.1667C17.5 14.8298 17.2366 15.4657 16.7678 15.9345C16.2989 16.4034 15.663 16.6667 15 16.6667H5C4.33696 16.6667 3.70107 16.4034 3.23223 15.9345C2.76339 15.4657 2.5 14.8298 2.5 14.1667V3.75008Z" fill="black"/>
<path fill-rule="evenodd" clip-rule="evenodd" d="M8.92251 3.57733C9.24794 3.90277 9.24794 4.4304 8.92251 4.75584L7.25584 6.42251C6.9304 6.74794 6.40277 6.74794 6.07733 6.42251C5.75189 6.09707 5.75189 5.56943 6.07733 5.244L7.744 3.57733C8.06943 3.25189 8.59707 3.25189 8.92251 3.57733Z" fill="black"/>
<path fill-rule="evenodd" clip-rule="evenodd" d="M0.833252 10.0001C0.833252 9.53984 1.20635 9.16675 1.66659 9.16675H18.3333C18.7935 9.16675 19.1666 9.53984 19.1666 10.0001C19.1666 10.4603 18.7935 10.8334 18.3333 10.8334H1.66659C1.20635 10.8334 0.833252 10.4603 0.833252 10.0001Z" fill="black"/>
<path fill-rule="evenodd" clip-rule="evenodd" d="M5.83333 15C6.29357 15 6.66667 15.3731 6.66667 15.8333V17.5C6.66667 17.9602 6.29357 18.3333 5.83333 18.3333C5.3731 18.3333 5 17.9602 5 17.5V15.8333C5 15.3731 5.3731 15 5.83333 15Z" fill="black"/>
<path fill-rule="evenodd" clip-rule="evenodd" d="M14.1666 15C14.6268 15 14.9999 15.3731 14.9999 15.8333V17.5C14.9999 17.9602 14.6268 18.3333 14.1666 18.3333C13.7063 18.3333 13.3333 17.9602 13.3333 17.5V15.8333C13.3333 15.3731 13.7063 15 14.1666 15Z" fill="black"/>
</svg>
