<svg width="20" height="20" viewBox="0 0 20 20" fill="none" xmlns="http://www.w3.org/2000/svg">
<path fill-rule="evenodd" clip-rule="evenodd" d="M3.33325 6.66667C2.87301 6.66667 2.49992 7.03976 2.49992 7.5V12.5C2.49992 12.9602 2.87301 13.3333 3.33325 13.3333H13.3333C13.7935 13.3333 14.1666 12.9602 14.1666 12.5V7.5C14.1666 7.03976 13.7935 6.66667 13.3333 6.66667H3.33325ZM0.833252 7.5C0.833252 6.11929 1.95254 5 3.33325 5H13.3333C14.714 5 15.8333 6.11929 15.8333 7.5V12.5C15.8333 13.8807 14.714 15 13.3333 15H3.33325C1.95254 15 0.833252 13.8807 0.833252 12.5V7.5Z" fill="black"/>
<path fill-rule="evenodd" clip-rule="evenodd" d="M18.3333 8.33325C18.7936 8.33325 19.1667 8.70635 19.1667 9.16659V10.8333C19.1667 11.2935 18.7936 11.6666 18.3333 11.6666C17.8731 11.6666 17.5 11.2935 17.5 10.8333V9.16659C17.5 8.70635 17.8731 8.33325 18.3333 8.33325Z" fill="black"/>
</svg>
