<svg width="20" height="20" viewBox="0 0 20 20" fill="none" xmlns="http://www.w3.org/2000/svg">
<path fill-rule="evenodd" clip-rule="evenodd" d="M11.6666 5.83333C11.6666 5.3731 12.0397 5 12.4999 5H13.3333C13.9963 5 14.6322 5.26339 15.101 5.73223C15.5699 6.20107 15.8333 6.83696 15.8333 7.5V12.5C15.8333 13.163 15.5699 13.7989 15.101 14.2678C14.6322 14.7366 13.9963 15 13.3333 15H11.6666C11.2063 15 10.8333 14.6269 10.8333 14.1667C10.8333 13.7064 11.2063 13.3333 11.6666 13.3333H13.3333C13.5543 13.3333 13.7662 13.2455 13.9225 13.0893C14.0788 12.933 14.1666 12.721 14.1666 12.5V7.5C14.1666 7.27899 14.0788 7.06702 13.9225 6.91074C13.7662 6.75446 13.5543 6.66667 13.3333 6.66667H12.4999C12.0397 6.66667 11.6666 6.29357 11.6666 5.83333Z" fill="black"/>
<path fill-rule="evenodd" clip-rule="evenodd" d="M1.56549 5.73223C2.03433 5.26339 2.67021 5 3.33325 5H4.99992C5.46016 5 5.83325 5.3731 5.83325 5.83333C5.83325 6.29357 5.46016 6.66667 4.99992 6.66667H3.33325C3.11224 6.66667 2.90028 6.75446 2.744 6.91074C2.58772 7.06702 2.49992 7.27899 2.49992 7.5V12.5C2.49992 12.721 2.58772 12.933 2.744 13.0893C2.90028 13.2455 3.11224 13.3333 3.33325 13.3333H4.16659C4.62682 13.3333 4.99992 13.7064 4.99992 14.1667C4.99992 14.6269 4.62682 15 4.16659 15H3.33325C2.67021 15 2.03433 14.7366 1.56549 14.2678C1.09664 13.7989 0.833252 13.163 0.833252 12.5V7.5C0.833252 6.83696 1.09664 6.20107 1.56549 5.73223Z" fill="black"/>
<path fill-rule="evenodd" clip-rule="evenodd" d="M9.59533 5.11864C9.98998 5.35543 10.118 5.86731 9.88116 6.26196L8.13841 9.16655H9.99992C10.3001 9.16655 10.5772 9.32804 10.7251 9.5893C10.873 9.85056 10.869 10.1712 10.7145 10.4286L8.2145 14.5953C7.97771 14.9899 7.46582 15.1179 7.07117 14.8811C6.67652 14.6443 6.54855 14.1325 6.78534 13.7378L8.52809 10.8332H6.66659C6.36636 10.8332 6.08934 10.6717 5.94142 10.4105C5.7935 10.1492 5.79754 9.82858 5.95201 9.57114L8.45201 5.40447C8.6888 5.00982 9.20068 4.88185 9.59533 5.11864Z" fill="black"/>
<path fill-rule="evenodd" clip-rule="evenodd" d="M18.3333 8.33325C18.7936 8.33325 19.1667 8.70635 19.1667 9.16659V10.8333C19.1667 11.2935 18.7936 11.6666 18.3333 11.6666C17.8731 11.6666 17.5 11.2935 17.5 10.8333V9.16659C17.5 8.70635 17.8731 8.33325 18.3333 8.33325Z" fill="black"/>
</svg>
