<svg width="20" height="20" viewBox="0 0 20 20" fill="none" xmlns="http://www.w3.org/2000/svg">
<path fill-rule="evenodd" clip-rule="evenodd" d="M7.5 14.1666C7.5 13.7063 7.8731 13.3333 8.33333 13.3333H8.34167C8.8019 13.3333 9.175 13.7063 9.175 14.1666C9.175 14.6268 8.8019 14.9999 8.34167 14.9999H8.33333C7.8731 14.9999 7.5 14.6268 7.5 14.1666Z" fill="black"/>
<path fill-rule="evenodd" clip-rule="evenodd" d="M8.33333 5C8.79357 5 9.16667 5.3731 9.16667 5.83333V10.8333C9.16667 11.2936 8.79357 11.6667 8.33333 11.6667C7.8731 11.6667 7.5 11.2936 7.5 10.8333V5.83333C7.5 5.3731 7.8731 5 8.33333 5Z" fill="black"/>
<path fill-rule="evenodd" clip-rule="evenodd" d="M10.8333 5.83333C10.8333 5.3731 11.2063 5 11.6666 5H13.3333C13.9963 5 14.6322 5.26339 15.101 5.73223C15.5699 6.20107 15.8333 6.83696 15.8333 7.5V12.5C15.8333 13.163 15.5699 13.7989 15.101 14.2678C14.6322 14.7366 13.9963 15 13.3333 15H11.6666C11.2063 15 10.8333 14.6269 10.8333 14.1667C10.8333 13.7064 11.2063 13.3333 11.6666 13.3333H13.3333C13.5543 13.3333 13.7662 13.2455 13.9225 13.0893C14.0788 12.933 14.1666 12.721 14.1666 12.5V7.5C14.1666 7.27899 14.0788 7.06702 13.9225 6.91074C13.7662 6.75446 13.5543 6.66667 13.3333 6.66667H11.6666C11.2063 6.66667 10.8333 6.29357 10.8333 5.83333Z" fill="black"/>
<path fill-rule="evenodd" clip-rule="evenodd" d="M18.3333 8.33325C18.7936 8.33325 19.1667 8.70635 19.1667 9.16659V10.8333C19.1667 11.2935 18.7936 11.6666 18.3333 11.6666C17.8731 11.6666 17.5 11.2935 17.5 10.8333V9.16659C17.5 8.70635 17.8731 8.33325 18.3333 8.33325Z" fill="black"/>
<path fill-rule="evenodd" clip-rule="evenodd" d="M1.56549 5.73223C2.03433 5.26339 2.67021 5 3.33325 5H4.99992C5.46016 5 5.83325 5.3731 5.83325 5.83333C5.83325 6.29357 5.46016 6.66667 4.99992 6.66667H3.33325C3.11224 6.66667 2.90028 6.75446 2.744 6.91074C2.58772 7.06702 2.49992 7.27899 2.49992 7.5V12.5C2.49992 12.721 2.58772 12.933 2.744 13.0893C2.90028 13.2455 3.11224 13.3333 3.33325 13.3333H4.99992C5.46016 13.3333 5.83325 13.7064 5.83325 14.1667C5.83325 14.6269 5.46016 15 4.99992 15H3.33325C2.67021 15 2.03433 14.7366 1.56549 14.2678C1.09664 13.7989 0.833252 13.163 0.833252 12.5V7.5C0.833252 6.83696 1.09664 6.20107 1.56549 5.73223Z" fill="black"/>
</svg>
