<svg width="20" height="20" viewBox="0 0 20 20" fill="none" xmlns="http://www.w3.org/2000/svg">
<path fill-rule="evenodd" clip-rule="evenodd" d="M3.33325 6.66667C2.87301 6.66667 2.49992 7.03976 2.49992 7.5V12.5C2.49992 12.9602 2.87301 13.3333 3.33325 13.3333H13.3333C13.7935 13.3333 14.1666 12.9602 14.1666 12.5V7.5C14.1666 7.03976 13.7935 6.66667 13.3333 6.66667H3.33325ZM0.833252 7.5C0.833252 6.11929 1.95254 5 3.33325 5H13.3333C14.714 5 15.8333 6.11929 15.8333 7.5V12.5C15.8333 13.8807 14.714 15 13.3333 15H3.33325C1.95254 15 0.833252 13.8807 0.833252 12.5V7.5Z" fill="black"/>
<path fill-rule="evenodd" clip-rule="evenodd" d="M18.3333 8.33325C18.7936 8.33325 19.1667 8.70635 19.1667 9.16659V10.8333C19.1667 11.2935 18.7936 11.6666 18.3333 11.6666C17.8731 11.6666 17.5 11.2935 17.5 10.8333V9.16659C17.5 8.70635 17.8731 8.33325 18.3333 8.33325Z" fill="black"/>
<path fill-rule="evenodd" clip-rule="evenodd" d="M5.00008 8.33325C5.46032 8.33325 5.83341 8.70635 5.83341 9.16659V10.8333C5.83341 11.2935 5.46032 11.6666 5.00008 11.6666C4.53984 11.6666 4.16675 11.2935 4.16675 10.8333V9.16659C4.16675 8.70635 4.53984 8.33325 5.00008 8.33325Z" fill="black"/>
<path fill-rule="evenodd" clip-rule="evenodd" d="M8.33333 8.33325C8.79357 8.33325 9.16667 8.70635 9.16667 9.16659V10.8333C9.16667 11.2935 8.79357 11.6666 8.33333 11.6666C7.8731 11.6666 7.5 11.2935 7.5 10.8333V9.16659C7.5 8.70635 7.8731 8.33325 8.33333 8.33325Z" fill="black"/>
<path fill-rule="evenodd" clip-rule="evenodd" d="M11.6666 8.33325C12.1268 8.33325 12.4999 8.70635 12.4999 9.16659V10.8333C12.4999 11.2935 12.1268 11.6666 11.6666 11.6666C11.2063 11.6666 10.8333 11.2935 10.8333 10.8333V9.16659C10.8333 8.70635 11.2063 8.33325 11.6666 8.33325Z" fill="black"/>
</svg>
