<svg width="20" height="20" viewBox="0 0 20 20" fill="none" xmlns="http://www.w3.org/2000/svg">
<path fill-rule="evenodd" clip-rule="evenodd" d="M2.91675 2.50008C2.91675 2.03984 3.28984 1.66675 3.75008 1.66675H16.2501C16.7103 1.66675 17.0834 2.03984 17.0834 2.50008C17.0834 2.96032 16.7103 3.33341 16.2501 3.33341H3.75008C3.28984 3.33341 2.91675 2.96032 2.91675 2.50008Z" fill="black"/>
<path fill-rule="evenodd" clip-rule="evenodd" d="M5.00008 1.66675C5.46032 1.66675 5.83341 2.03984 5.83341 2.50008V15.8334C5.83341 16.0544 5.92121 16.2664 6.07749 16.4227C6.23377 16.5789 6.44573 16.6667 6.66675 16.6667H13.3334C13.5544 16.6667 13.7664 16.5789 13.9227 16.4227C14.079 16.2664 14.1667 16.0544 14.1667 15.8334V2.50008C14.1667 2.03984 14.5398 1.66675 15.0001 1.66675C15.4603 1.66675 15.8334 2.03984 15.8334 2.50008V15.8334C15.8334 16.4965 15.57 17.1323 15.1012 17.6012C14.6323 18.07 13.9965 18.3334 13.3334 18.3334H6.66675C6.00371 18.3334 5.36782 18.07 4.89898 17.6012C4.43014 17.1323 4.16675 16.4965 4.16675 15.8334V2.50008C4.16675 2.03984 4.53984 1.66675 5.00008 1.66675Z" fill="black"/>
<path fill-rule="evenodd" clip-rule="evenodd" d="M4.16675 11.6666C4.16675 11.2063 4.53984 10.8333 5.00008 10.8333H15.0001C15.4603 10.8333 15.8334 11.2063 15.8334 11.6666C15.8334 12.1268 15.4603 12.4999 15.0001 12.4999H5.00008C4.53984 12.4999 4.16675 12.1268 4.16675 11.6666Z" fill="black"/>
</svg>
