<svg width="20" height="20" viewBox="0 0 20 20" fill="none" xmlns="http://www.w3.org/2000/svg">
<g clip-path="url(#clip0_2001_4542)">
<path fill-rule="evenodd" clip-rule="evenodd" d="M9.99691 1.87802C11.1691 1.06065 12.6006 0.701998 14.0197 0.870109C15.4388 1.03822 16.7468 1.7214 17.6956 2.79002C18.6444 3.85865 19.1679 5.23837 19.1668 6.6674C19.1664 13.5705 13.5705 19.1664 6.6674 19.1668C5.23837 19.1679 3.85865 18.6444 2.79002 17.6956C1.7214 16.7468 1.03822 15.4388 0.870109 14.0197C0.701998 12.6006 1.06065 11.1691 1.87802 9.99691C2.69539 8.82472 3.91461 7.99334 5.30435 7.66051L5.49843 8.47093L5.30435 7.66051C6.00145 7.49356 6.54627 7.27541 6.91084 6.91084C7.2753 6.54638 7.49347 6.00094 7.66051 5.30435C7.66053 5.30427 7.66055 5.3042 7.66056 5.30413C7.99342 3.91448 8.82478 2.69535 9.99691 1.87802ZM13.8236 2.5252C12.8099 2.40512 11.7875 2.66131 10.9502 3.24514C10.1129 3.82898 9.51908 4.69985 9.28135 5.69251L9.28129 5.69273C9.09668 6.46269 8.79152 7.38718 8.08935 8.08935C7.38726 8.79145 6.46375 9.09663 5.69252 9.28134L5.69251 9.28135C4.69985 9.51908 3.82898 10.1129 3.24514 10.9502C2.66131 11.7875 2.40512 12.8099 2.5252 13.8236C2.64528 14.8372 3.13327 15.7716 3.89657 16.4492C4.65987 17.1269 5.64539 17.5009 6.66613 17.5001H6.66676C12.6499 17.5001 17.5001 12.6499 17.5001 6.66676V6.66613C17.5009 5.64539 17.1269 4.65987 16.4492 3.89657C15.7716 3.13327 14.8372 2.64528 13.8236 2.5252Z" fill="black"/>
<path fill-rule="evenodd" clip-rule="evenodd" d="M8.0883 4.11173C8.27512 3.69112 8.76754 3.50159 9.18816 3.6884C9.80621 3.96291 10.3482 4.38373 10.7672 4.91453C11.1862 5.44532 11.4698 6.07013 11.5934 6.73502C11.7169 7.3999 11.6768 8.08487 11.4765 8.73078C11.2761 9.37669 10.9215 9.96412 10.4434 10.4424C9.96525 10.9206 9.37788 11.2753 8.73201 11.4757C8.08614 11.6762 7.40118 11.7165 6.73627 11.593C6.07136 11.4696 5.44649 11.1862 4.91562 10.7672C4.38475 10.3483 3.96383 9.8064 3.6892 9.1884C3.5023 8.76782 3.69174 8.27537 4.11232 8.08847C4.5329 7.90157 5.02536 8.09101 5.21226 8.51159C5.37703 8.88239 5.62959 9.20751 5.94811 9.45887C6.26663 9.71024 6.64155 9.88029 7.0405 9.95436C7.43944 10.0284 7.85042 10.0043 8.23794 9.88399C8.62546 9.76371 8.97788 9.55091 9.26477 9.26396C9.55166 8.97702 9.7644 8.62456 9.88461 8.23701C10.0048 7.84947 10.0289 7.43848 9.95475 7.03956C9.88061 6.64063 9.71048 6.26574 9.45905 5.94726C9.20763 5.62879 8.88246 5.37629 8.51163 5.21159C8.09102 5.02477 7.90149 4.53235 8.0883 4.11173Z" fill="black"/>
</g>
<defs>
<clipPath id="clip0_2001_4542">
<rect width="20" height="20" fill="white"/>
</clipPath>
</defs>
</svg>
