<svg width="20" height="20" viewBox="0 0 20 20" fill="none" xmlns="http://www.w3.org/2000/svg">
<g clip-path="url(#clip0_2001_4537)">
<path fill-rule="evenodd" clip-rule="evenodd" d="M8.08935 6.91083C8.41479 7.23626 8.41479 7.7639 8.08935 8.08934C7.38726 8.79143 6.46375 9.09662 5.69252 9.28133L5.69251 9.28133C4.69985 9.51906 3.82898 10.1129 3.24514 10.9502C2.66131 11.7875 2.40512 12.8099 2.5252 13.8236C2.64528 14.8372 3.13327 15.7715 3.89657 16.4492C4.65987 17.1269 5.64539 17.5009 6.66612 17.5001L6.66781 17.5001C8.09044 17.5019 9.49941 17.2226 10.8138 16.6782C12.1281 16.1339 13.322 15.3353 14.3268 14.3282C14.6519 14.0024 15.1795 14.0018 15.5053 14.3268C15.8312 14.6519 15.8318 15.1795 15.5067 15.5053C14.3468 16.6678 12.9687 17.5897 11.4515 18.2181C9.93468 18.8463 8.30874 19.1686 6.667 19.1667C5.23811 19.1677 3.85855 18.6442 2.79002 17.6956C1.7214 16.7468 1.03822 15.4388 0.870109 14.0196C0.701998 12.6005 1.06065 11.1691 1.87802 9.9969C2.69539 8.8247 3.91461 7.99332 5.30433 7.6605C6.00144 7.49354 6.54627 7.2754 6.91084 6.91083C7.23628 6.58539 7.76391 6.58539 8.08935 6.91083Z" fill="black"/>
<path fill-rule="evenodd" clip-rule="evenodd" d="M16.5783 4.11021C15.4365 2.71091 13.4609 2.07396 11.6866 2.83732C10.8379 3.20244 10.1347 3.83924 9.68741 4.64763C9.4646 5.05034 8.95751 5.19617 8.55481 4.97336C8.1521 4.75055 8.00626 4.24347 8.22908 3.84076C8.85525 2.70902 9.83979 1.81749 11.0279 1.30633C13.5669 0.213993 16.3155 1.15192 17.8696 3.05651C19.3907 4.92068 19.3117 7.25559 18.9072 9.21053C18.6574 10.418 18.2335 11.5617 17.6634 12.6137C17.4441 13.0184 16.9383 13.1686 16.5337 12.9494C16.1291 12.7301 15.9788 12.2243 16.1981 11.8196C16.6919 10.9083 17.0589 9.91816 17.2751 8.87286C17.6497 7.0625 17.6111 5.37592 16.5783 4.11021Z" fill="black"/>
<path fill-rule="evenodd" clip-rule="evenodd" d="M8.08864 4.11226C8.27557 3.6917 8.76804 3.5023 9.1886 3.68923C10.1347 4.10971 10.891 4.86638 11.311 5.81264C11.4977 6.2333 11.3081 6.72568 10.8874 6.9124C10.4667 7.09912 9.97436 6.90948 9.78764 6.48882C9.53512 5.91994 9.08044 5.46503 8.51168 5.21223C8.09111 5.0253 7.90171 4.53283 8.08864 4.11226ZM4.1136 8.08791C4.53443 7.90158 5.02663 8.09169 5.21296 8.51252C5.37737 8.88386 5.62977 9.20955 5.94832 9.46144C6.26688 9.71332 6.642 9.88381 7.04124 9.95815C7.44048 10.0325 7.85183 10.0085 8.2397 9.88813C8.62757 9.7678 8.98028 9.55479 9.26734 9.26752C9.59265 8.94197 10.1203 8.94177 10.4458 9.26709C10.7714 9.59241 10.7716 10.12 10.4463 10.4456C9.96785 10.9244 9.38 11.2794 8.73355 11.48C8.0871 11.6805 7.40153 11.7206 6.73612 11.5967C6.07072 11.4727 5.44552 11.1886 4.91459 10.7688C4.38367 10.349 3.96301 9.80616 3.68899 9.18727C3.50266 8.76644 3.69277 8.27423 4.1136 8.08791Z" fill="black"/>
<path fill-rule="evenodd" clip-rule="evenodd" d="M1.07733 1.07733C1.40277 0.751893 1.9304 0.751893 2.25584 1.07733L18.9225 17.744C19.2479 18.0694 19.2479 18.5971 18.9225 18.9225C18.5971 19.2479 18.0694 19.2479 17.744 18.9225L1.07733 2.25584C0.751893 1.9304 0.751893 1.40277 1.07733 1.07733Z" fill="black"/>
</g>
<defs>
<clipPath id="clip0_2001_4537">
<rect width="20" height="20" fill="white"/>
</clipPath>
</defs>
</svg>
