<svg width="20" height="20" viewBox="0 0 20 20" fill="none" xmlns="http://www.w3.org/2000/svg">
<path fill-rule="evenodd" clip-rule="evenodd" d="M3.33325 9.16667C3.11224 9.16667 2.90028 9.25446 2.744 9.41074C2.58772 9.56703 2.49992 9.77899 2.49992 10V16.6667C2.49992 17.1269 2.12682 17.5 1.66659 17.5C1.20635 17.5 0.833252 17.1269 0.833252 16.6667V10C0.833252 9.33696 1.09664 8.70107 1.56549 8.23223C2.03433 7.76339 2.67021 7.5 3.33325 7.5H16.6666C17.3296 7.5 17.9655 7.76339 18.4344 8.23223C18.9032 8.70107 19.1666 9.33696 19.1666 10V16.6667C19.1666 17.1269 18.7935 17.5 18.3333 17.5C17.873 17.5 17.4999 17.1269 17.4999 16.6667V10C17.4999 9.77899 17.4121 9.56703 17.2558 9.41074C17.0996 9.25446 16.8876 9.16667 16.6666 9.16667H3.33325Z" fill="black"/>
<path fill-rule="evenodd" clip-rule="evenodd" d="M5 4.16667C4.77899 4.16667 4.56702 4.25446 4.41074 4.41074C4.25446 4.56702 4.16667 4.77899 4.16667 5V8.33333C4.16667 8.79357 3.79357 9.16667 3.33333 9.16667C2.8731 9.16667 2.5 8.79357 2.5 8.33333V5C2.5 4.33696 2.76339 3.70107 3.23223 3.23223C3.70107 2.76339 4.33696 2.5 5 2.5H15C15.663 2.5 16.2989 2.76339 16.7678 3.23223C17.2366 3.70107 17.5 4.33696 17.5 5V8.33333C17.5 8.79357 17.1269 9.16667 16.6667 9.16667C16.2064 9.16667 15.8333 8.79357 15.8333 8.33333V5C15.8333 4.77899 15.7455 4.56702 15.5893 4.41074C15.433 4.25446 15.221 4.16667 15 4.16667H5Z" fill="black"/>
<path fill-rule="evenodd" clip-rule="evenodd" d="M10.0001 2.5C10.4603 2.5 10.8334 2.8731 10.8334 3.33333V8.33333C10.8334 8.79357 10.4603 9.16667 10.0001 9.16667C9.53984 9.16667 9.16675 8.79357 9.16675 8.33333V3.33333C9.16675 2.8731 9.53984 2.5 10.0001 2.5Z" fill="black"/>
<path fill-rule="evenodd" clip-rule="evenodd" d="M0.833252 15.0001C0.833252 14.5398 1.20635 14.1667 1.66659 14.1667H18.3333C18.7935 14.1667 19.1666 14.5398 19.1666 15.0001C19.1666 15.4603 18.7935 15.8334 18.3333 15.8334H1.66659C1.20635 15.8334 0.833252 15.4603 0.833252 15.0001Z" fill="black"/>
</svg>
