<svg width="20" height="20" viewBox="0 0 20 20" fill="none" xmlns="http://www.w3.org/2000/svg">
<path fill-rule="evenodd" clip-rule="evenodd" d="M4.16675 9.16667C3.94573 9.16667 3.73377 9.25446 3.57749 9.41074C3.42121 9.56703 3.33341 9.77899 3.33341 10V16.6667C3.33341 17.1269 2.96032 17.5 2.50008 17.5C2.03984 17.5 1.66675 17.1269 1.66675 16.6667V10C1.66675 9.33696 1.93014 8.70107 2.39898 8.23223C2.86782 7.76339 3.50371 7.5 4.16675 7.5H15.8334C16.4965 7.5 17.1323 7.76339 17.6012 8.23223C18.07 8.70107 18.3334 9.33696 18.3334 10V16.6667C18.3334 17.1269 17.9603 17.5 17.5001 17.5C17.0398 17.5 16.6667 17.1269 16.6667 16.6667V10C16.6667 9.77899 16.5789 9.56703 16.4227 9.41074C16.2664 9.25446 16.0544 9.16667 15.8334 9.16667H4.16675Z" fill="black"/>
<path fill-rule="evenodd" clip-rule="evenodd" d="M5.83325 4.16667C5.61224 4.16667 5.40028 4.25446 5.244 4.41074C5.08772 4.56702 4.99992 4.77899 4.99992 5V8.33333C4.99992 8.79357 4.62682 9.16667 4.16659 9.16667C3.70635 9.16667 3.33325 8.79357 3.33325 8.33333V5C3.33325 4.33696 3.59664 3.70107 4.06548 3.23223C4.53433 2.76339 5.17021 2.5 5.83325 2.5H14.1666C14.8296 2.5 15.4655 2.76339 15.9344 3.23223C16.4032 3.70107 16.6666 4.33696 16.6666 5V8.33333C16.6666 8.79357 16.2935 9.16667 15.8333 9.16667C15.373 9.16667 14.9999 8.79357 14.9999 8.33333V5C14.9999 4.77899 14.9121 4.56702 14.7558 4.41074C14.5996 4.25446 14.3876 4.16667 14.1666 4.16667H5.83325Z" fill="black"/>
<path fill-rule="evenodd" clip-rule="evenodd" d="M1.66675 15.0001C1.66675 14.5398 2.03984 14.1667 2.50008 14.1667H17.5001C17.9603 14.1667 18.3334 14.5398 18.3334 15.0001C18.3334 15.4603 17.9603 15.8334 17.5001 15.8334H2.50008C2.03984 15.8334 1.66675 15.4603 1.66675 15.0001Z" fill="black"/>
</svg>
