<svg width="20" height="20" viewBox="0 0 20 20" fill="none" xmlns="http://www.w3.org/2000/svg">
<path fill-rule="evenodd" clip-rule="evenodd" d="M1.66659 2.5C2.12682 2.5 2.49992 2.8731 2.49992 3.33333V16.6667C2.49992 17.1269 2.12682 17.5 1.66659 17.5C1.20635 17.5 0.833252 17.1269 0.833252 16.6667V3.33333C0.833252 2.8731 1.20635 2.5 1.66659 2.5Z" fill="black"/>
<path fill-rule="evenodd" clip-rule="evenodd" d="M0.833252 6.66659C0.833252 6.20635 1.20635 5.83325 1.66659 5.83325H16.6666C17.3296 5.83325 17.9655 6.09664 18.4344 6.56549C18.9032 7.03433 19.1666 7.67021 19.1666 8.33325V16.6666C19.1666 17.1268 18.7935 17.4999 18.3333 17.4999C17.873 17.4999 17.4999 17.1268 17.4999 16.6666V8.33325C17.4999 8.11224 17.4121 7.90028 17.2558 7.744C17.0996 7.58772 16.8876 7.49992 16.6666 7.49992H1.66659C1.20635 7.49992 0.833252 7.12682 0.833252 6.66659Z" fill="black"/>
<path fill-rule="evenodd" clip-rule="evenodd" d="M0.833252 14.1666C0.833252 13.7063 1.20635 13.3333 1.66659 13.3333H18.3333C18.7935 13.3333 19.1666 13.7063 19.1666 14.1666C19.1666 14.6268 18.7935 14.9999 18.3333 14.9999H1.66659C1.20635 14.9999 0.833252 14.6268 0.833252 14.1666Z" fill="black"/>
<path fill-rule="evenodd" clip-rule="evenodd" d="M5.00008 5.83325C5.46032 5.83325 5.83341 6.20635 5.83341 6.66659V14.1666C5.83341 14.6268 5.46032 14.9999 5.00008 14.9999C4.53984 14.9999 4.16675 14.6268 4.16675 14.1666V6.66659C4.16675 6.20635 4.53984 5.83325 5.00008 5.83325Z" fill="black"/>
</svg>
