<svg width="20" height="20" viewBox="0 0 20 20" fill="none" xmlns="http://www.w3.org/2000/svg">
<path fill-rule="evenodd" clip-rule="evenodd" d="M10.4167 5.83341C9.72631 5.83341 9.16667 6.39306 9.16667 7.08341C9.16667 7.77377 9.72631 8.33342 10.4167 8.33342C11.107 8.33342 11.6667 7.77377 11.6667 7.08341C11.6667 6.39306 11.107 5.83341 10.4167 5.83341ZM7.5 7.08341C7.5 5.47258 8.80584 4.16675 10.4167 4.16675C12.0275 4.16675 13.3333 5.47258 13.3333 7.08341C13.3333 8.69425 12.0275 10.0001 10.4167 10.0001C8.80584 10.0001 7.5 8.69425 7.5 7.08341Z" fill="black"/>
<path fill-rule="evenodd" clip-rule="evenodd" d="M10.4171 0.833253C11.7287 0.833358 13.007 1.24608 14.0711 2.01299C15.1352 2.77999 15.9311 3.86238 16.3459 5.10683C16.7607 6.35128 16.7735 7.6947 16.3823 8.9468C15.9934 10.192 15.2246 11.284 14.184 12.0702C11.5544 14.2549 7.71185 15.8333 4.16663 15.8333L4.16607 15.8333C3.47895 15.8328 2.80876 15.62 2.24723 15.224C1.68569 14.828 1.26026 14.2681 1.02915 13.621C0.79805 12.9739 0.772568 12.2712 0.956196 11.6091C1.13778 10.9543 1.51508 10.3709 2.0373 9.93672C2.96782 9.08942 3.31 8.57323 3.54555 8.00906C3.67452 7.70014 3.77776 7.36135 3.91488 6.89938C3.92143 6.87732 3.92804 6.85504 3.93471 6.83253C4.0643 6.39563 4.21913 5.87365 4.44155 5.23942C4.83481 3.96573 5.62506 2.85097 6.69708 2.05816C7.7737 1.26194 9.07758 0.832558 10.4166 0.833253M10.4161 2.49992C9.43403 2.49933 8.47772 2.81422 7.68809 3.39818C6.89847 3.98215 6.31731 4.8043 6.03023 5.74351C6.02688 5.75448 6.0233 5.76539 6.01949 5.77622C5.80807 6.37779 5.66194 6.87041 5.53112 7.31139C5.52493 7.33225 5.51877 7.353 5.51265 7.37364C5.37946 7.82234 5.25248 8.24657 5.08354 8.6512C4.72446 9.51123 4.20227 10.2218 3.1436 11.1834C3.13318 11.1929 3.12252 11.2021 3.11163 11.211C2.84594 11.4288 2.65406 11.7235 2.56225 12.0545C2.47043 12.3856 2.48317 12.7369 2.59872 13.0605C2.71428 13.384 2.92699 13.664 3.20776 13.862C3.48853 14.06 3.82362 14.1664 4.16718 14.1666C7.28125 14.1664 10.7634 12.7512 13.1331 10.7764C13.1441 10.7673 13.1552 10.7585 13.1666 10.7499C13.9362 10.1727 14.5047 9.36806 14.7915 8.44985C15.0783 7.53165 15.069 6.54647 14.7648 5.63388C14.4606 4.72128 13.8769 3.92753 13.0966 3.36506C12.3162 2.80259 11.3786 2.49992 10.4166 2.49992L10.4161 2.49992Z" fill="black"/>
<path fill-rule="evenodd" clip-rule="evenodd" d="M15.052 4.25072C15.4659 4.04932 15.9646 4.22153 16.166 4.63536L17.991 8.38536C18.0083 8.42093 18.0231 8.45768 18.0351 8.49535C18.2346 9.11661 18.3352 9.76532 18.3334 10.4178C18.3338 11.3878 18.1082 12.3446 17.6744 13.2122C17.2436 14.0738 16.6193 14.8238 15.8505 15.4038C13.2208 17.5885 9.37847 19.1667 5.83335 19.1667L5.83221 19.1667C5.2136 19.1658 4.60743 18.9929 4.08153 18.6671C3.55577 18.3415 3.13098 17.876 2.85466 17.3227C2.85465 17.3227 2.85463 17.3226 2.85462 17.3226C2.85456 17.3225 2.8545 17.3224 2.85444 17.3222L1.25466 14.1227C1.04884 13.7111 1.21569 13.2105 1.62734 13.0047C2.03899 12.7988 2.53955 12.9657 2.74538 13.3773L4.3456 16.5778C4.48376 16.8545 4.6962 17.0874 4.95915 17.2502C5.22191 17.413 5.52476 17.4995 5.83384 17.5C8.94792 17.4999 12.4301 16.0847 14.7999 14.1098C14.811 14.1006 14.8223 14.0916 14.8339 14.083C15.4033 13.6566 15.8655 13.1032 16.1837 12.4669C16.5019 11.8305 16.6672 11.1288 16.6667 10.4173C16.6667 10.4163 16.6667 10.4152 16.6667 10.4142C16.6681 9.95479 16.6002 9.49793 16.4653 9.05902L14.6674 5.36469C14.466 4.95086 14.6382 4.45212 15.052 4.25072Z" fill="black"/>
</svg>
