<svg width="20" height="20" viewBox="0 0 20 20" fill="none" xmlns="http://www.w3.org/2000/svg">
<g clip-path="url(#clip0_2001_4563)">
<path fill-rule="evenodd" clip-rule="evenodd" d="M10.8333 10C11.2936 10 11.6667 10.3731 11.6667 10.8333V15C11.6667 15.4602 11.2936 15.8333 10.8333 15.8333C10.3731 15.8333 10 15.4602 10 15V10.8333C10 10.3731 10.3731 10 10.8333 10Z" fill="black"/>
<path fill-rule="evenodd" clip-rule="evenodd" d="M14.1666 5.83325C14.6268 5.83325 14.9999 6.20635 14.9999 6.66659V9.55825C14.9999 10.0185 14.6268 10.3916 14.1666 10.3916C13.7063 10.3916 13.3333 10.0185 13.3333 9.55825V6.66659C13.3333 6.20635 13.7063 5.83325 14.1666 5.83325Z" fill="black"/>
<path fill-rule="evenodd" clip-rule="evenodd" d="M13.3333 9.16659C13.3333 8.70635 13.7063 8.33325 14.1666 8.33325H14.9998C14.9999 8.33325 14.9999 8.33325 14.9999 8.33325C15.5545 8.33321 16.1004 8.47156 16.588 8.73575C17.0757 8.99995 17.4897 9.38167 17.7926 9.8463C18.0955 10.3109 18.2776 10.8438 18.3225 11.3966C18.3675 11.9494 18.2737 12.5047 18.0498 13.0121C17.8641 13.4332 17.3721 13.624 16.951 13.4382C16.53 13.2524 16.3392 12.7604 16.525 12.3394C16.6369 12.0856 16.6838 11.808 16.6613 11.5316C16.6389 11.2552 16.5478 10.9888 16.3964 10.7564C16.2449 10.5241 16.0379 10.3333 15.7941 10.2012C15.5503 10.0691 15.2773 9.99989 15 9.99992H14.1666C13.7063 9.99992 13.3333 9.62682 13.3333 9.16659Z" fill="black"/>
<path fill-rule="evenodd" clip-rule="evenodd" d="M1.07733 1.07733C1.40277 0.751893 1.9304 0.751893 2.25584 1.07733L18.9225 17.744C19.2479 18.0694 19.2479 18.5971 18.9225 18.9225C18.5971 19.2479 18.0694 19.2479 17.744 18.9225L1.07733 2.25584C0.751893 1.9304 0.751893 1.40277 1.07733 1.07733Z" fill="black"/>
<path fill-rule="evenodd" clip-rule="evenodd" d="M4.16659 5.83325C4.62682 5.83325 4.99992 6.20635 4.99992 6.66659V16.6666C4.99992 16.8876 5.08772 17.0996 5.244 17.2558C5.40028 17.4121 5.61224 17.4999 5.83325 17.4999H12.4999C12.7209 17.4999 12.9329 17.4121 13.0892 17.2558C13.2455 17.0996 13.3333 16.8876 13.3333 16.6666V14.1666C13.3333 13.7063 13.7063 13.3333 14.1666 13.3333C14.6268 13.3333 14.9999 13.7063 14.9999 14.1666V16.6666C14.9999 17.3296 14.7365 17.9655 14.2677 18.4344C13.7988 18.9032 13.163 19.1666 12.4999 19.1666H5.83325C5.17021 19.1666 4.53433 18.9032 4.06549 18.4344C3.59664 17.9655 3.33325 17.3296 3.33325 16.6666V6.66659C3.33325 6.20635 3.70635 5.83325 4.16659 5.83325Z" fill="black"/>
<path fill-rule="evenodd" clip-rule="evenodd" d="M3.69932 2.52077C4.02471 2.84625 4.02464 3.37388 3.69916 3.69928C3.5243 3.87409 3.40521 4.09684 3.35696 4.33935C3.30871 4.58186 3.33346 4.83323 3.42809 5.06166C3.52272 5.2901 3.68297 5.48534 3.88858 5.62269C4.09418 5.76004 4.3359 5.83332 4.58316 5.83328L4.58332 6.66627V5.83328C4.71717 5.83328 4.87302 5.79746 5.14999 5.71211C5.1795 5.70301 5.2106 5.69328 5.24316 5.68309C5.48452 5.60755 5.80638 5.50681 6.15794 5.45476C6.61321 5.38736 7.03693 5.70179 7.10433 6.15706C7.17173 6.61234 6.8573 7.03605 6.40203 7.10346C6.18764 7.1352 5.99477 7.19507 5.74349 7.27307C5.71034 7.28336 5.67618 7.29397 5.64081 7.30486C5.36615 7.3895 4.99456 7.49992 4.58347 7.49994M4.58332 7.49994C4.00643 7.50002 3.44247 7.32902 2.96277 7.00857C2.48303 6.68809 2.10911 6.23253 1.88831 5.69951C1.66751 5.16649 1.60975 4.57996 1.72233 4.01411C1.83492 3.44827 2.11279 2.92852 2.5208 2.52061C2.84628 2.19522 3.37392 2.19529 3.69932 2.52077" fill="black"/>
<path fill-rule="evenodd" clip-rule="evenodd" d="M8.13598 3.03406C8.03129 3.12576 7.90277 3.23833 7.77461 3.33507C7.40726 3.61232 6.8847 3.53929 6.60744 3.17194C6.33018 2.80459 6.40322 2.28203 6.77057 2.00477C6.84625 1.94765 6.92159 1.88181 7.02763 1.78916C7.04853 1.77089 7.07062 1.75159 7.09414 1.7311C7.22497 1.61716 7.38905 1.477 7.57839 1.34614C7.97275 1.0736 8.48819 0.833252 9.16676 0.833252C10.1311 0.833252 10.7446 1.31915 11.1395 1.66353C11.1977 1.71433 11.2476 1.75856 11.2917 1.79762C11.4133 1.90542 11.4905 1.9739 11.5768 2.03275C11.6305 2.06934 11.6582 2.08038 11.6684 2.08325C11.9472 2.08298 12.1996 2.01503 12.53 1.91241C12.5546 1.90479 12.5802 1.89673 12.6068 1.88835C12.8988 1.79641 13.3112 1.66659 13.7501 1.66659C14.5236 1.66659 15.2655 1.97388 15.8125 2.52086C16.3595 3.06784 16.6668 3.8097 16.6668 4.58325C16.6668 5.3568 16.3595 6.09867 15.8125 6.64565C15.2655 7.19263 14.5236 7.49992 13.7501 7.49992C13.3112 7.49992 12.8988 7.37009 12.6068 7.27815C12.5802 7.26977 12.5546 7.26171 12.53 7.25409C12.1999 7.15157 11.9477 7.08366 11.6693 7.08325C11.5082 7.08447 11.348 7.10742 11.193 7.15148C10.7503 7.27735 10.2894 7.02052 10.1635 6.57783C10.0377 6.13514 10.2945 5.67423 10.7372 5.54836C11.038 5.46283 11.349 5.41851 11.6617 5.4166C11.6634 5.41659 11.6651 5.41658 11.6668 5.41658C12.2207 5.41658 12.6846 5.55691 13.0243 5.66241C13.4013 5.77948 13.579 5.83325 13.7501 5.83325C14.0816 5.83325 14.3996 5.70156 14.634 5.46714C14.8684 5.23272 15.0001 4.91477 15.0001 4.58325C15.0001 4.25173 14.8684 3.93379 14.634 3.69937C14.3996 3.46495 14.0816 3.33325 13.7501 3.33325C13.579 3.33325 13.4013 3.38702 13.0243 3.50409C12.6846 3.6096 12.2207 3.74992 11.6668 3.74992C11.2324 3.74992 10.8902 3.58182 10.6379 3.4098C10.4546 3.2848 10.2698 3.12023 10.1322 2.99765C10.1 2.969 10.0704 2.94265 10.044 2.91964C9.72226 2.63902 9.50237 2.49992 9.16676 2.49992C8.91615 2.49992 8.72576 2.57915 8.52595 2.71724C8.41821 2.7917 8.31312 2.87961 8.18874 2.98793C8.17198 3.00253 8.15435 3.01798 8.13598 3.03406ZM11.6731 2.08407C11.6732 2.08425 11.6718 2.08418 11.6686 2.0833C11.6714 2.08344 11.673 2.08388 11.6731 2.08407Z" fill="black"/>
<path fill-rule="evenodd" clip-rule="evenodd" d="M7.50008 11.3333C7.96032 11.3333 8.33341 11.7063 8.33341 12.1666V14.9999C8.33341 15.4602 7.96032 15.8333 7.50008 15.8333C7.03984 15.8333 6.66675 15.4602 6.66675 14.9999V12.1666C6.66675 11.7063 7.03984 11.3333 7.50008 11.3333Z" fill="black"/>
</g>
<defs>
<clipPath id="clip0_2001_4563">
<rect width="20" height="20" fill="white"/>
</clipPath>
</defs>
</svg>
