<svg width="20" height="20" viewBox="0 0 20 20" fill="none" xmlns="http://www.w3.org/2000/svg">
<path fill-rule="evenodd" clip-rule="evenodd" d="M13.3333 9.16659C13.3333 8.70635 13.7063 8.33325 14.1666 8.33325H14.9999C15.884 8.33325 16.7318 8.68444 17.3569 9.30956C17.9821 9.93468 18.3333 10.7825 18.3333 11.6666C18.3333 12.5506 17.9821 13.3985 17.3569 14.0236C16.7318 14.6487 15.884 14.9999 14.9999 14.9999H14.1666C13.7063 14.9999 13.3333 14.6268 13.3333 14.1666C13.3333 13.7063 13.7063 13.3333 14.1666 13.3333H14.9999C15.4419 13.3333 15.8659 13.1577 16.1784 12.8451C16.491 12.5325 16.6666 12.1086 16.6666 11.6666C16.6666 11.2246 16.491 10.8006 16.1784 10.4881C15.8659 10.1755 15.4419 9.99992 14.9999 9.99992H14.1666C13.7063 9.99992 13.3333 9.62682 13.3333 9.16659Z" fill="black"/>
<path fill-rule="evenodd" clip-rule="evenodd" d="M7.50008 9.16675C7.96032 9.16675 8.33341 9.53984 8.33341 10.0001V15.0001C8.33341 15.4603 7.96032 15.8334 7.50008 15.8334C7.03984 15.8334 6.66675 15.4603 6.66675 15.0001V10.0001C6.66675 9.53984 7.03984 9.16675 7.50008 9.16675Z" fill="black"/>
<path fill-rule="evenodd" clip-rule="evenodd" d="M10.8333 9.16675C11.2936 9.16675 11.6667 9.53984 11.6667 10.0001V15.0001C11.6667 15.4603 11.2936 15.8334 10.8333 15.8334C10.3731 15.8334 10 15.4603 10 15.0001V10.0001C10 9.53984 10.3731 9.16675 10.8333 9.16675Z" fill="black"/>
<path fill-rule="evenodd" clip-rule="evenodd" d="M7.6761 3.40626C7.43762 3.57149 7.09901 3.74992 6.66675 3.74992C6.14002 3.74992 5.67178 3.60767 5.33586 3.50557C4.95503 3.38981 4.75841 3.33325 4.58341 3.33325C4.25189 3.33325 3.93395 3.46495 3.69953 3.69937C3.46511 3.93379 3.33341 4.25173 3.33341 4.58325C3.33341 4.91477 3.46511 5.23271 3.69953 5.46714C3.93395 5.70156 4.25189 5.83325 4.58341 5.83325C4.75454 5.83325 4.93221 5.77948 5.30918 5.66241C5.64891 5.55691 6.11285 5.41658 6.66675 5.41658C7.16541 5.41658 7.55795 5.53389 7.86391 5.62532C7.90206 5.63673 7.93887 5.64772 7.97437 5.65804C8.2885 5.74936 8.62255 5.83325 9.16675 5.83325C9.71094 5.83325 10.045 5.74936 10.3591 5.65804C10.3946 5.64772 10.4314 5.63673 10.4696 5.62532C10.7755 5.53389 11.1681 5.41658 11.6667 5.41658C12.2207 5.41658 12.6846 5.55691 13.0243 5.66241C13.4013 5.77948 13.579 5.83325 13.7501 5.83325C14.0816 5.83325 14.3995 5.70156 14.634 5.46714C14.8684 5.23271 15.0001 4.91477 15.0001 4.58325C15.0001 4.25173 14.8684 3.93379 14.634 3.69937C14.3995 3.46495 14.0816 3.33325 13.7501 3.33325C13.579 3.33325 13.4013 3.38702 13.0243 3.50409C12.6846 3.6096 12.2207 3.74992 11.6667 3.74992C11.2324 3.74992 10.8902 3.58182 10.6379 3.4098C10.4546 3.2848 10.2698 3.12023 10.1322 2.99765C10.1 2.969 10.0704 2.94265 10.044 2.91964C9.72225 2.63902 9.50236 2.49992 9.16675 2.49992C8.82538 2.49992 8.58887 2.64509 8.26131 2.92506C8.23125 2.95075 8.1969 2.98085 8.15936 3.01376C8.02322 3.13305 7.84497 3.28927 7.6761 3.40626ZM7.17844 1.65811C7.58212 1.31308 8.20812 0.833252 9.16675 0.833252C10.1311 0.833252 10.7446 1.31915 11.1395 1.66353C11.1977 1.71433 11.2476 1.75855 11.2917 1.79761C11.4133 1.90542 11.4905 1.9739 11.5768 2.03275C11.6239 2.06482 11.6509 2.077 11.6627 2.08138C11.6654 2.08238 11.6673 2.08295 11.6683 2.08325C11.9471 2.08299 12.1995 2.01504 12.53 1.91241C12.5546 1.90479 12.5802 1.89673 12.6068 1.88835C12.8988 1.79641 13.3112 1.66659 13.7501 1.66659C14.5236 1.66659 15.2655 1.97388 15.8125 2.52086C16.3595 3.06784 16.6667 3.8097 16.6667 4.58325C16.6667 5.3568 16.3595 6.09867 15.8125 6.64565C15.2655 7.19263 14.5236 7.49992 13.7501 7.49992C13.3112 7.49992 12.8988 7.37009 12.6068 7.27815C12.5802 7.26977 12.5546 7.26171 12.53 7.25409C12.1989 7.15126 11.9462 7.08325 11.6667 7.08325C11.4221 7.08325 11.2573 7.13158 10.9392 7.22488C10.903 7.23549 10.8649 7.24669 10.8244 7.25846C10.4218 7.37548 9.92255 7.49992 9.16675 7.49992C8.41094 7.49992 7.91167 7.37548 7.50913 7.25846C7.46864 7.24669 7.43047 7.23549 7.39428 7.22488C7.07618 7.13158 6.91141 7.08325 6.66675 7.08325C6.38732 7.08325 6.13459 7.15126 5.80349 7.25409C5.77895 7.26171 5.75334 7.26977 5.72673 7.27815C5.43469 7.37009 5.0223 7.49992 4.58341 7.49992C3.80987 7.49992 3.068 7.19263 2.52102 6.64565C1.97404 6.09867 1.66675 5.3568 1.66675 4.58325C1.66675 3.8097 1.97404 3.06784 2.52102 2.52086C3.068 1.97388 3.80987 1.66659 4.58341 1.66659C5.02406 1.66659 5.44967 1.79719 5.7521 1.88999C5.77568 1.89723 5.79852 1.90424 5.82055 1.91094C6.1616 2.0146 6.40641 2.08003 6.64875 2.08314C6.66089 2.07769 6.68592 2.06469 6.72693 2.03628C6.81155 1.97765 6.88632 1.91224 6.99873 1.8139C7.0495 1.76949 7.10794 1.71836 7.17844 1.65811ZM6.63979 2.08663C6.63981 2.08659 6.64053 2.08633 6.6419 2.08597C6.64046 2.08649 6.63978 2.08667 6.63979 2.08663Z" fill="black"/>
<path fill-rule="evenodd" clip-rule="evenodd" d="M4.16659 5.83325C4.62682 5.83325 4.99992 6.20635 4.99992 6.66659V16.6666C4.99992 16.8876 5.08772 17.0996 5.244 17.2558C5.40028 17.4121 5.61224 17.4999 5.83325 17.4999H12.4999C12.7209 17.4999 12.9329 17.4121 13.0892 17.2558C13.2455 17.0996 13.3333 16.8876 13.3333 16.6666V6.66659C13.3333 6.20635 13.7063 5.83325 14.1666 5.83325C14.6268 5.83325 14.9999 6.20635 14.9999 6.66659V16.6666C14.9999 17.3296 14.7365 17.9655 14.2677 18.4344C13.7988 18.9032 13.163 19.1666 12.4999 19.1666H5.83325C5.17021 19.1666 4.53433 18.9032 4.06549 18.4344C3.59664 17.9655 3.33325 17.3296 3.33325 16.6666V6.66659C3.33325 6.20635 3.70635 5.83325 4.16659 5.83325Z" fill="black"/>
</svg>
