<svg width="20" height="20" viewBox="0 0 20 20" fill="none" xmlns="http://www.w3.org/2000/svg">
<path fill-rule="evenodd" clip-rule="evenodd" d="M9.9999 2.49992C7.71014 2.49992 5.83324 4.37682 5.83324 6.66659C5.83324 9.70604 5.18079 11.7211 4.48148 13.0031C4.41807 13.1194 4.35441 13.2294 4.29101 13.3333H15.6877C15.5704 13.1443 15.4527 12.9356 15.3379 12.7059C15.1321 12.2943 15.2989 11.7937 15.7106 11.5879C16.1222 11.3821 16.6228 11.5489 16.8286 11.9606C17.1242 12.5517 17.4316 12.9453 17.6522 13.1829C17.7628 13.3019 17.852 13.3824 17.9078 13.4291C17.9357 13.4525 17.9552 13.4675 17.9648 13.4746C17.9671 13.4764 17.9688 13.4777 17.97 13.4785C17.9702 13.4786 17.9703 13.4787 17.9705 13.4788C18.2702 13.6838 18.4029 14.0598 18.2975 14.4081C18.1911 14.7595 17.8671 14.9999 17.4999 14.9999H2.4999C2.13268 14.9999 1.80874 14.7595 1.70233 14.4081C1.59704 14.0603 1.72924 13.685 2.02798 13.4798C2.02857 13.4793 2.02936 13.4787 2.03036 13.478C2.03677 13.4732 2.05165 13.4619 2.07384 13.4434C2.11818 13.4064 2.19184 13.3408 2.28557 13.2419C2.47259 13.0445 2.74183 12.712 3.01832 12.205C3.56901 11.1954 4.16657 9.46047 4.16657 6.66659C4.16657 3.45635 6.78966 0.833252 9.9999 0.833252C10.9572 0.833252 11.8496 1.02792 12.7379 1.52145C13.1403 1.74497 13.2852 2.2523 13.0617 2.65462C12.8382 3.05694 12.3309 3.20189 11.9285 2.97838C11.3169 2.63858 10.7093 2.49992 9.9999 2.49992ZM17.9642 13.4746L17.9643 13.4746L17.9642 13.4746Z" fill="black"/>
<path fill-rule="evenodd" clip-rule="evenodd" d="M8.18176 16.7698C8.58506 16.548 9.09175 16.6952 9.31348 17.0985C9.38107 17.2214 9.48043 17.324 9.60117 17.3954C9.72192 17.4668 9.85963 17.5044 9.99991 17.5044C10.1402 17.5044 10.2779 17.4668 10.3986 17.3954C10.5194 17.324 10.6188 17.2214 10.6863 17.0985C10.9081 16.6952 11.4148 16.548 11.8181 16.7698C12.2214 16.9915 12.3686 17.4982 12.1468 17.9015C11.9354 18.286 11.6247 18.6066 11.247 18.8299C10.8694 19.0533 10.4387 19.1711 9.99991 19.1711C9.56116 19.1711 9.13045 19.0533 8.7528 18.8299C8.37514 18.6066 8.06439 18.286 7.853 17.9015C7.63127 17.4982 7.77845 16.9915 8.18176 16.7698Z" fill="black"/>
<path fill-rule="evenodd" clip-rule="evenodd" d="M11.6667 6.66659C11.6667 6.20635 12.0398 5.83325 12.5001 5.83325H17.5001C17.9603 5.83325 18.3334 6.20635 18.3334 6.66659C18.3334 7.12682 17.9603 7.49992 17.5001 7.49992H12.5001C12.0398 7.49992 11.6667 7.12682 11.6667 6.66659Z" fill="black"/>
<path fill-rule="evenodd" clip-rule="evenodd" d="M15.0001 3.33325C15.4603 3.33325 15.8334 3.70635 15.8334 4.16659V9.16658C15.8334 9.62682 15.4603 9.99992 15.0001 9.99992C14.5398 9.99992 14.1667 9.62682 14.1667 9.16658V4.16659C14.1667 3.70635 14.5398 3.33325 15.0001 3.33325Z" fill="black"/>
</svg>
