<svg width="20" height="20" viewBox="0 0 20 20" fill="none" xmlns="http://www.w3.org/2000/svg">
<path fill-rule="evenodd" clip-rule="evenodd" d="M9.9999 2.49992C7.71014 2.49992 5.83324 4.37682 5.83324 6.66659C5.83324 9.70604 5.18079 11.7211 4.48148 13.0031C4.41807 13.1194 4.35441 13.2294 4.29101 13.3333H15.7113C15.2657 12.6005 14.8127 11.5727 14.5178 10.1716C14.423 9.72123 14.7112 9.27927 15.1616 9.18446C15.6119 9.08965 16.0539 9.37788 16.1487 9.82824C16.459 11.3023 16.9554 12.2378 17.3462 12.7885C17.5424 13.065 17.7148 13.2483 17.8285 13.3562C17.8855 13.4102 17.928 13.4455 17.9517 13.4643C17.9624 13.4728 17.9693 13.4779 17.9719 13.4798C18.2706 13.685 18.4028 14.0604 18.2975 14.4081C18.1911 14.7595 17.8671 14.9999 17.4999 14.9999H2.4999C2.13268 14.9999 1.80874 14.7595 1.70233 14.4081C1.59704 14.0603 1.72924 13.685 2.02798 13.4798C2.02857 13.4793 2.02936 13.4787 2.03036 13.478C2.03677 13.4732 2.05165 13.4619 2.07384 13.4434C2.11818 13.4064 2.19184 13.3408 2.28557 13.2419C2.47259 13.0445 2.74183 12.712 3.01832 12.205C3.56901 11.1954 4.16657 9.46047 4.16657 6.66659C4.16657 3.45635 6.78967 0.833252 9.9999 0.833252C11.7524 0.833252 13.303 1.61244 14.3642 2.77015C14.6752 3.10941 14.6523 3.63655 14.313 3.94755C13.9737 4.25854 13.4466 4.23562 13.1356 3.89636C12.3635 3.05406 11.2474 2.49992 9.9999 2.49992ZM17.9638 13.4743L17.9638 13.4743L17.9638 13.4743Z" fill="black"/>
<path fill-rule="evenodd" clip-rule="evenodd" d="M8.18176 16.7698C8.58506 16.548 9.09175 16.6952 9.31348 17.0985C9.38107 17.2214 9.48043 17.324 9.60117 17.3954C9.72192 17.4668 9.85963 17.5044 9.99991 17.5044C10.1402 17.5044 10.2779 17.4668 10.3986 17.3954C10.5194 17.324 10.6188 17.2214 10.6863 17.0985C10.9081 16.6952 11.4148 16.548 11.8181 16.7698C12.2214 16.9915 12.3686 17.4982 12.1468 17.9015C11.9354 18.286 11.6247 18.6066 11.247 18.8299C10.8694 19.0533 10.4387 19.1711 9.99991 19.1711C9.56116 19.1711 9.13045 19.0533 8.7528 18.8299C8.37514 18.6066 8.06439 18.286 7.853 17.9015C7.63127 17.4982 7.77845 16.9915 8.18176 16.7698Z" fill="black"/>
<path fill-rule="evenodd" clip-rule="evenodd" d="M11.6667 6.66659C11.6667 6.20635 12.0398 5.83325 12.5001 5.83325H17.5001C17.9603 5.83325 18.3334 6.20635 18.3334 6.66659C18.3334 7.12682 17.9603 7.49992 17.5001 7.49992H12.5001C12.0398 7.49992 11.6667 7.12682 11.6667 6.66659Z" fill="black"/>
</svg>
