<svg width="20" height="20" viewBox="0 0 20 20" fill="none" xmlns="http://www.w3.org/2000/svg">
<g clip-path="url(#clip0_2001_4593)">
<path fill-rule="evenodd" clip-rule="evenodd" d="M11.973 3.00597C11.3111 2.65009 10.5652 2.47987 9.81445 2.51333C9.06367 2.54678 8.33591 2.78268 7.70826 3.19602C7.32389 3.44915 6.80709 3.34275 6.55396 2.95838C6.30083 2.57401 6.40722 2.05721 6.7916 1.80408C7.6703 1.2254 8.68916 0.895153 9.74025 0.848314C10.7913 0.801474 11.8355 1.03979 12.7622 1.53801C13.6889 2.03623 14.4636 2.77581 15.0042 3.67842C15.5449 4.58103 15.8313 5.61305 15.8333 6.66519L15.8333 6.66593C15.8345 8.0038 15.9945 9.33679 16.3098 10.637C16.4183 11.0843 16.1436 11.5348 15.6963 11.6432C15.2491 11.7517 14.7985 11.4771 14.6901 11.0298C14.3437 9.60163 14.168 8.13744 14.1666 6.6679C14.1666 6.66776 14.1666 6.66763 14.1666 6.66749L14.9999 6.66671L14.1666 6.66824C14.1666 6.66812 14.1666 6.66801 14.1666 6.6679C14.1652 5.91649 13.9606 5.17946 13.5744 4.53483C13.1883 3.89011 12.6349 3.36184 11.973 3.00597Z" fill="black"/>
<path fill-rule="evenodd" clip-rule="evenodd" d="M5.54391 4.47032C5.97455 4.63269 6.19202 5.11342 6.02965 5.54407C5.89555 5.89974 5.82892 6.27729 5.83318 6.65738C5.83322 6.6605 5.83324 6.66361 5.83324 6.66673C5.83324 9.70618 5.18079 11.7212 4.48148 13.0033C4.41807 13.1195 4.35441 13.2295 4.29101 13.3334H14.1666C14.6268 13.3334 14.9999 13.7065 14.9999 14.1667C14.9999 14.627 14.6268 15.0001 14.1666 15.0001H2.4999C2.13268 15.0001 1.80874 14.7597 1.70233 14.4082C1.59704 14.0605 1.72924 13.6851 2.02798 13.4799C2.02856 13.4795 2.02936 13.4789 2.03036 13.4781C2.03677 13.4734 2.05165 13.462 2.07384 13.4435C2.11818 13.4066 2.19184 13.341 2.28557 13.242C2.47259 13.0446 2.74183 12.7121 3.01832 12.2052C3.56872 11.1961 4.16594 9.46243 4.16657 6.67113C4.16061 6.08558 4.26355 5.50401 4.47015 4.95606C4.63253 4.52542 5.11326 4.30794 5.54391 4.47032Z" fill="black"/>
<path fill-rule="evenodd" clip-rule="evenodd" d="M8.18176 16.7698C8.58506 16.548 9.09175 16.6952 9.31348 17.0985C9.38107 17.2214 9.48043 17.324 9.60117 17.3954C9.72192 17.4668 9.85963 17.5044 9.99991 17.5044C10.1402 17.5044 10.2779 17.4668 10.3986 17.3954C10.5194 17.324 10.6188 17.2214 10.6863 17.0985C10.9081 16.6952 11.4148 16.548 11.8181 16.7698C12.2214 16.9915 12.3686 17.4982 12.1468 17.9015C11.9354 18.286 11.6247 18.6066 11.247 18.8299C10.8694 19.0533 10.4387 19.1711 9.99991 19.1711C9.56116 19.1711 9.13045 19.0533 8.7528 18.8299C8.37514 18.6066 8.06439 18.286 7.853 17.9015C7.63127 17.4982 7.77845 16.9915 8.18176 16.7698Z" fill="black"/>
<path fill-rule="evenodd" clip-rule="evenodd" d="M1.07733 1.07733C1.40277 0.751893 1.9304 0.751893 2.25584 1.07733L18.9225 17.744C19.2479 18.0694 19.2479 18.5971 18.9225 18.9225C18.5971 19.2479 18.0694 19.2479 17.744 18.9225L1.07733 2.25584C0.751893 1.9304 0.751893 1.40277 1.07733 1.07733Z" fill="black"/>
</g>
<defs>
<clipPath id="clip0_2001_4593">
<rect width="20" height="20" fill="white"/>
</clipPath>
</defs>
</svg>
