<svg width="20" height="20" viewBox="0 0 20 20" fill="none" xmlns="http://www.w3.org/2000/svg">
<path fill-rule="evenodd" clip-rule="evenodd" d="M9.9999 2.49992C7.71014 2.49992 5.83324 4.37682 5.83324 6.66659C5.83324 9.70604 5.18079 11.7211 4.48148 13.0031C4.41807 13.1194 4.35441 13.2294 4.29101 13.3333H15.734C15.6338 13.1729 15.5323 12.9982 15.4313 12.8087C15.2147 12.4027 15.3683 11.8979 15.7744 11.6813C16.1805 11.4647 16.6853 11.6183 16.9019 12.0244C17.2024 12.5878 17.4971 12.9716 17.7061 13.2067C17.8107 13.3244 17.8941 13.4052 17.9464 13.4528C17.9726 13.4766 17.9909 13.4921 18.0003 13.4998C18.0034 13.5024 18.0055 13.5041 18.0065 13.5049C18.2887 13.7209 18.403 14.0925 18.2905 14.4301C18.177 14.7704 17.8586 14.9999 17.4999 14.9999H2.4999C2.13268 14.9999 1.80874 14.7595 1.70233 14.4081C1.59704 14.0603 1.72924 13.685 2.02798 13.4798C2.02857 13.4793 2.02936 13.4787 2.03036 13.478C2.03677 13.4732 2.05165 13.4619 2.07384 13.4434C2.11818 13.4064 2.19184 13.3408 2.28557 13.2419C2.47259 13.0445 2.74183 12.712 3.01832 12.205C3.56901 11.1954 4.16657 9.46047 4.16657 6.66659C4.16657 3.45635 6.78966 0.833252 9.9999 0.833252C10.6703 0.833252 11.2594 0.93024 11.8468 1.12602C12.2834 1.27156 12.5193 1.74349 12.3738 2.18011C12.2283 2.61673 11.7563 2.85269 11.3197 2.70715C10.907 2.5696 10.4962 2.49992 9.9999 2.49992ZM18.0018 13.5013L18.0017 13.5012L18.0014 13.501C18.0015 13.5011 18.0016 13.5012 18.0018 13.5013ZM18.0073 13.5055L18.0073 13.5056C18.0073 13.5056 18.0073 13.5056 18.0073 13.5055Z" fill="black"/>
<path fill-rule="evenodd" clip-rule="evenodd" d="M8.18176 16.7698C8.58506 16.548 9.09175 16.6952 9.31348 17.0985C9.38107 17.2214 9.48043 17.324 9.60117 17.3954C9.72192 17.4668 9.85963 17.5044 9.99991 17.5044C10.1402 17.5044 10.2779 17.4668 10.3986 17.3954C10.5194 17.324 10.6188 17.2214 10.6863 17.0985C10.9081 16.6952 11.4148 16.548 11.8181 16.7698C12.2214 16.9915 12.3686 17.4982 12.1468 17.9015C11.9354 18.286 11.6247 18.6066 11.247 18.8299C10.8694 19.0533 10.4387 19.1711 9.99991 19.1711C9.56116 19.1711 9.13045 19.0533 8.7528 18.8299C8.37514 18.6066 8.06439 18.286 7.853 17.9015C7.63127 17.4982 7.77845 16.9915 8.18176 16.7698Z" fill="black"/>
<path fill-rule="evenodd" clip-rule="evenodd" d="M15.0001 4.99992C14.0796 4.99992 13.3334 5.74611 13.3334 6.66658C13.3334 7.58706 14.0796 8.33325 15.0001 8.33325C15.9206 8.33325 16.6667 7.58706 16.6667 6.66658C16.6667 5.74611 15.9206 4.99992 15.0001 4.99992ZM11.6667 6.66658C11.6667 4.82564 13.1591 3.33325 15.0001 3.33325C16.841 3.33325 18.3334 4.82564 18.3334 6.66658C18.3334 8.50753 16.841 9.99992 15.0001 9.99992C13.1591 9.99992 11.6667 8.50753 11.6667 6.66658Z" fill="black"/>
</svg>
