<svg width="20" height="20" viewBox="0 0 20 20" fill="none" xmlns="http://www.w3.org/2000/svg">
<path fill-rule="evenodd" clip-rule="evenodd" d="M9.9999 2.49992C8.89483 2.49992 7.83503 2.93891 7.05362 3.72031C6.27222 4.50171 5.83324 5.56152 5.83324 6.66659C5.83324 9.70604 5.18079 11.7211 4.48148 13.0031C4.41807 13.1194 4.35441 13.2294 4.29101 13.3333H15.7088C15.6454 13.2294 15.5817 13.1194 15.5183 13.0031C14.819 11.7211 14.1666 9.70604 14.1666 6.66659C14.1666 5.56152 13.7276 4.50171 12.9462 3.72031C12.1648 2.93891 11.105 2.49992 9.9999 2.49992ZM17.9718 13.4798C17.9712 13.4793 17.9704 13.4787 17.9694 13.478C17.963 13.4732 17.9482 13.4619 17.926 13.4434C17.8816 13.4064 17.808 13.3408 17.7142 13.2419C17.5272 13.0445 17.258 12.712 16.9815 12.205C16.4308 11.1954 15.8332 9.46047 15.8332 6.66659C15.8332 5.11949 15.2187 3.63576 14.1247 2.5418C13.0307 1.44783 11.547 0.833252 9.9999 0.833252C8.45281 0.833252 6.96908 1.44783 5.87511 2.5418C4.78115 3.63576 4.16657 5.11949 4.16657 6.66659C4.16657 9.46047 3.56901 11.1954 3.01832 12.205C2.74183 12.712 2.47259 13.0445 2.28557 13.2419C2.19184 13.3408 2.11818 13.4064 2.07384 13.4434C2.05165 13.4619 2.03677 13.4732 2.03036 13.478C2.02936 13.4787 2.02857 13.4793 2.02798 13.4798C1.72924 13.685 1.59704 14.0603 1.70233 14.4081C1.80874 14.7595 2.13268 14.9999 2.4999 14.9999H17.4999C17.8671 14.9999 18.1911 14.7595 18.2975 14.4081C18.4028 14.0603 18.2706 13.685 17.9718 13.4798Z" fill="black"/>
<path fill-rule="evenodd" clip-rule="evenodd" d="M8.182 16.7698C8.5853 16.548 9.09199 16.6952 9.31373 17.0985C9.38131 17.2214 9.48067 17.324 9.60142 17.3954C9.72217 17.4668 9.85988 17.5044 10.0002 17.5044C10.1404 17.5044 10.2781 17.4668 10.3989 17.3954C10.5196 17.324 10.619 17.2214 10.6866 17.0985C10.9083 16.6952 11.415 16.548 11.8183 16.7698C12.2216 16.9915 12.3688 17.4982 12.1471 17.9015C11.9357 18.286 11.6249 18.6066 11.2473 18.8299C10.8696 19.0533 10.4389 19.1711 10.0002 19.1711C9.5614 19.1711 9.1307 19.0533 8.75304 18.8299C8.37539 18.6066 8.06463 18.286 7.85325 17.9015C7.63151 17.4982 7.7787 16.9915 8.182 16.7698Z" fill="black"/>
</svg>
