<svg width="20" height="20" viewBox="0 0 20 20" fill="none" xmlns="http://www.w3.org/2000/svg">
<g clip-path="url(#clip0_2001_4582)">
<path fill-rule="evenodd" clip-rule="evenodd" d="M15.2792 2.59552C15.6867 2.38149 16.1905 2.53828 16.4045 2.94572C17.1088 4.28652 17.4854 5.87435 17.5001 7.49239C17.5042 7.95261 17.1345 8.32906 16.6743 8.33322C16.2141 8.33738 15.8376 7.96768 15.8335 7.50746C15.821 6.12906 15.4989 4.80564 14.929 3.7208C14.715 3.31336 14.8718 2.80955 15.2792 2.59552Z" fill="black"/>
<path fill-rule="evenodd" clip-rule="evenodd" d="M6.66675 7.50008C6.66675 7.03984 7.03984 6.66675 7.50008 6.66675H7.50841C7.96865 6.66675 8.34175 7.03984 8.34175 7.50008C8.34175 7.96032 7.96865 8.33341 7.50841 8.33341H7.50008C7.03984 8.33341 6.66675 7.96032 6.66675 7.50008Z" fill="black"/>
<path fill-rule="evenodd" clip-rule="evenodd" d="M7.49992 2.49992C4.73849 2.49992 2.49992 4.73849 2.49992 7.49992C2.49992 10.2613 4.73849 12.4999 7.49992 12.4999C10.2613 12.4999 12.4999 10.2613 12.4999 7.49992C12.4999 4.73849 10.2613 2.49992 7.49992 2.49992ZM0.833252 7.49992C0.833252 3.81802 3.81802 0.833252 7.49992 0.833252C11.1818 0.833252 14.1666 3.81802 14.1666 7.49992C14.1666 11.1818 11.1818 14.1666 7.49992 14.1666C3.81802 14.1666 0.833252 11.1818 0.833252 7.49992Z" fill="black"/>
<path fill-rule="evenodd" clip-rule="evenodd" d="M5 14.1667C4.53976 14.1667 4.16667 14.5398 4.16667 15V16.6667C4.16667 17.1269 4.53976 17.5 5 17.5H10C10.4602 17.5 10.8333 17.1269 10.8333 16.6667V15C10.8333 14.5398 10.4602 14.1667 10 14.1667H5ZM2.5 15C2.5 13.6193 3.61929 12.5 5 12.5H10C11.3807 12.5 12.5 13.6193 12.5 15V16.6667C12.5 18.0474 11.3807 19.1667 10 19.1667H5C3.61929 19.1667 2.5 18.0474 2.5 16.6667V15Z" fill="black"/>
<path fill-rule="evenodd" clip-rule="evenodd" d="M14.9151 13.9064C15.2409 13.5854 15.7652 13.5869 16.0892 13.9108C16.4146 14.2363 16.4146 14.7639 16.0892 15.0893L15.4999 14.5001C16.0892 15.0893 16.0889 15.0896 16.0886 15.0899L16.088 15.0905L16.0868 15.0917C16.0859 15.0926 16.0849 15.0936 16.0838 15.0946C16.0817 15.0967 16.0792 15.0991 16.0764 15.1019C16.0708 15.1073 16.0638 15.114 16.0555 15.1219C16.0388 15.1376 16.0166 15.158 15.9889 15.1824C15.9337 15.2311 15.8565 15.2959 15.7576 15.3713C15.56 15.5218 15.2743 15.7156 14.903 15.9073C14.1582 16.2916 13.0697 16.6667 11.6666 16.6667C11.2063 16.6667 10.8333 16.2937 10.8333 15.8334C10.8333 15.3732 11.2063 15.0001 11.6666 15.0001C12.7635 15.0001 13.5916 14.7085 14.1385 14.4262C14.413 14.2846 14.617 14.145 14.7475 14.0456C14.8126 13.9959 14.8591 13.9566 14.8866 13.9324C14.9003 13.9203 14.9092 13.912 14.9132 13.9082C14.9141 13.9074 14.9147 13.9068 14.9151 13.9064ZM14.9117 13.9098L14.9117 13.9098L14.9117 13.9098M14.9112 13.9103C14.9112 13.9102 14.9113 13.9102 14.9114 13.9101L14.9112 13.9103C14.9112 13.9103 14.9112 13.9103 14.9112 13.9103Z" fill="black"/>
<path fill-rule="evenodd" clip-rule="evenodd" d="M16.6667 12.4999C16.2065 12.4999 15.8334 12.873 15.8334 13.3333C15.8334 13.7935 16.2065 14.1666 16.6667 14.1666C17.127 14.1666 17.5001 13.7935 17.5001 13.3333C17.5001 12.873 17.127 12.4999 16.6667 12.4999ZM14.1667 13.3333C14.1667 11.9525 15.286 10.8333 16.6667 10.8333C18.0475 10.8333 19.1667 11.9525 19.1667 13.3333C19.1667 14.714 18.0475 15.8333 16.6667 15.8333C15.286 15.8333 14.1667 14.714 14.1667 13.3333Z" fill="black"/>
</g>
<defs>
<clipPath id="clip0_2001_4582">
<rect width="20" height="20" fill="white"/>
</clipPath>
</defs>
</svg>
