<svg width="20" height="20" viewBox="0 0 20 20" fill="none" xmlns="http://www.w3.org/2000/svg">
<g clip-path="url(#clip0_2001_4603)">
<path fill-rule="evenodd" clip-rule="evenodd" d="M9.9999 2.49992C8.89483 2.49992 7.83503 2.93891 7.05362 3.72031C6.27222 4.50171 5.83324 5.56152 5.83324 6.66659C5.83324 9.70604 5.18079 11.7211 4.48148 13.0031C4.41807 13.1194 4.35441 13.2294 4.29101 13.3333H15.7088C15.6454 13.2294 15.5817 13.1194 15.5183 13.0031C14.819 11.7211 14.1666 9.70604 14.1666 6.66659C14.1666 5.56152 13.7276 4.50171 12.9462 3.72031C12.1648 2.93891 11.105 2.49992 9.9999 2.49992ZM17.9718 13.4798C17.9712 13.4793 17.9704 13.4787 17.9694 13.478C17.963 13.4732 17.9482 13.4619 17.926 13.4434C17.8816 13.4064 17.808 13.3408 17.7142 13.2419C17.5272 13.0445 17.258 12.712 16.9815 12.205C16.4308 11.1954 15.8332 9.46047 15.8332 6.66659C15.8332 5.11949 15.2187 3.63576 14.1247 2.5418C13.0307 1.44783 11.547 0.833252 9.9999 0.833252C8.45281 0.833252 6.96908 1.44783 5.87511 2.5418C4.78115 3.63576 4.16657 5.11949 4.16657 6.66659C4.16657 9.46047 3.56901 11.1954 3.01832 12.205C2.74183 12.712 2.47259 13.0445 2.28557 13.2419C2.19184 13.3408 2.11818 13.4064 2.07384 13.4434C2.05165 13.4619 2.03677 13.4732 2.03036 13.478C2.02936 13.4787 2.02857 13.4793 2.02798 13.4798C1.72924 13.685 1.59704 14.0603 1.70233 14.4081C1.80874 14.7595 2.13268 14.9999 2.4999 14.9999H17.4999C17.8671 14.9999 18.1911 14.7595 18.2975 14.4081C18.4028 14.0603 18.2706 13.685 17.9718 13.4798Z" fill="black"/>
<path fill-rule="evenodd" clip-rule="evenodd" d="M8.18176 16.7698C8.58506 16.548 9.09175 16.6952 9.31348 17.0985C9.38107 17.2214 9.48043 17.324 9.60117 17.3954C9.72192 17.4668 9.85963 17.5044 9.99991 17.5044C10.1402 17.5044 10.2779 17.4668 10.3986 17.3954C10.5194 17.324 10.6188 17.2214 10.6863 17.0985C10.9081 16.6952 11.4148 16.548 11.8181 16.7698C12.2214 16.9915 12.3686 17.4982 12.1468 17.9015C11.9354 18.286 11.6247 18.6066 11.247 18.8299C10.8694 19.0533 10.4387 19.1711 9.99991 19.1711C9.56116 19.1711 9.13045 19.0533 8.7528 18.8299C8.37514 18.6066 8.06439 18.286 7.853 17.9015C7.63127 17.4982 7.77845 16.9915 8.18176 16.7698Z" fill="black"/>
<path fill-rule="evenodd" clip-rule="evenodd" d="M3.81382 0.985847C4.18982 1.25126 4.27947 1.77122 4.01406 2.14722C3.09267 3.45253 2.49992 4.9547 2.49992 6.66665C2.49992 7.12689 2.12682 7.49999 1.66659 7.49999C1.20635 7.49999 0.833252 7.12689 0.833252 6.66665C0.833252 4.54527 1.57384 2.71412 2.65245 1.18608C2.91786 0.810086 3.43782 0.720436 3.81382 0.985847Z" fill="black"/>
<path fill-rule="evenodd" clip-rule="evenodd" d="M16.1861 0.985847C16.5621 0.720436 17.082 0.810086 17.3475 1.18608C18.4261 2.71412 19.1667 4.54527 19.1667 6.66665C19.1667 7.12689 18.7936 7.49999 18.3333 7.49999C17.8731 7.49999 17.5 7.12689 17.5 6.66665C17.5 4.9547 16.9072 3.45253 15.9858 2.14722C15.7204 1.77122 15.8101 1.25126 16.1861 0.985847Z" fill="black"/>
</g>
<defs>
<clipPath id="clip0_2001_4603">
<rect width="20" height="20" fill="white"/>
</clipPath>
</defs>
</svg>
