<svg width="45" height="45" viewBox="0 0 45 45" fill="none" xmlns="http://www.w3.org/2000/svg">
<path d="M7.5 35.625V32.8125H11.25V18.5625C11.25 15.9375 12.0234 13.5859 13.5703 11.5078C15.1172 9.42969 17.1562 8.125 19.6875 7.59375V6.5625C19.6875 5.78125 19.9609 5.11719 20.5078 4.57031C21.0547 4.02344 21.7188 3.75 22.5 3.75C23.2812 3.75 23.9453 4.02344 24.4922 4.57031C25.0391 5.11719 25.3125 5.78125 25.3125 6.5625V7.59375C27.8438 8.125 29.8828 9.42969 31.4297 11.5078C32.9766 13.5859 33.75 15.9375 33.75 18.5625V32.8125H37.5V35.625H7.5ZM22.5 41.25C21.4688 41.25 20.5859 40.8828 19.8516 40.1484C19.1172 39.4141 18.75 38.5312 18.75 37.5H26.25C26.25 38.5312 25.8828 39.4141 25.1484 40.1484C24.4141 40.8828 23.5312 41.25 22.5 41.25ZM14.0625 32.8125H30.9375V18.5625C30.9375 16.2188 30.1172 14.2266 28.4766 12.5859C26.8359 10.9453 24.8438 10.125 22.5 10.125C20.1562 10.125 18.1641 10.9453 16.5234 12.5859C14.8828 14.2266 14.0625 16.2188 14.0625 18.5625V32.8125Z" fill="#BABABA"/>
</svg>
