<svg width="20" height="20" viewBox="0 0 20 20" fill="none" xmlns="http://www.w3.org/2000/svg">
<path fill-rule="evenodd" clip-rule="evenodd" d="M3.33341 3.33341V12.5001H7.50008V3.33341H3.33341ZM1.66675 3.33341C1.66675 2.41294 2.41294 1.66675 3.33341 1.66675H7.50008C8.42056 1.66675 9.16675 2.41294 9.16675 3.33341V12.5001C9.16675 13.4206 8.42056 14.1667 7.50008 14.1667H3.33341C2.41294 14.1667 1.66675 13.4206 1.66675 12.5001V3.33341Z" fill="black"/>
<path fill-rule="evenodd" clip-rule="evenodd" d="M9.41083 15.2441C9.73626 14.9186 10.2639 14.9186 10.5893 15.2441L13.0893 17.7441C13.4148 18.0695 13.4148 18.5972 13.0893 18.9226C12.7639 19.248 12.2363 19.248 11.9108 18.9226L10.0001 17.0118L8.08934 18.9226C7.7639 19.248 7.23626 19.248 6.91083 18.9226C6.58539 18.5972 6.58539 18.0695 6.91083 17.7441L9.41083 15.2441Z" fill="black"/>
<path fill-rule="evenodd" clip-rule="evenodd" d="M12.4999 3.33341V12.5001H16.6666V3.33341H12.4999ZM10.8333 3.33341C10.8333 2.41294 11.5794 1.66675 12.4999 1.66675H16.6666C17.5871 1.66675 18.3333 2.41294 18.3333 3.33341V12.5001C18.3333 13.4206 17.5871 14.1667 16.6666 14.1667H12.4999C11.5794 14.1667 10.8333 13.4206 10.8333 12.5001V3.33341Z" fill="black"/>
</svg>
