<svg width="20" height="20" viewBox="0 0 20 20" fill="none" xmlns="http://www.w3.org/2000/svg">
<path fill-rule="evenodd" clip-rule="evenodd" d="M7.49992 3.33341V7.50008H16.6666V3.33341H7.49992ZM16.6665 3.33238C16.6665 3.33235 16.6665 3.33236 16.6665 3.33241L16.6665 3.33238ZM16.6676 7.50004C16.6677 7.50004 16.6676 7.50004 16.6676 7.50004L16.6676 7.50004ZM5.83325 3.33341C5.83325 2.41294 6.57944 1.66675 7.49992 1.66675H16.6666C17.5871 1.66675 18.3333 2.41294 18.3333 3.33341V7.50008C18.3333 8.42056 17.5871 9.16675 16.6666 9.16675H7.49992C6.57944 9.16675 5.83325 8.42056 5.83325 7.50008V3.33341Z" fill="black"/>
<path fill-rule="evenodd" clip-rule="evenodd" d="M1.07733 6.91083C1.40277 6.58539 1.9304 6.58539 2.25584 6.91083L4.75584 9.41083C5.08128 9.73626 5.08128 10.2639 4.75584 10.5893L2.25584 13.0893C1.9304 13.4148 1.40277 13.4148 1.07733 13.0893C0.751893 12.7639 0.751893 12.2363 1.07733 11.9108L2.98807 10.0001L1.07733 8.08934C0.751893 7.7639 0.751893 7.23626 1.07733 6.91083Z" fill="black"/>
<path fill-rule="evenodd" clip-rule="evenodd" d="M7.49992 12.4999V16.6666H16.6666V12.4999H7.49992ZM16.6665 12.4989C16.6665 12.4989 16.6665 12.4989 16.6665 12.4989L16.6665 12.4989ZM16.6676 16.6665C16.6677 16.6665 16.6676 16.6665 16.6676 16.6665L16.6676 16.6665ZM5.83325 12.4999C5.83325 11.5794 6.57944 10.8333 7.49992 10.8333H16.6666C17.5871 10.8333 18.3333 11.5794 18.3333 12.4999V16.6666C18.3333 17.5871 17.5871 18.3333 16.6666 18.3333H7.49992C6.57944 18.3333 5.83325 17.5871 5.83325 16.6666V12.4999Z" fill="black"/>
</svg>
