<svg width="20" height="20" viewBox="0 0 20 20" fill="none" xmlns="http://www.w3.org/2000/svg">
<path fill-rule="evenodd" clip-rule="evenodd" d="M3.33341 3.33341V7.50008H12.5001V3.33341H3.33341ZM12.5 3.33238C12.5 3.33235 12.5 3.33236 12.5 3.33241L12.5 3.33238ZM12.5011 7.50004C12.5011 7.50004 12.5011 7.50004 12.5011 7.50004L12.5011 7.50004ZM1.66675 3.33341C1.66675 2.41294 2.41294 1.66675 3.33341 1.66675H12.5001C13.4206 1.66675 14.1667 2.41294 14.1667 3.33341V7.50008C14.1667 8.42056 13.4206 9.16675 12.5001 9.16675H3.33341C2.41294 9.16675 1.66675 8.42056 1.66675 7.50008V3.33341Z" fill="black"/>
<path fill-rule="evenodd" clip-rule="evenodd" d="M18.9226 6.91083C19.248 7.23626 19.248 7.7639 18.9226 8.08934L17.0118 10.0001L18.9226 11.9108C19.248 12.2363 19.248 12.7639 18.9226 13.0893C18.5972 13.4148 18.0695 13.4148 17.7441 13.0893L15.2441 10.5893C14.9186 10.2639 14.9186 9.73626 15.2441 9.41083L17.7441 6.91083C18.0695 6.58539 18.5972 6.58539 18.9226 6.91083Z" fill="black"/>
<path fill-rule="evenodd" clip-rule="evenodd" d="M3.33341 12.4999V16.6666H12.5001V12.4999H3.33341ZM12.5 12.4989C12.5 12.4989 12.5 12.4989 12.5 12.4989L12.5 12.4989ZM12.5011 16.6665C12.5011 16.6665 12.5011 16.6665 12.5011 16.6665L12.5011 16.6665ZM1.66675 12.4999C1.66675 11.5794 2.41294 10.8333 3.33341 10.8333H12.5001C13.4206 10.8333 14.1667 11.5794 14.1667 12.4999V16.6666C14.1667 17.5871 13.4206 18.3333 12.5001 18.3333H3.33341C2.41294 18.3333 1.66675 17.5871 1.66675 16.6666V12.4999Z" fill="black"/>
</svg>
