<svg width="20" height="20" viewBox="0 0 20 20" fill="none" xmlns="http://www.w3.org/2000/svg">
<path fill-rule="evenodd" clip-rule="evenodd" d="M3.33341 7.49992V16.6666H7.50008V7.49992H3.33341ZM1.66675 7.49992C1.66675 6.57944 2.41294 5.83325 3.33341 5.83325H7.50008C8.42056 5.83325 9.16675 6.57944 9.16675 7.49992V16.6666C9.16675 17.5871 8.42056 18.3333 7.50008 18.3333H3.33341C2.41294 18.3333 1.66675 17.5871 1.66675 16.6666V7.49992Z" fill="black"/>
<path fill-rule="evenodd" clip-rule="evenodd" d="M6.91083 1.07733C7.23626 0.751893 7.7639 0.751893 8.08934 1.07733L10.0001 2.98807L11.9108 1.07733C12.2363 0.751893 12.7639 0.751893 13.0893 1.07733C13.4148 1.40277 13.4148 1.9304 13.0893 2.25584L10.5893 4.75584C10.2639 5.08128 9.73626 5.08128 9.41083 4.75584L6.91083 2.25584C6.58539 1.9304 6.58539 1.40277 6.91083 1.07733Z" fill="black"/>
<path fill-rule="evenodd" clip-rule="evenodd" d="M12.4999 7.49992V16.6666H16.6666V7.49992H12.4999ZM10.8333 7.49992C10.8333 6.57944 11.5794 5.83325 12.4999 5.83325H16.6666C17.5871 5.83325 18.3333 6.57944 18.3333 7.49992V16.6666C18.3333 17.5871 17.5871 18.3333 16.6666 18.3333H12.4999C11.5794 18.3333 10.8333 17.5871 10.8333 16.6666V7.49992Z" fill="black"/>
</svg>
