<svg width="20" height="20" viewBox="0 0 20 20" fill="none" xmlns="http://www.w3.org/2000/svg">
<g clip-path="url(#clip0_2001_4627)">
<path fill-rule="evenodd" clip-rule="evenodd" d="M3.52819 6.95362C2.68335 9.62718 2.55271 12.885 2.50717 15.1632L2.50716 15.1639C2.50246 15.3902 2.5893 15.5396 2.68698 15.6122C3.48212 16.2007 4.66903 16.6793 6.11559 17.0079C7.55099 17.334 9.18667 17.4999 10.8332 17.4999C14.7447 17.4999 17.4998 15.0801 17.4998 12.4999V12.4995C17.5002 11.7324 17.236 10.9886 16.7517 10.3936C16.2674 9.79865 15.5927 9.38894 14.8414 9.23361C14.0902 9.07829 13.3083 9.18684 12.6278 9.54097C12.2634 9.73057 11.9401 9.98434 11.6716 10.2873C12.1466 10.4559 12.5946 10.6959 13 11.0001C13.3681 11.2763 13.4426 11.7986 13.1664 12.1668C12.8901 12.5349 12.3678 12.6094 11.9997 12.3331C11.5973 12.0312 11.1319 11.8242 10.6382 11.7278C10.5291 11.7065 10.4193 11.6907 10.3092 11.6804C10.2847 11.6795 10.2602 11.6775 10.2357 11.6743C9.87125 11.6484 9.50405 11.6825 9.14896 11.7761C8.66256 11.9044 8.2115 12.1411 7.82958 12.4684C7.65907 12.6146 7.50431 12.7771 7.36733 12.9533C7.35612 12.969 7.34473 12.9845 7.33317 12.9999C7.32535 13.0103 7.31734 13.0205 7.30913 13.0305C7.16474 13.2278 7.04203 13.4409 6.94366 13.6665C6.75964 14.0883 6.26848 14.2811 5.84664 14.0971C5.42479 13.9131 5.232 13.4219 5.41602 13.0001C5.57734 12.6302 5.7823 12.2825 6.0257 11.9639C6.19483 11.718 6.31974 11.3275 6.3956 10.7574C6.46294 10.2513 6.48191 9.69814 6.50234 9.10218C6.50577 9.00205 6.50925 8.90071 6.513 8.79819C6.53786 8.11892 6.57521 7.37449 6.72875 6.72951C6.8009 6.42643 6.90729 6.108 7.07272 5.81318C6.9677 5.695 6.8781 5.57295 6.80033 5.45284C6.55019 5.06651 6.66059 4.55055 7.04692 4.30041C7.43325 4.05027 7.9492 4.16067 8.19934 4.547C8.30067 4.7035 8.39777 4.8007 8.51282 4.86624C8.53765 4.88038 8.56616 4.89467 8.59912 4.90837C8.60755 4.91157 8.61593 4.91491 8.62426 4.91838C8.74285 4.96346 8.914 4.99992 9.1665 4.99992C9.38752 4.99992 9.59948 4.91212 9.75576 4.75584C9.91204 4.59956 9.99984 4.3876 9.99984 4.16659C9.99984 3.72456 9.82424 3.30063 9.51168 2.98807C9.19912 2.67551 8.7752 2.49992 8.33317 2.49992C7.02563 2.49992 6.05758 2.96519 5.30378 3.72192C4.52807 4.50066 3.94928 5.62106 3.52819 6.95362ZM8.53478 6.61374C8.73289 6.64901 8.94331 6.66659 9.1665 6.66659C9.82955 6.66659 10.4654 6.40319 10.9343 5.93435C11.4031 5.46551 11.6665 4.82963 11.6665 4.16659C11.6665 3.28253 11.3153 2.43468 10.6902 1.80956C10.0651 1.18444 9.21723 0.833252 8.33317 0.833252C6.56862 0.833252 5.1796 1.48496 4.12298 2.5457C3.08827 3.58444 2.40331 4.98201 1.93898 6.45143C1.01303 9.38169 0.886142 12.8637 0.840843 15.1296C0.840841 15.1297 0.840839 15.1298 0.840837 15.1299C0.827381 15.7867 1.08214 16.4969 1.6942 16.9509L1.69484 16.9514C2.74802 17.731 4.18343 18.2781 5.74637 18.6332C7.32076 18.9908 9.08217 19.1666 10.8332 19.1666C15.2548 19.1666 19.1662 16.3633 19.1665 12.5003M8.53478 6.61374C8.46953 6.72432 8.40524 6.88391 8.35011 7.11549C8.24014 7.57744 8.204 8.16362 8.17855 8.85915C8.17513 8.95272 8.1719 9.04833 8.16861 9.14548C8.15532 9.53913 8.14116 9.95809 8.10973 10.3699C8.3093 10.2885 8.51445 10.2198 8.72397 10.1645C9.08787 10.0686 9.46026 10.0143 9.83402 10.002C10.3081 9.17912 11.009 8.50453 11.8584 8.0625C12.8792 7.53131 14.052 7.36848 15.1789 7.60147C16.3058 7.83446 17.3178 8.44902 18.0442 9.34146C18.7706 10.2338 19.167 11.3493 19.1665 12.4999" fill="black"/>
</g>
<defs>
<clipPath id="clip0_2001_4627">
<rect width="20" height="20" fill="white"/>
</clipPath>
</defs>
</svg>
