<svg width="20" height="20" viewBox="0 0 20 20" fill="none" xmlns="http://www.w3.org/2000/svg">
<path fill-rule="evenodd" clip-rule="evenodd" d="M15.4167 12.4999C14.2662 12.4999 13.3334 13.4327 13.3334 14.5833C13.3334 15.7338 14.2662 16.6666 15.4167 16.6666C16.5673 16.6666 17.5001 15.7338 17.5001 14.5833C17.5001 13.4327 16.5673 12.4999 15.4167 12.4999ZM11.6667 14.5833C11.6667 12.5122 13.3457 10.8333 15.4167 10.8333C17.4878 10.8333 19.1667 12.5122 19.1667 14.5833C19.1667 16.6543 17.4878 18.3333 15.4167 18.3333C13.3457 18.3333 11.6667 16.6543 11.6667 14.5833Z" fill="black"/>
<path fill-rule="evenodd" clip-rule="evenodd" d="M4.58325 12.4999C3.43266 12.4999 2.49992 13.4327 2.49992 14.5833C2.49992 15.7338 3.43266 16.6666 4.58325 16.6666C5.73385 16.6666 6.66659 15.7338 6.66659 14.5833C6.66659 13.4327 5.73385 12.4999 4.58325 12.4999ZM0.833252 14.5833C0.833252 12.5122 2.51218 10.8333 4.58325 10.8333C6.65432 10.8333 8.33325 12.5122 8.33325 14.5833C8.33325 16.6543 6.65432 18.3333 4.58325 18.3333C2.51218 18.3333 0.833252 16.6543 0.833252 14.5833Z" fill="black"/>
<path fill-rule="evenodd" clip-rule="evenodd" d="M10.8333 4.16667C10.8333 3.24619 11.5794 2.5 12.4999 2.5C13.4204 2.5 14.1666 3.24619 14.1666 4.16667C14.1666 5.08714 13.4204 5.83333 12.4999 5.83333C11.5794 5.83333 10.8333 5.08714 10.8333 4.16667Z" fill="black"/>
<path fill-rule="evenodd" clip-rule="evenodd" d="M10.9741 5.84522C11.1999 5.88389 11.3997 6.01377 11.5268 6.20434L12.9461 8.33326H14.1668C14.627 8.33326 15.0001 8.70635 15.0001 9.16659C15.0001 9.62683 14.627 9.99992 14.1668 9.99992H12.5001C12.2215 9.99992 11.9613 9.86067 11.8067 9.62884L10.6287 7.8618L8.76876 9.25675L10.5893 11.0773C10.7456 11.2336 10.8334 11.4456 10.8334 11.6666V14.5833C10.8334 15.0435 10.4603 15.4166 10.0001 15.4166C9.53985 15.4166 9.16675 15.0435 9.16675 14.5833V12.0118L6.91083 9.75585C6.74001 9.58502 6.65172 9.34848 6.66885 9.10752C6.68597 8.86655 6.80682 8.64487 7.00008 8.49992L10.3334 5.99992C10.5166 5.8625 10.7484 5.80655 10.9741 5.84522Z" fill="black"/>
</svg>
