<svg width="20" height="20" viewBox="0 0 20 20" fill="none" xmlns="http://www.w3.org/2000/svg">
<path fill-rule="evenodd" clip-rule="evenodd" d="M13.3333 12.4999C12.873 12.4999 12.4999 12.873 12.4999 13.3333V14.9999C12.4999 15.4602 12.873 15.8333 13.3333 15.8333C13.7935 15.8333 14.1666 15.4602 14.1666 14.9999V13.3333C14.1666 12.873 13.7935 12.4999 13.3333 12.4999ZM10.8333 13.3333C10.8333 11.9525 11.9525 10.8333 13.3333 10.8333C14.714 10.8333 15.8333 11.9525 15.8333 13.3333V14.9999C15.8333 16.3806 14.714 17.4999 13.3333 17.4999C11.9525 17.4999 10.8333 16.3806 10.8333 14.9999V13.3333Z" fill="black"/>
<path fill-rule="evenodd" clip-rule="evenodd" d="M6.66675 4.16667C6.20651 4.16667 5.83341 4.53976 5.83341 5V6.66667C5.83341 7.1269 6.20651 7.5 6.66675 7.5C7.12699 7.5 7.50008 7.1269 7.50008 6.66667V5C7.50008 4.53976 7.12699 4.16667 6.66675 4.16667ZM4.16675 5C4.16675 3.61929 5.28604 2.5 6.66675 2.5C8.04746 2.5 9.16675 3.61929 9.16675 5V6.66667C9.16675 8.04738 8.04746 9.16667 6.66675 9.16667C5.28604 9.16667 4.16675 8.04738 4.16675 6.66667V5Z" fill="black"/>
<path fill-rule="evenodd" clip-rule="evenodd" d="M4.16675 16.6666C4.16675 16.2063 4.53984 15.8333 5.00008 15.8333H8.33342C8.79365 15.8333 9.16675 16.2063 9.16675 16.6666C9.16675 17.1268 8.79365 17.4999 8.33342 17.4999H5.00008C4.53984 17.4999 4.16675 17.1268 4.16675 16.6666Z" fill="black"/>
<path fill-rule="evenodd" clip-rule="evenodd" d="M10.8333 8.33333C10.8333 7.8731 11.2063 7.5 11.6666 7.5H14.9999C15.4602 7.5 15.8333 7.8731 15.8333 8.33333C15.8333 8.79357 15.4602 9.16667 14.9999 9.16667H11.6666C11.2063 9.16667 10.8333 8.79357 10.8333 8.33333Z" fill="black"/>
<path fill-rule="evenodd" clip-rule="evenodd" d="M4.16675 11.6666C4.16675 11.2063 4.53984 10.8333 5.00008 10.8333H6.66675C7.12699 10.8333 7.50008 11.2063 7.50008 11.6666V16.6666C7.50008 17.1268 7.12699 17.4999 6.66675 17.4999C6.20651 17.4999 5.83341 17.1268 5.83341 16.6666V12.4999H5.00008C4.53984 12.4999 4.16675 12.1268 4.16675 11.6666Z" fill="black"/>
<path fill-rule="evenodd" clip-rule="evenodd" d="M10.8333 3.33333C10.8333 2.8731 11.2063 2.5 11.6666 2.5H13.3333C13.7935 2.5 14.1666 2.8731 14.1666 3.33333V8.33333C14.1666 8.79357 13.7935 9.16667 13.3333 9.16667C12.873 9.16667 12.4999 8.79357 12.4999 8.33333V4.16667H11.6666C11.2063 4.16667 10.8333 3.79357 10.8333 3.33333Z" fill="black"/>
</svg>
