<svg width="20" height="20" viewBox="0 0 20 20" fill="none" xmlns="http://www.w3.org/2000/svg">
<path fill-rule="evenodd" clip-rule="evenodd" d="M7.5 8.33333C7.5 7.8731 7.8731 7.5 8.33333 7.5H11.6667C12.1269 7.5 12.5 7.8731 12.5 8.33333C12.5 8.79357 12.1269 9.16667 11.6667 9.16667H8.33333C7.8731 9.16667 7.5 8.79357 7.5 8.33333Z" fill="black"/>
<path fill-rule="evenodd" clip-rule="evenodd" d="M12.1549 2.1549C12.4675 1.84234 12.8914 1.66675 13.3334 1.66675H15.0001C15.4421 1.66675 15.866 1.84234 16.1786 2.1549C16.4912 2.46747 16.6667 2.89139 16.6667 3.33341V5.83342C16.6667 6.29365 16.2937 6.66675 15.8334 6.66675C15.3732 6.66675 15.0001 6.29365 15.0001 5.83342V3.33341H13.3334L13.3334 5.83342C13.3334 6.29365 12.9603 6.66675 12.5001 6.66675C12.0398 6.66675 11.6667 6.29365 11.6667 5.83342V3.33341C11.6667 2.89139 11.8423 2.46746 12.1549 2.1549Z" fill="black"/>
<path fill-rule="evenodd" clip-rule="evenodd" d="M11.3214 5.48816C11.634 5.1756 12.0579 5 12.4999 5H15.8333C16.2753 5 16.6992 5.17559 17.0118 5.48816C17.3243 5.80072 17.4999 6.22464 17.4999 6.66667V8.6C17.4999 9.10559 17.7748 9.62852 18.2066 10.3195C18.2348 10.3646 18.2638 10.4107 18.2934 10.4578C18.4688 10.7367 18.6644 11.0477 18.817 11.3504C18.9958 11.7053 19.1666 12.1427 19.1666 12.6242V15.8333C19.1666 16.4964 18.9032 17.1323 18.4344 17.6011C17.9655 18.0699 17.3296 18.3333 16.6666 18.3333H13.3333C12.6702 18.3333 12.0343 18.0699 11.5655 17.6011C11.0966 17.1323 10.8333 16.4964 10.8333 15.8333V6.66667C10.8333 6.22464 11.0088 5.80072 11.3214 5.48816ZM15.8333 6.66667H12.4999L12.4999 15.8333C12.4999 16.0543 12.5877 16.2663 12.744 16.4226C12.9003 16.5789 13.1122 16.6667 13.3333 16.6667H16.6666C16.8876 16.6667 17.0996 16.5789 17.2558 16.4226C17.4121 16.2663 17.4999 16.0543 17.4999 15.8333V12.6242C17.4999 12.5264 17.4623 12.3658 17.3287 12.1006C17.2146 11.8742 17.0677 11.6402 16.8899 11.357C16.8586 11.3072 16.8264 11.2558 16.7932 11.2028C16.3917 10.5602 15.8333 9.65024 15.8333 8.6L15.8333 6.66667Z" fill="black"/>
<path fill-rule="evenodd" clip-rule="evenodd" d="M0.833252 13.3333C0.833252 12.8731 1.20635 12.5 1.66659 12.5H18.3333C18.7935 12.5 19.1666 12.8731 19.1666 13.3333C19.1666 13.7936 18.7935 14.1667 18.3333 14.1667H1.66659C1.20635 14.1667 0.833252 13.7936 0.833252 13.3333Z" fill="black"/>
<path fill-rule="evenodd" clip-rule="evenodd" d="M2.98807 5.48816C3.30063 5.1756 3.72456 5 4.16658 5H7.49992C7.94195 5 8.36587 5.1756 8.67843 5.48816C8.99099 5.80072 9.16658 6.22464 9.16658 6.66667V15.8333C9.16658 16.4964 8.90319 17.1323 8.43435 17.6011C7.96551 18.0699 7.32963 18.3333 6.66658 18.3333H3.33325C2.67021 18.3333 2.03433 18.0699 1.56548 17.6011C1.09664 17.1323 0.833252 16.4964 0.833252 15.8333V12.6242C0.833252 12.1427 1.004 11.7053 1.18284 11.3504C1.33544 11.0477 1.53104 10.7367 1.70643 10.4578C1.73604 10.4107 1.76507 10.3646 1.79322 10.3195C2.22504 9.62852 2.49992 9.10559 2.49992 8.6V6.66667C2.49992 6.22464 2.67551 5.80072 2.98807 5.48816ZM7.49992 6.66667L4.16659 6.66667L4.16658 8.6C4.16658 9.65024 3.60814 10.5602 3.20661 11.2028C3.17345 11.2558 3.14123 11.3072 3.10996 11.357C2.93217 11.6402 2.78524 11.8742 2.67116 12.1006C2.5375 12.3658 2.49992 12.5264 2.49992 12.6242V15.8333C2.49992 16.0543 2.58772 16.2663 2.744 16.4226C2.90028 16.5789 3.11224 16.6667 3.33325 16.6667H6.66658C6.8876 16.6667 7.09956 16.5789 7.25584 16.4226C7.41212 16.2663 7.49992 16.0543 7.49992 15.8333V6.66667Z" fill="black"/>
<path fill-rule="evenodd" clip-rule="evenodd" d="M3.82141 2.1549C4.13397 1.84234 4.55789 1.66675 4.99992 1.66675H6.66659C7.10861 1.66675 7.53254 1.84234 7.8451 2.1549C8.15766 2.46746 8.33325 2.89139 8.33325 3.33341V5.83342C8.33325 6.29365 7.96016 6.66675 7.49992 6.66675C7.03968 6.66675 6.66659 6.29365 6.66659 5.83342V3.33341H4.99992L4.99992 5.83342C4.99992 6.29365 4.62682 6.66675 4.16659 6.66675C3.70635 6.66675 3.33325 6.29365 3.33325 5.83342V3.33341C3.33325 2.89139 3.50885 2.46746 3.82141 2.1549Z" fill="black"/>
</svg>
