<svg width="20" height="20" viewBox="0 0 20 20" fill="none" xmlns="http://www.w3.org/2000/svg">
<path fill-rule="evenodd" clip-rule="evenodd" d="M10 9.08341C9.53976 9.08341 9.16667 9.45651 9.16667 9.91675C9.16667 10.377 9.53976 10.7501 10 10.7501C10.4602 10.7501 10.8333 10.377 10.8333 9.91675C10.8333 9.45651 10.4602 9.08341 10 9.08341ZM7.5 9.91675C7.5 8.53604 8.61929 7.41675 10 7.41675C11.3807 7.41675 12.5 8.53604 12.5 9.91675C12.5 11.2975 11.3807 12.4167 10 12.4167C8.61929 12.4167 7.5 11.2975 7.5 9.91675Z" fill="black"/>
<path fill-rule="evenodd" clip-rule="evenodd" d="M5.86553 2.04924C6.29857 2.20513 6.52323 2.68255 6.36734 3.11558C5.74848 4.83465 6.36064 6.68808 7.88605 7.72813C8.24383 7.97207 8.35516 8.44938 8.14222 8.82644C7.92928 9.20349 7.46304 9.35463 7.06939 9.1742C5.40219 8.41007 3.47198 8.82938 2.30155 10.2064C2.00348 10.557 1.47757 10.5997 1.12689 10.3016C0.776222 10.0035 0.733581 9.47762 1.03165 9.12694C2.09375 7.87741 3.59379 7.18908 5.14689 7.13338C4.39604 5.76681 4.23504 4.11815 4.7992 2.55105C4.95509 2.11802 5.4325 1.89335 5.86553 2.04924Z" fill="black"/>
<path fill-rule="evenodd" clip-rule="evenodd" d="M6.69319 8.00328C6.92153 7.60368 7.43058 7.46485 7.83018 7.69319L8.99684 8.35986C9.39644 8.5882 9.53527 9.09724 9.30693 9.49684C9.07859 9.89644 8.56954 10.0353 8.16995 9.80693L7.00328 9.14026C6.60368 8.91192 6.46485 8.40288 6.69319 8.00328Z" fill="black"/>
<path fill-rule="evenodd" clip-rule="evenodd" d="M14.1345 2.04924C14.5675 1.89335 15.0449 2.11802 15.2008 2.55105C15.7572 4.09644 15.6083 5.72115 14.884 7.07642C16.4344 7.1264 17.9275 7.84083 18.9811 9.14232C19.2707 9.50003 19.2155 10.0248 18.8578 10.3144C18.5 10.6039 17.9753 10.5487 17.6857 10.191C16.5153 8.74512 14.6064 8.33686 12.9561 9.16201C12.5639 9.35809 12.0869 9.21674 11.8649 8.83867C11.6428 8.46059 11.7517 7.97513 12.114 7.72813C13.6394 6.68808 14.2515 4.83465 13.6327 3.11558C13.4768 2.68255 13.7015 2.20513 14.1345 2.04924Z" fill="black"/>
<path fill-rule="evenodd" clip-rule="evenodd" d="M13.3069 8.00328C13.5353 8.40288 13.3964 8.91192 12.9968 9.14026L11.8302 9.80693C11.4306 10.0353 10.9215 9.89644 10.6932 9.49684C10.4649 9.09724 10.6037 8.5882 11.0033 8.35986L12.1699 7.69319C12.5695 7.46485 13.0786 7.60368 13.3069 8.00328Z" fill="black"/>
<path fill-rule="evenodd" clip-rule="evenodd" d="M10.0164 12.0834C10.4582 12.0922 10.8163 12.4442 10.8326 12.8857C10.9011 14.7342 12.2694 16.2367 14.0433 16.5096C14.4981 16.5796 14.8102 17.0051 14.7402 17.46C14.6702 17.9149 14.2447 18.2269 13.7898 18.1569C12.1665 17.9071 10.7822 16.9452 9.96177 15.5984C9.1457 16.8854 7.81937 17.826 6.20992 18.0736C5.75504 18.1435 5.32955 17.8315 5.25956 17.3766C5.18958 16.9218 5.50161 16.4963 5.95649 16.4263C7.71392 16.1559 9.02992 14.6606 9.16899 12.8527C9.20288 12.4121 9.57469 12.0746 10.0164 12.0834Z" fill="black"/>
<path fill-rule="evenodd" clip-rule="evenodd" d="M10.0001 10.75C10.4603 10.75 10.8334 11.1231 10.8334 11.5833V12.9167C10.8334 13.3769 10.4603 13.75 10.0001 13.75C9.53984 13.75 9.16675 13.3769 9.16675 12.9167V11.5833C9.16675 11.1231 9.53984 10.75 10.0001 10.75Z" fill="black"/>
<path fill-rule="evenodd" clip-rule="evenodd" d="M8.58657 3.68293C9.52779 3.49469 10.4722 3.49469 11.4134 3.68293C11.8647 3.77319 12.1574 4.21221 12.0671 4.66351C11.9769 5.11481 11.5379 5.40749 11.0866 5.31723C10.3611 5.17214 9.63888 5.17214 8.91343 5.31723C8.46213 5.40749 8.02311 5.11481 7.93285 4.66351C7.84259 4.21221 8.13527 3.77319 8.58657 3.68293Z" fill="black"/>
<path fill-rule="evenodd" clip-rule="evenodd" d="M15.6801 10.7927C16.1167 10.9383 16.3527 11.4102 16.2072 11.8468C15.9245 12.6948 15.4475 13.5643 14.7558 14.2559C14.4304 14.5813 13.9028 14.5813 13.5773 14.2559C13.2519 13.9305 13.2519 13.4028 13.5773 13.0774C14.0524 12.6024 14.4087 11.9718 14.626 11.3198C14.7716 10.8832 15.2435 10.6472 15.6801 10.7927Z" fill="black"/>
<path fill-rule="evenodd" clip-rule="evenodd" d="M4.31979 10.7927C4.75641 10.6472 5.22834 10.8832 5.37388 11.3198C5.59123 11.9718 5.94754 12.6024 6.42257 13.0774C6.74801 13.4028 6.74801 13.9305 6.42257 14.2559C6.09713 14.5813 5.5695 14.5813 5.24406 14.2559C4.55243 13.5643 4.0754 12.6948 3.79275 11.8468C3.64721 11.4102 3.88317 10.9383 4.31979 10.7927Z" fill="black"/>
</svg>
