<svg width="20" height="20" viewBox="0 0 20 20" fill="none" xmlns="http://www.w3.org/2000/svg">
<path fill-rule="evenodd" clip-rule="evenodd" d="M12.5 5.83333C12.5 5.3731 12.8731 5 13.3333 5H13.3417C13.8019 5 14.175 5.3731 14.175 5.83333C14.175 6.29357 13.8019 6.66667 13.3417 6.66667H13.3333C12.8731 6.66667 12.5 6.29357 12.5 5.83333Z" fill="black"/>
<path fill-rule="evenodd" clip-rule="evenodd" d="M11.9922 1.87969C12.8326 1.594 13.7422 1.58414 14.5886 1.85153C15.4349 2.11892 16.1738 2.64961 16.6975 3.36625C17.2209 4.08256 17.5021 4.94724 17.5 5.83441V8.33343C17.5 10.3226 16.7098 12.2302 15.3033 13.6367C13.8968 15.0433 11.9891 15.8334 9.99999 15.8334H3.26806L2.34914 17.1449C2.08505 17.5219 1.5654 17.6133 1.18847 17.3492C0.811547 17.0852 0.720079 16.5655 0.984173 16.1886L2.12814 14.5559C2.14245 14.5332 2.15782 14.5113 2.17419 14.4901L9.91665 3.4398C9.91682 3.43956 9.91698 3.43933 9.91715 3.43909C10.4251 2.71161 11.1521 2.16529 11.9922 1.87969ZM4.43582 14.1668H9.99999C11.5471 14.1668 13.0308 13.5522 14.1248 12.4582C15.2187 11.3643 15.8333 9.88053 15.8333 8.33343V5.83343L15.8333 5.83123C15.8347 5.29867 15.666 4.77958 15.3518 4.3496C15.0376 3.91961 14.5943 3.6012 14.0865 3.44077C13.5787 3.28033 13.0329 3.28625 12.5287 3.45767C12.0244 3.62908 11.5881 3.95703 11.2833 4.39373L4.43582 14.1668Z" fill="black"/>
<path fill-rule="evenodd" clip-rule="evenodd" d="M15.8583 5.63117C15.97 5.18468 16.4224 4.91321 16.8689 5.02483L18.5356 5.4415C18.9065 5.53424 19.1668 5.86756 19.1668 6.24995C19.1668 6.63234 18.9065 6.96566 18.5356 7.0584L16.8689 7.47507C16.4224 7.5867 15.97 7.31523 15.8583 6.86873C15.8037 6.65038 15.8408 6.4306 15.9451 6.24995C15.8408 6.06931 15.8037 5.84953 15.8583 5.63117Z" fill="black"/>
<path fill-rule="evenodd" clip-rule="evenodd" d="M8.33333 14.1667C8.79357 14.1667 9.16667 14.5398 9.16667 15.0001V17.5001C9.16667 17.9603 8.79357 18.3334 8.33333 18.3334C7.8731 18.3334 7.5 17.9603 7.5 17.5001V15.0001C7.5 14.5398 7.8731 14.1667 8.33333 14.1667Z" fill="black"/>
<path fill-rule="evenodd" clip-rule="evenodd" d="M11.6666 13.9583C12.1268 13.9583 12.4999 14.3313 12.4999 14.7916V17.4999C12.4999 17.9602 12.1268 18.3333 11.6666 18.3333C11.2063 18.3333 10.8333 17.9602 10.8333 17.4999V14.7916C10.8333 14.3313 11.2063 13.9583 11.6666 13.9583Z" fill="black"/>
<path fill-rule="evenodd" clip-rule="evenodd" d="M8.39306 5.62493C8.68763 5.27131 9.21309 5.22345 9.56671 5.51803C10.4878 6.28536 11.1502 7.31787 11.4636 8.47505C11.777 9.63223 11.7262 10.8579 11.3182 11.9852C10.9102 13.1125 10.1648 14.0867 9.18339 14.7752C8.20197 15.4638 7.03224 15.8332 5.83337 15.8333C5.37314 15.8333 5.00002 15.4602 5 15C4.99998 14.5398 5.37305 14.1667 5.83329 14.1666C6.68962 14.1666 7.52515 13.9027 8.22616 13.4109C8.92717 12.9191 9.45962 12.2232 9.75104 11.418C10.0425 10.6128 10.0787 9.7373 9.85486 8.91074C9.631 8.08419 9.15791 7.34668 8.49996 6.79858C8.14634 6.50401 8.09848 5.97855 8.39306 5.62493Z" fill="black"/>
</svg>
