<svg width="20" height="20" viewBox="0 0 20 20" fill="none" xmlns="http://www.w3.org/2000/svg">
<path fill-rule="evenodd" clip-rule="evenodd" d="M8.983 1.37682C9.43624 1.45674 9.73887 1.88896 9.65895 2.3422L9.51415 3.16332L11.1559 3.45283L11.301 2.63169C11.381 2.17847 11.8134 1.87596 12.2666 1.95603C12.7198 2.03609 13.0223 2.4684 12.9422 2.92162L12.7851 3.81135C13.6136 4.11154 14.2507 4.62049 14.6768 5.26158C15.224 6.08494 15.385 7.06897 15.2247 7.97792C15.0644 8.88687 14.5766 9.75647 13.7808 10.343C13.647 10.4416 13.506 10.5311 13.3583 10.6108C13.4696 10.736 13.5712 10.868 13.663 11.0062C14.2101 11.8296 14.3709 12.8136 14.2106 13.7226C14.0503 14.6315 13.5624 15.5011 12.7667 16.0876C12.1474 16.5441 11.3751 16.8045 10.4945 16.8036L10.3382 17.6933C10.2586 18.1466 9.82659 18.4495 9.37329 18.3699C8.91999 18.2903 8.61706 17.8583 8.69667 17.405L8.84096 16.5835L7.19871 16.2938L7.05395 17.1147C6.97402 17.5679 6.5418 17.8706 6.08856 17.7907C5.63532 17.7107 5.33268 17.2785 5.41261 16.8253L5.55738 16.0043L4.73851 15.8598C4.28527 15.7799 3.98266 15.3476 4.06261 14.8944C4.14257 14.4411 4.5748 14.1385 5.02804 14.2185L5.84682 14.3629L7.58337 4.51522L6.76356 4.37066C6.31032 4.29073 6.00768 3.85851 6.08761 3.40527C6.16753 2.95202 6.59975 2.64939 7.053 2.72932L7.87281 2.87388L8.01761 2.05277C8.09753 1.59952 8.52975 1.29689 8.983 1.37682ZM9.22472 4.80466L8.50115 8.90789L10.9645 9.34179L10.9648 9.34183C11.7869 9.48693 12.3841 9.302 12.792 9.00138C13.212 8.69178 13.4904 8.21571 13.5833 7.68851C13.6763 7.16131 13.5775 6.61873 13.2887 6.1841C13.0097 5.76432 12.5155 5.38802 11.7011 5.24137C11.6963 5.2406 11.6915 5.2398 11.6866 5.23895C11.6816 5.23805 11.6765 5.23711 11.6715 5.23612L9.22472 4.80466ZM8.21171 10.5492L7.48814 14.6525L9.95045 15.0868C10.7726 15.2317 11.3698 15.0467 11.7778 14.746C12.1979 14.4364 12.4763 13.9603 12.5693 13.433C12.6623 12.9058 12.5636 12.3632 12.2748 11.9285C11.9944 11.5064 11.4965 11.1282 10.6743 10.9831C10.6692 10.9822 10.6642 10.9813 10.6591 10.9803L8.21171 10.5492Z" fill="black"/>
</svg>
