<svg width="20" height="20" viewBox="0 0 20 20" fill="none" xmlns="http://www.w3.org/2000/svg">
<g clip-path="url(#clip0_2001_4668)">
<path fill-rule="evenodd" clip-rule="evenodd" d="M7.49992 2.49992C4.73849 2.49992 2.49992 4.73849 2.49992 7.49992C2.49992 10.2613 4.73849 12.4999 7.49992 12.4999C10.2613 12.4999 12.4999 10.2613 12.4999 7.49992C12.4999 4.73849 10.2613 2.49992 7.49992 2.49992ZM0.833252 7.49992C0.833252 3.81802 3.81802 0.833252 7.49992 0.833252C11.1818 0.833252 14.1666 3.81802 14.1666 7.49992C14.1666 11.1818 11.1818 14.1666 7.49992 14.1666C3.81802 14.1666 0.833252 11.1818 0.833252 7.49992Z" fill="black"/>
<path fill-rule="evenodd" clip-rule="evenodd" d="M12.4999 7.49992C9.73849 7.49992 7.49992 9.73849 7.49992 12.4999C7.49992 15.2613 9.73849 17.4999 12.4999 17.4999C15.2613 17.4999 17.4999 15.2613 17.4999 12.4999C17.4999 9.73849 15.2613 7.49992 12.4999 7.49992ZM5.83325 12.4999C5.83325 8.81802 8.81802 5.83325 12.4999 5.83325C16.1818 5.83325 19.1666 8.81802 19.1666 12.4999C19.1666 16.1818 16.1818 19.1666 12.4999 19.1666C8.81802 19.1666 5.83325 16.1818 5.83325 12.4999Z" fill="black"/>
</g>
<defs>
<clipPath id="clip0_2001_4668">
<rect width="20" height="20" fill="white"/>
</clipPath>
</defs>
</svg>
