<svg width="20" height="20" viewBox="0 0 20 20" fill="none" xmlns="http://www.w3.org/2000/svg">
<path fill-rule="evenodd" clip-rule="evenodd" d="M1.66675 2.50008C1.66675 2.03984 2.03984 1.66675 2.50008 1.66675H17.5001C17.9603 1.66675 18.3334 2.03984 18.3334 2.50008C18.3334 2.96032 17.9603 3.33341 17.5001 3.33341H2.50008C2.03984 3.33341 1.66675 2.96032 1.66675 2.50008Z" fill="black"/>
<path fill-rule="evenodd" clip-rule="evenodd" d="M5.83325 5.83333C5.83325 5.3731 6.20635 5 6.66659 5H16.6666C17.1268 5 17.4999 5.3731 17.4999 5.83333C17.4999 6.29357 17.1268 6.66667 16.6666 6.66667H6.66659C6.20635 6.66667 5.83325 6.29357 5.83325 5.83333Z" fill="black"/>
<path fill-rule="evenodd" clip-rule="evenodd" d="M5.83325 9.16659C5.83325 8.70635 6.20635 8.33325 6.66659 8.33325H16.6666C17.1268 8.33325 17.4999 8.70635 17.4999 9.16659C17.4999 9.62682 17.1268 9.99992 16.6666 9.99992H6.66659C6.20635 9.99992 5.83325 9.62682 5.83325 9.16659Z" fill="black"/>
<path fill-rule="evenodd" clip-rule="evenodd" d="M7.5 15.8333C7.5 15.3731 7.8731 15 8.33333 15H16.6667C17.1269 15 17.5 15.3731 17.5 15.8333C17.5 16.2936 17.1269 16.6667 16.6667 16.6667H8.33333C7.8731 16.6667 7.5 16.2936 7.5 15.8333Z" fill="black"/>
<path fill-rule="evenodd" clip-rule="evenodd" d="M5.83325 12.5001C5.83325 12.0398 6.20635 11.6667 6.66659 11.6667H16.6666C17.1268 11.6667 17.4999 12.0398 17.4999 12.5001C17.4999 12.9603 17.1268 13.3334 16.6666 13.3334H6.66659C6.20635 13.3334 5.83325 12.9603 5.83325 12.5001Z" fill="black"/>
<path fill-rule="evenodd" clip-rule="evenodd" d="M3.33333 1.66675C3.79357 1.66675 4.16667 2.03984 4.16667 2.50008V14.1667C4.16667 14.627 3.79357 15.0001 3.33333 15.0001C2.8731 15.0001 2.5 14.627 2.5 14.1667V2.50008C2.5 2.03984 2.8731 1.66675 3.33333 1.66675Z" fill="black"/>
<path fill-rule="evenodd" clip-rule="evenodd" d="M3.33325 14.9999C2.87301 14.9999 2.49992 15.373 2.49992 15.8333C2.49992 16.2935 2.87301 16.6666 3.33325 16.6666C3.79349 16.6666 4.16659 16.2935 4.16659 15.8333C4.16659 15.373 3.79349 14.9999 3.33325 14.9999ZM0.833252 15.8333C0.833252 14.4525 1.95254 13.3333 3.33325 13.3333C4.71396 13.3333 5.83325 14.4525 5.83325 15.8333C5.83325 17.214 4.71396 18.3333 3.33325 18.3333C1.95254 18.3333 0.833252 17.214 0.833252 15.8333Z" fill="black"/>
</svg>
