<svg width="20" height="20" viewBox="0 0 20 20" fill="none" xmlns="http://www.w3.org/2000/svg">
<path fill-rule="evenodd" clip-rule="evenodd" d="M12.4999 3.33341V7.50008H16.6666V3.33341H12.4999ZM10.8333 3.33341C10.8333 2.41294 11.5794 1.66675 12.4999 1.66675H16.6666C17.5871 1.66675 18.3333 2.41294 18.3333 3.33341V7.50008C18.3333 8.42056 17.5871 9.16675 16.6666 9.16675H12.4999C11.5794 9.16675 10.8333 8.42056 10.8333 7.50008V3.33341Z" fill="black"/>
<path fill-rule="evenodd" clip-rule="evenodd" d="M2.1549 5.48816C2.46746 5.1756 2.89139 5 3.33341 5H7.50008C7.94211 5 8.36603 5.1756 8.67859 5.48816C8.99115 5.80072 9.16675 6.22464 9.16675 6.66667V10.8333H13.3334C13.7754 10.8333 14.1994 11.0089 14.5119 11.3215C14.8245 11.634 15.0001 12.058 15.0001 12.5V16.6667C15.0001 17.1087 14.8245 17.5326 14.5119 17.8452C14.1994 18.1577 13.7754 18.3333 13.3334 18.3333H3.33341C2.89139 18.3333 2.46747 18.1577 2.1549 17.8452C1.84234 17.5326 1.66675 17.1087 1.66675 16.6667V6.66667C1.66675 6.22464 1.84234 5.80072 2.1549 5.48816ZM3.33341 12.5V16.6667H7.50008V12.5H3.33341ZM7.50008 10.8333H3.33341V6.66667L7.50008 6.66667V10.8333ZM9.16675 12.5V16.6667H13.3334V12.5H9.16675Z" fill="black"/>
</svg>
