<svg width="20" height="20" viewBox="0 0 20 20" fill="none" xmlns="http://www.w3.org/2000/svg">
<path fill-rule="evenodd" clip-rule="evenodd" d="M9.6811 0.89671C9.99249 0.767726 10.3509 0.839022 10.5893 1.07735L14.7559 5.24402C15.0814 5.56946 15.0814 6.0971 14.7559 6.42253L11.1785 9.99994L14.7559 13.5774C15.0814 13.9028 15.0814 14.4304 14.7559 14.7559L10.5893 18.9225C10.3509 19.1609 9.99249 19.2322 9.6811 19.1032C9.3697 18.9742 9.16667 18.6703 9.16667 18.3333V12.0118L6.42259 14.7559C6.09715 15.0813 5.56951 15.0813 5.24408 14.7559C4.91864 14.4304 4.91864 13.9028 5.24408 13.5774L8.82149 9.99994L5.24408 6.42253C4.91864 6.0971 4.91864 5.56946 5.24408 5.24402C5.56951 4.91858 6.09715 4.91858 6.42259 5.24402L9.16667 7.9881V1.66661C9.16667 1.32956 9.3697 1.02569 9.6811 0.89671ZM10.8333 12.0118L12.9882 14.1666L10.8333 16.3214V12.0118ZM10.8333 7.9881V3.67845L12.9882 5.83328L10.8333 7.9881Z" fill="black"/>
<path fill-rule="evenodd" clip-rule="evenodd" d="M16.7687 7.05276C17.0939 6.72714 17.6215 6.72684 17.9472 7.0521C18.3346 7.43907 18.6419 7.89861 18.8516 8.40443C19.0613 8.91026 19.1692 9.45245 19.1692 10C19.1692 10.5476 19.0613 11.0898 18.8516 11.5956C18.6419 12.1014 18.3346 12.561 17.9472 12.9479C17.6215 13.2732 17.0939 13.2729 16.7687 12.9473C16.4434 12.6217 16.4437 12.094 16.7693 11.7688C17.0017 11.5366 17.1861 11.2609 17.312 10.9574C17.4378 10.6539 17.5025 10.3286 17.5025 10C17.5025 9.67148 17.4378 9.34616 17.312 9.04267C17.1861 8.73917 17.0017 8.46345 16.7693 8.23127C16.4437 7.90601 16.4434 7.37837 16.7687 7.05276Z" fill="black"/>
<path fill-rule="evenodd" clip-rule="evenodd" d="M14.1667 10.0001C14.1667 9.53984 14.5398 9.16675 15.0001 9.16675H15.0084C15.4687 9.16675 15.8417 9.53984 15.8417 10.0001C15.8417 10.4603 15.4687 10.8334 15.0084 10.8334H15.0001C14.5398 10.8334 14.1667 10.4603 14.1667 10.0001Z" fill="black"/>
</svg>
