<svg width="20" height="20" viewBox="0 0 20 20" fill="none" xmlns="http://www.w3.org/2000/svg">
<g clip-path="url(#clip0_2001_4686)">
<path fill-rule="evenodd" clip-rule="evenodd" d="M10.3189 9.23021C10.6303 9.35919 10.8333 9.66305 10.8333 10.0001V16.3216L13.5774 13.5775C13.9028 13.2521 14.4305 13.2521 14.7559 13.5775C15.0814 13.903 15.0814 14.4306 14.7559 14.756L10.5893 18.9227C10.3509 19.161 9.99249 19.2323 9.6811 19.1033C9.3697 18.9744 9.16667 18.6705 9.16667 18.3334V12.012L6.42259 14.756C6.09715 15.0815 5.56951 15.0815 5.24408 14.756C4.91864 14.4306 4.91864 13.903 5.24408 13.5775L9.41074 9.41085C9.64908 9.17252 10.0075 9.10122 10.3189 9.23021Z" fill="black"/>
<path fill-rule="evenodd" clip-rule="evenodd" d="M1.07733 1.07733C1.40277 0.751893 1.9304 0.751893 2.25584 1.07733L18.9225 17.744C19.2479 18.0694 19.2479 18.5971 18.9225 18.9225C18.5971 19.2479 18.0694 19.2479 17.744 18.9225L1.07733 2.25584C0.751893 1.9304 0.751893 1.40277 1.07733 1.07733Z" fill="black"/>
<path fill-rule="evenodd" clip-rule="evenodd" d="M9.68118 0.89671C9.99257 0.767726 10.351 0.839022 10.5893 1.07735L14.756 5.24402C15.0814 5.56946 15.0814 6.0971 14.756 6.42253L12.6727 8.50587C12.3472 8.8313 11.8196 8.8313 11.4942 8.50587C11.1687 8.18043 11.1687 7.65279 11.4942 7.32735L12.9882 5.83328L10.8334 3.67845V5.41661C10.8334 5.87685 10.4603 6.24994 10.0001 6.24994C9.53984 6.24994 9.16675 5.87685 9.16675 5.41661V1.66661C9.16675 1.32956 9.36978 1.02569 9.68118 0.89671Z" fill="black"/>
</g>
<defs>
<clipPath id="clip0_2001_4686">
<rect width="20" height="20" fill="white"/>
</clipPath>
</defs>
</svg>
