<svg width="20" height="20" viewBox="0 0 20 20" fill="none" xmlns="http://www.w3.org/2000/svg">
<path fill-rule="evenodd" clip-rule="evenodd" d="M9.6811 0.89671C9.99249 0.767726 10.3509 0.839022 10.5893 1.07735L14.7559 5.24402C15.0814 5.56946 15.0814 6.0971 14.7559 6.42253L11.1785 9.99994L14.7559 13.5774C15.0814 13.9028 15.0814 14.4304 14.7559 14.7559L10.5893 18.9225C10.3509 19.1609 9.99249 19.2322 9.6811 19.1032C9.3697 18.9742 9.16667 18.6703 9.16667 18.3333V12.0118L6.42259 14.7559C6.09715 15.0813 5.56951 15.0813 5.24408 14.7559C4.91864 14.4304 4.91864 13.9028 5.24408 13.5774L8.82149 9.99994L5.24408 6.42253C4.91864 6.0971 4.91864 5.56946 5.24408 5.24402C5.56951 4.91858 6.09715 4.91858 6.42259 5.24402L9.16667 7.9881V1.66661C9.16667 1.32956 9.3697 1.02569 9.6811 0.89671ZM10.8333 12.0118L12.9882 14.1666L10.8333 16.3214V12.0118ZM10.8333 7.9881V3.67845L12.9882 5.83328L10.8333 7.9881Z" fill="black"/>
</svg>
