<svg width="20" height="20" viewBox="0 0 20 20" fill="none" xmlns="http://www.w3.org/2000/svg">
<path fill-rule="evenodd" clip-rule="evenodd" d="M4.6549 2.98816C4.96746 2.6756 5.39139 2.5 5.83341 2.5H11.6667C12.7718 2.5 13.8316 2.93899 14.613 3.72039C15.3944 4.50179 15.8334 5.5616 15.8334 6.66667C15.8334 7.77174 15.3944 8.83154 14.613 9.61295C14.5855 9.64047 14.5576 9.66757 14.5294 9.69425C14.8627 9.88009 15.1717 10.1124 15.4464 10.3871C16.2278 11.1685 16.6667 12.2283 16.6667 13.3333C16.6667 14.4384 16.2278 15.4982 15.4464 16.2796C14.665 17.061 13.6052 17.5 12.5001 17.5H5.83341C5.39139 17.5 4.96747 17.3244 4.6549 17.0118C4.34234 16.6993 4.16675 16.2754 4.16675 15.8333V4.16667C4.16675 3.72464 4.34234 3.30072 4.6549 2.98816ZM5.83341 10.8333V15.8333H12.5001C13.1631 15.8333 13.799 15.5699 14.2678 15.1011C14.7367 14.6323 15.0001 13.9964 15.0001 13.3333C15.0001 12.6703 14.7367 12.0344 14.2678 11.5656C13.799 11.0967 13.1631 10.8333 12.5001 10.8333H5.83341ZM11.6667 9.16667H5.83341L5.83342 4.16667L11.6667 4.16667C12.3298 4.16667 12.9657 4.43006 13.4345 4.8989C13.9034 5.36774 14.1667 6.00363 14.1667 6.66667C14.1667 7.32971 13.9034 7.96559 13.4345 8.43443C12.9657 8.90328 12.3298 9.16667 11.6667 9.16667Z" fill="black"/>
</svg>
