<svg width="20" height="20" viewBox="0 0 20 20" fill="none" xmlns="http://www.w3.org/2000/svg">
<path fill-rule="evenodd" clip-rule="evenodd" d="M8.75185 1.16912C9.13147 0.950362 9.56192 0.835205 10.0001 0.835205C10.4382 0.835205 10.8687 0.950362 11.2483 1.16912C11.2489 1.16946 11.2495 1.1698 11.2501 1.17014L17.0802 4.50163C17.0813 4.50224 17.0823 4.50286 17.0834 4.50347C17.4631 4.72268 17.7784 5.03787 17.9978 5.41743C18.2172 5.79699 18.333 6.22757 18.3334 6.66597V13.3344C18.333 13.7728 18.2172 14.2033 17.9978 14.5829C17.7784 14.9625 17.4631 15.2776 17.0834 15.4969C17.0823 15.4975 17.0813 15.4981 17.0802 15.4987L11.2501 18.8302C11.2495 18.8305 11.249 18.8308 11.2485 18.8311C10.8688 19.0499 10.4383 19.1651 10.0001 19.1651C9.56186 19.1651 9.13134 19.0499 8.75169 18.8311C8.75115 18.8308 8.75062 18.8305 8.75008 18.8302L2.91997 15.4987C2.91889 15.4981 2.91782 15.4975 2.91675 15.4969C2.53708 15.2776 2.22172 14.9625 2.00232 14.5829C1.78293 14.2033 1.6672 13.7728 1.66675 13.3344V6.66597C1.6672 6.22757 1.78293 5.79699 2.00232 5.41743C2.22172 5.03787 2.53708 4.72268 2.91675 4.50347C2.91782 4.50286 2.91889 4.50224 2.91997 4.50163L8.75185 1.16912ZM10.0001 2.50187C9.8538 2.50187 9.7101 2.54038 9.58341 2.61352C9.58234 2.61414 9.58127 2.61475 9.5802 2.61537L3.74876 5.94762C3.62279 6.02065 3.51815 6.12542 3.44527 6.2515C3.3722 6.37792 3.33363 6.52131 3.33341 6.66733V13.333C3.33363 13.479 3.3722 13.6224 3.44527 13.7488C3.51814 13.8749 3.62276 13.9796 3.7487 14.0527C3.74916 14.0529 3.74962 14.0532 3.75008 14.0535L9.5802 17.385C9.58127 17.3856 9.58234 17.3862 9.58341 17.3868C9.7101 17.4599 9.8538 17.4985 10.0001 17.4985C10.1464 17.4985 10.2901 17.4599 10.4167 17.3868C10.4178 17.3862 10.4189 17.3856 10.42 17.385L16.2501 14.0535C16.2505 14.0532 16.251 14.053 16.2514 14.0527C16.3774 13.9797 16.482 13.8749 16.5549 13.7488C16.628 13.6223 16.6666 13.4788 16.6667 13.3326V6.66768C16.6666 6.52155 16.628 6.37802 16.5549 6.2515C16.482 6.12542 16.3774 6.02064 16.2514 5.9476C16.2509 5.94735 16.2505 5.9471 16.2501 5.94685L10.42 2.61537C10.4189 2.61475 10.4178 2.61414 10.4167 2.61352C10.2901 2.54038 10.1464 2.50187 10.0001 2.50187Z" fill="black"/>
<path fill-rule="evenodd" clip-rule="evenodd" d="M9.99992 7.49992C8.61921 7.49992 7.49992 8.61921 7.49992 9.99992C7.49992 11.3806 8.61921 12.4999 9.99992 12.4999C11.3806 12.4999 12.4999 11.3806 12.4999 9.99992C12.4999 8.61921 11.3806 7.49992 9.99992 7.49992ZM5.83325 9.99992C5.83325 7.69873 7.69873 5.83325 9.99992 5.83325C12.3011 5.83325 14.1666 7.69873 14.1666 9.99992C14.1666 12.3011 12.3011 14.1666 9.99992 14.1666C7.69873 14.1666 5.83325 12.3011 5.83325 9.99992Z" fill="black"/>
</svg>
