<svg width="20" height="20" viewBox="0 0 20 20" fill="none" xmlns="http://www.w3.org/2000/svg">
<g clip-path="url(#clip0_2001_4701)">
<path fill-rule="evenodd" clip-rule="evenodd" d="M9.16658 4.16667C5.48469 4.16667 2.49992 7.15143 2.49992 10.8333C2.49992 14.5152 5.48469 17.5 9.16658 17.5C12.8485 17.5 15.8333 14.5152 15.8333 10.8333C15.8333 7.15143 12.8485 4.16667 9.16658 4.16667ZM0.833252 10.8333C0.833252 6.23096 4.56421 2.5 9.16658 2.5C13.769 2.5 17.4999 6.23096 17.4999 10.8333C17.4999 15.4357 13.769 19.1667 9.16658 19.1667C4.56421 19.1667 0.833252 15.4357 0.833252 10.8333Z" fill="black"/>
<path fill-rule="evenodd" clip-rule="evenodd" d="M14.1718 2.83996C14.1716 2.84017 14.1714 2.84038 14.1712 2.8406L12.5476 4.46417C12.2222 4.78961 11.6945 4.78961 11.3691 4.46417C11.0436 4.13874 11.0436 3.6111 11.3691 3.28566L12.9941 1.66066L12.9955 1.65924C13.528 1.12929 14.2487 0.831787 15 0.831787C15.7513 0.831787 16.472 1.12929 17.0045 1.65924L17.0059 1.66066L18.3382 2.99297C18.3384 2.99317 18.3386 2.99337 18.3388 2.99357C18.6027 3.25667 18.8121 3.56924 18.955 3.91337C19.098 4.25777 19.1716 4.62701 19.1716 4.99992C19.1716 5.37282 19.098 5.74206 18.955 6.08646C18.812 6.43065 18.6026 6.74326 18.3387 7.00639C18.3385 7.00655 18.3384 7.0067 18.3382 7.00686L16.7143 8.63084C16.3888 8.95628 15.8612 8.95628 15.5357 8.63084C15.2103 8.3054 15.2103 7.77776 15.5357 7.45233L17.1618 5.82631C17.2705 5.71792 17.3568 5.58913 17.4157 5.44732C17.4746 5.30551 17.5049 5.15347 17.5049 4.99992C17.5049 4.84637 17.4746 4.69433 17.4157 4.55252C17.3568 4.41071 17.2705 4.28192 17.1618 4.17353L15.8288 2.8406C15.8286 2.84039 15.8284 2.84019 15.8282 2.83998C15.6081 2.62124 15.3104 2.49845 15 2.49845C14.6897 2.49845 14.3919 2.62123 14.1718 2.83996Z" fill="black"/>
<path fill-rule="evenodd" clip-rule="evenodd" d="M18.9226 1.07733C19.248 1.40277 19.248 1.9304 18.9226 2.25584L17.6726 3.50584C17.3472 3.83128 16.8195 3.83128 16.4941 3.50584C16.1686 3.1804 16.1686 2.65277 16.4941 2.32733L17.7441 1.07733C18.0695 0.751893 18.5972 0.751893 18.9226 1.07733Z" fill="black"/>
</g>
<defs>
<clipPath id="clip0_2001_4701">
<rect width="20" height="20" fill="white"/>
</clipPath>
</defs>
</svg>
