<svg width="20" height="20" viewBox="0 0 20 20" fill="none" xmlns="http://www.w3.org/2000/svg">
<g clip-path="url(#clip0_2001_4705)">
<path fill-rule="evenodd" clip-rule="evenodd" d="M11.6875 1.68752C12.2345 1.14054 12.9764 0.833252 13.7499 0.833252C14.5235 0.833252 15.2653 1.14054 15.8123 1.68752C16.2664 2.14165 16.5553 2.7301 16.6403 3.35949C17.2697 3.44449 17.8582 3.7334 18.3123 4.18752C18.8593 4.73451 19.1666 5.47637 19.1666 6.24992C19.1666 7.02347 18.8593 7.76533 18.3123 8.31231C17.7653 8.85929 17.0235 9.16659 16.2499 9.16659C15.9729 9.16659 15.7114 9.10788 15.5186 9.05943C15.4335 9.03806 15.3633 9.01931 15.3006 9.00257C15.194 8.97411 15.1092 8.95146 15.01 8.93156C14.8699 8.90347 14.8034 8.90544 14.7757 8.90991C14.7744 8.91012 14.7734 8.91017 14.7725 8.91021C14.7689 8.91038 14.7679 8.91043 14.7558 8.92251L8.92251 14.7558C8.91043 14.7679 8.91038 14.7689 8.91021 14.7725C8.91017 14.7734 8.91012 14.7744 8.90991 14.7757C8.90544 14.8034 8.90347 14.8699 8.93156 15.01C8.95146 15.1092 8.97411 15.194 9.00257 15.3006C9.01931 15.3633 9.03806 15.4335 9.05943 15.5186C9.10788 15.7114 9.16659 15.9729 9.16659 16.2499C9.16659 17.0235 8.85929 17.7653 8.31231 18.3123C7.76533 18.8593 7.02347 19.1666 6.24992 19.1666C5.47637 19.1666 4.73451 18.8593 4.18752 18.3123C3.7334 17.8582 3.44449 17.2697 3.35949 16.6403C2.7301 16.5553 2.14165 16.2664 1.68752 15.8123C1.14054 15.2653 0.833252 14.5235 0.833252 13.7499C0.833252 12.9764 1.14054 12.2345 1.68752 11.6875C2.23451 11.1405 2.97637 10.8333 3.74992 10.8333C4.02698 10.8333 4.28842 10.892 4.48124 10.9404C4.56632 10.9618 4.63653 10.9805 4.69922 10.9973C4.80581 11.0257 4.89065 11.0484 4.98984 11.0683C5.12992 11.0964 5.1964 11.0944 5.22416 11.0899C5.22547 11.0897 5.22646 11.0897 5.2273 11.0896C5.23092 11.0895 5.23192 11.0894 5.244 11.0773L11.0773 5.244C11.0894 5.23192 11.0895 5.23092 11.0896 5.2273C11.0897 5.22646 11.0897 5.22547 11.0899 5.22416C11.0944 5.1964 11.0964 5.12992 11.0683 4.98984C11.0484 4.89065 11.0257 4.80581 10.9973 4.69922C10.9805 4.63653 10.9618 4.56632 10.9404 4.48124C10.892 4.28842 10.8333 4.02698 10.8333 3.74992C10.8333 2.97637 11.1405 2.23451 11.6875 1.68752ZM13.7499 2.49992C13.4184 2.49992 13.1005 2.63161 12.866 2.86604C12.6316 3.10046 12.4999 3.4184 12.4999 3.74992C12.4999 3.81036 12.5141 3.90517 12.5568 4.07511C12.566 4.11142 12.5779 4.15629 12.5912 4.20653C12.6267 4.34036 12.6724 4.5123 12.7024 4.66208C12.7928 5.11291 12.8489 5.82944 12.2558 6.42251L6.42251 12.2558C5.82944 12.8489 5.11291 12.7928 4.66208 12.7024C4.5123 12.6724 4.34036 12.6267 4.20653 12.5912C4.15629 12.5779 4.11142 12.566 4.07511 12.5568C3.90517 12.5141 3.81036 12.4999 3.74992 12.4999C3.4184 12.4999 3.10046 12.6316 2.86604 12.866C2.63161 13.1005 2.49992 13.4184 2.49992 13.7499C2.49992 14.0814 2.63161 14.3994 2.86604 14.6338C3.10046 14.8682 3.4184 14.9999 3.74992 14.9999C4.44349 14.9999 4.99992 15.5563 4.99992 16.2499C4.99992 16.5814 5.13161 16.8994 5.36603 17.1338C5.60046 17.3682 5.9184 17.4999 6.24992 17.4999C6.58144 17.4999 6.89938 17.3682 7.1338 17.1338C7.36822 16.8994 7.49992 16.5814 7.49992 16.2499C7.49992 16.1895 7.48571 16.0947 7.44301 15.9247C7.43388 15.8884 7.42197 15.8435 7.40864 15.7933C7.37312 15.6595 7.32748 15.4875 7.29744 15.3378C7.20702 14.8869 7.15093 14.1704 7.744 13.5773L13.5773 7.744C14.1704 7.15093 14.8869 7.20702 15.3378 7.29744C15.4875 7.32748 15.6595 7.37312 15.7933 7.40864C15.8435 7.42197 15.8884 7.43388 15.9247 7.44301C16.0947 7.48571 16.1895 7.49992 16.2499 7.49992C16.5814 7.49992 16.8994 7.36822 17.1338 7.1338C17.3682 6.89938 17.4999 6.58144 17.4999 6.24992C17.4999 5.9184 17.3682 5.60046 17.1338 5.36603C16.8994 5.13161 16.5814 4.99992 16.2499 4.99992C15.9184 4.99992 15.6005 4.86822 15.366 4.6338C15.1316 4.39938 14.9999 4.08144 14.9999 3.74992C14.9999 3.4184 14.8682 3.10046 14.6338 2.86604C14.3994 2.63161 14.0814 2.49992 13.7499 2.49992Z" fill="black"/>
</g>
<defs>
<clipPath id="clip0_2001_4705">
<rect width="20" height="20" fill="white"/>
</clipPath>
</defs>
</svg>
