<svg width="20" height="20" viewBox="0 0 20 20" fill="none" xmlns="http://www.w3.org/2000/svg">
<path fill-rule="evenodd" clip-rule="evenodd" d="M15.2441 1.91083C15.5695 1.58539 16.0972 1.58539 16.4226 1.91083L17.2559 2.74416C17.5814 3.0696 17.5814 3.59723 17.2559 3.92267C16.9305 4.24811 16.4028 4.24811 16.0774 3.92267L15.2441 3.08934C14.9186 2.7639 14.9186 2.23626 15.2441 1.91083Z" fill="black"/>
<path fill-rule="evenodd" clip-rule="evenodd" d="M17.2558 1.07733C17.5813 1.40277 17.5813 1.9304 17.2558 2.25584L13.5058 6.00584C13.1804 6.33128 12.6528 6.33128 12.3273 6.00584C12.0019 5.6804 12.0019 5.15277 12.3273 4.82733L16.0773 1.07733C16.4028 0.751893 16.9304 0.751893 17.2558 1.07733Z" fill="black"/>
<path fill-rule="evenodd" clip-rule="evenodd" d="M16.6667 5.83325C17.1269 5.83325 17.5 6.20635 17.5 6.66659V17.4999C17.5 17.9419 17.3244 18.3659 17.0118 18.6784C16.6993 18.991 16.2754 19.1666 15.8333 19.1666H5.41667C4.64312 19.1666 3.90125 18.8593 3.35427 18.3123C2.80729 17.7653 2.5 17.0235 2.5 16.2499C2.5 15.4764 2.80729 14.7345 3.35427 14.1875C3.90125 13.6405 4.64312 13.3333 5.41667 13.3333H15.8333V6.66659C15.8333 6.20635 16.2064 5.83325 16.6667 5.83325ZM15.8333 14.9999H5.41667C5.08515 14.9999 4.7672 15.1316 4.53278 15.366C4.29836 15.6005 4.16667 15.9184 4.16667 16.2499C4.16667 16.5814 4.29836 16.8994 4.53278 17.1338C4.7672 17.3682 5.08515 17.4999 5.41667 17.4999H15.8333V14.9999Z" fill="black"/>
<path fill-rule="evenodd" clip-rule="evenodd" d="M5.41667 2.49992C5.08515 2.49992 4.7672 2.63161 4.53278 2.86604C4.29836 3.10046 4.16667 3.4184 4.16667 3.74992V16.2499C4.16667 16.7102 3.79357 17.0833 3.33333 17.0833C2.8731 17.0833 2.5 16.7102 2.5 16.2499V3.74992C2.5 2.97637 2.80729 2.23451 3.35427 1.68752C3.90125 1.14054 4.64312 0.833252 5.41667 0.833252H11.6667C12.1269 0.833252 12.5 1.20635 12.5 1.66659C12.5 2.12682 12.1269 2.49992 11.6667 2.49992H5.41667Z" fill="black"/>
<path fill-rule="evenodd" clip-rule="evenodd" d="M11.6667 5.83341C11.2065 5.83341 10.8334 6.20651 10.8334 6.66675C10.8334 7.12699 11.2065 7.50008 11.6667 7.50008C12.127 7.50008 12.5001 7.12699 12.5001 6.66675C12.5001 6.20651 12.127 5.83341 11.6667 5.83341ZM9.16675 6.66675C9.16675 5.28604 10.286 4.16675 11.6667 4.16675C13.0475 4.16675 14.1667 5.28604 14.1667 6.66675C14.1667 8.04746 13.0475 9.16675 11.6667 9.16675C10.286 9.16675 9.16675 8.04746 9.16675 6.66675Z" fill="black"/>
</svg>
