<svg width="48" height="48" viewBox="0 0 48 48" fill="none" xmlns="http://www.w3.org/2000/svg">
<path d="M18 18V14H36V18H18ZM18 24V20H36V24H18ZM24 44H12C10.3333 44 8.91667 43.4167 7.75 42.25C6.58333 41.0833 6 39.6667 6 38V32H12V4H42V22.05C41.3333 21.9833 40.6583 22.0083 39.975 22.125C39.2917 22.2417 38.6333 22.45 38 22.75V8H16V32H28L24 36H10V38C10 38.5667 10.1917 39.0417 10.575 39.425C10.9583 39.8083 11.4333 40 12 40H24V44ZM28 44V37.85L39.05 26.85C39.35 26.55 39.6833 26.3333 40.05 26.2C40.4167 26.0667 40.7833 26 41.15 26C41.55 26 41.9333 26.075 42.3 26.225C42.6667 26.375 43 26.6 43.3 26.9L45.15 28.75C45.4167 29.05 45.625 29.3833 45.775 29.75C45.925 30.1167 46 30.4833 46 30.85C46 31.2167 45.9333 31.5917 45.8 31.975C45.6667 32.3583 45.45 32.7 45.15 33L34.15 44H28ZM31 41H32.9L38.95 34.9L38.05 33.95L37.1 33.05L31 39.1V41ZM38.05 33.95L37.1 33.05L38.95 34.9L38.05 33.95Z" fill="white"/>
</svg>
