<svg width="20" height="20" viewBox="0 0 20 20" fill="none" xmlns="http://www.w3.org/2000/svg">
<path fill-rule="evenodd" clip-rule="evenodd" d="M10.0001 5C10.4603 5 10.8334 5.3731 10.8334 5.83333V10.8333C10.8334 11.2936 10.4603 11.6667 10.0001 11.6667C9.53984 11.6667 9.16675 11.2936 9.16675 10.8333V5.83333C9.16675 5.3731 9.53984 5 10.0001 5Z" fill="black"/>
<path fill-rule="evenodd" clip-rule="evenodd" d="M5.41667 2.49992C5.08515 2.49992 4.7672 2.63161 4.53278 2.86604C4.29836 3.10046 4.16667 3.4184 4.16667 3.74992V13.6147C4.55369 13.4311 4.98013 13.3333 5.41667 13.3333H15.8333V2.49992H5.41667ZM17.5 2.49992C17.5 2.05789 17.3244 1.63397 17.0118 1.32141C16.6993 1.00885 16.2754 0.833252 15.8333 0.833252H5.41667C4.64312 0.833252 3.90125 1.14054 3.35427 1.68752C2.80729 2.23451 2.5 2.97637 2.5 3.74992V16.2499C2.5 17.0235 2.80729 17.7653 3.35427 18.3123C3.90125 18.8593 4.64312 19.1666 5.41667 19.1666H15.8333C16.2754 19.1666 16.6993 18.991 17.0118 18.6784C17.3244 18.3659 17.5 17.9419 17.5 17.4999V2.49992ZM15.8333 14.9999H5.41667C5.08515 14.9999 4.7672 15.1316 4.53278 15.366C4.29836 15.6005 4.16667 15.9184 4.16667 16.2499C4.16667 16.5814 4.29836 16.8994 4.53278 17.1338C4.7672 17.3682 5.08515 17.4999 5.41667 17.4999H15.8333V14.9999Z" fill="black"/>
<path fill-rule="evenodd" clip-rule="evenodd" d="M9.41083 5.24408C9.73626 4.91864 10.2639 4.91864 10.5893 5.24408L13.0893 7.74408C13.4148 8.06951 13.4148 8.59715 13.0893 8.92259C12.7639 9.24803 12.2363 9.24803 11.9108 8.92259L10.0001 7.01184L8.08934 8.92259C7.7639 9.24803 7.23626 9.24803 6.91083 8.92259C6.58539 8.59715 6.58539 8.06951 6.91083 7.74408L9.41083 5.24408Z" fill="black"/>
</svg>
