<svg width="20" height="20" viewBox="0 0 20 20" fill="none" xmlns="http://www.w3.org/2000/svg">
<path fill-rule="evenodd" clip-rule="evenodd" d="M10.0001 5C10.4603 5 10.8334 5.3731 10.8334 5.83333V17.5C10.8334 17.9602 10.4603 18.3333 10.0001 18.3333C9.53984 18.3333 9.16675 17.9602 9.16675 17.5V5.83333C9.16675 5.3731 9.53984 5 10.0001 5Z" fill="black"/>
<path fill-rule="evenodd" clip-rule="evenodd" d="M12.5 10.0001C12.5 9.53984 12.8731 9.16675 13.3333 9.16675H15C15.4602 9.16675 15.8333 9.53984 15.8333 10.0001C15.8333 10.4603 15.4602 10.8334 15 10.8334H13.3333C12.8731 10.8334 12.5 10.4603 12.5 10.0001Z" fill="black"/>
<path fill-rule="evenodd" clip-rule="evenodd" d="M12.5 6.66659C12.5 6.20635 12.8731 5.83325 13.3333 5.83325H15C15.4602 5.83325 15.8333 6.20635 15.8333 6.66659C15.8333 7.12682 15.4602 7.49992 15 7.49992H13.3333C12.8731 7.49992 12.5 7.12682 12.5 6.66659Z" fill="black"/>
<path fill-rule="evenodd" clip-rule="evenodd" d="M1.32141 2.1549C1.63397 1.84234 2.05789 1.66675 2.49992 1.66675H6.66659C7.77165 1.66675 8.83146 2.10573 9.61286 2.88714C9.7531 3.02737 9.8823 3.17657 9.99992 3.33339C10.1175 3.17657 10.2467 3.02737 10.387 2.88714C11.1684 2.10573 12.2282 1.66675 13.3333 1.66675H17.4999C17.9419 1.66675 18.3659 1.84234 18.6784 2.1549C18.991 2.46747 19.1666 2.89139 19.1666 3.33341V14.1667C19.1666 14.6088 18.991 15.0327 18.6784 15.3453C18.3659 15.6578 17.9419 15.8334 17.4999 15.8334H12.4999C12.0579 15.8334 11.634 16.009 11.3214 16.3216C11.0088 16.6341 10.8333 17.0581 10.8333 17.5001C10.8333 17.9603 10.4602 18.3334 9.99992 18.3334C9.53968 18.3334 9.16659 17.9603 9.16659 17.5001C9.16659 17.0581 8.99099 16.6341 8.67843 16.3216C8.36587 16.009 7.94195 15.8334 7.49992 15.8334H2.49992C2.05789 15.8334 1.63397 15.6578 1.32141 15.3453C1.00885 15.0327 0.833252 14.6088 0.833252 14.1667V3.33341C0.833252 2.89139 1.00885 2.46746 1.32141 2.1549ZM9.99992 15.2953C10.0458 15.2432 10.0935 15.1924 10.1429 15.1431C10.768 14.5179 11.6159 14.1667 12.4999 14.1667H17.4999V3.33341H13.3333C12.6702 3.33341 12.0343 3.59681 11.5655 4.06565C11.0966 4.53449 10.8333 5.17037 10.8333 5.83341C10.8333 6.29365 10.4602 6.66675 9.99992 6.66675C9.53968 6.66675 9.16659 6.29365 9.16659 5.83341C9.16659 5.17037 8.90319 4.53449 8.43435 4.06565C7.96551 3.59681 7.32963 3.33341 6.66659 3.33341H2.49992V14.1667H7.49992C8.38397 14.1667 9.23182 14.5179 9.85694 15.1431C9.90632 15.1924 9.95399 15.2432 9.99992 15.2953Z" fill="black"/>
<path fill-rule="evenodd" clip-rule="evenodd" d="M4.16675 10.0001C4.16675 9.53984 4.53984 9.16675 5.00008 9.16675H6.66675C7.12699 9.16675 7.50008 9.53984 7.50008 10.0001C7.50008 10.4603 7.12699 10.8334 6.66675 10.8334H5.00008C4.53984 10.8334 4.16675 10.4603 4.16675 10.0001Z" fill="black"/>
<path fill-rule="evenodd" clip-rule="evenodd" d="M4.16675 6.66659C4.16675 6.20635 4.53984 5.83325 5.00008 5.83325H6.66675C7.12699 5.83325 7.50008 6.20635 7.50008 6.66659C7.50008 7.12682 7.12699 7.49992 6.66675 7.49992H5.00008C4.53984 7.49992 4.16675 7.12682 4.16675 6.66659Z" fill="black"/>
</svg>
