<svg width="20" height="20" viewBox="0 0 20 20" fill="none" xmlns="http://www.w3.org/2000/svg">
<path fill-rule="evenodd" clip-rule="evenodd" d="M5.83325 3.33341C5.61224 3.33341 5.40028 3.42121 5.244 3.57749C5.08772 3.73377 4.99992 3.94573 4.99992 4.16675V16.0641L9.58647 13.4432C9.84266 13.2968 10.1572 13.2968 10.4134 13.4432L14.9999 16.0641V4.16675C14.9999 3.94573 14.9121 3.73377 14.7558 3.57749C14.5996 3.42121 14.3876 3.33341 14.1666 3.33341H5.83325ZM4.06548 2.39898C4.53433 1.93014 5.17021 1.66675 5.83325 1.66675H14.1666C14.8296 1.66675 15.4655 1.93014 15.9344 2.39898C16.4032 2.86782 16.6666 3.50371 16.6666 4.16675V17.5001C16.6666 17.7971 16.5085 18.0717 16.2515 18.2208C15.9946 18.3699 15.6777 18.371 15.4198 18.2236L9.99992 15.1265L4.58003 18.2236C4.32212 18.371 4.00524 18.3699 3.74831 18.2208C3.49138 18.0717 3.33325 17.7971 3.33325 17.5001V4.16675C3.33325 3.50371 3.59664 2.86782 4.06548 2.39898Z" fill="black"/>
<path fill-rule="evenodd" clip-rule="evenodd" d="M13.0893 6.07733C13.4148 6.40277 13.4148 6.9304 13.0893 7.25584L9.756 10.5892C9.43057 10.9146 8.90293 10.9146 8.57749 10.5892L6.91083 8.92251C6.58539 8.59707 6.58539 8.06943 6.91083 7.744C7.23626 7.41856 7.7639 7.41856 8.08934 7.744L9.16675 8.82141L11.9108 6.07733C12.2363 5.75189 12.7639 5.75189 13.0893 6.07733Z" fill="black"/>
</svg>
