<svg width="20" height="20" viewBox="0 0 20 20" fill="none" xmlns="http://www.w3.org/2000/svg">
<path fill-rule="evenodd" clip-rule="evenodd" d="M10.0001 5C10.4603 5 10.8334 5.3731 10.8334 5.83333V10.8333C10.8334 11.2936 10.4603 11.6667 10.0001 11.6667C9.53984 11.6667 9.16675 11.2936 9.16675 10.8333V5.83333C9.16675 5.3731 9.53984 5 10.0001 5Z" fill="black"/>
<path fill-rule="evenodd" clip-rule="evenodd" d="M14.1667 1.66659C14.1667 1.20635 14.5398 0.833252 15 0.833252H15.8333C16.2754 0.833252 16.6993 1.00885 17.0118 1.32141C17.3244 1.63397 17.5 2.05789 17.5 2.49992V17.4999C17.5 17.9419 17.3244 18.3659 17.0118 18.6784C16.6993 18.991 16.2754 19.1666 15.8333 19.1666H5.41667C4.64312 19.1666 3.90125 18.8593 3.35427 18.3123C2.80729 17.7653 2.5 17.0235 2.5 16.2499C2.5 15.4764 2.80729 14.7345 3.35427 14.1875C3.90125 13.6405 4.64312 13.3333 5.41667 13.3333H15.8333V2.49992H15C14.5398 2.49992 14.1667 2.12682 14.1667 1.66659ZM15.8333 14.9999H5.41667C5.08515 14.9999 4.7672 15.1316 4.53278 15.366C4.29836 15.6005 4.16667 15.9184 4.16667 16.2499C4.16667 16.5814 4.29836 16.8994 4.53278 17.1338C4.7672 17.3682 5.08515 17.4999 5.41667 17.4999H15.8333V14.9999Z" fill="black"/>
<path fill-rule="evenodd" clip-rule="evenodd" d="M5.41667 2.49992C5.08515 2.49992 4.7672 2.63161 4.53278 2.86604C4.29836 3.10046 4.16667 3.4184 4.16667 3.74992V16.2499C4.16667 16.7102 3.79357 17.0833 3.33333 17.0833C2.8731 17.0833 2.5 16.7102 2.5 16.2499V3.74992C2.5 2.97637 2.80729 2.23451 3.35427 1.68752C3.90125 1.14054 4.64312 0.833252 5.41667 0.833252C5.8769 0.833252 6.25 1.20635 6.25 1.66659C6.25 2.12682 5.8769 2.49992 5.41667 2.49992Z" fill="black"/>
<path fill-rule="evenodd" clip-rule="evenodd" d="M9.41083 5.24408C9.73626 4.91864 10.2639 4.91864 10.5893 5.24408L13.0893 7.74408C13.4148 8.06951 13.4148 8.59715 13.0893 8.92259C12.7639 9.24803 12.2363 9.24803 11.9108 8.92259L10.0001 7.01184L8.08934 8.92259C7.7639 9.24803 7.23626 9.24803 6.91083 8.92259C6.58539 8.59715 6.58539 8.06951 6.91083 7.74408L9.41083 5.24408Z" fill="black"/>
<path fill-rule="evenodd" clip-rule="evenodd" d="M9.41083 1.07733C9.73626 0.751893 10.2639 0.751893 10.5893 1.07733L13.0893 3.57733C13.4148 3.90277 13.4148 4.4304 13.0893 4.75584C12.7639 5.08128 12.2363 5.08128 11.9108 4.75584L10.0001 2.8451L8.08934 4.75584C7.7639 5.08128 7.23626 5.08128 6.91083 4.75584C6.58539 4.4304 6.58539 3.90277 6.91083 3.57733L9.41083 1.07733Z" fill="black"/>
</svg>
