<svg width="20" height="20" viewBox="0 0 20 20" fill="none" xmlns="http://www.w3.org/2000/svg">
<path fill-rule="evenodd" clip-rule="evenodd" d="M8.49244 4.16678C8.49494 4.16676 8.49743 4.16675 8.49992 4.16675C9.0611 4.16675 9.57191 4.30417 9.99992 4.58804C10.4279 4.30417 10.9387 4.16675 11.4999 4.16675C11.5024 4.16675 11.5049 4.16676 11.5074 4.16678C12.2107 4.17309 12.8834 4.45528 13.3807 4.9526C13.8781 5.44993 14.1602 6.12264 14.1666 6.82594C14.1666 6.82837 14.1666 6.8308 14.1666 6.83323C14.1667 7.58386 13.8702 8.30412 13.3415 8.837C13.3357 8.84283 13.3298 8.84859 13.3239 8.85425C12.4098 9.72263 11.4908 10.5859 10.5671 11.444C10.2446 11.7435 9.74491 11.7407 9.42589 11.4375C8.49615 10.5541 7.57539 9.66121 6.66376 8.75909C6.66272 8.75806 6.66169 8.75703 6.66066 8.756C6.20108 8.29642 5.83325 7.59355 5.83325 6.83341C5.83325 6.83092 5.83326 6.82843 5.83329 6.82594C5.83959 6.12264 6.12178 5.44993 6.61911 4.9526C7.11644 4.45528 7.78914 4.17309 8.49244 4.16678ZM8.50388 5.83342C8.23869 5.83671 7.98522 5.94351 7.79762 6.13112C7.61012 6.31861 7.50333 6.57191 7.49993 6.83694C7.50121 7.07567 7.63254 7.37015 7.83784 7.57616C8.55519 8.28601 9.27824 8.99007 10.0069 9.68827C10.7295 9.01387 11.4492 8.33629 12.1658 7.65554C12.3791 7.43659 12.499 7.14316 12.4999 6.8373C12.4966 6.57213 12.3898 6.3187 12.2022 6.13112C12.0146 5.94351 11.7612 5.83671 11.496 5.83342C11.0746 5.83428 10.8527 5.97325 10.6933 6.21233C10.5387 6.44416 10.2785 6.58341 9.99992 6.58341C9.72129 6.58341 9.4611 6.44416 9.30654 6.21233C9.14716 5.97325 8.92522 5.83428 8.50388 5.83342Z" fill="black"/>
<path fill-rule="evenodd" clip-rule="evenodd" d="M5.41667 2.49992C5.08515 2.49992 4.7672 2.63161 4.53278 2.86604C4.29836 3.10046 4.16667 3.4184 4.16667 3.74992V13.6147C4.55369 13.4311 4.98013 13.3333 5.41667 13.3333H15.8333V2.49992H5.41667ZM17.5 2.49992C17.5 2.05789 17.3244 1.63397 17.0118 1.32141C16.6993 1.00885 16.2754 0.833252 15.8333 0.833252H5.41667C4.64312 0.833252 3.90125 1.14054 3.35427 1.68752C2.80729 2.23451 2.5 2.97637 2.5 3.74992V16.2499C2.5 17.0235 2.80729 17.7653 3.35427 18.3123C3.90125 18.8593 4.64312 19.1666 5.41667 19.1666H15.8333C16.2754 19.1666 16.6993 18.991 17.0118 18.6784C17.3244 18.3659 17.5 17.9419 17.5 17.4999V2.49992ZM15.8333 14.9999H5.41667C5.08515 14.9999 4.7672 15.1316 4.53278 15.366C4.29836 15.6005 4.16667 15.9184 4.16667 16.2499C4.16667 16.5814 4.29836 16.8994 4.53278 17.1338C4.7672 17.3682 5.08515 17.4999 5.41667 17.4999H15.8333V14.9999Z" fill="black"/>
</svg>
