<svg width="20" height="20" viewBox="0 0 20 20" fill="none" xmlns="http://www.w3.org/2000/svg">
<path fill-rule="evenodd" clip-rule="evenodd" d="M7.64306 8.47631C8.26818 7.85119 9.11603 7.5 10.0001 7.5C10.8841 7.5 11.732 7.85119 12.3571 8.47631C12.9822 9.10143 13.3334 9.94928 13.3334 10.8333C13.3334 11.2936 12.9603 11.6667 12.5001 11.6667C12.0398 11.6667 11.6667 11.2936 11.6667 10.8333C11.6667 10.3913 11.4912 9.96738 11.1786 9.65482C10.866 9.34226 10.4421 9.16667 10.0001 9.16667C9.55805 9.16667 9.13413 9.34226 8.82157 9.65482C8.50901 9.96738 8.33341 10.3913 8.33341 10.8333C8.33341 11.2936 7.96032 11.6667 7.50008 11.6667C7.03984 11.6667 6.66675 11.2936 6.66675 10.8333C6.66675 9.94928 7.01794 9.10143 7.64306 8.47631Z" fill="black"/>
<path fill-rule="evenodd" clip-rule="evenodd" d="M5.41667 2.49992C5.08515 2.49992 4.7672 2.63161 4.53278 2.86604C4.29836 3.10046 4.16667 3.4184 4.16667 3.74992V13.6147C4.55369 13.4311 4.98013 13.3333 5.41667 13.3333H15.8333V2.49992H5.41667ZM17.5 2.49992C17.5 2.05789 17.3244 1.63397 17.0118 1.32141C16.6993 1.00885 16.2754 0.833252 15.8333 0.833252H5.41667C4.64312 0.833252 3.90125 1.14054 3.35427 1.68752C2.80729 2.23451 2.5 2.97637 2.5 3.74992V16.2499C2.5 17.0235 2.80729 17.7653 3.35427 18.3123C3.90125 18.8593 4.64312 19.1666 5.41667 19.1666H15.8333C16.2754 19.1666 16.6993 18.991 17.0118 18.6784C17.3244 18.3659 17.5 17.9419 17.5 17.4999V2.49992ZM15.8333 14.9999H5.41667C5.08515 14.9999 4.7672 15.1316 4.53278 15.366C4.29836 15.6005 4.16667 15.9184 4.16667 16.2499C4.16667 16.5814 4.29836 16.8994 4.53278 17.1338C4.7672 17.3682 5.08515 17.4999 5.41667 17.4999H15.8333V14.9999Z" fill="black"/>
<path fill-rule="evenodd" clip-rule="evenodd" d="M10 5.83341C9.53976 5.83341 9.16667 6.20651 9.16667 6.66675C9.16667 7.12699 9.53976 7.50008 10 7.50008C10.4602 7.50008 10.8333 7.12699 10.8333 6.66675C10.8333 6.20651 10.4602 5.83341 10 5.83341ZM7.5 6.66675C7.5 5.28604 8.61929 4.16675 10 4.16675C11.3807 4.16675 12.5 5.28604 12.5 6.66675C12.5 8.04746 11.3807 9.16675 10 9.16675C8.61929 9.16675 7.5 8.04746 7.5 6.66675Z" fill="black"/>
</svg>
