<svg width="20" height="20" viewBox="0 0 20 20" fill="none" xmlns="http://www.w3.org/2000/svg">
<path fill-rule="evenodd" clip-rule="evenodd" d="M12.6725 5.24408C12.9979 5.56951 12.9979 6.09715 12.6725 6.42259L8.50584 10.5893C8.1804 10.9147 7.65277 10.9147 7.32733 10.5893C7.00189 10.2638 7.00189 9.73618 7.32733 9.41074L11.494 5.24408C11.8194 4.91864 12.3471 4.91864 12.6725 5.24408Z" fill="black"/>
<path fill-rule="evenodd" clip-rule="evenodd" d="M5.41667 2.49992C5.08515 2.49992 4.7672 2.63161 4.53278 2.86604C4.29836 3.10046 4.16667 3.4184 4.16667 3.74992V13.6147C4.55369 13.4311 4.98013 13.3333 5.41667 13.3333H15.8333V2.49992H5.41667ZM17.5 2.49992C17.5 2.05789 17.3244 1.63397 17.0118 1.32141C16.6993 1.00885 16.2754 0.833252 15.8333 0.833252H5.41667C4.64312 0.833252 3.90125 1.14054 3.35427 1.68752C2.80729 2.23451 2.5 2.97637 2.5 3.74992V16.2499C2.5 17.0235 2.80729 17.7653 3.35427 18.3123C3.90125 18.8593 4.64312 19.1666 5.41667 19.1666H15.8333C16.2754 19.1666 16.6993 18.991 17.0118 18.6784C17.3244 18.3659 17.5 17.9419 17.5 17.4999V2.49992ZM15.8333 14.9999H5.41667C5.08515 14.9999 4.7672 15.1316 4.53278 15.366C4.29836 15.6005 4.16667 15.9184 4.16667 16.2499C4.16667 16.5814 4.29836 16.8994 4.53278 17.1338C4.7672 17.3682 5.08515 17.4999 5.41667 17.4999H15.8333V14.9999Z" fill="black"/>
<path fill-rule="evenodd" clip-rule="evenodd" d="M7.32733 5.24408C7.65277 4.91864 8.1804 4.91864 8.50584 5.24408L12.6725 9.41074C12.9979 9.73618 12.9979 10.2638 12.6725 10.5893C12.3471 10.9147 11.8194 10.9147 11.494 10.5893L7.32733 6.42259C7.00189 6.09715 7.00189 5.56951 7.32733 5.24408Z" fill="black"/>
</svg>
