<svg width="20" height="20" viewBox="0 0 20 20" fill="none" xmlns="http://www.w3.org/2000/svg">
<path fill-rule="evenodd" clip-rule="evenodd" d="M11.5655 1.56549C12.0343 1.09664 12.6702 0.833252 13.3333 0.833252C13.9963 0.833252 14.6322 1.09664 15.101 1.56549C15.5699 2.03433 15.8333 2.67021 15.8333 3.33325V4.99992C15.8333 5.46016 15.4602 5.83325 14.9999 5.83325C14.5397 5.83325 14.1666 5.46016 14.1666 4.99992V3.33325C14.1666 3.11224 14.0788 2.90028 13.9225 2.744C13.7662 2.58772 13.5543 2.49992 13.3333 2.49992C13.1122 2.49992 12.9003 2.58772 12.744 2.744C12.5877 2.90028 12.4999 3.11224 12.4999 3.33325V4.99992C12.4999 5.46016 12.1268 5.83325 11.6666 5.83325C11.2063 5.83325 10.8333 5.46016 10.8333 4.99992V3.33325C10.8333 2.67021 11.0966 2.03433 11.5655 1.56549Z" fill="black"/>
<path fill-rule="evenodd" clip-rule="evenodd" d="M16.6667 11.6667C17.1269 11.6667 17.5 12.0398 17.5 12.5001V17.5001C17.5 17.9421 17.3244 18.366 17.0118 18.6786C16.6993 18.9912 16.2754 19.1667 15.8333 19.1667H5.41667C4.64312 19.1667 3.90125 18.8595 3.35427 18.3125C2.80729 17.7655 2.5 17.0236 2.5 16.2501C2.5 15.4765 2.80729 14.7347 3.35427 14.1877C3.90125 13.6407 4.64312 13.3334 5.41667 13.3334H15.8333V12.5001C15.8333 12.0398 16.2064 11.6667 16.6667 11.6667ZM15.8333 15.0001H5.41667C5.08515 15.0001 4.7672 15.1318 4.53278 15.3662C4.29836 15.6006 4.16667 15.9186 4.16667 16.2501C4.16667 16.5816 4.29836 16.8995 4.53278 17.134C4.7672 17.3684 5.08515 17.5001 5.41667 17.5001H15.8333V15.0001Z" fill="black"/>
<path fill-rule="evenodd" clip-rule="evenodd" d="M5.41667 2.49992C5.08515 2.49992 4.7672 2.63161 4.53278 2.86604C4.29836 3.10046 4.16667 3.4184 4.16667 3.74992V16.2499C4.16667 16.7102 3.79357 17.0833 3.33333 17.0833C2.8731 17.0833 2.5 16.7102 2.5 16.2499V3.74992C2.5 2.97637 2.80729 2.23451 3.35427 1.68752C3.90125 1.14054 4.64312 0.833252 5.41667 0.833252H8.33333C8.79357 0.833252 9.16667 1.20635 9.16667 1.66659C9.16667 2.12682 8.79357 2.49992 8.33333 2.49992H5.41667Z" fill="black"/>
<path fill-rule="evenodd" clip-rule="evenodd" d="M10.8334 5.83341V8.33342H15.8334V5.83341H10.8334ZM15.8345 8.33337C15.8345 8.33337 15.8345 8.33337 15.8344 8.33338L15.8345 8.33337ZM10.8324 8.33338C10.8324 8.33337 10.8323 8.33337 10.8324 8.33337L10.8324 8.33338ZM9.16675 5.83341C9.16675 4.91294 9.91294 4.16675 10.8334 4.16675H15.8334C16.7539 4.16675 17.5001 4.91294 17.5001 5.83341V8.33342C17.5001 9.25389 16.7539 10.0001 15.8334 10.0001H10.8334C9.91294 10.0001 9.16675 9.25389 9.16675 8.33342V5.83341Z" fill="black"/>
</svg>
