<svg width="20" height="20" viewBox="0 0 20 20" fill="none" xmlns="http://www.w3.org/2000/svg">
<path fill-rule="evenodd" clip-rule="evenodd" d="M10.0001 4.16675C10.4603 4.16675 10.8334 4.53984 10.8334 5.00008V10.8334C10.8334 11.2937 10.4603 11.6667 10.0001 11.6667C9.53984 11.6667 9.16675 11.2937 9.16675 10.8334V5.00008C9.16675 4.53984 9.53984 4.16675 10.0001 4.16675Z" fill="black"/>
<path fill-rule="evenodd" clip-rule="evenodd" d="M13.3333 5.83325C13.7936 5.83325 14.1667 6.20635 14.1667 6.66659V9.16658C14.1667 9.62682 13.7936 9.99992 13.3333 9.99992C12.8731 9.99992 12.5 9.62682 12.5 9.16658V6.66659C12.5 6.20635 12.8731 5.83325 13.3333 5.83325Z" fill="black"/>
<path fill-rule="evenodd" clip-rule="evenodd" d="M5.41667 2.49992C5.08515 2.49992 4.7672 2.63161 4.53278 2.86604C4.29836 3.10046 4.16667 3.4184 4.16667 3.74992V13.6147C4.55369 13.4311 4.98013 13.3333 5.41667 13.3333H15.8333V2.49992H5.41667ZM17.5 2.49992C17.5 2.05789 17.3244 1.63397 17.0118 1.32141C16.6993 1.00885 16.2754 0.833252 15.8333 0.833252H5.41667C4.64312 0.833252 3.90125 1.14054 3.35427 1.68752C2.80729 2.23451 2.5 2.97637 2.5 3.74992V16.2499C2.5 17.0235 2.80729 17.7653 3.35427 18.3123C3.90125 18.8593 4.64312 19.1666 5.41667 19.1666H15.8333C16.2754 19.1666 16.6993 18.991 17.0118 18.6784C17.3244 18.3659 17.5 17.9419 17.5 17.4999V2.49992ZM15.8333 14.9999H5.41667C5.08515 14.9999 4.7672 15.1316 4.53278 15.366C4.29836 15.6005 4.16667 15.9184 4.16667 16.2499C4.16667 16.5814 4.29836 16.8994 4.53278 17.1338C4.7672 17.3682 5.08515 17.4999 5.41667 17.4999H15.8333V14.9999Z" fill="black"/>
<path fill-rule="evenodd" clip-rule="evenodd" d="M6.66659 5.83325C7.12682 5.83325 7.49992 6.20635 7.49992 6.66659V9.16658C7.49992 9.62682 7.12682 9.99992 6.66659 9.99992C6.20635 9.99992 5.83325 9.62682 5.83325 9.16658V6.66659C5.83325 6.20635 6.20635 5.83325 6.66659 5.83325Z" fill="black"/>
</svg>
