<svg width="20" height="20" viewBox="0 0 20 20" fill="none" xmlns="http://www.w3.org/2000/svg">
<path fill-rule="evenodd" clip-rule="evenodd" d="M12 9.07158C12.4673 8.61351 13.0956 8.35693 13.75 8.35693C14.4044 8.35693 15.0327 8.61351 15.5 9.07158C15.502 9.07352 15.504 9.07548 15.5059 9.07744L17.2559 10.8274C17.5814 11.1529 17.5814 11.6805 17.2559 12.006C16.9305 12.3314 16.4028 12.3314 16.0774 12.006L14.3309 10.2594C14.1753 10.1082 13.967 10.0236 13.75 10.0236C13.533 10.0236 13.3247 10.1082 13.1691 10.2594L8.67259 14.756C8.34715 15.0814 7.81951 15.0814 7.49408 14.756C7.16864 14.4305 7.16864 13.9029 7.49408 13.5774L11.9941 9.07744C11.996 9.07548 11.998 9.07352 12 9.07158Z" fill="black"/>
<path fill-rule="evenodd" clip-rule="evenodd" d="M5.41667 2.49992C5.08515 2.49992 4.7672 2.63161 4.53278 2.86604C4.29836 3.10046 4.16667 3.4184 4.16667 3.74992V13.6147C4.55369 13.4311 4.98013 13.3333 5.41667 13.3333H15.8333V2.49992H5.41667ZM17.5 2.49992C17.5 2.05789 17.3244 1.63397 17.0118 1.32141C16.6993 1.00885 16.2754 0.833252 15.8333 0.833252H5.41667C4.64312 0.833252 3.90125 1.14054 3.35427 1.68752C2.80729 2.23451 2.5 2.97637 2.5 3.74992V16.2499C2.5 17.0235 2.80729 17.7653 3.35427 18.3123C3.90125 18.8593 4.64312 19.1666 5.41667 19.1666H15.8333C16.2754 19.1666 16.6993 18.991 17.0118 18.6784C17.3244 18.3659 17.5 17.9419 17.5 17.4999V2.49992ZM15.8333 14.9999H5.41667C5.08515 14.9999 4.7672 15.1316 4.53278 15.366C4.29836 15.6005 4.16667 15.9184 4.16667 16.2499C4.16667 16.5814 4.29836 16.8994 4.53278 17.1338C4.7672 17.3682 5.08515 17.4999 5.41667 17.4999H15.8333V14.9999Z" fill="black"/>
<path fill-rule="evenodd" clip-rule="evenodd" d="M8.33325 5.83341C7.87301 5.83341 7.49992 6.20651 7.49992 6.66675C7.49992 7.12699 7.87301 7.50008 8.33325 7.50008C8.79349 7.50008 9.16659 7.12699 9.16659 6.66675C9.16659 6.20651 8.79349 5.83341 8.33325 5.83341ZM5.83325 6.66675C5.83325 5.28604 6.95254 4.16675 8.33325 4.16675C9.71396 4.16675 10.8333 5.28604 10.8333 6.66675C10.8333 8.04746 9.71396 9.16675 8.33325 9.16675C6.95254 9.16675 5.83325 8.04746 5.83325 6.66675Z" fill="black"/>
</svg>
