<svg width="20" height="20" viewBox="0 0 20 20" fill="none" xmlns="http://www.w3.org/2000/svg">
<path fill-rule="evenodd" clip-rule="evenodd" d="M5.83325 3.33341C5.61224 3.33341 5.40028 3.42121 5.244 3.57749C5.08772 3.73377 4.99992 3.94573 4.99992 4.16675V16.0641L9.58647 13.4432C9.84266 13.2968 10.1572 13.2968 10.4134 13.4432L14.9999 16.0641V4.16675C14.9999 3.94573 14.9121 3.73377 14.7558 3.57749C14.5996 3.42121 14.3876 3.33341 14.1666 3.33341H5.83325ZM4.06548 2.39898C4.53433 1.93014 5.17021 1.66675 5.83325 1.66675H14.1666C14.8296 1.66675 15.4655 1.93014 15.9344 2.39898C16.4032 2.86782 16.6666 3.50371 16.6666 4.16675V17.5001C16.6666 17.7971 16.5085 18.0717 16.2515 18.2208C15.9946 18.3699 15.6777 18.371 15.4198 18.2236L9.99992 15.1265L4.58003 18.2236C4.32212 18.371 4.00524 18.3699 3.74831 18.2208C3.49138 18.0717 3.33325 17.7971 3.33325 17.5001V4.16675C3.33325 3.50371 3.59664 2.86782 4.06548 2.39898Z" fill="black"/>
<path fill-rule="evenodd" clip-rule="evenodd" d="M12.6725 5.66083C12.9979 5.98626 12.9979 6.5139 12.6725 6.83934L8.50584 11.006C8.1804 11.3314 7.65277 11.3314 7.32733 11.006C7.00189 10.6806 7.00189 10.1529 7.32733 9.82749L11.494 5.66083C11.8194 5.33539 12.3471 5.33539 12.6725 5.66083Z" fill="black"/>
<path fill-rule="evenodd" clip-rule="evenodd" d="M7.32733 5.66083C7.65277 5.33539 8.1804 5.33539 8.50584 5.66083L12.6725 9.82749C12.9979 10.1529 12.9979 10.6806 12.6725 11.006C12.3471 11.3314 11.8194 11.3314 11.494 11.006L7.32733 6.83934C7.00189 6.5139 7.00189 5.98626 7.32733 5.66083Z" fill="black"/>
</svg>
