<svg width="20" height="20" viewBox="0 0 20 20" fill="none" xmlns="http://www.w3.org/2000/svg">
<path fill-rule="evenodd" clip-rule="evenodd" d="M5.41667 2.49992C5.08515 2.49992 4.7672 2.63161 4.53278 2.86604C4.29836 3.10046 4.16667 3.4184 4.16667 3.74992V13.6147C4.55369 13.4311 4.98013 13.3333 5.41667 13.3333H15.8333V2.49992H5.41667ZM17.5 2.49992C17.5 2.05789 17.3244 1.63397 17.0118 1.32141C16.6993 1.00885 16.2754 0.833252 15.8333 0.833252H5.41667C4.64312 0.833252 3.90125 1.14054 3.35427 1.68752C2.80729 2.23451 2.5 2.97637 2.5 3.74992V16.2499C2.5 17.0235 2.80729 17.7653 3.35427 18.3123C3.90125 18.8593 4.64312 19.1666 5.41667 19.1666H15.8333C16.2754 19.1666 16.6993 18.991 17.0118 18.6784C17.3244 18.3659 17.5 17.9419 17.5 17.4999V2.49992ZM15.8333 14.9999H5.41667C5.08515 14.9999 4.7672 15.1316 4.53278 15.366C4.29836 15.6005 4.16667 15.9184 4.16667 16.2499C4.16667 16.5814 4.29836 16.8994 4.53278 17.1338C4.7672 17.3682 5.08515 17.4999 5.41667 17.4999H15.8333V14.9999Z" fill="black"/>
<path fill-rule="evenodd" clip-rule="evenodd" d="M10.0001 4.16675C10.2991 4.16675 10.5752 4.32699 10.7236 4.58663L14.0569 10.42C14.2853 10.8196 14.1464 11.3286 13.7468 11.557C13.3472 11.7853 12.8382 11.6465 12.6099 11.2469L10.0001 6.67972L7.39026 11.2469C7.16192 11.6465 6.65288 11.7853 6.25328 11.557C5.85368 11.3286 5.71485 10.8196 5.94319 10.42L9.27653 4.58663C9.42489 4.32699 9.70101 4.16675 10.0001 4.16675Z" fill="black"/>
<path fill-rule="evenodd" clip-rule="evenodd" d="M6.75 9.16659C6.75 8.70635 7.1231 8.33325 7.58333 8.33325H12.3333C12.7936 8.33325 13.1667 8.70635 13.1667 9.16659C13.1667 9.62682 12.7936 9.99992 12.3333 9.99992H7.58333C7.1231 9.99992 6.75 9.62682 6.75 9.16659Z" fill="black"/>
</svg>
