<svg width="20" height="20" viewBox="0 0 20 20" fill="none" xmlns="http://www.w3.org/2000/svg">
<path fill-rule="evenodd" clip-rule="evenodd" d="M9.16675 14.1666C9.16675 13.7063 9.53984 13.3333 10.0001 13.3333H11.6667C12.127 13.3333 12.5001 13.7063 12.5001 14.1666C12.5001 14.6268 12.127 14.9999 11.6667 14.9999H10.0001C9.53984 14.9999 9.16675 14.6268 9.16675 14.1666Z" fill="black"/>
<path fill-rule="evenodd" clip-rule="evenodd" d="M9.16675 18.3333C9.16675 17.8731 9.53984 17.5 10.0001 17.5H11.6667C12.127 17.5 12.5001 17.8731 12.5001 18.3333C12.5001 18.7936 12.127 19.1667 11.6667 19.1667H10.0001C9.53984 19.1667 9.16675 18.7936 9.16675 18.3333Z" fill="black"/>
<path fill-rule="evenodd" clip-rule="evenodd" d="M9.16675 1.66659C9.16675 1.20635 9.53984 0.833252 10.0001 0.833252H11.6667C12.127 0.833252 12.5001 1.20635 12.5001 1.66659C12.5001 2.12682 12.127 2.49992 11.6667 2.49992H10.0001C9.53984 2.49992 9.16675 2.12682 9.16675 1.66659Z" fill="black"/>
<path fill-rule="evenodd" clip-rule="evenodd" d="M16.6667 16.6667C17.127 16.6667 17.5001 17.0398 17.5001 17.5001C17.5001 17.9421 17.3245 18.366 17.0119 18.6786C16.6994 18.9912 16.2754 19.1667 15.8334 19.1667H15.0001C14.5398 19.1667 14.1667 18.7937 14.1667 18.3334C14.1667 17.8732 14.5398 17.5001 15.0001 17.5001H15.8334C15.8334 17.0398 16.2065 16.6667 16.6667 16.6667Z" fill="black"/>
<path fill-rule="evenodd" clip-rule="evenodd" d="M14.1667 1.66659C14.1667 1.20635 14.5398 0.833252 15.0001 0.833252H15.8334C16.2754 0.833252 16.6994 1.00885 17.0119 1.32141C17.3245 1.63397 17.5001 2.05789 17.5001 2.49992V3.33325C17.5001 3.79349 17.127 4.16658 16.6667 4.16658C16.2065 4.16658 15.8334 3.79349 15.8334 3.33325V2.49992H15.0001C14.5398 2.49992 14.1667 2.12682 14.1667 1.66659Z" fill="black"/>
<path fill-rule="evenodd" clip-rule="evenodd" d="M16.6667 11.6667C17.127 11.6667 17.5001 12.0398 17.5001 12.5001V14.1667C17.5001 14.627 17.127 15.0001 16.6667 15.0001H15.0001C14.5398 15.0001 14.1667 14.627 14.1667 14.1667C14.1667 13.7065 14.5398 13.3334 15.0001 13.3334H15.8334V12.5001C15.8334 12.0398 16.2065 11.6667 16.6667 11.6667Z" fill="black"/>
<path fill-rule="evenodd" clip-rule="evenodd" d="M16.6666 5.83325C17.1268 5.83325 17.4999 6.20635 17.4999 6.66659V9.16658C17.4999 9.62682 17.1268 9.99992 16.6666 9.99992C16.2063 9.99992 15.8333 9.62682 15.8333 9.16658V6.66659C15.8333 6.20635 16.2063 5.83325 16.6666 5.83325Z" fill="black"/>
<path fill-rule="evenodd" clip-rule="evenodd" d="M3.33333 6.66675C3.79357 6.66675 4.16667 7.03984 4.16667 7.50008V9.16675C4.16667 9.62699 3.79357 10.0001 3.33333 10.0001C2.8731 10.0001 2.5 9.62699 2.5 9.16675V7.50008C2.5 7.03984 2.8731 6.66675 3.33333 6.66675Z" fill="black"/>
<path fill-rule="evenodd" clip-rule="evenodd" d="M3.33333 11.6667C3.79357 11.6667 4.16667 12.0398 4.16667 12.5001V16.2501C4.16667 16.7103 3.79357 17.0834 3.33333 17.0834C2.8731 17.0834 2.5 16.7103 2.5 16.2501V12.5001C2.5 12.0398 2.8731 11.6667 3.33333 11.6667Z" fill="black"/>
<path fill-rule="evenodd" clip-rule="evenodd" d="M5.41667 2.49992C5.08515 2.49992 4.7672 2.63161 4.53278 2.86603C4.29836 3.10046 4.16667 3.4184 4.16667 3.74992V4.16658C4.16667 4.62682 3.79357 4.99992 3.33333 4.99992C2.8731 4.99992 2.5 4.62682 2.5 4.16658V3.74992C2.5 2.97637 2.80729 2.2345 3.35427 1.68752C3.90125 1.14054 4.64312 0.833252 5.41667 0.833252H6.66667C7.1269 0.833252 7.5 1.20635 7.5 1.66659C7.5 2.12682 7.1269 2.49992 6.66667 2.49992H5.41667Z" fill="black"/>
<path fill-rule="evenodd" clip-rule="evenodd" d="M5.41667 14.9999C5.08515 14.9999 4.7672 15.1316 4.53278 15.366C4.29836 15.6005 4.16667 15.9184 4.16667 16.2499C4.16667 16.5814 4.29836 16.8994 4.53278 17.1338C4.7672 17.3682 5.08515 17.4999 5.41667 17.4999H6.66667C7.1269 17.4999 7.5 17.873 7.5 18.3333C7.5 18.7935 7.1269 19.1666 6.66667 19.1666H5.41667C4.64312 19.1666 3.90125 18.8593 3.35427 18.3123C2.80729 17.7653 2.5 17.0235 2.5 16.2499C2.5 15.4764 2.80729 14.7345 3.35427 14.1875C3.90125 13.6405 4.64312 13.3333 5.41667 13.3333H6.66667C7.1269 13.3333 7.5 13.7063 7.5 14.1666C7.5 14.6268 7.1269 14.9999 6.66667 14.9999H5.41667Z" fill="black"/>
</svg>
