<svg width="20" height="20" viewBox="0 0 20 20" fill="none" xmlns="http://www.w3.org/2000/svg">
<g clip-path="url(#clip0_2001_4719)">
<path fill-rule="evenodd" clip-rule="evenodd" d="M3.33325 2.49992C3.11224 2.49992 2.90028 2.58772 2.744 2.744C2.58772 2.90028 2.49992 3.11224 2.49992 3.33325V13.3333C2.49992 13.7935 2.12682 14.1666 1.66659 14.1666C1.20635 14.1666 0.833252 13.7935 0.833252 13.3333V3.33325C0.833252 2.67021 1.09664 2.03433 1.56549 1.56548C2.03433 1.09664 2.67021 0.833252 3.33325 0.833252H12.4999C12.9602 0.833252 13.3333 1.20635 13.3333 1.66659C13.3333 2.12682 12.9602 2.49992 12.4999 2.49992H3.33325Z" fill="black"/>
<path fill-rule="evenodd" clip-rule="evenodd" d="M7.39898 4.89898C7.86782 4.43014 8.50371 4.16675 9.16675 4.16675H17.9167C18.2483 4.16675 18.5662 4.29844 18.8006 4.53286C19.0351 4.76729 19.1667 5.08523 19.1667 5.41675V17.9167C19.1667 18.2483 19.0351 18.5662 18.8006 18.8006C18.5662 19.0351 18.2483 19.1667 17.9167 19.1667H9.16675C8.50371 19.1667 7.86782 18.9034 7.39898 18.4345C6.93014 17.9657 6.66675 17.3298 6.66675 16.6667V6.66675C6.66675 6.00371 6.93014 5.36782 7.39898 4.89898ZM8.33341 14.3097V6.66675C8.33341 6.44573 8.42121 6.23377 8.57749 6.07749C8.73377 5.92121 8.94573 5.83341 9.16675 5.83341H17.5001V14.1667H9.16675C8.88013 14.1667 8.59858 14.216 8.33341 14.3097ZM17.5001 15.8334H9.16675C8.94573 15.8334 8.73377 15.9212 8.57749 16.0775C8.42121 16.2338 8.33341 16.4457 8.33341 16.6667C8.33341 16.8878 8.42121 17.0997 8.57749 17.256C8.73377 17.4123 8.94573 17.5001 9.16675 17.5001H17.5001V15.8334Z" fill="black"/>
<path fill-rule="evenodd" clip-rule="evenodd" d="M1.56548 11.5655C2.03433 11.0966 2.67021 10.8333 3.33325 10.8333H4.16658C4.62682 10.8333 4.99992 11.2063 4.99992 11.6666C4.99992 12.1268 4.62682 12.4999 4.16658 12.4999H3.33325C3.11224 12.4999 2.90028 12.5877 2.744 12.744C2.58772 12.9003 2.49992 13.1122 2.49992 13.3333C2.49992 13.5543 2.58772 13.7662 2.744 13.9225C2.90028 14.0788 3.11224 14.1666 3.33325 14.1666H4.16658C4.62682 14.1666 4.99992 14.5397 4.99992 14.9999C4.99992 15.4602 4.62682 15.8333 4.16658 15.8333H3.33325C2.67021 15.8333 2.03433 15.5699 1.56548 15.101C1.09664 14.6322 0.833252 13.9963 0.833252 13.3333C0.833252 12.6702 1.09664 12.0343 1.56548 11.5655Z" fill="black"/>
</g>
<defs>
<clipPath id="clip0_2001_4719">
<rect width="20" height="20" fill="white"/>
</clipPath>
</defs>
</svg>
