<svg width="20" height="20" viewBox="0 0 20 20" fill="none" xmlns="http://www.w3.org/2000/svg">
<path fill-rule="evenodd" clip-rule="evenodd" d="M5.41667 2.49992C5.08515 2.49992 4.7672 2.63161 4.53278 2.86604C4.29836 3.10046 4.16667 3.4184 4.16667 3.74992V13.6147C4.55369 13.4311 4.98013 13.3333 5.41667 13.3333H15.8333V2.49992H5.41667ZM17.5 2.49992C17.5 2.05789 17.3244 1.63397 17.0118 1.32141C16.6993 1.00885 16.2754 0.833252 15.8333 0.833252H5.41667C4.64312 0.833252 3.90125 1.14054 3.35427 1.68752C2.80729 2.23451 2.5 2.97637 2.5 3.74992V16.2499C2.5 17.0235 2.80729 17.7653 3.35427 18.3123C3.90125 18.8593 4.64312 19.1666 5.41667 19.1666H15.8333C16.2754 19.1666 16.6993 18.991 17.0118 18.6784C17.3244 18.3659 17.5 17.9419 17.5 17.4999V2.49992ZM15.8333 14.9999H5.41667C5.08515 14.9999 4.7672 15.1316 4.53278 15.366C4.29836 15.6005 4.16667 15.9184 4.16667 16.2499C4.16667 16.5814 4.29836 16.8994 4.53278 17.1338C4.7672 17.3682 5.08515 17.4999 5.41667 17.4999H15.8333V14.9999Z" fill="black"/>
<path fill-rule="evenodd" clip-rule="evenodd" d="M9.99992 5.83341C9.33688 5.83341 8.70099 6.09681 8.23215 6.56565C7.76331 7.03449 7.49992 7.67037 7.49992 8.33341V10.0001C7.49992 10.4603 7.12682 10.8334 6.66659 10.8334C6.20635 10.8334 5.83325 10.4603 5.83325 10.0001V8.33341C5.83325 7.22835 6.27224 6.16854 7.05364 5.38714C7.83504 4.60573 8.89485 4.16675 9.99992 4.16675C11.105 4.16675 12.1648 4.60573 12.9462 5.38714C13.7276 6.16854 14.1666 7.22835 14.1666 8.33341V10.0001C14.1666 10.4603 13.7935 10.8334 13.3333 10.8334C12.873 10.8334 12.4999 10.4603 12.4999 10.0001V8.33341C12.4999 7.67037 12.2365 7.03449 11.7677 6.56565C11.2988 6.09681 10.663 5.83341 9.99992 5.83341Z" fill="black"/>
<path fill-rule="evenodd" clip-rule="evenodd" d="M10.8333 9.99992C10.8333 9.07944 11.5794 8.33325 12.4999 8.33325C13.4204 8.33325 14.1666 9.07944 14.1666 9.99992C14.1666 10.9204 13.4204 11.6666 12.4999 11.6666C11.5794 11.6666 10.8333 10.9204 10.8333 9.99992Z" fill="black"/>
<path fill-rule="evenodd" clip-rule="evenodd" d="M5.83325 9.99992C5.83325 9.07944 6.57944 8.33325 7.49992 8.33325C8.42039 8.33325 9.16658 9.07944 9.16658 9.99992C9.16658 10.9204 8.42039 11.6666 7.49992 11.6666C6.57944 11.6666 5.83325 10.9204 5.83325 9.99992Z" fill="black"/>
</svg>
