<svg width="20" height="20" viewBox="0 0 20 20" fill="none" xmlns="http://www.w3.org/2000/svg">
<path fill-rule="evenodd" clip-rule="evenodd" d="M5 3.33341C4.77899 3.33341 4.56702 3.42121 4.41074 3.57749C4.25446 3.73377 4.16667 3.94573 4.16667 4.16675V7.50008C4.16667 7.96032 3.79357 8.33341 3.33333 8.33341C2.8731 8.33341 2.5 7.96032 2.5 7.50008V4.16675C2.5 3.50371 2.76339 2.86782 3.23223 2.39898C3.70107 1.93014 4.33696 1.66675 5 1.66675H15C15.663 1.66675 16.2989 1.93014 16.7678 2.39898C17.2366 2.86782 17.5 3.50371 17.5 4.16675V7.50008C17.5 7.96032 17.1269 8.33341 16.6667 8.33341C16.2064 8.33341 15.8333 7.96032 15.8333 7.50008V4.16675C15.8333 3.94573 15.7455 3.73377 15.5893 3.57749C15.433 3.42121 15.221 3.33341 15 3.33341H5Z" fill="black"/>
<path fill-rule="evenodd" clip-rule="evenodd" d="M6.66659 5.83325C7.12682 5.83325 7.49992 6.20635 7.49992 6.66659V7.49992C7.49992 7.96016 7.12682 8.33325 6.66659 8.33325C6.20635 8.33325 5.83325 7.96016 5.83325 7.49992V6.66659C5.83325 6.20635 6.20635 5.83325 6.66659 5.83325Z" fill="black"/>
<path fill-rule="evenodd" clip-rule="evenodd" d="M10.0001 5.83325C10.4603 5.83325 10.8334 6.20635 10.8334 6.66659V7.49992C10.8334 7.96016 10.4603 8.33325 10.0001 8.33325C9.53984 8.33325 9.16675 7.96016 9.16675 7.49992V6.66659C9.16675 6.20635 9.53984 5.83325 10.0001 5.83325Z" fill="black"/>
<path fill-rule="evenodd" clip-rule="evenodd" d="M13.3333 5.83325C13.7936 5.83325 14.1667 6.20635 14.1667 6.66659V7.49992C14.1667 7.96016 13.7936 8.33325 13.3333 8.33325C12.8731 8.33325 12.5 7.96016 12.5 7.49992V6.66659C12.5 6.20635 12.8731 5.83325 13.3333 5.83325Z" fill="black"/>
<path fill-rule="evenodd" clip-rule="evenodd" d="M3.33325 8.33341C2.87301 8.33341 2.49992 8.70651 2.49992 9.16675V15.8334C2.49992 16.2937 2.87301 16.6667 3.33325 16.6667H16.6666C17.1268 16.6667 17.4999 16.2937 17.4999 15.8334V9.16675C17.4999 8.70651 17.1268 8.33341 16.6666 8.33341H3.33325ZM0.833252 9.16675C0.833252 7.78604 1.95254 6.66675 3.33325 6.66675H16.6666C18.0473 6.66675 19.1666 7.78604 19.1666 9.16675V15.8334C19.1666 17.2141 18.0473 18.3334 16.6666 18.3334H3.33325C1.95254 18.3334 0.833252 17.2141 0.833252 15.8334V9.16675Z" fill="black"/>
<path fill-rule="evenodd" clip-rule="evenodd" d="M6.66675 11.6667C6.20651 11.6667 5.83341 12.0398 5.83341 12.5C5.83341 12.9602 6.20651 13.3333 6.66675 13.3333C7.12699 13.3333 7.50008 12.9602 7.50008 12.5C7.50008 12.0398 7.12699 11.6667 6.66675 11.6667ZM4.16675 12.5C4.16675 11.1193 5.28604 10 6.66675 10C8.04746 10 9.16675 11.1193 9.16675 12.5C9.16675 13.8807 8.04746 15 6.66675 15C5.28604 15 4.16675 13.8807 4.16675 12.5Z" fill="black"/>
<path fill-rule="evenodd" clip-rule="evenodd" d="M13.3333 11.6667C12.873 11.6667 12.4999 12.0398 12.4999 12.5C12.4999 12.9602 12.873 13.3333 13.3333 13.3333C13.7935 13.3333 14.1666 12.9602 14.1666 12.5C14.1666 12.0398 13.7935 11.6667 13.3333 11.6667ZM10.8333 12.5C10.8333 11.1193 11.9525 10 13.3333 10C14.714 10 15.8333 11.1193 15.8333 12.5C15.8333 13.8807 14.714 15 13.3333 15C11.9525 15 10.8333 13.8807 10.8333 12.5Z" fill="black"/>
</svg>
