<svg width="20" height="20" viewBox="0 0 20 20" fill="none" xmlns="http://www.w3.org/2000/svg">
<g clip-path="url(#clip0_2001_4839)">
<path fill-rule="evenodd" clip-rule="evenodd" d="M5.83325 1.66659C5.83325 1.20635 6.20635 0.833252 6.66659 0.833252H9.99992C10.4602 0.833252 10.8333 1.20635 10.8333 1.66659V4.99992C10.8333 5.46016 10.4602 5.83325 9.99992 5.83325C9.53968 5.83325 9.16659 5.46016 9.16659 4.99992V2.49992H6.66659C6.20635 2.49992 5.83325 2.12682 5.83325 1.66659Z" fill="black"/>
<path fill-rule="evenodd" clip-rule="evenodd" d="M5 5.83341C4.77899 5.83341 4.56702 5.92121 4.41074 6.07749C4.25446 6.23377 4.16667 6.44573 4.16667 6.66675V16.3216L6.07741 14.4108C6.23369 14.2545 6.44565 14.1667 6.66667 14.1667H15C15.221 14.1667 15.433 14.079 15.5893 13.9227C15.7455 13.7664 15.8333 13.5544 15.8333 13.3334V6.66675C15.8333 6.44573 15.7455 6.23377 15.5893 6.07749C15.433 5.92121 15.221 5.83341 15 5.83341H5ZM3.23223 4.89898C3.70107 4.43014 4.33696 4.16675 5 4.16675H15C15.663 4.16675 16.2989 4.43014 16.7678 4.89898C17.2366 5.36782 17.5 6.00371 17.5 6.66675V13.3334C17.5 13.9965 17.2366 14.6323 16.7678 15.1012C16.2989 15.57 15.663 15.8334 15 15.8334H7.01185L3.92259 18.9227C3.68426 19.161 3.32583 19.2323 3.01443 19.1033C2.70304 18.9743 2.5 18.6705 2.5 18.3334V6.66675C2.5 6.00371 2.76339 5.36782 3.23223 4.89898Z" fill="black"/>
<path fill-rule="evenodd" clip-rule="evenodd" d="M0.833252 10.0001C0.833252 9.53984 1.20635 9.16675 1.66659 9.16675H3.33325C3.79349 9.16675 4.16658 9.53984 4.16658 10.0001C4.16658 10.4603 3.79349 10.8334 3.33325 10.8334H1.66659C1.20635 10.8334 0.833252 10.4603 0.833252 10.0001Z" fill="black"/>
<path fill-rule="evenodd" clip-rule="evenodd" d="M7.50008 8.33325C7.96032 8.33325 8.33341 8.70635 8.33341 9.16659V10.8333C8.33341 11.2935 7.96032 11.6666 7.50008 11.6666C7.03984 11.6666 6.66675 11.2935 6.66675 10.8333V9.16659C6.66675 8.70635 7.03984 8.33325 7.50008 8.33325Z" fill="black"/>
<path fill-rule="evenodd" clip-rule="evenodd" d="M12.5001 8.33325C12.9603 8.33325 13.3334 8.70635 13.3334 9.16659V10.8333C13.3334 11.2935 12.9603 11.6666 12.5001 11.6666C12.0398 11.6666 11.6667 11.2935 11.6667 10.8333V9.16659C11.6667 8.70635 12.0398 8.33325 12.5001 8.33325Z" fill="black"/>
<path fill-rule="evenodd" clip-rule="evenodd" d="M15.8333 10.0001C15.8333 9.53984 16.2063 9.16675 16.6666 9.16675H18.3333C18.7935 9.16675 19.1666 9.53984 19.1666 10.0001C19.1666 10.4603 18.7935 10.8334 18.3333 10.8334H16.6666C16.2063 10.8334 15.8333 10.4603 15.8333 10.0001Z" fill="black"/>
</g>
<defs>
<clipPath id="clip0_2001_4839">
<rect width="20" height="20" fill="white"/>
</clipPath>
</defs>
</svg>
