<svg width="20" height="20" viewBox="0 0 20 20" fill="none" xmlns="http://www.w3.org/2000/svg">
<g clip-path="url(#clip0_2001_4846)">
<path fill-rule="evenodd" clip-rule="evenodd" d="M10.5583 6.66659C10.5583 6.20635 10.9314 5.83325 11.3917 5.83325H15C15.6631 5.83325 16.2989 6.09664 16.7678 6.56549C17.2366 7.03433 17.5 7.67021 17.5 8.33325V11.9416C17.5 12.4018 17.1269 12.7749 16.6667 12.7749C16.2064 12.7749 15.8333 12.4018 15.8333 11.9416V8.33325C15.8333 8.11224 15.7456 7.90028 15.5893 7.744C15.433 7.58772 15.221 7.49992 15 7.49992H11.3917C10.9314 7.49992 10.5583 7.12682 10.5583 6.66659Z" fill="black"/>
<path fill-rule="evenodd" clip-rule="evenodd" d="M0.833252 11.6666C0.833252 11.2063 1.20635 10.8333 1.66659 10.8333H3.33325C3.79349 10.8333 4.16658 11.2063 4.16658 11.6666C4.16658 12.1268 3.79349 12.4999 3.33325 12.4999H1.66659C1.20635 12.4999 0.833252 12.1268 0.833252 11.6666Z" fill="black"/>
<path fill-rule="evenodd" clip-rule="evenodd" d="M15.8333 11.6666C15.8333 11.2063 16.2063 10.8333 16.6666 10.8333H18.3333C18.7935 10.8333 19.1666 11.2063 19.1666 11.6666C19.1666 12.1268 18.7935 12.4999 18.3333 12.4999H16.6666C16.2063 12.4999 15.8333 12.1268 15.8333 11.6666Z" fill="black"/>
<path fill-rule="evenodd" clip-rule="evenodd" d="M1.07733 1.07733C1.40277 0.751893 1.9304 0.751893 2.25584 1.07733L18.9225 17.744C19.2479 18.0694 19.2479 18.5971 18.9225 18.9225C18.5971 19.2479 18.0694 19.2479 17.744 18.9225L1.07733 2.25584C0.751893 1.9304 0.751893 1.40277 1.07733 1.07733Z" fill="black"/>
<path fill-rule="evenodd" clip-rule="evenodd" d="M3.23223 6.56549C3.70107 6.09664 4.33696 5.83325 5 5.83325H6.66667C7.1269 5.83325 7.5 6.20635 7.5 6.66659C7.5 7.12682 7.1269 7.49992 6.66667 7.49992H5C4.77899 7.49992 4.56702 7.58772 4.41074 7.744C4.25446 7.90028 4.16667 8.11224 4.16667 8.33325V14.9999C4.16667 15.2209 4.25446 15.4329 4.41074 15.5892C4.56702 15.7455 4.77899 15.8333 5 15.8333H14.9998C14.9999 15.8333 14.9999 15.8333 15 15.8333C15.2209 15.8332 15.4328 15.7453 15.589 15.5891C15.9144 15.2636 16.442 15.2635 16.7675 15.5889C17.093 15.9143 17.0931 16.4419 16.7677 16.7674C16.2989 17.2363 15.6632 17.4998 15.0002 17.4999H5C4.33696 17.4999 3.70107 17.2365 3.23223 16.7677C2.76339 16.2988 2.5 15.663 2.5 14.9999V8.33325C2.5 7.67021 2.76339 7.03433 3.23223 6.56549Z" fill="black"/>
<path fill-rule="evenodd" clip-rule="evenodd" d="M7.50008 10C7.96032 10 8.33341 10.3731 8.33341 10.8333V12.5C8.33341 12.9602 7.96032 13.3333 7.50008 13.3333C7.03984 13.3333 6.66675 12.9602 6.66675 12.5V10.8333C6.66675 10.3731 7.03984 10 7.50008 10Z" fill="black"/>
<path fill-rule="evenodd" clip-rule="evenodd" d="M7.2251 3.33333C7.2251 2.8731 7.59819 2.5 8.05843 2.5H10.0001C10.4603 2.5 10.8334 2.8731 10.8334 3.33333V5.275C10.8334 5.73524 10.4603 6.10833 10.0001 6.10833C9.53986 6.10833 9.16676 5.73524 9.16676 5.275V4.16667H8.05843C7.59819 4.16667 7.2251 3.79357 7.2251 3.33333Z" fill="black"/>
</g>
<defs>
<clipPath id="clip0_2001_4846">
<rect width="20" height="20" fill="white"/>
</clipPath>
</defs>
</svg>
