<svg width="20" height="20" viewBox="0 0 20 20" fill="none" xmlns="http://www.w3.org/2000/svg">
<path fill-rule="evenodd" clip-rule="evenodd" d="M5.83325 3.33333C5.83325 2.8731 6.20635 2.5 6.66659 2.5H9.99992C10.4602 2.5 10.8333 2.8731 10.8333 3.33333V6.66667C10.8333 7.1269 10.4602 7.5 9.99992 7.5C9.53968 7.5 9.16659 7.1269 9.16659 6.66667V4.16667H6.66659C6.20635 4.16667 5.83325 3.79357 5.83325 3.33333Z" fill="black"/>
<path fill-rule="evenodd" clip-rule="evenodd" d="M5 7.49992C4.53976 7.49992 4.16667 7.87301 4.16667 8.33325V14.9999C4.16667 15.4602 4.53976 15.8333 5 15.8333H15C15.4602 15.8333 15.8333 15.4602 15.8333 14.9999V8.33325C15.8333 7.87301 15.4602 7.49992 15 7.49992H5ZM2.5 8.33325C2.5 6.95254 3.61929 5.83325 5 5.83325H15C16.3807 5.83325 17.5 6.95254 17.5 8.33325V14.9999C17.5 16.3806 16.3807 17.4999 15 17.4999H5C3.61929 17.4999 2.5 16.3806 2.5 14.9999V8.33325Z" fill="black"/>
<path fill-rule="evenodd" clip-rule="evenodd" d="M0.833252 11.6666C0.833252 11.2063 1.20635 10.8333 1.66659 10.8333H3.33325C3.79349 10.8333 4.16658 11.2063 4.16658 11.6666C4.16658 12.1268 3.79349 12.4999 3.33325 12.4999H1.66659C1.20635 12.4999 0.833252 12.1268 0.833252 11.6666Z" fill="black"/>
<path fill-rule="evenodd" clip-rule="evenodd" d="M15.8333 11.6666C15.8333 11.2063 16.2063 10.8333 16.6666 10.8333H18.3333C18.7935 10.8333 19.1666 11.2063 19.1666 11.6666C19.1666 12.1268 18.7935 12.4999 18.3333 12.4999H16.6666C16.2063 12.4999 15.8333 12.1268 15.8333 11.6666Z" fill="black"/>
<path fill-rule="evenodd" clip-rule="evenodd" d="M12.5001 10C12.9603 10 13.3334 10.3731 13.3334 10.8333V12.5C13.3334 12.9602 12.9603 13.3333 12.5001 13.3333C12.0398 13.3333 11.6667 12.9602 11.6667 12.5V10.8333C11.6667 10.3731 12.0398 10 12.5001 10Z" fill="black"/>
<path fill-rule="evenodd" clip-rule="evenodd" d="M7.50008 10C7.96032 10 8.33341 10.3731 8.33341 10.8333V12.5C8.33341 12.9602 7.96032 13.3333 7.50008 13.3333C7.03984 13.3333 6.66675 12.9602 6.66675 12.5V10.8333C6.66675 10.3731 7.03984 10 7.50008 10Z" fill="black"/>
</svg>
