<svg width="20" height="20" viewBox="0 0 20 20" fill="none" xmlns="http://www.w3.org/2000/svg">
<path fill-rule="evenodd" clip-rule="evenodd" d="M5.40424 8.03566C5.66818 7.87717 5.998 7.87711 6.262 8.0355L10.4287 10.5355C10.6797 10.6861 10.8333 10.9574 10.8333 11.2501V15.8334C10.8333 16.1262 10.6796 16.3976 10.4284 16.5482L7.12075 18.5311C7.1207 18.5311 7.1208 18.531 7.12075 18.5311C6.73196 18.7646 6.2868 18.8881 5.83325 18.8881C5.37981 18.8881 4.9349 18.7648 4.54617 18.5313C4.54603 18.5312 4.54631 18.5314 4.54617 18.5313L2.04617 17.0313C1.67712 16.8096 1.37116 16.4961 1.15874 16.1216C0.946313 15.7471 0.834198 15.3241 0.833254 14.8936L0.833252 14.8917V12.1917L0.833254 12.1899C0.834198 11.7594 0.946312 11.3364 1.15874 10.9619C1.37116 10.5874 1.6767 10.2741 2.04575 10.0524L5.40424 8.03566ZM5.83343 9.72201L2.90408 11.4811C2.90403 11.4811 2.90414 11.481 2.90408 11.4811C2.78114 11.555 2.67919 11.6595 2.60841 11.7842C2.53773 11.9088 2.50036 12.0496 2.49992 12.1928V14.8907C2.50036 15.0339 2.53773 15.1746 2.60841 15.2993C2.67919 15.424 2.78098 15.5284 2.90393 15.6023C2.90389 15.6023 2.90398 15.6024 2.90393 15.6023L5.40367 17.1022C5.53327 17.18 5.68205 17.2214 5.83325 17.2214C5.98445 17.2214 6.13281 17.1803 6.26242 17.1024L9.16658 15.3614V11.7219L5.83343 9.72201Z" fill="black"/>
<path fill-rule="evenodd" clip-rule="evenodd" d="M1.16908 10.9456C1.40624 10.5511 1.91824 10.4236 2.31267 10.6608L6.26267 13.0358C6.6571 13.2729 6.7846 13.7849 6.54744 14.1794C6.31028 14.5738 5.79828 14.7013 5.40385 14.4641L1.45385 12.0891C1.05942 11.852 0.931928 11.34 1.16908 10.9456Z" fill="black"/>
<path fill-rule="evenodd" clip-rule="evenodd" d="M10.7145 10.8212C10.9512 11.2159 10.8233 11.7278 10.4286 11.9645L6.26196 14.4645C5.86731 14.7013 5.35543 14.5734 5.11864 14.1787C4.88185 13.7841 5.00982 13.2722 5.40447 13.0354L9.57114 10.5354C9.96579 10.2986 10.4777 10.4266 10.7145 10.8212Z" fill="black"/>
<path fill-rule="evenodd" clip-rule="evenodd" d="M5.83333 12.9167C6.29357 12.9167 6.66667 13.2898 6.66667 13.7501V18.0584C6.66667 18.5187 6.29357 18.8917 5.83333 18.8917C5.3731 18.8917 5 18.5187 5 18.0584V13.7501C5 13.2898 5.3731 12.9167 5.83333 12.9167Z" fill="black"/>
<path fill-rule="evenodd" clip-rule="evenodd" d="M13.738 8.0355C14.002 7.87711 14.3318 7.87717 14.5958 8.03566L17.9541 10.0523C18.3231 10.2741 18.6288 10.5874 18.8413 10.9619C19.0537 11.3364 19.1658 11.7594 19.1667 12.1899L19.1668 12.1917L19.1667 14.8917L19.1667 14.8936C19.1658 15.3241 19.0537 15.7471 18.8413 16.1216C18.6288 16.4961 18.3233 16.8093 17.9542 17.0311L15.4542 18.5311C15.4541 18.5312 15.4544 18.531 15.4542 18.5311C15.0655 18.7645 14.6202 18.8881 14.1667 18.8881C13.7132 18.8881 13.2681 18.7647 12.8793 18.5311C12.8793 18.5311 12.8793 18.5311 12.8793 18.5311L9.5716 16.5482C9.32045 16.3976 9.16675 16.1262 9.16675 15.8334V11.2501C9.16675 10.9574 9.32033 10.6861 9.57133 10.5355L13.738 8.0355ZM10.8334 11.7219V15.3614L13.7369 17.102C13.8665 17.1799 14.0155 17.2214 14.1667 17.2214C14.318 17.2214 14.4663 17.1803 14.5959 17.1024L17.0959 15.6024C17.2187 15.5285 17.3209 15.4239 17.3916 15.2993C17.4623 15.1747 17.4996 15.034 17.5001 14.8908V12.1927C17.4996 12.0495 17.4623 11.9088 17.3916 11.7842C17.3208 11.6595 17.219 11.5551 17.0961 11.4812C17.096 11.4811 17.0961 11.4812 17.0961 11.4812L14.1666 9.72201L10.8334 11.7219Z" fill="black"/>
<path fill-rule="evenodd" clip-rule="evenodd" d="M9.28539 10.8212C9.52218 10.4266 10.0341 10.2986 10.4287 10.5354L14.5954 13.0354C14.99 13.2722 15.118 13.7841 14.8812 14.1787C14.6444 14.5734 14.1325 14.7013 13.7379 14.4645L9.57122 11.9645C9.17657 11.7278 9.0486 11.2159 9.28539 10.8212Z" fill="black"/>
<path fill-rule="evenodd" clip-rule="evenodd" d="M18.8309 10.9456C19.068 11.34 18.9406 11.852 18.5461 12.0891L14.5961 14.4641C14.2017 14.7013 13.6897 14.5738 13.4525 14.1794C13.2154 13.7849 13.3429 13.2729 13.7373 13.0358L17.6873 10.6608C18.0817 10.4236 18.5937 10.5511 18.8309 10.9456Z" fill="black"/>
<path fill-rule="evenodd" clip-rule="evenodd" d="M14.1666 12.9167C14.6268 12.9167 14.9999 13.2898 14.9999 13.7501V18.0584C14.9999 18.5187 14.6268 18.8917 14.1666 18.8917C13.7063 18.8917 13.3333 18.5187 13.3333 18.0584V13.7501C13.3333 13.2898 13.7063 12.9167 14.1666 12.9167Z" fill="black"/>
<path fill-rule="evenodd" clip-rule="evenodd" d="M8.71292 1.46883C9.10165 1.23539 9.54655 1.11206 10 1.11206C10.4534 1.11206 10.8983 1.23539 11.2871 1.46883C11.2869 1.46875 11.2872 1.46892 11.2871 1.46883L13.7871 2.96883C14.1561 3.19056 14.4621 3.50409 14.6745 3.87857C14.8869 4.25305 14.9991 4.67605 15 5.10658L15 5.10841L15 8.75008C15 9.0428 14.8464 9.31405 14.5954 9.46465L10.4287 11.9647C10.1648 12.123 9.83516 12.123 9.57125 11.9647L5.40459 9.46465C5.15358 9.31405 5 9.0428 5 8.75008V5.10658C5.00094 4.67605 5.11306 4.25305 5.32549 3.87857C5.53791 3.50409 5.84345 3.19081 6.2125 2.96908L8.71292 1.46883ZM10 2.77873C9.8488 2.77873 9.70044 2.81987 9.57083 2.89774L7.07083 4.39774C7.07076 4.39778 7.0709 4.3977 7.07083 4.39774C6.9479 4.47164 6.84593 4.57614 6.77516 4.7009C6.70447 4.82551 6.66711 4.96623 6.66667 5.10948V8.27825L10 10.2783L13.3333 8.27825V5.10936C13.3329 4.96615 13.2955 4.82547 13.2248 4.7009C13.1541 4.57621 13.0524 4.47188 12.9296 4.39799L10.4296 2.89799C10.3 2.82012 10.1512 2.77873 10 2.77873Z" fill="black"/>
<path fill-rule="evenodd" clip-rule="evenodd" d="M5.33583 3.8623C5.57299 3.46787 6.08499 3.34038 6.47942 3.57753L10.4294 5.95253C10.8239 6.18969 10.9513 6.70169 10.7142 7.09612C10.477 7.49055 9.96503 7.61805 9.5706 7.38089L5.6206 5.00589C5.22617 4.76873 5.09868 4.25673 5.33583 3.8623Z" fill="black"/>
<path fill-rule="evenodd" clip-rule="evenodd" d="M14.6641 3.8623C14.9013 4.25673 14.7738 4.76873 14.3794 5.00589L10.4294 7.38089C10.0349 7.61805 9.52294 7.49055 9.28578 7.09612C9.04863 6.70169 9.17612 6.18969 9.57055 5.95253L13.5206 3.57753C13.915 3.34038 14.427 3.46787 14.6641 3.8623Z" fill="black"/>
<path fill-rule="evenodd" clip-rule="evenodd" d="M10.0001 5.83325C10.4603 5.83325 10.8334 6.20635 10.8334 6.66659V11.2499C10.8334 11.7102 10.4603 12.0833 10.0001 12.0833C9.53984 12.0833 9.16675 11.7102 9.16675 11.2499V6.66659C9.16675 6.20635 9.53984 5.83325 10.0001 5.83325Z" fill="black"/>
</svg>
