<svg width="20" height="20" viewBox="0 0 20 20" fill="none" xmlns="http://www.w3.org/2000/svg">
<path fill-rule="evenodd" clip-rule="evenodd" d="M12.5 2.50008C12.5 2.03984 12.8731 1.66675 13.3333 1.66675H15.8333C16.2936 1.66675 16.6667 2.03984 16.6667 2.50008V17.5001C16.6667 17.9603 16.2936 18.3334 15.8333 18.3334H13.3333C12.8731 18.3334 12.5 17.9603 12.5 17.5001C12.5 17.0398 12.8731 16.6667 13.3333 16.6667H15V3.33341H13.3333C12.8731 3.33341 12.5 2.96032 12.5 2.50008Z" fill="black"/>
<path fill-rule="evenodd" clip-rule="evenodd" d="M3.33325 2.50008C3.33325 2.03984 3.70635 1.66675 4.16659 1.66675H6.66658C7.12682 1.66675 7.49992 2.03984 7.49992 2.50008C7.49992 2.96032 7.12682 3.33341 6.66658 3.33341H4.99992V16.6667H6.66658C7.12682 16.6667 7.49992 17.0398 7.49992 17.5001C7.49992 17.9603 7.12682 18.3334 6.66658 18.3334H4.16659C3.70635 18.3334 3.33325 17.9603 3.33325 17.5001V2.50008Z" fill="black"/>
</svg>
