<svg width="20" height="20" viewBox="0 0 20 20" fill="none" xmlns="http://www.w3.org/2000/svg">
<path fill-rule="evenodd" clip-rule="evenodd" d="M4.06565 2.39898C4.53449 1.93014 5.17037 1.66675 5.83342 1.66675H6.66675C7.12699 1.66675 7.50008 2.03984 7.50008 2.50008C7.50008 2.96032 7.12699 3.33341 6.66675 3.33341H5.83342C5.6124 3.33341 5.40044 3.42121 5.24416 3.57749C5.08788 3.73377 5.00008 3.94573 5.00008 4.16675V8.33341C5.00008 8.94994 4.77235 9.54298 4.36348 10.0001C4.77235 10.4572 5.00008 11.0502 5.00008 11.6667V15.8334C5.00008 16.2898 5.37699 16.6667 5.83342 16.6667H6.66675C7.12699 16.6667 7.50008 17.0398 7.50008 17.5001C7.50008 17.9603 7.12699 18.3334 6.66675 18.3334H5.83342C4.45651 18.3334 3.33341 17.2103 3.33341 15.8334V11.6667C3.33341 11.4457 3.24562 11.2338 3.08934 11.0775C2.93306 10.9212 2.72109 10.8334 2.50008 10.8334C2.03984 10.8334 1.66675 10.4603 1.66675 10.0001C1.66675 9.53984 2.03984 9.16675 2.50008 9.16675C2.72109 9.16675 2.93306 9.07895 3.08934 8.92267C3.24562 8.76639 3.33341 8.55443 3.33341 8.33341V4.16675C3.33341 3.50371 3.59681 2.86782 4.06565 2.39898Z" fill="black"/>
<path fill-rule="evenodd" clip-rule="evenodd" d="M12.5 2.50008C12.5 2.03984 12.8731 1.66675 13.3333 1.66675H14.1667C14.8297 1.66675 15.4656 1.93014 15.9344 2.39898C16.4033 2.86782 16.6667 3.50371 16.6667 4.16675V8.33341C16.6667 8.55443 16.7545 8.76639 16.9107 8.92267C17.067 9.07895 17.279 9.16675 17.5 9.16675C17.9602 9.16675 18.3333 9.53984 18.3333 10.0001C18.3333 10.4603 17.9602 10.8334 17.5 10.8334C17.0436 10.8334 16.6667 11.2103 16.6667 11.6667V15.8334C16.6667 16.4965 16.4033 17.1323 15.9344 17.6012C15.4656 18.07 14.8297 18.3334 14.1667 18.3334H13.3333C12.8731 18.3334 12.5 17.9603 12.5 17.5001C12.5 17.0398 12.8731 16.6667 13.3333 16.6667H14.1667C14.3877 16.6667 14.5996 16.5789 14.7559 16.4227C14.9122 16.2664 15 16.0544 15 15.8334V11.6667C15 11.0282 15.2415 10.4442 15.6379 10.0016C15.2282 9.54426 15 8.9506 15 8.33341V4.16675C15 3.94573 14.9122 3.73377 14.7559 3.57749C14.5996 3.42121 14.3877 3.33341 14.1667 3.33341H13.3333C12.8731 3.33341 12.5 2.96032 12.5 2.50008Z" fill="black"/>
</svg>
