<svg width="20" height="20" viewBox="0 0 20 20" fill="none" xmlns="http://www.w3.org/2000/svg">
<path fill-rule="evenodd" clip-rule="evenodd" d="M7.43065 0.826652C7.87497 0.81739 8.31665 0.897071 8.72972 1.06101C9.14279 1.22494 9.51891 1.46982 9.83595 1.78124C10.153 2.09267 10.4046 2.46434 10.5759 2.87442C10.747 3.28403 10.8345 3.72369 10.8334 4.16759V15L10.8334 15.0008C10.8328 15.5704 10.7155 16.1337 10.4886 16.6561C10.2617 17.1785 9.9302 17.6489 9.51444 18.0381C9.09868 18.4273 8.60753 18.7272 8.07134 18.9192C7.53514 19.1112 6.96528 19.1912 6.39695 19.1543C5.82862 19.1174 5.27388 18.9644 4.767 18.7048C4.26011 18.4451 3.81185 18.0843 3.44988 17.6446C3.08791 17.2048 2.81993 16.6956 2.66249 16.1483C2.55487 15.7742 2.50045 15.3877 2.50011 15.0001C2.10355 14.7028 1.76202 14.3363 1.49278 13.9167C1.12612 13.3454 0.904615 12.6932 0.847525 12.0167C0.790435 11.3402 0.899491 10.6601 1.16521 10.0354C1.34577 9.61089 1.59496 9.22073 1.90147 8.87994C1.76482 8.49091 1.68628 8.0826 1.66945 7.6682C1.64379 7.03652 1.76222 6.40728 2.01575 5.82814C2.26929 5.249 2.65129 4.73514 3.13282 4.3255C3.45517 4.05127 3.81645 3.82856 4.20377 3.66405C4.23754 3.43926 4.2943 3.21797 4.37349 3.0037C4.52755 2.58684 4.76342 2.20501 5.06721 1.88064C5.37101 1.55628 5.73659 1.29594 6.14248 1.11493C6.54836 0.933929 6.98633 0.835913 7.43065 0.826652ZM8.11492 2.61013C7.90838 2.52817 7.68754 2.48833 7.46538 2.49296C7.24322 2.49759 7.02423 2.54659 6.82129 2.6371C6.61835 2.7276 6.43556 2.85777 6.28366 3.01995C6.13177 3.18213 6.01383 3.37305 5.9368 3.58148C5.85977 3.78991 5.82519 4.01163 5.83511 4.23362C5.85269 4.62744 5.59192 4.97971 5.21012 5.07787C4.84275 5.17234 4.50169 5.34916 4.21277 5.59494C3.92385 5.84073 3.69465 6.14905 3.54252 6.49653C3.3904 6.84401 3.31935 7.22156 3.33474 7.60057C3.35013 7.97958 3.45157 8.35012 3.63137 8.68413C3.821 9.03637 3.73356 9.47367 3.42306 9.72592C3.10692 9.98275 2.85833 10.3129 2.6989 10.6878C2.53947 11.0626 2.47403 11.4707 2.50829 11.8765C2.54254 12.2824 2.67545 12.6738 2.89544 13.0166C3.11543 13.3594 3.41585 13.6432 3.77056 13.8434C4.06603 14.0102 4.23089 14.3395 4.1874 14.6759C4.14359 15.0148 4.16973 15.3591 4.2642 15.6875C4.35867 16.0159 4.51946 16.3215 4.73664 16.5853C4.95382 16.8491 5.22278 17.0656 5.52691 17.2214C5.83104 17.3772 6.16388 17.469 6.50488 17.4912C6.84588 17.5133 7.1878 17.4653 7.50951 17.3501C7.83123 17.2349 8.12591 17.055 8.37537 16.8214C8.62483 16.5879 8.82375 16.3057 8.95987 15.9922C9.09593 15.6789 9.16635 15.3411 9.16677 14.9995C9.16677 14.9994 9.16677 14.9992 9.16677 14.9991V4.16663C9.16677 4.16581 9.16677 4.16499 9.16677 4.16417C9.16743 3.94197 9.12364 3.72187 9.03799 3.51684C8.95234 3.3118 8.82656 3.12596 8.66803 2.97025C8.50951 2.81454 8.32145 2.6921 8.11492 2.61013Z" fill="black"/>
<path fill-rule="evenodd" clip-rule="evenodd" d="M10.0454 6.66801C10.505 6.69306 10.8572 7.08592 10.8322 7.54547C10.7828 8.4506 10.4662 9.32077 9.92229 10.0459C9.37841 10.7711 8.63171 11.3187 7.77661 11.6195C7.34245 11.7723 6.86668 11.5441 6.71395 11.11C6.56122 10.6758 6.78937 10.2001 7.22352 10.0473C7.76768 9.8559 8.24285 9.50742 8.58896 9.04594C8.93507 8.58447 9.13656 8.03072 9.16797 7.45473C9.19302 6.99518 9.58588 6.64295 10.0454 6.66801Z" fill="black"/>
<path fill-rule="evenodd" clip-rule="evenodd" d="M4.9685 3.43821C5.42835 3.41941 5.81638 3.77696 5.83517 4.23681C5.84616 4.50555 5.92202 4.76764 6.05629 5.0007C6.28603 5.39949 6.14898 5.90902 5.75019 6.13876C5.35139 6.3685 4.84186 6.23146 4.61212 5.83266C4.3436 5.36655 4.19187 4.84237 4.1699 4.30488C4.1511 3.84503 4.50864 3.45701 4.9685 3.43821Z" fill="black"/>
<path fill-rule="evenodd" clip-rule="evenodd" d="M4.11371 8.34561C4.33704 8.74803 4.19186 9.2553 3.78944 9.47863C3.66051 9.55019 3.53816 9.63301 3.42382 9.72613C3.06696 10.0168 2.54206 9.9631 2.25142 9.60624C1.96078 9.24938 2.01446 8.72448 2.37132 8.43384C2.56188 8.27864 2.7658 8.1406 2.98069 8.02134C3.38311 7.79801 3.89038 7.94319 4.11371 8.34561Z" fill="black"/>
<path fill-rule="evenodd" clip-rule="evenodd" d="M2.63499 14.1606C2.8611 13.7598 3.36936 13.6181 3.77023 13.8442C4.14539 14.0558 4.56887 14.1669 4.9996 14.1667C5.45984 14.1665 5.83311 14.5394 5.83332 14.9997C5.83354 15.4599 5.46062 15.8332 5.00038 15.8334C4.28249 15.8337 3.5767 15.6486 2.95142 15.2959C2.55055 15.0698 2.40888 14.5615 2.63499 14.1606Z" fill="black"/>
<path fill-rule="evenodd" clip-rule="evenodd" d="M9.16675 10.8333C9.16675 10.3731 9.53984 10 10.0001 10H13.3334C13.7937 10 14.1667 10.3731 14.1667 10.8333C14.1667 11.2936 13.7937 11.6667 13.3334 11.6667H10.0001C9.53984 11.6667 9.16675 11.2936 9.16675 10.8333Z" fill="black"/>
<path fill-rule="evenodd" clip-rule="evenodd" d="M9.16675 15.0001C9.16675 14.5398 9.53984 14.1667 10.0001 14.1667H15.0001C15.6631 14.1667 16.299 14.4301 16.7678 14.899C17.2367 15.3678 17.5001 16.0037 17.5001 16.6667V17.5001C17.5001 17.9603 17.127 18.3334 16.6667 18.3334C16.2065 18.3334 15.8334 17.9603 15.8334 17.5001V16.6667C15.8334 16.4457 15.7456 16.2338 15.5893 16.0775C15.4331 15.9212 15.2211 15.8334 15.0001 15.8334H10.0001C9.53984 15.8334 9.16675 15.4603 9.16675 15.0001Z" fill="black"/>
<path fill-rule="evenodd" clip-rule="evenodd" d="M9.16675 6.66659C9.16675 6.20635 9.53984 5.83325 10.0001 5.83325H16.6667C17.127 5.83325 17.5001 6.20635 17.5001 6.66659C17.5001 7.12682 17.127 7.49992 16.6667 7.49992H10.0001C9.53984 7.49992 9.16675 7.12682 9.16675 6.66659Z" fill="black"/>
<path fill-rule="evenodd" clip-rule="evenodd" d="M15 3.33341C14.779 3.33341 14.567 3.42121 14.4107 3.57749C14.2545 3.73377 14.1667 3.94573 14.1667 4.16675V6.66675C14.1667 7.12699 13.7936 7.50008 13.3333 7.50008C12.8731 7.50008 12.5 7.12699 12.5 6.66675V4.16675C12.5 3.50371 12.7634 2.86782 13.2322 2.39898C13.7011 1.93014 14.337 1.66675 15 1.66675C15.4602 1.66675 15.8333 2.03984 15.8333 2.50008C15.8333 2.96032 15.4602 3.33341 15 3.33341Z" fill="black"/>
<path fill-rule="evenodd" clip-rule="evenodd" d="M13.3333 11.2499C13.5634 11.2499 13.7499 11.0634 13.7499 10.8333C13.7499 10.6031 13.5634 10.4166 13.3333 10.4166C13.1031 10.4166 12.9166 10.6031 12.9166 10.8333C12.9166 11.0634 13.1031 11.2499 13.3333 11.2499ZM12.0833 10.8333C12.0833 10.1429 12.6429 9.58325 13.3333 9.58325C14.0236 9.58325 14.5833 10.1429 14.5833 10.8333C14.5833 11.5236 14.0236 12.0833 13.3333 12.0833C12.6429 12.0833 12.0833 11.5236 12.0833 10.8333Z" fill="black"/>
<path fill-rule="evenodd" clip-rule="evenodd" d="M15 2.91667C15.2301 2.91667 15.4167 2.73012 15.4167 2.5C15.4167 2.26988 15.2301 2.08333 15 2.08333C14.7699 2.08333 14.5833 2.26988 14.5833 2.5C14.5833 2.73012 14.7699 2.91667 15 2.91667ZM13.75 2.5C13.75 1.80964 14.3096 1.25 15 1.25C15.6904 1.25 16.25 1.80964 16.25 2.5C16.25 3.19036 15.6904 3.75 15 3.75C14.3096 3.75 13.75 3.19036 13.75 2.5Z" fill="black"/>
<path fill-rule="evenodd" clip-rule="evenodd" d="M16.6667 17.9167C16.8969 17.9167 17.0834 17.7301 17.0834 17.5C17.0834 17.2699 16.8969 17.0833 16.6667 17.0833C16.4366 17.0833 16.2501 17.2699 16.2501 17.5C16.2501 17.7301 16.4366 17.9167 16.6667 17.9167ZM15.4167 17.5C15.4167 16.8096 15.9764 16.25 16.6667 16.25C17.3571 16.25 17.9167 16.8096 17.9167 17.5C17.9167 18.1904 17.3571 18.75 16.6667 18.75C15.9764 18.75 15.4167 18.1904 15.4167 17.5Z" fill="black"/>
<path fill-rule="evenodd" clip-rule="evenodd" d="M16.6667 7.08341C16.8969 7.08341 17.0834 6.89687 17.0834 6.66675C17.0834 6.43663 16.8969 6.25008 16.6667 6.25008C16.4366 6.25008 16.2501 6.43663 16.2501 6.66675C16.2501 6.89687 16.4366 7.08341 16.6667 7.08341ZM15.4167 6.66675C15.4167 5.97639 15.9764 5.41675 16.6667 5.41675C17.3571 5.41675 17.9167 5.97639 17.9167 6.66675C17.9167 7.3571 17.3571 7.91675 16.6667 7.91675C15.9764 7.91675 15.4167 7.3571 15.4167 6.66675Z" fill="black"/>
</svg>
