<svg width="20" height="20" viewBox="0 0 20 20" fill="none" xmlns="http://www.w3.org/2000/svg">
<g clip-path="url(#clip0_2001_4898)">
<path fill-rule="evenodd" clip-rule="evenodd" d="M7.42121 0.841022C7.8647 0.830521 8.30584 0.908652 8.71875 1.07084C9.13166 1.23302 9.50805 1.47599 9.82584 1.78552C9.88632 1.84442 9.94444 1.9055 10.0001 1.96862C10.0558 1.9055 10.1139 1.84442 10.1744 1.78552C10.4922 1.47599 10.8685 1.23302 11.2815 1.07084C11.6944 0.908652 12.1355 0.830521 12.579 0.841022C13.0225 0.851523 13.4594 0.950446 13.8642 1.13199C14.269 1.31354 14.6334 1.57405 14.9362 1.89827C15.239 2.22249 15.4741 2.60389 15.6276 3.02011C15.7063 3.23369 15.7628 3.45424 15.7964 3.67825C16.1838 3.84276 16.545 4.06547 16.8674 4.33969C17.3489 4.74934 17.7309 5.2632 17.9845 5.84234C18.238 6.42148 18.3564 7.05072 18.3308 7.6824C18.3139 8.0968 18.2354 8.50511 18.0987 8.89414C18.4052 9.23493 18.6544 9.62509 18.835 10.0496C19.1007 10.6743 19.2098 11.3544 19.1527 12.0309C19.0956 12.7073 18.8741 13.3596 18.5074 13.9309C18.2382 14.3505 17.8967 14.717 17.5001 15.0143C17.4994 15.8297 17.2593 16.6313 16.8036 17.3169C16.2479 18.153 15.409 18.7604 14.4412 19.0273C13.4734 19.2942 12.4418 19.2028 11.5361 18.7697C10.9258 18.4779 10.4003 18.0442 10.0001 17.5106C9.5999 18.0442 9.07442 18.4779 8.46413 18.7697C7.5584 19.2028 6.52677 19.2942 5.55897 19.0273C4.59117 18.7604 3.75228 18.153 3.19659 17.3169C2.74093 16.6313 2.50081 15.8297 2.50009 15.0143C2.10354 14.717 1.76202 14.3505 1.49278 13.9309C1.12612 13.3596 0.904615 12.7073 0.847525 12.0309C0.790435 11.3544 0.899491 10.6743 1.16521 10.0496C1.34577 9.62509 1.59496 9.23493 1.90147 8.89414C1.76482 8.50511 1.68628 8.0968 1.66945 7.6824C1.64379 7.05072 1.76222 6.42148 2.01575 5.84234C2.26929 5.2632 2.65129 4.74934 3.13282 4.33969C3.45517 4.06547 3.81645 3.84276 4.20376 3.67825C4.23741 3.45424 4.29389 3.23369 4.37266 3.02011C4.52615 2.60389 4.76118 2.22249 5.06397 1.89827C5.36676 1.57405 5.73122 1.31354 6.136 1.13199C6.54077 0.950446 6.97771 0.851523 7.42121 0.841022ZM11.0455 16.0183C11.2864 16.5653 11.7155 17.0081 12.255 17.2661C12.7985 17.5259 13.4174 17.5808 13.9981 17.4206C14.5788 17.2605 15.0821 16.8961 15.4155 16.3944C15.749 15.8927 15.89 15.2875 15.8128 14.6901C15.7693 14.3537 15.9342 14.0244 16.2296 13.8576C16.5844 13.6574 16.8848 13.3736 17.1048 13.0308C17.3248 12.688 17.4577 12.2966 17.4919 11.8907C17.5262 11.4849 17.4607 11.0768 17.3013 10.702C17.1419 10.3271 16.8933 9.99695 16.5771 9.74012C16.2667 9.48787 16.1792 9.05057 16.3688 8.69832C16.5486 8.36432 16.6501 7.99378 16.6655 7.61477C16.6809 7.23576 16.6098 6.85821 16.4577 6.51073C16.3056 6.16324 16.0764 5.85493 15.7874 5.60914C15.4985 5.36336 15.1575 5.18653 14.7901 5.09207C14.4083 4.9939 14.1475 4.64163 14.1651 4.2478C14.175 4.02621 14.1406 3.80488 14.0638 3.59676C13.9871 3.38865 13.8696 3.19795 13.7182 3.03585C13.5668 2.87374 13.3845 2.74348 13.1822 2.65271C12.9798 2.56193 12.7613 2.51247 12.5395 2.50722C12.3178 2.50197 12.0972 2.54104 11.8908 2.62213C11.6843 2.70322 11.4961 2.82471 11.3372 2.97947C11.1783 3.13423 11.0519 3.31915 10.9654 3.5234C10.8789 3.72764 10.834 3.9471 10.8334 4.16891C10.8322 4.62827 10.4595 4.99999 10.0001 4.99999C9.54075 4.99999 9.16802 4.62827 9.16677 4.16891C9.16617 3.9471 9.1213 3.72764 9.03479 3.5234C8.94828 3.31915 8.82188 3.13423 8.66298 2.97947C8.50408 2.82471 8.31589 2.70322 8.10943 2.62213C7.90297 2.54104 7.68241 2.50197 7.46066 2.50722C7.23891 2.51247 7.02044 2.56193 6.81805 2.65271C6.61567 2.74348 6.43344 2.87374 6.28204 3.03585C6.13064 3.19796 6.01313 3.38865 5.93638 3.59676C5.85964 3.80488 5.82521 4.02621 5.83511 4.2478C5.8527 4.64163 5.59192 4.9939 5.21012 5.09207C4.84275 5.18653 4.50169 5.36336 4.21277 5.60914C3.92385 5.85493 3.69465 6.16324 3.54252 6.51073C3.3904 6.85821 3.31935 7.23576 3.33474 7.61477C3.35013 7.99378 3.45157 8.36432 3.63137 8.69832C3.821 9.05057 3.73356 9.48787 3.42306 9.74012C3.10692 9.99695 2.85833 10.3271 2.6989 10.702C2.53947 11.0768 2.47403 11.4849 2.50829 11.8907C2.54254 12.2966 2.67545 12.688 2.89544 13.0308C3.11543 13.3736 3.41585 13.6574 3.77056 13.8576C4.06603 14.0244 4.23089 14.3537 4.18739 14.6901C4.11018 15.2875 4.25125 15.8927 4.58466 16.3944C4.91808 16.8961 5.42141 17.2605 6.00209 17.4206C6.58277 17.5808 7.20175 17.5259 7.74518 17.2661C8.28495 17.008 8.71413 16.565 8.95501 16.0176C8.99349 15.9197 9.02348 15.8187 9.04465 15.7156C9.04518 15.7131 9.04573 15.7105 9.04628 15.7079C9.11754 15.3771 9.34251 15.1812 9.51869 15.0872C9.68886 14.9964 9.86159 14.9687 10.0002 14.9687C10.139 14.9687 10.3111 14.9964 10.4806 15.0865C10.6557 15.1796 10.8802 15.3734 10.9534 15.7019C10.9541 15.7047 10.9547 15.7075 10.9553 15.7103C10.9557 15.7125 10.9562 15.7147 10.9567 15.717C10.9776 15.8198 11.0073 15.9206 11.0455 16.0183Z" fill="black"/>
<path fill-rule="evenodd" clip-rule="evenodd" d="M15.0328 3.43823C15.4926 3.45732 15.8499 3.84556 15.8309 4.3054C15.8086 4.84298 15.6564 5.36716 15.3875 5.83318C15.1575 6.23181 14.6479 6.36849 14.2492 6.13846C13.8506 5.90844 13.7139 5.39881 13.944 5.00018C14.0784 4.76717 14.1545 4.50508 14.1656 4.23629C14.1847 3.77645 14.573 3.41914 15.0328 3.43823Z" fill="black"/>
<path fill-rule="evenodd" clip-rule="evenodd" d="M4.9685 3.43821C5.42835 3.41941 5.81638 3.77696 5.83517 4.23681C5.84616 4.50555 5.92202 4.76764 6.05629 5.0007C6.28603 5.39949 6.14898 5.90902 5.75019 6.13876C5.35139 6.3685 4.84186 6.23146 4.61212 5.83266C4.3436 5.36655 4.19187 4.84237 4.1699 4.30488C4.1511 3.84503 4.50864 3.45701 4.9685 3.43821Z" fill="black"/>
<path fill-rule="evenodd" clip-rule="evenodd" d="M4.11371 8.34561C4.33704 8.74803 4.19186 9.2553 3.78944 9.47863C3.66051 9.55019 3.53816 9.63301 3.42382 9.72613C3.06696 10.0168 2.54206 9.9631 2.25142 9.60624C1.96078 9.24938 2.01446 8.72448 2.37132 8.43384C2.56188 8.27864 2.7658 8.1406 2.98069 8.02134C3.38311 7.79801 3.89038 7.94319 4.11371 8.34561Z" fill="black"/>
<path fill-rule="evenodd" clip-rule="evenodd" d="M15.8863 8.34561C16.1097 7.94319 16.6169 7.79801 17.0194 8.02134C17.2342 8.1406 17.4382 8.27864 17.6287 8.43384C17.9856 8.72448 18.0393 9.24938 17.7486 9.60624C17.458 9.9631 16.9331 10.0168 16.5762 9.72613C16.4619 9.63301 16.3395 9.55019 16.2106 9.47863C15.8082 9.2553 15.663 8.74803 15.8863 8.34561Z" fill="black"/>
<path fill-rule="evenodd" clip-rule="evenodd" d="M2.63499 14.1606C2.8611 13.7598 3.36936 13.6181 3.77023 13.8442C4.14539 14.0558 4.56887 14.1669 4.9996 14.1667C5.45984 14.1665 5.83311 14.5394 5.83332 14.9997C5.83354 15.4599 5.46062 15.8332 5.00038 15.8334C4.28249 15.8337 3.5767 15.6486 2.95142 15.2959C2.55055 15.0698 2.40888 14.5615 2.63499 14.1606Z" fill="black"/>
<path fill-rule="evenodd" clip-rule="evenodd" d="M17.3651 14.1606C17.5912 14.5615 17.4495 15.0698 17.0487 15.2959C16.4234 15.6486 15.7176 15.8337 14.9997 15.8334C14.5395 15.8332 14.1665 15.4599 14.1667 14.9997C14.167 14.5394 14.5402 14.1665 15.0005 14.1667C15.4312 14.1669 15.8547 14.0558 16.2298 13.8442C16.6307 13.6181 17.139 13.7598 17.3651 14.1606Z" fill="black"/>
<path fill-rule="evenodd" clip-rule="evenodd" d="M10.0001 8.33341C9.07961 8.33341 8.33341 9.07961 8.33341 10.0001C8.33341 10.9206 9.07961 11.6667 10.0001 11.6667C10.9206 11.6667 11.6667 10.9206 11.6667 10.0001C11.6667 9.07961 10.9206 8.33341 10.0001 8.33341ZM6.66675 10.0001C6.66675 8.15913 8.15913 6.66675 10.0001 6.66675C11.841 6.66675 13.3334 8.15913 13.3334 10.0001C13.3334 11.841 11.841 13.3334 10.0001 13.3334C8.15913 13.3334 6.66675 11.841 6.66675 10.0001Z" fill="black"/>
<path fill-rule="evenodd" clip-rule="evenodd" d="M13.8448 8.32834C14.0317 8.74891 13.8423 9.24138 13.4217 9.4283L12.6717 9.76164C12.2512 9.94856 11.7587 9.75915 11.5718 9.33858C11.3849 8.91801 11.5743 8.42554 11.9948 8.23862L12.7448 7.90528C13.1654 7.71836 13.6579 7.90777 13.8448 8.32834Z" fill="black"/>
<path fill-rule="evenodd" clip-rule="evenodd" d="M8.42806 10.6616C8.61498 11.0822 8.42557 11.5746 8.005 11.7616L7.255 12.0949C6.83443 12.2818 6.34196 12.0924 6.15504 11.6718C5.96812 11.2513 6.15753 10.7588 6.5781 10.5719L7.3281 10.2385C7.74867 10.0516 8.24114 10.241 8.42806 10.6616Z" fill="black"/>
<path fill-rule="evenodd" clip-rule="evenodd" d="M10.6616 11.5718C11.0822 11.3849 11.5746 11.5743 11.7616 11.9948L12.0949 12.7448C12.2818 13.1654 12.0924 13.6579 11.6718 13.8448C11.2513 14.0317 10.7588 13.8423 10.5719 13.4217L10.2385 12.6717C10.0516 12.2512 10.241 11.7587 10.6616 11.5718Z" fill="black"/>
<path fill-rule="evenodd" clip-rule="evenodd" d="M8.3281 6.15528C8.74867 5.96836 9.24114 6.15777 9.42806 6.57834L9.76139 7.32834C9.94831 7.74891 9.7589 8.24138 9.33833 8.4283C8.91776 8.61522 8.42529 8.42581 8.23837 8.00524L7.90504 7.25524C7.71812 6.83467 7.90753 6.3422 8.3281 6.15528Z" fill="black"/>
<path fill-rule="evenodd" clip-rule="evenodd" d="M11.5718 10.5783C11.7587 10.1578 12.2512 9.96836 12.6717 10.1553L13.4217 10.4886C13.8423 10.6755 14.0317 11.168 13.8448 11.5886C13.6579 12.0091 13.1654 12.1986 12.7448 12.0116L11.9948 11.6783C11.5743 11.4914 11.3849 10.9989 11.5718 10.5783Z" fill="black"/>
<path fill-rule="evenodd" clip-rule="evenodd" d="M6.15504 8.4116C6.34196 7.99103 6.83443 7.80162 7.255 7.98854L8.005 8.32187C8.42557 8.50879 8.61498 9.00126 8.42806 9.42183C8.24114 9.8424 7.74867 10.0318 7.3281 9.84489L6.5781 9.51156C6.15753 9.32464 5.96812 8.83217 6.15504 8.4116Z" fill="black"/>
<path fill-rule="evenodd" clip-rule="evenodd" d="M9.42183 11.5718C9.8424 11.7587 10.0318 12.2512 9.84489 12.6717L9.51156 13.4217C9.32464 13.8423 8.83217 14.0317 8.4116 13.8448C7.99103 13.6579 7.80162 13.1654 7.98854 12.7448L8.32187 11.9948C8.50879 11.5743 9.00126 11.3849 9.42183 11.5718Z" fill="black"/>
<path fill-rule="evenodd" clip-rule="evenodd" d="M11.5886 6.15528C12.0091 6.3422 12.1986 6.83467 12.0116 7.25524L11.6783 8.00524C11.4914 8.42581 10.9989 8.61522 10.5783 8.4283C10.1578 8.24138 9.96836 7.74891 10.1553 7.32834L10.4886 6.57834C10.6755 6.15777 11.168 5.96836 11.5886 6.15528Z" fill="black"/>
</g>
<defs>
<clipPath id="clip0_2001_4898">
<rect width="20" height="20" fill="white"/>
</clipPath>
</defs>
</svg>
