<svg width="20" height="20" viewBox="0 0 20 20" fill="none" xmlns="http://www.w3.org/2000/svg">
<g clip-path="url(#clip0_2001_4915)">
<path fill-rule="evenodd" clip-rule="evenodd" d="M7.43065 0.826652C7.87497 0.81739 8.31665 0.897071 8.72972 1.06101C9.14279 1.22494 9.51891 1.46982 9.83595 1.78124C10.153 2.09267 10.4046 2.46434 10.5759 2.87442C10.747 3.28403 10.8345 3.72369 10.8334 4.16759V15L10.8334 15.0008C10.8328 15.5704 10.7155 16.1337 10.4886 16.6561C10.2617 17.1785 9.9302 17.6489 9.51444 18.0381C9.09868 18.4273 8.60753 18.7272 8.07134 18.9192C7.53514 19.1112 6.96528 19.1912 6.39695 19.1543C5.82862 19.1174 5.27388 18.9644 4.767 18.7048C4.26011 18.4451 3.81185 18.0843 3.44988 17.6446C3.08791 17.2048 2.81993 16.6956 2.66249 16.1483C2.55487 15.7742 2.50045 15.3877 2.50011 15.0001C2.10355 14.7028 1.76202 14.3363 1.49278 13.9167C1.12612 13.3454 0.904615 12.6932 0.847525 12.0167C0.790435 11.3402 0.899491 10.6601 1.16521 10.0354C1.34577 9.61089 1.59496 9.22073 1.90147 8.87994C1.76482 8.49091 1.68628 8.0826 1.66945 7.6682C1.64379 7.03652 1.76222 6.40728 2.01575 5.82814C2.26929 5.249 2.65129 4.73514 3.13282 4.3255C3.45517 4.05127 3.81645 3.82856 4.20377 3.66405C4.23754 3.43926 4.2943 3.21797 4.37349 3.0037C4.52755 2.58684 4.76342 2.20501 5.06721 1.88064C5.37101 1.55628 5.73659 1.29594 6.14248 1.11493C6.54836 0.933929 6.98633 0.835913 7.43065 0.826652ZM8.11492 2.61013C7.90838 2.52817 7.68754 2.48833 7.46538 2.49296C7.24322 2.49759 7.02423 2.54659 6.82129 2.6371C6.61835 2.7276 6.43556 2.85777 6.28366 3.01995C6.13177 3.18213 6.01383 3.37305 5.9368 3.58148C5.85977 3.78991 5.82519 4.01163 5.83511 4.23362C5.85269 4.62744 5.59192 4.97971 5.21012 5.07787C4.84275 5.17234 4.50169 5.34916 4.21277 5.59494C3.92385 5.84073 3.69465 6.14905 3.54252 6.49653C3.3904 6.84401 3.31935 7.22156 3.33474 7.60057C3.35013 7.97958 3.45157 8.35012 3.63137 8.68413C3.821 9.03637 3.73356 9.47367 3.42306 9.72592C3.10692 9.98275 2.85833 10.3129 2.6989 10.6878C2.53947 11.0626 2.47403 11.4707 2.50829 11.8765C2.54254 12.2824 2.67545 12.6738 2.89544 13.0166C3.11543 13.3594 3.41585 13.6432 3.77056 13.8434C4.06603 14.0102 4.23089 14.3395 4.1874 14.6759C4.14359 15.0148 4.16973 15.3591 4.2642 15.6875C4.35867 16.0159 4.51946 16.3215 4.73664 16.5853C4.95382 16.8491 5.22278 17.0656 5.52691 17.2214C5.83104 17.3772 6.16388 17.469 6.50488 17.4912C6.84588 17.5133 7.1878 17.4653 7.50951 17.3501C7.83123 17.2349 8.12591 17.055 8.37537 16.8214C8.62483 16.5879 8.82375 16.3057 8.95987 15.9922C9.09593 15.6789 9.16635 15.3411 9.16677 14.9995C9.16677 14.9994 9.16677 14.9992 9.16677 14.9991V4.16663C9.16677 4.16581 9.16677 4.16499 9.16677 4.16417C9.16743 3.94197 9.12364 3.72187 9.03799 3.51684C8.95234 3.3118 8.82656 3.12596 8.66803 2.97025C8.50951 2.81454 8.32145 2.6921 8.11492 2.61013Z" fill="black"/>
<path fill-rule="evenodd" clip-rule="evenodd" d="M12.5348 2.49296C12.3127 2.48833 12.0918 2.52817 11.8853 2.61013C11.6787 2.6921 11.4907 2.81454 11.3322 2.97025C11.1736 3.12596 11.0479 3.3118 10.9622 3.51684C10.8766 3.72187 10.8328 3.94197 10.8334 4.16417C10.8334 4.16499 10.8334 4.16581 10.8334 4.16663V14.9995C10.8339 15.3411 10.9043 15.6789 11.0403 15.9922C11.1764 16.3057 11.3754 16.5879 11.6248 16.8214C11.8743 17.055 12.169 17.2349 12.4907 17.3501C12.8124 17.4653 13.1543 17.5133 13.4953 17.4912C13.8363 17.469 14.1692 17.3772 14.4733 17.2214C14.7774 17.0656 15.0464 16.8491 15.2636 16.5853C15.4807 16.3215 15.6415 16.0159 15.736 15.6875C15.8305 15.3591 15.8566 15.0148 15.8128 14.6759C15.7693 14.3395 15.9342 14.0102 16.2296 13.8434C16.5843 13.6432 16.8848 13.3594 17.1048 13.0166C17.3248 12.6738 17.4577 12.2824 17.4919 11.8765C17.5262 11.4707 17.4607 11.0626 17.3013 10.6878C17.1419 10.3129 16.8933 9.98275 16.5771 9.72592C16.2666 9.47367 16.1792 9.03637 16.3688 8.68413C16.5486 8.35012 16.6501 7.97958 16.6655 7.60057C16.6808 7.22156 16.6098 6.84401 16.4577 6.49653C16.3056 6.14905 16.0763 5.84073 15.7874 5.59494C15.4985 5.34916 15.1574 5.17234 14.7901 5.07787C14.4083 4.97971 14.1475 4.62744 14.1651 4.23362C14.175 4.01163 14.1404 3.7899 14.0634 3.58148C13.9864 3.37305 13.8684 3.18213 13.7165 3.01995C13.5646 2.85777 13.3818 2.7276 13.1789 2.6371C12.976 2.54659 12.757 2.49759 12.5348 2.49296ZM11.2705 1.06101C11.6835 0.897071 12.1252 0.81739 12.5695 0.826652C13.0139 0.835913 13.4518 0.933928 13.8577 1.11493C14.2636 1.29594 14.6292 1.55628 14.933 1.88064C15.2368 2.20501 15.4726 2.58684 15.6267 3.0037C15.7059 3.21797 15.7627 3.43926 15.7964 3.66405C16.1837 3.82856 16.545 4.05127 16.8674 4.3255C17.3489 4.73514 17.7309 5.249 17.9844 5.82814C18.238 6.40728 18.3564 7.03652 18.3308 7.6682C18.3139 8.0826 18.2354 8.49091 18.0987 8.87994C18.4052 9.22073 18.6544 9.61089 18.835 10.0354C19.1007 10.6601 19.2098 11.3402 19.1527 12.0167C19.0956 12.6932 18.8741 13.3454 18.5074 13.9167C18.2382 14.3363 17.8966 14.7028 17.5001 15.0001C17.4997 15.3877 17.4453 15.7742 17.3377 16.1483C17.1803 16.6956 16.9123 17.2048 16.5503 17.6446C16.1883 18.0843 15.7401 18.4451 15.2332 18.7048C14.7263 18.9644 14.1716 19.1174 13.6032 19.1543C13.0349 19.1912 12.4651 19.1112 11.9289 18.9192C11.3927 18.7272 10.9015 18.4273 10.4858 18.0381C10.07 17.6489 9.73845 17.1785 9.51159 16.6561C9.28473 16.1337 9.16737 15.5704 9.16676 15.0008L9.16676 4.16776C9.16563 3.7238 9.25319 3.28408 9.42432 2.87442C9.59562 2.46434 9.84719 2.09267 10.1642 1.78124C10.4813 1.46982 10.8574 1.22494 11.2705 1.06101Z" fill="black"/>
<path fill-rule="evenodd" clip-rule="evenodd" d="M10.0001 6.66675C10.4427 6.66675 10.8081 7.01276 10.8322 7.45471C10.8636 8.0307 11.0651 8.58444 11.4112 9.04592C11.7573 9.5074 12.2325 9.85588 12.7766 10.0473C13.2108 10.2 13.4389 10.6758 13.2862 11.11C13.1334 11.5441 12.6577 11.7723 12.2235 11.6195C11.3684 11.3187 10.6217 10.7711 10.0778 10.0459C10.0514 10.0106 10.0254 9.97501 10.0001 9.93905C9.97468 9.97501 9.94876 10.0106 9.92229 10.0459C9.37841 10.7711 8.63171 11.3187 7.77661 11.6195C7.34245 11.7723 6.86668 11.5441 6.71395 11.11C6.56122 10.6758 6.78937 10.2 7.22352 10.0473C7.76768 9.85588 8.24285 9.5074 8.58896 9.04592C8.93507 8.58444 9.13656 8.0307 9.16797 7.45471C9.19206 7.01276 9.55746 6.66675 10.0001 6.66675Z" fill="black"/>
<path fill-rule="evenodd" clip-rule="evenodd" d="M15.0328 3.43823C15.4926 3.45732 15.8499 3.84556 15.8309 4.3054C15.8086 4.84298 15.6564 5.36716 15.3875 5.83318C15.1575 6.23181 14.6479 6.36849 14.2492 6.13846C13.8506 5.90844 13.7139 5.39881 13.944 5.00018C14.0784 4.76717 14.1545 4.50508 14.1656 4.23629C14.1847 3.77645 14.573 3.41914 15.0328 3.43823Z" fill="black"/>
<path fill-rule="evenodd" clip-rule="evenodd" d="M4.9685 3.43821C5.42835 3.41941 5.81638 3.77696 5.83517 4.23681C5.84616 4.50555 5.92202 4.76764 6.05629 5.0007C6.28603 5.39949 6.14898 5.90902 5.75019 6.13876C5.35139 6.3685 4.84186 6.23146 4.61212 5.83266C4.3436 5.36655 4.19187 4.84237 4.1699 4.30488C4.1511 3.84503 4.50864 3.45701 4.9685 3.43821Z" fill="black"/>
<path fill-rule="evenodd" clip-rule="evenodd" d="M4.11371 8.34561C4.33704 8.74803 4.19186 9.2553 3.78944 9.47863C3.66051 9.55019 3.53816 9.63301 3.42382 9.72613C3.06696 10.0168 2.54206 9.9631 2.25142 9.60624C1.96078 9.24938 2.01446 8.72448 2.37132 8.43384C2.56188 8.27864 2.7658 8.1406 2.98069 8.02134C3.38311 7.79801 3.89038 7.94319 4.11371 8.34561Z" fill="black"/>
<path fill-rule="evenodd" clip-rule="evenodd" d="M15.8863 8.34561C16.1097 7.94319 16.6169 7.79801 17.0194 8.02134C17.2342 8.1406 17.4382 8.27864 17.6287 8.43384C17.9856 8.72448 18.0393 9.24938 17.7486 9.60624C17.458 9.9631 16.9331 10.0168 16.5762 9.72613C16.4619 9.63301 16.3395 9.55019 16.2106 9.47863C15.8082 9.2553 15.663 8.74803 15.8863 8.34561Z" fill="black"/>
<path fill-rule="evenodd" clip-rule="evenodd" d="M2.63499 14.1606C2.8611 13.7598 3.36936 13.6181 3.77023 13.8442C4.14539 14.0558 4.56887 14.1669 4.9996 14.1667C5.45984 14.1665 5.83311 14.5394 5.83332 14.9997C5.83354 15.4599 5.46062 15.8332 5.00038 15.8334C4.28249 15.8337 3.5767 15.6486 2.95142 15.2959C2.55055 15.0698 2.40888 14.5615 2.63499 14.1606Z" fill="black"/>
<path fill-rule="evenodd" clip-rule="evenodd" d="M17.3651 14.1606C17.5912 14.5615 17.4495 15.0698 17.0487 15.2959C16.4234 15.6486 15.7176 15.8337 14.9997 15.8334C14.5395 15.8332 14.1665 15.4599 14.1667 14.9997C14.167 14.5394 14.5402 14.1665 15.0005 14.1667C15.4312 14.1669 15.8547 14.0558 16.2298 13.8442C16.6307 13.6181 17.139 13.7598 17.3651 14.1606Z" fill="black"/>
</g>
<defs>
<clipPath id="clip0_2001_4915">
<rect width="20" height="20" fill="white"/>
</clipPath>
</defs>
</svg>
