<svg width="20" height="20" viewBox="0 0 20 20" fill="none" xmlns="http://www.w3.org/2000/svg">
<path fill-rule="evenodd" clip-rule="evenodd" d="M4.16675 3.33341C3.70651 3.33341 3.33341 3.70651 3.33341 4.16675V15.8334C3.33341 16.2937 3.70651 16.6667 4.16675 16.6667H15.8334C16.2937 16.6667 16.6667 16.2937 16.6667 15.8334V4.16675C16.6667 3.70651 16.2937 3.33341 15.8334 3.33341H4.16675ZM1.66675 4.16675C1.66675 2.78604 2.78604 1.66675 4.16675 1.66675H15.8334C17.2141 1.66675 18.3334 2.78604 18.3334 4.16675V15.8334C18.3334 17.2141 17.2141 18.3334 15.8334 18.3334H4.16675C2.78604 18.3334 1.66675 17.2141 1.66675 15.8334V4.16675Z" fill="black"/>
<path fill-rule="evenodd" clip-rule="evenodd" d="M10.0001 6.66675C10.4603 6.66675 10.8334 7.03984 10.8334 7.50008V12.5001C10.8334 12.9603 10.4603 13.3334 10.0001 13.3334C9.53984 13.3334 9.16675 12.9603 9.16675 12.5001V7.50008C9.16675 7.03984 9.53984 6.66675 10.0001 6.66675Z" fill="black"/>
<path fill-rule="evenodd" clip-rule="evenodd" d="M13.3333 11.6667C13.7936 11.6667 14.1667 12.0398 14.1667 12.5001V17.5001C14.1667 17.9603 13.7936 18.3334 13.3333 18.3334C12.8731 18.3334 12.5 17.9603 12.5 17.5001V12.5001C12.5 12.0398 12.8731 11.6667 13.3333 11.6667Z" fill="black"/>
<path fill-rule="evenodd" clip-rule="evenodd" d="M13.3333 1.66675C13.7936 1.66675 14.1667 2.03984 14.1667 2.50008V7.50008C14.1667 7.96032 13.7936 8.33341 13.3333 8.33341C12.8731 8.33341 12.5 7.96032 12.5 7.50008V2.50008C12.5 2.03984 12.8731 1.66675 13.3333 1.66675Z" fill="black"/>
<path fill-rule="evenodd" clip-rule="evenodd" d="M1.66675 12.5001C1.66675 12.0398 2.03984 11.6667 2.50008 11.6667H17.5001C17.9603 11.6667 18.3334 12.0398 18.3334 12.5001C18.3334 12.9603 17.9603 13.3334 17.5001 13.3334H2.50008C2.03984 13.3334 1.66675 12.9603 1.66675 12.5001Z" fill="black"/>
<path fill-rule="evenodd" clip-rule="evenodd" d="M1.66675 7.50008C1.66675 7.03984 2.03984 6.66675 2.50008 6.66675H17.5001C17.9603 6.66675 18.3334 7.03984 18.3334 7.50008C18.3334 7.96032 17.9603 8.33341 17.5001 8.33341H2.50008C2.03984 8.33341 1.66675 7.96032 1.66675 7.50008Z" fill="black"/>
<path fill-rule="evenodd" clip-rule="evenodd" d="M6.66659 11.6667C7.12682 11.6667 7.49992 12.0398 7.49992 12.5001V17.5001C7.49992 17.9603 7.12682 18.3334 6.66659 18.3334C6.20635 18.3334 5.83325 17.9603 5.83325 17.5001V12.5001C5.83325 12.0398 6.20635 11.6667 6.66659 11.6667Z" fill="black"/>
<path fill-rule="evenodd" clip-rule="evenodd" d="M6.66659 1.66675C7.12682 1.66675 7.49992 2.03984 7.49992 2.50008V7.50008C7.49992 7.96032 7.12682 8.33341 6.66659 8.33341C6.20635 8.33341 5.83325 7.96032 5.83325 7.50008V2.50008C5.83325 2.03984 6.20635 1.66675 6.66659 1.66675Z" fill="black"/>
</svg>
