<svg width="20" height="20" viewBox="0 0 20 20" fill="none" xmlns="http://www.w3.org/2000/svg">
<path fill-rule="evenodd" clip-rule="evenodd" d="M8.33333 15.8333C8.79357 15.8333 9.16667 16.2063 9.16667 16.6666V18.3333C9.16667 18.7935 8.79357 19.1666 8.33333 19.1666C7.8731 19.1666 7.5 18.7935 7.5 18.3333V16.6666C7.5 16.2063 7.8731 15.8333 8.33333 15.8333Z" fill="black"/>
<path fill-rule="evenodd" clip-rule="evenodd" d="M11.6666 15.8333C12.1268 15.8333 12.4999 16.2063 12.4999 16.6666V18.3333C12.4999 18.7935 12.1268 19.1666 11.6666 19.1666C11.2063 19.1666 10.8333 18.7935 10.8333 18.3333V16.6666C10.8333 16.2063 11.2063 15.8333 11.6666 15.8333Z" fill="black"/>
<path fill-rule="evenodd" clip-rule="evenodd" d="M15.0001 15.8333C15.4603 15.8333 15.8334 16.2063 15.8334 16.6666V18.3333C15.8334 18.7935 15.4603 19.1666 15.0001 19.1666C14.5398 19.1666 14.1667 18.7935 14.1667 18.3333V16.6666C14.1667 16.2063 14.5398 15.8333 15.0001 15.8333Z" fill="black"/>
<path fill-rule="evenodd" clip-rule="evenodd" d="M1.66675 16.6666C1.66675 16.2063 2.03984 15.8333 2.50008 15.8333H17.5001C17.9603 15.8333 18.3334 16.2063 18.3334 16.6666C18.3334 17.1268 17.9603 17.4999 17.5001 17.4999H2.50008C2.03984 17.4999 1.66675 17.1268 1.66675 16.6666Z" fill="black"/>
<path fill-rule="evenodd" clip-rule="evenodd" d="M5.00008 15.8333C5.46032 15.8333 5.83341 16.2063 5.83341 16.6666V18.3333C5.83341 18.7935 5.46032 19.1666 5.00008 19.1666C4.53984 19.1666 4.16675 18.7935 4.16675 18.3333V16.6666C4.16675 16.2063 4.53984 15.8333 5.00008 15.8333Z" fill="black"/>
<path fill-rule="evenodd" clip-rule="evenodd" d="M8.33325 2.49992C8.11224 2.49992 7.90028 2.58772 7.744 2.744C7.58772 2.90028 7.49992 3.11224 7.49992 3.33325V13.3333C7.49992 13.7935 7.12682 14.1666 6.66659 14.1666C6.20635 14.1666 5.83325 13.7935 5.83325 13.3333V3.33325C5.83325 2.67021 6.09664 2.03433 6.56549 1.56548C7.03433 1.09664 7.67021 0.833252 8.33325 0.833252H11.6666C12.3296 0.833252 12.9655 1.09664 13.4344 1.56548C13.9032 2.03433 14.1666 2.67021 14.1666 3.33325V13.3333C14.1666 13.7935 13.7935 14.1666 13.3333 14.1666C12.873 14.1666 12.4999 13.7935 12.4999 13.3333V3.33325C12.4999 3.11224 12.4121 2.90028 12.2558 2.744C12.0996 2.58772 11.8876 2.49992 11.6666 2.49992H8.33325Z" fill="black"/>
<path fill-rule="evenodd" clip-rule="evenodd" d="M5 5.83341C4.53976 5.83341 4.16667 6.20651 4.16667 6.66675V11.6667C4.16667 12.127 4.53976 12.5001 5 12.5001H15C15.4602 12.5001 15.8333 12.127 15.8333 11.6667V6.66675C15.8333 6.20651 15.4602 5.83341 15 5.83341H5ZM2.5 6.66675C2.5 5.28604 3.61929 4.16675 5 4.16675H15C16.3807 4.16675 17.5 5.28604 17.5 6.66675V11.6667C17.5 13.0475 16.3807 14.1667 15 14.1667H5C3.61929 14.1667 2.5 13.0475 2.5 11.6667V6.66675Z" fill="black"/>
</svg>
