<svg width="20" height="20" viewBox="0 0 20 20" fill="none" xmlns="http://www.w3.org/2000/svg">
<path fill-rule="evenodd" clip-rule="evenodd" d="M6.56549 1.56548C7.03433 1.09664 7.67021 0.833252 8.33325 0.833252H11.6666C12.3296 0.833252 12.9655 1.09664 13.4344 1.56548C13.9032 2.03433 14.1666 2.67021 14.1666 3.33325V16.6666C14.1666 17.1268 13.7935 17.4999 13.3333 17.4999C12.873 17.4999 12.4999 17.1268 12.4999 16.6666V3.33325C12.4999 3.11224 12.4121 2.90028 12.2558 2.744C12.0996 2.58772 11.8876 2.49992 11.6666 2.49992H8.33325C8.11224 2.49992 7.90028 2.58772 7.744 2.744C7.58772 2.90028 7.49992 3.11224 7.49992 3.33325V16.6666C7.49992 17.1268 7.12682 17.4999 6.66659 17.4999C6.20635 17.4999 5.83325 17.1268 5.83325 16.6666V3.33325C5.83325 2.67021 6.09664 2.03433 6.56549 1.56548Z" fill="black"/>
<path fill-rule="evenodd" clip-rule="evenodd" d="M3.33325 5.83341C2.87301 5.83341 2.49992 6.20651 2.49992 6.66675V15.0001C2.49992 15.4603 2.87301 15.8334 3.33325 15.8334H16.6666C17.1268 15.8334 17.4999 15.4603 17.4999 15.0001V6.66675C17.4999 6.20651 17.1268 5.83341 16.6666 5.83341H3.33325ZM0.833252 6.66675C0.833252 5.28604 1.95254 4.16675 3.33325 4.16675H16.6666C18.0473 4.16675 19.1666 5.28604 19.1666 6.66675V15.0001C19.1666 16.3808 18.0473 17.5001 16.6666 17.5001H3.33325C1.95254 17.5001 0.833252 16.3808 0.833252 15.0001V6.66675Z" fill="black"/>
</svg>
