<svg width="20" height="20" viewBox="0 0 20 20" fill="none" xmlns="http://www.w3.org/2000/svg">
<path fill-rule="evenodd" clip-rule="evenodd" d="M10.0001 8.33325C10.4603 8.33325 10.8334 8.70635 10.8334 9.16659V12.4999C10.8334 12.9602 10.4603 13.3333 10.0001 13.3333C9.53984 13.3333 9.16675 12.9602 9.16675 12.4999V9.16659C9.16675 8.70635 9.53984 8.33325 10.0001 8.33325Z" fill="black"/>
<path fill-rule="evenodd" clip-rule="evenodd" d="M7.5 10.8333C7.5 10.3731 7.8731 10 8.33333 10H11.6667C12.1269 10 12.5 10.3731 12.5 10.8333C12.5 11.2936 12.1269 11.6667 11.6667 11.6667H8.33333C7.8731 11.6667 7.5 11.2936 7.5 10.8333Z" fill="black"/>
<path fill-rule="evenodd" clip-rule="evenodd" d="M6.56549 1.56549C7.03433 1.09664 7.67021 0.833252 8.33325 0.833252H11.6666C12.3296 0.833252 12.9655 1.09664 13.4344 1.56549C13.9032 2.03433 14.1666 2.67021 14.1666 3.33325V4.99992C14.1666 5.46016 13.7935 5.83325 13.3333 5.83325C12.873 5.83325 12.4999 5.46016 12.4999 4.99992V3.33325C12.4999 3.11224 12.4121 2.90028 12.2558 2.744C12.0996 2.58772 11.8876 2.49992 11.6666 2.49992H8.33325C8.11224 2.49992 7.90028 2.58772 7.744 2.744C7.58772 2.90028 7.49992 3.11224 7.49992 3.33325V4.99992C7.49992 5.46016 7.12682 5.83325 6.66659 5.83325C6.20635 5.83325 5.83325 5.46016 5.83325 4.99992V3.33325C5.83325 2.67021 6.09664 2.03433 6.56549 1.56549Z" fill="black"/>
<path fill-rule="evenodd" clip-rule="evenodd" d="M15.0001 4.16675C15.4603 4.16675 15.8334 4.53984 15.8334 5.00008V16.6667C15.8334 17.127 15.4603 17.5001 15.0001 17.5001C14.5398 17.5001 14.1667 17.127 14.1667 16.6667V5.00008C14.1667 4.53984 14.5398 4.16675 15.0001 4.16675Z" fill="black"/>
<path fill-rule="evenodd" clip-rule="evenodd" d="M5.00008 4.16675C5.46032 4.16675 5.83341 4.53984 5.83341 5.00008V16.6667C5.83341 17.127 5.46032 17.5001 5.00008 17.5001C4.53984 17.5001 4.16675 17.127 4.16675 16.6667V5.00008C4.16675 4.53984 4.53984 4.16675 5.00008 4.16675Z" fill="black"/>
<path fill-rule="evenodd" clip-rule="evenodd" d="M3.33325 5.83341C2.87301 5.83341 2.49992 6.20651 2.49992 6.66675V15.0001C2.49992 15.4603 2.87301 15.8334 3.33325 15.8334H16.6666C17.1268 15.8334 17.4999 15.4603 17.4999 15.0001V6.66675C17.4999 6.20651 17.1268 5.83341 16.6666 5.83341H3.33325ZM0.833252 6.66675C0.833252 5.28604 1.95254 4.16675 3.33325 4.16675H16.6666C18.0473 4.16675 19.1666 5.28604 19.1666 6.66675V15.0001C19.1666 16.3808 18.0473 17.5001 16.6666 17.5001H3.33325C1.95254 17.5001 0.833252 16.3808 0.833252 15.0001V6.66675Z" fill="black"/>
</svg>
