<svg width="20" height="20" viewBox="0 0 20 20" fill="none" xmlns="http://www.w3.org/2000/svg">
<g clip-path="url(#clip0_2001_4957)">
<path fill-rule="evenodd" clip-rule="evenodd" d="M8.33325 7.49992C7.87301 7.49992 7.49992 7.87301 7.49992 8.33325V11.6666C7.49992 12.1268 7.87301 12.4999 8.33325 12.4999H11.6666C12.1268 12.4999 12.4999 12.1268 12.4999 11.6666V8.33325C12.4999 7.87301 12.1268 7.49992 11.6666 7.49992H8.33325ZM5.83325 8.33325C5.83325 6.95254 6.95254 5.83325 8.33325 5.83325H11.6666C13.0473 5.83325 14.1666 6.95254 14.1666 8.33325V11.6666C14.1666 13.0473 13.0473 14.1666 11.6666 14.1666H8.33325C6.95254 14.1666 5.83325 13.0473 5.83325 11.6666V8.33325Z" fill="black"/>
<path fill-rule="evenodd" clip-rule="evenodd" d="M3.33325 2.49992C3.11224 2.49992 2.90028 2.58772 2.744 2.744C2.58772 2.90028 2.49992 3.11224 2.49992 3.33325V6.66658C2.49992 6.8876 2.58772 7.09956 2.744 7.25584C2.90028 7.41212 3.11224 7.49992 3.33325 7.49992C3.79349 7.49992 4.16658 7.87301 4.16658 8.33325C4.16658 8.79349 3.79349 9.16658 3.33325 9.16658C2.67021 9.16658 2.03433 8.90319 1.56548 8.43435C1.09664 7.96551 0.833252 7.32963 0.833252 6.66658V3.33325C0.833252 2.67021 1.09664 2.03433 1.56548 1.56548C2.03433 1.09664 2.67021 0.833252 3.33325 0.833252H6.66658C7.32963 0.833252 7.96551 1.09664 8.43435 1.56548C8.90319 2.03433 9.16658 2.67021 9.16658 3.33325C9.16658 3.79349 8.79349 4.16658 8.33325 4.16658C7.87301 4.16658 7.49992 3.79349 7.49992 3.33325C7.49992 3.11224 7.41212 2.90028 7.25584 2.744C7.09956 2.58772 6.8876 2.49992 6.66658 2.49992H3.33325Z" fill="black"/>
<path fill-rule="evenodd" clip-rule="evenodd" d="M15.8333 11.6666C15.8333 11.2063 16.2063 10.8333 16.6666 10.8333C17.3296 10.8333 17.9655 11.0966 18.4344 11.5655C18.9032 12.0343 19.1666 12.6702 19.1666 13.3333V16.6666C19.1666 17.3296 18.9032 17.9655 18.4344 18.4344C17.9655 18.9032 17.3296 19.1666 16.6666 19.1666H13.3333C12.6702 19.1666 12.0343 18.9032 11.5655 18.4344C11.0966 17.9655 10.8333 17.3296 10.8333 16.6666C10.8333 16.2063 11.2063 15.8333 11.6666 15.8333C12.1268 15.8333 12.4999 16.2063 12.4999 16.6666C12.4999 16.8876 12.5877 17.0996 12.744 17.2558C12.9003 17.4121 13.1122 17.4999 13.3333 17.4999H16.6666C16.8876 17.4999 17.0996 17.4121 17.2558 17.2558C17.4121 17.0996 17.4999 16.8876 17.4999 16.6666V13.3333C17.4999 13.1122 17.4121 12.9003 17.2558 12.744C17.0996 12.5877 16.8876 12.4999 16.6666 12.4999C16.2063 12.4999 15.8333 12.1268 15.8333 11.6666Z" fill="black"/>
</g>
<defs>
<clipPath id="clip0_2001_4957">
<rect width="20" height="20" fill="white"/>
</clipPath>
</defs>
</svg>
