<svg width="20" height="20" viewBox="0 0 20 20" fill="none" xmlns="http://www.w3.org/2000/svg">
<path fill-rule="evenodd" clip-rule="evenodd" d="M16.565 3.42573C16.3758 3.34822 16.173 3.30913 15.9685 3.31076C15.764 3.31238 15.5618 3.35468 15.3738 3.43519C15.1858 3.5157 15.0157 3.63282 14.8734 3.77971C14.8702 3.783 14.867 3.78627 14.8638 3.78951L8.13878 10.5062C7.81314 10.8314 7.2855 10.8311 6.96027 10.5054C6.63503 10.1798 6.63536 9.65217 6.961 9.32694L13.6815 2.61478C13.9766 2.31156 14.3287 2.06968 14.7177 1.9031C15.109 1.73555 15.5296 1.64753 15.9552 1.64414C16.3808 1.64076 16.8029 1.7221 17.1967 1.88341C17.5906 2.04472 17.9484 2.28279 18.2494 2.58374C18.5503 2.8847 18.7884 3.24252 18.9497 3.63638C19.111 4.03024 19.1923 4.45226 19.189 4.87786C19.1856 5.30346 19.0976 5.72414 18.93 6.11538C18.7635 6.50428 18.5217 6.85637 18.2185 7.15141L11.5065 13.8801C11.1815 14.2059 10.6539 14.2066 10.328 13.8815C10.0022 13.5565 10.0015 13.0289 10.3266 12.703L17.0432 5.9697C17.0466 5.96633 17.05 5.96299 17.0534 5.95968C17.2003 5.81738 17.3174 5.64728 17.3979 5.45928C17.4784 5.27127 17.5207 5.06913 17.5223 4.86462C17.524 4.66012 17.4849 4.45733 17.4074 4.26807C17.3299 4.07881 17.2155 3.90687 17.0709 3.76225C16.9262 3.61764 16.7543 3.50324 16.565 3.42573Z" fill="black"/>
<path fill-rule="evenodd" clip-rule="evenodd" d="M2.55844 14.966C2.55884 13.1198 4.04305 11.6167 5.89177 11.6167C5.89269 11.6167 5.89362 11.6167 5.89454 11.6167C6.33337 11.6182 6.76762 11.706 7.1725 11.8753C7.57737 12.0446 7.94493 12.292 8.25421 12.6033C8.56348 12.9146 8.8084 13.2838 8.97499 13.6898C9.1414 14.0954 9.22638 14.5297 9.22511 14.9681C9.22437 17.2889 7.35695 19.1667 5.05844 19.1667C3.47108 19.1667 2.09413 18.2148 1.13238 17.2358C1.04532 17.148 0.939184 17.0126 0.880038 16.8241C0.814981 16.6167 0.825632 16.404 0.895173 16.2154C1.01111 15.9008 1.26178 15.7306 1.34887 15.6728C1.46888 15.5931 1.60369 15.526 1.70708 15.4761C1.76621 15.4475 1.81286 15.4256 1.85736 15.4047C1.91312 15.3784 1.96551 15.3538 2.03484 15.3197C2.25758 15.2104 2.40957 15.1183 2.50245 15.0311C2.54059 14.9953 2.55458 14.973 2.55844 14.966ZM5.89039 13.2834C4.97333 13.2841 4.22511 14.0303 4.22511 14.9667C4.22511 15.5405 3.94406 15.9638 3.64308 16.2463C3.4455 16.4318 3.21997 16.5758 3.01821 16.687C3.67525 17.1889 4.37865 17.5 5.05844 17.5C6.42615 17.5 7.55844 16.3785 7.55844 14.9667C7.55844 14.9658 7.55844 14.9648 7.55844 14.9639C7.55918 14.744 7.51658 14.526 7.43308 14.3225C7.34957 14.119 7.22681 13.9339 7.07179 13.7779C6.91676 13.6218 6.73252 13.4978 6.52958 13.413C6.32707 13.3283 6.10988 13.2843 5.89039 13.2834ZM2.27062 17.0614C2.27227 17.0603 2.2742 17.059 2.27642 17.0577C2.25981 17.0708 2.25493 17.0718 2.27062 17.0614Z" fill="black"/>
</svg>
