<svg width="20" height="20" viewBox="0 0 20 20" fill="none" xmlns="http://www.w3.org/2000/svg">
<g clip-path="url(#clip0_2001_4964)">
<path fill-rule="evenodd" clip-rule="evenodd" d="M6.08363 1.07109C6.41251 0.749138 6.94012 0.754751 7.26208 1.08363L8.29431 2.13806C8.61216 1.94877 8.96103 1.81268 9.32727 1.73722C9.97521 1.60372 10.6482 1.66604 11.2606 1.91625C11.873 2.16646 12.3971 2.59323 12.7662 3.14224C13.1353 3.69126 13.3327 4.33768 13.3333 4.99923L13.3333 5.94159C13.3333 6.40182 12.9602 6.77492 12.4999 6.77492C12.0397 6.77492 11.6666 6.40182 11.6666 5.94159L11.6666 5.00061C11.6666 5.00043 11.6666 5.00026 11.6666 5.00009C11.6662 4.66949 11.5675 4.34648 11.3831 4.07211C11.1985 3.7976 10.9365 3.58422 10.6303 3.45912C10.3241 3.33401 9.98757 3.30285 9.6636 3.3696C9.33963 3.43635 9.04284 3.59799 8.81103 3.83394C8.65417 3.9936 8.43967 4.08345 8.21584 4.08325C7.99201 4.08305 7.77767 3.99282 7.62109 3.83287L6.07109 2.24954C5.74914 1.92066 5.75475 1.39305 6.08363 1.07109Z" fill="black"/>
<path fill-rule="evenodd" clip-rule="evenodd" d="M13.9226 1.07733C14.248 1.40277 14.248 1.9304 13.9226 2.25584L12.3559 3.82251C12.0305 4.14794 11.5029 4.14794 11.1774 3.82251C10.852 3.49707 10.852 2.96943 11.1774 2.644L12.7441 1.07733C13.0695 0.751893 13.5972 0.751893 13.9226 1.07733Z" fill="black"/>
<path fill-rule="evenodd" clip-rule="evenodd" d="M9.75 5.83333C9.75 5.3731 10.1231 5 10.5833 5H11.6667C12.7717 5 13.8315 5.43899 14.6129 6.22039C15.3943 7.00179 15.8333 8.0616 15.8333 9.16667V10H18.3333C18.7936 10 19.1667 10.3731 19.1667 10.8333C19.1667 11.2936 18.7936 11.6667 18.3333 11.6667H15C14.5398 11.6667 14.1667 11.2936 14.1667 10.8333V9.16667C14.1667 8.50363 13.9033 7.86774 13.4344 7.3989C12.9656 6.93006 12.3297 6.66667 11.6667 6.66667H10.5833C10.1231 6.66667 9.75 6.29357 9.75 5.83333Z" fill="black"/>
<path fill-rule="evenodd" clip-rule="evenodd" d="M17.4749 3.33325C17.9352 3.33325 18.3083 3.70635 18.3083 4.16659C18.3083 6.33847 16.6575 8.11688 14.6455 8.32867C14.1878 8.37685 13.7777 8.04486 13.7295 7.58716C13.6813 7.12945 14.0133 6.71934 14.471 6.67116C15.6257 6.54962 16.6416 5.4947 16.6416 4.16659C16.6416 3.70635 17.0147 3.33325 17.4749 3.33325Z" fill="black"/>
<path fill-rule="evenodd" clip-rule="evenodd" d="M1.07733 1.07733C1.40277 0.751893 1.9304 0.751893 2.25584 1.07733L18.9225 17.744C19.2479 18.0694 19.2479 18.5971 18.9225 18.9225C18.5971 19.2479 18.0694 19.2479 17.744 18.9225L1.07733 2.25584C0.751893 1.9304 0.751893 1.40277 1.07733 1.07733Z" fill="black"/>
<path fill-rule="evenodd" clip-rule="evenodd" d="M7.09839 5.93751C7.36302 6.31406 7.27228 6.83384 6.89573 7.09846C6.56513 7.33079 6.29578 7.63979 6.11073 7.999C5.92569 8.3582 5.83047 8.75691 5.83323 9.16096C5.83324 9.16286 5.83325 9.16476 5.83325 9.16666V11.6667C5.83325 11.6675 5.83325 11.6683 5.83324 11.6692C5.83047 12.5798 6.12607 13.4662 6.67483 14.1929C7.2236 14.9196 7.9953 15.4464 8.87189 15.693C9.74848 15.9395 10.6817 15.892 11.5288 15.5579C12.3759 15.2238 13.0902 14.6214 13.5624 13.8428C13.8011 13.4493 14.3136 13.3238 14.7071 13.5625C15.1006 13.8012 15.2261 14.3137 14.9874 14.7072C14.3263 15.7972 13.3262 16.6406 12.1403 17.1083C10.9544 17.5761 9.64792 17.6425 8.42069 17.2974C7.19346 16.9523 6.11308 16.2146 5.34481 15.1973C4.57681 14.1803 4.16299 12.9398 4.16658 11.6654V9.16934C4.16247 8.49694 4.32116 7.83352 4.62911 7.23574C4.93752 6.63706 5.38644 6.12206 5.93743 5.73485C6.31399 5.47022 6.83376 5.56096 7.09839 5.93751Z" fill="black"/>
<path fill-rule="evenodd" clip-rule="evenodd" d="M10.0001 9.16675C10.4603 9.16675 10.8334 9.53984 10.8334 10.0001V16.6667C10.8334 17.127 10.4603 17.5001 10.0001 17.5001C9.53984 17.5001 9.16675 17.127 9.16675 16.6667V10.0001C9.16675 9.53984 9.53984 9.16675 10.0001 9.16675Z" fill="black"/>
<path fill-rule="evenodd" clip-rule="evenodd" d="M0.833252 10.8333C0.833252 10.3731 1.20635 10 1.66659 10H4.99992C5.46016 10 5.83325 10.3731 5.83325 10.8333C5.83325 11.2936 5.46016 11.6667 4.99992 11.6667H1.66659C1.20635 11.6667 0.833252 11.2936 0.833252 10.8333Z" fill="black"/>
<path fill-rule="evenodd" clip-rule="evenodd" d="M6.49914 14.127C6.52103 14.5867 6.1661 14.9771 5.70639 14.999C4.40492 15.061 3.33341 16.1905 3.33341 17.4999C3.33341 17.9602 2.96032 18.3333 2.50008 18.3333C2.03984 18.3333 1.66675 17.9602 1.66675 17.4999C1.66675 15.3093 3.42857 13.4389 5.62711 13.3342C6.08683 13.3123 6.47725 13.6672 6.49914 14.127Z" fill="black"/>
</g>
<defs>
<clipPath id="clip0_2001_4964">
<rect width="20" height="20" fill="white"/>
</clipPath>
</defs>
</svg>
