<svg width="20" height="20" viewBox="0 0 20 20" fill="none" xmlns="http://www.w3.org/2000/svg">
<path fill-rule="evenodd" clip-rule="evenodd" d="M10.8334 11.5035V16.8299L15.0942 14.1667L15.0943 14.1667L15.0942 14.1667L10.8334 11.5035ZM9.81079 9.65841C10.0059 9.55024 10.2265 9.49628 10.4496 9.50214C10.6726 9.508 10.89 9.57345 11.0792 9.69171L15.9776 12.7534C15.9776 12.7534 15.9776 12.7534 15.9776 12.7534C16.2173 12.9032 16.415 13.1115 16.552 13.3588C16.689 13.606 16.7609 13.884 16.7609 14.1667C16.7609 14.4494 16.689 14.7274 16.552 14.9747C16.415 15.2219 16.2173 15.4302 15.9776 15.58L11.0793 18.6417L11.0792 18.6417C10.89 18.76 10.6726 18.8254 10.4496 18.8313C10.2265 18.8371 10.0059 18.7832 9.81079 18.675C9.61563 18.5668 9.45298 18.4084 9.33973 18.2162C9.22647 18.0239 9.16675 17.8048 9.16675 17.5817V10.7517C9.16675 10.7517 9.16675 10.7517 9.16675 10.7517C9.16675 10.5286 9.22647 10.3095 9.33973 10.1173C9.45298 9.92501 9.61563 9.76657 9.81079 9.65841Z" fill="black"/>
<path fill-rule="evenodd" clip-rule="evenodd" d="M13.9226 1.07733C14.248 1.40277 14.248 1.9304 13.9226 2.25584L12.3559 3.82251C12.0305 4.14794 11.5029 4.14794 11.1774 3.82251C10.852 3.49707 10.852 2.96943 11.1774 2.644L12.7441 1.07733C13.0695 0.751893 13.5972 0.751893 13.9226 1.07733Z" fill="black"/>
<path fill-rule="evenodd" clip-rule="evenodd" d="M5.38714 6.22039C6.16854 5.43899 7.22835 5 8.33342 5H11.6667C12.7718 5 13.8316 5.43899 14.613 6.22039C15.3944 7.00179 15.8334 8.0616 15.8334 9.16667C15.8334 9.6269 15.4603 10 15.0001 10C14.5398 10 14.1667 9.6269 14.1667 9.16667C14.1667 8.50363 13.9034 7.86774 13.4345 7.3989C12.9657 6.93006 12.3298 6.66667 11.6667 6.66667H8.33342C7.67037 6.66667 7.03449 6.93006 6.56565 7.3989C6.09681 7.86774 5.83341 8.50363 5.83341 9.16667V11.6655C5.83518 12.2558 5.95992 12.8394 6.1997 13.3789C6.43962 13.9187 6.78945 14.4026 7.22685 14.7996C7.56763 15.109 7.59312 15.636 7.28378 15.9768C6.97444 16.3175 6.44742 16.343 6.10664 16.0337C5.4977 15.4809 5.01069 14.8073 4.67668 14.0558C4.34267 13.3042 4.169 12.4913 4.16675 11.6689C4.16675 11.6682 4.16675 11.6674 4.16675 11.6667V9.16667C4.16675 8.0616 4.60573 7.00179 5.38714 6.22039Z" fill="black"/>
<path fill-rule="evenodd" clip-rule="evenodd" d="M17.4749 3.33325C17.9352 3.33325 18.3083 3.70635 18.3083 4.16659C18.3083 6.33847 16.6575 8.11688 14.6455 8.32867C14.1878 8.37685 13.7777 8.04486 13.7295 7.58716C13.6813 7.12945 14.0133 6.71934 14.471 6.67116C15.6257 6.54962 16.6416 5.4947 16.6416 4.16659C16.6416 3.70635 17.0147 3.33325 17.4749 3.33325Z" fill="black"/>
<path fill-rule="evenodd" clip-rule="evenodd" d="M6.49914 14.127C6.52103 14.5867 6.1661 14.9771 5.70639 14.999C4.40492 15.061 3.33341 16.1905 3.33341 17.4999C3.33341 17.9602 2.96032 18.3333 2.50008 18.3333C2.03984 18.3333 1.66675 17.9602 1.66675 17.4999C1.66675 15.3093 3.42857 13.4389 5.62711 13.3342C6.08683 13.3123 6.47725 13.6672 6.49914 14.127Z" fill="black"/>
<path fill-rule="evenodd" clip-rule="evenodd" d="M0.833252 10.8333C0.833252 10.3731 1.20635 10 1.66659 10H4.99992C5.46016 10 5.83325 10.3731 5.83325 10.8333C5.83325 11.2936 5.46016 11.6667 4.99992 11.6667H1.66659C1.20635 11.6667 0.833252 11.2936 0.833252 10.8333Z" fill="black"/>
<path fill-rule="evenodd" clip-rule="evenodd" d="M2.50008 3.33325C2.96032 3.33325 3.33341 3.70635 3.33341 4.16659C3.33341 5.49103 4.34544 6.54852 5.52764 6.67102C5.98543 6.71846 6.31808 7.12803 6.27064 7.58581C6.2232 8.0436 5.81364 8.37625 5.35585 8.32881C3.32139 8.11799 1.66675 6.34214 1.66675 4.16659C1.66675 3.70635 2.03984 3.33325 2.50008 3.33325Z" fill="black"/>
<path fill-rule="evenodd" clip-rule="evenodd" d="M6.07733 1.07733C6.40277 0.751893 6.9304 0.751893 7.25584 1.07733L8.82251 2.644C9.14794 2.96943 9.14794 3.49707 8.82251 3.82251C8.49707 4.14794 7.96943 4.14794 7.644 3.82251L6.07733 2.25584C5.75189 1.9304 5.75189 1.40277 6.07733 1.07733Z" fill="black"/>
<path fill-rule="evenodd" clip-rule="evenodd" d="M9.9999 3.32731C9.77442 3.32731 9.55128 3.37299 9.34394 3.4616C9.1366 3.55021 8.94937 3.67991 8.79353 3.84287C8.6377 4.00583 8.5165 4.19868 8.43724 4.40977C8.35799 4.62086 8.32232 4.84582 8.3324 5.07107C8.33295 5.08348 8.33323 5.09589 8.33323 5.10831V5.94164C8.33323 6.40188 7.96013 6.77498 7.4999 6.77498C7.03966 6.77498 6.66656 6.40188 6.66656 5.94164V5.1256C6.64938 4.6821 6.72088 4.23957 6.87693 3.82394C7.03532 3.40207 7.27754 3.01667 7.58898 2.69099C7.90041 2.36532 8.2746 2.10611 8.68897 1.92903C9.10333 1.75194 9.54928 1.66064 9.9999 1.66064C10.4505 1.66064 10.8965 1.75194 11.3108 1.92903C11.7252 2.10611 12.0994 2.36532 12.4108 2.69099C12.7222 3.01667 12.9645 3.40207 13.1229 3.82394C13.2789 4.23957 13.3504 4.6821 13.3332 5.1256V5.94164C13.3332 6.40188 12.9601 6.77498 12.4999 6.77498C12.0397 6.77498 11.6666 6.40188 11.6666 5.94164V5.10831C11.6666 5.09589 11.6668 5.08348 11.6674 5.07107C11.6775 4.84582 11.6418 4.62086 11.5625 4.40977C11.4833 4.19868 11.3621 4.00583 11.2063 3.84287C11.0504 3.67991 10.8632 3.55021 10.6559 3.4616C10.4485 3.37299 10.2254 3.32731 9.9999 3.32731Z" fill="black"/>
</svg>
