<svg width="20" height="20" viewBox="0 0 20 20" fill="none" xmlns="http://www.w3.org/2000/svg">
<g clip-path="url(#clip0_2001_4996)">
<path fill-rule="evenodd" clip-rule="evenodd" d="M6.66675 2.49992C6.44573 2.49992 6.23377 2.58772 6.07749 2.744C5.92121 2.90028 5.83341 3.11224 5.83341 3.33325V17.4999H14.1667V3.33325C14.1667 3.11224 14.079 2.90028 13.9227 2.744C13.7664 2.58772 13.5544 2.49992 13.3334 2.49992H6.66675ZM4.89898 1.56549C5.36782 1.09664 6.00371 0.833252 6.66675 0.833252H13.3334C13.9965 0.833252 14.6323 1.09664 15.1012 1.56549C15.57 2.03433 15.8334 2.67021 15.8334 3.33325V18.3333C15.8334 18.7935 15.4603 19.1666 15.0001 19.1666H5.00008C4.53984 19.1666 4.16675 18.7935 4.16675 18.3333V3.33325C4.16675 2.67021 4.43014 2.03433 4.89898 1.56549Z" fill="black"/>
<path fill-rule="evenodd" clip-rule="evenodd" d="M1.56549 9.89898C2.03433 9.43014 2.67021 9.16675 3.33325 9.16675H4.99992C5.46016 9.16675 5.83325 9.53984 5.83325 10.0001C5.83325 10.4603 5.46016 10.8334 4.99992 10.8334H3.33325C3.11224 10.8334 2.90028 10.9212 2.744 11.0775C2.58772 11.2338 2.49992 11.4457 2.49992 11.6667V16.6667C2.49992 16.8878 2.58772 17.0997 2.744 17.256C2.90028 17.4123 3.11224 17.5001 3.33325 17.5001H4.99992C5.46016 17.5001 5.83325 17.8732 5.83325 18.3334C5.83325 18.7937 5.46016 19.1667 4.99992 19.1667H3.33325C2.67021 19.1667 2.03433 18.9034 1.56549 18.4345C1.09664 17.9657 0.833252 17.3298 0.833252 16.6667V11.6667C0.833252 11.0037 1.09664 10.3678 1.56549 9.89898Z" fill="black"/>
<path fill-rule="evenodd" clip-rule="evenodd" d="M14.1667 7.50008C14.1667 7.03984 14.5398 6.66675 15.0001 6.66675H16.6667C17.3298 6.66675 17.9657 6.93014 18.4345 7.39898C18.9034 7.86782 19.1667 8.50371 19.1667 9.16675V16.6667C19.1667 17.3298 18.9034 17.9657 18.4345 18.4345C17.9657 18.9034 17.3298 19.1667 16.6667 19.1667H15.0001C14.5398 19.1667 14.1667 18.7937 14.1667 18.3334C14.1667 17.8732 14.5398 17.5001 15.0001 17.5001H16.6667C16.8878 17.5001 17.0997 17.4123 17.256 17.256C17.4123 17.0997 17.5001 16.8878 17.5001 16.6667V9.16675C17.5001 8.94573 17.4123 8.73377 17.256 8.57749C17.0997 8.42121 16.8878 8.33341 16.6667 8.33341H15.0001C14.5398 8.33341 14.1667 7.96032 14.1667 7.50008Z" fill="black"/>
<path fill-rule="evenodd" clip-rule="evenodd" d="M7.5 5.00008C7.5 4.53984 7.8731 4.16675 8.33333 4.16675H11.6667C12.1269 4.16675 12.5 4.53984 12.5 5.00008C12.5 5.46032 12.1269 5.83341 11.6667 5.83341H8.33333C7.8731 5.83341 7.5 5.46032 7.5 5.00008Z" fill="black"/>
<path fill-rule="evenodd" clip-rule="evenodd" d="M7.5 8.33333C7.5 7.8731 7.8731 7.5 8.33333 7.5H11.6667C12.1269 7.5 12.5 7.8731 12.5 8.33333C12.5 8.79357 12.1269 9.16667 11.6667 9.16667H8.33333C7.8731 9.16667 7.5 8.79357 7.5 8.33333Z" fill="black"/>
<path fill-rule="evenodd" clip-rule="evenodd" d="M7.5 11.6666C7.5 11.2063 7.8731 10.8333 8.33333 10.8333H11.6667C12.1269 10.8333 12.5 11.2063 12.5 11.6666C12.5 12.1268 12.1269 12.4999 11.6667 12.4999H8.33333C7.8731 12.4999 7.5 12.1268 7.5 11.6666Z" fill="black"/>
<path fill-rule="evenodd" clip-rule="evenodd" d="M7.5 15.0001C7.5 14.5398 7.8731 14.1667 8.33333 14.1667H11.6667C12.1269 14.1667 12.5 14.5398 12.5 15.0001C12.5 15.4603 12.1269 15.8334 11.6667 15.8334H8.33333C7.8731 15.8334 7.5 15.4603 7.5 15.0001Z" fill="black"/>
</g>
<defs>
<clipPath id="clip0_2001_4996">
<rect width="20" height="20" fill="white"/>
</clipPath>
</defs>
</svg>
