<svg width="20" height="20" viewBox="0 0 20 20" fill="none" xmlns="http://www.w3.org/2000/svg">
<path fill-rule="evenodd" clip-rule="evenodd" d="M5 2.49992C4.53976 2.49992 4.16667 2.87301 4.16667 3.33325V16.6666C4.16667 17.1268 4.53976 17.4999 5 17.4999H15C15.4602 17.4999 15.8333 17.1268 15.8333 16.6666V3.33325C15.8333 2.87301 15.4602 2.49992 15 2.49992H5ZM2.5 3.33325C2.5 1.95254 3.61929 0.833252 5 0.833252H15C16.3807 0.833252 17.5 1.95254 17.5 3.33325V16.6666C17.5 18.0473 16.3807 19.1666 15 19.1666H5C3.61929 19.1666 2.5 18.0473 2.5 16.6666V3.33325Z" fill="black"/>
<path fill-rule="evenodd" clip-rule="evenodd" d="M6.66675 15.0001C6.66675 14.5398 7.03984 14.1667 7.50008 14.1667H12.5001C12.9603 14.1667 13.3334 14.5398 13.3334 15.0001V18.3334C13.3334 18.7937 12.9603 19.1667 12.5001 19.1667C12.0398 19.1667 11.6667 18.7937 11.6667 18.3334V15.8334H8.33341V18.3334C8.33341 18.7937 7.96032 19.1667 7.50008 19.1667C7.03984 19.1667 6.66675 18.7937 6.66675 18.3334V15.0001Z" fill="black"/>
<path fill-rule="evenodd" clip-rule="evenodd" d="M5.83325 5.00008C5.83325 4.53984 6.20635 4.16675 6.66659 4.16675H6.67492C7.13516 4.16675 7.50825 4.53984 7.50825 5.00008C7.50825 5.46032 7.13516 5.83341 6.67492 5.83341H6.66659C6.20635 5.83341 5.83325 5.46032 5.83325 5.00008Z" fill="black"/>
<path fill-rule="evenodd" clip-rule="evenodd" d="M12.5 5.00008C12.5 4.53984 12.8731 4.16675 13.3333 4.16675H13.3417C13.8019 4.16675 14.175 4.53984 14.175 5.00008C14.175 5.46032 13.8019 5.83341 13.3417 5.83341H13.3333C12.8731 5.83341 12.5 5.46032 12.5 5.00008Z" fill="black"/>
<path fill-rule="evenodd" clip-rule="evenodd" d="M9.16675 5.00008C9.16675 4.53984 9.53984 4.16675 10.0001 4.16675H10.0084C10.4687 4.16675 10.8417 4.53984 10.8417 5.00008C10.8417 5.46032 10.4687 5.83341 10.0084 5.83341H10.0001C9.53984 5.83341 9.16675 5.46032 9.16675 5.00008Z" fill="black"/>
<path fill-rule="evenodd" clip-rule="evenodd" d="M9.16675 8.33333C9.16675 7.8731 9.53984 7.5 10.0001 7.5H10.0084C10.4687 7.5 10.8417 7.8731 10.8417 8.33333C10.8417 8.79357 10.4687 9.16667 10.0084 9.16667H10.0001C9.53984 9.16667 9.16675 8.79357 9.16675 8.33333Z" fill="black"/>
<path fill-rule="evenodd" clip-rule="evenodd" d="M9.16675 11.6666C9.16675 11.2063 9.53984 10.8333 10.0001 10.8333H10.0084C10.4687 10.8333 10.8417 11.2063 10.8417 11.6666C10.8417 12.1268 10.4687 12.4999 10.0084 12.4999H10.0001C9.53984 12.4999 9.16675 12.1268 9.16675 11.6666Z" fill="black"/>
<path fill-rule="evenodd" clip-rule="evenodd" d="M12.5 8.33333C12.5 7.8731 12.8731 7.5 13.3333 7.5H13.3417C13.8019 7.5 14.175 7.8731 14.175 8.33333C14.175 8.79357 13.8019 9.16667 13.3417 9.16667H13.3333C12.8731 9.16667 12.5 8.79357 12.5 8.33333Z" fill="black"/>
<path fill-rule="evenodd" clip-rule="evenodd" d="M12.5 11.6666C12.5 11.2063 12.8731 10.8333 13.3333 10.8333H13.3417C13.8019 10.8333 14.175 11.2063 14.175 11.6666C14.175 12.1268 13.8019 12.4999 13.3417 12.4999H13.3333C12.8731 12.4999 12.5 12.1268 12.5 11.6666Z" fill="black"/>
<path fill-rule="evenodd" clip-rule="evenodd" d="M5.83325 8.33333C5.83325 7.8731 6.20635 7.5 6.66659 7.5H6.67492C7.13516 7.5 7.50825 7.8731 7.50825 8.33333C7.50825 8.79357 7.13516 9.16667 6.67492 9.16667H6.66659C6.20635 9.16667 5.83325 8.79357 5.83325 8.33333Z" fill="black"/>
<path fill-rule="evenodd" clip-rule="evenodd" d="M5.83325 11.6666C5.83325 11.2063 6.20635 10.8333 6.66659 10.8333H6.67492C7.13516 10.8333 7.50825 11.2063 7.50825 11.6666C7.50825 12.1268 7.13516 12.4999 6.67492 12.4999H6.66659C6.20635 12.4999 5.83325 12.1268 5.83325 11.6666Z" fill="black"/>
</svg>
