<svg width="20" height="20" viewBox="0 0 20 20" fill="none" xmlns="http://www.w3.org/2000/svg">
<path fill-rule="evenodd" clip-rule="evenodd" d="M4.07879 4.62734C4.28461 5.03899 4.11776 5.53955 3.70611 5.74538L2.03945 6.57871C1.6278 6.78453 1.12724 6.61768 0.921412 6.20603C0.715587 5.79438 0.882441 5.29382 1.29409 5.088L2.96076 4.25466C3.37241 4.04884 3.87297 4.21569 4.07879 4.62734Z" fill="black"/>
<path fill-rule="evenodd" clip-rule="evenodd" d="M7.5 5.00008C7.5 4.53984 7.8731 4.16675 8.33333 4.16675H11.6667C12.1269 4.16675 12.5 4.53984 12.5 5.00008C12.5 5.46032 12.1269 5.83341 11.6667 5.83341H8.33333C7.8731 5.83341 7.5 5.46032 7.5 5.00008Z" fill="black"/>
<path fill-rule="evenodd" clip-rule="evenodd" d="M15.9214 4.62734C16.1272 4.21569 16.6278 4.04884 17.0394 4.25466L18.7061 5.088C19.1178 5.29382 19.2846 5.79438 19.0788 6.20603C18.873 6.61768 18.3724 6.78453 17.9608 6.57871L16.2941 5.74538C15.8824 5.53955 15.7156 5.03899 15.9214 4.62734Z" fill="black"/>
<path fill-rule="evenodd" clip-rule="evenodd" d="M5 3.33341C4.53976 3.33341 4.16667 3.70651 4.16667 4.16675V14.1667C4.16667 14.627 4.53976 15.0001 5 15.0001H15C15.4602 15.0001 15.8333 14.627 15.8333 14.1667V4.16675C15.8333 3.70651 15.4602 3.33341 15 3.33341H5ZM2.5 4.16675C2.5 2.78604 3.61929 1.66675 5 1.66675H15C16.3807 1.66675 17.5 2.78604 17.5 4.16675V14.1667C17.5 15.5475 16.3807 16.6667 15 16.6667H5C3.61929 16.6667 2.5 15.5475 2.5 14.1667V4.16675Z" fill="black"/>
<path fill-rule="evenodd" clip-rule="evenodd" d="M2.5 9.16659C2.5 8.70635 2.8731 8.33325 3.33333 8.33325H16.6667C17.1269 8.33325 17.5 8.70635 17.5 9.16659C17.5 9.62682 17.1269 9.99992 16.6667 9.99992H3.33333C2.8731 9.99992 2.5 9.62682 2.5 9.16659Z" fill="black"/>
<path fill-rule="evenodd" clip-rule="evenodd" d="M5.83325 12.5001C5.83325 12.0398 6.20635 11.6667 6.66659 11.6667H6.67492C7.13516 11.6667 7.50825 12.0398 7.50825 12.5001C7.50825 12.9603 7.13516 13.3334 6.67492 13.3334H6.66659C6.20635 13.3334 5.83325 12.9603 5.83325 12.5001Z" fill="black"/>
<path fill-rule="evenodd" clip-rule="evenodd" d="M12.5 12.5001C12.5 12.0398 12.8731 11.6667 13.3333 11.6667H13.3417C13.8019 11.6667 14.175 12.0398 14.175 12.5001C14.175 12.9603 13.8019 13.3334 13.3417 13.3334H13.3333C12.8731 13.3334 12.5 12.9603 12.5 12.5001Z" fill="black"/>
<path fill-rule="evenodd" clip-rule="evenodd" d="M5.00008 15C5.46032 15 5.83341 15.3731 5.83341 15.8333V17.5C5.83341 17.9602 5.46032 18.3333 5.00008 18.3333C4.53984 18.3333 4.16675 17.9602 4.16675 17.5V15.8333C4.16675 15.3731 4.53984 15 5.00008 15Z" fill="black"/>
<path fill-rule="evenodd" clip-rule="evenodd" d="M15.0001 15C15.4603 15 15.8334 15.3731 15.8334 15.8333V17.5C15.8334 17.9602 15.4603 18.3333 15.0001 18.3333C14.5398 18.3333 14.1667 17.9602 14.1667 17.5V15.8333C14.1667 15.3731 14.5398 15 15.0001 15Z" fill="black"/>
</svg>
