<svg width="20" height="20" viewBox="0 0 20 20" fill="none" xmlns="http://www.w3.org/2000/svg">
<path fill-rule="evenodd" clip-rule="evenodd" d="M6.66659 4.16675C7.12682 4.16675 7.49992 4.53984 7.49992 5.00008V10.0001C7.49992 10.4603 7.12682 10.8334 6.66659 10.8334C6.20635 10.8334 5.83325 10.4603 5.83325 10.0001V5.00008C5.83325 4.53984 6.20635 4.16675 6.66659 4.16675Z" fill="black"/>
<path fill-rule="evenodd" clip-rule="evenodd" d="M12.5001 4.16675C12.9603 4.16675 13.3334 4.53984 13.3334 5.00008V10.0001C13.3334 10.4603 12.9603 10.8334 12.5001 10.8334C12.0398 10.8334 11.6667 10.4603 11.6667 10.0001V5.00008C11.6667 4.53984 12.0398 4.16675 12.5001 4.16675Z" fill="black"/>
<path fill-rule="evenodd" clip-rule="evenodd" d="M0.833252 10.0001C0.833252 9.53984 1.20635 9.16675 1.66659 9.16675H17.9999C18.4602 9.16675 18.8333 9.53984 18.8333 10.0001C18.8333 10.4603 18.4602 10.8334 17.9999 10.8334H1.66659C1.20635 10.8334 0.833252 10.4603 0.833252 10.0001Z" fill="black"/>
<path fill-rule="evenodd" clip-rule="evenodd" d="M1.56549 4.89898C2.03433 4.43014 2.67021 4.16675 3.33325 4.16675H14.9999C16.3027 4.16675 17.4477 5.09244 17.7981 6.26063C17.7996 6.26553 17.801 6.27046 17.8024 6.27539L18.9691 10.4421C18.9712 10.4496 18.9732 10.4571 18.975 10.4646C18.9779 10.476 18.9807 10.4874 18.9837 10.4991C19.0615 10.8098 19.1666 11.2293 19.1666 11.6667C19.1666 12.1042 19.0615 12.5237 18.9837 12.8344C18.9807 12.8461 18.9779 12.8575 18.975 12.8689C18.974 12.8728 18.973 12.8768 18.972 12.8807C18.9715 12.8825 18.971 12.8843 18.9706 12.886C18.8438 13.3507 18.6757 13.9389 18.5401 14.4084C18.4721 14.6438 18.412 14.8503 18.3689 14.998C18.3565 15.0403 18.3455 15.0778 18.3362 15.1098C18.3292 15.1336 18.3231 15.1544 18.318 15.1719C18.312 15.1923 18.3074 15.208 18.3042 15.2188L18.2997 15.2341L18.2995 15.2349L18.2994 15.2351L18.2994 15.2352C18.2994 15.2352 18.2994 15.2352 17.4999 15.0001L18.2994 15.2352C18.1951 15.5899 17.8696 15.8334 17.4999 15.8334H14.9999C14.5397 15.8334 14.1666 15.4603 14.1666 15.0001C14.1666 14.5398 14.5397 14.1667 14.9999 14.1667H16.875C16.8952 14.097 16.9166 14.023 16.9389 13.9459C17.0733 13.4808 17.2373 12.9068 17.3603 12.456C17.4472 12.108 17.4999 11.8778 17.4999 11.6667C17.4999 11.4562 17.4475 11.2267 17.361 10.8802L16.1998 6.73327C16.0478 6.23765 15.5283 5.83341 14.9999 5.83341H3.33325C3.11224 5.83341 2.90028 5.92121 2.744 6.07749C2.58772 6.23377 2.49992 6.44573 2.49992 6.66675V14.1667H4.16659C4.62682 14.1667 4.99992 14.5398 4.99992 15.0001C4.99992 15.4603 4.62682 15.8334 4.16659 15.8334H1.66659C1.20635 15.8334 0.833252 15.4603 0.833252 15.0001V6.66675C0.833252 6.00371 1.09664 5.36782 1.56549 4.89898Z" fill="black"/>
<path fill-rule="evenodd" clip-rule="evenodd" d="M5.83325 14.1667C5.37301 14.1667 4.99992 14.5398 4.99992 15C4.99992 15.4602 5.37301 15.8333 5.83325 15.8333C6.29349 15.8333 6.66659 15.4602 6.66659 15C6.66659 14.5398 6.29349 14.1667 5.83325 14.1667ZM3.33325 15C3.33325 13.6193 4.45254 12.5 5.83325 12.5C7.21396 12.5 8.33325 13.6193 8.33325 15C8.33325 16.3807 7.21396 17.5 5.83325 17.5C4.45254 17.5 3.33325 16.3807 3.33325 15Z" fill="black"/>
<path fill-rule="evenodd" clip-rule="evenodd" d="M6.66675 15.0001C6.66675 14.5398 7.03984 14.1667 7.50008 14.1667H11.6667C12.127 14.1667 12.5001 14.5398 12.5001 15.0001C12.5001 15.4603 12.127 15.8334 11.6667 15.8334H7.50008C7.03984 15.8334 6.66675 15.4603 6.66675 15.0001Z" fill="black"/>
<path fill-rule="evenodd" clip-rule="evenodd" d="M13.3333 14.1667C12.873 14.1667 12.4999 14.5398 12.4999 15C12.4999 15.4602 12.873 15.8333 13.3333 15.8333C13.7935 15.8333 14.1666 15.4602 14.1666 15C14.1666 14.5398 13.7935 14.1667 13.3333 14.1667ZM10.8333 15C10.8333 13.6193 11.9525 12.5 13.3333 12.5C14.714 12.5 15.8333 13.6193 15.8333 15C15.8333 16.3807 14.714 17.5 13.3333 17.5C11.9525 17.5 10.8333 16.3807 10.8333 15Z" fill="black"/>
</svg>
