<svg width="20" height="20" viewBox="0 0 20 20" fill="none" xmlns="http://www.w3.org/2000/svg">
<path fill-rule="evenodd" clip-rule="evenodd" d="M15 13.3334C14.779 13.3334 14.567 13.4212 14.4107 13.5775C14.2545 13.7338 14.1667 13.9457 14.1667 14.1667L14.1667 15.0001C14.6269 15.0001 15 15.3732 15 15.8334V17.5001C15 17.9603 14.6269 18.3334 14.1667 18.3334C13.7064 18.3334 13.3333 17.9603 13.3333 17.5001V16.4435C13.2083 16.3713 13.0921 16.2825 12.9882 16.1786C12.6756 15.866 12.5 15.4421 12.5 15.0001V14.1667C12.5 13.5037 12.7634 12.8678 13.2322 12.399C13.7011 11.9301 14.337 11.6667 15 11.6667H16.6667C17.3297 11.6667 17.9656 11.9301 18.4344 12.399C18.9033 12.8678 19.1667 13.5037 19.1667 14.1667V15.0001C19.1667 15.4421 18.9911 15.866 18.6785 16.1786C18.3659 16.4912 17.942 16.6667 17.5 16.6667C17.0398 16.6667 16.6667 16.2937 16.6667 15.8334C16.6667 15.3732 17.0398 15.0001 17.5 15.0001V14.1667C17.5 13.9457 17.4122 13.7338 17.2559 13.5775C17.0996 13.4212 16.8877 13.3334 16.6667 13.3334H15Z" fill="black"/>
<path fill-rule="evenodd" clip-rule="evenodd" d="M10.2649 2.7651C10.9682 2.06184 11.922 1.66675 12.9166 1.66675C13.9111 1.66675 14.865 2.06184 15.5682 2.7651C16.2715 3.46836 16.6666 4.42219 16.6666 5.41675V12.5001C16.6666 12.9603 16.2935 13.3334 15.8333 13.3334C15.373 13.3334 14.9999 12.9603 14.9999 12.5001V5.41675C14.9999 4.86421 14.7804 4.33431 14.3897 3.94361C13.999 3.55291 13.4691 3.33341 12.9166 3.33341C12.3641 3.33341 11.8341 3.55291 11.4434 3.94361C11.0527 4.33431 10.8333 4.86421 10.8333 5.41675V14.5834C10.8333 15.578 10.4382 16.5318 9.7349 17.2351C9.03164 17.9383 8.07781 18.3334 7.08325 18.3334C6.08869 18.3334 5.13486 17.9383 4.4316 17.2351C3.72834 16.5318 3.33325 15.578 3.33325 14.5834V7.50008C3.33325 7.03984 3.70635 6.66675 4.16659 6.66675C4.62682 6.66675 4.99992 7.03984 4.99992 7.50008V14.5834C4.99992 15.1359 5.21941 15.6659 5.61011 16.0566C6.00081 16.4473 6.53072 16.6667 7.08325 16.6667C7.63579 16.6667 8.16569 16.4473 8.55639 16.0566C8.94709 15.6659 9.16658 15.1359 9.16658 14.5834V5.41675C9.16658 4.42219 9.56167 3.46836 10.2649 2.7651Z" fill="black"/>
<path fill-rule="evenodd" clip-rule="evenodd" d="M13.3333 15.8333C13.3333 15.3731 13.7063 15 14.1666 15H17.4999C17.9602 15 18.3333 15.3731 18.3333 15.8333V17.5C18.3333 17.9602 17.9602 18.3333 17.4999 18.3333C17.0397 18.3333 16.6666 17.9602 16.6666 17.5V16.6667H14.1666C13.7063 16.6667 13.3333 16.2936 13.3333 15.8333Z" fill="black"/>
<path fill-rule="evenodd" clip-rule="evenodd" d="M5.83342 1.66675C6.29365 1.66675 6.66675 2.03984 6.66675 2.50008V4.16675C6.66675 4.62699 6.29365 5.00008 5.83342 5.00008H2.50008C2.03984 5.00008 1.66675 4.62699 1.66675 4.16675C1.66675 3.70651 2.03984 3.33341 2.50008 3.33341H5.00008V2.50008C5.00008 2.03984 5.37318 1.66675 5.83342 1.66675Z" fill="black"/>
<path fill-rule="evenodd" clip-rule="evenodd" d="M2.49992 1.66675C2.96016 1.66675 3.33325 2.03984 3.33325 2.50008V4.16675C3.33325 4.38776 3.24545 4.59972 3.08917 4.756C2.93289 4.91228 2.72093 5.00008 2.49992 5.00008V5.83341C2.49992 6.05443 2.58772 6.26639 2.744 6.42267C2.90028 6.57895 3.11224 6.66675 3.33325 6.66675H4.99992C5.22093 6.66675 5.43289 6.57895 5.58917 6.42267C5.74545 6.26639 5.83325 6.05443 5.83325 5.83341V5.00008C5.37301 5.00008 4.99992 4.62699 4.99992 4.16675C4.99992 3.70651 5.37301 3.33341 5.83325 3.33341C6.27528 3.33341 6.6992 3.50901 7.01176 3.82157C7.32432 4.13413 7.49992 4.55805 7.49992 5.00008V5.83341C7.49992 6.49646 7.23653 7.13234 6.76768 7.60118C6.29884 8.07002 5.66296 8.33341 4.99992 8.33341H3.33325C2.67021 8.33341 2.03433 8.07002 1.56548 7.60118C1.09664 7.13234 0.833252 6.49646 0.833252 5.83341V5.00008C0.833252 4.55805 1.00885 4.13413 1.32141 3.82157C1.4253 3.71767 1.5415 3.62891 1.66659 3.5567V2.50008C1.66659 2.03984 2.03968 1.66675 2.49992 1.66675Z" fill="black"/>
</svg>
