<svg width="20" height="20" viewBox="0 0 20 20" fill="none" xmlns="http://www.w3.org/2000/svg">
<g clip-path="url(#clip0_2001_5034)">
<path fill-rule="evenodd" clip-rule="evenodd" d="M7.5 2.50008C7.5 2.03984 7.8731 1.66675 8.33333 1.66675H8.34167C8.8019 1.66675 9.175 2.03984 9.175 2.50008C9.175 2.96032 8.8019 3.33341 8.34167 3.33341H8.33333C7.8731 3.33341 7.5 2.96032 7.5 2.50008Z" fill="black"/>
<path fill-rule="evenodd" clip-rule="evenodd" d="M10.8333 1.66659C10.8333 1.20635 11.2063 0.833252 11.6666 0.833252H11.6749C12.1352 0.833252 12.5083 1.20635 12.5083 1.66659C12.5083 2.12682 12.1352 2.49992 11.6749 2.49992H11.6666C11.2063 2.49992 10.8333 2.12682 10.8333 1.66659Z" fill="black"/>
<path fill-rule="evenodd" clip-rule="evenodd" d="M19.1419 3.13117C19.2535 3.57767 18.9821 4.03011 18.5356 4.14174L1.8689 8.3084C1.4224 8.42003 0.969954 8.14856 0.85833 7.70207C0.746706 7.25557 1.01817 6.80312 1.46467 6.6915L18.1313 2.52483C18.5778 2.41321 19.0303 2.68468 19.1419 3.13117Z" fill="black"/>
<path fill-rule="evenodd" clip-rule="evenodd" d="M10.0001 4.58325C10.4603 4.58325 10.8334 4.95635 10.8334 5.41659V9.99992C10.8334 10.4602 10.4603 10.8333 10.0001 10.8333C9.53984 10.8333 9.16675 10.4602 9.16675 9.99992V5.41659C9.16675 4.95635 9.53984 4.58325 10.0001 4.58325Z" fill="black"/>
<path fill-rule="evenodd" clip-rule="evenodd" d="M5.83333 10.8334C4.91286 10.8334 4.16667 11.5796 4.16667 12.5001V15.8334C4.16667 16.7539 4.91286 17.5001 5.83333 17.5001H14.1667C15.0871 17.5001 15.8333 16.7539 15.8333 15.8334V12.5001C15.8333 11.5796 15.0871 10.8334 14.1667 10.8334H5.83333ZM2.5 12.5001C2.5 10.6591 3.99238 9.16675 5.83333 9.16675H14.1667C16.0076 9.16675 17.5 10.6591 17.5 12.5001V15.8334C17.5 17.6744 16.0076 19.1667 14.1667 19.1667H5.83333C3.99238 19.1667 2.5 17.6744 2.5 15.8334V12.5001Z" fill="black"/>
<path fill-rule="evenodd" clip-rule="evenodd" d="M7.50008 9.16675C7.96032 9.16675 8.33341 9.53984 8.33341 10.0001V14.1667C8.33341 14.627 7.96032 15.0001 7.50008 15.0001C7.03984 15.0001 6.66675 14.627 6.66675 14.1667V10.0001C6.66675 9.53984 7.03984 9.16675 7.50008 9.16675Z" fill="black"/>
<path fill-rule="evenodd" clip-rule="evenodd" d="M12.5001 9.16675C12.9603 9.16675 13.3334 9.53984 13.3334 10.0001V14.1667C13.3334 14.627 12.9603 15.0001 12.5001 15.0001C12.0398 15.0001 11.6667 14.627 11.6667 14.1667V10.0001C11.6667 9.53984 12.0398 9.16675 12.5001 9.16675Z" fill="black"/>
<path fill-rule="evenodd" clip-rule="evenodd" d="M2.5 14.1666C2.5 13.7063 2.8731 13.3333 3.33333 13.3333H16.6667C17.1269 13.3333 17.5 13.7063 17.5 14.1666C17.5 14.6268 17.1269 14.9999 16.6667 14.9999H3.33333C2.8731 14.9999 2.5 14.6268 2.5 14.1666Z" fill="black"/>
</g>
<defs>
<clipPath id="clip0_2001_5034">
<rect width="20" height="20" fill="white"/>
</clipPath>
</defs>
</svg>
