<svg width="20" height="20" viewBox="0 0 20 20" fill="none" xmlns="http://www.w3.org/2000/svg">
<path fill-rule="evenodd" clip-rule="evenodd" d="M3.23223 9.06549C3.70107 8.59664 4.33696 8.33325 5 8.33325H15C15.663 8.33325 16.2989 8.59664 16.7678 9.06549C17.2366 9.53433 17.5 10.1702 17.5 10.8333V17.4999C17.5 17.9602 17.1269 18.3333 16.6667 18.3333C16.2064 18.3333 15.8333 17.9602 15.8333 17.4999V10.8333C15.8333 10.6122 15.7455 10.4003 15.5893 10.244C15.433 10.0877 15.221 9.99992 15 9.99992H5C4.77899 9.99992 4.56702 10.0877 4.41074 10.244C4.25446 10.4003 4.16667 10.6122 4.16667 10.8333V17.4999C4.16667 17.9602 3.79357 18.3333 3.33333 18.3333C2.8731 18.3333 2.5 17.9602 2.5 17.4999V10.8333C2.5 10.1702 2.76339 9.53433 3.23223 9.06549Z" fill="black"/>
<path fill-rule="evenodd" clip-rule="evenodd" d="M4.06745 13.7277C3.85516 14.1235 3.36497 14.281 2.96059 14.0788C2.54895 13.8729 2.38209 13.3724 2.58792 12.9607L3.33327 13.3334C2.58792 12.9607 2.58814 12.9603 2.58836 12.9599L2.58881 12.9589C2.58912 12.9583 2.58943 12.9577 2.58976 12.9571C2.59015 12.9563 2.59055 12.9555 2.59096 12.9547C2.59123 12.9542 2.59151 12.9536 2.59179 12.9531C2.59321 12.9503 2.59475 12.9473 2.59643 12.9441C2.59978 12.9377 2.60366 12.9305 2.60808 12.9225C2.61691 12.9064 2.62793 12.8871 2.64129 12.8651C2.66797 12.8212 2.70423 12.7659 2.75124 12.7032C2.84499 12.5782 2.9838 12.4208 3.17728 12.266C3.5748 11.948 4.17251 11.6667 4.99994 11.6667C5.92423 11.6667 6.65355 12.2535 7.11774 12.6269C7.14159 12.6461 7.16474 12.6647 7.18718 12.6827C7.76966 13.1487 8.05506 13.3334 8.33327 13.3334C8.61149 13.3334 8.89688 13.1487 9.47936 12.6827C9.5018 12.6647 9.52495 12.6461 9.54881 12.6269C10.013 12.2535 10.7423 11.6667 11.6666 11.6667C12.5909 11.6667 13.3202 12.2535 13.7844 12.6269C13.8083 12.6461 13.8314 12.6647 13.8539 12.6827C14.4363 13.1487 14.7217 13.3334 14.9999 13.3334C15.4225 13.3334 15.6581 13.198 15.7814 13.0994C15.8484 13.0458 15.8919 12.9949 15.9153 12.9636C15.9242 12.9518 15.9298 12.9432 15.9324 12.9392C16.1447 12.5433 16.6349 12.3859 17.0393 12.5881C17.4509 12.7939 17.6178 13.2944 17.412 13.7061L16.6666 13.3334C17.412 13.7061 17.4117 13.7065 17.4115 13.707L17.4111 13.7079L17.4101 13.7098C17.4095 13.711 17.4088 13.7124 17.4081 13.7137C17.4067 13.7165 17.4051 13.7195 17.4034 13.7227C17.4001 13.7291 17.3962 13.7363 17.3918 13.7444C17.383 13.7604 17.3719 13.7797 17.3586 13.8017C17.3319 13.8456 17.2956 13.9009 17.2486 13.9636C17.1549 14.0886 17.0161 14.246 16.8226 14.4008C16.4251 14.7188 15.8274 15.0001 14.9999 15.0001C14.0757 15.0001 13.3463 14.4133 12.8821 14.0399C12.8583 14.0207 12.8351 14.0021 12.8127 13.9841C12.2302 13.5182 11.9448 13.3334 11.6666 13.3334C11.3884 13.3334 11.103 13.5182 10.5205 13.9841C10.4981 14.0021 10.4749 14.0207 10.4511 14.0399C9.98689 14.4133 9.25756 15.0001 8.33327 15.0001C7.40898 15.0001 6.67966 14.4133 6.21547 14.0399C6.19162 14.0207 6.16847 14.0021 6.14603 13.9841C5.56355 13.5182 5.27816 13.3334 4.99994 13.3334C4.57737 13.3334 4.34174 13.4688 4.21843 13.5675C4.15149 13.621 4.10802 13.672 4.08457 13.7032C4.07568 13.7151 4.07004 13.7236 4.06745 13.7277ZM15.922 12.9592C15.9221 12.9591 15.9221 12.959 15.9222 12.9589L15.9221 12.959L15.922 12.9592Z" fill="black"/>
<path fill-rule="evenodd" clip-rule="evenodd" d="M0.833252 17.5001C0.833252 17.0398 1.20635 16.6667 1.66659 16.6667H18.3333C18.7935 16.6667 19.1666 17.0398 19.1666 17.5001C19.1666 17.9603 18.7935 18.3334 18.3333 18.3334H1.66659C1.20635 18.3334 0.833252 17.9603 0.833252 17.5001Z" fill="black"/>
<path fill-rule="evenodd" clip-rule="evenodd" d="M5.83333 5.83325C6.29357 5.83325 6.66667 6.20635 6.66667 6.66659V9.16658C6.66667 9.62682 6.29357 9.99992 5.83333 9.99992C5.3731 9.99992 5 9.62682 5 9.16658V6.66659C5 6.20635 5.3731 5.83325 5.83333 5.83325Z" fill="black"/>
<path fill-rule="evenodd" clip-rule="evenodd" d="M10.0001 5.83325C10.4603 5.83325 10.8334 6.20635 10.8334 6.66659V9.16658C10.8334 9.62682 10.4603 9.99992 10.0001 9.99992C9.53984 9.99992 9.16675 9.62682 9.16675 9.16658V6.66659C9.16675 6.20635 9.53984 5.83325 10.0001 5.83325Z" fill="black"/>
<path fill-rule="evenodd" clip-rule="evenodd" d="M14.1666 5.83325C14.6268 5.83325 14.9999 6.20635 14.9999 6.66659V9.16658C14.9999 9.62682 14.6268 9.99992 14.1666 9.99992C13.7063 9.99992 13.3333 9.62682 13.3333 9.16658V6.66659C13.3333 6.20635 13.7063 5.83325 14.1666 5.83325Z" fill="black"/>
<path fill-rule="evenodd" clip-rule="evenodd" d="M5 3.33333C5 2.8731 5.3731 2.5 5.83333 2.5H5.84167C6.3019 2.5 6.675 2.8731 6.675 3.33333C6.675 3.79357 6.3019 4.16667 5.84167 4.16667H5.83333C5.3731 4.16667 5 3.79357 5 3.33333Z" fill="black"/>
<path fill-rule="evenodd" clip-rule="evenodd" d="M9.16675 3.33333C9.16675 2.8731 9.53984 2.5 10.0001 2.5H10.0084C10.4687 2.5 10.8417 2.8731 10.8417 3.33333C10.8417 3.79357 10.4687 4.16667 10.0084 4.16667H10.0001C9.53984 4.16667 9.16675 3.79357 9.16675 3.33333Z" fill="black"/>
<path fill-rule="evenodd" clip-rule="evenodd" d="M13.3333 3.33333C13.3333 2.8731 13.7063 2.5 14.1666 2.5H14.1749C14.6352 2.5 15.0083 2.8731 15.0083 3.33333C15.0083 3.79357 14.6352 4.16667 14.1749 4.16667H14.1666C13.7063 4.16667 13.3333 3.79357 13.3333 3.33333Z" fill="black"/>
</svg>
