<svg width="20" height="20" viewBox="0 0 20 20" fill="none" xmlns="http://www.w3.org/2000/svg">
<path fill-rule="evenodd" clip-rule="evenodd" d="M7.5 4.99992C7.03976 4.99992 6.66667 5.37301 6.66667 5.83325C6.66667 6.29349 7.03976 6.66659 7.5 6.66659C7.96024 6.66659 8.33333 6.29349 8.33333 5.83325C8.33333 5.37301 7.96024 4.99992 7.5 4.99992ZM5 5.83325C5 4.45254 6.11929 3.33325 7.5 3.33325C8.88071 3.33325 10 4.45254 10 5.83325C10 7.21396 8.88071 8.33325 7.5 8.33325C6.11929 8.33325 5 7.21396 5 5.83325Z" fill="black"/>
<path fill-rule="evenodd" clip-rule="evenodd" d="M11.1788 1.82452C11.4303 1.64288 11.7619 1.61598 12.0394 1.75473C13.8225 2.64628 15.3687 3.9741 16.4736 5.29993C17.0271 5.96415 17.4822 6.64254 17.8027 7.28366C18.1158 7.90971 18.3334 8.56534 18.3334 9.16675V16.6668C18.3334 17.1061 18.1833 17.537 17.8602 17.8602C17.537 18.1833 17.1061 18.3334 16.6667 18.3334H3.33341C2.89404 18.3334 2.46314 18.1833 2.13999 17.8602C1.81684 17.537 1.66675 17.1061 1.66675 16.6668V9.16675C1.66675 8.90221 1.79236 8.65337 2.0052 8.49627L5.5052 5.91294C5.8755 5.63963 6.39725 5.71825 6.67056 6.08854C6.94387 6.45884 6.86525 6.98058 6.49496 7.2539L3.33341 9.58742V16.6668H16.6667V9.16675C16.6667 8.93483 16.5719 8.54879 16.312 8.02901C16.0597 7.52429 15.6814 6.95268 15.1932 6.36691C14.3086 5.30529 13.1034 4.2453 11.7347 3.47894L9.15466 5.34232C8.78155 5.61178 8.26065 5.52777 7.99118 5.15466C7.72172 4.78156 7.80573 4.26065 8.17884 3.99119L11.1788 1.82452Z" fill="black"/>
<path fill-rule="evenodd" clip-rule="evenodd" d="M1.66675 10.8333C1.66675 10.3731 2.03984 10 2.50008 10H13.3334C13.7937 10 14.1667 10.3731 14.1667 10.8333C14.1667 11.2936 13.7937 11.6667 13.3334 11.6667H2.50008C2.03984 11.6667 1.66675 11.2936 1.66675 10.8333Z" fill="black"/>
<path fill-rule="evenodd" clip-rule="evenodd" d="M1.66675 14.1666C1.66675 13.7063 2.03984 13.3333 2.50008 13.3333H13.3334C13.7937 13.3333 14.1667 13.7063 14.1667 14.1666C14.1667 14.6268 13.7937 14.9999 13.3334 14.9999H2.50008C2.03984 14.9999 1.66675 14.6268 1.66675 14.1666Z" fill="black"/>
</svg>
