<svg width="20" height="20" viewBox="0 0 20 20" fill="none" xmlns="http://www.w3.org/2000/svg">
<path fill-rule="evenodd" clip-rule="evenodd" d="M2.39898 3.23223C2.86782 2.76339 3.50371 2.5 4.16675 2.5H15.8334C16.4965 2.5 17.1323 2.76339 17.6012 3.23223C18.07 3.70107 18.3334 4.33696 18.3334 5V6.25C18.3334 6.71024 17.9603 7.08333 17.5001 7.08333C17.0398 7.08333 16.6667 6.71024 16.6667 6.25V5C16.6667 4.77899 16.5789 4.56702 16.4227 4.41074C16.2664 4.25446 16.0544 4.16667 15.8334 4.16667H4.16675C3.94573 4.16667 3.73377 4.25446 3.57749 4.41074C3.42121 4.56702 3.33341 4.77899 3.33341 5V16.6667C3.33341 16.8877 3.42121 17.0996 3.57749 17.2559C3.73377 17.4122 3.94573 17.5 4.16675 17.5H7.08341C7.54365 17.5 7.91675 17.8731 7.91675 18.3333C7.91675 18.7936 7.54365 19.1667 7.08341 19.1667H4.16675C3.50371 19.1667 2.86782 18.9033 2.39898 18.4344C1.93014 17.9656 1.66675 17.3297 1.66675 16.6667V5C1.66675 4.33696 1.93014 3.70107 2.39898 3.23223Z" fill="black"/>
<path fill-rule="evenodd" clip-rule="evenodd" d="M13.3333 0.833252C13.7936 0.833252 14.1667 1.20635 14.1667 1.66659V4.99992C14.1667 5.46016 13.7936 5.83325 13.3333 5.83325C12.8731 5.83325 12.5 5.46016 12.5 4.99992V1.66659C12.5 1.20635 12.8731 0.833252 13.3333 0.833252Z" fill="black"/>
<path fill-rule="evenodd" clip-rule="evenodd" d="M6.66659 0.833252C7.12682 0.833252 7.49992 1.20635 7.49992 1.66659V4.99992C7.49992 5.46016 7.12682 5.83325 6.66659 5.83325C6.20635 5.83325 5.83325 5.46016 5.83325 4.99992V1.66659C5.83325 1.20635 6.20635 0.833252 6.66659 0.833252Z" fill="black"/>
<path fill-rule="evenodd" clip-rule="evenodd" d="M1.66675 8.33333C1.66675 7.8731 2.03984 7.5 2.50008 7.5H6.66675C7.12699 7.5 7.50008 7.8731 7.50008 8.33333C7.50008 8.79357 7.12699 9.16667 6.66675 9.16667H2.50008C2.03984 9.16667 1.66675 8.79357 1.66675 8.33333Z" fill="black"/>
<path fill-rule="evenodd" clip-rule="evenodd" d="M13.3333 10.8333C13.7936 10.8333 14.1667 11.2063 14.1667 11.6666V13.1827L15.1039 13.9325C15.4633 14.22 15.5216 14.7444 15.2341 15.1038C14.9465 15.4632 14.4221 15.5215 14.0628 15.234L12.8128 14.234C12.6151 14.0758 12.5 13.8364 12.5 13.5833V11.6666C12.5 11.2063 12.8731 10.8333 13.3333 10.8333Z" fill="black"/>
<path fill-rule="evenodd" clip-rule="evenodd" d="M13.3333 9.16667C11.0321 9.16667 9.16667 11.0321 9.16667 13.3333C9.16667 15.6345 11.0321 17.5 13.3333 17.5C15.6345 17.5 17.5 15.6345 17.5 13.3333C17.5 11.0321 15.6345 9.16667 13.3333 9.16667ZM7.5 13.3333C7.5 10.1117 10.1117 7.5 13.3333 7.5C16.555 7.5 19.1667 10.1117 19.1667 13.3333C19.1667 16.555 16.555 19.1667 13.3333 19.1667C10.1117 19.1667 7.5 16.555 7.5 13.3333Z" fill="black"/>
</svg>
