<svg width="20" height="20" viewBox="0 0 20 20" fill="none" xmlns="http://www.w3.org/2000/svg">
<path fill-rule="evenodd" clip-rule="evenodd" d="M13.3333 0.833252C13.7936 0.833252 14.1667 1.20635 14.1667 1.66659V4.99992C14.1667 5.46016 13.7936 5.83325 13.3333 5.83325C12.8731 5.83325 12.5 5.46016 12.5 4.99992V1.66659C12.5 1.20635 12.8731 0.833252 13.3333 0.833252Z" fill="black"/>
<path fill-rule="evenodd" clip-rule="evenodd" d="M2.39898 3.23223C2.86782 2.76339 3.50371 2.5 4.16675 2.5H15.8334C16.4965 2.5 17.1323 2.76339 17.6012 3.23223C18.07 3.70107 18.3334 4.33696 18.3334 5V9.79167C18.3334 10.2519 17.9603 10.625 17.5001 10.625C17.0398 10.625 16.6667 10.2519 16.6667 9.79167V5C16.6667 4.77899 16.5789 4.56702 16.4227 4.41074C16.2664 4.25446 16.0544 4.16667 15.8334 4.16667H4.16675C3.94573 4.16667 3.73377 4.25446 3.57749 4.41074C3.42121 4.56702 3.33341 4.77899 3.33341 5V16.6667C3.33341 16.8877 3.42121 17.0996 3.57749 17.2559C3.73377 17.4122 3.94573 17.5 4.16675 17.5H10.2084C10.6687 17.5 11.0417 17.8731 11.0417 18.3333C11.0417 18.7936 10.6687 19.1667 10.2084 19.1667H4.16675C3.50371 19.1667 2.86782 18.9033 2.39898 18.4344C1.93014 17.9656 1.66675 17.3297 1.66675 16.6667V5C1.66675 4.33696 1.93014 3.70107 2.39898 3.23223Z" fill="black"/>
<path fill-rule="evenodd" clip-rule="evenodd" d="M16.1816 16.1816C16.507 15.8561 17.0347 15.8561 17.3601 16.1816L18.9226 17.7441C19.248 18.0695 19.248 18.5972 18.9226 18.9226C18.5972 19.248 18.0695 19.248 17.7441 18.9226L16.1816 17.3601C15.8561 17.0347 15.8561 16.507 16.1816 16.1816Z" fill="black"/>
<path fill-rule="evenodd" clip-rule="evenodd" d="M1.66675 8.33333C1.66675 7.8731 2.03984 7.5 2.50008 7.5H17.5001C17.9603 7.5 18.3334 7.8731 18.3334 8.33333C18.3334 8.79357 17.9603 9.16667 17.5001 9.16667H2.50008C2.03984 9.16667 1.66675 8.79357 1.66675 8.33333Z" fill="black"/>
<path fill-rule="evenodd" clip-rule="evenodd" d="M6.66659 0.833252C7.12682 0.833252 7.49992 1.20635 7.49992 1.66659V4.99992C7.49992 5.46016 7.12682 5.83325 6.66659 5.83325C6.20635 5.83325 5.83325 5.46016 5.83325 4.99992V1.66659C5.83325 1.20635 6.20635 0.833252 6.66659 0.833252Z" fill="black"/>
<path fill-rule="evenodd" clip-rule="evenodd" d="M15.0001 13.3334C14.0796 13.3334 13.3334 14.0796 13.3334 15.0001C13.3334 15.9206 14.0796 16.6667 15.0001 16.6667C15.9206 16.6667 16.6667 15.9206 16.6667 15.0001C16.6667 14.0796 15.9206 13.3334 15.0001 13.3334ZM11.6667 15.0001C11.6667 13.1591 13.1591 11.6667 15.0001 11.6667C16.841 11.6667 18.3334 13.1591 18.3334 15.0001C18.3334 16.841 16.841 18.3334 15.0001 18.3334C13.1591 18.3334 11.6667 16.841 11.6667 15.0001Z" fill="black"/>
</svg>
