<svg width="20" height="20" viewBox="0 0 20 20" fill="none" xmlns="http://www.w3.org/2000/svg">
<path fill-rule="evenodd" clip-rule="evenodd" d="M11.0773 14.4108C11.4028 14.0854 11.9304 14.0854 12.2558 14.4108L14.9999 17.1549L17.744 14.4108C18.0694 14.0854 18.5971 14.0854 18.9225 14.4108C19.2479 14.7363 19.2479 15.2639 18.9225 15.5893L15.5892 18.9227C15.2637 19.2481 14.7361 19.2481 14.4107 18.9227L11.0773 15.5893C10.7519 15.2639 10.7519 14.7363 11.0773 14.4108Z" fill="black"/>
<path fill-rule="evenodd" clip-rule="evenodd" d="M13.3333 0.833252C13.7936 0.833252 14.1667 1.20635 14.1667 1.66659V4.99992C14.1667 5.46016 13.7936 5.83325 13.3333 5.83325C12.8731 5.83325 12.5 5.46016 12.5 4.99992V1.66659C12.5 1.20635 12.8731 0.833252 13.3333 0.833252Z" fill="black"/>
<path fill-rule="evenodd" clip-rule="evenodd" d="M15.0001 10.8333C15.4603 10.8333 15.8334 11.2063 15.8334 11.6666V18.3333C15.8334 18.7935 15.4603 19.1666 15.0001 19.1666C14.5398 19.1666 14.1667 18.7935 14.1667 18.3333V11.6666C14.1667 11.2063 14.5398 10.8333 15.0001 10.8333Z" fill="black"/>
<path fill-rule="evenodd" clip-rule="evenodd" d="M2.39898 3.23223C2.86782 2.76339 3.50371 2.5 4.16675 2.5H15.8334C16.4965 2.5 17.1323 2.76339 17.6012 3.23223C18.07 3.70107 18.3334 4.33696 18.3334 5V9.46167C18.3334 9.9219 17.9603 10.295 17.5001 10.295C17.0398 10.295 16.6667 9.9219 16.6667 9.46167V5C16.6667 4.77899 16.5789 4.56702 16.4227 4.41074C16.2664 4.25446 16.0544 4.16667 15.8334 4.16667H4.16675C3.94573 4.16667 3.73377 4.25446 3.57749 4.41074C3.42121 4.56702 3.33341 4.77899 3.33341 5V16.6667C3.33341 16.8877 3.42121 17.0996 3.57749 17.2559C3.73377 17.4122 3.94573 17.5 4.16675 17.5H10.2859C10.7462 17.5 11.1192 17.8731 11.1192 18.3333C11.1192 18.7936 10.7462 19.1667 10.2859 19.1667H4.16675C3.50371 19.1667 2.86782 18.9033 2.39898 18.4344C1.93014 17.9656 1.66675 17.3297 1.66675 16.6667V5C1.66675 4.33696 1.93014 3.70107 2.39898 3.23223Z" fill="black"/>
<path fill-rule="evenodd" clip-rule="evenodd" d="M1.66675 8.33333C1.66675 7.8731 2.03984 7.5 2.50008 7.5H17.5001C17.9603 7.5 18.3334 7.8731 18.3334 8.33333C18.3334 8.79357 17.9603 9.16667 17.5001 9.16667H2.50008C2.03984 9.16667 1.66675 8.79357 1.66675 8.33333Z" fill="black"/>
<path fill-rule="evenodd" clip-rule="evenodd" d="M6.66659 0.833252C7.12682 0.833252 7.49992 1.20635 7.49992 1.66659V4.99992C7.49992 5.46016 7.12682 5.83325 6.66659 5.83325C6.20635 5.83325 5.83325 5.46016 5.83325 4.99992V1.66659C5.83325 1.20635 6.20635 0.833252 6.66659 0.833252Z" fill="black"/>
</svg>
