<svg width="20" height="20" viewBox="0 0 20 20" fill="none" xmlns="http://www.w3.org/2000/svg">
<path fill-rule="evenodd" clip-rule="evenodd" d="M6.66659 0.833252C7.12682 0.833252 7.49992 1.20635 7.49992 1.66659V4.99992C7.49992 5.46016 7.12682 5.83325 6.66659 5.83325C6.20635 5.83325 5.83325 5.46016 5.83325 4.99992V1.66659C5.83325 1.20635 6.20635 0.833252 6.66659 0.833252Z" fill="black"/>
<path fill-rule="evenodd" clip-rule="evenodd" d="M13.3333 0.833252C13.7936 0.833252 14.1667 1.20635 14.1667 1.66659V4.99992C14.1667 5.46016 13.7936 5.83325 13.3333 5.83325C12.8731 5.83325 12.5 5.46016 12.5 4.99992V1.66659C12.5 1.20635 12.8731 0.833252 13.3333 0.833252Z" fill="black"/>
<path fill-rule="evenodd" clip-rule="evenodd" d="M4.16675 4.16667C3.70651 4.16667 3.33341 4.53976 3.33341 5V16.6667C3.33341 17.1269 3.70651 17.5 4.16675 17.5H15.8334C16.2937 17.5 16.6667 17.1269 16.6667 16.6667V5C16.6667 4.53976 16.2937 4.16667 15.8334 4.16667H4.16675ZM1.66675 5C1.66675 3.61929 2.78604 2.5 4.16675 2.5H15.8334C17.2141 2.5 18.3334 3.61929 18.3334 5V16.6667C18.3334 18.0474 17.2141 19.1667 15.8334 19.1667H4.16675C2.78604 19.1667 1.66675 18.0474 1.66675 16.6667V5Z" fill="black"/>
<path fill-rule="evenodd" clip-rule="evenodd" d="M1.66675 8.33333C1.66675 7.8731 2.03984 7.5 2.50008 7.5H17.5001C17.9603 7.5 18.3334 7.8731 18.3334 8.33333C18.3334 8.79357 17.9603 9.16667 17.5001 9.16667H2.50008C2.03984 9.16667 1.66675 8.79357 1.66675 8.33333Z" fill="black"/>
<path fill-rule="evenodd" clip-rule="evenodd" d="M5.83325 11.6666C5.83325 11.2063 6.20635 10.8333 6.66659 10.8333H6.67492C7.13516 10.8333 7.50825 11.2063 7.50825 11.6666C7.50825 12.1268 7.13516 12.4999 6.67492 12.4999H6.66659C6.20635 12.4999 5.83325 12.1268 5.83325 11.6666Z" fill="black"/>
<path fill-rule="evenodd" clip-rule="evenodd" d="M9.16675 11.6666C9.16675 11.2063 9.53984 10.8333 10.0001 10.8333H10.0084C10.4687 10.8333 10.8417 11.2063 10.8417 11.6666C10.8417 12.1268 10.4687 12.4999 10.0084 12.4999H10.0001C9.53984 12.4999 9.16675 12.1268 9.16675 11.6666Z" fill="black"/>
<path fill-rule="evenodd" clip-rule="evenodd" d="M12.5 11.6666C12.5 11.2063 12.8731 10.8333 13.3333 10.8333H13.3417C13.8019 10.8333 14.175 11.2063 14.175 11.6666C14.175 12.1268 13.8019 12.4999 13.3417 12.4999H13.3333C12.8731 12.4999 12.5 12.1268 12.5 11.6666Z" fill="black"/>
<path fill-rule="evenodd" clip-rule="evenodd" d="M5.83325 15.0001C5.83325 14.5398 6.20635 14.1667 6.66659 14.1667H6.67492C7.13516 14.1667 7.50825 14.5398 7.50825 15.0001C7.50825 15.4603 7.13516 15.8334 6.67492 15.8334H6.66659C6.20635 15.8334 5.83325 15.4603 5.83325 15.0001Z" fill="black"/>
<path fill-rule="evenodd" clip-rule="evenodd" d="M9.16675 15.0001C9.16675 14.5398 9.53984 14.1667 10.0001 14.1667H10.0084C10.4687 14.1667 10.8417 14.5398 10.8417 15.0001C10.8417 15.4603 10.4687 15.8334 10.0084 15.8334H10.0001C9.53984 15.8334 9.16675 15.4603 9.16675 15.0001Z" fill="black"/>
<path fill-rule="evenodd" clip-rule="evenodd" d="M12.5 15.0001C12.5 14.5398 12.8731 14.1667 13.3333 14.1667H13.3417C13.8019 14.1667 14.175 14.5398 14.175 15.0001C14.175 15.4603 13.8019 15.8334 13.3417 15.8334H13.3333C12.8731 15.8334 12.5 15.4603 12.5 15.0001Z" fill="black"/>
</svg>
