<svg width="20" height="20" viewBox="0 0 20 20" fill="none" xmlns="http://www.w3.org/2000/svg">
<g clip-path="url(#clip0_2001_5162)">
<path fill-rule="evenodd" clip-rule="evenodd" d="M4.26389 3.16683C4.44793 3.58867 4.25514 4.07983 3.8333 4.26386C3.68682 4.32777 3.5618 4.43245 3.47314 4.56542C3.38555 4.69681 3.33711 4.85035 3.33341 5.00814V16.6667C3.33341 16.8877 3.42121 17.0997 3.57749 17.256C3.73377 17.4123 3.94573 17.5 4.16675 17.5H15.8325C15.9925 17.4996 16.149 17.453 16.2833 17.3659C16.4178 17.2787 16.5243 17.1546 16.59 17.0084C16.7787 16.5886 17.272 16.4013 17.6917 16.59C18.1115 16.7787 18.2989 17.2719 18.1102 17.6917C17.913 18.1303 17.5935 18.5028 17.19 18.7644C16.7865 19.026 16.3161 19.1657 15.8352 19.1667H4.16675C3.50371 19.1667 2.86782 18.9033 2.39898 18.4345C1.93014 17.9656 1.66675 17.3298 1.66675 16.6667V5.00005C1.66675 4.99544 1.66679 4.99084 1.66686 4.98624C1.67481 4.50685 1.82044 4.03985 2.08639 3.64092C2.35235 3.24199 2.72741 2.92795 3.16686 2.73624C3.5887 2.5522 4.07986 2.74499 4.26389 3.16683Z" fill="black"/>
<path fill-rule="evenodd" clip-rule="evenodd" d="M7.08325 3.33333C7.08325 2.8731 7.45635 2.5 7.91659 2.5H15.8333C16.4963 2.5 17.1322 2.76339 17.601 3.23223C18.0699 3.70107 18.3333 4.33696 18.3333 5V12.9167C18.3333 13.3769 17.9602 13.75 17.4999 13.75C17.0397 13.75 16.6666 13.3769 16.6666 12.9167V5C16.6666 4.77899 16.5788 4.56702 16.4225 4.41074C16.2662 4.25446 16.0543 4.16667 15.8333 4.16667H7.91659C7.45635 4.16667 7.08325 3.79357 7.08325 3.33333Z" fill="black"/>
<path fill-rule="evenodd" clip-rule="evenodd" d="M13.3333 0.833252C13.7936 0.833252 14.1667 1.20635 14.1667 1.66659V4.99992C14.1667 5.46016 13.7936 5.83325 13.3333 5.83325C12.8731 5.83325 12.5 5.46016 12.5 4.99992V1.66659C12.5 1.20635 12.8731 0.833252 13.3333 0.833252Z" fill="black"/>
<path fill-rule="evenodd" clip-rule="evenodd" d="M1.66675 8.33333C1.66675 7.8731 2.03984 7.5 2.50008 7.5H8.33342C8.79365 7.5 9.16675 7.8731 9.16675 8.33333C9.16675 8.79357 8.79365 9.16667 8.33342 9.16667H2.50008C2.03984 9.16667 1.66675 8.79357 1.66675 8.33333Z" fill="black"/>
<path fill-rule="evenodd" clip-rule="evenodd" d="M12.0833 8.33333C12.0833 7.8731 12.4563 7.5 12.9166 7.5H17.4999C17.9602 7.5 18.3333 7.8731 18.3333 8.33333C18.3333 8.79357 17.9602 9.16667 17.4999 9.16667H12.9166C12.4563 9.16667 12.0833 8.79357 12.0833 8.33333Z" fill="black"/>
<path fill-rule="evenodd" clip-rule="evenodd" d="M1.07733 1.07733C1.40277 0.751893 1.9304 0.751893 2.25584 1.07733L18.9225 17.744C19.2479 18.0694 19.2479 18.5971 18.9225 18.9225C18.5971 19.2479 18.0694 19.2479 17.744 18.9225L1.07733 2.25584C0.751893 1.9304 0.751893 1.40277 1.07733 1.07733Z" fill="black"/>
</g>
<defs>
<clipPath id="clip0_2001_5162">
<rect width="20" height="20" fill="white"/>
</clipPath>
</defs>
</svg>
