<svg width="20" height="20" viewBox="0 0 20 20" fill="none" xmlns="http://www.w3.org/2000/svg">
<path fill-rule="evenodd" clip-rule="evenodd" d="M2.39898 3.23223C2.86782 2.76339 3.50371 2.5 4.16675 2.5H15.8334C16.4965 2.5 17.1323 2.76339 17.6012 3.23223C18.07 3.70107 18.3334 4.33696 18.3334 5V8.33333C18.3334 8.79357 17.9603 9.16667 17.5001 9.16667H3.33341V16.6667C3.33341 16.8877 3.42121 17.0996 3.57749 17.2559C3.73377 17.4122 3.94573 17.5 4.16675 17.5H10.0001C10.4603 17.5 10.8334 17.8731 10.8334 18.3333C10.8334 18.7936 10.4603 19.1667 10.0001 19.1667H4.16675C3.50371 19.1667 2.86782 18.9033 2.39898 18.4344C1.93014 17.9656 1.66675 17.3297 1.66675 16.6667V5C1.66675 4.33696 1.93014 3.70107 2.39898 3.23223ZM3.33341 7.5H16.6667V5C16.6667 4.77899 16.5789 4.56702 16.4227 4.41074C16.2664 4.25446 16.0544 4.16667 15.8334 4.16667H4.16675C3.94573 4.16667 3.73377 4.25446 3.57749 4.41074C3.42121 4.56702 3.33341 4.77899 3.33341 5V7.5Z" fill="black"/>
<path fill-rule="evenodd" clip-rule="evenodd" d="M6.66659 0.833252C7.12682 0.833252 7.49992 1.20635 7.49992 1.66659V4.99992C7.49992 5.46016 7.12682 5.83325 6.66659 5.83325C6.20635 5.83325 5.83325 5.46016 5.83325 4.99992V1.66659C5.83325 1.20635 6.20635 0.833252 6.66659 0.833252Z" fill="black"/>
<path fill-rule="evenodd" clip-rule="evenodd" d="M13.3333 0.833252C13.7936 0.833252 14.1667 1.20635 14.1667 1.66659V4.99992C14.1667 5.46016 13.7936 5.83325 13.3333 5.83325C12.8731 5.83325 12.5 5.46016 12.5 4.99992V1.66659C12.5 1.20635 12.8731 0.833252 13.3333 0.833252Z" fill="black"/>
<path fill-rule="evenodd" clip-rule="evenodd" d="M15.218 11.0453C15.7382 10.8295 16.3108 10.7722 16.8636 10.8806C17.4184 10.9895 17.9285 11.2605 18.3294 11.6594C18.3562 11.686 18.381 11.7143 18.4037 11.744C19.4776 12.8883 19.4375 14.6888 18.1749 15.9619C18.1741 15.9626 18.1734 15.9634 18.1726 15.9642C18.1712 15.9656 18.1698 15.967 18.1683 15.9684L15.1683 18.9268C14.8435 19.247 14.3216 19.2467 13.9973 18.9259L11.0056 15.9676C11.0037 15.9657 11.0018 15.9638 10.9999 15.9619C9.71306 14.6643 9.68359 12.8108 10.8372 11.6676C11.0976 11.4075 11.4052 11.1912 11.7692 11.0448C12.2909 10.83 12.8645 10.7744 13.4179 10.8851C13.8409 10.9697 14.2376 11.1486 14.5792 11.4065C14.7741 11.2596 14.9881 11.1378 15.218 11.0453ZM16.5427 12.5161C16.3113 12.4707 16.0717 12.495 15.8542 12.5858C15.8504 12.5874 15.8466 12.5889 15.8427 12.5905C15.7005 12.6473 15.57 12.7334 15.4558 12.8476L15.1725 13.131C14.8504 13.4531 14.3293 13.4569 14.0026 13.1395L13.7109 12.8561C13.7077 12.853 13.7045 12.8499 13.7013 12.8467C13.5348 12.6796 13.3224 12.5657 13.091 12.5194C12.8597 12.4731 12.6198 12.4966 12.4018 12.5868C12.3988 12.588 12.3957 12.5892 12.3927 12.5905C12.2594 12.6438 12.1356 12.7262 12.0141 12.8476C12.0131 12.8487 12.0121 12.8497 12.011 12.8508C11.5834 13.2739 11.4709 14.0677 12.1806 14.7856L14.584 17.1622L16.9945 14.7852C17.6995 14.0717 17.587 13.2778 17.1554 12.8508C17.1362 12.8317 17.1179 12.8118 17.1008 12.7912C16.9427 12.652 16.7502 12.5568 16.5427 12.5161Z" fill="black"/>
</svg>
