<svg width="20" height="20" viewBox="0 0 20 20" fill="none" xmlns="http://www.w3.org/2000/svg">
<path fill-rule="evenodd" clip-rule="evenodd" d="M11.1553 13.4116C11.3422 12.991 11.8347 12.8016 12.2552 12.9885L13.0052 13.3219C13.4258 13.5088 13.6152 14.0013 13.4283 14.4218C13.2414 14.8424 12.7489 15.0318 12.3283 14.8449L11.5783 14.5116C11.1578 14.3246 10.9684 13.8322 11.1553 13.4116Z" fill="black"/>
<path fill-rule="evenodd" clip-rule="evenodd" d="M13.4283 15.5783C13.6152 15.9989 13.4258 16.4914 13.0052 16.6783L12.2552 17.0116C11.8347 17.1986 11.3422 17.0091 11.1553 16.5886C10.9684 16.168 11.1578 15.6755 11.5783 15.4886L12.3283 15.1553C12.7489 14.9684 13.2414 15.1578 13.4283 15.5783Z" fill="black"/>
<path fill-rule="evenodd" clip-rule="evenodd" d="M13.3333 0.833252C13.7936 0.833252 14.1667 1.20635 14.1667 1.66659V4.99992C14.1667 5.46016 13.7936 5.83325 13.3333 5.83325C12.8731 5.83325 12.5 5.46016 12.5 4.99992V1.66659C12.5 1.20635 12.8731 0.833252 13.3333 0.833252Z" fill="black"/>
<path fill-rule="evenodd" clip-rule="evenodd" d="M13.4116 11.1553C13.8322 10.9684 14.3246 11.1578 14.5116 11.5783L14.8449 12.3283C15.0318 12.7489 14.8424 13.2414 14.4218 13.4283C14.0013 13.6152 13.5088 13.4258 13.3219 13.0052L12.9885 12.2552C12.8016 11.8347 12.991 11.3422 13.4116 11.1553Z" fill="black"/>
<path fill-rule="evenodd" clip-rule="evenodd" d="M14.4218 16.5718C14.8424 16.7587 15.0318 17.2512 14.8449 17.6717L14.5116 18.4217C14.3246 18.8423 13.8322 19.0317 13.4116 18.8448C12.991 18.6579 12.8016 18.1654 12.9885 17.7449L13.3219 16.9948C13.5088 16.5743 14.0013 16.3849 14.4218 16.5718Z" fill="black"/>
<path fill-rule="evenodd" clip-rule="evenodd" d="M16.5886 11.1553C17.0091 11.3422 17.1986 11.8347 17.0116 12.2552L16.6783 13.0052C16.4914 13.4258 15.9989 13.6152 15.5783 13.4283C15.1578 13.2414 14.9684 12.7489 15.1553 12.3283L15.4886 11.5783C15.6755 11.1578 16.168 10.9684 16.5886 11.1553Z" fill="black"/>
<path fill-rule="evenodd" clip-rule="evenodd" d="M15.5783 16.5718C15.9989 16.3849 16.4914 16.5743 16.6783 16.9948L17.0116 17.7449C17.1986 18.1654 17.0091 18.6579 16.5886 18.8448C16.168 19.0317 15.6755 18.8423 15.4886 18.4217L15.1553 17.6717C14.9684 17.2512 15.1578 16.7587 15.5783 16.5718Z" fill="black"/>
<path fill-rule="evenodd" clip-rule="evenodd" d="M2.39898 3.23223C2.86782 2.76339 3.50371 2.5 4.16675 2.5H15.8334C16.4965 2.5 17.1323 2.76339 17.6012 3.23223C18.07 3.70107 18.3334 4.33696 18.3334 5V8.75C18.3334 9.21024 17.9603 9.58333 17.5001 9.58333C17.0398 9.58333 16.6667 9.21024 16.6667 8.75V5C16.6667 4.77899 16.5789 4.56702 16.4227 4.41074C16.2664 4.25446 16.0544 4.16667 15.8334 4.16667H4.16675C3.94573 4.16667 3.73377 4.25446 3.57749 4.41074C3.42121 4.56702 3.33341 4.77899 3.33341 5V16.6667C3.33341 16.8877 3.42121 17.0996 3.57749 17.2559C3.73377 17.4122 3.94573 17.5 4.16675 17.5H9.16675C9.62698 17.5 10.0001 17.8731 10.0001 18.3333C10.0001 18.7936 9.62698 19.1667 9.16675 19.1667H4.16675C3.50371 19.1667 2.86782 18.9033 2.39898 18.4344C1.93014 17.9656 1.66675 17.3297 1.66675 16.6667V5C1.66675 4.33696 1.93014 3.70107 2.39898 3.23223Z" fill="black"/>
<path fill-rule="evenodd" clip-rule="evenodd" d="M18.8448 13.4116C19.0317 13.8322 18.8423 14.3246 18.4217 14.5116L17.6717 14.8449C17.2512 15.0318 16.7587 14.8424 16.5718 14.4218C16.3849 14.0013 16.5743 13.5088 16.9948 13.3219L17.7449 12.9885C18.1654 12.8016 18.6579 12.991 18.8448 13.4116Z" fill="black"/>
<path fill-rule="evenodd" clip-rule="evenodd" d="M16.5718 15.5783C16.7587 15.1578 17.2512 14.9684 17.6717 15.1553L18.4217 15.4886C18.8423 15.6755 19.0317 16.168 18.8448 16.5886C18.6579 17.0091 18.1654 17.1986 17.7449 17.0116L16.9948 16.6783C16.5743 16.4914 16.3849 15.9989 16.5718 15.5783Z" fill="black"/>
<path fill-rule="evenodd" clip-rule="evenodd" d="M1.66675 8.33333C1.66675 7.8731 2.03984 7.5 2.50008 7.5H17.5001C17.9603 7.5 18.3334 7.8731 18.3334 8.33333C18.3334 8.79357 17.9603 9.16667 17.5001 9.16667H2.50008C2.03984 9.16667 1.66675 8.79357 1.66675 8.33333Z" fill="black"/>
<path fill-rule="evenodd" clip-rule="evenodd" d="M6.66659 0.833252C7.12682 0.833252 7.49992 1.20635 7.49992 1.66659V4.99992C7.49992 5.46016 7.12682 5.83325 6.66659 5.83325C6.20635 5.83325 5.83325 5.46016 5.83325 4.99992V1.66659C5.83325 1.20635 6.20635 0.833252 6.66659 0.833252Z" fill="black"/>
<path fill-rule="evenodd" clip-rule="evenodd" d="M15.0001 13.3334C14.0796 13.3334 13.3334 14.0796 13.3334 15.0001C13.3334 15.9206 14.0796 16.6667 15.0001 16.6667C15.9206 16.6667 16.6667 15.9206 16.6667 15.0001C16.6667 14.0796 15.9206 13.3334 15.0001 13.3334ZM11.6667 15.0001C11.6667 13.1591 13.1591 11.6667 15.0001 11.6667C16.841 11.6667 18.3334 13.1591 18.3334 15.0001C18.3334 16.841 16.841 18.3334 15.0001 18.3334C13.1591 18.3334 11.6667 16.841 11.6667 15.0001Z" fill="black"/>
</svg>
