<svg width="20" height="20" viewBox="0 0 20 20" fill="none" xmlns="http://www.w3.org/2000/svg">
<path fill-rule="evenodd" clip-rule="evenodd" d="M7.2764 2.79985C7.43473 2.60985 7.66927 2.5 7.91659 2.5H12.0833C12.3306 2.5 12.5651 2.60985 12.7234 2.79985L14.5569 5H16.6666C17.3296 5 17.9655 5.26339 18.4344 5.73223C18.9032 6.20107 19.1666 6.83696 19.1666 7.5V15C19.1666 15.663 18.9032 16.2989 18.4344 16.7678C17.9655 17.2366 17.3296 17.5 16.6666 17.5H3.33325C2.67021 17.5 2.03433 17.2366 1.56549 16.7678C1.09664 16.2989 0.833252 15.663 0.833252 15V7.5C0.833252 6.83696 1.09664 6.20107 1.56549 5.73223C2.03433 5.26339 2.67021 5 3.33325 5H5.44294L7.2764 2.79985ZM8.3069 4.16667L6.47344 6.36682C6.31511 6.55681 6.08057 6.66667 5.83325 6.66667H3.33325C3.11224 6.66667 2.90028 6.75446 2.744 6.91074C2.58772 7.06702 2.49992 7.27899 2.49992 7.5V15C2.49992 15.221 2.58772 15.433 2.744 15.5893C2.90028 15.7455 3.11224 15.8333 3.33325 15.8333H16.6666C16.8876 15.8333 17.0996 15.7455 17.2558 15.5893C17.4121 15.433 17.4999 15.221 17.4999 15V7.5C17.4999 7.27899 17.4121 7.06703 17.2558 6.91074C17.0996 6.75446 16.8876 6.66667 16.6666 6.66667H14.1666C13.9193 6.66667 13.6847 6.55681 13.5264 6.36682L11.6929 4.16667H8.3069Z" fill="black"/>
<path fill-rule="evenodd" clip-rule="evenodd" d="M10.0001 9.16667C9.07961 9.16667 8.33341 9.91286 8.33341 10.8333C8.33341 11.7538 9.07961 12.5 10.0001 12.5C10.9206 12.5 11.6667 11.7538 11.6667 10.8333C11.6667 9.91286 10.9206 9.16667 10.0001 9.16667ZM6.66675 10.8333C6.66675 8.99238 8.15913 7.5 10.0001 7.5C11.841 7.5 13.3334 8.99238 13.3334 10.8333C13.3334 12.6743 11.841 14.1667 10.0001 14.1667C8.15913 14.1667 6.66675 12.6743 6.66675 10.8333Z" fill="black"/>
</svg>
