<svg width="20" height="20" viewBox="0 0 20 20" fill="none" xmlns="http://www.w3.org/2000/svg">
<g clip-path="url(#clip0_2001_5218)">
<path fill-rule="evenodd" clip-rule="evenodd" d="M1.07733 1.07733C1.40277 0.751893 1.9304 0.751893 2.25584 1.07733L18.9225 17.744C19.2479 18.0694 19.2479 18.5971 18.9225 18.9225C18.5971 19.2479 18.0694 19.2479 17.744 18.9225L1.07733 2.25584C0.751893 1.9304 0.751893 1.40277 1.07733 1.07733Z" fill="black"/>
<path fill-rule="evenodd" clip-rule="evenodd" d="M1.56548 5.73223C2.03433 5.26339 2.67021 5 3.33325 5H5.83325C6.29349 5 6.66658 5.3731 6.66658 5.83333C6.66658 6.29357 6.29349 6.66667 5.83325 6.66667H3.33325C3.11224 6.66667 2.90028 6.75446 2.744 6.91074C2.58772 7.06702 2.49992 7.27899 2.49992 7.5V15C2.49992 15.221 2.58772 15.433 2.744 15.5893C2.90028 15.7455 3.11224 15.8333 3.33325 15.8333H16.6666C17.1268 15.8333 17.4999 16.2064 17.4999 16.6667C17.4999 17.1269 17.1268 17.5 16.6666 17.5H3.33325C2.67021 17.5 2.03433 17.2366 1.56548 16.7678C1.09664 16.2989 0.833252 15.663 0.833252 15V7.5C0.833252 6.83696 1.09664 6.20107 1.56548 5.73223Z" fill="black"/>
<path fill-rule="evenodd" clip-rule="evenodd" d="M7.08325 3.33333C7.08325 2.8731 7.45635 2.5 7.91659 2.5H12.0833C12.3306 2.5 12.5651 2.60985 12.7234 2.79985L14.5569 5H16.6666C17.3296 5 17.9655 5.26339 18.4344 5.73223C18.9032 6.20107 19.1666 6.83696 19.1666 7.5V13.75C19.1666 14.2102 18.7935 14.5833 18.3333 14.5833C17.873 14.5833 17.4999 14.2102 17.4999 13.75V7.5C17.4999 7.27899 17.4121 7.06702 17.2558 6.91074C17.0996 6.75446 16.8876 6.66667 16.6666 6.66667H14.1666C13.9193 6.66667 13.6847 6.55681 13.5264 6.36682L11.6929 4.16667H7.91659C7.45635 4.16667 7.08325 3.79357 7.08325 3.33333Z" fill="black"/>
<path fill-rule="evenodd" clip-rule="evenodd" d="M8.83874 8.49409C9.155 8.82845 9.14033 9.35589 8.80597 9.67215C8.64413 9.82523 8.51462 10.0092 8.42509 10.2132C8.33557 10.4172 8.28785 10.637 8.28475 10.8598C8.28165 11.0825 8.32324 11.3037 8.40706 11.5101C8.49087 11.7165 8.61522 11.904 8.77274 12.0615C8.93027 12.219 9.11777 12.3434 9.32417 12.4272C9.53057 12.511 9.75168 12.5526 9.97443 12.5495C10.1972 12.5464 10.417 12.4987 10.621 12.4091C10.825 12.3196 11.009 12.1901 11.1621 12.0283C11.4783 11.6939 12.0058 11.6792 12.3401 11.9955C12.6745 12.3117 12.6892 12.8392 12.3729 13.1735C12.0667 13.4972 11.6988 13.7562 11.2908 13.9353C10.8828 14.1143 10.4431 14.2098 9.9976 14.216C9.55211 14.2222 9.10989 14.139 8.69708 13.9714C8.28428 13.8037 7.90928 13.555 7.59423 13.24C7.27919 12.925 7.03049 12.5499 6.86286 12.1371C6.69522 11.7243 6.61205 11.2821 6.61824 10.8366C6.62444 10.3911 6.71988 9.95139 6.89893 9.54341C7.07798 9.13543 7.337 8.76748 7.66069 8.46132C7.99505 8.14506 8.52248 8.15973 8.83874 8.49409Z" fill="black"/>
</g>
<defs>
<clipPath id="clip0_2001_5218">
<rect width="20" height="20" fill="white"/>
</clipPath>
</defs>
</svg>
