<svg width="20" height="20" viewBox="0 0 20 20" fill="none" xmlns="http://www.w3.org/2000/svg">
<g clip-path="url(#clip0_2001_5232)">
<path fill-rule="evenodd" clip-rule="evenodd" d="M7.67259 6.49408C7.99802 6.81951 7.99802 7.34715 7.67259 7.67259L6.8424 8.50277C6.23714 9.12188 5.90013 9.95458 5.9045 10.8205C5.90888 11.6877 6.25533 12.5182 6.86857 13.1314C7.4818 13.7447 8.31227 14.0911 9.1795 14.0955C10.0454 14.0999 10.8781 13.7629 11.4972 13.1576L12.3274 12.3274C12.6528 12.002 13.1805 12.002 13.5059 12.3274C13.8314 12.6528 13.8314 13.1805 13.5059 13.5059L12.6726 14.3393C12.6706 14.3412 12.6686 14.3432 12.6666 14.3452C11.7336 15.2595 10.4774 15.7687 9.17108 15.7621C7.86474 15.7555 6.61379 15.2337 5.69006 14.3099C4.76632 13.3862 4.24445 12.1353 4.23786 10.8289C4.23126 9.52257 4.74046 8.26641 5.65482 7.33339C5.65678 7.33139 5.65876 7.3294 5.66074 7.32741L6.49407 6.49408C6.81951 6.16864 7.34715 6.16864 7.67259 6.49408Z" fill="black"/>
<path fill-rule="evenodd" clip-rule="evenodd" d="M11.7263 5.99809C11.1842 5.84523 10.6118 5.83418 10.0642 5.96599C9.6167 6.07368 9.16666 5.79824 9.05897 5.35078C8.95128 4.90332 9.22672 4.45328 9.67418 4.34559C10.4994 4.14699 11.3617 4.16365 12.1786 4.39396C12.9955 4.62426 13.7395 5.06047 14.3394 5.66079C14.3394 5.66084 14.3394 5.66089 14.3395 5.66093C14.9396 6.26077 15.3757 7.00465 15.606 7.82134C15.8363 8.63823 15.853 9.50059 15.6544 10.3258C15.5467 10.7732 15.0966 11.0487 14.6492 10.941C14.2017 10.8333 13.9263 10.3833 14.034 9.93579C14.1658 9.38812 14.1547 8.81578 14.0019 8.2736C13.849 7.73143 13.5595 7.2376 13.161 6.83944L13.1605 6.83897C12.7624 6.4405 12.2685 6.15095 11.7263 5.99809Z" fill="black"/>
<path fill-rule="evenodd" clip-rule="evenodd" d="M11.6666 10.8333C12.1268 10.8333 12.4999 11.2063 12.4999 11.6666V13.7499C12.4999 14.2102 12.1268 14.5833 11.6666 14.5833C11.2063 14.5833 10.8333 14.2102 10.8333 13.7499V11.6666C10.8333 11.2063 11.2063 10.8333 11.6666 10.8333Z" fill="black"/>
<path fill-rule="evenodd" clip-rule="evenodd" d="M11.6666 4.58325C12.1268 4.58325 12.4999 4.95635 12.4999 5.41659V6.95242C12.4999 7.41266 12.1268 7.78575 11.6666 7.78575C11.2063 7.78575 10.8333 7.41266 10.8333 6.95242V5.41659C10.8333 4.95635 11.2063 4.58325 11.6666 4.58325Z" fill="black"/>
<path fill-rule="evenodd" clip-rule="evenodd" d="M8.33333 7.5C8.79357 7.5 9.16667 7.8731 9.16667 8.33333V14.5833C9.16667 15.0436 8.79357 15.4167 8.33333 15.4167C7.8731 15.4167 7.5 15.0436 7.5 14.5833V8.33333C7.5 7.8731 7.8731 7.5 8.33333 7.5Z" fill="black"/>
<path fill-rule="evenodd" clip-rule="evenodd" d="M13.8003 0.918043C14.0336 0.803916 14.3067 0.805054 14.539 0.92112L15.6786 1.49047C15.9098 1.60614 16.1647 1.66643 16.4232 1.66659C16.4233 1.66659 16.4234 1.66659 16.4234 1.66659H17.4999C17.9602 1.66659 18.3332 2.03968 18.3332 2.49992V3.57625C18.3332 3.57636 18.3332 3.57647 18.3332 3.57659C18.3334 3.83511 18.3937 4.09005 18.5094 4.32125L18.5095 4.32162L19.0787 5.46079C19.1948 5.69309 19.1959 5.96623 19.0818 6.19949C18.9677 6.43275 18.7513 6.59947 18.4967 6.6504L14.33 7.48374C13.8787 7.574 13.4397 7.28131 13.3494 6.83002C13.3385 6.77521 13.3332 6.72059 13.3331 6.66674C13.2792 6.66668 13.2246 6.66136 13.1698 6.6504C12.7185 6.56014 12.4258 6.12112 12.5161 5.66982L13.3494 1.50316C13.4004 1.24851 13.5671 1.03217 13.8003 0.918043ZM14.1872 5.81262L17.1003 5.23001L17.0188 5.06692C17.0187 5.06679 17.0187 5.06667 17.0186 5.06655C16.7873 4.60403 16.6668 4.09405 16.6666 3.57692V3.33325L16.4229 3.33325C15.9058 3.33304 15.3958 3.21252 14.9333 2.98122C14.9332 2.98117 14.9331 2.98113 14.933 2.98109C14.933 2.98107 14.933 2.98105 14.9329 2.98103L14.7698 2.89955L14.1872 5.81262Z" fill="black"/>
<path fill-rule="evenodd" clip-rule="evenodd" d="M6.66674 13.3331C6.66668 13.2792 6.66136 13.2246 6.6504 13.1698C6.56014 12.7185 6.12112 12.4258 5.66982 12.5161L1.50316 13.3494C1.24851 13.4004 1.03217 13.5671 0.918043 13.8003C0.803916 14.0336 0.805054 14.3067 0.92112 14.539L1.49047 15.6786C1.60614 15.9098 1.66643 16.1647 1.66659 16.4232C1.66659 16.4233 1.66659 16.4234 1.66659 16.4234V17.4999C1.66659 17.9602 2.03968 18.3332 2.49992 18.3332H3.57625C3.57636 18.3332 3.57647 18.3332 3.57659 18.3332C3.83511 18.3334 4.09005 18.3937 4.32125 18.5094L4.32162 18.5095L5.46079 19.0787C5.69309 19.1948 5.96623 19.1959 6.19949 19.0818C6.43275 18.9677 6.59947 18.7513 6.6504 18.4967L7.48374 14.33C7.574 13.8787 7.28131 13.4397 6.83002 13.3494C6.77521 13.3385 6.72059 13.3332 6.66674 13.3331ZM5.81262 14.1872L2.89955 14.7698L2.98103 14.9329C2.98105 14.933 2.98107 14.933 2.98109 14.933C2.98113 14.9331 2.98117 14.9332 2.98122 14.9333C3.21252 15.3958 3.33304 15.9058 3.33325 16.4229L3.33325 16.6666H3.57692C4.09405 16.6668 4.60403 16.7873 5.06655 17.0186C5.06667 17.0187 5.06679 17.0187 5.06692 17.0188L5.23001 17.1003L5.81262 14.1872Z" fill="black"/>
<path fill-rule="evenodd" clip-rule="evenodd" d="M1.07733 1.07733C1.40277 0.751893 1.9304 0.751893 2.25584 1.07733L18.9225 17.744C19.2479 18.0694 19.2479 18.5971 18.9225 18.9225C18.5971 19.2479 18.0694 19.2479 17.744 18.9225L1.07733 2.25584C0.751893 1.9304 0.751893 1.40277 1.07733 1.07733Z" fill="black"/>
</g>
<defs>
<clipPath id="clip0_2001_5232">
<rect width="20" height="20" fill="white"/>
</clipPath>
</defs>
</svg>
