<svg width="20" height="20" viewBox="0 0 20 20" fill="none" xmlns="http://www.w3.org/2000/svg">
<g clip-path="url(#clip0_2001_5226)">
<path fill-rule="evenodd" clip-rule="evenodd" d="M15.417 3.05518C14.4592 2.50258 13.3211 2.35312 12.253 2.63966C11.185 2.92621 10.2745 3.62529 9.72194 4.58313C9.71811 4.58976 9.71419 4.59634 9.71018 4.60287L2.5516 16.2564C2.44469 16.4492 2.41721 16.6764 2.4753 16.8894C2.53436 17.1059 2.67702 17.2901 2.8719 17.4015C3.06678 17.5128 3.29792 17.5422 3.51446 17.4832C3.62169 17.4539 3.7221 17.4039 3.80997 17.3358C3.89783 17.2678 3.97144 17.1831 4.02658 17.0866C4.03075 17.0793 4.03503 17.072 4.03942 17.0649L11.1764 5.40859C11.3385 5.12732 11.5539 4.88028 11.8106 4.68131C12.0712 4.47931 12.3691 4.33084 12.6873 4.24445C13.0055 4.15807 13.3376 4.13547 13.6645 4.17797C13.9915 4.22047 14.3068 4.32722 14.5923 4.49207C14.8779 4.65692 15.128 4.87662 15.3282 5.13853C15.5285 5.40043 15.675 5.69936 15.7593 6.01811C15.8435 6.33686 15.8639 6.66913 15.8193 6.99579C15.7746 7.32245 15.6658 7.63705 15.499 7.92148C15.4434 8.01629 15.4072 8.12115 15.3923 8.23004C15.3774 8.33893 15.3842 8.44968 15.4123 8.55593C15.4404 8.66218 15.4892 8.76183 15.5559 8.84913C15.6227 8.93643 15.7061 9.00966 15.8012 9.06461C15.8964 9.11957 16.0015 9.15515 16.1105 9.16931C16.2195 9.18348 16.3302 9.17595 16.4363 9.14715C16.5423 9.11836 16.6416 9.06887 16.7285 9.00153C16.8154 8.9342 16.888 8.85035 16.9424 8.75481C16.9432 8.75329 16.9441 8.75177 16.945 8.75026C17.4976 7.79242 17.647 6.6543 17.3605 5.58627C17.0739 4.51823 16.3748 3.60777 15.417 3.05518ZM11.8211 1.02993C13.3161 0.628838 14.9092 0.83805 16.2499 1.61154C17.5906 2.38502 18.5691 3.65943 18.9702 5.15439C19.3711 6.64856 19.1623 8.24073 18.3898 9.58099C18.227 9.8666 18.0095 10.1173 17.7497 10.3187C17.4891 10.5207 17.1911 10.6692 16.8729 10.7556C16.5548 10.842 16.2226 10.8646 15.8957 10.8221C15.5687 10.7796 15.2534 10.6728 14.9679 10.508C14.6824 10.3431 14.4323 10.1234 14.232 9.86152C14.0317 9.59962 13.8852 9.30069 13.801 8.98194C13.7167 8.66319 13.6963 8.33092 13.741 8.00426C13.7856 7.6776 13.8945 7.363 14.0612 7.07857C14.1168 6.98376 14.1531 6.87889 14.168 6.77001C14.1829 6.66112 14.1761 6.55036 14.148 6.44412C14.1199 6.33787 14.071 6.23822 14.0043 6.15092C13.9375 6.06362 13.8542 5.99039 13.759 5.93543C13.6638 5.88048 13.5587 5.8449 13.4497 5.83074C13.3407 5.81657 13.23 5.8241 13.124 5.8529C13.0179 5.88169 12.9186 5.93118 12.8317 5.99851C12.7449 6.06585 12.6722 6.1497 12.6179 6.24524C12.6134 6.25307 12.6089 6.26083 12.6041 6.26851L5.46674 17.9255C5.30379 18.207 5.08771 18.4543 4.83045 18.6535C4.56953 18.8556 4.27137 19.0043 3.95299 19.0911C3.30999 19.2665 2.62367 19.1792 2.045 18.8486C1.46634 18.5179 1.04273 17.9709 0.867362 17.3279C0.691999 16.6849 0.779248 15.9986 1.10992 15.4199C1.11429 15.4123 1.11878 15.4047 1.12339 15.3972L8.28427 3.73992C9.05834 2.40452 10.33 1.42998 11.8211 1.02993Z" fill="black"/>
<path fill-rule="evenodd" clip-rule="evenodd" d="M12.0921 1.02328C12.4935 0.79803 13.0014 0.940789 13.2267 1.34214L15.5184 5.42547C15.7436 5.82682 15.6008 6.33478 15.1995 6.56003C14.7981 6.78528 14.2902 6.64252 14.0649 6.24117L11.7733 2.15783C11.548 1.75648 11.6908 1.24852 12.0921 1.02328Z" fill="black"/>
<path fill-rule="evenodd" clip-rule="evenodd" d="M8.71059 3.25466C9.12224 3.04884 9.6228 3.21569 9.82863 3.62734L11.5786 7.12734C11.7845 7.53899 11.6176 8.03955 11.206 8.24538C10.7943 8.4512 10.2937 8.28435 10.0879 7.8727L8.33792 4.3727C8.13209 3.96105 8.29894 3.46049 8.71059 3.25466Z" fill="black"/>
<path fill-rule="evenodd" clip-rule="evenodd" d="M6.23846 7.32465C6.65744 7.13421 7.15148 7.31947 7.34193 7.73846L9.0086 11.4051C9.19905 11.8241 9.01378 12.3182 8.59479 12.5086C8.17581 12.699 7.68177 12.5138 7.49132 12.0948L5.82465 8.42813C5.63421 8.00914 5.81947 7.5151 6.23846 7.32465Z" fill="black"/>
<path fill-rule="evenodd" clip-rule="evenodd" d="M3.71059 11.5047C4.12224 11.2988 4.6228 11.4657 4.82863 11.8773L6.57863 15.3773C6.78445 15.789 6.6176 16.2896 6.20595 16.4954C5.7943 16.7012 5.29374 16.5343 5.08792 16.1227L3.33792 12.6227C3.13209 12.211 3.29895 11.7105 3.71059 11.5047Z" fill="black"/>
</g>
<defs>
<clipPath id="clip0_2001_5226">
<rect width="20" height="20" fill="white"/>
</clipPath>
</defs>
</svg>
