<svg width="20" height="20" viewBox="0 0 20 20" fill="none" xmlns="http://www.w3.org/2000/svg">
<g clip-path="url(#clip0_2001_5241)">
<path fill-rule="evenodd" clip-rule="evenodd" d="M10.8378 4.17902C11.4932 4.17571 12.1427 4.30235 12.7488 4.55161C13.3549 4.80087 13.9055 5.16781 14.369 5.63122C14.8324 6.09462 15.1993 6.64529 15.4486 7.25139C15.6978 7.85749 15.8245 8.50699 15.8211 9.16233C15.8178 9.81768 15.6846 10.4659 15.4293 11.0694C15.1745 11.6716 14.8031 12.2174 14.3365 12.6755L12.6755 14.3365C12.2174 14.8031 11.6716 15.1745 11.0694 15.4293C10.4659 15.6846 9.81768 15.8178 9.16233 15.8211C8.50699 15.8245 7.85749 15.6978 7.25139 15.4486C6.64529 15.1993 6.09462 14.8324 5.63122 14.369C5.16781 13.9055 4.80087 13.3549 4.55161 12.7488C4.30235 12.1427 4.17571 11.4932 4.17902 10.8378C4.18233 10.1825 4.31552 9.53431 4.57089 8.93076C4.82569 8.32856 5.19709 7.78272 5.66368 7.32465L7.32465 5.66368C7.78272 5.19709 8.32856 4.82569 8.93076 4.57089C9.53431 4.31552 10.1825 4.18233 10.8378 4.17902ZM12.1149 6.09301C11.7125 5.92754 11.2813 5.84347 10.8463 5.84566C10.4112 5.84786 9.98089 5.93628 9.58021 6.10582C9.17954 6.27535 8.81644 6.52263 8.51193 6.83336C8.50996 6.83536 8.50799 6.83736 8.50601 6.83934L6.83934 8.50601C6.83823 8.50712 6.83711 8.50823 6.83599 8.50934C6.83512 8.5102 6.83424 8.51107 6.83336 8.51193C6.52263 8.81644 6.27535 9.17954 6.10582 9.58021C5.93628 9.98089 5.84786 10.4112 5.84566 10.8463C5.84347 11.2813 5.92754 11.7125 6.09301 12.1149C6.25849 12.5172 6.50209 12.8828 6.80973 13.1904C7.11737 13.4981 7.48294 13.7417 7.88531 13.9072C8.28767 14.0726 8.71885 14.1567 9.15391 14.1545C9.58897 14.1523 10.0193 14.0639 10.42 13.8944C10.8206 13.7248 11.1837 13.4775 11.4882 13.1668C11.4902 13.1648 11.4922 13.1628 11.4942 13.1608L13.1608 11.4942C13.1628 11.4922 13.1648 11.4902 13.1668 11.4882C13.4775 11.1837 13.7248 10.8206 13.8944 10.42C14.0639 10.0193 14.1523 9.58897 14.1545 9.15391C14.1567 8.71885 14.0726 8.28767 13.9072 7.88531C13.7417 7.48294 13.4981 7.11737 13.1904 6.80973C12.8828 6.50209 12.5172 6.25849 12.1149 6.09301Z" fill="black"/>
<path fill-rule="evenodd" clip-rule="evenodd" d="M11.6666 4.58325C12.1268 4.58325 12.4999 4.95635 12.4999 5.41659V13.7499C12.4999 14.2102 12.1268 14.5833 11.6666 14.5833C11.2063 14.5833 10.8333 14.2102 10.8333 13.7499V5.41659C10.8333 4.95635 11.2063 4.58325 11.6666 4.58325Z" fill="black"/>
<path fill-rule="evenodd" clip-rule="evenodd" d="M8.33333 5.41675C8.79357 5.41675 9.16667 5.78984 9.16667 6.25008V14.5834C9.16667 15.0437 8.79357 15.4167 8.33333 15.4167C7.8731 15.4167 7.5 15.0437 7.5 14.5834V6.25008C7.5 5.78984 7.8731 5.41675 8.33333 5.41675Z" fill="black"/>
<path fill-rule="evenodd" clip-rule="evenodd" d="M13.7994 0.918525C14.0321 0.804262 14.3048 0.80486 14.5371 0.920143L15.6787 1.48681C15.6801 1.48748 15.6814 1.48815 15.6828 1.48882C15.9114 1.60385 16.1635 1.66467 16.4194 1.66659H17.4999C17.9602 1.66659 18.3332 2.03968 18.3332 2.49992V3.58325C18.3332 3.84773 18.3908 4.09249 18.5009 4.29757C18.5051 4.30535 18.5091 4.31318 18.513 4.32109L19.0797 5.46275C19.195 5.69502 19.1956 5.96771 19.0813 6.20047C18.967 6.43324 18.7509 6.59955 18.4967 6.6504L14.33 7.48374C13.8787 7.574 13.4397 7.28131 13.3494 6.83002C13.3385 6.77521 13.3332 6.72059 13.3331 6.66674C13.2792 6.66668 13.2246 6.66136 13.1698 6.6504C12.7185 6.56014 12.4258 6.12112 12.5161 5.66982L13.3494 1.50316C13.4003 1.24889 13.5666 1.03279 13.7994 0.918525ZM14.1872 5.81262L17.1032 5.22942L17.0255 5.07295C16.7737 4.59815 16.6666 4.08102 16.6666 3.58325V3.33325H16.4166C16.4149 3.33325 16.4132 3.33325 16.4115 3.33324C15.8989 3.33011 15.394 3.20881 14.9359 2.97877L14.7704 2.89663L14.1872 5.81262Z" fill="black"/>
<path fill-rule="evenodd" clip-rule="evenodd" d="M6.66674 13.3331C6.66668 13.2792 6.66136 13.2246 6.6504 13.1698C6.56014 12.7185 6.12112 12.4258 5.66982 12.5161L1.50316 13.3494C1.24889 13.4003 1.03279 13.5666 0.918525 13.7994C0.804262 14.0321 0.80486 14.3048 0.920143 14.5371L1.48681 15.6787C1.48748 15.6801 1.48815 15.6814 1.48882 15.6828C1.60385 15.9114 1.66467 16.1635 1.66659 16.4194V17.4999C1.66659 17.9602 2.03968 18.3332 2.49992 18.3332H3.58042C3.83635 18.3352 4.08841 18.396 4.31706 18.511C4.3184 18.5117 4.31974 18.5124 4.32109 18.513L5.46275 19.0797C5.69502 19.195 5.96771 19.1956 6.20047 19.0813C6.43324 18.967 6.59955 18.7509 6.6504 18.4967L7.48374 14.33C7.574 13.8787 7.28131 13.4397 6.83002 13.3494C6.77521 13.3385 6.72059 13.3332 6.66674 13.3331ZM5.81262 14.1872L2.89663 14.7704L2.97877 14.9359C3.20881 15.394 3.33011 15.8989 3.33324 16.4115C3.33325 16.4132 3.33325 16.4149 3.33325 16.4166V16.6666H3.58325C3.58495 16.6666 3.58664 16.6666 3.58833 16.6666C4.10093 16.6697 4.60589 16.791 5.06396 17.0211L5.22942 17.1032L5.81262 14.1872Z" fill="black"/>
</g>
<defs>
<clipPath id="clip0_2001_5241">
<rect width="20" height="20" fill="white"/>
</clipPath>
</defs>
</svg>
