<svg width="20" height="20" viewBox="0 0 20 20" fill="none" xmlns="http://www.w3.org/2000/svg">
<g clip-path="url(#clip0_2001_5247)">
<path fill-rule="evenodd" clip-rule="evenodd" d="M10.0001 14.1667C10.4603 14.1667 10.8334 14.5398 10.8334 15.0001V18.3334C10.8334 18.7937 10.4603 19.1667 10.0001 19.1667C9.53984 19.1667 9.16675 18.7937 9.16675 18.3334V15.0001C9.16675 14.5398 9.53984 14.1667 10.0001 14.1667Z" fill="black"/>
<path fill-rule="evenodd" clip-rule="evenodd" d="M9.99984 0.833252C10.2621 0.833252 10.5091 0.956747 10.6665 1.16659C11.7151 2.56473 12.2217 4.19971 12.4098 5.84936C12.8794 5.54308 13.3942 5.26174 13.9287 5.02123C15.0404 4.52097 16.3051 4.16659 17.4998 4.16659C17.9601 4.16659 18.3332 4.53968 18.3332 4.99992C18.3332 6.11228 17.6723 7.33833 16.9775 8.30033C16.655 8.74682 16.2949 9.17767 15.9296 9.56095C16.2881 9.70104 16.6427 9.87026 16.9709 10.0549C17.4309 10.3136 17.8796 10.6248 18.2521 10.974C18.6156 11.3148 18.9583 11.7401 19.1237 12.2364C19.2608 12.6476 19.0598 13.0951 18.6614 13.2659C17.2175 13.8847 15.9549 14.1249 15.0051 14.202C15.6132 15.329 15.8332 16.5315 15.8332 17.4999C15.8332 17.9602 15.4601 18.3333 14.9998 18.3333C12.9199 18.3333 11.2476 17.2655 9.99984 16.1481C8.75211 17.2655 7.07982 18.3333 4.99984 18.3333C4.5396 18.3333 4.1665 17.9602 4.1665 17.4999C4.1665 16.5315 4.38647 15.329 4.99454 14.202C4.0448 14.1249 2.78219 13.8847 1.33824 13.2659C0.939875 13.0951 0.73888 12.6476 0.875936 12.2364C1.04138 11.7401 1.38408 11.3148 1.7476 10.974C2.12012 10.6248 2.56882 10.3136 3.02879 10.0549C3.35695 9.87026 3.71153 9.70104 4.07003 9.56095C3.70476 9.17767 3.34466 8.74682 3.02219 8.30033C2.32741 7.33833 1.6665 6.11228 1.6665 4.99992C1.6665 4.53968 2.0396 4.16659 2.49984 4.16659C3.69455 4.16659 4.95928 4.52097 6.07098 5.02123C6.60543 5.26174 7.12031 5.54308 7.58992 5.84936C7.77793 4.19971 8.28456 2.56473 9.33317 1.16659C9.49055 0.956747 9.73754 0.833252 9.99984 0.833252ZM6.50742 12.5152C6.86609 12.4455 7.22865 12.6176 7.40123 12.94C7.57451 13.2638 7.51543 13.6628 7.25576 13.9225C6.48236 14.6959 6.07801 15.6723 5.91753 16.5689C7.26027 16.2824 8.41971 15.4015 9.41058 14.4107C9.73602 14.0852 10.2637 14.0852 10.5891 14.4107C11.58 15.4015 12.7394 16.2824 14.0821 16.5689C13.9217 15.6723 13.5173 14.6959 12.7439 13.9225C12.4843 13.6628 12.4252 13.2638 12.5984 12.94C12.771 12.6176 13.1336 12.4455 13.4923 12.5152C13.4932 12.5154 13.4953 12.5158 13.4985 12.5163C13.5069 12.5178 13.5229 12.5204 13.5462 12.5238C13.5929 12.5304 13.6688 12.5399 13.7716 12.5482C13.9772 12.5649 14.2898 12.577 14.6905 12.5534C15.289 12.5182 16.0851 12.4034 17.0171 12.1041C16.7786 11.8966 16.482 11.6921 16.1538 11.5075C15.3772 11.0707 14.5866 10.8333 14.1665 10.8333C13.7993 10.8333 13.4753 10.5929 13.3689 10.2414C13.2625 9.88994 13.3987 9.51024 13.7043 9.30654C14.2226 8.96096 14.988 8.20835 15.6264 7.32451C15.9787 6.83667 16.2515 6.36474 16.4291 5.94644C15.8329 6.06492 15.2122 6.27129 14.6126 6.5411C13.6419 6.97795 12.7946 7.55034 12.2558 8.08917C12.0174 8.32751 11.659 8.3988 11.3476 8.26982C11.0362 8.14083 10.8332 7.83697 10.8332 7.49992C10.8332 5.98324 10.6004 4.52843 9.99984 3.27169C9.3993 4.52843 9.1665 5.98324 9.1665 7.49992C9.1665 7.83697 8.96347 8.14083 8.65207 8.26982C8.34068 8.3988 7.98225 8.32751 7.74392 8.08917C7.20509 7.55034 6.35779 6.97795 5.38703 6.5411C4.78744 6.27129 4.16678 6.06492 3.57057 5.94644C3.74822 6.36474 4.02099 6.83667 4.37332 7.32451C5.01165 8.20835 5.77704 8.96096 6.29542 9.30654C6.60097 9.51024 6.73716 9.88994 6.63075 10.2414C6.52433 10.5929 6.20039 10.8333 5.83317 10.8333C5.41303 10.8333 4.62245 11.0707 3.84589 11.5075C3.51769 11.6921 3.22103 11.8966 2.98257 12.1041C3.9146 12.4034 4.71071 12.5182 5.30919 12.5534C5.70988 12.577 6.02245 12.5649 6.22806 12.5482C6.33084 12.5399 6.40676 12.5304 6.45344 12.5238C6.47677 12.5204 6.49278 12.5178 6.50116 12.5163C6.50331 12.516 6.50496 12.5157 6.5061 12.5155C6.50666 12.5154 6.5071 12.5153 6.50742 12.5152Z" fill="black"/>
</g>
<defs>
<clipPath id="clip0_2001_5247">
<rect width="20" height="20" fill="white"/>
</clipPath>
</defs>
</svg>
