<svg width="20" height="20" viewBox="0 0 20 20" fill="none" xmlns="http://www.w3.org/2000/svg">
<path fill-rule="evenodd" clip-rule="evenodd" d="M4.16675 4.99992C3.70651 4.99992 3.33341 5.37301 3.33341 5.83325V14.1666C3.33341 14.6268 3.70651 14.9999 4.16675 14.9999H15.8334C16.2937 14.9999 16.6667 14.6268 16.6667 14.1666V5.83325C16.6667 5.37301 16.2937 4.99992 15.8334 4.99992H4.16675ZM1.66675 5.83325C1.66675 4.45254 2.78604 3.33325 4.16675 3.33325H15.8334C17.2141 3.33325 18.3334 4.45254 18.3334 5.83325V14.1666C18.3334 15.5473 17.2141 16.6666 15.8334 16.6666H4.16675C2.78604 16.6666 1.66675 15.5473 1.66675 14.1666V5.83325Z" fill="black"/>
<path fill-rule="evenodd" clip-rule="evenodd" d="M5 9.16659C5 8.70635 5.3731 8.33325 5.83333 8.33325H7.5C7.96024 8.33325 8.33333 8.70635 8.33333 9.16659C8.33333 9.62682 7.96024 9.99992 7.5 9.99992H5.83333C5.3731 9.99992 5 9.62682 5 9.16659ZM10 9.16659C10 8.70635 10.3731 8.33325 10.8333 8.33325H14.1667C14.6269 8.33325 15 8.70635 15 9.16659C15 9.62682 14.6269 9.99992 14.1667 9.99992H10.8333C10.3731 9.99992 10 9.62682 10 9.16659ZM5 12.4999C5 12.0397 5.3731 11.6666 5.83333 11.6666H9.16667C9.6269 11.6666 10 12.0397 10 12.4999C10 12.9602 9.6269 13.3333 9.16667 13.3333H5.83333C5.3731 13.3333 5 12.9602 5 12.4999ZM11.6667 12.4999C11.6667 12.0397 12.0398 11.6666 12.5 11.6666H14.1667C14.6269 11.6666 15 12.0397 15 12.4999C15 12.9602 14.6269 13.3333 14.1667 13.3333H12.5C12.0398 13.3333 11.6667 12.9602 11.6667 12.4999Z" fill="black"/>
</svg>
