<svg width="20" height="20" viewBox="0 0 20 20" fill="none" xmlns="http://www.w3.org/2000/svg">
<g clip-path="url(#clip0_2001_5250)">
<path fill-rule="evenodd" clip-rule="evenodd" d="M7.91675 4.16659C7.91675 3.70635 8.28984 3.33325 8.75008 3.33325H15.8334C16.4965 3.33325 17.1323 3.59664 17.6012 4.06549C18.07 4.53433 18.3334 5.17021 18.3334 5.83325V12.9166C18.3334 13.3768 17.9603 13.7499 17.5001 13.7499C17.0398 13.7499 16.6667 13.3768 16.6667 12.9166V5.83325C16.6667 5.61224 16.579 5.40028 16.4227 5.244C16.2664 5.08772 16.0544 4.99992 15.8334 4.99992H8.75008C8.28984 4.99992 7.91675 4.62682 7.91675 4.16659Z" fill="black"/>
<path fill-rule="evenodd" clip-rule="evenodd" d="M12.9167 9.16659C12.9167 8.70635 13.2898 8.33325 13.7501 8.33325H14.1667C14.627 8.33325 15.0001 8.70635 15.0001 9.16659C15.0001 9.62682 14.627 9.99992 14.1667 9.99992H13.7501C13.2898 9.99992 12.9167 9.62682 12.9167 9.16659Z" fill="black"/>
<path fill-rule="evenodd" clip-rule="evenodd" d="M4.16675 4.99992C3.94573 4.99992 3.73377 5.08772 3.57749 5.244C3.42121 5.40028 3.33341 5.61224 3.33341 5.83325V14.1666C3.33341 14.3876 3.42121 14.5996 3.57749 14.7558C3.73377 14.9121 3.94573 14.9999 4.16675 14.9999H15.8334C16.2937 14.9999 16.6667 15.373 16.6667 15.8333C16.6667 16.2935 16.2937 16.6666 15.8334 16.6666H4.16675C3.50371 16.6666 2.86782 16.4032 2.39898 15.9344C1.93014 15.4655 1.66675 14.8296 1.66675 14.1666V5.83325C1.66675 5.17021 1.93014 4.53433 2.39898 4.06548C2.86782 3.59664 3.50371 3.33325 4.16675 3.33325C4.62699 3.33325 5.00008 3.70635 5.00008 4.16659C5.00008 4.62682 4.62699 4.99992 4.16675 4.99992Z" fill="black"/>
<path fill-rule="evenodd" clip-rule="evenodd" d="M1.07733 1.07733C1.40277 0.751893 1.9304 0.751893 2.25584 1.07733L18.9225 17.744C19.2479 18.0694 19.2479 18.5971 18.9225 18.9225C18.5971 19.2479 18.0694 19.2479 17.744 18.9225L1.07733 2.25584C0.751893 1.9304 0.751893 1.40277 1.07733 1.07733Z" fill="black"/>
<path fill-rule="evenodd" clip-rule="evenodd" d="M5 9.16659C5 8.70635 5.3731 8.33325 5.83333 8.33325H9.16667C9.6269 8.33325 10 8.70635 10 9.16659C10 9.62682 9.6269 9.99992 9.16667 9.99992H5.83333C5.3731 9.99992 5 9.62682 5 9.16659Z" fill="black"/>
<path fill-rule="evenodd" clip-rule="evenodd" d="M5 12.5001C5 12.0398 5.3731 11.6667 5.83333 11.6667H7.91667C8.3769 11.6667 8.75 12.0398 8.75 12.5001C8.75 12.9603 8.3769 13.3334 7.91667 13.3334H5.83333C5.3731 13.3334 5 12.9603 5 12.5001Z" fill="black"/>
</g>
<defs>
<clipPath id="clip0_2001_5250">
<rect width="20" height="20" fill="white"/>
</clipPath>
</defs>
</svg>
