<svg width="20" height="20" viewBox="0 0 20 20" fill="none" xmlns="http://www.w3.org/2000/svg">
<path fill-rule="evenodd" clip-rule="evenodd" d="M7.5 1.66659C7.5 1.20635 7.8731 0.833252 8.33333 0.833252H11.6667C12.1269 0.833252 12.5 1.20635 12.5 1.66659C12.5 2.12682 12.1269 2.49992 11.6667 2.49992H8.33333C7.8731 2.49992 7.5 2.12682 7.5 1.66659Z" fill="black"/>
<path fill-rule="evenodd" clip-rule="evenodd" d="M7.00868 3.3332H13.0384C13.0411 3.3332 13.0438 3.33322 13.0466 3.33324C13.5518 3.33818 14.0437 3.4961 14.4574 3.78619C14.8677 4.07385 15.1819 4.47808 15.3596 4.94637L16.1333 6.85482L16.9108 6.07728C17.2363 5.75184 17.7639 5.75184 18.0893 6.07728C18.4148 6.40272 18.4148 6.93036 18.0893 7.25579L16.4227 8.92246C16.2251 9.12005 15.9416 9.20545 15.6678 9.14991C15.3939 9.09436 15.1661 8.90525 15.0611 8.64629L13.8111 5.56296C13.8082 5.55584 13.8055 5.54869 13.8028 5.5415C13.7438 5.38372 13.6385 5.24751 13.5006 5.15081C13.3636 5.05476 13.2009 5.00218 13.0336 4.99987H7.00008C6.9937 4.99987 6.98732 4.9998 6.98095 4.99965C6.81116 4.99575 6.64423 5.04382 6.50252 5.13743C6.36081 5.23103 6.25108 5.3657 6.18803 5.5234L4.94049 8.64266C4.83647 8.90275 4.60873 9.09318 4.33432 9.14951C4.05992 9.20584 3.77557 9.12054 3.57749 8.92246L1.91083 7.25579C1.58539 6.93036 1.58539 6.40272 1.91083 6.07728C2.23626 5.75184 2.7639 5.75184 3.08934 6.07728L3.86233 6.85027L4.64047 4.90467C4.64048 4.90464 4.64049 4.90461 4.6405 4.90458C4.82966 4.43153 5.15882 4.02755 5.58393 3.74675C6.00613 3.46787 6.50294 3.32372 7.00868 3.3332Z" fill="black"/>
<path fill-rule="evenodd" clip-rule="evenodd" d="M5 11.6666C5 11.2063 5.3731 10.8333 5.83333 10.8333H5.84167C6.3019 10.8333 6.675 11.2063 6.675 11.6666C6.675 12.1268 6.3019 12.4999 5.84167 12.4999H5.83333C5.3731 12.4999 5 12.1268 5 11.6666Z" fill="black"/>
<path fill-rule="evenodd" clip-rule="evenodd" d="M13.3333 11.6666C13.3333 11.2063 13.7063 10.8333 14.1666 10.8333H14.1749C14.6352 10.8333 15.0083 11.2063 15.0083 11.6666C15.0083 12.1268 14.6352 12.4999 14.1749 12.4999H14.1666C13.7063 12.4999 13.3333 12.1268 13.3333 11.6666Z" fill="black"/>
<path fill-rule="evenodd" clip-rule="evenodd" d="M4.16675 9.16667C3.70651 9.16667 3.33341 9.53976 3.33341 10V13.3333C3.33341 13.7936 3.70651 14.1667 4.16675 14.1667H15.8334C16.2937 14.1667 16.6667 13.7936 16.6667 13.3333V10C16.6667 9.53976 16.2937 9.16667 15.8334 9.16667H4.16675ZM1.66675 10C1.66675 8.61929 2.78604 7.5 4.16675 7.5H15.8334C17.2141 7.5 18.3334 8.61929 18.3334 10V13.3333C18.3334 14.714 17.2141 15.8333 15.8334 15.8333H4.16675C2.78604 15.8333 1.66675 14.714 1.66675 13.3333V10Z" fill="black"/>
<path fill-rule="evenodd" clip-rule="evenodd" d="M4.16659 14.1667C4.62682 14.1667 4.99992 14.5398 4.99992 15.0001V16.6667C4.99992 17.127 4.62682 17.5001 4.16659 17.5001C3.70635 17.5001 3.33325 17.127 3.33325 16.6667V15.0001C3.33325 14.5398 3.70635 14.1667 4.16659 14.1667Z" fill="black"/>
<path fill-rule="evenodd" clip-rule="evenodd" d="M15.8333 14.1667C16.2936 14.1667 16.6667 14.5398 16.6667 15.0001V16.6667C16.6667 17.127 16.2936 17.5001 15.8333 17.5001C15.3731 17.5001 15 17.127 15 16.6667V15.0001C15 14.5398 15.3731 14.1667 15.8333 14.1667Z" fill="black"/>
</svg>
