<svg width="20" height="20" viewBox="0 0 20 20" fill="none" xmlns="http://www.w3.org/2000/svg">
<path fill-rule="evenodd" clip-rule="evenodd" d="M2.28534 6.15459C2.62609 5.58668 3.27376 5 4.16659 5H9.99992C10.8345 5 11.5132 5.36007 12.0205 5.76594C12.0445 5.78515 12.0674 5.80567 12.0892 5.82741C12.4727 6.2109 12.9375 6.69692 13.3032 7.08358C13.4868 7.27765 13.6467 7.44807 13.7608 7.57003C13.7629 7.57229 13.7651 7.57455 13.7671 7.57678C13.8055 7.58546 13.8476 7.59504 13.8933 7.60545C14.1293 7.65921 14.4597 7.73523 14.8372 7.82438C15.5867 8.00134 16.5324 8.23236 17.297 8.4445C18.3009 8.7013 19.1666 9.67649 19.1666 10.8333V13.3333C19.1666 13.7727 19.0165 14.2036 18.6933 14.5268C18.3702 14.8499 17.9393 15 17.4999 15H15.8333C15.373 15 14.9999 14.6269 14.9999 14.1667C14.9999 13.7064 15.373 13.3333 15.8333 13.3333H17.4999V10.8333C17.4999 10.4947 17.2057 10.1396 16.8811 10.0585C16.8741 10.0567 16.8672 10.0549 16.8602 10.0529C16.1264 9.8491 15.2018 9.62295 14.4543 9.44645C14.0818 9.35852 13.7559 9.2835 13.5232 9.23049C13.4068 9.20399 13.3139 9.18301 13.2501 9.16868C13.2183 9.16152 13.1937 9.15602 13.1772 9.15233C13.1689 9.15049 13.1627 9.14909 13.1585 9.14817L13.1525 9.14683L13.1525 9.14682C12.9875 9.11016 12.8376 9.02421 12.7226 8.90038L12.7226 8.90035L12.7224 8.90022L12.7107 8.88758C12.7027 8.87902 12.6909 8.8663 12.6755 8.84981C12.6448 8.81681 12.5999 8.76872 12.5437 8.70862C12.4312 8.58839 12.2735 8.42027 12.0924 8.22892C11.7404 7.85671 11.3052 7.40178 10.9452 7.04048C10.6309 6.79698 10.3204 6.66667 9.99992 6.66667H4.16659C4.06327 6.66667 3.887 6.74101 3.73178 6.98416L2.60709 9.31387C2.5361 9.53557 2.49992 9.76703 2.49992 10V13.3333H4.16659C4.62682 13.3333 4.99992 13.7064 4.99992 14.1667C4.99992 14.6269 4.62682 15 4.16659 15H2.49992C2.06055 15 1.62965 14.8499 1.3065 14.5268C0.983347 14.2036 0.833252 13.7727 0.833252 13.3333V10C0.833252 9.5678 0.904789 9.13857 1.04496 8.72973C1.05573 8.69833 1.06836 8.6676 1.08279 8.63771L2.24946 6.22104C2.26041 6.19836 2.27238 6.17619 2.28534 6.15459Z" fill="black"/>
<path fill-rule="evenodd" clip-rule="evenodd" d="M5.83325 13.3334C5.37301 13.3334 4.99992 13.7065 4.99992 14.1667C4.99992 14.627 5.37301 15.0001 5.83325 15.0001C6.29349 15.0001 6.66659 14.627 6.66659 14.1667C6.66659 13.7065 6.29349 13.3334 5.83325 13.3334ZM3.33325 14.1667C3.33325 12.786 4.45254 11.6667 5.83325 11.6667C7.21396 11.6667 8.33325 12.786 8.33325 14.1667C8.33325 15.5475 7.21396 16.6667 5.83325 16.6667C4.45254 16.6667 3.33325 15.5475 3.33325 14.1667Z" fill="black"/>
<path fill-rule="evenodd" clip-rule="evenodd" d="M6.66675 14.1666C6.66675 13.7063 7.03984 13.3333 7.50008 13.3333H12.5001C12.9603 13.3333 13.3334 13.7063 13.3334 14.1666C13.3334 14.6268 12.9603 14.9999 12.5001 14.9999H7.50008C7.03984 14.9999 6.66675 14.6268 6.66675 14.1666Z" fill="black"/>
<path fill-rule="evenodd" clip-rule="evenodd" d="M14.1667 13.3334C13.7065 13.3334 13.3334 13.7065 13.3334 14.1667C13.3334 14.627 13.7065 15.0001 14.1667 15.0001C14.627 15.0001 15.0001 14.627 15.0001 14.1667C15.0001 13.7065 14.627 13.3334 14.1667 13.3334ZM11.6667 14.1667C11.6667 12.786 12.786 11.6667 14.1667 11.6667C15.5475 11.6667 16.6667 12.786 16.6667 14.1667C16.6667 15.5475 15.5475 16.6667 14.1667 16.6667C12.786 16.6667 11.6667 15.5475 11.6667 14.1667Z" fill="black"/>
</svg>
