<svg width="20" height="20" viewBox="0 0 20 20" fill="none" xmlns="http://www.w3.org/2000/svg">
<path fill-rule="evenodd" clip-rule="evenodd" d="M2.05364 4.55364C2.83504 3.77224 3.89485 3.33325 4.99992 3.33325H11.6666C12.7717 3.33325 13.8315 3.77224 14.6129 4.55364C15.3943 5.33504 15.8333 6.39485 15.8333 7.49992V15.8333C15.8333 16.2935 15.4602 16.6666 14.9999 16.6666C14.5397 16.6666 14.1666 16.2935 14.1666 15.8333V7.49992C14.1666 6.83688 13.9032 6.20099 13.4344 5.73215C12.9655 5.26331 12.3296 4.99992 11.6666 4.99992H4.99992C4.33688 4.99992 3.70099 5.26331 3.23215 5.73215C2.76331 6.20099 2.49992 6.83688 2.49992 7.49992V14.1666C2.49992 14.3876 2.58772 14.5996 2.744 14.7558C2.90028 14.9121 3.11224 14.9999 3.33325 14.9999H4.99992C5.46016 14.9999 5.83325 15.373 5.83325 15.8333C5.83325 16.2935 5.46016 16.6666 4.99992 16.6666H3.33325C2.67021 16.6666 2.03433 16.4032 1.56549 15.9344C1.09664 15.4655 0.833252 14.8296 0.833252 14.1666V7.49992C0.833252 6.39485 1.27224 5.33504 2.05364 4.55364Z" fill="black"/>
<path fill-rule="evenodd" clip-rule="evenodd" d="M0.833252 7.50008C0.833252 7.03984 1.20635 6.66675 1.66659 6.66675H4.16659C4.60861 6.66675 5.03254 6.84234 5.3451 7.1549C5.65766 7.46746 5.83325 7.89139 5.83325 8.33341V10.0001C5.83325 10.4421 5.65766 10.866 5.3451 11.1786C5.03254 11.4912 4.60861 11.6667 4.16659 11.6667H1.66659C1.20635 11.6667 0.833252 11.2937 0.833252 10.8334C0.833252 10.3732 1.20635 10.0001 1.66659 10.0001H4.16659V8.33341H1.66659C1.20635 8.33341 0.833252 7.96032 0.833252 7.50008Z" fill="black"/>
<path fill-rule="evenodd" clip-rule="evenodd" d="M7.98816 7.1549C8.30072 6.84234 8.72464 6.66675 9.16667 6.66675H10.8333C11.2754 6.66675 11.6993 6.84234 12.0118 7.1549C12.3244 7.46746 12.5 7.89139 12.5 8.33341V15.0001H17.5V14.1667C17.5 13.7065 17.8731 13.3334 18.3333 13.3334C18.7936 13.3334 19.1667 13.7065 19.1667 14.1667V15.0001C19.1667 15.4421 18.9911 15.866 18.6785 16.1786C18.3659 16.4912 17.942 16.6667 17.5 16.6667H8.33333C7.8731 16.6667 7.5 16.2937 7.5 15.8334V8.33341C7.5 7.89139 7.6756 7.46746 7.98816 7.1549ZM10.8333 15.0001V8.33341L9.16667 8.33342L9.16667 15.0001H10.8333Z" fill="black"/>
<path fill-rule="evenodd" clip-rule="evenodd" d="M6.66675 14.9999C6.20651 14.9999 5.83341 15.373 5.83341 15.8333C5.83341 16.2935 6.20651 16.6666 6.66675 16.6666C7.12699 16.6666 7.50008 16.2935 7.50008 15.8333C7.50008 15.373 7.12699 14.9999 6.66675 14.9999ZM4.16675 15.8333C4.16675 14.4525 5.28604 13.3333 6.66675 13.3333C8.04746 13.3333 9.16675 14.4525 9.16675 15.8333C9.16675 17.214 8.04746 18.3333 6.66675 18.3333C5.28604 18.3333 4.16675 17.214 4.16675 15.8333Z" fill="black"/>
</svg>
