<svg width="20" height="20" viewBox="0 0 20 20" fill="none" xmlns="http://www.w3.org/2000/svg">
<path fill-rule="evenodd" clip-rule="evenodd" d="M8.09917 5.89272C8.6555 5.66279 9.25167 5.54469 9.85364 5.54517C10.4556 5.54564 11.0516 5.66468 11.6076 5.89548C12.1635 6.12628 12.6686 6.46433 13.0939 6.89032C13.5192 7.31631 13.8565 7.82191 14.0864 8.37824C14.3164 8.93457 14.4345 9.53074 14.434 10.1327C14.4335 10.7347 14.3145 11.3307 14.0837 11.8866C13.9418 12.2283 13.7595 12.5508 13.5411 12.8473C13.5009 12.9349 13.4448 13.017 13.3726 13.0892C13.344 13.1178 13.3138 13.1439 13.2823 13.1675C13.22 13.2379 13.1555 13.3064 13.0888 13.373C12.4061 14.0555 11.3593 14.7305 10.2387 15.347C9.10183 15.9724 7.82503 16.5718 6.63536 17.0908C5.44385 17.6107 4.32925 18.0545 3.51307 18.3682C3.10467 18.5251 2.77025 18.6498 2.53737 18.7354C2.42091 18.7783 2.3298 18.8113 2.26747 18.8338C2.2363 18.8451 2.21233 18.8537 2.19598 18.8595C2.18781 18.8624 2.18154 18.8647 2.17722 18.8662L2.17044 18.8686C2.17032 18.8687 2.17022 18.8687 1.89171 18.0833C1.10638 17.8045 1.10642 17.8044 1.10646 17.8043L1.10887 17.7975C1.11041 17.7932 1.11265 17.7869 1.11557 17.7788C1.12142 17.7624 1.13002 17.7385 1.14127 17.7073C1.16376 17.6451 1.19684 17.554 1.23967 17.4377C1.32532 17.205 1.45003 16.8709 1.60707 16.4628C1.92091 15.6472 2.36499 14.5334 2.88537 13.3423C3.40495 12.1532 4.00512 10.8766 4.63176 9.73932C5.2497 8.61784 5.92632 7.57015 6.61078 6.88569L6.61125 6.88523C7.03724 6.4599 7.54284 6.12265 8.09917 5.89272ZM1.89171 18.0833L1.10638 17.8045C0.998864 18.1074 1.07512 18.4451 1.30236 18.6724C1.52959 18.8997 1.86729 18.9761 2.17022 18.8687L1.89171 18.0833ZM3.31998 16.6556C4.06582 16.3642 4.99192 15.9895 5.96889 15.5632C7.13339 15.0552 8.3597 14.4785 9.43534 13.8867C10.3241 13.3978 11.0691 12.9204 11.59 12.4851L10.1441 11.0392C9.81868 10.7138 9.81868 10.1861 10.1441 9.86069C10.4696 9.53525 10.9972 9.53525 11.3226 9.86069L12.5907 11.1288C12.7072 10.8095 12.767 10.4719 12.7673 10.1314C12.7676 9.7483 12.6925 9.36889 12.5461 9.01484C12.3998 8.66078 12.1852 8.33901 11.9145 8.06791C11.6438 7.7968 11.3224 7.58166 10.9686 7.43478C10.6147 7.28789 10.2354 7.21213 9.85233 7.21183C9.46923 7.21153 9.08982 7.28669 8.73576 7.43302C8.38191 7.57927 8.06031 7.79374 7.7893 8.0642C7.78926 8.06423 7.78923 8.06427 7.7892 8.0643C7.39858 8.45494 6.96511 9.05847 6.51405 9.80833L7.78785 11.0759C8.11408 11.4006 8.11537 11.9282 7.79073 12.2544C7.46609 12.5807 6.93846 12.5819 6.61223 12.2573L5.67606 11.3257C5.23057 12.1934 4.80146 13.1197 4.41263 14.0096C3.98621 14.9856 3.61141 15.9105 3.31998 16.6556Z" fill="black"/>
<path fill-rule="evenodd" clip-rule="evenodd" d="M12.9475 5.99881C13.526 5.56714 14.4443 5 15.4168 5C16.5853 5 17.4971 5.53818 18.0847 6.02485C18.3823 6.27127 18.6119 6.51656 18.7682 6.70142C18.8468 6.79435 18.9081 6.8734 18.9513 6.9316C18.973 6.96075 18.9902 6.98478 19.0029 7.00286C19.0092 7.01191 19.0144 7.01947 19.0185 7.02545C19.0205 7.02844 19.0223 7.03104 19.0238 7.03322C19.0245 7.03432 19.0252 7.03531 19.0258 7.0362L19.0266 7.03745L19.027 7.03802C19.0272 7.03829 19.0273 7.03855 18.3334 7.5C19.0273 7.96145 19.0272 7.96171 19.027 7.96198L19.0266 7.96255L19.0258 7.9638C19.0254 7.96437 19.025 7.96499 19.0245 7.96564L19.0238 7.96678C19.0223 7.96896 19.0205 7.97156 19.0185 7.97455C19.0144 7.98053 19.0092 7.98809 19.0029 7.99714C18.9902 8.01522 18.973 8.03925 18.9513 8.0684C18.9081 8.1266 18.8468 8.20565 18.7682 8.29858C18.6119 8.48344 18.3823 8.72873 18.0847 8.97515C17.4971 9.46182 16.5853 10 15.4168 10C14.2483 10 13.3364 9.46182 12.7488 8.97515C12.4512 8.72873 12.2216 8.48344 12.0653 8.29858C11.9867 8.20565 11.9254 8.1266 11.8822 8.0684C11.8605 8.03925 11.8433 8.01522 11.8307 7.99714C11.8243 7.98809 11.8191 7.98053 11.815 7.97455C11.813 7.97156 11.8112 7.96896 11.8097 7.96678C11.809 7.96568 11.8083 7.96469 11.8078 7.9638L11.8069 7.96255L11.8065 7.96198C11.8064 7.96171 11.8062 7.96145 12.5001 7.5C11.8899 6.93249 11.89 6.93235 11.8901 6.93221L11.8911 6.93113C11.8916 6.93058 11.8923 6.92992 11.893 6.92916C11.8944 6.92765 11.8962 6.92573 11.8984 6.92342C11.9027 6.91881 11.9086 6.91264 11.9159 6.90501C11.9305 6.88976 11.9509 6.86865 11.9767 6.84253C12.0283 6.79034 12.1018 6.71779 12.1937 6.63164C12.3765 6.46024 12.6371 6.23045 12.9475 5.99881ZM12.5001 7.5L11.8899 6.93249C11.6273 7.21482 11.5927 7.6404 11.8062 7.96145L12.5001 7.5ZM13.6603 7.55883C13.7076 7.60261 13.7582 7.6471 13.8118 7.69152C14.2304 8.03818 14.7769 8.33333 15.4168 8.33333C16.0566 8.33333 16.6031 8.03818 17.0217 7.69152C17.0996 7.62703 17.171 7.56238 17.2355 7.5C17.171 7.43762 17.0996 7.37297 17.0217 7.30848C16.6031 6.96182 16.0566 6.66667 15.4168 6.66667C15.0226 6.66667 14.4826 6.93286 13.9443 7.33453C13.8431 7.41007 13.7478 7.48591 13.6603 7.55883ZM18.3334 7.5L19.0273 7.96145C19.2132 7.6819 19.2132 7.3181 19.0273 7.03855L18.3334 7.5Z" fill="black"/>
<path fill-rule="evenodd" clip-rule="evenodd" d="M12.9614 0.972677L12.5 1.66659L12.0386 0.972677C12.3181 0.786777 12.6819 0.786777 12.9614 0.972677ZM12.5 7.49992C12.0386 8.19383 12.0383 8.19365 12.038 8.19348L12.0375 8.1931L12.0362 8.19226C12.0353 8.19166 12.0343 8.191 12.0332 8.19026C12.031 8.18879 12.0284 8.18703 12.0255 8.18499C12.0195 8.18091 12.0119 8.17569 12.0029 8.16935C11.9848 8.15667 11.9607 8.13947 11.9316 8.11783C11.8734 8.07461 11.7943 8.01335 11.7014 7.93474C11.5166 7.77838 11.2713 7.54878 11.0249 7.25124C10.5382 6.66358 10 5.75175 10 4.58325C10 3.41476 10.5382 2.50293 11.0249 1.91527C11.2713 1.61772 11.5166 1.38812 11.7014 1.23176C11.7943 1.15316 11.8734 1.09189 11.9316 1.04867C11.9607 1.02703 11.9848 1.00983 12.0029 0.997155C12.0119 0.990814 12.0195 0.985597 12.0255 0.981516C12.0284 0.979475 12.031 0.977717 12.0332 0.976243C12.0336 0.975991 12.034 0.975748 12.0343 0.975512C12.035 0.97506 12.0356 0.974638 12.0362 0.974247L12.0375 0.973408L12.038 0.973029C12.0383 0.972851 12.0386 0.972677 12.5 1.66659C12.9614 0.972677 12.9617 0.972851 12.962 0.973029L12.9625 0.973408L12.9638 0.974247C12.9643 0.974596 12.9649 0.974971 12.9655 0.97537C12.9659 0.975649 12.9663 0.97594 12.9668 0.976243C12.969 0.977717 12.9716 0.979475 12.9745 0.981516C12.9805 0.985597 12.9881 0.990814 12.9971 0.997155C13.0152 1.00983 13.0393 1.02703 13.0684 1.04867C13.1266 1.09189 13.2057 1.15316 13.2986 1.23176C13.4834 1.38812 13.7287 1.61772 13.9751 1.91527C14.4618 2.50293 15 3.41476 15 4.58325C15 5.56333 14.434 6.48097 14.0003 7.05994C13.7682 7.36981 13.5379 7.62923 13.3661 7.81105C13.2798 7.90244 13.207 7.97544 13.1547 8.02672C13.1285 8.05239 13.1073 8.0727 13.0919 8.08723C13.0843 8.0945 13.078 8.10033 13.0734 8.10467C13.0711 8.10685 13.0691 8.10865 13.0676 8.11007C13.0668 8.11078 13.0662 8.1114 13.0656 8.11192L13.0645 8.11293C13.0644 8.11306 13.0642 8.11319 12.5 7.49992ZM12.5 7.49992L12.0386 8.19383C12.3582 8.4064 12.7817 8.3731 13.0642 8.11319L12.5 7.49992ZM12.4433 6.34202C12.5158 6.25537 12.5912 6.16104 12.6664 6.06074C13.066 5.5272 13.3333 4.98651 13.3333 4.58325C13.3333 3.94342 13.0382 3.39691 12.6915 2.97832C12.627 2.90045 12.5624 2.82904 12.5 2.76451C12.4376 2.82904 12.373 2.90045 12.3085 2.97832C11.9618 3.39691 11.6667 3.94342 11.6667 4.58325C11.6667 5.22309 11.9618 5.7696 12.3085 6.18819C12.3536 6.24268 12.3988 6.294 12.4433 6.34202Z" fill="black"/>
</svg>
