<svg width="20" height="20" viewBox="0 0 20 20" fill="none" xmlns="http://www.w3.org/2000/svg">
<path fill-rule="evenodd" clip-rule="evenodd" d="M5.83335 5C6.149 5 6.43755 5.17834 6.57871 5.46066L9.91204 12.1273C10.1179 12.539 9.95101 13.0395 9.53936 13.2454C9.12772 13.4512 8.62716 13.2843 8.42133 12.8727L5.83335 7.69672L3.24538 12.8727C3.03955 13.2843 2.53899 13.4512 2.12734 13.2454C1.71569 13.0395 1.54884 12.539 1.75466 12.1273L5.088 5.46066C5.22916 5.17834 5.51771 5 5.83335 5Z" fill="black"/>
<path fill-rule="evenodd" clip-rule="evenodd" d="M2.5 10.8333C2.5 10.3731 2.8731 10 3.33333 10H8.33333C8.79357 10 9.16667 10.3731 9.16667 10.8333C9.16667 11.2936 8.79357 11.6667 8.33333 11.6667H3.33333C2.8731 11.6667 2.5 11.2936 2.5 10.8333Z" fill="black"/>
<path fill-rule="evenodd" clip-rule="evenodd" d="M15.0001 8.33341C14.0796 8.33341 13.3334 9.07961 13.3334 10.0001C13.3334 10.9206 14.0796 11.6667 15.0001 11.6667C15.9206 11.6667 16.6667 10.9206 16.6667 10.0001C16.6667 9.07961 15.9206 8.33341 15.0001 8.33341ZM11.6667 10.0001C11.6667 8.15913 13.1591 6.66675 15.0001 6.66675C16.841 6.66675 18.3334 8.15913 18.3334 10.0001C18.3334 11.841 16.841 13.3334 15.0001 13.3334C13.1591 13.3334 11.6667 11.841 11.6667 10.0001Z" fill="black"/>
<path fill-rule="evenodd" clip-rule="evenodd" d="M17.5001 6.66675C17.9603 6.66675 18.3334 7.03984 18.3334 7.50008V12.5001C18.3334 12.9603 17.9603 13.3334 17.5001 13.3334C17.0398 13.3334 16.6667 12.9603 16.6667 12.5001V7.50008C16.6667 7.03984 17.0398 6.66675 17.5001 6.66675Z" fill="black"/>
</svg>
