<svg width="20" height="20" viewBox="0 0 20 20" fill="none" xmlns="http://www.w3.org/2000/svg">
<path fill-rule="evenodd" clip-rule="evenodd" d="M5.83335 5C6.149 5 6.43755 5.17834 6.57871 5.46066L9.91204 12.1273C10.1179 12.539 9.95101 13.0395 9.53936 13.2454C9.12772 13.4512 8.62716 13.2843 8.42133 12.8727L5.83335 7.69672L3.24538 12.8727C3.03955 13.2843 2.53899 13.4512 2.12734 13.2454C1.71569 13.0395 1.54884 12.539 1.75466 12.1273L5.088 5.46066C5.22916 5.17834 5.51771 5 5.83335 5Z" fill="black"/>
<path fill-rule="evenodd" clip-rule="evenodd" d="M2.5 10.8333C2.5 10.3731 2.8731 10 3.33333 10H8.33333C8.79357 10 9.16667 10.3731 9.16667 10.8333C9.16667 11.2936 8.79357 11.6667 8.33333 11.6667H3.33333C2.8731 11.6667 2.5 11.2936 2.5 10.8333Z" fill="black"/>
<path fill-rule="evenodd" clip-rule="evenodd" d="M11.6667 5.83333C11.6667 5.3731 12.0398 5 12.5001 5H15.8334C16.4965 5 17.1323 5.26339 17.6012 5.73223C18.07 6.20107 18.3334 6.83696 18.3334 7.5C18.3334 8.01776 18.1728 8.51896 17.8792 8.93699C17.9268 8.97795 17.9731 9.02082 18.0178 9.06557C18.4867 9.53441 18.7501 10.1703 18.7501 10.8333C18.7501 11.4964 18.4867 12.1323 18.0178 12.6011C17.549 13.0699 16.9131 13.3333 16.2501 13.3333H12.5001C12.0398 13.3333 11.6667 12.9602 11.6667 12.5V5.83333ZM13.3334 10V11.6667H16.2501C16.4711 11.6667 16.6831 11.5789 16.8393 11.4226C16.9956 11.2663 17.0834 11.0543 17.0834 10.8333C17.0834 10.6123 16.9956 10.4004 16.8393 10.2441C16.6831 10.0878 16.4711 10 16.2501 10H13.3334ZM15.8334 8.33333H13.3334V6.66667H15.8334C16.0544 6.66667 16.2664 6.75446 16.4227 6.91074C16.579 7.06702 16.6667 7.27899 16.6667 7.5C16.6667 7.72101 16.579 7.93297 16.4227 8.08926C16.2664 8.24554 16.0544 8.33333 15.8334 8.33333Z" fill="black"/>
</svg>
