<svg width="20" height="20" viewBox="0 0 20 20" fill="none" xmlns="http://www.w3.org/2000/svg">
<path fill-rule="evenodd" clip-rule="evenodd" d="M5.83333 8.33341C4.91286 8.33341 4.16667 9.07961 4.16667 10.0001C4.16667 10.9206 4.91286 11.6667 5.83333 11.6667C6.75381 11.6667 7.5 10.9206 7.5 10.0001C7.5 9.07961 6.75381 8.33341 5.83333 8.33341ZM2.5 10.0001C2.5 8.15913 3.99238 6.66675 5.83333 6.66675C7.67428 6.66675 9.16667 8.15913 9.16667 10.0001C9.16667 11.841 7.67428 13.3334 5.83333 13.3334C3.99238 13.3334 2.5 11.841 2.5 10.0001Z" fill="black"/>
<path fill-rule="evenodd" clip-rule="evenodd" d="M8.33333 6.66675C8.79357 6.66675 9.16667 7.03984 9.16667 7.50008V12.5001C9.16667 12.9603 8.79357 13.3334 8.33333 13.3334C7.8731 13.3334 7.5 12.9603 7.5 12.5001V7.50008C7.5 7.03984 7.8731 6.66675 8.33333 6.66675Z" fill="black"/>
<path fill-rule="evenodd" clip-rule="evenodd" d="M14.1666 8.33341C13.2461 8.33341 12.4999 9.07961 12.4999 10.0001C12.4999 10.9206 13.2461 11.6667 14.1666 11.6667C15.0871 11.6667 15.8333 10.9206 15.8333 10.0001C15.8333 9.07961 15.0871 8.33341 14.1666 8.33341ZM10.8333 10.0001C10.8333 8.15913 12.3256 6.66675 14.1666 6.66675C16.0075 6.66675 17.4999 8.15913 17.4999 10.0001C17.4999 11.841 16.0075 13.3334 14.1666 13.3334C12.3256 13.3334 10.8333 11.841 10.8333 10.0001Z" fill="black"/>
<path fill-rule="evenodd" clip-rule="evenodd" d="M11.6666 5C12.1268 5 12.4999 5.3731 12.4999 5.83333V12.5C12.4999 12.9602 12.1268 13.3333 11.6666 13.3333C11.2063 13.3333 10.8333 12.9602 10.8333 12.5V5.83333C10.8333 5.3731 11.2063 5 11.6666 5Z" fill="black"/>
</svg>
