<svg width="20" height="20" viewBox="0 0 20 20" fill="none" xmlns="http://www.w3.org/2000/svg">
<path fill-rule="evenodd" clip-rule="evenodd" d="M3.33325 4.16667C2.87301 4.16667 2.49992 4.53976 2.49992 5V15C2.49992 15.4602 2.87301 15.8333 3.33325 15.8333H16.6666C17.1268 15.8333 17.4999 15.4602 17.4999 15V5C17.4999 4.53976 17.1268 4.16667 16.6666 4.16667H3.33325ZM0.833252 5C0.833252 3.61929 1.95254 2.5 3.33325 2.5H16.6666C18.0473 2.5 19.1666 3.61929 19.1666 5V15C19.1666 16.3807 18.0473 17.5 16.6666 17.5H3.33325C1.95254 17.5 0.833252 16.3807 0.833252 15V5Z" fill="black"/>
<path fill-rule="evenodd" clip-rule="evenodd" d="M6.66675 7.49992C6.20651 7.49992 5.83341 7.87301 5.83341 8.33325C5.83341 8.79349 6.20651 9.16659 6.66675 9.16659C7.12699 9.16659 7.50008 8.79349 7.50008 8.33325C7.50008 7.87301 7.12699 7.49992 6.66675 7.49992ZM4.16675 8.33325C4.16675 6.95254 5.28604 5.83325 6.66675 5.83325C8.04746 5.83325 9.16675 6.95254 9.16675 8.33325C9.16675 9.71396 8.04746 10.8333 6.66675 10.8333C5.28604 10.8333 4.16675 9.71396 4.16675 8.33325Z" fill="black"/>
<path fill-rule="evenodd" clip-rule="evenodd" d="M5.83325 10.0001C5.83325 9.53984 6.20635 9.16675 6.66659 9.16675H13.3333C13.7935 9.16675 14.1666 9.53984 14.1666 10.0001C14.1666 10.4603 13.7935 10.8334 13.3333 10.8334H6.66659C6.20635 10.8334 5.83325 10.4603 5.83325 10.0001Z" fill="black"/>
<path fill-rule="evenodd" clip-rule="evenodd" d="M13.3333 7.49992C12.873 7.49992 12.4999 7.87301 12.4999 8.33325C12.4999 8.79349 12.873 9.16659 13.3333 9.16659C13.7935 9.16659 14.1666 8.79349 14.1666 8.33325C14.1666 7.87301 13.7935 7.49992 13.3333 7.49992ZM10.8333 8.33325C10.8333 6.95254 11.9525 5.83325 13.3333 5.83325C14.714 5.83325 15.8333 6.95254 15.8333 8.33325C15.8333 9.71396 14.714 10.8333 13.3333 10.8333C11.9525 10.8333 10.8333 9.71396 10.8333 8.33325Z" fill="black"/>
<path fill-rule="evenodd" clip-rule="evenodd" d="M13.4921 14.2278C13.4317 14.1847 13.3587 14.1629 13.2846 14.166C13.2731 14.1665 13.2615 14.1667 13.25 14.1667H6.75003C6.74359 14.1667 6.73716 14.1666 6.73072 14.1665C6.6534 14.1647 6.57787 14.1898 6.51706 14.2376C6.45624 14.2854 6.41394 14.3528 6.39739 14.4284C6.39613 14.4341 6.39481 14.4398 6.39343 14.4456L5.8101 16.8622C5.70211 17.3096 5.25188 17.5848 4.8045 17.4768C4.35711 17.3688 4.08197 16.9185 4.18996 16.4712L4.7715 14.0619C4.8723 13.6126 5.1251 13.2117 5.48735 12.9271C5.84936 12.6426 6.29831 12.4919 6.75839 12.5H13.2351C13.6732 12.4862 14.1039 12.6166 14.4608 12.8716C14.8231 13.1303 15.0887 13.5026 15.2155 13.9293C15.2202 13.9452 15.2245 13.9612 15.2282 13.9773L15.8116 16.4773C15.9161 16.9255 15.6376 17.3736 15.1894 17.4782C14.7412 17.5828 14.2931 17.3042 14.1885 16.8561L13.6125 14.3876C13.5898 14.3234 13.5478 14.2675 13.4921 14.2278Z" fill="black"/>
</svg>
