<svg width="20" height="20" viewBox="0 0 20 20" fill="none" xmlns="http://www.w3.org/2000/svg">
<g clip-path="url(#clip0_2001_5314)">
<path fill-rule="evenodd" clip-rule="evenodd" d="M0.833252 9.16659C0.833252 8.70635 1.20635 8.33325 1.66659 8.33325H18.3333C18.7935 8.33325 19.1666 8.70635 19.1666 9.16659V16.6666C19.1666 17.3296 18.9032 17.9655 18.4344 18.4344C17.9655 18.9032 17.3296 19.1666 16.6666 19.1666H3.33325C2.67021 19.1666 2.03433 18.9032 1.56549 18.4344C1.09664 17.9655 0.833252 17.3296 0.833252 16.6666V9.16659ZM2.49992 9.99992V16.6666C2.49992 16.8876 2.58772 17.0996 2.744 17.2558C2.90028 17.4121 3.11224 17.4999 3.33325 17.4999H16.6666C16.8876 17.4999 17.0996 17.4121 17.2558 17.2558C17.4121 17.0996 17.4999 16.8876 17.4999 16.6666V9.99992H2.49992Z" fill="black"/>
<path fill-rule="evenodd" clip-rule="evenodd" d="M4.16675 3.33333C4.16675 2.8731 4.53984 2.5 5.00008 2.5H15.0001C15.4603 2.5 15.8334 2.8731 15.8334 3.33333V9.16667C15.8334 9.6269 15.4603 10 15.0001 10C14.5398 10 14.1667 9.6269 14.1667 9.16667V4.16667H5.83341V9.16667C5.83341 9.6269 5.46032 10 5.00008 10C4.53984 10 4.16675 9.6269 4.16675 9.16667V3.33333Z" fill="black"/>
<path fill-rule="evenodd" clip-rule="evenodd" d="M7.64306 12.6431C8.26818 12.0179 9.11603 11.6667 10.0001 11.6667C10.8841 11.6667 11.732 12.0179 12.3571 12.6431C12.9822 13.2682 13.3334 14.116 13.3334 15.0001V18.3334C13.3334 18.7937 12.9603 19.1667 12.5001 19.1667C12.0398 19.1667 11.6667 18.7937 11.6667 18.3334V15.0001C11.6667 14.5581 11.4912 14.1341 11.1786 13.8216C10.866 13.509 10.4421 13.3334 10.0001 13.3334C9.55805 13.3334 9.13413 13.509 8.82157 13.8216C8.50901 14.1341 8.33341 14.5581 8.33341 15.0001V18.3334C8.33341 18.7937 7.96032 19.1667 7.50008 19.1667C7.03984 19.1667 6.66675 18.7937 6.66675 18.3334V15.0001C6.66675 14.116 7.01794 13.2682 7.64306 12.6431Z" fill="black"/>
<path fill-rule="evenodd" clip-rule="evenodd" d="M18.3333 6.66675C18.7936 6.66675 19.1667 7.03984 19.1667 7.50008V9.16675C19.1667 9.62699 18.7936 10.0001 18.3333 10.0001C17.8731 10.0001 17.5 9.62699 17.5 9.16675V7.50008C17.5 7.03984 17.8731 6.66675 18.3333 6.66675Z" fill="black"/>
<path fill-rule="evenodd" clip-rule="evenodd" d="M1.66659 6.66675C2.12682 6.66675 2.49992 7.03984 2.49992 7.50008V9.16675C2.49992 9.62699 2.12682 10.0001 1.66659 10.0001C1.20635 10.0001 0.833252 9.62699 0.833252 9.16675V7.50008C0.833252 7.03984 1.20635 6.66675 1.66659 6.66675Z" fill="black"/>
<path fill-rule="evenodd" clip-rule="evenodd" d="M5.00008 0.833252C5.46032 0.833252 5.83341 1.20635 5.83341 1.66659V3.33325C5.83341 3.79349 5.46032 4.16658 5.00008 4.16658C4.53984 4.16658 4.16675 3.79349 4.16675 3.33325V1.66659C4.16675 1.20635 4.53984 0.833252 5.00008 0.833252Z" fill="black"/>
<path fill-rule="evenodd" clip-rule="evenodd" d="M15.0001 0.833252C15.4603 0.833252 15.8334 1.20635 15.8334 1.66659V3.33325C15.8334 3.79349 15.4603 4.16658 15.0001 4.16658C14.5398 4.16658 14.1667 3.79349 14.1667 3.33325V1.66659C14.1667 1.20635 14.5398 0.833252 15.0001 0.833252Z" fill="black"/>
<path fill-rule="evenodd" clip-rule="evenodd" d="M8.33333 0.833252C8.79357 0.833252 9.16667 1.20635 9.16667 1.66659V3.33325C9.16667 3.79349 8.79357 4.16658 8.33333 4.16658C7.8731 4.16658 7.5 3.79349 7.5 3.33325V1.66659C7.5 1.20635 7.8731 0.833252 8.33333 0.833252Z" fill="black"/>
<path fill-rule="evenodd" clip-rule="evenodd" d="M11.6666 0.833252C12.1268 0.833252 12.4999 1.20635 12.4999 1.66659V3.33325C12.4999 3.79349 12.1268 4.16658 11.6666 4.16658C11.2063 4.16658 10.8333 3.79349 10.8333 3.33325V1.66659C10.8333 1.20635 11.2063 0.833252 11.6666 0.833252Z" fill="black"/>
</g>
<defs>
<clipPath id="clip0_2001_5314">
<rect width="20" height="20" fill="white"/>
</clipPath>
</defs>
</svg>
