<svg width="20" height="20" viewBox="0 0 20 20" fill="none" xmlns="http://www.w3.org/2000/svg">
<path fill-rule="evenodd" clip-rule="evenodd" d="M3.33325 4.16667C3.11224 4.16667 2.90028 4.25446 2.744 4.41074C2.58772 4.56702 2.49992 4.77899 2.49992 5V6.66667C2.49992 7.1269 2.12682 7.5 1.66659 7.5C1.20635 7.5 0.833252 7.1269 0.833252 6.66667V5C0.833252 4.33696 1.09664 3.70107 1.56549 3.23223C2.03433 2.76339 2.67021 2.5 3.33325 2.5H16.6666C17.3296 2.5 17.9655 2.76339 18.4344 3.23223C18.9032 3.70107 19.1666 4.33696 19.1666 5V15C19.1666 15.663 18.9032 16.2989 18.4344 16.7678C17.9655 17.2366 17.3296 17.5 16.6666 17.5H11.6666C11.2063 17.5 10.8333 17.1269 10.8333 16.6667C10.8333 16.2064 11.2063 15.8333 11.6666 15.8333H16.6666C16.8876 15.8333 17.0996 15.7455 17.2558 15.5893C17.4121 15.433 17.4999 15.221 17.4999 15V5C17.4999 4.77899 17.4121 4.56702 17.2558 4.41074C17.0996 4.25446 16.8876 4.16667 16.6666 4.16667H3.33325Z" fill="black"/>
<path fill-rule="evenodd" clip-rule="evenodd" d="M0.837973 9.91197C0.886541 9.4543 1.29693 9.12266 1.75459 9.17123C3.65031 9.3724 5.41975 10.2175 6.76775 11.5655C8.11576 12.9135 8.96083 14.6829 9.162 16.5786C9.21057 17.0363 8.87893 17.4467 8.42126 17.4953C7.96359 17.5438 7.55321 17.2122 7.50464 16.7545C7.3437 15.2379 6.66765 13.8224 5.58924 12.744C4.51084 11.6656 3.09529 10.9895 1.57871 10.8286C1.12105 10.78 0.789406 10.3696 0.837973 9.91197Z" fill="black"/>
<path fill-rule="evenodd" clip-rule="evenodd" d="M0.847488 13.1807C0.931755 12.7282 1.36686 12.4297 1.81931 12.514C2.81197 12.6989 3.72539 13.18 4.43937 13.8939C5.15335 14.6079 5.63444 15.5213 5.81931 16.514C5.90358 16.9664 5.6051 17.4015 5.15265 17.4858C4.70019 17.5701 4.26509 17.2716 4.18082 16.8192C4.05757 16.1574 3.73685 15.5484 3.26086 15.0724C2.78487 14.5965 2.17592 14.2757 1.51415 14.1525C1.0617 14.0682 0.763221 13.6331 0.847488 13.1807Z" fill="black"/>
<path fill-rule="evenodd" clip-rule="evenodd" d="M0.833252 16.6666C0.833252 16.2063 1.20635 15.8333 1.66659 15.8333H1.67492C2.13516 15.8333 2.50825 16.2063 2.50825 16.6666C2.50825 17.1268 2.13516 17.4999 1.67492 17.4999H1.66659C1.20635 17.4999 0.833252 17.1268 0.833252 16.6666Z" fill="black"/>
</svg>
