<svg width="20" height="20" viewBox="0 0 20 20" fill="none" xmlns="http://www.w3.org/2000/svg">
<path fill-rule="evenodd" clip-rule="evenodd" d="M3.37026 3.22744C3.34971 3.31291 3.33114 3.44656 3.32602 3.63771C3.31308 4.12161 3.3894 4.76942 3.51094 5.45186C3.63062 6.12389 3.78614 6.78657 3.91282 7.28439C3.97594 7.53242 4.03139 7.73755 4.07087 7.88C4.0906 7.95119 4.10631 8.00662 4.11696 8.04381L4.129 8.08557L4.13191 8.09559L4.13256 8.09778C4.19079 8.29569 4.17366 8.50854 4.08427 8.69447C3.66739 9.56158 3.33322 10.3668 3.33322 11.2001C3.33322 14.3847 6.14628 16.6667 9.99989 16.6667C13.8455 16.6667 16.6666 14.3079 16.6666 11.2001C16.6666 10.3937 16.3754 9.55923 15.9311 8.72519C15.8298 8.53518 15.8061 8.31336 15.8648 8.10622M17.5552 8.23971C17.5932 8.09496 17.6415 7.90674 17.695 7.68704C17.8217 7.16651 17.9798 6.46129 18.101 5.73517C18.2205 5.01945 18.3119 4.23882 18.2868 3.58344C18.2743 3.25889 18.2319 2.91265 18.1194 2.6041C18.0084 2.29939 17.7841 1.91686 17.3375 1.73099C16.8901 1.54434 16.3654 1.49647 15.8557 1.52392C15.3346 1.55199 14.7705 1.66194 14.209 1.84192C13.2393 2.1528 12.2136 2.69383 11.3952 3.46788C10.9363 3.3796 10.4665 3.33339 9.99989 3.33339L9.99746 3.3334C9.53349 3.33475 9.07072 3.37469 8.61391 3.45268C7.78596 2.67052 6.73653 2.13218 5.74923 1.82684C5.17975 1.65073 4.60837 1.54491 4.08282 1.51976C3.56947 1.49519 3.04188 1.5448 2.59565 1.73099C2.14526 1.91893 1.92354 2.30688 1.81585 2.61274C1.7069 2.9222 1.66863 3.26887 1.65995 3.59314C1.64243 4.2483 1.74267 5.02861 1.87009 5.74409C1.99937 6.46998 2.1652 7.17501 2.29763 7.69542C2.35491 7.92049 2.40632 8.11252 2.4464 8.2586C2.06464 9.07792 1.66656 10.0837 1.66656 11.2001C1.66656 15.6154 5.57016 18.3334 9.99989 18.3334C14.4376 18.3334 18.3332 15.5256 18.3332 11.2001C18.3332 10.1292 17.9908 9.12121 17.5552 8.23971ZM15.8648 8.10622L15.8655 8.10366L15.8683 8.09366L15.8799 8.05194C15.8901 8.01477 15.9052 7.95936 15.9242 7.8882C15.9621 7.7458 16.0153 7.54073 16.0756 7.29276C16.1968 6.79506 16.345 6.13258 16.4571 5.46078C16.571 4.77858 16.6399 4.13109 16.6213 3.64741C16.6138 3.45101 16.5927 3.315 16.5703 3.22934C16.4276 3.19482 16.2201 3.17338 15.9454 3.18818C15.5865 3.2075 15.1637 3.28609 14.7178 3.42903C13.8175 3.71767 12.9098 4.23997 12.2891 4.93742C12.0808 5.17145 11.7588 5.26888 11.4557 5.18961C10.9811 5.06549 10.4857 5.00017 10.0011 5.00006C9.5026 5.0016 9.00583 5.05878 8.52002 5.17052C8.22336 5.23875 7.9131 5.1398 7.71073 4.91242C7.09478 4.22034 6.17578 3.70331 5.25681 3.41911C4.80232 3.27856 4.37006 3.20208 4.00316 3.18452C3.72554 3.17124 3.51519 3.19303 3.37026 3.22744M16.6976 3.26994C16.697 3.26967 16.6963 3.2694 16.6957 3.26913L16.6976 3.26994Z" fill="black"/>
<path fill-rule="evenodd" clip-rule="evenodd" d="M6.66659 10.8333C7.12682 10.8333 7.49992 11.2063 7.49992 11.6666V12.0833C7.49992 12.5435 7.12682 12.9166 6.66659 12.9166C6.20635 12.9166 5.83325 12.5435 5.83325 12.0833V11.6666C5.83325 11.2063 6.20635 10.8333 6.66659 10.8333Z" fill="black"/>
<path fill-rule="evenodd" clip-rule="evenodd" d="M13.3333 10.8333C13.7936 10.8333 14.1667 11.2063 14.1667 11.6666V12.0833C14.1667 12.5435 13.7936 12.9166 13.3333 12.9166C12.8731 12.9166 12.5 12.5435 12.5 12.0833V11.6666C12.5 11.2063 12.8731 10.8333 13.3333 10.8333Z" fill="black"/>
<path fill-rule="evenodd" clip-rule="evenodd" d="M8.60521 13.2227C8.73419 12.9113 9.03805 12.7083 9.37511 12.7083H10.6251C10.9622 12.7083 11.266 12.9113 11.395 13.2227C11.524 13.5341 11.4527 13.8925 11.2144 14.1308L10.5894 14.7558C10.2639 15.0813 9.73629 15.0813 9.41085 14.7558L8.78585 14.1308C8.54752 13.8925 8.47622 13.5341 8.60521 13.2227Z" fill="black"/>
</svg>
