<svg width="20" height="20" viewBox="0 0 20 20" fill="none" xmlns="http://www.w3.org/2000/svg">
<path fill-rule="evenodd" clip-rule="evenodd" d="M5.3657 4.16208C5.15611 4.14686 4.94557 4.17306 4.74611 4.23921C4.54665 4.30536 4.36217 4.41015 4.20322 4.5476C4.04479 4.68459 3.91481 4.85135 3.82064 5.0384L2.67182 7.36102C2.67147 7.36174 2.67111 7.36246 2.67075 7.36317C2.48206 7.7419 2.45107 8.17996 2.58457 8.58148C2.71796 8.98268 3.00473 9.31477 3.38219 9.50519C3.38249 9.50534 3.38278 9.50549 3.38308 9.50564L11.2937 13.4647L11.2937 13.4647L11.2937 13.4647L13.2072 9.63831C13.2106 9.63118 13.2142 9.6241 13.2178 9.61709L13.8795 8.29382C13.8795 8.29375 13.8795 8.29367 13.8795 8.2936C13.8794 8.29327 13.8794 8.29293 13.8793 8.29256C13.8792 8.29239 13.8792 8.29221 13.8792 8.29202C13.8791 8.29183 13.8791 8.29164 13.879 8.29145C13.879 8.29131 13.8789 8.29118 13.8789 8.29104C13.8788 8.29079 13.8787 8.29054 13.8786 8.2903C13.8785 8.28991 13.8784 8.28953 13.8782 8.28916C13.8781 8.28879 13.8779 8.28844 13.8778 8.2881C13.8777 8.28789 13.8776 8.28769 13.8775 8.2875L13.8773 8.28714C13.8773 8.28707 13.8773 8.287 13.8772 8.28694L5.96763 4.32797C5.77983 4.23368 5.57529 4.17731 5.3657 4.16208ZM14.4731 10.8332L13.8113 12.1566L15.2896 14.2238L16.9844 10.8332H14.4731ZM12.9681 13.8427L12.7844 14.2101C12.6865 14.4059 12.5509 14.5805 12.3855 14.7239C12.2201 14.8673 12.0281 14.9768 11.8204 15.0459C11.6127 15.1151 11.3934 15.1427 11.175 15.1271C10.9567 15.1115 10.7435 15.0531 10.5477 14.9551C10.5477 14.9551 10.5477 14.9551 10.5477 14.9551L2.63524 10.9951L2.63332 10.9941C1.86177 10.6055 1.27559 9.92708 1.00303 9.10731C0.730604 8.28795 0.793671 7.39407 1.17841 6.62109C1.1786 6.62071 1.17879 6.62032 1.17898 6.61994L2.32791 4.29709C2.32862 4.29567 2.32933 4.29424 2.33004 4.29282C2.52246 3.90934 2.78854 3.56753 3.11308 3.2869C3.43761 3.00627 3.81425 2.79232 4.22149 2.65727C4.62872 2.52222 5.05857 2.46871 5.48648 2.4998C5.91424 2.53088 6.33169 2.64589 6.71501 2.83827C6.71515 2.83834 6.71529 2.83841 6.71543 2.83848L14.6279 6.79886L14.6279 6.79888C15.4448 7.20781 15.781 8.21662 15.3729 9.03388L15.3065 9.16656H16.9853C17.2693 9.16671 17.5485 9.23942 17.7965 9.3778C18.0445 9.51617 18.253 9.71562 18.4023 9.95721C18.5516 10.1988 18.6366 10.4745 18.6494 10.7582C18.6622 11.0419 18.6022 11.3242 18.4753 11.5782L18.4753 11.5783L16.7803 14.9692L16.7802 14.9694C16.6516 15.2263 16.4588 15.4457 16.2205 15.6062C15.9822 15.7667 15.7064 15.8628 15.4199 15.8853C15.1335 15.9078 14.8461 15.8558 14.5856 15.7345C14.3252 15.6131 14.1005 15.4265 13.9335 15.1927L12.9681 13.8427Z" fill="black"/>
<path d="M1.66675 15.8333H4.80008C5.11069 15.8355 5.41572 15.7508 5.68076 15.5888C5.94581 15.4269 6.16031 15.1941 6.30008 14.9167L7.50008 12.5" stroke="black" stroke-width="2" stroke-linecap="round" stroke-linejoin="round"/>
<path d="M1.66675 17.5001V14.1667" stroke="black" stroke-width="2" stroke-linecap="round" stroke-linejoin="round"/>
<path fill-rule="evenodd" clip-rule="evenodd" d="M5 7.50008C5 7.03984 5.3731 6.66675 5.83333 6.66675H5.84167C6.3019 6.66675 6.675 7.03984 6.675 7.50008C6.675 7.96032 6.3019 8.33341 5.84167 8.33341H5.83333C5.3731 8.33341 5 7.96032 5 7.50008Z" fill="black"/>
</svg>
