<svg width="20" height="20" viewBox="0 0 20 20" fill="none" xmlns="http://www.w3.org/2000/svg">
<path fill-rule="evenodd" clip-rule="evenodd" d="M2.50008 1.66675C2.96032 1.66675 3.33341 2.03984 3.33341 2.50008V15.8334C3.33341 16.0544 3.42121 16.2664 3.57749 16.4227C3.73377 16.5789 3.94573 16.6667 4.16675 16.6667H17.5001C17.9603 16.6667 18.3334 17.0398 18.3334 17.5001C18.3334 17.9603 17.9603 18.3334 17.5001 18.3334H4.16675C3.50371 18.3334 2.86782 18.07 2.39898 17.6012C1.93014 17.1323 1.66675 16.4965 1.66675 15.8334V2.50008C1.66675 2.03984 2.03984 1.66675 2.50008 1.66675Z" fill="black"/>
<path fill-rule="evenodd" clip-rule="evenodd" d="M5 9.16659C5 8.70635 5.3731 8.33325 5.83333 8.33325H12.5C12.9602 8.33325 13.3333 8.70635 13.3333 9.16659C13.3333 9.62682 12.9602 9.99992 12.5 9.99992H5.83333C5.3731 9.99992 5 9.62682 5 9.16659Z" fill="black"/>
<path fill-rule="evenodd" clip-rule="evenodd" d="M5 13.3333C5 12.8731 5.3731 12.5 5.83333 12.5H8.33333C8.79357 12.5 9.16667 12.8731 9.16667 13.3333C9.16667 13.7936 8.79357 14.1667 8.33333 14.1667H5.83333C5.3731 14.1667 5 13.7936 5 13.3333Z" fill="black"/>
<path fill-rule="evenodd" clip-rule="evenodd" d="M5 5.00008C5 4.53984 5.3731 4.16675 5.83333 4.16675H15.8333C16.2936 4.16675 16.6667 4.53984 16.6667 5.00008C16.6667 5.46032 16.2936 5.83341 15.8333 5.83341H5.83333C5.3731 5.83341 5 5.46032 5 5.00008Z" fill="black"/>
</svg>
