<svg width="20" height="20" viewBox="0 0 20 20" fill="none" xmlns="http://www.w3.org/2000/svg">
<path fill-rule="evenodd" clip-rule="evenodd" d="M2.50008 1.66675C2.96032 1.66675 3.33341 2.03984 3.33341 2.50008V15.8334C3.33341 16.0544 3.42121 16.2664 3.57749 16.4227C3.73377 16.5789 3.94573 16.6667 4.16675 16.6667H17.5001C17.9603 16.6667 18.3334 17.0398 18.3334 17.5001C18.3334 17.9603 17.9603 18.3334 17.5001 18.3334H4.16675C3.50371 18.3334 2.86782 18.07 2.39898 17.6012C1.93014 17.1323 1.66675 16.4965 1.66675 15.8334V2.50008C1.66675 2.03984 2.03984 1.66675 2.50008 1.66675Z" fill="black"/>
<path fill-rule="evenodd" clip-rule="evenodd" d="M15 7.84528V13.3334H6.66667V9.51195L7.91667 8.26195L10.365 10.7103C10.3652 10.7105 10.3654 10.7106 10.3655 10.7108C10.3656 10.7109 10.3657 10.711 10.3657 10.711C10.4817 10.8271 10.6194 10.9192 10.7709 10.9821C10.9228 11.0451 11.0856 11.0775 11.25 11.0775C11.4144 11.0775 11.5772 11.0451 11.7291 10.9821C11.8808 10.9191 12.0187 10.8268 12.1348 10.7105C12.1349 10.7104 12.1349 10.7104 12.135 10.7103L15 7.84528ZM15.1716 5.61362C15.4141 5.56512 15.6656 5.58967 15.8942 5.68415C16.1227 5.77864 16.3182 5.93881 16.4557 6.1444C16.5932 6.34999 16.6666 6.59176 16.6667 6.83909V13.3334C16.6667 13.7755 16.4911 14.1994 16.1785 14.5119C15.8659 14.8245 15.442 15.0001 15 15.0001H6.66667C6.22464 15.0001 5.80072 14.8245 5.48816 14.5119C5.17559 14.1994 5 13.7755 5 13.3334V9.33909C5.00007 9.00821 5.13133 8.69085 5.365 8.45659L7.03167 6.78992C7.03182 6.78977 7.03197 6.78962 7.03213 6.78946C7.14815 6.67327 7.28592 6.58107 7.43758 6.51814C7.58944 6.45513 7.75225 6.42269 7.91667 6.42269C8.08109 6.42269 8.24389 6.45513 8.39575 6.51814C8.54741 6.58107 8.68519 6.67327 8.80121 6.78946C8.80136 6.78962 8.80151 6.78977 8.80167 6.78992L11.25 9.23826L14.5317 5.95659C14.5319 5.95634 14.5322 5.95609 14.5324 5.95585M15.1716 5.61362C14.9294 5.66205 14.707 5.78113 14.5324 5.95585L15.1716 5.61362Z" fill="black"/>
</svg>
