<svg width="20" height="20" viewBox="0 0 20 20" fill="none" xmlns="http://www.w3.org/2000/svg">
<path d="M6.24992 6.66659C6.48004 6.66659 6.66659 6.48004 6.66659 6.24992C6.66659 6.0198 6.48004 5.83325 6.24992 5.83325C6.0198 5.83325 5.83325 6.0198 5.83325 6.24992C5.83325 6.48004 6.0198 6.66659 6.24992 6.66659Z" fill="black"/>
<path fill-rule="evenodd" clip-rule="evenodd" d="M6.25 6.66667C6.48012 6.66667 6.66667 6.48012 6.66667 6.25C6.66667 6.01988 6.48012 5.83333 6.25 5.83333C6.01988 5.83333 5.83333 6.01988 5.83333 6.25C5.83333 6.48012 6.01988 6.66667 6.25 6.66667ZM5 6.25C5 5.55964 5.55964 5 6.25 5C6.94036 5 7.5 5.55964 7.5 6.25C7.5 6.94036 6.94036 7.5 6.25 7.5C5.55964 7.5 5 6.94036 5 6.25Z" fill="black"/>
<path d="M15.4167 5.00008C15.6468 5.00008 15.8333 4.81353 15.8333 4.58341C15.8333 4.3533 15.6468 4.16675 15.4167 4.16675C15.1865 4.16675 15 4.3533 15 4.58341C15 4.81353 15.1865 5.00008 15.4167 5.00008Z" fill="black"/>
<path fill-rule="evenodd" clip-rule="evenodd" d="M15.4167 4.99992C15.6469 4.99992 15.8334 4.81337 15.8334 4.58325C15.8334 4.35313 15.6469 4.16659 15.4167 4.16659C15.1866 4.16659 15.0001 4.35313 15.0001 4.58325C15.0001 4.81337 15.1866 4.99992 15.4167 4.99992ZM14.1667 4.58325C14.1667 3.8929 14.7264 3.33325 15.4167 3.33325C16.1071 3.33325 16.6667 3.8929 16.6667 4.58325C16.6667 5.27361 16.1071 5.83325 15.4167 5.83325C14.7264 5.83325 14.1667 5.27361 14.1667 4.58325Z" fill="black"/>
<path d="M9.58341 10.0001C9.81353 10.0001 10.0001 9.81353 10.0001 9.58341C10.0001 9.3533 9.81353 9.16675 9.58341 9.16675C9.3533 9.16675 9.16675 9.3533 9.16675 9.58341C9.16675 9.81353 9.3533 10.0001 9.58341 10.0001Z" fill="black"/>
<path fill-rule="evenodd" clip-rule="evenodd" d="M9.58325 9.99992C9.81337 9.99992 9.99992 9.81337 9.99992 9.58325C9.99992 9.35313 9.81337 9.16659 9.58325 9.16659C9.35313 9.16659 9.16659 9.35313 9.16659 9.58325C9.16659 9.81337 9.35313 9.99992 9.58325 9.99992ZM8.33325 9.58325C8.33325 8.8929 8.8929 8.33325 9.58325 8.33325C10.2736 8.33325 10.8333 8.8929 10.8333 9.58325C10.8333 10.2736 10.2736 10.8333 9.58325 10.8333C8.8929 10.8333 8.33325 10.2736 8.33325 9.58325Z" fill="black"/>
<path d="M6.24992 14.1666C6.48004 14.1666 6.66659 13.98 6.66659 13.7499C6.66659 13.5198 6.48004 13.3333 6.24992 13.3333C6.0198 13.3333 5.83325 13.5198 5.83325 13.7499C5.83325 13.98 6.0198 14.1666 6.24992 14.1666Z" fill="black"/>
<path fill-rule="evenodd" clip-rule="evenodd" d="M6.25 14.1667C6.48012 14.1667 6.66667 13.9801 6.66667 13.75C6.66667 13.5199 6.48012 13.3333 6.25 13.3333C6.01988 13.3333 5.83333 13.5199 5.83333 13.75C5.83333 13.9801 6.01988 14.1667 6.25 14.1667ZM5 13.75C5 13.0596 5.55964 12.5 6.25 12.5C6.94036 12.5 7.5 13.0596 7.5 13.75C7.5 14.4404 6.94036 15 6.25 15C5.55964 15 5 14.4404 5 13.75Z" fill="black"/>
<path d="M14.5834 12.5001C14.8135 12.5001 15.0001 12.3135 15.0001 12.0834C15.0001 11.8533 14.8135 11.6667 14.5834 11.6667C14.3533 11.6667 14.1667 11.8533 14.1667 12.0834C14.1667 12.3135 14.3533 12.5001 14.5834 12.5001Z" fill="black"/>
<path fill-rule="evenodd" clip-rule="evenodd" d="M14.5833 12.4999C14.8134 12.4999 14.9999 12.3134 14.9999 12.0833C14.9999 11.8531 14.8134 11.6666 14.5833 11.6666C14.3531 11.6666 14.1666 11.8531 14.1666 12.0833C14.1666 12.3134 14.3531 12.4999 14.5833 12.4999ZM13.3333 12.0833C13.3333 11.3929 13.8929 10.8333 14.5833 10.8333C15.2736 10.8333 15.8333 11.3929 15.8333 12.0833C15.8333 12.7736 15.2736 13.3333 14.5833 13.3333C13.8929 13.3333 13.3333 12.7736 13.3333 12.0833Z" fill="black"/>
<path fill-rule="evenodd" clip-rule="evenodd" d="M2.50008 1.66675C2.96032 1.66675 3.33341 2.03984 3.33341 2.50008V15.8334C3.33341 16.0544 3.42121 16.2664 3.57749 16.4227C3.73377 16.5789 3.94573 16.6667 4.16675 16.6667H17.5001C17.9603 16.6667 18.3334 17.0398 18.3334 17.5001C18.3334 17.9603 17.9603 18.3334 17.5001 18.3334H4.16675C3.50371 18.3334 2.86782 18.07 2.39898 17.6012C1.93014 17.1323 1.66675 16.4965 1.66675 15.8334V2.50008C1.66675 2.03984 2.03984 1.66675 2.50008 1.66675Z" fill="black"/>
</svg>
