<svg width="20" height="20" viewBox="0 0 20 20" fill="none" xmlns="http://www.w3.org/2000/svg">
<path fill-rule="evenodd" clip-rule="evenodd" d="M7.5 5.00008C7.5 4.53984 7.8731 4.16675 8.33333 4.16675H15C15.4602 4.16675 15.8333 4.53984 15.8333 5.00008C15.8333 5.46032 15.4602 5.83341 15 5.83341H8.33333C7.8731 5.83341 7.5 5.46032 7.5 5.00008Z" fill="black"/>
<path fill-rule="evenodd" clip-rule="evenodd" d="M9.16675 13.3333C9.16675 12.8731 9.53984 12.5 10.0001 12.5H15.0001C15.4603 12.5 15.8334 12.8731 15.8334 13.3333C15.8334 13.7936 15.4603 14.1667 15.0001 14.1667H10.0001C9.53984 14.1667 9.16675 13.7936 9.16675 13.3333Z" fill="black"/>
<path fill-rule="evenodd" clip-rule="evenodd" d="M2.50008 1.66675C2.96032 1.66675 3.33341 2.03984 3.33341 2.50008V15.8334C3.33341 16.0544 3.42121 16.2664 3.57749 16.4227C3.73377 16.5789 3.94573 16.6667 4.16675 16.6667H17.5001C17.9603 16.6667 18.3334 17.0398 18.3334 17.5001C18.3334 17.9603 17.9603 18.3334 17.5001 18.3334H4.16675C3.50371 18.3334 2.86782 18.07 2.39898 17.6012C1.93014 17.1323 1.66675 16.4965 1.66675 15.8334V2.50008C1.66675 2.03984 2.03984 1.66675 2.50008 1.66675Z" fill="black"/>
<path fill-rule="evenodd" clip-rule="evenodd" d="M5.83325 9.16659C5.83325 8.70635 6.20635 8.33325 6.66659 8.33325H12.4999C12.9602 8.33325 13.3333 8.70635 13.3333 9.16659C13.3333 9.62682 12.9602 9.99992 12.4999 9.99992H6.66659C6.20635 9.99992 5.83325 9.62682 5.83325 9.16659Z" fill="black"/>
</svg>
