<svg width="20" height="20" viewBox="0 0 20 20" fill="none" xmlns="http://www.w3.org/2000/svg">
<path fill-rule="evenodd" clip-rule="evenodd" d="M2.50008 1.66675C2.96032 1.66675 3.33341 2.03984 3.33341 2.50008V15.8334C3.33341 16.0544 3.42121 16.2664 3.57749 16.4227C3.73377 16.5789 3.94573 16.6667 4.16675 16.6667H17.5001C17.9603 16.6667 18.3334 17.0398 18.3334 17.5001C18.3334 17.9603 17.9603 18.3334 17.5001 18.3334H4.16675C3.50371 18.3334 2.86782 18.07 2.39898 17.6012C1.93014 17.1323 1.66675 16.4965 1.66675 15.8334V2.50008C1.66675 2.03984 2.03984 1.66675 2.50008 1.66675Z" fill="black"/>
<path fill-rule="evenodd" clip-rule="evenodd" d="M16.8687 3.35833C17.3152 3.46995 17.5867 3.9224 17.4751 4.3689C17.2503 5.26782 16.7022 6.80129 15.9281 8.12834C15.5411 8.79186 15.075 9.44306 14.5336 9.93806C13.9962 10.4294 13.3092 10.8334 12.5 10.8334C11.2128 10.8334 10.5632 9.85178 10.1887 9.28592C10.1719 9.26052 10.1556 9.23596 10.1399 9.21237C9.67279 8.51169 9.48832 8.33345 9.16662 8.33345C8.95584 8.33345 8.721 8.43 8.44296 8.7368C8.15707 9.05227 7.8884 9.52617 7.64418 10.1123C7.23109 11.1037 6.95737 12.2353 6.75056 13.0903C6.71213 13.2492 6.67601 13.3985 6.64174 13.5356C6.53011 13.9821 6.07767 14.2535 5.63117 14.1419C5.18468 14.0303 4.91321 13.5778 5.02483 13.1313C5.0544 13.0131 5.08694 12.878 5.12273 12.7295C5.32662 11.8833 5.63633 10.5978 6.10572 9.47127C6.38234 8.8074 6.73867 8.13547 7.20798 7.6176C7.68515 7.09107 8.33573 6.66678 9.16662 6.66678C10.4538 6.66678 11.1034 7.64845 11.4779 8.21432C11.4947 8.23971 11.5109 8.26427 11.5267 8.28787C11.9938 8.98855 12.1783 9.16678 12.5 9.16678C12.7324 9.16678 13.035 9.04995 13.409 8.70801C13.7791 8.36967 14.1464 7.87504 14.4885 7.28856C15.1727 6.1156 15.6662 4.73241 15.8582 3.96467C15.9698 3.51817 16.4222 3.24671 16.8687 3.35833Z" fill="black"/>
</svg>
