<svg width="20" height="20" viewBox="0 0 20 20" fill="none" xmlns="http://www.w3.org/2000/svg">
<path fill-rule="evenodd" clip-rule="evenodd" d="M2.50008 1.66675C2.96032 1.66675 3.33341 2.03984 3.33341 2.50008V15.8334C3.33341 16.0544 3.42121 16.2664 3.57749 16.4227C3.73377 16.5789 3.94573 16.6667 4.16675 16.6667H17.5001C17.9603 16.6667 18.3334 17.0398 18.3334 17.5001C18.3334 17.9603 17.9603 18.3334 17.5001 18.3334H4.16675C3.50371 18.3334 2.86782 18.07 2.39898 17.6012C1.93014 17.1323 1.66675 16.4965 1.66675 15.8334V2.50008C1.66675 2.03984 2.03984 1.66675 2.50008 1.66675Z" fill="black"/>
<path fill-rule="evenodd" clip-rule="evenodd" d="M15.0001 6.66675C15.4603 6.66675 15.8334 7.03984 15.8334 7.50008V14.1667C15.8334 14.627 15.4603 15.0001 15.0001 15.0001C14.5398 15.0001 14.1667 14.627 14.1667 14.1667V7.50008C14.1667 7.03984 14.5398 6.66675 15.0001 6.66675Z" fill="black"/>
<path fill-rule="evenodd" clip-rule="evenodd" d="M10.8333 3.33325C11.2936 3.33325 11.6667 3.70635 11.6667 4.16659V14.1666C11.6667 14.6268 11.2936 14.9999 10.8333 14.9999C10.3731 14.9999 10 14.6268 10 14.1666V4.16659C10 3.70635 10.3731 3.33325 10.8333 3.33325Z" fill="black"/>
<path fill-rule="evenodd" clip-rule="evenodd" d="M6.66659 10.8333C7.12682 10.8333 7.49992 11.2063 7.49992 11.6666V14.1666C7.49992 14.6268 7.12682 14.9999 6.66659 14.9999C6.20635 14.9999 5.83325 14.6268 5.83325 14.1666V11.6666C5.83325 11.2063 6.20635 10.8333 6.66659 10.8333Z" fill="black"/>
</svg>
