<svg width="20" height="20" viewBox="0 0 20 20" fill="none" xmlns="http://www.w3.org/2000/svg">
<path fill-rule="evenodd" clip-rule="evenodd" d="M2.50008 1.66675C2.96032 1.66675 3.33341 2.03984 3.33341 2.50008V15.8334C3.33341 16.0544 3.42121 16.2664 3.57749 16.4227C3.73377 16.5789 3.94573 16.6667 4.16675 16.6667H17.5001C17.9603 16.6667 18.3334 17.0398 18.3334 17.5001C18.3334 17.9603 17.9603 18.3334 17.5001 18.3334H4.16675C3.50371 18.3334 2.86782 18.07 2.39898 17.6012C1.93014 17.1323 1.66675 16.4965 1.66675 15.8334V2.50008C1.66675 2.03984 2.03984 1.66675 2.50008 1.66675Z" fill="black"/>
<path fill-rule="evenodd" clip-rule="evenodd" d="M13.3334 4.99992V13.3333H15.0001V4.99992H13.3334ZM11.6667 4.99992C11.6667 4.07944 12.4129 3.33325 13.3334 3.33325H15.0001C15.9206 3.33325 16.6667 4.07944 16.6667 4.99992V13.3333C16.6667 14.2537 15.9206 14.9999 15.0001 14.9999H13.3334C12.4129 14.9999 11.6667 14.2537 11.6667 13.3333V4.99992Z" fill="black"/>
<path fill-rule="evenodd" clip-rule="evenodd" d="M6.66667 7.49992V13.3333H8.33333V7.49992H6.66667ZM5 7.49992C5 6.57944 5.74619 5.83325 6.66667 5.83325H8.33333C9.25381 5.83325 10 6.57944 10 7.49992V13.3333C10 14.2537 9.25381 14.9999 8.33333 14.9999H6.66667C5.74619 14.9999 5 14.2537 5 13.3333V7.49992Z" fill="black"/>
</svg>
