<svg width="20" height="20" viewBox="0 0 20 20" fill="none" xmlns="http://www.w3.org/2000/svg">
<path fill-rule="evenodd" clip-rule="evenodd" d="M5.83325 5.00008C5.83325 4.53984 6.20635 4.16675 6.66659 4.16675H14.9999C15.4602 4.16675 15.8333 4.53984 15.8333 5.00008C15.8333 5.46032 15.4602 5.83341 14.9999 5.83341H6.66659C6.20635 5.83341 5.83325 5.46032 5.83325 5.00008Z" fill="black"/>
<path fill-rule="evenodd" clip-rule="evenodd" d="M4.16675 10.0001C4.16675 9.53984 4.53984 9.16675 5.00008 9.16675H12.5001C12.9603 9.16675 13.3334 9.53984 13.3334 10.0001C13.3334 10.4603 12.9603 10.8334 12.5001 10.8334H5.00008C4.53984 10.8334 4.16675 10.4603 4.16675 10.0001Z" fill="black"/>
<path fill-rule="evenodd" clip-rule="evenodd" d="M8.33325 15.0001C8.33325 14.5398 8.70635 14.1667 9.16659 14.1667H14.9999C15.4602 14.1667 15.8333 14.5398 15.8333 15.0001C15.8333 15.4603 15.4602 15.8334 14.9999 15.8334H9.16659C8.70635 15.8334 8.33325 15.4603 8.33325 15.0001Z" fill="black"/>
</svg>
