<svg width="20" height="20" viewBox="0 0 20 20" fill="none" xmlns="http://www.w3.org/2000/svg">
<path fill-rule="evenodd" clip-rule="evenodd" d="M7.50008 3.33325C7.96032 3.33325 8.33341 3.70635 8.33341 4.16659V7.49992C8.33341 7.96016 7.96032 8.33325 7.50008 8.33325C7.03984 8.33325 6.66675 7.96016 6.66675 7.49992V4.16659C6.66675 3.70635 7.03984 3.33325 7.50008 3.33325Z" fill="black"/>
<path fill-rule="evenodd" clip-rule="evenodd" d="M6.66667 8.33341V11.6667H8.33333V8.33341H6.66667ZM5 8.33341C5 7.41294 5.74619 6.66675 6.66667 6.66675H8.33333C9.25381 6.66675 10 7.41294 10 8.33341V11.6667C10 12.5872 9.25381 13.3334 8.33333 13.3334H6.66667C5.74619 13.3334 5 12.5872 5 11.6667V8.33341Z" fill="black"/>
<path fill-rule="evenodd" clip-rule="evenodd" d="M7.50008 11.6667C7.96032 11.6667 8.33341 12.0398 8.33341 12.5001V14.1667C8.33341 14.627 7.96032 15.0001 7.50008 15.0001C7.03984 15.0001 6.66675 14.627 6.66675 14.1667V12.5001C6.66675 12.0398 7.03984 11.6667 7.50008 11.6667Z" fill="black"/>
<path fill-rule="evenodd" clip-rule="evenodd" d="M14.1666 1.66675C14.6268 1.66675 14.9999 2.03984 14.9999 2.50008V4.16675C14.9999 4.62699 14.6268 5.00008 14.1666 5.00008C13.7063 5.00008 13.3333 4.62699 13.3333 4.16675V2.50008C13.3333 2.03984 13.7063 1.66675 14.1666 1.66675Z" fill="black"/>
<path fill-rule="evenodd" clip-rule="evenodd" d="M13.3334 4.99992V9.99992H15.0001V4.99992H13.3334ZM11.6667 4.99992C11.6667 4.07944 12.4129 3.33325 13.3334 3.33325H15.0001C15.9206 3.33325 16.6667 4.07944 16.6667 4.99992V9.99992C16.6667 10.9204 15.9206 11.6666 15.0001 11.6666H13.3334C12.4129 11.6666 11.6667 10.9204 11.6667 9.99992V4.99992Z" fill="black"/>
<path fill-rule="evenodd" clip-rule="evenodd" d="M14.1666 10C14.6268 10 14.9999 10.3731 14.9999 10.8333V13.3333C14.9999 13.7936 14.6268 14.1667 14.1666 14.1667C13.7063 14.1667 13.3333 13.7936 13.3333 13.3333V10.8333C13.3333 10.3731 13.7063 10 14.1666 10Z" fill="black"/>
<path fill-rule="evenodd" clip-rule="evenodd" d="M2.50008 1.66675C2.96032 1.66675 3.33341 2.03984 3.33341 2.50008V15.8334C3.33341 16.0544 3.42121 16.2664 3.57749 16.4227C3.73377 16.5789 3.94573 16.6667 4.16675 16.6667H17.5001C17.9603 16.6667 18.3334 17.0398 18.3334 17.5001C18.3334 17.9603 17.9603 18.3334 17.5001 18.3334H4.16675C3.50371 18.3334 2.86782 18.07 2.39898 17.6012C1.93014 17.1323 1.66675 16.4965 1.66675 15.8334V2.50008C1.66675 2.03984 2.03984 1.66675 2.50008 1.66675Z" fill="black"/>
</svg>
