<svg width="20" height="20" viewBox="0 0 20 20" fill="none" xmlns="http://www.w3.org/2000/svg">
<path fill-rule="evenodd" clip-rule="evenodd" d="M10.463 5.69311C10.846 5.43795 11.3633 5.54161 11.6185 5.92463L13.1018 8.1513C13.357 8.53433 13.2533 9.05169 12.8703 9.30685C12.4873 9.56201 11.9699 9.45835 11.7148 9.07532L10.2314 6.84866C9.97628 6.46563 10.0799 5.94827 10.463 5.69311Z" fill="black"/>
<path fill-rule="evenodd" clip-rule="evenodd" d="M12.5675 10.3286C12.7488 10.7517 12.5528 11.2416 12.1297 11.4228L9.3597 12.6095C8.93665 12.7907 8.44678 12.5947 8.26554 12.1716C8.08431 11.7486 8.28034 11.2587 8.70339 11.0775L11.4734 9.89079C11.8964 9.70955 12.3863 9.90558 12.5675 10.3286Z" fill="black"/>
<path fill-rule="evenodd" clip-rule="evenodd" d="M17.4752 3.13117C17.5868 3.57767 17.3153 4.03011 16.8688 4.14174L11.8188 5.40424C11.3724 5.51586 10.9199 5.2444 10.8083 4.7979C10.6967 4.3514 10.9681 3.89896 11.4146 3.78733L16.4646 2.52483C16.9111 2.41321 17.3636 2.68468 17.4752 3.13117Z" fill="black"/>
<path fill-rule="evenodd" clip-rule="evenodd" d="M2.50008 1.66675C2.96032 1.66675 3.33341 2.03984 3.33341 2.50008V15.8334C3.33341 16.0544 3.42121 16.2664 3.57749 16.4227C3.73377 16.5789 3.94573 16.6667 4.16675 16.6667H17.5001C17.9603 16.6667 18.3334 17.0398 18.3334 17.5001C18.3334 17.9603 17.9603 18.3334 17.5001 18.3334H4.16675C3.50371 18.3334 2.86782 18.07 2.39898 17.6012C1.93014 17.1323 1.66675 16.4965 1.66675 15.8334V2.50008C1.66675 2.03984 2.03984 1.66675 2.50008 1.66675Z" fill="black"/>
<path fill-rule="evenodd" clip-rule="evenodd" d="M10 4.16667C9.53976 4.16667 9.16667 4.53976 9.16667 5C9.16667 5.46024 9.53976 5.83333 10 5.83333C10.4602 5.83333 10.8333 5.46024 10.8333 5C10.8333 4.53976 10.4602 4.16667 10 4.16667ZM7.5 5C7.5 3.61929 8.61929 2.5 10 2.5C11.3807 2.5 12.5 3.61929 12.5 5C12.5 6.38071 11.3807 7.5 10 7.5C8.61929 7.5 7.5 6.38071 7.5 5Z" fill="black"/>
<path fill-rule="evenodd" clip-rule="evenodd" d="M13.3333 9.16667C12.873 9.16667 12.4999 9.53976 12.4999 10C12.4999 10.4602 12.873 10.8333 13.3333 10.8333C13.7935 10.8333 14.1666 10.4602 14.1666 10C14.1666 9.53976 13.7935 9.16667 13.3333 9.16667ZM10.8333 10C10.8333 8.61929 11.9525 7.5 13.3333 7.5C14.714 7.5 15.8333 8.61929 15.8333 10C15.8333 11.3807 14.714 12.5 13.3333 12.5C11.9525 12.5 10.8333 11.3807 10.8333 10Z" fill="black"/>
<path fill-rule="evenodd" clip-rule="evenodd" d="M7.5 11.6667C7.03976 11.6667 6.66667 12.0398 6.66667 12.5C6.66667 12.9602 7.03976 13.3333 7.5 13.3333C7.96024 13.3333 8.33333 12.9602 8.33333 12.5C8.33333 12.0398 7.96024 11.6667 7.5 11.6667ZM5 12.5C5 11.1193 6.11929 10 7.5 10C8.88071 10 10 11.1193 10 12.5C10 13.8807 8.88071 15 7.5 15C6.11929 15 5 13.8807 5 12.5Z" fill="black"/>
</svg>
