<svg width="20" height="20" viewBox="0 0 20 20" fill="none" xmlns="http://www.w3.org/2000/svg">
<g clip-path="url(#clip0_2001_5434)">
<path fill-rule="evenodd" clip-rule="evenodd" d="M9.16577 2.50076C9.16577 1.60617 9.90845 0.779373 10.9137 0.879897L10.8308 1.70909L10.9139 0.879913C13.0184 1.09078 14.9853 2.02294 16.4811 3.51837C17.9768 5.01381 18.9094 6.98048 19.1208 9.085L19.1208 9.08519C19.2214 10.0892 18.3951 10.8332 17.5 10.8333C17.5 10.8333 17.5 10.8333 17.4999 10.8333L10.8324 10.8341C10.3904 10.8341 9.96649 10.6585 9.65393 10.3459C9.34137 10.0334 9.16577 9.60946 9.16577 9.16743V2.50076ZM10.8324 2.54725V9.16743L17.4534 9.1666C17.2643 7.47679 16.5064 5.90042 15.3027 4.69702C14.099 3.49358 12.5224 2.73598 10.8324 2.54725Z" fill="black"/>
<path fill-rule="evenodd" clip-rule="evenodd" d="M7.43045 2.02515C7.61453 2.44697 7.4218 2.93815 6.99998 3.12222C5.87714 3.61221 4.89142 4.3698 4.12901 5.32875C3.3666 6.28769 2.8507 7.41881 2.62643 8.6232C2.40215 9.82759 2.47632 11.0686 2.84245 12.2377C3.20859 13.4068 3.85554 14.4684 4.72674 15.3297C5.59795 16.191 6.66688 16.8258 7.84009 17.1786C9.01329 17.5313 10.2551 17.5913 11.4568 17.3533C12.6586 17.1153 13.7837 16.5865 14.7339 15.8132C15.6841 15.0399 16.4303 14.0456 16.9075 12.9172C17.0867 12.4933 17.5757 12.295 17.9996 12.4742C18.4235 12.6535 18.6218 13.1424 18.4425 13.5663C17.8594 14.9454 16.9473 16.1607 15.7859 17.1059C14.6246 18.051 13.2494 18.6973 11.7806 18.9882C10.3118 19.2791 8.7941 19.2058 7.36018 18.7746C5.92626 18.3435 4.61978 17.5676 3.55498 16.5149C2.49017 15.4622 1.69946 14.1647 1.25196 12.7358C0.804462 11.3069 0.713809 9.79012 0.987925 8.31808C1.26204 6.84605 1.89258 5.46358 2.82442 4.29153C3.75626 3.11948 4.96102 2.19354 6.33338 1.59467C6.7552 1.41059 7.24638 1.60332 7.43045 2.02515Z" fill="black"/>
</g>
<defs>
<clipPath id="clip0_2001_5434">
<rect width="20" height="20" fill="white"/>
</clipPath>
</defs>
</svg>
