<svg width="20" height="20" viewBox="0 0 20 20" fill="none" xmlns="http://www.w3.org/2000/svg">
<path fill-rule="evenodd" clip-rule="evenodd" d="M10.0001 7.5C10.4603 7.5 10.8334 7.8731 10.8334 8.33333V16.6667C10.8334 17.1269 10.4603 17.5 10.0001 17.5C9.53984 17.5 9.16675 17.1269 9.16675 16.6667V8.33333C9.16675 7.8731 9.53984 7.5 10.0001 7.5Z" fill="black"/>
<path fill-rule="evenodd" clip-rule="evenodd" d="M15.0001 2.5C15.4603 2.5 15.8334 2.8731 15.8334 3.33333V16.6667C15.8334 17.1269 15.4603 17.5 15.0001 17.5C14.5398 17.5 14.1667 17.1269 14.1667 16.6667V3.33333C14.1667 2.8731 14.5398 2.5 15.0001 2.5Z" fill="black"/>
<path fill-rule="evenodd" clip-rule="evenodd" d="M5.00008 12.5C5.46032 12.5 5.83341 12.8731 5.83341 13.3333V16.6667C5.83341 17.1269 5.46032 17.5 5.00008 17.5C4.53984 17.5 4.16675 17.1269 4.16675 16.6667V13.3333C4.16675 12.8731 4.53984 12.5 5.00008 12.5Z" fill="black"/>
</svg>
