<svg width="20" height="20" viewBox="0 0 20 20" fill="none" xmlns="http://www.w3.org/2000/svg">
<path fill-rule="evenodd" clip-rule="evenodd" d="M9.16659 10C9.62682 10 9.99992 10.3731 9.99992 10.8333V14.1667C9.99992 14.6269 9.62682 15 9.16659 15C8.70635 15 8.33325 14.6269 8.33325 14.1667V10.8333C8.33325 10.3731 8.70635 10 9.16659 10Z" fill="black"/>
<path fill-rule="evenodd" clip-rule="evenodd" d="M12.5001 3.33325C12.9603 3.33325 13.3334 3.70635 13.3334 4.16659V7.49992C13.3334 7.96016 12.9603 8.33325 12.5001 8.33325C12.0398 8.33325 11.6667 7.96016 11.6667 7.49992V4.16659C11.6667 3.70635 12.0398 3.33325 12.5001 3.33325Z" fill="black"/>
<path fill-rule="evenodd" clip-rule="evenodd" d="M2.50008 1.66675C2.96032 1.66675 3.33341 2.03984 3.33341 2.50008V15.8334C3.33341 16.0544 3.42121 16.2664 3.57749 16.4227C3.73377 16.5789 3.94573 16.6667 4.16675 16.6667H17.5001C17.9603 16.6667 18.3334 17.0398 18.3334 17.5001C18.3334 17.9603 17.9603 18.3334 17.5001 18.3334H4.16675C3.50371 18.3334 2.86782 18.07 2.39898 17.6012C1.93014 17.1323 1.66675 16.4965 1.66675 15.8334V2.50008C1.66675 2.03984 2.03984 1.66675 2.50008 1.66675Z" fill="black"/>
<path fill-rule="evenodd" clip-rule="evenodd" d="M6.66667 11.6667V13.3333H12.5V11.6667H6.66667ZM5 11.6667C5 10.7462 5.74619 10 6.66667 10H12.5C13.4205 10 14.1667 10.7462 14.1667 11.6667V13.3333C14.1667 14.2538 13.4205 15 12.5 15H6.66667C5.74619 15 5 14.2538 5 13.3333V11.6667Z" fill="black"/>
<path fill-rule="evenodd" clip-rule="evenodd" d="M6.66667 4.99992V6.66659H15V4.99992H6.66667ZM5 4.99992C5 4.07944 5.74619 3.33325 6.66667 3.33325H15C15.9205 3.33325 16.6667 4.07944 16.6667 4.99992V6.66659C16.6667 7.58706 15.9205 8.33325 15 8.33325H6.66667C5.74619 8.33325 5 7.58706 5 6.66659V4.99992Z" fill="black"/>
</svg>
