<svg width="20" height="20" viewBox="0 0 20 20" fill="none" xmlns="http://www.w3.org/2000/svg">
<path fill-rule="evenodd" clip-rule="evenodd" d="M2.50008 1.66675C2.96032 1.66675 3.33341 2.03984 3.33341 2.50008V15.8334C3.33341 16.0544 3.42121 16.2664 3.57749 16.4227C3.73377 16.5789 3.94573 16.6667 4.16675 16.6667H17.5001C17.9603 16.6667 18.3334 17.0398 18.3334 17.5001C18.3334 17.9603 17.9603 18.3334 17.5001 18.3334H4.16675C3.50371 18.3334 2.86782 18.07 2.39898 17.6012C1.93014 17.1323 1.66675 16.4965 1.66675 15.8334V2.50008C1.66675 2.03984 2.03984 1.66675 2.50008 1.66675Z" fill="black"/>
<path fill-rule="evenodd" clip-rule="evenodd" d="M15.2441 6.91083C15.5695 6.58539 16.0972 6.58539 16.4226 6.91083C16.748 7.23626 16.748 7.7639 16.4226 8.08934L12.2559 12.256C11.9305 12.5814 11.4028 12.5814 11.0774 12.256L8.33333 9.51193L6.42259 11.4227C6.09715 11.7481 5.56951 11.7481 5.24408 11.4227C4.91864 11.0972 4.91864 10.5696 5.24408 10.2442L7.74408 7.74416C8.06951 7.41872 8.59715 7.41872 8.92259 7.74416L11.6667 10.4882L15.2441 6.91083Z" fill="black"/>
</svg>
