<svg width="20" height="20" viewBox="0 0 20 20" fill="none" xmlns="http://www.w3.org/2000/svg">
<path fill-rule="evenodd" clip-rule="evenodd" d="M15.5892 4.41083C15.9146 4.73626 15.9146 5.2639 15.5892 5.58934L6.42251 14.756C6.09707 15.0814 5.56943 15.0814 5.244 14.756L1.07733 10.5893C0.751893 10.2639 0.751893 9.73626 1.07733 9.41083C1.40277 9.08539 1.9304 9.08539 2.25584 9.41083L5.83325 12.9882L14.4107 4.41083C14.7361 4.08539 15.2637 4.08539 15.5892 4.41083Z" fill="black"/>
<path fill-rule="evenodd" clip-rule="evenodd" d="M18.9226 7.74408C19.248 8.06951 19.248 8.59715 18.9226 8.92259L12.6726 15.1726C12.3472 15.498 11.8195 15.498 11.4941 15.1726L10.2441 13.9226C9.91864 13.5972 9.91864 13.0695 10.2441 12.7441C10.5695 12.4186 11.0972 12.4186 11.4226 12.7441L12.0833 13.4048L17.7441 7.74408C18.0695 7.41864 18.5972 7.41864 18.9226 7.74408Z" fill="black"/>
</svg>
