<svg width="20" height="20" viewBox="0 0 20 20" fill="none" xmlns="http://www.w3.org/2000/svg">
<path fill-rule="evenodd" clip-rule="evenodd" d="M7.2503 2.48722C8.06661 1.94977 9.02253 1.66333 9.99988 1.66333C10.9772 1.66333 11.9331 1.94977 12.7494 2.48722C13.4036 2.91792 13.9451 3.49468 14.3332 4.16884C15.1083 4.19912 15.864 4.44552 16.5121 4.88587C17.3245 5.43781 17.9158 6.25897 18.1816 7.20443C18.4475 8.14989 18.3708 9.15887 17.9652 10.0533C17.5596 10.9475 16.8513 11.6698 15.9652 12.0927C15.9074 12.1205 15.8677 12.1569 15.8473 12.1849C15.8376 12.1982 15.8342 12.2064 15.8332 12.2098V16.6667C15.8332 17.1087 15.6576 17.5327 15.3451 17.8452C15.0325 18.1578 14.6086 18.3334 14.1665 18.3334H5.83321C5.39118 18.3334 4.96726 18.1578 4.6547 17.8452C4.34214 17.5327 4.16654 17.1087 4.16654 16.6667V12.2094C4.16546 12.2059 4.16203 12.1978 4.15245 12.1847C4.13179 12.1564 4.09171 12.1196 4.03324 12.0912C3.14825 11.6678 2.44103 10.9457 2.03615 10.0521C1.63105 9.15794 1.55465 8.14948 1.8204 7.20452C2.08616 6.25955 2.67701 5.43876 3.48878 4.88685C4.13647 4.4465 4.89161 4.19988 5.66638 4.16916C6.05448 3.49487 6.59605 2.91799 7.2503 2.48722ZM4.16697 12.2114C4.16691 12.2114 4.16674 12.2108 4.16664 12.2097C4.16697 12.2108 4.16702 12.2114 4.16697 12.2114ZM15.8328 12.2117C15.8328 12.2117 15.8328 12.2111 15.8331 12.21C15.8331 12.2111 15.8329 12.2117 15.8328 12.2117ZM9.99988 3.33C9.34831 3.33 8.71103 3.52095 8.16683 3.87926C7.62263 4.23757 7.19537 4.74751 6.93788 5.34604C6.79395 5.68059 6.44944 5.88292 6.08715 5.84567C5.50126 5.78544 4.91292 5.93399 4.42586 6.26514C3.93879 6.59628 3.58428 7.08876 3.42483 7.65574C3.26537 8.22272 3.31122 8.82779 3.55428 9.36427C3.79733 9.90075 4.222 10.3342 4.7534 10.5882C4.75417 10.5885 4.75495 10.5889 4.75572 10.5893C5.2994 10.8512 5.83321 11.4209 5.83321 12.2075V16.6667H14.1665V12.2084C14.1665 11.4214 14.6999 10.851 15.2455 10.5894L15.2469 10.5887C15.7788 10.335 16.2039 9.90159 16.4473 9.36492C16.6907 8.82826 16.7367 8.22287 16.5772 7.65559C16.4177 7.08832 16.0629 6.59562 15.5755 6.26446C15.088 5.9333 14.4993 5.78496 13.9132 5.84562C13.5507 5.88313 13.2059 5.68078 13.0619 5.34604C12.8044 4.74751 12.3771 4.23757 11.8329 3.87926C11.2887 3.52095 10.6514 3.33 9.99988 3.33Z" fill="black"/>
<path fill-rule="evenodd" clip-rule="evenodd" d="M4.16675 14.1666C4.16675 13.7063 4.53984 13.3333 5.00008 13.3333H15.0001C15.4603 13.3333 15.8334 13.7063 15.8334 14.1666C15.8334 14.6268 15.4603 14.9999 15.0001 14.9999H5.00008C4.53984 14.9999 4.16675 14.6268 4.16675 14.1666Z" fill="black"/>
</svg>
