<svg width="20" height="20" viewBox="0 0 20 20" fill="none" xmlns="http://www.w3.org/2000/svg">
<g clip-path="url(#clip0_2001_5460)">
<path fill-rule="evenodd" clip-rule="evenodd" d="M5.83325 10.6576C5.35112 10.3772 4.84873 10.2227 4.34326 10.1984C3.65272 10.1653 3.01763 10.3785 2.49139 10.7461C1.45608 11.4695 0.833252 12.7846 0.833252 14.1668C0.833252 15.4928 1.36004 16.7646 2.29772 17.7023C3.2354 18.64 4.50717 19.1668 5.83325 19.1668C7.15933 19.1668 8.43111 18.64 9.36879 17.7023C10.3065 16.7646 10.8333 15.4928 10.8333 14.1668C10.8333 12.7846 10.2104 11.4695 9.17511 10.7461C8.64888 10.3785 8.01378 10.1653 7.32325 10.1984C6.81777 10.2227 6.31539 10.3772 5.83325 10.6576ZM3.44594 12.1124C2.91876 12.4807 2.49992 13.2489 2.49992 14.1668C2.49992 15.0508 2.85111 15.8987 3.47623 16.5238C4.10135 17.1489 4.9492 17.5001 5.83325 17.5001C6.71731 17.5001 7.56515 17.1489 8.19027 16.5238C8.8154 15.8987 9.16659 15.0508 9.16659 14.1668C9.16659 13.2489 8.74775 12.4807 8.22056 12.1124C7.96554 11.9342 7.68918 11.8495 7.40315 11.8632C7.11713 11.8769 6.76025 11.9923 6.35383 12.3175C6.04948 12.561 5.61702 12.561 5.31267 12.3175C4.90626 11.9923 4.54937 11.8769 4.26335 11.8632C3.97733 11.8495 3.70096 11.9342 3.44594 12.1124Z" fill="black"/>
<path fill-rule="evenodd" clip-rule="evenodd" d="M14.1667 10.6576C13.6846 10.3772 13.1822 10.2227 12.6768 10.1984C11.9862 10.1653 11.3511 10.3785 10.8249 10.7461C9.78958 11.4695 9.16675 12.7846 9.16675 14.1668C9.16675 15.4928 9.69353 16.7646 10.6312 17.7023C11.5689 18.64 12.8407 19.1668 14.1667 19.1668C15.4928 19.1668 16.7646 18.64 17.7023 17.7023C18.64 16.7646 19.1667 15.4928 19.1667 14.1668C19.1667 12.7846 18.5439 11.4695 17.5086 10.7461C16.9824 10.3785 16.3473 10.1653 15.6567 10.1984C15.1513 10.2227 14.6489 10.3772 14.1667 10.6576ZM11.7794 12.1124C11.2523 12.4807 10.8334 13.2489 10.8334 14.1668C10.8334 15.0508 11.1846 15.8987 11.8097 16.5238C12.4348 17.1489 13.2827 17.5001 14.1667 17.5001C15.0508 17.5001 15.8987 17.1489 16.5238 16.5238C17.1489 15.8987 17.5001 15.0508 17.5001 14.1668C17.5001 13.2489 17.0812 12.4807 16.5541 12.1124C16.299 11.9342 16.0227 11.8495 15.7367 11.8632C15.4506 11.8769 15.0937 11.9923 14.6873 12.3175C14.383 12.561 13.9505 12.561 13.6462 12.3175C13.2398 11.9923 12.8829 11.8769 12.5968 11.8632C12.3108 11.8495 12.0345 11.9342 11.7794 12.1124Z" fill="black"/>
<path fill-rule="evenodd" clip-rule="evenodd" d="M9.83692 0.8494C10.1617 0.784585 10.494 0.91825 10.6835 1.18989C11.4159 2.23999 12.4697 4.16643 13.3448 6.13427C13.7844 7.12293 14.1866 8.13894 14.4835 9.07678C14.776 10.0005 14.9849 10.9046 14.9998 11.65C15.009 12.1101 14.6435 12.4906 14.1833 12.4998C13.7232 12.509 13.3427 12.1434 13.3335 11.6833C13.3234 11.1786 13.1719 10.4557 12.8946 9.5799C12.6218 8.71825 12.2448 7.76239 11.8219 6.81147C11.3559 5.76358 10.8435 4.74206 10.3683 3.87919C10.1401 4.86597 9.85801 5.95959 9.48997 7.0413C8.84201 8.94568 7.89143 10.9299 6.39208 12.2849C6.05062 12.5935 5.52366 12.5668 5.21508 12.2254C4.90649 11.8839 4.93314 11.3569 5.2746 11.0484C6.45859 9.97835 7.29551 8.31672 7.91213 6.50444C8.44429 4.94039 8.78543 3.3511 9.063 2.05797C9.10528 1.86098 9.14609 1.67087 9.18587 1.48876C9.25656 1.16521 9.51214 0.914215 9.83692 0.8494Z" fill="black"/>
<path fill-rule="evenodd" clip-rule="evenodd" d="M9.27306 1.2593C9.42045 0.996193 9.6985 0.833252 10.0001 0.833252C12.6079 0.833252 14.8719 1.89787 16.4782 3.20968C17.2826 3.86654 17.9396 4.59925 18.4017 5.31913C18.8517 6.02011 19.1667 6.78732 19.1667 7.49992C19.1667 7.96016 18.7937 8.33325 18.3334 8.33325C16.3768 8.33325 14.7165 7.79608 13.2303 6.71696C11.7653 5.65329 10.5075 4.09079 9.28943 2.1018C9.13192 1.84462 9.12566 1.52241 9.27306 1.2593ZM11.6633 2.67595C12.4985 3.84185 13.3301 4.72983 14.2095 5.3683C15.1138 6.02489 16.0896 6.43295 17.2155 6.59131C17.1548 6.47445 17.0832 6.35028 16.9992 6.21951C16.6423 5.66361 16.1082 5.05934 15.424 4.50057C14.419 3.67985 13.1282 2.98718 11.6633 2.67595Z" fill="black"/>
</g>
<defs>
<clipPath id="clip0_2001_5460">
<rect width="20" height="20" fill="white"/>
</clipPath>
</defs>
</svg>
