<svg width="20" height="20" viewBox="0 0 20 20" fill="none" xmlns="http://www.w3.org/2000/svg">
<path fill-rule="evenodd" clip-rule="evenodd" d="M8.08926 5.24408C8.41469 5.56951 8.41469 6.09715 8.08926 6.42259L4.51184 10L8.08926 13.5774C8.41469 13.9028 8.41469 14.4305 8.08926 14.7559C7.76382 15.0814 7.23618 15.0814 6.91074 14.7559L2.74408 10.5893C2.41864 10.2638 2.41864 9.73618 2.74408 9.41074L6.91074 5.24408C7.23618 4.91864 7.76382 4.91864 8.08926 5.24408Z" fill="black"/>
<path fill-rule="evenodd" clip-rule="evenodd" d="M11.9108 5.24408C12.2363 4.91864 12.7639 4.91864 13.0893 5.24408L17.256 9.41074C17.5814 9.73618 17.5814 10.2638 17.256 10.5893L13.0893 14.7559C12.7639 15.0814 12.2363 15.0814 11.9108 14.7559C11.5854 14.4305 11.5854 13.9028 11.9108 13.5774L15.4882 10L11.9108 6.42259C11.5854 6.09715 11.5854 5.56951 11.9108 5.24408Z" fill="black"/>
</svg>
