<svg width="20" height="20" viewBox="0 0 20 20" fill="none" xmlns="http://www.w3.org/2000/svg">
<path fill-rule="evenodd" clip-rule="evenodd" d="M5.24408 4.41083C5.56951 4.08539 6.09715 4.08539 6.42259 4.41083L11.4226 9.41083C11.748 9.73626 11.748 10.2639 11.4226 10.5893L6.42259 15.5893C6.09715 15.9148 5.56951 15.9148 5.24408 15.5893C4.91864 15.2639 4.91864 14.7363 5.24408 14.4108L9.65482 10.0001L5.24408 5.58934C4.91864 5.2639 4.91864 4.73626 5.24408 4.41083Z" fill="black"/>
<path fill-rule="evenodd" clip-rule="evenodd" d="M14.1666 4.16675C14.6268 4.16675 14.9999 4.53984 14.9999 5.00008V15.0001C14.9999 15.4603 14.6268 15.8334 14.1666 15.8334C13.7063 15.8334 13.3333 15.4603 13.3333 15.0001V5.00008C13.3333 4.53984 13.7063 4.16675 14.1666 4.16675Z" fill="black"/>
</svg>
