<svg width="20" height="20" viewBox="0 0 20 20" fill="none" xmlns="http://www.w3.org/2000/svg">
<path fill-rule="evenodd" clip-rule="evenodd" d="M14.7558 4.41083C15.0813 4.73626 15.0813 5.2639 14.7558 5.58934L10.3451 10.0001L14.7558 14.4108C15.0813 14.7363 15.0813 15.2639 14.7558 15.5893C14.4304 15.9148 13.9028 15.9148 13.5773 15.5893L8.57733 10.5893C8.25189 10.2639 8.25189 9.73626 8.57733 9.41083L13.5773 4.41083C13.9028 4.08539 14.4304 4.08539 14.7558 4.41083Z" fill="black"/>
<path fill-rule="evenodd" clip-rule="evenodd" d="M5.83333 4.16675C6.29357 4.16675 6.66667 4.53984 6.66667 5.00008V15.0001C6.66667 15.4603 6.29357 15.8334 5.83333 15.8334C5.3731 15.8334 5 15.4603 5 15.0001V5.00008C5 4.53984 5.3731 4.16675 5.83333 4.16675Z" fill="black"/>
</svg>
