<svg width="20" height="20" viewBox="0 0 20 20" fill="none" xmlns="http://www.w3.org/2000/svg">
<path fill-rule="evenodd" clip-rule="evenodd" d="M14.4108 6.07733C14.7363 5.75189 15.2639 5.75189 15.5893 6.07733L18.9227 9.41066C19.2481 9.7361 19.2481 10.2637 18.9227 10.5892L15.5893 13.9225C15.2639 14.2479 14.7363 14.2479 14.4108 13.9225C14.0854 13.5971 14.0854 13.0694 14.4108 12.744L17.1549 9.99992L14.4108 7.25584C14.0854 6.9304 14.0854 6.40277 14.4108 6.07733Z" fill="black"/>
<path fill-rule="evenodd" clip-rule="evenodd" d="M5.58917 6.07733C5.91461 6.40277 5.91461 6.9304 5.58917 7.25584L2.8451 9.99992L5.58917 12.744C5.91461 13.0694 5.91461 13.5971 5.58917 13.9225C5.26374 14.2479 4.7361 14.2479 4.41066 13.9225L1.07733 10.5892C0.751893 10.2637 0.751893 9.7361 1.07733 9.41066L4.41066 6.07733C4.7361 5.75189 5.26374 5.75189 5.58917 6.07733Z" fill="black"/>
<path fill-rule="evenodd" clip-rule="evenodd" d="M5.83325 10.0001C5.83325 9.53984 6.20635 9.16675 6.66659 9.16675H6.67492C7.13516 9.16675 7.50825 9.53984 7.50825 10.0001C7.50825 10.4603 7.13516 10.8334 6.67492 10.8334H6.66659C6.20635 10.8334 5.83325 10.4603 5.83325 10.0001Z" fill="black"/>
<path fill-rule="evenodd" clip-rule="evenodd" d="M9.16675 10.0001C9.16675 9.53984 9.53984 9.16675 10.0001 9.16675H10.0084C10.4687 9.16675 10.8417 9.53984 10.8417 10.0001C10.8417 10.4603 10.4687 10.8334 10.0084 10.8334H10.0001C9.53984 10.8334 9.16675 10.4603 9.16675 10.0001Z" fill="black"/>
<path fill-rule="evenodd" clip-rule="evenodd" d="M12.5 10.0001C12.5 9.53984 12.8731 9.16675 13.3333 9.16675H13.3417C13.8019 9.16675 14.175 9.53984 14.175 10.0001C14.175 10.4603 13.8019 10.8334 13.3417 10.8334H13.3333C12.8731 10.8334 12.5 10.4603 12.5 10.0001Z" fill="black"/>
</svg>
