<svg width="20" height="20" viewBox="0 0 20 20" fill="none" xmlns="http://www.w3.org/2000/svg">
<path fill-rule="evenodd" clip-rule="evenodd" d="M9.41074 4.41083C9.73618 4.08539 10.2638 4.08539 10.5893 4.41083L14.7559 8.57749C15.0814 8.90293 15.0814 9.43057 14.7559 9.756C14.4305 10.0814 13.9028 10.0814 13.5774 9.756L10 6.17859L6.42259 9.756C6.09715 10.0814 5.56951 10.0814 5.24408 9.756C4.91864 9.43057 4.91864 8.90293 5.24408 8.57749L9.41074 4.41083Z" fill="black"/>
<path fill-rule="evenodd" clip-rule="evenodd" d="M9.41074 10.2441C9.73618 9.91864 10.2638 9.91864 10.5893 10.2441L14.7559 14.4107C15.0814 14.7362 15.0814 15.2638 14.7559 15.5893C14.4305 15.9147 13.9028 15.9147 13.5774 15.5893L10 12.0118L6.42259 15.5893C6.09715 15.9147 5.56951 15.9147 5.24408 15.5893C4.91864 15.2638 4.91864 14.7362 5.24408 14.4107L9.41074 10.2441Z" fill="black"/>
</svg>
