<svg width="20" height="20" viewBox="0 0 20 20" fill="none" xmlns="http://www.w3.org/2000/svg">
<path fill-rule="evenodd" clip-rule="evenodd" d="M5.24408 4.41083C5.56951 4.08539 6.09715 4.08539 6.42259 4.41083L10 7.98824L13.5774 4.41083C13.9028 4.08539 14.4305 4.08539 14.7559 4.41083C15.0814 4.73626 15.0814 5.2639 14.7559 5.58934L10.5893 9.756C10.2638 10.0814 9.73618 10.0814 9.41074 9.756L5.24408 5.58934C4.91864 5.2639 4.91864 4.73626 5.24408 4.41083Z" fill="black"/>
<path fill-rule="evenodd" clip-rule="evenodd" d="M5.24408 10.2441C5.56951 9.91864 6.09715 9.91864 6.42259 10.2441L10 13.8215L13.5774 10.2441C13.9028 9.91864 14.4305 9.91864 14.7559 10.2441C15.0814 10.5695 15.0814 11.0972 14.7559 11.4226L10.5893 15.5893C10.2638 15.9147 9.73618 15.9147 9.41074 15.5893L5.24408 11.4226C4.91864 11.0972 4.91864 10.5695 5.24408 10.2441Z" fill="black"/>
</svg>
