<svg width="20" height="20" viewBox="0 0 20 20" fill="none" xmlns="http://www.w3.org/2000/svg">
<path fill-rule="evenodd" clip-rule="evenodd" d="M9.41074 11.9108C9.73618 11.5854 10.2638 11.5854 10.5893 11.9108L14.7559 16.0775C15.0814 16.4029 15.0814 16.9306 14.7559 17.256C14.4305 17.5814 13.9028 17.5814 13.5774 17.256L10 13.6786L6.42259 17.256C6.09715 17.5814 5.56951 17.5814 5.24408 17.256C4.91864 16.9306 4.91864 16.4029 5.24408 16.0775L9.41074 11.9108Z" fill="black"/>
<path fill-rule="evenodd" clip-rule="evenodd" d="M5.24408 2.74408C5.56951 2.41864 6.09715 2.41864 6.42259 2.74408L10 6.32149L13.5774 2.74408C13.9028 2.41864 14.4305 2.41864 14.7559 2.74408C15.0814 3.06951 15.0814 3.59715 14.7559 3.92259L10.5893 8.08926C10.2638 8.41469 9.73618 8.41469 9.41074 8.08926L5.24408 3.92259C4.91864 3.59715 4.91864 3.06951 5.24408 2.74408Z" fill="black"/>
</svg>
