<svg width="20" height="20" viewBox="0 0 20 20" fill="none" xmlns="http://www.w3.org/2000/svg">
<path fill-rule="evenodd" clip-rule="evenodd" d="M17.256 5.24408C17.5814 5.56951 17.5814 6.09715 17.256 6.42259L13.6786 10L17.256 13.5774C17.5814 13.9028 17.5814 14.4305 17.256 14.7559C16.9306 15.0814 16.4029 15.0814 16.0775 14.7559L11.9108 10.5893C11.5854 10.2638 11.5854 9.73618 11.9108 9.41074L16.0775 5.24408C16.4029 4.91864 16.9306 4.91864 17.256 5.24408Z" fill="black"/>
<path fill-rule="evenodd" clip-rule="evenodd" d="M2.74408 5.24408C3.06951 4.91864 3.59715 4.91864 3.92259 5.24408L8.08926 9.41074C8.41469 9.73618 8.41469 10.2638 8.08926 10.5893L3.92259 14.7559C3.59715 15.0814 3.06951 15.0814 2.74408 14.7559C2.41864 14.4305 2.41864 13.9028 2.74408 13.5774L6.32149 10L2.74408 6.42259C2.41864 6.09715 2.41864 5.56951 2.74408 5.24408Z" fill="black"/>
</svg>
