<svg width="20" height="20" viewBox="0 0 20 20" fill="none" xmlns="http://www.w3.org/2000/svg">
<g clip-path="url(#clip0_2001_5509)">
<path fill-rule="evenodd" clip-rule="evenodd" d="M9.99992 2.49992C5.85778 2.49992 2.49992 5.85778 2.49992 9.99992C2.49992 14.1421 5.85778 17.4999 9.99992 17.4999C14.1421 17.4999 17.4999 14.1421 17.4999 9.99992C17.4999 5.85778 14.1421 2.49992 9.99992 2.49992ZM0.833252 9.99992C0.833252 4.93731 4.93731 0.833252 9.99992 0.833252C15.0625 0.833252 19.1666 4.93731 19.1666 9.99992C19.1666 15.0625 15.0625 19.1666 9.99992 19.1666C4.93731 19.1666 0.833252 15.0625 0.833252 9.99992Z" fill="black"/>
<path fill-rule="evenodd" clip-rule="evenodd" d="M9.99992 7.49992C8.61921 7.49992 7.49992 8.61921 7.49992 9.99992C7.49992 11.3806 8.61921 12.4999 9.99992 12.4999C11.3806 12.4999 12.4999 11.3806 12.4999 9.99992C12.4999 8.61921 11.3806 7.49992 9.99992 7.49992ZM5.83325 9.99992C5.83325 7.69873 7.69873 5.83325 9.99992 5.83325C12.3011 5.83325 14.1666 7.69873 14.1666 9.99992C14.1666 12.3011 12.3011 14.1666 9.99992 14.1666C7.69873 14.1666 5.83325 12.3011 5.83325 9.99992Z" fill="black"/>
<path fill-rule="evenodd" clip-rule="evenodd" d="M9.16675 6.66659C9.16675 6.20635 9.53984 5.83325 10.0001 5.83325H17.6417C18.102 5.83325 18.4751 6.20635 18.4751 6.66659C18.4751 7.12682 18.102 7.49992 17.6417 7.49992H10.0001C9.53984 7.49992 9.16675 7.12682 9.16675 6.66659Z" fill="black"/>
<path fill-rule="evenodd" clip-rule="evenodd" d="M2.87466 4.32857C3.27311 4.09823 3.78284 4.23451 4.01318 4.63296L7.83818 11.2496C8.06852 11.6481 7.93224 12.1578 7.53379 12.3881C7.13534 12.6185 6.6256 12.4822 6.39527 12.0838L2.57027 5.46709C2.33993 5.06864 2.47621 4.55891 2.87466 4.32857Z" fill="black"/>
<path fill-rule="evenodd" clip-rule="evenodd" d="M13.2997 10.9449C13.6983 11.1748 13.8351 11.6844 13.6051 12.0831L9.78848 18.6998C9.55852 19.0984 9.04891 19.2352 8.65024 19.0052C8.25158 18.7753 8.11481 18.2657 8.34478 17.867L12.1614 11.2503C12.3914 10.8517 12.901 10.7149 13.2997 10.9449Z" fill="black"/>
</g>
<defs>
<clipPath id="clip0_2001_5509">
<rect width="20" height="20" fill="white"/>
</clipPath>
</defs>
</svg>
