<svg width="20" height="20" viewBox="0 0 20 20" fill="none" xmlns="http://www.w3.org/2000/svg">
<path fill-rule="evenodd" clip-rule="evenodd" d="M7.5 7.50008C7.5 7.03984 7.8731 6.66675 8.33333 6.66675H11.6667C12.1269 6.66675 12.5 7.03984 12.5 7.50008C12.5 7.96032 12.1269 8.33341 11.6667 8.33341H8.33333C7.8731 8.33341 7.5 7.96032 7.5 7.50008Z" fill="black"/>
<path fill-rule="evenodd" clip-rule="evenodd" d="M10.0001 5C10.4603 5 10.8334 5.3731 10.8334 5.83333V10C10.8334 10.4602 10.4603 10.8333 10.0001 10.8333C9.53984 10.8333 9.16675 10.4602 9.16675 10V5.83333C9.16675 5.3731 9.53984 5 10.0001 5Z" fill="black"/>
<path fill-rule="evenodd" clip-rule="evenodd" d="M8.23223 13.2322C8.70107 12.7634 9.33696 12.5 10 12.5C10.663 12.5 11.2989 12.7634 11.7678 13.2322C12.2366 13.7011 12.5 14.337 12.5 15V18.3333C12.5 18.7936 12.1269 19.1667 11.6667 19.1667C11.2064 19.1667 10.8333 18.7936 10.8333 18.3333V15C10.8333 14.779 10.7455 14.567 10.5893 14.4107C10.433 14.2545 10.221 14.1667 10 14.1667C9.77899 14.1667 9.56703 14.2545 9.41074 14.4107C9.25446 14.567 9.16667 14.779 9.16667 15V18.3333C9.16667 18.7936 8.79357 19.1667 8.33333 19.1667C7.8731 19.1667 7.5 18.7936 7.5 18.3333V15C7.5 14.337 7.76339 13.7011 8.23223 13.2322Z" fill="black"/>
<path fill-rule="evenodd" clip-rule="evenodd" d="M8.88258 1.29369C9.22958 1.1203 9.61217 1.03003 10.0001 1.03003C10.388 1.03003 10.7706 1.1203 11.1176 1.29369L14.9117 3.19119C14.9118 3.19124 14.9119 3.19128 14.912 3.19132C15.1887 3.32964 15.4214 3.54223 15.5842 3.80532C15.7469 4.06848 15.8332 4.37176 15.8334 4.68119V18.3333C15.8334 18.7935 15.4603 19.1666 15.0001 19.1666C14.5398 19.1666 14.1667 18.7935 14.1667 18.3333L14.1667 4.68208L10.3726 2.78458C10.3725 2.78456 10.3725 2.78453 10.3724 2.7845C10.3724 2.78449 10.3724 2.78448 10.3723 2.78446C10.2567 2.72674 10.1293 2.6967 10.0001 2.6967C9.87087 2.6967 9.74343 2.72674 9.62783 2.78446C9.6278 2.78448 9.62777 2.78449 9.62775 2.7845C9.62769 2.78453 9.62764 2.78456 9.62758 2.78458L5.83341 4.68208V18.3333C5.83341 18.7935 5.46032 19.1666 5.00008 19.1666C4.53984 19.1666 4.16675 18.7935 4.16675 18.3333L4.16675 4.68119C4.16691 4.37176 4.25322 4.06848 4.416 3.80532C4.57874 3.54224 4.81148 3.32964 5.08817 3.19132C5.08825 3.19128 5.08833 3.19123 5.08841 3.19119L8.88258 1.29369Z" fill="black"/>
<path fill-rule="evenodd" clip-rule="evenodd" d="M5.74523 5.46051C5.9511 5.87213 5.78431 6.37271 5.37268 6.57858L2.49992 8.01538V16.6666C2.49992 16.8876 2.58772 17.0996 2.744 17.2559C2.90028 17.4121 3.11224 17.4999 3.33325 17.4999H16.6666C16.8876 17.4999 17.0996 17.4121 17.2558 17.2559C17.4121 17.0996 17.4999 16.8876 17.4999 16.6666V8.01538L17.4997 8.01525L14.6272 6.57858C14.2155 6.37271 14.0487 5.87213 14.2546 5.46051C14.4605 5.04888 14.9611 4.88209 15.3727 5.08796L18.2449 6.52449C18.2449 6.52451 18.245 6.52453 18.245 6.52454C18.2451 6.52457 18.2451 6.5246 18.2452 6.52463C18.5219 6.66295 18.7546 6.87554 18.9173 7.13862C19.0801 7.40178 19.1664 7.70506 19.1666 8.01449V16.6666C19.1666 17.3296 18.9032 17.9655 18.4344 18.4344C17.9655 18.9032 17.3296 19.1666 16.6666 19.1666H3.33325C2.67021 19.1666 2.03433 18.9032 1.56549 18.4344C1.09664 17.9655 0.833252 17.3296 0.833252 16.6666L0.833252 8.01449C0.833417 7.70506 0.919724 7.40178 1.08251 7.13862C1.24524 6.87554 1.47797 6.66295 1.75465 6.52463C1.75472 6.52459 1.75479 6.52456 1.75486 6.52453C1.75488 6.52451 1.7549 6.5245 1.75492 6.52449L4.62715 5.08796C5.03878 4.88209 5.53936 5.04888 5.74523 5.46051Z" fill="black"/>
</svg>
