<svg width="20" height="20" viewBox="0 0 20 20" fill="none" xmlns="http://www.w3.org/2000/svg">
<g clip-path="url(#clip0_2001_5521)">
<path fill-rule="evenodd" clip-rule="evenodd" d="M1.32141 9.6549C1.63397 9.34234 2.05789 9.16675 2.49992 9.16675H9.99992C10.4602 9.16675 10.8333 9.53984 10.8333 10.0001C10.8333 10.4603 10.4602 10.8334 9.99992 10.8334L2.49992 10.8334V12.5001H13.3333C13.7935 12.5001 14.1666 12.8732 14.1666 13.3334C14.1666 13.7937 13.7935 14.1667 13.3333 14.1667H2.49992C2.05789 14.1667 1.63397 13.9912 1.32141 13.6786C1.00885 13.366 0.833252 12.9421 0.833252 12.5001V10.8334C0.833252 10.3914 1.00885 9.96746 1.32141 9.6549Z" fill="black"/>
<path fill-rule="evenodd" clip-rule="evenodd" d="M13.3333 1.66675C13.7936 1.66675 14.1667 2.03984 14.1667 2.50008C14.1667 2.89998 14.2445 3.16693 14.345 3.37645C14.4541 3.60372 14.6024 3.79407 14.8174 4.06284C14.823 4.06981 14.8286 4.07685 14.8343 4.08394C15.0338 4.33327 15.2931 4.65712 15.4909 5.06916C15.7028 5.51068 15.8333 6.02498 15.8333 6.66675C15.8333 7.12699 15.4602 7.50008 15 7.50008C14.5398 7.50008 14.1667 7.12699 14.1667 6.66675C14.1667 6.26685 14.0889 5.9999 13.9883 5.79038C13.8792 5.56311 13.731 5.37276 13.5159 5.10399C13.5104 5.09702 13.5047 5.08998 13.499 5.08288C13.2995 4.83356 13.0403 4.50971 12.8425 4.09767C12.6305 3.65615 12.5 3.14185 12.5 2.50008C12.5 2.03984 12.8731 1.66675 13.3333 1.66675Z" fill="black"/>
<path fill-rule="evenodd" clip-rule="evenodd" d="M1.07733 1.07733C1.40277 0.751893 1.9304 0.751893 2.25584 1.07733L18.9225 17.744C19.2479 18.0694 19.2479 18.5971 18.9225 18.9225C18.5971 19.2479 18.0694 19.2479 17.744 18.9225L1.07733 2.25584C0.751893 1.9304 0.751893 1.40277 1.07733 1.07733Z" fill="black"/>
<path fill-rule="evenodd" clip-rule="evenodd" d="M16.6667 10.0001C16.6667 9.53984 17.0398 9.16675 17.5001 9.16675C17.9421 9.16675 18.366 9.34234 18.6786 9.6549C18.9912 9.96747 19.1667 10.3914 19.1667 10.8334V12.5001C19.1667 12.7927 19.0897 13.0801 18.9434 13.3334C18.7972 13.5868 18.5868 13.7972 18.3334 13.9434C17.9348 14.1736 17.4252 14.037 17.1951 13.6384C16.9649 13.2398 17.1015 12.7302 17.5001 12.5001V10.8334C17.0398 10.8334 16.6667 10.4603 16.6667 10.0001Z" fill="black"/>
<path fill-rule="evenodd" clip-rule="evenodd" d="M16.6666 1.66675C17.1268 1.66675 17.4999 2.03984 17.4999 2.50008C17.4999 2.89998 17.5777 3.16693 17.6783 3.37645C17.7874 3.60372 17.9356 3.79407 18.1506 4.06284C18.1562 4.06981 18.1619 4.07685 18.1675 4.08394C18.3671 4.33327 18.6263 4.65712 18.8241 5.06916C19.036 5.51068 19.1666 6.02498 19.1666 6.66675C19.1666 7.12699 18.7935 7.50008 18.3333 7.50008C17.873 7.50008 17.4999 7.12699 17.4999 6.66675C17.4999 6.26685 17.4221 5.9999 17.3216 5.79038C17.2125 5.56311 17.0642 5.37276 16.8492 5.10399C16.8436 5.09702 16.838 5.08998 16.8323 5.08288C16.6327 4.83356 16.3735 4.50971 16.1757 4.09767C15.9638 3.65615 15.8333 3.14185 15.8333 2.50008C15.8333 2.03984 16.2063 1.66675 16.6666 1.66675Z" fill="black"/>
<path fill-rule="evenodd" clip-rule="evenodd" d="M5.83333 9.16675C6.29357 9.16675 6.66667 9.53984 6.66667 10.0001V13.3334C6.66667 13.7937 6.29357 14.1667 5.83333 14.1667C5.3731 14.1667 5 13.7937 5 13.3334V10.0001C5 9.53984 5.3731 9.16675 5.83333 9.16675Z" fill="black"/>
</g>
<defs>
<clipPath id="clip0_2001_5521">
<rect width="20" height="20" fill="white"/>
</clipPath>
</defs>
</svg>
