<svg width="20" height="20" viewBox="0 0 20 20" fill="none" xmlns="http://www.w3.org/2000/svg">
<g clip-path="url(#clip0_2001_5606)">
<path fill-rule="evenodd" clip-rule="evenodd" d="M11.424 2.63448C10.4836 2.45116 9.5166 2.45116 8.57619 2.63448C8.12446 2.72254 7.68687 2.42773 7.5988 1.97599C7.51074 1.52426 7.80556 1.08667 8.25729 0.998608C9.40831 0.774227 10.5918 0.774227 11.7429 0.998608C12.1946 1.08667 12.4894 1.52426 12.4013 1.97599C12.3133 2.42773 11.8757 2.72254 11.424 2.63448Z" fill="black"/>
<path fill-rule="evenodd" clip-rule="evenodd" d="M13.9763 2.62494C14.2341 2.24368 14.7522 2.14359 15.1334 2.40138C16.1076 3.06008 16.9453 3.90088 17.6004 4.87751C17.8568 5.25973 17.7548 5.77741 17.3725 6.03378C16.9903 6.29016 16.4726 6.18814 16.2163 5.80593C15.6808 5.00768 14.9962 4.32045 14.1999 3.78206C13.8186 3.52426 13.7185 3.00621 13.9763 2.62494Z" fill="black"/>
<path fill-rule="evenodd" clip-rule="evenodd" d="M18.0239 7.5988C18.4756 7.51074 18.9132 7.80556 19.0013 8.25729C19.2257 9.40831 19.2257 10.5918 19.0013 11.7429C18.9132 12.1946 18.4756 12.4894 18.0239 12.4013C17.5722 12.3133 17.2773 11.8757 17.3654 11.424C17.5487 10.4836 17.5487 9.5166 17.3654 8.57619C17.2773 8.12446 17.5722 7.68687 18.0239 7.5988Z" fill="black"/>
<path fill-rule="evenodd" clip-rule="evenodd" d="M17.3751 13.9763C17.7564 14.2341 17.8565 14.7522 17.5987 15.1334C16.94 16.1076 16.0992 16.9453 15.1226 17.6004C14.7404 17.8568 14.2227 17.7548 13.9663 17.3725C13.7099 16.9903 13.8119 16.4726 14.1942 16.2163C14.9924 15.6808 15.6796 14.9962 16.218 14.1999C16.4758 13.8186 16.9939 13.7185 17.3751 13.9763Z" fill="black"/>
<path fill-rule="evenodd" clip-rule="evenodd" d="M7.59877 18.0241C7.68675 17.5723 8.12428 17.2774 8.57603 17.3654C9.51656 17.5485 10.4836 17.5485 11.4241 17.3654C11.8759 17.2774 12.3134 17.5723 12.4014 18.0241C12.4893 18.4758 12.1944 18.9133 11.7427 19.0013C10.5918 19.2254 9.40839 19.2254 8.25745 19.0013C7.8057 18.9133 7.5108 18.4758 7.59877 18.0241Z" fill="black"/>
<path fill-rule="evenodd" clip-rule="evenodd" d="M2.62751 13.9663C3.00973 13.7099 3.52741 13.8119 3.78379 14.1942C4.31922 14.9924 5.0039 15.6796 5.80016 16.218C6.18142 16.4758 6.28152 16.9939 6.02373 17.3751C5.76593 17.7564 5.24788 17.8565 4.86661 17.5987C3.89242 16.94 3.05474 16.0992 2.39965 15.1226C2.14328 14.7404 2.24529 14.2227 2.62751 13.9663Z" fill="black"/>
<path fill-rule="evenodd" clip-rule="evenodd" d="M1.97624 7.5988C2.42797 7.68687 2.72279 8.12446 2.63473 8.57619C2.4514 9.5166 2.4514 10.4836 2.63473 11.424C2.72279 11.8757 2.42797 12.3133 1.97624 12.4013C1.5245 12.4894 1.08691 12.1946 0.998853 11.7429C0.774471 10.5918 0.774471 9.40831 0.998853 8.25729C1.08691 7.80556 1.5245 7.51074 1.97624 7.5988Z" fill="black"/>
<path fill-rule="evenodd" clip-rule="evenodd" d="M6.03378 2.62751C6.29016 3.00973 6.18814 3.52741 5.80593 3.78379C5.00767 4.31922 4.32045 5.0039 3.78206 5.80016C3.52426 6.18142 3.00621 6.28152 2.62494 6.02373C2.24368 5.76593 2.14359 5.24788 2.40138 4.86661C3.06008 3.89242 3.90088 3.05474 4.87751 2.39965C5.25973 2.14328 5.77741 2.24529 6.03378 2.62751Z" fill="black"/>
<path fill-rule="evenodd" clip-rule="evenodd" d="M8.33325 9.99992C8.33325 9.07944 9.07944 8.33325 9.99992 8.33325C10.9204 8.33325 11.6666 9.07944 11.6666 9.99992C11.6666 10.9204 10.9204 11.6666 9.99992 11.6666C9.07944 11.6666 8.33325 10.9204 8.33325 9.99992Z" fill="black"/>
</g>
<defs>
<clipPath id="clip0_2001_5606">
<rect width="20" height="20" fill="white"/>
</clipPath>
</defs>
</svg>
