<svg width="20" height="20" viewBox="0 0 20 20" fill="none" xmlns="http://www.w3.org/2000/svg">
<g clip-path="url(#clip0_2001_5636)">
<path fill-rule="evenodd" clip-rule="evenodd" d="M14.098 3.71744C12.8791 2.92268 11.4553 2.49965 10.0002 2.49992C9.54 2.5 9.16683 2.12697 9.16675 1.66674C9.16666 1.2065 9.53969 0.833336 9.99993 0.833252C11.7784 0.832928 13.5185 1.34996 15.0083 2.32133C16.4981 3.2927 17.6731 4.67646 18.3901 6.30395C19.1072 7.93145 19.3354 9.73239 19.0468 11.4873C18.7582 13.2422 17.9654 14.8752 16.7649 16.1874C16.4543 16.527 15.9272 16.5504 15.5876 16.2398C15.248 15.9291 15.2246 15.402 15.5352 15.0624C16.5174 13.9888 17.1661 12.6527 17.4022 11.2169C17.6383 9.78103 17.4516 8.30753 16.865 6.97595C16.2783 5.64436 15.3169 4.51219 14.098 3.71744Z" fill="black"/>
<path fill-rule="evenodd" clip-rule="evenodd" d="M10.0001 5.83325C10.4603 5.83325 10.8334 6.20635 10.8334 6.66659V13.3333C10.8334 13.7935 10.4603 14.1666 10.0001 14.1666C9.53984 14.1666 9.16675 13.7935 9.16675 13.3333V6.66659C9.16675 6.20635 9.53984 5.83325 10.0001 5.83325Z" fill="black"/>
<path fill-rule="evenodd" clip-rule="evenodd" d="M5.83325 10.0001C5.83325 9.53984 6.20635 9.16675 6.66659 9.16675H13.3333C13.7935 9.16675 14.1666 9.53984 14.1666 10.0001C14.1666 10.4603 13.7935 10.8334 13.3333 10.8334H6.66659C6.20635 10.8334 5.83325 10.4603 5.83325 10.0001Z" fill="black"/>
<path fill-rule="evenodd" clip-rule="evenodd" d="M2.34366 6.60421C2.78085 6.74803 3.01867 7.21903 2.87486 7.65622C2.63587 8.38271 2.50941 9.14149 2.49986 9.90622C2.49411 10.3664 2.11638 10.7348 1.65618 10.7291C1.19598 10.7233 0.827571 10.3456 0.833318 9.88541C0.84499 8.95074 0.999555 8.02335 1.29165 7.13541C1.43547 6.69822 1.90647 6.46039 2.34366 6.60421Z" fill="black"/>
<path fill-rule="evenodd" clip-rule="evenodd" d="M2.02626 12.569C2.44835 12.3856 2.93924 12.579 3.12271 13.0011C3.54383 13.97 4.16489 14.839 4.94521 15.5511C5.28515 15.8614 5.30922 16.3884 4.99897 16.7284C4.68872 17.0683 4.16163 17.0924 3.82169 16.7822C2.86797 15.9117 2.1089 14.8497 1.59419 13.6655C1.41072 13.2434 1.60417 12.7525 2.02626 12.569Z" fill="black"/>
<path fill-rule="evenodd" clip-rule="evenodd" d="M5.24103 3.10884C5.53896 3.45963 5.49611 3.98552 5.14532 4.28346C4.90953 4.48372 4.68635 4.69838 4.47707 4.92621C4.16572 5.26515 3.63856 5.28751 3.29962 4.97616C2.96068 4.66482 2.93831 4.13765 3.24966 3.79871C3.50545 3.52026 3.77822 3.25789 4.06641 3.01313C4.4172 2.7152 4.9431 2.75805 5.24103 3.10884Z" fill="black"/>
<path fill-rule="evenodd" clip-rule="evenodd" d="M14.3159 17.177C14.5127 17.593 14.3349 18.0898 13.9189 18.2866C11.7252 19.324 9.20967 19.4492 6.92378 18.6349C6.49023 18.4805 6.26398 18.0038 6.41843 17.5702C6.57288 17.1367 7.04954 16.9104 7.48309 17.0649C9.35336 17.7312 11.4115 17.6287 13.2063 16.7799C13.6224 16.5831 14.1192 16.7609 14.3159 17.177Z" fill="black"/>
</g>
<defs>
<clipPath id="clip0_2001_5636">
<rect width="20" height="20" fill="white"/>
</clipPath>
</defs>
</svg>
