<svg width="20" height="20" viewBox="0 0 20 20" fill="none" xmlns="http://www.w3.org/2000/svg">
<g clip-path="url(#clip0_2001_5683)">
<path fill-rule="evenodd" clip-rule="evenodd" d="M10.0001 5C10.4603 5 10.8334 5.3731 10.8334 5.83333V9.16667C10.8334 9.6269 10.4603 10 10.0001 10C9.53984 10 9.16675 9.6269 9.16675 9.16667V5.83333C9.16675 5.3731 9.53984 5 10.0001 5Z" fill="black"/>
<path fill-rule="evenodd" clip-rule="evenodd" d="M12.8311 6.83182C13.1991 6.55545 13.7215 6.62974 13.9979 6.99776C14.5555 7.74026 14.8953 8.62336 14.9793 9.54812C15.0632 10.4729 14.888 11.4027 14.4733 12.2335C14.0585 13.0643 13.4206 13.7632 12.6311 14.2519C11.8415 14.7405 10.9314 14.9997 10.0029 15.0003C9.07432 15.0008 8.16395 14.7428 7.37376 14.2552C6.58358 13.7675 5.9448 13.0694 5.52902 12.2391C5.11324 11.4089 4.93687 10.4792 5.01968 9.55434C5.10249 8.62948 5.44121 7.74596 5.99788 7.00276C6.2738 6.6344 6.79608 6.55945 7.16445 6.83536C7.53281 7.11128 7.60775 7.63356 7.33184 8.00193C6.96073 8.49739 6.73492 9.08641 6.67971 9.70298C6.6245 10.3196 6.74208 10.9393 7.01927 11.4928C7.29646 12.0463 7.7223 12.5117 8.24909 12.8369C8.77588 13.162 9.3828 13.334 10.0018 13.3336C10.6209 13.3332 11.2276 13.1604 11.754 12.8347C12.2803 12.5089 12.7056 12.043 12.9821 11.4891C13.2586 10.9352 13.3754 10.3153 13.3194 9.69883C13.2635 9.08233 13.0369 8.49359 12.6652 7.99859C12.3888 7.63058 12.4631 7.1082 12.8311 6.83182Z" fill="black"/>
<path fill-rule="evenodd" clip-rule="evenodd" d="M9.99992 2.49992C5.85778 2.49992 2.49992 5.85778 2.49992 9.99992C2.49992 14.1421 5.85778 17.4999 9.99992 17.4999C14.1421 17.4999 17.4999 14.1421 17.4999 9.99992C17.4999 5.85778 14.1421 2.49992 9.99992 2.49992ZM0.833252 9.99992C0.833252 4.93731 4.93731 0.833252 9.99992 0.833252C15.0625 0.833252 19.1666 4.93731 19.1666 9.99992C19.1666 15.0625 15.0625 19.1666 9.99992 19.1666C4.93731 19.1666 0.833252 15.0625 0.833252 9.99992Z" fill="black"/>
</g>
<defs>
<clipPath id="clip0_2001_5683">
<rect width="20" height="20" fill="white"/>
</clipPath>
</defs>
</svg>
