<svg width="20" height="20" viewBox="0 0 20 20" fill="none" xmlns="http://www.w3.org/2000/svg">
<g clip-path="url(#clip0_2001_5579)">
<path fill-rule="evenodd" clip-rule="evenodd" d="M9.99992 2.49992C5.85778 2.49992 2.49992 5.85778 2.49992 9.99992C2.49992 14.1421 5.85778 17.4999 9.99992 17.4999C14.1421 17.4999 17.4999 14.1421 17.4999 9.99992C17.4999 5.85778 14.1421 2.49992 9.99992 2.49992ZM0.833252 9.99992C0.833252 4.93731 4.93731 0.833252 9.99992 0.833252C15.0625 0.833252 19.1666 4.93731 19.1666 9.99992C19.1666 15.0625 15.0625 19.1666 9.99992 19.1666C4.93731 19.1666 0.833252 15.0625 0.833252 9.99992Z" fill="black"/>
<path fill-rule="evenodd" clip-rule="evenodd" d="M12.2559 6.07733C12.5814 6.40277 12.5814 6.9304 12.2559 7.25584L9.51184 9.99992L12.2559 12.744C12.5814 13.0694 12.5814 13.5971 12.2559 13.9225C11.9305 14.2479 11.4028 14.2479 11.0774 13.9225L7.74408 10.5892C7.41864 10.2637 7.41864 9.7361 7.74408 9.41066L11.0774 6.07733C11.4028 5.75189 11.9305 5.75189 12.2559 6.07733Z" fill="black"/>
</g>
<defs>
<clipPath id="clip0_2001_5579">
<rect width="20" height="20" fill="white"/>
</clipPath>
</defs>
</svg>
