<svg width="20" height="20" viewBox="0 0 20 20" fill="none" xmlns="http://www.w3.org/2000/svg">
<g clip-path="url(#clip0_2001_5550)">
<path fill-rule="evenodd" clip-rule="evenodd" d="M12.87 3.07083C11.4996 2.50317 9.9916 2.35464 8.53675 2.64403C7.08189 2.93342 5.74552 3.64773 4.69662 4.69662C3.64773 5.74552 2.93342 7.08189 2.64403 8.53675C2.35464 9.9916 2.50317 11.4996 3.07083 12.87C3.63848 14.2405 4.59978 15.4118 5.83315 16.2359C7.06652 17.0601 8.51656 17.4999 9.99992 17.4999C10.4602 17.4999 10.8333 17.873 10.8333 18.3333C10.8333 18.7935 10.4602 19.1666 9.99992 19.1666C8.18693 19.1666 6.41465 18.629 4.9072 17.6217C3.39975 16.6145 2.22483 15.1828 1.53103 13.5079C0.837224 11.8329 0.655693 9.98976 1.00939 8.2116C1.36309 6.43344 2.23613 4.80009 3.51811 3.51811C4.80009 2.23613 6.43344 1.36309 8.2116 1.00939C9.98976 0.655693 11.8329 0.837224 13.5079 1.53103C15.1828 2.22483 16.6145 3.39975 17.6217 4.9072C18.629 6.41465 19.1666 8.18693 19.1666 9.99992C19.1666 10.4602 18.7935 10.8333 18.3333 10.8333C17.873 10.8333 17.4999 10.4602 17.4999 9.99992C17.4999 8.51656 17.0601 7.06652 16.2359 5.83315C15.4118 4.59978 14.2405 3.63848 12.87 3.07083Z" fill="black"/>
<path fill-rule="evenodd" clip-rule="evenodd" d="M9.41083 9.41083C9.73626 9.08539 10.2639 9.08539 10.5893 9.41083L18.9227 17.7442C19.2481 18.0696 19.2481 18.5972 18.9227 18.9227C18.5972 19.2481 18.0696 19.2481 17.7442 18.9227L9.41083 10.5893C9.08539 10.2639 9.08539 9.73626 9.41083 9.41083Z" fill="black"/>
<path fill-rule="evenodd" clip-rule="evenodd" d="M18.3333 12.5C18.7936 12.5 19.1667 12.8731 19.1667 13.3333V18.3333C19.1667 18.7936 18.7936 19.1667 18.3333 19.1667H13.3333C12.8731 19.1667 12.5 18.7936 12.5 18.3333C12.5 17.8731 12.8731 17.5 13.3333 17.5H17.5V13.3333C17.5 12.8731 17.8731 12.5 18.3333 12.5Z" fill="black"/>
</g>
<defs>
<clipPath id="clip0_2001_5550">
<rect width="20" height="20" fill="white"/>
</clipPath>
</defs>
</svg>
