<svg width="20" height="20" viewBox="0 0 20 20" fill="none" xmlns="http://www.w3.org/2000/svg">
<path fill-rule="evenodd" clip-rule="evenodd" d="M4.16675 3.33341C3.70651 3.33341 3.33341 3.70651 3.33341 4.16675V15.8334C3.33341 16.2937 3.70651 16.6667 4.16675 16.6667H15.8334C16.2937 16.6667 16.6667 16.2937 16.6667 15.8334V4.16675C16.6667 3.70651 16.2937 3.33341 15.8334 3.33341H4.16675ZM1.66675 4.16675C1.66675 2.78604 2.78604 1.66675 4.16675 1.66675H15.8334C17.2141 1.66675 18.3334 2.78604 18.3334 4.16675V15.8334C18.3334 17.2141 17.2141 18.3334 15.8334 18.3334H4.16675C2.78604 18.3334 1.66675 17.2141 1.66675 15.8334V4.16675Z" fill="black"/>
<path fill-rule="evenodd" clip-rule="evenodd" d="M14.1666 1.66675C14.6268 1.66675 14.9999 2.03984 14.9999 2.50008V5.83341C14.9999 6.49646 14.7365 7.13234 14.2677 7.60118C13.7988 8.07002 13.163 8.33341 12.4999 8.33341H9.16659C8.70635 8.33341 8.33325 7.96032 8.33325 7.50008C8.33325 7.03984 8.70635 6.66675 9.16659 6.66675H12.4999C12.7209 6.66675 12.9329 6.57895 13.0892 6.42267C13.2455 6.26639 13.3333 6.05443 13.3333 5.83341V2.50008C13.3333 2.03984 13.7063 1.66675 14.1666 1.66675Z" fill="black"/>
<path fill-rule="evenodd" clip-rule="evenodd" d="M7.5 6.66667C7.03976 6.66667 6.66667 7.03976 6.66667 7.5C6.66667 7.96024 7.03976 8.33333 7.5 8.33333C7.96024 8.33333 8.33333 7.96024 8.33333 7.5C8.33333 7.03976 7.96024 6.66667 7.5 6.66667ZM5 7.5C5 6.11929 6.11929 5 7.5 5C8.88071 5 10 6.11929 10 7.5C10 8.88071 8.88071 10 7.5 10C6.11929 10 5 8.88071 5 7.5Z" fill="black"/>
<path fill-rule="evenodd" clip-rule="evenodd" d="M7.5 13.3334C7.27899 13.3334 7.06702 13.4212 6.91074 13.5775C6.75446 13.7338 6.66667 13.9457 6.66667 14.1667V17.5001C6.66667 17.9603 6.29357 18.3334 5.83333 18.3334C5.3731 18.3334 5 17.9603 5 17.5001V14.1667C5 13.5037 5.26339 12.8678 5.73223 12.399C6.20107 11.9301 6.83696 11.6667 7.5 11.6667H10.8333C11.2936 11.6667 11.6667 12.0398 11.6667 12.5001C11.6667 12.9603 11.2936 13.3334 10.8333 13.3334H7.5Z" fill="black"/>
<path fill-rule="evenodd" clip-rule="evenodd" d="M12.5 11.6667C12.0398 11.6667 11.6667 12.0398 11.6667 12.5C11.6667 12.9602 12.0398 13.3333 12.5 13.3333C12.9602 13.3333 13.3333 12.9602 13.3333 12.5C13.3333 12.0398 12.9602 11.6667 12.5 11.6667ZM10 12.5C10 11.1193 11.1193 10 12.5 10C13.8807 10 15 11.1193 15 12.5C15 13.8807 13.8807 15 12.5 15C11.1193 15 10 13.8807 10 12.5Z" fill="black"/>
</svg>
