<svg width="20" height="20" viewBox="0 0 20 20" fill="none" xmlns="http://www.w3.org/2000/svg">
<g clip-path="url(#clip0_2001_5671)">
<path fill-rule="evenodd" clip-rule="evenodd" d="M9.99992 2.49992C5.85778 2.49992 2.49992 5.85778 2.49992 9.99992C2.49992 14.1421 5.85778 17.4999 9.99992 17.4999C14.1421 17.4999 17.4999 14.1421 17.4999 9.99992C17.4999 5.85778 14.1421 2.49992 9.99992 2.49992ZM0.833252 9.99992C0.833252 4.93731 4.93731 0.833252 9.99992 0.833252C15.0625 0.833252 19.1666 4.93731 19.1666 9.99992C19.1666 15.0625 15.0625 19.1666 9.99992 19.1666C4.93731 19.1666 0.833252 15.0625 0.833252 9.99992Z" fill="black"/>
<path fill-rule="evenodd" clip-rule="evenodd" d="M13.0893 6.91083C13.4148 7.23626 13.4148 7.7639 13.0893 8.08934L8.08934 13.0893C7.7639 13.4148 7.23626 13.4148 6.91083 13.0893C6.58539 12.7639 6.58539 12.2363 6.91083 11.9108L11.9108 6.91083C12.2363 6.58539 12.7639 6.58539 13.0893 6.91083Z" fill="black"/>
<path fill-rule="evenodd" clip-rule="evenodd" d="M6.66675 7.50008C6.66675 7.03984 7.03984 6.66675 7.50008 6.66675H7.50841C7.96865 6.66675 8.34175 7.03984 8.34175 7.50008C8.34175 7.96032 7.96865 8.33341 7.50841 8.33341H7.50008C7.03984 8.33341 6.66675 7.96032 6.66675 7.50008Z" fill="black"/>
<path fill-rule="evenodd" clip-rule="evenodd" d="M11.6667 12.5001C11.6667 12.0398 12.0398 11.6667 12.5001 11.6667H12.5084C12.9687 11.6667 13.3417 12.0398 13.3417 12.5001C13.3417 12.9603 12.9687 13.3334 12.5084 13.3334H12.5001C12.0398 13.3334 11.6667 12.9603 11.6667 12.5001Z" fill="black"/>
</g>
<defs>
<clipPath id="clip0_2001_5671">
<rect width="20" height="20" fill="white"/>
</clipPath>
</defs>
</svg>
