<svg width="20" height="20" viewBox="0 0 20 20" fill="none" xmlns="http://www.w3.org/2000/svg">
<g clip-path="url(#clip0_2001_5576)">
<path fill-rule="evenodd" clip-rule="evenodd" d="M9.99992 2.49992C5.85778 2.49992 2.49992 5.85778 2.49992 9.99992C2.49992 14.1421 5.85778 17.4999 9.99992 17.4999C14.1421 17.4999 17.4999 14.1421 17.4999 9.99992C17.4999 5.85778 14.1421 2.49992 9.99992 2.49992ZM0.833252 9.99992C0.833252 4.93731 4.93731 0.833252 9.99992 0.833252C15.0625 0.833252 19.1666 4.93731 19.1666 9.99992C19.1666 15.0625 15.0625 19.1666 9.99992 19.1666C4.93731 19.1666 0.833252 15.0625 0.833252 9.99992Z" fill="black"/>
<path fill-rule="evenodd" clip-rule="evenodd" d="M6.07733 7.74408C6.40277 7.41864 6.9304 7.41864 7.25584 7.74408L9.99992 10.4882L12.744 7.74408C13.0694 7.41864 13.5971 7.41864 13.9225 7.74408C14.2479 8.06951 14.2479 8.59715 13.9225 8.92259L10.5892 12.2559C10.2637 12.5814 9.7361 12.5814 9.41066 12.2559L6.07733 8.92259C5.75189 8.59715 5.75189 8.06951 6.07733 7.74408Z" fill="black"/>
</g>
<defs>
<clipPath id="clip0_2001_5576">
<rect width="20" height="20" fill="white"/>
</clipPath>
</defs>
</svg>
