<svg width="20" height="20" viewBox="0 0 20 20" fill="none" xmlns="http://www.w3.org/2000/svg">
<g clip-path="url(#clip0_2001_5554)">
<path fill-rule="evenodd" clip-rule="evenodd" d="M0.833252 1.66659C0.833252 1.20635 1.20635 0.833252 1.66659 0.833252H6.66658C7.12682 0.833252 7.49992 1.20635 7.49992 1.66659C7.49992 2.12682 7.12682 2.49992 6.66658 2.49992H2.49992V6.66658C2.49992 7.12682 2.12682 7.49992 1.66659 7.49992C1.20635 7.49992 0.833252 7.12682 0.833252 6.66658V1.66659Z" fill="black"/>
<path fill-rule="evenodd" clip-rule="evenodd" d="M1.07733 1.07733C1.40277 0.751893 1.9304 0.751893 2.25584 1.07733L10.5892 9.41066C10.9146 9.7361 10.9146 10.2637 10.5892 10.5892C10.2637 10.9146 9.7361 10.9146 9.41066 10.5892L1.07733 2.25584C0.751893 1.9304 0.751893 1.40277 1.07733 1.07733Z" fill="black"/>
<path fill-rule="evenodd" clip-rule="evenodd" d="M9.16659 1.66659C9.16659 1.20635 9.53968 0.833252 9.99992 0.833252C11.8129 0.833252 13.5852 1.37087 15.0926 2.37811C16.6001 3.38536 17.775 4.817 18.4688 6.49199C19.1626 8.16698 19.3442 10.0101 18.9905 11.7882C18.6368 13.5664 17.7637 15.1998 16.4817 16.4817C15.1998 17.7637 13.5664 18.6368 11.7882 18.9905C10.0101 19.3442 8.16698 19.1626 6.49199 18.4688C4.817 17.775 3.38536 16.6001 2.37811 15.0926C1.37087 13.5852 0.833252 11.8129 0.833252 9.99992C0.833252 9.53968 1.20635 9.16659 1.66659 9.16659C2.12682 9.16659 2.49992 9.53968 2.49992 9.99992C2.49992 11.4833 2.93979 12.9333 3.7639 14.1667C4.58801 15.4001 5.75935 16.3614 7.12979 16.929C8.50024 17.4967 10.0082 17.6452 11.4631 17.3558C12.918 17.0664 14.2543 16.3521 15.3032 15.3032C16.3521 14.2543 17.0664 12.918 17.3558 11.4631C17.6452 10.0082 17.4967 8.50024 16.929 7.12979C16.3614 5.75935 15.4001 4.58801 14.1667 3.7639C12.9333 2.93979 11.4833 2.49992 9.99992 2.49992C9.53968 2.49992 9.16659 2.12682 9.16659 1.66659Z" fill="black"/>
</g>
<defs>
<clipPath id="clip0_2001_5554">
<rect width="20" height="20" fill="white"/>
</clipPath>
</defs>
</svg>
