<svg width="20" height="20" viewBox="0 0 20 20" fill="none" xmlns="http://www.w3.org/2000/svg">
<g clip-path="url(#clip0_2001_5704)">
<path fill-rule="evenodd" clip-rule="evenodd" d="M9.99992 2.49992C5.85778 2.49992 2.49992 5.85778 2.49992 9.99992C2.49992 14.1421 5.85778 17.4999 9.99992 17.4999C14.1421 17.4999 17.4999 14.1421 17.4999 9.99992C17.4999 5.85778 14.1421 2.49992 9.99992 2.49992ZM0.833252 9.99992C0.833252 4.93731 4.93731 0.833252 9.99992 0.833252C15.0625 0.833252 19.1666 4.93731 19.1666 9.99992C19.1666 15.0625 15.0625 19.1666 9.99992 19.1666C4.93731 19.1666 0.833252 15.0625 0.833252 9.99992Z" fill="black"/>
<path fill-rule="evenodd" clip-rule="evenodd" d="M13.0893 6.91083C13.4148 7.23626 13.4148 7.7639 13.0893 8.08934L8.08934 13.0893C7.7639 13.4148 7.23626 13.4148 6.91083 13.0893C6.58539 12.7639 6.58539 12.2363 6.91083 11.9108L11.9108 6.91083C12.2363 6.58539 12.7639 6.58539 13.0893 6.91083Z" fill="black"/>
<path fill-rule="evenodd" clip-rule="evenodd" d="M6.91083 6.91083C7.23626 6.58539 7.7639 6.58539 8.08934 6.91083L13.0893 11.9108C13.4148 12.2363 13.4148 12.7639 13.0893 13.0893C12.7639 13.4148 12.2363 13.4148 11.9108 13.0893L6.91083 8.08934C6.58539 7.7639 6.58539 7.23626 6.91083 6.91083Z" fill="black"/>
</g>
<defs>
<clipPath id="clip0_2001_5704">
<rect width="20" height="20" fill="white"/>
</clipPath>
</defs>
</svg>
