<svg width="20" height="20" viewBox="0 0 20 20" fill="none" xmlns="http://www.w3.org/2000/svg">
<g clip-path="url(#clip0_2001_5558)">
<path fill-rule="evenodd" clip-rule="evenodd" d="M9.99992 2.49992C8.51656 2.49992 7.06651 2.93979 5.83315 3.7639C4.59978 4.58801 3.63848 5.75935 3.07083 7.12979C2.50317 8.50024 2.35464 10.0082 2.64403 11.4631C2.93342 12.918 3.64773 14.2543 4.69662 15.3032C5.74552 16.3521 7.08189 17.0664 8.53675 17.3558C9.9916 17.6452 11.4996 17.4967 12.87 16.929C14.2405 16.3614 15.4118 15.4001 16.2359 14.1667C17.0601 12.9333 17.4999 11.4833 17.4999 9.99992C17.4999 9.53968 17.873 9.16659 18.3333 9.16659C18.7935 9.16659 19.1666 9.53968 19.1666 9.99992C19.1666 11.8129 18.629 13.5852 17.6217 15.0926C16.6145 16.6001 15.1828 17.775 13.5079 18.4688C11.8329 19.1626 9.98976 19.3442 8.2116 18.9905C6.43344 18.6368 4.80009 17.7637 3.51811 16.4817C2.23613 15.1998 1.36309 13.5664 1.00939 11.7882C0.655693 10.0101 0.837224 8.16698 1.53103 6.49199C2.22483 4.817 3.39974 3.38536 4.9072 2.37811C6.41465 1.37087 8.18693 0.833252 9.99992 0.833252C10.4602 0.833252 10.8333 1.20635 10.8333 1.66659C10.8333 2.12682 10.4602 2.49992 9.99992 2.49992Z" fill="black"/>
<path fill-rule="evenodd" clip-rule="evenodd" d="M18.9227 1.07733C19.2481 1.40277 19.2481 1.9304 18.9227 2.25584L10.5893 10.5892C10.2639 10.9146 9.73626 10.9146 9.41083 10.5892C9.08539 10.2637 9.08539 9.7361 9.41083 9.41066L17.7442 1.07733C18.0696 0.751893 18.5972 0.751893 18.9227 1.07733Z" fill="black"/>
<path fill-rule="evenodd" clip-rule="evenodd" d="M12.5 1.66659C12.5 1.20635 12.8731 0.833252 13.3333 0.833252H18.3333C18.7936 0.833252 19.1667 1.20635 19.1667 1.66659V6.66658C19.1667 7.12682 18.7936 7.49992 18.3333 7.49992C17.8731 7.49992 17.5 7.12682 17.5 6.66658V2.49992H13.3333C12.8731 2.49992 12.5 2.12682 12.5 1.66659Z" fill="black"/>
</g>
<defs>
<clipPath id="clip0_2001_5558">
<rect width="20" height="20" fill="white"/>
</clipPath>
</defs>
</svg>
