<svg width="20" height="20" viewBox="0 0 20 20" fill="none" xmlns="http://www.w3.org/2000/svg">
<g clip-path="url(#clip0_2001_5538)">
<path fill-rule="evenodd" clip-rule="evenodd" d="M9.99992 2.49992C5.85778 2.49992 2.49992 5.85778 2.49992 9.99992C2.49992 14.1421 5.85778 17.4999 9.99992 17.4999C14.1421 17.4999 17.4999 14.1421 17.4999 9.99992C17.4999 5.85778 14.1421 2.49992 9.99992 2.49992ZM0.833252 9.99992C0.833252 4.93731 4.93731 0.833252 9.99992 0.833252C15.0625 0.833252 19.1666 4.93731 19.1666 9.99992C19.1666 15.0625 15.0625 19.1666 9.99992 19.1666C4.93731 19.1666 0.833252 15.0625 0.833252 9.99992Z" fill="black"/>
<path fill-rule="evenodd" clip-rule="evenodd" d="M10.0001 5.83325C10.4603 5.83325 10.8334 6.20635 10.8334 6.66659V13.3333C10.8334 13.7935 10.4603 14.1666 10.0001 14.1666C9.53984 14.1666 9.16675 13.7935 9.16675 13.3333V6.66659C9.16675 6.20635 9.53984 5.83325 10.0001 5.83325Z" fill="black"/>
<path fill-rule="evenodd" clip-rule="evenodd" d="M6.07733 9.41083C6.40277 9.08539 6.9304 9.08539 7.25584 9.41083L9.99992 12.1549L12.744 9.41083C13.0694 9.08539 13.5971 9.08539 13.9225 9.41083C14.2479 9.73626 14.2479 10.2639 13.9225 10.5893L10.5892 13.9227C10.2637 14.2481 9.7361 14.2481 9.41066 13.9227L6.07733 10.5893C5.75189 10.2639 5.75189 9.73626 6.07733 9.41083Z" fill="black"/>
</g>
<defs>
<clipPath id="clip0_2001_5538">
<rect width="20" height="20" fill="white"/>
</clipPath>
</defs>
</svg>
