<svg width="20" height="20" viewBox="0 0 20 20" fill="none" xmlns="http://www.w3.org/2000/svg">
<g clip-path="url(#clip0_2001_5696)">
<path fill-rule="evenodd" clip-rule="evenodd" d="M5.87529 12.5418C6.96925 11.4478 8.45299 10.8333 10.0001 10.8333C11.5472 10.8333 13.0309 11.4478 14.1249 12.5418C15.2188 13.6358 15.8334 15.1195 15.8334 16.6666C15.8334 17.1268 15.4603 17.4999 15.0001 17.4999C14.5398 17.4999 14.1667 17.1268 14.1667 16.6666C14.1667 15.5615 13.7278 14.5017 12.9464 13.7203C12.165 12.9389 11.1052 12.4999 10.0001 12.4999C8.89501 12.4999 7.83521 12.9389 7.0538 13.7203C6.2724 14.5017 5.83341 15.5615 5.83341 16.6666C5.83341 17.1268 5.46032 17.4999 5.00008 17.4999C4.53984 17.4999 4.16675 17.1268 4.16675 16.6666C4.16675 15.1195 4.78133 13.6358 5.87529 12.5418Z" fill="black"/>
<path fill-rule="evenodd" clip-rule="evenodd" d="M9.99992 5.83341C8.61921 5.83341 7.49992 6.9527 7.49992 8.33341C7.49992 9.71413 8.61921 10.8334 9.99992 10.8334C11.3806 10.8334 12.4999 9.71413 12.4999 8.33341C12.4999 6.9527 11.3806 5.83341 9.99992 5.83341ZM5.83325 8.33341C5.83325 6.03223 7.69873 4.16675 9.99992 4.16675C12.3011 4.16675 14.1666 6.03223 14.1666 8.33341C14.1666 10.6346 12.3011 12.5001 9.99992 12.5001C7.69873 12.5001 5.83325 10.6346 5.83325 8.33341Z" fill="black"/>
<path fill-rule="evenodd" clip-rule="evenodd" d="M9.99992 2.49992C5.85778 2.49992 2.49992 5.85778 2.49992 9.99992C2.49992 14.1421 5.85778 17.4999 9.99992 17.4999C14.1421 17.4999 17.4999 14.1421 17.4999 9.99992C17.4999 5.85778 14.1421 2.49992 9.99992 2.49992ZM0.833252 9.99992C0.833252 4.93731 4.93731 0.833252 9.99992 0.833252C15.0625 0.833252 19.1666 4.93731 19.1666 9.99992C19.1666 15.0625 15.0625 19.1666 9.99992 19.1666C4.93731 19.1666 0.833252 15.0625 0.833252 9.99992Z" fill="black"/>
</g>
<defs>
<clipPath id="clip0_2001_5696">
<rect width="20" height="20" fill="white"/>
</clipPath>
</defs>
</svg>
