<svg width="20" height="20" viewBox="0 0 20 20" fill="none" xmlns="http://www.w3.org/2000/svg">
<g clip-path="url(#clip0_2001_5588)">
<path fill-rule="evenodd" clip-rule="evenodd" d="M11.4251 2.63654C10.4838 2.45438 9.51634 2.45438 8.57507 2.63654C8.12322 2.72398 7.68603 2.42857 7.59859 1.97672C7.51114 1.52486 7.80655 1.08768 8.25841 1.00023C9.40885 0.777592 10.5913 0.777592 11.7417 1.00023C12.1936 1.08768 12.489 1.52486 12.4016 1.97672C12.3141 2.42857 11.8769 2.72398 11.4251 2.63654Z" fill="black"/>
<path fill-rule="evenodd" clip-rule="evenodd" d="M7.59859 18.0233C7.68603 17.5714 8.12322 17.276 8.57507 17.3635C9.51634 17.5456 10.4838 17.5456 11.4251 17.3635C11.8769 17.276 12.3141 17.5714 12.4016 18.0233C12.489 18.4752 12.1936 18.9123 11.7417 18.9998C10.5913 19.2224 9.40885 19.2224 8.25841 18.9998C7.80655 18.9123 7.51114 18.4752 7.59859 18.0233Z" fill="black"/>
<path fill-rule="evenodd" clip-rule="evenodd" d="M13.9844 2.6333C14.2425 2.25229 14.7607 2.1527 15.1417 2.41087C16.1147 3.07016 16.9518 3.91041 17.6075 4.88587C17.8643 5.26783 17.7628 5.78562 17.3808 6.04236C16.9988 6.29911 16.481 6.1976 16.2243 5.81563C15.6878 5.01754 15.0029 4.33005 14.2068 3.79063C13.8258 3.53247 13.7262 3.01432 13.9844 2.6333Z" fill="black"/>
<path fill-rule="evenodd" clip-rule="evenodd" d="M1.97672 7.59859C2.42857 7.68603 2.72398 8.12322 2.63654 8.57507C2.45438 9.51634 2.45438 10.4838 2.63654 11.4251C2.72398 11.8769 2.42857 12.3141 1.97672 12.4016C1.52486 12.489 1.08768 12.1936 1.00023 11.7417C0.777592 10.5913 0.777592 9.40885 1.00023 8.25841C1.08768 7.80655 1.52486 7.51114 1.97672 7.59859Z" fill="black"/>
<path fill-rule="evenodd" clip-rule="evenodd" d="M17.3665 13.9844C17.7475 14.2425 17.8471 14.7607 17.589 15.1417C16.9297 16.1147 16.0894 16.9518 15.114 17.6075C14.732 17.8643 14.2142 17.7628 13.9575 17.3808C13.7007 16.9988 13.8022 16.481 14.1842 16.2243C14.9823 15.6878 15.6698 15.0029 16.2092 14.2068C16.4674 13.8258 16.9855 13.7262 17.3665 13.9844Z" fill="black"/>
<path fill-rule="evenodd" clip-rule="evenodd" d="M18.0233 7.59859C18.4752 7.51114 18.9123 7.80655 18.9998 8.25841C19.2224 9.40885 19.2224 10.5913 18.9998 11.7417C18.9123 12.1936 18.4752 12.489 18.0233 12.4016C17.5714 12.3141 17.276 11.8769 17.3635 11.4251C17.5456 10.4838 17.5456 9.51634 17.3635 8.57507C17.276 8.12322 17.5714 7.68603 18.0233 7.59859Z" fill="black"/>
<path fill-rule="evenodd" clip-rule="evenodd" d="M6.04236 2.61927C6.29911 3.00124 6.1976 3.51902 5.81563 3.77576C5.01753 4.31222 4.33005 4.99716 3.79063 5.79326C3.53247 6.17428 3.01432 6.27386 2.6333 6.0157C2.25229 5.75754 2.1527 5.23938 2.41087 4.85837C3.07016 3.88536 3.91041 3.04821 4.88587 2.39254C5.26783 2.13579 5.78562 2.2373 6.04236 2.61927Z" fill="black"/>
<path fill-rule="evenodd" clip-rule="evenodd" d="M2.61927 13.9575C3.00124 13.7007 3.51902 13.8022 3.77576 14.1842C4.31222 14.9823 4.99716 15.6698 5.79326 16.2092C6.17428 16.4674 6.27386 16.9855 6.0157 17.3665C5.75754 17.7475 5.23938 17.8471 4.85837 17.589C3.88536 16.9297 3.04821 16.0894 2.39254 15.114C2.13579 14.732 2.2373 14.2142 2.61927 13.9575Z" fill="black"/>
</g>
<defs>
<clipPath id="clip0_2001_5588">
<rect width="20" height="20" fill="white"/>
</clipPath>
</defs>
</svg>
