<svg width="20" height="20" viewBox="0 0 20 20" fill="none" xmlns="http://www.w3.org/2000/svg">
<g clip-path="url(#clip0_2001_5700)">
<path fill-rule="evenodd" clip-rule="evenodd" d="M9.99992 2.49992C5.85778 2.49992 2.49992 5.85778 2.49992 9.99992C2.49992 14.1421 5.85778 17.4999 9.99992 17.4999C14.1421 17.4999 17.4999 14.1421 17.4999 9.99992C17.4999 5.85778 14.1421 2.49992 9.99992 2.49992ZM0.833252 9.99992C0.833252 4.93731 4.93731 0.833252 9.99992 0.833252C15.0625 0.833252 19.1666 4.93731 19.1666 9.99992C19.1666 15.0625 15.0625 19.1666 9.99992 19.1666C4.93731 19.1666 0.833252 15.0625 0.833252 9.99992Z" fill="black"/>
<path fill-rule="evenodd" clip-rule="evenodd" d="M10.0001 6.66667C9.07961 6.66667 8.33341 7.41286 8.33341 8.33333C8.33341 9.25381 9.07961 10 10.0001 10C10.9206 10 11.6667 9.25381 11.6667 8.33333C11.6667 7.41286 10.9206 6.66667 10.0001 6.66667ZM6.66675 8.33333C6.66675 6.49238 8.15913 5 10.0001 5C11.841 5 13.3334 6.49238 13.3334 8.33333C13.3334 10.1743 11.841 11.6667 10.0001 11.6667C8.15913 11.6667 6.66675 10.1743 6.66675 8.33333Z" fill="black"/>
<path fill-rule="evenodd" clip-rule="evenodd" d="M7.5 14.9999C7.27899 14.9999 7.06702 15.0877 6.91074 15.244C6.75446 15.4003 6.66667 15.6122 6.66667 15.8333V17.2183C6.66667 17.6785 6.29357 18.0516 5.83333 18.0516C5.3731 18.0516 5 17.6785 5 17.2183V15.8333C5 15.1702 5.26339 14.5343 5.73223 14.0655C6.20107 13.5966 6.83696 13.3333 7.5 13.3333H12.5C13.163 13.3333 13.7989 13.5966 14.2678 14.0655C14.7366 14.5343 15 15.1702 15 15.8333V17.2183C15 17.6785 14.6269 18.0516 14.1667 18.0516C13.7064 18.0516 13.3333 17.6785 13.3333 17.2183V15.8333C13.3333 15.6122 13.2455 15.4003 13.0893 15.244C12.933 15.0877 12.721 14.9999 12.5 14.9999H7.5Z" fill="black"/>
</g>
<defs>
<clipPath id="clip0_2001_5700">
<rect width="20" height="20" fill="white"/>
</clipPath>
</defs>
</svg>
