<svg width="20" height="20" viewBox="0 0 20 20" fill="none" xmlns="http://www.w3.org/2000/svg">
<g clip-path="url(#clip0_2001_5659)">
<path fill-rule="evenodd" clip-rule="evenodd" d="M9.99992 2.49992C5.85778 2.49992 2.49992 5.85778 2.49992 9.99992C2.49992 14.1421 5.85778 17.4999 9.99992 17.4999C14.1421 17.4999 17.4999 14.1421 17.4999 9.99992C17.4999 5.85778 14.1421 2.49992 9.99992 2.49992ZM0.833252 9.99992C0.833252 4.93731 4.93731 0.833252 9.99992 0.833252C15.0625 0.833252 19.1666 4.93731 19.1666 9.99992C19.1666 15.0625 15.0625 19.1666 9.99992 19.1666C4.93731 19.1666 0.833252 15.0625 0.833252 9.99992Z" fill="black"/>
<path fill-rule="evenodd" clip-rule="evenodd" d="M3.57733 3.57733C3.90277 3.25189 4.4304 3.25189 4.75584 3.57733L16.4225 15.244C16.7479 15.5694 16.7479 16.0971 16.4225 16.4225C16.0971 16.7479 15.5694 16.7479 15.244 16.4225L3.57733 4.75584C3.25189 4.4304 3.25189 3.90277 3.57733 3.57733Z" fill="black"/>
<path fill-rule="evenodd" clip-rule="evenodd" d="M6.66675 5.83333C6.66675 5.3731 7.03984 5 7.50008 5H10.8334C11.7175 5 12.5653 5.35119 13.1904 5.97631C13.8156 6.60143 14.1667 7.44928 14.1667 8.33333C14.1667 9.21739 13.8156 10.0652 13.1904 10.6904C12.5653 11.3155 11.7175 11.6667 10.8334 11.6667C10.3732 11.6667 10.0001 11.2936 10.0001 10.8333C10.0001 10.3731 10.3732 10 10.8334 10C11.2754 10 11.6994 9.82441 12.0119 9.51184C12.3245 9.19928 12.5001 8.77536 12.5001 8.33333C12.5001 7.89131 12.3245 7.46738 12.0119 7.15482C11.6994 6.84226 11.2754 6.66667 10.8334 6.66667H8.33341V7.5C8.33341 7.96024 7.96032 8.33333 7.50008 8.33333C7.03984 8.33333 6.66675 7.96024 6.66675 7.5V5.83333Z" fill="black"/>
<path fill-rule="evenodd" clip-rule="evenodd" d="M7.50008 11.3833C7.96032 11.3833 8.33341 11.7564 8.33341 12.2166V14.1666C8.33341 14.6269 7.96032 15 7.50008 15C7.03984 15 6.66675 14.6269 6.66675 14.1666V12.2166C6.66675 11.7564 7.03984 11.3833 7.50008 11.3833Z" fill="black"/>
</g>
<defs>
<clipPath id="clip0_2001_5659">
<rect width="20" height="20" fill="white"/>
</clipPath>
</defs>
</svg>
