<svg width="20" height="20" viewBox="0 0 20 20" fill="none" xmlns="http://www.w3.org/2000/svg">
<g clip-path="url(#clip0_2001_5602)">
<path fill-rule="evenodd" clip-rule="evenodd" d="M9.99992 2.49992C5.85778 2.49992 2.49992 5.85778 2.49992 9.99992C2.49992 14.1421 5.85778 17.4999 9.99992 17.4999C14.1421 17.4999 17.4999 14.1421 17.4999 9.99992C17.4999 5.85778 14.1421 2.49992 9.99992 2.49992ZM0.833252 9.99992C0.833252 4.93731 4.93731 0.833252 9.99992 0.833252C15.0625 0.833252 19.1666 4.93731 19.1666 9.99992C19.1666 15.0625 15.0625 19.1666 9.99992 19.1666C4.93731 19.1666 0.833252 15.0625 0.833252 9.99992Z" fill="black"/>
<path fill-rule="evenodd" clip-rule="evenodd" d="M6.56549 6.56549C7.03433 6.09664 7.67021 5.83325 8.33325 5.83325H13.3333C13.7935 5.83325 14.1666 6.20635 14.1666 6.66659C14.1666 7.12682 13.7935 7.49992 13.3333 7.49992H8.33325C8.11224 7.49992 7.90028 7.58772 7.744 7.744C7.58772 7.90028 7.49992 8.11224 7.49992 8.33325C7.49992 8.55427 7.58772 8.76623 7.744 8.92251C7.90028 9.07879 8.11224 9.16658 8.33325 9.16658H11.6666C12.3296 9.16658 12.9655 9.42998 13.4344 9.89882C13.9032 10.3677 14.1666 11.0035 14.1666 11.6666C14.1666 12.3296 13.9032 12.9655 13.4344 13.4344C12.9655 13.9032 12.3296 14.1666 11.6666 14.1666H6.66659C6.20635 14.1666 5.83325 13.7935 5.83325 13.3333C5.83325 12.873 6.20635 12.4999 6.66659 12.4999H11.6666C11.8876 12.4999 12.0996 12.4121 12.2558 12.2558C12.4121 12.0996 12.4999 11.8876 12.4999 11.6666C12.4999 11.4456 12.4121 11.2336 12.2558 11.0773C12.0996 10.921 11.8876 10.8333 11.6666 10.8333H8.33325C7.67021 10.8333 7.03433 10.5699 6.56549 10.101C6.09664 9.63218 5.83325 8.99629 5.83325 8.33325C5.83325 7.67021 6.09664 7.03433 6.56549 6.56549Z" fill="black"/>
<path fill-rule="evenodd" clip-rule="evenodd" d="M10.0001 4.16675C10.4603 4.16675 10.8334 4.53984 10.8334 5.00008V15.0001C10.8334 15.4603 10.4603 15.8334 10.0001 15.8334C9.53984 15.8334 9.16675 15.4603 9.16675 15.0001V5.00008C9.16675 4.53984 9.53984 4.16675 10.0001 4.16675Z" fill="black"/>
</g>
<defs>
<clipPath id="clip0_2001_5602">
<rect width="20" height="20" fill="white"/>
</clipPath>
</defs>
</svg>
