<svg width="20" height="20" viewBox="0 0 20 20" fill="none" xmlns="http://www.w3.org/2000/svg">
<g clip-path="url(#clip0_2001_5546)">
<path fill-rule="evenodd" clip-rule="evenodd" d="M11.4631 2.64403C10.0082 2.35464 8.50024 2.50317 7.12979 3.07083C5.75935 3.63848 4.58801 4.59978 3.7639 5.83315C2.93979 7.06651 2.49992 8.51656 2.49992 9.99992C2.49992 10.4602 2.12682 10.8333 1.66659 10.8333C1.20635 10.8333 0.833252 10.4602 0.833252 9.99992C0.833252 8.18693 1.37087 6.41465 2.37811 4.9072C3.38536 3.39974 4.817 2.22483 6.49199 1.53103C8.16698 0.837224 10.0101 0.655693 11.7882 1.00939C13.5664 1.36309 15.1998 2.23613 16.4817 3.51811C17.7637 4.80009 18.6368 6.43344 18.9905 8.2116C19.3442 9.98976 19.1626 11.8329 18.4688 13.5079C17.775 15.1828 16.6001 16.6145 15.0926 17.6217C13.5852 18.629 11.8129 19.1666 9.99992 19.1666C9.53968 19.1666 9.16659 18.7935 9.16659 18.3333C9.16659 17.873 9.53968 17.4999 9.99992 17.4999C11.4833 17.4999 12.9333 17.0601 14.1667 16.2359C15.4001 15.4118 16.3614 14.2405 16.929 12.87C17.4967 11.4996 17.6452 9.9916 17.3558 8.53675C17.0664 7.08189 16.3521 5.74552 15.3032 4.69662C14.2543 3.64773 12.918 2.93342 11.4631 2.64403Z" fill="black"/>
<path fill-rule="evenodd" clip-rule="evenodd" d="M10.5892 9.41083C10.9146 9.73626 10.9146 10.2639 10.5892 10.5893L2.25584 18.9227C1.9304 19.2481 1.40277 19.2481 1.07733 18.9227C0.751893 18.5972 0.751893 18.0696 1.07733 17.7442L9.41066 9.41083C9.7361 9.08539 10.2637 9.08539 10.5892 9.41083Z" fill="black"/>
<path fill-rule="evenodd" clip-rule="evenodd" d="M1.66659 12.5C2.12682 12.5 2.49992 12.8731 2.49992 13.3333V17.5H6.66658C7.12682 17.5 7.49992 17.8731 7.49992 18.3333C7.49992 18.7936 7.12682 19.1667 6.66658 19.1667H1.66659C1.20635 19.1667 0.833252 18.7936 0.833252 18.3333V13.3333C0.833252 12.8731 1.20635 12.5 1.66659 12.5Z" fill="black"/>
</g>
<defs>
<clipPath id="clip0_2001_5546">
<rect width="20" height="20" fill="white"/>
</clipPath>
</defs>
</svg>
