<svg width="20" height="20" viewBox="0 0 20 20" fill="none" xmlns="http://www.w3.org/2000/svg">
<g clip-path="url(#clip0_2001_5562)">
<path fill-rule="evenodd" clip-rule="evenodd" d="M9.99992 2.49992C5.85778 2.49992 2.49992 5.85778 2.49992 9.99992C2.49992 14.1421 5.85778 17.4999 9.99992 17.4999C14.1421 17.4999 17.4999 14.1421 17.4999 9.99992C17.4999 5.85778 14.1421 2.49992 9.99992 2.49992ZM0.833252 9.99992C0.833252 4.93731 4.93731 0.833252 9.99992 0.833252C15.0625 0.833252 19.1666 4.93731 19.1666 9.99992C19.1666 15.0625 15.0625 19.1666 9.99992 19.1666C4.93731 19.1666 0.833252 15.0625 0.833252 9.99992Z" fill="black"/>
<path fill-rule="evenodd" clip-rule="evenodd" d="M5.83325 10.0001C5.83325 9.53984 6.20635 9.16675 6.66659 9.16675H13.3333C13.7935 9.16675 14.1666 9.53984 14.1666 10.0001C14.1666 10.4603 13.7935 10.8334 13.3333 10.8334H6.66659C6.20635 10.8334 5.83325 10.4603 5.83325 10.0001Z" fill="black"/>
<path fill-rule="evenodd" clip-rule="evenodd" d="M9.41083 6.07733C9.73626 5.75189 10.2639 5.75189 10.5893 6.07733L13.9227 9.41066C14.2481 9.7361 14.2481 10.2637 13.9227 10.5892L10.5893 13.9225C10.2639 14.2479 9.73626 14.2479 9.41083 13.9225C9.08539 13.5971 9.08539 13.0694 9.41083 12.744L12.1549 9.99992L9.41083 7.25584C9.08539 6.9304 9.08539 6.40277 9.41083 6.07733Z" fill="black"/>
</g>
<defs>
<clipPath id="clip0_2001_5562">
<rect width="20" height="20" fill="white"/>
</clipPath>
</defs>
</svg>
