<svg width="20" height="20" viewBox="0 0 20 20" fill="none" xmlns="http://www.w3.org/2000/svg">
<g clip-path="url(#clip0_2001_5585)">
<path fill-rule="evenodd" clip-rule="evenodd" d="M9.99992 2.49992C5.85778 2.49992 2.49992 5.85778 2.49992 9.99992C2.49992 14.1421 5.85778 17.4999 9.99992 17.4999C14.1421 17.4999 17.4999 14.1421 17.4999 9.99992C17.4999 5.85778 14.1421 2.49992 9.99992 2.49992ZM0.833252 9.99992C0.833252 4.93731 4.93731 0.833252 9.99992 0.833252C15.0625 0.833252 19.1666 4.93731 19.1666 9.99992C19.1666 15.0625 15.0625 19.1666 9.99992 19.1666C4.93731 19.1666 0.833252 15.0625 0.833252 9.99992Z" fill="black"/>
<path fill-rule="evenodd" clip-rule="evenodd" d="M9.41066 7.74408C9.7361 7.41864 10.2637 7.41864 10.5892 7.74408L13.9225 11.0774C14.2479 11.4028 14.2479 11.9305 13.9225 12.2559C13.5971 12.5814 13.0694 12.5814 12.744 12.2559L9.99992 9.51184L7.25584 12.2559C6.9304 12.5814 6.40277 12.5814 6.07733 12.2559C5.75189 11.9305 5.75189 11.4028 6.07733 11.0774L9.41066 7.74408Z" fill="black"/>
</g>
<defs>
<clipPath id="clip0_2001_5585">
<rect width="20" height="20" fill="white"/>
</clipPath>
</defs>
</svg>
