<svg width="20" height="20" viewBox="0 0 20 20" fill="none" xmlns="http://www.w3.org/2000/svg">
<g clip-path="url(#clip0_2001_5644)">
<path fill-rule="evenodd" clip-rule="evenodd" d="M7.17607 1.2912C9.17841 0.647285 11.3413 0.711557 13.3019 1.47323C13.7309 1.6399 13.9435 2.12278 13.7769 2.55178C13.6102 2.98078 13.1273 3.19344 12.6983 3.02678C11.0942 2.40359 9.32458 2.351 7.6863 2.87784C6.04802 3.40468 4.64075 4.4789 3.70057 5.92028C2.76039 7.36166 2.3445 9.08253 2.52265 10.7942C2.70081 12.5058 3.46219 14.1042 4.67905 15.321C5.89592 16.5379 7.49425 17.2993 9.20591 17.4774C10.9176 17.6556 12.6384 17.2397 14.0798 16.2995C15.5212 15.3593 16.5954 13.9521 17.1223 12.3138C17.6491 10.6755 17.5965 8.90589 16.9733 7.30178C16.8067 6.87278 17.0193 6.3899 17.4483 6.22323C17.8773 6.05657 18.3602 6.26923 18.5269 6.69823C19.2885 8.65881 19.3528 10.8217 18.7089 12.824C18.065 14.8264 16.7521 16.5464 14.9904 17.6955C13.2287 18.8446 11.1254 19.3529 9.03337 19.1352C6.94133 18.9174 4.98782 17.9868 3.50054 16.4996C2.01326 15.0123 1.08269 13.0588 0.864943 10.9667C0.647193 8.8747 1.15551 6.77142 2.30462 5.00973C3.45373 3.24804 5.17373 1.93511 7.17607 1.2912Z" fill="black"/>
<path fill-rule="evenodd" clip-rule="evenodd" d="M10 9.16667C9.53976 9.16667 9.16667 9.53976 9.16667 10C9.16667 10.4602 9.53976 10.8333 10 10.8333C10.4602 10.8333 10.8333 10.4602 10.8333 10C10.8333 9.53976 10.4602 9.16667 10 9.16667ZM7.5 10C7.5 8.61929 8.61929 7.5 10 7.5C11.3807 7.5 12.5 8.61929 12.5 10C12.5 11.3807 11.3807 12.5 10 12.5C8.61929 12.5 7.5 11.3807 7.5 10Z" fill="black"/>
<path fill-rule="evenodd" clip-rule="evenodd" d="M16.4225 3.57733C16.7479 3.90277 16.7479 4.4304 16.4225 4.75584L11.7558 9.42251C11.4304 9.74794 10.9028 9.74794 10.5773 9.42251C10.2519 9.09707 10.2519 8.56943 10.5773 8.244L15.244 3.57733C15.5694 3.25189 16.0971 3.25189 16.4225 3.57733Z" fill="black"/>
</g>
<defs>
<clipPath id="clip0_2001_5644">
<rect width="20" height="20" fill="white"/>
</clipPath>
</defs>
</svg>
