<svg width="20" height="20" viewBox="0 0 20 20" fill="none" xmlns="http://www.w3.org/2000/svg">
<g clip-path="url(#clip0_2001_5655)">
<path fill-rule="evenodd" clip-rule="evenodd" d="M1.07733 1.07733C1.40277 0.751893 1.9304 0.751893 2.25584 1.07733L18.9225 17.744C19.2479 18.0694 19.2479 18.5971 18.9225 18.9225C18.5971 19.2479 18.0694 19.2479 17.744 18.9225L1.07733 2.25584C0.751893 1.9304 0.751893 1.40277 1.07733 1.07733Z" fill="black"/>
<path fill-rule="evenodd" clip-rule="evenodd" d="M11.5294 2.66375C10.1026 2.36452 8.61945 2.48763 7.26148 3.01801C6.83279 3.18545 6.34952 2.97366 6.18208 2.54496C6.01465 2.11626 6.22644 1.63299 6.65514 1.46556C8.31488 0.817311 10.1276 0.666845 11.8715 1.03256C13.6154 1.39828 15.2149 2.26433 16.4743 3.52476C17.7338 4.7852 18.5986 6.38538 18.963 8.12956C19.3274 9.87375 19.1755 11.6863 18.526 13.3456C18.3582 13.7741 17.8748 13.9855 17.4462 13.8178C17.0176 13.65 16.8062 13.1666 16.974 12.738C17.5054 11.3805 17.6297 9.89744 17.3315 8.47038C17.0334 7.04332 16.3259 5.73408 15.2954 4.70282C14.2649 3.67155 12.9562 2.96297 11.5294 2.66375Z" fill="black"/>
<path fill-rule="evenodd" clip-rule="evenodd" d="M4.6892 3.51068C5.01464 3.83612 5.01464 4.36375 4.6892 4.68919C3.99179 5.38661 3.43856 6.21456 3.06113 7.12578C2.68369 8.037 2.48942 9.01364 2.48942 9.99994C2.48942 10.9862 2.68369 11.9629 3.06113 12.8741C3.43856 13.7853 3.99179 14.6133 4.6892 15.3107C5.38662 16.0081 6.21457 16.5613 7.12579 16.9388C8.03701 17.3162 9.01365 17.5105 9.99995 17.5105C10.9862 17.5105 11.9629 17.3162 12.8741 16.9388C13.7853 16.5613 14.6133 16.0081 15.3107 15.3107C15.6361 14.9852 16.1638 14.9852 16.4892 15.3107C16.8146 15.6361 16.8146 16.1638 16.4892 16.4892C15.637 17.3414 14.6253 18.0174 13.5119 18.4786C12.3985 18.9398 11.2051 19.1771 9.99995 19.1771C8.79478 19.1771 7.60142 18.9398 6.48799 18.4786C5.37456 18.0174 4.36287 17.3414 3.51069 16.4892C2.65851 15.637 1.98252 14.6253 1.52133 13.5119C1.06013 12.3985 0.822754 11.2051 0.822754 9.99994C0.822754 8.79477 1.06013 7.6014 1.52133 6.48797C1.98252 5.37455 2.65851 4.36286 3.51069 3.51068C3.83613 3.18524 4.36377 3.18524 4.6892 3.51068Z" fill="black"/>
</g>
<defs>
<clipPath id="clip0_2001_5655">
<rect width="20" height="20" fill="white"/>
</clipPath>
</defs>
</svg>
