<svg width="20" height="20" viewBox="0 0 20 20" fill="none" xmlns="http://www.w3.org/2000/svg">
<g clip-path="url(#clip0_2001_5566)">
<path fill-rule="evenodd" clip-rule="evenodd" d="M9.99992 2.49992C5.85778 2.49992 2.49992 5.85778 2.49992 9.99992C2.49992 14.1421 5.85778 17.4999 9.99992 17.4999C14.1421 17.4999 17.4999 14.1421 17.4999 9.99992C17.4999 5.85778 14.1421 2.49992 9.99992 2.49992ZM0.833252 9.99992C0.833252 4.93731 4.93731 0.833252 9.99992 0.833252C15.0625 0.833252 19.1666 4.93731 19.1666 9.99992C19.1666 15.0625 15.0625 19.1666 9.99992 19.1666C4.93731 19.1666 0.833252 15.0625 0.833252 9.99992Z" fill="black"/>
<path fill-rule="evenodd" clip-rule="evenodd" d="M9.41066 6.07733C9.7361 5.75189 10.2637 5.75189 10.5892 6.07733L13.9225 9.41066C14.2479 9.7361 14.2479 10.2637 13.9225 10.5892C13.5971 10.9146 13.0694 10.9146 12.744 10.5892L9.99992 7.8451L7.25584 10.5892C6.9304 10.9146 6.40277 10.9146 6.07733 10.5892C5.75189 10.2637 5.75189 9.7361 6.07733 9.41066L9.41066 6.07733Z" fill="black"/>
<path fill-rule="evenodd" clip-rule="evenodd" d="M10.0001 5.83325C10.4603 5.83325 10.8334 6.20635 10.8334 6.66659V13.3333C10.8334 13.7935 10.4603 14.1666 10.0001 14.1666C9.53984 14.1666 9.16675 13.7935 9.16675 13.3333V6.66659C9.16675 6.20635 9.53984 5.83325 10.0001 5.83325Z" fill="black"/>
</g>
<defs>
<clipPath id="clip0_2001_5566">
<rect width="20" height="20" fill="white"/>
</clipPath>
</defs>
</svg>
