<svg width="20" height="20" viewBox="0 0 20 20" fill="none" xmlns="http://www.w3.org/2000/svg">
<g clip-path="url(#clip0_2001_5624)">
<path fill-rule="evenodd" clip-rule="evenodd" d="M5 8.33333C5 7.8731 5.3731 7.5 5.83333 7.5H14.1667C14.6269 7.5 15 7.8731 15 8.33333C15 8.79357 14.6269 9.16667 14.1667 9.16667H5.83333C5.3731 9.16667 5 8.79357 5 8.33333Z" fill="black"/>
<path fill-rule="evenodd" clip-rule="evenodd" d="M5 11.6666C5 11.2063 5.3731 10.8333 5.83333 10.8333H14.1667C14.6269 10.8333 15 11.2063 15 11.6666C15 12.1268 14.6269 12.4999 14.1667 12.4999H5.83333C5.3731 12.4999 5 12.1268 5 11.6666Z" fill="black"/>
<path fill-rule="evenodd" clip-rule="evenodd" d="M9.99992 2.49992C5.85778 2.49992 2.49992 5.85778 2.49992 9.99992C2.49992 14.1421 5.85778 17.4999 9.99992 17.4999C14.1421 17.4999 17.4999 14.1421 17.4999 9.99992C17.4999 5.85778 14.1421 2.49992 9.99992 2.49992ZM0.833252 9.99992C0.833252 4.93731 4.93731 0.833252 9.99992 0.833252C15.0625 0.833252 19.1666 4.93731 19.1666 9.99992C19.1666 15.0625 15.0625 19.1666 9.99992 19.1666C4.93731 19.1666 0.833252 15.0625 0.833252 9.99992Z" fill="black"/>
</g>
<defs>
<clipPath id="clip0_2001_5624">
<rect width="20" height="20" fill="white"/>
</clipPath>
</defs>
</svg>
