<svg width="20" height="20" viewBox="0 0 20 20" fill="none" xmlns="http://www.w3.org/2000/svg">
<g clip-path="url(#clip0_2001_5570)">
<path fill-rule="evenodd" clip-rule="evenodd" d="M13.7501 3.50104C12.2642 2.64369 10.5293 2.32165 8.83467 2.58863C7.14005 2.85561 5.58818 3.69548 4.43785 4.96817C3.28753 6.24086 2.60827 7.86944 2.51336 9.58233C2.41846 11.2952 2.91364 12.9889 3.91632 14.3809C4.91901 15.7728 6.3686 16.779 8.02334 17.2316C9.67809 17.6841 11.438 17.5557 13.0095 16.8678C14.581 16.1798 15.8692 14.9739 16.6593 13.4511C17.4493 11.9284 17.6934 10.1808 17.3509 8.49979C17.259 8.04882 17.5501 7.60875 18.001 7.51685C18.452 7.42496 18.8921 7.71605 18.984 8.16702C19.4026 10.2215 19.1043 12.3575 18.1387 14.2187C17.1731 16.0798 15.5986 17.5537 13.6779 18.3946C11.7571 19.2354 9.60613 19.3923 7.58367 18.8392C5.5612 18.2861 3.78948 17.0563 2.56398 15.355C1.33847 13.6537 0.733254 11.5837 0.84925 9.49013C0.965247 7.3966 1.79545 5.40611 3.20141 3.8506C4.60736 2.29509 6.50409 1.26858 8.57529 0.942272C10.6465 0.61596 12.7669 1.00956 14.5831 2.05744C14.9817 2.28745 15.1184 2.79707 14.8884 3.19571C14.6584 3.59435 14.1488 3.73105 13.7501 3.50104Z" fill="black"/>
<path fill-rule="evenodd" clip-rule="evenodd" d="M18.9227 2.74408C19.2481 3.06951 19.2481 3.59715 18.9227 3.92259L10.5893 12.2559C10.2639 12.5814 9.73626 12.5814 9.41083 12.2559L6.91083 9.75592C6.58539 9.43049 6.58539 8.90285 6.91083 8.57741C7.23626 8.25197 7.7639 8.25197 8.08934 8.57741L10.0001 10.4882L17.7442 2.74408C18.0696 2.41864 18.5972 2.41864 18.9227 2.74408Z" fill="black"/>
</g>
<defs>
<clipPath id="clip0_2001_5570">
<rect width="20" height="20" fill="white"/>
</clipPath>
</defs>
</svg>
