<svg width="20" height="20" viewBox="0 0 20 20" fill="none" xmlns="http://www.w3.org/2000/svg">
<g clip-path="url(#clip0_2001_5573)">
<path fill-rule="evenodd" clip-rule="evenodd" d="M9.99992 2.49992C5.85778 2.49992 2.49992 5.85778 2.49992 9.99992C2.49992 14.1421 5.85778 17.4999 9.99992 17.4999C14.1421 17.4999 17.4999 14.1421 17.4999 9.99992C17.4999 5.85778 14.1421 2.49992 9.99992 2.49992ZM0.833252 9.99992C0.833252 4.93731 4.93731 0.833252 9.99992 0.833252C15.0625 0.833252 19.1666 4.93731 19.1666 9.99992C19.1666 15.0625 15.0625 19.1666 9.99992 19.1666C4.93731 19.1666 0.833252 15.0625 0.833252 9.99992Z" fill="black"/>
<path fill-rule="evenodd" clip-rule="evenodd" d="M13.0893 7.74408C13.4148 8.06951 13.4148 8.59715 13.0893 8.92259L9.756 12.2559C9.43057 12.5814 8.90293 12.5814 8.57749 12.2559L6.91083 10.5893C6.58539 10.2638 6.58539 9.73618 6.91083 9.41074C7.23626 9.08531 7.7639 9.08531 8.08934 9.41074L9.16675 10.4882L11.9108 7.74408C12.2363 7.41864 12.7639 7.41864 13.0893 7.74408Z" fill="black"/>
</g>
<defs>
<clipPath id="clip0_2001_5573">
<rect width="20" height="20" fill="white"/>
</clipPath>
</defs>
</svg>
