<svg width="20" height="20" viewBox="0 0 20 20" fill="none" xmlns="http://www.w3.org/2000/svg">
<g clip-path="url(#clip0_2001_5619)">
<path fill-rule="evenodd" clip-rule="evenodd" d="M9.99992 2.49992C5.85778 2.49992 2.49992 5.85778 2.49992 9.99992C2.49992 14.1421 5.85778 17.4999 9.99992 17.4999C14.1421 17.4999 17.4999 14.1421 17.4999 9.99992C17.4999 5.85778 14.1421 2.49992 9.99992 2.49992ZM0.833252 9.99992C0.833252 4.93731 4.93731 0.833252 9.99992 0.833252C15.0625 0.833252 19.1666 4.93731 19.1666 9.99992C19.1666 15.0625 15.0625 19.1666 9.99992 19.1666C4.93731 19.1666 0.833252 15.0625 0.833252 9.99992Z" fill="black"/>
<path fill-rule="evenodd" clip-rule="evenodd" d="M13.3333 10.0001C13.3333 9.53984 13.7063 9.16675 14.1666 9.16675H14.1749C14.6352 9.16675 15.0083 9.53984 15.0083 10.0001C15.0083 10.4603 14.6352 10.8334 14.1749 10.8334H14.1666C13.7063 10.8334 13.3333 10.4603 13.3333 10.0001Z" fill="black"/>
<path fill-rule="evenodd" clip-rule="evenodd" d="M9.16675 10.0001C9.16675 9.53984 9.53984 9.16675 10.0001 9.16675H10.0084C10.4687 9.16675 10.8417 9.53984 10.8417 10.0001C10.8417 10.4603 10.4687 10.8334 10.0084 10.8334H10.0001C9.53984 10.8334 9.16675 10.4603 9.16675 10.0001Z" fill="black"/>
<path fill-rule="evenodd" clip-rule="evenodd" d="M5 10.0001C5 9.53984 5.3731 9.16675 5.83333 9.16675H5.84167C6.3019 9.16675 6.675 9.53984 6.675 10.0001C6.675 10.4603 6.3019 10.8334 5.84167 10.8334H5.83333C5.3731 10.8334 5 10.4603 5 10.0001Z" fill="black"/>
</g>
<defs>
<clipPath id="clip0_2001_5619">
<rect width="20" height="20" fill="white"/>
</clipPath>
</defs>
</svg>
