<svg width="20" height="20" viewBox="0 0 20 20" fill="none" xmlns="http://www.w3.org/2000/svg">
<g clip-path="url(#clip0_2001_5667)">
<path fill-rule="evenodd" clip-rule="evenodd" d="M9.99992 2.49992C5.85778 2.49992 2.49992 5.85778 2.49992 9.99992C2.49992 14.1421 5.85778 17.4999 9.99992 17.4999C14.1421 17.4999 17.4999 14.1421 17.4999 9.99992C17.4999 5.85778 14.1421 2.49992 9.99992 2.49992ZM0.833252 9.99992C0.833252 4.93731 4.93731 0.833252 9.99992 0.833252C15.0625 0.833252 19.1666 4.93731 19.1666 9.99992C19.1666 15.0625 15.0625 19.1666 9.99992 19.1666C4.93731 19.1666 0.833252 15.0625 0.833252 9.99992Z" fill="black"/>
<path fill-rule="evenodd" clip-rule="evenodd" d="M8.33333 6.66675C8.79357 6.66675 9.16667 7.03984 9.16667 7.50008V12.5001C9.16667 12.9603 8.79357 13.3334 8.33333 13.3334C7.8731 13.3334 7.5 12.9603 7.5 12.5001V7.50008C7.5 7.03984 7.8731 6.66675 8.33333 6.66675Z" fill="black"/>
<path fill-rule="evenodd" clip-rule="evenodd" d="M11.6666 6.66675C12.1268 6.66675 12.4999 7.03984 12.4999 7.50008V12.5001C12.4999 12.9603 12.1268 13.3334 11.6666 13.3334C11.2063 13.3334 10.8333 12.9603 10.8333 12.5001V7.50008C10.8333 7.03984 11.2063 6.66675 11.6666 6.66675Z" fill="black"/>
</g>
<defs>
<clipPath id="clip0_2001_5667">
<rect width="20" height="20" fill="white"/>
</clipPath>
</defs>
</svg>
