<svg width="20" height="20" viewBox="0 0 20 20" fill="none" xmlns="http://www.w3.org/2000/svg">
<g clip-path="url(#clip0_2001_5676)">
<path fill-rule="evenodd" clip-rule="evenodd" d="M9.99992 2.49992C5.85778 2.49992 2.49992 5.85778 2.49992 9.99992C2.49992 14.1421 5.85778 17.4999 9.99992 17.4999C14.1421 17.4999 17.4999 14.1421 17.4999 9.99992C17.4999 5.85778 14.1421 2.49992 9.99992 2.49992ZM0.833252 9.99992C0.833252 4.93731 4.93731 0.833252 9.99992 0.833252C15.0625 0.833252 19.1666 4.93731 19.1666 9.99992C19.1666 15.0625 15.0625 19.1666 9.99992 19.1666C4.93731 19.1666 0.833252 15.0625 0.833252 9.99992Z" fill="black"/>
<path fill-rule="evenodd" clip-rule="evenodd" d="M7.94012 5.93186C8.21108 5.78684 8.53987 5.80274 8.79558 5.97321L13.7956 9.30655C14.0274 9.4611 14.1667 9.72129 14.1667 9.99992C14.1667 10.2785 14.0274 10.5387 13.7956 10.6933L8.79558 14.0266C8.53987 14.1971 8.21108 14.213 7.94012 14.068C7.66915 13.923 7.5 13.6406 7.5 13.3333V6.66659C7.5 6.35926 7.66915 6.07687 7.94012 5.93186ZM9.16667 8.22368V11.7762L11.831 9.99992L9.16667 8.22368Z" fill="black"/>
</g>
<defs>
<clipPath id="clip0_2001_5676">
<rect width="20" height="20" fill="white"/>
</clipPath>
</defs>
</svg>
