<svg width="20" height="20" viewBox="0 0 20 20" fill="none" xmlns="http://www.w3.org/2000/svg">
<g clip-path="url(#clip0_2001_5716)">
<path fill-rule="evenodd" clip-rule="evenodd" d="M4.65935 2.51386C4.64874 2.50955 4.63736 2.50747 4.62592 2.50776C4.61448 2.50804 4.60321 2.51068 4.59283 2.51551C4.58468 2.51931 4.5772 2.52439 4.57069 2.53055C3.13487 4.28669 2.401 6.51311 2.51155 8.77935C2.62247 11.0534 3.57564 13.2047 5.18551 14.8146C6.79539 16.4244 8.94673 17.3776 11.2207 17.4885C13.4897 17.5992 15.7187 16.8635 17.4758 15.4243C17.4814 15.4188 17.486 15.4123 17.4894 15.4052C17.4934 15.3968 17.4955 15.3876 17.4958 15.3783C17.496 15.369 17.4943 15.3598 17.4907 15.3512C17.4872 15.3426 17.4818 15.3348 17.4751 15.3284C17.4702 15.3237 17.4653 15.319 17.4605 15.3142L4.69386 2.53917C4.69175 2.53706 4.68965 2.53493 4.68756 2.5328C4.67956 2.52461 4.66996 2.51816 4.65935 2.51386ZM4.58453 0.841604C4.82485 0.835634 5.06382 0.879241 5.28655 0.969706C5.50766 1.05952 5.70805 1.1936 5.87541 1.3637L18.6334 14.13C18.8045 14.2953 18.9398 14.4941 19.0308 14.714C19.1233 14.9376 19.168 15.1781 19.1619 15.42C19.1559 15.6619 19.0992 15.8998 18.9957 16.1185C18.8921 16.3372 18.7439 16.5318 18.5607 16.6897C18.5557 16.6939 18.5508 16.6981 18.5458 16.7022C16.467 18.4106 13.827 19.2843 11.1395 19.1532C8.45208 19.0221 5.90958 17.8957 4.007 15.9931C2.10443 14.0905 0.977946 11.548 0.846859 8.86055C0.715771 6.1731 1.58946 3.53304 3.29784 1.45433C3.30432 1.44645 3.31094 1.43869 3.3177 1.43105C3.47705 1.25106 3.67177 1.10582 3.88973 1.00441C4.10769 0.902995 4.3442 0.847575 4.58453 0.841604Z" fill="black"/>
<path fill-rule="evenodd" clip-rule="evenodd" d="M7.53282 3.01315C7.86619 3.33045 7.87923 3.85792 7.56193 4.1913C6.51314 5.29323 5.93632 6.76127 5.95443 8.28241C5.97255 9.80356 6.58418 11.2574 7.65892 12.3341C8.73365 13.4107 10.1865 14.0249 11.7076 14.0457C13.2287 14.0665 14.6977 13.4923 15.8015 12.4455C16.1354 12.1288 16.6629 12.1427 16.9796 12.4767C17.2963 12.8106 17.2824 13.3381 16.9484 13.6548C15.5293 15.0007 13.6405 15.739 11.6848 15.7122C9.72906 15.6855 7.86117 14.8958 6.47937 13.5115C5.09757 12.1273 4.31118 10.258 4.28789 8.30227C4.26459 6.34651 5.00623 4.45903 6.35466 3.04226C6.67196 2.70889 7.19944 2.69585 7.53282 3.01315Z" fill="black"/>
<path fill-rule="evenodd" clip-rule="evenodd" d="M12.2559 7.74408C12.5814 8.06951 12.5814 8.59715 12.2559 8.92259L7.67259 13.5059C7.34715 13.8314 6.81951 13.8314 6.49408 13.5059C6.16864 13.1805 6.16864 12.6528 6.49408 12.3274L11.0774 7.74408C11.4028 7.41864 11.9305 7.41864 12.2559 7.74408Z" fill="black"/>
<path fill-rule="evenodd" clip-rule="evenodd" d="M4.29175 8.33333C4.29175 7.8731 4.66484 7.5 5.12508 7.5H11.6667C12.127 7.5 12.5001 7.8731 12.5001 8.33333V14.875C12.5001 15.3352 12.127 15.7083 11.6667 15.7083C11.2065 15.7083 10.8334 15.3352 10.8334 14.875V9.16667H5.12508C4.66484 9.16667 4.29175 8.79357 4.29175 8.33333Z" fill="black"/>
</g>
<defs>
<clipPath id="clip0_2001_5716">
<rect width="20" height="20" fill="white"/>
</clipPath>
</defs>
</svg>
