<svg width="20" height="20" viewBox="0 0 20 20" fill="none" xmlns="http://www.w3.org/2000/svg">
<path fill-rule="evenodd" clip-rule="evenodd" d="M14.3102 2.55203L3.07287 5.88161C3.07252 5.88171 3.07217 5.88182 3.07181 5.88192C2.71046 5.991 2.42659 6.41742 2.54586 6.91548L3.00915 8.15093L15.788 4.43615L15.3703 3.07849C15.3697 3.07662 15.3691 3.07475 15.3686 3.07287C15.2582 2.70511 14.8192 2.4172 14.3102 2.55203ZM16.964 2.59082C16.5736 1.29573 15.1842 0.586095 13.8642 0.946114C13.8583 0.947708 13.8525 0.949365 13.8467 0.951086L2.59668 4.28442C2.59577 4.28469 2.59487 4.28496 2.59396 4.28523C1.29687 4.67436 0.585804 6.06488 0.946114 7.38602C0.952877 7.41081 0.960784 7.43529 0.96981 7.45935L1.71981 9.45935C1.87281 9.86735 2.31429 10.0886 2.7327 9.96696L17.066 5.80029C17.2804 5.73797 17.4608 5.59222 17.5668 5.39572C17.6728 5.19922 17.6956 4.96841 17.6299 4.75501L16.964 2.59082Z" fill="black"/>
<path fill-rule="evenodd" clip-rule="evenodd" d="M4.64808 3.76427C5.00837 3.47788 5.53259 3.5378 5.81897 3.89808L8.4023 7.14808C8.68868 7.50837 8.62877 8.03259 8.26849 8.31897C7.9082 8.60535 7.38398 8.54544 7.0976 8.18515L4.51426 4.93515C4.22789 4.57487 4.2878 4.05064 4.64808 3.76427Z" fill="black"/>
<path fill-rule="evenodd" clip-rule="evenodd" d="M9.8229 2.17469C10.1867 1.89277 10.7101 1.95912 10.9921 2.3229L13.5754 5.65623C13.8573 6.02001 13.791 6.54346 13.4272 6.82538C13.0634 7.10731 12.54 7.04096 12.258 6.67718L9.67469 3.34385C9.39277 2.98007 9.45912 2.45662 9.8229 2.17469Z" fill="black"/>
<path fill-rule="evenodd" clip-rule="evenodd" d="M1.66675 9.16659C1.66675 8.70635 2.03984 8.33325 2.50008 8.33325H17.5001C17.9603 8.33325 18.3334 8.70635 18.3334 9.16659V15.8333C18.3334 16.4963 18.07 17.1322 17.6012 17.601C17.1323 18.0699 16.4965 18.3333 15.8334 18.3333H4.16675C3.50371 18.3333 2.86782 18.0699 2.39898 17.601C1.93014 17.1322 1.66675 16.4963 1.66675 15.8333V9.16659ZM3.33341 9.99992V15.8333C3.33341 16.0543 3.42121 16.2662 3.57749 16.4225C3.73377 16.5788 3.94573 16.6666 4.16675 16.6666H15.8334C16.0544 16.6666 16.2664 16.5788 16.4227 16.4225C16.5789 16.2662 16.6667 16.0543 16.6667 15.8333V9.99992H3.33341Z" fill="black"/>
</svg>
