<svg width="20" height="20" viewBox="0 0 20 20" fill="none" xmlns="http://www.w3.org/2000/svg">
<path fill-rule="evenodd" clip-rule="evenodd" d="M7.49992 2.49992V4.16659H12.4999V2.49992H7.49992ZM5.83325 2.49992C5.83325 1.57944 6.57944 0.833252 7.49992 0.833252H12.4999C13.4204 0.833252 14.1666 1.57944 14.1666 2.49992V4.16659C14.1666 5.08706 13.4204 5.83325 12.4999 5.83325H7.49992C6.57944 5.83325 5.83325 5.08706 5.83325 4.16659V2.49992Z" fill="black"/>
<path fill-rule="evenodd" clip-rule="evenodd" d="M12.4999 3.33333C12.4999 2.8731 12.873 2.5 13.3333 2.5H14.9999C15.663 2.5 16.2988 2.76339 16.7677 3.23223C17.2365 3.70107 17.4999 4.33696 17.4999 5V16.6667C17.4999 17.3297 17.2365 17.9656 16.7677 18.4344C16.2988 18.9033 15.663 19.1667 14.9999 19.1667H10.4166C9.95635 19.1667 9.58325 18.7936 9.58325 18.3333C9.58325 17.8731 9.95635 17.5 10.4166 17.5H14.9999C15.2209 17.5 15.4329 17.4122 15.5892 17.2559C15.7455 17.0996 15.8333 16.8877 15.8333 16.6667V5C15.8333 4.77899 15.7455 4.56702 15.5892 4.41074C15.4329 4.25446 15.2209 4.16667 14.9999 4.16667H13.3333C12.873 4.16667 12.4999 3.79357 12.4999 3.33333Z" fill="black"/>
<path fill-rule="evenodd" clip-rule="evenodd" d="M5 4.16667C4.77899 4.16667 4.56702 4.25446 4.41074 4.41074C4.25446 4.56702 4.16667 4.77899 4.16667 5V11.25C4.16667 11.7102 3.79357 12.0833 3.33333 12.0833C2.8731 12.0833 2.5 11.7102 2.5 11.25V5C2.5 4.33696 2.76339 3.70107 3.23223 3.23223C3.70107 2.76339 4.33696 2.5 5 2.5H6.66667C7.1269 2.5 7.5 2.8731 7.5 3.33333C7.5 3.79357 7.1269 4.16667 6.66667 4.16667H5Z" fill="black"/>
<path fill-rule="evenodd" clip-rule="evenodd" d="M8.90027 9.36468C9.21613 9.23384 9.55468 9.1665 9.89657 9.1665C10.2385 9.1665 10.577 9.23384 10.8929 9.36468C11.2087 9.49552 11.4957 9.68729 11.7375 9.92904C11.9792 10.1708 12.171 10.4578 12.3018 10.7737C12.4327 11.0895 12.5 11.4281 12.5 11.77C12.5 12.1119 12.4327 12.4504 12.3018 12.7663C12.171 13.0821 11.9792 13.3691 11.7375 13.6109L7.56015 17.7849C7.56013 17.7849 7.56012 17.7849 7.5601 17.7849C7.26309 18.0821 6.89596 18.2996 6.49265 18.4174L4.10073 19.115C4.10073 19.115 4.10072 19.115 4.10071 19.115C3.88559 19.1777 3.65757 19.1815 3.44051 19.1259C3.22343 19.0702 3.0253 18.9573 2.86685 18.7988C2.7084 18.6404 2.59545 18.4423 2.53984 18.2252C2.48423 18.0081 2.48799 17.7801 2.55073 17.565C2.55073 17.565 2.55073 17.565 2.55073 17.565L3.24831 15.173C3.36604 14.7698 3.58348 14.4028 3.88053 14.1058C3.88062 14.1057 3.88071 14.1056 3.88081 14.1055L8.05553 9.92916L8.64418 10.5176L8.05564 9.92904C8.2974 9.68729 8.5844 9.49552 8.90027 9.36468ZM9.23427 11.1074C9.23423 11.1075 9.23419 11.1075 9.23415 11.1076L5.05899 15.2844C4.96 15.3833 4.88752 15.5056 4.84824 15.6399C4.84823 15.64 4.84822 15.64 4.84821 15.64C4.8482 15.6401 4.84818 15.6402 4.84816 15.6402L4.36345 17.3022L6.02548 16.8175C6.02557 16.8175 6.02566 16.8175 6.02575 16.8175C6.16009 16.7782 6.28237 16.7057 6.38131 16.6067L10.559 12.4324C10.646 12.3454 10.715 12.2421 10.762 12.1285C10.8091 12.0148 10.8334 11.893 10.8334 11.77C10.8334 11.6469 10.8091 11.5251 10.762 11.4115C10.715 11.2978 10.646 11.1945 10.559 11.1076C10.472 11.0206 10.3687 10.9516 10.2551 10.9045C10.1414 10.8574 10.0196 10.8332 9.89657 10.8332C9.77354 10.8332 9.65173 10.8574 9.53807 10.9045C9.42447 10.9515 9.32124 11.0205 9.23427 11.1074ZM3.63441 17.5149C3.6343 17.5149 3.6342 17.5149 3.63409 17.515C3.63408 17.515 3.63407 17.515 3.63407 17.515M3.63441 17.5149L3.63409 17.515L3.63441 17.5149Z" fill="black"/>
</svg>
