<svg width="20" height="20" viewBox="0 0 20 20" fill="none" xmlns="http://www.w3.org/2000/svg">
<path fill-rule="evenodd" clip-rule="evenodd" d="M7.49992 2.49992V4.16659H12.4999V2.49992H7.49992ZM5.83325 2.49992C5.83325 1.57944 6.57944 0.833252 7.49992 0.833252H12.4999C13.4204 0.833252 14.1666 1.57944 14.1666 2.49992V4.16659C14.1666 5.08706 13.4204 5.83325 12.4999 5.83325H7.49992C6.57944 5.83325 5.83325 5.08706 5.83325 4.16659V2.49992Z" fill="black"/>
<path fill-rule="evenodd" clip-rule="evenodd" d="M3.23223 3.23223C3.70107 2.76339 4.33696 2.5 5 2.5H6.66667C7.1269 2.5 7.5 2.8731 7.5 3.33333C7.5 3.79357 7.1269 4.16667 6.66667 4.16667H5C4.77899 4.16667 4.56702 4.25446 4.41074 4.41074C4.25446 4.56702 4.16667 4.77899 4.16667 5V16.6667C4.16667 16.8877 4.25446 17.0996 4.41074 17.2559C4.56702 17.4122 4.77899 17.5 5 17.5H15C15.221 17.5 15.433 17.4122 15.5893 17.2559C15.7455 17.0996 15.8333 16.8877 15.8333 16.6667V15C15.8333 14.5398 16.2064 14.1667 16.6667 14.1667C17.1269 14.1667 17.5 14.5398 17.5 15V16.6667C17.5 17.3297 17.2366 17.9656 16.7678 18.4344C16.2989 18.9033 15.663 19.1667 15 19.1667H5C4.33696 19.1667 3.70107 18.9033 3.23223 18.4344C2.76339 17.9656 2.5 17.3297 2.5 16.6667V5C2.5 4.33696 2.76339 3.70107 3.23223 3.23223Z" fill="black"/>
<path fill-rule="evenodd" clip-rule="evenodd" d="M12.5 3.33333C12.5 2.8731 12.8731 2.5 13.3333 2.5H15C15.663 2.5 16.2989 2.76339 16.7678 3.23223C17.2366 3.70107 17.5 4.33696 17.5 5V8.33333C17.5 8.79357 17.1269 9.16667 16.6667 9.16667C16.2064 9.16667 15.8333 8.79357 15.8333 8.33333V5C15.8333 4.77899 15.7455 4.56702 15.5893 4.41074C15.433 4.25446 15.221 4.16667 15 4.16667H13.3333C12.8731 4.16667 12.5 3.79357 12.5 3.33333Z" fill="black"/>
<path fill-rule="evenodd" clip-rule="evenodd" d="M8.33325 11.6666C8.33325 11.2063 8.70635 10.8333 9.16659 10.8333H17.4999C17.9602 10.8333 18.3333 11.2063 18.3333 11.6666C18.3333 12.1268 17.9602 12.4999 17.4999 12.4999H9.16659C8.70635 12.4999 8.33325 12.1268 8.33325 11.6666Z" fill="black"/>
<path fill-rule="evenodd" clip-rule="evenodd" d="M13.0892 7.74408C13.4146 8.06951 13.4146 8.59715 13.0892 8.92259L10.3451 11.6667L13.0892 14.4107C13.4146 14.7362 13.4146 15.2638 13.0892 15.5893C12.7637 15.9147 12.2361 15.9147 11.9107 15.5893L8.57733 12.2559C8.25189 11.9305 8.25189 11.4028 8.57733 11.0774L11.9107 7.74408C12.2361 7.41864 12.7637 7.41864 13.0892 7.74408Z" fill="black"/>
</svg>
