<svg width="20" height="20" viewBox="0 0 20 20" fill="none" xmlns="http://www.w3.org/2000/svg">
<path fill-rule="evenodd" clip-rule="evenodd" d="M6.32141 1.32141C6.63397 1.00885 7.05789 0.833252 7.49992 0.833252H12.4999C12.9393 0.833252 13.3702 0.983347 13.6933 1.3065C14.0165 1.62965 14.1666 2.06055 14.1666 2.49992V4.16659C14.1666 4.60596 14.0165 5.03686 13.6933 5.36001C13.3702 5.68316 12.9393 5.83325 12.4999 5.83325H7.49992C7.06055 5.83325 6.62965 5.68316 6.3065 5.36001C5.98335 5.03686 5.83325 4.60596 5.83325 4.16659V2.49992C5.83325 2.05789 6.00885 1.63397 6.32141 1.32141ZM12.4999 2.49992H7.49992L7.49992 4.16659H12.4999V2.49992Z" fill="black"/>
<path fill-rule="evenodd" clip-rule="evenodd" d="M3.23223 3.23223C3.70107 2.76339 4.33696 2.5 5 2.5H6.66667C7.1269 2.5 7.5 2.8731 7.5 3.33333C7.5 3.79357 7.1269 4.16667 6.66667 4.16667H5C4.77899 4.16667 4.56702 4.25446 4.41074 4.41074C4.25446 4.56702 4.16667 4.77899 4.16667 5V16.6667C4.16667 16.8877 4.25446 17.0996 4.41074 17.2559C4.56702 17.4122 4.77899 17.5 5 17.5H15C15.221 17.5 15.433 17.4122 15.5893 17.2559C15.7455 17.0996 15.8333 16.8877 15.8333 16.6667C15.8333 16.2064 16.2064 15.8333 16.6667 15.8333C17.1269 15.8333 17.5 16.2064 17.5 16.6667C17.5 17.3297 17.2366 17.9656 16.7678 18.4344C16.2989 18.9033 15.663 19.1667 15 19.1667H5C4.33696 19.1667 3.70107 18.9033 3.23223 18.4344C2.76339 17.9656 2.5 17.3297 2.5 16.6667V5C2.5 4.33696 2.76339 3.70107 3.23223 3.23223ZM12.5 3.33333C12.5 2.8731 12.8731 2.5 13.3333 2.5H15C15.663 2.5 16.2989 2.76339 16.7678 3.23223C17.2366 3.70107 17.5 4.33696 17.5 5V6.66667C17.5 7.1269 17.1269 7.5 16.6667 7.5C16.2064 7.5 15.8333 7.1269 15.8333 6.66667V5C15.8333 4.77899 15.7455 4.56702 15.5893 4.41074C15.433 4.25446 15.221 4.16667 15 4.16667H13.3333C12.8731 4.16667 12.5 3.79357 12.5 3.33333ZM8.33333 11.6667C8.33333 11.2064 8.70643 10.8333 9.16667 10.8333H17.5C17.9602 10.8333 18.3333 11.2064 18.3333 11.6667C18.3333 12.1269 17.9602 12.5 17.5 12.5H9.16667C8.70643 12.5 8.33333 12.1269 8.33333 11.6667Z" fill="black"/>
<path fill-rule="evenodd" clip-rule="evenodd" d="M13.5773 7.74408C13.9028 7.41864 14.4304 7.41864 14.7558 7.74408L18.0892 11.0774C18.4146 11.4028 18.4146 11.9305 18.0892 12.2559L14.7558 15.5893C14.4304 15.9147 13.9028 15.9147 13.5773 15.5893C13.2519 15.2638 13.2519 14.7362 13.5773 14.4107L16.3214 11.6667L13.5773 8.92259C13.2519 8.59715 13.2519 8.06951 13.5773 7.74408Z" fill="black"/>
</svg>
