<svg width="20" height="20" viewBox="0 0 20 20" fill="none" xmlns="http://www.w3.org/2000/svg">
<path fill-rule="evenodd" clip-rule="evenodd" d="M5.83325 2.49992C5.83325 1.57944 6.57944 0.833252 7.49992 0.833252H12.4999C13.4204 0.833252 14.1666 1.57944 14.1666 2.49992V4.16659C14.1666 5.08706 13.4204 5.83325 12.4999 5.83325H7.49992C6.57944 5.83325 5.83325 5.08706 5.83325 4.16659V2.49992ZM12.4999 2.49992H7.49992V4.16659H12.4999V2.49992Z" fill="black"/>
<path fill-rule="evenodd" clip-rule="evenodd" d="M3.23223 3.23223C3.70107 2.76339 4.33696 2.5 5 2.5H6.66667C7.1269 2.5 7.5 2.8731 7.5 3.33333C7.5 3.79357 7.1269 4.16667 6.66667 4.16667H5C4.77899 4.16667 4.56702 4.25446 4.41074 4.41074C4.25446 4.56702 4.16667 4.77899 4.16667 5V16.6667C4.16667 16.8877 4.25446 17.0996 4.41074 17.2559C4.56702 17.4122 4.77899 17.5 5 17.5H15C15.221 17.5 15.433 17.4122 15.5893 17.2559C15.7455 17.0996 15.8333 16.8877 15.8333 16.6667V16.25C15.8333 15.7898 16.2064 15.4167 16.6667 15.4167C17.1269 15.4167 17.5 15.7898 17.5 16.25V16.6667C17.5 17.3297 17.2366 17.9656 16.7678 18.4344C16.2989 18.9033 15.663 19.1667 15 19.1667H5C4.33696 19.1667 3.70107 18.9033 3.23223 18.4344C2.76339 17.9656 2.5 17.3297 2.5 16.6667V5C2.5 4.33696 2.76339 3.70107 3.23223 3.23223Z" fill="black"/>
<path fill-rule="evenodd" clip-rule="evenodd" d="M12.5 3.33333C12.5 2.8731 12.8731 2.5 13.3333 2.5H15.0009C15.4393 2.50045 15.8698 2.61618 16.2494 2.83558C16.629 3.05498 16.9442 3.37033 17.1634 3.75C17.3935 4.14858 17.2569 4.65824 16.8583 4.88835C16.4598 5.11847 15.9501 4.98191 15.72 4.58333C15.6469 4.45678 15.5418 4.35166 15.4153 4.27853C15.2889 4.20545 15.1455 4.16688 14.9995 4.16667H13.3333C12.8731 4.16667 12.5 3.79357 12.5 3.33333Z" fill="black"/>
<path fill-rule="evenodd" clip-rule="evenodd" d="M16.5875 8.32902C16.4671 8.32902 16.3479 8.35273 16.2367 8.3988C16.1256 8.44482 16.0246 8.51225 15.9396 8.59724C15.9395 8.59733 15.9397 8.59714 15.9396 8.59724L12.4108 12.134L11.9807 13.8498L13.699 13.4148L17.2358 9.89402C17.2356 9.89421 17.2359 9.89383 17.2358 9.89402C17.3206 9.80901 17.3885 9.70758 17.4345 9.5966C17.4806 9.48537 17.5043 9.36616 17.5043 9.24578C17.5043 9.12539 17.4806 9.00618 17.4345 8.89495C17.3884 8.78372 17.3209 8.68266 17.2358 8.59753C17.1506 8.5124 17.0496 8.44488 16.9383 8.3988C16.8271 8.35273 16.7079 8.32902 16.5875 8.32902ZM15.5989 6.859C15.9123 6.72917 16.2483 6.66235 16.5875 6.66235C16.9268 6.66235 17.2627 6.72918 17.5761 6.859C17.8896 6.98883 18.1744 7.17913 18.4143 7.41902C18.6542 7.65891 18.8445 7.94371 18.9743 8.25714C19.1041 8.57058 19.1709 8.90651 19.1709 9.24578C19.1709 9.58504 19.1041 9.92098 18.9743 10.2344C18.8445 10.5478 18.6542 10.8326 18.4143 11.0725L18.4129 11.0739L14.7129 14.7572C14.607 14.8627 14.4745 14.9378 14.3295 14.9745L11.0379 15.8078C10.7536 15.8798 10.4524 15.797 10.2448 15.5899C10.0372 15.3828 9.95373 15.0818 10.025 14.7973L10.85 11.5057C10.8866 11.3596 10.9621 11.2263 11.0684 11.1197L14.7608 7.41902C15.0007 7.17913 15.2854 6.98883 15.5989 6.859Z" fill="black"/>
<path fill-rule="evenodd" clip-rule="evenodd" d="M5.83325 15.0001C5.83325 14.5398 6.20635 14.1667 6.66659 14.1667H7.49992C7.96016 14.1667 8.33325 14.5398 8.33325 15.0001C8.33325 15.4603 7.96016 15.8334 7.49992 15.8334H6.66659C6.20635 15.8334 5.83325 15.4603 5.83325 15.0001Z" fill="black"/>
</svg>
