<svg width="20" height="20" viewBox="0 0 20 20" fill="none" xmlns="http://www.w3.org/2000/svg">
<path fill-rule="evenodd" clip-rule="evenodd" d="M7.49992 2.49992V4.16659H12.4999V2.49992H7.49992ZM5.83325 2.49992C5.83325 1.57944 6.57944 0.833252 7.49992 0.833252H12.4999C13.4204 0.833252 14.1666 1.57944 14.1666 2.49992V4.16659C14.1666 5.08706 13.4204 5.83325 12.4999 5.83325H7.49992C6.57944 5.83325 5.83325 5.08706 5.83325 4.16659V2.49992Z" fill="black"/>
<path fill-rule="evenodd" clip-rule="evenodd" d="M5 4.16667C4.77899 4.16667 4.56702 4.25446 4.41074 4.41074C4.25446 4.56702 4.16667 4.77899 4.16667 5V16.6667C4.16667 16.8877 4.25446 17.0996 4.41074 17.2559C4.56702 17.4122 4.77899 17.5 5 17.5H15C15.221 17.5 15.433 17.4122 15.5893 17.2559C15.7455 17.0996 15.8333 16.8877 15.8333 16.6667V5C15.8333 4.77899 15.7455 4.56702 15.5893 4.41074C15.433 4.25446 15.221 4.16667 15 4.16667H13.3333C12.8731 4.16667 12.5 3.79357 12.5 3.33333C12.5 2.8731 12.8731 2.5 13.3333 2.5H15C15.663 2.5 16.2989 2.76339 16.7678 3.23223C17.2366 3.70107 17.5 4.33696 17.5 5V16.6667C17.5 17.3297 17.2366 17.9656 16.7678 18.4344C16.2989 18.9033 15.663 19.1667 15 19.1667H5C4.33696 19.1667 3.70107 18.9033 3.23223 18.4344C2.76339 17.9656 2.5 17.3297 2.5 16.6667V5C2.5 4.33696 2.76339 3.70107 3.23223 3.23223C3.70107 2.76339 4.33696 2.5 5 2.5H6.66667C7.1269 2.5 7.5 2.8731 7.5 3.33333C7.5 3.79357 7.1269 4.16667 6.66667 4.16667H5Z" fill="black"/>
<path fill-rule="evenodd" clip-rule="evenodd" d="M13.0893 8.57733C13.4148 8.90277 13.4148 9.4304 13.0893 9.75584L8.08934 14.7558C7.7639 15.0813 7.23626 15.0813 6.91083 14.7558C6.58539 14.4304 6.58539 13.9028 6.91083 13.5773L11.9108 8.57733C12.2363 8.25189 12.7639 8.25189 13.0893 8.57733Z" fill="black"/>
<path fill-rule="evenodd" clip-rule="evenodd" d="M6.91083 8.57733C7.23626 8.25189 7.7639 8.25189 8.08934 8.57733L13.0893 13.5773C13.4148 13.9028 13.4148 14.4304 13.0893 14.7558C12.7639 15.0813 12.2363 15.0813 11.9108 14.7558L6.91083 9.75584C6.58539 9.4304 6.58539 8.90277 6.91083 8.57733Z" fill="black"/>
</svg>
