<svg width="20" height="20" viewBox="0 0 20 20" fill="none" xmlns="http://www.w3.org/2000/svg">
<g clip-path="url(#clip0_2001_5799)">
<path fill-rule="evenodd" clip-rule="evenodd" d="M9.99992 2.49992C5.85778 2.49992 2.49992 5.85778 2.49992 9.99992C2.49992 14.1421 5.85778 17.4999 9.99992 17.4999C14.1421 17.4999 17.4999 14.1421 17.4999 9.99992C17.4999 5.85778 14.1421 2.49992 9.99992 2.49992ZM0.833252 9.99992C0.833252 4.93731 4.93731 0.833252 9.99992 0.833252C15.0625 0.833252 19.1666 4.93731 19.1666 9.99992C19.1666 15.0625 15.0625 19.1666 9.99992 19.1666C4.93731 19.1666 0.833252 15.0625 0.833252 9.99992Z" fill="black"/>
<path fill-rule="evenodd" clip-rule="evenodd" d="M10 4.16675C10.4603 4.16675 10.8334 4.53984 10.8334 5.00008V10.0001C10.8334 10.1563 10.7895 10.3093 10.7067 10.4417L8.62336 13.7751C8.37944 14.1654 7.86531 14.284 7.47503 14.0401C7.08475 13.7962 6.96611 13.282 7.21003 12.8917L9.1667 9.76108V5.00008C9.1667 4.53984 9.53979 4.16675 10 4.16675Z" fill="black"/>
</g>
<defs>
<clipPath id="clip0_2001_5799">
<rect width="20" height="20" fill="white"/>
</clipPath>
</defs>
</svg>
