<svg width="20" height="20" viewBox="0 0 20 20" fill="none" xmlns="http://www.w3.org/2000/svg">
<path fill-rule="evenodd" clip-rule="evenodd" d="M10.0001 4.16675C10.4603 4.16675 10.8334 4.53984 10.8334 5.00008V9.48505L13.7061 10.9214C14.1177 11.1272 14.2846 11.6278 14.0788 12.0394C13.8729 12.4511 13.3724 12.6179 12.9607 12.4121L9.6274 10.7454C9.34508 10.6043 9.16675 10.3157 9.16675 10.0001V5.00008C9.16675 4.53984 9.53984 4.16675 10.0001 4.16675Z" fill="black"/>
<path fill-rule="evenodd" clip-rule="evenodd" d="M13.8292 3.54981C12.5646 2.79819 11.1069 2.43506 9.63749 2.50562C8.16809 2.57619 6.75189 3.07732 5.56514 3.94666C4.3784 4.81599 3.47351 6.01514 2.96311 7.39485C2.45272 8.77456 2.35934 10.2739 2.69461 11.7063C3.02988 13.1387 3.77899 14.4408 4.8487 15.4507C5.91842 16.4605 7.2615 17.1335 8.71079 17.3858C10.1601 17.6382 11.6516 17.4587 12.9996 16.8698C13.4214 16.6856 13.9127 16.8781 14.0969 17.2998C14.2811 17.7216 14.0886 18.2129 13.6668 18.3971C12.0192 19.1169 10.1963 19.3362 8.42491 19.0278C6.65356 18.7194 5.01202 17.8969 3.70459 16.6626C2.39716 15.4283 1.48158 13.8368 1.0718 12.0861C0.662031 10.3354 0.776156 8.50291 1.39998 6.81659C2.0238 5.13028 3.12977 3.66466 4.58024 2.60214C6.0307 1.53962 7.76162 0.927119 9.55755 0.840876C11.3535 0.754634 13.1351 1.19845 14.6807 2.1171C16.2263 3.03574 17.4676 4.38865 18.2502 6.00743C18.4505 6.42179 18.277 6.92008 17.8626 7.12038C17.4482 7.32069 16.95 7.14716 16.7496 6.7328C16.1094 5.40835 15.0938 4.30143 13.8292 3.54981Z" fill="black"/>
<path fill-rule="evenodd" clip-rule="evenodd" d="M16.6666 8.75C17.1268 8.75 17.4999 9.1231 17.4999 9.58333V14.5833C17.4999 15.0436 17.1268 15.4167 16.6666 15.4167C16.2063 15.4167 15.8333 15.0436 15.8333 14.5833V9.58333C15.8333 9.1231 16.2063 8.75 16.6666 8.75Z" fill="black"/>
<path fill-rule="evenodd" clip-rule="evenodd" d="M15.8333 17.9166C15.8333 17.4563 16.2063 17.0833 16.6666 17.0833H16.6749C17.1352 17.0833 17.5083 17.4563 17.5083 17.9166C17.5083 18.3768 17.1352 18.7499 16.6749 18.7499H16.6666C16.2063 18.7499 15.8333 18.3768 15.8333 17.9166Z" fill="black"/>
</svg>
