<svg width="20" height="20" viewBox="0 0 20 20" fill="none" xmlns="http://www.w3.org/2000/svg">
<g clip-path="url(#clip0_2001_5827)">
<path fill-rule="evenodd" clip-rule="evenodd" d="M12.8318 3.05592C11.4118 2.47686 9.84845 2.34698 8.35239 2.6838C6.85634 3.02061 5.49949 3.80793 4.46468 4.93965C3.42987 6.07137 2.76685 7.49311 2.56496 9.01326C2.36307 10.5334 2.63202 12.0789 3.33556 13.4415C4.0391 14.8041 5.14342 15.9183 6.4997 16.6339C7.85598 17.3495 9.39903 17.6322 10.9209 17.4439C11.3777 17.3873 11.7938 17.7118 11.8503 18.1685C11.9068 18.6253 11.5824 19.0414 11.1256 19.0979C9.26555 19.3281 7.3796 18.9826 5.72192 18.108C4.06425 17.2333 2.71453 15.8715 1.85464 14.2061C0.994763 12.5408 0.66605 10.6518 0.912804 8.79384C1.15956 6.93588 1.96992 5.1982 3.23468 3.81498C4.49944 2.43177 6.15782 1.46949 7.98633 1.05783C9.81484 0.646162 11.7256 0.804899 13.4611 1.51265C15.1966 2.22039 16.6735 3.44313 17.6927 5.01609C18.7118 6.58904 19.2243 8.43661 19.1611 10.3098C19.1456 10.7698 18.7601 11.1301 18.3002 11.1146C17.8402 11.0991 17.4799 10.7136 17.4954 10.2536C17.5471 8.72099 17.1278 7.20934 16.2939 5.92237C15.4601 4.63541 14.2517 3.63499 12.8318 3.05592Z" fill="black"/>
<path fill-rule="evenodd" clip-rule="evenodd" d="M10.0001 4.16675C10.4603 4.16675 10.8334 4.53984 10.8334 5.00008V9.48505L11.6744 9.90556C12.0861 10.1114 12.2529 10.6119 12.0471 11.0236C11.8413 11.4352 11.3407 11.6021 10.9291 11.3963L9.6274 10.7454C9.34508 10.6043 9.16675 10.3157 9.16675 10.0001V5.00008C9.16675 4.53984 9.53984 4.16675 10.0001 4.16675Z" fill="black"/>
<path fill-rule="evenodd" clip-rule="evenodd" d="M14.4107 11.0773C14.7361 10.7519 15.2637 10.7519 15.5892 11.0773L18.9225 14.4107C19.2479 14.7361 19.2479 15.2637 18.9225 15.5892C18.5971 15.9146 18.0694 15.9146 17.744 15.5892L14.9999 12.8451L12.2558 15.5892C11.9304 15.9146 11.4028 15.9146 11.0773 15.5892C10.7519 15.2637 10.7519 14.7361 11.0773 14.4107L14.4107 11.0773Z" fill="black"/>
<path fill-rule="evenodd" clip-rule="evenodd" d="M15.0001 10.8333C15.4603 10.8333 15.8334 11.2063 15.8334 11.6666V18.3333C15.8334 18.7935 15.4603 19.1666 15.0001 19.1666C14.5398 19.1666 14.1667 18.7935 14.1667 18.3333V11.6666C14.1667 11.2063 14.5398 10.8333 15.0001 10.8333Z" fill="black"/>
</g>
<defs>
<clipPath id="clip0_2001_5827">
<rect width="20" height="20" fill="white"/>
</clipPath>
</defs>
</svg>
