<svg width="20" height="20" viewBox="0 0 20 20" fill="none" xmlns="http://www.w3.org/2000/svg">
<g clip-path="url(#clip0_2001_5808)">
<path fill-rule="evenodd" clip-rule="evenodd" d="M9.99992 2.49992C5.85778 2.49992 2.49992 5.85778 2.49992 9.99992C2.49992 14.1421 5.85778 17.4999 9.99992 17.4999C14.1421 17.4999 17.4999 14.1421 17.4999 9.99992C17.4999 5.85778 14.1421 2.49992 9.99992 2.49992ZM0.833252 9.99992C0.833252 4.93731 4.93731 0.833252 9.99992 0.833252C15.0625 0.833252 19.1666 4.93731 19.1666 9.99992C19.1666 15.0625 15.0625 19.1666 9.99992 19.1666C4.93731 19.1666 0.833252 15.0625 0.833252 9.99992Z" fill="black"/>
<path fill-rule="evenodd" clip-rule="evenodd" d="M10.0001 4.16675C10.4603 4.16675 10.8334 4.53984 10.8334 5.00008V10.0001C10.8334 10.2889 10.6839 10.5571 10.4382 10.709C10.1925 10.8608 9.88575 10.8746 9.62742 10.7454L6.29409 9.07877C5.88244 8.87295 5.71559 8.37239 5.92141 7.96074C6.12724 7.54909 6.6278 7.38223 7.03945 7.58806L9.16677 8.65172V5.00008C9.16677 4.53984 9.53986 4.16675 10.0001 4.16675Z" fill="black"/>
</g>
<defs>
<clipPath id="clip0_2001_5808">
<rect width="20" height="20" fill="white"/>
</clipPath>
</defs>
</svg>
