<svg width="20" height="20" viewBox="0 0 20 20" fill="none" xmlns="http://www.w3.org/2000/svg">
<g clip-path="url(#clip0_2001_5822)">
<path fill-rule="evenodd" clip-rule="evenodd" d="M13.4407 3.33529C12.0781 2.63187 10.5326 2.36304 9.01251 2.56503C7.4924 2.76702 6.07074 3.43012 4.93909 4.46497C3.80745 5.49982 3.02022 6.85669 2.68348 8.35273C2.34673 9.84877 2.47667 11.4121 3.05577 12.832C3.63488 14.2519 4.63532 15.4602 5.92228 16.294C7.20923 17.1279 8.72086 17.5472 10.2535 17.4954C10.7134 17.4799 11.0989 17.8402 11.1144 18.3002C11.13 18.7601 10.7697 19.1456 10.3097 19.1611C8.43652 19.2244 6.58897 18.7119 5.01602 17.6928C3.44307 16.6737 2.22031 15.1969 1.51252 13.4614C0.804728 11.7259 0.645918 9.81523 1.05749 7.98674C1.46906 6.15824 2.43124 4.49985 3.81436 3.23503C5.19748 1.97021 6.93507 1.15976 8.79298 0.912886C10.6509 0.666011 12.5398 0.994578 14.2053 1.85431C15.8707 2.71405 17.2325 4.06363 18.1073 5.72119C18.9821 7.37876 19.3278 9.26464 19.0978 11.1247C19.0413 11.5815 18.6252 11.906 18.1685 11.8495C17.7117 11.793 17.3872 11.3769 17.4437 10.9202C17.6319 9.39828 17.3491 7.85529 16.6334 6.4991C15.9176 5.14291 14.8034 4.03871 13.4407 3.33529Z" fill="black"/>
<path fill-rule="evenodd" clip-rule="evenodd" d="M10.0001 4.16675C10.4603 4.16675 10.8334 4.53984 10.8334 5.00008V9.48505L12.0394 10.0881C12.4511 10.2939 12.6179 10.7944 12.4121 11.2061C12.2063 11.6177 11.7057 11.7846 11.2941 11.5788L9.6274 10.7454C9.34508 10.6043 9.16675 10.3157 9.16675 10.0001V5.00008C9.16675 4.53984 9.53984 4.16675 10.0001 4.16675Z" fill="black"/>
<path fill-rule="evenodd" clip-rule="evenodd" d="M11.0773 14.4108C11.4028 14.0854 11.9304 14.0854 12.2558 14.4108L14.9999 17.1549L17.744 14.4108C18.0694 14.0854 18.5971 14.0854 18.9225 14.4108C19.2479 14.7363 19.2479 15.2639 18.9225 15.5893L15.5892 18.9227C15.2637 19.2481 14.7361 19.2481 14.4107 18.9227L11.0773 15.5893C10.7519 15.2639 10.7519 14.7363 11.0773 14.4108Z" fill="black"/>
<path fill-rule="evenodd" clip-rule="evenodd" d="M15.0001 10.8333C15.4603 10.8333 15.8334 11.2063 15.8334 11.6666V18.3333C15.8334 18.7935 15.4603 19.1666 15.0001 19.1666C14.5398 19.1666 14.1667 18.7935 14.1667 18.3333V11.6666C14.1667 11.2063 14.5398 10.8333 15.0001 10.8333Z" fill="black"/>
</g>
<defs>
<clipPath id="clip0_2001_5822">
<rect width="20" height="20" fill="white"/>
</clipPath>
</defs>
</svg>
