<svg width="20" height="20" viewBox="0 0 20 20" fill="none" xmlns="http://www.w3.org/2000/svg">
<path fill-rule="evenodd" clip-rule="evenodd" d="M10.0001 12.4999C9.07961 12.4999 8.33341 13.2461 8.33341 14.1666C8.33341 15.0871 9.07961 15.8333 10.0001 15.8333C10.9206 15.8333 11.6667 15.0871 11.6667 14.1666C11.6667 13.2461 10.9206 12.4999 10.0001 12.4999ZM6.66675 14.1666C6.66675 12.3256 8.15913 10.8333 10.0001 10.8333C11.841 10.8333 13.3334 12.3256 13.3334 14.1666C13.3334 16.0075 11.841 17.4999 10.0001 17.4999C8.15913 17.4999 6.66675 16.0075 6.66675 14.1666Z" fill="black"/>
<path fill-rule="evenodd" clip-rule="evenodd" d="M9.28146 3.66765C8.56471 3.39502 7.79485 3.2909 7.03142 3.36335C6.268 3.4358 5.53147 3.68289 4.8788 4.08549C4.22613 4.48809 3.67482 5.03542 3.26749 5.68515C2.86016 6.33488 2.60774 7.0696 2.52975 7.83248C2.45176 8.59535 2.55029 9.36595 2.81772 10.0847C3.08515 10.8034 3.51431 11.4509 4.07201 11.9773C4.40672 12.2932 4.42198 12.8206 4.10609 13.1553C3.7902 13.49 3.26278 13.5053 2.92807 13.1894C2.18447 12.4876 1.61226 11.6242 1.25568 10.6659C0.899112 9.7076 0.767739 8.68014 0.871726 7.66297C0.975714 6.6458 1.31227 5.66618 1.85538 4.79987C2.39848 3.93357 3.13357 3.20379 4.00379 2.66699C4.87402 2.13019 5.85606 1.80074 6.87395 1.70414C7.89185 1.60754 8.91833 1.74636 9.874 2.10988C10.8297 2.47339 11.6889 3.05186 12.3853 3.80053C12.9383 4.39505 13.3768 5.08426 13.6809 5.83333H14.5834C14.5871 5.83333 14.5909 5.83335 14.5946 5.8334C15.5661 5.8465 16.5084 6.16801 17.2853 6.75151C18.0622 7.33501 18.6336 8.15031 18.9169 9.0797C19.2003 10.0091 19.181 11.0045 18.8617 11.9222C18.5425 12.8399 17.9399 13.6324 17.1409 14.1853C16.7624 14.4471 16.2433 14.3527 15.9814 13.9742C15.7196 13.5957 15.8141 13.0766 16.1925 12.8147C16.701 12.4629 17.0844 11.9586 17.2876 11.3746C17.4907 10.7906 17.503 10.1572 17.3227 9.56575C17.1424 8.97431 16.7788 8.45549 16.2844 8.08417C15.7914 7.7139 15.1938 7.50942 14.5774 7.5H13.0917C12.7236 7.5 12.3991 7.25847 12.2934 6.90585C12.0733 6.17126 11.6872 5.49715 11.1649 4.93564C10.6426 4.37414 9.99821 3.94029 9.28146 3.66765Z" fill="black"/>
<path fill-rule="evenodd" clip-rule="evenodd" d="M11.5427 14.8198C11.6883 14.3832 12.1602 14.1472 12.5968 14.2927L13.3468 14.5427C13.7835 14.6883 14.0194 15.1602 13.8739 15.5968C13.7283 16.0335 13.2564 16.2694 12.8198 16.1239L12.0698 15.8739C11.6332 15.7283 11.3972 15.2564 11.5427 14.8198Z" fill="black"/>
<path fill-rule="evenodd" clip-rule="evenodd" d="M6.12624 12.7365C6.27178 12.2999 6.74371 12.064 7.18033 12.2095L7.93033 12.4595C8.36695 12.605 8.60292 13.077 8.45738 13.5136C8.31184 13.9502 7.83991 14.1862 7.40329 14.0406L6.65329 13.7906C6.21667 13.6451 5.9807 13.1732 6.12624 12.7365Z" fill="black"/>
<path fill-rule="evenodd" clip-rule="evenodd" d="M9.34684 15.7095C9.78346 15.855 10.0194 16.327 9.87388 16.7636L9.62389 17.5136C9.47835 17.9502 9.00641 18.1862 8.56979 18.0406C8.13317 17.8951 7.89721 17.4232 8.04275 16.9865L8.29274 16.2365C8.43828 15.7999 8.91022 15.564 9.34684 15.7095Z" fill="black"/>
<path fill-rule="evenodd" clip-rule="evenodd" d="M11.4303 10.2927C11.867 10.4383 12.1029 10.9102 11.9574 11.3468L11.7074 12.0968C11.5618 12.5335 11.0899 12.7694 10.6533 12.6239C10.2167 12.4783 9.9807 12.0064 10.1262 11.5698L10.3762 10.8198C10.5218 10.3832 10.9937 10.1472 11.4303 10.2927Z" fill="black"/>
<path fill-rule="evenodd" clip-rule="evenodd" d="M10.6906 15.6428C11.1179 15.4719 11.6029 15.6798 11.7738 16.1071L12.1071 16.9404C12.2781 17.3677 12.0702 17.8527 11.6429 18.0236C11.2156 18.1946 10.7306 17.9867 10.5597 17.5594L10.2263 16.7261C10.0554 16.2987 10.2632 15.8138 10.6906 15.6428Z" fill="black"/>
<path fill-rule="evenodd" clip-rule="evenodd" d="M8.35731 10.3096C8.78463 10.1387 9.26961 10.3465 9.44054 10.7738L9.77387 11.6072C9.9448 12.0345 9.73695 12.5194 9.30963 12.6904C8.88231 12.8613 8.39734 12.6535 8.22641 12.2261L7.89308 11.3928C7.72215 10.9655 7.92999 10.4805 8.35731 10.3096Z" fill="black"/>
<path fill-rule="evenodd" clip-rule="evenodd" d="M8.52387 14.8571C8.6948 15.2844 8.48695 15.7694 8.05963 15.9403L7.2263 16.2736C6.79898 16.4446 6.314 16.2367 6.14308 15.8094C5.97215 15.3821 6.18 14.8971 6.60731 14.7262L7.44065 14.3928C7.86797 14.2219 8.35294 14.4298 8.52387 14.8571Z" fill="black"/>
<path fill-rule="evenodd" clip-rule="evenodd" d="M13.8571 12.5238C14.0281 12.9511 13.8202 13.4361 13.3929 13.607L12.5596 13.9404C12.1322 14.1113 11.6473 13.9035 11.4763 13.4761C11.3054 13.0488 11.5132 12.5638 11.9406 12.3929L12.7739 12.0596C13.2012 11.8887 13.6862 12.0965 13.8571 12.5238Z" fill="black"/>
</svg>
