<svg width="20" height="20" viewBox="0 0 20 20" fill="none" xmlns="http://www.w3.org/2000/svg">
<path fill-rule="evenodd" clip-rule="evenodd" d="M10.0001 10C10.4603 10 10.8334 10.3731 10.8334 10.8333V17.5C10.8334 17.9602 10.4603 18.3333 10.0001 18.3333C9.53984 18.3333 9.16675 17.9602 9.16675 17.5V10.8333C9.16675 10.3731 9.53984 10 10.0001 10Z" fill="black"/>
<path fill-rule="evenodd" clip-rule="evenodd" d="M9.32938 3.68147C8.62317 3.4042 7.86313 3.29128 7.10681 3.35126C6.3505 3.41125 5.61775 3.64256 4.96408 4.02767C4.3104 4.41279 3.75293 4.94161 3.3339 5.57409C2.91488 6.20657 2.64528 6.92611 2.54552 7.67821C2.44577 8.43031 2.51848 9.19525 2.75815 9.91509C2.99781 10.6349 3.39815 11.2908 3.92884 11.833C4.25076 12.1619 4.2451 12.6895 3.91619 13.0114C3.58728 13.3334 3.05967 13.3277 2.73774 12.9988C2.03016 12.2758 1.49638 11.4014 1.17682 10.4416C0.857269 9.4818 0.760321 8.46188 0.893325 7.45907C1.02633 6.45627 1.3858 5.49688 1.9445 4.65358C2.5032 3.81028 3.24649 3.10518 4.11806 2.59169C4.98963 2.0782 5.96663 1.76979 6.97505 1.68981C7.98346 1.60984 8.99686 1.7604 9.93847 2.13008C10.8801 2.49977 11.7252 3.07889 12.4099 3.82358C12.9519 4.41315 13.3821 5.09424 13.6814 5.83339H14.5832C14.5832 5.83339 14.5833 5.83339 14.5833 5.83339C15.5666 5.8333 16.524 6.14948 17.3138 6.73523C18.1037 7.321 18.6843 8.14529 18.9697 9.08634C19.2552 10.0274 19.2304 11.0353 18.899 11.9612C18.5676 12.8871 17.9472 13.6818 17.1295 14.228C16.7468 14.4837 16.2293 14.3806 15.9737 13.9979C15.718 13.6152 15.821 13.0977 16.2038 12.8421C16.7241 12.4945 17.1189 11.9888 17.3298 11.3996C17.5407 10.8104 17.5565 10.169 17.3748 9.57012C17.1932 8.97126 16.8237 8.44671 16.3211 8.07395C15.8184 7.70119 15.2092 7.49998 14.5834 7.50006H13.0916C12.7232 7.50006 12.3985 7.25815 12.2931 6.90514C12.0761 6.17816 11.6964 5.51011 11.1829 4.95159C10.6694 4.39307 10.0356 3.95873 9.32938 3.68147Z" fill="black"/>
<path fill-rule="evenodd" clip-rule="evenodd" d="M9.41066 10.2441C9.7361 9.91864 10.2637 9.91864 10.5892 10.2441L13.9225 13.5774C14.2479 13.9028 14.2479 14.4305 13.9225 14.7559C13.5971 15.0814 13.0694 15.0814 12.744 14.7559L9.99992 12.0118L7.25584 14.7559C6.9304 15.0814 6.40277 15.0814 6.07733 14.7559C5.75189 14.4305 5.75189 13.9028 6.07733 13.5774L9.41066 10.2441Z" fill="black"/>
</svg>
