<svg width="20" height="20" viewBox="0 0 20 20" fill="none" xmlns="http://www.w3.org/2000/svg">
<path fill-rule="evenodd" clip-rule="evenodd" d="M11.6689 4.51264C11.354 4.64963 11.0554 4.82586 10.7804 5.03876C10.0498 5.60446 9.52791 6.39698 9.2969 7.29167C9.18184 7.73729 8.72732 8.00527 8.2817 7.89021C7.83607 7.77515 7.5681 7.32062 7.68316 6.875C8.00657 5.62243 8.73717 4.51291 9.76006 3.72093C10.7829 2.92895 12.0401 2.49946 13.3337 2.5C13.6707 2.50014 13.9744 2.70323 14.1033 3.01459C14.2322 3.32596 14.1609 3.6843 13.9226 3.92259C13.4159 4.42935 13.1312 5.11667 13.1312 5.83333C13.1312 6.18819 13.2011 6.53958 13.3369 6.86742C13.4727 7.19527 13.6717 7.49316 13.9226 7.74408C14.1735 7.995 14.4714 8.19404 14.7993 8.32984C15.1271 8.46564 15.4785 8.53553 15.8334 8.53553C16.55 8.53553 17.2373 8.25084 17.7441 7.74408C17.9824 7.50576 18.3408 7.43446 18.6522 7.56341C18.9636 7.69237 19.1666 7.99619 19.1667 8.33322C19.1668 9.35732 18.8974 10.3634 18.3854 11.2504C17.8734 12.1373 17.1369 12.8738 16.25 13.3859C15.8515 13.616 15.3418 13.4794 15.1117 13.0808C14.8816 12.6823 15.0181 12.1726 15.4167 11.9425C16.0502 11.5767 16.5762 11.0506 16.9419 10.4171C17.0205 10.2811 17.091 10.1412 17.1533 9.99803C16.7303 10.1321 16.2854 10.2022 15.8334 10.2022C15.2596 10.2022 14.6915 10.0892 14.1615 9.86964C13.6314 9.65009 13.1498 9.32828 12.7441 8.92259C12.3384 8.5169 12.0166 8.03528 11.7971 7.50523C11.5775 6.97517 11.4645 6.40706 11.4645 5.83333C11.4645 5.38103 11.5346 4.93595 11.6689 4.51264Z" fill="black"/>
<path fill-rule="evenodd" clip-rule="evenodd" d="M9.16659 15.8333C9.62682 15.8333 9.99992 16.2063 9.99992 16.6666V18.3333C9.99992 18.7935 9.62682 19.1666 9.16659 19.1666C8.70635 19.1666 8.33325 18.7935 8.33325 18.3333V16.6666C8.33325 16.2063 8.70635 15.8333 9.16659 15.8333Z" fill="black"/>
<path fill-rule="evenodd" clip-rule="evenodd" d="M5.91938 10.836C5.41983 10.8232 4.92381 10.923 4.46801 11.1278C4.01222 11.3327 3.60831 11.6374 3.28618 12.0194C2.96404 12.4014 2.73193 12.851 2.60699 13.3349C2.48206 13.8187 2.46751 14.3244 2.56443 14.8147C2.66134 15.3049 2.86723 15.7671 3.16687 16.167C3.44284 16.5353 3.36798 17.0576 2.99966 17.3336C2.63134 17.6095 2.10904 17.5347 1.83307 17.1663C1.38361 16.5665 1.07477 15.8732 0.929402 15.1379C0.784033 14.4026 0.805855 13.6439 0.993253 12.9182C1.18065 12.1924 1.52883 11.5181 2.01203 10.945C2.49523 10.372 3.10109 9.91492 3.78478 9.60765C4.46847 9.30037 5.2125 9.15074 5.96183 9.16984C6.71116 9.18893 7.4466 9.37625 8.11376 9.71795C8.78091 10.0596 9.36271 10.547 9.8161 11.1439C10.1295 11.5565 10.376 12.0141 10.548 12.5H10.8326C11.5085 12.4991 12.1687 12.7037 12.7256 13.0866C13.2827 13.4697 13.7101 14.0131 13.9512 14.6447C14.1923 15.2763 14.2356 15.9663 14.0754 16.6231C13.9152 17.2799 13.5591 17.8725 13.0543 18.3222C12.7107 18.6284 12.1839 18.598 11.8777 18.2543C11.5716 17.9107 11.602 17.3839 11.9456 17.0778C12.198 16.8529 12.3761 16.5566 12.4562 16.2282C12.5363 15.8998 12.5146 15.5548 12.3941 15.239C12.2735 14.9232 12.0598 14.6515 11.7813 14.46C11.5027 14.2685 11.1726 14.1662 10.8345 14.1667L9.91664 14.1667C9.52076 14.1667 9.17953 13.8881 9.1002 13.5003C9.00007 13.0107 8.79115 12.5499 8.48889 12.152C8.18663 11.7541 7.79877 11.4292 7.354 11.2014C6.90923 10.9736 6.41893 10.8487 5.91938 10.836Z" fill="black"/>
<path fill-rule="evenodd" clip-rule="evenodd" d="M5.83333 15C6.29357 15 6.66667 15.3731 6.66667 15.8333V17.5C6.66667 17.9602 6.29357 18.3333 5.83333 18.3333C5.3731 18.3333 5 17.9602 5 17.5V15.8333C5 15.3731 5.3731 15 5.83333 15Z" fill="black"/>
</svg>
