<svg width="20" height="20" viewBox="0 0 20 20" fill="none" xmlns="http://www.w3.org/2000/svg">
<path fill-rule="evenodd" clip-rule="evenodd" d="M9.32938 3.68147C8.62317 3.4042 7.86313 3.29128 7.10681 3.35126C6.3505 3.41125 5.61775 3.64256 4.96408 4.02767C4.3104 4.41279 3.75293 4.94161 3.3339 5.57409C2.91488 6.20657 2.64528 6.92611 2.54552 7.67821C2.44577 8.43031 2.51848 9.19525 2.75815 9.91509C2.99781 10.6349 3.39815 11.2908 3.92884 11.833C4.25076 12.1619 4.2451 12.6895 3.91619 13.0114C3.58728 13.3334 3.05967 13.3277 2.73774 12.9988C2.03016 12.2758 1.49638 11.4014 1.17682 10.4416C0.857269 9.4818 0.760321 8.46188 0.893325 7.45907C1.02633 6.45627 1.3858 5.49688 1.9445 4.65358C2.5032 3.81028 3.24649 3.10518 4.11806 2.59169C4.98963 2.0782 5.96663 1.76979 6.97505 1.68981C7.98346 1.60984 8.99686 1.7604 9.93847 2.13008C10.8801 2.49977 11.7252 3.07889 12.4099 3.82358C12.9519 4.41315 13.3821 5.09424 13.6814 5.83339H14.5832C14.5832 5.83339 14.5833 5.83339 14.5833 5.83339C15.5666 5.8333 16.524 6.14948 17.3138 6.73523C18.1037 7.321 18.6843 8.14529 18.9697 9.08634C19.2552 10.0274 19.2304 11.0353 18.899 11.9612C18.5676 12.8871 17.9472 13.6818 17.1295 14.228C16.7468 14.4837 16.2293 14.3806 15.9737 13.9979C15.718 13.6152 15.821 13.0977 16.2038 12.8421C16.7241 12.4945 17.1189 11.9888 17.3298 11.3996C17.5407 10.8104 17.5565 10.169 17.3748 9.57012C17.1932 8.97126 16.8237 8.44671 16.3211 8.07395C15.8184 7.70119 15.2092 7.49998 14.5834 7.50006H13.0916C12.7232 7.50006 12.3985 7.25815 12.2931 6.90514C12.0761 6.17816 11.6964 5.51011 11.1829 4.95159C10.6694 4.39307 10.0356 3.95873 9.32938 3.68147Z" fill="black"/>
<path fill-rule="evenodd" clip-rule="evenodd" d="M10.4951 11.7341C10.9181 11.9154 11.114 12.4053 10.9328 12.8283L8.43275 18.6617C8.25146 19.0847 7.76156 19.2806 7.33853 19.0993C6.91551 18.918 6.71955 18.4281 6.90084 18.0051L9.40084 12.1718C9.58214 11.7488 10.072 11.5528 10.4951 11.7341Z" fill="black"/>
<path fill-rule="evenodd" clip-rule="evenodd" d="M7.82832 10.0673C8.25134 10.2486 8.4473 10.7385 8.266 11.1616L5.76601 16.9949C5.58471 17.4179 5.09481 17.6139 4.67178 17.4326C4.24876 17.2513 4.0528 16.7614 4.2341 16.3384L6.7341 10.505C6.91539 10.082 7.40529 9.88605 7.82832 10.0673Z" fill="black"/>
<path fill-rule="evenodd" clip-rule="evenodd" d="M14.4951 10.0673C14.9181 10.2486 15.114 10.7385 14.9328 11.1616L12.4328 16.9949C12.2515 17.4179 11.7616 17.6139 11.3385 17.4326C10.9155 17.2513 10.7195 16.7614 10.9008 16.3384L13.4008 10.505C13.5821 10.082 14.072 9.88605 14.4951 10.0673Z" fill="black"/>
</svg>
