<svg width="20" height="20" viewBox="0 0 20 20" fill="none" xmlns="http://www.w3.org/2000/svg">
<g clip-path="url(#clip0_2001_5903)">
<path fill-rule="evenodd" clip-rule="evenodd" d="M10.0001 0.833252C10.4603 0.833252 10.8334 1.20635 10.8334 1.66659V3.33325C10.8334 3.79349 10.4603 4.16658 10.0001 4.16658C9.53984 4.16658 9.16675 3.79349 9.16675 3.33325V1.66659C9.16675 1.20635 9.53984 0.833252 10.0001 0.833252Z" fill="black"/>
<path fill-rule="evenodd" clip-rule="evenodd" d="M3.51898 3.51898C3.84442 3.19354 4.37205 3.19354 4.69749 3.51898L5.87249 4.69398C6.19793 5.01942 6.19793 5.54705 5.87249 5.87249C5.54705 6.19793 5.01942 6.19793 4.69398 5.87249L3.51898 4.69749C3.19354 4.37205 3.19354 3.84442 3.51898 3.51898Z" fill="black"/>
<path fill-rule="evenodd" clip-rule="evenodd" d="M15.8333 10.0001C15.8333 9.53984 16.2063 9.16675 16.6666 9.16675H18.3333C18.7935 9.16675 19.1666 9.53984 19.1666 10.0001C19.1666 10.4603 18.7935 10.8334 18.3333 10.8334H16.6666C16.2063 10.8334 15.8333 10.4603 15.8333 10.0001Z" fill="black"/>
<path fill-rule="evenodd" clip-rule="evenodd" d="M16.4809 3.51898C16.8063 3.84442 16.8063 4.37205 16.4809 4.69749L15.3059 5.87249C14.9805 6.19793 14.4528 6.19793 14.1274 5.87249C13.8019 5.54706 13.8019 5.01942 14.1274 4.69398L15.3024 3.51898C15.6278 3.19354 16.1555 3.19354 16.4809 3.51898Z" fill="black"/>
<path fill-rule="evenodd" clip-rule="evenodd" d="M7.93937 6.37737C8.62343 5.98808 9.40376 5.8005 10.19 5.83636C10.9763 5.87221 11.7363 6.13003 12.3821 6.57995C13.0279 7.02988 13.533 7.65353 13.8391 8.37867C14.1451 9.10382 14.2394 9.90081 14.1112 10.6774C14.0363 11.1315 13.6074 11.4388 13.1533 11.3638C12.6992 11.2889 12.3919 10.86 12.4668 10.4059C12.5438 9.93996 12.4871 9.46177 12.3035 9.02668C12.1199 8.59159 11.8168 8.21741 11.4293 7.94745C11.0419 7.67749 10.5859 7.52281 10.1141 7.50129C9.64235 7.47978 9.17415 7.59233 8.76371 7.8259C8.36371 8.05354 7.85491 7.91381 7.62728 7.51381C7.39964 7.11381 7.53937 6.60501 7.93937 6.37737Z" fill="black"/>
<path fill-rule="evenodd" clip-rule="evenodd" d="M5.91938 10.836C5.41983 10.8232 4.92381 10.923 4.46801 11.1278C4.01222 11.3327 3.60831 11.6374 3.28618 12.0194C2.96404 12.4014 2.73193 12.851 2.60699 13.3349C2.48206 13.8187 2.46751 14.3244 2.56443 14.8147C2.66134 15.3049 2.86723 15.7671 3.16687 16.167C3.44284 16.5353 3.36798 17.0576 2.99966 17.3336C2.63134 17.6095 2.10904 17.5347 1.83307 17.1663C1.38361 16.5665 1.07477 15.8732 0.929402 15.1379C0.784033 14.4026 0.805855 13.6439 0.993253 12.9182C1.18065 12.1924 1.52883 11.5181 2.01203 10.945C2.49523 10.372 3.10109 9.91492 3.78478 9.60765C4.46847 9.30037 5.2125 9.15074 5.96183 9.16984C6.71116 9.18893 7.4466 9.37625 8.11376 9.71795C8.78091 10.0596 9.36271 10.547 9.8161 11.1439C10.1295 11.5565 10.376 12.0141 10.548 12.5H10.8326C11.5085 12.4991 12.1687 12.7037 12.7256 13.0866C13.2827 13.4697 13.7101 14.0131 13.9512 14.6447C14.1923 15.2763 14.2356 15.9663 14.0754 16.6231C13.9152 17.2799 13.5591 17.8725 13.0543 18.3222C12.7107 18.6284 12.1839 18.598 11.8777 18.2543C11.5716 17.9107 11.602 17.3839 11.9456 17.0778C12.198 16.8529 12.3761 16.5566 12.4562 16.2282C12.5363 15.8998 12.5146 15.5548 12.3941 15.239C12.2735 14.9232 12.0598 14.6515 11.7813 14.46C11.5027 14.2685 11.1726 14.1662 10.8345 14.1667L9.91664 14.1667C9.52076 14.1667 9.17953 13.8881 9.1002 13.5003C9.00007 13.0107 8.79115 12.5499 8.48889 12.152C8.18663 11.7541 7.79877 11.4292 7.354 11.2014C6.90923 10.9736 6.41893 10.8487 5.91938 10.836Z" fill="black"/>
<path fill-rule="evenodd" clip-rule="evenodd" d="M9.16659 15.8333C9.62682 15.8333 9.99992 16.2063 9.99992 16.6666V18.3333C9.99992 18.7935 9.62682 19.1666 9.16659 19.1666C8.70635 19.1666 8.33325 18.7935 8.33325 18.3333V16.6666C8.33325 16.2063 8.70635 15.8333 9.16659 15.8333Z" fill="black"/>
<path fill-rule="evenodd" clip-rule="evenodd" d="M5.83333 15C6.29357 15 6.66667 15.3731 6.66667 15.8333V17.5C6.66667 17.9602 6.29357 18.3333 5.83333 18.3333C5.3731 18.3333 5 17.9602 5 17.5V15.8333C5 15.3731 5.3731 15 5.83333 15Z" fill="black"/>
</g>
<defs>
<clipPath id="clip0_2001_5903">
<rect width="20" height="20" fill="white"/>
</clipPath>
</defs>
</svg>
