<svg width="20" height="20" viewBox="0 0 20 20" fill="none" xmlns="http://www.w3.org/2000/svg">
<path fill-rule="evenodd" clip-rule="evenodd" d="M11.6689 4.51264C11.354 4.64963 11.0554 4.82586 10.7804 5.03876C10.0498 5.60446 9.52791 6.39698 9.2969 7.29167C9.18184 7.73729 8.72732 8.00527 8.2817 7.89021C7.83607 7.77515 7.5681 7.32062 7.68316 6.875C8.00657 5.62243 8.73717 4.51291 9.76006 3.72093C10.7829 2.92895 12.0401 2.49946 13.3337 2.5C13.6707 2.50014 13.9744 2.70323 14.1033 3.01459C14.2322 3.32596 14.1609 3.6843 13.9226 3.92259C13.4159 4.42935 13.1312 5.11667 13.1312 5.83333C13.1312 6.18819 13.2011 6.53958 13.3369 6.86742C13.4727 7.19527 13.6717 7.49316 13.9226 7.74408C14.1735 7.995 14.4714 8.19404 14.7993 8.32984C15.1271 8.46564 15.4785 8.53553 15.8334 8.53553C16.55 8.53553 17.2373 8.25084 17.7441 7.74408C17.9824 7.50576 18.3408 7.43446 18.6522 7.56341C18.9636 7.69237 19.1666 7.99619 19.1667 8.33322C19.1668 9.35732 18.8974 10.3634 18.3854 11.2504C17.8734 12.1373 17.1369 12.8738 16.25 13.3859C15.8515 13.616 15.3418 13.4794 15.1117 13.0808C14.8816 12.6823 15.0181 12.1726 15.4167 11.9425C16.0502 11.5767 16.5762 11.0506 16.9419 10.4171C17.0205 10.2811 17.091 10.1412 17.1533 9.99803C16.7303 10.1321 16.2854 10.2022 15.8334 10.2022C15.2596 10.2022 14.6915 10.0892 14.1615 9.86964C13.6314 9.65009 13.1498 9.32828 12.7441 8.92259C12.3384 8.5169 12.0166 8.03528 11.7971 7.50523C11.5775 6.97517 11.4645 6.40706 11.4645 5.83333C11.4645 5.38103 11.5346 4.93595 11.6689 4.51264Z" fill="black"/>
<path fill-rule="evenodd" clip-rule="evenodd" d="M6.63218 10.9303C6.01983 10.7794 5.37721 10.8052 4.77897 11.0049C4.18072 11.2045 3.65139 11.5698 3.25246 12.0583C2.85353 12.5468 2.60136 13.1384 2.52526 13.7645C2.44915 14.3906 2.55222 15.0254 2.8225 15.5952C3.09278 16.1651 3.51918 16.6465 4.05217 16.9837C4.58511 17.3209 5.20275 17.4999 5.83338 17.5001C5.83344 17.5001 5.83349 17.5001 5.83355 17.5001H10.8334C11.2754 17.5001 11.6993 17.3245 12.0119 17.0119C12.3245 16.6994 12.5 16.2754 12.5 15.8334C12.5 15.3914 12.3245 14.9675 12.0119 14.6549C11.6993 14.3423 11.2754 14.1667 10.8334 14.1667H9.91671C9.52072 14.1667 9.17942 13.8881 9.10022 13.5001C8.97408 12.8821 8.67522 12.3127 8.23835 11.8578C7.80148 11.4029 7.24453 11.0813 6.63218 10.9303ZM4.25133 9.42392C5.1487 9.12443 6.11263 9.08566 7.03115 9.31212C7.94968 9.53859 8.78511 10.021 9.44041 10.7033C9.93518 11.2185 10.3119 11.8316 10.5483 12.5001H10.8334C11.7174 12.5001 12.5653 12.8513 13.1904 13.4764C13.8155 14.1015 14.1667 14.9494 14.1667 15.8334C14.1667 16.7175 13.8155 17.5653 13.1904 18.1904C12.5653 18.8156 11.7174 19.1667 10.8334 19.1667H5.83321C4.88718 19.1666 3.96062 18.898 3.16113 18.3922C2.36165 17.8864 1.72206 17.1642 1.31664 16.3095C0.911218 15.4547 0.75661 14.5025 0.87077 13.5634C0.98493 12.6243 1.36317 11.7368 1.96157 11.0041C2.55997 10.2713 3.35396 9.72341 4.25133 9.42392Z" fill="black"/>
</svg>
