<svg width="20" height="20" viewBox="0 0 20 20" fill="none" xmlns="http://www.w3.org/2000/svg">
<path fill-rule="evenodd" clip-rule="evenodd" d="M8.9123 3.53859C8.11289 3.30359 7.26742 3.2721 6.45274 3.44697C5.63806 3.62185 4.87999 3.99755 4.24745 4.53994C3.61491 5.08232 3.12795 5.77418 2.83082 6.55265C2.53369 7.33111 2.43582 8.17148 2.54611 8.99739C2.65639 9.8233 2.97133 10.6086 3.46231 11.2818C3.95328 11.955 4.60472 12.4949 5.35741 12.8523C5.77315 13.0497 5.95015 13.5468 5.75273 13.9625C5.55532 14.3782 5.05825 14.5552 4.6425 14.3578C3.63891 13.8813 2.77033 13.1615 2.1157 12.2638C1.46107 11.3662 1.04115 10.3192 0.894103 9.21799C0.747057 8.11678 0.877549 6.99627 1.27372 5.95832C1.66989 4.92037 2.31918 3.99789 3.16256 3.27471C4.00595 2.55153 5.0167 2.0506 6.10294 1.81743C7.18919 1.58426 8.31648 1.62625 9.38236 1.93959C10.4482 2.25293 11.4189 2.82768 12.2062 3.6116C12.8441 4.24679 13.3451 5.00299 13.6814 5.83338H14.5826C15.7551 5.83153 16.8838 6.27914 17.7364 7.08412C18.5892 7.88928 19.1008 8.99071 19.1661 10.1617C19.2313 11.3327 18.8452 12.4842 18.0872 13.3791C17.3291 14.274 16.2569 14.8443 15.0911 14.9726C14.6336 15.0229 14.222 14.6928 14.1716 14.2354C14.1213 13.7779 14.4513 13.3662 14.9088 13.3159C15.6507 13.2343 16.333 12.8714 16.8154 12.3019C17.2978 11.7324 17.5435 10.9996 17.502 10.2544C17.4605 9.50926 17.1349 8.80835 16.5922 8.29597C16.0495 7.7836 15.3311 7.49875 14.5847 7.50005L14.5833 7.50005H13.0916C12.7232 7.50005 12.3985 7.25814 12.2931 6.90513C12.0547 6.10672 11.6206 5.38054 11.0302 4.7926C10.4397 4.20466 9.71171 3.7736 8.9123 3.53859Z" fill="black"/>
<path fill-rule="evenodd" clip-rule="evenodd" d="M11.2621 9.28539C11.6567 9.52218 11.7847 10.0341 11.5479 10.4287L9.80516 13.3333H11.6667C11.9669 13.3333 12.2439 13.4948 12.3918 13.756C12.5398 14.0173 12.5357 14.3379 12.3812 14.5954L9.88124 18.762C9.64445 19.1567 9.13257 19.2847 8.73792 19.0479C8.34327 18.8111 8.2153 18.2992 8.45209 17.9045L10.1948 15H8.33333C8.03311 15 7.75609 14.8385 7.60817 14.5772C7.46025 14.316 7.46429 13.9953 7.61876 13.7379L10.1188 9.57122C10.3555 9.17657 10.8674 9.0486 11.2621 9.28539Z" fill="black"/>
</svg>
