<svg width="20" height="20" viewBox="0 0 20 20" fill="none" xmlns="http://www.w3.org/2000/svg">
<g clip-path="url(#clip0_2001_5881)">
<path fill-rule="evenodd" clip-rule="evenodd" d="M1.07733 1.07733C1.40277 0.751893 1.9304 0.751893 2.25584 1.07733L18.9225 17.744C19.2479 18.0694 19.2479 18.5971 18.9225 18.9225C18.5971 19.2479 18.0694 19.2479 17.744 18.9225L1.07733 2.25584C0.751893 1.9304 0.751893 1.40277 1.07733 1.07733Z" fill="black"/>
<path fill-rule="evenodd" clip-rule="evenodd" d="M5.55852 4.43563C5.76991 4.84445 5.60985 5.34723 5.20103 5.55861C4.2055 6.07335 3.41178 6.90762 2.94724 7.92753C2.4827 8.94744 2.37428 10.0939 2.63938 11.1828C2.90448 12.2717 3.52774 13.24 4.40911 13.9322C5.29049 14.6245 6.37887 15.0005 7.4996 15H14.5839C14.8709 15.0002 15.1563 14.9581 15.431 14.8749C15.8715 14.7416 16.3367 14.9906 16.47 15.4311C16.6034 15.8716 16.3544 16.3368 15.9139 16.4701C15.4822 16.6008 15.0337 16.667 14.5827 16.6667H7.5003C7.50019 16.6667 7.50007 16.6667 7.49995 16.6667C6.00578 16.6673 4.55473 16.1658 3.37966 15.2429C2.20449 14.3199 1.37349 13.0289 1.02001 11.577C0.666543 10.1251 0.811102 8.59658 1.43049 7.2367C2.04988 5.87681 3.10818 4.76445 4.43554 4.07813C4.84436 3.86675 5.34714 4.02681 5.55852 4.43563Z" fill="black"/>
<path fill-rule="evenodd" clip-rule="evenodd" d="M7.50848 4.10555C7.57447 3.65007 7.99721 3.33433 8.45269 3.40032C9.71234 3.58283 10.8935 4.12177 11.8569 4.95356C12.6607 5.64757 13.285 6.52128 13.6813 7.50004H14.583C14.5831 7.50004 14.5831 7.50004 14.5832 7.50004C15.3633 7.49992 16.1305 7.6989 16.8122 8.07814C17.4939 8.45742 18.0675 9.00442 18.4788 9.66737C18.89 10.3303 19.1252 11.0873 19.1621 11.8665C19.199 12.6458 19.0364 13.4216 18.6897 14.1204C18.4852 14.5327 17.9851 14.7011 17.5728 14.4965C17.1605 14.292 16.9921 13.792 17.1967 13.3797C17.4173 12.9349 17.5208 12.4413 17.4973 11.9454C17.4738 11.4495 17.3242 10.9678 17.0625 10.5459C16.8008 10.124 16.4357 9.77595 16.0019 9.53459C15.5681 9.29324 15.0798 9.16661 14.5834 9.16671L14.5832 8.33338V9.16671H13.0915C12.7231 9.16671 12.3985 8.92484 12.2931 8.57186C12.0198 7.65688 11.4905 6.83914 10.7677 6.21508C10.0449 5.59103 9.15876 5.18669 8.2137 5.04976C7.75822 4.98377 7.44248 4.56103 7.50848 4.10555Z" fill="black"/>
</g>
<defs>
<clipPath id="clip0_2001_5881">
<rect width="20" height="20" fill="white"/>
</clipPath>
</defs>
</svg>
