<svg width="20" height="20" viewBox="0 0 20 20" fill="none" xmlns="http://www.w3.org/2000/svg">
<g clip-path="url(#clip0_2001_5912)">
<path fill-rule="evenodd" clip-rule="evenodd" d="M10.0001 0.833252C10.4603 0.833252 10.8334 1.20635 10.8334 1.66659V3.33325C10.8334 3.79349 10.4603 4.16658 10.0001 4.16658C9.53984 4.16658 9.16675 3.79349 9.16675 3.33325V1.66659C9.16675 1.20635 9.53984 0.833252 10.0001 0.833252Z" fill="black"/>
<path fill-rule="evenodd" clip-rule="evenodd" d="M3.51898 3.51898C3.84442 3.19354 4.37205 3.19354 4.69749 3.51898L5.87249 4.69398C6.19793 5.01942 6.19793 5.54705 5.87249 5.87249C5.54705 6.19793 5.01942 6.19793 4.69398 5.87249L3.51898 4.69749C3.19354 4.37205 3.19354 3.84442 3.51898 3.51898Z" fill="black"/>
<path fill-rule="evenodd" clip-rule="evenodd" d="M15.8333 10.0001C15.8333 9.53984 16.2063 9.16675 16.6666 9.16675H18.3333C18.7935 9.16675 19.1666 9.53984 19.1666 10.0001C19.1666 10.4603 18.7935 10.8334 18.3333 10.8334H16.6666C16.2063 10.8334 15.8333 10.4603 15.8333 10.0001Z" fill="black"/>
<path fill-rule="evenodd" clip-rule="evenodd" d="M16.4809 3.51898C16.8063 3.84442 16.8063 4.37205 16.4809 4.69749L15.3059 5.87249C14.9805 6.19793 14.4528 6.19793 14.1274 5.87249C13.8019 5.54706 13.8019 5.01942 14.1274 4.69398L15.3024 3.51898C15.6278 3.19354 16.1555 3.19354 16.4809 3.51898Z" fill="black"/>
<path fill-rule="evenodd" clip-rule="evenodd" d="M7.93937 6.37737C8.62343 5.98808 9.40376 5.8005 10.19 5.83636C10.9763 5.87221 11.7363 6.13003 12.3821 6.57995C13.0279 7.02988 13.533 7.65353 13.8391 8.37867C14.1451 9.10382 14.2394 9.90081 14.1112 10.6774C14.0363 11.1315 13.6074 11.4388 13.1533 11.3638C12.6992 11.2889 12.3919 10.86 12.4668 10.4059C12.5438 9.93996 12.4871 9.46177 12.3035 9.02668C12.1199 8.59159 11.8168 8.21741 11.4293 7.94745C11.0419 7.67749 10.5859 7.52281 10.1141 7.50129C9.64235 7.47978 9.17415 7.59233 8.76371 7.8259C8.36371 8.05354 7.85491 7.91381 7.62728 7.51381C7.39964 7.11381 7.53937 6.60501 7.93937 6.37737Z" fill="black"/>
<path fill-rule="evenodd" clip-rule="evenodd" d="M6.63218 10.9303C6.01983 10.7794 5.37721 10.8052 4.77897 11.0049C4.18072 11.2045 3.65139 11.5698 3.25246 12.0583C2.85353 12.5468 2.60136 13.1384 2.52526 13.7645C2.44915 14.3906 2.55222 15.0254 2.8225 15.5952C3.09278 16.1651 3.51918 16.6465 4.05217 16.9837C4.58511 17.3209 5.20275 17.4999 5.83338 17.5001C5.83344 17.5001 5.83349 17.5001 5.83355 17.5001H10.8334C11.2754 17.5001 11.6993 17.3245 12.0119 17.0119C12.3245 16.6994 12.5 16.2754 12.5 15.8334C12.5 15.3914 12.3245 14.9675 12.0119 14.6549C11.6993 14.3423 11.2754 14.1667 10.8334 14.1667H9.91671C9.52072 14.1667 9.17942 13.8881 9.10022 13.5001C8.97408 12.8821 8.67522 12.3127 8.23835 11.8578C7.80148 11.4029 7.24453 11.0813 6.63218 10.9303ZM4.25133 9.42392C5.1487 9.12443 6.11263 9.08566 7.03115 9.31212C7.94968 9.53859 8.78511 10.021 9.44041 10.7033C9.93518 11.2185 10.3119 11.8316 10.5483 12.5001H10.8334C11.7174 12.5001 12.5653 12.8513 13.1904 13.4764C13.8155 14.1015 14.1667 14.9494 14.1667 15.8334C14.1667 16.7175 13.8155 17.5653 13.1904 18.1904C12.5653 18.8156 11.7174 19.1667 10.8334 19.1667H5.83321C4.88718 19.1666 3.96062 18.898 3.16113 18.3922C2.36165 17.8864 1.72206 17.1642 1.31664 16.3095C0.911218 15.4547 0.75661 14.5025 0.87077 13.5634C0.98493 12.6243 1.36317 11.7368 1.96157 11.0041C2.55997 10.2713 3.35396 9.72341 4.25133 9.42392Z" fill="black"/>
</g>
<defs>
<clipPath id="clip0_2001_5912">
<rect width="20" height="20" fill="white"/>
</clipPath>
</defs>
</svg>
