<svg width="20" height="20" viewBox="0 0 20 20" fill="none" xmlns="http://www.w3.org/2000/svg">
<path fill-rule="evenodd" clip-rule="evenodd" d="M8.37414 6.74343C7.46113 6.58158 6.52111 6.6768 5.6591 7.01844C4.7971 7.36009 4.04708 7.93471 3.49285 8.67808C2.93862 9.42146 2.60203 10.3043 2.52067 11.228C2.43931 12.1516 2.6164 13.0797 3.03215 13.9085C3.4479 14.7373 4.08593 15.4342 4.87494 15.9213C5.66389 16.4083 6.57272 16.6664 7.49989 16.6667C7.49996 16.6667 7.50003 16.6667 7.5001 16.6667H14.5832C14.9662 16.6667 15.3455 16.5912 15.6994 16.4446C16.0532 16.2981 16.3748 16.0832 16.6456 15.8124C16.9165 15.5416 17.1313 15.22 17.2779 14.8662C17.4244 14.5123 17.4999 14.133 17.4999 13.75C17.4999 13.367 17.4244 12.9877 17.2779 12.6338C17.1313 12.28 16.9165 11.9584 16.6456 11.6876C16.3748 11.4168 16.0532 11.2019 15.6994 11.0554C15.3455 10.9088 14.9662 10.8333 14.5832 10.8333H13.0916C12.723 10.8333 12.3983 10.5913 12.293 10.2381C12.028 9.34951 11.5212 8.55209 10.8292 7.93496C10.1372 7.31782 9.28714 6.90528 8.37414 6.74343ZM5.04501 5.46904C6.19435 5.01351 7.44772 4.88655 8.66506 5.10235C9.8824 5.31815 11.0157 5.86821 11.9385 6.69105C12.7038 7.37351 13.2991 8.22131 13.6816 9.16667H14.5832C15.1851 9.16667 15.7811 9.28522 16.3372 9.51555C16.8933 9.74589 17.3985 10.0835 17.8241 10.5091C18.2497 10.9347 18.5873 11.44 18.8177 11.996C19.048 12.5521 19.1666 13.1481 19.1666 13.75C19.1666 14.3519 19.048 14.9479 18.8177 15.504C18.5873 16.06 18.2497 16.5653 17.8241 16.9909C17.3985 17.4165 16.8933 17.7541 16.3372 17.9844C15.7811 18.2148 15.1851 18.3333 14.5832 18.3333H7.49968C6.26336 18.333 5.05148 17.9889 3.99946 17.3395C2.94745 16.6901 2.09674 15.7609 1.54241 14.6558C0.988078 13.5507 0.751956 12.3133 0.860431 11.0817C0.968905 9.85018 1.4177 8.67305 2.15667 7.68189C2.89564 6.69072 3.89567 5.92457 5.04501 5.46904Z" fill="black"/>
<path fill-rule="evenodd" clip-rule="evenodd" d="M9.33104 1.67436C10.5518 1.61733 11.756 1.97465 12.748 2.6883C13.5656 3.27646 14.1996 4.07818 14.5843 5.00001H15.8334C16.7175 5.00001 17.5653 5.3512 18.1904 5.97632C18.8156 6.60144 19.1667 7.44929 19.1667 8.33334C19.1667 8.79358 18.7937 9.16668 18.3334 9.16668C17.8732 9.16668 17.5001 8.79358 17.5001 8.33334C17.5001 7.89131 17.3245 7.46739 17.0119 7.15483C16.6994 6.84227 16.2754 6.66668 15.8334 6.66668H13.9942C13.6217 6.66668 13.2945 6.41947 13.1927 6.06116C12.9613 5.24723 12.4616 4.5354 11.7747 4.04126C11.0878 3.54713 10.2541 3.29972 9.40882 3.33921C8.56357 3.3787 7.7565 3.70277 7.11866 4.2588C6.48082 4.81482 6.04968 5.57014 5.89525 6.4021C5.81125 6.8546 5.37633 7.15334 4.92383 7.06935C4.47132 6.98535 4.17258 6.55043 4.25658 6.09792C4.47961 4.89637 5.10228 3.8055 6.02348 3.00247C6.94468 2.19943 8.11029 1.7314 9.33104 1.67436Z" fill="black"/>
</svg>
