<svg width="20" height="20" viewBox="0 0 20 20" fill="none" xmlns="http://www.w3.org/2000/svg">
<path fill-rule="evenodd" clip-rule="evenodd" d="M8.37414 5.07668C7.46113 4.91483 6.52111 5.01005 5.6591 5.3517C4.7971 5.69334 4.04708 6.26796 3.49285 7.01134C2.93862 7.75471 2.60203 8.63756 2.52067 9.56122C2.43931 10.4849 2.6164 11.413 3.03215 12.2418C3.4479 13.0706 4.08593 13.7675 4.87494 14.2545C5.66389 14.7416 6.57272 14.9996 7.49989 14.9999C7.49996 14.9999 7.50003 14.9999 7.5001 14.9999H14.5832C15.3568 14.9999 16.0986 14.6926 16.6456 14.1456C17.1926 13.5987 17.4999 12.8568 17.4999 12.0833C17.4999 11.3097 17.1926 10.5678 16.6456 10.0209C16.0986 9.47388 15.3568 9.16659 14.5832 9.16659H13.0916C12.723 9.16659 12.3983 8.92452 12.293 8.57135C12.028 7.68276 11.5212 6.88535 10.8292 6.26821C10.1372 5.65107 9.28714 5.23853 8.37414 5.07668ZM5.04501 3.80229C6.19435 3.34676 7.44772 3.2198 8.66506 3.4356C9.8824 3.6514 11.0157 4.20146 11.9385 5.02431C12.7038 5.70676 13.2991 6.55456 13.6816 7.49992H14.5832C15.7988 7.49992 16.9646 7.98281 17.8241 8.84235C18.6837 9.70189 19.1666 10.8677 19.1666 12.0833C19.1666 13.2988 18.6837 14.4646 17.8241 15.3242C16.9646 16.1837 15.7988 16.6666 14.5832 16.6666H7.49968C6.26336 16.6663 5.05148 16.3222 3.99946 15.6727C2.94745 15.0233 2.09674 14.0942 1.54241 12.9891C0.988078 11.884 0.751956 10.6465 0.860431 9.41499C0.968905 8.18344 1.4177 7.00631 2.15667 6.01514C2.89564 5.02397 3.89567 4.25782 5.04501 3.80229Z" fill="black"/>
</svg>
