<svg width="20" height="20" viewBox="0 0 20 20" fill="none" xmlns="http://www.w3.org/2000/svg">
<path fill-rule="evenodd" clip-rule="evenodd" d="M9.99992 10C10.4602 10 10.8333 10.3731 10.8333 10.8333V17.5C10.8333 17.8371 10.6302 18.1409 10.3188 18.2699C10.0074 18.3989 9.64899 18.3276 9.41066 18.0893L6.07733 14.7559C5.75189 14.4305 5.75189 13.9028 6.07733 13.5774C6.40277 13.252 6.9304 13.252 7.25584 13.5774L9.16659 15.4882V10.8333C9.16659 10.3731 9.53968 10 9.99992 10Z" fill="black"/>
<path fill-rule="evenodd" clip-rule="evenodd" d="M13.9227 13.5773C14.2481 13.9028 14.2481 14.4304 13.9227 14.7558L10.5893 18.0892C10.2639 18.4146 9.73626 18.4146 9.41083 18.0892C9.08539 17.7637 9.08539 17.2361 9.41083 16.9107L12.7442 13.5773C13.0696 13.2519 13.5972 13.2519 13.9227 13.5773Z" fill="black"/>
<path fill-rule="evenodd" clip-rule="evenodd" d="M9.23965 3.64545C8.51289 3.37603 7.73343 3.27925 6.96284 3.36277C6.19226 3.4463 5.45164 3.70783 4.79948 4.12672C4.14731 4.54561 3.60147 5.11038 3.20505 5.77644C2.80863 6.44249 2.57248 7.19159 2.51527 7.96458C2.45805 8.73757 2.58133 9.51327 2.87537 10.2304C3.16941 10.9476 3.62616 11.5866 4.20954 12.0969C4.55594 12.4 4.5911 12.9264 4.28807 13.2728C3.98504 13.6192 3.45858 13.6544 3.11218 13.3513C2.33433 12.6709 1.72534 11.8189 1.33329 10.8627C0.941236 9.90648 0.776863 8.8722 0.853149 7.84156C0.929436 6.81091 1.24429 5.8121 1.77285 4.92403C2.30142 4.03595 3.02921 3.28292 3.89876 2.7244C4.76831 2.16588 5.7558 1.81717 6.78325 1.70581C7.8107 1.59445 8.84997 1.72348 9.819 2.08272C10.788 2.44196 11.6603 3.02157 12.3668 3.77577C12.9293 4.37613 13.3745 5.07403 13.6816 5.8333H14.5833C14.5833 5.8333 14.5833 5.8333 14.5834 5.8333C15.5734 5.8332 16.5368 6.15367 17.3296 6.74676C18.1223 7.33988 18.7017 8.17375 18.981 9.1236C19.2603 10.0735 19.2245 11.0882 18.879 12.016C18.5335 12.9439 17.8969 13.7349 17.0644 14.2707C16.6774 14.5198 16.1617 14.408 15.9126 14.021C15.6635 13.634 15.7753 13.1183 16.1624 12.8692C16.6921 12.5282 17.0973 12.0249 17.3171 11.4344C17.537 10.844 17.5598 10.1982 17.382 9.59379C17.2043 8.98934 16.8356 8.4587 16.3311 8.08126C15.8266 7.70382 15.2135 7.49989 14.5835 7.49997H13.0917C12.7232 7.49997 12.3984 7.25792 12.2931 6.90478C12.0716 6.162 11.6804 5.48089 11.1505 4.91524C10.6206 4.34959 9.96642 3.91488 9.23965 3.64545Z" fill="black"/>
</svg>
