<svg width="20" height="20" viewBox="0 0 20 20" fill="none" xmlns="http://www.w3.org/2000/svg">
<path fill-rule="evenodd" clip-rule="evenodd" d="M14.0642 5.93573C14.3896 6.26117 14.3896 6.7888 14.0642 7.11424L2.25584 18.9226C1.9304 19.248 1.40277 19.248 1.07733 18.9226C0.751893 18.5971 0.751893 18.0695 1.07733 17.7441L12.8857 5.93573C13.2111 5.61029 13.7387 5.61029 14.0642 5.93573Z" fill="black"/>
<path fill-rule="evenodd" clip-rule="evenodd" d="M8.29449 3.34149C8.08934 3.32768 7.88352 3.35556 7.68944 3.42346C7.49536 3.49136 7.31704 3.59787 7.16525 3.73656C7.01345 3.87525 6.89132 4.04325 6.80622 4.23043C6.72112 4.41761 6.67482 4.62009 6.6701 4.82565C6.66539 5.03121 6.70236 5.2356 6.77879 5.42648C6.85522 5.61736 6.96952 5.79078 7.1148 5.93629C7.43981 6.2618 7.4396 6.78908 7.11434 7.11434C6.78908 7.4396 6.2618 7.43981 5.93629 7.1148C5.79078 6.96952 5.61736 6.85522 5.42648 6.77879C5.2356 6.70236 5.03121 6.66539 4.82565 6.6701C4.62009 6.67482 4.41761 6.72112 4.23043 6.80622C4.04325 6.89132 3.87525 7.01345 3.73656 7.16525C3.59787 7.31704 3.49136 7.49536 3.42346 7.68944C3.35556 7.88352 3.32768 8.08934 3.34149 8.29449C3.35531 8.49964 3.41053 8.69987 3.50384 8.8831C3.59715 9.06632 3.7266 9.22875 3.88439 9.36058C4.23758 9.65567 4.28468 10.1812 3.98959 10.5344C3.94012 10.5936 3.88416 10.6442 3.82362 10.6861C3.57008 10.9526 3.42053 11.3029 3.40481 11.6728C3.38763 12.0771 3.53176 12.4717 3.8055 12.7697C4.07924 13.0678 4.46016 13.2448 4.86447 13.262C5.26877 13.2792 5.66335 13.1351 5.96138 12.8613C6.29518 12.5548 6.81278 12.5712 7.1265 12.8982C7.44022 13.2253 7.43502 13.7432 7.1148 14.0639C6.96952 14.2094 6.85522 14.3828 6.77879 14.5737C6.70236 14.7646 6.66539 14.969 6.6701 15.1745C6.67482 15.3801 6.72112 15.5826 6.80622 15.7697C6.89132 15.9569 7.01345 16.1249 7.16525 16.2636C7.31704 16.4023 7.49536 16.5088 7.68944 16.5767C7.88352 16.6446 8.08934 16.6725 8.29449 16.6587C8.49964 16.6449 8.69987 16.5896 8.8831 16.4963C9.06632 16.403 9.22875 16.2736 9.36058 16.1158C9.51891 15.9263 9.75314 15.8168 10.0001 15.8168C10.247 15.8168 10.4813 15.9263 10.6396 16.1158C10.7714 16.2736 10.9339 16.403 11.1171 16.4963C11.3003 16.5896 11.5005 16.6449 11.7057 16.6587C11.9108 16.6725 12.1167 16.6446 12.3107 16.5767C12.5048 16.5088 12.6831 16.4023 12.8349 16.2636C12.9867 16.1249 13.1089 15.9569 13.194 15.7697C13.2791 15.5826 13.3254 15.3801 13.3301 15.1745C13.3348 14.969 13.2978 14.7646 13.2214 14.5737C13.145 14.3828 13.0307 14.2094 12.8854 14.0639C12.5604 13.7384 12.5606 13.2111 12.8858 12.8858C13.2111 12.5606 13.7384 12.5604 14.0639 12.8854C14.2094 13.0307 14.3828 13.145 14.5737 13.2214C14.7646 13.2978 14.969 13.3348 15.1745 13.3301C15.3801 13.3254 15.5826 13.2791 15.7697 13.194C15.9569 13.1089 16.1249 12.9867 16.2636 12.8349C16.4023 12.6831 16.5088 12.5048 16.5767 12.3107C16.6446 12.1167 16.6725 11.9108 16.6587 11.7057C16.6449 11.5005 16.5896 11.3003 16.4963 11.1171C16.403 10.9339 16.2736 10.7714 16.1158 10.6396C15.9263 10.4813 15.8168 10.247 15.8168 10.0001C15.8168 9.75314 15.9263 9.51891 16.1158 9.36058C16.2736 9.22875 16.403 9.06632 16.4963 8.8831C16.5896 8.69987 16.6449 8.49964 16.6587 8.29449C16.6725 8.08934 16.6446 7.88352 16.5767 7.68944C16.5088 7.49536 16.4023 7.31704 16.2636 7.16525C16.1249 7.01345 15.9569 6.89132 15.7697 6.80622C15.5826 6.72112 15.3801 6.67482 15.1745 6.6701C14.969 6.66539 14.7646 6.70236 14.5737 6.77879C14.3828 6.85522 14.2094 6.96952 14.0639 7.1148C13.7384 7.43981 13.2111 7.4396 12.8858 7.11434C12.5606 6.78908 12.5604 6.2618 12.8854 5.93629C13.0307 5.79079 13.145 5.61736 13.2214 5.42648C13.2978 5.23559 13.3348 5.03121 13.3301 4.82565C13.3254 4.62009 13.2791 4.41761 13.194 4.23043C13.1089 4.04325 12.9867 3.87525 12.8349 3.73656C12.6831 3.59787 12.5048 3.49136 12.3107 3.42346C12.1167 3.35556 11.9108 3.32768 11.7057 3.34149C11.5005 3.35531 11.3003 3.41053 11.1171 3.50384C10.9339 3.59715 10.7714 3.7266 10.6396 3.88439C10.4813 4.0739 10.247 4.18342 10.0001 4.18342C9.75314 4.18342 9.51891 4.0739 9.36058 3.88439C9.22875 3.7266 9.06632 3.59715 8.8831 3.50384C8.69987 3.41053 8.49964 3.35531 8.29449 3.34149ZM2.24246 10.0133C2.15961 9.89419 2.0848 9.7693 2.01866 9.63941C1.82321 9.25561 1.70753 8.8362 1.67859 8.40647C1.64966 7.97674 1.70806 7.54561 1.85029 7.13907C1.99252 6.73253 2.21562 6.35901 2.50613 6.04104C2.79665 5.72308 3.14856 5.46725 3.54064 5.289C3.93272 5.11074 4.35685 5.01375 4.78744 5.00388C4.86053 5.0022 4.93355 5.00304 5.00637 5.00637C5.00304 4.93355 5.0022 4.86053 5.00388 4.78744C5.01375 4.35685 5.11074 3.93272 5.289 3.54064C5.46725 3.14856 5.72308 2.79665 6.04104 2.50613C6.35901 2.21562 6.73253 1.99252 7.13907 1.85029C7.54561 1.70806 7.97674 1.64966 8.40647 1.67859C8.8362 1.70753 9.25561 1.82321 9.63941 2.01866C9.7645 2.08236 9.88496 2.1541 10.0001 2.23332C10.1152 2.1541 10.2357 2.08236 10.3608 2.01866C10.7446 1.82321 11.164 1.70753 11.5937 1.67859C12.0234 1.64966 12.4546 1.70806 12.8611 1.85029C13.2676 1.99252 13.6412 2.21562 13.9591 2.50613C14.2771 2.79665 14.5329 3.14856 14.7112 3.54064C14.8894 3.93272 14.9864 4.35685 14.9963 4.78744C14.998 4.86053 14.9971 4.93355 14.9938 5.00637C15.0666 5.00304 15.1396 5.0022 15.2127 5.00388C15.6433 5.01375 16.0675 5.11074 16.4595 5.289C16.8516 5.46725 17.2035 5.72308 17.494 6.04104C17.7846 6.35901 18.0077 6.73253 18.1499 7.13907C18.2921 7.54561 18.3505 7.97674 18.3216 8.40647C18.2926 8.8362 18.177 9.25561 17.9815 9.63941C17.9178 9.7645 17.8461 9.88496 17.7669 10.0001C17.8461 10.1152 17.9178 10.2357 17.9815 10.3608C18.177 10.7446 18.2926 11.164 18.3216 11.5937C18.3505 12.0234 18.2921 12.4546 18.1499 12.8611C18.0077 13.2676 17.7846 13.6412 17.494 13.9591C17.2035 14.2771 16.8516 14.5329 16.4595 14.7112C16.0675 14.8894 15.6433 14.9864 15.2127 14.9963C15.1396 14.998 15.0666 14.9971 14.9938 14.9938C14.9971 15.0666 14.998 15.1396 14.9963 15.2127C14.9864 15.6433 14.8894 16.0675 14.7112 16.4595C14.5329 16.8516 14.2771 17.2035 13.9591 17.494C13.6412 17.7846 13.2676 18.0077 12.8611 18.1499C12.4546 18.2921 12.0234 18.3505 11.5937 18.3216C11.164 18.2926 10.7446 18.177 10.3608 17.9815C10.2357 17.9178 10.1152 17.8461 10.0001 17.7669C9.88496 17.8461 9.7645 17.9178 9.63941 17.9815C9.25561 18.177 8.8362 18.2926 8.40647 18.3216C7.97674 18.3505 7.54561 18.2921 7.13907 18.1499C6.73253 18.0077 6.35901 17.7846 6.04104 17.494C5.72308 17.2035 5.46725 16.8516 5.289 16.4595C5.11074 16.0675 5.01375 15.6433 5.00388 15.2127C5.0017 15.118 5.00376 15.0233 5.01 14.9291C4.93812 14.9309 4.86598 14.9303 4.7937 14.9272C3.94776 14.8912 3.15075 14.5207 2.57801 13.8971C2.00527 13.2735 1.7037 12.448 1.73965 11.602C1.76386 11.0324 1.93976 10.485 2.24246 10.0133Z" fill="black"/>
<path fill-rule="evenodd" clip-rule="evenodd" d="M5.93573 5.93573C6.26117 5.61029 6.7888 5.61029 7.11424 5.93573L14.0642 12.8857C14.3897 13.2112 14.3897 13.7388 14.0642 14.0642C13.7388 14.3897 13.2112 14.3897 12.8857 14.0642L5.93573 7.11424C5.61029 6.7888 5.61029 6.26117 5.93573 5.93573Z" fill="black"/>
</svg>
