<svg width="20" height="20" viewBox="0 0 20 20" fill="none" xmlns="http://www.w3.org/2000/svg">
<g clip-path="url(#clip0_2001_5932)">
<path fill-rule="evenodd" clip-rule="evenodd" d="M7.57755 1.41341C8.32968 1.03734 9.15905 0.841553 9.99996 0.841553C10.8409 0.841553 11.6702 1.03734 12.4224 1.41341C13.1745 1.78947 13.8287 2.33549 14.3333 3.00822C14.8378 3.68095 15.1788 4.46191 15.3293 5.28926C15.4273 5.82879 15.4426 6.37838 15.3761 6.91935C15.9479 7.09879 16.488 7.37251 16.9733 7.73108C17.6958 8.26496 18.2742 8.97016 18.6564 9.78319C19.0386 10.5962 19.2125 11.4915 19.1626 12.3885C19.1127 13.2855 18.8404 14.156 18.3704 14.9216C17.9004 15.6872 17.2473 16.3238 16.47 16.7742C15.6927 17.2246 14.8155 17.4746 13.9176 17.5017C13.0196 17.5288 12.129 17.3321 11.326 16.9294C10.8369 16.6841 10.3897 16.3671 9.99838 15.9905C9.60675 16.3655 9.15958 16.681 8.67086 16.9249C7.86783 17.3257 6.9778 17.5206 6.08077 17.4922C5.18374 17.4638 4.30783 17.213 3.53174 16.7622C2.75566 16.3115 2.10373 15.675 1.63455 14.9099C1.16538 14.1449 0.893656 13.2752 0.843811 12.3791C0.793965 11.483 0.967558 10.5886 1.34899 9.77617C1.73042 8.96377 2.30773 8.25889 3.02903 7.72486C3.51327 7.36635 4.05221 7.09239 4.62294 6.9124C4.5574 6.37367 4.57299 5.82648 4.67066 5.28926C4.82109 4.46191 5.16208 3.68095 5.66662 3.00822C6.17117 2.33549 6.82542 1.78947 7.57755 1.41341ZM9.99996 2.50822C9.41779 2.50822 8.84361 2.64376 8.32291 2.90412C7.8022 3.16447 7.34926 3.54248 6.99996 4.00822C6.65066 4.47395 6.41459 5.01462 6.31044 5.5874C6.2063 6.16018 6.23695 6.74934 6.39996 7.30822C6.46756 7.54001 6.43131 7.78973 6.30059 7.99273C6.16987 8.19573 5.95752 8.33205 5.71853 8.36641C5.10352 8.45482 4.52012 8.69465 4.02075 9.06437C3.52138 9.43408 3.12171 9.92208 2.85764 10.4845C2.59358 11.0469 2.4734 11.6662 2.5079 12.2865C2.54241 12.9069 2.73053 13.509 3.05534 14.0386C3.38016 14.5683 3.83149 15.009 4.36878 15.321C4.90607 15.6331 5.51247 15.8067 6.13349 15.8264C6.75452 15.846 7.37069 15.7111 7.92663 15.4336C8.48258 15.1562 8.96087 14.7449 9.31853 14.2369C9.47482 14.0148 9.72947 13.8829 10.001 13.8832C10.2725 13.8836 10.5268 14.0161 10.6826 14.2385C11.0393 14.748 11.5172 15.1607 12.0731 15.4396C12.6291 15.7184 13.2457 15.8546 13.8673 15.8358C14.489 15.8171 15.0962 15.644 15.6344 15.3322C16.1725 15.0204 16.6246 14.5796 16.9501 14.0496C17.2755 13.5195 17.4639 12.9169 17.4985 12.2959C17.5331 11.6749 17.4126 11.0551 17.148 10.4922C16.8835 9.92935 16.483 9.44113 15.9828 9.07152C15.4826 8.70191 14.8983 8.46252 14.2826 8.37491C13.8718 8.31646 13.5666 7.96477 13.5666 7.54989V7.54155C13.5666 7.46259 13.5778 7.38403 13.6 7.30822C13.763 6.74934 13.7936 6.16018 13.6895 5.5874C13.5853 5.01462 13.3493 4.47396 13 4.00822C12.6507 3.54248 12.1977 3.16447 11.677 2.90412C11.1563 2.64376 10.5821 2.50822 9.99996 2.50822Z" fill="black"/>
<path fill-rule="evenodd" clip-rule="evenodd" d="M10.0001 13.8833C10.4603 13.8833 10.8334 14.2564 10.8334 14.7166V18.3333C10.8334 18.7935 10.4603 19.1666 10.0001 19.1666C9.53984 19.1666 9.16675 18.7935 9.16675 18.3333V14.7166C9.16675 14.2564 9.53984 13.8833 10.0001 13.8833Z" fill="black"/>
</g>
<defs>
<clipPath id="clip0_2001_5932">
<rect width="20" height="20" fill="white"/>
</clipPath>
</defs>
</svg>
