<svg width="20" height="20" viewBox="0 0 20 20" fill="none" xmlns="http://www.w3.org/2000/svg">
<path fill-rule="evenodd" clip-rule="evenodd" d="M14.4108 6.07733C14.7363 5.75189 15.2639 5.75189 15.5893 6.07733L18.9227 9.41066C19.2481 9.7361 19.2481 10.2637 18.9227 10.5892L15.5893 13.9225C15.2639 14.2479 14.7363 14.2479 14.4108 13.9225C14.0854 13.5971 14.0854 13.0694 14.4108 12.744L17.1549 9.99992L14.4108 7.25584C14.0854 6.9304 14.0854 6.40277 14.4108 6.07733Z" fill="black"/>
<path fill-rule="evenodd" clip-rule="evenodd" d="M5.58917 6.07733C5.91461 6.40277 5.91461 6.9304 5.58917 7.25584L2.8451 9.99992L5.58917 12.744C5.91461 13.0694 5.91461 13.5971 5.58917 13.9225C5.26374 14.2479 4.7361 14.2479 4.41066 13.9225L1.07733 10.5892C0.751893 10.2637 0.751893 9.7361 1.07733 9.41066L4.41066 6.07733C4.7361 5.75189 5.26374 5.75189 5.58917 6.07733Z" fill="black"/>
<path fill-rule="evenodd" clip-rule="evenodd" d="M12.3318 2.53791C12.7711 2.67519 13.0159 3.14259 12.8786 3.58187L8.71196 16.9152C8.57469 17.3545 8.10729 17.5993 7.668 17.462C7.22871 17.3248 6.98389 16.8574 7.12116 16.4181L11.2878 3.08475C11.4251 2.64546 11.8925 2.40063 12.3318 2.53791Z" fill="black"/>
</svg>
