<svg width="20" height="20" viewBox="0 0 20 20" fill="none" xmlns="http://www.w3.org/2000/svg">
<path fill-rule="evenodd" clip-rule="evenodd" d="M8.75185 1.16888C9.13147 0.950118 9.56192 0.834961 10.0001 0.834961C10.4382 0.834961 10.8687 0.950118 11.2483 1.16888C11.2489 1.16922 11.2495 1.16956 11.2501 1.1699L17.0802 4.50138C17.0813 4.502 17.0823 4.50261 17.0834 4.50323C17.4631 4.72243 17.7784 5.03762 17.9978 5.41718C18.2172 5.79674 18.333 6.22732 18.3334 6.66573V13.3341C18.333 13.7725 18.2172 14.2031 17.9978 14.5827C17.7784 14.9622 17.4631 15.2774 17.0834 15.4966C17.0823 15.4972 17.0813 15.4978 17.0802 15.4985L11.2501 18.8299C11.2495 18.8302 11.249 18.8306 11.2485 18.8309C10.8688 19.0497 10.4383 19.1649 10.0001 19.1649C9.56186 19.1649 9.13134 19.0497 8.75169 18.8309C8.75115 18.8306 8.75062 18.8302 8.75008 18.8299L2.91997 15.4985C2.91889 15.4978 2.91782 15.4972 2.91675 15.4966C2.53708 15.2774 2.22172 14.9622 2.00232 14.5827C1.78293 14.2031 1.6672 13.7725 1.66675 13.3341V6.66573C1.6672 6.22732 1.78293 5.79674 2.00232 5.41718C2.22172 5.03762 2.53708 4.72243 2.91675 4.50323C2.91782 4.50261 2.91889 4.502 2.91997 4.50138L8.75185 1.16888ZM10.0001 2.50163C9.8538 2.50163 9.7101 2.54013 9.58341 2.61327C9.58234 2.61389 9.58127 2.61451 9.5802 2.61512L3.74876 5.94737C3.62279 6.02041 3.51815 6.12518 3.44527 6.25126C3.3722 6.37767 3.33363 6.52107 3.33341 6.66708V13.3328C3.33363 13.4788 3.3722 13.6222 3.44527 13.7486C3.51814 13.8746 3.62276 13.9794 3.7487 14.0524C3.74916 14.0527 3.74962 14.053 3.75008 14.0532L9.5802 17.3847C9.58127 17.3853 9.58234 17.3859 9.58341 17.3866C9.7101 17.4597 9.8538 17.4982 10.0001 17.4982C10.1464 17.4982 10.2901 17.4597 10.4167 17.3866C10.4178 17.3859 10.4189 17.3853 10.42 17.3847L16.2501 14.0532C16.2505 14.053 16.251 14.0527 16.2514 14.0524C16.3774 13.9794 16.482 13.8746 16.5549 13.7486C16.628 13.6221 16.6666 13.4785 16.6667 13.3324V6.66744C16.6666 6.5213 16.628 6.37778 16.5549 6.25126C16.482 6.12517 16.3774 6.02039 16.2514 5.94736C16.2509 5.94711 16.2505 5.94686 16.2501 5.94661L10.42 2.61512C10.4189 2.61451 10.4178 2.61389 10.4167 2.61327C10.2901 2.54013 10.1464 2.50163 10.0001 2.50163Z" fill="black"/>
<path fill-rule="evenodd" clip-rule="evenodd" d="M5.52842 3.09138C5.75867 2.69288 6.26837 2.55648 6.66687 2.78672L9.99998 4.71251L13.3331 2.78672C13.7316 2.55648 14.2413 2.69288 14.4715 3.09138C14.7018 3.48988 14.5654 3.99958 14.1669 4.22983L10.4169 6.3965C10.1589 6.54554 9.84103 6.54554 9.58308 6.3965L5.83308 4.22983C5.43457 3.99958 5.29818 3.48988 5.52842 3.09138Z" fill="black"/>
<path fill-rule="evenodd" clip-rule="evenodd" d="M1.77842 9.58308C2.00867 9.18457 2.51837 9.04818 2.91687 9.27842L6.66687 11.4451C6.92458 11.594 7.08331 11.869 7.08331 12.1666V16.4916C7.08331 16.9519 6.71021 17.325 6.24998 17.325C5.78974 17.325 5.41664 16.9519 5.41664 16.4916V12.6476L2.08308 10.7215C1.68457 10.4913 1.54818 9.98158 1.77842 9.58308Z" fill="black"/>
<path fill-rule="evenodd" clip-rule="evenodd" d="M18.2216 9.58308C18.4519 9.98158 18.3155 10.4913 17.917 10.7215L14.5834 12.6476V16.4916C14.5834 16.9519 14.2103 17.325 13.7501 17.325C13.2898 17.325 12.9167 16.9519 12.9167 16.4916V12.1666C12.9167 11.869 13.0755 11.594 13.3332 11.4451L17.0832 9.27842C17.4817 9.04818 17.9914 9.18457 18.2216 9.58308Z" fill="black"/>
<path fill-rule="evenodd" clip-rule="evenodd" d="M2.00373 5.38275C2.23419 4.98437 2.74396 4.84823 3.14234 5.07869L10.0001 9.04564L16.8578 5.07869C17.2562 4.84823 17.766 4.98437 17.9964 5.38275C18.2269 5.78114 18.0907 6.29091 17.6923 6.52136L10.4173 10.7297C10.1592 10.879 9.84094 10.879 9.5828 10.7297L2.3078 6.52136C1.90942 6.29091 1.77328 5.78114 2.00373 5.38275Z" fill="black"/>
<path fill-rule="evenodd" clip-rule="evenodd" d="M10.0001 9.16675C10.4603 9.16675 10.8334 9.53984 10.8334 10.0001V18.4001C10.8334 18.8603 10.4603 19.2334 10.0001 19.2334C9.53984 19.2334 9.16675 18.8603 9.16675 18.4001V10.0001C9.16675 9.53984 9.53984 9.16675 10.0001 9.16675Z" fill="black"/>
</svg>
