<svg width="20" height="20" viewBox="0 0 20 20" fill="none" xmlns="http://www.w3.org/2000/svg">
<path fill-rule="evenodd" clip-rule="evenodd" d="M12.7441 4.41083C13.0695 4.08539 13.5972 4.08539 13.9226 4.41083L18.9226 9.41083C19.248 9.73626 19.248 10.2639 18.9226 10.5893L13.9226 15.5893C13.5972 15.9148 13.0695 15.9148 12.7441 15.5893C12.4186 15.2639 12.4186 14.7363 12.7441 14.4108L17.1548 10.0001L12.7441 5.58934C12.4186 5.2639 12.4186 4.73626 12.7441 4.41083Z" fill="black"/>
<path fill-rule="evenodd" clip-rule="evenodd" d="M7.25584 4.41083C7.58128 4.73626 7.58128 5.2639 7.25584 5.58934L2.8451 10.0001L7.25584 14.4108C7.58128 14.7363 7.58128 15.2639 7.25584 15.5893C6.9304 15.9148 6.40277 15.9148 6.07733 15.5893L1.07733 10.5893C0.751893 10.2639 0.751893 9.73626 1.07733 9.41083L6.07733 4.41083C6.40277 4.08539 6.9304 4.08539 7.25584 4.41083Z" fill="black"/>
</svg>
