<svg width="20" height="20" viewBox="0 0 20 20" fill="none" xmlns="http://www.w3.org/2000/svg">
<g clip-path="url(#clip0_2001_5942)">
<path fill-rule="evenodd" clip-rule="evenodd" d="M9.54576 0.967882C9.82193 0.788375 10.1779 0.788375 10.4541 0.967882L18.7874 6.38455C19.0239 6.53827 19.1666 6.80119 19.1666 7.08325V12.9166C19.1666 13.1986 19.0239 13.4616 18.7874 13.6153L10.4541 19.032C10.1779 19.2115 9.82193 19.2115 9.54576 19.032L1.21243 13.6153C0.975934 13.4616 0.833252 13.1986 0.833252 12.9166V7.08325C0.833252 6.80119 0.975934 6.53827 1.21243 6.38455L9.54576 0.967882ZM2.49992 7.53549V12.4643L9.99992 17.3393L17.4999 12.4643V7.53549L9.99992 2.66049L2.49992 7.53549Z" fill="black"/>
<path fill-rule="evenodd" clip-rule="evenodd" d="M10.0001 12.0833C10.4603 12.0833 10.8334 12.4563 10.8334 12.9166V18.3333C10.8334 18.7935 10.4603 19.1666 10.0001 19.1666C9.53984 19.1666 9.16675 18.7935 9.16675 18.3333V12.9166C9.16675 12.4563 9.53984 12.0833 10.0001 12.0833Z" fill="black"/>
<path fill-rule="evenodd" clip-rule="evenodd" d="M0.983964 6.60552C1.24789 6.22848 1.7675 6.13678 2.14454 6.40071L9.99999 11.8995L17.8554 6.40071C18.2325 6.13678 18.7521 6.22848 19.016 6.60552C19.2799 6.98256 19.1882 7.50217 18.8112 7.7661L10.4779 13.5994C10.1909 13.8003 9.80904 13.8003 9.52211 13.5994L1.18877 7.7661C0.81173 7.50217 0.720035 6.98256 0.983964 6.60552Z" fill="black"/>
<path fill-rule="evenodd" clip-rule="evenodd" d="M9.52211 6.40064C9.80904 6.19979 10.1909 6.19979 10.4779 6.40064L18.8112 12.234C19.1882 12.4979 19.2799 13.0175 19.016 13.3946C18.7521 13.7716 18.2325 13.8633 17.8554 13.5994L9.99999 8.10055L2.14454 13.5994C1.7675 13.8633 1.24789 13.7716 0.983964 13.3946C0.720035 13.0175 0.81173 12.4979 1.18877 12.234L9.52211 6.40064Z" fill="black"/>
<path fill-rule="evenodd" clip-rule="evenodd" d="M10.0001 0.833252C10.4603 0.833252 10.8334 1.20635 10.8334 1.66659V7.08325C10.8334 7.54349 10.4603 7.91659 10.0001 7.91659C9.53984 7.91659 9.16675 7.54349 9.16675 7.08325V1.66659C9.16675 1.20635 9.53984 0.833252 10.0001 0.833252Z" fill="black"/>
</g>
<defs>
<clipPath id="clip0_2001_5942">
<rect width="20" height="20" fill="white"/>
</clipPath>
</defs>
</svg>
