<svg width="20" height="20" viewBox="0 0 20 20" fill="none" xmlns="http://www.w3.org/2000/svg">
<path fill-rule="evenodd" clip-rule="evenodd" d="M8.33333 0.833252C8.79357 0.833252 9.16667 1.20635 9.16667 1.66659V3.33325C9.16667 3.79349 8.79357 4.16658 8.33333 4.16658C7.8731 4.16658 7.5 3.79349 7.5 3.33325V1.66659C7.5 1.20635 7.8731 0.833252 8.33333 0.833252Z" fill="black"/>
<path fill-rule="evenodd" clip-rule="evenodd" d="M11.6666 0.833252C12.1268 0.833252 12.4999 1.20635 12.4999 1.66659V3.33325C12.4999 3.79349 12.1268 4.16658 11.6666 4.16658C11.2063 4.16658 10.8333 3.79349 10.8333 3.33325V1.66659C10.8333 1.20635 11.2063 0.833252 11.6666 0.833252Z" fill="black"/>
<path fill-rule="evenodd" clip-rule="evenodd" d="M2.1549 6.32141C2.46746 6.00885 2.89139 5.83325 3.33341 5.83325H15.0001C16.1052 5.83325 17.165 6.27224 17.9464 7.05364C18.7278 7.83504 19.1667 8.89485 19.1667 9.99992C19.1667 11.105 18.7278 12.1648 17.9464 12.9462C17.165 13.7276 16.1052 14.1666 15.0001 14.1666C15.0001 15.2717 14.5611 16.3315 13.7797 17.1129C12.9983 17.8943 11.9385 18.3333 10.8334 18.3333H5.83342C4.72835 18.3333 3.66854 17.8943 2.88714 17.1129C2.10573 16.3315 1.66675 15.2717 1.66675 14.1666V7.49992C1.66675 7.05789 1.84234 6.63397 2.1549 6.32141ZM15.0001 12.4999C15.6631 12.4999 16.299 12.2365 16.7678 11.7677C17.2367 11.2988 17.5001 10.663 17.5001 9.99992C17.5001 9.33688 17.2367 8.70099 16.7678 8.23215C16.299 7.76331 15.6631 7.49992 15.0001 7.49992V12.4999ZM13.3334 7.49992V14.1666C13.3334 14.8296 13.07 15.4655 12.6012 15.9344C12.1323 16.4032 11.4965 16.6666 10.8334 16.6666H5.83342C5.17037 16.6666 4.53449 16.4032 4.06565 15.9344C3.59681 15.4655 3.33341 14.8296 3.33341 14.1666V7.49992L13.3334 7.49992Z" fill="black"/>
<path fill-rule="evenodd" clip-rule="evenodd" d="M5.00008 0.833252C5.46032 0.833252 5.83341 1.20635 5.83341 1.66659V3.33325C5.83341 3.79349 5.46032 4.16658 5.00008 4.16658C4.53984 4.16658 4.16675 3.79349 4.16675 3.33325V1.66659C4.16675 1.20635 4.53984 0.833252 5.00008 0.833252Z" fill="black"/>
</svg>
