<svg width="20" height="20" viewBox="0 0 20 20" fill="none" xmlns="http://www.w3.org/2000/svg">
<g clip-path="url(#clip0_2001_5960)">
<path fill-rule="evenodd" clip-rule="evenodd" d="M4.6967 4.6967C6.10322 3.29018 8.01088 2.5 10 2.5C11.9891 2.5 13.8968 3.29018 15.3033 4.6967C16.7098 6.10322 17.5 8.01088 17.5 10C17.5 11.9891 16.7098 13.8968 15.3033 15.3033C13.8968 16.7098 11.9891 17.5 10 17.5C8.01088 17.5 6.10322 16.7098 4.6967 15.3033C3.29018 13.8968 2.5 11.9891 2.5 10C2.5 8.01088 3.29018 6.10322 4.6967 4.6967ZM10 4.16667C8.4529 4.16667 6.96917 4.78125 5.87521 5.87521C4.78125 6.96917 4.16667 8.4529 4.16667 10C4.16667 11.5471 4.78125 13.0308 5.87521 14.1248C6.96917 15.2188 8.4529 15.8333 10 15.8333C11.5471 15.8333 13.0308 15.2188 14.1248 14.1248C15.2188 13.0308 15.8333 11.5471 15.8333 10C15.8333 8.4529 15.2188 6.96917 14.1248 5.87521C13.0308 4.78125 11.5471 4.16667 10 4.16667Z" fill="black"/>
<path fill-rule="evenodd" clip-rule="evenodd" d="M8.23223 8.23223C8.70107 7.76339 9.33696 7.5 10 7.5C10.663 7.5 11.2989 7.76339 11.7678 8.23223C12.2366 8.70107 12.5 9.33696 12.5 10C12.5 10.663 12.2366 11.2989 11.7678 11.7678C11.2989 12.2366 10.663 12.5 10 12.5C9.33696 12.5 8.70107 12.2366 8.23223 11.7678C7.76339 11.2989 7.5 10.663 7.5 10C7.5 9.33696 7.76339 8.70107 8.23223 8.23223ZM10 9.16667C9.77899 9.16667 9.56703 9.25446 9.41074 9.41074C9.25446 9.56703 9.16667 9.77899 9.16667 10C9.16667 10.221 9.25446 10.433 9.41074 10.5893C9.56703 10.7455 9.77899 10.8333 10 10.8333C10.221 10.8333 10.433 10.7455 10.5893 10.5893C10.7455 10.433 10.8333 10.221 10.8333 10C10.8333 9.77899 10.7455 9.56703 10.5893 9.41074C10.433 9.25446 10.221 9.16667 10 9.16667Z" fill="black"/>
<path fill-rule="evenodd" clip-rule="evenodd" d="M10.0001 0.833252C10.4603 0.833252 10.8334 1.20635 10.8334 1.66659V3.33325C10.8334 3.79349 10.4603 4.16658 10.0001 4.16658C9.53984 4.16658 9.16675 3.79349 9.16675 3.33325V1.66659C9.16675 1.20635 9.53984 0.833252 10.0001 0.833252Z" fill="black"/>
<path fill-rule="evenodd" clip-rule="evenodd" d="M10.0001 15.8333C10.4603 15.8333 10.8334 16.2063 10.8334 16.6666V18.3333C10.8334 18.7935 10.4603 19.1666 10.0001 19.1666C9.53984 19.1666 9.16675 18.7935 9.16675 18.3333V16.6666C9.16675 16.2063 9.53984 15.8333 10.0001 15.8333Z" fill="black"/>
<path fill-rule="evenodd" clip-rule="evenodd" d="M12.9162 15.0536C13.3146 14.8233 13.8244 14.9596 14.0547 15.3581L14.888 16.7998C15.1184 17.1982 14.9821 17.7079 14.5836 17.9383C14.1851 18.1686 13.6754 18.0323 13.4451 17.6338L12.6118 16.1922C12.3814 15.7937 12.5177 15.284 12.9162 15.0536Z" fill="black"/>
<path fill-rule="evenodd" clip-rule="evenodd" d="M5.41664 2.06169C5.81525 1.83162 6.32489 1.96824 6.55496 2.36684L9.8883 8.14184C10.1184 8.54044 9.98175 9.05008 9.58315 9.28016C9.18454 9.51023 8.6749 9.37361 8.44483 8.97501L5.11149 3.20001C4.88142 2.80141 5.01804 2.29176 5.41664 2.06169Z" fill="black"/>
<path fill-rule="evenodd" clip-rule="evenodd" d="M15.0534 12.9162C15.2837 12.5177 15.7935 12.3814 16.1919 12.6118L17.6336 13.4451C18.032 13.6754 18.1683 14.1851 17.938 14.5836C17.7077 14.9821 17.198 15.1184 16.7995 14.888L15.3578 14.0547C14.9594 13.8244 14.8231 13.3146 15.0534 12.9162Z" fill="black"/>
<path fill-rule="evenodd" clip-rule="evenodd" d="M2.06195 5.41619C2.29227 5.01773 2.802 4.88143 3.20046 5.11175L4.64213 5.94509C5.04059 6.17541 5.17689 6.68514 4.94656 7.0836C4.71624 7.48206 4.20651 7.61836 3.80805 7.38804L2.36639 6.5547C1.96793 6.32438 1.83163 5.81465 2.06195 5.41619Z" fill="black"/>
<path fill-rule="evenodd" clip-rule="evenodd" d="M10.8333 10.0001C10.8333 9.53984 11.2063 9.16675 11.6666 9.16675H18.3333C18.7935 9.16675 19.1666 9.53984 19.1666 10.0001C19.1666 10.4603 18.7935 10.8334 18.3333 10.8334H11.6666C11.2063 10.8334 10.8333 10.4603 10.8333 10.0001Z" fill="black"/>
<path fill-rule="evenodd" clip-rule="evenodd" d="M0.833252 10.0001C0.833252 9.53984 1.20635 9.16675 1.66659 9.16675H3.33325C3.79349 9.16675 4.16658 9.53984 4.16658 10.0001C4.16658 10.4603 3.79349 10.8334 3.33325 10.8334H1.66659C1.20635 10.8334 0.833252 10.4603 0.833252 10.0001Z" fill="black"/>
<path fill-rule="evenodd" clip-rule="evenodd" d="M17.938 5.41619C18.1683 5.81465 18.032 6.32438 17.6336 6.5547L16.1919 7.38803C15.7935 7.61836 15.2837 7.48206 15.0534 7.0836C14.8231 6.68514 14.9594 6.17541 15.3578 5.94509L16.7995 5.11175C17.198 4.88143 17.7077 5.01773 17.938 5.41619Z" fill="black"/>
<path fill-rule="evenodd" clip-rule="evenodd" d="M4.94656 12.9162C5.17689 13.3147 5.04059 13.8244 4.64213 14.0547L3.20046 14.888C2.802 15.1184 2.29227 14.9821 2.06195 14.5836C1.83163 14.1851 1.96793 13.6754 2.36639 13.4451L3.80805 12.6118C4.20651 12.3814 4.71624 12.5177 4.94656 12.9162Z" fill="black"/>
<path fill-rule="evenodd" clip-rule="evenodd" d="M14.5836 2.06195C14.9821 2.29227 15.1184 2.802 14.888 3.20046L14.0547 4.64213C13.8244 5.04059 13.3147 5.17689 12.9162 4.94656C12.5177 4.71624 12.3814 4.20651 12.6118 3.80805L13.4451 2.36639C13.6754 1.96793 14.1851 1.83163 14.5836 2.06195Z" fill="black"/>
<path fill-rule="evenodd" clip-rule="evenodd" d="M9.58315 10.7199C9.98175 10.95 10.1184 11.4596 9.8883 11.8582L6.55496 17.6332C6.32489 18.0318 5.81525 18.1684 5.41664 17.9384C5.01804 17.7083 4.88142 17.1986 5.11149 16.8L8.44483 11.025C8.6749 10.6264 9.18454 10.4898 9.58315 10.7199Z" fill="black"/>
</g>
<defs>
<clipPath id="clip0_2001_5960">
<rect width="20" height="20" fill="white"/>
</clipPath>
</defs>
</svg>
