<svg width="20" height="20" viewBox="0 0 20 20" fill="none" xmlns="http://www.w3.org/2000/svg">
<g clip-path="url(#clip0_2001_5975)">
<path fill-rule="evenodd" clip-rule="evenodd" d="M6.66659 2.49992C4.3654 2.49992 2.49992 4.3654 2.49992 6.66659C2.49992 8.96777 4.3654 10.8333 6.66659 10.8333C8.96777 10.8333 10.8333 8.96777 10.8333 6.66659C10.8333 4.3654 8.96777 2.49992 6.66659 2.49992ZM0.833252 6.66659C0.833252 3.44492 3.44492 0.833252 6.66659 0.833252C9.88825 0.833252 12.4999 3.44492 12.4999 6.66659C12.4999 9.88825 9.88825 12.4999 6.66659 12.4999C3.44492 12.4999 0.833252 9.88825 0.833252 6.66659Z" fill="black"/>
<path fill-rule="evenodd" clip-rule="evenodd" d="M14.2943 8.35056C14.455 7.91931 14.935 7.70006 15.3662 7.86083C16.2853 8.20347 17.1031 8.77232 17.744 9.51477C18.385 10.2572 18.8284 11.1493 19.0332 12.1085C19.238 13.0678 19.1976 14.0631 18.9158 15.0026C18.634 15.9421 18.1199 16.7954 17.4209 17.4835C16.722 18.1716 15.8608 18.6724 14.917 18.9395C13.9732 19.2066 12.9774 19.2315 12.0215 19.0117C11.0655 18.7919 10.1805 18.3347 9.44812 17.6822C8.71576 17.0298 8.15974 16.2032 7.83148 15.2789C7.67746 14.8452 7.90418 14.3687 8.33787 14.2147C8.77157 14.0607 9.24802 14.2874 9.40204 14.7211C9.63651 15.3813 10.0337 15.9717 10.5568 16.4378C11.0799 16.9038 11.7121 17.2304 12.3949 17.3874C13.0777 17.5444 13.789 17.5266 14.4631 17.3358C15.1373 17.1451 15.7524 16.7874 16.2516 16.2958C16.7509 15.8043 17.1181 15.1948 17.3194 14.5238C17.5207 13.8527 17.5496 13.1417 17.4033 12.4566C17.257 11.7714 16.9402 11.1342 16.4824 10.6039C16.0246 10.0736 15.4405 9.66724 14.784 9.4225C14.3527 9.26172 14.1335 8.7818 14.2943 8.35056Z" fill="black"/>
<path fill-rule="evenodd" clip-rule="evenodd" d="M5 5.00008C5 4.53984 5.3731 4.16675 5.83333 4.16675H6.66667C7.1269 4.16675 7.5 4.53984 7.5 5.00008V8.33342C7.5 8.79365 7.1269 9.16675 6.66667 9.16675C6.20643 9.16675 5.83333 8.79365 5.83333 8.33342V5.83341C5.3731 5.83341 5 5.46032 5 5.00008Z" fill="black"/>
<path fill-rule="evenodd" clip-rule="evenodd" d="M13.3399 10.9733C13.6676 10.6502 14.1952 10.6539 14.5184 10.9817L15.1017 11.5733C15.4232 11.8994 15.4213 12.4238 15.0975 12.7477L12.7475 15.0977C12.4221 15.4231 11.8945 15.4231 11.569 15.0977C11.2436 14.7722 11.2436 14.2446 11.569 13.9191L13.3339 12.1542L13.3315 12.1518C13.0084 11.8241 13.0122 11.2964 13.3399 10.9733Z" fill="black"/>
</g>
<defs>
<clipPath id="clip0_2001_5975">
<rect width="20" height="20" fill="white"/>
</clipPath>
</defs>
</svg>
