<svg width="20" height="20" viewBox="0 0 20 20" fill="none" xmlns="http://www.w3.org/2000/svg">
<path fill-rule="evenodd" clip-rule="evenodd" d="M4.16675 3.33341C3.70651 3.33341 3.33341 3.70651 3.33341 4.16675V15.8334C3.33341 16.2937 3.70651 16.6667 4.16675 16.6667H15.8334C16.2937 16.6667 16.6667 16.2937 16.6667 15.8334V4.16675C16.6667 3.70651 16.2937 3.33341 15.8334 3.33341H4.16675ZM1.66675 4.16675C1.66675 2.78604 2.78604 1.66675 4.16675 1.66675H15.8334C17.2141 1.66675 18.3334 2.78604 18.3334 4.16675V15.8334C18.3334 17.2141 17.2141 18.3334 15.8334 18.3334H4.16675C2.78604 18.3334 1.66675 17.2141 1.66675 15.8334V4.16675Z" fill="black"/>
<path fill-rule="evenodd" clip-rule="evenodd" d="M6.25008 1.66675C6.71032 1.66675 7.08341 2.03984 7.08341 2.50008V17.5001C7.08341 17.9603 6.71032 18.3334 6.25008 18.3334C5.78984 18.3334 5.41675 17.9603 5.41675 17.5001V2.50008C5.41675 2.03984 5.78984 1.66675 6.25008 1.66675Z" fill="black"/>
<path fill-rule="evenodd" clip-rule="evenodd" d="M10.0001 1.66675C10.4603 1.66675 10.8334 2.03984 10.8334 2.50008V17.5001C10.8334 17.9603 10.4603 18.3334 10.0001 18.3334C9.53984 18.3334 9.16675 17.9603 9.16675 17.5001V2.50008C9.16675 2.03984 9.53984 1.66675 10.0001 1.66675Z" fill="black"/>
<path fill-rule="evenodd" clip-rule="evenodd" d="M13.7501 1.66675C14.2103 1.66675 14.5834 2.03984 14.5834 2.50008V17.5001C14.5834 17.9603 14.2103 18.3334 13.7501 18.3334C13.2898 18.3334 12.9167 17.9603 12.9167 17.5001V2.50008C12.9167 2.03984 13.2898 1.66675 13.7501 1.66675Z" fill="black"/>
</svg>
