<svg width="20" height="20" viewBox="0 0 20 20" fill="none" xmlns="http://www.w3.org/2000/svg">
<g clip-path="url(#clip0_2001_5992)">
<path fill-rule="evenodd" clip-rule="evenodd" d="M1.66659 10.8333C2.12682 10.8333 2.49992 11.2063 2.49992 11.6666V12.4999C2.49992 12.9419 2.67551 13.3659 2.98807 13.6784C3.30063 13.991 3.72456 14.1666 4.16658 14.1666H8.33325C8.79349 14.1666 9.16658 14.5397 9.16658 14.9999C9.16658 15.4602 8.79349 15.8333 8.33325 15.8333H4.16658C3.28253 15.8333 2.43468 15.4821 1.80956 14.8569C1.18444 14.2318 0.833252 13.384 0.833252 12.4999V11.6666C0.833252 11.2063 1.20635 10.8333 1.66659 10.8333Z" fill="black"/>
<path fill-rule="evenodd" clip-rule="evenodd" d="M10.8333 1.66659C10.8333 1.20635 11.2063 0.833252 11.6666 0.833252C12.3296 0.833252 12.9655 1.09664 13.4344 1.56548C13.9032 2.03433 14.1666 2.67021 14.1666 3.33325V6.66658C14.1666 7.32963 13.9032 7.96551 13.4344 8.43435C12.9655 8.90319 12.3296 9.16658 11.6666 9.16658C11.2063 9.16658 10.8333 8.79349 10.8333 8.33325C10.8333 7.87301 11.2063 7.49992 11.6666 7.49992C11.8876 7.49992 12.0996 7.41212 12.2558 7.25584C12.4121 7.09956 12.4999 6.8876 12.4999 6.66658V3.33325C12.4999 3.11224 12.4121 2.90028 12.2558 2.744C12.0996 2.58772 11.8876 2.49992 11.6666 2.49992C11.2063 2.49992 10.8333 2.12682 10.8333 1.66659Z" fill="black"/>
<path fill-rule="evenodd" clip-rule="evenodd" d="M15.8333 1.66659C15.8333 1.20635 16.2063 0.833252 16.6666 0.833252C17.3296 0.833252 17.9655 1.09664 18.4344 1.56548C18.9032 2.03433 19.1666 2.67021 19.1666 3.33325V6.66658C19.1666 7.32963 18.9032 7.96551 18.4344 8.43435C17.9655 8.90319 17.3296 9.16658 16.6666 9.16658C16.2063 9.16658 15.8333 8.79349 15.8333 8.33325C15.8333 7.87301 16.2063 7.49992 16.6666 7.49992C16.8876 7.49992 17.0996 7.41212 17.2558 7.25584C17.4121 7.09956 17.4999 6.8876 17.4999 6.66658V3.33325C17.4999 3.11224 17.4121 2.90028 17.2558 2.744C17.0996 2.58772 16.8876 2.49992 16.6666 2.49992C16.2063 2.49992 15.8333 2.12682 15.8333 1.66659Z" fill="black"/>
<path fill-rule="evenodd" clip-rule="evenodd" d="M5.24408 11.9108C5.56951 11.5854 6.09715 11.5854 6.42259 11.9108L8.92259 14.4108C9.24803 14.7363 9.24803 15.2639 8.92259 15.5893L6.42259 18.0893C6.09715 18.4148 5.56951 18.4148 5.24408 18.0893C4.91864 17.7639 4.91864 17.2363 5.24408 16.9108L7.15482 15.0001L5.24408 13.0893C4.91864 12.7639 4.91864 12.2363 5.24408 11.9108Z" fill="black"/>
<path fill-rule="evenodd" clip-rule="evenodd" d="M13.3333 12.4999C12.873 12.4999 12.4999 12.873 12.4999 13.3333V16.6666C12.4999 17.1268 12.873 17.4999 13.3333 17.4999H16.6666C17.1268 17.4999 17.4999 17.1268 17.4999 16.6666V13.3333C17.4999 12.873 17.1268 12.4999 16.6666 12.4999H13.3333ZM10.8333 13.3333C10.8333 11.9525 11.9525 10.8333 13.3333 10.8333H16.6666C18.0473 10.8333 19.1666 11.9525 19.1666 13.3333V16.6666C19.1666 18.0473 18.0473 19.1666 16.6666 19.1666H13.3333C11.9525 19.1666 10.8333 18.0473 10.8333 16.6666V13.3333Z" fill="black"/>
<path fill-rule="evenodd" clip-rule="evenodd" d="M3.33325 2.49992C2.87301 2.49992 2.49992 2.87301 2.49992 3.33325V6.66658C2.49992 7.12682 2.87301 7.49992 3.33325 7.49992H6.66658C7.12682 7.49992 7.49992 7.12682 7.49992 6.66658V3.33325C7.49992 2.87301 7.12682 2.49992 6.66658 2.49992H3.33325ZM0.833252 3.33325C0.833252 1.95254 1.95254 0.833252 3.33325 0.833252H6.66658C8.0473 0.833252 9.16658 1.95254 9.16658 3.33325V6.66658C9.16658 8.0473 8.0473 9.16658 6.66658 9.16658H3.33325C1.95254 9.16658 0.833252 8.0473 0.833252 6.66658V3.33325Z" fill="black"/>
</g>
<defs>
<clipPath id="clip0_2001_5992">
<rect width="20" height="20" fill="white"/>
</clipPath>
</defs>
</svg>
