<svg width="20" height="20" viewBox="0 0 20 20" fill="none" xmlns="http://www.w3.org/2000/svg">
<path fill-rule="evenodd" clip-rule="evenodd" d="M4.34978 1.7308C4.99639 1.60218 5.66661 1.66819 6.27569 1.92048C6.88478 2.17278 7.40538 2.60002 7.77165 3.14818C8.13792 3.69635 8.33342 4.34081 8.33342 5.00008V6.66675H11.6667V5.00008C11.6667 4.34081 11.8622 3.69635 12.2285 3.14818C12.5948 2.60002 13.1154 2.17278 13.7245 1.92048C14.3336 1.66819 15.0038 1.60218 15.6504 1.7308C16.297 1.85942 16.8909 2.17689 17.3571 2.64306C17.8233 3.10924 18.1408 3.70318 18.2694 4.34978C18.398 4.99639 18.332 5.66661 18.0797 6.27569C17.8274 6.88478 17.4001 7.40538 16.852 7.77165C16.3038 8.13792 15.6594 8.33342 15.0001 8.33342H13.3334V11.6667H15.0001C15.6594 11.6667 16.3038 11.8622 16.852 12.2285C17.4001 12.5948 17.8274 13.1154 18.0797 13.7245C18.332 14.3336 18.398 15.0038 18.2694 15.6504C18.1408 16.297 17.8233 16.8909 17.3571 17.3571C16.8909 17.8233 16.297 18.1408 15.6504 18.2694C15.0038 18.398 14.3336 18.332 13.7245 18.0797C13.1154 17.8274 12.5948 17.4001 12.2285 16.852C11.8622 16.3038 11.6667 15.6594 11.6667 15.0001V13.3334H8.33342V15.0001C8.33342 15.6594 8.13792 16.3038 7.77165 16.852C7.40538 17.4001 6.88478 17.8274 6.27569 18.0797C5.66661 18.332 4.99639 18.398 4.34978 18.2694C3.70318 18.1408 3.10924 17.8233 2.64306 17.3571C2.17689 16.8909 1.85942 16.297 1.7308 15.6504C1.60218 15.0038 1.66819 14.3336 1.92048 13.7245C2.17278 13.1154 2.60002 12.5948 3.14818 12.2285C3.69635 11.8622 4.34081 11.6667 5.00008 11.6667H6.66675V8.33342H5.00008C4.34081 8.33342 3.69635 8.13792 3.14818 7.77165C2.60002 7.40538 2.17278 6.88478 1.92048 6.27569C1.66819 5.66661 1.60218 4.99639 1.7308 4.34978C1.85942 3.70318 2.17689 3.10924 2.64306 2.64306C3.10924 2.17689 3.70318 1.85942 4.34978 1.7308ZM6.66675 6.66675V5.00008C6.66675 4.67045 6.569 4.34821 6.38587 4.07413C6.20273 3.80005 5.94243 3.58643 5.63789 3.46028C5.33335 3.33414 4.99823 3.30113 4.67493 3.36544C4.35163 3.42975 4.05466 3.58848 3.82157 3.82157C3.58848 4.05466 3.42975 4.35163 3.36544 4.67493C3.30113 4.99823 3.33414 5.33335 3.46028 5.63789C3.58643 5.94243 3.80005 6.20273 4.07413 6.38587C4.34821 6.569 4.67045 6.66675 5.00008 6.66675H6.66675ZM8.33342 8.33342V11.6667H11.6667V8.33342H8.33342ZM6.66675 13.3334H5.00008C4.67045 13.3334 4.34821 13.4312 4.07413 13.6143C3.80005 13.7974 3.58643 14.0577 3.46028 14.3623C3.33414 14.6668 3.30113 15.0019 3.36544 15.3252C3.42975 15.6485 3.58848 15.9455 3.82157 16.1786C4.05466 16.4117 4.35163 16.5704 4.67493 16.6347C4.99823 16.699 5.33335 16.666 5.63789 16.5399C5.94243 16.4137 6.20273 16.2001 6.38587 15.926C6.569 15.652 6.66675 15.3297 6.66675 15.0001V13.3334ZM13.3334 13.3334V15.0001C13.3334 15.3297 13.4312 15.652 13.6143 15.926C13.7974 16.2001 14.0577 16.4137 14.3623 16.5399C14.6668 16.666 15.0019 16.699 15.3252 16.6347C15.6485 16.5704 15.9455 16.4117 16.1786 16.1786C16.4117 15.9455 16.5704 15.6485 16.6347 15.3252C16.699 15.0019 16.666 14.6668 16.5399 14.3623C16.4137 14.0577 16.2001 13.7974 15.926 13.6143C15.652 13.4312 15.3297 13.3334 15.0001 13.3334H13.3334ZM13.3334 6.66675H15.0001C15.3297 6.66675 15.652 6.569 15.926 6.38587C16.2001 6.20273 16.4137 5.94243 16.5399 5.63789C16.666 5.33335 16.699 4.99823 16.6347 4.67493C16.5704 4.35163 16.4117 4.05466 16.1786 3.82157C15.9455 3.58848 15.6485 3.42975 15.3252 3.36544C15.0019 3.30113 14.6668 3.33414 14.3623 3.46028C14.0577 3.58643 13.7974 3.80005 13.6143 4.07413C13.4312 4.34821 13.3334 4.67045 13.3334 5.00008V6.66675Z" fill="black"/>
</svg>
