<svg width="20" height="20" viewBox="0 0 20 20" fill="none" xmlns="http://www.w3.org/2000/svg">
<g clip-path="url(#clip0_2001_6009)">
<path fill-rule="evenodd" clip-rule="evenodd" d="M5.83325 2.49992C5.37301 2.49992 4.99992 2.87301 4.99992 3.33325V6.66658C4.99992 7.12682 5.37301 7.49992 5.83325 7.49992H14.1666C14.6268 7.49992 14.9999 7.12682 14.9999 6.66658V3.33325C14.9999 2.87301 14.6268 2.49992 14.1666 2.49992H5.83325ZM3.33325 3.33325C3.33325 1.95254 4.45254 0.833252 5.83325 0.833252H14.1666C15.5473 0.833252 16.6666 1.95254 16.6666 3.33325V6.66658C16.6666 8.0473 15.5473 9.16658 14.1666 9.16658H5.83325C4.45254 9.16658 3.33325 8.0473 3.33325 6.66658V3.33325Z" fill="black"/>
<path fill-rule="evenodd" clip-rule="evenodd" d="M3.33325 12.4999C2.87301 12.4999 2.49992 12.873 2.49992 13.3333V16.6666C2.49992 17.1268 2.87301 17.4999 3.33325 17.4999H16.6666C17.1268 17.4999 17.4999 17.1268 17.4999 16.6666V13.3333C17.4999 12.873 17.1268 12.4999 16.6666 12.4999H3.33325ZM0.833252 13.3333C0.833252 11.9525 1.95254 10.8333 3.33325 10.8333H16.6666C18.0473 10.8333 19.1666 11.9525 19.1666 13.3333V16.6666C19.1666 18.0473 18.0473 19.1666 16.6666 19.1666H3.33325C1.95254 19.1666 0.833252 18.0473 0.833252 16.6666V13.3333Z" fill="black"/>
<path fill-rule="evenodd" clip-rule="evenodd" d="M4.16675 15.0001C4.16675 14.5398 4.53984 14.1667 5.00008 14.1667H6.66675C7.12699 14.1667 7.50008 14.5398 7.50008 15.0001C7.50008 15.4603 7.12699 15.8334 6.66675 15.8334H5.00008C4.53984 15.8334 4.16675 15.4603 4.16675 15.0001Z" fill="black"/>
<path fill-rule="evenodd" clip-rule="evenodd" d="M9.16675 15.0001C9.16675 14.5398 9.53984 14.1667 10.0001 14.1667H15.0001C15.4603 14.1667 15.8334 14.5398 15.8334 15.0001C15.8334 15.4603 15.4603 15.8334 15.0001 15.8334H10.0001C9.53984 15.8334 9.16675 15.4603 9.16675 15.0001Z" fill="black"/>
</g>
<defs>
<clipPath id="clip0_2001_6009">
<rect width="20" height="20" fill="white"/>
</clipPath>
</defs>
</svg>
