<svg width="20" height="20" viewBox="0 0 20 20" fill="none" xmlns="http://www.w3.org/2000/svg">
<g clip-path="url(#clip0_2001_6004)">
<path fill-rule="evenodd" clip-rule="evenodd" d="M3.31236 6.83135C3.95421 6.18968 5.02717 6.18968 5.66902 6.83135L5.66911 6.83143L7.64994 8.81227L7.65003 8.81236C8.2917 9.45421 8.2917 10.5272 7.65003 11.169L5.66902 13.1492C5.02716 13.7909 3.95421 13.7909 3.31236 13.1492L1.33135 11.169C0.689682 10.5272 0.689682 9.45421 1.33135 8.81236L1.33143 8.81227L3.31227 6.83143L3.31236 6.83135ZM4.49069 8.01003L2.51003 9.99069L4.49065 11.9705L4.49069 11.9705L6.47134 9.99069L4.49069 8.01003Z" fill="black"/>
<path fill-rule="evenodd" clip-rule="evenodd" d="M14.3373 6.84795C14.9791 6.20628 16.0521 6.20628 16.6939 6.84795L16.694 6.84804L18.6748 8.82887L18.6749 8.82896C19.3166 9.47082 19.3166 10.5438 18.6749 11.1856L16.6939 13.1658C16.0521 13.8075 14.9791 13.8075 14.3373 13.1658L12.3562 11.1856C11.7146 10.5438 11.7146 9.47082 12.3562 8.82896L12.3563 8.82887L14.3372 6.84804L14.3373 6.84795ZM15.5156 8.02664L13.5349 10.0073L15.5156 11.9871L15.5156 11.9871L17.4962 10.0073L15.5156 8.02664Z" fill="black"/>
<path fill-rule="evenodd" clip-rule="evenodd" d="M8.82041 12.3562C9.46227 11.7146 10.5352 11.7146 11.1771 12.3562L11.1772 12.3563L13.158 14.3372L13.1581 14.3373C13.7998 14.9791 13.7998 16.0521 13.1581 16.6939L11.1771 18.6741C10.5352 19.3158 9.46227 19.3158 8.82041 18.6741L6.8394 16.6939C6.19774 16.0521 6.19774 14.9791 6.8394 14.3373L6.83949 14.3372L8.82032 12.3563L8.82041 12.3562ZM9.99875 13.5349L8.01809 15.5156L9.99871 17.4954L9.99875 17.4954L11.9794 15.5156L9.99875 13.5349Z" fill="black"/>
<path fill-rule="evenodd" clip-rule="evenodd" d="M8.82163 1.32475C9.46349 0.68309 10.5364 0.68309 11.1783 1.32475L11.1784 1.32484L13.1592 3.30568L13.1593 3.30576C13.801 3.94762 13.801 5.02057 13.1593 5.66243L11.1783 7.64261C10.5364 8.28427 9.46349 8.28427 8.82163 7.64261L6.84062 5.66243C6.19896 5.02057 6.19896 3.94762 6.84062 3.30576L6.84071 3.30568L8.82154 1.32484L8.82163 1.32475ZM9.99997 2.50344L8.01931 4.4841L9.99993 6.46389L9.99997 6.46392L11.9806 4.4841L9.99997 2.50344Z" fill="black"/>
</g>
<defs>
<clipPath id="clip0_2001_6004">
<rect width="20" height="20" fill="white"/>
</clipPath>
</defs>
</svg>
