<svg width="20" height="20" viewBox="0 0 20 20" fill="none" xmlns="http://www.w3.org/2000/svg">
<g clip-path="url(#clip0_2001_6001)">
<path fill-rule="evenodd" clip-rule="evenodd" d="M14.1226 5.8774C14.3458 6.10061 14.4237 6.43077 14.3239 6.73022L12.8206 11.2393C12.8206 11.2393 12.8206 11.2394 12.8205 11.2394C12.6978 11.6076 12.491 11.9422 12.2166 12.2166C11.9422 12.491 11.6076 12.6978 11.2394 12.8206C11.2394 12.8206 11.2393 12.8206 11.2393 12.8206L6.73022 14.3239C6.43077 14.4237 6.10061 14.3458 5.8774 14.1226C5.6542 13.8994 5.57626 13.5692 5.6761 13.2698L7.17941 8.76066C7.17942 8.76064 7.17943 8.76061 7.17944 8.76059C7.30217 8.39239 7.50894 8.05782 7.78338 7.78338C8.05783 7.50893 8.3924 7.30216 8.76061 7.17943C8.76063 7.17942 8.76065 7.17942 8.76066 7.17941L13.2698 5.6761C13.5692 5.57626 13.8994 5.6542 14.1226 5.8774ZM12.2156 7.78442L9.28765 8.76057C9.16491 8.80148 9.05338 8.87041 8.96189 8.96189C8.87041 9.05338 8.80148 9.16491 8.76057 9.28765L7.78442 12.2156L10.7123 11.2394C10.8351 11.1985 10.9466 11.1296 11.0381 11.0381C11.1296 10.9466 11.1985 10.8351 11.2394 10.7123L12.2156 7.78442Z" fill="black"/>
<path fill-rule="evenodd" clip-rule="evenodd" d="M9.99992 2.49992C5.85778 2.49992 2.49992 5.85778 2.49992 9.99992C2.49992 14.1421 5.85778 17.4999 9.99992 17.4999C14.1421 17.4999 17.4999 14.1421 17.4999 9.99992C17.4999 5.85778 14.1421 2.49992 9.99992 2.49992ZM0.833252 9.99992C0.833252 4.93731 4.93731 0.833252 9.99992 0.833252C15.0625 0.833252 19.1666 4.93731 19.1666 9.99992C19.1666 15.0625 15.0625 19.1666 9.99992 19.1666C4.93731 19.1666 0.833252 15.0625 0.833252 9.99992Z" fill="black"/>
</g>
<defs>
<clipPath id="clip0_2001_6001">
<rect width="20" height="20" fill="white"/>
</clipPath>
</defs>
</svg>
