<svg width="20" height="20" viewBox="0 0 20 20" fill="none" xmlns="http://www.w3.org/2000/svg">
<path fill-rule="evenodd" clip-rule="evenodd" d="M3.33325 14.1667C3.11224 14.1667 2.90028 14.2545 2.744 14.4107C2.58772 14.567 2.49992 14.779 2.49992 15V15.8333L17.4999 15.8333V15C17.4999 14.779 17.4121 14.567 17.2558 14.4107C17.0996 14.2545 16.8876 14.1667 16.6666 14.1667H3.33325ZM1.56549 13.2322C2.03433 12.7634 2.67021 12.5 3.33325 12.5H16.6666C17.3296 12.5 17.9655 12.7634 18.4344 13.2322C18.9032 13.7011 19.1666 14.337 19.1666 15V15.8333C19.1666 16.2754 18.991 16.6993 18.6784 17.0118C18.3659 17.3244 17.9419 17.5 17.4999 17.5H2.49992C2.05789 17.5 1.63397 17.3244 1.32141 17.0118C1.00885 16.6993 0.833252 16.2754 0.833252 15.8333V15C0.833252 14.337 1.09664 13.7011 1.56549 13.2322Z" fill="black"/>
<path fill-rule="evenodd" clip-rule="evenodd" d="M4.6967 8.02995C6.10322 6.62343 8.01088 5.83325 10 5.83325C11.9891 5.83325 13.8968 6.62343 15.3033 8.02995C16.7098 9.43647 17.5 11.3441 17.5 13.3333C17.5 13.7935 17.1269 14.1666 16.6667 14.1666C16.2064 14.1666 15.8333 13.7935 15.8333 13.3333C15.8333 11.7862 15.2188 10.3024 14.1248 9.20846C13.0308 8.1145 11.5471 7.49992 10 7.49992C8.4529 7.49992 6.96917 8.1145 5.87521 9.20846C4.78125 10.3024 4.16667 11.7862 4.16667 13.3333C4.16667 13.7935 3.79357 14.1666 3.33333 14.1666C2.8731 14.1666 2.5 13.7935 2.5 13.3333C2.5 11.3441 3.29018 9.43647 4.6967 8.02995Z" fill="black"/>
<path fill-rule="evenodd" clip-rule="evenodd" d="M10.0001 2.5C10.4603 2.5 10.8334 2.8731 10.8334 3.33333V6.66667C10.8334 7.1269 10.4603 7.5 10.0001 7.5C9.53984 7.5 9.16675 7.1269 9.16675 6.66667V3.33333C9.16675 2.8731 9.53984 2.5 10.0001 2.5Z" fill="black"/>
<path fill-rule="evenodd" clip-rule="evenodd" d="M7.5 3.33333C7.5 2.8731 7.8731 2.5 8.33333 2.5H11.6667C12.1269 2.5 12.5 2.8731 12.5 3.33333C12.5 3.79357 12.1269 4.16667 11.6667 4.16667H8.33333C7.8731 4.16667 7.5 3.79357 7.5 3.33333Z" fill="black"/>
</svg>
