<svg width="20" height="20" viewBox="0 0 20 20" fill="none" xmlns="http://www.w3.org/2000/svg">
<path fill-rule="evenodd" clip-rule="evenodd" d="M9.11479 1.09261C9.38008 0.926327 9.68684 0.838135 9.99994 0.838135C10.313 0.838135 10.6198 0.926326 10.8851 1.09261C11.1486 1.25774 11.3605 1.49326 11.4971 1.7725L18.1618 15.0852C18.3678 15.4967 18.2012 15.9974 17.7897 16.2034C17.3781 16.4094 16.8775 16.2428 16.6714 15.8313L10.0048 2.51461C10.0031 2.51135 10.0015 2.50808 9.99994 2.5048C9.99835 2.50808 9.99674 2.51135 9.99511 2.51461L3.32844 15.8313C3.12241 16.2428 2.62177 16.4094 2.21022 16.2034C1.79867 15.9974 1.63207 15.4967 1.8381 15.0852L8.50275 1.77254C8.63933 1.49328 8.85132 1.25775 9.11479 1.09261Z" fill="black"/>
<path fill-rule="evenodd" clip-rule="evenodd" d="M3.33341 15.8333L3.33341 15.8333C3.33341 15.8339 3.33333 15.8375 3.33596 15.8461C3.33879 15.8554 3.34577 15.8737 3.36264 15.9012C3.39801 15.9588 3.47015 16.0454 3.60528 16.1519C3.88043 16.3688 4.33022 16.6005 4.9603 16.8105C6.21177 17.2277 7.99366 17.5 10.0001 17.5C12.0065 17.5 13.7884 17.2277 15.0399 16.8105C15.6699 16.6005 16.1197 16.3688 16.3949 16.1519C16.53 16.0454 16.6021 15.9588 16.6375 15.9012C16.6544 15.8737 16.6614 15.8554 16.6642 15.8461C16.6668 15.8375 16.6667 15.8339 16.6667 15.8333V15.8333C16.6667 15.8325 16.6668 15.829 16.6642 15.8206C16.6614 15.8113 16.6544 15.793 16.6375 15.7655C16.6021 15.7079 16.53 15.6212 16.3949 15.5147C16.1197 15.2979 15.6699 15.0662 15.0399 14.8561C13.7884 14.439 12.0065 14.1667 10.0001 14.1667C7.99366 14.1667 6.21177 14.439 4.9603 14.8561C4.33022 15.0662 3.88043 15.2979 3.60528 15.5147C3.47015 15.6212 3.39801 15.7079 3.36264 15.7655C3.34577 15.793 3.33879 15.8113 3.33596 15.8206C3.3334 15.829 3.33341 15.8325 3.33341 15.8333ZM4.43326 13.275C5.89626 12.7873 7.86437 12.5 10.0001 12.5C12.1358 12.5 14.1039 12.7873 15.5669 13.275C16.294 13.5174 16.9426 13.8244 17.4265 14.2057C17.901 14.5797 18.3334 15.1234 18.3334 15.8333C18.3334 16.5433 17.901 17.087 17.4265 17.461C16.9426 17.8423 16.294 18.1493 15.5669 18.3917C14.1039 18.8793 12.1358 19.1667 10.0001 19.1667C7.86437 19.1667 5.89626 18.8793 4.43326 18.3917C3.70611 18.1493 3.05755 17.8423 2.57366 17.461C2.09916 17.087 1.66675 16.5433 1.66675 15.8333C1.66675 15.1234 2.09916 14.5797 2.57366 14.2057C3.05755 13.8244 3.70611 13.5174 4.43326 13.275Z" fill="black"/>
</svg>
