<svg width="20" height="20" viewBox="0 0 20 20" fill="none" xmlns="http://www.w3.org/2000/svg">
<path fill-rule="evenodd" clip-rule="evenodd" d="M2.49992 5.83341V10.8334H17.4999V5.83341H2.49992ZM0.833252 5.83341C0.833252 4.91294 1.57944 4.16675 2.49992 4.16675H17.4999C18.4204 4.16675 19.1666 4.91294 19.1666 5.83341V10.8334C19.1666 11.7539 18.4204 12.5001 17.4999 12.5001H2.49992C1.57944 12.5001 0.833252 11.7539 0.833252 10.8334V5.83341Z" fill="black"/>
<path fill-rule="evenodd" clip-rule="evenodd" d="M14.1666 10.8333C14.6268 10.8333 14.9999 11.2063 14.9999 11.6666V17.4999C14.9999 17.9602 14.6268 18.3333 14.1666 18.3333C13.7063 18.3333 13.3333 17.9602 13.3333 17.4999V11.6666C13.3333 11.2063 13.7063 10.8333 14.1666 10.8333Z" fill="black"/>
<path fill-rule="evenodd" clip-rule="evenodd" d="M5.83333 10.8333C6.29357 10.8333 6.66667 11.2063 6.66667 11.6666V17.4999C6.66667 17.9602 6.29357 18.3333 5.83333 18.3333C5.3731 18.3333 5 17.9602 5 17.4999V11.6666C5 11.2063 5.3731 10.8333 5.83333 10.8333Z" fill="black"/>
<path fill-rule="evenodd" clip-rule="evenodd" d="M14.1666 1.66675C14.6268 1.66675 14.9999 2.03984 14.9999 2.50008V5.00008C14.9999 5.46032 14.6268 5.83341 14.1666 5.83341C13.7063 5.83341 13.3333 5.46032 13.3333 5.00008V2.50008C13.3333 2.03984 13.7063 1.66675 14.1666 1.66675Z" fill="black"/>
<path fill-rule="evenodd" clip-rule="evenodd" d="M5.83333 1.66675C6.29357 1.66675 6.66667 2.03984 6.66667 2.50008V5.00008C6.66667 5.46032 6.29357 5.83341 5.83333 5.83341C5.3731 5.83341 5 5.46032 5 5.00008V2.50008C5 2.03984 5.3731 1.66675 5.83333 1.66675Z" fill="black"/>
<path fill-rule="evenodd" clip-rule="evenodd" d="M1.32733 4.66083C1.65277 4.33539 2.1804 4.33539 2.50584 4.66083L8.92251 11.0775C9.24794 11.4029 9.24794 11.9306 8.92251 12.256C8.59707 12.5814 8.06943 12.5814 7.744 12.256L1.32733 5.83934C1.00189 5.5139 1.00189 4.98626 1.32733 4.66083Z" fill="black"/>
<path fill-rule="evenodd" clip-rule="evenodd" d="M11.0773 4.41083C11.4028 4.08539 11.9304 4.08539 12.2558 4.41083L18.6725 10.8275C18.9979 11.1529 18.9979 11.6806 18.6725 12.006C18.3471 12.3314 17.8194 12.3314 17.494 12.006L11.0773 5.58934C10.7519 5.2639 10.7519 4.73626 11.0773 4.41083Z" fill="black"/>
<path fill-rule="evenodd" clip-rule="evenodd" d="M6.07733 4.41083C6.40277 4.08539 6.9304 4.08539 7.25584 4.41083L13.9225 11.0775C14.2479 11.4029 14.2479 11.9306 13.9225 12.256C13.5971 12.5814 13.0694 12.5814 12.744 12.256L6.07733 5.58934C5.75189 5.2639 5.75189 4.73626 6.07733 4.41083Z" fill="black"/>
</svg>
