<svg width="20" height="20" viewBox="0 0 20 20" fill="none" xmlns="http://www.w3.org/2000/svg">
<path fill-rule="evenodd" clip-rule="evenodd" d="M13.3333 0.833252C13.7936 0.833252 14.1667 1.20635 14.1667 1.66659V3.33325C14.1667 3.79349 13.7936 4.16658 13.3333 4.16658C12.8731 4.16658 12.5 3.79349 12.5 3.33325V1.66659C12.5 1.20635 12.8731 0.833252 13.3333 0.833252Z" fill="black"/>
<path fill-rule="evenodd" clip-rule="evenodd" d="M5.80449 14.2085C6.89845 13.1146 8.38218 12.5 9.92928 12.5C11.4764 12.5 12.9601 13.1146 14.0541 14.2085C15.148 15.3025 15.7626 16.7862 15.7626 18.3333C15.7626 18.7936 15.3895 19.1667 14.9293 19.1667C14.469 19.1667 14.0959 18.7936 14.0959 18.3333C14.0959 17.2283 13.657 16.1685 12.8756 15.3871C12.0942 14.6057 11.0343 14.1667 9.92928 14.1667C8.82421 14.1667 7.7644 14.6057 6.983 15.3871C6.2016 16.1685 5.76261 17.2283 5.76261 18.3333C5.76261 18.7936 5.38952 19.1667 4.92928 19.1667C4.46904 19.1667 4.09595 18.7936 4.09595 18.3333C4.09595 16.7862 4.71053 15.3025 5.80449 14.2085Z" fill="black"/>
<path fill-rule="evenodd" clip-rule="evenodd" d="M6.66659 0.833252C7.12682 0.833252 7.49992 1.20635 7.49992 1.66659V3.33325C7.49992 3.79349 7.12682 4.16658 6.66659 4.16658C6.20635 4.16658 5.83325 3.79349 5.83325 3.33325V1.66659C5.83325 1.20635 6.20635 0.833252 6.66659 0.833252Z" fill="black"/>
<path fill-rule="evenodd" clip-rule="evenodd" d="M9.99992 7.49992C8.61921 7.49992 7.49992 8.61921 7.49992 9.99992C7.49992 11.3806 8.61921 12.4999 9.99992 12.4999C11.3806 12.4999 12.4999 11.3806 12.4999 9.99992C12.4999 8.61921 11.3806 7.49992 9.99992 7.49992ZM5.83325 9.99992C5.83325 7.69873 7.69873 5.83325 9.99992 5.83325C12.3011 5.83325 14.1666 7.69873 14.1666 9.99992C14.1666 12.3011 12.3011 14.1666 9.99992 14.1666C7.69873 14.1666 5.83325 12.3011 5.83325 9.99992Z" fill="black"/>
<path fill-rule="evenodd" clip-rule="evenodd" d="M4.16675 4.16667C3.70651 4.16667 3.33341 4.53976 3.33341 5V16.6667C3.33341 17.1269 3.70651 17.5 4.16675 17.5H15.8334C16.2937 17.5 16.6667 17.1269 16.6667 16.6667V5C16.6667 4.53976 16.2937 4.16667 15.8334 4.16667H4.16675ZM1.66675 5C1.66675 3.61929 2.78604 2.5 4.16675 2.5H15.8334C17.2141 2.5 18.3334 3.61929 18.3334 5V16.6667C18.3334 18.0474 17.2141 19.1667 15.8334 19.1667H4.16675C2.78604 19.1667 1.66675 18.0474 1.66675 16.6667V5Z" fill="black"/>
</svg>
