<svg width="20" height="20" viewBox="0 0 20 20" fill="none" xmlns="http://www.w3.org/2000/svg">
<g clip-path="url(#clip0_2001_6043)">
<path fill-rule="evenodd" clip-rule="evenodd" d="M10.5881 1.19212C10.9295 0.998038 11.3155 0.895996 11.7083 0.895996C12.101 0.895996 12.487 0.998039 12.8284 1.19212C12.8374 1.19726 12.8464 1.20256 12.8552 1.20803L18.1052 4.45803C18.1263 4.47107 18.1468 4.48505 18.1666 4.49992C18.6516 4.86366 19.1666 5.58921 19.1666 6.41659V11.8333C19.1666 12.2381 19.0148 12.6353 18.8319 12.9447C18.6455 13.2601 18.3684 13.584 18.012 13.7978C18.0089 13.7997 18.0058 13.8015 18.0027 13.8033L9.41938 18.8033C9.41684 18.8048 9.41429 18.8063 9.41174 18.8077C9.07031 19.0018 8.68432 19.1038 8.29159 19.1038C7.89885 19.1038 7.51286 19.0018 7.17143 18.8077C7.1624 18.8026 7.15346 18.7973 7.14462 18.7918L1.89462 15.5418C1.87355 15.5288 1.85308 15.5148 1.83325 15.4999C1.54414 15.2831 1.30676 14.9694 1.14334 14.6698C0.982986 14.3758 0.833252 13.9845 0.833252 13.5833V8.08325C0.833252 7.29179 1.32125 6.49325 2.04159 6.17061L10.5805 1.19652C10.5818 1.19573 10.5832 1.19495 10.5845 1.19417C10.5857 1.19349 10.5869 1.1928 10.5881 1.19212ZM11.4148 2.63934L2.83604 7.63666C2.80075 7.65721 2.764 7.67515 2.72608 7.69032C2.70657 7.69812 2.64454 7.73599 2.58404 7.82908C2.52533 7.9194 2.49992 8.0138 2.49992 8.08325V13.5833C2.49992 13.5831 2.49992 13.5832 2.49994 13.5834C2.50015 13.5865 2.50213 13.6155 2.51959 13.6716C2.53766 13.7297 2.56678 13.7989 2.6065 13.8717C2.68243 14.0109 2.76557 14.1072 2.8147 14.1512L8.00578 17.3647C8.09348 17.4122 8.19171 17.4372 8.29159 17.4372C8.3944 17.4372 8.49546 17.4108 8.5851 17.3605L17.1575 12.3668C17.2181 12.3294 17.314 12.2373 17.3971 12.0968C17.4363 12.0305 17.4643 11.9669 17.4815 11.9136C17.4995 11.8579 17.4999 11.8309 17.4999 11.8333V6.41659C17.4999 6.34705 17.4743 6.23895 17.4014 6.11128C17.3362 5.99713 17.2548 5.90595 17.1889 5.85099L11.9941 2.63511C11.9064 2.58759 11.8081 2.56266 11.7083 2.56266C11.6055 2.56266 11.5044 2.58908 11.4148 2.63934Z" fill="black"/>
<path fill-rule="evenodd" clip-rule="evenodd" d="M1.04178 7.14396C1.28437 6.75285 1.79808 6.63244 2.1892 6.87503L8.77253 10.9584C9.01756 11.1103 9.16662 11.3782 9.16662 11.6665V18.2499C9.16662 18.7101 8.79352 19.0832 8.33329 19.0832C7.87305 19.0832 7.49995 18.7101 7.49995 18.2499V12.1303L1.31071 8.29138C0.919593 8.04879 0.799191 7.53507 1.04178 7.14396Z" fill="black"/>
<path fill-rule="evenodd" clip-rule="evenodd" d="M18.9708 5.49872C19.2017 5.89686 19.066 6.40678 18.6679 6.63763L8.75123 12.3876C8.35309 12.6185 7.84317 12.4829 7.61231 12.0847C7.38146 11.6866 7.51707 11.1767 7.91522 10.9458L17.8319 5.19581C18.23 4.96495 18.7399 5.10057 18.9708 5.49872Z" fill="black"/>
<path fill-rule="evenodd" clip-rule="evenodd" d="M11.6666 8.91675C12.1268 8.91675 12.4999 9.28984 12.4999 9.75008V16.5001C12.4999 16.9603 12.1268 17.3334 11.6666 17.3334C11.2063 17.3334 10.8333 16.9603 10.8333 16.5001V9.75008C10.8333 9.28984 11.2063 8.91675 11.6666 8.91675Z" fill="black"/>
<path fill-rule="evenodd" clip-rule="evenodd" d="M15.0001 7C15.4603 7 15.8334 7.3731 15.8334 7.83333V14.5833C15.8334 15.0436 15.4603 15.4167 15.0001 15.4167C14.5398 15.4167 14.1667 15.0436 14.1667 14.5833V7.83333C14.1667 7.3731 14.5398 7 15.0001 7Z" fill="black"/>
</g>
<defs>
<clipPath id="clip0_2001_6043">
<rect width="20" height="20" fill="white"/>
</clipPath>
</defs>
</svg>
