<svg width="20" height="20" viewBox="0 0 20 20" fill="none" xmlns="http://www.w3.org/2000/svg">
<path fill-rule="evenodd" clip-rule="evenodd" d="M13.3333 0.833252C13.7936 0.833252 14.1667 1.20635 14.1667 1.66659V3.33325C14.1667 3.79349 13.7936 4.16658 13.3333 4.16658C12.8731 4.16658 12.5 3.79349 12.5 3.33325V1.66659C12.5 1.20635 12.8731 0.833252 13.3333 0.833252Z" fill="black"/>
<path fill-rule="evenodd" clip-rule="evenodd" d="M7.5 15.8334C7.27899 15.8334 7.06702 15.9212 6.91074 16.0775C6.75446 16.2338 6.66667 16.4457 6.66667 16.6667V18.3334C6.66667 18.7937 6.29357 19.1667 5.83333 19.1667C5.3731 19.1667 5 18.7937 5 18.3334V16.6667C5 16.0037 5.26339 15.3678 5.73223 14.899C6.20107 14.4301 6.83696 14.1667 7.5 14.1667H12.5C13.163 14.1667 13.7989 14.4301 14.2678 14.899C14.7366 15.3678 15 16.0037 15 16.6667V18.3334C15 18.7937 14.6269 19.1667 14.1667 19.1667C13.7064 19.1667 13.3333 18.7937 13.3333 18.3334V16.6667C13.3333 16.4457 13.2455 16.2338 13.0893 16.0775C12.933 15.9212 12.721 15.8334 12.5 15.8334H7.5Z" fill="black"/>
<path fill-rule="evenodd" clip-rule="evenodd" d="M6.66659 0.833252C7.12682 0.833252 7.49992 1.20635 7.49992 1.66659V3.33325C7.49992 3.79349 7.12682 4.16658 6.66659 4.16658C6.20635 4.16658 5.83325 3.79349 5.83325 3.33325V1.66659C5.83325 1.20635 6.20635 0.833252 6.66659 0.833252Z" fill="black"/>
<path fill-rule="evenodd" clip-rule="evenodd" d="M10.0001 7.49992C9.07961 7.49992 8.33341 8.24611 8.33341 9.16658C8.33341 10.0871 9.07961 10.8333 10.0001 10.8333C10.9206 10.8333 11.6667 10.0871 11.6667 9.16658C11.6667 8.24611 10.9206 7.49992 10.0001 7.49992ZM6.66675 9.16658C6.66675 7.32564 8.15913 5.83325 10.0001 5.83325C11.841 5.83325 13.3334 7.32564 13.3334 9.16658C13.3334 11.0075 11.841 12.4999 10.0001 12.4999C8.15913 12.4999 6.66675 11.0075 6.66675 9.16658Z" fill="black"/>
<path fill-rule="evenodd" clip-rule="evenodd" d="M4.16675 4.16667C3.70651 4.16667 3.33341 4.53976 3.33341 5V16.6667C3.33341 17.1269 3.70651 17.5 4.16675 17.5H15.8334C16.2937 17.5 16.6667 17.1269 16.6667 16.6667V5C16.6667 4.53976 16.2937 4.16667 15.8334 4.16667H4.16675ZM1.66675 5C1.66675 3.61929 2.78604 2.5 4.16675 2.5H15.8334C17.2141 2.5 18.3334 3.61929 18.3334 5V16.6667C18.3334 18.0474 17.2141 19.1667 15.8334 19.1667H4.16675C2.78604 19.1667 1.66675 18.0474 1.66675 16.6667V5Z" fill="black"/>
</svg>
