<svg width="20" height="20" viewBox="0 0 20 20" fill="none" xmlns="http://www.w3.org/2000/svg">
<g clip-path="url(#clip0_2001_6052)">
<path fill-rule="evenodd" clip-rule="evenodd" d="M4.9072 2.37811C6.41465 1.37087 8.18693 0.833252 9.99992 0.833252C10.2644 0.833252 10.5132 0.958804 10.6703 1.17157C10.8274 1.38433 10.8742 1.65905 10.7964 1.91182C10.6626 2.34619 10.6498 2.8088 10.7593 3.2499C10.8688 3.69101 11.0965 4.09391 11.4179 4.41529C11.7393 4.73667 12.1422 4.96435 12.5833 5.07386C13.0244 5.18338 13.487 5.17057 13.9214 5.03682C14.2164 4.94596 14.5375 5.02569 14.7558 5.244C14.9742 5.46231 15.0539 5.78342 14.963 6.07849C14.8293 6.51285 14.8165 6.97547 14.926 7.41657C15.0355 7.85768 15.2632 8.26058 15.5846 8.58196C15.9059 8.90333 16.3088 9.13102 16.7499 9.24053C17.191 9.35004 17.6537 9.33724 18.088 9.20349C18.3408 9.12565 18.6155 9.17243 18.8283 9.32954C19.041 9.48665 19.1666 9.73543 19.1666 9.99992C19.1666 11.8129 18.629 13.5852 17.6217 15.0926C16.6145 16.6001 15.1828 17.775 13.5079 18.4688C11.8329 19.1626 9.98976 19.3442 8.2116 18.9905C6.43344 18.6368 4.80009 17.7637 3.51811 16.4817C2.23613 15.1998 1.36309 13.5664 1.00939 11.7882C0.655693 10.0101 0.837224 8.16698 1.53103 6.49199C2.22483 4.817 3.39974 3.38536 4.9072 2.37811ZM9.01982 2.56423C7.88399 2.71395 6.79296 3.12257 5.83315 3.7639C4.59978 4.58801 3.63848 5.75935 3.07083 7.12979C2.50317 8.50024 2.35464 10.0082 2.64403 11.4631C2.93342 12.918 3.64773 14.2543 4.69662 15.3032C5.74552 16.3521 7.08189 17.0664 8.53675 17.3558C9.9916 17.6452 11.4996 17.4967 12.87 16.929C14.2405 16.3614 15.4118 15.4001 16.2359 14.1667C16.8773 13.2069 17.2859 12.1159 17.4356 10.98C17.0711 10.9873 16.7055 10.9468 16.3483 10.8581C15.6132 10.6756 14.9417 10.2961 14.406 9.76047C13.8704 9.22484 13.4909 8.55333 13.3084 7.81816C13.2265 7.48822 13.1857 7.15107 13.1857 6.81419C12.8488 6.81419 12.5116 6.77334 12.1817 6.69143C11.4465 6.50891 10.775 6.12943 10.2394 5.5938C9.70375 5.05817 9.32427 4.38667 9.14175 3.65149C9.05309 3.29436 9.01253 2.92877 9.01982 2.56423Z" fill="black"/>
<path fill-rule="evenodd" clip-rule="evenodd" d="M7.08333 6.25C7.54357 6.25 7.91667 6.6231 7.91667 7.08333V7.09167C7.91667 7.5519 7.54357 7.925 7.08333 7.925C6.6231 7.925 6.25 7.5519 6.25 7.09167V7.08333C6.25 6.6231 6.6231 6.25 7.08333 6.25Z" fill="black"/>
<path fill-rule="evenodd" clip-rule="evenodd" d="M13.3333 12.0833C13.7936 12.0833 14.1667 12.4563 14.1667 12.9166V12.9249C14.1667 13.3852 13.7936 13.7583 13.3333 13.7583C12.8731 13.7583 12.5 13.3852 12.5 12.9249V12.9166C12.5 12.4563 12.8731 12.0833 13.3333 12.0833Z" fill="black"/>
<path fill-rule="evenodd" clip-rule="evenodd" d="M10.0001 9.16675C10.4603 9.16675 10.8334 9.53984 10.8334 10.0001V10.0084C10.8334 10.4687 10.4603 10.8417 10.0001 10.8417C9.53984 10.8417 9.16675 10.4687 9.16675 10.0084V10.0001C9.16675 9.53984 9.53984 9.16675 10.0001 9.16675Z" fill="black"/>
<path fill-rule="evenodd" clip-rule="evenodd" d="M9.16659 13.3333C9.62682 13.3333 9.99992 13.7063 9.99992 14.1666V14.1749C9.99992 14.6352 9.62682 15.0083 9.16659 15.0083C8.70635 15.0083 8.33325 14.6352 8.33325 14.1749V14.1666C8.33325 13.7063 8.70635 13.3333 9.16659 13.3333Z" fill="black"/>
<path fill-rule="evenodd" clip-rule="evenodd" d="M5.83333 10.8333C6.29357 10.8333 6.66667 11.2063 6.66667 11.6666V11.6749C6.66667 12.1352 6.29357 12.5083 5.83333 12.5083C5.3731 12.5083 5 12.1352 5 11.6749V11.6666C5 11.2063 5.3731 10.8333 5.83333 10.8333Z" fill="black"/>
</g>
<defs>
<clipPath id="clip0_2001_6052">
<rect width="20" height="20" fill="white"/>
</clipPath>
</defs>
</svg>
