<svg width="20" height="20" viewBox="0 0 20 20" fill="none" xmlns="http://www.w3.org/2000/svg">
<g clip-path="url(#clip0_2001_6059)">
<path fill-rule="evenodd" clip-rule="evenodd" d="M0.833252 10.0001C0.833252 9.53984 1.20635 9.16675 1.66659 9.16675H18.3333C18.7935 9.16675 19.1666 9.53984 19.1666 10.0001C19.1666 10.4603 18.7935 10.8334 18.3333 10.8334H1.66659C1.20635 10.8334 0.833252 10.4603 0.833252 10.0001Z" fill="black"/>
<path fill-rule="evenodd" clip-rule="evenodd" d="M3.33333 9.16675C3.79357 9.16675 4.16667 9.53984 4.16667 10.0001V16.6667C4.16667 16.8878 4.25446 17.0997 4.41074 17.256C4.56702 17.4123 4.77899 17.5001 5 17.5001H15C15.221 17.5001 15.433 17.4123 15.5893 17.256C15.7455 17.0997 15.8333 16.8878 15.8333 16.6667V10.0001C15.8333 9.53984 16.2064 9.16675 16.6667 9.16675C17.1269 9.16675 17.5 9.53984 17.5 10.0001V16.6667C17.5 17.3298 17.2366 17.9657 16.7678 18.4345C16.2989 18.9034 15.663 19.1667 15 19.1667H5C4.33696 19.1667 3.70107 18.9034 3.23223 18.4345C2.76339 17.9657 2.5 17.3298 2.5 16.6667V10.0001C2.5 9.53984 2.8731 9.16675 3.33333 9.16675Z" fill="black"/>
<path fill-rule="evenodd" clip-rule="evenodd" d="M17.4751 3.13117C17.5867 3.57767 17.3152 4.03011 16.8687 4.14174L3.5354 7.47507C3.0889 7.5867 2.63646 7.31523 2.52483 6.86873C2.41321 6.42224 2.68468 5.96979 3.13117 5.85817L16.4645 2.52483C16.911 2.41321 17.3634 2.68468 17.4751 3.13117Z" fill="black"/>
<path fill-rule="evenodd" clip-rule="evenodd" d="M10.3622 2.50868C10.2536 2.49259 10.143 2.4981 10.0365 2.5249C10.0359 2.52506 10.0352 2.52523 10.0345 2.52539C10.0341 2.5255 10.0336 2.52561 10.0332 2.52572L8.4186 2.92521C8.31298 2.95204 8.21363 2.99934 8.1262 3.06441C8.03836 3.1298 7.96427 3.21185 7.90816 3.30588C7.85206 3.39991 7.81503 3.50408 7.7992 3.61243C7.78337 3.72078 7.78905 3.83118 7.81591 3.93734C7.8162 3.93846 7.81648 3.93959 7.81676 3.94072L8.19176 5.44906C8.30281 5.8957 8.03075 6.34779 7.58411 6.45883C7.13747 6.56987 6.68538 6.29782 6.57433 5.85118L6.19971 4.34436C6.11952 4.02648 6.10264 3.69591 6.15004 3.3715C6.19752 3.04645 6.30861 2.73395 6.47694 2.45185C6.64526 2.16976 6.86754 1.9236 7.13105 1.72746C7.39456 1.53132 7.69415 1.38903 8.01268 1.30873C8.01387 1.30843 8.01505 1.30814 8.01623 1.30784L9.6314 0.908213C9.95014 0.828215 10.2815 0.811842 10.6066 0.860038C10.9323 0.908326 11.2453 1.02048 11.5275 1.19005C11.8098 1.35963 12.0557 1.58329 12.2513 1.84819C12.4466 2.11276 12.5878 2.41327 12.6668 2.7325C12.6669 2.73289 12.667 2.73328 12.6671 2.73367L13.0415 4.23134C13.1531 4.67783 12.8817 5.13028 12.4352 5.2419C11.9887 5.35353 11.5362 5.08206 11.4246 4.63556L11.0496 3.13556C11.0495 3.13502 11.0493 3.13447 11.0492 3.13393L11.049 3.13323C11.0227 3.02667 10.9756 2.92637 10.9104 2.83807C10.8452 2.74977 10.7632 2.67522 10.6692 2.61869C10.5751 2.56216 10.4708 2.52478 10.3622 2.50868Z" fill="black"/>
</g>
<defs>
<clipPath id="clip0_2001_6059">
<rect width="20" height="20" fill="white"/>
</clipPath>
</defs>
</svg>
