<svg width="20" height="20" viewBox="0 0 20 20" fill="none" xmlns="http://www.w3.org/2000/svg">
<g clip-path="url(#clip0_2001_6092)">
<path fill-rule="evenodd" clip-rule="evenodd" d="M9.99992 2.49992C5.85778 2.49992 2.49992 5.85778 2.49992 9.99992C2.49992 14.1421 5.85778 17.4999 9.99992 17.4999C14.1421 17.4999 17.4999 14.1421 17.4999 9.99992C17.4999 5.85778 14.1421 2.49992 9.99992 2.49992ZM0.833252 9.99992C0.833252 4.93731 4.93731 0.833252 9.99992 0.833252C15.0625 0.833252 19.1666 4.93731 19.1666 9.99992C19.1666 15.0625 15.0625 19.1666 9.99992 19.1666C4.93731 19.1666 0.833252 15.0625 0.833252 9.99992Z" fill="black"/>
<path fill-rule="evenodd" clip-rule="evenodd" d="M10.4893 7.54775C10.0044 7.45152 9.50191 7.50119 9.04525 7.69049C8.5886 7.87979 8.19832 8.20022 7.92374 8.61128C7.64916 9.02235 7.5026 9.50559 7.5026 9.99992C7.5026 10.4943 7.64916 10.9775 7.92374 11.3886C8.19832 11.7996 8.5886 12.1201 9.04525 12.3094C9.50191 12.4987 10.0044 12.5483 10.4893 12.4521C10.9742 12.3558 11.4196 12.118 11.7694 11.7687C12.095 11.4434 12.6226 11.4437 12.9479 11.7693C13.2732 12.0949 13.2729 12.6226 12.9472 12.9478C12.3643 13.5301 11.6219 13.9265 10.8138 14.0869C10.0056 14.2473 9.16811 14.1645 8.40702 13.849C7.64593 13.5335 6.99546 12.9994 6.53783 12.3143C6.08019 11.6292 5.83594 10.8238 5.83594 9.99992C5.83594 9.17603 6.08019 8.37063 6.53783 7.68553C6.99546 7.00042 7.64593 6.46637 8.40702 6.15087C9.16811 5.83537 10.0056 5.75258 10.8138 5.91298C11.6219 6.07337 12.3643 6.46975 12.9472 7.052C13.2729 7.37726 13.2732 7.9049 12.9479 8.23052C12.6226 8.55613 12.095 8.55643 11.7694 8.23117C11.4196 7.88182 10.9742 7.64399 10.4893 7.54775Z" fill="black"/>
</g>
<defs>
<clipPath id="clip0_2001_6092">
<rect width="20" height="20" fill="white"/>
</clipPath>
</defs>
</svg>
