<svg width="20" height="20" viewBox="0 0 20 20" fill="none" xmlns="http://www.w3.org/2000/svg">
<g clip-path="url(#clip0_2001_6068)">
<path fill-rule="evenodd" clip-rule="evenodd" d="M9.16675 12.5001C9.16675 12.0398 9.53984 11.6667 10.0001 11.6667H15.0001C15.4603 11.6667 15.8334 12.0398 15.8334 12.5001C15.8334 12.9603 15.4603 13.3334 15.0001 13.3334H10.0001C9.53984 13.3334 9.16675 12.9603 9.16675 12.5001Z" fill="black"/>
<path fill-rule="evenodd" clip-rule="evenodd" d="M8.33325 7.49992C7.87301 7.49992 7.49992 7.87301 7.49992 8.33325V16.6666C7.49992 17.1268 7.87301 17.4999 8.33325 17.4999H16.6666C17.1268 17.4999 17.4999 17.1268 17.4999 16.6666V8.33325C17.4999 7.87301 17.1268 7.49992 16.6666 7.49992H8.33325ZM5.83325 8.33325C5.83325 6.95254 6.95254 5.83325 8.33325 5.83325H16.6666C18.0473 5.83325 19.1666 6.95254 19.1666 8.33325V16.6666C19.1666 18.0473 18.0473 19.1666 16.6666 19.1666H8.33325C6.95254 19.1666 5.83325 18.0473 5.83325 16.6666V8.33325Z" fill="black"/>
<path fill-rule="evenodd" clip-rule="evenodd" d="M3.33325 2.49992C2.87682 2.49992 2.49992 2.87682 2.49992 3.33325V11.6666C2.49992 12.123 2.87682 12.4999 3.33325 12.4999C3.79349 12.4999 4.16658 12.873 4.16658 13.3333C4.16658 13.7935 3.79349 14.1666 3.33325 14.1666C1.95635 14.1666 0.833252 13.0435 0.833252 11.6666V3.33325C0.833252 1.95635 1.95635 0.833252 3.33325 0.833252H11.6666C13.0435 0.833252 14.1666 1.95635 14.1666 3.33325C14.1666 3.79349 13.7935 4.16658 13.3333 4.16658C12.873 4.16658 12.4999 3.79349 12.4999 3.33325C12.4999 2.87682 12.123 2.49992 11.6666 2.49992H3.33325Z" fill="black"/>
</g>
<defs>
<clipPath id="clip0_2001_6068">
<rect width="20" height="20" fill="white"/>
</clipPath>
</defs>
</svg>
