<svg width="20" height="20" viewBox="0 0 20 20" fill="none" xmlns="http://www.w3.org/2000/svg">
<g clip-path="url(#clip0_2001_6089)">
<path fill-rule="evenodd" clip-rule="evenodd" d="M9.99992 2.49992C5.85778 2.49992 2.49992 5.85778 2.49992 9.99992C2.49992 14.1421 5.85778 17.4999 9.99992 17.4999C14.1421 17.4999 17.4999 14.1421 17.4999 9.99992C17.4999 5.85778 14.1421 2.49992 9.99992 2.49992ZM0.833252 9.99992C0.833252 4.93731 4.93731 0.833252 9.99992 0.833252C15.0625 0.833252 19.1666 4.93731 19.1666 9.99992C19.1666 15.0625 15.0625 19.1666 9.99992 19.1666C4.93731 19.1666 0.833252 15.0625 0.833252 9.99992Z" fill="black"/>
<path fill-rule="evenodd" clip-rule="evenodd" d="M9.18622 5.91298C9.99435 5.75258 10.8319 5.83537 11.593 6.15087C12.3541 6.46637 13.0045 7.00042 13.4622 7.68553C13.9198 8.37063 14.1641 9.17603 14.1641 9.99992C14.1641 10.8238 13.9198 11.6292 13.4622 12.3143C13.0045 12.9994 12.3541 13.5335 11.593 13.849C10.8319 14.1645 9.99435 14.2473 9.18622 14.0869C8.3781 13.9265 7.63566 13.5301 7.05276 12.9478C6.72714 12.6226 6.72684 12.0949 7.0521 11.7693C7.37736 11.4437 7.90499 11.4434 8.23061 11.7687C8.58035 12.118 9.02582 12.3558 9.51069 12.4521C9.99557 12.5483 10.4981 12.4987 10.9547 12.3094C11.4114 12.1201 11.8017 11.7996 12.0763 11.3886C12.3508 10.9775 12.4974 10.4943 12.4974 9.99992C12.4974 9.50559 12.3508 9.02235 12.0763 8.61128C11.8017 8.20022 11.4114 7.87979 10.9547 7.69049C10.4981 7.50119 9.99557 7.45152 9.51069 7.54775C9.02582 7.64399 8.58035 7.88182 8.23061 8.23117C7.90499 8.55643 7.37736 8.55613 7.0521 8.23052C6.72684 7.9049 6.72714 7.37726 7.05276 7.052C7.63566 6.46975 8.3781 6.07337 9.18622 5.91298Z" fill="black"/>
</g>
<defs>
<clipPath id="clip0_2001_6089">
<rect width="20" height="20" fill="white"/>
</clipPath>
</defs>
</svg>
