<svg width="20" height="20" viewBox="0 0 20 20" fill="none" xmlns="http://www.w3.org/2000/svg">
<g clip-path="url(#clip0_2001_6064)">
<path fill-rule="evenodd" clip-rule="evenodd" d="M15.5893 10.2441C15.9148 10.5695 15.9148 11.0972 15.5893 11.4226L12.256 14.7559C11.9306 15.0814 11.4029 15.0814 11.0775 14.7559L9.41083 13.0893C9.08539 12.7638 9.08539 12.2362 9.41083 11.9107C9.73626 11.5853 10.2639 11.5853 10.5893 11.9107L11.6667 12.9882L14.4108 10.2441C14.7363 9.91864 15.2639 9.91864 15.5893 10.2441Z" fill="black"/>
<path fill-rule="evenodd" clip-rule="evenodd" d="M8.33325 7.49992C7.87301 7.49992 7.49992 7.87301 7.49992 8.33325V16.6666C7.49992 17.1268 7.87301 17.4999 8.33325 17.4999H16.6666C17.1268 17.4999 17.4999 17.1268 17.4999 16.6666V8.33325C17.4999 7.87301 17.1268 7.49992 16.6666 7.49992H8.33325ZM5.83325 8.33325C5.83325 6.95254 6.95254 5.83325 8.33325 5.83325H16.6666C18.0473 5.83325 19.1666 6.95254 19.1666 8.33325V16.6666C19.1666 18.0473 18.0473 19.1666 16.6666 19.1666H8.33325C6.95254 19.1666 5.83325 18.0473 5.83325 16.6666V8.33325Z" fill="black"/>
<path fill-rule="evenodd" clip-rule="evenodd" d="M3.33325 2.49992C2.87682 2.49992 2.49992 2.87682 2.49992 3.33325V11.6666C2.49992 12.123 2.87682 12.4999 3.33325 12.4999C3.79349 12.4999 4.16658 12.873 4.16658 13.3333C4.16658 13.7935 3.79349 14.1666 3.33325 14.1666C1.95635 14.1666 0.833252 13.0435 0.833252 11.6666V3.33325C0.833252 1.95635 1.95635 0.833252 3.33325 0.833252H11.6666C13.0435 0.833252 14.1666 1.95635 14.1666 3.33325C14.1666 3.79349 13.7935 4.16658 13.3333 4.16658C12.873 4.16658 12.4999 3.79349 12.4999 3.33325C12.4999 2.87682 12.123 2.49992 11.6666 2.49992H3.33325Z" fill="black"/>
</g>
<defs>
<clipPath id="clip0_2001_6064">
<rect width="20" height="20" fill="white"/>
</clipPath>
</defs>
</svg>
