<svg width="20" height="20" viewBox="0 0 20 20" fill="none" xmlns="http://www.w3.org/2000/svg">
<path fill-rule="evenodd" clip-rule="evenodd" d="M11.9108 2.74408C12.2363 2.41864 12.7639 2.41864 13.0893 2.74408L17.256 6.91074C17.5814 7.23618 17.5814 7.76382 17.256 8.08926L13.0893 12.2559C12.7639 12.5814 12.2363 12.5814 11.9108 12.2559C11.5854 11.9305 11.5854 11.4028 11.9108 11.0774L15.4882 7.5L11.9108 3.92259C11.5854 3.59715 11.5854 3.06951 11.9108 2.74408Z" fill="black"/>
<path fill-rule="evenodd" clip-rule="evenodd" d="M6.66667 8.33341C6.00363 8.33341 5.36774 8.59681 4.8989 9.06565C4.43006 9.53449 4.16667 10.1704 4.16667 10.8334V16.6667C4.16667 17.127 3.79357 17.5001 3.33333 17.5001C2.8731 17.5001 2.5 17.127 2.5 16.6667V10.8334C2.5 9.72835 2.93899 8.66854 3.72039 7.88714C4.50179 7.10573 5.5616 6.66675 6.66667 6.66675H16.6667C17.1269 6.66675 17.5 7.03984 17.5 7.50008C17.5 7.96032 17.1269 8.33341 16.6667 8.33341H6.66667Z" fill="black"/>
</svg>
