<svg width="20" height="20" viewBox="0 0 20 20" fill="none" xmlns="http://www.w3.org/2000/svg">
<path fill-rule="evenodd" clip-rule="evenodd" d="M2.74408 11.9108C3.06951 11.5854 3.59715 11.5854 3.92259 11.9108L7.5 15.4882L11.0774 11.9108C11.4028 11.5854 11.9305 11.5854 12.2559 11.9108C12.5814 12.2363 12.5814 12.7639 12.2559 13.0893L8.08926 17.256C7.76382 17.5814 7.23618 17.5814 6.91074 17.256L2.74408 13.0893C2.41864 12.7639 2.41864 12.2363 2.74408 11.9108Z" fill="black"/>
<path fill-rule="evenodd" clip-rule="evenodd" d="M7.88714 3.72039C8.66854 2.93899 9.72835 2.5 10.8334 2.5H16.6667C17.127 2.5 17.5001 2.8731 17.5001 3.33333C17.5001 3.79357 17.127 4.16667 16.6667 4.16667H10.8334C10.1704 4.16667 9.53449 4.43006 9.06565 4.8989C8.59681 5.36774 8.33341 6.00363 8.33341 6.66667V16.6667C8.33341 17.1269 7.96032 17.5 7.50008 17.5C7.03984 17.5 6.66675 17.1269 6.66675 16.6667V6.66667C6.66675 5.5616 7.10573 4.50179 7.88714 3.72039Z" fill="black"/>
</svg>
