<svg width="20" height="20" viewBox="0 0 20 20" fill="none" xmlns="http://www.w3.org/2000/svg">
<path fill-rule="evenodd" clip-rule="evenodd" d="M7.74408 11.9108C8.06951 11.5854 8.59715 11.5854 8.92259 11.9108L12.5 15.4882L16.0774 11.9108C16.4028 11.5854 16.9305 11.5854 17.2559 11.9108C17.5814 12.2363 17.5814 12.7639 17.2559 13.0893L13.0893 17.256C12.7638 17.5814 12.2362 17.5814 11.9107 17.256L7.74408 13.0893C7.41864 12.7639 7.41864 12.2363 7.74408 11.9108Z" fill="black"/>
<path fill-rule="evenodd" clip-rule="evenodd" d="M2.5 3.33333C2.5 2.8731 2.8731 2.5 3.33333 2.5H9.16667C10.2717 2.5 11.3315 2.93899 12.1129 3.72039C12.8943 4.50179 13.3333 5.5616 13.3333 6.66667V16.6667C13.3333 17.1269 12.9602 17.5 12.5 17.5C12.0398 17.5 11.6667 17.1269 11.6667 16.6667V6.66667C11.6667 6.00363 11.4033 5.36774 10.9344 4.8989C10.4656 4.43006 9.82971 4.16667 9.16667 4.16667H3.33333C2.8731 4.16667 2.5 3.79357 2.5 3.33333Z" fill="black"/>
</svg>
