<svg width="20" height="20" viewBox="0 0 20 20" fill="none" xmlns="http://www.w3.org/2000/svg">
<path fill-rule="evenodd" clip-rule="evenodd" d="M8.08926 2.74408C8.41469 3.06951 8.41469 3.59715 8.08926 3.92259L4.51184 7.5L8.08926 11.0774C8.41469 11.4028 8.41469 11.9305 8.08926 12.2559C7.76382 12.5814 7.23618 12.5814 6.91074 12.2559L2.74408 8.08926C2.41864 7.76382 2.41864 7.23618 2.74408 6.91074L6.91074 2.74408C7.23618 2.41864 7.76382 2.41864 8.08926 2.74408Z" fill="black"/>
<path fill-rule="evenodd" clip-rule="evenodd" d="M2.5 7.50008C2.5 7.03984 2.8731 6.66675 3.33333 6.66675H13.3333C14.4384 6.66675 15.4982 7.10573 16.2796 7.88714C17.061 8.66854 17.5 9.72835 17.5 10.8334V16.6667C17.5 17.127 17.1269 17.5001 16.6667 17.5001C16.2064 17.5001 15.8333 17.127 15.8333 16.6667V10.8334C15.8333 10.1704 15.5699 9.53449 15.1011 9.06565C14.6323 8.59681 13.9964 8.33341 13.3333 8.33341H3.33333C2.8731 8.33341 2.5 7.96032 2.5 7.50008Z" fill="black"/>
</svg>
