<svg width="20" height="20" viewBox="0 0 20 20" fill="none" xmlns="http://www.w3.org/2000/svg">
<path fill-rule="evenodd" clip-rule="evenodd" d="M6.91074 2.74408C7.23618 2.41864 7.76382 2.41864 8.08926 2.74408L12.2559 6.91074C12.5814 7.23618 12.5814 7.76382 12.2559 8.08926C11.9305 8.41469 11.4028 8.41469 11.0774 8.08926L7.5 4.51184L3.92259 8.08926C3.59715 8.41469 3.06951 8.41469 2.74408 8.08926C2.41864 7.76382 2.41864 7.23618 2.74408 6.91074L6.91074 2.74408Z" fill="black"/>
<path fill-rule="evenodd" clip-rule="evenodd" d="M7.50008 2.5C7.96032 2.5 8.33341 2.8731 8.33341 3.33333V13.3333C8.33341 13.9964 8.59681 14.6323 9.06565 15.1011C9.53449 15.5699 10.1704 15.8333 10.8334 15.8333H16.6667C17.127 15.8333 17.5001 16.2064 17.5001 16.6667C17.5001 17.1269 17.127 17.5 16.6667 17.5H10.8334C9.72835 17.5 8.66854 17.061 7.88714 16.2796C7.10573 15.4982 6.66675 14.4384 6.66675 13.3333V3.33333C6.66675 2.8731 7.03984 2.5 7.50008 2.5Z" fill="black"/>
</svg>
