<svg width="20" height="20" viewBox="0 0 20 20" fill="none" xmlns="http://www.w3.org/2000/svg">
<g clip-path="url(#clip0_2001_6119)">
<path fill-rule="evenodd" clip-rule="evenodd" d="M5 4.16667C4.53976 4.16667 4.16667 4.53976 4.16667 5V15C4.16667 15.4602 4.53976 15.8333 5 15.8333H15C15.4602 15.8333 15.8333 15.4602 15.8333 15V5C15.8333 4.53976 15.4602 4.16667 15 4.16667H5ZM2.5 5C2.5 3.61929 3.61929 2.5 5 2.5H15C16.3807 2.5 17.5 3.61929 17.5 5V15C17.5 16.3807 16.3807 17.5 15 17.5H5C3.61929 17.5 2.5 16.3807 2.5 15V5Z" fill="black"/>
<path fill-rule="evenodd" clip-rule="evenodd" d="M8.33341 8.33341V11.6667H11.6667V8.33341H8.33341ZM6.66675 8.33341C6.66675 7.41294 7.41294 6.66675 8.33341 6.66675H11.6667C12.5872 6.66675 13.3334 7.41294 13.3334 8.33341V11.6667C13.3334 12.5872 12.5872 13.3334 11.6667 13.3334H8.33341C7.41294 13.3334 6.66675 12.5872 6.66675 11.6667V8.33341Z" fill="black"/>
<path fill-rule="evenodd" clip-rule="evenodd" d="M12.5001 0.833252C12.9603 0.833252 13.3334 1.20635 13.3334 1.66659V3.33325C13.3334 3.79349 12.9603 4.16658 12.5001 4.16658C12.0398 4.16658 11.6667 3.79349 11.6667 3.33325V1.66659C11.6667 1.20635 12.0398 0.833252 12.5001 0.833252Z" fill="black"/>
<path fill-rule="evenodd" clip-rule="evenodd" d="M12.5001 15.8333C12.9603 15.8333 13.3334 16.2063 13.3334 16.6666V18.3333C13.3334 18.7935 12.9603 19.1666 12.5001 19.1666C12.0398 19.1666 11.6667 18.7935 11.6667 18.3333V16.6666C11.6667 16.2063 12.0398 15.8333 12.5001 15.8333Z" fill="black"/>
<path fill-rule="evenodd" clip-rule="evenodd" d="M0.833252 12.5001C0.833252 12.0398 1.20635 11.6667 1.66659 11.6667H3.33325C3.79349 11.6667 4.16658 12.0398 4.16658 12.5001C4.16658 12.9603 3.79349 13.3334 3.33325 13.3334H1.66659C1.20635 13.3334 0.833252 12.9603 0.833252 12.5001Z" fill="black"/>
<path fill-rule="evenodd" clip-rule="evenodd" d="M0.833252 7.50008C0.833252 7.03984 1.20635 6.66675 1.66659 6.66675H3.33325C3.79349 6.66675 4.16658 7.03984 4.16658 7.50008C4.16658 7.96032 3.79349 8.33341 3.33325 8.33341H1.66659C1.20635 8.33341 0.833252 7.96032 0.833252 7.50008Z" fill="black"/>
<path fill-rule="evenodd" clip-rule="evenodd" d="M15.8333 12.5001C15.8333 12.0398 16.2063 11.6667 16.6666 11.6667H18.3333C18.7935 11.6667 19.1666 12.0398 19.1666 12.5001C19.1666 12.9603 18.7935 13.3334 18.3333 13.3334H16.6666C16.2063 13.3334 15.8333 12.9603 15.8333 12.5001Z" fill="black"/>
<path fill-rule="evenodd" clip-rule="evenodd" d="M15.8333 7.50008C15.8333 7.03984 16.2063 6.66675 16.6666 6.66675H18.3333C18.7935 6.66675 19.1666 7.03984 19.1666 7.50008C19.1666 7.96032 18.7935 8.33341 18.3333 8.33341H16.6666C16.2063 8.33341 15.8333 7.96032 15.8333 7.50008Z" fill="black"/>
<path fill-rule="evenodd" clip-rule="evenodd" d="M7.50008 0.833252C7.96032 0.833252 8.33341 1.20635 8.33341 1.66659V3.33325C8.33341 3.79349 7.96032 4.16658 7.50008 4.16658C7.03984 4.16658 6.66675 3.79349 6.66675 3.33325V1.66659C6.66675 1.20635 7.03984 0.833252 7.50008 0.833252Z" fill="black"/>
<path fill-rule="evenodd" clip-rule="evenodd" d="M7.50008 15.8333C7.96032 15.8333 8.33341 16.2063 8.33341 16.6666V18.3333C8.33341 18.7935 7.96032 19.1666 7.50008 19.1666C7.03984 19.1666 6.66675 18.7935 6.66675 18.3333V16.6666C6.66675 16.2063 7.03984 15.8333 7.50008 15.8333Z" fill="black"/>
</g>
<defs>
<clipPath id="clip0_2001_6119">
<rect width="20" height="20" fill="white"/>
</clipPath>
</defs>
</svg>
