<svg width="20" height="20" viewBox="0 0 20 20" fill="none" xmlns="http://www.w3.org/2000/svg">
<g clip-path="url(#clip0_2001_6130)">
<path fill-rule="evenodd" clip-rule="evenodd" d="M9.99992 2.49992C5.85778 2.49992 2.49992 5.85778 2.49992 9.99992C2.49992 14.1421 5.85778 17.4999 9.99992 17.4999C14.1421 17.4999 17.4999 14.1421 17.4999 9.99992C17.4999 5.85778 14.1421 2.49992 9.99992 2.49992ZM0.833252 9.99992C0.833252 4.93731 4.93731 0.833252 9.99992 0.833252C15.0625 0.833252 19.1666 4.93731 19.1666 9.99992C19.1666 15.0625 15.0625 19.1666 9.99992 19.1666C4.93731 19.1666 0.833252 15.0625 0.833252 9.99992Z" fill="black"/>
<path fill-rule="evenodd" clip-rule="evenodd" d="M6.49208 6.82668C7.21784 6.61932 7.9938 6.67801 8.6801 6.99218C9.09858 7.18375 9.28252 7.67829 9.09096 8.09676C8.89939 8.51523 8.40486 8.69918 7.98638 8.50762C7.66129 8.3588 7.29373 8.33099 6.94995 8.42922C6.60676 8.52727 6.30981 8.74448 6.1124 9.04179C5.92607 9.32659 5.82682 9.65954 5.82682 9.9999C5.82682 10.3409 5.92644 10.6744 6.11343 10.9596C6.11764 10.966 6.12177 10.9725 6.1258 10.979C6.31133 11.2798 6.60254 11.5003 6.9423 11.5974C7.28206 11.6944 7.64582 11.661 7.96222 11.5037C8.37433 11.2988 8.87452 11.4668 9.07943 11.8789C9.28433 12.291 9.11637 12.7912 8.70426 12.9961C8.01563 13.3385 7.2239 13.4112 6.48443 13.1999C5.74869 12.9897 5.11754 12.5135 4.71348 11.864C4.35243 11.3094 4.16016 10.6618 4.16016 9.9999C4.16016 9.33417 4.35464 8.68294 4.71972 8.12624C4.7204 8.12521 4.72108 8.12417 4.72177 8.12314C5.13851 7.49381 5.76633 7.03404 6.49208 6.82668Z" fill="black"/>
<path fill-rule="evenodd" clip-rule="evenodd" d="M12.3256 6.82668C13.0513 6.61932 13.8273 6.67801 14.5136 6.99218C14.9321 7.18375 15.116 7.67829 14.9245 8.09676C14.7329 8.51523 14.2384 8.69918 13.8199 8.50762C13.4948 8.3588 13.1272 8.33099 12.7834 8.42922C12.4403 8.52727 12.1433 8.74448 11.9459 9.04179C11.7596 9.32659 11.6603 9.65954 11.6603 9.9999C11.6603 10.3409 11.7599 10.6744 11.9469 10.9596C11.9511 10.966 11.9553 10.9725 11.9593 10.979C12.1448 11.2798 12.436 11.5003 12.7758 11.5974C13.1156 11.6944 13.4793 11.661 13.7957 11.5037C14.2078 11.2988 14.708 11.4668 14.9129 11.8789C15.1178 12.291 14.9499 12.7912 14.5378 12.9961C13.8491 13.3385 13.0574 13.4112 12.3179 13.1999C11.5822 12.9897 10.951 12.5135 10.547 11.864C10.1859 11.3094 9.99365 10.6618 9.99365 9.9999C9.99365 9.33417 10.1881 8.68294 10.5532 8.12624C10.5539 8.12521 10.5546 8.12417 10.5553 8.12314C10.972 7.49381 11.5998 7.03404 12.3256 6.82668Z" fill="black"/>
</g>
<defs>
<clipPath id="clip0_2001_6130">
<rect width="20" height="20" fill="white"/>
</clipPath>
</defs>
</svg>
