<svg width="20" height="20" viewBox="0 0 20 20" fill="none" xmlns="http://www.w3.org/2000/svg">
<path fill-rule="evenodd" clip-rule="evenodd" d="M3.33325 4.99992C2.87301 4.99992 2.49992 5.37301 2.49992 5.83325V14.1666C2.49992 14.6268 2.87301 14.9999 3.33325 14.9999H16.6666C17.1268 14.9999 17.4999 14.6268 17.4999 14.1666V5.83325C17.4999 5.37301 17.1268 4.99992 16.6666 4.99992H3.33325ZM0.833252 5.83325C0.833252 4.45254 1.95254 3.33325 3.33325 3.33325H16.6666C18.0473 3.33325 19.1666 4.45254 19.1666 5.83325V14.1666C19.1666 15.5473 18.0473 16.6666 16.6666 16.6666H3.33325C1.95254 16.6666 0.833252 15.5473 0.833252 14.1666V5.83325Z" fill="black"/>
<path fill-rule="evenodd" clip-rule="evenodd" d="M0.833252 8.33333C0.833252 7.8731 1.20635 7.5 1.66659 7.5H18.3333C18.7935 7.5 19.1666 7.8731 19.1666 8.33333C19.1666 8.79357 18.7935 9.16667 18.3333 9.16667H1.66659C1.20635 9.16667 0.833252 8.79357 0.833252 8.33333Z" fill="black"/>
</svg>
