<svg width="20" height="20" viewBox="0 0 20 20" fill="none" xmlns="http://www.w3.org/2000/svg">
<g clip-path="url(#clip0_2001_6137)">
<path fill-rule="evenodd" clip-rule="evenodd" d="M10.5463 9.45691C9.97031 8.88705 9.37316 8.80616 9.06313 8.9784L4.23861 11.6531C4.23844 11.6532 4.23827 11.6533 4.2381 11.6534C4.00431 11.7836 3.90888 11.9252 3.86383 12.0565C3.81283 12.2051 3.79971 12.4237 3.87602 12.7266C4.03271 13.3486 4.51593 14.1157 5.19769 14.7951C5.87903 15.474 6.65085 15.9579 7.27702 16.1174C7.58281 16.1953 7.8027 16.1833 7.95036 16.1341C8.0792 16.0911 8.21457 16.0008 8.33825 15.7786C8.33833 15.7785 8.3384 15.7784 8.33848 15.7782L11.022 10.9362L11.0229 10.9347C11.2038 10.6114 11.1192 10.0238 10.5463 9.45691ZM12.4782 11.747C13.1959 10.4623 12.5223 9.06741 11.7185 8.27214C10.9175 7.47963 9.51916 6.81894 8.25436 7.52112C8.25428 7.52117 8.25419 7.52122 8.2541 7.52126C8.25397 7.52133 8.25385 7.5214 8.25372 7.52147L3.42824 10.1967C2.86865 10.5081 2.47825 10.9594 2.28742 11.5154C2.10252 12.0542 2.12977 12.6174 2.25984 13.1337C2.51591 14.1502 3.21447 15.1717 4.02124 15.9756C4.82844 16.78 5.85194 17.4743 6.86561 17.7325C7.37975 17.8634 7.9409 17.8942 8.47766 17.7151C9.03314 17.5299 9.48545 17.145 9.79504 16.5883L12.4773 11.7485C12.4776 11.748 12.4779 11.7475 12.4782 11.747Z" fill="black"/>
<path fill-rule="evenodd" clip-rule="evenodd" d="M1.61239 4.80098C2.20135 4.26393 3.00412 4.16675 3.74992 4.16675H6.66659C7.18738 4.16675 7.63914 4.33099 8.00168 4.65346C8.33508 4.95002 8.53951 5.33373 8.68375 5.68288L9.51361 7.58326C9.6978 8.00503 9.50519 8.49626 9.08341 8.68044C8.66163 8.86462 8.17041 8.67202 7.98623 8.25024L7.15289 6.34191C7.15047 6.33635 7.1481 6.33078 7.1458 6.32517C7.04025 6.06832 6.95363 5.95183 6.894 5.89878C6.8607 5.86917 6.81246 5.83341 6.66659 5.83341H3.74992C3.07071 5.83341 2.83182 5.94457 2.73537 6.03252C2.65785 6.10321 2.50261 6.31897 2.49995 7.06396C2.56494 8.35779 3.0772 9.58916 3.94951 10.5475C4.25932 10.8878 4.23456 11.4149 3.89421 11.7247C3.55386 12.0345 3.02681 12.0097 2.717 11.6694C1.57901 10.4192 0.913094 8.81102 0.834161 7.12232C0.833555 7.10936 0.833252 7.09639 0.833252 7.08341C0.833252 6.17745 1.00516 5.35468 1.61239 4.80098Z" fill="black"/>
<path fill-rule="evenodd" clip-rule="evenodd" d="M3.49013 1.29256C3.91374 0.99301 4.42288 0.833252 4.99992 0.833252C5.62715 0.833252 6.17098 1.00917 6.59411 1.37647C7.00422 1.73247 7.21941 2.19785 7.33719 2.62951C7.52374 3.31315 7.51155 4.13134 7.503 4.70471C7.5014 4.81263 7.49992 4.91188 7.49992 4.99992C7.49992 5.46016 7.12682 5.83325 6.66658 5.83325C6.20635 5.83325 5.83325 5.46016 5.83325 4.99992C5.83325 4.86406 5.83465 4.73064 5.83602 4.60004C5.84207 4.02327 5.84755 3.50156 5.72931 3.06825C5.66376 2.82802 5.57895 2.70227 5.50156 2.63509C5.43719 2.57921 5.30602 2.49992 4.99992 2.49992C4.74362 2.49992 4.57568 2.5662 4.45241 2.65337C4.32096 2.74632 4.1941 2.89664 4.08269 3.12577C3.85078 3.60274 3.74992 4.28878 3.74992 4.99992C3.74992 5.46016 3.37682 5.83325 2.91659 5.83325C2.45635 5.83325 2.08325 5.46016 2.08325 4.99992C2.08325 4.18606 2.19072 3.20544 2.58381 2.39698C2.7849 1.9834 3.07471 1.58633 3.49013 1.29256Z" fill="black"/>
<path fill-rule="evenodd" clip-rule="evenodd" d="M11.3197 10.9166C11.5038 10.4948 11.9951 10.3022 12.4168 10.4864L14.3172 11.3162C14.6664 11.4605 15.0501 11.6649 15.3466 11.9983C15.6691 12.3608 15.8334 12.8126 15.8334 13.3334V16.25C15.8334 16.9958 15.7362 17.7986 15.1991 18.3876C14.6454 18.9948 13.8227 19.1667 12.9167 19.1667C12.9037 19.1667 12.8907 19.1664 12.8778 19.1658C11.1891 19.0869 9.5809 18.421 8.33073 17.283C7.99038 16.9732 7.96562 16.4461 8.27543 16.1058C8.58524 15.7654 9.1123 15.7407 9.45265 16.0505C10.4109 16.9228 11.6423 17.435 12.9361 17.5C13.6811 17.4974 13.8969 17.3421 13.9676 17.2646C14.0555 17.1681 14.1667 16.9293 14.1667 16.25V13.3334C14.1667 13.1875 14.1309 13.1393 14.1013 13.106C14.0483 13.0463 13.9318 12.9597 13.6749 12.8542C13.6693 12.8519 13.6637 12.8495 13.6582 12.8471L11.7499 12.0137C11.3281 11.8296 11.1355 11.3383 11.3197 10.9166Z" fill="black"/>
<path fill-rule="evenodd" clip-rule="evenodd" d="M15.4 14.1639C15.2694 14.1653 15.1359 14.1667 15.0001 14.1667C14.5398 14.1667 14.1667 13.7936 14.1667 13.3334C14.1667 12.8731 14.5398 12.5 15.0001 12.5C15.0881 12.5 15.1874 12.4985 15.2953 12.4969C15.8687 12.4884 16.6868 12.4762 17.3705 12.6627C17.8021 12.7805 18.2675 12.9957 18.6235 13.4058C18.9908 13.829 19.1667 14.3728 19.1667 15C19.1667 15.5771 19.007 16.0862 18.7074 16.5098C18.4137 16.9252 18.0166 17.215 17.603 17.4161C16.7946 17.8092 15.8139 17.9167 15.0001 17.9167C14.5398 17.9167 14.1667 17.5436 14.1667 17.0834C14.1667 16.6231 14.5398 16.25 15.0001 16.25C15.7112 16.25 16.3973 16.1492 16.8742 15.9172C17.1034 15.8058 17.2537 15.679 17.3466 15.5475C17.4338 15.4243 17.5001 15.2563 17.5001 15C17.5001 14.6939 17.4208 14.5628 17.3649 14.4984C17.2977 14.421 17.172 14.3362 16.9318 14.2706C16.4984 14.1524 15.9767 14.1579 15.4 14.1639Z" fill="black"/>
</g>
<defs>
<clipPath id="clip0_2001_6137">
<rect width="20" height="20" fill="white"/>
</clipPath>
</defs>
</svg>
