<svg width="20" height="20" viewBox="0 0 20 20" fill="none" xmlns="http://www.w3.org/2000/svg">
<g clip-path="url(#clip0_2001_6143)">
<path fill-rule="evenodd" clip-rule="evenodd" d="M5.00008 0.833252C5.46032 0.833252 5.83341 1.20635 5.83341 1.66659V13.3333C5.83341 13.5543 5.92121 13.7662 6.07749 13.9225C6.23377 14.0788 6.44573 14.1666 6.66675 14.1666H18.3334C18.7937 14.1666 19.1667 14.5397 19.1667 14.9999C19.1667 15.4602 18.7937 15.8333 18.3334 15.8333H6.66675C6.00371 15.8333 5.36782 15.5699 4.89898 15.101C4.43014 14.6322 4.16675 13.9963 4.16675 13.3333V1.66659C4.16675 1.20635 4.53984 0.833252 5.00008 0.833252Z" fill="black"/>
<path fill-rule="evenodd" clip-rule="evenodd" d="M0.833252 5.00008C0.833252 4.53984 1.20635 4.16675 1.66659 4.16675H13.3333C13.9963 4.16675 14.6322 4.43014 15.101 4.89898C15.5699 5.36782 15.8333 6.00371 15.8333 6.66675V18.3334C15.8333 18.7937 15.4602 19.1667 14.9999 19.1667C14.5397 19.1667 14.1666 18.7937 14.1666 18.3334V6.66675C14.1666 6.44573 14.0788 6.23377 13.9225 6.07749C13.7662 5.92121 13.5543 5.83341 13.3333 5.83341H1.66659C1.20635 5.83341 0.833252 5.46032 0.833252 5.00008Z" fill="black"/>
</g>
<defs>
<clipPath id="clip0_2001_6143">
<rect width="20" height="20" fill="white"/>
</clipPath>
</defs>
</svg>
