<svg width="20" height="20" viewBox="0 0 20 20" fill="none" xmlns="http://www.w3.org/2000/svg">
<g clip-path="url(#clip0_2001_6146)">
<path fill-rule="evenodd" clip-rule="evenodd" d="M7.39882 1.56549C7.86766 1.09664 8.50354 0.833252 9.16659 0.833252H10.8333C11.4963 0.833252 12.1322 1.09664 12.601 1.56549C13.0699 2.03433 13.3333 2.67021 13.3333 3.33325V6.66659H16.6666C17.3296 6.66659 17.9655 6.92998 18.4344 7.39882C18.9032 7.86766 19.1666 8.50354 19.1666 9.16659V10.8333C19.1666 11.4963 18.9032 12.1322 18.4344 12.601C17.9655 13.0699 17.3296 13.3333 16.6666 13.3333H13.3333V16.6666C13.3333 17.3296 13.0699 17.9655 12.601 18.4344C12.1322 18.9032 11.4963 19.1666 10.8333 19.1666H9.16659C7.78968 19.1666 6.66659 18.0435 6.66659 16.6666V13.3333H3.33325C1.95635 13.3333 0.833252 12.2102 0.833252 10.8333V9.16659C0.833252 8.50354 1.09664 7.86766 1.56549 7.39882C2.03433 6.92998 2.67021 6.66659 3.33325 6.66659H6.66659V3.33325C6.66659 2.67021 6.92998 2.03433 7.39882 1.56549ZM9.16659 2.49992C8.94557 2.49992 8.73361 2.58772 8.57733 2.744C8.42105 2.90028 8.33325 3.11224 8.33325 3.33325V7.49992C8.33325 7.96016 7.96016 8.33325 7.49992 8.33325H3.33325C3.11224 8.33325 2.90028 8.42105 2.744 8.57733C2.58772 8.73361 2.49992 8.94557 2.49992 9.16659V10.8333C2.49992 11.2897 2.87682 11.6666 3.33325 11.6666H7.49992C7.96016 11.6666 8.33325 12.0397 8.33325 12.4999V16.6666C8.33325 17.123 8.71016 17.4999 9.16659 17.4999H10.8333C11.0543 17.4999 11.2662 17.4121 11.4225 17.2558C11.5788 17.0996 11.6666 16.8876 11.6666 16.6666V12.4999C11.6666 12.0397 12.0397 11.6666 12.4999 11.6666H16.6666C16.8876 11.6666 17.0996 11.5788 17.2558 11.4225C17.4121 11.2662 17.4999 11.0543 17.4999 10.8333V9.16659C17.4999 8.94557 17.4121 8.73361 17.2558 8.57733C17.0996 8.42105 16.8876 8.33325 16.6666 8.33325H12.4999C12.0397 8.33325 11.6666 7.96016 11.6666 7.49992V3.33325C11.6666 3.11224 11.5788 2.90028 11.4225 2.744C11.2662 2.58772 11.0543 2.49992 10.8333 2.49992H9.16659Z" fill="black"/>
</g>
<defs>
<clipPath id="clip0_2001_6146">
<rect width="20" height="20" fill="white"/>
</clipPath>
</defs>
</svg>
