<svg width="20" height="20" viewBox="0 0 20 20" fill="none" xmlns="http://www.w3.org/2000/svg">
<g clip-path="url(#clip0_2001_6148)">
<path fill-rule="evenodd" clip-rule="evenodd" d="M9.99992 2.49992C5.85778 2.49992 2.49992 5.85778 2.49992 9.99992C2.49992 14.1421 5.85778 17.4999 9.99992 17.4999C14.1421 17.4999 17.4999 14.1421 17.4999 9.99992C17.4999 5.85778 14.1421 2.49992 9.99992 2.49992ZM0.833252 9.99992C0.833252 4.93731 4.93731 0.833252 9.99992 0.833252C15.0625 0.833252 19.1666 4.93731 19.1666 9.99992C19.1666 15.0625 15.0625 19.1666 9.99992 19.1666C4.93731 19.1666 0.833252 15.0625 0.833252 9.99992Z" fill="black"/>
<path fill-rule="evenodd" clip-rule="evenodd" d="M14.1667 10.0001C14.1667 9.53984 14.5398 9.16675 15.0001 9.16675H18.3334C18.7937 9.16675 19.1667 9.53984 19.1667 10.0001C19.1667 10.4603 18.7937 10.8334 18.3334 10.8334H15.0001C14.5398 10.8334 14.1667 10.4603 14.1667 10.0001Z" fill="black"/>
<path fill-rule="evenodd" clip-rule="evenodd" d="M0.833252 10.0001C0.833252 9.53984 1.20635 9.16675 1.66659 9.16675H4.99992C5.46016 9.16675 5.83325 9.53984 5.83325 10.0001C5.83325 10.4603 5.46016 10.8334 4.99992 10.8334H1.66659C1.20635 10.8334 0.833252 10.4603 0.833252 10.0001Z" fill="black"/>
<path fill-rule="evenodd" clip-rule="evenodd" d="M10.0001 0.833252C10.4603 0.833252 10.8334 1.20635 10.8334 1.66659V4.99992C10.8334 5.46016 10.4603 5.83325 10.0001 5.83325C9.53984 5.83325 9.16675 5.46016 9.16675 4.99992V1.66659C9.16675 1.20635 9.53984 0.833252 10.0001 0.833252Z" fill="black"/>
<path fill-rule="evenodd" clip-rule="evenodd" d="M10.0001 14.1667C10.4603 14.1667 10.8334 14.5398 10.8334 15.0001V18.3334C10.8334 18.7937 10.4603 19.1667 10.0001 19.1667C9.53984 19.1667 9.16675 18.7937 9.16675 18.3334V15.0001C9.16675 14.5398 9.53984 14.1667 10.0001 14.1667Z" fill="black"/>
</g>
<defs>
<clipPath id="clip0_2001_6148">
<rect width="20" height="20" fill="white"/>
</clipPath>
</defs>
</svg>
