<svg width="20" height="20" viewBox="0 0 20 20" fill="none" xmlns="http://www.w3.org/2000/svg">
<path fill-rule="evenodd" clip-rule="evenodd" d="M9.36407 1.84648C9.55668 1.73265 9.7763 1.67261 10 1.67261C10.2238 1.67261 10.4434 1.73265 10.636 1.84648C10.8286 1.9603 10.9871 2.12374 11.095 2.31972C11.0975 2.32421 11.0999 2.32873 11.1023 2.33326L13.5575 6.99411L17.1104 3.95045C17.1158 3.94584 17.1212 3.94129 17.1267 3.93682C17.332 3.76987 17.5849 3.67236 17.8491 3.65832C18.1133 3.64428 18.3752 3.71443 18.597 3.85868C18.8188 4.00294 18.9891 4.21384 19.0833 4.46104C19.1776 4.70824 19.1911 4.97899 19.1217 5.23432C19.1214 5.23553 19.121 5.23675 19.1207 5.23797L16.7592 13.7758C16.6628 14.1252 16.4551 14.4337 16.1675 14.6545C15.88 14.8752 15.5283 14.9962 15.1658 14.9991C15.1636 14.9991 15.1614 14.9991 15.1592 14.9991H4.84169C4.83976 14.9991 4.83782 14.9991 4.83588 14.9991C4.4731 14.9966 4.12106 14.8758 3.8332 14.655C3.54546 14.4343 3.33755 14.1258 3.241 13.7762C3.24099 13.7762 3.24097 13.7761 3.24095 13.7761C3.24093 13.776 3.2409 13.7759 3.24088 13.7758L0.880171 5.23875C0.87984 5.23755 0.879511 5.23635 0.879185 5.23515C0.809811 4.97983 0.823239 4.70908 0.917538 4.46188C1.01184 4.21467 1.18214 4.00377 1.40394 3.85952C1.62573 3.71527 1.88758 3.64511 2.15179 3.65915C2.41599 3.67319 2.66893 3.7707 2.87419 3.93765C2.87971 3.94215 2.88518 3.94671 2.89059 3.95135L6.44255 6.99494L8.8977 2.33332C8.9001 2.32876 8.90254 2.32423 8.90503 2.31972C9.01293 2.12374 9.17146 1.9603 9.36407 1.84648ZM10.0001 3.81684L12.0877 7.78003C12.0893 7.78304 12.0909 7.78603 12.0925 7.78902C12.2099 8.00529 12.3736 8.1929 12.5721 8.33838C12.7705 8.48387 12.9987 8.58361 13.2402 8.63045C13.4818 8.6773 13.7307 8.67008 13.9691 8.60932C14.2075 8.54855 14.4295 8.43576 14.6192 8.27902C14.623 8.27588 14.6268 8.27271 14.6305 8.26951L17.1499 6.11119L15.1525 13.3325H4.84751L2.85091 6.11219L5.36947 8.27028C5.37323 8.2735 5.37703 8.2767 5.38085 8.27985C5.57051 8.43659 5.79253 8.54939 6.03095 8.61015C6.26938 8.67091 6.5183 8.67813 6.75985 8.63129C7.0014 8.58444 7.22957 8.4847 7.428 8.33922C7.62643 8.19374 7.79019 8.00613 7.90751 7.78985C7.90914 7.78685 7.91076 7.78383 7.91235 7.78081L10.0001 3.81684Z" fill="black"/>
<path fill-rule="evenodd" clip-rule="evenodd" d="M3.33325 17.5001C3.33325 17.0398 3.70635 16.6667 4.16659 16.6667H15.8333C16.2935 16.6667 16.6666 17.0398 16.6666 17.5001C16.6666 17.9603 16.2935 18.3334 15.8333 18.3334H4.16659C3.70635 18.3334 3.33325 17.9603 3.33325 17.5001Z" fill="black"/>
</svg>
