<svg width="20" height="20" viewBox="0 0 20 20" fill="none" xmlns="http://www.w3.org/2000/svg">
<g clip-path="url(#clip0_2001_6157)">
<path fill-rule="evenodd" clip-rule="evenodd" d="M10.314 1.19801C10.7241 0.946227 11.1983 0.81819 11.6794 0.829277C12.1597 0.840344 12.6266 0.989568 13.0243 1.25906C13.025 1.25955 13.0257 1.26003 13.0265 1.26051L18.0643 4.64125L18.0666 4.6428C18.4059 4.87213 18.6836 5.18128 18.8754 5.54309C19.0671 5.90461 19.167 6.30764 19.1666 6.71681C19.1666 6.71714 19.1666 6.71747 19.1666 6.7178V11.5758C19.1661 12.0018 19.0568 12.4207 18.8489 12.7926C18.6411 13.1645 18.3417 13.4771 17.9791 13.7008L17.9782 13.7014L9.68588 18.8017C9.27571 19.0535 8.80157 19.1816 8.32041 19.1705C7.83996 19.1594 7.3729 19.0101 6.97515 18.7404C6.97456 18.74 6.97397 18.7396 6.97338 18.7392L1.93477 15.3496L1.93325 15.3486C1.59398 15.1193 1.31623 14.8101 1.12443 14.4483C0.932738 14.0867 0.832754 13.6836 0.833254 13.2743L0.833254 8.42396C0.833724 7.99792 0.943063 7.57907 1.15089 7.20716C1.35873 6.83526 1.65815 6.52263 2.02075 6.29896L10.314 1.19801ZM11.1862 2.61821C11.1861 2.61828 11.186 2.61835 11.1859 2.61841L2.89575 7.71746C2.8956 7.71756 2.89546 7.71765 2.89531 7.71774C2.77464 7.79228 2.67499 7.89638 2.6058 8.0202C2.53658 8.14406 2.50014 8.28354 2.49992 8.42543L2.49992 13.2761C2.49971 13.4126 2.53304 13.5471 2.59698 13.6677C2.66076 13.788 2.75307 13.8909 2.8658 13.9673C2.86606 13.9674 2.86632 13.9676 2.86659 13.9678L7.90673 17.3584L7.90803 17.3593L7.90979 17.3605C8.04251 17.4506 8.19842 17.5006 8.35881 17.5043C8.51916 17.508 8.67717 17.4653 8.81388 17.3814C8.81391 17.3814 8.81393 17.3814 8.81396 17.3813L17.1041 12.2823C17.1042 12.2822 17.1043 12.2822 17.1044 12.2821C17.2251 12.2076 17.3248 12.1034 17.394 11.9796C17.4632 11.8558 17.4996 11.7165 17.4999 11.5748C17.4999 11.5745 17.4999 11.5742 17.4999 11.574L17.4999 6.71655L17.4999 6.71529C17.5001 6.57879 17.4668 6.44433 17.4029 6.32372C17.3391 6.20347 17.2469 6.10067 17.1343 6.0243C17.1339 6.02407 17.1336 6.02385 17.1333 6.02362L12.0939 2.64184C12.0926 2.64098 12.0913 2.64012 12.09 2.63925C11.9573 2.54911 11.8014 2.4992 11.641 2.4955C11.4808 2.49181 11.3229 2.53442 11.1862 2.61821Z" fill="black"/>
<path fill-rule="evenodd" clip-rule="evenodd" d="M1.16878 7.18287C1.41293 6.79273 1.92713 6.67439 2.31727 6.91854L8.7756 10.9602C9.01902 11.1125 9.16686 11.3795 9.16686 11.6666V18.3333C9.16686 18.7935 8.79376 19.1666 8.33353 19.1666C7.87329 19.1666 7.50019 18.7935 7.50019 18.3333V12.1282L1.43312 8.33136C1.04298 8.08721 0.924632 7.57301 1.16878 7.18287Z" fill="black"/>
<path fill-rule="evenodd" clip-rule="evenodd" d="M18.8615 5.52154C19.0935 5.91902 18.9594 6.42932 18.5619 6.66133L8.75355 12.3863C8.35607 12.6183 7.84577 12.4842 7.61376 12.0867C7.38176 11.6892 7.5159 11.1789 7.91339 10.9469L17.7217 5.22192C18.1192 4.98991 18.6295 5.12406 18.8615 5.52154Z" fill="black"/>
</g>
<defs>
<clipPath id="clip0_2001_6157">
<rect width="20" height="20" fill="white"/>
</clipPath>
</defs>
</svg>
