<svg width="20" height="20" viewBox="0 0 20 20" fill="none" xmlns="http://www.w3.org/2000/svg">
<path fill-rule="evenodd" clip-rule="evenodd" d="M4.88237 5.84169C5.33801 5.77676 5.76001 6.09349 5.82494 6.54912L7.28341 16.7834C7.31171 16.9836 7.41185 17.1667 7.56517 17.2986C7.71849 17.4304 7.91453 17.5021 8.11674 17.5001C8.11948 17.5 8.12221 17.5 8.12494 17.5H11.9083C11.911 17.5 11.9137 17.5 11.9165 17.5001C12.1187 17.5021 12.3147 17.4304 12.468 17.2986C12.6212 17.1669 12.7213 16.984 12.7497 16.7841C12.7497 16.7838 12.7498 16.7836 12.7498 16.7834L14.1746 6.55176C14.238 6.09592 14.659 5.77785 15.1149 5.84132C15.5707 5.9048 15.8888 6.32579 15.8253 6.78162L14.4003 17.015L14.4001 17.0167C14.3152 17.6173 14.0147 18.1667 13.5548 18.5622C13.096 18.9568 12.5096 19.1715 11.9046 19.1667H8.12859C7.52357 19.1715 6.93725 18.9568 6.47844 18.5622C6.01861 18.1668 5.71822 17.6177 5.63322 17.0172C5.63319 17.017 5.63317 17.0168 5.63314 17.0167L4.17494 6.78426C4.11001 6.32863 4.42674 5.90662 4.88237 5.84169Z" fill="black"/>
<path fill-rule="evenodd" clip-rule="evenodd" d="M3.33325 6.66659C3.33325 6.20635 3.70635 5.83325 4.16659 5.83325H15.8333C16.2935 5.83325 16.6666 6.20635 16.6666 6.66659C16.6666 7.12682 16.2935 7.49992 15.8333 7.49992H4.16659C3.70635 7.49992 3.33325 7.12682 3.33325 6.66659Z" fill="black"/>
<path fill-rule="evenodd" clip-rule="evenodd" d="M7.91664 12.9145C7.31185 12.9145 6.71312 13.0348 6.1553 13.2685C5.73081 13.4463 5.24253 13.2464 5.0647 12.8219C4.88686 12.3974 5.08682 11.9091 5.51131 11.7313C6.27307 11.4122 7.09073 11.2478 7.91664 11.2478C8.74255 11.2478 9.56021 11.4122 10.322 11.7313C10.8798 11.965 11.4785 12.0853 12.0833 12.0853C12.6881 12.0853 13.2868 11.965 13.8446 11.7313C14.2691 11.5535 14.7574 11.7534 14.9352 12.1779C15.1131 12.6024 14.9131 13.0907 14.4886 13.2685C13.7269 13.5876 12.9092 13.752 12.0833 13.752C11.2574 13.752 10.4397 13.5876 9.67797 13.2685C9.12016 13.0348 8.52142 12.9145 7.91664 12.9145Z" fill="black"/>
<path fill-rule="evenodd" clip-rule="evenodd" d="M10.0113 1.52959C10.0783 1.12776 10.4259 0.833252 10.8333 0.833252H12.5C12.9602 0.833252 13.3333 1.20635 13.3333 1.66659C13.3333 2.12682 12.9602 2.49992 12.5 2.49992H11.5392L10.822 6.80358C10.7463 7.25756 10.3169 7.56424 9.86297 7.48858C9.40899 7.41292 9.10231 6.98356 9.17797 6.52959L10.0113 1.52959Z" fill="black"/>
</svg>
