<svg width="20" height="20" viewBox="0 0 20 20" fill="none" xmlns="http://www.w3.org/2000/svg">
<path fill-rule="evenodd" clip-rule="evenodd" d="M10 4.16667C6.77834 4.16667 4.16667 6.77834 4.16667 10C4.16667 13.2217 6.77834 15.8333 10 15.8333C13.2217 15.8333 15.8333 13.2217 15.8333 10C15.8333 6.77834 13.2217 4.16667 10 4.16667ZM2.5 10C2.5 5.85786 5.85786 2.5 10 2.5C14.1421 2.5 17.5 5.85786 17.5 10C17.5 14.1421 14.1421 17.5 10 17.5C5.85786 17.5 2.5 14.1421 2.5 10Z" fill="black"/>
<path fill-rule="evenodd" clip-rule="evenodd" d="M1.91083 1.91083C2.23626 1.58539 2.7639 1.58539 3.08934 1.91083L5.58934 4.41083C5.91477 4.73626 5.91477 5.2639 5.58934 5.58934C5.2639 5.91477 4.73626 5.91477 4.41083 5.58934L1.91083 3.08934C1.58539 2.7639 1.58539 2.23626 1.91083 1.91083Z" fill="black"/>
<path fill-rule="evenodd" clip-rule="evenodd" d="M18.0893 1.91083C18.4148 2.23626 18.4148 2.7639 18.0893 3.08934L15.5893 5.58934C15.2639 5.91477 14.7363 5.91477 14.4108 5.58934C14.0854 5.2639 14.0854 4.73626 14.4108 4.41083L16.9108 1.91083C17.2363 1.58539 17.7639 1.58539 18.0893 1.91083Z" fill="black"/>
<path fill-rule="evenodd" clip-rule="evenodd" d="M5.58934 14.4108C5.91477 14.7363 5.91477 15.2639 5.58934 15.5893L3.08934 18.0893C2.7639 18.4148 2.23626 18.4148 1.91083 18.0893C1.58539 17.7639 1.58539 17.2363 1.91083 16.9108L4.41083 14.4108C4.73626 14.0854 5.2639 14.0854 5.58934 14.4108Z" fill="black"/>
<path fill-rule="evenodd" clip-rule="evenodd" d="M14.4108 14.4108C14.7363 14.0854 15.2639 14.0854 15.5893 14.4108L18.0893 16.9108C18.4148 17.2363 18.4148 17.7639 18.0893 18.0893C17.7639 18.4148 17.2363 18.4148 16.9108 18.0893L14.4108 15.5893C14.0854 15.2639 14.0854 14.7363 14.4108 14.4108Z" fill="black"/>
</svg>
