<svg width="20" height="20" viewBox="0 0 20 20" fill="none" xmlns="http://www.w3.org/2000/svg">
<path fill-rule="evenodd" clip-rule="evenodd" d="M13.681 11.3241C13.2395 11.536 12.7252 11.6666 12.0834 11.6666C11.0667 11.6666 10.4127 11.3603 9.88747 10.9776C9.73322 10.8652 9.56789 10.7278 9.43314 10.6158C9.37634 10.5685 9.32498 10.5258 9.28217 10.4914C9.11176 10.3545 8.96709 10.2532 8.807 10.1766C8.39187 9.97789 8.21641 9.48028 8.41511 9.06515C8.61381 8.65001 9.11142 8.47455 9.52655 8.67325C9.85397 8.82996 10.1135 9.02136 10.3261 9.19224C10.4175 9.26563 10.4915 9.32741 10.5583 9.38324C10.6662 9.47332 10.7555 9.54788 10.869 9.63059C11.15 9.83534 11.4668 9.99992 12.0834 9.99992C12.4833 9.99992 12.7503 9.92213 12.9598 9.82157C13.1871 9.71248 13.3774 9.56421 13.6462 9.34919C13.6532 9.34361 13.6602 9.33798 13.6673 9.3323C13.9166 9.13273 14.2405 8.87351 14.6525 8.67573C15.094 8.4638 15.6083 8.33325 16.2501 8.33325C16.9074 8.33325 17.4287 8.46164 17.8735 8.67687C18.2893 8.87805 18.6063 9.14243 18.8461 9.3424C18.8531 9.34823 18.8601 9.35401 18.8669 9.35973C19.2205 9.65437 19.2683 10.1798 18.9736 10.5334C18.679 10.887 18.1535 10.9347 17.8 10.6401C17.5421 10.4253 17.3655 10.2826 17.1476 10.1771C16.9465 10.0799 16.6761 9.99992 16.2501 9.99992C15.8502 9.99992 15.5833 10.0777 15.3737 10.1783C15.1465 10.2874 14.9561 10.4356 14.6874 10.6506C14.6804 10.6562 14.6733 10.6619 14.6662 10.6675C14.4169 10.8671 14.0931 11.1263 13.681 11.3241Z" fill="black"/>
<path fill-rule="evenodd" clip-rule="evenodd" d="M13.6809 16.3241C13.2394 16.536 12.7251 16.6666 12.0833 16.6666C11.4384 16.6666 10.8358 16.5432 10.3381 16.3493C9.86733 16.1659 9.39016 15.8795 9.10896 15.4778C8.84503 15.1008 8.93673 14.5812 9.31377 14.3172C9.69081 14.0533 10.2104 14.145 10.4743 14.522C10.4741 14.5217 10.4742 14.5218 10.4746 14.5223C10.4784 14.5267 10.5087 14.5623 10.5884 14.6164C10.6728 14.6737 10.7914 14.7372 10.9431 14.7964C11.2475 14.9149 11.6449 14.9999 12.0833 14.9999C12.4832 14.9999 12.7502 14.9221 12.9597 14.8216C13.187 14.7125 13.3773 14.5642 13.6461 14.3492C13.6531 14.3436 13.6601 14.338 13.6672 14.3323C13.9165 14.1327 14.2404 13.8735 14.6524 13.6757C15.0939 13.4638 15.6082 13.3333 16.25 13.3333C16.9073 13.3333 17.4286 13.4616 17.8734 13.6769C18.2892 13.8781 18.6062 14.1424 18.846 14.3424C18.853 14.3482 18.8599 14.354 18.8668 14.3597C19.2204 14.6544 19.2681 15.1798 18.9735 15.5334C18.6789 15.887 18.1534 15.9347 17.7998 15.6401C17.542 15.4253 17.3654 15.2826 17.1474 15.1771C16.9464 15.0799 16.676 14.9999 16.25 14.9999C15.8501 14.9999 15.5831 15.0777 15.3736 15.1783C15.1463 15.2874 14.956 15.4356 14.6872 15.6506C14.6803 15.6562 14.6732 15.6619 14.6661 15.6675C14.4168 15.8671 14.093 16.1263 13.6809 16.3241Z" fill="black"/>
<path fill-rule="evenodd" clip-rule="evenodd" d="M0.833252 8.33333C0.833252 7.8731 1.20635 7.5 1.66659 7.5H4.99992C5.46016 7.5 5.83325 7.8731 5.83325 8.33333C5.83325 8.79357 5.46016 9.16667 4.99992 9.16667H1.66659C1.20635 9.16667 0.833252 8.79357 0.833252 8.33333Z" fill="black"/>
<path fill-rule="evenodd" clip-rule="evenodd" d="M0.833252 11.6666C0.833252 11.2063 1.20635 10.8333 1.66659 10.8333H4.99992C5.46016 10.8333 5.83325 11.2063 5.83325 11.6666C5.83325 12.1268 5.46016 12.4999 4.99992 12.4999H1.66659C1.20635 12.4999 0.833252 12.1268 0.833252 11.6666Z" fill="black"/>
<path fill-rule="evenodd" clip-rule="evenodd" d="M0.833252 15.0001C0.833252 14.5398 1.20635 14.1667 1.66659 14.1667H4.99992C5.46016 14.1667 5.83325 14.5398 5.83325 15.0001C5.83325 15.4603 5.46016 15.8334 4.99992 15.8334H1.66659C1.20635 15.8334 0.833252 15.4603 0.833252 15.0001Z" fill="black"/>
<path fill-rule="evenodd" clip-rule="evenodd" d="M0.833252 5.00008C0.833252 4.53984 1.20635 4.16675 1.66659 4.16675H4.99992C5.46016 4.16675 5.83325 4.53984 5.83325 5.00008C5.83325 5.46032 5.46016 5.83341 4.99992 5.83341H1.66659C1.20635 5.83341 0.833252 5.46032 0.833252 5.00008Z" fill="black"/>
<path fill-rule="evenodd" clip-rule="evenodd" d="M4.6549 2.1549C4.96746 1.84234 5.39139 1.66675 5.83341 1.66675H7.50008C7.94211 1.66675 8.36603 1.84234 8.67859 2.1549C8.97681 2.45312 9.15034 2.85272 9.16564 3.27269L10.827 16.5634C10.8313 16.5977 10.8334 16.6322 10.8334 16.6667C10.8334 17.1088 10.6578 17.5327 10.3453 17.8453C10.0327 18.1578 9.60877 18.3334 9.16675 18.3334H5.83341C5.39139 18.3334 4.96747 18.1578 4.6549 17.8453C4.34234 17.5327 4.16675 17.1088 4.16675 16.6667V3.33341C4.16675 2.89139 4.34234 2.46746 4.6549 2.1549ZM7.50008 3.33341H5.83341L5.83341 16.6667H9.16026L7.50652 3.43678C7.50223 3.40249 7.50008 3.36797 7.50008 3.33341Z" fill="black"/>
</svg>
