<svg width="20" height="20" viewBox="0 0 20 20" fill="none" xmlns="http://www.w3.org/2000/svg">
<path fill-rule="evenodd" clip-rule="evenodd" d="M3.33341 4.16653L3.33341 4.16658C3.33341 4.16719 3.33333 4.1707 3.33596 4.17933C3.33879 4.18861 3.34577 4.20696 3.36264 4.23445C3.39801 4.29206 3.47015 4.37869 3.60528 4.48519C3.88043 4.70203 4.33022 4.93375 4.9603 5.14378C6.21177 5.56094 7.99366 5.83325 10.0001 5.83325C12.0065 5.83325 13.7884 5.56094 15.0399 5.14378C15.6699 4.93375 16.1197 4.70203 16.3949 4.48519C16.53 4.37869 16.6021 4.29206 16.6375 4.23445C16.6544 4.20696 16.6614 4.18861 16.6642 4.17933C16.6668 4.1707 16.6667 4.16719 16.6667 4.16658V4.16653C16.6667 4.16579 16.6668 4.16224 16.6642 4.15384C16.6614 4.14456 16.6544 4.12621 16.6375 4.09872C16.6021 4.04111 16.53 3.95448 16.3949 3.84798C16.1197 3.63114 15.6699 3.39942 15.0399 3.18939C13.7884 2.77223 12.0065 2.49992 10.0001 2.49992C7.99366 2.49992 6.21177 2.77223 4.9603 3.18939C4.33022 3.39942 3.88043 3.63114 3.60528 3.84798C3.47015 3.95448 3.39801 4.04111 3.36264 4.09872C3.34577 4.12621 3.33879 4.14456 3.33596 4.15384C3.3334 4.16224 3.33341 4.16579 3.33341 4.16653ZM4.43326 1.60825C5.89626 1.12058 7.86437 0.833252 10.0001 0.833252C12.1358 0.833252 14.1039 1.12058 15.5669 1.60825C16.294 1.85063 16.9426 2.15761 17.4265 2.53896C17.901 2.91291 18.3334 3.45663 18.3334 4.16658C18.3334 4.87654 17.901 5.42026 17.4265 5.79421C16.9426 6.17556 16.294 6.48254 15.5669 6.72492C14.1039 7.21259 12.1358 7.49992 10.0001 7.49992C7.86437 7.49992 5.89626 7.21259 4.43326 6.72492C3.70611 6.48254 3.05755 6.17556 2.57366 5.79421C2.09916 5.42026 1.66675 4.87654 1.66675 4.16658C1.66675 3.45663 2.09916 2.91291 2.57366 2.53896C3.05755 2.15761 3.70611 1.85063 4.43326 1.60825Z" fill="black"/>
<path fill-rule="evenodd" clip-rule="evenodd" d="M2.4999 3.33325C2.96014 3.33325 3.33323 3.70635 3.33323 4.16659V15.8333C3.33323 15.8356 3.33322 15.8379 3.3332 15.8402C3.3332 15.8411 3.33319 15.842 3.33318 15.8429L3.33318 15.8429C3.33318 15.8429 3.33318 15.843 3.33319 15.8431C3.3332 15.8433 3.33325 15.8438 3.3334 15.8446C3.33367 15.8463 3.3345 15.8504 3.3369 15.8573C3.34172 15.871 3.35386 15.8986 3.38315 15.9393C3.44445 16.0245 3.56561 16.1457 3.78278 16.2866C4.22124 16.5709 4.91793 16.8499 5.84985 17.0704C6.77177 17.2886 7.85286 17.433 9.00108 17.4864C10.1484 17.5399 11.316 17.5003 12.4024 17.3723C12.8594 17.3184 13.2736 17.6453 13.3275 18.1024C13.3814 18.5595 13.0545 18.9737 12.5974 19.0275C11.4167 19.1667 10.1578 19.2088 8.92357 19.1513C7.6903 19.0939 6.50477 18.9381 5.46601 18.6923C4.43725 18.4488 3.53666 18.1134 2.8759 17.6849C2.24468 17.2755 1.6596 16.6597 1.66657 15.8292V4.16659C1.66657 3.70635 2.03966 3.33325 2.4999 3.33325Z" fill="black"/>
<path fill-rule="evenodd" clip-rule="evenodd" d="M17.5001 3.33325C17.9603 3.33325 18.3334 3.70635 18.3334 4.16659V6.66658C18.3334 7.12682 17.9603 7.49992 17.5001 7.49992C17.0398 7.49992 16.6667 7.12682 16.6667 6.66658V4.16659C16.6667 3.70635 17.0398 3.33325 17.5001 3.33325Z" fill="black"/>
<path fill-rule="evenodd" clip-rule="evenodd" d="M17.9288 9.28539C18.3235 9.52218 18.4514 10.0341 18.2147 10.4287L16.4719 13.3333H18.3334C18.6336 13.3333 18.9107 13.4948 19.0586 13.756C19.2065 14.0173 19.2025 14.3379 19.048 14.5954L16.548 18.762C16.3112 19.1567 15.7993 19.2847 15.4047 19.0479C15.01 18.8111 14.882 18.2992 15.1188 17.9045L16.8616 15H15.0001C14.6999 15 14.4228 14.8385 14.2749 14.5772C14.127 14.316 14.131 13.9953 14.2855 13.7379L16.7855 9.57122C17.0223 9.17657 17.5342 9.0486 17.9288 9.28539Z" fill="black"/>
<path fill-rule="evenodd" clip-rule="evenodd" d="M2.49751 9.16675C2.95774 9.16533 3.33199 9.53727 3.33341 9.99751L3.33341 9.99751L3.33341 9.99755C3.33341 9.99758 3.33342 9.99766 3.33343 9.99779C3.33345 9.99802 3.33351 9.9986 3.33368 9.99956C3.33401 10.0014 3.3349 10.0056 3.33733 10.0124C3.3422 10.0262 3.35413 10.053 3.38214 10.0922C3.44067 10.1741 3.55565 10.2908 3.76131 10.4269C4.17697 10.7021 4.8381 10.9751 5.72786 11.1954C6.60793 11.4134 7.64429 11.5632 8.75386 11.6281C9.86235 11.6928 11.0008 11.6702 12.0754 11.5626C12.5333 11.5167 12.9417 11.8507 12.9876 12.3087C13.0335 12.7666 12.6994 13.1751 12.2415 13.2209C11.0773 13.3375 9.85072 13.3616 8.65665 13.2919C7.46368 13.2222 6.32368 13.06 5.32725 12.8132C4.34049 12.5689 3.4769 12.2375 2.84128 11.8167C2.2305 11.4123 1.66925 10.8103 1.66675 10.0027C1.66533 9.54242 2.03727 9.16817 2.49751 9.16675Z" fill="black"/>
</svg>
