<svg width="20" height="20" viewBox="0 0 20 20" fill="none" xmlns="http://www.w3.org/2000/svg">
<path fill-rule="evenodd" clip-rule="evenodd" d="M3.33341 4.16653L3.33341 4.16658C3.33341 4.16719 3.33333 4.1707 3.33596 4.17933C3.33879 4.18861 3.34577 4.20696 3.36264 4.23445C3.39801 4.29206 3.47015 4.37869 3.60528 4.48519C3.88043 4.70203 4.33022 4.93375 4.9603 5.14378C6.21177 5.56094 7.99366 5.83325 10.0001 5.83325C12.0065 5.83325 13.7884 5.56094 15.0399 5.14378C15.6699 4.93375 16.1197 4.70203 16.3949 4.48519C16.53 4.37869 16.6021 4.29206 16.6375 4.23445C16.6544 4.20696 16.6614 4.18861 16.6642 4.17933C16.6668 4.1707 16.6667 4.16719 16.6667 4.16658V4.16653C16.6667 4.16579 16.6668 4.16224 16.6642 4.15384C16.6614 4.14456 16.6544 4.12621 16.6375 4.09872C16.6021 4.04111 16.53 3.95448 16.3949 3.84798C16.1197 3.63114 15.6699 3.39942 15.0399 3.18939C13.7884 2.77223 12.0065 2.49992 10.0001 2.49992C7.99366 2.49992 6.21177 2.77223 4.9603 3.18939C4.33022 3.39942 3.88043 3.63114 3.60528 3.84798C3.47015 3.95448 3.39801 4.04111 3.36264 4.09872C3.34577 4.12621 3.33879 4.14456 3.33596 4.15384C3.3334 4.16224 3.33341 4.16579 3.33341 4.16653ZM4.43326 1.60825C5.89626 1.12058 7.86437 0.833252 10.0001 0.833252C12.1358 0.833252 14.1039 1.12058 15.5669 1.60825C16.294 1.85063 16.9426 2.15761 17.4265 2.53896C17.901 2.91291 18.3334 3.45663 18.3334 4.16658C18.3334 4.87654 17.901 5.42026 17.4265 5.79421C16.9426 6.17556 16.294 6.48254 15.5669 6.72492C14.1039 7.21259 12.1358 7.49992 10.0001 7.49992C7.86437 7.49992 5.89626 7.21259 4.43326 6.72492C3.70611 6.48254 3.05755 6.17556 2.57366 5.79421C2.09916 5.42026 1.66675 4.87654 1.66675 4.16658C1.66675 3.45663 2.09916 2.91291 2.57366 2.53896C3.05755 2.15761 3.70611 1.85063 4.43326 1.60825Z" fill="black"/>
<path fill-rule="evenodd" clip-rule="evenodd" d="M2.50008 3.33325C2.96032 3.33325 3.33341 3.70635 3.33341 4.16659V15.8333C3.33341 15.8333 3.33341 15.8333 3.33343 15.8335C3.33344 15.8336 3.33347 15.834 3.33355 15.8345C3.33371 15.8356 3.33417 15.8382 3.33544 15.8424C3.33793 15.8508 3.34434 15.8682 3.3602 15.8947C3.39334 15.9499 3.46208 16.035 3.59344 16.1407C3.861 16.3561 4.3085 16.5932 4.9603 16.8104C6.25842 17.2432 8.07194 17.4999 10.0001 17.4999C11.9282 17.4999 13.7417 17.2432 15.0399 16.8104C15.6917 16.5932 16.1392 16.3561 16.4067 16.1407C16.5381 16.035 16.6068 15.9499 16.64 15.8947C16.6558 15.8682 16.6622 15.8508 16.6647 15.8424C16.666 15.8382 16.6664 15.8356 16.6666 15.8345C16.6667 15.834 16.6667 15.8336 16.6667 15.8335C16.6667 15.8333 16.6667 15.8333 16.6667 15.8333V4.16659C16.6667 3.70635 17.0398 3.33325 17.5001 3.33325C17.9603 3.33325 18.3334 3.70635 18.3334 4.16659V15.8333C18.3334 16.521 17.9231 17.0598 17.4516 17.4392C16.9725 17.8248 16.3216 18.14 15.5669 18.3916C14.052 18.8966 12.0502 19.1666 10.0001 19.1666C7.94998 19.1666 5.94818 18.8966 4.43326 18.3916C3.67854 18.14 3.02769 17.8248 2.54853 17.4392C2.07707 17.0598 1.66675 16.521 1.66675 15.8333V4.16659C1.66675 3.70635 2.03984 3.33325 2.50008 3.33325Z" fill="black"/>
<path fill-rule="evenodd" clip-rule="evenodd" d="M2.50008 9.16675C2.96032 9.16675 3.33341 9.53984 3.33341 10.0001V10.0001C3.33341 10.0001 3.33341 10.0002 3.33343 10.0003C3.33344 10.0004 3.33347 10.0008 3.33355 10.0014C3.33371 10.0025 3.33417 10.005 3.33544 10.0093C3.33793 10.0177 3.34434 10.0351 3.3602 10.0615C3.39334 10.1168 3.46208 10.2019 3.59344 10.3076C3.861 10.5229 4.3085 10.76 4.9603 10.9773C6.25842 11.41 8.07194 11.6667 10.0001 11.6667C11.9282 11.6667 13.7417 11.41 15.0399 10.9773C15.6917 10.76 16.1392 10.5229 16.4067 10.3076C16.5381 10.2019 16.6068 10.1168 16.64 10.0615C16.6558 10.0351 16.6622 10.0177 16.6647 10.0093C16.666 10.005 16.6664 10.0025 16.6666 10.0014C16.6667 10.0008 16.6667 10.0004 16.6667 10.0003C16.6667 10.0002 16.6667 10.0001 16.6667 10.0001C16.6667 9.53984 17.0398 9.16675 17.5001 9.16675C17.9603 9.16675 18.3334 9.53984 18.3334 10.0001C18.3334 10.6878 17.9231 11.2266 17.4516 11.606C16.9725 11.9916 16.3216 12.3068 15.5669 12.5584C14.052 13.0634 12.0502 13.3334 10.0001 13.3334C7.94998 13.3334 5.94818 13.0634 4.43326 12.5584C3.67854 12.3068 3.02769 11.9916 2.54853 11.606C2.07707 11.2266 1.66675 10.6878 1.66675 10.0001C1.66675 9.53984 2.03984 9.16675 2.50008 9.16675Z" fill="black"/>
</svg>
