<svg width="20" height="20" viewBox="0 0 20 20" fill="none" xmlns="http://www.w3.org/2000/svg">
<path fill-rule="evenodd" clip-rule="evenodd" d="M3.33341 4.16653L3.33341 4.16658C3.33341 4.16719 3.33333 4.1707 3.33596 4.17933C3.33879 4.18861 3.34577 4.20696 3.36264 4.23445C3.39801 4.29206 3.47015 4.37869 3.60528 4.48519C3.88043 4.70203 4.33022 4.93375 4.9603 5.14378C6.21177 5.56094 7.99366 5.83325 10.0001 5.83325C12.0065 5.83325 13.7884 5.56094 15.0399 5.14378C15.6699 4.93375 16.1197 4.70203 16.3949 4.48519C16.53 4.37869 16.6021 4.29206 16.6375 4.23445C16.6544 4.20696 16.6614 4.18861 16.6642 4.17933C16.6668 4.1707 16.6667 4.16719 16.6667 4.16658V4.16653C16.6667 4.16579 16.6668 4.16224 16.6642 4.15384C16.6614 4.14456 16.6544 4.12621 16.6375 4.09872C16.6021 4.04111 16.53 3.95448 16.3949 3.84798C16.1197 3.63114 15.6699 3.39942 15.0399 3.18939C13.7884 2.77223 12.0065 2.49992 10.0001 2.49992C7.99366 2.49992 6.21177 2.77223 4.9603 3.18939C4.33022 3.39942 3.88043 3.63114 3.60528 3.84798C3.47015 3.95448 3.39801 4.04111 3.36264 4.09872C3.34577 4.12621 3.33879 4.14456 3.33596 4.15384C3.3334 4.16224 3.33341 4.16579 3.33341 4.16653ZM4.43326 1.60825C5.89626 1.12058 7.86437 0.833252 10.0001 0.833252C12.1358 0.833252 14.1039 1.12058 15.5669 1.60825C16.294 1.85063 16.9426 2.15761 17.4265 2.53896C17.901 2.91291 18.3334 3.45663 18.3334 4.16658C18.3334 4.87654 17.901 5.42026 17.4265 5.79421C16.9426 6.17556 16.294 6.48254 15.5669 6.72492C14.1039 7.21259 12.1358 7.49992 10.0001 7.49992C7.86437 7.49992 5.89626 7.21259 4.43326 6.72492C3.70611 6.48254 3.05755 6.17556 2.57366 5.79421C2.09916 5.42026 1.66675 4.87654 1.66675 4.16658C1.66675 3.45663 2.09916 2.91291 2.57366 2.53896C3.05755 2.15761 3.70611 1.85063 4.43326 1.60825Z" fill="black"/>
<path fill-rule="evenodd" clip-rule="evenodd" d="M2.50223 9.16675C2.96247 9.16794 3.3346 9.542 3.33342 10.0022L3.33342 10.0022L3.33342 10.0023C3.33342 10.0023 3.33343 10.0024 3.33345 10.0026C3.33348 10.003 3.33359 10.0039 3.33391 10.0054C3.33451 10.0083 3.33617 10.015 3.34068 10.0258C3.34989 10.0478 3.37157 10.0883 3.41993 10.145C3.52056 10.2631 3.70769 10.4174 4.01943 10.5851C4.64439 10.9213 5.59912 11.2205 6.80272 11.4196C7.25679 11.4947 7.56401 11.9236 7.48892 12.3777C7.41382 12.8318 6.98485 13.139 6.53078 13.0639C5.22993 12.8488 4.0773 12.5088 3.22979 12.0528C2.44138 11.6286 1.66428 10.9582 1.66675 9.99793C1.66794 9.5377 2.042 9.16556 2.50223 9.16675Z" fill="black"/>
<path fill-rule="evenodd" clip-rule="evenodd" d="M17.5001 3.33325C17.9603 3.33325 18.3334 3.70635 18.3334 4.16659V7.74992C18.3334 8.21016 17.9603 8.58325 17.5001 8.58325C17.0398 8.58325 16.6667 8.21016 16.6667 7.74992V4.16659C16.6667 3.70635 17.0398 3.33325 17.5001 3.33325Z" fill="black"/>
<path fill-rule="evenodd" clip-rule="evenodd" d="M2.50008 3.33325C2.96032 3.33325 3.33342 3.70635 3.33342 4.16659L3.33341 15.8341C3.33341 15.8341 3.33341 15.8341 3.33342 15.8342C3.33342 15.8342 3.33344 15.8344 3.33347 15.8347C3.33354 15.8353 3.33374 15.8367 3.33432 15.8391C3.33543 15.8437 3.33841 15.8538 3.3462 15.8698C3.3623 15.9028 3.39824 15.9593 3.47347 16.0346C3.62879 16.1902 3.904 16.3791 4.33563 16.5713C5.19726 16.9548 6.46768 17.2569 7.97273 17.4039C8.43079 17.4486 8.76586 17.8562 8.72114 18.3142C8.67641 18.7723 8.26883 19.1074 7.81077 19.0626C6.20319 18.9057 4.74036 18.5757 3.65786 18.0939C3.11743 17.8533 2.64405 17.5629 2.29391 17.2121C1.94124 16.8588 1.66635 16.3925 1.66675 15.8329V4.16659C1.66675 3.70635 2.03984 3.33325 2.50008 3.33325Z" fill="black"/>
<path fill-rule="evenodd" clip-rule="evenodd" d="M10.0001 9.16675C10.4603 9.16675 10.8334 9.53984 10.8334 10.0001V12.5001H13.3334C13.7937 12.5001 14.1667 12.8732 14.1667 13.3334C14.1667 13.7937 13.7937 14.1667 13.3334 14.1667H10.0001C9.53984 14.1667 9.16675 13.7937 9.16675 13.3334V10.0001C9.16675 9.53984 9.53984 9.16675 10.0001 9.16675Z" fill="black"/>
<path fill-rule="evenodd" clip-rule="evenodd" d="M11.1525 11.0023C12.028 10.1268 13.2461 9.58325 14.5834 9.58325C15.799 9.58325 16.9648 10.0661 17.8243 10.9257C18.6839 11.7852 19.1667 12.951 19.1667 14.1666C19.1667 15.216 18.8366 16.2388 18.223 17.0901C17.6094 17.9415 16.7434 18.5781 15.7479 18.91C14.7523 19.2419 13.6776 19.2521 12.6759 18.9392C11.6742 18.6263 10.7964 18.0061 10.1667 17.1666C9.89061 16.7984 9.96522 16.2761 10.3334 15.9999C10.7016 15.7238 11.2239 15.7984 11.5001 16.1666C11.9198 16.7263 12.5051 17.1397 13.1729 17.3483C13.8406 17.5569 14.5571 17.5501 15.2208 17.3289C15.8845 17.1076 16.4618 16.6832 16.8709 16.1156C17.28 15.5481 17.5001 14.8662 17.5001 14.1666C17.5001 13.393 17.1928 12.6512 16.6458 12.1042C16.0988 11.5572 15.357 11.2499 14.5834 11.2499C13.7041 11.2499 12.9055 11.6064 12.331 12.1808L10.5893 13.9225C10.2639 14.2479 9.73626 14.2479 9.41083 13.9225C9.08539 13.5971 9.08539 13.0694 9.41083 12.744L11.1525 11.0023Z" fill="black"/>
</svg>
