<svg width="20" height="20" viewBox="0 0 20 20" fill="none" xmlns="http://www.w3.org/2000/svg">
<path fill-rule="evenodd" clip-rule="evenodd" d="M6.65357 3.98185C7.11351 3.5645 7.71233 3.33329 8.3334 3.33325H16.6668C17.3298 3.33325 17.9657 3.59664 18.4345 4.06548C18.9034 4.53433 19.1668 5.17021 19.1668 5.83325V14.1666C19.1668 14.8296 18.9034 15.4655 18.4345 15.9344C17.9657 16.4032 17.3298 16.6666 16.6668 16.6666H8.3334C7.71225 16.6665 7.11336 16.4353 6.6534 16.0178L1.38018 11.2338L1.94012 10.6166L1.38007 11.2337C1.20793 11.0774 1.07038 10.8869 0.976253 10.6744C0.882123 10.4618 0.833496 10.232 0.833496 9.9995C0.833496 9.76704 0.882123 9.53716 0.976253 9.32461C1.07038 9.11206 1.20793 8.92156 1.38007 8.76533L6.6534 3.982C6.65346 3.98195 6.65351 3.9819 6.65357 3.98185ZM2.50016 9.9995L7.7735 5.21617C7.9268 5.07703 8.12642 4.99994 8.33345 4.99992C8.33346 4.99992 8.33348 4.99992 8.3335 4.99992H16.6668C16.8878 4.99992 17.0998 5.08772 17.256 5.244C17.4123 5.40028 17.5001 5.61224 17.5001 5.83325V14.1666C17.5001 14.3876 17.4123 14.5996 17.256 14.7558C17.0998 14.9121 16.8878 14.9999 16.6668 14.9999H8.3335C8.33348 14.9999 8.33346 14.9999 8.33345 14.9999C8.12642 14.9999 7.9268 14.9228 7.7735 14.7837L7.21345 15.4008L7.77338 14.7836L2.50016 9.9995Z" fill="black"/>
<path fill-rule="evenodd" clip-rule="evenodd" d="M9.41083 6.91083C9.73626 6.58539 10.2639 6.58539 10.5893 6.91083L15.5893 11.9108C15.9148 12.2363 15.9148 12.7639 15.5893 13.0893C15.2639 13.4148 14.7363 13.4148 14.4108 13.0893L9.41083 8.08934C9.08539 7.7639 9.08539 7.23626 9.41083 6.91083Z" fill="black"/>
<path fill-rule="evenodd" clip-rule="evenodd" d="M15.5893 6.91083C15.9148 7.23626 15.9148 7.7639 15.5893 8.08934L10.5893 13.0893C10.2639 13.4148 9.73626 13.4148 9.41083 13.0893C9.08539 12.7639 9.08539 12.2363 9.41083 11.9108L14.4108 6.91083C14.7363 6.58539 15.2639 6.58539 15.5893 6.91083Z" fill="black"/>
</svg>
