<svg width="20" height="20" viewBox="0 0 20 20" fill="none" xmlns="http://www.w3.org/2000/svg">
<g clip-path="url(#clip0_2001_6204)">
<path fill-rule="evenodd" clip-rule="evenodd" d="M10 2.49992C9.53976 2.49992 9.16667 2.87301 9.16667 3.33325C9.16667 3.79349 9.53976 4.16659 10 4.16659C10.4602 4.16659 10.8333 3.79349 10.8333 3.33325C10.8333 2.87301 10.4602 2.49992 10 2.49992ZM7.5 3.33325C7.5 1.95254 8.61929 0.833252 10 0.833252C11.3807 0.833252 12.5 1.95254 12.5 3.33325C12.5 4.71396 11.3807 5.83325 10 5.83325C8.61929 5.83325 7.5 4.71396 7.5 3.33325Z" fill="black"/>
<path fill-rule="evenodd" clip-rule="evenodd" d="M9.32144 2.52689C9.39866 2.9806 9.09346 3.41101 8.63975 3.48824C5.12565 4.08638 2.49992 7.15425 2.49992 10.8334C2.49992 11.0544 2.58772 11.2664 2.744 11.4226C2.90028 11.5789 3.11224 11.6667 3.33325 11.6667C3.55427 11.6667 3.76623 11.5789 3.92251 11.4226C4.07879 11.2664 4.16659 11.0544 4.16659 10.8334V10.0001C4.16659 9.33701 4.42998 8.70113 4.89882 8.23229C5.36766 7.76344 6.00354 7.50005 6.66659 7.50005C7.32963 7.50005 7.96551 7.76344 8.43435 8.23229C8.90319 8.70113 9.16659 9.33701 9.16659 10.0001V13.3334C9.16659 13.5544 9.25438 13.7664 9.41066 13.9226C9.56694 14.0789 9.77891 14.1667 9.99992 14.1667C10.2209 14.1667 10.4329 14.0789 10.5892 13.9226C10.7455 13.7664 10.8333 13.5544 10.8333 13.3334V10.0001C10.8333 9.33701 11.0966 8.70113 11.5655 8.23229C12.0343 7.76344 12.6702 7.50005 13.3333 7.50005C13.9963 7.50005 14.6322 7.76344 15.101 8.23229C15.5699 8.70113 15.8333 9.33701 15.8333 10.0001V10.8334C15.8333 11.0544 15.9211 11.2664 16.0773 11.4226C16.2336 11.5789 16.4456 11.6667 16.6666 11.6667C16.8876 11.6667 17.0996 11.5789 17.2558 11.4226C17.4121 11.2664 17.4999 11.0544 17.4999 10.8334C17.4999 7.15425 14.8742 4.08638 11.3601 3.48824C10.9064 3.41101 10.6012 2.9806 10.6784 2.52689C10.7556 2.07317 11.186 1.76797 11.6398 1.8452C15.959 2.58039 19.1666 6.34585 19.1666 10.8334C19.1666 11.4964 18.9032 12.1323 18.4344 12.6012C17.9655 13.07 17.3296 13.3334 16.6666 13.3334C16.0035 13.3334 15.3677 13.07 14.8988 12.6012C14.43 12.1323 14.1666 11.4964 14.1666 10.8334V10.0001C14.1666 9.77904 14.0788 9.56708 13.9225 9.4108C13.7662 9.25452 13.5543 9.16672 13.3333 9.16672C13.1122 9.16672 12.9003 9.25452 12.744 9.4108C12.5877 9.56708 12.4999 9.77904 12.4999 10.0001V13.3334C12.4999 13.9964 12.2365 14.6323 11.7677 15.1012C11.2988 15.57 10.663 15.8334 9.99992 15.8334C9.33688 15.8334 8.70099 15.57 8.23215 15.1012C7.76331 14.6323 7.49992 13.9964 7.49992 13.3334V10.0001C7.49992 9.77904 7.41212 9.56708 7.25584 9.4108C7.09956 9.25452 6.8876 9.16672 6.66659 9.16672C6.44557 9.16672 6.23361 9.25452 6.07733 9.4108C5.92105 9.56708 5.83325 9.77904 5.83325 10.0001V10.8334C5.83325 11.4964 5.56986 12.1323 5.10102 12.6012C4.63218 13.07 3.99629 13.3334 3.33325 13.3334C2.67021 13.3334 2.03433 13.07 1.56549 12.6012C1.09664 12.1323 0.833252 11.4964 0.833252 10.8334C0.833252 6.34585 4.04085 2.58039 8.36009 1.8452C8.8138 1.76797 9.24421 2.07317 9.32144 2.52689Z" fill="black"/>
<path fill-rule="evenodd" clip-rule="evenodd" d="M2.49205 11.5184C2.94206 11.422 3.38509 11.7085 3.48157 12.1586C3.80136 13.65 4.62293 14.9867 5.80921 15.9456C6.99549 16.9045 8.47473 17.4276 10.0001 17.4276C11.5255 17.4276 13.0047 16.9045 14.191 15.9456C15.3773 14.9867 16.1988 13.65 16.5186 12.1586C16.6151 11.7085 17.0581 11.422 17.5081 11.5184C17.9581 11.6149 18.2447 12.058 18.1482 12.508C17.7485 14.3723 16.7215 16.0432 15.2387 17.2418C13.7558 18.4404 11.9068 19.0943 10.0001 19.0943C8.09339 19.0943 6.24434 18.4404 4.76149 17.2418C3.27864 16.0432 2.25167 14.3723 1.85194 12.508C1.75546 12.058 2.04204 11.6149 2.49205 11.5184Z" fill="black"/>
</g>
<defs>
<clipPath id="clip0_2001_6204">
<rect width="20" height="20" fill="white"/>
</clipPath>
</defs>
</svg>
