<svg width="20" height="20" viewBox="0 0 20 20" fill="none" xmlns="http://www.w3.org/2000/svg">
<g clip-path="url(#clip0_2001_6208)">
<path fill-rule="evenodd" clip-rule="evenodd" d="M15.8333 14.9999C15.373 14.9999 14.9999 15.373 14.9999 15.8333C14.9999 16.2935 15.373 16.6666 15.8333 16.6666C16.2935 16.6666 16.6666 16.2935 16.6666 15.8333C16.6666 15.373 16.2935 14.9999 15.8333 14.9999ZM13.3333 15.8333C13.3333 14.4525 14.4525 13.3333 15.8333 13.3333C17.214 13.3333 18.3333 14.4525 18.3333 15.8333C18.3333 17.214 17.214 18.3333 15.8333 18.3333C14.4525 18.3333 13.3333 17.214 13.3333 15.8333Z" fill="black"/>
<path fill-rule="evenodd" clip-rule="evenodd" d="M4.16675 3.33341C3.70651 3.33341 3.33341 3.70651 3.33341 4.16675C3.33341 4.62699 3.70651 5.00008 4.16675 5.00008C4.62699 5.00008 5.00008 4.62699 5.00008 4.16675C5.00008 3.70651 4.62699 3.33341 4.16675 3.33341ZM1.66675 4.16675C1.66675 2.78604 2.78604 1.66675 4.16675 1.66675C5.54746 1.66675 6.66675 2.78604 6.66675 4.16675C6.66675 5.54746 5.54746 6.66675 4.16675 6.66675C2.78604 6.66675 1.66675 5.54746 1.66675 4.16675Z" fill="black"/>
<path fill-rule="evenodd" clip-rule="evenodd" d="M10.753 2.53353C9.03128 2.36071 7.30278 2.78853 5.86046 3.74449C5.47683 3.99875 4.95972 3.89388 4.70546 3.51026C4.4512 3.12663 4.55606 2.60952 4.93969 2.35526C6.70252 1.18687 8.81514 0.66397 10.9194 0.875193C13.0237 1.08642 14.9903 2.01877 16.4857 3.51421C17.9812 5.00966 18.9135 6.9762 19.1248 9.08051C19.336 11.1848 18.8131 13.2974 17.6447 15.0603C17.3904 15.4439 16.8733 15.5488 16.4897 15.2945C16.1061 15.0402 16.0012 14.5231 16.2555 14.1395C17.2114 12.6972 17.6392 10.9687 17.4664 9.24697C17.2936 7.52526 16.5308 5.91627 15.3072 4.69273C14.0837 3.46918 12.4747 2.70635 10.753 2.53353Z" fill="black"/>
<path fill-rule="evenodd" clip-rule="evenodd" d="M4.75238 4.75238C5.07782 4.42694 5.60545 4.42694 5.93089 4.75238L15.2476 14.069C15.573 14.3945 15.573 14.9221 15.2476 15.2476C14.9221 15.573 14.3945 15.573 14.069 15.2476L4.75238 5.93089C4.42694 5.60545 4.42694 5.07782 4.75238 4.75238Z" fill="black"/>
<path fill-rule="evenodd" clip-rule="evenodd" d="M3.5105 4.70546C3.89413 4.95972 3.999 5.47683 3.74473 5.86046C2.78878 7.30278 2.36095 9.03128 2.53377 10.753C2.70659 12.4747 3.46942 14.0837 4.69297 15.3072C5.91652 16.5308 7.5255 17.2936 9.24721 17.4664C10.9689 17.6392 12.6974 17.2114 14.1397 16.2555C14.5234 16.0012 15.0405 16.1061 15.2947 16.4897C15.549 16.8733 15.4441 17.3904 15.0605 17.6447C13.2977 18.8131 11.1851 19.336 9.08075 19.1248C6.97645 18.9135 5.00991 17.9812 3.51446 16.4857C2.01901 14.9903 1.08666 13.0237 0.875438 10.9194C0.664214 8.81514 1.18711 6.70252 2.3555 4.93969C2.60977 4.55606 3.12688 4.4512 3.5105 4.70546Z" fill="black"/>
</g>
<defs>
<clipPath id="clip0_2001_6208">
<rect width="20" height="20" fill="white"/>
</clipPath>
</defs>
</svg>
