<svg width="20" height="20" viewBox="0 0 20 20" fill="none" xmlns="http://www.w3.org/2000/svg">
<g clip-path="url(#clip0_2001_6214)">
<path fill-rule="evenodd" clip-rule="evenodd" d="M5.83325 10.0001C5.83325 9.53984 6.20635 9.16675 6.66659 9.16675H13.3333C13.7935 9.16675 14.1666 9.53984 14.1666 10.0001C14.1666 10.4603 13.7935 10.8334 13.3333 10.8334H6.66659C6.20635 10.8334 5.83325 10.4603 5.83325 10.0001Z" fill="black"/>
<path fill-rule="evenodd" clip-rule="evenodd" d="M7.98574 1.66895C9.08401 0.569886 10.9081 0.569986 12.0062 1.66925L18.3306 7.99365C19.4296 9.09182 19.4299 10.916 18.3309 12.0141L12.0062 18.3388C10.908 19.4379 9.08358 19.4381 7.98544 18.3388L1.66105 12.0061L2.25 11.4165L1.66036 12.0054L1.66105 12.0061C0.561976 10.9078 0.56178 9.09179 1.66105 7.99365M18.3309 12.0141C18.3308 12.0142 18.331 12.014 18.3309 12.0141V12.0141ZM10.8271 2.84716C10.3799 2.39947 9.61178 2.39947 9.16456 2.84716L2.83926 9.17246C2.39157 9.61969 2.39127 10.3798 2.83895 10.827L2.83964 10.8277L9.16456 17.1609C9.16453 17.1609 9.16459 17.1609 9.16456 17.1609C9.6118 17.6085 10.3799 17.6086 10.8271 17.1609L17.1524 10.8356C17.6001 10.3884 17.6004 9.61999 17.1527 9.17276L10.8271 2.84716Z" fill="black"/>
</g>
<defs>
<clipPath id="clip0_2001_6214">
<rect width="20" height="20" fill="white"/>
</clipPath>
</defs>
</svg>
