<svg width="20" height="20" viewBox="0 0 20 20" fill="none" xmlns="http://www.w3.org/2000/svg">
<g clip-path="url(#clip0_2001_6217)">
<path fill-rule="evenodd" clip-rule="evenodd" d="M6.83325 7.66659C6.83325 7.20635 7.20635 6.83325 7.66659 6.83325H7.67492C8.13516 6.83325 8.50825 7.20635 8.50825 7.66659C8.50825 8.12682 8.13516 8.49992 7.67492 8.49992H7.66659C7.20635 8.49992 6.83325 8.12682 6.83325 7.66659Z" fill="black"/>
<path fill-rule="evenodd" clip-rule="evenodd" d="M12.6725 7.32733C12.9979 7.65277 12.9979 8.1804 12.6725 8.50584L8.50584 12.6725C8.1804 12.9979 7.65277 12.9979 7.32733 12.6725C7.00189 12.3471 7.00189 11.8194 7.32733 11.494L11.494 7.32733C11.8194 7.00189 12.3471 7.00189 12.6725 7.32733Z" fill="black"/>
<path fill-rule="evenodd" clip-rule="evenodd" d="M11.4165 12.3333C11.4165 11.8731 11.7896 11.5 12.2498 11.5H12.2582C12.7184 11.5 13.0915 11.8731 13.0915 12.3333C13.0915 12.7936 12.7184 13.1667 12.2582 13.1667H12.2498C11.7896 13.1667 11.4165 12.7936 11.4165 12.3333Z" fill="black"/>
<path fill-rule="evenodd" clip-rule="evenodd" d="M7.98574 1.66895C9.08401 0.569886 10.9081 0.569986 12.0062 1.66925L18.3306 7.99365C19.4296 9.09182 19.4299 10.916 18.3309 12.0141L12.0062 18.3388C10.908 19.4379 9.08358 19.4381 7.98544 18.3388L1.66105 12.0061L2.25 11.4165L1.66036 12.0054L1.66105 12.0061C0.561976 10.9078 0.56178 9.09179 1.66105 7.99365M18.3309 12.0141C18.3308 12.0142 18.331 12.014 18.3309 12.0141V12.0141ZM10.8271 2.84716C10.3799 2.39947 9.61178 2.39947 9.16456 2.84716L2.83926 9.17246C2.39157 9.61969 2.39127 10.3798 2.83895 10.827L2.83964 10.8277L9.16456 17.1609C9.16453 17.1609 9.16459 17.1609 9.16456 17.1609C9.6118 17.6085 10.3799 17.6086 10.8271 17.1609L17.1524 10.8356C17.6001 10.3884 17.6004 9.61999 17.1527 9.17276L10.8271 2.84716Z" fill="black"/>
</g>
<defs>
<clipPath id="clip0_2001_6217">
<rect width="20" height="20" fill="white"/>
</clipPath>
</defs>
</svg>
