<svg width="20" height="20" viewBox="0 0 20 20" fill="none" xmlns="http://www.w3.org/2000/svg">
<path fill-rule="evenodd" clip-rule="evenodd" d="M4.16675 3.33341C3.70651 3.33341 3.33341 3.70651 3.33341 4.16675V15.8334C3.33341 16.2937 3.70651 16.6667 4.16675 16.6667H15.8334C16.2937 16.6667 16.6667 16.2937 16.6667 15.8334V4.16675C16.6667 3.70651 16.2937 3.33341 15.8334 3.33341H4.16675ZM1.66675 4.16675C1.66675 2.78604 2.78604 1.66675 4.16675 1.66675H15.8334C17.2141 1.66675 18.3334 2.78604 18.3334 4.16675V15.8334C18.3334 17.2141 17.2141 18.3334 15.8334 18.3334H4.16675C2.78604 18.3334 1.66675 17.2141 1.66675 15.8334V4.16675Z" fill="black"/>
<path fill-rule="evenodd" clip-rule="evenodd" d="M12.5 6.66659C12.5 6.20635 12.8731 5.83325 13.3333 5.83325H13.3417C13.8019 5.83325 14.175 6.20635 14.175 6.66659C14.175 7.12682 13.8019 7.49992 13.3417 7.49992H13.3333C12.8731 7.49992 12.5 7.12682 12.5 6.66659Z" fill="black"/>
<path fill-rule="evenodd" clip-rule="evenodd" d="M5.83325 6.66659C5.83325 6.20635 6.20635 5.83325 6.66659 5.83325H6.67492C7.13516 5.83325 7.50825 6.20635 7.50825 6.66659C7.50825 7.12682 7.13516 7.49992 6.67492 7.49992H6.66659C6.20635 7.49992 5.83325 7.12682 5.83325 6.66659Z" fill="black"/>
<path fill-rule="evenodd" clip-rule="evenodd" d="M5.83325 13.3333C5.83325 12.8731 6.20635 12.5 6.66659 12.5H6.67492C7.13516 12.5 7.50825 12.8731 7.50825 13.3333C7.50825 13.7936 7.13516 14.1667 6.67492 14.1667H6.66659C6.20635 14.1667 5.83325 13.7936 5.83325 13.3333Z" fill="black"/>
<path fill-rule="evenodd" clip-rule="evenodd" d="M12.5 13.3333C12.5 12.8731 12.8731 12.5 13.3333 12.5H13.3417C13.8019 12.5 14.175 12.8731 14.175 13.3333C14.175 13.7936 13.8019 14.1667 13.3417 14.1667H13.3333C12.8731 14.1667 12.5 13.7936 12.5 13.3333Z" fill="black"/>
<path fill-rule="evenodd" clip-rule="evenodd" d="M9.16675 10.0001C9.16675 9.53984 9.53984 9.16675 10.0001 9.16675H10.0084C10.4687 9.16675 10.8417 9.53984 10.8417 10.0001C10.8417 10.4603 10.4687 10.8334 10.0084 10.8334H10.0001C9.53984 10.8334 9.16675 10.4603 9.16675 10.0001Z" fill="black"/>
</svg>
