<svg width="20" height="20" viewBox="0 0 20 20" fill="none" xmlns="http://www.w3.org/2000/svg">
<path fill-rule="evenodd" clip-rule="evenodd" d="M4.16675 3.33341C3.70651 3.33341 3.33341 3.70651 3.33341 4.16675V15.8334C3.33341 16.2937 3.70651 16.6667 4.16675 16.6667H15.8334C16.2937 16.6667 16.6667 16.2937 16.6667 15.8334V4.16675C16.6667 3.70651 16.2937 3.33341 15.8334 3.33341H4.16675ZM1.66675 4.16675C1.66675 2.78604 2.78604 1.66675 4.16675 1.66675H15.8334C17.2141 1.66675 18.3334 2.78604 18.3334 4.16675V15.8334C18.3334 17.2141 17.2141 18.3334 15.8334 18.3334H4.16675C2.78604 18.3334 1.66675 17.2141 1.66675 15.8334V4.16675Z" fill="black"/>
<path fill-rule="evenodd" clip-rule="evenodd" d="M11.6667 7.50008C11.6667 7.03984 12.0398 6.66675 12.5001 6.66675H12.5084C12.9687 6.66675 13.3417 7.03984 13.3417 7.50008C13.3417 7.96032 12.9687 8.33341 12.5084 8.33341H12.5001C12.0398 8.33341 11.6667 7.96032 11.6667 7.50008Z" fill="black"/>
<path fill-rule="evenodd" clip-rule="evenodd" d="M6.66675 12.5001C6.66675 12.0398 7.03984 11.6667 7.50008 11.6667H7.50841C7.96865 11.6667 8.34175 12.0398 8.34175 12.5001C8.34175 12.9603 7.96865 13.3334 7.50841 13.3334H7.50008C7.03984 13.3334 6.66675 12.9603 6.66675 12.5001Z" fill="black"/>
</svg>
