<svg width="20" height="20" viewBox="0 0 20 20" fill="none" xmlns="http://www.w3.org/2000/svg">
<g clip-path="url(#clip0_2001_6261)">
<path fill-rule="evenodd" clip-rule="evenodd" d="M3.33325 9.16667C2.87301 9.16667 2.49992 9.53976 2.49992 10V16.6667C2.49992 17.1269 2.87301 17.5 3.33325 17.5H9.99992C10.4602 17.5 10.8333 17.1269 10.8333 16.6667V10C10.8333 9.53976 10.4602 9.16667 9.99992 9.16667H3.33325ZM0.833252 10C0.833252 8.61929 1.95254 7.5 3.33325 7.5H9.99992C11.3806 7.5 12.4999 8.61929 12.4999 10V16.6667C12.4999 18.0474 11.3806 19.1667 9.99992 19.1667H3.33325C1.95254 19.1667 0.833252 18.0474 0.833252 16.6667V10Z" fill="black"/>
<path fill-rule="evenodd" clip-rule="evenodd" d="M10.6253 1.53118C11.1213 1.08395 11.7655 0.836426 12.4333 0.836426C13.1012 0.836426 13.7454 1.08395 14.2414 1.53118C14.2504 1.53929 14.2592 1.5476 14.2678 1.5561L18.4345 5.6561C18.4463 5.66773 18.4578 5.67972 18.4689 5.69205C18.9161 6.18806 19.1637 6.83222 19.1637 7.50008C19.1637 8.16795 18.9161 8.81211 18.4689 9.30812C18.4593 9.31878 18.4494 9.32919 18.4393 9.33934L15.5226 12.256C15.1972 12.5814 14.6695 12.5814 14.3441 12.256C14.0186 11.9306 14.0186 11.4029 14.3441 11.0775L17.2433 8.17829C17.4067 7.99038 17.497 7.74955 17.497 7.50008C17.497 7.25157 17.4074 7.01164 17.2452 6.82405L13.1137 2.75869C12.9255 2.59403 12.6838 2.50309 12.4333 2.50309C12.1839 2.50309 11.943 2.59333 11.7551 2.7568L8.92259 5.58934C8.59715 5.91478 8.06951 5.91478 7.74408 5.58934C7.41864 5.2639 7.41864 4.73626 7.74408 4.41083L10.5941 1.56083C10.6042 1.55068 10.6146 1.54079 10.6253 1.53118Z" fill="black"/>
<path fill-rule="evenodd" clip-rule="evenodd" d="M4.16675 15.0001C4.16675 14.5398 4.53984 14.1667 5.00008 14.1667H5.00841C5.46865 14.1667 5.84175 14.5398 5.84175 15.0001C5.84175 15.4603 5.46865 15.8334 5.00841 15.8334H5.00008C4.53984 15.8334 4.16675 15.4603 4.16675 15.0001Z" fill="black"/>
<path fill-rule="evenodd" clip-rule="evenodd" d="M7.5 11.6666C7.5 11.2063 7.8731 10.8333 8.33333 10.8333H8.34167C8.8019 10.8333 9.175 11.2063 9.175 11.6666C9.175 12.1268 8.8019 12.4999 8.34167 12.4999H8.33333C7.8731 12.4999 7.5 12.1268 7.5 11.6666Z" fill="black"/>
<path fill-rule="evenodd" clip-rule="evenodd" d="M11.6667 5.00008C11.6667 4.53984 12.0398 4.16675 12.5001 4.16675H12.5084C12.9687 4.16675 13.3417 4.53984 13.3417 5.00008C13.3417 5.46032 12.9687 5.83341 12.5084 5.83341H12.5001C12.0398 5.83341 11.6667 5.46032 11.6667 5.00008Z" fill="black"/>
<path fill-rule="evenodd" clip-rule="evenodd" d="M14.1667 7.50008C14.1667 7.03984 14.5398 6.66675 15.0001 6.66675H15.0084C15.4687 6.66675 15.8417 7.03984 15.8417 7.50008C15.8417 7.96032 15.4687 8.33341 15.0084 8.33341H15.0001C14.5398 8.33341 14.1667 7.96032 14.1667 7.50008Z" fill="black"/>
</g>
<defs>
<clipPath id="clip0_2001_6261">
<rect width="20" height="20" fill="white"/>
</clipPath>
</defs>
</svg>
