<svg width="20" height="20" viewBox="0 0 20 20" fill="none" xmlns="http://www.w3.org/2000/svg">
<path fill-rule="evenodd" clip-rule="evenodd" d="M10.0001 1.66675C10.4603 1.66675 10.8334 2.03984 10.8334 2.50008V14.1667C10.8334 14.627 10.4603 15.0001 10.0001 15.0001C9.53984 15.0001 9.16675 14.627 9.16675 14.1667V2.50008C9.16675 2.03984 9.53984 1.66675 10.0001 1.66675Z" fill="black"/>
<path fill-rule="evenodd" clip-rule="evenodd" d="M3.33325 8.33333C3.33325 7.8731 3.70635 7.5 4.16659 7.5H15.8333C16.2935 7.5 16.6666 7.8731 16.6666 8.33333C16.6666 8.79357 16.2935 9.16667 15.8333 9.16667H4.16659C3.70635 9.16667 3.33325 8.79357 3.33325 8.33333Z" fill="black"/>
<path fill-rule="evenodd" clip-rule="evenodd" d="M3.33325 17.5001C3.33325 17.0398 3.70635 16.6667 4.16659 16.6667H15.8333C16.2935 16.6667 16.6666 17.0398 16.6666 17.5001C16.6666 17.9603 16.2935 18.3334 15.8333 18.3334H4.16659C3.70635 18.3334 3.33325 17.9603 3.33325 17.5001Z" fill="black"/>
</svg>
