<svg width="20" height="20" viewBox="0 0 20 20" fill="none" xmlns="http://www.w3.org/2000/svg">
<g clip-path="url(#clip0_2001_6276)">
<path fill-rule="evenodd" clip-rule="evenodd" d="M9.99992 2.49992C5.85778 2.49992 2.49992 5.85778 2.49992 9.99992C2.49992 14.1421 5.85778 17.4999 9.99992 17.4999C14.1421 17.4999 17.4999 14.1421 17.4999 9.99992C17.4999 5.85778 14.1421 2.49992 9.99992 2.49992ZM0.833252 9.99992C0.833252 4.93731 4.93731 0.833252 9.99992 0.833252C15.0625 0.833252 19.1666 4.93731 19.1666 9.99992C19.1666 15.0625 15.0625 19.1666 9.99992 19.1666C4.93731 19.1666 0.833252 15.0625 0.833252 9.99992Z" fill="black"/>
<path fill-rule="evenodd" clip-rule="evenodd" d="M7.1167 5.93953C7.42629 6.28007 7.40119 6.80711 7.06064 7.1167C6.32053 7.78953 5.83341 8.81435 5.83341 10.0001C5.83341 10.4603 5.46032 10.8334 5.00008 10.8334C4.53984 10.8334 4.16675 10.4603 4.16675 10.0001C4.16675 8.35249 4.84629 6.87731 5.93952 5.88347C6.28007 5.57388 6.80711 5.59898 7.1167 5.93953Z" fill="black"/>
<path fill-rule="evenodd" clip-rule="evenodd" d="M10 9.16667C9.53976 9.16667 9.16667 9.53976 9.16667 10C9.16667 10.4602 9.53976 10.8333 10 10.8333C10.4602 10.8333 10.8333 10.4602 10.8333 10C10.8333 9.53976 10.4602 9.16667 10 9.16667ZM7.5 10C7.5 8.61929 8.61929 7.5 10 7.5C11.3807 7.5 12.5 8.61929 12.5 10C12.5 11.3807 11.3807 12.5 10 12.5C8.61929 12.5 7.5 11.3807 7.5 10Z" fill="black"/>
<path fill-rule="evenodd" clip-rule="evenodd" d="M15.0001 9.16675C15.4603 9.16675 15.8334 9.53984 15.8334 10.0001C15.8334 11.6477 15.1539 13.1229 14.0606 14.1167C13.7201 14.4263 13.1931 14.4012 12.8835 14.0606C12.5739 13.7201 12.599 13.1931 12.9395 12.8835C13.6796 12.2106 14.1668 11.1858 14.1668 10.0001C14.1668 9.53984 14.5398 9.16675 15.0001 9.16675Z" fill="black"/>
</g>
<defs>
<clipPath id="clip0_2001_6276">
<rect width="20" height="20" fill="white"/>
</clipPath>
</defs>
</svg>
