<svg width="20" height="20" viewBox="0 0 20 20" fill="none" xmlns="http://www.w3.org/2000/svg">
<g clip-path="url(#clip0_2001_6272)">
<path fill-rule="evenodd" clip-rule="evenodd" d="M9.99992 2.49992C5.85778 2.49992 2.49992 5.85778 2.49992 9.99992C2.49992 14.1421 5.85778 17.4999 9.99992 17.4999C14.1421 17.4999 17.4999 14.1421 17.4999 9.99992C17.4999 5.85778 14.1421 2.49992 9.99992 2.49992ZM0.833252 9.99992C0.833252 4.93731 4.93731 0.833252 9.99992 0.833252C15.0625 0.833252 19.1666 4.93731 19.1666 9.99992C19.1666 15.0625 15.0625 19.1666 9.99992 19.1666C4.93731 19.1666 0.833252 15.0625 0.833252 9.99992Z" fill="black"/>
<path fill-rule="evenodd" clip-rule="evenodd" d="M9.99992 7.49992C8.61921 7.49992 7.49992 8.61921 7.49992 9.99992C7.49992 11.3806 8.61921 12.4999 9.99992 12.4999C11.3806 12.4999 12.4999 11.3806 12.4999 9.99992C12.4999 8.61921 11.3806 7.49992 9.99992 7.49992ZM5.83325 9.99992C5.83325 7.69873 7.69873 5.83325 9.99992 5.83325C12.3011 5.83325 14.1666 7.69873 14.1666 9.99992C14.1666 12.3011 12.3011 14.1666 9.99992 14.1666C7.69873 14.1666 5.83325 12.3011 5.83325 9.99992Z" fill="black"/>
<path fill-rule="evenodd" clip-rule="evenodd" d="M9.16675 10.0001C9.16675 9.53984 9.53984 9.16675 10.0001 9.16675H10.0084C10.4687 9.16675 10.8417 9.53984 10.8417 10.0001C10.8417 10.4603 10.4687 10.8334 10.0084 10.8334H10.0001C9.53984 10.8334 9.16675 10.4603 9.16675 10.0001Z" fill="black"/>
</g>
<defs>
<clipPath id="clip0_2001_6272">
<rect width="20" height="20" fill="white"/>
</clipPath>
</defs>
</svg>
