<svg width="20" height="20" viewBox="0 0 20 20" fill="none" xmlns="http://www.w3.org/2000/svg">
<path fill-rule="evenodd" clip-rule="evenodd" d="M8.33325 4.99992C8.33325 4.07944 9.07944 3.33325 9.99992 3.33325C10.9204 3.33325 11.6666 4.07944 11.6666 4.99992C11.6666 5.92039 10.9204 6.66658 9.99992 6.66658C9.07944 6.66658 8.33325 5.92039 8.33325 4.99992Z" fill="black"/>
<path fill-rule="evenodd" clip-rule="evenodd" d="M3.33325 10.0001C3.33325 9.53984 3.70635 9.16675 4.16659 9.16675H15.8333C16.2935 9.16675 16.6666 9.53984 16.6666 10.0001C16.6666 10.4603 16.2935 10.8334 15.8333 10.8334H4.16659C3.70635 10.8334 3.33325 10.4603 3.33325 10.0001Z" fill="black"/>
<path fill-rule="evenodd" clip-rule="evenodd" d="M8.33325 14.9999C8.33325 14.0794 9.07944 13.3333 9.99992 13.3333C10.9204 13.3333 11.6666 14.0794 11.6666 14.9999C11.6666 15.9204 10.9204 16.6666 9.99992 16.6666C9.07944 16.6666 8.33325 15.9204 8.33325 14.9999Z" fill="black"/>
</svg>
