<svg width="20" height="20" viewBox="0 0 20 20" fill="none" xmlns="http://www.w3.org/2000/svg">
<g clip-path="url(#clip0_2001_6292)">
<path fill-rule="evenodd" clip-rule="evenodd" d="M13.0574 1.04718C13.3995 1.35506 13.4272 1.88197 13.1193 2.22406C12.2235 3.2194 11.686 4.20205 11.3586 5.18005L12.2559 6.07734C12.5813 6.40277 12.5813 6.93041 12.2559 7.25585C11.9304 7.58128 11.4028 7.58128 11.0773 7.25585L9.82735 6.00585C9.61603 5.79453 9.53405 5.48624 9.61249 5.19787C9.98556 3.82629 10.6654 2.45924 11.8805 1.10912C12.1884 0.76703 12.7153 0.739298 13.0574 1.04718Z" fill="black"/>
<path fill-rule="evenodd" clip-rule="evenodd" d="M11.1681 2.00165C11.4936 1.67621 12.0212 1.67621 12.3467 2.00165L14.7558 4.41081C15.0813 4.73625 15.0813 5.26389 14.7558 5.58932C14.4304 5.91476 13.9028 5.91476 13.5773 5.58932L11.1681 3.18016C10.8427 2.85472 10.8427 2.32708 11.1681 2.00165Z" fill="black"/>
<path fill-rule="evenodd" clip-rule="evenodd" d="M9.99993 10.8334C7.22359 10.8334 4.74487 10.8505 2.22409 13.1195C1.88202 13.4274 1.35511 13.3997 1.04721 13.0576C0.739309 12.7155 0.767015 12.1886 1.10909 11.8807C4.12454 9.16653 7.18317 9.16664 9.94831 9.16675L9.99993 9.16675C10.4602 9.16675 10.8333 9.53985 10.8333 10.0001C10.8333 10.4603 10.4602 10.8334 9.99993 10.8334Z" fill="black"/>
<path fill-rule="evenodd" clip-rule="evenodd" d="M1.07733 1.07733C1.40277 0.751893 1.9304 0.751893 2.25584 1.07733L18.9225 17.744C19.2479 18.0694 19.2479 18.5971 18.9225 18.9225C18.5971 19.2479 18.0694 19.2479 17.744 18.9225L1.07733 2.25584C0.751893 1.9304 0.751893 1.40277 1.07733 1.07733Z" fill="black"/>
<path fill-rule="evenodd" clip-rule="evenodd" d="M16.0773 6.91083C16.4028 6.58539 16.9304 6.58539 17.2558 6.91083L17.9983 7.65333C18.3238 7.97876 18.3238 8.5064 17.9983 8.83184C17.6729 9.15727 17.1453 9.15727 16.8198 8.83184L16.0773 8.08934C15.7519 7.7639 15.7519 7.23626 16.0773 6.91083Z" fill="black"/>
<path fill-rule="evenodd" clip-rule="evenodd" d="M18.9528 6.94262C19.2607 7.28471 19.233 7.81162 18.8909 8.1195C17.5408 9.3346 16.1737 10.0145 14.8021 10.3875C14.5138 10.466 14.2055 10.384 13.9942 10.1727L13.1608 9.33934C12.8354 9.01391 12.8354 8.48627 13.1608 8.16083C13.4863 7.8354 14.0139 7.8354 14.3393 8.16083L14.82 8.64145C15.798 8.31407 16.7806 7.77648 17.7759 6.88068C18.118 6.57279 18.6449 6.60053 18.9528 6.94262Z" fill="black"/>
<path fill-rule="evenodd" clip-rule="evenodd" d="M2.00165 11.1682C2.32708 10.8427 2.85472 10.8427 3.18016 11.1681L3.92266 11.9106C4.24809 12.2361 4.24809 12.7637 3.92266 13.0892C3.59722 13.4146 3.06958 13.4146 2.74415 13.0892L2.00165 12.3467C1.67621 12.0212 1.67621 11.4936 2.00165 11.1682Z" fill="black"/>
<path fill-rule="evenodd" clip-rule="evenodd" d="M4.82733 9.82733C5.15277 9.50189 5.6804 9.50189 6.00584 9.82733L6.83917 10.6607C7.16461 10.9861 7.16461 11.5137 6.83917 11.8392C6.51374 12.1646 5.9861 12.1646 5.66066 11.8392L4.82733 11.0058C4.50189 10.6804 4.50189 10.1528 4.82733 9.82733Z" fill="black"/>
<path fill-rule="evenodd" clip-rule="evenodd" d="M5.24408 14.4108C5.56951 14.0854 6.09715 14.0854 6.42259 14.4108L8.83176 16.82C9.15719 17.1454 9.15719 17.6731 8.83176 17.9985C8.50632 18.3239 7.97868 18.3239 7.65324 17.9985L5.24408 15.5893C4.91864 15.2639 4.91864 14.7363 5.24408 14.4108Z" fill="black"/>
<path fill-rule="evenodd" clip-rule="evenodd" d="M7.74417 12.7441C8.0696 12.4186 8.59724 12.4186 8.92268 12.7441L10.1727 13.9941C10.384 14.2054 10.466 14.5137 10.3875 14.8021C10.0145 16.1736 9.3346 17.5407 8.1195 18.8908C7.81162 19.2329 7.28471 19.2606 6.94262 18.9527C6.60053 18.6449 6.57279 18.118 6.88068 17.7759C7.77648 16.7805 8.31407 15.7979 8.64145 14.8199L7.74417 13.9226C7.41873 13.5972 7.41873 13.0695 7.74417 12.7441Z" fill="black"/>
</g>
<defs>
<clipPath id="clip0_2001_6292">
<rect width="20" height="20" fill="white"/>
</clipPath>
</defs>
</svg>
