<svg width="20" height="20" viewBox="0 0 20 20" fill="none" xmlns="http://www.w3.org/2000/svg">
<g clip-path="url(#clip0_2001_6303)">
<path fill-rule="evenodd" clip-rule="evenodd" d="M7.74408 12.7441C8.06951 12.4186 8.59715 12.4186 8.92259 12.7441L10.1726 13.9941C10.498 14.3195 10.498 14.8472 10.1726 15.1726C9.84715 15.498 9.31951 15.498 8.99408 15.1726L7.74408 13.9226C7.41864 13.5972 7.41864 13.0695 7.74408 12.7441Z" fill="black"/>
<path fill-rule="evenodd" clip-rule="evenodd" d="M9.82733 4.82733C10.1528 4.50189 10.6804 4.50189 11.0058 4.82733L12.2558 6.07733C12.5813 6.40277 12.5813 6.9304 12.2558 7.25584C11.9304 7.58128 11.4028 7.58128 11.0773 7.25584L9.82733 6.00584C9.50189 5.6804 9.50189 5.15277 9.82733 4.82733Z" fill="black"/>
<path fill-rule="evenodd" clip-rule="evenodd" d="M13.0574 1.04715C13.3995 1.35501 13.4273 1.88192 13.1194 2.22403C11.7482 3.7478 11.2067 5.25138 10.9856 6.78006C10.9197 7.23555 10.497 7.55139 10.0415 7.48551C9.58604 7.41962 9.2702 6.99696 9.33608 6.54146C9.59664 4.74014 10.2551 2.91538 11.8806 1.10916C12.1884 0.767047 12.7153 0.739286 13.0574 1.04715Z" fill="black"/>
<path fill-rule="evenodd" clip-rule="evenodd" d="M13.1608 8.16083C13.4863 7.83539 14.0139 7.83539 14.3393 8.16083L15.1727 8.99416C15.4981 9.3196 15.4981 9.84723 15.1727 10.1727C14.8472 10.4981 14.3196 10.4981 13.9942 10.1727L13.1608 9.33934C12.8354 9.0139 12.8354 8.48626 13.1608 8.16083Z" fill="black"/>
<path fill-rule="evenodd" clip-rule="evenodd" d="M11.1681 2.00165C11.4936 1.67621 12.0212 1.67621 12.3467 2.00165L14.7558 4.41081C15.0813 4.73625 15.0813 5.26389 14.7558 5.58932C14.4304 5.91476 13.9028 5.91476 13.5773 5.58932L11.1681 3.18016C10.8427 2.85472 10.8427 2.32708 11.1681 2.00165Z" fill="black"/>
<path fill-rule="evenodd" clip-rule="evenodd" d="M18.9527 6.94263C19.2606 7.28473 19.2328 7.81164 18.8907 8.11951C15.8749 10.8336 12.8169 10.8335 10.0515 10.8334L9.99993 10.8334C7.22344 10.8334 4.74527 10.8505 2.22405 13.1195C1.88195 13.4274 1.35504 13.3996 1.04717 13.0575C0.739293 12.7154 0.767038 12.1885 1.10914 11.8807C4.12499 9.16653 7.18296 9.16665 9.94837 9.16675L9.99993 9.16675C12.7764 9.16675 15.2546 9.14965 17.7758 6.88066C18.1179 6.57279 18.6448 6.60053 18.9527 6.94263Z" fill="black"/>
<path fill-rule="evenodd" clip-rule="evenodd" d="M16.0773 6.91083C16.4028 6.58539 16.9304 6.58539 17.2558 6.91083L17.9983 7.65333C18.3238 7.97876 18.3238 8.5064 17.9983 8.83184C17.6729 9.15727 17.1453 9.15727 16.8198 8.83184L16.0773 8.08934C15.7519 7.7639 15.7519 7.23626 16.0773 6.91083Z" fill="black"/>
<path fill-rule="evenodd" clip-rule="evenodd" d="M2.00165 11.1682C2.32708 10.8427 2.85472 10.8427 3.18016 11.1681L3.92266 11.9106C4.24809 12.2361 4.24809 12.7637 3.92266 13.0892C3.59722 13.4146 3.06958 13.4146 2.74415 13.0892L2.00165 12.3467C1.67621 12.0212 1.67621 11.4936 2.00165 11.1682Z" fill="black"/>
<path fill-rule="evenodd" clip-rule="evenodd" d="M4.82733 9.82733C5.15277 9.50189 5.6804 9.50189 6.00584 9.82733L6.83917 10.6607C7.16461 10.9861 7.16461 11.5137 6.83917 11.8392C6.51374 12.1646 5.9861 12.1646 5.66066 11.8392L4.82733 11.0058C4.50189 10.6804 4.50189 10.1528 4.82733 9.82733Z" fill="black"/>
<path fill-rule="evenodd" clip-rule="evenodd" d="M5.24408 14.4108C5.56951 14.0854 6.09715 14.0854 6.42259 14.4108L8.83176 16.82C9.15719 17.1454 9.15719 17.6731 8.83176 17.9985C8.50632 18.3239 7.97868 18.3239 7.65324 17.9985L5.24408 15.5893C4.91864 15.2639 4.91864 14.7363 5.24408 14.4108Z" fill="black"/>
<path fill-rule="evenodd" clip-rule="evenodd" d="M9.95855 12.5143C10.414 12.5802 10.7299 13.0029 10.664 13.4584C10.4035 15.2597 9.74495 17.0844 8.11953 18.8907C7.81167 19.2328 7.28476 19.2605 6.94265 18.9527C6.60054 18.6448 6.57278 18.1179 6.88065 17.7758C8.25189 16.252 8.79339 14.7484 9.0145 13.2198C9.08039 12.7643 9.50305 12.4484 9.95855 12.5143Z" fill="black"/>
</g>
<defs>
<clipPath id="clip0_2001_6303">
<rect width="20" height="20" fill="white"/>
</clipPath>
</defs>
</svg>
