<svg width="20" height="20" viewBox="0 0 20 20" fill="none" xmlns="http://www.w3.org/2000/svg">
<path fill-rule="evenodd" clip-rule="evenodd" d="M0.833252 6.66659C0.833252 6.20635 1.20635 5.83325 1.66659 5.83325H18.3333C18.7935 5.83325 19.1666 6.20635 19.1666 6.66659C19.1666 7.12682 18.7935 7.49992 18.3333 7.49992H1.66659C1.20635 7.49992 0.833252 7.12682 0.833252 6.66659Z" fill="black"/>
<path fill-rule="evenodd" clip-rule="evenodd" d="M3.33325 4.16667C2.87301 4.16667 2.49992 4.53976 2.49992 5V15C2.49992 15.4602 2.87301 15.8333 3.33325 15.8333H16.6666C17.1268 15.8333 17.4999 15.4602 17.4999 15V5C17.4999 4.53976 17.1268 4.16667 16.6666 4.16667H3.33325ZM0.833252 5C0.833252 3.61929 1.95254 2.5 3.33325 2.5H16.6666C18.0473 2.5 19.1666 3.61929 19.1666 5V15C19.1666 16.3807 18.0473 17.5 16.6666 17.5H3.33325C1.95254 17.5 0.833252 16.3807 0.833252 15V5Z" fill="black"/>
<path fill-rule="evenodd" clip-rule="evenodd" d="M4.16675 13.3333C4.16675 12.8731 4.53984 12.5 5.00008 12.5H15.0001C15.4603 12.5 15.8334 12.8731 15.8334 13.3333C15.8334 13.7936 15.4603 14.1667 15.0001 14.1667H5.00008C4.53984 14.1667 4.16675 13.7936 4.16675 13.3333Z" fill="black"/>
</svg>
