<svg width="20" height="20" viewBox="0 0 20 20" fill="none" xmlns="http://www.w3.org/2000/svg">
<path fill-rule="evenodd" clip-rule="evenodd" d="M8.60521 13.2227C8.73419 12.9113 9.03805 12.7083 9.37511 12.7083H10.6251C10.9622 12.7083 11.266 12.9113 11.395 13.2227C11.524 13.5341 11.4527 13.8925 11.2144 14.1308L10.5894 14.7558C10.2639 15.0813 9.73629 15.0813 9.41085 14.7558L8.78585 14.1308C8.54752 13.8925 8.47622 13.5341 8.60521 13.2227Z" fill="black"/>
<path fill-rule="evenodd" clip-rule="evenodd" d="M13.3333 10.8333C13.7936 10.8333 14.1667 11.2063 14.1667 11.6666V12.0833C14.1667 12.5435 13.7936 12.9166 13.3333 12.9166C12.8731 12.9166 12.5 12.5435 12.5 12.0833V11.6666C12.5 11.2063 12.8731 10.8333 13.3333 10.8333Z" fill="black"/>
<path fill-rule="evenodd" clip-rule="evenodd" d="M16.0165 8.57415C16.4573 8.44196 16.9219 8.69217 17.0541 9.13301C17.3453 10.1042 17.4955 11.1122 17.5 12.1262C17.5 12.1274 17.5 12.1286 17.5 12.1299C17.5 14.1372 16.6249 15.7235 15.215 16.7845C13.8292 17.8274 11.9724 18.3332 10 18.3332C8.02766 18.3332 6.17081 17.8274 4.78496 16.7845C3.37519 15.7236 2.50012 14.1374 2.5 12.1303C2.49913 11.1294 2.62569 10.1324 2.87662 9.16346C2.992 8.71792 3.44671 8.45027 3.89225 8.56565C4.33779 8.68103 4.60544 9.13575 4.49006 9.58129C4.27457 10.4134 4.1659 11.2696 4.16667 12.1291L4.16667 12.1299C4.16667 13.5992 4.78408 14.6979 5.78713 15.4528C6.8142 16.2257 8.29068 16.6665 10 16.6665C11.7093 16.6665 13.1858 16.2257 14.2129 15.4528C15.2155 14.6982 15.8328 13.6001 15.8333 12.1317C15.8294 11.2781 15.7028 10.4294 15.4576 9.61173C15.3254 9.17089 15.5756 8.70635 16.0165 8.57415Z" fill="black"/>
<path fill-rule="evenodd" clip-rule="evenodd" d="M6.66659 10.8333C7.12682 10.8333 7.49992 11.2063 7.49992 11.6666V12.0833C7.49992 12.5435 7.12682 12.9166 6.66659 12.9166C6.20635 12.9166 5.83325 12.5435 5.83325 12.0833V11.6666C5.83325 11.2063 6.20635 10.8333 6.66659 10.8333Z" fill="black"/>
<path fill-rule="evenodd" clip-rule="evenodd" d="M7.09347 3.6008C6.70942 3.35797 6.15673 3.2212 5.55383 3.32184L5.55348 3.3219C5.22522 3.37655 4.87787 3.58924 4.52211 4.00322C4.1678 4.41552 3.85616 4.9703 3.60023 5.57679C3.34639 6.17834 3.16159 6.79671 3.04677 7.30947C2.98946 7.56544 2.95132 7.78739 2.93028 7.96102C2.91985 8.04713 2.91424 8.11637 2.91204 8.16864C2.9174 8.17411 2.92356 8.18016 2.93062 8.18676C3.00399 8.25543 3.13527 8.34425 3.3248 8.41643C3.6972 8.55827 4.23269 8.61228 4.83783 8.38609C4.83792 8.38606 4.83802 8.38602 4.83811 8.38599C5.59398 8.10296 6.03605 7.52052 6.30065 6.79699C6.45873 6.36475 6.93727 6.1425 7.36951 6.30058C7.80175 6.45865 8.024 6.9372 7.86593 7.36944C7.49056 8.39582 6.76772 9.44332 5.42209 9.947L5.42181 9.9471C4.4179 10.3225 3.4635 10.2527 2.73158 9.97395C2.36892 9.83583 2.04442 9.64011 1.79172 9.4036C1.55643 9.18338 1.30345 8.85051 1.2553 8.42744L1.25529 8.42734C1.21444 8.06797 1.29557 7.50272 1.42038 6.94529C1.55416 6.34784 1.76749 5.63309 2.06469 4.92881C2.3598 4.22946 2.75212 3.5057 3.25807 2.91695C3.7625 2.32997 4.43159 1.81918 5.27942 1.67792C5.27952 1.6779 5.27963 1.67789 5.27973 1.67787M5.27977 1.67786C6.27924 1.51111 7.24767 1.72643 7.98416 2.19209C8.44278 2.48206 8.84369 2.8946 9.07702 3.39683C9.73654 3.31041 10.405 3.31735 11.0625 3.41744C11.3099 2.90859 11.7313 2.4944 12.1956 2.20604C12.9472 1.7392 13.9362 1.50996 14.9426 1.67786C14.9427 1.67788 14.9428 1.67789 14.9429 1.67791C14.943 1.67791 14.943 1.67792 14.943 1.67792C15.7908 1.81918 16.4599 2.32997 16.9643 2.91695C17.4703 3.5057 17.8626 4.22946 18.1577 4.92881C18.4549 5.63309 18.6683 6.34784 18.802 6.94529C18.9269 7.50272 19.008 8.06797 18.9671 8.42734L18.9671 8.42744C18.919 8.85051 18.666 9.18338 18.4307 9.4036C18.178 9.64011 17.8535 9.83583 17.4908 9.97395C16.7589 10.2527 15.8045 10.3225 14.8006 9.9471L14.8003 9.947C13.4215 9.4309 12.802 8.34841 12.444 7.36944C12.2859 6.9372 12.5082 6.45865 12.9404 6.30058C13.3726 6.1425 13.8512 6.36475 14.0093 6.79699C14.2912 7.56792 14.6616 8.11538 15.3843 8.38599C15.3844 8.38601 15.3844 8.38603 15.3845 8.38605C15.3845 8.38606 15.3845 8.38608 15.3846 8.38609C15.9897 8.61228 16.5252 8.55827 16.8976 8.41643C17.0871 8.34425 17.2184 8.25543 17.2918 8.18676C17.2989 8.18016 17.305 8.17411 17.3104 8.16864C17.3082 8.11637 17.3026 8.04713 17.2921 7.96102C17.2711 7.78739 17.233 7.56544 17.1756 7.30947C17.0608 6.79671 16.876 6.17834 16.6222 5.57679C16.3663 4.9703 16.0546 4.41552 15.7003 4.00322C15.3445 3.58924 14.9972 3.37655 14.6689 3.3219L14.6686 3.32184C14.0726 3.22236 13.4922 3.3627 13.075 3.62185C12.6408 3.89147 12.5 4.20232 12.5 4.39738C12.5 4.65773 12.3783 4.90313 12.171 5.06072C11.9638 5.21831 11.6948 5.26998 11.4439 5.2004C10.5358 4.94855 9.57766 4.93809 8.66426 5.17007C8.41501 5.23337 8.1505 5.17806 7.94751 5.02017C7.74452 4.86229 7.62579 4.61954 7.62579 4.36238C7.62579 4.14796 7.48753 3.84995 7.09347 3.6008M17.3422 8.13066C17.3423 8.13069 17.3414 8.13231 17.3392 8.13549C17.3409 8.13223 17.3421 8.13064 17.3422 8.13066ZM2.88023 8.13066C2.88035 8.13065 2.88148 8.13223 2.88326 8.13549C2.88101 8.13231 2.88012 8.13068 2.88023 8.13066Z" fill="black"/>
</svg>
