<svg width="20" height="20" viewBox="0 0 20 20" fill="none" xmlns="http://www.w3.org/2000/svg">
<path fill-rule="evenodd" clip-rule="evenodd" d="M10.0001 0.833252C10.4603 0.833252 10.8334 1.20635 10.8334 1.66659V18.3333C10.8334 18.7935 10.4603 19.1666 10.0001 19.1666C9.53984 19.1666 9.16675 18.7935 9.16675 18.3333V1.66659C9.16675 1.20635 9.53984 0.833252 10.0001 0.833252Z" fill="black"/>
<path fill-rule="evenodd" clip-rule="evenodd" d="M5.2651 4.4316C5.96836 3.72834 6.92219 3.33325 7.91675 3.33325H14.1667C14.627 3.33325 15.0001 3.70635 15.0001 4.16659C15.0001 4.62682 14.627 4.99992 14.1667 4.99992H7.91675C7.36421 4.99992 6.83431 5.21941 6.44361 5.61011C6.05291 6.00081 5.83341 6.53072 5.83341 7.08325C5.83341 7.63579 6.05291 8.16569 6.44361 8.55639C6.83431 8.94709 7.36421 9.16658 7.91675 9.16658H12.0834C13.078 9.16658 14.0318 9.56167 14.7351 10.2649C15.4383 10.9682 15.8334 11.922 15.8334 12.9166C15.8334 13.9111 15.4383 14.865 14.7351 15.5682C14.0318 16.2715 13.078 16.6666 12.0834 16.6666H5.00008C4.53984 16.6666 4.16675 16.2935 4.16675 15.8333C4.16675 15.373 4.53984 14.9999 5.00008 14.9999H12.0834C12.636 14.9999 13.1659 14.7804 13.5566 14.3897C13.9473 13.999 14.1667 13.4691 14.1667 12.9166C14.1667 12.364 13.9473 11.8341 13.5566 11.4434C13.1659 11.0527 12.636 10.8333 12.0834 10.8333H7.91675C6.92219 10.8333 5.96836 10.4382 5.2651 9.7349C4.56184 9.03164 4.16675 8.07781 4.16675 7.08325C4.16675 6.08869 4.56184 5.13486 5.2651 4.4316Z" fill="black"/>
</svg>
