<svg width="20" height="20" viewBox="0 0 20 20" fill="none" xmlns="http://www.w3.org/2000/svg">
<g clip-path="url(#clip0_2001_6328)">
<path fill-rule="evenodd" clip-rule="evenodd" d="M7.16452 1.26712C9.10719 0.64214 11.2029 0.683281 13.1195 1.38403C13.3493 1.46805 13.5306 1.64885 13.6152 1.87845C13.6999 2.10805 13.6793 2.36324 13.559 2.57634C13.4188 2.82484 13.3464 3.1059 13.3492 3.39125C13.3521 3.6766 13.43 3.95617 13.5751 4.20184C13.7203 4.44752 13.9276 4.65063 14.1762 4.79076C14.4248 4.93088 14.7059 5.00307 14.9912 5.00007C14.9942 5.00004 14.9971 5.00002 15 5.00002H15.0834C15.3336 5.00002 15.5706 5.1125 15.7289 5.30637C15.8872 5.50025 15.9499 5.75498 15.8998 6.00019C15.8631 6.17977 15.8664 6.36523 15.9093 6.54342C15.9523 6.72161 16.0339 6.88817 16.1484 7.0313C16.2629 7.17443 16.4075 7.29062 16.5719 7.37165C16.7339 7.45148 16.9112 7.49525 17.0916 7.5C17.3378 7.49845 17.5631 7.42868 17.6211 7.38998C17.8483 7.23854 18.1352 7.20797 18.3892 7.30817C18.6431 7.40836 18.8319 7.62661 18.8945 7.89236C19.3622 9.87876 19.1537 11.9644 18.3021 13.819C17.4504 15.6735 16.0042 17.1907 14.1927 18.1304C12.3812 19.0701 10.3079 19.3784 8.30136 19.0065C6.2948 18.6346 4.46972 17.6038 3.11527 16.0773C1.76082 14.5509 0.954462 12.6161 0.823949 10.5796C0.693436 8.54303 1.24623 6.52116 2.39476 4.83431C3.54328 3.14746 5.22185 1.8921 7.16452 1.26712ZM11.7509 2.70738C10.4101 2.37996 8.99908 2.42771 7.67494 2.8537C6.08549 3.36505 4.71211 4.39217 3.77241 5.77232C2.83271 7.15246 2.38042 8.80672 2.4872 10.473C2.59399 12.1393 3.25374 13.7222 4.36192 14.9711C5.47011 16.2201 6.96336 17.0635 8.60508 17.3677C10.2468 17.672 11.9431 17.4198 13.4253 16.6509C14.9074 15.8821 16.0906 14.6407 16.7875 13.1234C17.3604 11.8758 17.5776 10.5004 17.424 9.14733C17.3025 9.16076 17.1872 9.16669 17.0834 9.16669C17.0779 9.16669 17.0724 9.16664 17.0669 9.16653C16.6393 9.15808 16.2188 9.05569 15.8351 8.86662C15.4515 8.67755 15.1142 8.40643 14.847 8.07246C14.5798 7.73849 14.3893 7.34984 14.2891 6.93407C14.261 6.81743 14.2401 6.69945 14.2266 6.58082C13.9237 6.51019 13.6311 6.39668 13.3578 6.24265C12.8543 5.95881 12.4343 5.54738 12.1403 5.04973C11.8462 4.55208 11.6884 3.98576 11.6826 3.40775C11.6803 3.17154 11.7034 2.93678 11.7509 2.70738Z" fill="black"/>
<path fill-rule="evenodd" clip-rule="evenodd" d="M10.0001 8.33341C9.07961 8.33341 8.33341 9.07961 8.33341 10.0001C8.33341 10.9206 9.07961 11.6667 10.0001 11.6667C10.9206 11.6667 11.6667 10.9206 11.6667 10.0001C11.6667 9.07961 10.9206 8.33341 10.0001 8.33341ZM6.66675 10.0001C6.66675 8.15913 8.15913 6.66675 10.0001 6.66675C11.841 6.66675 13.3334 8.15913 13.3334 10.0001C13.3334 11.841 11.841 13.3334 10.0001 13.3334C8.15913 13.3334 6.66675 11.841 6.66675 10.0001Z" fill="black"/>
</g>
<defs>
<clipPath id="clip0_2001_6328">
<rect width="20" height="20" fill="white"/>
</clipPath>
</defs>
</svg>
