<svg width="20" height="20" viewBox="0 0 20 20" fill="none" xmlns="http://www.w3.org/2000/svg">
<path fill-rule="evenodd" clip-rule="evenodd" d="M10 3.33333C10 2.8731 10.3731 2.5 10.8333 2.5H13.3333C13.9964 2.5 14.6323 2.76339 15.1011 3.23223C15.5699 3.70107 15.8333 4.33696 15.8333 5V16.6667C15.8333 17.1269 15.4602 17.5 15 17.5C14.5398 17.5 14.1667 17.1269 14.1667 16.6667V5C14.1667 4.77899 14.0789 4.56702 13.9226 4.41074C13.7663 4.25446 13.5543 4.16667 13.3333 4.16667H10.8333C10.3731 4.16667 10 3.79357 10 3.33333Z" fill="black"/>
<path fill-rule="evenodd" clip-rule="evenodd" d="M0.833252 16.6666C0.833252 16.2063 1.20635 15.8333 1.66659 15.8333H4.16658C4.62682 15.8333 4.99992 16.2063 4.99992 16.6666C4.99992 17.1268 4.62682 17.4999 4.16658 17.4999H1.66659C1.20635 17.4999 0.833252 17.1268 0.833252 16.6666Z" fill="black"/>
<path fill-rule="evenodd" clip-rule="evenodd" d="M10 16.6666C10 16.2063 10.3731 15.8333 10.8333 15.8333H18.3333C18.7936 15.8333 19.1667 16.2063 19.1667 16.6666C19.1667 17.1268 18.7936 17.4999 18.3333 17.4999H10.8333C10.3731 17.4999 10 17.1268 10 16.6666Z" fill="black"/>
<path fill-rule="evenodd" clip-rule="evenodd" d="M8.33333 9.16675C8.79357 9.16675 9.16667 9.53984 9.16667 10.0001V10.0084C9.16667 10.4687 8.79357 10.8417 8.33333 10.8417C7.8731 10.8417 7.5 10.4687 7.5 10.0084V10.0001C7.5 9.53984 7.8731 9.16675 8.33333 9.16675Z" fill="black"/>
<path fill-rule="evenodd" clip-rule="evenodd" d="M8.96453 2.99353C8.96452 2.99354 8.96451 2.99354 8.9645 2.99354L5.6312 3.82687L5.63117 3.82688C5.45089 3.87194 5.29084 3.97597 5.17646 4.12243C5.06211 4.26886 4.99997 4.4493 4.99992 4.63508C4.99992 4.63512 4.99992 4.63517 4.99992 4.63521V16.0161L9.99992 17.2657V3.80229C9.99984 3.67527 9.97073 3.54958 9.91535 3.43622C9.85978 3.32247 9.77903 3.22288 9.67923 3.14501C9.57942 3.06713 9.46319 3.01302 9.33935 2.98677C9.21552 2.96053 9.08733 2.96284 8.96453 2.99353ZM4.16659 4.63508H3.33325V16.6667C3.33325 17.0492 3.59353 17.3825 3.96453 17.4752L9.5962 18.8827L9.59659 18.8828C9.84222 18.9441 10.0986 18.9486 10.3462 18.896C10.5939 18.8434 10.8263 18.735 11.0258 18.5792C11.2253 18.4234 11.3867 18.2242 11.4977 17.9966C11.6088 17.7691 11.6665 17.5193 11.6666 17.2661V3.80121C11.6663 3.42186 11.5798 3.04626 11.4129 2.70464C11.2462 2.36341 11.0039 2.06464 10.7045 1.83102C10.4051 1.59739 10.0564 1.43505 9.68487 1.35632C9.31335 1.27758 8.92877 1.28453 8.56034 1.37662L5.227 2.20996C5.22699 2.20996 5.22698 2.20996 5.22697 2.20996C4.68614 2.34516 4.206 2.65724 3.86288 3.09662C3.51976 3.536 3.33334 4.07747 3.33325 4.63496L4.16659 4.63508Z" fill="black"/>
</svg>
