<svg width="20" height="20" viewBox="0 0 20 20" fill="none" xmlns="http://www.w3.org/2000/svg">
<path fill-rule="evenodd" clip-rule="evenodd" d="M4.89898 3.23223C5.36782 2.76339 6.00371 2.5 6.66675 2.5H13.3334C13.9965 2.5 14.6323 2.76339 15.1012 3.23223C15.57 3.70107 15.8334 4.33696 15.8334 5V16.6667C15.8334 17.1269 15.4603 17.5 15.0001 17.5C14.5398 17.5 14.1667 17.1269 14.1667 16.6667V5C14.1667 4.77899 14.079 4.56702 13.9227 4.41074C13.7664 4.25446 13.5544 4.16667 13.3334 4.16667H6.66675C6.44573 4.16667 6.23377 4.25446 6.07749 4.41074C5.92121 4.56702 5.83341 4.77899 5.83341 5V16.6667C5.83341 17.1269 5.46032 17.5 5.00008 17.5C4.53984 17.5 4.16675 17.1269 4.16675 16.6667V5C4.16675 4.33696 4.43014 3.70107 4.89898 3.23223Z" fill="black"/>
<path fill-rule="evenodd" clip-rule="evenodd" d="M0.833252 16.6666C0.833252 16.2063 1.20635 15.8333 1.66659 15.8333H18.3333C18.7935 15.8333 19.1666 16.2063 19.1666 16.6666C19.1666 17.1268 18.7935 17.4999 18.3333 17.4999H1.66659C1.20635 17.4999 0.833252 17.1268 0.833252 16.6666Z" fill="black"/>
<path fill-rule="evenodd" clip-rule="evenodd" d="M11.6666 9.16675C12.1268 9.16675 12.4999 9.53984 12.4999 10.0001V10.0084C12.4999 10.4687 12.1268 10.8417 11.6666 10.8417C11.2063 10.8417 10.8333 10.4687 10.8333 10.0084V10.0001C10.8333 9.53984 11.2063 9.16675 11.6666 9.16675Z" fill="black"/>
</svg>
