<svg width="20" height="20" viewBox="0 0 20 20" fill="none" xmlns="http://www.w3.org/2000/svg">
<path fill-rule="evenodd" clip-rule="evenodd" d="M2.50008 11.6667C2.96032 11.6667 3.33341 12.0398 3.33341 12.5001V15.8334C3.33341 16.0544 3.42121 16.2664 3.57749 16.4227C3.73377 16.579 3.94573 16.6667 4.16675 16.6667H15.8334C16.0544 16.6667 16.2664 16.579 16.4227 16.4227C16.5789 16.2664 16.6667 16.0544 16.6667 15.8334V12.5001C16.6667 12.0398 17.0398 11.6667 17.5001 11.6667C17.9603 11.6667 18.3334 12.0398 18.3334 12.5001V15.8334C18.3334 16.4965 18.07 17.1323 17.6012 17.6012C17.1323 18.07 16.4965 18.3334 15.8334 18.3334H4.16675C3.50371 18.3334 2.86782 18.07 2.39898 17.6012C1.93014 17.1323 1.66675 16.4965 1.66675 15.8334V12.5001C1.66675 12.0398 2.03984 11.6667 2.50008 11.6667Z" fill="black"/>
<path fill-rule="evenodd" clip-rule="evenodd" d="M5.24408 7.74408C5.56951 7.41864 6.09715 7.41864 6.42259 7.74408L10 11.3215L13.5774 7.74408C13.9028 7.41864 14.4305 7.41864 14.7559 7.74408C15.0814 8.06951 15.0814 8.59715 14.7559 8.92259L10.5893 13.0893C10.2638 13.4147 9.73618 13.4147 9.41074 13.0893L5.24408 8.92259C4.91864 8.59715 4.91864 8.06951 5.24408 7.74408Z" fill="black"/>
<path fill-rule="evenodd" clip-rule="evenodd" d="M10.0001 1.66675C10.4603 1.66675 10.8334 2.03984 10.8334 2.50008V12.5001C10.8334 12.9603 10.4603 13.3334 10.0001 13.3334C9.53984 13.3334 9.16675 12.9603 9.16675 12.5001V2.50008C9.16675 2.03984 9.53984 1.66675 10.0001 1.66675Z" fill="black"/>
</svg>
