<svg width="20" height="20" viewBox="0 0 20 20" fill="none" xmlns="http://www.w3.org/2000/svg">
<path fill-rule="evenodd" clip-rule="evenodd" d="M10.4172 4.88992C10.8186 4.66473 11.3265 4.80756 11.5517 5.20894L13.16 8.0756C13.3852 8.47698 13.2424 8.98492 12.841 9.21012C12.4396 9.43531 11.9317 9.29248 11.7065 8.8911L10.0982 6.02443C9.87298 5.62305 10.0158 5.11511 10.4172 4.88992Z" fill="black"/>
<path fill-rule="evenodd" clip-rule="evenodd" d="M3.47044 9.40546C3.79885 9.08301 4.32646 9.08784 4.64891 9.41624C5.34704 10.1273 6.17986 10.6921 7.09872 11.0776C8.01758 11.4631 9.00406 11.6617 10.0005 11.6617C10.997 11.6617 11.9835 11.4631 12.9023 11.0776C13.8212 10.6921 14.654 10.1273 15.3522 9.41624C15.6746 9.08784 16.2022 9.08301 16.5306 9.40546C16.859 9.7279 16.8639 10.2555 16.5414 10.5839C15.6881 11.453 14.6702 12.1432 13.5472 12.6145C12.4241 13.0857 11.2184 13.3284 10.0005 13.3284C8.78262 13.3284 7.57693 13.0857 6.45387 12.6145C5.33082 12.1432 4.31293 11.453 3.45966 10.5839C3.13721 10.2555 3.14204 9.7279 3.47044 9.40546Z" fill="black"/>
<path fill-rule="evenodd" clip-rule="evenodd" d="M15.2914 13.5737C15.6925 13.3481 16.2006 13.4904 16.4262 13.8915L18.2262 17.0915C18.4519 17.4926 18.3096 18.0007 17.9085 18.2263C17.5074 18.452 16.9993 18.3097 16.7736 17.9086L14.9736 14.7086C14.748 14.3075 14.8903 13.7994 15.2914 13.5737Z" fill="black"/>
<path fill-rule="evenodd" clip-rule="evenodd" d="M9.59182 4.89034C9.99297 5.11595 10.1353 5.62404 9.90966 6.02519L3.22633 17.9085C3.00072 18.3097 2.49263 18.452 2.09148 18.2264C1.69034 18.0007 1.54804 17.4927 1.77364 17.0915L8.45698 5.20818C8.68259 4.80704 9.19068 4.66473 9.59182 4.89034Z" fill="black"/>
<path fill-rule="evenodd" clip-rule="evenodd" d="M10 3.33341C9.53976 3.33341 9.16667 3.70651 9.16667 4.16675C9.16667 4.62699 9.53976 5.00008 10 5.00008C10.4602 5.00008 10.8333 4.62699 10.8333 4.16675C10.8333 3.70651 10.4602 3.33341 10 3.33341ZM7.5 4.16675C7.5 2.78604 8.61929 1.66675 10 1.66675C11.3807 1.66675 12.5 2.78604 12.5 4.16675C12.5 5.54746 11.3807 6.66675 10 6.66675C8.61929 6.66675 7.5 5.54746 7.5 4.16675Z" fill="black"/>
</svg>
