<svg width="20" height="20" viewBox="0 0 20 20" fill="none" xmlns="http://www.w3.org/2000/svg">
<g clip-path="url(#clip0_2001_6353)">
<path fill-rule="evenodd" clip-rule="evenodd" d="M7.5 9.16659C7.5 8.70635 7.8731 8.33325 8.33333 8.33325H8.34167C8.8019 8.33325 9.175 8.70635 9.175 9.16659C9.175 9.62682 8.8019 9.99992 8.34167 9.99992H8.33333C7.8731 9.99992 7.5 9.62682 7.5 9.16659Z" fill="black"/>
<path fill-rule="evenodd" clip-rule="evenodd" d="M10.8333 5.00008C10.8333 4.53984 11.2063 4.16675 11.6666 4.16675H11.6749C12.1352 4.16675 12.5083 4.53984 12.5083 5.00008C12.5083 5.46032 12.1352 5.83341 11.6749 5.83341H11.6666C11.2063 5.83341 10.8333 5.46032 10.8333 5.00008Z" fill="black"/>
<path fill-rule="evenodd" clip-rule="evenodd" d="M14.1667 5.00008C14.1667 4.53984 14.5398 4.16675 15.0001 4.16675H15.0084C15.4687 4.16675 15.8417 4.53984 15.8417 5.00008C15.8417 5.46032 15.4687 5.83341 15.0084 5.83341H15.0001C14.5398 5.83341 14.1667 5.46032 14.1667 5.00008Z" fill="black"/>
<path fill-rule="evenodd" clip-rule="evenodd" d="M4.58325 10.9166C4.58325 10.4563 4.95635 10.0833 5.41659 10.0833H5.42492C5.88516 10.0833 6.25825 10.4563 6.25825 10.9166C6.25825 11.3768 5.88516 11.7499 5.42492 11.7499H5.41659C4.95635 11.7499 4.58325 11.3768 4.58325 10.9166Z" fill="black"/>
<path fill-rule="evenodd" clip-rule="evenodd" d="M9.33921 3.53509C9.23198 3.69592 9.16667 3.89574 9.16667 4.16659C9.16667 7.79786 9.97377 10.1249 10.9017 11.5168C11.8488 12.9375 12.8717 13.3333 13.3333 13.3333C13.7949 13.3333 14.8179 12.9375 15.765 11.5168C16.6929 10.1249 17.5 7.79786 17.5 4.16659C17.5 3.89574 17.4347 3.69592 17.3275 3.53509C17.2168 3.36903 17.0285 3.19585 16.7107 3.03694C16.0515 2.70734 14.9574 2.49992 13.3333 2.49992C11.7092 2.49992 10.6152 2.70734 9.95601 3.03694C9.6382 3.19585 9.44991 3.36903 9.33921 3.53509ZM9.21066 1.54623C10.2181 1.0425 11.6241 0.833252 13.3333 0.833252C15.0426 0.833252 16.4485 1.0425 17.456 1.54623C17.9715 1.80399 18.4082 2.15164 18.7142 2.61059C19.0237 3.07475 19.1667 3.6041 19.1667 4.16659C19.1667 8.03531 18.3071 10.7082 17.1517 12.4413C16.0155 14.1457 14.5384 14.9999 13.3333 14.9999C12.1283 14.9999 10.6512 14.1457 9.51496 12.4413C8.35957 10.7082 7.5 8.03531 7.5 4.16659C7.5 3.6041 7.64302 3.07475 7.95246 2.61059C8.25842 2.15164 8.69513 1.80399 9.21066 1.54623Z" fill="black"/>
<path fill-rule="evenodd" clip-rule="evenodd" d="M11.5773 7.66083C11.9028 7.33539 12.4304 7.33539 12.7558 7.66083C13.0971 8.00206 13.5694 8.00206 13.9107 7.66083C14.2361 7.33539 14.7637 7.33539 15.0892 7.66083C15.4146 7.98626 15.4146 8.5139 15.0892 8.83934C14.0971 9.83144 12.5694 9.83144 11.5773 8.83934C11.2519 8.5139 11.2519 7.98626 11.5773 7.66083Z" fill="black"/>
<path fill-rule="evenodd" clip-rule="evenodd" d="M9.24667 5.84119C9.28834 6.29954 8.95055 6.70488 8.4922 6.74655C7.74977 6.81404 6.79136 7.16214 5.40191 7.89683C3.99096 8.70445 3.15142 9.4348 2.74981 10.0495C2.55537 10.3471 2.48043 10.5919 2.46868 10.7901C2.45732 10.9821 2.50161 11.184 2.63503 11.4108C2.63622 11.4128 2.63741 11.4148 2.63858 11.4169C4.45365 14.563 6.32327 16.1767 7.82741 16.9194C9.36632 17.6794 10.4462 17.506 10.8276 17.2817C10.8335 17.2782 10.8394 17.2748 10.8454 17.2715C11.2275 17.0592 12.0001 16.0877 12.0001 14.0833C12.0001 13.6231 12.3732 13.25 12.8334 13.25C13.2937 13.25 13.6668 13.6231 13.6668 14.0833C13.6668 16.406 12.7775 18.0982 11.6638 18.7234C10.6277 19.3272 8.92034 19.318 7.08944 18.4138C5.21911 17.4902 3.13105 15.6047 1.19659 12.2526C0.914595 11.772 0.772104 11.2458 0.804933 10.6916C0.837461 10.1424 1.03856 9.62157 1.35453 9.13793C1.97265 8.19183 3.08794 7.2995 4.58664 6.4431C4.59442 6.43866 4.60227 6.43434 4.61018 6.43015C6.04762 5.66915 7.25253 5.18571 8.34131 5.08673C8.79966 5.04506 9.205 5.38285 9.24667 5.84119Z" fill="black"/>
<path fill-rule="evenodd" clip-rule="evenodd" d="M9.34384 13.3815C8.97831 13.2719 8.51932 13.4851 8.38727 13.9693C8.26617 14.4133 7.80805 14.6751 7.36403 14.554C6.92001 14.4329 6.65823 13.9747 6.77933 13.5307C7.14728 12.1816 8.52162 11.3948 9.82275 11.7851C10.2636 11.9174 10.5137 12.382 10.3815 12.8228C10.2492 13.2636 9.78467 13.5138 9.34384 13.3815Z" fill="black"/>
</g>
<defs>
<clipPath id="clip0_2001_6353">
<rect width="20" height="20" fill="white"/>
</clipPath>
</defs>
</svg>
