<svg width="20" height="20" viewBox="0 0 20 20" fill="none" xmlns="http://www.w3.org/2000/svg">
<g clip-path="url(#clip0_2001_6362)">
<path fill-rule="evenodd" clip-rule="evenodd" d="M9.99992 2.49992C5.85778 2.49992 2.49992 5.85778 2.49992 9.99992C2.49992 14.1421 5.85778 17.4999 9.99992 17.4999C14.1421 17.4999 17.4999 14.1421 17.4999 9.99992C17.4999 5.85778 14.1421 2.49992 9.99992 2.49992ZM0.833252 9.99992C0.833252 4.93731 4.93731 0.833252 9.99992 0.833252C15.0625 0.833252 19.1666 4.93731 19.1666 9.99992C19.1666 15.0625 15.0625 19.1666 9.99992 19.1666C4.93731 19.1666 0.833252 15.0625 0.833252 9.99992Z" fill="black"/>
<path fill-rule="evenodd" clip-rule="evenodd" d="M16.5206 3.64225C16.8517 3.96192 16.861 4.48947 16.5413 4.82058C13.0547 8.43203 8.42851 9.52905 1.92876 9.94839C1.46948 9.97802 1.07314 9.62971 1.04351 9.17043C1.01388 8.71115 1.36218 8.31481 1.82146 8.28518C8.23838 7.87118 12.3122 6.80153 15.3423 3.66298C15.6619 3.33187 16.1895 3.32259 16.5206 3.64225Z" fill="black"/>
<path fill-rule="evenodd" clip-rule="evenodd" d="M3.82329 15.4473C7.5239 10.804 12.4292 8.6348 18.2986 9.88492C18.7487 9.9808 19.0359 10.4234 18.94 10.8736C18.8441 11.3237 18.4015 11.6109 17.9514 11.515C12.7874 10.4151 8.4927 12.2626 5.12665 16.486C4.8398 16.8459 4.3155 16.9052 3.95558 16.6183C3.59567 16.3315 3.53644 15.8072 3.82329 15.4473Z" fill="black"/>
<path fill-rule="evenodd" clip-rule="evenodd" d="M6.64283 1.61804C7.01485 1.34708 7.53609 1.42901 7.80705 1.80103C9.64294 4.32171 10.9294 6.33572 11.9658 8.61077C13.0007 10.8828 13.7717 13.383 14.6103 16.8631C14.7181 17.3105 14.4428 17.7606 13.9953 17.8685C13.5479 17.9763 13.0978 17.701 12.99 17.2535C12.1619 13.817 11.4203 11.4338 10.449 9.30168C9.47916 7.17256 8.26561 5.26158 6.45983 2.78225C6.18888 2.41023 6.27081 1.88899 6.64283 1.61804Z" fill="black"/>
</g>
<defs>
<clipPath id="clip0_2001_6362">
<rect width="20" height="20" fill="white"/>
</clipPath>
</defs>
</svg>
