<svg width="20" height="20" viewBox="0 0 20 20" fill="none" xmlns="http://www.w3.org/2000/svg">
<g clip-path="url(#clip0_2001_6367)">
<path fill-rule="evenodd" clip-rule="evenodd" d="M3.33325 2.49992C3.11224 2.49992 2.90028 2.58772 2.744 2.744C2.58772 2.90028 2.49992 3.11224 2.49992 3.33325V6.66658C2.49992 6.8876 2.58772 7.09956 2.744 7.25584C2.90028 7.41212 3.11224 7.49992 3.33325 7.49992H10.8333V2.49992H3.33325ZM1.56549 1.56548C2.03433 1.09664 2.67021 0.833252 3.33325 0.833252H10.8333C11.2726 0.833252 11.7035 0.983347 12.0267 1.3065C12.3498 1.62965 12.4999 2.06055 12.4999 2.49992V7.49992C12.4999 7.93929 12.3498 8.37019 12.0267 8.69334C11.7035 9.01649 11.2726 9.16658 10.8333 9.16658H3.33325C2.67021 9.16658 2.03433 8.90319 1.56549 8.43435C1.09664 7.96551 0.833252 7.32963 0.833252 6.66658V3.33325C0.833252 2.67021 1.09664 2.03433 1.56549 1.56548Z" fill="black"/>
<path fill-rule="evenodd" clip-rule="evenodd" d="M14.1667 5.00008C14.1667 4.53984 14.5398 4.16675 15.0001 4.16675H18.3334C18.7937 4.16675 19.1667 4.53984 19.1667 5.00008C19.1667 5.46032 18.7937 5.83341 18.3334 5.83341H15.0001C14.5398 5.83341 14.1667 5.46032 14.1667 5.00008Z" fill="black"/>
<path fill-rule="evenodd" clip-rule="evenodd" d="M10.8333 3.33333C10.8333 2.8731 11.2063 2.5 11.6666 2.5H14.1666C14.6086 2.5 15.0325 2.67559 15.3451 2.98816C15.6577 3.30072 15.8333 3.72464 15.8333 4.16667V5.83333C15.8333 6.27536 15.6577 6.69928 15.3451 7.01184C15.0325 7.32441 14.6086 7.5 14.1666 7.5H11.6666C11.2063 7.5 10.8333 7.1269 10.8333 6.66667C10.8333 6.20643 11.2063 5.83333 11.6666 5.83333H14.1666L14.1666 4.16667L11.6666 4.16667C11.2063 4.16667 10.8333 3.79357 10.8333 3.33333Z" fill="black"/>
<path fill-rule="evenodd" clip-rule="evenodd" d="M4.36881 7.52483C4.81531 7.63646 5.08678 8.0889 4.97515 8.5354L3.30849 15.2021C3.19686 15.6486 2.74442 15.92 2.29792 15.8084C1.85143 15.6968 1.57996 15.2443 1.69158 14.7978L3.35825 8.13117C3.46987 7.68468 3.92232 7.41321 4.36881 7.52483Z" fill="black"/>
<path fill-rule="evenodd" clip-rule="evenodd" d="M9.99992 7.5C10.4602 7.5 10.8333 7.8731 10.8333 8.33333V10.8333C10.8333 11.2727 10.6832 11.7036 10.36 12.0268C10.0369 12.3499 9.60596 12.5 9.16659 12.5H6.66659C6.20635 12.5 5.83325 12.1269 5.83325 11.6667C5.83325 11.2064 6.20635 10.8333 6.66659 10.8333H9.16659V8.33333C9.16659 7.8731 9.53968 7.5 9.99992 7.5Z" fill="black"/>
<path fill-rule="evenodd" clip-rule="evenodd" d="M7.70207 7.52483C8.14856 7.63646 8.42003 8.0889 8.30841 8.5354L6.64174 15.2021C6.53011 15.6486 6.07767 15.92 5.63117 15.8084C5.18468 15.6968 4.91321 15.2443 5.02483 14.7978L6.6915 8.13117C6.80312 7.68468 7.25557 7.41321 7.70207 7.52483Z" fill="black"/>
<path fill-rule="evenodd" clip-rule="evenodd" d="M2.49992 15.8334C2.49992 16.7898 3.21016 17.5001 4.16659 17.5001H8.33325V15.8334H2.49992ZM1.3065 14.64C1.62965 14.3168 2.06055 14.1667 2.49992 14.1667H8.33325C8.77263 14.1667 9.20353 14.3168 9.52668 14.64C9.84982 14.9631 9.99992 15.394 9.99992 15.8334V17.5001C9.99992 17.9395 9.84982 18.3704 9.52668 18.6935C9.20353 19.0167 8.77263 19.1667 8.33325 19.1667H4.16659C2.28968 19.1667 0.833252 17.7103 0.833252 15.8334C0.833252 15.394 0.983347 14.9631 1.3065 14.64Z" fill="black"/>
</g>
<defs>
<clipPath id="clip0_2001_6367">
<rect width="20" height="20" fill="white"/>
</clipPath>
</defs>
</svg>
