<svg width="20" height="20" viewBox="0 0 20 20" fill="none" xmlns="http://www.w3.org/2000/svg">
<path fill-rule="evenodd" clip-rule="evenodd" d="M9.99992 1.66675C10.3972 1.66675 10.7392 1.94713 10.8171 2.33665C11.1937 4.2199 12.3339 6.0501 13.8538 7.26602C15.6702 8.71911 16.6666 10.5246 16.6666 12.5001C16.6666 14.2682 15.9642 15.9639 14.714 17.2141C13.4637 18.4644 11.768 19.1667 9.99992 19.1667C8.23181 19.1667 6.53612 18.4644 5.28587 17.2141C4.03563 15.9639 3.33325 14.2682 3.33325 12.5001C3.33325 10.5246 4.32965 8.71911 6.14601 7.26602C7.66591 6.0501 8.80612 4.2199 9.18277 2.33665C9.26067 1.94713 9.60268 1.66675 9.99992 1.66675ZM9.99992 5.04455C9.32858 6.40842 8.35135 7.63612 7.18716 8.56747C5.67018 9.78106 4.99992 11.1422 4.99992 12.5001C4.99992 13.8262 5.5267 15.0979 6.46438 16.0356C7.40207 16.9733 8.67384 17.5001 9.99992 17.5001C11.326 17.5001 12.5978 16.9733 13.5355 16.0356C14.4731 15.0979 14.9999 13.8262 14.9999 12.5001C14.9999 11.1422 14.3297 9.78106 12.8127 8.56747C11.6485 7.63612 10.6713 6.40842 9.99992 5.04455Z" fill="black"/>
</svg>
