<svg width="20" height="20" viewBox="0 0 20 20" fill="none" xmlns="http://www.w3.org/2000/svg">
<path fill-rule="evenodd" clip-rule="evenodd" d="M5.83341 3.58325C6.23065 3.58325 6.57266 3.86363 6.65057 4.25316C6.85252 5.26291 7.46106 6.24548 8.26852 6.9042C9.36735 7.80061 10.0001 8.93823 10.0001 10.2083C10.0001 12.5077 8.13771 14.4166 5.83341 14.4166C3.52912 14.4166 1.66675 12.5077 1.66675 10.2083C1.66675 8.95322 2.2852 7.79464 3.4045 6.89919C4.21047 6.25442 4.81324 5.2683 5.01626 4.25316C5.09417 3.86363 5.43618 3.58325 5.83341 3.58325ZM5.836 6.62095C5.46226 7.22445 4.98954 7.76554 4.44566 8.20064C3.6483 8.83853 3.33341 9.54662 3.33341 10.2083C3.33341 11.6088 4.47104 12.7499 5.83341 12.7499C7.19579 12.7499 8.33341 11.6088 8.33341 10.2083C8.33341 9.54494 8.01615 8.84923 7.21498 8.19564C6.68047 7.7596 6.21006 7.22156 5.836 6.62095Z" fill="black"/>
<path fill-rule="evenodd" clip-rule="evenodd" d="M11.6701 1.68336C12.0661 1.68499 12.4062 1.965 12.4839 2.35325C12.8605 4.2365 14.0007 6.0667 15.5206 7.28263C17.3364 8.73528 18.3328 10.5401 18.3334 12.515C18.3385 13.8313 17.9528 15.1196 17.2251 16.2166C16.4972 17.314 15.4598 18.1706 14.2444 18.6778C13.029 19.185 11.6904 19.3199 10.3983 19.0654C9.10618 18.8109 7.91871 18.1784 6.98644 17.2483C6.66064 16.9232 6.66004 16.3956 6.98512 16.0698C7.31019 15.744 7.83782 15.7434 8.16363 16.0684C8.86224 16.7655 9.7521 17.2394 10.7204 17.4301C11.6887 17.6208 12.6918 17.5198 13.6026 17.1397C14.5133 16.7596 15.2907 16.1177 15.8362 15.2953C16.3818 14.4729 16.6708 13.507 16.6667 12.5201C16.6667 12.519 16.6667 12.5178 16.6667 12.5167C16.6667 11.1588 15.9964 9.79766 14.4795 8.58407C13.3146 7.65217 12.3369 6.42356 11.6655 5.05872C11.5166 5.36084 11.3523 5.65571 11.1731 5.94213C10.9289 6.33225 10.4147 6.45057 10.0246 6.2064C9.63446 5.96223 9.51614 5.44803 9.76031 5.05791C10.2812 4.22565 10.6504 3.30766 10.8509 2.34653C10.9318 1.95892 11.2742 1.68173 11.6701 1.68336Z" fill="black"/>
</svg>
