<svg width="20" height="20" viewBox="0 0 20 20" fill="none" xmlns="http://www.w3.org/2000/svg">
<g clip-path="url(#clip0_2001_6388)">
<path fill-rule="evenodd" clip-rule="evenodd" d="M15.5747 2.79344C14.7637 2.4471 13.7404 2.39223 12.6404 2.69915C11.5408 3.00595 10.4534 3.65132 9.55236 4.55236C8.65132 5.45341 8.00595 6.54077 7.69915 7.64038C7.39223 8.74039 7.4471 9.76375 7.79344 10.5747C8.13554 11.3757 8.75852 11.9661 9.58987 12.2701C10.2149 12.4986 10.9515 12.5617 11.7411 12.4341C11.6363 11.8932 11.657 11.3198 11.7895 10.7558C12.0081 9.82479 12.5232 8.93947 13.2313 8.23135C13.9395 7.52323 14.8248 7.00808 15.7558 6.78949C16.3198 6.65704 16.8932 6.63627 17.4341 6.7411C17.5617 5.95154 17.4986 5.21492 17.2701 4.58987C16.9661 3.75852 16.3757 3.13554 15.5747 2.79344ZM12.1925 1.09379C13.5907 0.703665 15.0109 0.740358 16.2293 1.26071C17.4576 1.7853 18.375 2.75835 18.8354 4.01751C19.292 5.26629 19.2649 6.69678 18.8186 8.08799C18.7418 8.32718 18.5613 8.51899 18.3272 8.61005C18.0931 8.70111 17.8304 8.68171 17.6122 8.55725C17.2483 8.34968 16.7368 8.27114 16.1367 8.41203C15.5363 8.55302 14.9203 8.89941 14.4099 9.40986C13.8994 9.92032 13.553 10.5363 13.412 11.1367C13.2711 11.7368 13.3497 12.2483 13.5572 12.6122C13.6817 12.8304 13.7011 13.0931 13.6101 13.3272C13.519 13.5613 13.3272 13.7418 13.088 13.8186C11.6968 14.2649 10.2663 14.292 9.01751 13.8354C7.75835 13.375 6.7853 12.4576 6.26071 11.2293C5.74036 10.0109 5.70367 8.59071 6.09379 7.19246C6.48404 5.79382 7.2875 4.4602 8.37385 3.37385C9.4602 2.2875 10.7938 1.48404 12.1925 1.09379Z" fill="black"/>
<path fill-rule="evenodd" clip-rule="evenodd" d="M7.49747 10.0024C7.82291 10.3278 7.82291 10.8555 7.49747 11.1809L5.33081 13.3476C5.06849 13.6099 4.66435 13.6672 4.33943 13.4882C4.18066 13.4007 4.00476 13.3488 3.82394 13.3361C3.64312 13.3234 3.46169 13.3502 3.29225 13.4145C3.1228 13.4789 2.96938 13.5794 2.84263 13.709C2.71588 13.8386 2.61883 13.9942 2.55821 14.165C2.49759 14.3359 2.47486 14.5178 2.49158 14.6983C2.50829 14.8788 2.56407 15.0535 2.65504 15.2103C2.746 15.3671 2.86998 15.5022 3.01838 15.6063C3.16677 15.7104 3.33604 15.781 3.51443 15.8132C3.85153 15.874 4.11709 16.1348 4.18389 16.4708C4.21889 16.6469 4.29141 16.8133 4.39651 16.9589C4.50161 17.1044 4.63682 17.2256 4.79295 17.3142C4.94908 17.4028 5.12247 17.4567 5.3013 17.4723C5.48014 17.4879 5.66024 17.4648 5.82935 17.4046C5.99846 17.3443 6.15261 17.2484 6.28131 17.1232C6.41002 16.9981 6.51025 16.8467 6.5752 16.6793C6.64016 16.512 6.6683 16.3326 6.65772 16.1534C6.64714 15.9742 6.59808 15.7994 6.51389 15.6408C6.34212 15.3174 6.40167 14.9197 6.66063 14.6607L8.81896 12.5024C9.1444 12.1769 9.67203 12.1769 9.99747 12.5024C10.3229 12.8278 10.3229 13.3555 9.99747 13.6809L8.2227 15.4557C8.27626 15.6509 8.30948 15.8518 8.32149 16.0551C8.34618 16.4733 8.28051 16.8919 8.12896 17.2823C7.9774 17.6728 7.74351 18.0261 7.44321 18.3181C7.1429 18.6101 6.78322 18.834 6.38863 18.9746C5.99405 19.1152 5.57381 19.1691 5.15652 19.1327C4.73923 19.0963 4.33467 18.9705 3.97037 18.7637C3.60607 18.557 3.29057 18.2742 3.04534 17.9346C2.90531 17.7407 2.79006 17.5309 2.70175 17.3101C2.47561 17.2243 2.26036 17.1105 2.06122 16.9708C1.71496 16.7278 1.42568 16.4125 1.21342 16.0467C1.00117 15.6808 0.871024 15.2732 0.832013 14.852C0.793002 14.4309 0.846057 14.0063 0.9875 13.6077C1.12894 13.2091 1.35539 12.846 1.65114 12.5436C1.94689 12.2412 2.30486 12.0068 2.70024 11.8566C3.09562 11.7063 3.51895 11.6439 3.94087 11.6736C4.14487 11.6879 4.34618 11.7236 4.54159 11.7798L6.31896 10.0024C6.6444 9.67694 7.17203 9.67694 7.49747 10.0024Z" fill="black"/>
</g>
<defs>
<clipPath id="clip0_2001_6388">
<rect width="20" height="20" fill="white"/>
</clipPath>
</defs>
</svg>
