<svg width="20" height="20" viewBox="0 0 20 20" fill="none" xmlns="http://www.w3.org/2000/svg">
<g clip-path="url(#clip0_2001_6380)">
<path fill-rule="evenodd" clip-rule="evenodd" d="M1.07733 1.07733C1.40277 0.751893 1.9304 0.751893 2.25584 1.07733L8.92251 7.744C9.24794 8.06943 9.24794 8.59707 8.92251 8.92251C8.59707 9.24794 8.06943 9.24794 7.744 8.92251L1.07733 2.25584C0.751893 1.9304 0.751893 1.40277 1.07733 1.07733Z" fill="black"/>
<path fill-rule="evenodd" clip-rule="evenodd" d="M18.9225 1.07733C19.2479 1.40277 19.2479 1.9304 18.9225 2.25584L12.2558 8.92251C11.9304 9.24794 11.4028 9.24794 11.0773 8.92251C10.7519 8.59707 10.7519 8.06943 11.0773 7.744L17.744 1.07733C18.0694 0.751893 18.5971 0.751893 18.9225 1.07733Z" fill="black"/>
<path fill-rule="evenodd" clip-rule="evenodd" d="M4.48004 5.29908C3.06059 6.0088 2.49992 6.8351 2.49992 7.5C2.49992 8.1649 3.06059 8.9912 4.48004 9.70092C5.84964 10.3857 7.80005 10.8333 9.99992 10.8333C12.1998 10.8333 14.1502 10.3857 15.5198 9.70092C16.9392 8.9912 17.4999 8.1649 17.4999 7.5C17.4999 6.8351 16.9392 6.0088 15.5198 5.29908C14.1502 4.61428 12.1998 4.16667 9.99992 4.16667C7.80005 4.16667 5.84964 4.61428 4.48004 5.29908ZM3.73468 3.80837C5.38115 2.98513 7.59741 2.5 9.99992 2.5C12.4024 2.5 14.6187 2.98513 16.2652 3.80837C17.8618 4.60668 19.1666 5.86372 19.1666 7.5C19.1666 9.13628 17.8618 10.3933 16.2652 11.1916C14.6187 12.0149 12.4024 12.5 9.99992 12.5C7.59741 12.5 5.38115 12.0149 3.73468 11.1916C2.13806 10.3933 0.833252 9.13628 0.833252 7.5C0.833252 5.86372 2.13806 4.60668 3.73468 3.80837Z" fill="black"/>
<path fill-rule="evenodd" clip-rule="evenodd" d="M5.83333 10.3333C6.29357 10.3333 6.66667 10.7063 6.66667 11.1666V17.7499C6.66667 18.2102 6.29357 18.5833 5.83333 18.5833C5.3731 18.5833 5 18.2102 5 17.7499V11.1666C5 10.7063 5.3731 10.3333 5.83333 10.3333Z" fill="black"/>
<path fill-rule="evenodd" clip-rule="evenodd" d="M10.0001 10.8333C10.4603 10.8333 10.8334 11.2063 10.8334 11.6666V18.3333C10.8334 18.7935 10.4603 19.1666 10.0001 19.1666C9.53984 19.1666 9.16675 18.7935 9.16675 18.3333V11.6666C9.16675 11.2063 9.53984 10.8333 10.0001 10.8333Z" fill="black"/>
<path fill-rule="evenodd" clip-rule="evenodd" d="M14.1666 10.3333C14.6268 10.3333 14.9999 10.7063 14.9999 11.1666V17.7499C14.9999 18.2102 14.6268 18.5833 14.1666 18.5833C13.7063 18.5833 13.3333 18.2102 13.3333 17.7499V11.1666C13.3333 10.7063 13.7063 10.3333 14.1666 10.3333Z" fill="black"/>
<path fill-rule="evenodd" clip-rule="evenodd" d="M1.66659 6.66675C2.12682 6.66675 2.49992 7.03984 2.49992 7.50008V14.1667C2.49992 14.7963 3.0205 15.6379 4.48004 16.3677C5.90059 17.0779 7.8858 17.5001 9.99992 17.5001C12.114 17.5001 14.0992 17.0779 15.5198 16.3677C16.9793 15.6379 17.4999 14.7963 17.4999 14.1667V7.50008C17.4999 7.03984 17.873 6.66675 18.3333 6.66675C18.7935 6.66675 19.1666 7.03984 19.1666 7.50008V14.1667C19.1666 15.7473 17.9312 17.0253 16.2652 17.8584C14.5601 18.7109 12.3061 19.1667 9.99992 19.1667C7.69376 19.1667 5.43974 18.7109 3.73468 17.8584C2.06862 17.0253 0.833252 15.7473 0.833252 14.1667V7.50008C0.833252 7.03984 1.20635 6.66675 1.66659 6.66675Z" fill="black"/>
</g>
<defs>
<clipPath id="clip0_2001_6380">
<rect width="20" height="20" fill="white"/>
</clipPath>
</defs>
</svg>
