<svg width="20" height="20" viewBox="0 0 20 20" fill="none" xmlns="http://www.w3.org/2000/svg">
<g clip-path="url(#clip0_2001_6391)">
<path fill-rule="evenodd" clip-rule="evenodd" d="M7.41083 7.41083C7.73626 7.08539 8.2639 7.08539 8.58934 7.41083L12.5893 11.4108C12.9148 11.7363 12.9148 12.2639 12.5893 12.5893C12.2639 12.9148 11.7363 12.9148 11.4108 12.5893L7.41083 8.58934C7.08539 8.2639 7.08539 7.73626 7.41083 7.41083Z" fill="black"/>
<path fill-rule="evenodd" clip-rule="evenodd" d="M15.842 9.705C15.6209 9.705 15.4088 9.79283 15.2525 9.94917L9.94917 15.2525C9.79283 15.4088 9.705 15.6209 9.705 15.842C9.705 16.0631 9.79283 16.2751 9.94917 16.4315C10.1055 16.5878 10.3176 16.6757 10.5387 16.6757C10.7598 16.6757 10.9718 16.5878 11.1282 16.4315L12.6005 14.9583C12.6005 14.9583 12.6005 14.9583 12.6006 14.9583C12.9259 14.6328 13.4535 14.6327 13.779 14.958C14.1045 15.2834 14.1047 15.811 13.7793 16.1365L13.7793 16.1366C13.623 16.2929 13.5353 16.5049 13.5353 16.7259C13.5353 16.9469 13.6232 17.1589 13.7795 17.3151C13.9358 17.4714 14.1478 17.5592 14.3688 17.5591C14.5898 17.5591 14.8018 17.4712 14.9581 17.3149L15.5481 17.9048L14.9582 17.3148L17.3148 14.9582L17.9048 15.5481L17.3149 14.9581C17.4712 14.8018 17.5591 14.5898 17.5591 14.3688C17.5592 14.1478 17.4714 13.9358 17.3151 13.7795C17.1589 13.6232 16.9469 13.5353 16.7259 13.5353C16.5049 13.5353 16.2929 13.623 16.1366 13.7793L16.1365 13.7793C15.811 14.1047 15.2834 14.1045 14.958 13.779C14.6327 13.4535 14.6328 12.9259 14.9583 12.6006C14.9583 12.6005 14.9583 12.6005 14.9583 12.6005L16.4315 11.1282C16.5878 10.9718 16.6757 10.7598 16.6757 10.5387C16.6757 10.3176 16.5878 10.1055 16.4315 9.94917C16.2751 9.79283 16.0631 9.705 15.842 9.705ZM17.7898 12.1064C18.1457 11.6642 18.3423 11.1116 18.3423 10.5387C18.3423 9.87554 18.0789 9.23957 17.61 8.77066C17.1411 8.30176 16.5051 8.03833 15.842 8.03833C15.1789 8.03833 14.5429 8.30176 14.074 8.77066L8.77066 14.074C8.30176 14.5429 8.03833 15.1789 8.03833 15.842C8.03833 16.5051 8.30176 17.1411 8.77066 17.61C9.23957 18.0789 9.87554 18.3423 10.5387 18.3423C11.1116 18.3423 11.6642 18.1457 12.1064 17.7898C12.2282 18.0489 12.3948 18.2876 12.6012 18.4939C13.0701 18.9626 13.7061 19.2259 14.3691 19.2258C15.0322 19.2257 15.668 18.9622 16.1368 18.4932L18.4932 16.1368C18.9622 15.668 19.2257 15.0322 19.2258 14.3691C19.2259 13.7061 18.9626 13.0701 18.4939 12.6012C18.2876 12.3948 18.0489 12.2282 17.7898 12.1064Z" fill="black"/>
<path fill-rule="evenodd" clip-rule="evenodd" d="M16.1608 16.1608C16.4863 15.8354 17.0139 15.8354 17.3393 16.1608L18.506 17.3275C18.8314 17.6529 18.8314 18.1806 18.506 18.506C18.1806 18.8314 17.6529 18.8314 17.3275 18.506L16.1608 17.3393C15.8354 17.0139 15.8354 16.4863 16.1608 16.1608Z" fill="black"/>
<path fill-rule="evenodd" clip-rule="evenodd" d="M1.49408 1.49408C1.81951 1.16864 2.34715 1.16864 2.67259 1.49408L3.83926 2.66074C4.16469 2.98618 4.16469 3.51382 3.83926 3.83926C3.51382 4.16469 2.98618 4.16469 2.66074 3.83926L1.49408 2.67259C1.16864 2.34715 1.16864 1.81951 1.49408 1.49408Z" fill="black"/>
<path fill-rule="evenodd" clip-rule="evenodd" d="M5.95008 2.50422C5.84896 2.46235 5.74059 2.44082 5.63115 2.44084C5.41012 2.44088 5.19817 2.52872 5.04191 2.68503L4.45293 2.09626L5.0418 2.68514L2.68514 5.0418L2.09626 4.45293L2.68503 5.04191C2.52872 5.19817 2.44088 5.41012 2.44084 5.63115C2.44082 5.74059 2.46235 5.84896 2.50422 5.95008C2.54608 6.0512 2.60745 6.14308 2.68482 6.22048C2.84108 6.37679 3.05304 6.46463 3.27407 6.46467C3.38351 6.46469 3.49188 6.44316 3.593 6.40129C3.69402 6.35947 3.78582 6.29818 3.86317 6.22091C3.86325 6.22083 3.86332 6.22076 3.86339 6.22069L3.86346 6.22062C4.18897 5.89529 4.71659 5.89543 5.04194 6.22093C5.36729 6.54643 5.36718 7.07404 5.0417 7.39941C5.04168 7.39943 5.04166 7.39945 5.04164 7.39947L3.56847 8.8718C3.41213 9.02815 3.32429 9.24019 3.32429 9.4613C3.32429 9.6824 3.41212 9.89445 3.56847 10.0508C3.72481 10.2071 3.93686 10.295 4.15796 10.295C4.37907 10.295 4.59111 10.2071 4.74746 10.0508L10.0508 4.74746C10.2071 4.59111 10.295 4.37907 10.295 4.15796C10.295 3.93686 10.2071 3.72481 10.0508 3.56847C9.89445 3.41212 9.6824 3.32429 9.4613 3.32429C9.24019 3.32429 9.02815 3.41213 8.8718 3.56847L7.39947 5.04164C7.39945 5.04166 7.39943 5.04168 7.39941 5.0417C7.07404 5.36718 6.54643 5.36729 6.22093 5.04194C5.89543 4.71659 5.89529 4.18897 6.22062 3.86346L6.22069 3.86339C6.22076 3.86332 6.22083 3.86325 6.22091 3.86317C6.29818 3.78582 6.35947 3.69402 6.40129 3.593C6.44316 3.49188 6.46469 3.38351 6.46467 3.27407C6.46465 3.16462 6.44308 3.05626 6.40118 2.95516C6.35928 2.85405 6.29788 2.76219 6.22048 2.68482C6.14308 2.60745 6.0512 2.54608 5.95008 2.50422ZM7.89359 2.21014C7.77071 1.94889 7.60338 1.71063 7.39878 1.5061C7.16659 1.27399 6.89095 1.08989 6.58761 0.964305C6.28427 0.83872 5.95916 0.774112 5.63085 0.77417C4.96785 0.774287 4.33205 1.03776 3.86329 1.50662C3.86326 1.50666 3.86322 1.50669 3.86319 1.50673L1.50673 3.86319M7.89359 2.21014C8.33574 1.85425 8.88838 1.65763 9.4613 1.65763C10.1244 1.65763 10.7604 1.92105 11.2293 2.38996C11.6982 2.85886 11.9616 3.49483 11.9616 4.15796C11.9616 4.82109 11.6982 5.45706 11.2293 5.92597L5.92597 11.2293C5.45706 11.6982 4.82109 11.9616 4.15796 11.9616C3.49483 11.9616 2.85886 11.6982 2.38996 11.2293C1.92105 10.7604 1.65763 10.1244 1.65763 9.4613C1.65763 8.88838 1.85425 8.33574 2.21014 7.89359C1.95105 7.77173 1.7124 7.60515 1.5061 7.39878C1.27399 7.16659 1.08989 6.89095 0.964305 6.58761C0.83872 6.28427 0.774112 5.95916 0.77417 5.63085C0.774287 4.96785 1.03776 4.33205 1.50662 3.86329" fill="black"/>
</g>
<defs>
<clipPath id="clip0_2001_6391">
<rect width="20" height="20" fill="white"/>
</clipPath>
</defs>
</svg>
