<svg width="20" height="20" viewBox="0 0 20 20" fill="none" xmlns="http://www.w3.org/2000/svg">
<g clip-path="url(#clip0_2001_6397)">
<path fill-rule="evenodd" clip-rule="evenodd" d="M13.1717 11.9976C13.4676 12.3501 13.4217 12.8757 13.0691 13.1716C12.1555 13.9384 11.6667 14.5122 11.6667 15.4166C11.6667 15.9091 11.5698 16.3967 11.3813 16.8517C11.1928 17.3067 10.9166 17.7201 10.5684 18.0683C10.2202 18.4165 9.80678 18.6927 9.35181 18.8812C8.89684 19.0696 8.40921 19.1666 7.91675 19.1666C7.42429 19.1666 6.93666 19.0696 6.48169 18.8812C6.02672 18.6927 5.61332 18.4165 5.2651 18.0683C4.91688 17.7201 4.64065 17.3067 4.4522 16.8517C4.26374 16.3967 4.16675 15.9091 4.16675 15.4166C4.16675 14.9564 4.53984 14.5833 5.00008 14.5833C5.46032 14.5833 5.83341 14.9564 5.83341 15.4166C5.83341 15.6902 5.8873 15.9611 5.992 16.2139C6.0967 16.4667 6.25015 16.6963 6.44361 16.8898C6.63706 17.0832 6.86673 17.2367 7.11949 17.3414C7.37225 17.4461 7.64316 17.5 7.91675 17.5C8.19033 17.5 8.46124 17.4461 8.714 17.3414C8.96677 17.2367 9.19643 17.0832 9.38989 16.8898C9.58334 16.6963 9.7368 16.4667 9.8415 16.2139C9.94619 15.9611 10.0001 15.6902 10.0001 15.4166C10.0001 13.7044 11.0446 12.6949 11.9977 11.895C12.3502 11.5991 12.8759 11.645 13.1717 11.9976Z" fill="black"/>
<path fill-rule="evenodd" clip-rule="evenodd" d="M5.57065 4.51193C6.00596 4.66136 6.2377 5.13538 6.08827 5.57068C5.92488 6.04663 5.83341 6.55534 5.83341 7.08345C5.83341 7.54368 5.46032 7.91678 5.00008 7.91678C4.53984 7.91678 4.16675 7.54368 4.16675 7.08345C4.16675 6.36155 4.29195 5.67027 4.5119 5.02954C4.66133 4.59424 5.13535 4.3625 5.57065 4.51193Z" fill="black"/>
<path fill-rule="evenodd" clip-rule="evenodd" d="M12.5457 3.01948C11.8047 2.63081 10.9714 2.45241 10.1362 2.50363C9.30098 2.55486 8.49574 2.83374 7.80777 3.31006C7.42937 3.57204 6.91024 3.47767 6.64826 3.09927C6.38628 2.72087 6.48065 2.20174 6.85905 1.93976C7.79719 1.29024 8.89524 0.909942 10.0341 0.840092C11.1731 0.770243 12.3093 1.01351 13.3198 1.54352C14.3303 2.07353 15.1764 2.87005 15.7664 3.84672C16.3564 4.8234 16.6678 5.94295 16.6667 7.08399C16.6666 8.61027 16.249 9.75734 15.6128 10.6871C15.3529 11.067 14.8343 11.1642 14.4545 10.9043C14.0747 10.6444 13.9774 10.1258 14.2373 9.74601C14.6844 9.09263 15.0001 8.27326 15.0001 7.08324V7.08249C15.0008 6.24573 14.7725 5.42472 14.3398 4.70849C13.9072 3.99227 13.2867 3.40815 12.5457 3.01948Z" fill="black"/>
<path fill-rule="evenodd" clip-rule="evenodd" d="M9.58333 5.00008C9.58333 4.53984 9.95643 4.16675 10.4167 4.16675C11.1902 4.16675 11.9321 4.47404 12.4791 5.02102C13.026 5.568 13.3333 6.30987 13.3333 7.08341C13.3333 7.54365 12.9602 7.91675 12.5 7.91675C12.0398 7.91675 11.6667 7.54365 11.6667 7.08341C11.6667 6.75189 11.535 6.43395 11.3006 6.19953C11.0661 5.96511 10.7482 5.83341 10.4167 5.83341C9.95643 5.83341 9.58333 5.46032 9.58333 5.00008ZM10.1917 9.09001C10.6114 9.27871 10.7988 9.77197 10.6101 10.1917C10.4129 10.6304 10.0934 11.0028 9.6899 11.2644C9.28638 11.5261 8.81597 11.6657 8.33507 11.6667C7.87484 11.6677 7.50096 11.2954 7.5 10.8352C7.49904 10.3749 7.87136 10.001 8.33159 10.0001C8.49189 9.99975 8.6487 9.95319 8.7832 9.86598C8.91771 9.77877 9.0242 9.65463 9.08993 9.50842C9.27862 9.08864 9.77189 8.90131 10.1917 9.09001Z" fill="black"/>
<path fill-rule="evenodd" clip-rule="evenodd" d="M1.07733 1.07733C1.40277 0.751893 1.9304 0.751893 2.25584 1.07733L18.9225 17.744C19.2479 18.0694 19.2479 18.5971 18.9225 18.9225C18.5971 19.2479 18.0694 19.2479 17.744 18.9225L1.07733 2.25584C0.751893 1.9304 0.751893 1.40277 1.07733 1.07733Z" fill="black"/>
</g>
<defs>
<clipPath id="clip0_2001_6397">
<rect width="20" height="20" fill="white"/>
</clipPath>
</defs>
</svg>
