<svg width="20" height="20" viewBox="0 0 20 20" fill="none" xmlns="http://www.w3.org/2000/svg">
<path fill-rule="evenodd" clip-rule="evenodd" d="M10.4167 2.49992C9.20117 2.49992 8.03538 2.9828 7.17584 3.84235C6.3163 4.70189 5.83341 5.86768 5.83341 7.08325C5.83341 7.54349 5.46032 7.91659 5.00008 7.91659C4.53984 7.91659 4.16675 7.54349 4.16675 7.08325C4.16675 5.42565 4.82523 3.83594 5.99733 2.66383C7.16943 1.49173 8.75915 0.833252 10.4167 0.833252C12.0744 0.833252 13.6641 1.49173 14.8362 2.66383C16.0083 3.83594 16.6667 5.42565 16.6667 7.08325C16.6667 8.48508 16.3127 9.57534 15.7602 10.4654C15.218 11.339 14.5069 11.9818 13.8669 12.5151C13.7223 12.6356 13.5841 12.7486 13.4522 12.8564C12.9681 13.2523 12.5687 13.5789 12.2474 13.9537C11.8758 14.3872 11.6667 14.8268 11.6667 15.4166C11.6667 15.909 11.5698 16.3967 11.3813 16.8516C11.1928 17.3066 10.9166 17.72 10.5684 18.0682C10.2202 18.4165 9.80678 18.6927 9.35181 18.8811C8.89684 19.0696 8.40921 19.1666 7.91675 19.1666C7.42429 19.1666 6.93666 19.0696 6.48169 18.8811C6.02672 18.6927 5.61332 18.4165 5.2651 18.0682C4.91688 17.72 4.64065 17.3066 4.4522 16.8516C4.26374 16.3967 4.16675 15.909 4.16675 15.4166C4.16675 14.9563 4.53984 14.5833 5.00008 14.5833C5.46032 14.5833 5.83341 14.9563 5.83341 15.4166C5.83341 15.6902 5.8873 15.9611 5.992 16.2138C6.0967 16.4666 6.25015 16.6963 6.44361 16.8897C6.63706 17.0832 6.86673 17.2366 7.11949 17.3413C7.37225 17.446 7.64316 17.4999 7.91675 17.4999C8.19033 17.4999 8.46124 17.446 8.71401 17.3413C8.96677 17.2366 9.19643 17.0832 9.38989 16.8897C9.58334 16.6963 9.7368 16.4666 9.8415 16.2138C9.94619 15.9611 10.0001 15.6902 10.0001 15.4166C10.0001 14.3398 10.416 13.5293 10.982 12.8691C11.4095 12.3703 11.9586 11.9226 12.457 11.5163C12.5749 11.4202 12.69 11.3264 12.7999 11.2347C13.41 10.7264 13.9488 10.2234 14.3441 9.58649C14.7292 8.96616 15.0001 8.18143 15.0001 7.08325C15.0001 5.86768 14.5172 4.70189 13.6577 3.84235C12.7981 2.9828 11.6323 2.49992 10.4167 2.49992Z" fill="black"/>
<path fill-rule="evenodd" clip-rule="evenodd" d="M8.35427 5.02102C8.90125 4.47404 9.64312 4.16675 10.4167 4.16675C11.1902 4.16675 11.9321 4.47404 12.4791 5.02102C13.026 5.568 13.3333 6.30987 13.3333 7.08341C13.3333 7.54365 12.9602 7.91675 12.5 7.91675C12.0398 7.91675 11.6667 7.54365 11.6667 7.08341C11.6667 6.75189 11.535 6.43395 11.3006 6.19953C11.0661 5.96511 10.7482 5.83341 10.4167 5.83341C10.0851 5.83341 9.7672 5.96511 9.53278 6.19953C9.29836 6.43395 9.16667 6.75189 9.16667 7.08341V7.22639C9.51492 7.34952 9.83493 7.54948 10.1011 7.81565C10.5699 8.28449 10.8333 8.92037 10.8333 9.58341C10.8333 10.2465 10.5699 10.8823 10.1011 11.3512C9.63226 11.82 8.99638 12.0834 8.33333 12.0834C7.8731 12.0834 7.5 11.7103 7.5 11.2501C7.5 10.7898 7.8731 10.4167 8.33333 10.4167C8.55435 10.4167 8.76631 10.329 8.92259 10.1727C9.07887 10.0164 9.16667 9.80443 9.16667 9.58341C9.16667 9.3624 9.07887 9.15044 8.92259 8.99416C8.76631 8.83788 8.55435 8.75008 8.33333 8.75008C7.8731 8.75008 7.5 8.37699 7.5 7.91675V7.08341C7.5 6.30987 7.80729 5.568 8.35427 5.02102Z" fill="black"/>
</svg>
