<svg width="20" height="20" viewBox="0 0 20 20" fill="none" xmlns="http://www.w3.org/2000/svg">
<g clip-path="url(#clip0_2001_6413)">
<path fill-rule="evenodd" clip-rule="evenodd" d="M12.399 12.399C12.8678 11.9301 13.5037 11.6667 14.1667 11.6667H17.9501C18.4103 11.6667 18.7834 12.0398 18.7834 12.5001C18.7834 12.9603 18.4103 13.3334 17.9501 13.3334H14.1667C13.9457 13.3334 13.7338 13.4212 13.5775 13.5775C13.4212 13.7338 13.3334 13.9457 13.3334 14.1667V17.9501C13.3334 18.4103 12.9603 18.7834 12.5001 18.7834C12.0398 18.7834 11.6667 18.4103 11.6667 17.9501V14.1667C11.6667 13.5037 11.9301 12.8678 12.399 12.399Z" fill="black"/>
<path fill-rule="evenodd" clip-rule="evenodd" d="M5.83333 1.94995C6.29357 1.94995 6.66667 2.32305 6.66667 2.78328V4.16662C6.66667 4.60864 6.84226 5.03257 7.15482 5.34513C7.46738 5.65769 7.89131 5.83328 8.33333 5.83328C8.99638 5.83328 9.63226 6.09668 10.1011 6.56552C10.5699 7.03436 10.8333 7.67024 10.8333 8.33328C10.8333 8.78971 11.2102 9.16662 11.6667 9.16662C11.8877 9.16662 12.0996 9.07882 12.2559 8.92254C12.4122 8.76626 12.5 8.5543 12.5 8.33328C12.5 6.95638 13.6231 5.83328 15 5.83328H17.6417C18.1019 5.83328 18.475 6.20638 18.475 6.66662C18.475 7.12685 18.1019 7.49995 17.6417 7.49995H15C14.5436 7.49995 14.1667 7.87685 14.1667 8.33328C14.1667 8.99633 13.9033 9.63221 13.4344 10.1011C12.9656 10.5699 12.3297 10.8333 11.6667 10.8333C10.2898 10.8333 9.16667 9.71019 9.16667 8.33328C9.16667 8.11227 9.07887 7.90031 8.92259 7.74403C8.76631 7.58775 8.55435 7.49995 8.33333 7.49995C7.44928 7.49995 6.60143 7.14876 5.97631 6.52364C5.35119 5.89852 5 5.05067 5 4.16662V2.78328C5 2.32305 5.3731 1.94995 5.83333 1.94995Z" fill="black"/>
<path fill-rule="evenodd" clip-rule="evenodd" d="M0.875 9.16659C0.875 8.70635 1.2481 8.33325 1.70833 8.33325H4.16667C4.82971 8.33325 5.46559 8.59664 5.93443 9.06549C6.40328 9.53433 6.66667 10.1702 6.66667 10.8333V11.6666C6.66667 11.8876 6.75446 12.0996 6.91075 12.2558C7.06703 12.4121 7.27899 12.4999 7.5 12.4999C8.16304 12.4999 8.79893 12.7633 9.26777 13.2322C9.73661 13.701 10 14.3369 10 14.9999V18.2916C10 18.7518 9.6269 19.1249 9.16667 19.1249C8.70643 19.1249 8.33333 18.7518 8.33333 18.2916V14.9999C8.33333 14.7789 8.24554 14.5669 8.08926 14.4107C7.93297 14.2544 7.72101 14.1666 7.5 14.1666C6.83696 14.1666 6.20107 13.9032 5.73223 13.4344C5.26339 12.9655 5 12.3296 5 11.6666V10.8333C5 10.6122 4.9122 10.4003 4.75592 10.244C4.59964 10.0877 4.38768 9.99992 4.16667 9.99992H1.70833C1.2481 9.99992 0.875 9.62682 0.875 9.16659Z" fill="black"/>
<path fill-rule="evenodd" clip-rule="evenodd" d="M9.99992 2.49992C5.85778 2.49992 2.49992 5.85778 2.49992 9.99992C2.49992 14.1421 5.85778 17.4999 9.99992 17.4999C14.1421 17.4999 17.4999 14.1421 17.4999 9.99992C17.4999 5.85778 14.1421 2.49992 9.99992 2.49992ZM0.833252 9.99992C0.833252 4.93731 4.93731 0.833252 9.99992 0.833252C15.0625 0.833252 19.1666 4.93731 19.1666 9.99992C19.1666 15.0625 15.0625 19.1666 9.99992 19.1666C4.93731 19.1666 0.833252 15.0625 0.833252 9.99992Z" fill="black"/>
</g>
<defs>
<clipPath id="clip0_2001_6413">
<rect width="20" height="20" fill="white"/>
</clipPath>
</defs>
</svg>
