<svg width="20" height="20" viewBox="0 0 20 20" fill="none" xmlns="http://www.w3.org/2000/svg">
<g clip-path="url(#clip0_2001_6406)">
<path fill-rule="evenodd" clip-rule="evenodd" d="M5.83333 1.94995C6.29357 1.94995 6.66667 2.32305 6.66667 2.78328V4.16662C6.66667 4.60864 6.84226 5.03257 7.15482 5.34513C7.46738 5.65769 7.89131 5.83328 8.33333 5.83328C8.79357 5.83328 9.16667 6.20638 9.16667 6.66662C9.16667 7.12685 8.79357 7.49995 8.33333 7.49995C7.44928 7.49995 6.60143 7.14876 5.97631 6.52364C5.35119 5.89852 5 5.05067 5 4.16662V2.78328C5 2.32305 5.3731 1.94995 5.83333 1.94995Z" fill="black"/>
<path fill-rule="evenodd" clip-rule="evenodd" d="M0.875 9.16659C0.875 8.70635 1.2481 8.33325 1.70833 8.33325H4.16667C4.82971 8.33325 5.46559 8.59664 5.93443 9.06549C6.40328 9.53433 6.66667 10.1702 6.66667 10.8333V11.6666C6.66667 11.8876 6.75446 12.0996 6.91075 12.2558C7.06703 12.4121 7.27899 12.4999 7.5 12.4999C8.16304 12.4999 8.79893 12.7633 9.26777 13.2322C9.73661 13.701 10 14.3369 10 14.9999V18.2916C10 18.7518 9.6269 19.1249 9.16667 19.1249C8.70643 19.1249 8.33333 18.7518 8.33333 18.2916V14.9999C8.33333 14.7789 8.24554 14.5669 8.08926 14.4107C7.93297 14.2544 7.72101 14.1666 7.5 14.1666C6.83696 14.1666 6.20107 13.9032 5.73223 13.4344C5.26339 12.9655 5 12.3296 5 11.6666V10.8333C5 10.6122 4.9122 10.4003 4.75592 10.244C4.59964 10.0877 4.38768 9.99992 4.16667 9.99992H1.70833C1.2481 9.99992 0.875 9.62682 0.875 9.16659Z" fill="black"/>
<path fill-rule="evenodd" clip-rule="evenodd" d="M12.399 12.399C12.8678 11.9301 13.5037 11.6667 14.1667 11.6667H17.9501C18.4103 11.6667 18.7834 12.0398 18.7834 12.5001C18.7834 12.9603 18.4103 13.3334 17.9501 13.3334H14.1667C13.9457 13.3334 13.7338 13.4212 13.5775 13.5775C13.4212 13.7338 13.3334 13.9457 13.3334 14.1667V17.9501C13.3334 18.4103 12.9603 18.7834 12.5001 18.7834C12.0398 18.7834 11.6667 18.4103 11.6667 17.9501V14.1667C11.6667 13.5037 11.9301 12.8678 12.399 12.399Z" fill="black"/>
<path fill-rule="evenodd" clip-rule="evenodd" d="M5.20118 2.18998C6.64463 1.30298 8.30565 0.833355 9.99985 0.833252C10.4601 0.833224 10.8332 1.2063 10.8332 1.66653C10.8333 2.12677 10.4602 2.49989 9.99995 2.49992C8.61379 2.5 7.25477 2.88424 6.07377 3.60997C4.89277 4.3357 3.93599 5.37453 3.30967 6.61112C2.68334 7.84771 2.41198 9.23369 2.52569 10.6152C2.6394 11.9967 3.13375 13.3196 3.95385 14.4372C4.77395 15.5547 5.88771 16.4231 7.17149 16.9459C8.45527 17.4688 9.85882 17.6256 11.2263 17.399C12.5939 17.1725 13.8718 16.5713 14.9184 15.6624C15.9649 14.7534 16.7391 13.5722 17.155 12.2499C17.293 11.8109 17.7609 11.5669 18.1999 11.705C18.6389 11.843 18.8829 12.3109 18.7449 12.7499C18.2366 14.3661 17.2904 15.8098 16.0113 16.9207C14.7322 18.0316 13.1702 18.7664 11.4988 19.0433C9.82736 19.3202 8.1119 19.1285 6.54284 18.4895C4.97378 17.8505 3.61252 16.7891 2.61017 15.4232C1.60783 14.0573 1.00363 12.4404 0.864641 10.7519C0.725657 9.06342 1.05733 7.36945 1.82284 5.85805C2.58834 4.34666 3.75773 3.07698 5.20118 2.18998Z" fill="black"/>
<path fill-rule="evenodd" clip-rule="evenodd" d="M13.2322 1.56549C13.7011 1.09664 14.337 0.833252 15 0.833252C15.663 0.833252 16.2989 1.09664 16.7678 1.56549C17.2366 2.03433 17.5 2.67021 17.5 3.33325V4.99992C17.5 5.46016 17.1269 5.83325 16.6667 5.83325C16.2064 5.83325 15.8333 5.46016 15.8333 4.99992V3.33325C15.8333 3.11224 15.7455 2.90028 15.5893 2.744C15.433 2.58772 15.221 2.49992 15 2.49992C14.779 2.49992 14.567 2.58772 14.4107 2.744C14.2545 2.90028 14.1667 3.11224 14.1667 3.33325V4.99992C14.1667 5.46016 13.7936 5.83325 13.3333 5.83325C12.8731 5.83325 12.5 5.46016 12.5 4.99992V3.33325C12.5 2.67021 12.7634 2.03433 13.2322 1.56549Z" fill="black"/>
<path fill-rule="evenodd" clip-rule="evenodd" d="M12.4999 5.83341V8.33342H17.4999V5.83341H12.4999ZM17.501 8.33337C17.501 8.33337 17.501 8.33337 17.5009 8.33338L17.501 8.33337ZM12.4989 8.33338C12.4989 8.33337 12.4989 8.33337 12.4989 8.33337L12.4989 8.33338ZM10.8333 5.83341C10.8333 4.91294 11.5794 4.16675 12.4999 4.16675H17.4999C18.4204 4.16675 19.1666 4.91294 19.1666 5.83341V8.33342C19.1666 9.25389 18.4204 10.0001 17.4999 10.0001H12.4999C11.5794 10.0001 10.8333 9.25389 10.8333 8.33342V5.83341Z" fill="black"/>
</g>
<defs>
<clipPath id="clip0_2001_6406">
<rect width="20" height="20" fill="white"/>
</clipPath>
</defs>
</svg>
