<svg width="20" height="20" viewBox="0 0 20 20" fill="none" xmlns="http://www.w3.org/2000/svg">
<g clip-path="url(#clip0_2001_6418)">
<path fill-rule="evenodd" clip-rule="evenodd" d="M9.99992 2.49992C5.85778 2.49992 2.49992 5.85778 2.49992 9.99992C2.49992 14.1421 5.85778 17.4999 9.99992 17.4999C14.1421 17.4999 17.4999 14.1421 17.4999 9.99992C17.4999 5.85778 14.1421 2.49992 9.99992 2.49992ZM0.833252 9.99992C0.833252 4.93731 4.93731 0.833252 9.99992 0.833252C15.0625 0.833252 19.1666 4.93731 19.1666 9.99992C19.1666 15.0625 15.0625 19.1666 9.99992 19.1666C4.93731 19.1666 0.833252 15.0625 0.833252 9.99992Z" fill="black"/>
<path fill-rule="evenodd" clip-rule="evenodd" d="M10.5894 1.07733C10.9148 1.40277 10.9148 1.9304 10.5894 2.25584C9.64061 3.20463 9.10758 4.49146 9.10758 5.83325C9.10758 7.17504 9.64061 8.46187 10.5894 9.41066C11.5382 10.3595 12.825 10.8925 14.1668 10.8925C15.5086 10.8925 16.7954 10.3595 17.7442 9.41066C18.0697 9.08523 18.5973 9.08523 18.9227 9.41066C19.2482 9.7361 19.2482 10.2637 18.9227 10.5892C17.6614 11.8505 15.9506 12.5591 14.1668 12.5591C12.383 12.5591 10.6722 11.8505 9.41089 10.5892C8.14954 9.32783 7.44092 7.61707 7.44092 5.83325C7.44092 4.04944 8.14954 2.33868 9.41089 1.07733C9.73632 0.751893 10.264 0.751893 10.5894 1.07733Z" fill="black"/>
</g>
<defs>
<clipPath id="clip0_2001_6418">
<rect width="20" height="20" fill="white"/>
</clipPath>
</defs>
</svg>
