<svg width="20" height="20" viewBox="0 0 20 20" fill="none" xmlns="http://www.w3.org/2000/svg">
<g clip-path="url(#clip0_2001_6421)">
<path fill-rule="evenodd" clip-rule="evenodd" d="M9.58325 8.33341C8.43266 8.33341 7.49992 9.26616 7.49992 10.4167C7.49992 11.5673 8.43266 12.5001 9.58325 12.5001C10.7338 12.5001 11.6666 11.5673 11.6666 10.4167C11.6666 9.26616 10.7338 8.33341 9.58325 8.33341ZM5.83325 10.4167C5.83325 8.34568 7.51218 6.66675 9.58325 6.66675C11.6543 6.66675 13.3333 8.34568 13.3333 10.4167C13.3333 12.4878 11.6543 14.1667 9.58325 14.1667C7.51218 14.1667 5.83325 12.4878 5.83325 10.4167Z" fill="black"/>
<path fill-rule="evenodd" clip-rule="evenodd" d="M4.53044 3.67868C3.77604 4.39117 3.33325 5.41393 3.33325 6.66659C3.33325 6.94367 3.39616 7.22538 3.49405 7.66368C3.50299 7.70374 3.51223 7.7451 3.52174 7.78789C3.62895 8.27032 3.74992 8.86384 3.74992 9.58325C3.74992 10.5758 3.38241 11.1716 3.09668 11.6348C3.06533 11.6856 3.03496 11.7348 3.00616 11.7828C2.75215 12.2062 2.49992 12.6844 2.49992 13.7499C2.49992 14.8938 3.05943 15.8041 3.97387 16.4572C4.90519 17.1225 6.18742 17.4999 7.49992 17.4999C8.12398 17.4999 8.55496 17.3897 8.8823 17.2453C9.21633 17.0979 9.48305 16.898 9.77893 16.6514C9.82949 16.6093 9.88137 16.5651 9.9349 16.5194C10.4926 16.0441 11.2289 15.4166 12.4999 15.4166C14.2691 15.4166 15.491 15.0213 16.2672 14.3268C17.0256 13.6482 17.4999 12.5557 17.4999 10.8333C17.4999 10.0784 17.3897 9.57487 17.2318 9.21456C17.0781 8.8637 16.858 8.59995 16.5565 8.3531C16.2368 8.09146 15.8484 7.86502 15.3389 7.57011L15.3384 7.56988C14.8456 7.2846 14.2674 6.94995 13.667 6.50022C13.0253 6.01957 12.5643 5.48522 12.1796 4.99082C12.0466 4.81993 11.9288 4.6627 11.8182 4.51503C11.5902 4.21068 11.3926 3.94693 11.1553 3.68788C10.8316 3.33465 10.4823 3.05178 10.0097 2.84916C9.53053 2.64373 8.87546 2.49992 7.91659 2.49992C6.42492 2.49992 5.28781 2.96339 4.53044 3.67868ZM3.38607 2.46699C4.5037 1.41145 6.07492 0.833252 7.91659 0.833252C9.04104 0.833252 9.93076 1.00194 10.6664 1.31734C11.4087 1.63556 11.9442 2.08186 12.3841 2.56195C12.6789 2.88363 12.9563 3.25355 13.2086 3.58991C13.3082 3.72263 13.4038 3.85011 13.495 3.96735C13.8398 4.41045 14.1953 4.8136 14.6662 5.16629C15.1781 5.54977 15.6769 5.84005 16.1737 6.12764L16.2146 6.15129C16.6831 6.42237 17.1808 6.71033 17.6121 7.06341C18.0741 7.44156 18.4785 7.90698 18.7584 8.54569C19.0341 9.17497 19.1666 9.92142 19.1666 10.8333C19.1666 12.8608 18.5993 14.4766 17.3785 15.5689C16.1755 16.6452 14.4807 17.0833 12.4999 17.0833C11.8584 17.0833 11.5618 17.3319 10.983 17.8171C10.939 17.8539 10.8934 17.8922 10.8459 17.9318C10.5168 18.206 10.1064 18.5269 9.55504 18.7702C8.99696 19.0164 8.33419 19.1666 7.49992 19.1666C5.89575 19.1666 4.26131 18.7107 3.00514 17.8134C1.73208 16.9041 0.833252 15.5227 0.833252 13.7499C0.833252 12.3154 1.20602 11.5436 1.57701 10.9253C1.61058 10.8694 1.64251 10.8168 1.67281 10.767C1.94377 10.3211 2.08325 10.0916 2.08325 9.58325C2.08325 9.05267 1.99589 8.60452 1.89476 8.14944C1.88457 8.10356 1.87392 8.05653 1.86305 8.00848C1.77282 7.60982 1.66659 7.14039 1.66659 6.66659C1.66659 5.00257 2.26547 3.52533 3.38607 2.46699Z" fill="black"/>
</g>
<defs>
<clipPath id="clip0_2001_6421">
<rect width="20" height="20" fill="white"/>
</clipPath>
</defs>
</svg>
