<svg width="20" height="20" viewBox="0 0 20 20" fill="none" xmlns="http://www.w3.org/2000/svg">
<g clip-path="url(#clip0_2001_6424)">
<path fill-rule="evenodd" clip-rule="evenodd" d="M5.75592 4.61472C6.15233 4.84856 6.28412 5.35947 6.05029 5.75588C5.23672 7.13511 4.69319 8.70838 4.58051 10.0688L4.58047 10.0693C4.43522 11.8084 4.69409 13.6921 5.53059 15.1125C6.33472 16.478 7.70372 17.4796 10.0001 17.5C12.3947 17.4788 13.7884 16.3892 14.5784 14.9182C14.7961 14.5127 15.3013 14.3606 15.7068 14.5783C16.1123 14.7961 16.2644 15.3013 16.0467 15.7068C14.9774 17.6977 13.0346 19.1425 10.0067 19.1666C10.0022 19.1667 9.99778 19.1667 9.99334 19.1666C7.10202 19.1434 5.19372 17.8249 4.09446 15.9583C3.02685 14.1454 2.75653 11.8834 2.91956 9.93089C2.91957 9.9308 2.91958 9.93072 2.91958 9.93063C3.05701 8.27285 3.7001 6.45969 4.61476 4.9091C4.84859 4.51269 5.35951 4.38089 5.75592 4.61472Z" fill="black"/>
<path fill-rule="evenodd" clip-rule="evenodd" d="M9.99049 0.833307C9.99683 0.833234 10.0032 0.833233 10.0095 0.833305C11.903 0.85464 13.6041 2.3206 14.8015 4.00707C16.0286 5.73549 16.9163 7.95053 17.0806 9.93083C17.0806 9.9309 17.0806 9.93096 17.0806 9.93103C17.1273 10.4874 17.1368 11.0462 17.1091 11.6038C17.0863 12.0634 16.6951 12.4176 16.2354 12.3947C15.7758 12.3719 15.4216 11.9808 15.4445 11.5211C15.4685 11.0373 15.4602 10.5524 15.4197 10.0696L15.4196 10.0688C15.2839 8.43249 14.5257 6.49762 13.4425 4.97193C12.3328 3.40889 11.0631 2.51717 10.0002 2.5C9.39218 2.50994 8.70563 2.80179 7.99197 3.39033C7.63691 3.68315 7.11169 3.63269 6.81887 3.27762C6.52604 2.92255 6.57651 2.39733 6.93157 2.10451C7.82086 1.37112 8.86754 0.846265 9.99049 0.833307Z" fill="black"/>
<path fill-rule="evenodd" clip-rule="evenodd" d="M1.07733 1.07733C1.40277 0.751893 1.9304 0.751893 2.25584 1.07733L18.9225 17.744C19.2479 18.0694 19.2479 18.5971 18.9225 18.9225C18.5971 19.2479 18.0694 19.2479 17.744 18.9225L1.07733 2.25584C0.751893 1.9304 0.751893 1.40277 1.07733 1.07733Z" fill="black"/>
</g>
<defs>
<clipPath id="clip0_2001_6424">
<rect width="20" height="20" fill="white"/>
</clipPath>
</defs>
</svg>
