<svg width="20" height="20" viewBox="0 0 20 20" fill="none" xmlns="http://www.w3.org/2000/svg">
<path fill-rule="evenodd" clip-rule="evenodd" d="M9.99064 0.833305C9.9969 0.833234 10.0032 0.833234 10.0094 0.833305C11.9029 0.85464 13.604 2.3206 14.8014 4.00707C16.0286 5.73555 16.9162 7.95068 17.0805 9.93103C17.2435 11.8835 16.9732 14.1454 15.9056 15.9582C14.8063 17.8248 12.898 19.1434 10.0067 19.1666C10.0023 19.1666 9.9978 19.1666 9.99334 19.1666C7.10202 19.1434 5.19372 17.8248 4.09446 15.9582C3.02688 14.1454 2.75654 11.8835 2.91954 9.93103C2.91955 9.93095 2.91956 9.93088 2.91956 9.9308C2.91957 9.93072 2.91958 9.93064 2.91958 9.93056C3.08395 7.95033 3.97156 5.73541 5.19866 4.00707C6.39603 2.3206 8.09715 0.85464 9.99064 0.833305ZM6.55764 4.97193C5.47442 6.49762 4.71624 8.43249 4.58051 10.0688L4.58047 10.0693C4.43522 11.8084 4.69409 13.692 5.53059 15.1125C6.33471 16.4779 7.7037 17.4795 10 17.4999C12.2963 17.4795 13.6653 16.4779 14.4695 15.1125C15.306 13.692 15.5648 11.8084 15.4196 10.0693L15.4195 10.0688C15.2838 8.43249 14.5256 6.49762 13.4424 4.97193C12.3326 3.40884 11.063 2.51711 10 2.49999C8.93708 2.51711 7.66741 3.40884 6.55764 4.97193Z" fill="black"/>
</svg>
