<svg width="20" height="20" viewBox="0 0 20 20" fill="none" xmlns="http://www.w3.org/2000/svg">
<path fill-rule="evenodd" clip-rule="evenodd" d="M3.33325 7.50008C3.33325 7.03984 3.70635 6.66675 4.16659 6.66675H15.8333C16.2935 6.66675 16.6666 7.03984 16.6666 7.50008C16.6666 7.96032 16.2935 8.33341 15.8333 8.33341H4.16659C3.70635 8.33341 3.33325 7.96032 3.33325 7.50008Z" fill="black"/>
<path fill-rule="evenodd" clip-rule="evenodd" d="M3.33325 12.5001C3.33325 12.0398 3.70635 11.6667 4.16659 11.6667H15.8333C16.2935 11.6667 16.6666 12.0398 16.6666 12.5001C16.6666 12.9603 16.2935 13.3334 15.8333 13.3334H4.16659C3.70635 13.3334 3.33325 12.9603 3.33325 12.5001Z" fill="black"/>
<path fill-rule="evenodd" clip-rule="evenodd" d="M16.4225 3.57733C16.7479 3.90277 16.7479 4.4304 16.4225 4.75584L4.75584 16.4225C4.4304 16.7479 3.90277 16.7479 3.57733 16.4225C3.25189 16.0971 3.25189 15.5694 3.57733 15.244L15.244 3.57733C15.5694 3.25189 16.0971 3.25189 16.4225 3.57733Z" fill="black"/>
</svg>
