<svg width="20" height="20" viewBox="0 0 20 20" fill="none" xmlns="http://www.w3.org/2000/svg">
<path fill-rule="evenodd" clip-rule="evenodd" d="M12.4638 3.64081C12.0612 3.19351 11.3652 3.14649 10.8391 3.6726L2.8391 11.6726C2.82877 11.6829 2.81817 11.693 2.80732 11.7028C2.36002 12.1053 2.31299 12.8013 2.8391 13.3274L6.42244 16.9108C6.74787 17.2362 6.74787 17.7638 6.42244 18.0893C6.097 18.4147 5.56936 18.4147 5.24392 18.0893L1.66059 14.5059C0.525544 13.3709 0.473489 11.5788 1.6748 10.4799L9.66059 2.49409C10.7956 1.35904 12.5878 1.30699 13.6866 2.5083L18.3391 7.16075C19.4741 8.2958 19.5262 10.0879 18.3249 11.1868L11.4224 18.0893C11.097 18.4147 10.5694 18.4147 10.2439 18.0893C9.91849 17.7638 9.91849 17.2362 10.2439 16.9108L17.1606 9.99409C17.1709 9.98376 17.1815 9.9737 17.1924 9.96393C17.6397 9.56136 17.6867 8.86538 17.1606 8.33926L12.4939 3.6726C12.4836 3.66227 12.4735 3.65167 12.4638 3.64081Z" fill="black"/>
<path fill-rule="evenodd" clip-rule="evenodd" d="M5 17.5001C5 17.0398 5.3731 16.6667 5.83333 16.6667H18.3333C18.7936 16.6667 19.1667 17.0398 19.1667 17.5001C19.1667 17.9603 18.7936 18.3334 18.3333 18.3334H5.83333C5.3731 18.3334 5 17.9603 5 17.5001Z" fill="black"/>
<path fill-rule="evenodd" clip-rule="evenodd" d="M3.57733 8.57733C3.90277 8.25189 4.4304 8.25189 4.75584 8.57733L12.2558 16.0773C12.5813 16.4028 12.5813 16.9304 12.2558 17.2558C11.9304 17.5813 11.4028 17.5813 11.0773 17.2558L3.57733 9.75584C3.25189 9.4304 3.25189 8.90277 3.57733 8.57733Z" fill="black"/>
</svg>
