<svg width="20" height="20" viewBox="0 0 20 20" fill="none" xmlns="http://www.w3.org/2000/svg">
<path fill-rule="evenodd" clip-rule="evenodd" d="M1.56549 3.23223C2.03433 2.76339 2.67021 2.5 3.33325 2.5H16.6666C17.3296 2.5 17.9655 2.76339 18.4344 3.23223C18.9032 3.70107 19.1666 4.33696 19.1666 5V12.5C19.1666 13.163 18.9032 13.7989 18.4344 14.2678C17.9655 14.7366 17.3296 15 16.6666 15H15.3451L13.0892 17.2559C12.9329 17.4122 12.7209 17.5 12.4999 17.5H7.49992C7.2789 17.5 7.06694 17.4122 6.91066 17.2559L4.65474 15H3.33325C2.67021 15 2.03433 14.7366 1.56549 14.2678C1.09664 13.7989 0.833252 13.163 0.833252 12.5V5C0.833252 4.33696 1.09664 3.70107 1.56549 3.23223ZM3.33325 4.16667C3.11224 4.16667 2.90028 4.25446 2.744 4.41074C2.58772 4.56702 2.49992 4.77899 2.49992 5V12.5C2.49992 12.721 2.58772 12.933 2.744 13.0893C2.90028 13.2455 3.11224 13.3333 3.33325 13.3333H4.99992C5.22093 13.3333 5.43289 13.4211 5.58917 13.5774L7.8451 15.8333H12.1547L14.4107 13.5774C14.5669 13.4211 14.7789 13.3333 14.9999 13.3333H16.6666C16.8876 13.3333 17.0996 13.2455 17.2558 13.0893C17.4121 12.933 17.4999 12.721 17.4999 12.5V5C17.4999 4.77899 17.4121 4.56702 17.2558 4.41074C17.0996 4.25446 16.8876 4.16667 16.6666 4.16667H3.33325Z" fill="black"/>
<path fill-rule="evenodd" clip-rule="evenodd" d="M5.00008 5.83325C5.46032 5.83325 5.83341 6.20635 5.83341 6.66659V7.49992C5.83341 7.96016 5.46032 8.33325 5.00008 8.33325C4.53984 8.33325 4.16675 7.96016 4.16675 7.49992V6.66659C4.16675 6.20635 4.53984 5.83325 5.00008 5.83325Z" fill="black"/>
<path fill-rule="evenodd" clip-rule="evenodd" d="M8.33333 5.83325C8.79357 5.83325 9.16667 6.20635 9.16667 6.66659V7.49992C9.16667 7.96016 8.79357 8.33325 8.33333 8.33325C7.8731 8.33325 7.5 7.96016 7.5 7.49992V6.66659C7.5 6.20635 7.8731 5.83325 8.33333 5.83325Z" fill="black"/>
<path fill-rule="evenodd" clip-rule="evenodd" d="M11.6666 5.83325C12.1268 5.83325 12.4999 6.20635 12.4999 6.66659V7.49992C12.4999 7.96016 12.1268 8.33325 11.6666 8.33325C11.2063 8.33325 10.8333 7.96016 10.8333 7.49992V6.66659C10.8333 6.20635 11.2063 5.83325 11.6666 5.83325Z" fill="black"/>
<path fill-rule="evenodd" clip-rule="evenodd" d="M15.0001 5.83325C15.4603 5.83325 15.8334 6.20635 15.8334 6.66659V7.49992C15.8334 7.96016 15.4603 8.33325 15.0001 8.33325C14.5398 8.33325 14.1667 7.96016 14.1667 7.49992V6.66659C14.1667 6.20635 14.5398 5.83325 15.0001 5.83325Z" fill="black"/>
</svg>
