<svg width="20" height="20" viewBox="0 0 20 20" fill="none" xmlns="http://www.w3.org/2000/svg">
<path fill-rule="evenodd" clip-rule="evenodd" d="M2.5 8.33333C2.5 7.8731 2.8731 7.5 3.33333 7.5H13.3333C13.7936 7.5 14.1667 7.8731 14.1667 8.33333C14.1667 8.79357 13.7936 9.16667 13.3333 9.16667H3.33333C2.8731 9.16667 2.5 8.79357 2.5 8.33333Z" fill="black"/>
<path fill-rule="evenodd" clip-rule="evenodd" d="M2.5 11.6666C2.5 11.2063 2.8731 10.8333 3.33333 10.8333H10.8333C11.2936 10.8333 11.6667 11.2063 11.6667 11.6666C11.6667 12.1268 11.2936 12.4999 10.8333 12.4999H3.33333C2.8731 12.4999 2.5 12.1268 2.5 11.6666Z" fill="black"/>
<path fill-rule="evenodd" clip-rule="evenodd" d="M11.4976 2.50003C13.3075 2.49461 15.054 3.16632 16.3937 4.38315C16.7344 4.69258 16.7598 5.21961 16.4503 5.5603C16.1409 5.90099 15.6139 5.92634 15.2732 5.61691C14.2424 4.6807 12.899 4.1635 11.5066 4.16668C10.7529 4.17669 10.0084 4.3348 9.31565 4.63205C8.62165 4.92983 7.99312 5.36139 7.46593 5.9021C6.93874 6.44281 6.52322 7.08207 6.24311 7.78337C5.963 8.48468 5.82377 9.2343 5.83339 9.98941C5.83344 9.99295 5.83346 9.99649 5.83346 10C5.83346 13.2272 8.39748 15.8334 11.5001 15.8334C12.9379 15.8334 14.2511 15.2588 15.2911 14.3673C15.6406 14.0678 16.1667 14.1083 16.4662 14.4577C16.7657 14.8071 16.7252 15.3332 16.3758 15.6327C15.0825 16.7413 13.3956 17.5 11.5001 17.5C7.43786 17.5 4.16961 14.1091 4.1668 10.0053C4.15511 9.03314 4.33469 8.06811 4.69533 7.16517C5.05664 6.26059 5.59259 5.43603 6.27259 4.7386C6.95259 4.04116 7.76331 3.48451 8.65846 3.10042C9.55361 2.71634 10.5157 2.51235 11.4896 2.50009C11.4923 2.50006 11.495 2.50004 11.4976 2.50003Z" fill="black"/>
</svg>
