<svg width="20" height="20" viewBox="0 0 20 20" fill="none" xmlns="http://www.w3.org/2000/svg">
<path fill-rule="evenodd" clip-rule="evenodd" d="M11.9108 11.9108C12.2363 11.5854 12.7639 11.5854 13.0893 11.9108L16.6667 15.4882V13.5001C16.6667 13.0398 17.0398 12.6667 17.5001 12.6667C17.9603 12.6667 18.3334 13.0398 18.3334 13.5001V17.5001C18.3334 17.9603 17.9603 18.3334 17.5001 18.3334H13.5001C13.0398 18.3334 12.6667 17.9603 12.6667 17.5001C12.6667 17.0398 13.0398 16.6667 13.5001 16.6667H15.4882L11.9108 13.0893C11.5854 12.7639 11.5854 12.2363 11.9108 11.9108Z" fill="black"/>
<path fill-rule="evenodd" clip-rule="evenodd" d="M8.08934 11.9108C8.41477 12.2363 8.41477 12.7639 8.08934 13.0893L4.51193 16.6667H6.50008C6.96032 16.6667 7.33341 17.0398 7.33341 17.5001C7.33341 17.9603 6.96032 18.3334 6.50008 18.3334H2.50008C2.03984 18.3334 1.66675 17.9603 1.66675 17.5001V13.5001C1.66675 13.0398 2.03984 12.6667 2.50008 12.6667C2.96032 12.6667 3.33341 13.0398 3.33341 13.5001V15.4882L6.91083 11.9108C7.23626 11.5854 7.7639 11.5854 8.08934 11.9108Z" fill="black"/>
<path fill-rule="evenodd" clip-rule="evenodd" d="M13.5001 3.33341C13.0398 3.33341 12.6667 2.96032 12.6667 2.50008C12.6667 2.03984 13.0398 1.66675 13.5001 1.66675H17.5001C17.9603 1.66675 18.3334 2.03984 18.3334 2.50008V6.50008C18.3334 6.96032 17.9603 7.33341 17.5001 7.33341C17.0398 7.33341 16.6667 6.96032 16.6667 6.50008V4.51193L13.0893 8.08934C12.7639 8.41477 12.2363 8.41477 11.9108 8.08934C11.5854 7.7639 11.5854 7.23626 11.9108 6.91083L15.4882 3.33341H13.5001Z" fill="black"/>
<path fill-rule="evenodd" clip-rule="evenodd" d="M1.66675 2.50008C1.66675 2.03984 2.03984 1.66675 2.50008 1.66675H6.50008C6.96032 1.66675 7.33341 2.03984 7.33341 2.50008C7.33341 2.96032 6.96032 3.33341 6.50008 3.33341H4.51193L8.08934 6.91083C8.41477 7.23626 8.41477 7.7639 8.08934 8.08934C7.7639 8.41477 7.23626 8.41477 6.91083 8.08934L3.33341 4.51193V6.50008C3.33341 6.96032 2.96032 7.33341 2.50008 7.33341C2.03984 7.33341 1.66675 6.96032 1.66675 6.50008V2.50008Z" fill="black"/>
</svg>
