<svg width="26" height="22" viewBox="0 0 26 22" fill="none" xmlns="http://www.w3.org/2000/svg">
<path d="M12.7991 6.94737L16.5455 10.6063V10.4211C16.5455 9.49977 16.1719 8.61623 15.507 7.96479C14.8421 7.31334 13.9403 6.94737 13 6.94737H12.7991ZM7.71727 7.87368L9.54909 9.66842C9.49 9.91158 9.45455 10.1547 9.45455 10.4211C9.45455 11.3423 9.82808 12.2259 10.493 12.8773C11.1579 13.5288 12.0597 13.8947 13 13.8947C13.26 13.8947 13.52 13.86 13.7682 13.8021L15.6 15.5968C14.8082 15.9789 13.9336 16.2105 13 16.2105C11.4328 16.2105 9.92981 15.6006 8.82164 14.5148C7.71347 13.4291 7.09091 11.9565 7.09091 10.4211C7.09091 9.50632 7.32727 8.64947 7.71727 7.87368ZM1.18182 1.47053L3.87636 4.11053L4.40818 4.63158C2.45818 6.13684 0.921818 8.10526 0 10.4211C2.04455 15.5042 7.09091 19.1053 13 19.1053C14.8318 19.1053 16.5809 18.7579 18.1764 18.1326L18.6845 18.6189L22.1355 22L23.6364 20.5295L2.68273 0M13 4.63158C14.5672 4.63158 16.0702 5.24154 17.1784 6.32728C18.2865 7.41301 18.9091 8.88559 18.9091 10.4211C18.9091 11.1621 18.7555 11.88 18.4836 12.5284L21.9464 15.9211C23.7191 14.4737 25.1373 12.5747 26 10.4211C23.9555 5.33789 18.9091 1.73684 13 1.73684C11.3455 1.73684 9.76182 2.02632 8.27273 2.54737L10.8373 5.03684C11.5109 4.7821 12.2318 4.63158 13 4.63158Z" fill="#955EAB"/>
</svg>
