<svg width="20" height="20" viewBox="0 0 20 20" fill="none" xmlns="http://www.w3.org/2000/svg">
<g clip-path="url(#clip0_2001_6474)">
<path fill-rule="evenodd" clip-rule="evenodd" d="M14.113 6.1171C12.5839 5.21983 10.8031 4.84767 9.04262 5.05747C8.58562 5.11193 8.17099 4.78561 8.11653 4.32861C8.06207 3.8716 8.3884 3.45698 8.8454 3.40252C10.9672 3.14965 13.1135 3.59819 14.9565 4.67964C16.7995 5.76108 18.2378 7.41599 19.052 9.39166C19.0557 9.40076 19.0593 9.40993 19.0628 9.41916C19.2017 9.79335 19.2017 10.205 19.0628 10.5792C19.0593 10.5885 19.0557 10.5977 19.0519 10.6069C18.7171 11.4185 18.2747 12.1814 17.7366 12.875C17.4545 13.2386 16.931 13.3047 16.5673 13.0226C16.2037 12.7404 16.1376 12.217 16.4198 11.8533C16.8602 11.2857 17.2233 10.6622 17.4996 9.99915C16.8222 8.37209 15.6335 7.00935 14.113 6.1171Z" fill="black"/>
<path fill-rule="evenodd" clip-rule="evenodd" d="M8.78054 7.66386C9.11159 7.98359 9.12076 8.51115 8.80102 8.84219C8.49743 9.15653 8.32944 9.57753 8.33323 10.0145C8.33703 10.4515 8.51231 10.8695 8.82133 11.1786C9.13034 11.4876 9.54836 11.6629 9.98536 11.6666C10.4223 11.6704 10.8434 11.5025 11.1577 11.1989C11.4887 10.8791 12.0163 10.8883 12.336 11.2193C12.6558 11.5504 12.6466 12.0779 12.3155 12.3977C11.6869 13.0049 10.8449 13.3408 9.97087 13.3333C9.09688 13.3257 8.26084 12.9751 7.64281 12.3571C7.02479 11.739 6.67422 10.903 6.66663 10.029C6.65904 9.15502 6.99502 8.31301 7.60221 7.68434C7.92194 7.3533 8.4495 7.34413 8.78054 7.66386Z" fill="black"/>
<path fill-rule="evenodd" clip-rule="evenodd" d="M6.13979 4.99829C6.37493 5.39392 6.24482 5.90527 5.84918 6.1404C4.34665 7.03339 3.17238 8.38696 2.50031 9.99987C2.94458 11.0661 3.61113 12.0255 4.45562 12.8139C5.30741 13.6091 6.32029 14.2118 7.42553 14.5811C8.53077 14.9503 9.70252 15.0775 10.8613 14.9541C12.02 14.8306 13.1386 14.4593 14.1412 13.8654C14.5372 13.6308 15.0484 13.7617 15.2829 14.1577C15.5175 14.5536 15.3866 15.0648 14.9906 15.2994C13.7824 16.0151 12.4343 16.4625 11.0379 16.6113C9.64144 16.7602 8.22934 16.6068 6.89738 16.1618C5.56542 15.7168 4.34477 14.9905 3.31826 14.0321C2.29174 13.0738 1.48338 11.9058 0.948024 10.6076C0.944246 10.5984 0.940632 10.5892 0.937184 10.5799C0.798283 10.2057 0.798283 9.79407 0.937184 9.41987C0.940633 9.41058 0.944247 9.40135 0.948025 9.39219C1.75562 7.43372 3.17658 5.78999 4.99768 4.70767C5.39331 4.47254 5.90466 4.60265 6.13979 4.99829Z" fill="black"/>
<path fill-rule="evenodd" clip-rule="evenodd" d="M1.07733 1.07733C1.40277 0.751893 1.9304 0.751893 2.25584 1.07733L18.9225 17.744C19.2479 18.0694 19.2479 18.5971 18.9225 18.9225C18.5971 19.2479 18.0694 19.2479 17.744 18.9225L1.07733 2.25584C0.751893 1.9304 0.751893 1.40277 1.07733 1.07733Z" fill="black"/>
</g>
<defs>
<clipPath id="clip0_2001_6474">
<rect width="20" height="20" fill="white"/>
</clipPath>
</defs>
</svg>
