<svg width="20" height="20" viewBox="0 0 20 20" fill="none" xmlns="http://www.w3.org/2000/svg">
<path fill-rule="evenodd" clip-rule="evenodd" d="M11.7177 11.4783C12.167 11.3785 12.6121 11.6618 12.712 12.111L13.3136 14.8194C13.4134 15.2687 13.1301 15.7138 12.6808 15.8136C12.2316 15.9134 11.7864 15.6301 11.6866 15.1808L11.085 12.4725C10.9851 12.0232 11.2684 11.5781 11.7177 11.4783Z" fill="black"/>
<path fill-rule="evenodd" clip-rule="evenodd" d="M1.38114 5.88373C1.8135 5.72596 2.29188 5.94855 2.44965 6.3809C3.01469 7.92934 4.04215 9.26662 5.39276 10.2115C6.74337 11.1564 8.35183 11.6631 10.0001 11.6631C11.6485 11.6631 13.2569 11.1564 14.6075 10.2115C15.9581 9.26662 16.9856 7.92934 17.5506 6.3809C17.7084 5.94855 18.1868 5.72596 18.6191 5.88373C19.0515 6.0415 19.2741 6.51988 19.1163 6.95224C18.4341 8.82176 17.1936 10.4363 15.5629 11.5771C13.9322 12.7179 11.9903 13.3298 10.0001 13.3298C8.01003 13.3298 6.06804 12.7179 4.43737 11.5771C2.80669 10.4363 1.56618 8.82176 0.883972 6.95224C0.726202 6.51988 0.948794 6.0415 1.38114 5.88373Z" fill="black"/>
<path fill-rule="evenodd" clip-rule="evenodd" d="M14.6916 10.1541C15.0437 9.85771 15.5694 9.90281 15.8658 10.2549L17.3042 11.9632C17.6006 12.3153 17.5555 12.841 17.2034 13.1374C16.8514 13.4338 16.3257 13.3887 16.0292 13.0367L14.5909 11.3283C14.2945 10.9763 14.3396 10.4506 14.6916 10.1541Z" fill="black"/>
<path fill-rule="evenodd" clip-rule="evenodd" d="M5.30841 10.1541C5.66048 10.4506 5.70558 10.9763 5.40916 11.3283L3.97083 13.0367C3.6744 13.3887 3.1487 13.4338 2.79663 13.1374C2.44456 12.841 2.39945 12.3153 2.69588 11.9632L4.13421 10.2549C4.43063 9.90281 4.95634 9.85771 5.30841 10.1541Z" fill="black"/>
<path fill-rule="evenodd" clip-rule="evenodd" d="M8.2824 11.4783C8.73169 11.5781 9.01499 12.0232 8.91518 12.4725L8.31352 15.1808C8.21371 15.6301 7.76858 15.9134 7.31929 15.8136C6.87001 15.7138 6.5867 15.2687 6.68651 14.8194L7.28818 12.111C7.38799 11.6618 7.83312 11.3785 8.2824 11.4783Z" fill="black"/>
</svg>
