<svg width="20" height="20" viewBox="0 0 20 20" fill="none" xmlns="http://www.w3.org/2000/svg">
<path fill-rule="evenodd" clip-rule="evenodd" d="M10.0001 5.00041C8.391 5.00041 6.81814 5.47819 5.48091 6.37318C4.152 7.2626 3.11527 8.52426 2.50031 9.99989C3.11527 11.4755 4.152 12.7372 5.48091 13.6266C6.81814 14.5216 8.391 14.9994 10.0001 14.9994C11.6092 14.9994 13.1821 14.5216 14.5193 13.6266C15.8482 12.7372 16.8849 11.4755 17.4999 9.99989C16.8849 8.52426 15.8482 7.2626 14.5193 6.37318C13.1821 5.47819 11.6092 5.00041 10.0001 5.00041ZM4.5539 4.98811C6.16543 3.90953 8.06093 3.33374 10.0001 3.33374C11.9393 3.33374 13.8348 3.90953 15.4463 4.98811C17.0578 6.06668 18.3128 7.59948 19.0521 9.39217C19.0559 9.40135 19.0596 9.41059 19.063 9.41989C19.2019 9.79409 19.2019 10.2057 19.063 10.5799C19.0596 10.5892 19.0559 10.5984 19.0521 10.6076C18.3128 12.4003 17.0578 13.9331 15.4463 15.0117C13.8348 16.0903 11.9393 16.666 10.0001 16.666C8.06093 16.666 6.16543 16.0903 4.5539 15.0117C2.94237 13.9331 1.68738 12.4003 0.948041 10.6076C0.944257 10.5984 0.940638 10.5892 0.937184 10.5799C0.798283 10.2057 0.798283 9.79409 0.937184 9.41989C0.940638 9.41059 0.944257 9.40135 0.948041 9.39217C1.68738 7.59948 2.94237 6.06668 4.5539 4.98811Z" fill="black"/>
<path fill-rule="evenodd" clip-rule="evenodd" d="M10.0001 8.33341C9.07961 8.33341 8.33341 9.07961 8.33341 10.0001C8.33341 10.9206 9.07961 11.6667 10.0001 11.6667C10.9206 11.6667 11.6667 10.9206 11.6667 10.0001C11.6667 9.07961 10.9206 8.33341 10.0001 8.33341ZM6.66675 10.0001C6.66675 8.15913 8.15913 6.66675 10.0001 6.66675C11.841 6.66675 13.3334 8.15913 13.3334 10.0001C13.3334 11.841 11.841 13.3334 10.0001 13.3334C8.15913 13.3334 6.66675 11.841 6.66675 10.0001Z" fill="black"/>
</svg>
