<svg width="20" height="20" viewBox="0 0 20 20" fill="none" xmlns="http://www.w3.org/2000/svg">
<g clip-path="url(#clip0_2001_6484)">
<path fill-rule="evenodd" clip-rule="evenodd" d="M1.56549 1.56549C2.03433 1.09664 2.67021 0.833252 3.33325 0.833252H4.99992C5.66296 0.833252 6.29884 1.09664 6.76769 1.56549C7.23653 2.03433 7.49992 2.67021 7.49992 3.33325V9.21393L12.0156 5.98847C12.2696 5.80704 12.6037 5.78278 12.8812 5.92561C13.1588 6.06845 13.3333 6.35443 13.3333 6.66659V9.21393L17.8489 5.98847C18.1029 5.80704 18.437 5.78278 18.7146 5.92561C18.9921 6.06845 19.1666 6.35443 19.1666 6.66659V16.6666C19.1666 17.3296 18.9032 17.9655 18.4344 18.4344C17.9655 18.9032 17.3296 19.1666 16.6666 19.1666H3.33325C2.67021 19.1666 2.03433 18.9032 1.56549 18.4344C1.09664 17.9655 0.833252 17.3296 0.833252 16.6666V3.33325C0.833252 2.67021 1.09664 2.03433 1.56549 1.56549ZM3.33325 2.49992C3.11224 2.49992 2.90028 2.58772 2.744 2.744C2.58772 2.90028 2.49992 3.11224 2.49992 3.33325V16.6666C2.49992 16.8876 2.58772 17.0996 2.744 17.2558C2.90028 17.4121 3.11224 17.4999 3.33325 17.4999H16.6666C16.8876 17.4999 17.0996 17.4121 17.2558 17.2558C17.4121 17.0996 17.4999 16.8876 17.4999 16.6666V8.28591L12.9843 11.5114C12.7303 11.6928 12.3962 11.7171 12.1186 11.5742C11.841 11.4314 11.6666 11.1454 11.6666 10.8333V8.28591L7.15095 11.5114C6.89694 11.6928 6.56283 11.7171 6.28527 11.5742C6.00771 11.4314 5.83325 11.1454 5.83325 10.8333V3.33325C5.83325 3.11224 5.74545 2.90028 5.58917 2.744C5.43289 2.58772 5.22093 2.49992 4.99992 2.49992H3.33325Z" fill="black"/>
<path fill-rule="evenodd" clip-rule="evenodd" d="M13.3333 15.0001C13.3333 14.5398 13.7063 14.1667 14.1666 14.1667H14.9999C15.4602 14.1667 15.8333 14.5398 15.8333 15.0001C15.8333 15.4603 15.4602 15.8334 14.9999 15.8334H14.1666C13.7063 15.8334 13.3333 15.4603 13.3333 15.0001Z" fill="black"/>
<path fill-rule="evenodd" clip-rule="evenodd" d="M9.16675 15.0001C9.16675 14.5398 9.53984 14.1667 10.0001 14.1667H10.8334C11.2937 14.1667 11.6667 14.5398 11.6667 15.0001C11.6667 15.4603 11.2937 15.8334 10.8334 15.8334H10.0001C9.53984 15.8334 9.16675 15.4603 9.16675 15.0001Z" fill="black"/>
<path fill-rule="evenodd" clip-rule="evenodd" d="M5 15.0001C5 14.5398 5.3731 14.1667 5.83333 14.1667H6.66667C7.1269 14.1667 7.5 14.5398 7.5 15.0001C7.5 15.4603 7.1269 15.8334 6.66667 15.8334H5.83333C5.3731 15.8334 5 15.4603 5 15.0001Z" fill="black"/>
</g>
<defs>
<clipPath id="clip0_2001_6484">
<rect width="20" height="20" fill="white"/>
</clipPath>
</defs>
</svg>
