<svg width="20" height="20" viewBox="0 0 20 20" fill="none" xmlns="http://www.w3.org/2000/svg">
<g clip-path="url(#clip0_2001_6489)">
<path fill-rule="evenodd" clip-rule="evenodd" d="M11.1439 2.5102C10.6136 2.47641 10.0791 2.54254 9.56891 2.70788C8.79122 2.9599 8.10309 3.43161 7.58759 4.0661C7.07208 4.70058 6.75123 5.4707 6.66376 6.28352C6.57629 7.09633 6.72595 7.91709 7.09467 8.64672C7.24288 8.94002 7.20489 9.29303 6.99766 9.54808C6.79043 9.80312 6.45267 9.91256 6.13524 9.82752L2.5102 8.85629C2.47641 9.38656 2.54254 9.92102 2.70788 10.4312C2.9599 11.2089 3.43161 11.8971 4.0661 12.4126C4.70058 12.9281 5.4707 13.2489 6.28352 13.3364C7.09633 13.4239 7.91709 13.2742 8.64672 12.9055C8.94002 12.7573 9.29303 12.7953 9.54808 13.0025C9.80312 13.2097 9.91256 13.5475 9.82752 13.8649L8.85629 17.4899C9.38656 17.5237 9.92102 17.4576 10.4312 17.2923C11.2089 17.0402 11.8971 16.5685 12.4126 15.9341C12.9281 15.2996 13.2489 14.5294 13.3364 13.7166C13.4239 12.9038 13.2742 12.0831 12.9055 11.3534C12.7573 11.0601 12.7953 10.7071 13.0025 10.4521C13.2097 10.197 13.5475 10.0876 13.8649 10.1726L17.4899 11.1439C17.5237 10.6136 17.4576 10.0791 17.2923 9.56891C17.0402 8.79122 16.5685 8.10309 15.9341 7.58759C15.2996 7.07208 14.5294 6.75123 13.7166 6.66376C12.9038 6.57629 12.0831 6.72595 11.3534 7.09467C11.0601 7.24288 10.7071 7.20489 10.4521 6.99766C10.197 6.79043 10.0876 6.45267 10.1726 6.13524L11.1439 2.5102ZM9.05512 1.12239C10.1389 0.771191 11.3011 0.741172 12.4015 1.03595C12.615 1.09314 12.7971 1.2328 12.9076 1.42421C13.0181 1.61561 13.048 1.84308 12.9909 2.05657L12.1828 5.07258C12.7444 4.96797 13.3211 4.94491 13.895 5.00666C15.0276 5.12855 16.1008 5.57567 16.985 6.29405C17.8692 7.01244 18.5266 7.97137 18.8778 9.05512C19.229 10.1389 19.259 11.3011 18.9642 12.4015C18.907 12.615 18.7673 12.7971 18.5759 12.9076C18.3845 13.0181 18.1571 13.048 17.9436 12.9909L14.9276 12.1828C15.0322 12.7444 15.0552 13.3211 14.9935 13.895C14.8716 15.0276 14.4245 16.1008 13.7061 16.985C12.9877 17.8692 12.0288 18.5266 10.945 18.8778C9.86128 19.229 8.69904 19.259 7.59861 18.9642C7.38512 18.907 7.20309 18.7673 7.09257 18.5759C6.98205 18.3845 6.9521 18.1571 7.0093 17.9436L7.81736 14.9276C7.25576 15.0322 6.67906 15.0552 6.1052 14.9935C4.97251 14.8716 3.8993 14.4245 3.01512 13.7061C2.13094 12.9877 1.47358 12.0288 1.12239 10.945C0.771191 9.86128 0.741172 8.69904 1.03595 7.59861C1.09314 7.38512 1.2328 7.20309 1.42421 7.09257C1.61561 6.98205 1.84308 6.9521 2.05657 7.0093L5.07258 7.81736C4.96797 7.25576 4.94491 6.67906 5.00666 6.1052C5.12855 4.97251 5.57567 3.8993 6.29405 3.01512C7.01244 2.13094 7.97137 1.47358 9.05512 1.12239Z" fill="black"/>
<path fill-rule="evenodd" clip-rule="evenodd" d="M10.0001 9.16675C10.4603 9.16675 10.8334 9.53984 10.8334 10.0001V10.0084C10.8334 10.4687 10.4603 10.8417 10.0001 10.8417C9.53984 10.8417 9.16675 10.4687 9.16675 10.0084V10.0001C9.16675 9.53984 9.53984 9.16675 10.0001 9.16675Z" fill="black"/>
</g>
<defs>
<clipPath id="clip0_2001_6489">
<rect width="20" height="20" fill="white"/>
</clipPath>
</defs>
</svg>
