<svg width="20" height="20" viewBox="0 0 20 20" fill="none" xmlns="http://www.w3.org/2000/svg">
<path fill-rule="evenodd" clip-rule="evenodd" d="M10.4672 3.418C10.7531 3.27816 11.0937 3.31339 11.345 3.5088L18.845 9.34213C19.0479 9.50001 19.1667 9.74277 19.1667 9.99992C19.1667 10.2571 19.0479 10.4998 18.845 10.6577L11.345 16.4911C11.0937 16.6865 10.7531 16.7217 10.4672 16.5819C10.1813 16.442 10 16.1515 10 15.8333V4.16659C10 3.84831 10.1813 3.55783 10.4672 3.418ZM11.6667 5.87046V14.1294L16.976 9.99992L11.6667 5.87046Z" fill="black"/>
<path fill-rule="evenodd" clip-rule="evenodd" d="M1.30046 3.418C1.58637 3.27816 1.92697 3.31339 2.1782 3.5088L9.6782 9.34213C9.88119 9.50001 9.99992 9.74277 9.99992 9.99992C9.99992 10.2571 9.88119 10.4998 9.6782 10.6577L2.1782 16.4911C1.92697 16.6865 1.58637 16.7217 1.30046 16.5819C1.01455 16.442 0.833252 16.1515 0.833252 15.8333V4.16659C0.833252 3.84831 1.01455 3.55783 1.30046 3.418ZM2.49992 5.87046V14.1294L7.80923 9.99992L2.49992 5.87046Z" fill="black"/>
</svg>
