<svg width="20" height="20" viewBox="0 0 20 20" fill="none" xmlns="http://www.w3.org/2000/svg">
<g clip-path="url(#clip0_2001_6495)">
<path fill-rule="evenodd" clip-rule="evenodd" d="M9.20233 2.53577C10.2968 1.44129 11.7813 0.826416 13.3291 0.826416C14.8769 0.826416 16.3614 1.44129 17.4558 2.53577C18.5503 3.63026 19.1652 5.1147 19.1652 6.66253C19.1652 8.21006 18.5506 9.69422 17.4565 10.7886C17.4563 10.7889 17.4561 10.7891 17.4558 10.7893L11.84 16.4217C11.6837 16.5786 11.4714 16.6667 11.2499 16.6667H4.16659C3.70635 16.6667 3.33325 16.2936 3.33325 15.8334V8.75003C3.33325 8.52902 3.42105 8.31705 3.57733 8.16077L9.20233 2.53577ZM13.3291 2.49308C12.2233 2.49308 11.1628 2.93236 10.3808 3.71429L4.99992 9.09521V15H10.904L16.2765 9.61165L16.2773 9.61077C17.0593 8.82885 17.4985 7.76834 17.4985 6.66253C17.4985 5.55672 17.0593 4.49621 16.2773 3.71429C15.4954 2.93236 14.4349 2.49308 13.3291 2.49308Z" fill="black"/>
<path fill-rule="evenodd" clip-rule="evenodd" d="M13.9225 6.07733C14.2479 6.40277 14.2479 6.9304 13.9225 7.25584L2.25584 18.9225C1.9304 19.2479 1.40277 19.2479 1.07733 18.9225C0.751893 18.5971 0.751893 18.0694 1.07733 17.744L12.744 6.07733C13.0694 5.75189 13.5971 5.75189 13.9225 6.07733Z" fill="black"/>
<path fill-rule="evenodd" clip-rule="evenodd" d="M6.66675 12.5001C6.66675 12.0398 7.03984 11.6667 7.50008 11.6667H14.5834C15.0437 11.6667 15.4167 12.0398 15.4167 12.5001C15.4167 12.9603 15.0437 13.3334 14.5834 13.3334H7.50008C7.03984 13.3334 6.66675 12.9603 6.66675 12.5001Z" fill="black"/>
</g>
<defs>
<clipPath id="clip0_2001_6495">
<rect width="20" height="20" fill="white"/>
</clipPath>
</defs>
</svg>
