<svg width="20" height="20" viewBox="0 0 20 20" fill="none" xmlns="http://www.w3.org/2000/svg">
<path fill-rule="evenodd" clip-rule="evenodd" d="M2.744 1.91083C3.06943 1.58539 3.59707 1.58539 3.92251 1.91083L5.58917 3.57749C5.74545 3.73377 5.83325 3.94573 5.83325 4.16675V16.6667C5.83325 17.1061 5.68316 17.537 5.36001 17.8602C5.03686 18.1833 4.60596 18.3334 4.16659 18.3334H2.49992C2.06055 18.3334 1.62965 18.1833 1.3065 17.8602C0.983347 17.537 0.833252 17.1061 0.833252 16.6667V4.16675C0.833252 3.94573 0.921049 3.73377 1.07733 3.57749L2.744 1.91083ZM2.49992 4.51193V16.6667H4.16659V4.51193L3.33325 3.67859L2.49992 4.51193Z" fill="black"/>
<path fill-rule="evenodd" clip-rule="evenodd" d="M4.16675 6.66659C4.16675 6.20635 4.53984 5.83325 5.00008 5.83325H8.33342C8.79365 5.83325 9.16675 6.20635 9.16675 6.66659C9.16675 7.12682 8.79365 7.49992 8.33342 7.49992H5.00008C4.53984 7.49992 4.16675 7.12682 4.16675 6.66659Z" fill="black"/>
<path fill-rule="evenodd" clip-rule="evenodd" d="M4.16675 15.0001C4.16675 14.5398 4.53984 14.1667 5.00008 14.1667H8.33342C8.79365 14.1667 9.16675 14.5398 9.16675 15.0001C9.16675 15.4603 8.79365 15.8334 8.33342 15.8334H5.00008C4.53984 15.8334 4.16675 15.4603 4.16675 15.0001Z" fill="black"/>
<path fill-rule="evenodd" clip-rule="evenodd" d="M9.41074 1.91083C9.73618 1.58539 10.2638 1.58539 10.5893 1.91083L12.2559 3.57749C12.4122 3.73377 12.5 3.94573 12.5 4.16675V16.6667C12.5 17.1061 12.3499 17.537 12.0268 17.8602C11.7036 18.1833 11.2727 18.3334 10.8333 18.3334H9.16667C8.72729 18.3334 8.29639 18.1833 7.97324 17.8602C7.6501 17.537 7.5 17.1061 7.5 16.6667V4.16675C7.5 3.94573 7.5878 3.73377 7.74408 3.57749L9.41074 1.91083ZM9.16667 4.51193V16.6667H10.8333V4.51193L10 3.67859L9.16667 4.51193Z" fill="black"/>
<path fill-rule="evenodd" clip-rule="evenodd" d="M10.8333 6.66659C10.8333 6.20635 11.2063 5.83325 11.6666 5.83325H14.9999C15.4602 5.83325 15.8333 6.20635 15.8333 6.66659C15.8333 7.12682 15.4602 7.49992 14.9999 7.49992H11.6666C11.2063 7.49992 10.8333 7.12682 10.8333 6.66659Z" fill="black"/>
<path fill-rule="evenodd" clip-rule="evenodd" d="M10.8333 15.0001C10.8333 14.5398 11.2063 14.1667 11.6666 14.1667H14.9999C15.4602 14.1667 15.8333 14.5398 15.8333 15.0001C15.8333 15.4603 15.4602 15.8334 14.9999 15.8334H11.6666C11.2063 15.8334 10.8333 15.4603 10.8333 15.0001Z" fill="black"/>
<path fill-rule="evenodd" clip-rule="evenodd" d="M16.0775 1.91083C16.4029 1.58539 16.9306 1.58539 17.256 1.91083L18.9227 3.57749C19.079 3.73377 19.1667 3.94573 19.1667 4.16675V16.6667C19.1667 17.1061 19.0167 17.537 18.6935 17.8602C18.3704 18.1833 17.9395 18.3334 17.5001 18.3334H15.8334C15.394 18.3334 14.9631 18.1833 14.64 17.8602C14.3168 17.537 14.1667 17.1061 14.1667 16.6667V4.16675C14.1667 3.94573 14.2545 3.73377 14.4108 3.57749L16.0775 1.91083ZM15.8334 4.51193V16.6667H17.5001V4.51193L16.6667 3.67859L15.8334 4.51193Z" fill="black"/>
</svg>
