<svg width="20" height="20" viewBox="0 0 20 20" fill="none" xmlns="http://www.w3.org/2000/svg">
<path fill-rule="evenodd" clip-rule="evenodd" d="M10 9.16667C9.53976 9.16667 9.16667 9.53976 9.16667 10C9.16667 10.4602 9.53976 10.8333 10 10.8333C10.4602 10.8333 10.8333 10.4602 10.8333 10C10.8333 9.53976 10.4602 9.16667 10 9.16667ZM7.5 10C7.5 8.61929 8.61929 7.5 10 7.5C11.3807 7.5 12.5 8.61929 12.5 10C12.5 11.3807 11.3807 12.5 10 12.5C8.61929 12.5 7.5 11.3807 7.5 10Z" fill="black"/>
<path fill-rule="evenodd" clip-rule="evenodd" d="M10.0001 0.833252C10.4603 0.833252 10.8334 1.20635 10.8334 1.66659V4.99992C10.8334 5.46016 10.4603 5.83325 10.0001 5.83325C9.53984 5.83325 9.16675 5.46016 9.16675 4.99992V1.66659C9.16675 1.20635 9.53984 0.833252 10.0001 0.833252Z" fill="black"/>
<path fill-rule="evenodd" clip-rule="evenodd" d="M6.39018 12.0865C6.61852 12.4861 6.47969 12.9952 6.0801 13.2235L3.16343 14.8902C2.76383 15.1185 2.25479 14.9797 2.02644 14.5801C1.7981 14.1805 1.93693 13.6715 2.33653 13.4431L5.2532 11.7764C5.6528 11.5481 6.16184 11.6869 6.39018 12.0865Z" fill="black"/>
<path fill-rule="evenodd" clip-rule="evenodd" d="M17.9734 5.41978C18.2018 5.81938 18.0629 6.32843 17.6633 6.55677L14.7467 8.22343C14.3471 8.45178 13.838 8.31295 13.6097 7.91335C13.3814 7.51375 13.5202 7.0047 13.9198 6.77636L16.8364 5.1097C17.236 4.88135 17.7451 5.02018 17.9734 5.41978Z" fill="black"/>
<path fill-rule="evenodd" clip-rule="evenodd" d="M2.02644 5.41978C2.25479 5.02018 2.76383 4.88135 3.16343 5.1097L6.0801 6.77636C6.47969 7.0047 6.61852 7.51375 6.39018 7.91335C6.16184 8.31295 5.6528 8.45178 5.2532 8.22343L2.33653 6.55677C1.93693 6.32843 1.7981 5.81938 2.02644 5.41978Z" fill="black"/>
<path fill-rule="evenodd" clip-rule="evenodd" d="M13.6097 12.0865C13.838 11.6869 14.3471 11.5481 14.7467 11.7764L17.6633 13.4431C18.0629 13.6715 18.2018 14.1805 17.9734 14.5801C17.7451 14.9797 17.236 15.1185 16.8364 14.8902L13.9198 13.2235C13.5202 12.9952 13.3814 12.4861 13.6097 12.0865Z" fill="black"/>
<path fill-rule="evenodd" clip-rule="evenodd" d="M10.0001 10.8333C10.3474 10.8333 10.6584 11.0487 10.7803 11.374L13.2803 18.0406C13.4419 18.4716 13.2236 18.9519 12.7927 19.1135C12.3617 19.2751 11.8814 19.0568 11.7198 18.6259L10.0001 14.0399L8.28034 18.6259C8.11874 19.0568 7.63839 19.2751 7.20746 19.1135C6.77653 18.9519 6.55819 18.4716 6.71979 18.0406L9.21979 11.374C9.34176 11.0487 9.65269 10.8333 10.0001 10.8333Z" fill="black"/>
<path fill-rule="evenodd" clip-rule="evenodd" d="M5.83325 18.3333C5.83325 17.8731 6.20635 17.5 6.66659 17.5H13.3333C13.7935 17.5 14.1666 17.8731 14.1666 18.3333C14.1666 18.7936 13.7935 19.1667 13.3333 19.1667H6.66659C6.20635 19.1667 5.83325 18.7936 5.83325 18.3333Z" fill="black"/>
<path fill-rule="evenodd" clip-rule="evenodd" d="M5.27435 3.12944C6.66444 2.17236 8.31237 1.65991 10.0001 1.65991C11.6878 1.65991 13.3357 2.17236 14.7258 3.12944C16.1159 4.08652 17.1826 5.44312 17.7849 7.01973C18.3871 8.59634 18.4964 10.3186 18.0983 11.9587C17.7003 13.5988 16.8136 15.0794 15.5556 16.2045C15.2126 16.5114 14.6858 16.482 14.379 16.139C14.0721 15.7959 14.1015 15.2691 14.4445 14.9623C15.4509 14.0622 16.1602 12.8777 16.4787 11.5656C16.7971 10.2536 16.7097 8.87572 16.2279 7.61443C15.7461 6.35314 14.8927 5.26786 13.7807 4.5022C12.6686 3.73653 11.3503 3.32658 10.0001 3.32658C8.64992 3.32658 7.33157 3.73653 6.2195 4.5022C5.10742 5.26786 4.25404 6.35314 3.77227 7.61443C3.2905 8.87572 3.20305 10.2536 3.5215 11.5656C3.83995 12.8777 4.54928 14.0622 5.55564 14.9623C5.89868 15.2691 5.92804 15.7959 5.62121 16.139C5.31439 16.482 4.78757 16.5114 4.44453 16.2045C3.18658 15.0794 2.29992 13.5988 1.90186 11.9587C1.50379 10.3186 1.6131 8.59634 2.21531 7.01973C2.81753 5.44312 3.88426 4.08652 5.27435 3.12944Z" fill="black"/>
</svg>
