<svg width="20" height="20" viewBox="0 0 20 20" fill="none" xmlns="http://www.w3.org/2000/svg">
<path fill-rule="evenodd" clip-rule="evenodd" d="M7.08325 2.49992C6.53072 2.49992 6.00081 2.71941 5.61011 3.11011C5.21941 3.50081 4.99992 4.03072 4.99992 4.58325C4.99992 5.13579 5.21941 5.66569 5.61011 6.05639C6.00081 6.44709 6.53072 6.66659 7.08325 6.66659H9.16659V2.49992H7.08325ZM4.4316 1.9316C5.13486 1.22834 6.08869 0.833252 7.08325 0.833252H9.99992C10.4602 0.833252 10.8333 1.20635 10.8333 1.66659V7.49992C10.8333 7.96016 10.4602 8.33325 9.99992 8.33325H7.08325C6.08869 8.33325 5.13486 7.93816 4.4316 7.2349C3.72834 6.53164 3.33325 5.57781 3.33325 4.58325C3.33325 3.58869 3.72834 2.63486 4.4316 1.9316Z" fill="black"/>
<path fill-rule="evenodd" clip-rule="evenodd" d="M9.16675 1.66659C9.16675 1.20635 9.53984 0.833252 10.0001 0.833252H12.9167C13.4092 0.833252 13.8968 0.930249 14.3518 1.1187C14.8068 1.30716 15.2202 1.58338 15.5684 1.9316C15.9166 2.27982 16.1928 2.69322 16.3813 3.14819C16.5698 3.60316 16.6667 4.09079 16.6667 4.58325C16.6667 5.07571 16.5698 5.56334 16.3813 6.01832C16.1928 6.47329 15.9166 6.88668 15.5684 7.2349C15.2202 7.58312 14.8068 7.85935 14.3518 8.0478C13.8968 8.23626 13.4092 8.33325 12.9167 8.33325H10.0001C9.53984 8.33325 9.16675 7.96016 9.16675 7.49992V1.66659ZM10.8334 2.49992V6.66659H12.9167C13.1903 6.66659 13.4612 6.6127 13.714 6.508C13.9668 6.4033 14.1964 6.24985 14.3899 6.05639C14.5833 5.86294 14.7368 5.63327 14.8415 5.38051C14.9462 5.12775 15.0001 4.85684 15.0001 4.58325C15.0001 4.30967 14.9462 4.03876 14.8415 3.78599C14.7368 3.53323 14.5833 3.30357 14.3899 3.11011C14.1964 2.91666 13.9668 2.7632 13.714 2.6585C13.4612 2.55381 13.1903 2.49992 12.9167 2.49992H10.8334Z" fill="black"/>
<path fill-rule="evenodd" clip-rule="evenodd" d="M12.9167 8.33341C12.6432 8.33341 12.3723 8.3873 12.1195 8.492C11.8667 8.5967 11.6371 8.75015 11.4436 8.94361C11.2502 9.13706 11.0967 9.36673 10.992 9.61949C10.8873 9.87225 10.8334 10.1432 10.8334 10.4167C10.8334 10.6903 10.8873 10.9612 10.992 11.214C11.0967 11.4668 11.2502 11.6964 11.4436 11.8899C11.6371 12.0833 11.8667 12.2368 12.1195 12.3415C12.3723 12.4462 12.6432 12.5001 12.9167 12.5001C13.1903 12.5001 13.4612 12.4462 13.714 12.3415C13.9668 12.2368 14.1964 12.0833 14.3899 11.8899C14.5833 11.6964 14.7368 11.4668 14.8415 11.214C14.9462 10.9612 15.0001 10.6903 15.0001 10.4167C15.0001 10.1432 14.9462 9.87225 14.8415 9.61949C14.7368 9.36673 14.5833 9.13706 14.3899 8.94361C14.1964 8.75015 13.9668 8.5967 13.714 8.492C13.4612 8.3873 13.1903 8.33341 12.9167 8.33341ZM11.4817 6.9522C11.9367 6.76374 12.4243 6.66675 12.9167 6.66675C13.4092 6.66675 13.8968 6.76374 14.3518 6.9522C14.8068 7.14065 15.2202 7.41688 15.5684 7.7651C15.9166 8.11332 16.1928 8.52672 16.3813 8.98169C16.5698 9.43666 16.6667 9.92429 16.6667 10.4167C16.6667 10.9092 16.5698 11.3968 16.3813 11.8518C16.1928 12.3068 15.9166 12.7202 15.5684 13.0684C15.2202 13.4166 14.8068 13.6928 14.3518 13.8813C13.8968 14.0698 13.4092 14.1667 12.9167 14.1667C12.4243 14.1667 11.9367 14.0698 11.4817 13.8813C11.0267 13.6928 10.6133 13.4166 10.2651 13.0684C9.91688 12.7202 9.64065 12.3068 9.4522 11.8518C9.26374 11.3968 9.16675 10.9092 9.16675 10.4167C9.16675 9.92429 9.26374 9.43666 9.4522 8.98169C9.64065 8.52671 9.91688 8.11332 10.2651 7.7651C10.6133 7.41688 11.0267 7.14065 11.4817 6.9522Z" fill="black"/>
<path fill-rule="evenodd" clip-rule="evenodd" d="M7.08325 14.1667C6.53072 14.1667 6.00081 14.3862 5.61011 14.7769C5.21941 15.1676 4.99992 15.6975 4.99992 16.25C4.99992 16.8025 5.21941 17.3324 5.61011 17.7231C6.00081 18.1138 6.53072 18.3333 7.08325 18.3333C7.63579 18.3333 8.16569 18.1138 8.55639 17.7231C8.94709 17.3324 9.16659 16.8025 9.16659 16.25V14.1667H7.08325ZM4.4316 13.5983C5.13486 12.8951 6.08869 12.5 7.08325 12.5H9.99992C10.4602 12.5 10.8333 12.8731 10.8333 13.3333V16.25C10.8333 17.2446 10.4382 18.1984 9.7349 18.9017C9.03164 19.6049 8.07781 20 7.08325 20C6.08869 20 5.13486 19.6049 4.4316 18.9017C3.72834 18.1984 3.33325 17.2446 3.33325 16.25C3.33325 15.2554 3.72834 14.3016 4.4316 13.5983Z" fill="black"/>
<path fill-rule="evenodd" clip-rule="evenodd" d="M7.08325 8.33341C6.53072 8.33341 6.00081 8.55291 5.61011 8.94361C5.21941 9.33431 4.99992 9.86421 4.99992 10.4167C4.99992 10.9693 5.21941 11.4992 5.61011 11.8899C6.00081 12.2806 6.53072 12.5001 7.08325 12.5001H9.16659V8.33341H7.08325ZM4.4316 7.7651C5.13486 7.06184 6.08869 6.66675 7.08325 6.66675H9.99992C10.4602 6.66675 10.8333 7.03984 10.8333 7.50008V13.3334C10.8333 13.7937 10.4602 14.1667 9.99992 14.1667H7.08325C6.08869 14.1667 5.13486 13.7717 4.4316 13.0684C3.72834 12.3651 3.33325 11.4113 3.33325 10.4167C3.33325 9.42219 3.72834 8.46836 4.4316 7.7651Z" fill="black"/>
</svg>
