<svg width="20" height="20" viewBox="0 0 20 20" fill="none" xmlns="http://www.w3.org/2000/svg">
<path fill-rule="evenodd" clip-rule="evenodd" d="M3.23223 1.56549C3.70107 1.09664 4.33696 0.833252 5 0.833252H12.5C12.721 0.833252 12.933 0.921049 13.0893 1.07733L17.2559 5.244C17.4122 5.40028 17.5 5.61224 17.5 5.83325V16.6666C17.5 17.3296 17.2366 17.9655 16.7678 18.4344C16.2989 18.9032 15.663 19.1666 15 19.1666H8.75C8.28976 19.1666 7.91667 18.7935 7.91667 18.3333C7.91667 17.873 8.28976 17.4999 8.75 17.4999H15C15.221 17.4999 15.433 17.4121 15.5893 17.2558C15.7455 17.0996 15.8333 16.8876 15.8333 16.6666V6.17843L12.1548 2.49992H5C4.77899 2.49992 4.56702 2.58772 4.41074 2.744C4.25446 2.90028 4.16667 3.11224 4.16667 3.33325V10.3333C4.16667 10.7935 3.79357 11.1666 3.33333 11.1666C2.8731 11.1666 2.5 10.7935 2.5 10.3333V3.33325C2.5 2.67021 2.76339 2.03433 3.23223 1.56549Z" fill="black"/>
<path fill-rule="evenodd" clip-rule="evenodd" d="M13.8732 6.86533C14.0593 7.02366 14.1666 7.25572 14.1666 7.50009V13.3334C14.1666 13.7937 13.7935 14.1668 13.3333 14.1668C12.873 14.1668 12.4999 13.7937 12.4999 13.3334V8.47977L7.49992 9.29227V15.0001C7.49992 15.4603 7.12682 15.8334 6.66659 15.8334C6.20635 15.8334 5.83325 15.4603 5.83325 15.0001V8.58342C5.83325 8.17478 6.12957 7.82642 6.53292 7.76088L13.1996 6.67754C13.4408 6.63835 13.687 6.707 13.8732 6.86533Z" fill="black"/>
<path fill-rule="evenodd" clip-rule="evenodd" d="M11.6667 12.4999C11.2065 12.4999 10.8334 12.873 10.8334 13.3333C10.8334 13.7935 11.2065 14.1666 11.6667 14.1666C12.127 14.1666 12.5001 13.7935 12.5001 13.3333C12.5001 12.873 12.127 12.4999 11.6667 12.4999ZM9.16675 13.3333C9.16675 11.9525 10.286 10.8333 11.6667 10.8333C13.0475 10.8333 14.1667 11.9525 14.1667 13.3333C14.1667 14.714 13.0475 15.8333 11.6667 15.8333C10.286 15.8333 9.16675 14.714 9.16675 13.3333Z" fill="black"/>
<path fill-rule="evenodd" clip-rule="evenodd" d="M5 14.1667C4.53976 14.1667 4.16667 14.5398 4.16667 15C4.16667 15.4602 4.53976 15.8333 5 15.8333C5.46024 15.8333 5.83333 15.4602 5.83333 15C5.83333 14.5398 5.46024 14.1667 5 14.1667ZM2.5 15C2.5 13.6193 3.61929 12.5 5 12.5C6.38071 12.5 7.5 13.6193 7.5 15C7.5 16.3807 6.38071 17.5 5 17.5C3.61929 17.5 2.5 16.3807 2.5 15Z" fill="black"/>
</svg>
