<svg width="20" height="20" viewBox="0 0 20 20" fill="none" xmlns="http://www.w3.org/2000/svg">
<path fill-rule="evenodd" clip-rule="evenodd" d="M3.23223 1.56549C3.70107 1.09664 4.33696 0.833252 5 0.833252H12.5C12.721 0.833252 12.933 0.921049 13.0893 1.07733L17.2559 5.244C17.4122 5.40028 17.5 5.61224 17.5 5.83325V16.6666C17.5 17.3296 17.2366 17.9655 16.7678 18.4344C16.2989 18.9032 15.663 19.1666 15 19.1666H14.5833C14.1231 19.1666 13.75 18.7935 13.75 18.3333C13.75 17.873 14.1231 17.4999 14.5833 17.4999H15C15.221 17.4999 15.433 17.4121 15.5893 17.2558C15.7455 17.0996 15.8333 16.8876 15.8333 16.6666V6.17843L12.1548 2.49992H5C4.77899 2.49992 4.56702 2.58772 4.41074 2.744C4.25446 2.90028 4.16667 3.11224 4.16667 3.33325V5.83325C4.16667 6.29349 3.79357 6.66659 3.33333 6.66659C2.8731 6.66659 2.5 6.29349 2.5 5.83325V3.33325C2.5 2.67021 2.76339 2.03433 3.23223 1.56549Z" fill="black"/>
<path fill-rule="evenodd" clip-rule="evenodd" d="M11.6666 0.833252C12.1268 0.833252 12.4999 1.20635 12.4999 1.66659V4.99992C12.4999 5.22093 12.5877 5.43289 12.744 5.58917C12.9003 5.74545 13.1122 5.83325 13.3333 5.83325H16.6666C17.1268 5.83325 17.4999 6.20635 17.4999 6.66658C17.4999 7.12682 17.1268 7.49992 16.6666 7.49992H13.3333C12.6702 7.49992 12.0343 7.23653 11.5655 6.76768C11.0966 6.29884 10.8333 5.66296 10.8333 4.99992V1.66659C10.8333 1.20635 11.2063 0.833252 11.6666 0.833252Z" fill="black"/>
<path fill-rule="evenodd" clip-rule="evenodd" d="M6.66659 9.16667C5.56152 9.16667 4.50171 9.60565 3.72031 10.3871C2.93891 11.1685 2.49992 12.2283 2.49992 13.3333V13.4763C2.76509 13.3826 3.04663 13.3333 3.33325 13.3333C3.99629 13.3333 4.63218 13.5967 5.10102 14.0656C5.56986 14.5344 5.83325 15.1703 5.83325 15.8333V16.6667C5.83325 17.3297 5.56986 17.9656 5.10102 18.4344C4.63218 18.9033 3.99629 19.1667 3.33325 19.1667C2.67021 19.1667 2.03433 18.9033 1.56549 18.4344C1.09664 17.9656 0.833252 17.3297 0.833252 16.6667V13.3333C0.833252 11.7862 1.44783 10.3025 2.5418 9.20854C3.63576 8.11458 5.11949 7.5 6.66659 7.5C8.21368 7.5 9.69741 8.11458 10.7914 9.20854C11.8853 10.3025 12.4999 11.7862 12.4999 13.3333V16.6667C12.4999 17.3297 12.2365 17.9656 11.7677 18.4344C11.2988 18.9033 10.663 19.1667 9.99992 19.1667C9.33688 19.1667 8.70099 18.9033 8.23215 18.4344C7.76331 17.9656 7.49992 17.3297 7.49992 16.6667V15.8333C7.49992 15.1703 7.76331 14.5344 8.23215 14.0656C8.70099 13.5967 9.33688 13.3333 9.99992 13.3333C10.2865 13.3333 10.5681 13.3826 10.8333 13.4763V13.3333C10.8333 12.2283 10.3943 11.1685 9.61286 10.3871C8.83146 9.60565 7.77165 9.16667 6.66659 9.16667ZM10.8333 15.8333C10.8333 15.6123 10.7455 15.4004 10.5892 15.2441C10.4329 15.0878 10.2209 15 9.99992 15C9.77891 15 9.56694 15.0878 9.41066 15.2441C9.25438 15.4004 9.16659 15.6123 9.16659 15.8333V16.6667C9.16659 16.8877 9.25438 17.0996 9.41066 17.2559C9.56694 17.4122 9.77891 17.5 9.99992 17.5C10.2209 17.5 10.4329 17.4122 10.5892 17.2559C10.7455 17.0996 10.8333 16.8877 10.8333 16.6667V15.8333ZM2.49992 15.8333V16.6667C2.49992 16.8877 2.58772 17.0996 2.744 17.2559C2.90028 17.4122 3.11224 17.5 3.33325 17.5C3.55427 17.5 3.76623 17.4122 3.92251 17.2559C4.07879 17.0996 4.16659 16.8877 4.16659 16.6667V15.8333C4.16659 15.6123 4.07879 15.4004 3.92251 15.2441C3.76623 15.0878 3.55427 15 3.33325 15C3.11224 15 2.90028 15.0878 2.744 15.2441C2.58772 15.4004 2.49992 15.6123 2.49992 15.8333Z" fill="black"/>
</svg>
