<svg width="20" height="20" viewBox="0 0 20 20" fill="none" xmlns="http://www.w3.org/2000/svg">
<path fill-rule="evenodd" clip-rule="evenodd" d="M11.6666 0.833252C12.1268 0.833252 12.4999 1.20635 12.4999 1.66659V4.99992C12.4999 5.22093 12.5877 5.43289 12.744 5.58917C12.9003 5.74545 13.1122 5.83325 13.3333 5.83325H16.6666C17.1268 5.83325 17.4999 6.20635 17.4999 6.66658C17.4999 7.12682 17.1268 7.49992 16.6666 7.49992H13.3333C12.6702 7.49992 12.0343 7.23653 11.5655 6.76768C11.0966 6.29884 10.8333 5.66296 10.8333 4.99992V1.66659C10.8333 1.20635 11.2063 0.833252 11.6666 0.833252Z" fill="black"/>
<path fill-rule="evenodd" clip-rule="evenodd" d="M7.64306 12.6431C8.26818 12.0179 9.11603 11.6667 10.0001 11.6667C10.8841 11.6667 11.732 12.0179 12.3571 12.6431C12.9822 13.2682 13.3334 14.116 13.3334 15.0001C13.3334 15.4603 12.9603 15.8334 12.5001 15.8334C12.0398 15.8334 11.6667 15.4603 11.6667 15.0001C11.6667 14.5581 11.4912 14.1341 11.1786 13.8216C10.866 13.509 10.4421 13.3334 10.0001 13.3334C9.55805 13.3334 9.13413 13.509 8.82157 13.8216C8.50901 14.1341 8.33341 14.5581 8.33341 15.0001C8.33341 15.4603 7.96032 15.8334 7.50008 15.8334C7.03984 15.8334 6.66675 15.4603 6.66675 15.0001C6.66675 14.116 7.01794 13.2682 7.64306 12.6431Z" fill="black"/>
<path fill-rule="evenodd" clip-rule="evenodd" d="M3.23223 1.56549C3.70107 1.09664 4.33696 0.833252 5 0.833252H12.5C12.721 0.833252 12.933 0.921049 13.0893 1.07733L17.2559 5.244C17.4122 5.40028 17.5 5.61224 17.5 5.83325V16.6666C17.5 17.3296 17.2366 17.9655 16.7678 18.4344C16.2989 18.9032 15.663 19.1666 15 19.1666H5C4.33696 19.1666 3.70107 18.9032 3.23223 18.4344C2.76339 17.9655 2.5 17.3296 2.5 16.6666V3.33325C2.5 2.67021 2.76339 2.03433 3.23223 1.56549ZM5 2.49992C4.77899 2.49992 4.56702 2.58772 4.41074 2.744C4.25446 2.90028 4.16667 3.11224 4.16667 3.33325V16.6666C4.16667 16.8876 4.25446 17.0996 4.41074 17.2558C4.56702 17.4121 4.77899 17.4999 5 17.4999H15C15.221 17.4999 15.433 17.4121 15.5893 17.2558C15.7455 17.0996 15.8333 16.8876 15.8333 16.6666V6.17843L12.1548 2.49992H5Z" fill="black"/>
<path fill-rule="evenodd" clip-rule="evenodd" d="M10 9.99992C9.53976 9.99992 9.16667 10.373 9.16667 10.8333C9.16667 11.2935 9.53976 11.6666 10 11.6666C10.4602 11.6666 10.8333 11.2935 10.8333 10.8333C10.8333 10.373 10.4602 9.99992 10 9.99992ZM7.5 10.8333C7.5 9.45254 8.61929 8.33325 10 8.33325C11.3807 8.33325 12.5 9.45254 12.5 10.8333C12.5 12.214 11.3807 13.3333 10 13.3333C8.61929 13.3333 7.5 12.214 7.5 10.8333Z" fill="black"/>
</svg>
