<svg width="20" height="20" viewBox="0 0 20 20" fill="none" xmlns="http://www.w3.org/2000/svg">
<path fill-rule="evenodd" clip-rule="evenodd" d="M3.23223 1.56549C3.70107 1.09664 4.33696 0.833252 5 0.833252H12.5C12.721 0.833252 12.933 0.921049 13.0893 1.07733L17.2559 5.244C17.4122 5.40028 17.5 5.61224 17.5 5.83325V16.6666C17.5 17.3296 17.2366 17.9655 16.7678 18.4344C16.2989 18.9032 15.663 19.1666 15 19.1666H12.0833C11.6231 19.1666 11.25 18.7935 11.25 18.3333C11.25 17.873 11.6231 17.4999 12.0833 17.4999H15C15.221 17.4999 15.433 17.4121 15.5893 17.2558C15.7455 17.0996 15.8333 16.8876 15.8333 16.6666V6.17843L12.1548 2.49992H5C4.77899 2.49992 4.56702 2.58772 4.41074 2.744C4.25446 2.90028 4.16667 3.11224 4.16667 3.33325V6.66659C4.16667 7.12682 3.79357 7.49992 3.33333 7.49992C2.8731 7.49992 2.5 7.12682 2.5 6.66659V3.33325C2.5 2.67021 2.76339 2.03433 3.23223 1.56549Z" fill="black"/>
<path fill-rule="evenodd" clip-rule="evenodd" d="M11.6666 0.833252C12.1268 0.833252 12.4999 1.20635 12.4999 1.66659V4.99992C12.4999 5.22093 12.5877 5.43289 12.744 5.58917C12.9003 5.74545 13.1122 5.83325 13.3333 5.83325H16.6666C17.1268 5.83325 17.4999 6.20635 17.4999 6.66658C17.4999 7.12682 17.1268 7.49992 16.6666 7.49992H13.3333C12.6702 7.49992 12.0343 7.23653 11.5655 6.76768C11.0966 6.29884 10.8333 5.66296 10.8333 4.99992V1.66659C10.8333 1.20635 11.2063 0.833252 11.6666 0.833252Z" fill="black"/>
<path fill-rule="evenodd" clip-rule="evenodd" d="M4.55569 8.68829C4.94127 8.46373 5.37994 8.34647 5.82614 8.34866C6.27235 8.35086 6.70983 8.47244 7.09319 8.70079C7.09407 8.70131 7.09495 8.70184 7.09583 8.70237L9.62046 10.2188C9.62058 10.2189 9.6207 10.219 9.62083 10.219C10.0027 10.4482 10.3164 10.7753 10.5295 11.1663C10.7403 11.5531 10.8451 11.9887 10.8334 12.4289V15.1116C10.8384 15.5541 10.7259 15.9901 10.5072 16.375C10.2893 16.7585 9.97377 17.0775 9.59278 17.2996L7.1254 18.8033C7.12067 18.8062 7.1159 18.8091 7.11111 18.8118C6.72553 19.0364 6.28687 19.1537 5.84066 19.1515C5.39445 19.1493 4.95697 19.0277 4.57361 18.7994L4.57223 18.7985L2.04634 17.2813C2.0463 17.2813 2.04626 17.2813 2.04622 17.2813C2.04614 17.2812 2.04606 17.2812 2.04597 17.2811C1.66412 17.0519 1.35042 16.7249 1.13731 16.3338C0.926514 15.947 0.821716 15.5114 0.8334 15.0712V12.3886C0.82837 11.9461 0.940918 11.5101 1.1596 11.1252C1.37753 10.7416 1.69303 10.4226 2.07402 10.2005L4.5414 8.6968C4.54613 8.69392 4.5509 8.69108 4.55569 8.68829ZM5.40041 10.1251L2.93374 11.6283C2.92808 11.6318 2.92239 11.6352 2.91665 11.6385C2.78824 11.7126 2.68193 11.8196 2.60869 11.9485C2.53545 12.0774 2.49792 12.2236 2.49999 12.3718C2.50004 12.3757 2.50007 12.3795 2.50007 12.3834V15.0834C2.50007 15.0924 2.49992 15.1015 2.49963 15.1105C2.4948 15.2589 2.52972 15.4059 2.60078 15.5363C2.67184 15.6667 2.77645 15.7757 2.90379 15.8521L5.42652 17.3675C5.42687 17.3677 5.42722 17.3679 5.42757 17.3681C5.55511 17.4438 5.70054 17.4841 5.84887 17.4848C5.9953 17.4856 6.1393 17.4477 6.26638 17.3751L8.73306 15.8718C8.73872 15.8684 8.74441 15.865 8.75015 15.8617C8.87856 15.7875 8.98487 15.6805 9.05811 15.5516C9.13135 15.4227 9.16888 15.2766 9.16681 15.1283C9.16676 15.1245 9.16673 15.1206 9.16673 15.1167V12.4167C9.16673 12.4077 9.16688 12.3987 9.16717 12.3897C9.172 12.2412 9.13708 12.0942 9.06602 11.9638C8.99496 11.8334 8.89035 11.7244 8.76301 11.648L6.24028 10.1327C6.23991 10.1325 6.23955 10.1322 6.23918 10.132C6.11166 10.0563 5.96624 10.016 5.81793 10.0153C5.67149 10.0146 5.52749 10.0525 5.40041 10.1251Z" fill="black"/>
<path fill-rule="evenodd" clip-rule="evenodd" d="M5.83333 13.3333C6.29357 13.3333 6.66667 13.7063 6.66667 14.1666V18.3333C6.66667 18.7935 6.29357 19.1666 5.83333 19.1666C5.3731 19.1666 5 18.7935 5 18.3333V14.1666C5 13.7063 5.3731 13.3333 5.83333 13.3333Z" fill="black"/>
<path fill-rule="evenodd" clip-rule="evenodd" d="M1.2008 11.4067C1.43635 11.0113 1.94783 10.8817 2.34322 11.1173L5.83338 13.1965L9.32354 11.1173C9.71893 10.8817 10.2304 11.0113 10.466 11.4067C10.7015 11.8021 10.5719 12.3136 10.1766 12.5491L6.25988 14.8825C5.9971 15.039 5.66966 15.039 5.40688 14.8825L1.49021 12.5491C1.09482 12.3136 0.965244 11.8021 1.2008 11.4067Z" fill="black"/>
</svg>
