<svg width="20" height="20" viewBox="0 0 20 20" fill="none" xmlns="http://www.w3.org/2000/svg">
<path fill-rule="evenodd" clip-rule="evenodd" d="M3.23223 1.56549C3.70107 1.09664 4.33696 0.833252 5 0.833252H12.5C12.721 0.833252 12.933 0.921049 13.0893 1.07733L17.2559 5.244C17.4122 5.40028 17.5 5.61224 17.5 5.83325V16.6666C17.5 17.3296 17.2366 17.9655 16.7678 18.4344C16.2989 18.9032 15.663 19.1666 15 19.1666H5C4.33696 19.1666 3.70107 18.9032 3.23223 18.4344C2.76339 17.9655 2.5 17.3296 2.5 16.6666V3.33325C2.5 2.67021 2.76339 2.03433 3.23223 1.56549ZM5 2.49992C4.77899 2.49992 4.56702 2.58772 4.41074 2.744C4.25446 2.90028 4.16667 3.11224 4.16667 3.33325V16.6666C4.16667 16.8876 4.25446 17.0996 4.41074 17.2558C4.56702 17.4121 4.77899 17.4999 5 17.4999H15C15.221 17.4999 15.433 17.4121 15.5893 17.2558C15.7455 17.0996 15.8333 16.8876 15.8333 16.6666V6.17843L12.1548 2.49992H5Z" fill="black"/>
<path fill-rule="evenodd" clip-rule="evenodd" d="M8.33325 12.4999C7.87301 12.4999 7.49992 12.873 7.49992 13.3333C7.49992 13.7935 7.87301 14.1666 8.33325 14.1666C8.79349 14.1666 9.16659 13.7935 9.16659 13.3333C9.16659 12.873 8.79349 12.4999 8.33325 12.4999ZM5.83325 13.3333C5.83325 11.9525 6.95254 10.8333 8.33325 10.8333C9.71396 10.8333 10.8333 11.9525 10.8333 13.3333C10.8333 14.714 9.71396 15.8333 8.33325 15.8333C6.95254 15.8333 5.83325 14.714 5.83325 13.3333Z" fill="black"/>
<path fill-rule="evenodd" clip-rule="evenodd" d="M13.9226 7.74408C14.248 8.06951 14.248 8.59715 13.9226 8.92259L10.1726 12.6726C9.84715 12.998 9.31951 12.998 8.99408 12.6726C8.66864 12.3472 8.66864 11.8195 8.99408 11.4941L12.7441 7.74408C13.0695 7.41864 13.5972 7.41864 13.9226 7.74408Z" fill="black"/>
<path fill-rule="evenodd" clip-rule="evenodd" d="M11.9108 8.57733C12.2363 8.25189 12.7639 8.25189 13.0893 8.57733L13.9227 9.41066C14.2481 9.7361 14.2481 10.2637 13.9227 10.5892C13.5972 10.9146 13.0696 10.9146 12.7442 10.5892L11.9108 9.75584C11.5854 9.4304 11.5854 8.90277 11.9108 8.57733Z" fill="black"/>
</svg>
