<svg width="20" height="20" viewBox="0 0 20 20" fill="none" xmlns="http://www.w3.org/2000/svg">
<path fill-rule="evenodd" clip-rule="evenodd" d="M3.23223 1.56549C3.70107 1.09664 4.33696 0.833252 5 0.833252H12.5C12.721 0.833252 12.933 0.921049 13.0893 1.07733L17.2559 5.244C17.4122 5.40028 17.5 5.61224 17.5 5.83325V16.6666C17.5 17.3296 17.2366 17.9655 16.7678 18.4344C16.2989 18.9032 15.663 19.1666 15 19.1666H5C4.33696 19.1666 3.70107 18.9032 3.23223 18.4344C2.76339 17.9655 2.5 17.3296 2.5 16.6666V3.33325C2.5 2.67021 2.76339 2.03433 3.23223 1.56549ZM5 2.49992C4.77899 2.49992 4.56702 2.58772 4.41074 2.744C4.25446 2.90028 4.16667 3.11224 4.16667 3.33325V16.6666C4.16667 16.8876 4.25446 17.0996 4.41074 17.2558C4.56702 17.4121 4.77899 17.4999 5 17.4999H15C15.221 17.4999 15.433 17.4121 15.5893 17.2558C15.7455 17.0996 15.8333 16.8876 15.8333 16.6666V6.17843L12.1548 2.49992H5Z" fill="black"/>
<path fill-rule="evenodd" clip-rule="evenodd" d="M7.49992 10.8334V14.1667H12.4999V10.8334H7.49992ZM5.83325 10.8334C5.83325 9.91294 6.57944 9.16675 7.49992 9.16675H12.4999C13.4204 9.16675 14.1666 9.91294 14.1666 10.8334V14.1667C14.1666 15.0872 13.4204 15.8334 12.4999 15.8334H7.49992C6.57944 15.8334 5.83325 15.0872 5.83325 14.1667V10.8334Z" fill="black"/>
<path fill-rule="evenodd" clip-rule="evenodd" d="M10 7.49992C9.77899 7.49992 9.56703 7.58772 9.41074 7.744C9.25446 7.90028 9.16667 8.11224 9.16667 8.33325V9.99992C9.16667 10.4602 8.79357 10.8333 8.33333 10.8333C7.8731 10.8333 7.5 10.4602 7.5 9.99992V8.33325C7.5 7.67021 7.76339 7.03433 8.23223 6.56549C8.70107 6.09664 9.33696 5.83325 10 5.83325C10.663 5.83325 11.2989 6.09664 11.7678 6.56549C12.2366 7.03433 12.5 7.67021 12.5 8.33325V9.99992C12.5 10.4602 12.1269 10.8333 11.6667 10.8333C11.2064 10.8333 10.8333 10.4602 10.8333 9.99992V8.33325C10.8333 8.11224 10.7455 7.90028 10.5893 7.744C10.433 7.58772 10.221 7.49992 10 7.49992Z" fill="black"/>
</svg>
