<svg width="20" height="20" viewBox="0 0 20 20" fill="none" xmlns="http://www.w3.org/2000/svg">
<path fill-rule="evenodd" clip-rule="evenodd" d="M3.23223 1.56549C3.70107 1.09664 4.33696 0.833252 5 0.833252H12.5C12.721 0.833252 12.933 0.921049 13.0893 1.07733L17.2559 5.244C17.4122 5.40028 17.5 5.61224 17.5 5.83325V16.6666C17.5 17.3296 17.2366 17.9655 16.7678 18.4344C16.2989 18.9032 15.663 19.1666 15 19.1666H5C4.33696 19.1666 3.70107 18.9032 3.23223 18.4344C2.76339 17.9655 2.5 17.3296 2.5 16.6666V3.33325C2.5 2.67021 2.76339 2.03433 3.23223 1.56549ZM5 2.49992C4.77899 2.49992 4.56702 2.58772 4.41074 2.744C4.25446 2.90028 4.16667 3.11224 4.16667 3.33325V16.6666C4.16667 16.8876 4.25446 17.0996 4.41074 17.2558C4.56702 17.4121 4.77899 17.4999 5 17.4999H15C15.221 17.4999 15.433 17.4121 15.5893 17.2558C15.7455 17.0996 15.8333 16.8876 15.8333 16.6666V6.17843L12.1548 2.49992H5Z" fill="black"/>
<path fill-rule="evenodd" clip-rule="evenodd" d="M11.6666 0.833252C12.1268 0.833252 12.4999 1.20635 12.4999 1.66659V4.99992C12.4999 5.22093 12.5877 5.43289 12.744 5.58917C12.9003 5.74545 13.1122 5.83325 13.3333 5.83325H16.6666C17.1268 5.83325 17.4999 6.20635 17.4999 6.66658C17.4999 7.12682 17.1268 7.49992 16.6666 7.49992H13.3333C12.6702 7.49992 12.0343 7.23653 11.5655 6.76768C11.0966 6.29884 10.8333 5.66296 10.8333 4.99992V1.66659C10.8333 1.20635 11.2063 0.833252 11.6666 0.833252Z" fill="black"/>
<path fill-rule="evenodd" clip-rule="evenodd" d="M8.33325 9.16667C7.87301 9.16667 7.49992 9.53976 7.49992 10C7.49992 10.4602 7.87301 10.8333 8.33325 10.8333C8.79349 10.8333 9.16659 10.4602 9.16659 10C9.16659 9.53976 8.79349 9.16667 8.33325 9.16667ZM5.83325 10C5.83325 8.61929 6.95254 7.5 8.33325 7.5C9.71396 7.5 10.8333 8.61929 10.8333 10C10.8333 11.3807 9.71396 12.5 8.33325 12.5C6.95254 12.5 5.83325 11.3807 5.83325 10Z" fill="black"/>
<path fill-rule="evenodd" clip-rule="evenodd" d="M12.1575 12.4974C12.6904 11.9646 13.4132 11.6653 14.1667 11.6653C14.9203 11.6653 15.6431 11.9646 16.176 12.4974L16.176 12.4975L17.256 13.5775C17.5814 13.9029 17.5814 14.4306 17.256 14.756C16.9306 15.0814 16.4029 15.0814 16.0775 14.756L14.9975 13.676C14.9975 13.676 14.9975 13.676 14.9975 13.676C14.7771 13.4557 14.4783 13.3319 14.1667 13.3319C13.8552 13.3319 13.5563 13.4557 13.336 13.676C13.336 13.676 13.336 13.676 13.336 13.676L8.08934 18.9227C7.7639 19.2481 7.23626 19.2481 6.91083 18.9227C6.58539 18.5972 6.58539 18.0696 6.91083 17.7441L12.1575 12.4975L12.1575 12.4974Z" fill="black"/>
</svg>
