<svg width="20" height="20" viewBox="0 0 20 20" fill="none" xmlns="http://www.w3.org/2000/svg">
<path fill-rule="evenodd" clip-rule="evenodd" d="M11.6666 0.833252C12.1268 0.833252 12.4999 1.20635 12.4999 1.66659V4.99992C12.4999 5.22093 12.5877 5.43289 12.744 5.58917C12.9003 5.74545 13.1122 5.83325 13.3333 5.83325H16.6666C17.1268 5.83325 17.4999 6.20635 17.4999 6.66658C17.4999 7.12682 17.1268 7.49992 16.6666 7.49992H13.3333C12.6702 7.49992 12.0343 7.23653 11.5655 6.76768C11.0966 6.29884 10.8333 5.66296 10.8333 4.99992V1.66659C10.8333 1.20635 11.2063 0.833252 11.6666 0.833252Z" fill="black"/>
<path fill-rule="evenodd" clip-rule="evenodd" d="M5 2.49992C4.77899 2.49992 4.56702 2.58772 4.41074 2.744C4.25446 2.90028 4.16667 3.11224 4.16667 3.33325V5.83325C4.16667 6.29349 3.79357 6.66659 3.33333 6.66659C2.8731 6.66659 2.5 6.29349 2.5 5.83325V3.33325C2.5 2.67021 2.76339 2.03433 3.23223 1.56549C3.70107 1.09664 4.33696 0.833252 5 0.833252C5.46024 0.833252 5.83333 1.20635 5.83333 1.66659C5.83333 2.12682 5.46024 2.49992 5 2.49992Z" fill="black"/>
<path fill-rule="evenodd" clip-rule="evenodd" d="M4.16656 1.66659C4.16656 1.20635 4.53966 0.833252 4.99989 0.833252H12.4999C12.7209 0.833252 12.9329 0.921049 13.0891 1.07733L17.2558 5.244C17.4121 5.40028 17.4999 5.61224 17.4999 5.83325V16.6666C17.4999 17.3296 17.2365 17.9655 16.7677 18.4343C16.2988 18.9032 15.6629 19.1666 14.9999 19.1666L5.10092 19.1658C4.62629 19.2161 4.14669 19.1296 3.71904 18.9158C3.27363 18.6931 2.90487 18.3424 2.66005 17.9088C2.43379 17.508 2.57526 16.9997 2.97604 16.7734C3.37682 16.5471 3.88514 16.6886 4.1114 17.0894C4.19301 17.234 4.31593 17.3508 4.4644 17.4251C4.61287 17.4993 4.78013 17.5275 4.94473 17.5061C4.98045 17.5014 5.01644 17.4991 5.05246 17.4991L14.9999 17.4999C14.9999 17.4999 14.9999 17.4999 15 17.4999C15.2209 17.4999 15.4329 17.4121 15.5891 17.2558C15.7454 17.0996 15.8332 16.8876 15.8332 16.6666V6.17843L12.1547 2.49992H4.99989C4.53966 2.49992 4.16656 2.12682 4.16656 1.66659Z" fill="black"/>
<path fill-rule="evenodd" clip-rule="evenodd" d="M4.75584 8.57733C5.08128 8.90277 5.08128 9.4304 4.75584 9.75584L2.25584 12.2558C1.9304 12.5813 1.40277 12.5813 1.07733 12.2558C0.751893 11.9304 0.751893 11.4028 1.07733 11.0773L3.57733 8.57733C3.90277 8.25189 4.4304 8.25189 4.75584 8.57733Z" fill="black"/>
<path fill-rule="evenodd" clip-rule="evenodd" d="M0.89671 11.3477C1.02569 11.0363 1.32956 10.8333 1.66661 10.8333H9.99994C10.4602 10.8333 10.8333 11.2063 10.8333 11.6666C10.8333 12.1268 10.4602 12.4999 9.99994 12.4999H3.67845L4.75587 13.5773C5.0813 13.9028 5.0813 14.4304 4.75587 14.7558C4.43043 15.0813 3.90279 15.0813 3.57735 14.7558L1.07735 12.2558C0.839022 12.0175 0.767726 11.6591 0.89671 11.3477Z" fill="black"/>
</svg>
