<svg width="20" height="20" viewBox="0 0 20 20" fill="none" xmlns="http://www.w3.org/2000/svg">
<path fill-rule="evenodd" clip-rule="evenodd" d="M8.33333 8.33325C8.79357 8.33325 9.16667 8.70635 9.16667 9.16659V9.99992C9.16667 10.4602 8.79357 10.8333 8.33333 10.8333C7.8731 10.8333 7.5 10.4602 7.5 9.99992V9.16659C7.5 8.70635 7.8731 8.33325 8.33333 8.33325Z" fill="black"/>
<path fill-rule="evenodd" clip-rule="evenodd" d="M8.33333 12.5C8.79357 12.5 9.16667 12.8731 9.16667 13.3333V15C9.16667 15.4602 8.79357 15.8333 8.33333 15.8333C7.8731 15.8333 7.5 15.4602 7.5 15V13.3333C7.5 12.8731 7.8731 12.5 8.33333 12.5Z" fill="black"/>
<path fill-rule="evenodd" clip-rule="evenodd" d="M8.33333 4.16675C8.79357 4.16675 9.16667 4.53984 9.16667 5.00008V5.83341C9.16667 6.29365 8.79357 6.66675 8.33333 6.66675C7.8731 6.66675 7.5 6.29365 7.5 5.83341V5.00008C7.5 4.53984 7.8731 4.16675 8.33333 4.16675Z" fill="black"/>
<path fill-rule="evenodd" clip-rule="evenodd" d="M11.6666 0.833252C12.1268 0.833252 12.4999 1.20635 12.4999 1.66659V4.99992C12.4999 5.22093 12.5877 5.43289 12.744 5.58917C12.9003 5.74545 13.1122 5.83325 13.3333 5.83325H16.6666C17.1268 5.83325 17.4999 6.20635 17.4999 6.66658C17.4999 7.12682 17.1268 7.49992 16.6666 7.49992H13.3333C12.6702 7.49992 12.0343 7.23653 11.5655 6.76768C11.0966 6.29884 10.8333 5.66296 10.8333 4.99992V1.66659C10.8333 1.20635 11.2063 0.833252 11.6666 0.833252Z" fill="black"/>
<path fill-rule="evenodd" clip-rule="evenodd" d="M3.23223 1.56549C3.70107 1.09664 4.33696 0.833252 5 0.833252H12.5C12.721 0.833252 12.933 0.921049 13.0893 1.07733L17.2559 5.244C17.4122 5.40028 17.5 5.61224 17.5 5.83325V16.6666C17.5 17.3296 17.2366 17.9655 16.7678 18.4344C16.2989 18.9032 15.663 19.1666 15 19.1666H12.9167C12.4564 19.1666 12.0833 18.7935 12.0833 18.3333C12.0833 17.873 12.4564 17.4999 12.9167 17.4999H15C15.221 17.4999 15.433 17.4121 15.5893 17.2558C15.7455 17.0996 15.8333 16.8876 15.8333 16.6666V6.17843L12.1548 2.49992H5C4.77899 2.49992 4.56702 2.58772 4.41074 2.744C4.25446 2.90028 4.16667 3.11224 4.16667 3.33325V16.6664C4.16667 16.6665 4.16667 16.6665 4.16667 16.6666C4.16673 16.8145 4.20613 16.9596 4.28083 17.0872C4.51335 17.4844 4.37986 17.9949 3.98267 18.2274C3.58549 18.4599 3.07501 18.3264 2.8425 17.9293C2.6183 17.5463 2.50009 17.1105 2.5 16.6668V3.33325C2.5 2.67021 2.76339 2.03433 3.23223 1.56549Z" fill="black"/>
<path fill-rule="evenodd" clip-rule="evenodd" d="M8.33325 15.8334C7.87301 15.8334 7.49992 16.2065 7.49992 16.6667C7.49992 17.127 7.87301 17.5001 8.33325 17.5001C8.79349 17.5001 9.16659 17.127 9.16659 16.6667C9.16659 16.2065 8.79349 15.8334 8.33325 15.8334ZM5.83325 16.6667C5.83325 15.286 6.95254 14.1667 8.33325 14.1667C9.71396 14.1667 10.8333 15.286 10.8333 16.6667C10.8333 18.0475 9.71396 19.1667 8.33325 19.1667C6.95254 19.1667 5.83325 18.0475 5.83325 16.6667Z" fill="black"/>
</svg>
