<svg width="20" height="20" viewBox="0 0 20 20" fill="none" xmlns="http://www.w3.org/2000/svg">
<path fill-rule="evenodd" clip-rule="evenodd" d="M11.6666 0.833252C12.1268 0.833252 12.4999 1.20635 12.4999 1.66659V4.99992C12.4999 5.22093 12.5877 5.43289 12.744 5.58917C12.9003 5.74545 13.1122 5.83325 13.3333 5.83325H16.6666C17.1268 5.83325 17.4999 6.20635 17.4999 6.66658C17.4999 7.12682 17.1268 7.49992 16.6666 7.49992H13.3333C12.6702 7.49992 12.0343 7.23653 11.5655 6.76768C11.0966 6.29884 10.8333 5.66296 10.8333 4.99992V1.66659C10.8333 1.20635 11.2063 0.833252 11.6666 0.833252Z" fill="black"/>
<path fill-rule="evenodd" clip-rule="evenodd" d="M3.23223 1.56549C3.70107 1.09664 4.33696 0.833252 5 0.833252H12.5C12.721 0.833252 12.933 0.921049 13.0893 1.07733L17.2559 5.244C17.4122 5.40028 17.5 5.61224 17.5 5.83325V16.6666C17.5 17.3296 17.2366 17.9655 16.7678 18.4344C16.2989 18.9032 15.663 19.1666 15 19.1666L4.99373 19.1666C4.55596 19.1655 4.12615 19.0494 3.74731 18.8301C3.36846 18.6107 3.05386 18.2957 2.83498 17.9166C2.60486 17.518 2.74142 17.0083 3.14 16.7782C3.53858 16.5481 4.04824 16.6847 4.27836 17.0833C4.35132 17.2096 4.45619 17.3146 4.58247 17.3878C4.70846 17.4607 4.85137 17.4994 4.99696 17.4999H15C15.221 17.4999 15.433 17.4121 15.5893 17.2558C15.7455 17.0996 15.8333 16.8876 15.8333 16.6666V6.17843L12.1548 2.49992H5C4.77899 2.49992 4.56702 2.58772 4.41074 2.744C4.25446 2.90028 4.16667 3.11224 4.16667 3.33325V5.83325C4.16667 6.29349 3.79357 6.66659 3.33333 6.66659C2.8731 6.66659 2.5 6.29349 2.5 5.83325V3.33325C2.5 2.67021 2.76339 2.03433 3.23223 1.56549Z" fill="black"/>
<path fill-rule="evenodd" clip-rule="evenodd" d="M5.66083 13.1608C5.98626 12.8354 6.5139 12.8354 6.83934 13.1608L8.08934 14.4108C8.41477 14.7363 8.41477 15.2639 8.08934 15.5893C7.7639 15.9148 7.23626 15.9148 6.91083 15.5893L5.66083 14.3393C5.33539 14.0139 5.33539 13.4863 5.66083 13.1608Z" fill="black"/>
<path fill-rule="evenodd" clip-rule="evenodd" d="M4.16658 9.99992C3.24611 9.99992 2.49992 10.7461 2.49992 11.6666C2.49992 12.5871 3.24611 13.3333 4.16658 13.3333C5.08706 13.3333 5.83325 12.5871 5.83325 11.6666C5.83325 10.7461 5.08706 9.99992 4.16658 9.99992ZM0.833252 11.6666C0.833252 9.82564 2.32564 8.33325 4.16658 8.33325C6.00753 8.33325 7.49992 9.82564 7.49992 11.6666C7.49992 13.5075 6.00753 14.9999 4.16658 14.9999C2.32564 14.9999 0.833252 13.5075 0.833252 11.6666Z" fill="black"/>
</svg>
