<svg width="20" height="20" viewBox="0 0 20 20" fill="none" xmlns="http://www.w3.org/2000/svg">
<path fill-rule="evenodd" clip-rule="evenodd" d="M3.23223 1.56549C3.70107 1.09664 4.33696 0.833252 5 0.833252H12.5C12.721 0.833252 12.933 0.921049 13.0893 1.07733L17.2559 5.244C17.4122 5.40028 17.5 5.61224 17.5 5.83325V16.6666C17.5 17.3296 17.2366 17.9655 16.7678 18.4344C16.2989 18.9032 15.663 19.1666 15 19.1666H13.3333C12.8731 19.1666 12.5 18.7935 12.5 18.3333C12.5 17.873 12.8731 17.4999 13.3333 17.4999H15C15.221 17.4999 15.433 17.4121 15.5893 17.2558C15.7455 17.0996 15.8333 16.8876 15.8333 16.6666V6.17843L12.1548 2.49992H5C4.77899 2.49992 4.56702 2.58772 4.41074 2.744C4.25446 2.90028 4.16667 3.11224 4.16667 3.33325V5.83325C4.16667 6.29349 3.79357 6.66659 3.33333 6.66659C2.8731 6.66659 2.5 6.29349 2.5 5.83325V3.33325C2.5 2.67021 2.76339 2.03433 3.23223 1.56549Z" fill="black"/>
<path fill-rule="evenodd" clip-rule="evenodd" d="M11.6666 0.833252C12.1268 0.833252 12.4999 1.20635 12.4999 1.66659V4.99992C12.4999 5.22093 12.5877 5.43289 12.744 5.58917C12.9003 5.74545 13.1122 5.83325 13.3333 5.83325H16.6666C17.1268 5.83325 17.4999 6.20635 17.4999 6.66658C17.4999 7.12682 17.1268 7.49992 16.6666 7.49992H13.3333C12.6702 7.49992 12.0343 7.23653 11.5655 6.76768C11.0966 6.29884 10.8333 5.66296 10.8333 4.99992V1.66659C10.8333 1.20635 11.2063 0.833252 11.6666 0.833252Z" fill="black"/>
<path fill-rule="evenodd" clip-rule="evenodd" d="M6.66659 9.16667C4.3654 9.16667 2.49992 11.0321 2.49992 13.3333C2.49992 15.6345 4.3654 17.5 6.66659 17.5C8.96777 17.5 10.8333 15.6345 10.8333 13.3333C10.8333 11.0321 8.96777 9.16667 6.66659 9.16667ZM0.833252 13.3333C0.833252 10.1117 3.44492 7.5 6.66659 7.5C9.88825 7.5 12.4999 10.1117 12.4999 13.3333C12.4999 16.555 9.88825 19.1667 6.66659 19.1667C3.44492 19.1667 0.833252 16.555 0.833252 13.3333Z" fill="black"/>
<path fill-rule="evenodd" clip-rule="evenodd" d="M6.66659 10.8333C7.12682 10.8333 7.49992 11.2063 7.49992 11.6666V13.1513L8.45007 13.9431C8.80364 14.2377 8.85141 14.7632 8.55677 15.1167C8.26213 15.4703 7.73666 15.5181 7.3831 15.2234L6.1331 14.1818C5.9431 14.0234 5.83325 13.7889 5.83325 13.5416V11.6666C5.83325 11.2063 6.20635 10.8333 6.66659 10.8333Z" fill="black"/>
</svg>
