<svg width="20" height="20" viewBox="0 0 20 20" fill="none" xmlns="http://www.w3.org/2000/svg">
<path fill-rule="evenodd" clip-rule="evenodd" d="M3.23223 1.56549C3.70107 1.09664 4.33696 0.833252 5 0.833252H12.5C12.721 0.833252 12.933 0.921049 13.0893 1.07733L17.2559 5.244C17.4122 5.40028 17.5 5.61224 17.5 5.83325V16.6666C17.5 17.3296 17.2366 17.9655 16.7678 18.4344C16.2989 18.9032 15.663 19.1666 15 19.1666H10.4167C9.95643 19.1666 9.58333 18.7935 9.58333 18.3333C9.58333 17.873 9.95643 17.4999 10.4167 17.4999H15C15.221 17.4999 15.433 17.4121 15.5893 17.2558C15.7455 17.0996 15.8333 16.8876 15.8333 16.6666V6.17843L12.1548 2.49992H5C4.77899 2.49992 4.56702 2.58772 4.41074 2.744C4.25446 2.90028 4.16667 3.11224 4.16667 3.33325V11.2499C4.16667 11.7102 3.79357 12.0833 3.33333 12.0833C2.8731 12.0833 2.5 11.7102 2.5 11.2499V3.33325C2.5 2.67021 2.76339 2.03433 3.23223 1.56549Z" fill="black"/>
<path fill-rule="evenodd" clip-rule="evenodd" d="M11.6666 0.833252C12.1268 0.833252 12.4999 1.20635 12.4999 1.66659V4.99992C12.4999 5.22093 12.5877 5.43289 12.744 5.58917C12.9003 5.74545 13.1122 5.83325 13.3333 5.83325H16.6666C17.1268 5.83325 17.4999 6.20635 17.4999 6.66658C17.4999 7.12682 17.1268 7.49992 16.6666 7.49992H13.3333C12.6702 7.49992 12.0343 7.23653 11.5655 6.76768C11.0966 6.29884 10.8333 5.66296 10.8333 4.99992V1.66659C10.8333 1.20635 11.2063 0.833252 11.6666 0.833252Z" fill="black"/>
<path fill-rule="evenodd" clip-rule="evenodd" d="M8.90027 9.36468C9.21613 9.23384 9.55468 9.1665 9.89657 9.1665C10.2385 9.1665 10.577 9.23384 10.8929 9.36468C11.2087 9.49552 11.4957 9.68729 11.7375 9.92904C11.9792 10.1708 12.171 10.4578 12.3018 10.7737C12.4327 11.0895 12.5 11.4281 12.5 11.77C12.5 12.1119 12.4327 12.4504 12.3018 12.7663C12.171 13.0821 11.9792 13.3691 11.7375 13.6109L7.56015 17.7849C7.56013 17.7849 7.56012 17.7849 7.5601 17.7849C7.26309 18.0821 6.89596 18.2996 6.49265 18.4174L4.10073 19.115C4.10073 19.115 4.10072 19.115 4.10071 19.115C3.88559 19.1777 3.65757 19.1815 3.44051 19.1259C3.22343 19.0702 3.0253 18.9573 2.86685 18.7988C2.7084 18.6404 2.59545 18.4423 2.53984 18.2252C2.48423 18.0081 2.48799 17.7801 2.55073 17.565C2.55073 17.565 2.55073 17.565 2.55073 17.565L3.24831 15.173C3.36604 14.7698 3.58348 14.4028 3.88053 14.1058C3.88062 14.1057 3.88071 14.1056 3.88081 14.1055L8.05553 9.92916L8.64418 10.5176L8.05564 9.92904C8.2974 9.68729 8.5844 9.49552 8.90027 9.36468ZM9.23427 11.1074C9.23423 11.1075 9.23419 11.1075 9.23415 11.1076L5.05899 15.2844C4.96 15.3833 4.88752 15.5056 4.84824 15.6399C4.84823 15.64 4.84822 15.64 4.84821 15.64C4.8482 15.6401 4.84818 15.6402 4.84816 15.6402L4.36345 17.3022L6.02548 16.8175C6.02557 16.8175 6.02566 16.8175 6.02575 16.8175C6.16009 16.7782 6.28237 16.7057 6.38131 16.6067L10.559 12.4324C10.646 12.3454 10.715 12.2421 10.762 12.1285C10.8091 12.0148 10.8334 11.893 10.8334 11.77C10.8334 11.6469 10.8091 11.5251 10.762 11.4115C10.715 11.2978 10.646 11.1945 10.559 11.1076C10.472 11.0206 10.3687 10.9516 10.2551 10.9045C10.1414 10.8574 10.0196 10.8332 9.89657 10.8332C9.77354 10.8332 9.65173 10.8574 9.53807 10.9045C9.42447 10.9515 9.32124 11.0205 9.23427 11.1074ZM3.63441 17.5149C3.6343 17.5149 3.6342 17.5149 3.63409 17.515C3.63408 17.515 3.63407 17.515 3.63407 17.515M3.63441 17.5149L3.63409 17.515L3.63441 17.5149Z" fill="black"/>
</svg>
