<svg width="20" height="20" viewBox="0 0 20 20" fill="none" xmlns="http://www.w3.org/2000/svg">
<path fill-rule="evenodd" clip-rule="evenodd" d="M3.23223 1.56549C3.70107 1.09664 4.33696 0.833252 5 0.833252H12.5C12.721 0.833252 12.933 0.921049 13.0893 1.07733L17.2559 5.244C17.4122 5.40028 17.5 5.61224 17.5 5.83325V16.6666C17.5 17.3296 17.2366 17.9655 16.7678 18.4344C16.2989 18.9032 15.663 19.1666 15 19.1666H3.33333C2.8731 19.1666 2.5 18.7935 2.5 18.3333C2.5 17.873 2.8731 17.4999 3.33333 17.4999H15C15.221 17.4999 15.433 17.4121 15.5893 17.2558C15.7455 17.0996 15.8333 16.8876 15.8333 16.6666V6.17843L12.1548 2.49992H5C4.77899 2.49992 4.56702 2.58772 4.41074 2.744C4.25446 2.90028 4.16667 3.11224 4.16667 3.33325V4.99992C4.16667 5.46016 3.79357 5.83325 3.33333 5.83325C2.8731 5.83325 2.5 5.46016 2.5 4.99992V3.33325C2.5 2.67021 2.76339 2.03433 3.23223 1.56549Z" fill="black"/>
<path fill-rule="evenodd" clip-rule="evenodd" d="M11.6666 0.833252C12.1268 0.833252 12.4999 1.20635 12.4999 1.66659V4.99992C12.4999 5.22093 12.5877 5.43289 12.744 5.58917C12.9003 5.74545 13.1122 5.83325 13.3333 5.83325H16.6666C17.1268 5.83325 17.4999 6.20635 17.4999 6.66658C17.4999 7.12682 17.1268 7.49992 16.6666 7.49992H13.3333C12.6702 7.49992 12.0343 7.23653 11.5655 6.76768C11.0966 6.29884 10.8333 5.66296 10.8333 4.99992V1.66659C10.8333 1.20635 11.2063 0.833252 11.6666 0.833252Z" fill="black"/>
<path fill-rule="evenodd" clip-rule="evenodd" d="M0.833252 14.1667C0.833252 13.2462 1.57944 12.5 2.49992 12.5C3.42039 12.5 4.16658 13.2462 4.16658 14.1667C4.16658 15.0871 3.42039 15.8333 2.49992 15.8333C1.57944 15.8333 0.833252 15.0871 0.833252 14.1667Z" fill="black"/>
<path fill-rule="evenodd" clip-rule="evenodd" d="M4.99992 9.16667C4.33688 9.16667 3.70099 9.43006 3.23215 9.8989C2.76331 10.3677 2.49992 11.0036 2.49992 11.6667V14.1667C2.49992 14.6269 2.12682 15 1.66659 15C1.20635 15 0.833252 14.6269 0.833252 14.1667V11.6667C0.833252 10.5616 1.27224 9.50179 2.05364 8.72039C2.83504 7.93899 3.89485 7.5 4.99992 7.5C6.10499 7.5 7.16479 7.93899 7.9462 8.72039C8.7276 9.50179 9.16658 10.5616 9.16658 11.6667V14.1667C9.16658 14.6269 8.79349 15 8.33325 15C7.87301 15 7.49992 14.6269 7.49992 14.1667V11.6667C7.49992 11.0036 7.23653 10.3677 6.76769 9.8989C6.29884 9.43006 5.66296 9.16667 4.99992 9.16667Z" fill="black"/>
<path fill-rule="evenodd" clip-rule="evenodd" d="M5.83325 14.1667C5.83325 13.2462 6.57944 12.5 7.49992 12.5C8.42039 12.5 9.16658 13.2462 9.16658 14.1667C9.16658 15.0871 8.42039 15.8333 7.49992 15.8333C6.57944 15.8333 5.83325 15.0871 5.83325 14.1667Z" fill="black"/>
</svg>
