<svg width="20" height="20" viewBox="0 0 20 20" fill="none" xmlns="http://www.w3.org/2000/svg">
<path fill-rule="evenodd" clip-rule="evenodd" d="M9.16675 14.1666C9.16675 13.7063 9.53984 13.3333 10.0001 13.3333H10.0084C10.4687 13.3333 10.8417 13.7063 10.8417 14.1666C10.8417 14.6268 10.4687 14.9999 10.0084 14.9999H10.0001C9.53984 14.9999 9.16675 14.6268 9.16675 14.1666Z" fill="black"/>
<path fill-rule="evenodd" clip-rule="evenodd" d="M3.23223 1.56549C3.70107 1.09664 4.33696 0.833252 5 0.833252H12.5C12.721 0.833252 12.933 0.921049 13.0893 1.07733L17.2559 5.244C17.4122 5.40028 17.5 5.61224 17.5 5.83325V16.6666C17.5 17.3296 17.2366 17.9655 16.7678 18.4344C16.2989 18.9032 15.663 19.1666 15 19.1666H5C4.33696 19.1666 3.70107 18.9032 3.23223 18.4344C2.76339 17.9655 2.5 17.3296 2.5 16.6666V3.33325C2.5 2.67021 2.76339 2.03433 3.23223 1.56549ZM5 2.49992C4.77899 2.49992 4.56702 2.58772 4.41074 2.744C4.25446 2.90028 4.16667 3.11224 4.16667 3.33325V16.6666C4.16667 16.8876 4.25446 17.0996 4.41074 17.2558C4.56702 17.4121 4.77899 17.4999 5 17.4999H15C15.221 17.4999 15.433 17.4121 15.5893 17.2558C15.7455 17.0996 15.8333 16.8876 15.8333 16.6666V6.17843L12.1548 2.49992H5Z" fill="black"/>
<path fill-rule="evenodd" clip-rule="evenodd" d="M10.2156 6.71003C9.8304 6.64384 9.43417 6.71515 9.09619 6.91149C8.75821 7.10783 8.5 7.41671 8.36667 7.78414C8.20969 8.21678 7.73171 8.44024 7.29907 8.28326C6.86644 8.12627 6.64297 7.64829 6.79996 7.21566C7.0666 6.4808 7.58304 5.86304 8.25899 5.47035C8.93495 5.07767 9.72741 4.93506 10.4979 5.06743C11.2683 5.19981 11.9677 5.59877 12.4738 6.19455C12.9799 6.79034 13.2606 7.54505 13.2666 8.32677C13.2666 8.32892 13.2666 8.33108 13.2666 8.33323C13.2666 9.60895 12.3209 10.4514 11.6456 10.9016C11.2825 11.1436 10.9254 11.3216 10.6624 11.4385C10.5297 11.4975 10.4179 11.5422 10.3374 11.5729C10.2971 11.5883 10.2644 11.6002 10.2406 11.6086C10.2287 11.6129 10.219 11.6163 10.2116 11.6188C10.208 11.62 10.2049 11.6211 10.2024 11.6219C10.2012 11.6223 10.2001 11.6227 10.1992 11.623L10.1979 11.6235L10.1973 11.6236C10.1971 11.6237 10.1968 11.6238 9.93332 10.8332L10.1968 11.6238C9.76022 11.7693 9.28829 11.5334 9.14275 11.0968C8.9974 10.6607 9.23256 10.1894 9.66808 10.0432C9.66832 10.0432 9.66875 10.043 9.66935 10.0428C9.67148 10.0421 9.67581 10.0406 9.68222 10.0383C9.69504 10.0337 9.71605 10.0261 9.74408 10.0154C9.80027 9.99402 9.88383 9.96066 9.98549 9.91547C10.1912 9.82405 10.4591 9.68951 10.7211 9.51486C11.2943 9.13271 11.5984 8.72623 11.6 8.33618C11.5961 7.94658 11.4559 7.57059 11.2036 7.27359C10.9506 6.9757 10.6008 6.77622 10.2156 6.71003ZM9.66922 10.0429C9.66927 10.0428 9.66931 10.0428 9.66936 10.0428C9.66936 10.0428 9.66936 10.0428 9.66936 10.0428" fill="black"/>
</svg>
