<svg width="20" height="20" viewBox="0 0 20 20" fill="none" xmlns="http://www.w3.org/2000/svg">
<path fill-rule="evenodd" clip-rule="evenodd" d="M3.23223 1.56549C3.70107 1.09664 4.33696 0.833252 5 0.833252H12.5C12.721 0.833252 12.933 0.921049 13.0893 1.07733L17.2559 5.244C17.4122 5.40028 17.5 5.61224 17.5 5.83325V16.6666C17.5 17.3296 17.2366 17.9655 16.7678 18.4344C16.2989 18.9032 15.663 19.1666 15 19.1666H3.33333C2.8731 19.1666 2.5 18.7935 2.5 18.3333C2.5 17.873 2.8731 17.4999 3.33333 17.4999H15C15.221 17.4999 15.433 17.4121 15.5893 17.2558C15.7455 17.0996 15.8333 16.8876 15.8333 16.6666V6.17843L12.1548 2.49992H5C4.77899 2.49992 4.56702 2.58772 4.41074 2.744C4.25446 2.90028 4.16667 3.11224 4.16667 3.33325V6.66659C4.16667 7.12682 3.79357 7.49992 3.33333 7.49992C2.8731 7.49992 2.5 7.12682 2.5 6.66659V3.33325C2.5 2.67021 2.76339 2.03433 3.23223 1.56549Z" fill="black"/>
<path fill-rule="evenodd" clip-rule="evenodd" d="M11.6666 0.833252C12.1268 0.833252 12.4999 1.20635 12.4999 1.66659V4.99992C12.4999 5.22093 12.5877 5.43289 12.744 5.58917C12.9003 5.74545 13.1122 5.83325 13.3333 5.83325H16.6666C17.1268 5.83325 17.4999 6.20635 17.4999 6.66658C17.4999 7.12682 17.1268 7.49992 16.6666 7.49992H13.3333C12.6702 7.49992 12.0343 7.23653 11.5655 6.76768C11.0966 6.29884 10.8333 5.66296 10.8333 4.99992V1.66659C10.8333 1.20635 11.2063 0.833252 11.6666 0.833252Z" fill="black"/>
<path fill-rule="evenodd" clip-rule="evenodd" d="M1.66675 12.5001C1.66675 12.0398 2.03984 11.6667 2.50008 11.6667H7.50008C7.96032 11.6667 8.33341 12.0398 8.33341 12.5001C8.33341 12.9603 7.96032 13.3334 7.50008 13.3334H2.50008C2.03984 13.3334 1.66675 12.9603 1.66675 12.5001Z" fill="black"/>
<path fill-rule="evenodd" clip-rule="evenodd" d="M5.00008 9.16675C5.46032 9.16675 5.83341 9.53984 5.83341 10.0001V15.0001C5.83341 15.4603 5.46032 15.8334 5.00008 15.8334C4.53984 15.8334 4.16675 15.4603 4.16675 15.0001V10.0001C4.16675 9.53984 4.53984 9.16675 5.00008 9.16675Z" fill="black"/>
</svg>
