<svg width="20" height="20" viewBox="0 0 20 20" fill="none" xmlns="http://www.w3.org/2000/svg">
<path fill-rule="evenodd" clip-rule="evenodd" d="M3.23223 1.56549C3.70107 1.09664 4.33696 0.833252 5 0.833252H12.5C12.721 0.833252 12.933 0.921049 13.0893 1.07733L17.2559 5.244C17.4122 5.40028 17.5 5.61224 17.5 5.83325V16.6666C17.5 17.3296 17.2366 17.9655 16.7678 18.4344C16.2989 18.9032 15.663 19.1666 15 19.1666H3.33333C2.8731 19.1666 2.5 18.7935 2.5 18.3333C2.5 17.873 2.8731 17.4999 3.33333 17.4999H15C15.221 17.4999 15.433 17.4121 15.5893 17.2558C15.7455 17.0996 15.8333 16.8876 15.8333 16.6666V6.17843L12.1548 2.49992H5C4.77899 2.49992 4.56702 2.58772 4.41074 2.744C4.25446 2.90028 4.16667 3.11224 4.16667 3.33325V4.16659C4.16667 4.62682 3.79357 4.99992 3.33333 4.99992C2.8731 4.99992 2.5 4.62682 2.5 4.16659V3.33325C2.5 2.67021 2.76339 2.03433 3.23223 1.56549Z" fill="black"/>
<path fill-rule="evenodd" clip-rule="evenodd" d="M11.6666 0.833252C12.1268 0.833252 12.4999 1.20635 12.4999 1.66659V4.99992C12.4999 5.22093 12.5877 5.43289 12.744 5.58917C12.9003 5.74545 13.1122 5.83325 13.3333 5.83325H16.6666C17.1268 5.83325 17.4999 6.20635 17.4999 6.66658C17.4999 7.12682 17.1268 7.49992 16.6666 7.49992H13.3333C12.6702 7.49992 12.0343 7.23653 11.5655 6.76768C11.0966 6.29884 10.8333 5.66296 10.8333 4.99992V1.66659C10.8333 1.20635 11.2063 0.833252 11.6666 0.833252Z" fill="black"/>
<path fill-rule="evenodd" clip-rule="evenodd" d="M2.49992 11.6667V14.1667H7.49992V11.6667H2.49992ZM7.50096 14.1666C7.50098 14.1666 7.50098 14.1666 7.50093 14.1666L7.50096 14.1666ZM2.49891 14.1666C2.49886 14.1666 2.49885 14.1666 2.49888 14.1666L2.49891 14.1666ZM0.833252 11.6667C0.833252 10.7462 1.57944 10 2.49992 10H7.49992C8.42039 10 9.16658 10.7462 9.16658 11.6667V14.1667C9.16658 15.0871 8.42039 15.8333 7.49992 15.8333H2.49992C1.57944 15.8333 0.833252 15.0871 0.833252 14.1667V11.6667Z" fill="black"/>
<path fill-rule="evenodd" clip-rule="evenodd" d="M3.23223 7.39898C3.70107 6.93014 4.33696 6.66675 5 6.66675C5.66304 6.66675 6.29893 6.93014 6.76777 7.39898C7.23661 7.86782 7.5 8.50371 7.5 9.16675V10.8334C7.5 11.2937 7.1269 11.6667 6.66667 11.6667C6.20643 11.6667 5.83333 11.2937 5.83333 10.8334V9.16675C5.83333 8.94573 5.74554 8.73377 5.58926 8.57749C5.43298 8.42121 5.22101 8.33341 5 8.33341C4.77899 8.33341 4.56702 8.42121 4.41074 8.57749C4.25446 8.73377 4.16667 8.94573 4.16667 9.16675V10.8334C4.16667 11.2937 3.79357 11.6667 3.33333 11.6667C2.8731 11.6667 2.5 11.2937 2.5 10.8334V9.16675C2.5 8.50371 2.76339 7.86782 3.23223 7.39898Z" fill="black"/>
</svg>
