<svg width="20" height="20" viewBox="0 0 20 20" fill="none" xmlns="http://www.w3.org/2000/svg">
<path fill-rule="evenodd" clip-rule="evenodd" d="M3.23223 1.56549C3.70107 1.09664 4.33696 0.833252 5 0.833252H12.5C12.721 0.833252 12.933 0.921049 13.0893 1.07733L17.2559 5.244C17.4122 5.40028 17.5 5.61224 17.5 5.83325V8.33325C17.5 8.79349 17.1269 9.16659 16.6667 9.16659C16.2064 9.16659 15.8333 8.79349 15.8333 8.33325V6.17843L12.1548 2.49992H5C4.77899 2.49992 4.56702 2.58772 4.41074 2.744C4.25446 2.90028 4.16667 3.11224 4.16667 3.33325V16.6666C4.16667 16.8876 4.25446 17.0996 4.41074 17.2558C4.56702 17.4121 4.77899 17.4999 5 17.4999H8.33333C8.79357 17.4999 9.16667 17.873 9.16667 18.3333C9.16667 18.7935 8.79357 19.1666 8.33333 19.1666H5C4.33696 19.1666 3.70107 18.9032 3.23223 18.4344C2.76339 17.9655 2.5 17.3296 2.5 16.6666V3.33325C2.5 2.67021 2.76339 2.03433 3.23223 1.56549Z" fill="black"/>
<path fill-rule="evenodd" clip-rule="evenodd" d="M11.6666 0.833252C12.1268 0.833252 12.4999 1.20635 12.4999 1.66659V4.99992C12.4999 5.22093 12.5877 5.43289 12.744 5.58917C12.9003 5.74545 13.1122 5.83325 13.3333 5.83325H16.6666C17.1268 5.83325 17.4999 6.20635 17.4999 6.66658C17.4999 7.12682 17.1268 7.49992 16.6666 7.49992H13.3333C12.6702 7.49992 12.0343 7.23653 11.5655 6.76768C11.0966 6.29884 10.8333 5.66296 10.8333 4.99992V1.66659C10.8333 1.20635 11.2063 0.833252 11.6666 0.833252Z" fill="black"/>
<path fill-rule="evenodd" clip-rule="evenodd" d="M11.5655 11.5655C12.0343 11.0966 12.6702 10.8333 13.3333 10.8333C13.7935 10.8333 14.1666 11.2063 14.1666 11.6666C14.1666 12.1268 13.7935 12.4999 13.3333 12.4999C13.1122 12.4999 12.9003 12.5877 12.744 12.744C12.5877 12.9003 12.4999 13.1122 12.4999 13.3333C12.4999 13.7935 12.1268 14.1666 11.6666 14.1666C11.2063 14.1666 10.8333 13.7935 10.8333 13.3333C10.8333 12.6702 11.0966 12.0343 11.5655 11.5655Z" fill="black"/>
<path fill-rule="evenodd" clip-rule="evenodd" d="M15.8333 11.6666C15.8333 11.2063 16.2063 10.8333 16.6666 10.8333C17.3296 10.8333 17.9655 11.0966 18.4344 11.5655C18.9032 12.0343 19.1666 12.6702 19.1666 13.3333C19.1666 13.7935 18.7935 14.1666 18.3333 14.1666C17.873 14.1666 17.4999 13.7935 17.4999 13.3333C17.4999 13.1122 17.4121 12.9003 17.2558 12.744C17.0996 12.5877 16.8876 12.4999 16.6666 12.4999C16.2063 12.4999 15.8333 12.1268 15.8333 11.6666Z" fill="black"/>
<path fill-rule="evenodd" clip-rule="evenodd" d="M18.3333 15.8333C18.7935 15.8333 19.1666 16.2063 19.1666 16.6666C19.1666 17.3296 18.9032 17.9655 18.4344 18.4344C17.9655 18.9032 17.3296 19.1666 16.6666 19.1666C16.2063 19.1666 15.8333 18.7935 15.8333 18.3333C15.8333 17.873 16.2063 17.4999 16.6666 17.4999C16.8876 17.4999 17.0996 17.4121 17.2558 17.2558C17.4121 17.0996 17.4999 16.8876 17.4999 16.6666C17.4999 16.2063 17.873 15.8333 18.3333 15.8333Z" fill="black"/>
<path fill-rule="evenodd" clip-rule="evenodd" d="M11.6666 15.8333C12.1268 15.8333 12.4999 16.2063 12.4999 16.6666C12.4999 16.8876 12.5877 17.0996 12.744 17.2558C12.9003 17.4121 13.1122 17.4999 13.3333 17.4999C13.7935 17.4999 14.1666 17.873 14.1666 18.3333C14.1666 18.7935 13.7935 19.1666 13.3333 19.1666C12.6702 19.1666 12.0343 18.9032 11.5655 18.4344C11.0966 17.9655 10.8333 17.3296 10.8333 16.6666C10.8333 16.2063 11.2063 15.8333 11.6666 15.8333Z" fill="black"/>
</svg>
