<svg width="20" height="20" viewBox="0 0 20 20" fill="none" xmlns="http://www.w3.org/2000/svg">
<path fill-rule="evenodd" clip-rule="evenodd" d="M13.3333 0.833252C13.7936 0.833252 14.1667 1.20635 14.1667 1.66659V4.16659C14.1667 4.3876 14.2545 4.59956 14.4107 4.75584C14.567 4.91212 14.779 4.99992 15 4.99992H17.5C17.9602 4.99992 18.3333 5.37301 18.3333 5.83325C18.3333 6.29349 17.9602 6.66659 17.5 6.66659H15C14.337 6.66659 13.7011 6.40319 13.2322 5.93435C12.7634 5.46551 12.5 4.82963 12.5 4.16659V1.66659C12.5 1.20635 12.8731 0.833252 13.3333 0.833252Z" fill="black"/>
<path fill-rule="evenodd" clip-rule="evenodd" d="M10.4166 2.49992C10.2102 2.49992 9.99992 2.71016 9.99992 2.91659V10.4166C9.99992 10.623 10.2102 10.8333 10.4166 10.8333H16.2499C16.4563 10.8333 16.6666 10.623 16.6666 10.4166V5.3451L13.8214 2.49992H10.4166ZM8.33325 2.91659C8.33325 1.78968 9.28968 0.833252 10.4166 0.833252H14.1666C14.3876 0.833252 14.5996 0.921049 14.7558 1.07733L18.0892 4.41066C18.2455 4.56694 18.3333 4.77891 18.3333 4.99992V10.4166C18.3333 11.5435 17.3768 12.4999 16.2499 12.4999H10.4166C9.28968 12.4999 8.33325 11.5435 8.33325 10.4166V2.91659Z" fill="black"/>
<path fill-rule="evenodd" clip-rule="evenodd" d="M5.83333 5.83325C6.29357 5.83325 6.66667 6.20635 6.66667 6.66659V13.9609C6.6674 13.9623 6.6682 13.9638 6.66908 13.9655C6.67697 13.9799 6.68876 13.9983 6.70479 14.0192C6.72071 14.0399 6.73835 14.0598 6.75592 14.0773C6.77349 14.0949 6.79338 14.1125 6.81408 14.1285C6.83492 14.1445 6.85332 14.1563 6.86779 14.1642C6.86941 14.1651 6.87092 14.1659 6.87233 14.1666H12.5C12.9602 14.1666 13.3333 14.5397 13.3333 14.9999C13.3333 15.4602 12.9602 15.8333 12.5 15.8333H6.83333C6.2508 15.8333 5.79817 15.4766 5.57741 15.2558C5.35665 15.0351 5 14.5825 5 13.9999V6.66659C5 6.20635 5.3731 5.83325 5.83333 5.83325Z" fill="black"/>
<path fill-rule="evenodd" clip-rule="evenodd" d="M2.50008 9.16675C2.96032 9.16675 3.33341 9.53984 3.33341 10.0001V17.2944C3.33414 17.2958 3.33495 17.2973 3.33583 17.299C3.34372 17.3134 3.35551 17.3318 3.37154 17.3527C3.38746 17.3734 3.4051 17.3933 3.42267 17.4108C3.44024 17.4284 3.46013 17.446 3.48083 17.462C3.50167 17.478 3.52007 17.4898 3.53454 17.4977C3.53616 17.4986 3.53767 17.4994 3.53907 17.5001H9.16675C9.62698 17.5001 10.0001 17.8732 10.0001 18.3334C10.0001 18.7937 9.62698 19.1667 9.16675 19.1667H3.50008C2.91755 19.1667 2.46492 18.8101 2.24416 18.5893C2.0234 18.3686 1.66675 17.9159 1.66675 17.3334V10.0001C1.66675 9.53984 2.03984 9.16675 2.50008 9.16675Z" fill="black"/>
</svg>
