<svg width="20" height="20" viewBox="0 0 20 20" fill="none" xmlns="http://www.w3.org/2000/svg">
<path fill-rule="evenodd" clip-rule="evenodd" d="M11.6666 0.833252C12.1268 0.833252 12.4999 1.20635 12.4999 1.66659V4.99992C12.4999 5.22093 12.5877 5.43289 12.744 5.58917C12.9003 5.74545 13.1122 5.83325 13.3333 5.83325H16.6666C17.1268 5.83325 17.4999 6.20635 17.4999 6.66658C17.4999 7.12682 17.1268 7.49992 16.6666 7.49992H13.3333C12.6702 7.49992 12.0343 7.23653 11.5655 6.76768C11.0966 6.29884 10.8333 5.66296 10.8333 4.99992V1.66659C10.8333 1.20635 11.2063 0.833252 11.6666 0.833252Z" fill="black"/>
<path fill-rule="evenodd" clip-rule="evenodd" d="M3.23223 1.56549C3.70107 1.09664 4.33696 0.833252 5 0.833252H12.5C12.721 0.833252 12.933 0.921049 13.0893 1.07733L17.2559 5.244C17.4122 5.40028 17.5 5.61224 17.5 5.83325V16.6666C17.5 17.3296 17.2366 17.9655 16.7678 18.4344C16.2989 18.9032 15.663 19.1666 15 19.1666H13.3333C12.8731 19.1666 12.5 18.7935 12.5 18.3333C12.5 17.873 12.8731 17.4999 13.3333 17.4999H15C15.221 17.4999 15.433 17.4121 15.5893 17.2558C15.7455 17.0996 15.8333 16.8876 15.8333 16.6666V6.17843L12.1548 2.49992H5C4.77899 2.49992 4.56702 2.58772 4.41074 2.744C4.25446 2.90028 4.16667 3.11224 4.16667 3.33325V6.24992C4.16667 6.71016 3.79357 7.08325 3.33333 7.08325C2.8731 7.08325 2.5 6.71016 2.5 6.24992V3.33325C2.5 2.67021 2.76339 2.03433 3.23223 1.56549Z" fill="black"/>
<path fill-rule="evenodd" clip-rule="evenodd" d="M3.97083 9.04022C4.27631 9.38445 4.24491 9.91115 3.90067 10.2166C3.47593 10.5936 3.13272 11.0534 2.89212 11.5677C2.65153 12.0821 2.51862 12.6403 2.50156 13.2079C2.48449 13.7755 2.58364 14.3406 2.79292 14.8686C3.00219 15.3965 3.31716 15.876 3.7185 16.2778C4.11984 16.6796 4.59906 16.995 5.12675 17.2049C5.65444 17.4147 6.21945 17.5145 6.78709 17.498C7.35473 17.4815 7.91302 17.3492 8.42766 17.1092C8.94231 16.8691 9.40245 16.5264 9.77984 16.1021C10.0857 15.7581 10.6124 15.7273 10.9563 16.0332C11.3002 16.339 11.3311 16.8657 11.0252 17.2096C10.4969 17.8037 9.8527 18.2835 9.13219 18.6196C8.41169 18.9557 7.63009 19.1409 6.83539 19.164C6.0407 19.187 5.24968 19.0474 4.51092 18.7536C3.77215 18.4598 3.10123 18.0181 2.53936 17.4557C1.97749 16.8932 1.53652 16.2218 1.24354 15.4827C0.950566 14.7437 0.811756 13.9525 0.835641 13.1578C0.859526 12.3632 1.0456 11.5818 1.38244 10.8616C1.71928 10.1415 2.19977 9.49777 2.79441 8.97006C3.13864 8.66458 3.66534 8.69599 3.97083 9.04022Z" fill="black"/>
<path fill-rule="evenodd" clip-rule="evenodd" d="M7.50001 9.16536C7.50002 9.16537 7.50001 9.16557 7.49993 9.16596C7.49995 9.16555 7.49999 9.16536 7.50001 9.16536ZM7.49992 9.25069V12.4999H10.7491C10.586 11.7005 10.1914 10.9653 9.61292 10.3869C9.03447 9.80846 8.29936 9.41385 7.49992 9.25069ZM10.8342 12.4998C10.8342 12.4998 10.8341 12.4999 10.8337 12.4999C10.834 12.4998 10.8342 12.4998 10.8342 12.4998ZM5.83325 9.16657C5.83325 8.29215 6.57625 7.404 7.633 7.58045L7.63394 7.58061C8.83007 7.78174 9.93376 8.35072 10.7914 9.20839C11.6491 10.0661 12.2181 11.1698 12.4192 12.3659L12.4193 12.3666C12.5959 13.4223 11.7081 14.1666 10.8333 14.1666H7.49992C7.05789 14.1666 6.63397 13.991 6.32141 13.6784C6.00885 13.3659 5.83325 12.9419 5.83325 12.4999V9.16657Z" fill="black"/>
</svg>
