<svg width="20" height="20" viewBox="0 0 20 20" fill="none" xmlns="http://www.w3.org/2000/svg">
<path fill-rule="evenodd" clip-rule="evenodd" d="M3.23223 1.56549C3.70107 1.09664 4.33696 0.833252 5 0.833252H12.5C12.721 0.833252 12.933 0.921049 13.0893 1.07733L17.2559 5.244C17.4122 5.40028 17.5 5.61224 17.5 5.83325V16.6666C17.5 17.3296 17.2366 17.9655 16.7678 18.4344C16.2989 18.9032 15.663 19.1666 15 19.1666H5C4.33696 19.1666 3.70107 18.9032 3.23223 18.4344C2.76339 17.9655 2.5 17.3296 2.5 16.6666V3.33325C2.5 2.67021 2.76339 2.03433 3.23223 1.56549ZM5 2.49992C4.77899 2.49992 4.56702 2.58772 4.41074 2.744C4.25446 2.90028 4.16667 3.11224 4.16667 3.33325V16.6666C4.16667 16.8876 4.25446 17.0996 4.41074 17.2558C4.56702 17.4121 4.77899 17.4999 5 17.4999H15C15.221 17.4999 15.433 17.4121 15.5893 17.2558C15.7455 17.0996 15.8333 16.8876 15.8333 16.6666V6.17843L12.1548 2.49992H5Z" fill="black"/>
<path fill-rule="evenodd" clip-rule="evenodd" d="M11.6666 0.833252C12.1268 0.833252 12.4999 1.20635 12.4999 1.66659V4.99992C12.4999 5.22093 12.5877 5.43289 12.744 5.58917C12.9003 5.74545 13.1122 5.83325 13.3333 5.83325H16.6666C17.1268 5.83325 17.4999 6.20635 17.4999 6.66658C17.4999 7.12682 17.1268 7.49992 16.6666 7.49992H13.3333C12.6702 7.49992 12.0343 7.23653 11.5655 6.76768C11.0966 6.29884 10.8333 5.66296 10.8333 4.99992V1.66659C10.8333 1.20635 11.2063 0.833252 11.6666 0.833252Z" fill="black"/>
<path fill-rule="evenodd" clip-rule="evenodd" d="M6.66659 12.5C7.12682 12.5 7.49992 12.8731 7.49992 13.3333V15C7.49992 15.4602 7.12682 15.8333 6.66659 15.8333C6.20635 15.8333 5.83325 15.4602 5.83325 15V13.3333C5.83325 12.8731 6.20635 12.5 6.66659 12.5Z" fill="black"/>
<path fill-rule="evenodd" clip-rule="evenodd" d="M10.0001 10.8333C10.4603 10.8333 10.8334 11.2063 10.8334 11.6666V14.9999C10.8334 15.4602 10.4603 15.8333 10.0001 15.8333C9.53984 15.8333 9.16675 15.4602 9.16675 14.9999V11.6666C9.16675 11.2063 9.53984 10.8333 10.0001 10.8333Z" fill="black"/>
<path fill-rule="evenodd" clip-rule="evenodd" d="M13.3333 9.16675C13.7936 9.16675 14.1667 9.53984 14.1667 10.0001V15.0001C14.1667 15.4603 13.7936 15.8334 13.3333 15.8334C12.8731 15.8334 12.5 15.4603 12.5 15.0001V10.0001C12.5 9.53984 12.8731 9.16675 13.3333 9.16675Z" fill="black"/>
</svg>
