<svg width="20" height="20" viewBox="0 0 20 20" fill="none" xmlns="http://www.w3.org/2000/svg">
<path fill-rule="evenodd" clip-rule="evenodd" d="M3.23223 1.56549C3.70107 1.09664 4.33696 0.833252 5 0.833252H12.5C12.721 0.833252 12.933 0.921049 13.0893 1.07733L17.2559 5.244C17.4122 5.40028 17.5 5.61224 17.5 5.83325V16.6666C17.5 17.3296 17.2366 17.9655 16.7678 18.4344C16.2989 18.9032 15.663 19.1666 15 19.1666H5C4.33696 19.1666 3.70107 18.9032 3.23223 18.4344C2.76339 17.9655 2.5 17.3296 2.5 16.6666V3.33325C2.5 2.67021 2.76339 2.03433 3.23223 1.56549ZM5 2.49992C4.77899 2.49992 4.56702 2.58772 4.41074 2.744C4.25446 2.90028 4.16667 3.11224 4.16667 3.33325V16.6666C4.16667 16.8876 4.25446 17.0996 4.41074 17.2558C4.56702 17.4121 4.77899 17.4999 5 17.4999H15C15.221 17.4999 15.433 17.4121 15.5893 17.2558C15.7455 17.0996 15.8333 16.8876 15.8333 16.6666V6.17843L12.1548 2.49992H5Z" fill="black"/>
<path fill-rule="evenodd" clip-rule="evenodd" d="M11.6666 0.833252C12.1268 0.833252 12.4999 1.20635 12.4999 1.66659V4.99992C12.4999 5.22093 12.5877 5.43289 12.744 5.58917C12.9003 5.74545 13.1122 5.83325 13.3333 5.83325H16.6666C17.1268 5.83325 17.4999 6.20635 17.4999 6.66658C17.4999 7.12682 17.1268 7.49992 16.6666 7.49992H13.3333C12.6702 7.49992 12.0343 7.23653 11.5655 6.76768C11.0966 6.29884 10.8333 5.66296 10.8333 4.99992V1.66659C10.8333 1.20635 11.2063 0.833252 11.6666 0.833252Z" fill="black"/>
<path fill-rule="evenodd" clip-rule="evenodd" d="M6.66675 10.0001C6.66675 9.53984 7.03984 9.16675 7.50008 9.16675H12.5001C12.9603 9.16675 13.3334 9.53984 13.3334 10.0001V10.8334C13.3334 11.2937 12.9603 11.6667 12.5001 11.6667C12.0398 11.6667 11.6667 11.2937 11.6667 10.8334H8.33341C8.33341 11.2937 7.96032 11.6667 7.50008 11.6667C7.03984 11.6667 6.66675 11.2937 6.66675 10.8334V10.0001Z" fill="black"/>
<path fill-rule="evenodd" clip-rule="evenodd" d="M10.0001 9.16675C10.4603 9.16675 10.8334 9.53984 10.8334 10.0001V15.0001C10.8334 15.4603 10.4603 15.8334 10.0001 15.8334C9.53984 15.8334 9.16675 15.4603 9.16675 15.0001V10.0001C9.16675 9.53984 9.53984 9.16675 10.0001 9.16675Z" fill="black"/>
<path fill-rule="evenodd" clip-rule="evenodd" d="M8.33325 15.0001C8.33325 14.5398 8.70635 14.1667 9.16659 14.1667H10.8333C11.2935 14.1667 11.6666 14.5398 11.6666 15.0001C11.6666 15.4603 11.2935 15.8334 10.8333 15.8334H9.16659C8.70635 15.8334 8.33325 15.4603 8.33325 15.0001Z" fill="black"/>
</svg>
