<svg width="20" height="20" viewBox="0 0 20 20" fill="none" xmlns="http://www.w3.org/2000/svg">
<path fill-rule="evenodd" clip-rule="evenodd" d="M12.5001 0.833252C12.9603 0.833252 13.3334 1.20635 13.3334 1.66659V4.16659C13.3334 4.3876 13.4212 4.59956 13.5775 4.75584C13.7338 4.91212 13.9457 4.99992 14.1667 4.99992H16.6667C17.127 4.99992 17.5001 5.37301 17.5001 5.83325C17.5001 6.29349 17.127 6.66659 16.6667 6.66659H14.1667C13.5037 6.66659 12.8678 6.40319 12.399 5.93435C11.9301 5.46551 11.6667 4.82963 11.6667 4.16659V1.66659C11.6667 1.20635 12.0398 0.833252 12.5001 0.833252Z" fill="black"/>
<path fill-rule="evenodd" clip-rule="evenodd" d="M7.5 2.49992C7.27899 2.49992 7.06702 2.58772 6.91074 2.744C6.75446 2.90028 6.66667 3.11224 6.66667 3.33325V13.3333C6.66667 13.5543 6.75446 13.7662 6.91074 13.9225C7.06702 14.0788 7.27899 14.1666 7.5 14.1666H15C15.221 14.1666 15.433 14.0788 15.5893 13.9225C15.7455 13.7662 15.8333 13.5543 15.8333 13.3333V5.3451L12.9882 2.49992H7.5ZM5.73223 1.56549C6.20107 1.09664 6.83696 0.833252 7.5 0.833252H13.3333C13.5543 0.833252 13.7663 0.921049 13.9226 1.07733L17.2559 4.41066C17.4122 4.56694 17.5 4.77891 17.5 4.99992V13.3333C17.5 13.9963 17.2366 14.6322 16.7678 15.101C16.2989 15.5699 15.663 15.8333 15 15.8333H7.5C6.83696 15.8333 6.20107 15.5699 5.73223 15.101C5.26339 14.6322 5 13.9963 5 13.3333V3.33325C5 2.67021 5.26339 2.03433 5.73223 1.56549Z" fill="black"/>
<path fill-rule="evenodd" clip-rule="evenodd" d="M2.50008 5.5C2.96032 5.5 3.33341 5.8731 3.33341 6.33333V17C3.33341 17.1326 3.38609 17.2598 3.47986 17.3536C3.57363 17.4473 3.70081 17.5 3.83341 17.5H12.0001C12.4603 17.5 12.8334 17.8731 12.8334 18.3333C12.8334 18.7936 12.4603 19.1667 12.0001 19.1667H3.83341C3.25878 19.1667 2.70768 18.9384 2.30135 18.5321C1.89502 18.1257 1.66675 17.5746 1.66675 17V6.33333C1.66675 5.8731 2.03984 5.5 2.50008 5.5Z" fill="black"/>
</svg>
