<svg width="20" height="20" viewBox="0 0 20 20" fill="none" xmlns="http://www.w3.org/2000/svg">
<path fill-rule="evenodd" clip-rule="evenodd" d="M3.23223 1.56549C3.70107 1.09664 4.33696 0.833252 5 0.833252H12.5C12.721 0.833252 12.933 0.921049 13.0893 1.07733L17.2559 5.244C17.4122 5.40028 17.5 5.61224 17.5 5.83325V16.6666C17.5 17.3296 17.2366 17.9655 16.7678 18.4344C16.2989 18.9032 15.663 19.1666 15 19.1666H5C4.33696 19.1666 3.70107 18.9032 3.23223 18.4344C2.76339 17.9655 2.5 17.3296 2.5 16.6666V3.33325C2.5 2.67021 2.76339 2.03433 3.23223 1.56549ZM5 2.49992C4.77899 2.49992 4.56702 2.58772 4.41074 2.744C4.25446 2.90028 4.16667 3.11224 4.16667 3.33325V16.6666C4.16667 16.8876 4.25446 17.0996 4.41074 17.2558C4.56702 17.4121 4.77899 17.4999 5 17.4999H15C15.221 17.4999 15.433 17.4121 15.5893 17.2558C15.7455 17.0996 15.8333 16.8876 15.8333 16.6666V6.17843L12.1548 2.49992H5Z" fill="black"/>
<path fill-rule="evenodd" clip-rule="evenodd" d="M11.6666 0.833252C12.1268 0.833252 12.4999 1.20635 12.4999 1.66659V4.99992C12.4999 5.22093 12.5877 5.43289 12.744 5.58917C12.9003 5.74545 13.1122 5.83325 13.3333 5.83325H16.6666C17.1268 5.83325 17.4999 6.20635 17.4999 6.66658C17.4999 7.12682 17.1268 7.49992 16.6666 7.49992H13.3333C12.6702 7.49992 12.0343 7.23653 11.5655 6.76768C11.0966 6.29884 10.8333 5.66296 10.8333 4.99992V1.66659C10.8333 1.20635 11.2063 0.833252 11.6666 0.833252Z" fill="black"/>
<path fill-rule="evenodd" clip-rule="evenodd" d="M9.58341 10.8334C8.89306 10.8334 8.33341 11.3931 8.33341 12.0834C8.33341 12.7738 8.89306 13.3334 9.58341 13.3334C10.2738 13.3334 10.8334 12.7738 10.8334 12.0834C10.8334 11.3931 10.2738 10.8334 9.58341 10.8334ZM6.66675 12.0834C6.66675 10.4726 7.97258 9.16675 9.58341 9.16675C11.1942 9.16675 12.5001 10.4726 12.5001 12.0834C12.5001 13.6942 11.1942 15.0001 9.58341 15.0001C7.97258 15.0001 6.66675 13.6942 6.66675 12.0834Z" fill="black"/>
<path fill-rule="evenodd" clip-rule="evenodd" d="M10.4941 12.9941C10.8195 12.6686 11.3472 12.6686 11.6726 12.9941L13.0893 14.4107C13.4147 14.7362 13.4147 15.2638 13.0893 15.5893C12.7638 15.9147 12.2362 15.9147 11.9107 15.5893L10.4941 14.1726C10.1686 13.8472 10.1686 13.3195 10.4941 12.9941Z" fill="black"/>
</svg>
