<svg width="20" height="20" viewBox="0 0 20 20" fill="none" xmlns="http://www.w3.org/2000/svg">
<path fill-rule="evenodd" clip-rule="evenodd" d="M3.23223 1.56549C3.70107 1.09664 4.33696 0.833252 5 0.833252H12.5C12.721 0.833252 12.933 0.921049 13.0893 1.07733L17.2559 5.244C17.4122 5.40028 17.5 5.61224 17.5 5.83325V16.6666C17.5 17.3296 17.2366 17.9655 16.7678 18.4344C16.2989 18.9032 15.663 19.1666 15 19.1666H5C4.33696 19.1666 3.70107 18.9032 3.23223 18.4344C2.76339 17.9655 2.5 17.3296 2.5 16.6666V3.33325C2.5 2.67021 2.76339 2.03433 3.23223 1.56549ZM5 2.49992C4.77899 2.49992 4.56702 2.58772 4.41074 2.744C4.25446 2.90028 4.16667 3.11224 4.16667 3.33325V16.6666C4.16667 16.8876 4.25446 17.0996 4.41074 17.2558C4.56702 17.4121 4.77899 17.4999 5 17.4999H15C15.221 17.4999 15.433 17.4121 15.5893 17.2558C15.7455 17.0996 15.8333 16.8876 15.8333 16.6666V6.17843L12.1548 2.49992H5Z" fill="black"/>
<path fill-rule="evenodd" clip-rule="evenodd" d="M11.6666 0.833252C12.1268 0.833252 12.4999 1.20635 12.4999 1.66659V4.99992C12.4999 5.22093 12.5877 5.43289 12.744 5.58917C12.9003 5.74545 13.1122 5.83325 13.3333 5.83325H16.6666C17.1268 5.83325 17.4999 6.20635 17.4999 6.66658C17.4999 7.12682 17.1268 7.49992 16.6666 7.49992H13.3333C12.6702 7.49992 12.0343 7.23653 11.5655 6.76768C11.0966 6.29884 10.8333 5.66296 10.8333 4.99992V1.66659C10.8333 1.20635 11.2063 0.833252 11.6666 0.833252Z" fill="black"/>
<path fill-rule="evenodd" clip-rule="evenodd" d="M7.15474 9.6549C7.4673 9.34234 7.89122 9.16675 8.33325 9.16675C8.79349 9.16675 9.16658 9.53984 9.16658 10.0001C9.16658 10.4603 8.79349 10.8334 8.33325 10.8334V11.6667C8.33325 11.9618 8.25499 12.2489 8.10997 12.5001C8.25499 12.7513 8.33325 13.0383 8.33325 13.3334V14.1667C8.79349 14.1667 9.16658 14.5398 9.16658 15.0001C9.16658 15.4603 8.79349 15.8334 8.33325 15.8334C7.89123 15.8334 7.4673 15.6578 7.15474 15.3453C6.84218 15.0327 6.66659 14.6088 6.66659 14.1667V13.3334C6.20635 13.3334 5.83325 12.9603 5.83325 12.5001C5.83325 12.0398 6.20635 11.6667 6.66659 11.6667V10.8334C6.66659 10.3914 6.84218 9.96746 7.15474 9.6549Z" fill="black"/>
<path fill-rule="evenodd" clip-rule="evenodd" d="M10.8333 10.0001C10.8333 9.53984 11.2063 9.16675 11.6666 9.16675C12.1086 9.16675 12.5325 9.34234 12.8451 9.6549C13.1577 9.96746 13.3333 10.3914 13.3333 10.8334V11.6667C13.7935 11.6667 14.1666 12.0398 14.1666 12.5001C14.1666 12.9603 13.7935 13.3334 13.3333 13.3334V14.1667C13.3333 14.6088 13.1577 15.0327 12.8451 15.3453C12.5325 15.6578 12.1086 15.8334 11.6666 15.8334C11.2063 15.8334 10.8333 15.4603 10.8333 15.0001C10.8333 14.5398 11.2063 14.1667 11.6666 14.1667V13.3334C11.6666 13.0383 11.7448 12.7513 11.8899 12.5001C11.7448 12.2489 11.6666 11.9618 11.6666 11.6667V10.8334C11.2063 10.8334 10.8333 10.4603 10.8333 10.0001Z" fill="black"/>
</svg>
