<svg width="20" height="20" viewBox="0 0 20 20" fill="none" xmlns="http://www.w3.org/2000/svg">
<path fill-rule="evenodd" clip-rule="evenodd" d="M3.23223 1.56549C3.70107 1.09664 4.33696 0.833252 5 0.833252H12.5C12.721 0.833252 12.933 0.921049 13.0893 1.07733L17.2559 5.244C17.4122 5.40028 17.5 5.61224 17.5 5.83325V16.6666C17.5 17.3296 17.2366 17.9655 16.7678 18.4344C16.2989 18.9032 15.663 19.1666 15 19.1666H3.33333C2.8731 19.1666 2.5 18.7935 2.5 18.3333C2.5 17.873 2.8731 17.4999 3.33333 17.4999H15C15.221 17.4999 15.433 17.4121 15.5893 17.2558C15.7455 17.0996 15.8333 16.8876 15.8333 16.6666V6.17843L12.1548 2.49992H5C4.77899 2.49992 4.56702 2.58772 4.41074 2.744C4.25446 2.90028 4.16667 3.11224 4.16667 3.33325V8.33325C4.16667 8.79349 3.79357 9.16659 3.33333 9.16659C2.8731 9.16659 2.5 8.79349 2.5 8.33325V3.33325C2.5 2.67021 2.76339 2.03433 3.23223 1.56549Z" fill="black"/>
<path fill-rule="evenodd" clip-rule="evenodd" d="M11.6666 0.833252C12.1268 0.833252 12.4999 1.20635 12.4999 1.66659V4.99992C12.4999 5.22093 12.5877 5.43289 12.744 5.58917C12.9003 5.74545 13.1122 5.83325 13.3333 5.83325H16.6666C17.1268 5.83325 17.4999 6.20635 17.4999 6.66658C17.4999 7.12682 17.1268 7.49992 16.6666 7.49992H13.3333C12.6702 7.49992 12.0343 7.23653 11.5655 6.76768C11.0966 6.29884 10.8333 5.66296 10.8333 4.99992V1.66659C10.8333 1.20635 11.2063 0.833252 11.6666 0.833252Z" fill="black"/>
<path fill-rule="evenodd" clip-rule="evenodd" d="M3.33325 12.4999C2.87301 12.4999 2.49992 12.873 2.49992 13.3333C2.49992 13.7935 2.87301 14.1666 3.33325 14.1666C3.79349 14.1666 4.16659 13.7935 4.16659 13.3333C4.16659 12.873 3.79349 12.4999 3.33325 12.4999ZM0.833252 13.3333C0.833252 11.9525 1.95254 10.8333 3.33325 10.8333C4.71396 10.8333 5.83325 11.9525 5.83325 13.3333C5.83325 14.714 4.71396 15.8333 3.33325 15.8333C1.95254 15.8333 0.833252 14.714 0.833252 13.3333Z" fill="black"/>
<path fill-rule="evenodd" clip-rule="evenodd" d="M8.92259 7.74408C9.24803 8.06951 9.24803 8.59715 8.92259 8.92259L5.17259 12.6726C4.84715 12.998 4.31951 12.998 3.99408 12.6726C3.66864 12.3472 3.66864 11.8195 3.99408 11.4941L7.74408 7.74408C8.06951 7.41864 8.59715 7.41864 8.92259 7.74408Z" fill="black"/>
<path fill-rule="evenodd" clip-rule="evenodd" d="M6.91083 8.57733C7.23626 8.25189 7.7639 8.25189 8.08934 8.57733L8.92267 9.41066C9.24811 9.7361 9.24811 10.2637 8.92267 10.5892C8.59723 10.9146 8.0696 10.9146 7.74416 10.5892L6.91083 9.75584C6.58539 9.4304 6.58539 8.90277 6.91083 8.57733Z" fill="black"/>
</svg>
