<svg width="20" height="20" viewBox="0 0 20 20" fill="none" xmlns="http://www.w3.org/2000/svg">
<path fill-rule="evenodd" clip-rule="evenodd" d="M11.6666 0.833252C12.1268 0.833252 12.4999 1.20635 12.4999 1.66659V4.99992C12.4999 5.22093 12.5877 5.43289 12.744 5.58917C12.9003 5.74545 13.1122 5.83325 13.3333 5.83325H16.6666C17.1268 5.83325 17.4999 6.20635 17.4999 6.66658C17.4999 7.12682 17.1268 7.49992 16.6666 7.49992H13.3333C12.6702 7.49992 12.0343 7.23653 11.5655 6.76768C11.0966 6.29884 10.8333 5.66296 10.8333 4.99992V1.66659C10.8333 1.20635 11.2063 0.833252 11.6666 0.833252Z" fill="black"/>
<path fill-rule="evenodd" clip-rule="evenodd" d="M1.15528 10.0783C1.3422 9.65777 1.83467 9.46836 2.25524 9.65528L3.00524 9.98862C3.42581 10.1755 3.61522 10.668 3.4283 11.0886C3.24138 11.5091 2.74892 11.6986 2.32835 11.5116L1.57834 11.1783C1.15777 10.9914 0.968364 10.4989 1.15528 10.0783Z" fill="black"/>
<path fill-rule="evenodd" clip-rule="evenodd" d="M3.4283 12.2448C3.61522 12.6654 3.42581 13.1579 3.00524 13.3448L2.25524 13.6781C1.83467 13.8651 1.3422 13.6756 1.15528 13.2551C0.968364 12.8345 1.15777 12.342 1.57834 12.1551L2.32835 11.8218C2.74892 11.6349 3.24138 11.8243 3.4283 12.2448Z" fill="black"/>
<path fill-rule="evenodd" clip-rule="evenodd" d="M3.23223 1.56549C3.70107 1.09664 4.33696 0.833252 5 0.833252H12.5C12.721 0.833252 12.933 0.921049 13.0893 1.07733L17.2559 5.244C17.4122 5.40028 17.5 5.61224 17.5 5.83325V16.6666C17.5 17.3296 17.2366 17.9655 16.7678 18.4344C16.2989 18.9032 15.663 19.1666 15 19.1666H4.99167C4.99029 19.1666 4.98892 19.1666 4.98754 19.1666C4.38288 19.1636 3.79979 18.9415 3.34629 18.5416C3.00112 18.2372 2.96809 17.7105 3.27251 17.3654C3.57694 17.0202 4.10354 16.9872 4.44871 17.2916C4.59945 17.4245 4.79314 17.4985 4.99409 17.4999H15C15.221 17.4999 15.433 17.4121 15.5893 17.2558C15.7455 17.0996 15.8333 16.8876 15.8333 16.6666V6.17843L12.1548 2.49992H5C4.77899 2.49992 4.56702 2.58772 4.41074 2.744C4.25446 2.90028 4.16667 3.11224 4.16667 3.33325V5.41659C4.16667 5.87682 3.79357 6.24992 3.33333 6.24992C2.8731 6.24992 2.5 5.87682 2.5 5.41659V3.33325C2.5 2.67021 2.76339 2.03433 3.23223 1.56549Z" fill="black"/>
<path fill-rule="evenodd" clip-rule="evenodd" d="M3.4116 7.82179C3.83217 7.63487 4.32463 7.82428 4.51155 8.24485L4.84489 8.99485C5.03181 9.41542 4.8424 9.90789 4.42183 10.0948C4.00126 10.2817 3.50879 10.0923 3.32187 9.67175L2.98854 8.92175C2.80162 8.50118 2.99103 8.00871 3.4116 7.82179Z" fill="black"/>
<path fill-rule="evenodd" clip-rule="evenodd" d="M4.42183 13.2385C4.8424 13.4255 5.03181 13.9179 4.84489 14.3385L4.51155 15.0885C4.32464 15.5091 3.83217 15.6985 3.4116 15.5116C2.99103 15.3246 2.80162 14.8322 2.98854 14.4116L3.32187 13.6616C3.50879 13.241 4.00126 13.0516 4.42183 13.2385Z" fill="black"/>
<path fill-rule="evenodd" clip-rule="evenodd" d="M6.58858 7.82179C7.00915 8.00871 7.19856 8.50118 7.01164 8.92175L6.6783 9.67175C6.49138 10.0923 5.99891 10.2817 5.57834 10.0948C5.15777 9.90789 4.96836 9.41542 5.15528 8.99485L5.48862 8.24485C5.67554 7.82428 6.16801 7.63487 6.58858 7.82179Z" fill="black"/>
<path fill-rule="evenodd" clip-rule="evenodd" d="M5.57834 13.2385C5.99892 13.0516 6.49138 13.241 6.6783 13.6616L7.01164 14.4116C7.19856 14.8322 7.00915 15.3246 6.58857 15.5116C6.168 15.6985 5.67554 15.5091 5.48862 15.0885L5.15528 14.3385C4.96836 13.9179 5.15777 13.4255 5.57834 13.2385Z" fill="black"/>
<path fill-rule="evenodd" clip-rule="evenodd" d="M8.84481 10.0783C9.03173 10.4989 8.84232 10.9914 8.42175 11.1783L7.67175 11.5116C7.25118 11.6986 6.75871 11.5091 6.57179 11.0886C6.38487 10.668 6.57428 10.1755 6.99485 9.98862L7.74485 9.65528C8.16542 9.46836 8.65789 9.65777 8.84481 10.0783Z" fill="black"/>
<path fill-rule="evenodd" clip-rule="evenodd" d="M6.57179 12.2448C6.75871 11.8243 7.25118 11.6349 7.67175 11.8218L8.42175 12.1551C8.84232 12.342 9.03173 12.8345 8.84481 13.2551C8.65789 13.6756 8.16542 13.8651 7.74485 13.6781L6.99485 13.3448C6.57428 13.1579 6.38487 12.6654 6.57179 12.2448Z" fill="black"/>
<path fill-rule="evenodd" clip-rule="evenodd" d="M5.00008 9.99992C4.07961 9.99992 3.33341 10.7461 3.33341 11.6666C3.33341 12.5871 4.07961 13.3333 5.00008 13.3333C5.92056 13.3333 6.66675 12.5871 6.66675 11.6666C6.66675 10.7461 5.92056 9.99992 5.00008 9.99992ZM1.66675 11.6666C1.66675 9.82564 3.15913 8.33325 5.00008 8.33325C6.84103 8.33325 8.33341 9.82564 8.33341 11.6666C8.33341 13.5075 6.84103 14.9999 5.00008 14.9999C3.15913 14.9999 1.66675 13.5075 1.66675 11.6666Z" fill="black"/>
</svg>
