<svg width="20" height="20" viewBox="0 0 20 20" fill="none" xmlns="http://www.w3.org/2000/svg">
<path fill-rule="evenodd" clip-rule="evenodd" d="M3.23223 1.56549C3.70107 1.09664 4.33696 0.833252 5 0.833252H12.5C12.721 0.833252 12.933 0.921049 13.0893 1.07733L17.2559 5.244C17.4122 5.40028 17.5 5.61224 17.5 5.83325V16.6666C17.5 17.3296 17.2366 17.9655 16.7678 18.4344C16.2989 18.9032 15.663 19.1666 15 19.1666H5C4.33696 19.1666 3.70107 18.9032 3.23223 18.4344C2.76339 17.9655 2.5 17.3296 2.5 16.6666V3.33325C2.5 2.67021 2.76339 2.03433 3.23223 1.56549ZM5 2.49992C4.77899 2.49992 4.56702 2.58772 4.41074 2.744C4.25446 2.90028 4.16667 3.11224 4.16667 3.33325V16.6666C4.16667 16.8876 4.25446 17.0996 4.41074 17.2558C4.56702 17.4121 4.77899 17.4999 5 17.4999H15C15.221 17.4999 15.433 17.4121 15.5893 17.2558C15.7455 17.0996 15.8333 16.8876 15.8333 16.6666V6.17843L12.1548 2.49992H5Z" fill="black"/>
<path fill-rule="evenodd" clip-rule="evenodd" d="M11.6666 0.833252C12.1268 0.833252 12.4999 1.20635 12.4999 1.66659V4.99992C12.4999 5.22093 12.5877 5.43289 12.744 5.58917C12.9003 5.74545 13.1122 5.83325 13.3333 5.83325H16.6666C17.1268 5.83325 17.4999 6.20635 17.4999 6.66658C17.4999 7.12682 17.1268 7.49992 16.6666 7.49992H13.3333C12.6702 7.49992 12.0343 7.23653 11.5655 6.76768C11.0966 6.29884 10.8333 5.66296 10.8333 4.99992V1.66659C10.8333 1.20635 11.2063 0.833252 11.6666 0.833252Z" fill="black"/>
<path fill-rule="evenodd" clip-rule="evenodd" d="M5.83325 12.5001C5.83325 12.0398 6.20635 11.6667 6.66659 11.6667H6.67492C7.13516 11.6667 7.50825 12.0398 7.50825 12.5001C7.50825 12.9603 7.13516 13.3334 6.67492 13.3334H6.66659C6.20635 13.3334 5.83325 12.9603 5.83325 12.5001Z" fill="black"/>
<path fill-rule="evenodd" clip-rule="evenodd" d="M9.08338 10.5832C9.45157 10.3071 9.97391 10.3817 10.25 10.7499C10.6287 11.2548 10.8334 11.8688 10.8334 12.4999C10.8334 13.131 10.6287 13.745 10.25 14.2499C9.97391 14.6181 9.45157 14.6927 9.08338 14.4166C8.71519 14.1404 8.64057 13.6181 8.91672 13.2499C9.07899 13.0335 9.16672 12.7703 9.16672 12.4999C9.16672 12.2294 9.07899 11.9663 8.91672 11.7499C8.64057 11.3817 8.71519 10.8594 9.08338 10.5832Z" fill="black"/>
<path fill-rule="evenodd" clip-rule="evenodd" d="M11.9999 9.33322C12.3681 9.05708 12.8904 9.1317 13.1666 9.49989C13.8157 10.3654 14.1666 11.418 14.1666 12.4999C14.1666 13.5817 13.8157 14.6344 13.1666 15.4999C12.8904 15.8681 12.3681 15.9427 11.9999 15.6666C11.6317 15.3904 11.5571 14.8681 11.8332 14.4999C12.266 13.9229 12.4999 13.2211 12.4999 12.4999C12.4999 11.7787 12.266 11.0769 11.8332 10.4999C11.5571 10.1317 11.6317 9.60936 11.9999 9.33322Z" fill="black"/>
</svg>
