<svg width="20" height="20" viewBox="0 0 20 20" fill="none" xmlns="http://www.w3.org/2000/svg">
<path fill-rule="evenodd" clip-rule="evenodd" d="M3.23223 1.56549C3.70107 1.09664 4.33696 0.833252 5 0.833252H12.5C12.721 0.833252 12.933 0.921049 13.0893 1.07733L17.2559 5.244C17.4122 5.40028 17.5 5.61224 17.5 5.83325V16.6666C17.5 17.3296 17.2366 17.9655 16.7678 18.4344C16.2989 18.9032 15.663 19.1666 15 19.1666H3.33333C2.8731 19.1666 2.5 18.7935 2.5 18.3333C2.5 17.873 2.8731 17.4999 3.33333 17.4999H15C15.221 17.4999 15.433 17.4121 15.5893 17.2558C15.7455 17.0996 15.8333 16.8876 15.8333 16.6666V6.17843L12.1548 2.49992H5C4.77899 2.49992 4.56702 2.58772 4.41074 2.744C4.25446 2.90028 4.16667 3.11224 4.16667 3.33325V4.99992C4.16667 5.46016 3.79357 5.83325 3.33333 5.83325C2.8731 5.83325 2.5 5.46016 2.5 4.99992V3.33325C2.5 2.67021 2.76339 2.03433 3.23223 1.56549Z" fill="black"/>
<path fill-rule="evenodd" clip-rule="evenodd" d="M11.6666 0.833252C12.1268 0.833252 12.4999 1.20635 12.4999 1.66659V4.99992C12.4999 5.22093 12.5877 5.43289 12.744 5.58917C12.9003 5.74545 13.1122 5.83325 13.3333 5.83325H16.6666C17.1268 5.83325 17.4999 6.20635 17.4999 6.66658C17.4999 7.12682 17.1268 7.49992 16.6666 7.49992H13.3333C12.6702 7.49992 12.0343 7.23653 11.5655 6.76768C11.0966 6.29884 10.8333 5.66296 10.8333 4.99992V1.66659C10.8333 1.20635 11.2063 0.833252 11.6666 0.833252Z" fill="black"/>
<path fill-rule="evenodd" clip-rule="evenodd" d="M6.03739 7.71422C6.56006 7.49469 7.13622 7.43554 7.69262 7.54431C8.24988 7.65325 8.76206 7.92569 9.16386 8.32688C9.19027 8.35326 9.21474 8.38122 9.23715 8.41055C10.3111 9.55478 10.271 11.3553 9.00841 12.6284C9.00698 12.6298 9.00555 12.6313 9.00411 12.6327C9.00336 12.6334 9.0026 12.6342 9.00184 12.6349L6.00183 15.5933C5.67705 15.9136 5.15511 15.9132 4.83077 15.5925L1.8391 12.6341C1.83718 12.6322 1.83526 12.6303 1.83335 12.6284C0.546557 11.3309 0.517082 9.47727 1.67067 8.33411C1.93115 8.074 2.2387 7.8577 2.60265 7.71135C3.12438 7.49656 3.69805 7.44096 4.25137 7.55163C4.67482 7.63632 5.07182 7.81547 5.41368 8.07371C5.60723 7.92552 5.81826 7.80513 6.03739 7.71422ZM7.37286 9.18002C7.14053 9.1346 6.89995 9.15941 6.68178 9.25127C6.68019 9.25194 6.6786 9.2526 6.67701 9.25326C6.53656 9.31138 6.4097 9.39731 6.31058 9.50093C6.30353 9.5083 6.29635 9.51554 6.28904 9.52265L5.99737 9.80598C5.674 10.1201 5.15943 10.1201 4.83606 9.80598L4.54439 9.52265C4.54118 9.51952 4.53799 9.51638 4.53483 9.5132C4.36827 9.3461 4.15586 9.2322 3.92451 9.18593C3.69316 9.13966 3.45328 9.1631 3.23527 9.25329C3.23226 9.25454 3.22924 9.25577 3.22621 9.25698C3.09288 9.31031 2.96908 9.39273 2.84764 9.51417C2.84704 9.51477 2.84644 9.51537 2.84584 9.51596C2.8454 9.5164 2.84495 9.51684 2.84451 9.51728C2.4169 9.94039 2.3044 10.7343 3.0141 11.4521L5.41753 13.8288L7.82803 11.4517C8.53304 10.7383 8.4205 9.94432 7.98892 9.51728C7.96933 9.4979 7.95081 9.47765 7.93338 9.45662C7.77481 9.31648 7.58141 9.22079 7.37286 9.18002Z" fill="black"/>
</svg>
