<svg width="20" height="20" viewBox="0 0 20 20" fill="none" xmlns="http://www.w3.org/2000/svg">
<path fill-rule="evenodd" clip-rule="evenodd" d="M8.66663 8.49997C9.03482 8.22383 9.55716 8.29844 9.8333 8.66663C10.4824 9.53212 10.8333 10.5848 10.8333 11.6666C10.8333 12.7485 10.4824 13.8012 9.8333 14.6666C9.55716 15.0348 9.03482 15.1094 8.66663 14.8333C8.29844 14.5572 8.22383 14.0348 8.49997 13.6666C8.93271 13.0896 9.16663 12.3879 9.16663 11.6666C9.16663 10.9454 8.93271 10.2436 8.49997 9.66663C8.22383 9.29844 8.29844 8.77611 8.66663 8.49997Z" fill="black"/>
<path fill-rule="evenodd" clip-rule="evenodd" d="M11.6666 0.833252C12.1268 0.833252 12.4999 1.20635 12.4999 1.66659V4.99992C12.4999 5.22093 12.5877 5.43289 12.744 5.58917C12.9003 5.74545 13.1122 5.83325 13.3333 5.83325H16.6666C17.1268 5.83325 17.4999 6.20635 17.4999 6.66658C17.4999 7.12682 17.1268 7.49992 16.6666 7.49992H13.3333C12.6702 7.49992 12.0343 7.23653 11.5655 6.76768C11.0966 6.29884 10.8333 5.66296 10.8333 4.99992V1.66659C10.8333 1.20635 11.2063 0.833252 11.6666 0.833252Z" fill="black"/>
<path fill-rule="evenodd" clip-rule="evenodd" d="M5 2.49992C4.77899 2.49992 4.56702 2.58772 4.41074 2.744C4.25446 2.90028 4.16667 3.11224 4.16667 3.33325V5.63742C4.16667 6.09766 3.79357 6.47075 3.33333 6.47075C2.8731 6.47075 2.5 6.09766 2.5 5.63742V3.33325C2.5 2.67021 2.76339 2.03433 3.23223 1.56549C3.70107 1.09664 4.33696 0.833252 5 0.833252H12.5C12.721 0.833252 12.933 0.921049 13.0893 1.07733L17.2559 5.244C17.4122 5.40028 17.5 5.61224 17.5 5.83325V16.6666C17.5 17.3296 17.2366 17.9655 16.7678 18.4344C16.2989 18.9032 15.663 19.1666 15 19.1666H4.99951C4.59444 19.1663 4.19549 19.0677 3.83701 18.8791C3.4297 18.6648 3.27322 18.1609 3.4875 17.7536C3.70178 17.3463 4.20568 17.1898 4.61299 17.4041C4.73249 17.467 4.86547 17.4998 5.00049 17.4999H15C15.221 17.4999 15.433 17.4121 15.5893 17.2558C15.7455 17.0996 15.8333 16.8876 15.8333 16.6666V6.17843L12.1548 2.49992H5Z" fill="black"/>
<path fill-rule="evenodd" clip-rule="evenodd" d="M5.24275 7.51972C5.47984 7.48642 5.72151 7.52191 5.93901 7.62198C6.15652 7.72204 6.34071 7.88247 6.46969 8.08417C6.59846 8.28555 6.66679 8.51962 6.66659 8.75864V14.5763C6.66679 14.8153 6.59846 15.0494 6.46969 15.2508C6.34071 15.4525 6.15652 15.6129 5.93901 15.713C5.72151 15.813 5.47984 15.8485 5.24275 15.8152C5.00565 15.7819 4.78311 15.6813 4.60158 15.5252L3.02387 14.1666H2.08325C1.75173 14.1666 1.43379 14.0349 1.19937 13.8005C0.964948 13.5661 0.833252 13.2482 0.833252 12.9166V10.4166C0.833252 10.0851 0.964948 9.76718 1.19937 9.53276C1.43379 9.29834 1.75173 9.16664 2.08325 9.16664H3.02387L4.60158 7.8098C4.78312 7.6537 5.00566 7.55301 5.24275 7.51972ZM4.99992 9.66547L4.11097 10.43C4.11091 10.43 4.11085 10.4301 4.11079 10.4301C3.80895 10.6898 3.42413 10.8328 3.02596 10.8333L2.49992 10.8333V12.5H3.0243C3.42311 12.5001 3.80867 12.6432 4.11096 12.9033L4.99992 13.6688V9.66547Z" fill="black"/>
</svg>
