<svg width="20" height="20" viewBox="0 0 20 20" fill="none" xmlns="http://www.w3.org/2000/svg">
<path fill-rule="evenodd" clip-rule="evenodd" d="M5 2.49992C4.77899 2.49992 4.56702 2.58772 4.41074 2.744C4.25446 2.90028 4.16667 3.11224 4.16667 3.33325V16.6666C4.16667 16.8876 4.25446 17.0996 4.41074 17.2558C4.56702 17.4121 4.77899 17.4999 5 17.4999H15C15.221 17.4999 15.433 17.4121 15.5893 17.2558C15.7455 17.0996 15.8333 16.8876 15.8333 16.6666V16.2499C15.8333 15.7897 16.2064 15.4166 16.6667 15.4166C17.1269 15.4166 17.5 15.7897 17.5 16.2499V16.6666C17.5 17.3296 17.2366 17.9655 16.7678 18.4344C16.2989 18.9032 15.663 19.1666 15 19.1666H5C4.33696 19.1666 3.70107 18.9032 3.23223 18.4344C2.76339 17.9655 2.5 17.3296 2.5 16.6666V3.33325C2.5 2.67021 2.76339 2.03433 3.23223 1.56548C3.70107 1.09664 4.33696 0.833252 5 0.833252H12.0833C12.3043 0.833252 12.5163 0.921049 12.6726 1.07733L15.5893 3.994C15.9147 4.31943 15.9147 4.84707 15.5893 5.17251C15.2638 5.49794 14.7362 5.49794 14.4107 5.17251L11.7382 2.49992H5Z" fill="black"/>
<path fill-rule="evenodd" clip-rule="evenodd" d="M5.83325 15.0001C5.83325 14.5398 6.20635 14.1667 6.66659 14.1667H7.49992C7.96016 14.1667 8.33325 14.5398 8.33325 15.0001C8.33325 15.4603 7.96016 15.8334 7.49992 15.8334H6.66659C6.20635 15.8334 5.83325 15.4603 5.83325 15.0001Z" fill="black"/>
<path fill-rule="evenodd" clip-rule="evenodd" d="M16.5875 8.32902C16.4671 8.32902 16.3479 8.35273 16.2367 8.3988C16.1256 8.44482 16.0246 8.51225 15.9396 8.59724C15.9395 8.59733 15.9397 8.59714 15.9396 8.59724L12.4108 12.134L11.9807 13.8498L13.699 13.4148L17.2358 9.89402C17.2356 9.89421 17.2359 9.89383 17.2358 9.89402C17.3206 9.80901 17.3885 9.70758 17.4345 9.5966C17.4806 9.48537 17.5043 9.36616 17.5043 9.24578C17.5043 9.12539 17.4806 9.00618 17.4345 8.89495C17.3884 8.78372 17.3209 8.68266 17.2358 8.59753C17.1506 8.5124 17.0496 8.44488 16.9383 8.3988C16.8271 8.35273 16.7079 8.32902 16.5875 8.32902ZM15.5989 6.859C15.9123 6.72917 16.2483 6.66235 16.5875 6.66235C16.9268 6.66235 17.2627 6.72918 17.5761 6.859C17.8896 6.98883 18.1744 7.17913 18.4143 7.41902C18.6542 7.65891 18.8445 7.94371 18.9743 8.25714C19.1041 8.57058 19.1709 8.90651 19.1709 9.24578C19.1709 9.58504 19.1041 9.92098 18.9743 10.2344C18.8445 10.5478 18.6542 10.8326 18.4143 11.0725L18.4129 11.0739L14.7129 14.7572C14.607 14.8627 14.4745 14.9378 14.3295 14.9745L11.0379 15.8078C10.7536 15.8798 10.4524 15.797 10.2448 15.5899C10.0372 15.3828 9.95373 15.0818 10.025 14.7973L10.85 11.5057C10.8866 11.3596 10.9621 11.2263 11.0684 11.1197L14.7608 7.41902C15.0007 7.17913 15.2854 6.98883 15.5989 6.859Z" fill="black"/>
</svg>
