<svg width="20" height="20" viewBox="0 0 20 20" fill="none" xmlns="http://www.w3.org/2000/svg">
<path fill-rule="evenodd" clip-rule="evenodd" d="M4.16675 3.33341C3.70651 3.33341 3.33341 3.70651 3.33341 4.16675V15.8334C3.33341 16.2937 3.70651 16.6667 4.16675 16.6667H15.8334C16.2937 16.6667 16.6667 16.2937 16.6667 15.8334V4.16675C16.6667 3.70651 16.2937 3.33341 15.8334 3.33341H4.16675ZM1.66675 4.16675C1.66675 2.78604 2.78604 1.66675 4.16675 1.66675H15.8334C17.2141 1.66675 18.3334 2.78604 18.3334 4.16675V15.8334C18.3334 17.2141 17.2141 18.3334 15.8334 18.3334H4.16675C2.78604 18.3334 1.66675 17.2141 1.66675 15.8334V4.16675Z" fill="black"/>
<path fill-rule="evenodd" clip-rule="evenodd" d="M5.83333 1.66675C6.29357 1.66675 6.66667 2.03984 6.66667 2.50008V17.5001C6.66667 17.9603 6.29357 18.3334 5.83333 18.3334C5.3731 18.3334 5 17.9603 5 17.5001V2.50008C5 2.03984 5.3731 1.66675 5.83333 1.66675Z" fill="black"/>
<path fill-rule="evenodd" clip-rule="evenodd" d="M1.66675 6.25008C1.66675 5.78984 2.03984 5.41675 2.50008 5.41675H5.83342C6.29365 5.41675 6.66675 5.78984 6.66675 6.25008C6.66675 6.71032 6.29365 7.08341 5.83342 7.08341H2.50008C2.03984 7.08341 1.66675 6.71032 1.66675 6.25008Z" fill="black"/>
<path fill-rule="evenodd" clip-rule="evenodd" d="M1.66675 10.0001C1.66675 9.53984 2.03984 9.16675 2.50008 9.16675H17.5001C17.9603 9.16675 18.3334 9.53984 18.3334 10.0001C18.3334 10.4603 17.9603 10.8334 17.5001 10.8334H2.50008C2.03984 10.8334 1.66675 10.4603 1.66675 10.0001Z" fill="black"/>
<path fill-rule="evenodd" clip-rule="evenodd" d="M1.66675 13.7501C1.66675 13.2898 2.03984 12.9167 2.50008 12.9167H5.83342C6.29365 12.9167 6.66675 13.2898 6.66675 13.7501C6.66675 14.2103 6.29365 14.5834 5.83342 14.5834H2.50008C2.03984 14.5834 1.66675 14.2103 1.66675 13.7501Z" fill="black"/>
<path fill-rule="evenodd" clip-rule="evenodd" d="M14.1666 1.66675C14.6268 1.66675 14.9999 2.03984 14.9999 2.50008V17.5001C14.9999 17.9603 14.6268 18.3334 14.1666 18.3334C13.7063 18.3334 13.3333 17.9603 13.3333 17.5001V2.50008C13.3333 2.03984 13.7063 1.66675 14.1666 1.66675Z" fill="black"/>
<path fill-rule="evenodd" clip-rule="evenodd" d="M13.3333 6.25008C13.3333 5.78984 13.7063 5.41675 14.1666 5.41675H17.4999C17.9602 5.41675 18.3333 5.78984 18.3333 6.25008C18.3333 6.71032 17.9602 7.08341 17.4999 7.08341H14.1666C13.7063 7.08341 13.3333 6.71032 13.3333 6.25008Z" fill="black"/>
<path fill-rule="evenodd" clip-rule="evenodd" d="M13.3333 13.7501C13.3333 13.2898 13.7063 12.9167 14.1666 12.9167H17.4999C17.9602 12.9167 18.3333 13.2898 18.3333 13.7501C18.3333 14.2103 17.9602 14.5834 17.4999 14.5834H14.1666C13.7063 14.5834 13.3333 14.2103 13.3333 13.7501Z" fill="black"/>
</svg>
