<svg width="20" height="20" viewBox="0 0 20 20" fill="none" xmlns="http://www.w3.org/2000/svg">
<path fill-rule="evenodd" clip-rule="evenodd" d="M0.910665 2.14935C1.04721 1.85505 1.34216 1.66675 1.6666 1.66675H10.8441C11.3043 1.66675 11.6774 2.03984 11.6774 2.50008C11.6774 2.96032 11.3043 3.33341 10.8441 3.33341H3.46268L8.96957 9.84531C9.09679 9.99575 9.1666 10.1864 9.1666 10.3834V15.3184L10.8333 16.1517V10.3834C10.8333 10.1852 10.9039 9.9934 11.0326 9.84258L11.7826 8.96341C12.0813 8.61327 12.6073 8.57157 12.9574 8.87026C13.3076 9.16896 13.3493 9.69495 13.0506 10.0451L12.4999 10.6906V17.5001C12.4999 17.7889 12.3504 18.0571 12.1047 18.209C11.859 18.3608 11.5522 18.3746 11.2939 18.2454L7.96058 16.5788C7.67826 16.4376 7.49993 16.1491 7.49993 15.8334V10.6885L1.03029 3.03819C0.82079 2.79045 0.774116 2.44365 0.910665 2.14935Z" fill="black"/>
<path fill-rule="evenodd" clip-rule="evenodd" d="M18.9225 1.91083C19.2479 2.23626 19.2479 2.7639 18.9225 3.08934L14.7558 7.256C14.4304 7.58144 13.9028 7.58144 13.5773 7.256C13.2519 6.93057 13.2519 6.40293 13.5773 6.07749L17.744 1.91083C18.0694 1.58539 18.5971 1.58539 18.9225 1.91083Z" fill="black"/>
<path fill-rule="evenodd" clip-rule="evenodd" d="M13.5773 1.91083C13.9028 1.58539 14.4304 1.58539 14.7558 1.91083L18.9225 6.07749C19.2479 6.40293 19.2479 6.93057 18.9225 7.256C18.5971 7.58144 18.0694 7.58144 17.744 7.256L13.5773 3.08934C13.2519 2.7639 13.2519 2.23626 13.5773 1.91083Z" fill="black"/>
</svg>
