<svg width="20" height="20" viewBox="0 0 20 20" fill="none" xmlns="http://www.w3.org/2000/svg">
<path fill-rule="evenodd" clip-rule="evenodd" d="M0.910665 2.14935C1.04721 1.85505 1.34216 1.66675 1.6666 1.66675H18.3333C18.6577 1.66675 18.9526 1.85505 19.0892 2.14935C19.2257 2.44365 19.1791 2.79045 18.9696 3.03819L12.4999 10.6885V17.5001C12.4999 17.7889 12.3504 18.0571 12.1047 18.209C11.859 18.3608 11.5522 18.3746 11.2939 18.2454L7.96058 16.5788C7.67826 16.4376 7.49993 16.1491 7.49993 15.8334V10.6885L1.03029 3.03819C0.82079 2.79045 0.774116 2.44365 0.910665 2.14935ZM3.46268 3.33341L8.96957 9.84531C9.09679 9.99575 9.1666 10.1864 9.1666 10.3834V15.3184L10.8333 16.1517V10.3834C10.8333 10.1864 10.9031 9.99575 11.0303 9.84531L16.5372 3.33341H3.46268Z" fill="black"/>
</svg>
