<svg width="20" height="20" viewBox="0 0 20 20" fill="none" xmlns="http://www.w3.org/2000/svg">
<g clip-path="url(#clip0_2001_6847)">
<path fill-rule="evenodd" clip-rule="evenodd" d="M8.23217 8.23223C8.70101 7.76339 9.3369 7.5 9.99994 7.5C10.4602 7.5 10.8333 7.8731 10.8333 8.33333C10.8333 8.79357 10.4602 9.16667 9.99994 9.16667C9.77893 9.16667 9.56697 9.25446 9.41068 9.41074C9.2544 9.56703 9.16661 9.77899 9.16661 10C9.16661 10.8916 9.0801 12.1658 8.94518 13.4223C8.89604 13.8799 8.48524 14.211 8.02763 14.1619C7.57003 14.1128 7.2389 13.702 7.28804 13.2444C7.41978 12.0175 7.49994 10.8084 7.49994 10C7.49994 9.33696 7.76333 8.70107 8.23217 8.23223Z" fill="black"/>
<path fill-rule="evenodd" clip-rule="evenodd" d="M11.6666 10.1001C12.1269 10.1001 12.5 10.4732 12.5 10.9334V10.9431C12.5 11.931 12.5 13.2865 12.3933 14.6604C12.2873 16.0256 12.0716 17.4815 11.607 18.6429C11.4361 19.0702 10.9511 19.2781 10.5238 19.1072C10.0965 18.9362 9.88865 18.4513 10.0596 18.0239C10.4284 17.102 10.6293 15.8496 10.7316 14.5314C10.833 13.2265 10.8333 11.928 10.8333 10.9334C10.8333 10.4732 11.2064 10.1001 11.6666 10.1001Z" fill="black"/>
<path fill-rule="evenodd" clip-rule="evenodd" d="M14.9058 14.1705C15.3638 14.215 15.6991 14.6225 15.6545 15.0805C15.5916 15.7278 15.325 17.1831 15.2256 17.68C15.1353 18.1313 14.6963 18.424 14.245 18.3337C13.7937 18.2435 13.501 17.8044 13.5913 17.3531C13.6919 16.85 13.942 15.472 13.9957 14.9193C14.0402 14.4612 14.4477 14.1259 14.9058 14.1705Z" fill="black"/>
<path fill-rule="evenodd" clip-rule="evenodd" d="M12.2362 2.84107C10.7337 2.37172 9.12155 2.38701 7.62821 2.88479C6.13487 3.38257 4.83601 4.3376 3.9156 5.61459C2.9952 6.89158 2.49992 8.4258 2.49992 9.99992C2.49992 10.4602 2.12682 10.8333 1.66659 10.8333C1.20635 10.8333 0.833252 10.4602 0.833252 9.99992C0.833252 8.076 1.43859 6.20084 2.56353 4.64007C3.68847 3.07931 5.27597 1.91205 7.10116 1.30366C8.92636 0.695257 10.8967 0.67656 12.7331 1.25021C14.5695 1.82386 16.1789 2.96078 17.3333 4.49992C17.6094 4.86811 17.5348 5.39044 17.1666 5.66659C16.7984 5.94273 16.2761 5.86811 15.9999 5.49992C15.0554 4.24062 13.7387 3.31042 12.2362 2.84107Z" fill="black"/>
<path fill-rule="evenodd" clip-rule="evenodd" d="M0.833252 13.3333C0.833252 12.8731 1.20635 12.5 1.66659 12.5H1.67492C2.13516 12.5 2.50825 12.8731 2.50825 13.3333C2.50825 13.7936 2.13516 14.1667 1.67492 14.1667H1.66659C1.20635 14.1667 0.833252 13.7936 0.833252 13.3333Z" fill="black"/>
<path fill-rule="evenodd" clip-rule="evenodd" d="M18.0011 7.51654C18.4522 7.42507 18.892 7.71658 18.9835 8.16763C19.0251 8.37307 19.0508 8.70997 19.0685 9.06574C19.0874 9.4437 19.0998 9.9077 19.1035 10.404C19.1108 11.3908 19.0836 12.5399 18.9959 13.4162C18.9502 13.8741 18.5418 14.2082 18.0838 14.1625C17.6259 14.1167 17.2918 13.7083 17.3376 13.2503C17.4166 12.4599 17.444 11.3782 17.4369 10.4163C17.4333 9.93818 17.4214 9.49832 17.4039 9.14874C17.3854 8.77695 17.363 8.5626 17.35 8.49887C17.2586 8.04781 17.5501 7.60801 18.0011 7.51654Z" fill="black"/>
<path fill-rule="evenodd" clip-rule="evenodd" d="M5.56002 7.54721C5.99418 7.69994 6.22232 8.1757 6.06959 8.60986C5.91262 9.05606 5.83278 9.52574 5.83348 9.99875L5.83348 9.99998C5.83348 12.5669 5.40873 15.1595 4.95738 16.5135C4.81184 16.9501 4.33991 17.1861 3.90329 17.0406C3.46667 16.895 3.2307 16.4231 3.37624 15.9865C3.75819 14.8406 4.16675 12.4334 4.16681 10.0006C4.1659 9.33858 4.27768 8.68126 4.49737 8.05677C4.6501 7.62262 5.12586 7.39448 5.56002 7.54721Z" fill="black"/>
<path fill-rule="evenodd" clip-rule="evenodd" d="M7.82813 15.8461C8.28137 15.9261 8.58395 16.3583 8.50397 16.8115C8.41178 17.3339 8.24213 17.8517 8.09558 18.2991C8.06302 18.3984 8.0316 18.4944 8.00242 18.5861C7.86287 19.0246 7.39422 19.267 6.95564 19.1275C6.51707 18.988 6.27466 18.5193 6.41421 18.0807C6.4526 17.9601 6.49026 17.8446 6.52664 17.7331C6.66979 17.2943 6.79303 16.9165 6.86266 16.5219C6.94264 16.0687 7.3749 15.7661 7.82813 15.8461Z" fill="black"/>
<path fill-rule="evenodd" clip-rule="evenodd" d="M10.0006 5.83024C9.26902 5.83012 8.55025 6.02265 7.91664 6.38847C7.51807 6.61859 7.00841 6.48203 6.77829 6.08345C6.54817 5.68487 6.68473 5.17521 7.08331 4.94509C7.97036 4.43295 8.97663 4.16341 10.0009 4.16357C11.0252 4.16374 12.0314 4.4336 12.9183 4.94603C13.8052 5.45845 14.5415 6.19537 15.0532 7.08267C15.5649 7.96997 15.834 8.97637 15.8333 10.0006V11.6668C15.8333 12.127 15.4602 12.5001 15 12.5001C14.5397 12.5001 14.1666 12.127 14.1666 11.6668V9.99958C14.1671 9.26795 13.9749 8.5491 13.6094 7.91531C13.2439 7.28152 12.718 6.75515 12.0845 6.38914C11.451 6.02312 10.7323 5.83036 10.0006 5.83024Z" fill="black"/>
</g>
<defs>
<clipPath id="clip0_2001_6847">
<rect width="20" height="20" fill="white"/>
</clipPath>
</defs>
</svg>
