<svg width="20" height="20" viewBox="0 0 20 20" fill="none" xmlns="http://www.w3.org/2000/svg">
<path fill-rule="evenodd" clip-rule="evenodd" d="M8.82141 1.32141C9.13397 1.00885 9.55789 0.833252 9.99992 0.833252H11.6666C12.1086 0.833252 12.5325 1.00885 12.8451 1.32141C13.1577 1.63397 13.3333 2.05789 13.3333 2.49992V5.41658C13.3333 5.87682 12.9602 6.24992 12.4999 6.24992C12.0397 6.24992 11.6666 5.87682 11.6666 5.41658V2.49992H9.99992L9.99992 5.41658C9.99992 5.87682 9.62682 6.24992 9.16659 6.24992C8.70635 6.24992 8.33325 5.87682 8.33325 5.41658V2.49992C8.33325 2.05789 8.50885 1.63397 8.82141 1.32141Z" fill="black"/>
<path fill-rule="evenodd" clip-rule="evenodd" d="M6.66675 15.0001C6.66675 14.5398 7.03984 14.1667 7.50008 14.1667H14.1667C14.627 14.1667 15.0001 14.5398 15.0001 15.0001C15.0001 15.4603 14.627 15.8334 14.1667 15.8334H7.50008C7.03984 15.8334 6.66675 15.4603 6.66675 15.0001Z" fill="black"/>
<path fill-rule="evenodd" clip-rule="evenodd" d="M11.6667 2.50008C11.6667 2.03984 12.0398 1.66675 12.5001 1.66675H15.0001C15.4603 1.66675 15.8334 2.03984 15.8334 2.50008C15.8334 2.96032 15.4603 3.33341 15.0001 3.33341H12.5001C12.0398 3.33341 11.6667 2.96032 11.6667 2.50008Z" fill="black"/>
<path fill-rule="evenodd" clip-rule="evenodd" d="M5.0418 3.37529C6.13576 2.28133 7.61949 1.66675 9.16658 1.66675C9.62682 1.66675 9.99992 2.03984 9.99992 2.50008C9.99992 2.96032 9.62682 3.33341 9.16658 3.33341C8.06152 3.33341 7.00171 3.7724 6.22031 4.5538C5.43891 5.3352 4.99992 6.39501 4.99992 7.50008V16.6667C4.99992 17.127 4.62682 17.5001 4.16659 17.5001C3.70635 17.5001 3.33325 17.127 3.33325 16.6667V7.50008C3.33325 5.95298 3.94783 4.46925 5.0418 3.37529Z" fill="black"/>
<path fill-rule="evenodd" clip-rule="evenodd" d="M3.33325 10.8333C3.33325 10.3731 3.70635 10 4.16659 10H7.49992C7.96016 10 8.33325 10.3731 8.33325 10.8333C8.33325 11.2936 7.96016 11.6667 7.49992 11.6667H4.16659C3.70635 11.6667 3.33325 11.2936 3.33325 10.8333Z" fill="black"/>
<path fill-rule="evenodd" clip-rule="evenodd" d="M7.88714 5.38714C8.66854 4.60573 9.72835 4.16675 10.8334 4.16675C11.9385 4.16675 12.9983 4.60573 13.7797 5.38714C14.5611 6.16854 15.0001 7.22835 15.0001 8.33342V16.6667C15.0001 17.3298 14.7367 17.9657 14.2678 18.4345C13.799 18.9034 13.1631 19.1667 12.5001 19.1667H9.16675C8.50371 19.1667 7.86782 18.9034 7.39898 18.4345C6.93014 17.9657 6.66675 17.3298 6.66675 16.6667V8.33342C6.66675 7.22835 7.10573 6.16854 7.88714 5.38714ZM10.8334 5.83341C10.1704 5.83341 9.53449 6.09681 9.06565 6.56565C8.59681 7.03449 8.33341 7.67037 8.33341 8.33342V16.6667C8.33341 16.8878 8.42121 17.0997 8.57749 17.256C8.73377 17.4123 8.94573 17.5001 9.16675 17.5001H12.5001C12.7211 17.5001 12.9331 17.4123 13.0893 17.256C13.2456 17.0997 13.3334 16.8878 13.3334 16.6667V8.33342C13.3334 7.67037 13.07 7.03449 12.6012 6.56565C12.1323 6.09681 11.4965 5.83341 10.8334 5.83341Z" fill="black"/>
</svg>
