<svg width="20" height="20" viewBox="0 0 20 20" fill="none" xmlns="http://www.w3.org/2000/svg">
<path fill-rule="evenodd" clip-rule="evenodd" d="M6.2864 10.0004C6.65603 11.1232 7.4995 12.1388 8.60922 12.8961C9.78956 13.7016 11.2033 14.1667 12.4999 14.1667C14.917 14.1667 16.7116 12.5177 17.4667 10.0004C16.7113 7.48911 14.9159 5.83341 12.4999 5.83341C11.204 5.83341 9.79038 6.3002 8.6096 7.10691C7.49951 7.86532 6.65602 8.88112 6.2864 10.0004ZM7.66941 5.73075C9.09279 4.7583 10.8291 4.16675 12.4999 4.16675C15.9479 4.16675 18.2861 6.64806 19.1374 9.7816C19.1762 9.92446 19.1763 10.0751 19.1376 10.218C18.286 13.3615 15.947 15.8334 12.4999 15.8334C10.8299 15.8334 9.09361 15.2444 7.66978 14.2728C6.24681 13.3018 5.06803 11.9005 4.61224 10.218C4.57353 10.0751 4.57359 9.92446 4.6124 9.7816C5.06832 8.10343 6.24702 6.70253 7.66941 5.73075Z" fill="black"/>
<path fill-rule="evenodd" clip-rule="evenodd" d="M15.0001 9.16675C15.4603 9.16675 15.8334 9.53984 15.8334 10.0001V10.4167C15.8334 10.877 15.4603 11.2501 15.0001 11.2501C14.5398 11.2501 14.1667 10.877 14.1667 10.4167V10.0001C14.1667 9.53984 14.5398 9.16675 15.0001 9.16675Z" fill="black"/>
<path fill-rule="evenodd" clip-rule="evenodd" d="M13.8392 4.39595C14.205 4.6753 14.275 5.19826 13.9957 5.56403C13.0226 6.8381 12.4955 8.39676 12.4955 9.9999C12.4955 11.603 13.0226 13.1617 13.9957 14.4358C14.275 14.8015 14.205 15.3245 13.8392 15.6038C13.4734 15.8832 12.9505 15.8131 12.6711 15.4474C11.4762 13.8827 10.8289 11.9686 10.8289 9.9999C10.8289 8.03116 11.4762 6.11705 12.6711 4.55243C12.9505 4.18666 13.4734 4.11661 13.8392 4.39595Z" fill="black"/>
<path fill-rule="evenodd" clip-rule="evenodd" d="M1.58159 4.12111C1.76321 3.84869 2.08752 3.70786 2.41056 3.76113C3.7744 3.98605 4.86038 4.59925 5.59857 5.53333C6.331 6.46014 6.66664 7.63336 6.66664 8.8917C6.66664 9.35193 6.29354 9.72503 5.8333 9.72503C5.37306 9.72503 4.99997 9.35193 4.99997 8.8917C4.99997 7.92503 4.74393 7.13992 4.29095 6.56672C3.93779 6.11984 3.43126 5.75867 2.73589 5.54439C2.58399 5.99651 2.49172 6.60624 2.50704 7.27253C2.5292 8.23606 2.77039 9.05622 3.11103 9.47163C3.36374 9.77982 3.36286 10.2238 3.10892 10.531C2.76572 10.9461 2.52292 11.7652 2.50079 12.7275C2.48545 13.3947 2.57906 14.0049 2.73292 14.4566C3.42981 14.2424 3.93728 13.8809 4.29095 13.4333C4.74393 12.8601 4.99997 12.075 4.99997 11.1084C4.99997 10.6481 5.37306 10.275 5.8333 10.275C6.29354 10.275 6.66664 10.6481 6.66664 11.1084C6.66664 12.3667 6.331 13.5399 5.59857 14.4667C4.86038 15.4008 3.7744 16.014 2.41056 16.2389C2.08889 16.292 1.76582 16.1526 1.58373 15.8821C1.02604 15.0539 0.808728 13.8125 0.834564 12.6892C0.855357 11.7852 1.03748 10.788 1.46912 9.99805C1.04179 9.20875 0.861569 8.21325 0.840814 7.31086C0.815002 6.18859 1.0299 4.94866 1.58159 4.12111Z" fill="black"/>
<path fill-rule="evenodd" clip-rule="evenodd" d="M12.0434 3.52974C11.8923 3.40227 11.7007 3.33269 11.503 3.33342C11.502 3.33342 11.501 3.33343 11.4999 3.33343H8.39434C8.94387 4.15291 9.37622 5.05022 9.53553 5.8958C9.62074 6.34808 9.32318 6.78381 8.8709 6.86902C8.41861 6.95423 7.98289 6.65666 7.89768 6.20438C7.72256 5.2749 6.98134 4.04794 6.06049 3.07199C5.8322 2.83004 5.76967 2.4755 5.90142 2.17005C6.03317 1.8646 6.33395 1.66676 6.6666 1.66676H11.4986C12.0911 1.66497 12.665 1.87368 13.1179 2.25572C13.5713 2.63813 13.874 3.16927 13.9719 3.75427L13.9721 3.75569L14.1639 4.92333C14.2385 5.37748 13.9308 5.80613 13.4767 5.88074C13.0225 5.95535 12.5939 5.64767 12.5193 5.19352L12.328 4.02925C12.328 4.02894 12.3279 4.02862 12.3279 4.0283C12.2951 3.83368 12.1943 3.657 12.0434 3.52974Z" fill="black"/>
<path fill-rule="evenodd" clip-rule="evenodd" d="M9.153 13.3501C9.61322 13.3472 9.98867 13.7179 9.99158 14.1782C9.99706 15.0446 9.80847 15.8939 9.44795 16.6668H11.4999C11.501 16.6668 11.502 16.6668 11.503 16.6668C11.7007 16.6675 11.8923 16.5979 12.0434 16.4705C12.1943 16.3432 12.2951 16.1665 12.3279 15.9719C12.3279 15.9716 12.328 15.9713 12.328 15.9709L12.5193 14.8067C12.5939 14.3525 13.0225 14.0448 13.4767 14.1195C13.9308 14.1941 14.2385 14.6227 14.1639 15.0769L13.972 16.245L13.9718 16.2459C13.874 16.8309 13.5713 17.3621 13.1179 17.7445C12.665 18.1265 12.091 18.3352 11.4985 18.3334H7.9166C7.58902 18.3334 7.29183 18.1415 7.15706 17.843C7.02229 17.5444 7.07494 17.1946 7.29162 16.9489C7.96353 16.1871 8.33137 15.2045 8.32495 14.1887C8.32204 13.7285 8.69277 13.353 9.153 13.3501Z" fill="black"/>
</svg>
