<svg width="20" height="20" viewBox="0 0 20 20" fill="none" xmlns="http://www.w3.org/2000/svg">
<path fill-rule="evenodd" clip-rule="evenodd" d="M1.66671 13.3334C0.952134 12.9047 0.952343 12.9043 0.952582 12.9039L0.953203 12.9029C0.953676 12.9021 0.954263 12.9011 0.954966 12.9C0.955816 12.8986 0.956835 12.8969 0.958023 12.8949C0.958798 12.8937 0.959644 12.8923 0.960562 12.8908C0.965211 12.8831 0.971692 12.8726 0.979984 12.8592C0.996568 12.8324 1.0204 12.7943 1.05131 12.746C1.11312 12.6495 1.20331 12.5119 1.32048 12.3417C1.55461 12.0016 1.89762 11.5297 2.33831 10.9941C2.5952 10.6818 2.88711 10.3457 3.21184 10.0001C2.88711 9.65445 2.5952 9.31835 2.33831 9.00612C1.89762 8.47053 1.55461 7.9986 1.32048 7.65851C1.20331 7.48832 1.11312 7.35072 1.05131 7.25416C1.0204 7.20587 0.996568 7.1678 0.979984 7.14102C0.971692 7.12762 0.965211 7.11705 0.960562 7.10942C0.958238 7.10561 0.956372 7.10253 0.954966 7.1002C0.954263 7.09904 0.953676 7.09807 0.953203 7.09728L0.952582 7.09625C0.952344 7.09585 0.952134 7.0955 1.66419 6.66827L0.952134 7.0955C0.715344 6.70085 0.843315 6.18897 1.23796 5.95218C1.63243 5.7155 2.14401 5.84324 2.38095 6.23744C2.38097 6.23748 2.38099 6.23752 2.38101 6.23755L2.3812 6.23786C2.38162 6.23855 2.38249 6.23999 2.3838 6.24215C2.38643 6.24646 2.39085 6.25368 2.39703 6.26365C2.40938 6.28361 2.42878 6.31462 2.45504 6.35564C2.50757 6.43772 2.58747 6.55972 2.69328 6.71342C2.90511 7.02112 3.21965 7.45414 3.62533 7.94718C3.85822 8.23024 4.1194 8.53094 4.40667 8.83771C4.92273 8.38105 5.49077 7.9352 6.10586 7.53221C7.71325 6.47909 9.68607 5.69097 11.911 5.82184C14.149 5.95349 16.5196 7.00778 18.9226 9.41084C19.2481 9.73627 19.2481 10.2639 18.9226 10.5893C16.5196 12.9924 14.149 14.0467 11.911 14.1783C9.68607 14.3092 7.71325 13.5211 6.10586 12.468C5.49077 12.065 4.92273 11.6191 4.40667 11.1625C4.1194 11.4692 3.85822 11.7699 3.62533 12.053C3.21965 12.546 2.90511 12.9791 2.69328 13.2868C2.58747 13.4405 2.50757 13.5625 2.45504 13.6445C2.42878 13.6856 2.40938 13.7166 2.39703 13.7365C2.39085 13.7465 2.38643 13.7537 2.3838 13.758C2.38249 13.7602 2.38162 13.7616 2.3812 13.7623L2.38101 13.7626M5.60891 10.0001C6.04424 10.3786 6.51578 10.744 7.01923 11.0739C8.43267 11.9999 10.0536 12.618 11.8131 12.5146C13.3922 12.4217 15.1825 11.7416 17.123 10.0001C15.1825 8.25854 13.3922 7.57852 11.8131 7.48563C10.0536 7.38213 8.43267 8.00026 7.01923 8.92631C6.51578 9.25616 6.04424 9.62155 5.60891 10.0001Z" fill="black"/>
</svg>
