<svg width="20" height="20" viewBox="0 0 20 20" fill="none" xmlns="http://www.w3.org/2000/svg">
<g clip-path="url(#clip0_2001_6864)">
<path fill-rule="evenodd" clip-rule="evenodd" d="M12.4924 4.16678C12.4949 4.16676 12.4974 4.16675 12.4999 4.16675C15.9479 4.16675 18.2861 6.64806 19.1374 9.7816C19.1763 9.9245 19.1763 10.0752 19.1376 10.2181C18.8571 11.2529 18.4202 12.2089 17.8347 13.0316C17.5678 13.4066 17.0475 13.4942 16.6726 13.2274C16.2976 12.9605 16.2099 12.4402 16.4768 12.0652C16.8973 11.4744 17.2329 10.7774 17.4666 10.0002C16.7116 7.49034 14.9177 5.83513 12.5037 5.83342C11.7652 5.84053 11.0333 5.97341 10.3395 6.22635C9.9071 6.38398 9.42878 6.16123 9.27115 5.72883C9.11352 5.29643 9.33627 4.81811 9.76867 4.66048C10.6419 4.34216 11.563 4.1752 12.4924 4.16678ZM7.79115 6.61252C8.10644 6.94779 8.09025 7.47518 7.75498 7.79048C7.06642 8.43801 6.55322 9.19258 6.28641 10.0005C6.65605 11.1233 7.49952 12.1389 8.60922 12.8961C9.78956 13.7016 11.2033 14.1667 12.4999 14.1667C12.5016 14.1667 12.5033 14.1668 12.505 14.1668C13.1184 14.1705 13.7268 14.0563 14.2971 13.8303C14.725 13.6608 15.2093 13.8703 15.3788 14.2981C15.5483 14.726 15.3389 15.2103 14.911 15.3798C14.1429 15.6841 13.3235 15.8381 12.4974 15.8334C10.8281 15.8328 9.09288 15.2439 7.66978 14.2728C6.24681 13.3018 5.06803 11.9005 4.61224 10.218C4.57352 10.075 4.57359 9.92436 4.61244 9.78146C4.95043 8.53829 5.68506 7.44918 6.61319 6.57635C6.94846 6.26106 7.47585 6.27725 7.79115 6.61252ZM14.9999 9.16675C15.4602 9.16675 15.8333 9.53984 15.8333 10.0001V10.4167C15.8333 10.877 15.4602 11.2501 14.9999 11.2501C14.5397 11.2501 14.1666 10.877 14.1666 10.4167V10.0001C14.1666 9.53984 14.5397 9.16675 14.9999 9.16675Z" fill="black"/>
<path fill-rule="evenodd" clip-rule="evenodd" d="M1.58159 4.12111C1.76321 3.84869 2.08752 3.70786 2.41056 3.76113C3.7744 3.98605 4.86038 4.59925 5.59857 5.53333C6.331 6.46014 6.66664 7.63336 6.66664 8.8917C6.66664 9.35193 6.29354 9.72503 5.8333 9.72503C5.37306 9.72503 4.99997 9.35193 4.99997 8.8917C4.99997 7.92503 4.74393 7.13992 4.29095 6.56672C3.93779 6.11984 3.43126 5.75867 2.73589 5.54439C2.58399 5.99651 2.49172 6.60624 2.50704 7.27253C2.5292 8.23606 2.77039 9.05622 3.11103 9.47163C3.36374 9.77982 3.36286 10.2238 3.10892 10.531C2.76572 10.9461 2.52292 11.7652 2.50079 12.7275C2.48545 13.3947 2.57906 14.0049 2.73292 14.4566C3.42981 14.2424 3.93728 13.8809 4.29095 13.4333C4.74393 12.8601 4.99997 12.075 4.99997 11.1084C4.99997 10.6481 5.37306 10.275 5.8333 10.275C6.29354 10.275 6.66664 10.6481 6.66664 11.1084C6.66664 12.3667 6.331 13.5399 5.59857 14.4667C4.86038 15.4008 3.7744 16.014 2.41056 16.2389C2.08889 16.292 1.76582 16.1526 1.58373 15.8821C1.02604 15.0539 0.808728 13.8125 0.834564 12.6892C0.855357 11.7852 1.03748 10.788 1.46912 9.99805C1.04179 9.20875 0.861569 8.21325 0.840814 7.31086C0.815002 6.18859 1.0299 4.94866 1.58159 4.12111ZM13.8391 4.39611C14.2049 4.67548 14.2749 5.19845 13.9956 5.5642C13.4981 6.21547 13.1137 6.94576 12.8585 7.72453C12.7152 8.16189 12.2445 8.40025 11.8071 8.25693C11.3698 8.11361 11.1314 7.64288 11.2747 7.20552C11.5881 6.24916 12.0602 5.35232 12.6711 4.55252C12.9504 4.18677 13.4734 4.11675 13.8391 4.39611ZM11.6961 11.117C12.1433 11.0081 12.5941 11.2823 12.703 11.7295C12.9421 12.7113 13.3822 13.6328 13.9956 14.4359C14.2749 14.8017 14.2049 15.3246 13.8391 15.604C13.4733 15.8833 12.9504 15.8133 12.671 15.4475C11.9178 14.4613 11.3773 13.3296 11.0836 12.1239C10.9747 11.6767 11.2489 11.2259 11.6961 11.117Z" fill="black"/>
<path fill-rule="evenodd" clip-rule="evenodd" d="M1.07733 1.07733C1.40277 0.751893 1.9304 0.751893 2.25584 1.07733L18.9225 17.744C19.2479 18.0694 19.2479 18.5971 18.9225 18.9225C18.5971 19.2479 18.0694 19.2479 17.744 18.9225L14.1264 15.3049L13.9722 16.2433L13.9718 16.2457C13.874 16.8307 13.5713 17.3619 13.1179 17.7443C12.665 18.1263 12.0911 18.335 11.4987 18.3333H7.91659C7.58901 18.3333 7.29182 18.1413 7.15705 17.8428C7.02228 17.5442 7.07492 17.1944 7.2916 16.9487C7.96351 16.1869 8.33136 15.2043 8.32494 14.1885C8.32202 13.7283 8.69275 13.3528 9.15298 13.3499C9.61321 13.347 9.98866 13.7178 9.99157 14.178C9.99705 15.0444 9.80846 15.8937 9.44793 16.6666L11.5012 16.6666L11.503 16.6666C11.7007 16.6673 11.8922 16.5977 12.0434 16.4703C12.1942 16.343 12.2951 16.1663 12.3278 15.9717C12.3279 15.9714 12.328 15.9711 12.328 15.9708L12.5193 14.8065C12.5664 14.5195 12.755 14.291 13.002 14.1805L1.07733 2.25584C0.751893 1.9304 0.751893 1.40277 1.07733 1.07733ZM12.0434 3.52957C11.8922 3.4021 11.7007 3.33251 11.503 3.33325C11.502 3.33325 11.5009 3.33325 11.4999 3.33325H7.10825C6.64801 3.33325 6.27492 2.96016 6.27492 2.49992C6.27492 2.03968 6.64801 1.66659 7.10825 1.66659H11.4985C12.091 1.66479 12.665 1.87351 13.1179 2.25555C13.5713 2.63795 13.874 3.1691 13.9718 3.75409L13.9722 3.75649L14.1639 4.92316C14.2385 5.37731 13.9308 5.80595 13.4767 5.88056C13.0225 5.95517 12.5939 5.6475 12.5193 5.19335L12.328 4.02908C12.328 4.02876 12.3279 4.02844 12.3278 4.02813C12.2951 3.8335 12.1943 3.65683 12.0434 3.52957Z" fill="black"/>
</g>
<defs>
<clipPath id="clip0_2001_6864">
<rect width="20" height="20" fill="white"/>
</clipPath>
</defs>
</svg>
