<svg width="20" height="20" viewBox="0 0 20 20" fill="none" xmlns="http://www.w3.org/2000/svg">
<path fill-rule="evenodd" clip-rule="evenodd" d="M14.6048 0.957711C14.8505 1.10955 15 1.37777 15 1.66659V9.98316C15.0002 9.99474 15.0002 10.0064 15 10.018V18.3333C15 18.7935 14.6269 19.1666 14.1667 19.1666C13.7064 19.1666 13.3333 18.7935 13.3333 18.3333V10.5149L5.46066 6.57861C5.17834 6.43745 5 6.1489 5 5.83325C5 5.51761 5.17834 5.22906 5.46066 5.0879L13.794 0.92123C14.0523 0.792068 14.3591 0.805872 14.6048 0.957711ZM13.3333 8.65156V3.01495L7.69672 5.83325L13.3333 8.65156Z" fill="black"/>
</svg>
