<svg width="20" height="20" viewBox="0 0 20 20" fill="none" xmlns="http://www.w3.org/2000/svg">
<g clip-path="url(#clip0_2001_6877)">
<path fill-rule="evenodd" clip-rule="evenodd" d="M5.83325 1.66659C5.83325 1.20635 6.20635 0.833252 6.66659 0.833252C8.07779 0.833252 9.24717 1.30116 10.263 1.70761C10.2785 1.71382 10.294 1.72001 10.3094 1.72619C11.3662 2.14889 12.266 2.49992 13.3333 2.49992C14.4893 2.49992 15.2162 2.30756 15.6279 2.14285C15.8345 2.06021 15.9657 1.98301 16.0351 1.93675C16.0696 1.91371 16.0894 1.898 16.096 1.89258C16.3341 1.66879 16.6821 1.60436 16.9855 1.73002C17.2969 1.859 17.4999 2.16287 17.4999 2.49992V11.6666C17.4999 12.1268 17.1268 12.4999 16.6666 12.4999C16.2063 12.4999 15.8333 12.1268 15.8333 11.6666V3.83592C15.2269 4.02268 14.4097 4.16659 13.3333 4.16659C11.922 4.16659 10.7527 3.69868 9.73685 3.29222C9.72134 3.28602 9.70587 3.27982 9.69043 3.27365C8.63368 2.85095 7.73383 2.49992 6.66659 2.49992C6.20635 2.49992 5.83325 2.12682 5.83325 1.66659Z" fill="black"/>
<path fill-rule="evenodd" clip-rule="evenodd" d="M3.33333 2.5C3.79357 2.5 4.16667 2.8731 4.16667 3.33333V18.3333C4.16667 18.7936 3.79357 19.1667 3.33333 19.1667C2.8731 19.1667 2.5 18.7936 2.5 18.3333V3.33333C2.5 2.8731 2.8731 2.5 3.33333 2.5Z" fill="black"/>
<path fill-rule="evenodd" clip-rule="evenodd" d="M3.33333 12.4999L2.74408 11.9107C2.41864 12.2361 2.41864 12.7637 2.74408 13.0892C3.06339 13.4085 3.57736 13.4145 3.904 13.1072C3.91064 13.1018 3.9304 13.0861 3.96485 13.0631C4.03425 13.0168 4.16537 12.9396 4.37199 12.857C4.78376 12.6923 5.5106 12.4999 6.66667 12.4999C7.73391 12.4999 8.63376 12.851 9.69051 13.2736C9.70595 13.2798 9.72142 13.286 9.73693 13.2922C10.7528 13.6987 11.9221 14.1666 13.3333 14.1666C13.7936 14.1666 14.1667 13.7935 14.1667 13.3333C14.1667 12.873 13.7936 12.4999 13.3333 12.4999C12.2661 12.4999 11.3662 12.1489 10.3095 11.7262C10.2941 11.72 10.2786 11.7138 10.2631 11.7076C9.24725 11.3012 8.07787 10.8333 6.66667 10.8333C5.32274 10.8333 4.38291 11.0576 3.75301 11.3095C3.4388 11.4352 3.20533 11.5663 3.04035 11.6763C2.95801 11.7312 2.89319 11.7805 2.84427 11.8208C2.81982 11.841 2.79938 11.8588 2.78274 11.8739C2.77442 11.8815 2.76706 11.8884 2.76062 11.8945C2.75741 11.8976 2.75442 11.9005 2.75166 11.9032C2.75029 11.9045 2.74896 11.9058 2.7477 11.9071C2.74707 11.9077 2.74645 11.9083 2.74585 11.9089L2.74495 11.9098C2.74451 11.9102 2.74408 11.9107 3.33333 12.4999Z" fill="black"/>
<path fill-rule="evenodd" clip-rule="evenodd" d="M1.07733 1.07733C1.40277 0.751893 1.9304 0.751893 2.25584 1.07733L18.9225 17.744C19.2479 18.0694 19.2479 18.5971 18.9225 18.9225C18.5971 19.2479 18.0694 19.2479 17.744 18.9225L1.07733 2.25584C0.751893 1.9304 0.751893 1.40277 1.07733 1.07733Z" fill="black"/>
</g>
<defs>
<clipPath id="clip0_2001_6877">
<rect width="20" height="20" fill="white"/>
</clipPath>
</defs>
</svg>
