<svg width="20" height="20" viewBox="0 0 20 20" fill="none" xmlns="http://www.w3.org/2000/svg">
<path fill-rule="evenodd" clip-rule="evenodd" d="M5.39516 0.957711C5.64084 0.805872 5.94763 0.792068 6.20595 0.92123L14.5393 5.0879C14.8216 5.22906 14.9999 5.51761 14.9999 5.83325C14.9999 6.1489 14.8216 6.43745 14.5393 6.57861L6.66661 10.5149V18.3333C6.66661 18.7935 6.29351 19.1666 5.83327 19.1666C5.37303 19.1666 4.99994 18.7935 4.99994 18.3333V10.018C4.99969 10.0064 4.9997 9.99474 4.99994 9.98316V1.66659C4.99994 1.37777 5.14948 1.10955 5.39516 0.957711ZM6.66661 8.65156L12.3032 5.83325L6.66661 3.01495V8.65156Z" fill="black"/>
</svg>
