<svg width="20" height="20" viewBox="0 0 20 20" fill="none" xmlns="http://www.w3.org/2000/svg">
<path fill-rule="evenodd" clip-rule="evenodd" d="M3.75301 1.30952C4.38291 1.05756 5.32274 0.833252 6.66667 0.833252C8.07787 0.833252 9.24725 1.30116 10.2631 1.70761C10.2786 1.71382 10.2941 1.72001 10.3095 1.72619C11.3662 2.14889 12.2661 2.49992 13.3333 2.49992C14.4894 2.49992 15.2162 2.30756 15.628 2.14285C15.8346 2.06021 15.9658 1.98301 16.0351 1.93675C16.0697 1.91371 16.0895 1.89799 16.0961 1.89258C16.3342 1.66879 16.6822 1.60436 16.9856 1.73002C17.297 1.859 17.5 2.16287 17.5 2.49992V12.4999C17.5 12.7209 17.4122 12.9329 17.2559 13.0892L16.6667 12.4999C17.2559 13.0892 17.2555 13.0896 17.255 13.09L17.2523 13.0928C17.251 13.094 17.2497 13.0953 17.2483 13.0967C17.2456 13.0994 17.2426 13.1022 17.2394 13.1053C17.2329 13.1115 17.2256 13.1183 17.2173 13.1259C17.2006 13.141 17.1802 13.1589 17.1557 13.179C17.1068 13.2193 17.042 13.2686 16.9596 13.3235C16.7947 13.4335 16.5612 13.5646 16.247 13.6903C15.6171 13.9423 14.6773 14.1666 13.3333 14.1666C11.9221 14.1666 10.7528 13.6987 9.73694 13.2922L9.69051 13.2736C8.63376 12.8509 7.73391 12.4999 6.66667 12.4999C5.5106 12.4999 4.78376 12.6923 4.37199 12.857C4.16537 12.9396 4.03425 13.0168 3.96485 13.0631C3.93029 13.0861 3.91052 13.1018 3.90394 13.1073C3.66583 13.331 3.31781 13.3955 3.01443 13.2698C2.70304 13.1408 2.5 12.837 2.5 12.4999V2.49992C2.5 2.2789 2.5878 2.06694 2.74408 1.91066L3.33333 2.49992C2.74408 1.91066 2.74451 1.91023 2.74495 1.90979L2.74585 1.9089C2.74645 1.9083 2.74707 1.90769 2.7477 1.90706C2.74896 1.90581 2.75029 1.90451 2.75166 1.90317C2.75442 1.90048 2.75741 1.89759 2.76062 1.89452C2.76706 1.88838 2.77442 1.8815 2.78274 1.87394C2.79938 1.85882 2.81982 1.84097 2.84427 1.82084C2.89319 1.78054 2.95801 1.73123 3.04035 1.67633C3.20533 1.56635 3.4388 1.43521 3.75301 1.30952ZM4.16667 2.9483V11.1639C4.773 10.9772 5.59021 10.8333 6.66667 10.8333C8.07787 10.8333 9.24725 11.3012 10.2631 11.7076L10.3095 11.7262C11.3662 12.1489 12.2661 12.4999 13.3333 12.4999C14.4894 12.4999 15.2162 12.3076 15.628 12.1429C15.7073 12.1111 15.7755 12.0802 15.8333 12.0515V3.83592C15.227 4.02267 14.4098 4.16658 13.3333 4.16658C11.9221 4.16658 10.7528 3.69868 9.73693 3.29222C9.72142 3.28602 9.70595 3.27982 9.69051 3.27365C8.63376 2.85095 7.73391 2.49992 6.66667 2.49992C5.5106 2.49992 4.78376 2.69227 4.37199 2.85698C4.29269 2.8887 4.22451 2.91962 4.16667 2.9483ZM3.92086 13.0909L3.9209 13.0909L3.92098 13.0908C3.92094 13.0908 3.9209 13.0909 3.92086 13.0909Z" fill="black"/>
<path fill-rule="evenodd" clip-rule="evenodd" d="M3.33333 11.6667C3.79357 11.6667 4.16667 12.0398 4.16667 12.5001V18.3334C4.16667 18.7937 3.79357 19.1667 3.33333 19.1667C2.8731 19.1667 2.5 18.7937 2.5 18.3334V12.5001C2.5 12.0398 2.8731 11.6667 3.33333 11.6667Z" fill="black"/>
</svg>
