<svg width="20" height="20" viewBox="0 0 20 20" fill="none" xmlns="http://www.w3.org/2000/svg">
<path fill-rule="evenodd" clip-rule="evenodd" d="M9.26341 5.33428C9.53105 5.59492 9.73699 5.91232 9.8659 6.26324C9.99848 6.62413 10.046 7.01073 10.0049 7.39299C9.96372 7.77525 9.83495 8.14286 9.62858 8.46725C9.42221 8.79164 9.1438 9.06406 8.815 9.26333C8.4862 9.46261 8.11588 9.58336 7.73281 9.6162C7.45095 9.64037 7.16778 9.61646 6.89524 9.54621C7.06123 9.97109 7.31424 10.3615 7.64303 10.6903C8.26815 11.3154 9.116 11.6666 10.0001 11.6666C10.8841 11.6666 11.732 11.3154 12.3571 10.6903C12.9808 10.0666 13.3318 9.2211 13.3334 8.33919C13.3193 7.46212 12.9601 6.62584 12.3335 6.01179C12.3324 6.01078 12.3314 6.00976 12.3304 6.00875C12.3294 6.00778 12.3284 6.00681 12.3275 6.00584C12.1923 5.87066 12.0177 5.73412 11.8176 5.5777C11.1667 5.0688 10.2468 4.34949 9.54065 2.78195C9.33485 2.9471 9.13296 3.16416 8.9838 3.41059C8.81175 3.69486 8.72575 3.98979 8.74555 4.28217C8.76445 4.56133 8.88479 4.91805 9.26341 5.33428ZM8.67402 1.34822C9.03749 1.08818 9.52696 0.833252 10.0001 0.833252C10.3587 0.833252 10.6772 1.06278 10.7906 1.40306C11.343 3.06026 12.0015 3.58113 12.717 4.14706C12.9725 4.34915 13.2352 4.55699 13.503 4.82437C14.4432 5.74725 14.9812 7.00396 15 8.32138C15 8.32534 15.0001 8.3293 15.0001 8.33325C15.0001 9.65934 14.4733 10.9311 13.5356 11.8688C12.5979 12.8065 11.3261 13.3333 10.0001 13.3333C8.67397 13.3333 7.4022 12.8065 6.46452 11.8688C5.52684 10.9311 5.00005 9.65934 5.00005 8.33325C5.00005 8.32311 5.00004 8.31266 5.00003 8.30194C4.99974 8.06829 4.9993 7.70029 5.12615 7.31973C5.24169 6.97312 5.56953 6.74218 5.93481 6.75012C6.30009 6.75805 6.6176 7.00299 6.71798 7.3543C6.75319 7.47752 6.81635 7.59096 6.90254 7.6858C6.98874 7.78064 7.09564 7.85433 7.21495 7.90113C7.33426 7.94792 7.46275 7.96657 7.59044 7.95563C7.71813 7.94468 7.84157 7.90443 7.95117 7.838C8.06076 7.77158 8.15357 7.68077 8.22236 7.57264C8.29115 7.46451 8.33407 7.34198 8.34779 7.21456C8.36151 7.08714 8.34566 6.95827 8.30147 6.83797C8.25727 6.71768 8.18593 6.6092 8.09298 6.52096C8.07969 6.50834 8.06682 6.49529 8.05438 6.48182C7.44535 5.82203 7.13123 5.11178 7.08269 4.39476C7.03477 3.68713 7.25086 3.05498 7.55797 2.54758C7.86309 2.04347 8.27348 1.63479 8.67402 1.34822Z" fill="black"/>
<path fill-rule="evenodd" clip-rule="evenodd" d="M16.6345 14.7711C16.7609 15.2136 16.5047 15.6749 16.0622 15.8013L4.39549 19.1347C3.95296 19.2611 3.49172 19.0048 3.36529 18.5623C3.23885 18.1198 3.49509 17.6586 3.93762 17.5321L15.6043 14.1988C16.0468 14.0723 16.5081 14.3286 16.6345 14.7711Z" fill="black"/>
<path fill-rule="evenodd" clip-rule="evenodd" d="M3.36529 14.7711C3.49172 14.3286 3.95296 14.0723 4.39549 14.1988L16.0622 17.5321C16.5047 17.6586 16.7609 18.1198 16.6345 18.5623C16.5081 19.0048 16.0468 19.2611 15.6043 19.1347L3.93762 15.8013C3.49509 15.6749 3.23885 15.2136 3.36529 14.7711Z" fill="black"/>
</svg>
