<svg width="20" height="20" viewBox="0 0 20 20" fill="none" xmlns="http://www.w3.org/2000/svg">
<path fill-rule="evenodd" clip-rule="evenodd" d="M10.2678 1.711C10.5494 1.8066 10.7587 2.04504 10.8171 2.33667C11.1937 4.21992 12.3339 6.05011 13.8538 7.26604C15.6702 8.71912 16.6666 10.5246 16.6666 12.5001C16.6666 13.3756 16.4941 14.2425 16.1591 15.0513C15.8241 15.8602 15.333 16.5951 14.714 17.2141C14.0949 17.8332 13.36 18.3243 12.5511 18.6593C11.7423 18.9943 10.8754 19.1668 9.99992 19.1668C9.12444 19.1668 8.25753 18.9943 7.4487 18.6593C6.63986 18.3243 5.90493 17.8332 5.28587 17.2141C4.66682 16.5951 4.17575 15.8602 3.84072 15.0513C3.50569 14.2425 3.33325 13.3756 3.33325 12.5001C3.33325 11.3556 3.75507 10.2193 4.35018 9.47828C4.57161 9.20257 4.94293 9.09663 5.2765 9.214C5.61007 9.33137 5.83325 9.64648 5.83325 10.0001C5.83325 10.3316 5.96495 10.6496 6.19937 10.884C6.43379 11.1184 6.75173 11.2501 7.08325 11.2501C7.41477 11.2501 7.73271 11.1184 7.96714 10.884C8.20156 10.6496 8.33325 10.3316 8.33325 10.0001C8.33325 9.28257 8.15742 8.95279 7.84872 8.37381C7.77015 8.22644 7.68297 8.06293 7.5879 7.87277C7.04599 6.78939 6.97373 5.70841 7.35251 4.65626C7.71732 3.64291 8.47456 2.72748 9.45116 1.87295C9.67498 1.67711 9.9862 1.61539 10.2678 1.711ZM8.33325 7.5001L9.07861 7.12742C9.13988 7.24996 9.20657 7.3729 9.27512 7.49928C9.61463 8.12515 9.99992 8.83543 9.99992 10.0001C9.99992 10.7736 9.69263 11.5155 9.14565 12.0625C8.59867 12.6095 7.8568 12.9168 7.08325 12.9168C6.31366 12.9168 5.57543 12.6126 5.02927 12.0709C5.01023 12.2122 4.99992 12.3559 4.99992 12.5001C4.99992 13.1567 5.12925 13.8069 5.38052 14.4135C5.63179 15.0201 6.00009 15.5713 6.46438 16.0356C6.92868 16.4999 7.47987 16.8682 8.0865 17.1195C8.69313 17.3708 9.34331 17.5001 9.99992 17.5001C10.6565 17.5001 11.3067 17.3708 11.9133 17.1195C12.52 16.8682 13.0712 16.4999 13.5355 16.0356C13.9997 15.5713 14.368 15.0201 14.6193 14.4135C14.8706 13.8069 14.9999 13.1567 14.9999 12.5001C14.9999 11.1423 14.3297 9.78107 12.8127 8.56749C11.3845 7.42496 10.2377 5.83645 9.59182 4.09769C9.26884 4.49207 9.04862 4.86535 8.92066 5.2208C8.70612 5.81673 8.72717 6.42487 9.07854 7.12728L8.33325 7.5001Z" fill="black"/>
</svg>
