<svg width="20" height="20" viewBox="0 0 20 20" fill="none" xmlns="http://www.w3.org/2000/svg">
<g clip-path="url(#clip0_2001_6895)">
<path fill-rule="evenodd" clip-rule="evenodd" d="M5.00008 4.16675C5.46032 4.16675 5.83341 4.53984 5.83341 5.00008C5.83341 5.46701 6.01476 5.66958 6.42267 6.07749C6.42988 6.0847 6.43715 6.09197 6.44449 6.0993C6.87 6.52445 7.50008 7.15401 7.50008 8.33342V16.6667C7.50008 16.8878 7.58788 17.0997 7.74416 17.256C7.90044 17.4123 8.1124 17.5001 8.33342 17.5001H11.6667C11.8878 17.5001 12.0997 17.4123 12.256 17.256C12.4123 17.0997 12.5001 16.8878 12.5001 16.6667V13.3334C12.5001 12.8732 12.8732 12.5001 13.3334 12.5001C13.7937 12.5001 14.1667 12.8732 14.1667 13.3334V16.6667C14.1667 17.3298 13.9034 17.9657 13.4345 18.4345C12.9657 18.9034 12.3298 19.1667 11.6667 19.1667H8.33342C7.67037 19.1667 7.03449 18.9034 6.56565 18.4345C6.09681 17.9657 5.83341 17.3298 5.83341 16.6667V8.33342C5.83341 7.86649 5.65207 7.66392 5.24416 7.256C5.23695 7.2488 5.22968 7.24153 5.22234 7.2342C4.79683 6.80904 4.16675 6.17949 4.16675 5.00008C4.16675 4.53984 4.53984 4.16675 5.00008 4.16675Z" fill="black"/>
<path fill-rule="evenodd" clip-rule="evenodd" d="M5 1.66659C5 1.20635 5.3731 0.833252 5.83333 0.833252H15C15.4602 0.833252 15.8333 1.20635 15.8333 1.66659V4.99992C15.8333 6.17933 15.2033 6.80888 14.7777 7.23404C14.7704 7.24136 14.7631 7.24863 14.7559 7.25584C14.348 7.66375 14.1667 7.86632 14.1667 8.33325V9.16659C14.1667 9.62682 13.7936 9.99992 13.3333 9.99992C12.8731 9.99992 12.5 9.62682 12.5 9.16659V8.33325C12.5 7.15384 13.1301 6.52429 13.5556 6.09913C13.5629 6.09181 13.5702 6.08454 13.5774 6.07733C13.9853 5.66942 14.1667 5.46685 14.1667 4.99992V2.49992H5.83333C5.3731 2.49992 5 2.12682 5 1.66659Z" fill="black"/>
<path fill-rule="evenodd" clip-rule="evenodd" d="M8.33325 5.00008C8.33325 4.53984 8.70635 4.16675 9.16659 4.16675H14.9999C15.4602 4.16675 15.8333 4.53984 15.8333 5.00008C15.8333 5.46032 15.4602 5.83341 14.9999 5.83341H9.16659C8.70635 5.83341 8.33325 5.46032 8.33325 5.00008Z" fill="black"/>
<path fill-rule="evenodd" clip-rule="evenodd" d="M1.07733 1.07733C1.40277 0.751893 1.9304 0.751893 2.25584 1.07733L18.9225 17.744C19.2479 18.0694 19.2479 18.5971 18.9225 18.9225C18.5971 19.2479 18.0694 19.2479 17.744 18.9225L1.07733 2.25584C0.751893 1.9304 0.751893 1.40277 1.07733 1.07733Z" fill="black"/>
</g>
<defs>
<clipPath id="clip0_2001_6895">
<rect width="20" height="20" fill="white"/>
</clipPath>
</defs>
</svg>
