<svg width="20" height="20" viewBox="0 0 20 20" fill="none" xmlns="http://www.w3.org/2000/svg">
<path fill-rule="evenodd" clip-rule="evenodd" d="M4.16675 1.66659C4.16675 1.20635 4.53984 0.833252 5.00008 0.833252H15.0001C15.4603 0.833252 15.8334 1.20635 15.8334 1.66659V4.99992C15.8334 6.17933 15.2033 6.80888 14.7778 7.23404C14.7705 7.24136 14.7632 7.24863 14.756 7.25584C14.3481 7.66375 14.1667 7.86632 14.1667 8.33325V16.6666C14.1667 17.3296 13.9034 17.9655 13.4345 18.4344C12.9657 18.9032 12.3298 19.1666 11.6667 19.1666H8.33342C7.67037 19.1666 7.03449 18.9032 6.56565 18.4344C6.09681 17.9655 5.83341 17.3296 5.83341 16.6666V8.33325C5.83341 7.86632 5.65207 7.66375 5.24416 7.25584C5.23695 7.24863 5.22968 7.24136 5.22234 7.23404C4.79683 6.80888 4.16675 6.17933 4.16675 4.99992V1.66659ZM5.83341 2.49992V4.99992C5.83341 5.46685 6.01476 5.66942 6.42267 6.07733C6.42988 6.08454 6.43715 6.09181 6.44449 6.09913C6.87 6.52429 7.50008 7.15384 7.50008 8.33325V16.6666C7.50008 16.8876 7.58788 17.0996 7.74416 17.2558C7.90044 17.4121 8.1124 17.4999 8.33342 17.4999H11.6667C11.8878 17.4999 12.0997 17.4121 12.256 17.2558C12.4123 17.0996 12.5001 16.8876 12.5001 16.6666V8.33325C12.5001 7.15384 13.1302 6.52429 13.5557 6.09913C13.563 6.09181 13.5703 6.08454 13.5775 6.07733C13.9854 5.66942 14.1667 5.46685 14.1667 4.99992V2.49992H5.83341Z" fill="black"/>
<path fill-rule="evenodd" clip-rule="evenodd" d="M4.16675 5.00008C4.16675 4.53984 4.53984 4.16675 5.00008 4.16675H15.0001C15.4603 4.16675 15.8334 4.53984 15.8334 5.00008C15.8334 5.46032 15.4603 5.83341 15.0001 5.83341H5.00008C4.53984 5.83341 4.16675 5.46032 4.16675 5.00008Z" fill="black"/>
<path d="M10.8334 10.0001C10.8334 10.4603 10.4603 10.8334 10.0001 10.8334C9.53984 10.8334 9.16675 10.4603 9.16675 10.0001C9.16675 9.53984 9.53984 9.16675 10.0001 9.16675C10.4603 9.16675 10.8334 9.53984 10.8334 10.0001Z" fill="black"/>
</svg>
