<svg width="20" height="20" viewBox="0 0 20 20" fill="none" xmlns="http://www.w3.org/2000/svg">
<path fill-rule="evenodd" clip-rule="evenodd" d="M8.33323 0.833252C8.79347 0.833252 9.16656 1.20635 9.16656 1.66659V7.93831C9.16692 8.32707 9.07661 8.71056 8.90281 9.05831L4.67842 17.4979L4.67741 17.4999C4.67935 17.4999 4.68129 17.4999 4.68323 17.4999H15.3166C15.3185 17.4999 15.3204 17.4999 15.3224 17.4999L15.3214 17.4979L11.097 9.05831C10.9233 8.71079 10.833 8.32758 10.8332 7.93909C10.8332 7.93904 10.8332 7.93899 10.8332 7.93894C10.8332 7.93873 10.8332 7.93852 10.8332 7.93831L10.8332 1.66659C10.8332 1.20635 11.2063 0.833252 11.6666 0.833252C12.1268 0.833252 12.4999 1.20635 12.4999 1.66659V7.93986C12.4998 8.06945 12.5299 8.19728 12.5878 8.3132L16.8107 16.7499C16.8109 16.7502 16.811 16.7504 16.8111 16.7507C16.9394 17.0055 17.0001 17.2889 16.9874 17.5738C16.9747 17.8591 16.889 18.1363 16.7384 18.3789C16.5879 18.6215 16.3775 18.8213 16.1275 18.9592C15.8785 19.0966 15.5985 19.168 15.3142 19.1666H4.68563C4.40129 19.168 4.12129 19.0966 3.87229 18.9592C3.62229 18.8213 3.41192 18.6215 3.26134 18.3789C3.11077 18.1363 3.02504 17.8591 3.01238 17.5738C2.99974 17.289 3.06039 17.0057 3.18852 16.7509C3.1887 16.7506 3.18887 16.7502 3.18905 16.7499L7.41198 8.3132C7.41202 8.31311 7.41206 8.31303 7.41211 8.31294C7.46996 8.19709 7.50002 8.06935 7.4999 7.93986V1.66659C7.4999 1.20635 7.87299 0.833252 8.33323 0.833252Z" fill="black"/>
<path fill-rule="evenodd" clip-rule="evenodd" d="M6.25 1.66659C6.25 1.20635 6.6231 0.833252 7.08333 0.833252H12.9167C13.3769 0.833252 13.75 1.20635 13.75 1.66659C13.75 2.12682 13.3769 2.49992 12.9167 2.49992H7.08333C6.6231 2.49992 6.25 2.12682 6.25 1.66659Z" fill="black"/>
<path fill-rule="evenodd" clip-rule="evenodd" d="M5 13.3333C5 12.8731 5.3731 12.5 5.83333 12.5H14.1667C14.6269 12.5 15 12.8731 15 13.3333C15 13.7936 14.6269 14.1667 14.1667 14.1667H5.83333C5.3731 14.1667 5 13.7936 5 13.3333Z" fill="black"/>
</svg>
