<svg width="20" height="20" viewBox="0 0 20 20" fill="none" xmlns="http://www.w3.org/2000/svg">
<path fill-rule="evenodd" clip-rule="evenodd" d="M8.33333 0.833252C8.79357 0.833252 9.16667 1.20635 9.16667 1.66659V7.75825C9.16667 8.21849 8.79357 8.59159 8.33333 8.59159C7.8731 8.59159 7.5 8.21849 7.5 7.75825V1.66659C7.5 1.20635 7.8731 0.833252 8.33333 0.833252Z" fill="black"/>
<path fill-rule="evenodd" clip-rule="evenodd" d="M11.6666 0.824951C12.1268 0.824951 12.4999 1.19805 12.4999 1.65828V7.74995C12.4999 8.21019 12.1268 8.58328 11.6666 8.58328C11.2063 8.58328 10.8333 8.21019 10.8333 7.74995V1.65828C10.8333 1.19805 11.2063 0.824951 11.6666 0.824951Z" fill="black"/>
<path fill-rule="evenodd" clip-rule="evenodd" d="M6.25 1.66659C6.25 1.20635 6.6231 0.833252 7.08333 0.833252H12.9167C13.3769 0.833252 13.75 1.20635 13.75 1.66659C13.75 2.12682 13.3769 2.49992 12.9167 2.49992H7.08333C6.6231 2.49992 6.25 2.12682 6.25 1.66659Z" fill="black"/>
<path fill-rule="evenodd" clip-rule="evenodd" d="M9.12625 7.49365C9.26786 7.93156 9.02767 8.40136 8.58976 8.54297C7.55087 8.87892 6.66605 9.57472 6.09458 10.5051C5.52312 11.4354 5.30256 12.5393 5.47261 13.6178C5.64266 14.6963 6.19216 15.6787 7.02216 16.3881C7.85217 17.0975 8.90816 17.4873 10 17.4873C11.0919 17.4873 12.1479 17.0975 12.9779 16.3881C13.8079 15.6787 14.3574 14.6963 14.5274 13.6178C14.6975 12.5393 14.4769 11.4354 13.9054 10.5051C13.334 9.57472 12.4492 8.87892 11.4103 8.54297C10.9724 8.40136 10.7322 7.93156 10.8738 7.49365C11.0154 7.05574 11.4852 6.81555 11.9231 6.95716C13.3398 7.41528 14.5463 8.36409 15.3256 9.63276C16.1049 10.9014 16.4056 12.4066 16.1737 13.8774C15.9419 15.3481 15.1925 16.6877 14.0607 17.6551C12.9289 18.6224 11.4889 19.1539 10 19.1539C8.51112 19.1539 7.07114 18.6224 5.93931 17.6551C4.80748 16.6877 4.05817 15.3481 3.82628 13.8774C3.59439 12.4066 3.89516 10.9014 4.67443 9.63276C5.4537 8.36409 6.66028 7.41528 8.07694 6.95716C8.51485 6.81555 8.98464 7.05574 9.12625 7.49365Z" fill="black"/>
<path fill-rule="evenodd" clip-rule="evenodd" d="M3.7666 13.3333C3.7666 12.8731 4.1397 12.5 4.59993 12.5H15.3999C15.8602 12.5 16.2333 12.8731 16.2333 13.3333C16.2333 13.7936 15.8602 14.1667 15.3999 14.1667H4.59993C4.1397 14.1667 3.7666 13.7936 3.7666 13.3333Z" fill="black"/>
</svg>
