<svg width="20" height="20" viewBox="0 0 20 20" fill="none" xmlns="http://www.w3.org/2000/svg">
<g clip-path="url(#clip0_2001_6904)">
<path fill-rule="evenodd" clip-rule="evenodd" d="M8.70619 7.58806C9.11776 7.79404 9.28442 8.29466 9.07844 8.70623L4.67844 17.4979C4.6781 17.4986 4.67775 17.4993 4.67741 17.5C4.67867 17.5 4.67993 17.4999 4.68118 17.4999L4.68323 17.4999H15.3166C15.3185 17.4999 15.3204 17.4999 15.3224 17.5L15.3213 17.4979L14.2613 15.3795C14.0554 14.9679 14.2221 14.4673 14.6336 14.2614C15.0452 14.0554 15.5458 14.2221 15.7518 14.6337L16.8107 16.7499C16.8109 16.7503 16.8111 16.7507 16.8113 16.7511C16.9394 17.0057 17 17.289 16.9874 17.5739C16.9748 17.8591 16.889 18.1363 16.7385 18.3789C16.5879 18.6215 16.3775 18.8213 16.1275 18.9593C15.8785 19.0966 15.5985 19.168 15.3142 19.1666H4.68563C4.40129 19.168 4.12129 19.0966 3.87229 18.9593C3.62229 18.8213 3.41192 18.6215 3.26134 18.3789C3.11077 18.1363 3.02504 17.8591 3.01238 17.5739C2.99974 17.2891 3.06035 17.0059 3.18839 16.7512C3.18861 16.7508 3.18883 16.7504 3.18905 16.7499L7.58801 7.96031C7.79399 7.54874 8.29462 7.38208 8.70619 7.58806Z" fill="black"/>
<path fill-rule="evenodd" clip-rule="evenodd" d="M8.33333 0.833252C8.79357 0.833252 9.16667 1.20635 9.16667 1.66659V3.61909C9.16667 4.07932 8.79357 4.45242 8.33333 4.45242C7.8731 4.45242 7.5 4.07932 7.5 3.61909V1.66659C7.5 1.20635 7.8731 0.833252 8.33333 0.833252Z" fill="black"/>
<path fill-rule="evenodd" clip-rule="evenodd" d="M11.6666 0.833252C12.1268 0.833252 12.4999 1.20635 12.4999 1.66659V6.95242C12.4999 7.41266 12.1268 7.78575 11.6666 7.78575C11.2063 7.78575 10.8333 7.41266 10.8333 6.95242V1.66659C10.8333 1.20635 11.2063 0.833252 11.6666 0.833252Z" fill="black"/>
<path fill-rule="evenodd" clip-rule="evenodd" d="M6.25 1.66659C6.25 1.20635 6.6231 0.833252 7.08333 0.833252H12.9167C13.3769 0.833252 13.75 1.20635 13.75 1.66659C13.75 2.12682 13.3769 2.49992 12.9167 2.49992H7.08333C6.6231 2.49992 6.25 2.12682 6.25 1.66659Z" fill="black"/>
<path fill-rule="evenodd" clip-rule="evenodd" d="M5 13.3333C5 12.8731 5.3731 12.5 5.83333 12.5H13.3333C13.7936 12.5 14.1667 12.8731 14.1667 13.3333C14.1667 13.7936 13.7936 14.1667 13.3333 14.1667H5.83333C5.3731 14.1667 5 13.7936 5 13.3333Z" fill="black"/>
<path fill-rule="evenodd" clip-rule="evenodd" d="M1.07733 1.07733C1.40277 0.751893 1.9304 0.751893 2.25584 1.07733L18.9225 17.744C19.2479 18.0694 19.2479 18.5971 18.9225 18.9225C18.5971 19.2479 18.0694 19.2479 17.744 18.9225L1.07733 2.25584C0.751893 1.9304 0.751893 1.40277 1.07733 1.07733Z" fill="black"/>
</g>
<defs>
<clipPath id="clip0_2001_6904">
<rect width="20" height="20" fill="white"/>
</clipPath>
</defs>
</svg>
