<svg width="20" height="20" viewBox="0 0 20 20" fill="none" xmlns="http://www.w3.org/2000/svg">
<path fill-rule="evenodd" clip-rule="evenodd" d="M2.18118 5.06346C2.49257 4.93447 2.85101 5.00577 3.08934 5.2441L7.256 9.41077C7.58144 9.73621 7.58144 10.2638 7.256 10.5893L3.08934 14.7559C2.85101 14.9943 2.49257 15.0656 2.18118 14.9366C1.86978 14.8076 1.66675 14.5037 1.66675 14.1667V5.83336C1.66675 5.49631 1.86978 5.19244 2.18118 5.06346ZM3.33341 7.8452V12.1548L5.48824 10L3.33341 7.8452Z" fill="black"/>
<path fill-rule="evenodd" clip-rule="evenodd" d="M17.8189 5.06346C18.1303 5.19244 18.3333 5.49631 18.3333 5.83336V14.1667C18.3333 14.5037 18.1303 14.8076 17.8189 14.9366C17.5075 15.0656 17.1491 14.9943 16.9107 14.7559L12.7441 10.5893C12.4186 10.2638 12.4186 9.73621 12.7441 9.41077L16.9107 5.2441C17.1491 5.00577 17.5075 4.93447 17.8189 5.06346ZM14.5118 10L16.6667 12.1548V7.8452L14.5118 10Z" fill="black"/>
<path fill-rule="evenodd" clip-rule="evenodd" d="M10.0001 15.8333C10.4603 15.8333 10.8334 16.2063 10.8334 16.6666V18.3333C10.8334 18.7935 10.4603 19.1666 10.0001 19.1666C9.53984 19.1666 9.16675 18.7935 9.16675 18.3333V16.6666C9.16675 16.2063 9.53984 15.8333 10.0001 15.8333Z" fill="black"/>
<path fill-rule="evenodd" clip-rule="evenodd" d="M10.0001 10.8333C10.4603 10.8333 10.8334 11.2063 10.8334 11.6666V13.3333C10.8334 13.7935 10.4603 14.1666 10.0001 14.1666C9.53984 14.1666 9.16675 13.7935 9.16675 13.3333V11.6666C9.16675 11.2063 9.53984 10.8333 10.0001 10.8333Z" fill="black"/>
<path fill-rule="evenodd" clip-rule="evenodd" d="M10.0001 5.83325C10.4603 5.83325 10.8334 6.20635 10.8334 6.66659V8.33325C10.8334 8.79349 10.4603 9.16658 10.0001 9.16658C9.53984 9.16658 9.16675 8.79349 9.16675 8.33325V6.66659C9.16675 6.20635 9.53984 5.83325 10.0001 5.83325Z" fill="black"/>
<path fill-rule="evenodd" clip-rule="evenodd" d="M10.0001 0.833252C10.4603 0.833252 10.8334 1.20635 10.8334 1.66659V3.33325C10.8334 3.79349 10.4603 4.16658 10.0001 4.16658C9.53984 4.16658 9.16675 3.79349 9.16675 3.33325V1.66659C9.16675 1.20635 9.53984 0.833252 10.0001 0.833252Z" fill="black"/>
</svg>
