<svg width="20" height="20" viewBox="0 0 20 20" fill="none" xmlns="http://www.w3.org/2000/svg">
<path fill-rule="evenodd" clip-rule="evenodd" d="M2.39898 2.39898C2.86782 1.93014 3.50371 1.66675 4.16675 1.66675H6.66675C7.12699 1.66675 7.50008 2.03984 7.50008 2.50008C7.50008 2.96032 7.12699 3.33341 6.66675 3.33341H4.16675C3.94573 3.33341 3.73377 3.42121 3.57749 3.57749C3.42121 3.73377 3.33341 3.94573 3.33341 4.16675V15.8334C3.33341 16.2898 3.71032 16.6667 4.16675 16.6667H6.66675C7.12699 16.6667 7.50008 17.0398 7.50008 17.5001C7.50008 17.9603 7.12699 18.3334 6.66675 18.3334H4.16675C2.78984 18.3334 1.66675 17.2103 1.66675 15.8334V4.16675C1.66675 3.50371 1.93014 2.86782 2.39898 2.39898Z" fill="black"/>
<path fill-rule="evenodd" clip-rule="evenodd" d="M12.5 2.50008C12.5 2.03984 12.8731 1.66675 13.3333 1.66675H15.8333C16.4964 1.66675 17.1323 1.93014 17.6011 2.39898C18.0699 2.86782 18.3333 3.50371 18.3333 4.16675V15.8334C18.3333 16.4965 18.0699 17.1323 17.6011 17.6012C17.1323 18.07 16.4964 18.3334 15.8333 18.3334H13.3333C12.8731 18.3334 12.5 17.9603 12.5 17.5001C12.5 17.0398 12.8731 16.6667 13.3333 16.6667H15.8333C16.0543 16.6667 16.2663 16.5789 16.4226 16.4227C16.5789 16.2664 16.6667 16.0544 16.6667 15.8334V4.16675C16.6667 3.94573 16.5789 3.73377 16.4226 3.57749C16.2663 3.42121 16.0543 3.33341 15.8333 3.33341H13.3333C12.8731 3.33341 12.5 2.96032 12.5 2.50008Z" fill="black"/>
<path fill-rule="evenodd" clip-rule="evenodd" d="M10.0001 15.8333C10.4603 15.8333 10.8334 16.2063 10.8334 16.6666V18.3333C10.8334 18.7935 10.4603 19.1666 10.0001 19.1666C9.53984 19.1666 9.16675 18.7935 9.16675 18.3333V16.6666C9.16675 16.2063 9.53984 15.8333 10.0001 15.8333Z" fill="black"/>
<path fill-rule="evenodd" clip-rule="evenodd" d="M10.0001 10.8333C10.4603 10.8333 10.8334 11.2063 10.8334 11.6666V13.3333C10.8334 13.7935 10.4603 14.1666 10.0001 14.1666C9.53984 14.1666 9.16675 13.7935 9.16675 13.3333V11.6666C9.16675 11.2063 9.53984 10.8333 10.0001 10.8333Z" fill="black"/>
<path fill-rule="evenodd" clip-rule="evenodd" d="M10.0001 5.83325C10.4603 5.83325 10.8334 6.20635 10.8334 6.66659V8.33325C10.8334 8.79349 10.4603 9.16658 10.0001 9.16658C9.53984 9.16658 9.16675 8.79349 9.16675 8.33325V6.66659C9.16675 6.20635 9.53984 5.83325 10.0001 5.83325Z" fill="black"/>
<path fill-rule="evenodd" clip-rule="evenodd" d="M10.0001 0.833252C10.4603 0.833252 10.8334 1.20635 10.8334 1.66659V3.33325C10.8334 3.79349 10.4603 4.16658 10.0001 4.16658C9.53984 4.16658 9.16675 3.79349 9.16675 3.33325V1.66659C9.16675 1.20635 9.53984 0.833252 10.0001 0.833252Z" fill="black"/>
</svg>
