<svg width="20" height="20" viewBox="0 0 20 20" fill="none" xmlns="http://www.w3.org/2000/svg">
<path fill-rule="evenodd" clip-rule="evenodd" d="M5.06346 2.18118C5.19244 1.86978 5.49631 1.66675 5.83336 1.66675H14.1667C14.5037 1.66675 14.8076 1.86978 14.9366 2.18118C15.0656 2.49257 14.9943 2.85101 14.7559 3.08934L10.5893 7.256C10.2638 7.58144 9.73621 7.58144 9.41077 7.256L5.2441 3.08934C5.00577 2.85101 4.93447 2.49257 5.06346 2.18118ZM7.8452 3.33341L10 5.48824L12.1548 3.33341H7.8452Z" fill="black"/>
<path fill-rule="evenodd" clip-rule="evenodd" d="M9.41077 12.7441C9.73621 12.4186 10.2638 12.4186 10.5893 12.7441L14.7559 16.9107C14.9943 17.1491 15.0656 17.5075 14.9366 17.8189C14.8076 18.1303 14.5037 18.3333 14.1667 18.3333H5.83336C5.49631 18.3333 5.19244 18.1303 5.06346 17.8189C4.93447 17.5075 5.00577 17.1491 5.2441 16.9107L9.41077 12.7441ZM7.8452 16.6667H12.1548L10 14.5118L7.8452 16.6667Z" fill="black"/>
<path fill-rule="evenodd" clip-rule="evenodd" d="M0.833252 10.0001C0.833252 9.53984 1.20635 9.16675 1.66659 9.16675H3.33325C3.79349 9.16675 4.16658 9.53984 4.16658 10.0001C4.16658 10.4603 3.79349 10.8334 3.33325 10.8334H1.66659C1.20635 10.8334 0.833252 10.4603 0.833252 10.0001Z" fill="black"/>
<path fill-rule="evenodd" clip-rule="evenodd" d="M5.83325 10.0001C5.83325 9.53984 6.20635 9.16675 6.66659 9.16675H8.33325C8.79349 9.16675 9.16658 9.53984 9.16658 10.0001C9.16658 10.4603 8.79349 10.8334 8.33325 10.8334H6.66659C6.20635 10.8334 5.83325 10.4603 5.83325 10.0001Z" fill="black"/>
<path fill-rule="evenodd" clip-rule="evenodd" d="M10.8333 10.0001C10.8333 9.53984 11.2063 9.16675 11.6666 9.16675H13.3333C13.7935 9.16675 14.1666 9.53984 14.1666 10.0001C14.1666 10.4603 13.7935 10.8334 13.3333 10.8334H11.6666C11.2063 10.8334 10.8333 10.4603 10.8333 10.0001Z" fill="black"/>
<path fill-rule="evenodd" clip-rule="evenodd" d="M15.8333 10.0001C15.8333 9.53984 16.2063 9.16675 16.6666 9.16675H18.3333C18.7935 9.16675 19.1666 9.53984 19.1666 10.0001C19.1666 10.4603 18.7935 10.8334 18.3333 10.8334H16.6666C16.2063 10.8334 15.8333 10.4603 15.8333 10.0001Z" fill="black"/>
</svg>
