<svg width="20" height="20" viewBox="0 0 20 20" fill="none" xmlns="http://www.w3.org/2000/svg">
<path fill-rule="evenodd" clip-rule="evenodd" d="M2.39898 2.39898C2.86782 1.93014 3.50371 1.66675 4.16675 1.66675H15.8334C16.4965 1.66675 17.1323 1.93014 17.6012 2.39898C18.07 2.86782 18.3334 3.50371 18.3334 4.16675V6.66675C18.3334 7.12699 17.9603 7.50008 17.5001 7.50008C17.0398 7.50008 16.6667 7.12699 16.6667 6.66675V4.16675C16.6667 3.94573 16.5789 3.73377 16.4227 3.57749C16.2664 3.42121 16.0544 3.33341 15.8334 3.33341H4.16675C3.94573 3.33341 3.73377 3.42121 3.57749 3.57749C3.42121 3.73377 3.33341 3.94573 3.33341 4.16675V6.66675C3.33341 7.12699 2.96032 7.50008 2.50008 7.50008C2.03984 7.50008 1.66675 7.12699 1.66675 6.66675V4.16675C1.66675 3.50371 1.93014 2.86782 2.39898 2.39898Z" fill="black"/>
<path fill-rule="evenodd" clip-rule="evenodd" d="M2.50008 12.5C2.96032 12.5 3.33341 12.8731 3.33341 13.3333V15.8333C3.33341 16.0543 3.42121 16.2663 3.57749 16.4226C3.73377 16.5789 3.94573 16.6667 4.16675 16.6667H15.8334C16.0544 16.6667 16.2664 16.5789 16.4227 16.4226C16.5789 16.2663 16.6667 16.0543 16.6667 15.8333V13.3333C16.6667 12.8731 17.0398 12.5 17.5001 12.5C17.9603 12.5 18.3334 12.8731 18.3334 13.3333V15.8333C18.3334 16.4964 18.07 17.1323 17.6012 17.6011C17.1323 18.0699 16.4965 18.3333 15.8334 18.3333H4.16675C3.50371 18.3333 2.86782 18.0699 2.39898 17.6011C1.93014 17.1323 1.66675 16.4964 1.66675 15.8333V13.3333C1.66675 12.8731 2.03984 12.5 2.50008 12.5Z" fill="black"/>
<path fill-rule="evenodd" clip-rule="evenodd" d="M0.833252 10.0001C0.833252 9.53984 1.20635 9.16675 1.66659 9.16675H3.33325C3.79349 9.16675 4.16658 9.53984 4.16658 10.0001C4.16658 10.4603 3.79349 10.8334 3.33325 10.8334H1.66659C1.20635 10.8334 0.833252 10.4603 0.833252 10.0001Z" fill="black"/>
<path fill-rule="evenodd" clip-rule="evenodd" d="M5.83325 10.0001C5.83325 9.53984 6.20635 9.16675 6.66659 9.16675H8.33325C8.79349 9.16675 9.16658 9.53984 9.16658 10.0001C9.16658 10.4603 8.79349 10.8334 8.33325 10.8334H6.66659C6.20635 10.8334 5.83325 10.4603 5.83325 10.0001Z" fill="black"/>
<path fill-rule="evenodd" clip-rule="evenodd" d="M10.8333 10.0001C10.8333 9.53984 11.2063 9.16675 11.6666 9.16675H13.3333C13.7935 9.16675 14.1666 9.53984 14.1666 10.0001C14.1666 10.4603 13.7935 10.8334 13.3333 10.8334H11.6666C11.2063 10.8334 10.8333 10.4603 10.8333 10.0001Z" fill="black"/>
<path fill-rule="evenodd" clip-rule="evenodd" d="M15.8333 10.0001C15.8333 9.53984 16.2063 9.16675 16.6666 9.16675H18.3333C18.7935 9.16675 19.1666 9.53984 19.1666 10.0001C19.1666 10.4603 18.7935 10.8334 18.3333 10.8334H16.6666C16.2063 10.8334 15.8333 10.4603 15.8333 10.0001Z" fill="black"/>
</svg>
