<svg width="20" height="20" viewBox="0 0 20 20" fill="none" xmlns="http://www.w3.org/2000/svg">
<path fill-rule="evenodd" clip-rule="evenodd" d="M6.84978 0.897303C7.49639 0.768685 8.16661 0.834696 8.77569 1.08699C9.24696 1.2822 9.66526 1.58214 10.0001 1.96179C10.3349 1.58214 10.7532 1.2822 11.2245 1.08699C11.8336 0.834696 12.5038 0.768685 13.1504 0.897303C13.797 1.02592 14.3909 1.34339 14.8571 1.80956C15.3233 2.27574 15.6407 2.86968 15.7694 3.51629C15.898 4.16289 15.832 4.83311 15.5797 5.4422C15.3845 5.91347 15.0845 6.33176 14.7049 6.66659C15.0845 7.00141 15.3845 7.4197 15.5797 7.89098C15.832 8.50006 15.898 9.17028 15.7694 9.81689C15.6407 10.4635 15.3233 11.0574 14.8571 11.5236C14.3909 11.9898 13.797 12.3073 13.1504 12.4359C12.5038 12.5645 11.8336 12.4985 11.2245 12.2462C10.7532 12.051 10.3349 11.751 10.0001 11.3714C9.66526 11.751 9.24696 12.051 8.77569 12.2462C8.16661 12.4985 7.49639 12.5645 6.84978 12.4359C6.20318 12.3073 5.60924 11.9898 5.14306 11.5236C4.67688 11.0574 4.35942 10.4635 4.2308 9.81689C4.10218 9.17028 4.16819 8.50006 4.42048 7.89098C4.61569 7.4197 4.91563 7.00141 5.29529 6.66659C4.91563 6.33176 4.61569 5.91347 4.42048 5.4422C4.16819 4.83311 4.10218 4.16289 4.2308 3.51629C4.35942 2.86968 4.67689 2.27574 5.14306 1.80956C5.60924 1.34339 6.20318 1.02592 6.84978 0.897303ZM7.50008 5.83325C7.17045 5.83325 6.84821 5.73551 6.57413 5.55237C6.30005 5.36923 6.08643 5.10894 5.96028 4.80439C5.83414 4.49985 5.80113 4.16474 5.86544 3.84144C5.92975 3.51813 6.08848 3.22116 6.32157 2.98808C6.55466 2.75499 6.85163 2.59625 7.17493 2.53194C7.49823 2.46764 7.83334 2.50064 8.13789 2.62679C8.44243 2.75293 8.70273 2.96655 8.88587 3.24064C9.069 3.51472 9.16675 3.83695 9.16675 4.16659V4.99992C9.16675 5.46016 9.53985 5.83325 10.0001 5.83325C10.4603 5.83325 10.8334 5.46016 10.8334 4.99992V4.16659C10.8334 3.83695 10.9312 3.51472 11.1143 3.24064C11.2974 2.96655 11.5577 2.75293 11.8623 2.62679C12.1668 2.50064 12.5019 2.46764 12.8252 2.53194C13.1485 2.59625 13.4455 2.75499 13.6786 2.98808C13.9117 3.22116 14.0704 3.51813 14.1347 3.84144C14.199 4.16474 14.166 4.49985 14.0399 4.80439C13.9137 5.10894 13.7001 5.36923 13.426 5.55237C13.152 5.73551 12.8297 5.83325 12.5001 5.83325H11.6667C11.2065 5.83325 10.8334 6.20635 10.8334 6.66659C10.8334 7.12682 11.2065 7.49992 11.6667 7.49992H12.5001C12.8297 7.49992 13.152 7.59767 13.426 7.7808C13.7001 7.96394 13.9137 8.22424 14.0399 8.52878C14.166 8.83333 14.199 9.16844 14.1347 9.49174C14.0704 9.81504 13.9117 10.112 13.6786 10.3451C13.4455 10.5782 13.1485 10.7369 12.8252 10.8012C12.5019 10.8655 12.1668 10.8325 11.8623 10.7064C11.5577 10.5802 11.2974 10.3666 11.1143 10.0925C10.9312 9.81845 10.8334 9.49622 10.8334 9.16659V8.33325C10.8334 7.87302 10.4603 7.49992 10.0001 7.49992C9.53985 7.49992 9.16675 7.87302 9.16675 8.33325V9.16659C9.16675 9.49622 9.069 9.81845 8.88587 10.0925C8.70273 10.3666 8.44243 10.5802 8.13789 10.7064C7.83334 10.8325 7.49823 10.8655 7.17493 10.8012C6.85163 10.7369 6.55466 10.5782 6.32157 10.3451C6.08848 10.112 5.92975 9.81504 5.86544 9.49174C5.80113 9.16844 5.83414 8.83333 5.96028 8.52878C6.08643 8.22424 6.30005 7.96394 6.57413 7.7808C6.84821 7.59767 7.17045 7.49992 7.50008 7.49992H8.33342C8.79365 7.49992 9.16675 7.12682 9.16675 6.66659C9.16675 6.20635 8.79365 5.83325 8.33342 5.83325H7.50008Z" fill="black"/>
<path fill-rule="evenodd" clip-rule="evenodd" d="M10 5.83341C9.53976 5.83341 9.16667 6.20651 9.16667 6.66675C9.16667 7.12699 9.53976 7.50008 10 7.50008C10.4602 7.50008 10.8333 7.12699 10.8333 6.66675C10.8333 6.20651 10.4602 5.83341 10 5.83341ZM7.5 6.66675C7.5 5.28604 8.61929 4.16675 10 4.16675C11.3807 4.16675 12.5 5.28604 12.5 6.66675C12.5 8.04746 11.3807 9.16675 10 9.16675C8.61929 9.16675 7.5 8.04746 7.5 6.66675Z" fill="black"/>
<path fill-rule="evenodd" clip-rule="evenodd" d="M10.0001 7.5C10.4603 7.5 10.8334 7.8731 10.8334 8.33333V18.3333C10.8334 18.7936 10.4603 19.1667 10.0001 19.1667C9.53984 19.1667 9.16675 18.7936 9.16675 18.3333V8.33333C9.16675 7.8731 9.53984 7.5 10.0001 7.5Z" fill="black"/>
<path fill-rule="evenodd" clip-rule="evenodd" d="M11.1355 14.5193C12.3459 13.6959 13.9916 13.3333 15.8334 13.3333C16.2937 13.3333 16.6667 13.7063 16.6667 14.1666C16.6667 15.8271 15.9503 17.1286 14.698 17.9805C13.4876 18.804 11.8419 19.1666 10.0001 19.1666C9.53984 19.1666 9.16675 18.7935 9.16675 18.3333C9.16675 16.6727 9.88323 15.3713 11.1355 14.5193ZM10.9395 17.4616C12.1446 17.3592 13.0939 17.0559 13.7605 16.6025C14.326 16.2178 14.7174 15.7074 14.894 15.0382C13.6889 15.1406 12.7396 15.4439 12.073 15.8974C11.5075 16.2821 11.1161 16.7924 10.9395 17.4616Z" fill="black"/>
<path fill-rule="evenodd" clip-rule="evenodd" d="M3.33325 14.1666C3.33325 13.7063 3.70635 13.3333 4.16659 13.3333C6.00844 13.3333 7.65406 13.6959 8.86449 14.5193C10.1168 15.3713 10.8333 16.6727 10.8333 18.3333C10.8333 18.7935 10.4602 19.1666 9.99992 19.1666C8.15807 19.1666 6.51245 18.804 5.30202 17.9805C4.04973 17.1286 3.33325 15.8271 3.33325 14.1666ZM5.10604 15.0382C5.28259 15.7074 5.674 16.2178 6.23949 16.6025C6.90606 17.0559 7.85544 17.3592 9.06046 17.4616C8.88391 16.7924 8.4925 16.2821 7.92702 15.8974C7.26045 15.4439 6.31106 15.1406 5.10604 15.0382Z" fill="black"/>
</svg>
