<svg width="20" height="20" viewBox="0 0 20 20" fill="none" xmlns="http://www.w3.org/2000/svg">
<path fill-rule="evenodd" clip-rule="evenodd" d="M10.0001 8.33341C9.07961 8.33341 8.33341 9.07961 8.33341 10.0001C8.33341 10.9206 9.07961 11.6667 10.0001 11.6667C10.9206 11.6667 11.6667 10.9206 11.6667 10.0001C11.6667 9.07961 10.9206 8.33341 10.0001 8.33341ZM6.66675 10.0001C6.66675 8.15913 8.15913 6.66675 10.0001 6.66675C11.841 6.66675 13.3334 8.15913 13.3334 10.0001C13.3334 11.841 11.841 13.3334 10.0001 13.3334C8.15913 13.3334 6.66675 11.841 6.66675 10.0001Z" fill="black"/>
<path fill-rule="evenodd" clip-rule="evenodd" d="M7.36624 3.55543C6.83329 3.33468 6.24685 3.27692 5.68107 3.38946C5.11529 3.502 4.59559 3.77979 4.18769 4.18769C3.77979 4.59559 3.502 5.11529 3.38946 5.68107C3.27692 6.24685 3.33468 6.83329 3.55543 7.36624C3.77619 7.8992 4.15003 8.35472 4.62967 8.6752C5.10931 8.99569 5.67322 9.16675 6.25008 9.16675C6.71032 9.16675 7.08342 9.53985 7.08342 10.0001C7.08342 10.4603 6.71032 10.8334 6.25008 10.8334C5.67322 10.8334 5.10931 11.0045 4.62967 11.325C4.15003 11.6455 3.77619 12.101 3.55543 12.6339C3.33468 13.1669 3.27692 13.7533 3.38946 14.3191C3.502 14.8849 3.77979 15.4046 4.18769 15.8125C4.59559 16.2204 5.11529 16.4982 5.68107 16.6107C6.24685 16.7232 6.83329 16.6655 7.36624 16.4447C7.8992 16.224 8.35472 15.8501 8.6752 15.3705C8.99569 14.8909 9.16675 14.3269 9.16675 13.7501C9.16675 13.2898 9.53985 12.9168 10.0001 12.9168C10.4603 12.9168 10.8334 13.2898 10.8334 13.7501C10.8334 14.3269 11.0045 14.8909 11.325 15.3705C11.6455 15.8501 12.101 16.224 12.6339 16.4447C13.1669 16.6655 13.7533 16.7232 14.3191 16.6107C14.8849 16.4982 15.4046 16.2204 15.8125 15.8125C16.2204 15.4046 16.4982 14.8849 16.6107 14.3191C16.7232 13.7533 16.6655 13.1669 16.4447 12.6339C16.224 12.101 15.8501 11.6455 15.3705 11.325C14.8909 11.0045 14.3269 10.8334 13.7501 10.8334C13.2898 10.8334 12.9168 10.4603 12.9168 10.0001C12.9168 9.53985 13.2898 9.16675 13.7501 9.16675C14.3269 9.16675 14.8909 8.99569 15.3705 8.6752C15.8501 8.35472 16.224 7.8992 16.4447 7.36624C16.6655 6.83329 16.7232 6.24685 16.6107 5.68107C16.4982 5.11529 16.2204 4.59559 15.8125 4.18769C15.4046 3.77979 14.8849 3.502 14.3191 3.38946C13.7533 3.27692 13.1669 3.33468 12.6339 3.55543C12.101 3.77619 11.6455 4.15003 11.325 4.62967C11.0045 5.10931 10.8334 5.67322 10.8334 6.25008C10.8334 6.71032 10.4603 7.08342 10.0001 7.08342C9.53985 7.08342 9.16675 6.71032 9.16675 6.25008C9.16675 5.67322 8.99569 5.10931 8.6752 4.62967C8.35472 4.15003 7.8992 3.77619 7.36624 3.55543ZM10.0001 3.61485C9.50041 2.90379 8.80834 2.34878 8.00405 2.01564C7.16655 1.66873 6.245 1.57797 5.35592 1.75482C4.46684 1.93167 3.65017 2.36819 3.00918 3.00918C2.36819 3.65017 1.93167 4.46684 1.75482 5.35592C1.57797 6.245 1.66873 7.16655 2.01564 8.00405C2.34878 8.80834 2.90379 9.50041 3.61485 10.0001C2.90379 10.4998 2.34878 11.1918 2.01564 11.9961C1.66873 12.8336 1.57797 13.7552 1.75482 14.6442C1.93167 15.5333 2.36819 16.35 3.00918 16.991C3.65017 17.632 4.46684 18.0685 5.35592 18.2453C6.245 18.4222 7.16656 18.3314 8.00405 17.9845C8.80834 17.6514 9.50041 17.0964 10.0001 16.3853C10.4998 17.0964 11.1918 17.6514 11.9961 17.9845C12.8336 18.3314 13.7552 18.4222 14.6442 18.2453C15.5333 18.0685 16.35 17.632 16.991 16.991C17.632 16.35 18.0685 15.5333 18.2453 14.6442C18.4222 13.7552 18.3314 12.8336 17.9845 11.9961C17.6514 11.1918 17.0964 10.4998 16.3853 10.0001C17.0964 9.50041 17.6514 8.80834 17.9845 8.00405C18.3314 7.16656 18.4222 6.245 18.2453 5.35592C18.0685 4.46684 17.632 3.65017 16.991 3.00918C16.35 2.36819 15.5333 1.93167 14.6442 1.75482C13.7552 1.57797 12.8336 1.66873 11.9961 2.01564C11.1918 2.34878 10.4998 2.90379 10.0001 3.61485Z" fill="black"/>
<path fill-rule="evenodd" clip-rule="evenodd" d="M10.0001 5.41675C10.4603 5.41675 10.8334 5.78984 10.8334 6.25008V7.50008C10.8334 7.96032 10.4603 8.33341 10.0001 8.33341C9.53984 8.33341 9.16675 7.96032 9.16675 7.50008V6.25008C9.16675 5.78984 9.53984 5.41675 10.0001 5.41675Z" fill="black"/>
<path fill-rule="evenodd" clip-rule="evenodd" d="M5.41675 10.0001C5.41675 9.53984 5.78984 9.16675 6.25008 9.16675H7.50008C7.96032 9.16675 8.33341 9.53984 8.33341 10.0001C8.33341 10.4603 7.96032 10.8334 7.50008 10.8334H6.25008C5.78984 10.8334 5.41675 10.4603 5.41675 10.0001Z" fill="black"/>
<path fill-rule="evenodd" clip-rule="evenodd" d="M11.6667 10.0001C11.6667 9.53984 12.0398 9.16675 12.5001 9.16675H13.7501C14.2103 9.16675 14.5834 9.53984 14.5834 10.0001C14.5834 10.4603 14.2103 10.8334 13.7501 10.8334H12.5001C12.0398 10.8334 11.6667 10.4603 11.6667 10.0001Z" fill="black"/>
<path fill-rule="evenodd" clip-rule="evenodd" d="M10.0001 11.6667C10.4603 11.6667 10.8334 12.0398 10.8334 12.5001V13.7501C10.8334 14.2103 10.4603 14.5834 10.0001 14.5834C9.53984 14.5834 9.16675 14.2103 9.16675 13.7501V12.5001C9.16675 12.0398 9.53984 11.6667 10.0001 11.6667Z" fill="black"/>
<path fill-rule="evenodd" clip-rule="evenodd" d="M6.07733 6.07733C6.40277 5.75189 6.9304 5.75189 7.25584 6.07733L8.82251 7.644C9.14794 7.96943 9.14794 8.49707 8.82251 8.82251C8.49707 9.14794 7.96943 9.14794 7.644 8.82251L6.07733 7.25584C5.75189 6.9304 5.75189 6.40277 6.07733 6.07733Z" fill="black"/>
<path fill-rule="evenodd" clip-rule="evenodd" d="M13.9226 6.07733C14.248 6.40277 14.248 6.9304 13.9226 7.25584L12.3559 8.82251C12.0305 9.14794 11.5029 9.14794 11.1774 8.82251C10.852 8.49707 10.852 7.96943 11.1774 7.644L12.7441 6.07733C13.0695 5.75189 13.5972 5.75189 13.9226 6.07733Z" fill="black"/>
<path fill-rule="evenodd" clip-rule="evenodd" d="M8.82251 11.1774C9.14794 11.5029 9.14794 12.0305 8.82251 12.3559L7.25584 13.9226C6.9304 14.248 6.40277 14.248 6.07733 13.9226C5.75189 13.5972 5.75189 13.0695 6.07733 12.7441L7.644 11.1774C7.96943 10.852 8.49707 10.852 8.82251 11.1774Z" fill="black"/>
<path fill-rule="evenodd" clip-rule="evenodd" d="M11.1774 11.1774C11.5029 10.852 12.0305 10.852 12.3559 11.1774L13.9226 12.7441C14.248 13.0695 14.248 13.5972 13.9226 13.9226C13.5972 14.248 13.0695 14.248 12.7441 13.9226L11.1774 12.3559C10.852 12.0305 10.852 11.5029 11.1774 11.1774Z" fill="black"/>
</svg>
