<svg width="20" height="20" viewBox="0 0 20 20" fill="none" xmlns="http://www.w3.org/2000/svg">
<path fill-rule="evenodd" clip-rule="evenodd" d="M10.0001 8.33341C9.07961 8.33341 8.33341 9.07961 8.33341 10.0001C8.33341 10.9206 9.07961 11.6667 10.0001 11.6667C10.9206 11.6667 11.6667 10.9206 11.6667 10.0001C11.6667 9.07961 10.9206 8.33341 10.0001 8.33341ZM6.66675 10.0001C6.66675 8.15913 8.15913 6.66675 10.0001 6.66675C11.841 6.66675 13.3334 8.15913 13.3334 10.0001C13.3334 11.841 11.841 13.3334 10.0001 13.3334C8.15913 13.3334 6.66675 11.841 6.66675 10.0001Z" fill="black"/>
<path fill-rule="evenodd" clip-rule="evenodd" d="M4.16675 3.33341C3.94573 3.33341 3.73377 3.42121 3.57749 3.57749C3.42121 3.73377 3.33341 3.94573 3.33341 4.16675V5.83342C3.33341 6.29365 2.96032 6.66675 2.50008 6.66675C2.03984 6.66675 1.66675 6.29365 1.66675 5.83342V4.16675C1.66675 3.50371 1.93014 2.86782 2.39898 2.39898C2.86782 1.93014 3.50371 1.66675 4.16675 1.66675H5.83342C6.29365 1.66675 6.66675 2.03984 6.66675 2.50008C6.66675 2.96032 6.29365 3.33341 5.83342 3.33341H4.16675Z" fill="black"/>
<path fill-rule="evenodd" clip-rule="evenodd" d="M13.3333 2.50008C13.3333 2.03984 13.7063 1.66675 14.1666 1.66675H15.8333C16.4963 1.66675 17.1322 1.93014 17.601 2.39898C18.0699 2.86782 18.3333 3.50371 18.3333 4.16675V5.83342C18.3333 6.29365 17.9602 6.66675 17.4999 6.66675C17.0397 6.66675 16.6666 6.29365 16.6666 5.83342V4.16675C16.6666 3.94573 16.5788 3.73377 16.4225 3.57749C16.2662 3.42121 16.0543 3.33341 15.8333 3.33341H14.1666C13.7063 3.33341 13.3333 2.96032 13.3333 2.50008Z" fill="black"/>
<path fill-rule="evenodd" clip-rule="evenodd" d="M17.4999 13.3333C17.9602 13.3333 18.3333 13.7063 18.3333 14.1666V15.8333C18.3333 16.4963 18.0699 17.1322 17.601 17.601C17.1322 18.0699 16.4963 18.3333 15.8333 18.3333H14.1666C13.7063 18.3333 13.3333 17.9602 13.3333 17.4999C13.3333 17.0397 13.7063 16.6666 14.1666 16.6666H15.8333C16.0543 16.6666 16.2662 16.5788 16.4225 16.4225C16.5788 16.2662 16.6666 16.0543 16.6666 15.8333V14.1666C16.6666 13.7063 17.0397 13.3333 17.4999 13.3333Z" fill="black"/>
<path fill-rule="evenodd" clip-rule="evenodd" d="M2.50008 13.3333C2.96032 13.3333 3.33341 13.7063 3.33341 14.1666V15.8333C3.33341 16.0543 3.42121 16.2662 3.57749 16.4225C3.73377 16.5788 3.94573 16.6666 4.16675 16.6666H5.83342C6.29365 16.6666 6.66675 17.0397 6.66675 17.4999C6.66675 17.9602 6.29365 18.3333 5.83342 18.3333H4.16675C3.50371 18.3333 2.86782 18.0699 2.39898 17.601C1.93014 17.1322 1.66675 16.4963 1.66675 15.8333V14.1666C1.66675 13.7063 2.03984 13.3333 2.50008 13.3333Z" fill="black"/>
</svg>
