<svg width="20" height="20" viewBox="0 0 20 20" fill="none" xmlns="http://www.w3.org/2000/svg">
<path fill-rule="evenodd" clip-rule="evenodd" d="M12.5 14.9999C12.0398 14.9999 11.6667 15.373 11.6667 15.8333C11.6667 16.2935 12.0398 16.6666 12.5 16.6666C12.9602 16.6666 13.3333 16.2935 13.3333 15.8333C13.3333 15.373 12.9602 14.9999 12.5 14.9999ZM10 15.8333C10 14.4525 11.1193 13.3333 12.5 13.3333C13.8807 13.3333 15 14.4525 15 15.8333C15 17.214 13.8807 18.3333 12.5 18.3333C11.1193 18.3333 10 17.214 10 15.8333Z" fill="black"/>
<path fill-rule="evenodd" clip-rule="evenodd" d="M1.56549 2.39898C2.03433 1.93014 2.67021 1.66675 3.33325 1.66675H6.60825V2.50008L6.60839 1.66675C7.02227 1.66682 7.42967 1.76964 7.79401 1.96599C8.15681 2.16151 8.46562 2.44368 8.69299 2.78735L9.36563 3.78385C9.3674 3.78649 9.36917 3.78913 9.37092 3.79179C9.44757 3.90819 9.55219 4.00352 9.67521 4.06903C9.79823 4.13454 9.93571 4.16815 10.0751 4.16679C10.0778 4.16676 10.0805 4.16675 10.0833 4.16675H16.6666C17.3296 4.16675 17.9655 4.43014 18.4344 4.89898C18.9032 5.36782 19.1666 6.00371 19.1666 6.66675V14.9975C19.1692 15.4623 19.0422 15.9187 18.7998 16.3153C18.5569 16.7129 18.2077 17.0346 17.7916 17.2443C17.3806 17.4514 16.8795 17.2861 16.6724 16.8751C16.4653 16.464 16.6306 15.963 17.0416 15.7559C17.1803 15.686 17.2967 15.5787 17.3777 15.4462C17.4587 15.3137 17.501 15.1612 17.4999 15.0059C17.4999 15.0039 17.4999 15.002 17.4999 15.0001V6.66675C17.4999 6.44573 17.4121 6.23377 17.2558 6.07749C17.0996 5.92121 16.8876 5.83341 16.6666 5.83341H10.0869C9.67037 5.83675 9.25954 5.73594 8.8918 5.5401C8.52428 5.34438 8.2115 5.05998 7.98181 4.71275L7.30921 3.71631C7.30744 3.71369 7.30569 3.71106 7.30395 3.70841C7.22807 3.59319 7.12477 3.49861 7.00332 3.43316C6.88192 3.36773 6.74617 3.33346 6.60825 3.33341C6.60821 3.33341 6.60816 3.33341 6.60811 3.33341H3.33325C3.11224 3.33341 2.90028 3.42121 2.744 3.57749C2.58772 3.73377 2.49992 3.94573 2.49992 4.16675V15.0001C2.49992 15.2211 2.58772 15.4331 2.744 15.5893C2.90028 15.7456 3.11224 15.8334 3.33325 15.8334H7.58325C8.04349 15.8334 8.41659 16.2065 8.41659 16.6667C8.41659 17.127 8.04349 17.5001 7.58325 17.5001H3.33325C2.67021 17.5001 2.03433 17.2367 1.56549 16.7678C1.09664 16.299 0.833252 15.6631 0.833252 15.0001V4.16675C0.833252 3.50371 1.09664 2.86782 1.56549 2.39898Z" fill="black"/>
<path fill-rule="evenodd" clip-rule="evenodd" d="M12.5001 7.5C12.9603 7.5 13.3334 7.8731 13.3334 8.33333V9.16667C13.3334 9.6269 12.9603 10 12.5001 10C12.0398 10 11.6667 9.6269 11.6667 9.16667V8.33333C11.6667 7.8731 12.0398 7.5 12.5001 7.5Z" fill="black"/>
<path fill-rule="evenodd" clip-rule="evenodd" d="M12.5001 11.6667C12.9603 11.6667 13.3334 12.0398 13.3334 12.5001V14.1667C13.3334 14.627 12.9603 15.0001 12.5001 15.0001C12.0398 15.0001 11.6667 14.627 11.6667 14.1667V12.5001C11.6667 12.0398 12.0398 11.6667 12.5001 11.6667Z" fill="black"/>
</svg>
