<svg width="20" height="20" viewBox="0 0 20 20" fill="none" xmlns="http://www.w3.org/2000/svg">
<path fill-rule="evenodd" clip-rule="evenodd" d="M9.6549 2.1549C9.96746 1.84234 10.3914 1.66675 10.8334 1.66675H12.5001C12.7588 1.66675 13.014 1.72699 13.2454 1.8427C13.4769 1.95842 13.6782 2.12642 13.8334 2.33341L14.5834 3.33341L16.6667 3.33341C17.1088 3.33341 17.5327 3.50901 17.8453 3.82157C18.1578 4.13413 18.3334 4.55806 18.3334 5.00008V7.50008C18.3334 7.94211 18.1578 8.36603 17.8453 8.67859C17.5327 8.99115 17.1088 9.16675 16.6667 9.16675H10.8334C10.3914 9.16675 9.96746 8.99115 9.6549 8.67859C9.34234 8.36603 9.16675 7.94211 9.16675 7.50008V3.33341C9.16675 2.89139 9.34234 2.46746 9.6549 2.1549ZM12.5001 3.33341H10.8334L10.8334 7.50008H16.6667V5.00008H14.5834C14.3247 5.00008 14.0695 4.93984 13.8381 4.82413C13.6066 4.70841 13.4053 4.54041 13.2501 4.33341L12.5001 3.33341Z" fill="black"/>
<path fill-rule="evenodd" clip-rule="evenodd" d="M12.3989 10.8333C12.7236 10.8325 13.0414 10.9265 13.3134 11.1039C13.5794 11.2774 13.7902 11.5231 13.9211 11.8121L14.261 12.4999H16.6667C17.1088 12.4999 17.5327 12.6755 17.8453 12.9881C18.1578 13.3006 18.3334 13.7246 18.3334 14.1666V16.6666C18.3334 17.1086 18.1578 17.5325 17.8453 17.8451C17.5327 18.1577 17.1088 18.3333 16.6667 18.3333H10.8334C10.3914 18.3333 9.96747 18.1577 9.6549 17.8451C9.34234 17.5325 9.16675 17.1086 9.16675 16.6666V12.4999C9.16675 12.0579 9.34234 11.634 9.6549 11.3214C9.96746 11.0089 10.3914 10.8333 10.8334 10.8333H12.3989ZM12.4001 12.4999L10.8334 12.4999L10.8334 16.6666H16.6667V14.1666H14.2501C14.2465 14.1666 14.2428 14.1666 14.2392 14.1665C13.9343 14.1625 13.6363 14.075 13.3776 13.9133C13.119 13.7517 12.9097 13.5222 12.7725 13.2499C12.7716 13.2479 12.7706 13.246 12.7696 13.2441L12.4196 12.5357C12.4138 12.5239 12.4083 12.512 12.403 12.4999C12.402 12.4999 12.401 12.4999 12.4001 12.4999Z" fill="black"/>
<path fill-rule="evenodd" clip-rule="evenodd" d="M2.50008 3.33325C2.96032 3.33325 3.33341 3.70635 3.33341 4.16659C3.33341 4.3876 3.42121 4.59956 3.57749 4.75584C3.73377 4.91212 3.94573 4.99992 4.16675 4.99992H6.66675C7.12699 4.99992 7.50008 5.37301 7.50008 5.83325C7.50008 6.29349 7.12699 6.66658 6.66675 6.66658H4.16675C3.50371 6.66658 2.86782 6.40319 2.39898 5.93435C1.93014 5.46551 1.66675 4.82963 1.66675 4.16659C1.66675 3.70635 2.03984 3.33325 2.50008 3.33325Z" fill="black"/>
<path fill-rule="evenodd" clip-rule="evenodd" d="M2.50008 1.66675C2.96032 1.66675 3.33341 2.03984 3.33341 2.50008V13.3334C3.33341 13.5544 3.42121 13.7664 3.57749 13.9227C3.73377 14.079 3.94573 14.1667 4.16675 14.1667H6.66675C7.12699 14.1667 7.50008 14.5398 7.50008 15.0001C7.50008 15.4603 7.12699 15.8334 6.66675 15.8334H4.16675C3.50371 15.8334 2.86782 15.57 2.39898 15.1012C1.93014 14.6323 1.66675 13.9965 1.66675 13.3334V2.50008C1.66675 2.03984 2.03984 1.66675 2.50008 1.66675Z" fill="black"/>
</svg>
