<svg width="20" height="20" viewBox="0 0 20 20" fill="none" xmlns="http://www.w3.org/2000/svg">
<path fill-rule="evenodd" clip-rule="evenodd" d="M12.4999 14.9999V17.4999H17.4999V14.9999H12.4999ZM17.501 17.4999C17.501 17.4999 17.501 17.4999 17.5009 17.4999L17.501 17.4999ZM12.4989 17.4999C12.4989 17.4999 12.4989 17.4999 12.4989 17.4999L12.4989 17.4999ZM10.8333 14.9999C10.8333 14.0794 11.5794 13.3333 12.4999 13.3333H17.4999C18.4204 13.3333 19.1666 14.0794 19.1666 14.9999V17.4999C19.1666 18.4204 18.4204 19.1666 17.4999 19.1666H12.4999C11.5794 19.1666 10.8333 18.4204 10.8333 17.4999V14.9999Z" fill="black"/>
<path fill-rule="evenodd" clip-rule="evenodd" d="M6.9913 3.43097C6.86828 3.36546 6.73079 3.33184 6.59142 3.33321C6.5887 3.33324 6.58598 3.33325 6.58325 3.33325H3.33325C3.11224 3.33325 2.90028 3.42105 2.744 3.57733C2.58772 3.73361 2.49992 3.94557 2.49992 4.16658V14.9999C2.49992 15.2209 2.58772 15.4329 2.744 15.5892C2.90028 15.7455 3.11224 15.8333 3.33325 15.8333H8.33325C8.79349 15.8333 9.16659 16.2063 9.16659 16.6666C9.16659 17.1268 8.79349 17.4999 8.33325 17.4999H3.33325C2.67021 17.4999 2.03433 17.2365 1.56549 16.7677C1.09664 16.2988 0.833252 15.663 0.833252 14.9999V4.16658C0.833252 3.50354 1.09664 2.86766 1.56549 2.39882C2.03433 1.92998 2.67021 1.66658 3.33325 1.66658H6.57958C6.99615 1.66325 7.40697 1.76406 7.77471 1.9599C8.14222 2.15562 8.45501 2.44002 8.6847 2.78725L9.35729 3.78369C9.35906 3.78631 9.36082 3.78894 9.36256 3.79158C9.43843 3.9068 9.54173 4.00138 9.66318 4.06684C9.78459 4.13227 9.92034 4.16654 10.0583 4.16658C10.0583 4.16658 10.0583 4.16658 10.0584 4.16658H16.6666C17.3296 4.16658 17.9655 4.42998 18.4344 4.89882C18.9032 5.36766 19.1666 6.00354 19.1666 6.66658V8.74992C19.1666 9.21016 18.7935 9.58325 18.3333 9.58325C17.873 9.58325 17.4999 9.21016 17.4999 8.74992V6.66658C17.4999 6.44557 17.4121 6.23361 17.2558 6.07733C17.0996 5.92105 16.8876 5.83325 16.6666 5.83325H10.0583V4.99837L10.0581 5.83325C9.64423 5.83318 9.23684 5.73036 8.87249 5.53401C8.50968 5.33848 8.20087 5.0563 7.9735 4.71262L7.30088 3.71614C7.2991 3.71351 7.29734 3.71087 7.29559 3.70821C7.21894 3.5918 7.11432 3.49648 6.9913 3.43097Z" fill="black"/>
<path fill-rule="evenodd" clip-rule="evenodd" d="M13.2322 10.7322C13.7011 10.2634 14.337 10 15 10C15.663 10 16.2989 10.2634 16.7678 10.7322C17.2366 11.2011 17.5 11.837 17.5 12.5V14.1667C17.5 14.6269 17.1269 15 16.6667 15C16.2064 15 15.8333 14.6269 15.8333 14.1667V12.5C15.8333 12.279 15.7455 12.067 15.5893 11.9107C15.433 11.7545 15.221 11.6667 15 11.6667C14.779 11.6667 14.567 11.7545 14.4107 11.9107C14.2545 12.067 14.1667 12.279 14.1667 12.5V14.1667C14.1667 14.6269 13.7936 15 13.3333 15C12.8731 15 12.5 14.6269 12.5 14.1667V12.5C12.5 11.837 12.7634 11.2011 13.2322 10.7322Z" fill="black"/>
</svg>
