<svg width="20" height="20" viewBox="0 0 20 20" fill="none" xmlns="http://www.w3.org/2000/svg">
<path fill-rule="evenodd" clip-rule="evenodd" d="M10 9.99992C9.53976 9.99992 9.16667 10.373 9.16667 10.8333C9.16667 11.2935 9.53976 11.6666 10 11.6666C10.4602 11.6666 10.8333 11.2935 10.8333 10.8333C10.8333 10.373 10.4602 9.99992 10 9.99992ZM7.5 10.8333C7.5 9.45254 8.61929 8.33325 10 8.33325C11.3807 8.33325 12.5 9.45254 12.5 10.8333C12.5 12.214 11.3807 13.3333 10 13.3333C8.61929 13.3333 7.5 12.214 7.5 10.8333Z" fill="black"/>
<path fill-rule="evenodd" clip-rule="evenodd" d="M1.56549 2.39898C2.03433 1.93014 2.67021 1.66675 3.33325 1.66675H6.60825V2.50008L6.60839 1.66675C7.02227 1.66682 7.42967 1.76964 7.79401 1.96599C8.15681 2.16151 8.46562 2.44368 8.69299 2.78735L9.36563 3.78385C9.3674 3.78649 9.36917 3.78913 9.37092 3.79179C9.44757 3.90819 9.55219 4.00352 9.67521 4.06903C9.79823 4.13454 9.93571 4.16815 10.0751 4.16679C10.0778 4.16676 10.0805 4.16675 10.0833 4.16675H16.6666C17.3296 4.16675 17.9655 4.43014 18.4344 4.89898C18.9032 5.36782 19.1666 6.00371 19.1666 6.66675V15.0001C19.1666 15.6631 18.9032 16.299 18.4344 16.7678C17.9655 17.2367 17.3296 17.5001 16.6666 17.5001H3.33325C2.67021 17.5001 2.03433 17.2367 1.56549 16.7678C1.09664 16.299 0.833252 15.6631 0.833252 15.0001V4.16675C0.833252 3.50371 1.09664 2.86782 1.56549 2.39898ZM6.60825 3.33341C6.60821 3.33341 6.60816 3.33341 6.60811 3.33341H3.33325C3.11224 3.33341 2.90028 3.42121 2.744 3.57749C2.58772 3.73377 2.49992 3.94573 2.49992 4.16675V15.0001C2.49992 15.2211 2.58772 15.4331 2.744 15.5893C2.90028 15.7456 3.11224 15.8334 3.33325 15.8334H16.6666C16.8876 15.8334 17.0996 15.7456 17.2558 15.5893C17.4121 15.4331 17.4999 15.2211 17.4999 15.0001V6.66675C17.4999 6.44573 17.4121 6.23377 17.2558 6.07749C17.0996 5.92121 16.8876 5.83341 16.6666 5.83341H10.0869C9.67037 5.83675 9.25954 5.73594 8.8918 5.5401C8.52428 5.34438 8.2115 5.05998 7.98181 4.71275L7.30921 3.71631C7.30744 3.71369 7.30569 3.71106 7.30395 3.70841C7.22807 3.59319 7.12477 3.49861 7.00332 3.43316C6.88192 3.36773 6.74617 3.33346 6.60825 3.33341Z" fill="black"/>
<path fill-rule="evenodd" clip-rule="evenodd" d="M10.8333 10.8333C10.8333 10.3731 11.2063 10 11.6666 10H14.1666C14.6268 10 14.9999 10.3731 14.9999 10.8333C14.9999 11.2936 14.6268 11.6667 14.1666 11.6667H11.6666C11.2063 11.6667 10.8333 11.2936 10.8333 10.8333Z" fill="black"/>
<path fill-rule="evenodd" clip-rule="evenodd" d="M5 10.8333C5 10.3731 5.3731 10 5.83333 10H8.33333C8.79357 10 9.16667 10.3731 9.16667 10.8333C9.16667 11.2936 8.79357 11.6667 8.33333 11.6667H5.83333C5.3731 11.6667 5 11.2936 5 10.8333Z" fill="black"/>
</svg>
