<svg width="20" height="20" viewBox="0 0 20 20" fill="none" xmlns="http://www.w3.org/2000/svg">
<path fill-rule="evenodd" clip-rule="evenodd" d="M6.9913 3.43097C6.86828 3.36546 6.73079 3.33184 6.59142 3.33321C6.5887 3.33324 6.58598 3.33325 6.58325 3.33325H3.33325C3.11224 3.33325 2.90028 3.42105 2.744 3.57733C2.58772 3.73361 2.49992 3.94557 2.49992 4.16658V7.49992C2.49992 7.96016 2.12682 8.33325 1.66659 8.33325C1.20635 8.33325 0.833252 7.96016 0.833252 7.49992V4.16658C0.833252 3.50354 1.09664 2.86766 1.56549 2.39882C2.03433 1.92998 2.67021 1.66658 3.33325 1.66658H6.57958C6.99615 1.66325 7.40697 1.76406 7.77471 1.9599C8.14222 2.15562 8.45501 2.44002 8.6847 2.78725L9.35729 3.78369C9.35906 3.78631 9.36082 3.78894 9.36256 3.79158C9.43843 3.9068 9.54173 4.00138 9.66318 4.06684C9.78459 4.13227 9.92034 4.16654 10.0583 4.16658C10.0583 4.16658 10.0583 4.16658 10.0584 4.16658H16.6666C17.3296 4.16658 17.9655 4.42998 18.4344 4.89882C18.9032 5.36766 19.1666 6.00354 19.1666 6.66658V14.9999C19.1666 15.663 18.9032 16.2988 18.4344 16.7677C17.9655 17.2365 17.3296 17.4999 16.6666 17.4999H3.33325C2.67021 17.4999 2.03433 17.2365 1.56549 16.7677C1.09664 16.2988 0.833252 15.663 0.833252 14.9999V14.1666C0.833252 13.7063 1.20635 13.3333 1.66659 13.3333C2.12682 13.3333 2.49992 13.7063 2.49992 14.1666V14.9999C2.49992 15.2209 2.58772 15.4329 2.744 15.5892C2.90028 15.7455 3.11224 15.8333 3.33325 15.8333H16.6666C16.8876 15.8333 17.0996 15.7455 17.2558 15.5892C17.4121 15.4329 17.4999 15.2209 17.4999 14.9999V6.66658C17.4999 6.44557 17.4121 6.23361 17.2558 6.07733C17.0996 5.92105 16.8876 5.83325 16.6666 5.83325H10.0583V4.99837L10.0581 5.83325C9.64423 5.83318 9.23684 5.73036 8.87249 5.53401C8.50968 5.33848 8.20087 5.0563 7.9735 4.71262L7.30088 3.71614C7.2991 3.71351 7.29734 3.71087 7.29559 3.70821C7.21894 3.5918 7.11432 3.49648 6.9913 3.43097Z" fill="black"/>
<path fill-rule="evenodd" clip-rule="evenodd" d="M0.833252 10.8333C0.833252 10.3731 1.20635 10 1.66659 10H9.99992C10.4602 10 10.8333 10.3731 10.8333 10.8333C10.8333 11.2936 10.4602 11.6667 9.99992 11.6667H1.66659C1.20635 11.6667 0.833252 11.2936 0.833252 10.8333Z" fill="black"/>
<path fill-rule="evenodd" clip-rule="evenodd" d="M6.91083 7.74408C7.23626 7.41864 7.7639 7.41864 8.08934 7.74408L10.5893 10.2441C10.9148 10.5695 10.9148 11.0972 10.5893 11.4226L8.08934 13.9226C7.7639 14.248 7.23626 14.248 6.91083 13.9226C6.58539 13.5972 6.58539 13.0695 6.91083 12.7441L8.82157 10.8333L6.91083 8.92259C6.58539 8.59715 6.58539 8.06951 6.91083 7.74408Z" fill="black"/>
</svg>
