<svg width="20" height="20" viewBox="0 0 20 20" fill="none" xmlns="http://www.w3.org/2000/svg">
<path fill-rule="evenodd" clip-rule="evenodd" d="M15.0001 13.3334C14.0796 13.3334 13.3334 14.0796 13.3334 15.0001C13.3334 15.9206 14.0796 16.6667 15.0001 16.6667C15.9206 16.6667 16.6667 15.9206 16.6667 15.0001C16.6667 14.0796 15.9206 13.3334 15.0001 13.3334ZM11.6667 15.0001C11.6667 13.1591 13.1591 11.6667 15.0001 11.6667C16.841 11.6667 18.3334 13.1591 18.3334 15.0001C18.3334 16.841 16.841 18.3334 15.0001 18.3334C13.1591 18.3334 11.6667 16.841 11.6667 15.0001Z" fill="black"/>
<path fill-rule="evenodd" clip-rule="evenodd" d="M6.9913 3.43097C6.86828 3.36546 6.73079 3.33184 6.59142 3.33321C6.5887 3.33324 6.58598 3.33325 6.58325 3.33325H3.33325C3.11224 3.33325 2.90028 3.42105 2.744 3.57733C2.58772 3.73361 2.49992 3.94557 2.49992 4.16658V14.9999C2.49992 15.2209 2.58772 15.4329 2.744 15.5892C2.90028 15.7455 3.11224 15.8333 3.33325 15.8333H8.58325C9.04349 15.8333 9.41659 16.2063 9.41659 16.6666C9.41659 17.1268 9.04349 17.4999 8.58325 17.4999H3.33325C2.67021 17.4999 2.03433 17.2365 1.56549 16.7677C1.09664 16.2988 0.833252 15.663 0.833252 14.9999V4.16658C0.833252 3.50354 1.09664 2.86766 1.56549 2.39882C2.03433 1.92998 2.67021 1.66658 3.33325 1.66658H6.57958C6.99615 1.66325 7.40697 1.76406 7.77471 1.9599C8.14222 2.15562 8.45501 2.44002 8.6847 2.78725L9.35729 3.78369C9.35906 3.78631 9.36082 3.78894 9.36256 3.79158C9.43843 3.9068 9.54173 4.00138 9.66318 4.06684C9.78459 4.13227 9.92034 4.16654 10.0583 4.16658C10.0583 4.16658 10.0583 4.16658 10.0584 4.16658H16.6666C17.3296 4.16658 17.9655 4.42998 18.4344 4.89882C18.9032 5.36766 19.1666 6.00354 19.1666 6.66658V9.41658C19.1666 9.87682 18.7935 10.2499 18.3333 10.2499C17.873 10.2499 17.4999 9.87682 17.4999 9.41658V6.66658C17.4999 6.44557 17.4121 6.23361 17.2558 6.07733C17.0996 5.92105 16.8876 5.83325 16.6666 5.83325H10.0583V4.99837L10.0581 5.83325C9.64423 5.83318 9.23684 5.73036 8.87249 5.53401C8.50968 5.33848 8.20087 5.0563 7.9735 4.71262L7.30088 3.71614C7.2991 3.71351 7.29734 3.71087 7.29559 3.70821C7.21894 3.5918 7.11432 3.49648 6.9913 3.43097Z" fill="black"/>
<path fill-rule="evenodd" clip-rule="evenodd" d="M16.5427 15.653C16.6883 15.2164 17.1602 14.9805 17.5968 15.126L18.3468 15.376C18.7835 15.5215 19.0194 15.9935 18.8739 16.4301C18.7283 16.8667 18.2564 17.1027 17.8198 16.9571L17.0698 16.7071C16.6332 16.5616 16.3972 16.0897 16.5427 15.653Z" fill="black"/>
<path fill-rule="evenodd" clip-rule="evenodd" d="M11.1262 13.5698C11.2718 13.1332 11.7437 12.8972 12.1803 13.0427L12.9303 13.2927C13.367 13.4383 13.6029 13.9102 13.4574 14.3468C13.3118 14.7835 12.8399 15.0194 12.4033 14.8739L11.6533 14.6239C11.2167 14.4783 10.9807 14.0064 11.1262 13.5698Z" fill="black"/>
<path fill-rule="evenodd" clip-rule="evenodd" d="M14.3468 16.5427C14.7835 16.6883 15.0194 17.1602 14.8739 17.5968L14.6239 18.3468C14.4783 18.7835 14.0064 19.0194 13.5698 18.8739C13.1332 18.7283 12.8972 18.2564 13.0427 17.8198L13.2927 17.0698C13.4383 16.6332 13.9102 16.3972 14.3468 16.5427Z" fill="black"/>
<path fill-rule="evenodd" clip-rule="evenodd" d="M16.4303 11.126C16.867 11.2715 17.1029 11.7435 16.9574 12.1801L16.7074 12.9301C16.5618 13.3667 16.0899 13.6027 15.6533 13.4571C15.2167 13.3116 14.9807 12.8397 15.1262 12.403L15.3762 11.653C15.5218 11.2164 15.9937 10.9805 16.4303 11.126Z" fill="black"/>
<path fill-rule="evenodd" clip-rule="evenodd" d="M15.6906 16.4763C16.1179 16.3054 16.6029 16.5132 16.7738 16.9406L17.1071 17.7739C17.2781 18.2012 17.0702 18.6862 16.6429 18.8571C16.2156 19.0281 15.7306 18.8202 15.5597 18.3929L15.2263 17.5596C15.0554 17.1322 15.2632 16.6473 15.6906 16.4763Z" fill="black"/>
<path fill-rule="evenodd" clip-rule="evenodd" d="M13.3573 11.1428C13.7846 10.9719 14.2696 11.1798 14.4405 11.6071L14.7739 12.4404C14.9448 12.8677 14.737 13.3527 14.3096 13.5236C13.8823 13.6946 13.3973 13.4867 13.2264 13.0594L12.8931 12.2261C12.7221 11.7987 12.93 11.3138 13.3573 11.1428Z" fill="black"/>
<path fill-rule="evenodd" clip-rule="evenodd" d="M13.5239 15.6906C13.6948 16.1179 13.487 16.6029 13.0596 16.7738L12.2263 17.1071C11.799 17.2781 11.314 17.0702 11.1431 16.6429C10.9721 16.2156 11.18 15.7306 11.6073 15.5597L12.4406 15.2263C12.868 15.0554 13.3529 15.2632 13.5239 15.6906Z" fill="black"/>
<path fill-rule="evenodd" clip-rule="evenodd" d="M18.8571 13.3571C19.0281 13.7844 18.8202 14.2694 18.3929 14.4403L17.5596 14.7736C17.1322 14.9446 16.6473 14.7367 16.4763 14.3094C16.3054 13.8821 16.5132 13.3971 16.9406 13.2262L17.7739 12.8928C18.2012 12.7219 18.6862 12.9298 18.8571 13.3571Z" fill="black"/>
</svg>
