<svg width="20" height="20" viewBox="0 0 20 20" fill="none" xmlns="http://www.w3.org/2000/svg">
<path fill-rule="evenodd" clip-rule="evenodd" d="M6.9913 3.43097C6.86828 3.36546 6.73079 3.33184 6.59142 3.33321C6.5887 3.33324 6.58598 3.33325 6.58325 3.33325H3.33325C3.11224 3.33325 2.90028 3.42105 2.744 3.57733C2.58772 3.73361 2.49992 3.94557 2.49992 4.16658V14.9999C2.49992 15.2209 2.58772 15.4329 2.744 15.5892C2.90028 15.7455 3.11224 15.8333 3.33325 15.8333H9.16659C9.62682 15.8333 9.99992 16.2063 9.99992 16.6666C9.99992 17.1268 9.62682 17.4999 9.16659 17.4999H3.33325C2.67021 17.4999 2.03433 17.2365 1.56549 16.7677C1.09664 16.2988 0.833252 15.663 0.833252 14.9999V4.16658C0.833252 3.50354 1.09664 2.86766 1.56549 2.39882C2.03433 1.92998 2.67021 1.66658 3.33325 1.66658H6.57958C6.99615 1.66325 7.40697 1.76406 7.77471 1.9599C8.14222 2.15562 8.45501 2.44002 8.6847 2.78725L9.35729 3.78369C9.35906 3.78631 9.36082 3.78894 9.36256 3.79158C9.43843 3.9068 9.54173 4.00138 9.66318 4.06684C9.78459 4.13227 9.92034 4.16654 10.0583 4.16658C10.0583 4.16658 10.0583 4.16658 10.0584 4.16658H16.6666C17.3296 4.16658 17.9655 4.42998 18.4344 4.89882C18.9032 5.36766 19.1666 6.00354 19.1666 6.66658V7.91658C19.1666 8.37682 18.7935 8.74992 18.3333 8.74992C17.873 8.74992 17.4999 8.37682 17.4999 7.91658V6.66658C17.4999 6.44557 17.4121 6.23361 17.2558 6.07733C17.0996 5.92105 16.8876 5.83325 16.6666 5.83325H10.0583V4.99837L10.0581 5.83325C9.64423 5.83318 9.23684 5.73036 8.87249 5.53401C8.50968 5.33848 8.20087 5.0563 7.9735 4.71262L7.30088 3.71614C7.2991 3.71351 7.29734 3.71087 7.29559 3.70821C7.21894 3.5918 7.11432 3.49648 6.9913 3.43097Z" fill="black"/>
<path fill-rule="evenodd" clip-rule="evenodd" d="M16.7631 11.754C16.6178 11.694 16.462 11.6633 16.3047 11.6637C16.1474 11.6642 15.9918 11.6958 15.8467 11.7567C15.7017 11.8176 15.5702 11.9066 15.4598 12.0185C15.4584 12.0199 15.4571 12.0212 15.4557 12.0226L15.1724 12.3059C14.8535 12.6248 14.3388 12.6321 14.011 12.3225L13.711 12.0392C13.705 12.0335 13.6991 12.0278 13.6933 12.022C13.5826 11.9111 13.4511 11.8231 13.3064 11.763C13.1617 11.703 13.0065 11.6721 12.8498 11.6721C12.6931 11.6721 12.538 11.703 12.3932 11.763C12.2485 11.8231 12.117 11.9111 12.0063 12.022C12.0051 12.0232 12.0038 12.0245 12.0026 12.0257C11.58 12.4438 11.4666 13.2449 12.1705 13.9505L14.5823 16.3288L16.9858 13.9522C17.6936 13.2362 17.5858 12.4478 17.1522 12.0142L17.1516 12.0136C17.0405 11.9023 16.9085 11.8141 16.7631 11.754ZM16.2998 9.99708C16.6771 9.99599 17.0508 10.0696 17.3995 10.2136C17.748 10.3576 18.0646 10.5691 18.331 10.836C19.4799 11.9852 19.4556 13.8286 18.1665 15.1285C18.1646 15.1304 18.1627 15.1323 18.1608 15.1342L15.1691 18.0925C14.8448 18.4133 14.3228 18.4136 13.998 18.0933L10.998 15.135C10.9967 15.1337 10.9953 15.1323 10.9939 15.1309C9.70064 13.8376 9.68673 11.9745 10.8285 10.8428C11.0936 10.5776 11.4083 10.3672 11.7547 10.2236C12.1018 10.0796 12.474 10.0054 12.8498 10.0054C13.2257 10.0054 13.5978 10.0796 13.945 10.2236C14.1694 10.3167 14.3805 10.4378 14.5735 10.5836C14.7661 10.4365 14.977 10.3142 15.2015 10.22C15.5493 10.0739 15.9226 9.99818 16.2998 9.99708Z" fill="black"/>
</svg>
