<svg width="20" height="20" viewBox="0 0 20 20" fill="none" xmlns="http://www.w3.org/2000/svg">
<path fill-rule="evenodd" clip-rule="evenodd" d="M3.33325 3.33341C3.11224 3.33341 2.90028 3.42121 2.744 3.57749C2.58772 3.73377 2.49992 3.94573 2.49992 4.16675V9.58341C2.49992 10.0437 2.12682 10.4167 1.66659 10.4167C1.20635 10.4167 0.833252 10.0437 0.833252 9.58341V4.16675C0.833252 3.50371 1.09664 2.86782 1.56549 2.39898C2.03433 1.93014 2.67021 1.66675 3.33325 1.66675H6.58325C7.43184 1.66675 8.19813 2.04509 8.69329 2.78783L9.35996 3.78783C9.53146 4.04509 9.76517 4.16675 10.0833 4.16675H16.6666C17.3296 4.16675 17.9655 4.43014 18.4344 4.89898C18.9032 5.36782 19.1666 6.00371 19.1666 6.66675V15.0001C19.1666 15.6631 18.9032 16.299 18.4344 16.7678C17.9655 17.2367 17.3296 17.5001 16.6666 17.5001H8.74992C8.28968 17.5001 7.91659 17.127 7.91659 16.6667C7.91659 16.2065 8.28968 15.8334 8.74992 15.8334H16.6666C16.8876 15.8334 17.0996 15.7456 17.2558 15.5893C17.4121 15.4331 17.4999 15.2211 17.4999 15.0001V6.66675C17.4999 6.44573 17.4121 6.23377 17.2558 6.07749C17.0996 5.92121 16.8876 5.83341 16.6666 5.83341H10.0833C9.23467 5.83341 8.46837 5.45508 7.97321 4.71233L7.30654 3.71233C7.13504 3.45508 6.90133 3.33341 6.58325 3.33341H3.33325Z" fill="black"/>
<path fill-rule="evenodd" clip-rule="evenodd" d="M7.23376 7.69793C7.54963 7.5671 7.88817 7.49976 8.23006 7.49976C8.57195 7.49976 8.9105 7.5671 9.22636 7.69793C9.54223 7.82877 9.82923 8.02054 10.071 8.26229C10.3127 8.50404 10.5045 8.79105 10.6353 9.10691C10.7662 9.42278 10.8335 9.76132 10.8335 10.1032C10.8335 10.4451 10.7662 10.7836 10.6353 11.0995C10.5045 11.4154 10.3127 11.7024 10.071 11.9441L5.89365 16.1181C5.89363 16.1182 5.89361 16.1182 5.8936 16.1182C5.59658 16.4154 5.22946 16.6329 4.82615 16.7506L2.43423 17.4482C2.43422 17.4482 2.43421 17.4482 2.43421 17.4482C2.21909 17.511 1.99107 17.5147 1.774 17.4591C1.55693 17.4035 1.35879 17.2905 1.20035 17.1321C1.0419 16.9736 0.928951 16.7755 0.873336 16.5584C0.817725 16.3414 0.821485 16.1133 0.884222 15.8982C0.884224 15.8982 0.884227 15.8982 0.884229 15.8982L1.5818 13.5063C1.69954 13.1031 1.91697 12.7361 2.21402 12.4391C2.21412 12.439 2.21421 12.4389 2.2143 12.4388L6.38902 8.26241L6.97775 8.8509L6.38914 8.26229C6.63089 8.02054 6.9179 7.82877 7.23376 7.69793ZM7.56777 9.44068C7.56773 9.44072 7.56769 9.44076 7.56765 9.4408L3.39249 13.6176C3.29349 13.7166 3.22101 13.8389 3.18174 13.9732C3.18173 13.9732 3.18172 13.9732 3.18172 13.9732C3.1817 13.9733 3.18168 13.9734 3.18166 13.9735L2.69694 15.6355L4.35898 15.1508C4.35907 15.1508 4.35916 15.1507 4.35925 15.1507C4.49359 15.1114 4.61587 15.039 4.71481 14.94L8.89247 10.7656C8.97946 10.6786 9.04847 10.5754 9.09554 10.4617C9.14262 10.3481 9.16685 10.2262 9.16685 10.1032C9.16685 9.98019 9.14262 9.85838 9.09554 9.74472C9.04847 9.63106 8.97946 9.52779 8.89247 9.4408C8.80548 9.35381 8.70221 9.28481 8.58856 9.23773C8.4749 9.19065 8.35308 9.16642 8.23006 9.16642C8.10704 9.16642 7.98522 9.19065 7.87157 9.23773C7.75796 9.28479 7.65473 9.35375 7.56777 9.44068ZM1.9679 15.8481C1.96779 15.8481 1.96769 15.8482 1.96758 15.8482C1.96758 15.8482 1.96757 15.8482 1.96756 15.8482M1.9679 15.8481L1.96758 15.8482L1.9679 15.8481Z" fill="black"/>
</svg>
