<svg width="20" height="20" viewBox="0 0 20 20" fill="none" xmlns="http://www.w3.org/2000/svg">
<path fill-rule="evenodd" clip-rule="evenodd" d="M6.9913 3.43097C6.86828 3.36546 6.73079 3.33184 6.59142 3.33321C6.5887 3.33324 6.58598 3.33325 6.58325 3.33325H3.33325C3.11224 3.33325 2.90028 3.42105 2.744 3.57733C2.58772 3.73361 2.49992 3.94557 2.49992 4.16658V14.9999C2.49992 15.2209 2.58772 15.4329 2.744 15.5892C2.90028 15.7455 3.11224 15.8333 3.33325 15.8333H7.49992C7.96016 15.8333 8.33325 16.2063 8.33325 16.6666C8.33325 17.1268 7.96016 17.4999 7.49992 17.4999H3.33325C2.67021 17.4999 2.03433 17.2365 1.56549 16.7677C1.09664 16.2988 0.833252 15.663 0.833252 14.9999V4.16658C0.833252 3.50354 1.09664 2.86766 1.56549 2.39882C2.03433 1.92998 2.67021 1.66658 3.33325 1.66658H6.57958C6.99615 1.66325 7.40697 1.76406 7.77471 1.9599C8.14222 2.15562 8.45501 2.44002 8.6847 2.78725L9.35729 3.78369C9.35906 3.78631 9.36082 3.78894 9.36256 3.79158C9.43843 3.9068 9.54173 4.00138 9.66318 4.06684C9.78459 4.13227 9.92034 4.16654 10.0583 4.16658C10.0583 4.16658 10.0583 4.16658 10.0584 4.16658H16.6666C17.3296 4.16658 17.9655 4.42998 18.4344 4.89882C18.9032 5.36766 19.1666 6.00354 19.1666 6.66658V10.8333C19.1666 11.2935 18.7935 11.6666 18.3333 11.6666C17.873 11.6666 17.4999 11.2935 17.4999 10.8333V6.66658C17.4999 6.44557 17.4121 6.23361 17.2558 6.07733C17.0996 5.92105 16.8876 5.83325 16.6666 5.83325H10.0583V4.99837L10.0581 5.83325C9.64423 5.83318 9.23684 5.73036 8.87249 5.53401C8.50968 5.33848 8.20087 5.0563 7.9735 4.71262L7.30088 3.71614C7.2991 3.71351 7.29734 3.71087 7.29559 3.70821C7.21894 3.5918 7.11432 3.49648 6.9913 3.43097Z" fill="black"/>
<path fill-rule="evenodd" clip-rule="evenodd" d="M10.8333 9.16667C10.373 9.16667 9.99992 9.53976 9.99992 10C9.99992 10.4602 10.373 10.8333 10.8333 10.8333C11.2935 10.8333 11.6666 10.4602 11.6666 10C11.6666 9.53976 11.2935 9.16667 10.8333 9.16667ZM8.33325 10C8.33325 8.61929 9.45254 7.5 10.8333 7.5C12.214 7.5 13.3333 8.61929 13.3333 10C13.3333 11.3807 12.214 12.5 10.8333 12.5C9.45254 12.5 8.33325 11.3807 8.33325 10Z" fill="black"/>
<path fill-rule="evenodd" clip-rule="evenodd" d="M10.8333 10.8333C11.2936 10.8333 11.6667 11.2063 11.6667 11.6666C11.6667 13.5397 13.1269 14.9999 15 14.9999C15.4602 14.9999 15.8333 15.373 15.8333 15.8333C15.8333 16.2935 15.4602 16.6666 15 16.6666C13.7108 16.6666 12.5466 16.1967 11.6667 15.416V18.3333C11.6667 18.7935 11.2936 19.1666 10.8333 19.1666C10.3731 19.1666 10 18.7935 10 18.3333V11.6666C10 11.2063 10.3731 10.8333 10.8333 10.8333Z" fill="black"/>
<path fill-rule="evenodd" clip-rule="evenodd" d="M16.6667 14.9999C16.2065 14.9999 15.8334 15.373 15.8334 15.8333C15.8334 16.2935 16.2065 16.6666 16.6667 16.6666C17.127 16.6666 17.5001 16.2935 17.5001 15.8333C17.5001 15.373 17.127 14.9999 16.6667 14.9999ZM14.1667 15.8333C14.1667 14.4525 15.286 13.3333 16.6667 13.3333C18.0475 13.3333 19.1667 14.4525 19.1667 15.8333C19.1667 17.214 18.0475 18.3333 16.6667 18.3333C15.286 18.3333 14.1667 17.214 14.1667 15.8333Z" fill="black"/>
</svg>
