<svg width="20" height="20" viewBox="0 0 20 20" fill="none" xmlns="http://www.w3.org/2000/svg">
<path fill-rule="evenodd" clip-rule="evenodd" d="M1.56549 2.39898C2.03433 1.93014 2.67021 1.66675 3.33325 1.66675H6.60825C6.60914 1.66675 6.61002 1.66675 6.61091 1.66675L6.61256 1.66676C7.02433 1.66889 7.4292 1.7727 7.79119 1.96896C8.15088 2.16397 8.45717 2.44426 8.68322 2.78519L9.36296 3.77992C9.36564 3.78385 9.36828 3.78779 9.3709 3.79176C9.44639 3.90639 9.54902 4.00061 9.66969 4.06603C9.78983 4.13116 9.92413 4.16575 10.0608 4.16675H16.6666C17.3296 4.16675 17.9655 4.43014 18.4344 4.89898C18.9032 5.36782 19.1666 6.00371 19.1666 6.66675V15.0001C19.1666 15.6631 18.9032 16.299 18.4344 16.7678C17.9655 17.2367 17.3296 17.5001 16.6666 17.5001H3.33325C1.95635 17.5001 0.833252 16.377 0.833252 15.0001V4.16675C0.833252 3.50371 1.09664 2.86782 1.56549 2.39898ZM3.33325 3.33341C3.11224 3.33341 2.90028 3.42121 2.744 3.57749C2.58772 3.73377 2.49992 3.94573 2.49992 4.16675V15.0001C2.49992 15.4565 2.87682 15.8334 3.33325 15.8334H16.6666C16.8876 15.8334 17.0996 15.7456 17.2558 15.5893C17.4121 15.4331 17.4999 15.2211 17.4999 15.0001V6.66675C17.4999 6.44573 17.4121 6.23377 17.2558 6.07749C17.0996 5.92121 16.8876 5.83341 16.6666 5.83341H10.0583C10.0568 5.83341 10.0554 5.83341 10.0539 5.8334C9.64217 5.83127 9.23731 5.72747 8.87531 5.5312C8.51563 5.33619 8.20934 5.05591 7.98328 4.71497L7.30355 3.72024C7.30087 3.71632 7.29822 3.71237 7.29561 3.7084C7.22012 3.59377 7.11748 3.49956 6.99682 3.43414C6.87668 3.369 6.74236 3.33441 6.60572 3.33341H3.33325Z" fill="black"/>
<path fill-rule="evenodd" clip-rule="evenodd" d="M8.33325 10.8334C8.33325 9.91294 9.07944 9.16675 9.99992 9.16675C10.9204 9.16675 11.6666 9.91294 11.6666 10.8334C11.6666 11.7539 10.9204 12.5001 9.99992 12.5001C9.07944 12.5001 8.33325 11.7539 8.33325 10.8334Z" fill="black"/>
</svg>
