<svg width="20" height="20" viewBox="0 0 20 20" fill="none" xmlns="http://www.w3.org/2000/svg">
<path fill-rule="evenodd" clip-rule="evenodd" d="M6.9913 3.43097C6.86828 3.36546 6.73079 3.33184 6.59142 3.33321C6.5887 3.33324 6.58598 3.33325 6.58325 3.33325H3.33325C3.11224 3.33325 2.90028 3.42105 2.744 3.57733C2.58772 3.73361 2.49992 3.94557 2.49992 4.16658V14.9999C2.49992 15.2209 2.58772 15.4329 2.744 15.5892C2.90028 15.7455 3.11224 15.8333 3.33325 15.8333H7.49992C7.96016 15.8333 8.33325 16.2063 8.33325 16.6666C8.33325 17.1268 7.96016 17.4999 7.49992 17.4999H3.33325C2.67021 17.4999 2.03433 17.2365 1.56549 16.7677C1.09664 16.2988 0.833252 15.663 0.833252 14.9999V4.16658C0.833252 3.50354 1.09664 2.86766 1.56549 2.39882C2.03433 1.92998 2.67021 1.66658 3.33325 1.66658H6.57958C6.99615 1.66325 7.40697 1.76406 7.77471 1.9599C8.14222 2.15562 8.45501 2.44002 8.6847 2.78725L9.35729 3.78369C9.35906 3.78631 9.36082 3.78894 9.36256 3.79158C9.43843 3.9068 9.54173 4.00138 9.66318 4.06684C9.78459 4.13227 9.92034 4.16654 10.0583 4.16658C10.0583 4.16658 10.0583 4.16658 10.0584 4.16658H16.6666C17.3296 4.16658 17.9655 4.42998 18.4344 4.89882C18.9032 5.36766 19.1666 6.00354 19.1666 6.66658V7.08325C19.1666 7.54349 18.7935 7.91658 18.3333 7.91658C17.873 7.91658 17.4999 7.54349 17.4999 7.08325V6.66658C17.4999 6.44557 17.4121 6.23361 17.2558 6.07733C17.0996 5.92105 16.8876 5.83325 16.6666 5.83325H10.0583V4.99837L10.0581 5.83325C9.64423 5.83318 9.23684 5.73036 8.87249 5.53401C8.50968 5.33848 8.20087 5.0563 7.9735 4.71262L7.30088 3.71614C7.2991 3.71351 7.29734 3.71087 7.29559 3.70821C7.21894 3.5918 7.11432 3.49648 6.9913 3.43097Z" fill="black"/>
<path fill-rule="evenodd" clip-rule="evenodd" d="M10.0001 7.5C10.4603 7.5 10.8334 7.8731 10.8334 8.33333V10.8333H13.3334C13.7937 10.8333 14.1667 11.2064 14.1667 11.6667C14.1667 12.1269 13.7937 12.5 13.3334 12.5H10.0001C9.53984 12.5 9.16675 12.1269 9.16675 11.6667V8.33333C9.16675 7.8731 9.53984 7.5 10.0001 7.5Z" fill="black"/>
<path fill-rule="evenodd" clip-rule="evenodd" d="M14.7808 10.057C14.2591 9.95919 13.7216 9.98737 13.213 10.1392C12.7097 10.2895 12.2491 10.5565 11.8687 10.9185L10.6023 12.2426C10.2842 12.5752 9.75672 12.5869 9.42411 12.2688C9.0915 11.9507 9.07974 11.4232 9.39784 11.0906L10.677 9.75312C10.6851 9.74466 10.6934 9.73638 10.7018 9.72827C11.2758 9.17657 11.9733 8.76993 12.7362 8.54218C13.4991 8.31443 14.3054 8.27217 15.0879 8.41889C15.8705 8.56562 16.6067 8.89709 17.2352 9.38574C17.8638 9.8744 18.3666 10.5061 18.7018 11.2283C18.8956 11.6457 18.7142 12.1412 18.2967 12.335C17.8793 12.5287 17.3838 12.3474 17.19 11.9299C16.9666 11.4485 16.6314 11.0273 16.2123 10.7016C15.7933 10.3758 15.3025 10.1548 14.7808 10.057Z" fill="black"/>
<path fill-rule="evenodd" clip-rule="evenodd" d="M14.1667 15.0001C14.1667 14.5398 14.5398 14.1667 15.0001 14.1667H18.3334C18.7937 14.1667 19.1667 14.5398 19.1667 15.0001V18.3334C19.1667 18.7937 18.7937 19.1667 18.3334 19.1667C17.8732 19.1667 17.5001 18.7937 17.5001 18.3334V15.8334H15.0001C14.5398 15.8334 14.1667 15.4603 14.1667 15.0001Z" fill="black"/>
<path fill-rule="evenodd" clip-rule="evenodd" d="M18.9093 14.3978C19.2419 14.7159 19.2537 15.2434 18.9356 15.5761L17.6564 16.9136C17.6483 16.922 17.64 16.9303 17.6316 16.9384C17.0576 17.4901 16.3601 17.8968 15.5972 18.1245C14.8343 18.3522 14.028 18.3945 13.2455 18.2478C12.4629 18.1011 11.7267 17.7696 11.0982 17.2809C10.4696 16.7923 9.96679 16.1606 9.6316 15.4384C9.43784 15.0209 9.61919 14.5255 10.0367 14.3317C10.4541 14.1379 10.9496 14.3193 11.1434 14.7368C11.3668 15.2182 11.702 15.6393 12.1211 15.9651C12.5401 16.2909 13.0309 16.5119 13.5526 16.6097C14.0743 16.7075 14.6118 16.6793 15.1204 16.5275C15.6237 16.3772 16.0843 16.1102 16.4647 15.7482L17.7311 14.4241C18.0492 14.0915 18.5767 14.0797 18.9093 14.3978Z" fill="black"/>
</svg>
