<svg width="20" height="20" viewBox="0 0 20 20" fill="none" xmlns="http://www.w3.org/2000/svg">
<path fill-rule="evenodd" clip-rule="evenodd" d="M6.9913 3.43097C6.86828 3.36546 6.73079 3.33184 6.59142 3.33321C6.5887 3.33324 6.58598 3.33325 6.58325 3.33325H3.33325C3.11224 3.33325 2.90028 3.42105 2.744 3.57733C2.58772 3.73361 2.49992 3.94557 2.49992 4.16658V14.9999C2.49992 15.2209 2.58772 15.4329 2.744 15.5892C2.90028 15.7455 3.11224 15.8333 3.33325 15.8333H15.3749C15.3768 15.8333 15.3787 15.8333 15.3805 15.8333C15.5663 15.8345 15.7471 15.7737 15.8943 15.6605C16.0413 15.5474 16.1464 15.3885 16.1929 15.2089C16.1929 15.2087 16.193 15.2085 16.193 15.2083L17.4764 10.2083C17.5082 10.085 17.5114 9.95607 17.4856 9.8314C17.4599 9.70672 17.4059 9.5896 17.3279 9.48903C17.2498 9.38845 17.1498 9.3071 17.0354 9.2512C16.921 9.19531 16.7954 9.16636 16.668 9.16658L16.6666 9.16658H7.71122C7.56298 9.17144 7.41867 9.21578 7.29323 9.29509C7.16552 9.37582 7.06217 9.48975 6.99422 9.62469C6.99286 9.62739 6.99149 9.63009 6.9901 9.63277L5.7401 12.0494C5.52866 12.4582 5.02586 12.6182 4.61707 12.4068C4.20828 12.1953 4.04829 11.6925 4.25974 11.2837L5.50786 8.87071C5.71172 8.46782 6.02092 8.12764 6.40263 7.88633C6.78574 7.64413 7.22749 7.51064 7.68062 7.50014C7.68705 7.49999 7.69348 7.49992 7.69992 7.49992H15.8333V6.66658C15.8333 6.44557 15.7455 6.23361 15.5892 6.07733C15.4329 5.92105 15.2209 5.83325 14.9999 5.83325H10.0583V4.99837L10.0581 5.83325C9.64423 5.83318 9.23684 5.73036 8.87249 5.53401C8.50968 5.33848 8.20087 5.0563 7.9735 4.71262L7.30088 3.71614C7.2991 3.71351 7.29734 3.71087 7.29559 3.70821C7.21894 3.5918 7.11432 3.49648 6.9913 3.43097ZM10.0583 4.16658C10.0583 4.16658 10.0583 4.16658 10.0584 4.16658H14.9999C15.663 4.16658 16.2988 4.42998 16.7677 4.89882C17.2365 5.36766 17.4999 6.00354 17.4999 6.66658V7.64186C17.5909 7.67389 17.6801 7.71123 17.7672 7.75377C18.1103 7.92146 18.4105 8.16553 18.6446 8.46725C18.8787 8.76898 19.0406 9.12034 19.1179 9.49436C19.1951 9.86838 19.1856 10.2551 19.0901 10.6249L17.8071 15.6238L17.8068 15.6249C17.6675 16.1644 17.352 16.6418 16.9104 16.9815C16.4697 17.3206 15.9285 17.503 15.3725 17.4999H3.33325C2.67021 17.4999 2.03433 17.2365 1.56549 16.7677C1.09664 16.2988 0.833252 15.663 0.833252 14.9999V4.16658C0.833252 3.50354 1.09664 2.86766 1.56549 2.39882C2.03433 1.92998 2.67021 1.66658 3.33325 1.66658H6.57958C6.99615 1.66325 7.40697 1.76406 7.77471 1.9599C8.14222 2.15562 8.45501 2.44002 8.6847 2.78725L9.35729 3.78369C9.35906 3.78631 9.36082 3.78894 9.36256 3.79158C9.43843 3.9068 9.54173 4.00138 9.66318 4.06684C9.78459 4.13227 9.92034 4.16654 10.0583 4.16658Z" fill="black"/>
</svg>
