<svg width="20" height="20" viewBox="0 0 20 20" fill="none" xmlns="http://www.w3.org/2000/svg">
<path fill-rule="evenodd" clip-rule="evenodd" d="M13.3333 9.16667C11.0321 9.16667 9.16667 11.0321 9.16667 13.3333C9.16667 15.6345 11.0321 17.5 13.3333 17.5C15.6345 17.5 17.5 15.6345 17.5 13.3333C17.5 11.0321 15.6345 9.16667 13.3333 9.16667ZM7.5 13.3333C7.5 10.1117 10.1117 7.5 13.3333 7.5C16.555 7.5 19.1667 10.1117 19.1667 13.3333C19.1667 16.555 16.555 19.1667 13.3333 19.1667C10.1117 19.1667 7.5 16.555 7.5 13.3333Z" fill="black"/>
<path fill-rule="evenodd" clip-rule="evenodd" d="M6.9913 3.43097C6.86828 3.36546 6.73079 3.33184 6.59142 3.33321C6.5887 3.33324 6.58598 3.33325 6.58325 3.33325H3.33325C3.11224 3.33325 2.90028 3.42105 2.744 3.57733C2.58772 3.73361 2.49992 3.94557 2.49992 4.16658V14.9999C2.49992 15.2209 2.58772 15.4329 2.744 15.5892C2.90028 15.7455 3.11224 15.8333 3.33325 15.8333H5.83325C6.29349 15.8333 6.66659 16.2063 6.66659 16.6666C6.66659 17.1268 6.29349 17.4999 5.83325 17.4999H3.33325C2.67021 17.4999 2.03433 17.2365 1.56549 16.7677C1.09664 16.2988 0.833252 15.663 0.833252 14.9999V4.16658C0.833252 3.50354 1.09664 2.86766 1.56549 2.39882C2.03433 1.92998 2.67021 1.66658 3.33325 1.66658H6.57958C6.99615 1.66325 7.40697 1.76406 7.77471 1.9599C8.14222 2.15562 8.45501 2.44002 8.6847 2.78725L9.35729 3.78369C9.35906 3.78631 9.36082 3.78894 9.36256 3.79158C9.43843 3.9068 9.54173 4.00138 9.66318 4.06684C9.78459 4.13227 9.92034 4.16654 10.0583 4.16658C10.0583 4.16658 10.0583 4.16658 10.0584 4.16658H16.6666C17.3296 4.16658 17.9655 4.42998 18.4344 4.89882C18.9032 5.36766 19.1666 6.00354 19.1666 6.66658C19.1666 7.12682 18.7935 7.49992 18.3333 7.49992C17.873 7.49992 17.4999 7.12682 17.4999 6.66658C17.4999 6.44557 17.4121 6.23361 17.2558 6.07733C17.0996 5.92105 16.8876 5.83325 16.6666 5.83325H10.0583V4.99837L10.0581 5.83325C9.64423 5.83318 9.23684 5.73036 8.87249 5.53401C8.50968 5.33848 8.20087 5.0563 7.9735 4.71262L7.30088 3.71614C7.2991 3.71351 7.29734 3.71087 7.29559 3.70821C7.21894 3.5918 7.11432 3.49648 6.9913 3.43097Z" fill="black"/>
<path fill-rule="evenodd" clip-rule="evenodd" d="M13.3333 10.8333C13.7936 10.8333 14.1667 11.2063 14.1667 11.6666V12.9881L14.7559 13.5773C15.0814 13.9028 15.0814 14.4304 14.7559 14.7558C14.4305 15.0813 13.9028 15.0813 13.5774 14.7558L12.7441 13.9225C12.5878 13.7662 12.5 13.5543 12.5 13.3333V11.6666C12.5 11.2063 12.8731 10.8333 13.3333 10.8333Z" fill="black"/>
</svg>
