<svg width="20" height="20" viewBox="0 0 20 20" fill="none" xmlns="http://www.w3.org/2000/svg">
<path fill-rule="evenodd" clip-rule="evenodd" d="M3.33325 3.33341C2.87682 3.33341 2.49992 3.71032 2.49992 4.16675V15.0001C2.49992 15.2211 2.58772 15.4331 2.744 15.5893C2.90028 15.7456 3.11224 15.8334 3.33325 15.8334L15.3764 15.8334C15.5614 15.8337 15.7412 15.7725 15.8876 15.6593C16.0339 15.5462 16.1385 15.3875 16.1847 15.2084L17.4764 10.2084C17.4764 10.2084 17.4764 10.2083 17.4764 10.2083C17.5082 10.0851 17.5114 9.9562 17.4856 9.83156C17.4599 9.70689 17.4059 9.58977 17.3279 9.48919C17.2498 9.38862 17.1498 9.30726 17.0354 9.25137C16.921 9.19547 16.7954 9.16652 16.668 9.16675L16.6666 9.16675L7.69828 9.16675C7.54368 9.16644 7.39205 9.20915 7.26033 9.29009C7.12892 9.37084 7.02251 9.48648 6.95293 9.62411C6.95277 9.62443 6.95261 9.62476 6.95244 9.62508L5.74528 12.0394C5.53945 12.4511 5.03889 12.6179 4.62724 12.4121C4.21559 12.2063 4.04874 11.7057 4.25456 11.2941L5.4629 8.8774C5.46328 8.87663 5.46367 8.87586 5.46406 8.87508C5.67277 8.4609 5.99257 8.11294 6.38772 7.87012C6.78262 7.62744 7.23721 7.49933 7.70071 7.50008H15.8333V6.66675C15.8333 6.44573 15.7455 6.23377 15.5892 6.07749C15.4329 5.92121 15.2209 5.83342 14.9999 5.83342H10.0583C10.0568 5.83342 10.0554 5.83341 10.0539 5.8334C9.64217 5.83127 9.23731 5.72747 8.87531 5.5312C8.51563 5.33619 8.20934 5.05591 7.98328 4.71497L7.30355 3.72024C7.30087 3.71632 7.29822 3.71237 7.29561 3.7084C7.22012 3.59377 7.11748 3.49956 6.99682 3.43414C6.87668 3.369 6.74236 3.33441 6.60572 3.33341H3.33325ZM17.4999 7.64202C17.5909 7.67405 17.6801 7.71139 17.7672 7.75394C18.1103 7.92162 18.4105 8.16569 18.6446 8.46742C18.8787 8.76914 19.0406 9.1205 19.1179 9.49452C19.1951 9.86855 19.1856 10.2553 19.0901 10.6251L19.0901 10.6252L17.7985 15.6251C17.7984 15.6251 17.7984 15.6251 17.7984 15.6252C17.6597 16.1625 17.3461 16.6384 16.907 16.9778C16.4681 17.3172 15.9289 17.5009 15.3741 17.5001C15.3739 17.5001 15.3737 17.5001 15.3735 17.5001L3.33325 17.5001C2.67021 17.5001 2.03433 17.2367 1.56549 16.7678C1.09664 16.299 0.833252 15.6631 0.833252 15.0001V4.16675C0.833252 2.78984 1.95635 1.66675 3.33325 1.66675H6.60825C6.60914 1.66675 6.61002 1.66675 6.61091 1.66675L6.61256 1.66676C7.02433 1.66889 7.4292 1.7727 7.79119 1.96896C8.15088 2.16397 8.45717 2.44426 8.68322 2.78519L9.36296 3.77992C9.36564 3.78385 9.36828 3.78779 9.3709 3.79176C9.44639 3.90639 9.54902 4.00061 9.66969 4.06603C9.78983 4.13116 9.92413 4.16575 10.0608 4.16675H14.9999C15.663 4.16675 16.2988 4.43014 16.7677 4.89898C17.2365 5.36782 17.4999 6.00371 17.4999 6.66675V7.64202Z" fill="black"/>
<path fill-rule="evenodd" clip-rule="evenodd" d="M10 12.4999C10 11.5794 10.7462 10.8333 11.6667 10.8333C12.5871 10.8333 13.3333 11.5794 13.3333 12.4999C13.3333 13.4204 12.5871 14.1666 11.6667 14.1666C10.7462 14.1666 10 13.4204 10 12.4999Z" fill="black"/>
</svg>
