<svg width="20" height="20" viewBox="0 0 20 20" fill="none" xmlns="http://www.w3.org/2000/svg">
<path fill-rule="evenodd" clip-rule="evenodd" d="M6.9915 3.43097C6.86848 3.36546 6.73099 3.33184 6.59162 3.33321C6.5889 3.33324 6.58618 3.33325 6.58345 3.33325H3.33345C3.11244 3.33325 2.90048 3.42105 2.7442 3.57733C2.58792 3.73361 2.50012 3.94557 2.50012 4.16658V6.24992C2.50012 6.71016 2.12702 7.08325 1.66679 7.08325C1.20655 7.08325 0.833453 6.71016 0.833453 6.24992V4.16658C0.833453 3.50354 1.09685 2.86766 1.56569 2.39882C2.03453 1.92998 2.67041 1.66658 3.33345 1.66658H6.57978C6.99635 1.66325 7.40717 1.76406 7.77491 1.9599C8.14242 2.15562 8.45521 2.44002 8.6849 2.78725L9.35749 3.78369C9.35926 3.78631 9.36102 3.78894 9.36276 3.79158C9.43863 3.9068 9.54193 4.00138 9.66338 4.06684C9.78479 4.13227 9.92054 4.16654 10.0585 4.16658C10.0585 4.16658 10.0585 4.16658 10.0586 4.16658H16.6668C17.3298 4.16658 17.9657 4.42998 18.4346 4.89882C18.9034 5.36766 19.1668 6.00354 19.1668 6.66658V14.9999C19.1668 15.663 18.9034 16.2988 18.4346 16.7677C17.9657 17.2365 17.3298 17.4999 16.6668 17.4999H3.34529C2.78259 17.5145 2.23128 17.3387 1.78074 17.0008C1.32633 16.6599 1.00153 16.1746 0.859808 15.6245C0.744979 15.1788 1.01319 14.7244 1.45887 14.6096C1.90455 14.4948 2.35894 14.763 2.47377 15.2087C2.52101 15.392 2.62927 15.5538 2.78074 15.6674C2.93222 15.781 3.11786 15.8397 3.3071 15.8337C3.31588 15.8334 3.32467 15.8333 3.33345 15.8333H16.6668C16.8878 15.8333 17.0998 15.7455 17.256 15.5892C17.4123 15.4329 17.5001 15.2209 17.5001 14.9999V6.66658C17.5001 6.44557 17.4123 6.23361 17.256 6.07733C17.0998 5.92105 16.8878 5.83325 16.6668 5.83325H10.0585V4.99837L10.0583 5.83325C9.64443 5.83318 9.23704 5.73036 8.87269 5.53401C8.50988 5.33848 8.20107 5.0563 7.9737 4.71262L7.30108 3.71614C7.2993 3.71351 7.29754 3.71087 7.29579 3.70821C7.21914 3.5918 7.11452 3.49648 6.9915 3.43097Z" fill="black"/>
<path fill-rule="evenodd" clip-rule="evenodd" d="M0.833252 10.8333C0.833252 10.3731 1.20635 10 1.66659 10H9.99992C10.4602 10 10.8333 10.3731 10.8333 10.8333C10.8333 11.2936 10.4602 11.6667 9.99992 11.6667H1.66659C1.20635 11.6667 0.833252 11.2936 0.833252 10.8333Z" fill="black"/>
<path fill-rule="evenodd" clip-rule="evenodd" d="M4.75584 7.74408C5.08128 8.06951 5.08128 8.59715 4.75584 8.92259L2.8451 10.8333L4.75584 12.7441C5.08128 13.0695 5.08128 13.5972 4.75584 13.9226C4.4304 14.248 3.90277 14.248 3.57733 13.9226L1.07733 11.4226C0.751893 11.0972 0.751893 10.5695 1.07733 10.2441L3.57733 7.74408C3.90277 7.41864 4.4304 7.41864 4.75584 7.74408Z" fill="black"/>
</svg>
