<svg width="20" height="20" viewBox="0 0 20 20" fill="none" xmlns="http://www.w3.org/2000/svg">
<path fill-rule="evenodd" clip-rule="evenodd" d="M4.89898 3.23223C5.36782 2.76339 6.00371 2.5 6.66675 2.5H9.94175V3.33488L9.94189 2.5C10.3558 2.50007 10.7632 2.60289 11.1275 2.79925C11.4903 2.99477 11.7991 3.27693 12.0265 3.62061L12.6991 4.61711C12.7009 4.61974 12.7027 4.62239 12.7044 4.62504C12.7811 4.74145 12.8857 4.83677 13.0087 4.90228C13.1317 4.96779 13.2692 5.00141 13.4086 5.00004C13.4113 5.00001 13.414 5 13.4167 5H16.6667C17.3298 5 17.9657 5.26339 18.4345 5.73223C18.9034 6.20107 19.1667 6.83696 19.1667 7.5V12.5C19.1667 13.163 18.9034 13.7989 18.4345 14.2678C17.9657 14.7366 17.3298 15 16.6667 15H6.66675C6.00371 15 5.36782 14.7366 4.89898 14.2678C4.43014 13.7989 4.16675 13.163 4.16675 12.5V5C4.16675 4.33696 4.43014 3.70107 4.89898 3.23223ZM9.94175 4.16667C9.9417 4.16667 9.94166 4.16667 9.94161 4.16667H6.66675C6.44573 4.16667 6.23377 4.25446 6.07749 4.41074C5.92121 4.56702 5.83341 4.77899 5.83341 5V12.5C5.83341 12.721 5.92121 12.933 6.07749 13.0893C6.23377 13.2455 6.44573 13.3333 6.66675 13.3333H16.6667C16.8878 13.3333 17.0997 13.2455 17.256 13.0893C17.4123 12.933 17.5001 12.721 17.5001 12.5V7.5C17.5001 7.27899 17.4123 7.06703 17.256 6.91074C17.0997 6.75446 16.8878 6.66667 16.6667 6.66667H13.4204C13.0039 6.67 12.593 6.56919 12.2253 6.37335C11.8578 6.17763 11.545 5.89324 11.3153 5.546L10.6427 4.54956C10.6409 4.54694 10.6392 4.54431 10.6374 4.54167C10.5616 4.42645 10.4583 4.33187 10.3368 4.26642C10.2154 4.20099 10.0797 4.16671 9.94175 4.16667Z" fill="black"/>
<path fill-rule="evenodd" clip-rule="evenodd" d="M1.66659 5.83325C2.12682 5.83325 2.49992 6.20635 2.49992 6.66659V15.8333C2.49992 16.0543 2.58772 16.2662 2.744 16.4225C2.90028 16.5788 3.11224 16.6666 3.33325 16.6666H14.9999C15.4602 16.6666 15.8333 17.0397 15.8333 17.4999C15.8333 17.9602 15.4602 18.3333 14.9999 18.3333H3.33325C2.67021 18.3333 2.03433 18.0699 1.56549 17.601C1.09664 17.1322 0.833252 16.4963 0.833252 15.8333V6.66659C0.833252 6.20635 1.20635 5.83325 1.66659 5.83325Z" fill="black"/>
</svg>
