<svg width="20" height="20" viewBox="0 0 20 20" fill="none" xmlns="http://www.w3.org/2000/svg">
<path fill-rule="evenodd" clip-rule="evenodd" d="M13.3333 15.8334C12.873 15.8334 12.4999 16.2065 12.4999 16.6667C12.4999 17.127 12.873 17.5001 13.3333 17.5001C13.7935 17.5001 14.1666 17.127 14.1666 16.6667C14.1666 16.2065 13.7935 15.8334 13.3333 15.8334ZM10.8333 16.6667C10.8333 15.286 11.9525 14.1667 13.3333 14.1667C14.714 14.1667 15.8333 15.286 15.8333 16.6667C15.8333 18.0475 14.714 19.1667 13.3333 19.1667C11.9525 19.1667 10.8333 18.0475 10.8333 16.6667Z" fill="black"/>
<path fill-rule="evenodd" clip-rule="evenodd" d="M6.9913 3.43097C6.86828 3.36546 6.73079 3.33184 6.59142 3.33321C6.5887 3.33324 6.58598 3.33325 6.58325 3.33325H3.33325C3.11224 3.33325 2.90028 3.42105 2.744 3.57733C2.58772 3.73361 2.49992 3.94557 2.49992 4.16658V14.9999C2.49992 15.2209 2.58772 15.4329 2.744 15.5892C2.90028 15.7455 3.11224 15.8333 3.33325 15.8333H8.33325C8.79349 15.8333 9.16659 16.2063 9.16659 16.6666C9.16659 17.1268 8.79349 17.4999 8.33325 17.4999H3.33325C2.67021 17.4999 2.03433 17.2365 1.56549 16.7677C1.09664 16.2988 0.833252 15.663 0.833252 14.9999V4.16658C0.833252 3.50354 1.09664 2.86766 1.56549 2.39882C2.03433 1.92998 2.67021 1.66658 3.33325 1.66658H6.57958C6.99615 1.66325 7.40697 1.76406 7.77471 1.9599C8.14222 2.15562 8.45501 2.44002 8.6847 2.78725L9.35729 3.78369C9.35906 3.78631 9.36082 3.78894 9.36256 3.79158C9.43843 3.9068 9.54173 4.00138 9.66318 4.06684C9.78459 4.13227 9.92034 4.16654 10.0583 4.16658C10.0583 4.16658 10.0583 4.16658 10.0584 4.16658H16.6666C17.3296 4.16658 17.9655 4.42998 18.4344 4.89882C18.9032 5.36766 19.1666 6.00354 19.1666 6.66658V8.33325C19.1666 8.79349 18.7935 9.16658 18.3333 9.16658C17.873 9.16658 17.4999 8.79349 17.4999 8.33325V6.66658C17.4999 6.44557 17.4121 6.23361 17.2558 6.07733C17.0996 5.92105 16.8876 5.83325 16.6666 5.83325H10.0583V4.99837L10.0581 5.83325C9.64423 5.83318 9.23684 5.73036 8.87249 5.53401C8.50968 5.33848 8.20087 5.0563 7.9735 4.71262L7.30088 3.71614C7.2991 3.71351 7.29734 3.71087 7.29559 3.70821C7.21894 3.5918 7.11432 3.49648 6.9913 3.43097Z" fill="black"/>
<path fill-rule="evenodd" clip-rule="evenodd" d="M18.9226 11.0773C19.248 11.4028 19.248 11.9304 18.9226 12.2558L15.1726 16.0058C14.8472 16.3313 14.3195 16.3313 13.9941 16.0058C13.6686 15.6804 13.6686 15.1528 13.9941 14.8273L17.7441 11.0773C18.0695 10.7519 18.5972 10.7519 18.9226 11.0773Z" fill="black"/>
<path fill-rule="evenodd" clip-rule="evenodd" d="M16.9108 11.9108C17.2363 11.5854 17.7639 11.5854 18.0893 11.9108L18.9227 12.7442C19.2481 13.0696 19.2481 13.5972 18.9227 13.9227C18.5972 14.2481 18.0696 14.2481 17.7442 13.9227L16.9108 13.0893C16.5854 12.7639 16.5854 12.2363 16.9108 11.9108Z" fill="black"/>
</svg>
