<svg width="20" height="20" viewBox="0 0 20 20" fill="none" xmlns="http://www.w3.org/2000/svg">
<path fill-rule="evenodd" clip-rule="evenodd" d="M4.14481 3.76691C3.62339 4.57879 3.34427 5.66909 3.33316 6.67578L3.33316 6.67658C3.32224 7.58653 3.49948 8.2161 3.70389 8.88269C3.71594 8.92197 3.72815 8.96156 3.74046 9.00149C3.93979 9.64773 4.16655 10.3829 4.16655 11.3499V13.3333C4.16655 13.5543 4.25435 13.7662 4.41063 13.9225C4.56691 14.0788 4.77887 14.1666 4.99988 14.1666C5.2209 14.1666 5.43286 14.0788 5.58914 13.9225C5.74542 13.7662 5.83322 13.5543 5.83322 13.3333V11.8166C5.83322 10.422 6.28598 9.15174 6.68735 8.02564C6.69655 7.99983 6.70572 7.97409 6.71486 7.94843C7.13816 6.76002 7.49988 5.71311 7.49988 4.58325C7.49988 3.9563 7.38034 3.39328 7.15838 3.01743C6.96459 2.68929 6.70113 2.49992 6.24988 2.49992C5.34906 2.49992 4.65422 2.97373 4.14481 3.76691ZM2.74245 2.86626C3.47471 1.72611 4.64237 0.833252 6.24988 0.833252C7.35697 0.833252 8.13517 1.39388 8.59347 2.16991C9.02359 2.89822 9.16655 3.79353 9.16655 4.58325C9.16655 6.03267 8.7029 7.33423 8.29535 8.47834L8.2849 8.50766C7.85945 9.70211 7.49988 10.7264 7.49988 11.8166V13.3333C7.49988 13.9963 7.23649 14.6322 6.76765 15.101C6.29881 15.5699 5.66292 15.8333 4.99988 15.8333C4.33684 15.8333 3.70096 15.5699 3.23211 15.101C2.76327 14.6322 2.49988 13.9963 2.49988 13.3333V11.3499C2.49988 10.6391 2.33974 10.1177 2.13571 9.45359C2.12737 9.42641 2.11894 9.39899 2.11046 9.37131C1.89197 8.65881 1.65258 7.83015 1.6666 6.65696C1.68058 5.39709 2.02229 3.98759 2.74245 2.86626Z" fill="black"/>
<path fill-rule="evenodd" clip-rule="evenodd" d="M11.4063 5.50341C11.8646 4.72738 12.6428 4.16675 13.7499 4.16675C15.3574 4.16675 16.5251 5.0596 17.2573 6.19976C17.9774 7.32097 18.3192 8.73031 18.3332 9.99008C18.3332 9.99016 18.3332 9.99023 18.3332 9.9903C18.3472 11.1636 18.1078 11.9923 17.8893 12.7048C17.8809 12.7325 17.8724 12.7599 17.8641 12.7871C17.6601 13.4512 17.4999 13.9726 17.4999 14.6834V16.6667C17.4999 17.3298 17.2365 17.9657 16.7677 18.4345C16.2988 18.9034 15.663 19.1667 14.9999 19.1667C14.3369 19.1667 13.701 18.9034 13.2322 18.4345C12.7633 17.9657 12.4999 17.3298 12.4999 16.6667V15.1501C12.4999 14.0599 12.1403 13.0356 11.7149 11.8412L11.7045 11.8118C11.2969 10.6677 10.8333 9.36617 10.8333 7.91675C10.8333 7.12703 10.9762 6.23172 11.4063 5.50341ZM12.8414 6.35092C12.6195 6.72678 12.4999 7.2898 12.4999 7.91675C12.4999 9.0466 12.8616 10.0935 13.2849 11.2819C13.2941 11.3076 13.3033 11.3333 13.3125 11.3591C13.7138 12.4852 14.1666 13.7555 14.1666 15.1501V16.6667C14.1666 16.8878 14.2544 17.0997 14.4107 17.256C14.5669 17.4123 14.7789 17.5001 14.9999 17.5001C15.2209 17.5001 15.4329 17.4123 15.5892 17.256C15.7455 17.0997 15.8333 16.8878 15.8333 16.6667V14.6834C15.8333 13.7164 16.06 12.9812 16.2593 12.335C16.2717 12.2951 16.2839 12.2555 16.2959 12.2162C16.5003 11.5496 16.6776 10.92 16.6666 10.0101L16.6666 10.0093C16.6555 9.00258 16.3764 7.91228 15.855 7.10041C15.3456 6.30723 14.6507 5.83341 13.7499 5.83341C13.2987 5.83341 13.0352 6.02279 12.8414 6.35092Z" fill="black"/>
<path fill-rule="evenodd" clip-rule="evenodd" d="M12.5 14.1666C12.5 13.7063 12.8731 13.3333 13.3333 13.3333H16.6667C17.1269 13.3333 17.5 13.7063 17.5 14.1666C17.5 14.6268 17.1269 14.9999 16.6667 14.9999H13.3333C12.8731 14.9999 12.5 14.6268 12.5 14.1666Z" fill="black"/>
<path fill-rule="evenodd" clip-rule="evenodd" d="M2.5 10.8333C2.5 10.3731 2.8731 10 3.33333 10H6.66667C7.1269 10 7.5 10.3731 7.5 10.8333C7.5 11.2936 7.1269 11.6667 6.66667 11.6667H3.33333C2.8731 11.6667 2.5 11.2936 2.5 10.8333Z" fill="black"/>
</svg>
