<svg width="20" height="20" viewBox="0 0 20 20" fill="none" xmlns="http://www.w3.org/2000/svg">
<path fill-rule="evenodd" clip-rule="evenodd" d="M2.39898 9.89898C2.86782 9.43014 3.50371 9.16675 4.16675 9.16675H10.0001C10.4603 9.16675 10.8334 9.53984 10.8334 10.0001C10.8334 10.4603 10.4603 10.8334 10.0001 10.8334H4.16675C3.94573 10.8334 3.73377 10.9212 3.57749 11.0775C3.42121 11.2338 3.33341 11.4457 3.33341 11.6667V15.8334C3.33341 16.2937 2.96032 16.6667 2.50008 16.6667C2.03984 16.6667 1.66675 16.2937 1.66675 15.8334V11.6667C1.66675 11.0037 1.93014 10.3678 2.39898 9.89898Z" fill="black"/>
<path fill-rule="evenodd" clip-rule="evenodd" d="M10.8333 14.9999C10.373 14.9999 9.99992 15.373 9.99992 15.8333C9.99992 16.2935 10.373 16.6666 10.8333 16.6666C11.2935 16.6666 11.6666 16.2935 11.6666 15.8333C11.6666 15.373 11.2935 14.9999 10.8333 14.9999ZM8.33325 15.8333C8.33325 14.4525 9.45254 13.3333 10.8333 13.3333C12.214 13.3333 13.3333 14.4525 13.3333 15.8333C13.3333 17.214 12.214 18.3333 10.8333 18.3333C9.45254 18.3333 8.33325 17.214 8.33325 15.8333Z" fill="black"/>
<path fill-rule="evenodd" clip-rule="evenodd" d="M4.16675 14.9999C3.70651 14.9999 3.33341 15.373 3.33341 15.8333C3.33341 16.2935 3.70651 16.6666 4.16675 16.6666C4.62699 16.6666 5.00008 16.2935 5.00008 15.8333C5.00008 15.373 4.62699 14.9999 4.16675 14.9999ZM1.66675 15.8333C1.66675 14.4525 2.78604 13.3333 4.16675 13.3333C5.54746 13.3333 6.66675 14.4525 6.66675 15.8333C6.66675 17.214 5.54746 18.3333 4.16675 18.3333C2.78604 18.3333 1.66675 17.214 1.66675 15.8333Z" fill="black"/>
<path fill-rule="evenodd" clip-rule="evenodd" d="M13.3334 0.833252C13.7937 0.833252 14.1667 1.20635 14.1667 1.66659V14.9999H18.3334C18.7937 14.9999 19.1667 15.373 19.1667 15.8333C19.1667 16.2935 18.7937 16.6666 18.3334 16.6666H13.3334C12.8732 16.6666 12.5001 16.2935 12.5001 15.8333V8.67843L8.82157 4.99992H6.66675C6.21032 4.99992 5.83341 5.37682 5.83341 5.83325V9.99992C5.83341 10.4602 5.46032 10.8333 5.00008 10.8333C4.53984 10.8333 4.16675 10.4602 4.16675 9.99992V5.83325C4.16675 4.45635 5.28984 3.33325 6.66675 3.33325H9.16675C9.38776 3.33325 9.59972 3.42105 9.756 3.57733L12.5001 6.32141V1.66659C12.5001 1.20635 12.8732 0.833252 13.3334 0.833252ZM5.83341 15.8333C5.83341 15.373 6.20651 14.9999 6.66675 14.9999H9.16675C9.62699 14.9999 10.0001 15.373 10.0001 15.8333C10.0001 16.2935 9.62699 16.6666 9.16675 16.6666H6.66675C6.20651 16.6666 5.83341 16.2935 5.83341 15.8333Z" fill="black"/>
</svg>
