<svg width="20" height="20" viewBox="0 0 20 20" fill="none" xmlns="http://www.w3.org/2000/svg">
<path fill-rule="evenodd" clip-rule="evenodd" d="M11.9108 5.24408C12.2363 4.91864 12.7639 4.91864 13.0893 5.24408L17.256 9.41074C17.5814 9.73618 17.5814 10.2638 17.256 10.5893L13.0893 14.7559C12.7639 15.0814 12.2363 15.0814 11.9108 14.7559C11.5854 14.4305 11.5854 13.9028 11.9108 13.5774L15.4882 10L11.9108 6.42259C11.5854 6.09715 11.5854 5.56951 11.9108 5.24408Z" fill="black"/>
<path fill-rule="evenodd" clip-rule="evenodd" d="M6.66667 10.8334C6.00363 10.8334 5.36774 11.0968 4.8989 11.5656C4.43006 12.0345 4.16667 12.6704 4.16667 13.3334V15.0001C4.16667 15.4603 3.79357 15.8334 3.33333 15.8334C2.8731 15.8334 2.5 15.4603 2.5 15.0001V13.3334C2.5 12.2283 2.93899 11.1685 3.72039 10.3871C4.50179 9.60573 5.5616 9.16675 6.66667 9.16675H16.6667C17.1269 9.16675 17.5 9.53984 17.5 10.0001C17.5 10.4603 17.1269 10.8334 16.6667 10.8334H6.66667Z" fill="black"/>
</svg>
