<svg width="20" height="20" viewBox="0 0 20 20" fill="none" xmlns="http://www.w3.org/2000/svg">
<g clip-path="url(#clip0_2001_7129)">
<path fill-rule="evenodd" clip-rule="evenodd" d="M0.833252 5.00008C0.833252 4.53984 1.20635 4.16675 1.66659 4.16675H18.3333C18.7935 4.16675 19.1666 4.53984 19.1666 5.00008C19.1666 5.46032 18.7935 5.83341 18.3333 5.83341H1.66659C1.20635 5.83341 0.833252 5.46032 0.833252 5.00008Z" fill="black"/>
<path fill-rule="evenodd" clip-rule="evenodd" d="M0.833252 15.0001C0.833252 14.5398 1.20635 14.1667 1.66659 14.1667H18.3333C18.7935 14.1667 19.1666 14.5398 19.1666 15.0001C19.1666 15.4603 18.7935 15.8334 18.3333 15.8334H1.66659C1.20635 15.8334 0.833252 15.4603 0.833252 15.0001Z" fill="black"/>
<path fill-rule="evenodd" clip-rule="evenodd" d="M5.00008 0.833252C5.46032 0.833252 5.83341 1.20635 5.83341 1.66659V18.3333C5.83341 18.7935 5.46032 19.1666 5.00008 19.1666C4.53984 19.1666 4.16675 18.7935 4.16675 18.3333V1.66659C4.16675 1.20635 4.53984 0.833252 5.00008 0.833252Z" fill="black"/>
<path fill-rule="evenodd" clip-rule="evenodd" d="M15.0001 0.833252C15.4603 0.833252 15.8334 1.20635 15.8334 1.66659V18.3333C15.8334 18.7935 15.4603 19.1666 15.0001 19.1666C14.5398 19.1666 14.1667 18.7935 14.1667 18.3333V1.66659C14.1667 1.20635 14.5398 0.833252 15.0001 0.833252Z" fill="black"/>
</g>
<defs>
<clipPath id="clip0_2001_7129">
<rect width="20" height="20" fill="white"/>
</clipPath>
</defs>
</svg>
