<svg width="20" height="20" viewBox="0 0 20 20" fill="none" xmlns="http://www.w3.org/2000/svg">
<path fill-rule="evenodd" clip-rule="evenodd" d="M3.39671 1.34768C3.52569 1.03629 3.82956 0.833252 4.16661 0.833252H15.8333C16.2935 0.833252 16.6666 1.20635 16.6666 1.66659V7.49992C16.6666 7.96016 16.2935 8.33325 15.8333 8.33325H12.0118L16.4225 12.744C16.6609 12.9823 16.7322 13.3408 16.6032 13.6522C16.4742 13.9635 16.1703 14.1666 15.8333 14.1666H10.8333V19.1666C10.8333 19.5036 10.6302 19.8075 10.3188 19.9365C10.0075 20.0655 9.64902 19.9942 9.41069 19.7558L3.57735 13.9225C3.42107 13.7662 3.33328 13.5543 3.33328 13.3333V7.49992C3.33328 7.03968 3.70637 6.66658 4.16661 6.66658H7.9881L3.57735 2.25584C3.33902 2.01751 3.26773 1.65908 3.39671 1.34768ZM10.3451 6.66658H14.9999V2.49992H6.17845L10.3451 6.66658ZM9.65477 8.33325H4.99994V12.4999H13.8214L9.65477 8.33325ZM6.17845 14.1666L9.16661 17.1547V14.1666H6.17845Z" fill="black"/>
</svg>
