<svg width="20" height="20" viewBox="0 0 20 20" fill="none" xmlns="http://www.w3.org/2000/svg">
<g clip-path="url(#clip0_2001_7136)">
<path fill-rule="evenodd" clip-rule="evenodd" d="M9.99992 2.49992C5.85778 2.49992 2.49992 5.85778 2.49992 9.99992C2.49992 14.1421 5.85778 17.4999 9.99992 17.4999C14.1421 17.4999 17.4999 14.1421 17.4999 9.99992C17.4999 5.85778 14.1421 2.49992 9.99992 2.49992ZM0.833252 9.99992C0.833252 4.93731 4.93731 0.833252 9.99992 0.833252C15.0625 0.833252 19.1666 4.93731 19.1666 9.99992C19.1666 15.0625 15.0625 19.1666 9.99992 19.1666C4.93731 19.1666 0.833252 15.0625 0.833252 9.99992Z" fill="black"/>
<path fill-rule="evenodd" clip-rule="evenodd" d="M7.06191 11.826C7.72686 11.3424 8.72869 10.8333 9.99997 10.8333C11.2712 10.8333 12.2731 11.3424 12.938 11.826C13.2721 12.0689 13.5304 12.3118 13.7071 12.4962C13.7958 12.5888 13.865 12.6677 13.9138 12.7259C13.9383 12.7551 13.9578 12.7791 13.9721 12.7973C13.9793 12.8064 13.9852 12.814 13.9899 12.82C13.991 12.8214 13.992 12.8228 13.993 12.8241C13.9941 12.8254 13.995 12.8267 13.9959 12.8278C13.9967 12.8289 13.9975 12.83 13.9982 12.8309L13.9991 12.8321L13.9996 12.8327C13.9998 12.833 14 12.8333 13.3333 13.3333L14 12.8333C14.2761 13.2014 14.2015 13.7238 13.8333 13.9999C13.4662 14.2752 12.9459 14.2019 12.6691 13.8366C12.6686 13.8359 12.6673 13.8342 12.6654 13.8318C12.6604 13.8255 12.651 13.8138 12.6372 13.7974C12.6096 13.7644 12.5648 13.7131 12.5038 13.6494C12.381 13.5213 12.1966 13.3476 11.9577 13.1739C11.4769 12.8241 10.812 12.4999 9.99997 12.4999C9.18791 12.4999 8.52308 12.8241 8.04219 13.1739C7.80336 13.3476 7.61891 13.5213 7.49616 13.6494C7.43512 13.7131 7.39035 13.7644 7.36273 13.7974C7.34894 13.8138 7.33951 13.8255 7.33455 13.8318C7.33261 13.8342 7.33136 13.8359 7.3308 13.8366C7.05402 14.2019 6.53372 14.2752 6.16663 13.9999C5.79844 13.7238 5.72383 13.2014 5.99997 12.8333L6.66663 13.3333C5.99997 12.8333 6.00017 12.833 6.00037 12.8327L6.00081 12.8321L6.00177 12.8309C6.00245 12.83 6.00321 12.8289 6.00405 12.8278C6.00574 12.8256 6.00774 12.823 6.01006 12.82C6.0147 12.814 6.02062 12.8064 6.02781 12.7973C6.04218 12.7791 6.06164 12.7551 6.0861 12.7259C6.13497 12.6677 6.20413 12.5888 6.29284 12.4962C6.46957 12.3118 6.72783 12.0689 7.06191 11.826ZM12.667 13.8338C12.6672 13.8339 12.6673 13.8341 12.6674 13.8343L12.667 13.8338Z" fill="black"/>
<path fill-rule="evenodd" clip-rule="evenodd" d="M6.66675 7.50008C6.66675 7.03984 7.03984 6.66675 7.50008 6.66675H7.50841C7.96865 6.66675 8.34175 7.03984 8.34175 7.50008C8.34175 7.96032 7.96865 8.33341 7.50841 8.33341H7.50008C7.03984 8.33341 6.66675 7.96032 6.66675 7.50008Z" fill="black"/>
<path fill-rule="evenodd" clip-rule="evenodd" d="M11.6667 7.50008C11.6667 7.03984 12.0398 6.66675 12.5001 6.66675H12.5084C12.9687 6.66675 13.3417 7.03984 13.3417 7.50008C13.3417 7.96032 12.9687 8.33341 12.5084 8.33341H12.5001C12.0398 8.33341 11.6667 7.96032 11.6667 7.50008Z" fill="black"/>
</g>
<defs>
<clipPath id="clip0_2001_7136">
<rect width="20" height="20" fill="white"/>
</clipPath>
</defs>
</svg>
