<svg width="20" height="20" viewBox="0 0 20 20" fill="none" xmlns="http://www.w3.org/2000/svg">
<path fill-rule="evenodd" clip-rule="evenodd" d="M1.66675 18.3333C1.66675 17.8731 2.03984 17.5 2.50008 17.5H12.5001C12.9603 17.5 13.3334 17.8731 13.3334 18.3333C13.3334 18.7936 12.9603 19.1667 12.5001 19.1667H2.50008C2.03984 19.1667 1.66675 18.7936 1.66675 18.3333Z" fill="black"/>
<path fill-rule="evenodd" clip-rule="evenodd" d="M2.5 7.50008C2.5 7.03984 2.8731 6.66675 3.33333 6.66675H11.6667C12.1269 6.66675 12.5 7.03984 12.5 7.50008C12.5 7.96032 12.1269 8.33341 11.6667 8.33341H3.33333C2.8731 8.33341 2.5 7.96032 2.5 7.50008Z" fill="black"/>
<path fill-rule="evenodd" clip-rule="evenodd" d="M3.23223 1.56549C3.70107 1.09664 4.33696 0.833252 5 0.833252H10C10.663 0.833252 11.2989 1.09664 11.7678 1.56549C12.2366 2.03433 12.5 2.67021 12.5 3.33325V18.3333C12.5 18.7935 12.1269 19.1666 11.6667 19.1666C11.2064 19.1666 10.8333 18.7935 10.8333 18.3333V3.33325C10.8333 3.11224 10.7455 2.90028 10.5893 2.744C10.433 2.58772 10.221 2.49992 10 2.49992H5C4.77899 2.49992 4.56702 2.58772 4.41074 2.744C4.25446 2.90028 4.16667 3.11224 4.16667 3.33325V18.3333C4.16667 18.7935 3.79357 19.1666 3.33333 19.1666C2.8731 19.1666 2.5 18.7935 2.5 18.3333V3.33325C2.5 2.67021 2.76339 2.03433 3.23223 1.56549Z" fill="black"/>
<path fill-rule="evenodd" clip-rule="evenodd" d="M14.4107 3.57733C14.7361 3.25189 15.2637 3.25189 15.5892 3.57733L18.4291 6.41725C18.4294 6.41759 18.4298 6.41794 18.4301 6.41829C18.6636 6.65064 18.8489 6.92685 18.9752 7.23104C19.1017 7.53547 19.1668 7.86192 19.1666 8.19159L19.1666 8.19225M19.1666 8.19225L19.1666 14.1666C19.1666 14.8296 18.9032 15.4655 18.4344 15.9344C17.9655 16.4032 17.3296 16.6666 16.6666 16.6666C16.0035 16.6666 15.3677 16.4032 14.8988 15.9344C14.43 15.4655 14.1666 14.8296 14.1666 14.1666V12.4999C14.1666 12.2789 14.0788 12.0669 13.9225 11.9107C13.7662 11.7544 13.5543 11.6666 13.3333 11.6666H11.6666C11.2063 11.6666 10.8333 11.2935 10.8333 10.8333C10.8333 10.373 11.2063 9.99992 11.6666 9.99992H13.3333C13.9963 9.99992 14.6322 10.2633 15.101 10.7322C15.5699 11.201 15.8333 11.8369 15.8333 12.4999V14.1666C15.8333 14.3876 15.921 14.5996 16.0773 14.7558C16.2336 14.9121 16.4456 14.9999 16.6666 14.9999C16.8876 14.9999 17.0996 14.9121 17.2558 14.7558C17.4121 14.5996 17.4999 14.3876 17.4999 14.1666L17.4999 8.19092C17.5 8.08096 17.4783 7.97207 17.4361 7.87052C17.3939 7.76898 17.3321 7.67678 17.2541 7.59926C17.2535 7.59868 17.2529 7.59809 17.2523 7.59751L14.4107 4.75584C14.0852 4.4304 14.0852 3.90277 14.4107 3.57733" fill="black"/>
</svg>
