<svg width="20" height="20" viewBox="0 0 20 20" fill="none" xmlns="http://www.w3.org/2000/svg">
<path fill-rule="evenodd" clip-rule="evenodd" d="M4.16675 3.33341C3.70651 3.33341 3.33341 3.70651 3.33341 4.16675V12.5001C3.33341 12.9603 3.70651 13.3334 4.16675 13.3334H15.8334C16.2937 13.3334 16.6667 12.9603 16.6667 12.5001V4.16675C16.6667 3.70651 16.2937 3.33341 15.8334 3.33341H4.16675ZM1.66675 4.16675C1.66675 2.78604 2.78604 1.66675 4.16675 1.66675H15.8334C17.2141 1.66675 18.3334 2.78604 18.3334 4.16675V12.5001C18.3334 13.8808 17.2141 15.0001 15.8334 15.0001H4.16675C2.78604 15.0001 1.66675 13.8808 1.66675 12.5001V4.16675Z" fill="black"/>
<path fill-rule="evenodd" clip-rule="evenodd" d="M2.5 17.5001C2.5 17.0398 2.8731 16.6667 3.33333 16.6667H4.16667C4.6269 16.6667 5 17.0398 5 17.5001C5 17.9603 4.6269 18.3334 4.16667 18.3334H3.33333C2.8731 18.3334 2.5 17.9603 2.5 17.5001Z" fill="black"/>
<path fill-rule="evenodd" clip-rule="evenodd" d="M6.66675 17.5001C6.66675 17.0398 7.03984 16.6667 7.50008 16.6667H8.33341C8.79365 16.6667 9.16675 17.0398 9.16675 17.5001C9.16675 17.9603 8.79365 18.3334 8.33341 18.3334H7.50008C7.03984 18.3334 6.66675 17.9603 6.66675 17.5001Z" fill="black"/>
<path fill-rule="evenodd" clip-rule="evenodd" d="M10.8333 17.5001C10.8333 17.0398 11.2063 16.6667 11.6666 16.6667H12.4999C12.9602 16.6667 13.3333 17.0398 13.3333 17.5001C13.3333 17.9603 12.9602 18.3334 12.4999 18.3334H11.6666C11.2063 18.3334 10.8333 17.9603 10.8333 17.5001Z" fill="black"/>
<path fill-rule="evenodd" clip-rule="evenodd" d="M15 17.5001C15 17.0398 15.3731 16.6667 15.8333 16.6667H16.6667C17.1269 16.6667 17.5 17.0398 17.5 17.5001C17.5 17.9603 17.1269 18.3334 16.6667 18.3334H15.8333C15.3731 18.3334 15 17.9603 15 17.5001Z" fill="black"/>
</svg>
