<svg width="20" height="20" viewBox="0 0 20 20" fill="none" xmlns="http://www.w3.org/2000/svg">
<path fill-rule="evenodd" clip-rule="evenodd" d="M5 1.66659C5 1.20635 5.3731 0.833252 5.83333 0.833252H14.1667C14.6269 0.833252 15 1.20635 15 1.66659C15 2.12682 14.6269 2.49992 14.1667 2.49992H5.83333C5.3731 2.49992 5 2.12682 5 1.66659Z" fill="black"/>
<path fill-rule="evenodd" clip-rule="evenodd" d="M3.33325 5.00008C3.33325 4.53984 3.70635 4.16675 4.16659 4.16675H15.8333C16.2935 4.16675 16.6666 4.53984 16.6666 5.00008C16.6666 5.46032 16.2935 5.83341 15.8333 5.83341H4.16659C3.70635 5.83341 3.33325 5.46032 3.33325 5.00008Z" fill="black"/>
<path fill-rule="evenodd" clip-rule="evenodd" d="M4.16675 9.16667C3.70651 9.16667 3.33341 9.53976 3.33341 10V16.6667C3.33341 17.1269 3.70651 17.5 4.16675 17.5H15.8334C16.2937 17.5 16.6667 17.1269 16.6667 16.6667V10C16.6667 9.53976 16.2937 9.16667 15.8334 9.16667H4.16675ZM1.66675 10C1.66675 8.61929 2.78604 7.5 4.16675 7.5H15.8334C17.2141 7.5 18.3334 8.61929 18.3334 10V16.6667C18.3334 18.0474 17.2141 19.1667 15.8334 19.1667H4.16675C2.78604 19.1667 1.66675 18.0474 1.66675 16.6667V10Z" fill="black"/>
</svg>
