<svg width="20" height="20" viewBox="0 0 20 20" fill="none" xmlns="http://www.w3.org/2000/svg">
<path fill-rule="evenodd" clip-rule="evenodd" d="M1.66659 5C2.12682 5 2.49992 5.3731 2.49992 5.83333V14.1667C2.49992 14.6269 2.12682 15 1.66659 15C1.20635 15 0.833252 14.6269 0.833252 14.1667V5.83333C0.833252 5.3731 1.20635 5 1.66659 5Z" fill="black"/>
<path fill-rule="evenodd" clip-rule="evenodd" d="M5.00008 3.33325C5.46032 3.33325 5.83341 3.70635 5.83341 4.16659V15.8333C5.83341 16.2935 5.46032 16.6666 5.00008 16.6666C4.53984 16.6666 4.16675 16.2935 4.16675 15.8333V4.16659C4.16675 3.70635 4.53984 3.33325 5.00008 3.33325Z" fill="black"/>
<path fill-rule="evenodd" clip-rule="evenodd" d="M10 3.33341C9.53976 3.33341 9.16667 3.70651 9.16667 4.16675V15.8334C9.16667 16.2937 9.53976 16.6667 10 16.6667H16.6667C17.1269 16.6667 17.5 16.2937 17.5 15.8334V4.16675C17.5 3.70651 17.1269 3.33341 16.6667 3.33341H10ZM7.5 4.16675C7.5 2.78604 8.61929 1.66675 10 1.66675H16.6667C18.0474 1.66675 19.1667 2.78604 19.1667 4.16675V15.8334C19.1667 17.2141 18.0474 18.3334 16.6667 18.3334H10C8.61929 18.3334 7.5 17.2141 7.5 15.8334V4.16675Z" fill="black"/>
</svg>
