<svg width="20" height="20" viewBox="0 0 20 20" fill="none" xmlns="http://www.w3.org/2000/svg">
<path fill-rule="evenodd" clip-rule="evenodd" d="M1.66675 1.66659C1.66675 1.20635 2.03984 0.833252 2.50008 0.833252H17.5001C17.9603 0.833252 18.3334 1.20635 18.3334 1.66659C18.3334 2.12682 17.9603 2.49992 17.5001 2.49992H2.50008C2.03984 2.49992 1.66675 2.12682 1.66675 1.66659Z" fill="black"/>
<path fill-rule="evenodd" clip-rule="evenodd" d="M4.16675 5.83341C3.70651 5.83341 3.33341 6.20651 3.33341 6.66675V13.3334C3.33341 13.7937 3.70651 14.1667 4.16675 14.1667H15.8334C16.2937 14.1667 16.6667 13.7937 16.6667 13.3334V6.66675C16.6667 6.20651 16.2937 5.83341 15.8334 5.83341H4.16675ZM1.66675 6.66675C1.66675 5.28604 2.78604 4.16675 4.16675 4.16675H15.8334C17.2141 4.16675 18.3334 5.28604 18.3334 6.66675V13.3334C18.3334 14.7141 17.2141 15.8334 15.8334 15.8334H4.16675C2.78604 15.8334 1.66675 14.7141 1.66675 13.3334V6.66675Z" fill="black"/>
<path fill-rule="evenodd" clip-rule="evenodd" d="M1.66675 18.3333C1.66675 17.8731 2.03984 17.5 2.50008 17.5H17.5001C17.9603 17.5 18.3334 17.8731 18.3334 18.3333C18.3334 18.7936 17.9603 19.1667 17.5001 19.1667H2.50008C2.03984 19.1667 1.66675 18.7936 1.66675 18.3333Z" fill="black"/>
</svg>
