<svg width="20" height="20" viewBox="0 0 20 20" fill="none" xmlns="http://www.w3.org/2000/svg">
<path fill-rule="evenodd" clip-rule="evenodd" d="M1.66659 1.66675C2.12682 1.66675 2.49992 2.03984 2.49992 2.50008V17.5001C2.49992 17.9603 2.12682 18.3334 1.66659 18.3334C1.20635 18.3334 0.833252 17.9603 0.833252 17.5001V2.50008C0.833252 2.03984 1.20635 1.66675 1.66659 1.66675Z" fill="black"/>
<path fill-rule="evenodd" clip-rule="evenodd" d="M6.66675 3.33341C6.20651 3.33341 5.83341 3.70651 5.83341 4.16675V15.8334C5.83341 16.2937 6.20651 16.6667 6.66675 16.6667H13.3334C13.7937 16.6667 14.1667 16.2937 14.1667 15.8334V4.16675C14.1667 3.70651 13.7937 3.33341 13.3334 3.33341H6.66675ZM4.16675 4.16675C4.16675 2.78604 5.28604 1.66675 6.66675 1.66675H13.3334C14.7141 1.66675 15.8334 2.78604 15.8334 4.16675V15.8334C15.8334 17.2141 14.7141 18.3334 13.3334 18.3334H6.66675C5.28604 18.3334 4.16675 17.2141 4.16675 15.8334V4.16675Z" fill="black"/>
<path fill-rule="evenodd" clip-rule="evenodd" d="M18.3333 1.66675C18.7936 1.66675 19.1667 2.03984 19.1667 2.50008V17.5001C19.1667 17.9603 18.7936 18.3334 18.3333 18.3334C17.8731 18.3334 17.5 17.9603 17.5 17.5001V2.50008C17.5 2.03984 17.8731 1.66675 18.3333 1.66675Z" fill="black"/>
</svg>
