<svg width="20" height="20" viewBox="0 0 20 20" fill="none" xmlns="http://www.w3.org/2000/svg">
<path fill-rule="evenodd" clip-rule="evenodd" d="M4.16675 10.0001C4.16675 9.53984 4.53984 9.16675 5.00008 9.16675H8.33342C8.79365 9.16675 9.16675 9.53984 9.16675 10.0001C9.16675 10.4603 8.79365 10.8334 8.33342 10.8334H5.00008C4.53984 10.8334 4.16675 10.4603 4.16675 10.0001Z" fill="black"/>
<path fill-rule="evenodd" clip-rule="evenodd" d="M6.66659 7.5C7.12682 7.5 7.49992 7.8731 7.49992 8.33333V11.6667C7.49992 12.1269 7.12682 12.5 6.66659 12.5C6.20635 12.5 5.83325 12.1269 5.83325 11.6667V8.33333C5.83325 7.8731 6.20635 7.5 6.66659 7.5Z" fill="black"/>
<path fill-rule="evenodd" clip-rule="evenodd" d="M11.6667 10.8333C11.6667 10.3731 12.0398 10 12.5001 10H12.5084C12.9687 10 13.3417 10.3731 13.3417 10.8333C13.3417 11.2936 12.9687 11.6667 12.5084 11.6667H12.5001C12.0398 11.6667 11.6667 11.2936 11.6667 10.8333Z" fill="black"/>
<path fill-rule="evenodd" clip-rule="evenodd" d="M14.1667 9.16659C14.1667 8.70635 14.5398 8.33325 15.0001 8.33325H15.0084C15.4687 8.33325 15.8417 8.70635 15.8417 9.16659C15.8417 9.62682 15.4687 9.99992 15.0084 9.99992H15.0001C14.5398 9.99992 14.1667 9.62682 14.1667 9.16659Z" fill="black"/>
<path fill-rule="evenodd" clip-rule="evenodd" d="M3.33325 5.83341C2.87301 5.83341 2.49992 6.20651 2.49992 6.66675V13.3334C2.49992 13.7937 2.87301 14.1667 3.33325 14.1667H16.6666C17.1268 14.1667 17.4999 13.7937 17.4999 13.3334V6.66675C17.4999 6.20651 17.1268 5.83341 16.6666 5.83341H3.33325ZM0.833252 6.66675C0.833252 5.28604 1.95254 4.16675 3.33325 4.16675H16.6666C18.0473 4.16675 19.1666 5.28604 19.1666 6.66675V13.3334C19.1666 14.7141 18.0473 15.8334 16.6666 15.8334H3.33325C1.95254 15.8334 0.833252 14.7141 0.833252 13.3334V6.66675Z" fill="black"/>
</svg>
