<svg width="20" height="20" viewBox="0 0 20 20" fill="none" xmlns="http://www.w3.org/2000/svg">
<path fill-rule="evenodd" clip-rule="evenodd" d="M4.16675 9.16659C4.16675 8.70635 4.53984 8.33325 5.00008 8.33325H8.33341C8.79365 8.33325 9.16675 8.70635 9.16675 9.16659C9.16675 9.62682 8.79365 9.99992 8.33341 9.99992H5.00008C4.53984 9.99992 4.16675 9.62682 4.16675 9.16659Z" fill="black"/>
<path fill-rule="evenodd" clip-rule="evenodd" d="M6.66659 6.66675C7.12682 6.66675 7.49992 7.03984 7.49992 7.50008V10.8334C7.49992 11.2937 7.12682 11.6667 6.66659 11.6667C6.20635 11.6667 5.83325 11.2937 5.83325 10.8334V7.50008C5.83325 7.03984 6.20635 6.66675 6.66659 6.66675Z" fill="black"/>
<path fill-rule="evenodd" clip-rule="evenodd" d="M11.6667 10.0001C11.6667 9.53984 12.0398 9.16675 12.5001 9.16675H12.5084C12.9687 9.16675 13.3417 9.53984 13.3417 10.0001C13.3417 10.4603 12.9687 10.8334 12.5084 10.8334H12.5001C12.0398 10.8334 11.6667 10.4603 11.6667 10.0001Z" fill="black"/>
<path fill-rule="evenodd" clip-rule="evenodd" d="M14.1667 8.33333C14.1667 7.8731 14.5398 7.5 15.0001 7.5H15.0084C15.4687 7.5 15.8417 7.8731 15.8417 8.33333C15.8417 8.79357 15.4687 9.16667 15.0084 9.16667H15.0001C14.5398 9.16667 14.1667 8.79357 14.1667 8.33333Z" fill="black"/>
<path fill-rule="evenodd" clip-rule="evenodd" d="M2.7758 4.40665C3.54117 3.71594 4.53543 3.33349 5.56639 3.33325H14.4333C15.4644 3.33352 16.459 3.71611 17.2244 4.40704C18.0862 5.18502 18.4481 6.17232 18.5877 7.16938L18.5898 7.18549L18.5903 7.18951C18.6557 7.73376 19.1666 11.9847 19.1666 13.3333C19.1666 14.2173 18.8154 15.0652 18.1903 15.6903C17.5652 16.3154 16.7173 16.6666 15.8333 16.6666C14.6538 16.6666 14.0243 16.0365 13.5991 15.611C13.5918 15.6037 13.5845 15.5964 13.5773 15.5892L12.399 14.4108C12.2833 14.2951 12.2111 14.2475 12.1516 14.2209C12.0951 14.1956 11.9994 14.1666 11.8099 14.1666H8.18992C8.00043 14.1666 7.90472 14.1956 7.84829 14.2209C7.78877 14.2475 7.71659 14.2951 7.60093 14.4108L6.42251 15.5892C6.4153 15.5964 6.40803 15.6037 6.4007 15.611C5.97555 16.0365 5.34599 16.6666 4.16659 16.6666C3.28253 16.6666 2.43468 16.3154 1.80956 15.6903C1.18444 15.0652 0.833252 14.2173 0.833252 13.3333C0.833252 11.9849 1.34468 7.72933 1.40966 7.18865L1.41004 7.18549L1.41183 7.1716C1.54915 6.17113 1.91579 5.18278 2.7758 4.40665ZM5.56659 4.99992C4.94808 5.00011 4.3516 5.22957 3.89243 5.64396C3.41358 6.0761 3.16705 6.64756 3.06393 7.39155C2.98926 8.01317 2.49992 12.1158 2.49992 13.3333C2.49992 13.7753 2.67551 14.1992 2.98807 14.5118C3.30063 14.8243 3.72456 14.9999 4.16659 14.9999C4.63351 14.9999 4.83608 14.8186 5.244 14.4107L6.42224 13.2324C6.42221 13.2324 6.42227 13.2324 6.42224 13.2324C6.61905 13.0356 6.8561 12.8389 7.16758 12.6995C7.48219 12.5588 7.81941 12.4999 8.18992 12.4999H11.8099C12.1804 12.4999 12.5176 12.5588 12.8323 12.6995C13.1437 12.8389 13.3807 13.0355 13.5775 13.2323C13.5775 13.2323 13.5775 13.2324 13.5775 13.2323L14.7558 14.4107C15.1638 14.8186 15.3663 14.9999 15.8333 14.9999C16.2753 14.9999 16.6992 14.8243 17.0118 14.5118C17.3243 14.1992 17.4999 13.7753 17.4999 13.3333C17.4999 12.1157 17.0112 8.01824 16.936 7.39271C16.8303 6.64537 16.5862 6.07627 16.1076 5.64419C15.6484 5.22967 15.0518 5.00012 14.4332 4.99992C14.4332 4.99992 14.4333 4.99992 14.4332 4.99992H5.56659C5.56665 4.99992 5.56652 4.99992 5.56659 4.99992Z" fill="black"/>
</svg>
