<svg width="20" height="20" viewBox="0 0 20 20" fill="none" xmlns="http://www.w3.org/2000/svg">
<path fill-rule="evenodd" clip-rule="evenodd" d="M13.9227 7.74408C14.2481 8.06951 14.2481 8.59715 13.9227 8.92259L10.5893 12.2559C10.2639 12.5814 9.73626 12.5814 9.41083 12.2559C9.08539 11.9305 9.08539 11.4028 9.41083 11.0774L12.7442 7.74408C13.0696 7.41864 13.5972 7.41864 13.9227 7.74408Z" fill="black"/>
<path fill-rule="evenodd" clip-rule="evenodd" d="M9.99992 4.16618C8.68336 4.16618 7.39 4.51274 6.24984 5.17104C5.10967 5.82933 4.16288 6.77615 3.50463 7.91634C2.84638 9.05653 2.49987 10.3499 2.49992 11.6665C2.49997 12.983 2.84658 14.2764 3.50492 15.4165C3.73506 15.8151 3.59852 16.3247 3.19996 16.5549C2.80139 16.785 2.29172 16.6485 2.06159 16.2499C1.25695 14.8564 0.833313 13.2757 0.833252 11.6665C0.833191 10.0574 1.25671 8.47661 2.06124 7.08305C2.86576 5.68948 4.02295 4.53225 5.41648 3.72767C6.81002 2.92309 8.39079 2.49951 9.99992 2.49951C11.609 2.49951 13.1898 2.92309 14.5834 3.72767C15.9769 4.53225 17.1341 5.68948 17.9386 7.08305C18.7431 8.47661 19.1666 10.0574 19.1666 11.6665C19.1665 13.2757 18.7429 14.8564 17.9383 16.2499C17.7081 16.6485 17.1984 16.785 16.7999 16.5549C16.4013 16.3247 16.2648 15.8151 16.4949 15.4165C17.1533 14.2764 17.4999 12.983 17.4999 11.6665C17.5 10.3499 17.1535 9.05653 16.4952 7.91634C15.837 6.77615 14.8902 5.82933 13.75 5.17104C12.6098 4.51274 11.3165 4.16618 9.99992 4.16618Z" fill="black"/>
</svg>
