<svg width="20" height="20" viewBox="0 0 20 20" fill="none" xmlns="http://www.w3.org/2000/svg">
<path fill-rule="evenodd" clip-rule="evenodd" d="M10.1727 7.32733C10.4981 7.65277 10.4981 8.1804 10.1727 8.50584L3.50603 15.1725C3.33079 15.3477 3.23234 15.5854 3.23234 15.8333C3.23234 16.0811 3.33079 16.3188 3.50603 16.494C3.68127 16.6692 3.91895 16.7677 4.16677 16.7677C4.4146 16.7677 4.65228 16.6692 4.82752 16.494L11.4942 9.82733C11.8196 9.50189 12.3473 9.50189 12.6727 9.82733C12.9981 10.1528 12.9981 10.6804 12.6727 11.0058L6.00603 17.6725C5.51823 18.1603 4.85663 18.4344 4.16677 18.4344C3.47692 18.4344 2.81532 18.1603 2.32752 17.6725C1.83972 17.1847 1.56567 16.5231 1.56567 15.8333C1.56567 15.1434 1.83972 14.4818 2.32752 13.994L8.99419 7.32733C9.31962 7.00189 9.84726 7.00189 10.1727 7.32733Z" fill="black"/>
<path fill-rule="evenodd" clip-rule="evenodd" d="M18.9226 7.74408C19.248 8.06951 19.248 8.59715 18.9226 8.92259L13.9226 13.9226C13.5972 14.248 13.0695 14.248 12.7441 13.9226C12.4186 13.5972 12.4186 13.0695 12.7441 12.7441L17.7441 7.74408C18.0695 7.41864 18.5972 7.41864 18.9226 7.74408Z" fill="black"/>
<path fill-rule="evenodd" clip-rule="evenodd" d="M12.2558 1.07733C12.5813 1.40277 12.5813 1.9304 12.2558 2.25584L7.25584 7.25584C6.9304 7.58128 6.40277 7.58128 6.07733 7.25584C5.75189 6.9304 5.75189 6.40277 6.07733 6.07733L11.0773 1.07733C11.4028 0.751893 11.9304 0.751893 12.2558 1.07733Z" fill="black"/>
<path fill-rule="evenodd" clip-rule="evenodd" d="M6.91083 5.24408C7.23626 4.91864 7.7639 4.91864 8.08934 5.24408L14.756 11.9107C15.0814 12.2362 15.0814 12.7638 14.756 13.0893C14.4306 13.4147 13.9029 13.4147 13.5775 13.0893L6.91083 6.42259C6.58539 6.09715 6.58539 5.56951 6.91083 5.24408Z" fill="black"/>
<path fill-rule="evenodd" clip-rule="evenodd" d="M10.2441 1.91083C10.5695 1.58539 11.0972 1.58539 11.4226 1.91083L18.0893 8.57749C18.4147 8.90293 18.4147 9.43057 18.0893 9.756C17.7638 10.0814 17.2362 10.0814 16.9107 9.756L10.2441 3.08934C9.91864 2.7639 9.91864 2.23626 10.2441 1.91083Z" fill="black"/>
</svg>
