<svg width="20" height="20" viewBox="0 0 20 20" fill="none" xmlns="http://www.w3.org/2000/svg">
<path fill-rule="evenodd" clip-rule="evenodd" d="M4.30654 2.03783C4.4611 1.806 4.72129 1.66675 4.99992 1.66675H14.9999C15.2785 1.66675 15.5387 1.806 15.6933 2.03783L19.0266 7.03783C19.2247 7.33492 19.2115 7.72517 18.9938 8.00817L10.6604 18.8415C10.5027 19.0466 10.2586 19.1667 9.99992 19.1667C9.7412 19.1667 9.49715 19.0466 9.3394 18.8415L1.00607 8.00817C0.788368 7.72517 0.775154 7.33492 0.973211 7.03783L4.30654 2.03783ZM5.44591 3.33341L2.69126 7.46539L9.99992 16.9666L17.3086 7.46539L14.5539 3.33341H5.44591Z" fill="black"/>
<path fill-rule="evenodd" clip-rule="evenodd" d="M9.99992 2.51807C9.99741 2.63766 9.96899 2.7586 9.91194 2.8727L7.56126 7.57407L9.99992 15.4997L12.4386 7.57407L10.0879 2.8727C10.0308 2.7586 10.0024 2.63766 9.99992 2.51807ZM9.99992 2.48326C9.99364 2.18385 9.82573 1.89789 9.53926 1.75466C9.12762 1.54884 8.62705 1.71569 8.42123 2.12734L5.92123 7.12734C5.82539 7.31902 5.80708 7.54026 5.8701 7.74509L9.20344 18.5784C9.31102 18.9281 9.63408 19.1667 9.99992 19.1667C10.3658 19.1667 10.6888 18.9281 10.7964 18.5784L14.1297 7.74509C14.1928 7.54026 14.1745 7.31902 14.0786 7.12734L11.5786 2.12734C11.3728 1.71569 10.8722 1.54884 10.4606 1.75466C10.1741 1.89789 10.0062 2.18385 9.99992 2.48326Z" fill="black"/>
<path fill-rule="evenodd" clip-rule="evenodd" d="M0.833252 7.50008C0.833252 7.03984 1.20635 6.66675 1.66659 6.66675H18.3333C18.7935 6.66675 19.1666 7.03984 19.1666 7.50008C19.1666 7.96032 18.7935 8.33341 18.3333 8.33341H1.66659C1.20635 8.33341 0.833252 7.96032 0.833252 7.50008Z" fill="black"/>
</svg>
