<svg width="20" height="20" viewBox="0 0 20 20" fill="none" xmlns="http://www.w3.org/2000/svg">
<path fill-rule="evenodd" clip-rule="evenodd" d="M6.66675 8.33333C6.66675 7.8731 7.03984 7.5 7.50008 7.5H7.50841C7.96865 7.5 8.34175 7.8731 8.34175 8.33333C8.34175 8.79357 7.96865 9.16667 7.50841 9.16667H7.50008C7.03984 9.16667 6.66675 8.79357 6.66675 8.33333Z" fill="black"/>
<path fill-rule="evenodd" clip-rule="evenodd" d="M11.6667 8.33333C11.6667 7.8731 12.0398 7.5 12.5001 7.5H12.5084C12.9687 7.5 13.3417 7.8731 13.3417 8.33333C13.3417 8.79357 12.9687 9.16667 12.5084 9.16667H12.5001C12.0398 9.16667 11.6667 8.79357 11.6667 8.33333Z" fill="black"/>
<path fill-rule="evenodd" clip-rule="evenodd" d="M4.6967 3.02995C6.10322 1.62343 8.01088 0.833252 10 0.833252C11.9891 0.833252 13.8968 1.62343 15.3033 3.02995C16.7098 4.43647 17.5 6.34413 17.5 8.33325V18.3333C17.5 18.6703 17.297 18.9742 16.9856 19.1031C16.6742 19.2321 16.3157 19.1608 16.0774 18.9225L14.1667 17.0118L12.6726 18.5058C12.3472 18.8313 11.8195 18.8313 11.4941 18.5058L10 17.0118L8.50592 18.5058C8.18049 18.8313 7.65285 18.8313 7.32741 18.5058L5.83333 17.0118L3.92259 18.9225C3.68426 19.1608 3.32583 19.2321 3.01443 19.1031C2.70304 18.9742 2.5 18.6703 2.5 18.3333V8.33325C2.5 6.34413 3.29018 4.43647 4.6967 3.02995ZM10 2.49992C8.4529 2.49992 6.96917 3.1145 5.87521 4.20846C4.78125 5.30242 4.16667 6.78616 4.16667 8.33325V16.3214L5.24408 15.244C5.56951 14.9186 6.09715 14.9186 6.42259 15.244L7.91667 16.7381L9.41074 15.244C9.73618 14.9186 10.2638 14.9186 10.5893 15.244L12.0833 16.7381L13.5774 15.244C13.9028 14.9186 14.4305 14.9186 14.7559 15.244L15.8333 16.3214V8.33325C15.8333 6.78616 15.2188 5.30242 14.1248 4.20846C13.0308 3.1145 11.5471 2.49992 10 2.49992Z" fill="black"/>
</svg>
