<svg width="20" height="20" viewBox="0 0 20 20" fill="none" xmlns="http://www.w3.org/2000/svg">
<path fill-rule="evenodd" clip-rule="evenodd" d="M3.33341 7.49992V9.16659H16.6667V7.49992H3.33341ZM1.66675 7.49992C1.66675 6.57944 2.41294 5.83325 3.33341 5.83325H16.6667C17.5872 5.83325 18.3334 6.57944 18.3334 7.49992V9.16659C18.3334 10.0871 17.5872 10.8333 16.6667 10.8333H3.33341C2.41294 10.8333 1.66675 10.0871 1.66675 9.16659V7.49992Z" fill="black"/>
<path fill-rule="evenodd" clip-rule="evenodd" d="M10.0001 5.83325C10.4603 5.83325 10.8334 6.20635 10.8334 6.66659V17.4999C10.8334 17.9602 10.4603 18.3333 10.0001 18.3333C9.53984 18.3333 9.16675 17.9602 9.16675 17.4999V6.66659C9.16675 6.20635 9.53984 5.83325 10.0001 5.83325Z" fill="black"/>
<path fill-rule="evenodd" clip-rule="evenodd" d="M4.16659 9.16675C4.62682 9.16675 4.99992 9.53984 4.99992 10.0001V15.8334C4.99992 16.0544 5.08772 16.2664 5.244 16.4227C5.40028 16.579 5.61224 16.6667 5.83325 16.6667H14.1666C14.3876 16.6667 14.5996 16.579 14.7558 16.4227C14.9121 16.2664 14.9999 16.0544 14.9999 15.8334V10.0001C14.9999 9.53984 15.373 9.16675 15.8333 9.16675C16.2935 9.16675 16.6666 9.53984 16.6666 10.0001V15.8334C16.6666 16.4965 16.4032 17.1323 15.9344 17.6012C15.4655 18.07 14.8296 18.3334 14.1666 18.3334H5.83325C5.17021 18.3334 4.53433 18.07 4.06548 17.6012C3.59664 17.1323 3.33325 16.4965 3.33325 15.8334V10.0001C3.33325 9.53984 3.70635 9.16675 4.16659 9.16675Z" fill="black"/>
<path fill-rule="evenodd" clip-rule="evenodd" d="M7.89112 4.17673C7.34103 3.56553 6.76998 3.32436 6.26444 3.33317C6.2596 3.33325 6.25476 3.3333 6.24992 3.3333C5.9184 3.3333 5.60046 3.46499 5.36603 3.69941C5.13161 3.93383 4.99992 4.25178 4.99992 4.5833C4.99992 4.91482 5.13161 5.23276 5.36603 5.46718C5.60046 5.7016 5.9184 5.8333 6.24992 5.8333C6.71016 5.8333 7.08325 6.20639 7.08325 6.66663C7.08325 7.12687 6.71016 7.49996 6.24992 7.49996C5.47637 7.49996 4.7345 7.19267 4.18752 6.64569C3.64054 6.09871 3.33325 5.35684 3.33325 4.5833C3.33325 3.80975 3.64054 3.06788 4.18752 2.5209C4.73278 1.97565 5.47168 1.66858 6.24258 1.66664C7.34203 1.64989 8.34389 2.1884 9.12994 3.06179C9.45799 3.42629 9.7488 3.84814 9.99992 4.31376C10.251 3.84814 10.5418 3.42629 10.8699 3.06179C11.6559 2.1884 12.6578 1.64989 13.7573 1.66664C14.5282 1.66858 15.2671 1.97565 15.8123 2.5209C16.3593 3.06788 16.6666 3.80975 16.6666 4.5833C16.6666 5.35684 16.3593 6.09871 15.8123 6.64569C15.2653 7.19267 14.5235 7.49996 13.7499 7.49996C13.2897 7.49996 12.9166 7.12687 12.9166 6.66663C12.9166 6.20639 13.2897 5.8333 13.7499 5.8333C14.0814 5.8333 14.3994 5.7016 14.6338 5.46718C14.8682 5.23276 14.9999 4.91482 14.9999 4.5833C14.9999 4.25178 14.8682 3.93383 14.6338 3.69941C14.3994 3.46499 14.0814 3.3333 13.7499 3.3333C13.7451 3.3333 13.7402 3.33325 13.7354 3.33317C13.2299 3.32436 12.6588 3.56553 12.1087 4.17673C11.5544 4.79265 11.0875 5.71879 10.8097 6.86315C10.7191 7.23684 10.3845 7.49996 9.99992 7.49996C9.61538 7.49996 9.28077 7.23684 9.19009 6.86315C8.91239 5.71879 8.44544 4.79265 7.89112 4.17673Z" fill="black"/>
</svg>
