<svg width="20" height="20" viewBox="0 0 20 20" fill="none" xmlns="http://www.w3.org/2000/svg">
<path fill-rule="evenodd" clip-rule="evenodd" d="M5.00008 1.66675C5.46032 1.66675 5.83341 2.03984 5.83341 2.50008V12.5001C5.83341 12.9603 5.46032 13.3334 5.00008 13.3334C4.53984 13.3334 4.16675 12.9603 4.16675 12.5001V2.50008C4.16675 2.03984 4.53984 1.66675 5.00008 1.66675Z" fill="black"/>
<path fill-rule="evenodd" clip-rule="evenodd" d="M15.0001 3.33341C14.0796 3.33341 13.3334 4.07961 13.3334 5.00008C13.3334 5.92056 14.0796 6.66675 15.0001 6.66675C15.9206 6.66675 16.6667 5.92056 16.6667 5.00008C16.6667 4.07961 15.9206 3.33341 15.0001 3.33341ZM11.6667 5.00008C11.6667 3.15913 13.1591 1.66675 15.0001 1.66675C16.841 1.66675 18.3334 3.15913 18.3334 5.00008C18.3334 6.84103 16.841 8.33341 15.0001 8.33341C13.1591 8.33341 11.6667 6.84103 11.6667 5.00008Z" fill="black"/>
<path fill-rule="evenodd" clip-rule="evenodd" d="M5.00008 13.3334C4.07961 13.3334 3.33341 14.0796 3.33341 15.0001C3.33341 15.9206 4.07961 16.6667 5.00008 16.6667C5.92056 16.6667 6.66675 15.9206 6.66675 15.0001C6.66675 14.0796 5.92056 13.3334 5.00008 13.3334ZM1.66675 15.0001C1.66675 13.1591 3.15913 11.6667 5.00008 11.6667C6.84103 11.6667 8.33341 13.1591 8.33341 15.0001C8.33341 16.841 6.84103 18.3334 5.00008 18.3334C3.15913 18.3334 1.66675 16.841 1.66675 15.0001Z" fill="black"/>
<path fill-rule="evenodd" clip-rule="evenodd" d="M15.0001 6.66675C15.4603 6.66675 15.8334 7.03984 15.8334 7.50008C15.8334 9.71022 14.9554 11.8298 13.3926 13.3926C11.8298 14.9554 9.71022 15.8334 7.50008 15.8334C7.03984 15.8334 6.66675 15.4603 6.66675 15.0001C6.66675 14.5398 7.03984 14.1667 7.50008 14.1667C9.26819 14.1667 10.9639 13.4644 12.2141 12.2141C13.4644 10.9639 14.1667 9.26819 14.1667 7.50008C14.1667 7.03984 14.5398 6.66675 15.0001 6.66675Z" fill="black"/>
</svg>
