<svg width="20" height="20" viewBox="0 0 20 20" fill="none" xmlns="http://www.w3.org/2000/svg">
<path fill-rule="evenodd" clip-rule="evenodd" d="M10.0001 13.3334C9.07961 13.3334 8.33341 14.0796 8.33341 15.0001C8.33341 15.9206 9.07961 16.6667 10.0001 16.6667C10.9206 16.6667 11.6667 15.9206 11.6667 15.0001C11.6667 14.0796 10.9206 13.3334 10.0001 13.3334ZM6.66675 15.0001C6.66675 13.1591 8.15913 11.6667 10.0001 11.6667C11.841 11.6667 13.3334 13.1591 13.3334 15.0001C13.3334 16.841 11.841 18.3334 10.0001 18.3334C8.15913 18.3334 6.66675 16.841 6.66675 15.0001Z" fill="black"/>
<path fill-rule="evenodd" clip-rule="evenodd" d="M5.00008 3.33341C4.07961 3.33341 3.33341 4.07961 3.33341 5.00008C3.33341 5.92056 4.07961 6.66675 5.00008 6.66675C5.92056 6.66675 6.66675 5.92056 6.66675 5.00008C6.66675 4.07961 5.92056 3.33341 5.00008 3.33341ZM1.66675 5.00008C1.66675 3.15913 3.15913 1.66675 5.00008 1.66675C6.84103 1.66675 8.33341 3.15913 8.33341 5.00008C8.33341 6.84103 6.84103 8.33341 5.00008 8.33341C3.15913 8.33341 1.66675 6.84103 1.66675 5.00008Z" fill="black"/>
<path fill-rule="evenodd" clip-rule="evenodd" d="M15.0001 3.33341C14.0796 3.33341 13.3334 4.07961 13.3334 5.00008C13.3334 5.92056 14.0796 6.66675 15.0001 6.66675C15.9206 6.66675 16.6667 5.92056 16.6667 5.00008C16.6667 4.07961 15.9206 3.33341 15.0001 3.33341ZM11.6667 5.00008C11.6667 3.15913 13.1591 1.66675 15.0001 1.66675C16.841 1.66675 18.3334 3.15913 18.3334 5.00008C18.3334 6.84103 16.841 8.33341 15.0001 8.33341C13.1591 8.33341 11.6667 6.84103 11.6667 5.00008Z" fill="black"/>
<path fill-rule="evenodd" clip-rule="evenodd" d="M5.00008 6.66675C5.46032 6.66675 5.83341 7.03984 5.83341 7.50008V9.16675H14.1667V7.50008C14.1667 7.03984 14.5398 6.66675 15.0001 6.66675C15.4603 6.66675 15.8334 7.03984 15.8334 7.50008V9.16675C15.8334 9.60612 15.6833 10.037 15.3602 10.3602C15.037 10.6833 14.6061 10.8334 14.1667 10.8334H5.83341C5.39404 10.8334 4.96314 10.6833 4.63999 10.3602C4.31684 10.037 4.16675 9.60612 4.16675 9.16675V7.50008C4.16675 7.03984 4.53984 6.66675 5.00008 6.66675Z" fill="black"/>
<path fill-rule="evenodd" clip-rule="evenodd" d="M10.0001 9.16675C10.4603 9.16675 10.8334 9.53984 10.8334 10.0001V12.5001C10.8334 12.9603 10.4603 13.3334 10.0001 13.3334C9.53984 13.3334 9.16675 12.9603 9.16675 12.5001V10.0001C9.16675 9.53984 9.53984 9.16675 10.0001 9.16675Z" fill="black"/>
</svg>
