<svg width="20" height="20" viewBox="0 0 20 20" fill="none" xmlns="http://www.w3.org/2000/svg">
<path fill-rule="evenodd" clip-rule="evenodd" d="M5.00008 1.66675C5.46032 1.66675 5.83341 2.03984 5.83341 2.50008V12.5001C5.83341 12.9603 5.46032 13.3334 5.00008 13.3334C4.53984 13.3334 4.16675 12.9603 4.16675 12.5001V2.50008C4.16675 2.03984 4.53984 1.66675 5.00008 1.66675Z" fill="black"/>
<path fill-rule="evenodd" clip-rule="evenodd" d="M12.6431 2.64306C13.2682 2.01794 14.116 1.66675 15.0001 1.66675C15.8841 1.66675 16.732 2.01794 17.3571 2.64306C17.9822 3.26818 18.3334 4.11603 18.3334 5.00008C18.3334 5.88414 17.9822 6.73198 17.3571 7.3571C16.732 7.98223 15.8841 8.33341 15.0001 8.33341C14.116 8.33341 13.2682 7.98223 12.6431 7.3571C12.0179 6.73198 11.6667 5.88414 11.6667 5.00008C11.6667 4.11603 12.0179 3.26818 12.6431 2.64306ZM15.0001 3.33341C14.5581 3.33341 14.1341 3.50901 13.8216 3.82157C13.509 4.13413 13.3334 4.55805 13.3334 5.00008C13.3334 5.44211 13.509 5.86603 13.8216 6.17859C14.1341 6.49115 14.5581 6.66675 15.0001 6.66675C15.4421 6.66675 15.866 6.49115 16.1786 6.17859C16.4912 5.86603 16.6667 5.44211 16.6667 5.00008C16.6667 4.55805 16.4912 4.13413 16.1786 3.82157C15.866 3.50901 15.4421 3.33341 15.0001 3.33341Z" fill="black"/>
<path fill-rule="evenodd" clip-rule="evenodd" d="M2.64306 12.6431C3.26818 12.0179 4.11603 11.6667 5.00008 11.6667C5.88414 11.6667 6.73198 12.0179 7.3571 12.6431C7.98223 13.2682 8.33341 14.116 8.33341 15.0001C8.33341 15.8841 7.98223 16.732 7.3571 17.3571C6.73198 17.9822 5.88414 18.3334 5.00008 18.3334C4.11603 18.3334 3.26818 17.9822 2.64306 17.3571C2.01794 16.732 1.66675 15.8841 1.66675 15.0001C1.66675 14.116 2.01794 13.2682 2.64306 12.6431ZM5.00008 13.3334C4.55805 13.3334 4.13413 13.509 3.82157 13.8216C3.50901 14.1341 3.33341 14.5581 3.33341 15.0001C3.33341 15.4421 3.50901 15.866 3.82157 16.1786C4.13413 16.4912 4.55805 16.6667 5.00008 16.6667C5.44211 16.6667 5.86603 16.4912 6.17859 16.1786C6.49115 15.866 6.66675 15.4421 6.66675 15.0001C6.66675 14.5581 6.49115 14.1341 6.17859 13.8216C5.86603 13.509 5.44211 13.3334 5.00008 13.3334Z" fill="black"/>
<path fill-rule="evenodd" clip-rule="evenodd" d="M6.60752 6.60752C8.17033 5.04472 10.2899 4.16675 12.5001 4.16675C12.9603 4.16675 13.3334 4.53984 13.3334 5.00008C13.3334 5.46032 12.9603 5.83341 12.5001 5.83341C10.732 5.83341 9.03628 6.53579 7.78604 7.78604C6.53579 9.03628 5.83341 10.732 5.83341 12.5001C5.83341 12.9603 5.46032 13.3334 5.00008 13.3334C4.53984 13.3334 4.16675 12.9603 4.16675 12.5001C4.16675 10.2899 5.04472 8.17033 6.60752 6.60752Z" fill="black"/>
<path fill-rule="evenodd" clip-rule="evenodd" d="M15.0001 11.6667C15.4603 11.6667 15.8334 12.0398 15.8334 12.5001V17.5001C15.8334 17.9603 15.4603 18.3334 15.0001 18.3334C14.5398 18.3334 14.1667 17.9603 14.1667 17.5001V12.5001C14.1667 12.0398 14.5398 11.6667 15.0001 11.6667Z" fill="black"/>
<path fill-rule="evenodd" clip-rule="evenodd" d="M11.6667 15.0001C11.6667 14.5398 12.0398 14.1667 12.5001 14.1667H17.5001C17.9603 14.1667 18.3334 14.5398 18.3334 15.0001C18.3334 15.4603 17.9603 15.8334 17.5001 15.8334H12.5001C12.0398 15.8334 11.6667 15.4603 11.6667 15.0001Z" fill="black"/>
</svg>
