<svg width="20" height="20" viewBox="0 0 20 20" fill="none" xmlns="http://www.w3.org/2000/svg">
<path fill-rule="evenodd" clip-rule="evenodd" d="M5.00008 3.33341C4.07961 3.33341 3.33341 4.07961 3.33341 5.00008C3.33341 5.92056 4.07961 6.66675 5.00008 6.66675C5.92056 6.66675 6.66675 5.92056 6.66675 5.00008C6.66675 4.07961 5.92056 3.33341 5.00008 3.33341ZM1.66675 5.00008C1.66675 3.15913 3.15913 1.66675 5.00008 1.66675C6.84103 1.66675 8.33341 3.15913 8.33341 5.00008C8.33341 6.84103 6.84103 8.33341 5.00008 8.33341C3.15913 8.33341 1.66675 6.84103 1.66675 5.00008Z" fill="black"/>
<path fill-rule="evenodd" clip-rule="evenodd" d="M5.00008 6.66675C5.46032 6.66675 5.83341 7.03984 5.83341 7.50008V17.5001C5.83341 17.9603 5.46032 18.3334 5.00008 18.3334C4.53984 18.3334 4.16675 17.9603 4.16675 17.5001V7.50008C4.16675 7.03984 4.53984 6.66675 5.00008 6.66675Z" fill="black"/>
<path fill-rule="evenodd" clip-rule="evenodd" d="M18.0893 1.91083C18.4148 2.23626 18.4148 2.7639 18.0893 3.08934L13.0893 8.08934C12.7639 8.41477 12.2363 8.41477 11.9108 8.08934C11.5854 7.7639 11.5854 7.23626 11.9108 6.91083L16.9108 1.91083C17.2363 1.58539 17.7639 1.58539 18.0893 1.91083Z" fill="black"/>
<path fill-rule="evenodd" clip-rule="evenodd" d="M11.9108 1.91083C12.2363 1.58539 12.7639 1.58539 13.0893 1.91083L18.0893 6.91083C18.4148 7.23626 18.4148 7.7639 18.0893 8.08934C17.7639 8.41477 17.2363 8.41477 16.9108 8.08934L11.9108 3.08934C11.5854 2.7639 11.5854 2.23626 11.9108 1.91083Z" fill="black"/>
<path fill-rule="evenodd" clip-rule="evenodd" d="M15.0001 8.75C15.4603 8.75 15.8334 9.1231 15.8334 9.58333V12.5C15.8334 12.9602 15.4603 13.3333 15.0001 13.3333C14.5398 13.3333 14.1667 12.9602 14.1667 12.5V9.58333C14.1667 9.1231 14.5398 8.75 15.0001 8.75Z" fill="black"/>
<path fill-rule="evenodd" clip-rule="evenodd" d="M15.0001 13.3334C14.0796 13.3334 13.3334 14.0796 13.3334 15.0001C13.3334 15.9206 14.0796 16.6667 15.0001 16.6667C15.9206 16.6667 16.6667 15.9206 16.6667 15.0001C16.6667 14.0796 15.9206 13.3334 15.0001 13.3334ZM11.6667 15.0001C11.6667 13.1591 13.1591 11.6667 15.0001 11.6667C16.841 11.6667 18.3334 13.1591 18.3334 15.0001C18.3334 16.841 16.841 18.3334 15.0001 18.3334C13.1591 18.3334 11.6667 16.841 11.6667 15.0001Z" fill="black"/>
</svg>
