<svg width="20" height="20" viewBox="0 0 20 20" fill="none" xmlns="http://www.w3.org/2000/svg">
<path fill-rule="evenodd" clip-rule="evenodd" d="M15.0001 13.3334C14.0796 13.3334 13.3334 14.0796 13.3334 15.0001C13.3334 15.9206 14.0796 16.6667 15.0001 16.6667C15.9206 16.6667 16.6667 15.9206 16.6667 15.0001C16.6667 14.0796 15.9206 13.3334 15.0001 13.3334ZM11.6667 15.0001C11.6667 13.1591 13.1591 11.6667 15.0001 11.6667C16.841 11.6667 18.3334 13.1591 18.3334 15.0001C18.3334 16.841 16.841 18.3334 15.0001 18.3334C13.1591 18.3334 11.6667 16.841 11.6667 15.0001Z" fill="black"/>
<path fill-rule="evenodd" clip-rule="evenodd" d="M5.00008 3.33341C4.07961 3.33341 3.33341 4.07961 3.33341 5.00008C3.33341 5.92056 4.07961 6.66675 5.00008 6.66675C5.92056 6.66675 6.66675 5.92056 6.66675 5.00008C6.66675 4.07961 5.92056 3.33341 5.00008 3.33341ZM1.66675 5.00008C1.66675 3.15913 3.15913 1.66675 5.00008 1.66675C6.84103 1.66675 8.33341 3.15913 8.33341 5.00008C8.33341 6.84103 6.84103 8.33341 5.00008 8.33341C3.15913 8.33341 1.66675 6.84103 1.66675 5.00008Z" fill="black"/>
<path fill-rule="evenodd" clip-rule="evenodd" d="M10 5.00008C10 4.53984 10.3731 4.16675 10.8333 4.16675H13.3333C13.9964 4.16675 14.6323 4.43014 15.1011 4.89898C15.5699 5.36782 15.8333 6.00371 15.8333 6.66675V12.5001C15.8333 12.9603 15.4602 13.3334 15 13.3334C14.5398 13.3334 14.1667 12.9603 14.1667 12.5001V6.66675C14.1667 6.44573 14.0789 6.23377 13.9226 6.07749C13.7663 5.92121 13.5543 5.83341 13.3333 5.83341H10.8333C10.3731 5.83341 10 5.46032 10 5.00008Z" fill="black"/>
<path fill-rule="evenodd" clip-rule="evenodd" d="M5.00008 6.66675C5.46032 6.66675 5.83341 7.03984 5.83341 7.50008V13.3334C5.83341 13.5544 5.92121 13.7664 6.07749 13.9227C6.23377 14.079 6.44573 14.1667 6.66675 14.1667H9.16675C9.62699 14.1667 10.0001 14.5398 10.0001 15.0001C10.0001 15.4603 9.62699 15.8334 9.16675 15.8334H6.66675C6.00371 15.8334 5.36782 15.57 4.89898 15.1012C4.43014 14.6323 4.16675 13.9965 4.16675 13.3334V7.50008C4.16675 7.03984 4.53984 6.66675 5.00008 6.66675Z" fill="black"/>
</svg>
