<svg width="20" height="20" viewBox="0 0 20 20" fill="none" xmlns="http://www.w3.org/2000/svg">
<path fill-rule="evenodd" clip-rule="evenodd" d="M15.0001 13.3334C14.0796 13.3334 13.3334 14.0796 13.3334 15.0001C13.3334 15.9206 14.0796 16.6667 15.0001 16.6667C15.9206 16.6667 16.6667 15.9206 16.6667 15.0001C16.6667 14.0796 15.9206 13.3334 15.0001 13.3334ZM11.6667 15.0001C11.6667 13.1591 13.1591 11.6667 15.0001 11.6667C16.841 11.6667 18.3334 13.1591 18.3334 15.0001C18.3334 16.841 16.841 18.3334 15.0001 18.3334C13.1591 18.3334 11.6667 16.841 11.6667 15.0001Z" fill="black"/>
<path fill-rule="evenodd" clip-rule="evenodd" d="M5.00008 3.33341C4.07961 3.33341 3.33341 4.07961 3.33341 5.00008C3.33341 5.92056 4.07961 6.66675 5.00008 6.66675C5.92056 6.66675 6.66675 5.92056 6.66675 5.00008C6.66675 4.07961 5.92056 3.33341 5.00008 3.33341ZM1.66675 5.00008C1.66675 3.15913 3.15913 1.66675 5.00008 1.66675C6.84103 1.66675 8.33341 3.15913 8.33341 5.00008C8.33341 6.84103 6.84103 8.33341 5.00008 8.33341C3.15913 8.33341 1.66675 6.84103 1.66675 5.00008Z" fill="black"/>
<path fill-rule="evenodd" clip-rule="evenodd" d="M15.0001 3.33325C15.4603 3.33325 15.8334 3.70635 15.8334 4.16659V4.99992C15.8334 5.46016 15.4603 5.83325 15.0001 5.83325C14.5398 5.83325 14.1667 5.46016 14.1667 4.99992V4.16659C14.1667 3.70635 14.5398 3.33325 15.0001 3.33325Z" fill="black"/>
<path fill-rule="evenodd" clip-rule="evenodd" d="M15.0001 7.5C15.4603 7.5 15.8334 7.8731 15.8334 8.33333V9.16667C15.8334 9.6269 15.4603 10 15.0001 10C14.5398 10 14.1667 9.6269 14.1667 9.16667V8.33333C14.1667 7.8731 14.5398 7.5 15.0001 7.5Z" fill="black"/>
<path fill-rule="evenodd" clip-rule="evenodd" d="M5.00008 6.66675C5.46032 6.66675 5.83341 7.03984 5.83341 7.50008V17.5001C5.83341 17.9603 5.46032 18.3334 5.00008 18.3334C4.53984 18.3334 4.16675 17.9603 4.16675 17.5001V7.50008C4.16675 7.03984 4.53984 6.66675 5.00008 6.66675Z" fill="black"/>
</svg>
