<svg width="20" height="20" viewBox="0 0 20 20" fill="none" xmlns="http://www.w3.org/2000/svg">
<path fill-rule="evenodd" clip-rule="evenodd" d="M10.0001 1.66675C10.4603 1.66675 10.8334 2.03984 10.8334 2.50008V7.50008C10.8334 7.96032 10.4603 8.33341 10.0001 8.33341C9.53984 8.33341 9.16675 7.96032 9.16675 7.50008V2.50008C9.16675 2.03984 9.53984 1.66675 10.0001 1.66675Z" fill="black"/>
<path fill-rule="evenodd" clip-rule="evenodd" d="M10.0001 8.33341C9.07961 8.33341 8.33341 9.07961 8.33341 10.0001C8.33341 10.9206 9.07961 11.6667 10.0001 11.6667C10.9206 11.6667 11.6667 10.9206 11.6667 10.0001C11.6667 9.07961 10.9206 8.33341 10.0001 8.33341ZM6.66675 10.0001C6.66675 8.15913 8.15913 6.66675 10.0001 6.66675C11.841 6.66675 13.3334 8.15913 13.3334 10.0001C13.3334 11.841 11.841 13.3334 10.0001 13.3334C8.15913 13.3334 6.66675 11.841 6.66675 10.0001Z" fill="black"/>
<path fill-rule="evenodd" clip-rule="evenodd" d="M10.0001 11.6667C10.4603 11.6667 10.8334 12.0398 10.8334 12.5001V17.5001C10.8334 17.9603 10.4603 18.3334 10.0001 18.3334C9.53984 18.3334 9.16675 17.9603 9.16675 17.5001V12.5001C9.16675 12.0398 9.53984 11.6667 10.0001 11.6667Z" fill="black"/>
</svg>
