<svg width="20" height="20" viewBox="0 0 20 20" fill="none" xmlns="http://www.w3.org/2000/svg">
<path fill-rule="evenodd" clip-rule="evenodd" d="M4.16658 3.33341C3.24611 3.33341 2.49992 4.07961 2.49992 5.00008C2.49992 5.92056 3.24611 6.66675 4.16658 6.66675C5.08706 6.66675 5.83325 5.92056 5.83325 5.00008C5.83325 4.07961 5.08706 3.33341 4.16658 3.33341ZM0.833252 5.00008C0.833252 3.15913 2.32564 1.66675 4.16658 1.66675C6.00753 1.66675 7.49992 3.15913 7.49992 5.00008C7.49992 6.84103 6.00753 8.33341 4.16658 8.33341C2.32564 8.33341 0.833252 6.84103 0.833252 5.00008Z" fill="black"/>
<path fill-rule="evenodd" clip-rule="evenodd" d="M4.16659 6.66675C4.62682 6.66675 4.99992 7.03984 4.99992 7.50008V12.5001C4.99992 12.9603 4.62682 13.3334 4.16659 13.3334C3.70635 13.3334 3.33325 12.9603 3.33325 12.5001V7.50008C3.33325 7.03984 3.70635 6.66675 4.16659 6.66675Z" fill="black"/>
<path fill-rule="evenodd" clip-rule="evenodd" d="M4.16658 13.3334C3.24611 13.3334 2.49992 14.0796 2.49992 15.0001C2.49992 15.9206 3.24611 16.6667 4.16658 16.6667C5.08706 16.6667 5.83325 15.9206 5.83325 15.0001C5.83325 14.0796 5.08706 13.3334 4.16658 13.3334ZM0.833252 15.0001C0.833252 13.1591 2.32564 11.6667 4.16658 11.6667C6.00753 11.6667 7.49992 13.1591 7.49992 15.0001C7.49992 16.841 6.00753 18.3334 4.16658 18.3334C2.32564 18.3334 0.833252 16.841 0.833252 15.0001Z" fill="black"/>
<path fill-rule="evenodd" clip-rule="evenodd" d="M10.0001 1.66675C10.4603 1.66675 10.8334 2.03984 10.8334 2.50008V17.5001C10.8334 17.9603 10.4603 18.3334 10.0001 18.3334C9.53984 18.3334 9.16675 17.9603 9.16675 17.5001V2.50008C9.16675 2.03984 9.53984 1.66675 10.0001 1.66675Z" fill="black"/>
<path fill-rule="evenodd" clip-rule="evenodd" d="M15.8333 3.33341C14.9129 3.33341 14.1667 4.07961 14.1667 5.00008C14.1667 5.92056 14.9129 6.66675 15.8333 6.66675C16.7538 6.66675 17.5 5.92056 17.5 5.00008C17.5 4.07961 16.7538 3.33341 15.8333 3.33341ZM12.5 5.00008C12.5 3.15913 13.9924 1.66675 15.8333 1.66675C17.6743 1.66675 19.1667 3.15913 19.1667 5.00008C19.1667 6.84103 17.6743 8.33341 15.8333 8.33341C13.9924 8.33341 12.5 6.84103 12.5 5.00008Z" fill="black"/>
<path fill-rule="evenodd" clip-rule="evenodd" d="M15.8341 6.66675C16.2943 6.66717 16.6671 7.0406 16.6667 7.50084C16.6656 8.67204 16.4177 9.82985 15.939 10.8988C15.4604 11.9677 14.7619 12.9237 13.8889 13.7045C13.5459 14.0114 13.019 13.982 12.7122 13.639C12.4054 13.2959 12.4347 12.7691 12.7778 12.4623C13.4762 11.8376 14.035 11.0728 14.4179 10.2177C14.8008 9.36253 14.9992 8.43628 15 7.49932C15.0004 7.03908 15.3739 6.66633 15.8341 6.66675Z" fill="black"/>
</svg>
