<svg width="20" height="20" viewBox="0 0 20 20" fill="none" xmlns="http://www.w3.org/2000/svg">
<path fill-rule="evenodd" clip-rule="evenodd" d="M4.16658 3.33341C3.24611 3.33341 2.49992 4.07961 2.49992 5.00008C2.49992 5.92056 3.24611 6.66675 4.16658 6.66675C5.08706 6.66675 5.83325 5.92056 5.83325 5.00008C5.83325 4.07961 5.08706 3.33341 4.16658 3.33341ZM0.833252 5.00008C0.833252 3.15913 2.32564 1.66675 4.16658 1.66675C6.00753 1.66675 7.49992 3.15913 7.49992 5.00008C7.49992 6.84103 6.00753 8.33341 4.16658 8.33341C2.32564 8.33341 0.833252 6.84103 0.833252 5.00008Z" fill="black"/>
<path fill-rule="evenodd" clip-rule="evenodd" d="M4.16659 6.66675C4.62682 6.66675 4.99992 7.03984 4.99992 7.50008V17.5001C4.99992 17.9603 4.62682 18.3334 4.16659 18.3334C3.70635 18.3334 3.33325 17.9603 3.33325 17.5001V7.50008C3.33325 7.03984 3.70635 6.66675 4.16659 6.66675Z" fill="black"/>
<path fill-rule="evenodd" clip-rule="evenodd" d="M13.0893 1.91083C13.4148 2.23626 13.4148 2.7639 13.0893 3.08934L11.1786 5.00008L13.0893 6.91083C13.4148 7.23626 13.4148 7.7639 13.0893 8.08934C12.7639 8.41477 12.2363 8.41477 11.9108 8.08934L9.41083 5.58934C9.08539 5.2639 9.08539 4.73626 9.41083 4.41083L11.9108 1.91083C12.2363 1.58539 12.7639 1.58539 13.0893 1.91083Z" fill="black"/>
<path fill-rule="evenodd" clip-rule="evenodd" d="M9.16675 5.00008C9.16675 4.53984 9.53984 4.16675 10.0001 4.16675H14.1667C14.8298 4.16675 15.4657 4.43014 15.9345 4.89898C16.4034 5.36782 16.6667 6.00371 16.6667 6.66675V9.16675C16.6667 9.62699 16.2937 10.0001 15.8334 10.0001C15.3732 10.0001 15.0001 9.62699 15.0001 9.16675V6.66675C15.0001 6.44573 14.9123 6.23377 14.756 6.07749C14.5997 5.92121 14.3878 5.83341 14.1667 5.83341H10.0001C9.53984 5.83341 9.16675 5.46032 9.16675 5.00008Z" fill="black"/>
<path fill-rule="evenodd" clip-rule="evenodd" d="M15.8333 11.6667C16.2936 11.6667 16.6667 12.0398 16.6667 12.5001V17.5001C16.6667 17.9603 16.2936 18.3334 15.8333 18.3334C15.3731 18.3334 15 17.9603 15 17.5001V12.5001C15 12.0398 15.3731 11.6667 15.8333 11.6667Z" fill="black"/>
<path fill-rule="evenodd" clip-rule="evenodd" d="M12.5 15.0001C12.5 14.5398 12.8731 14.1667 13.3333 14.1667H18.3333C18.7936 14.1667 19.1667 14.5398 19.1667 15.0001C19.1667 15.4603 18.7936 15.8334 18.3333 15.8334H13.3333C12.8731 15.8334 12.5 15.4603 12.5 15.0001Z" fill="black"/>
</svg>
