<svg width="20" height="20" viewBox="0 0 20 20" fill="none" xmlns="http://www.w3.org/2000/svg">
<path fill-rule="evenodd" clip-rule="evenodd" d="M10.0001 8.33341C9.07961 8.33341 8.33341 9.07961 8.33341 10.0001C8.33341 10.9206 9.07961 11.6667 10.0001 11.6667C10.9206 11.6667 11.6667 10.9206 11.6667 10.0001C11.6667 9.07961 10.9206 8.33341 10.0001 8.33341ZM6.66675 10.0001C6.66675 8.15913 8.15913 6.66675 10.0001 6.66675C11.841 6.66675 13.3334 8.15913 13.3334 10.0001C13.3334 11.841 11.841 13.3334 10.0001 13.3334C8.15913 13.3334 6.66675 11.841 6.66675 10.0001Z" fill="black"/>
<path fill-rule="evenodd" clip-rule="evenodd" d="M1.66675 10.0001C1.66675 9.53984 2.03984 9.16675 2.50008 9.16675H7.50008C7.96032 9.16675 8.33341 9.53984 8.33341 10.0001C8.33341 10.4603 7.96032 10.8334 7.50008 10.8334H2.50008C2.03984 10.8334 1.66675 10.4603 1.66675 10.0001Z" fill="black"/>
<path fill-rule="evenodd" clip-rule="evenodd" d="M11.6667 10.0001C11.6667 9.53984 12.0398 9.16675 12.5001 9.16675H17.5001C17.9603 9.16675 18.3334 9.53984 18.3334 10.0001C18.3334 10.4603 17.9603 10.8334 17.5001 10.8334H12.5001C12.0398 10.8334 11.6667 10.4603 11.6667 10.0001Z" fill="black"/>
</svg>
