<svg width="20" height="20" viewBox="0 0 20 20" fill="none" xmlns="http://www.w3.org/2000/svg">
<path fill-rule="evenodd" clip-rule="evenodd" d="M15.0001 13.3334C14.0796 13.3334 13.3334 14.0796 13.3334 15.0001C13.3334 15.9206 14.0796 16.6667 15.0001 16.6667C15.9206 16.6667 16.6667 15.9206 16.6667 15.0001C16.6667 14.0796 15.9206 13.3334 15.0001 13.3334ZM11.6667 15.0001C11.6667 13.1591 13.1591 11.6667 15.0001 11.6667C16.841 11.6667 18.3334 13.1591 18.3334 15.0001C18.3334 16.841 16.841 18.3334 15.0001 18.3334C13.1591 18.3334 11.6667 16.841 11.6667 15.0001Z" fill="black"/>
<path fill-rule="evenodd" clip-rule="evenodd" d="M5.00008 3.33341C4.07961 3.33341 3.33341 4.07961 3.33341 5.00008C3.33341 5.92056 4.07961 6.66675 5.00008 6.66675C5.92056 6.66675 6.66675 5.92056 6.66675 5.00008C6.66675 4.07961 5.92056 3.33341 5.00008 3.33341ZM1.66675 5.00008C1.66675 3.15913 3.15913 1.66675 5.00008 1.66675C6.84103 1.66675 8.33341 3.15913 8.33341 5.00008C8.33341 6.84103 6.84103 8.33341 5.00008 8.33341C3.15913 8.33341 1.66675 6.84103 1.66675 5.00008Z" fill="black"/>
<path fill-rule="evenodd" clip-rule="evenodd" d="M5.00008 6.66675C5.46032 6.66675 5.83341 7.03984 5.83341 7.50008C5.83341 9.26819 6.53579 10.9639 7.78604 12.2141C9.03628 13.4644 10.732 14.1667 12.5001 14.1667C12.9603 14.1667 13.3334 14.5398 13.3334 15.0001C13.3334 15.4603 12.9603 15.8334 12.5001 15.8334C10.2899 15.8334 8.17033 14.9554 6.60752 13.3926C6.32706 13.1122 6.06865 12.8138 5.83341 12.5001V17.5001C5.83341 17.9603 5.46032 18.3334 5.00008 18.3334C4.53984 18.3334 4.16675 17.9603 4.16675 17.5001V7.50008C4.16675 7.03984 4.53984 6.66675 5.00008 6.66675Z" fill="black"/>
</svg>
