<svg width="20" height="20" viewBox="0 0 20 20" fill="none" xmlns="http://www.w3.org/2000/svg">
<path fill-rule="evenodd" clip-rule="evenodd" d="M4.16674 0.833252V1.66659C4.16674 0.833252 4.16735 0.833252 4.16797 0.833253L4.16922 0.833256C4.16964 0.833257 4.17007 0.833258 4.1705 0.83326C4.17092 0.833262 4.17135 0.833264 4.17177 0.833267C4.1735 0.833277 4.17528 0.833292 4.17711 0.833314C4.18078 0.833357 4.18464 0.833424 4.18871 0.833519C4.19684 0.83371 4.20578 0.834014 4.21552 0.834471C4.23502 0.835385 4.25771 0.836906 4.28359 0.839332C4.33537 0.844186 4.39972 0.852648 4.47656 0.867056C4.63039 0.895899 4.8331 0.948346 5.08434 1.04256C5.52904 1.20932 6.12411 1.50628 6.86986 2.03358C8.94 1.68314 11.0601 1.68314 13.1303 2.03358C13.876 1.50628 14.4711 1.20932 14.9158 1.04256C15.167 0.948346 15.3698 0.895899 15.5236 0.867056C15.6004 0.852648 15.6648 0.844186 15.7166 0.839332C15.7424 0.836906 15.7651 0.835385 15.7846 0.834471C15.7944 0.834014 15.8033 0.83371 15.8114 0.833519C15.8155 0.833424 15.8194 0.833357 15.823 0.833314C15.8249 0.833292 15.8266 0.833277 15.8284 0.833267L15.8309 0.833256L15.8322 0.833253C15.8328 0.833252 15.8334 0.833252 15.8334 1.66659V0.833252C16.2177 0.833252 16.5522 1.09605 16.6431 1.46945C16.8785 2.43628 16.9047 3.44051 16.7217 4.41566C17.2937 5.34798 17.5648 6.42975 17.5 7.52643C17.4873 10.4629 15.3587 12.2694 13.0157 12.7723C13.3 13.4871 13.412 14.2657 13.3334 15.0439V18.3333C13.3334 18.7935 12.9603 19.1666 12.5001 19.1666C12.0398 19.1666 11.6667 18.7935 11.6667 18.3333V14.9999C11.6667 14.9692 11.6684 14.9385 11.6718 14.9079C11.7636 14.0815 11.5266 13.2521 11.0121 12.5989C10.8146 12.3482 10.7777 12.0066 10.917 11.7194C11.0564 11.4323 11.3475 11.2499 11.6667 11.2499C13.8552 11.2499 15.8334 9.82054 15.8334 7.49992C15.8334 7.48216 15.834 7.46441 15.8351 7.44669C15.8895 6.5961 15.6518 5.76138 15.1557 5.06825C15.0145 4.87093 14.9663 4.62187 15.0237 4.38611C15.1545 3.84915 15.2005 3.29708 15.1618 2.74947C14.8336 2.90777 14.3907 3.16527 13.8334 3.58325C13.6461 3.72372 13.4084 3.77893 13.1783 3.73536C11.0808 3.3381 8.91934 3.3381 6.82181 3.73536C6.59178 3.77893 6.35403 3.72372 6.16674 3.58325C5.60319 3.16059 5.15666 2.90202 4.82732 2.74419C4.78505 3.28903 4.83364 3.83834 4.97309 4.3729C5.03559 4.61249 4.98831 4.86747 4.84406 5.06872C4.34959 5.7586 4.1096 6.59858 4.16496 7.44556C4.16615 7.46366 4.16674 7.48179 4.16674 7.49992C4.16674 9.82054 6.14493 11.2499 8.33341 11.2499C8.65337 11.2499 8.94508 11.4331 9.08404 11.7213C9.223 12.0095 9.18468 12.3519 8.98543 12.6022C8.72771 12.926 8.53778 13.2939 8.42684 13.6854C8.31511 14.0798 8.28178 14.4958 8.32814 14.9064C8.33165 14.9375 8.33341 14.9687 8.33341 14.9999V18.3333C8.33341 18.7935 7.96031 19.1666 7.50007 19.1666C7.03983 19.1666 6.66674 18.7935 6.66674 18.3333V15.0446C6.60439 14.4376 6.65618 13.8209 6.8233 13.2311C6.86758 13.0748 6.91983 12.9214 6.97969 12.7713C4.63868 12.267 2.51312 10.4612 2.50013 7.52697C2.43432 6.43418 2.70635 5.35062 3.27468 4.42166C3.07803 3.4402 3.1066 2.42908 3.36039 1.45623C3.45612 1.08929 3.78752 0.833252 4.16674 0.833252Z" fill="black"/>
<path fill-rule="evenodd" clip-rule="evenodd" d="M0.833252 13.3333C0.833252 12.8731 1.20635 12.5 1.66659 12.5C2.38774 12.5 2.91894 12.8703 3.29763 13.1977C3.45785 13.3362 3.61711 13.4911 3.7594 13.6295C3.78469 13.6541 3.80944 13.6782 3.83357 13.7016C4.00268 13.8654 4.15758 14.0113 4.31988 14.1413C4.63535 14.394 4.9518 14.5645 5.34616 14.6165C5.74693 14.6693 6.3204 14.6115 7.1621 14.2382C7.58282 14.0516 8.07513 14.2415 8.26171 14.6622C8.44828 15.0829 8.25846 15.5752 7.83774 15.7618C6.80027 16.2219 5.91333 16.3723 5.12841 16.2689C4.3371 16.1646 3.74261 15.8143 3.27787 15.4421C3.05007 15.2596 2.84755 15.0669 2.67391 14.8987C2.64481 14.8705 2.61677 14.8432 2.58962 14.8168C2.44621 14.6775 2.32765 14.5623 2.20768 14.4586C1.9236 14.213 1.77877 14.1667 1.66659 14.1667C1.20635 14.1667 0.833252 13.7936 0.833252 13.3333Z" fill="black"/>
</svg>
