<svg width="20" height="20" viewBox="0 0 20 20" fill="none" xmlns="http://www.w3.org/2000/svg">
<path fill-rule="evenodd" clip-rule="evenodd" d="M4.76277 1.66678C5.0337 1.65689 5.29988 1.74307 5.5139 1.91075C5.54704 1.93671 5.57817 1.96515 5.60701 1.99581C5.73386 2.13069 5.82719 2.29333 5.87967 2.47057L7.53394 7.43341H12.4691L14.1607 2.44098C14.166 2.42534 14.1718 2.40987 14.178 2.39457C14.2602 2.19239 14.3967 2.01687 14.5724 1.88743C14.5783 1.88314 14.5842 1.87892 14.5901 1.87478C14.7902 1.73527 15.0293 1.66251 15.2732 1.66687C15.3055 1.66745 15.3377 1.6699 15.3697 1.67422C15.6002 1.7053 15.8152 1.80543 15.987 1.96063C16.1381 2.0853 16.2563 2.24578 16.3303 2.42791C16.3371 2.44455 16.3433 2.46141 16.349 2.47845L19.124 10.8118C19.1244 10.8131 19.1249 10.8145 19.1253 10.8158C19.2258 11.1229 19.219 11.455 19.1059 11.7577C18.9975 12.0481 18.7975 12.2948 18.5367 12.4609L10.4824 18.1796C10.194 18.3843 9.80769 18.3847 9.51886 18.1805L1.41053 12.4472C1.40824 12.4455 1.40596 12.4439 1.40369 12.4423C1.15449 12.2623 0.968952 12.0077 0.873857 11.7154C0.778762 11.4231 0.779034 11.1081 0.874633 10.8159C0.875022 10.8147 0.875413 10.8135 0.875807 10.8124C0.87608 10.8115 0.876353 10.8107 0.876628 10.8099L3.68496 2.44323C3.69047 2.42683 3.69648 2.4106 3.703 2.39457C3.7852 2.19238 3.92171 2.01687 4.09744 1.88743C4.10327 1.88314 4.10916 1.87892 4.1151 1.87478C4.30552 1.74203 4.5312 1.66972 4.76277 1.66678ZM4.77606 4.43022L6.14274 8.53026C6.25617 8.87055 6.57462 9.10007 6.93331 9.10007H13.0666C13.4238 9.10007 13.7413 8.87245 13.8559 8.53416L15.2443 4.43646L17.4846 11.1639L9.99899 16.4788L2.50945 11.183L4.77606 4.43022Z" fill="black"/>
</svg>
