<svg width="20" height="20" viewBox="0 0 20 20" fill="none" xmlns="http://www.w3.org/2000/svg">
<path fill-rule="evenodd" clip-rule="evenodd" d="M3.54744 1.94232C3.70547 1.7669 3.93049 1.66675 4.16659 1.66675H15.8333C16.0694 1.66675 16.2945 1.76697 16.4526 1.94249C16.6106 2.11802 16.6867 2.35236 16.662 2.58724L15.1537 16.9292C15.0888 17.5437 14.7987 18.1123 14.3394 18.5254C13.8801 18.9385 13.2843 19.167 12.6666 19.1667C12.6664 19.1667 12.6663 19.1667 12.6661 19.1667H7.33522C6.71619 19.1695 6.1181 18.9425 5.65679 18.5296C5.19481 18.1162 4.90295 17.5458 4.83786 16.9292L3.33778 2.58677C3.31322 2.35195 3.38942 2.11773 3.54744 1.94232ZM5.09163 3.33341L6.49532 16.7543C6.49533 16.7544 6.49535 16.7546 6.49537 16.7547C6.51716 16.9601 6.61442 17.15 6.76829 17.2877C6.92228 17.4255 7.12199 17.5012 7.32865 17.5001C7.33019 17.5001 7.33172 17.5001 7.33326 17.5001H12.667C12.873 17.5002 13.0717 17.424 13.2248 17.2863C13.3778 17.1487 13.4745 16.9593 13.4962 16.7546C13.4962 16.7545 13.4962 16.7545 13.4962 16.7544C13.4962 16.7544 13.4962 16.7543 13.4962 16.7542L14.9077 3.33341H5.09163Z" fill="black"/>
<path fill-rule="evenodd" clip-rule="evenodd" d="M7.49989 9.99992C6.77865 9.99992 6.07687 10.2338 5.49989 10.6666C5.1317 10.9427 4.60936 10.8681 4.33322 10.4999C4.05708 10.1317 4.1317 9.60939 4.49989 9.33325C5.36537 8.68414 6.41804 8.33325 7.49989 8.33325C8.58174 8.33325 9.6344 8.68414 10.4999 9.33325C11.0769 9.76599 11.7787 9.99992 12.4999 9.99992C13.2211 9.99992 13.9229 9.76599 14.4999 9.33325C14.8681 9.05711 15.3904 9.13173 15.6666 9.49992C15.9427 9.86811 15.8681 10.3904 15.4999 10.6666C14.6344 11.3157 13.5817 11.6666 12.4999 11.6666C11.418 11.6666 10.3654 11.3157 9.49989 10.6666C8.9229 10.2338 8.22112 9.99992 7.49989 9.99992Z" fill="black"/>
</svg>
