<svg width="20" height="20" viewBox="0 0 20 20" fill="none" xmlns="http://www.w3.org/2000/svg">
<path fill-rule="evenodd" clip-rule="evenodd" d="M4.99992 9.99992C3.61921 9.99992 2.49992 11.1192 2.49992 12.4999C2.49992 13.8806 3.61921 14.9999 4.99992 14.9999C6.38063 14.9999 7.49992 13.8806 7.49992 12.4999C7.49992 11.1192 6.38063 9.99992 4.99992 9.99992ZM0.833252 12.4999C0.833252 10.1987 2.69873 8.33325 4.99992 8.33325C7.30111 8.33325 9.16658 10.1987 9.16658 12.4999C9.16658 14.8011 7.30111 16.6666 4.99992 16.6666C2.69873 16.6666 0.833252 14.8011 0.833252 12.4999Z" fill="black"/>
<path fill-rule="evenodd" clip-rule="evenodd" d="M14.9999 9.99992C13.6192 9.99992 12.4999 11.1192 12.4999 12.4999C12.4999 13.8806 13.6192 14.9999 14.9999 14.9999C16.3806 14.9999 17.4999 13.8806 17.4999 12.4999C17.4999 11.1192 16.3806 9.99992 14.9999 9.99992ZM10.8333 12.4999C10.8333 10.1987 12.6987 8.33325 14.9999 8.33325C17.3011 8.33325 19.1666 10.1987 19.1666 12.4999C19.1666 14.8011 17.3011 16.6666 14.9999 16.6666C12.6987 16.6666 10.8333 14.8011 10.8333 12.4999Z" fill="black"/>
<path fill-rule="evenodd" clip-rule="evenodd" d="M8.23223 10.7322C8.70107 10.2634 9.33696 10 10 10C10.663 10 11.2989 10.2634 11.7678 10.7322C12.2366 11.2011 12.5 11.837 12.5 12.5C12.5 12.9602 12.1269 13.3333 11.6667 13.3333C11.2064 13.3333 10.8333 12.9602 10.8333 12.5C10.8333 12.279 10.7455 12.067 10.5893 11.9107C10.433 11.7545 10.221 11.6667 10 11.6667C9.77899 11.6667 9.56703 11.7545 9.41074 11.9107C9.25446 12.067 9.16667 12.279 9.16667 12.5C9.16667 12.9602 8.79357 13.3333 8.33333 13.3333C7.8731 13.3333 7.5 12.9602 7.5 12.5C7.5 11.837 7.76339 11.2011 8.23223 10.7322Z" fill="black"/>
<path fill-rule="evenodd" clip-rule="evenodd" d="M4.91959 6.19285C5.1846 5.70643 5.39956 5.43252 5.62661 5.26683C5.83596 5.11406 6.1301 4.99992 6.66664 4.99992C7.12688 4.99992 7.49997 4.62682 7.49997 4.16659C7.49997 3.70635 7.12688 3.33325 6.66664 3.33325C5.86984 3.33325 5.20565 3.51078 4.64417 3.92051C4.10585 4.31333 3.74235 4.86349 3.43291 5.43817C3.41985 5.46242 3.408 5.48731 3.39741 5.51274L1.31408 10.5127C1.13706 10.9376 1.33796 11.4255 1.76279 11.6025C2.18763 11.7795 2.67552 11.5786 2.85254 11.1538L4.91959 6.19285Z" fill="black"/>
<path fill-rule="evenodd" clip-rule="evenodd" d="M12.5 4.16659C12.5 3.70635 12.8731 3.33325 13.3333 3.33325C14.0984 3.33325 14.7545 3.51538 15.316 3.91435C15.8602 4.30102 16.2468 4.84344 16.5671 5.43817C16.5801 5.46242 16.592 5.48731 16.6026 5.51274L18.6859 10.5127C18.8629 10.9376 18.662 11.4255 18.2372 11.6025C17.8123 11.7795 17.3245 11.5786 17.1474 11.1538L15.0805 6.19311C14.8249 5.72568 14.5921 5.44455 14.3507 5.27299C14.1205 5.10946 13.8183 4.99992 13.3333 4.99992C12.8731 4.99992 12.5 4.62682 12.5 4.16659Z" fill="black"/>
</svg>
