<svg width="20" height="20" viewBox="0 0 20 20" fill="none" xmlns="http://www.w3.org/2000/svg">
<g clip-path="url(#clip0_2001_7313)">
<path fill-rule="evenodd" clip-rule="evenodd" d="M9.99992 2.49992C5.85778 2.49992 2.49992 5.85778 2.49992 9.99992C2.49992 14.1421 5.85778 17.4999 9.99992 17.4999C14.1421 17.4999 17.4999 14.1421 17.4999 9.99992C17.4999 5.85778 14.1421 2.49992 9.99992 2.49992ZM0.833252 9.99992C0.833252 4.93731 4.93731 0.833252 9.99992 0.833252C15.0625 0.833252 19.1666 4.93731 19.1666 9.99992C19.1666 15.0625 15.0625 19.1666 9.99992 19.1666C4.93731 19.1666 0.833252 15.0625 0.833252 9.99992Z" fill="black"/>
<path fill-rule="evenodd" clip-rule="evenodd" d="M9.99992 0.833252C10.228 0.833252 10.4461 0.926723 10.6034 1.09187C12.8907 3.49362 14.1666 6.68322 14.1666 9.99992C14.1666 13.3166 12.8907 16.5062 10.6034 18.908C10.4461 19.0731 10.228 19.1666 9.99992 19.1666C9.77185 19.1666 9.55376 19.0731 9.39647 18.908C7.10909 16.5062 5.83325 13.3166 5.83325 9.99992C5.83325 6.68322 7.10909 3.49362 9.39647 1.09187C9.55376 0.926723 9.77185 0.833252 9.99992 0.833252ZM9.99992 2.92881C8.38808 4.92322 7.49992 7.41733 7.49992 9.99992C7.49992 12.5825 8.38808 15.0766 9.99992 17.071C11.6118 15.0766 12.4999 12.5825 12.4999 9.99992C12.4999 7.41733 11.6118 4.92322 9.99992 2.92881Z" fill="black"/>
<path fill-rule="evenodd" clip-rule="evenodd" d="M0.833252 10.0001C0.833252 9.53984 1.20635 9.16675 1.66659 9.16675H18.3333C18.7935 9.16675 19.1666 9.53984 19.1666 10.0001C19.1666 10.4603 18.7935 10.8334 18.3333 10.8334H1.66659C1.20635 10.8334 0.833252 10.4603 0.833252 10.0001Z" fill="black"/>
</g>
<defs>
<clipPath id="clip0_2001_7313">
<rect width="20" height="20" fill="white"/>
</clipPath>
</defs>
</svg>
