<svg width="20" height="20" viewBox="0 0 20 20" fill="none" xmlns="http://www.w3.org/2000/svg">
<g clip-path="url(#clip0_2001_7308)">
<path fill-rule="evenodd" clip-rule="evenodd" d="M5.20152 2.19082C6.64475 1.3036 8.30561 0.833694 9.99973 0.833252C10.3331 0.833165 10.6345 1.0318 10.7659 1.33822C10.8972 1.64464 10.8333 1.99987 10.6034 2.2413C8.61116 4.33314 7.49995 7.11118 7.49995 9.99992C7.49995 12.5825 8.3881 15.0766 9.99991 17.071C11.1131 15.6934 11.8881 14.0688 12.2563 12.3275C12.3515 11.8772 12.7937 11.5894 13.244 11.6846C13.6943 11.7798 13.9821 12.222 13.8869 12.6723C13.5397 14.3142 12.8775 15.8659 11.9438 17.2442C13.0401 16.9504 14.0586 16.4107 14.9202 15.6623C15.9667 14.7533 16.7408 13.5722 17.1567 12.2499C17.2947 11.8109 17.7626 11.5669 18.2016 11.705C18.6407 11.843 18.8846 12.3109 18.7466 12.7499C18.2383 14.366 17.2922 15.8096 16.0132 16.9206C14.7341 18.0315 13.1723 18.7662 11.5009 19.0432C9.82961 19.3202 8.11422 19.1286 6.54519 18.4898C4.97615 17.8509 3.61486 16.7897 2.61242 15.424C1.60999 14.0582 1.00563 12.4414 0.866444 10.7531C0.727255 9.06466 1.05868 7.37072 1.82392 5.85928C2.58917 4.34784 3.7583 3.07803 5.20152 2.19082ZM8.05495 17.2428C7.75635 17.1625 7.46201 17.0635 7.17372 16.9462C5.88996 16.4234 4.77618 15.5552 3.956 14.4378C3.13583 13.3204 2.64136 11.9975 2.52748 10.6161C2.41359 9.23471 2.68476 7.84876 3.31087 6.61212C3.93698 5.37549 4.89354 4.33656 6.07436 3.61066C6.69292 3.2304 7.36035 2.94383 8.05495 2.75709C6.61619 4.88163 5.83328 7.40178 5.83328 9.99992C5.83328 12.5981 6.61619 15.1182 8.05495 17.2428Z" fill="black"/>
<path fill-rule="evenodd" clip-rule="evenodd" d="M0.833252 10.0001C0.833252 9.53984 1.20635 9.16675 1.66659 9.16675H8.74992C9.21016 9.16675 9.58325 9.53984 9.58325 10.0001C9.58325 10.4603 9.21016 10.8334 8.74992 10.8334H1.66659C1.20635 10.8334 0.833252 10.4603 0.833252 10.0001Z" fill="black"/>
<path fill-rule="evenodd" clip-rule="evenodd" d="M13.2322 1.56549C13.7011 1.09664 14.337 0.833252 15 0.833252C15.663 0.833252 16.2989 1.09664 16.7678 1.56549C17.2366 2.03433 17.5 2.67021 17.5 3.33325V4.99992C17.5 5.46016 17.1269 5.83325 16.6667 5.83325C16.2064 5.83325 15.8333 5.46016 15.8333 4.99992V3.33325C15.8333 3.11224 15.7455 2.90028 15.5893 2.744C15.433 2.58772 15.221 2.49992 15 2.49992C14.779 2.49992 14.567 2.58772 14.4107 2.744C14.2545 2.90028 14.1667 3.11224 14.1667 3.33325V4.99992C14.1667 5.46016 13.7936 5.83325 13.3333 5.83325C12.8731 5.83325 12.5 5.46016 12.5 4.99992V3.33325C12.5 2.67021 12.7634 2.03433 13.2322 1.56549Z" fill="black"/>
<path fill-rule="evenodd" clip-rule="evenodd" d="M12.4999 5.83341V8.33342H17.4999V5.83341H12.4999ZM17.501 8.33337C17.501 8.33337 17.501 8.33337 17.5009 8.33338L17.501 8.33337ZM12.4989 8.33338C12.4989 8.33337 12.4989 8.33337 12.4989 8.33337L12.4989 8.33338ZM10.8333 5.83341C10.8333 4.91294 11.5794 4.16675 12.4999 4.16675H17.4999C18.4204 4.16675 19.1666 4.91294 19.1666 5.83341V8.33342C19.1666 9.25389 18.4204 10.0001 17.4999 10.0001H12.4999C11.5794 10.0001 10.8333 9.25389 10.8333 8.33342V5.83341Z" fill="black"/>
</g>
<defs>
<clipPath id="clip0_2001_7308">
<rect width="20" height="20" fill="white"/>
</clipPath>
</defs>
</svg>
