<svg width="20" height="20" viewBox="0 0 20 20" fill="none" xmlns="http://www.w3.org/2000/svg">
<path fill-rule="evenodd" clip-rule="evenodd" d="M9.56191 0.95771C9.80759 0.805872 10.1144 0.792068 10.3727 0.92123L17.0394 4.25456C17.3217 4.39572 17.5 4.68428 17.5 4.99992C17.5 5.31556 17.3217 5.60412 17.0394 5.74528L10.8334 8.84828V10.8333C10.8334 11.2935 10.4603 11.6666 10 11.6666C9.53978 11.6666 9.16669 11.2935 9.16669 10.8333V8.35131C9.16644 8.33968 9.16644 8.32808 9.16669 8.31649V1.66659C9.16669 1.37777 9.31623 1.10955 9.56191 0.95771ZM10.8334 6.98489L14.8033 4.99992L10.8334 3.01495V6.98489Z" fill="black"/>
<path fill-rule="evenodd" clip-rule="evenodd" d="M7.42289 3.7405C7.62689 4.15306 7.45783 4.65288 7.04527 4.85688C5.90034 5.42304 4.94214 6.30618 4.28468 7.40124C3.62722 8.4963 3.29818 9.75718 3.33669 11.0339C3.37521 12.3105 3.77966 13.5493 4.50193 14.6027C5.2242 15.6562 6.23389 16.48 7.41087 16.9761C8.58785 17.4722 9.88258 17.6197 11.141 17.4012C12.3994 17.1827 13.5686 16.6072 14.5094 15.7433C15.4502 14.8794 16.123 13.7635 16.4478 12.5282C16.7726 11.2929 16.7358 9.99032 16.3416 8.7754C16.1995 8.33763 16.4393 7.8676 16.877 7.72556C17.3148 7.58353 17.7848 7.82327 17.9269 8.26104C18.4196 9.77969 18.4657 11.4079 18.0597 12.952C17.6537 14.4961 16.8127 15.8911 15.6367 16.9709C14.4607 18.0508 12.9992 18.7701 11.4262 19.0433C9.85314 19.3165 8.23474 19.132 6.76351 18.5119C5.29229 17.8917 4.03017 16.862 3.12733 15.5452C2.22449 14.2284 1.71892 12.68 1.67078 11.0841C1.62264 9.48826 2.03395 7.91217 2.85577 6.54334C3.6776 5.17452 4.87534 4.07059 6.30651 3.36289C6.71907 3.15889 7.21888 3.32795 7.42289 3.7405Z" fill="black"/>
<path fill-rule="evenodd" clip-rule="evenodd" d="M7.16894 7.66467C7.53691 7.94111 7.61111 8.4635 7.33468 8.83147C7.00062 9.27615 6.78313 9.79736 6.70204 10.3476C6.62095 10.8978 6.67883 11.4596 6.87041 11.9818C7.06199 12.5039 7.38118 12.9698 7.7989 13.337C8.21661 13.7043 8.71958 13.9611 9.26197 14.0842C9.80436 14.2073 10.3689 14.1928 10.9042 14.0419C11.4396 13.8909 11.9286 13.6085 12.3268 13.2202C12.725 12.8319 13.0198 12.3502 13.1842 11.8188C13.3486 11.2875 13.3774 10.7235 13.268 10.1781C13.1775 9.72688 13.47 9.28771 13.9212 9.19721C14.3725 9.10671 14.8116 9.39916 14.9021 9.85041C15.0662 10.6684 15.0229 11.5144 14.7764 12.3114C14.5298 13.1084 14.0877 13.8311 13.4904 14.4135C12.893 14.9959 12.1595 15.4196 11.3565 15.646C10.5535 15.8724 9.70666 15.8942 8.89307 15.7096C8.07949 15.5249 7.32504 15.1396 6.69847 14.5888C6.07189 14.0379 5.59311 13.3391 5.30574 12.5559C5.01837 11.7726 4.93155 10.93 5.05318 10.1046C5.17482 9.27924 5.50105 8.49743 6.00214 7.83041C6.27857 7.46244 6.80097 7.38824 7.16894 7.66467Z" fill="black"/>
</svg>
