<svg width="20" height="20" viewBox="0 0 20 20" fill="none" xmlns="http://www.w3.org/2000/svg">
<path fill-rule="evenodd" clip-rule="evenodd" d="M11.5655 5.73223C12.0343 5.26339 12.6702 5 13.3333 5C13.9963 5 14.6322 5.26339 15.101 5.73223C15.5699 6.20107 15.8333 6.83696 15.8333 7.5V9.58333C15.8333 10.0436 15.4602 10.4167 14.9999 10.4167C14.5397 10.4167 14.1666 10.0436 14.1666 9.58333V7.5C14.1666 7.27899 14.0788 7.06702 13.9225 6.91074C13.7662 6.75446 13.5543 6.66667 13.3333 6.66667C13.1122 6.66667 12.9003 6.75446 12.744 6.91074C12.5877 7.06702 12.4999 7.27899 12.4999 7.5V8.66667C12.4999 9.1269 12.1268 9.5 11.6666 9.5C11.2063 9.5 10.8333 9.1269 10.8333 8.66667V7.5C10.8333 6.83696 11.0966 6.20107 11.5655 5.73223Z" fill="black"/>
<path fill-rule="evenodd" clip-rule="evenodd" d="M8.23223 4.89898C8.70107 4.43014 9.33696 4.16675 10 4.16675C10.663 4.16675 11.2989 4.43014 11.7678 4.89898C12.2366 5.36782 12.5 6.00371 12.5 6.66675V8.33342C12.5 8.79365 12.1269 9.16675 11.6667 9.16675C11.2064 9.16675 10.8333 8.79365 10.8333 8.33342V6.66675C10.8333 6.44573 10.7455 6.23377 10.5893 6.07749C10.433 5.92121 10.221 5.83341 10 5.83341C9.77899 5.83341 9.56703 5.92121 9.41074 6.07749C9.25446 6.23377 9.16667 6.44573 9.16667 6.66675V8.33342C9.16667 8.79365 8.79357 9.16675 8.33333 9.16675C7.8731 9.16675 7.5 8.79365 7.5 8.33342V6.66675C7.5 6.00371 7.76339 5.36782 8.23223 4.89898Z" fill="black"/>
<path fill-rule="evenodd" clip-rule="evenodd" d="M4.89898 5.73223C5.36782 5.26339 6.00371 5 6.66675 5C7.32979 5 7.96567 5.26339 8.43451 5.73223C8.90336 6.20107 9.16675 6.83696 9.16675 7.5V8.25C9.16675 8.71024 8.79365 9.08333 8.33342 9.08333C7.87318 9.08333 7.50008 8.71024 7.50008 8.25V7.5C7.50008 7.27899 7.41228 7.06702 7.256 6.91074C7.09972 6.75446 6.88776 6.66667 6.66675 6.66667C6.44573 6.66667 6.23377 6.75446 6.07749 6.91074C5.92121 7.06702 5.83341 7.27899 5.83341 7.5V11.6667C5.83341 12.1269 5.46032 12.5 5.00008 12.5C4.53984 12.5 4.16675 12.1269 4.16675 11.6667V7.5C4.16675 6.83696 4.43014 6.20107 4.89898 5.73223Z" fill="black"/>
<path fill-rule="evenodd" clip-rule="evenodd" d="M1.56549 9.89898C2.03433 9.43014 2.67021 9.16675 3.33325 9.16675C3.99629 9.16675 4.63218 9.43014 5.10102 9.89898C5.56986 10.3678 5.83325 11.0037 5.83325 11.6667C5.83325 12.127 5.46016 12.5001 4.99992 12.5001C4.53968 12.5001 4.16659 12.127 4.16659 11.6667C4.16659 11.4457 4.07879 11.2338 3.92251 11.0775C3.76623 10.9212 3.55427 10.8334 3.33325 10.8334C3.11224 10.8334 2.90028 10.9212 2.744 11.0775C2.58772 11.2338 2.49992 11.4457 2.49992 11.6667C2.49992 12.127 2.12682 12.5001 1.66659 12.5001C1.20635 12.5001 0.833252 12.127 0.833252 11.6667C0.833252 11.0037 1.09664 10.3678 1.56549 9.89898Z" fill="black"/>
<path fill-rule="evenodd" clip-rule="evenodd" d="M16.6666 8.33341C16.4456 8.33341 16.2336 8.42121 16.0773 8.57749C15.9211 8.73377 15.8333 8.94573 15.8333 9.16675C15.8333 9.62699 15.4602 10.0001 14.9999 10.0001C14.5397 10.0001 14.1666 9.62699 14.1666 9.16675C14.1666 8.50371 14.43 7.86782 14.8988 7.39898C15.3677 6.93014 16.0035 6.66675 16.6666 6.66675C17.3296 6.66675 17.9655 6.93014 18.4344 7.39898C18.9032 7.86782 19.1666 8.50371 19.1666 9.16675V11.6667C19.1666 13.6559 18.3764 15.5635 16.9699 16.97C15.5634 18.3766 13.6557 19.1667 11.6666 19.1667H8.33325C6.34413 19.1667 4.43647 18.3766 3.02995 16.97C1.62343 15.5635 0.833252 13.6559 0.833252 11.6667C0.833252 11.0037 1.09664 10.3678 1.56549 9.89898C2.03433 9.43014 2.67021 9.16675 3.33325 9.16675C3.99629 9.16675 4.63218 9.43014 5.10102 9.89898C5.56986 10.3678 5.83325 11.0037 5.83325 11.6667C5.83325 12.127 5.46016 12.5001 4.99992 12.5001C4.53968 12.5001 4.16659 12.127 4.16659 11.6667C4.16659 11.4457 4.07879 11.2338 3.92251 11.0775C3.76623 10.9212 3.55427 10.8334 3.33325 10.8334C3.11224 10.8334 2.90028 10.9212 2.744 11.0775C2.58772 11.2338 2.49992 11.4457 2.49992 11.6667C2.49992 13.2138 3.1145 14.6976 4.20846 15.7915C5.30242 16.8855 6.78616 17.5001 8.33325 17.5001H11.6666C13.2137 17.5001 14.6974 16.8855 15.7914 15.7915C16.8853 14.6976 17.4999 13.2138 17.4999 11.6667V9.16675C17.4999 8.94573 17.4121 8.73377 17.2558 8.57749C17.0996 8.42121 16.8876 8.33341 16.6666 8.33341Z" fill="black"/>
</svg>
