<svg width="20" height="20" viewBox="0 0 20 20" fill="none" xmlns="http://www.w3.org/2000/svg">
<path fill-rule="evenodd" clip-rule="evenodd" d="M8.96277 3.55829C9.28837 3.40983 9.64206 3.33301 9.99991 3.33301C10.3578 3.33301 10.7114 3.40983 11.037 3.55827C11.0371 3.55833 11.0373 3.55839 11.0374 3.55845L18.1693 6.80693C18.464 6.93305 18.7162 7.14155 18.8955 7.40755C19.0778 7.67795 19.1768 7.99588 19.1801 8.32197C19.1835 8.64806 19.0911 8.96797 18.9145 9.24208C18.7388 9.51476 18.4873 9.73018 18.191 9.862L11.0374 13.1082C11.0372 13.1082 11.0371 13.1083 11.0369 13.1084C10.7113 13.2568 10.3577 13.3336 9.99991 13.3336C9.64195 13.3336 9.28817 13.2567 8.96249 13.1082C8.96247 13.1082 8.96244 13.1082 8.96241 13.1082L1.82554 9.85368C1.53173 9.72345 1.28178 9.51103 1.10588 9.24195C0.928626 8.97081 0.834229 8.6539 0.834229 8.32997C0.834229 8.00604 0.928625 7.68913 1.10588 7.418C1.28185 7.14881 1.53193 6.93632 1.82589 6.80611L8.96241 3.55845C8.96253 3.5584 8.96265 3.55835 8.96277 3.55829ZM9.99991 4.99967C9.88058 4.99967 9.76265 5.0253 9.65408 5.07482L2.51175 8.32513C2.50814 8.32677 2.50452 8.32838 2.5009 8.32997C2.50472 8.33165 2.50853 8.33335 2.51234 8.33508L9.654 11.5918L9.65408 11.5918C9.76265 11.6413 9.88059 11.6669 9.99991 11.6669C10.1192 11.6669 10.2372 11.6413 10.3457 11.5918L17.5056 8.34278C17.5082 8.34157 17.5109 8.34038 17.5136 8.3392C17.5052 8.33572 17.4969 8.3321 17.4887 8.32834L10.3457 5.07482C10.2372 5.0253 10.1192 4.99967 9.99991 4.99967Z" fill="black"/>
<path fill-rule="evenodd" clip-rule="evenodd" d="M18.3333 7.5C18.7936 7.5 19.1667 7.8731 19.1667 8.33333V13.3333C19.1667 13.7936 18.7936 14.1667 18.3333 14.1667C17.8731 14.1667 17.5 13.7936 17.5 13.3333V8.33333C17.5 7.8731 17.8731 7.5 18.3333 7.5Z" fill="black"/>
<path fill-rule="evenodd" clip-rule="evenodd" d="M5.00008 9.58325C5.46032 9.58325 5.83341 9.95635 5.83341 10.4166V13.3333C5.83341 13.5208 6.00281 13.9385 6.83723 14.3557C7.63266 14.7534 8.77002 14.9999 10.0001 14.9999C11.2301 14.9999 12.3675 14.7534 13.1629 14.3557C13.9974 13.9385 14.1667 13.5208 14.1667 13.3333V10.4166C14.1667 9.95635 14.5398 9.58325 15.0001 9.58325C15.4603 9.58325 15.8334 9.95635 15.8334 10.4166V13.3333C15.8334 14.4718 14.9492 15.3259 13.9083 15.8464C12.8284 16.3863 11.4222 16.6666 10.0001 16.6666C8.57798 16.6666 7.1718 16.3863 6.09187 15.8464C5.05092 15.3259 4.16675 14.4718 4.16675 13.3333V10.4166C4.16675 9.95635 4.53984 9.58325 5.00008 9.58325Z" fill="black"/>
</svg>
