<svg width="20" height="20" viewBox="0 0 20 20" fill="none" xmlns="http://www.w3.org/2000/svg">
<g clip-path="url(#clip0_2001_7331)">
<path fill-rule="evenodd" clip-rule="evenodd" d="M18.6521 0.89671C18.9635 1.02569 19.1666 1.32956 19.1666 1.66661V4.16661C19.1666 4.62685 18.7935 4.99994 18.3332 4.99994C17.873 4.99994 17.4999 4.62685 17.4999 4.16661V3.67845L14.0141 7.1642C13.6887 7.48964 13.1611 7.48964 12.8356 7.1642C12.5102 6.83876 12.5102 6.31112 12.8356 5.98569L17.744 1.07735C17.9823 0.839022 18.3407 0.767726 18.6521 0.89671Z" fill="black"/>
<path fill-rule="evenodd" clip-rule="evenodd" d="M13.8333 11.5751C12.9129 11.5751 12.1667 12.3213 12.1667 13.2418C12.1667 14.1623 12.9129 14.9084 13.8333 14.9084C14.7538 14.9084 15.5 14.1623 15.5 13.2418C15.5 12.3213 14.7538 11.5751 13.8333 11.5751ZM10.5 13.2418C10.5 11.4008 11.9924 9.90845 13.8333 9.90845C15.6743 9.90845 17.1667 11.4008 17.1667 13.2418C17.1667 15.0827 15.6743 16.5751 13.8333 16.5751C11.9924 16.5751 10.5 15.0827 10.5 13.2418Z" fill="black"/>
<path fill-rule="evenodd" clip-rule="evenodd" d="M6.75838 4.49992C5.83791 4.49992 5.09172 5.24611 5.09172 6.16658C5.09172 7.08706 5.83791 7.83325 6.75838 7.83325C7.67886 7.83325 8.42505 7.08706 8.42505 6.16658C8.42505 5.24611 7.67886 4.49992 6.75838 4.49992ZM3.42505 6.16658C3.42505 4.32564 4.91743 2.83325 6.75838 2.83325C8.59933 2.83325 10.0917 4.32564 10.0917 6.16658C10.0917 8.00753 8.59933 9.49992 6.75838 9.49992C4.91743 9.49992 3.42505 8.00753 3.42505 6.16658Z" fill="black"/>
<path fill-rule="evenodd" clip-rule="evenodd" d="M10.2916 8.04167C9.37111 8.04167 8.62492 8.78786 8.62492 9.70833C8.62492 10.6288 9.37111 11.375 10.2916 11.375C11.2121 11.375 11.9583 10.6288 11.9583 9.70833C11.9583 8.78786 11.2121 8.04167 10.2916 8.04167ZM6.95825 9.70833C6.95825 7.86738 8.45064 6.375 10.2916 6.375C12.1325 6.375 13.6249 7.86738 13.6249 9.70833C13.6249 11.5493 12.1325 13.0417 10.2916 13.0417C8.45064 13.0417 6.95825 11.5493 6.95825 9.70833Z" fill="black"/>
<path fill-rule="evenodd" clip-rule="evenodd" d="M11.5916 3.20841C10.6712 3.20841 9.92497 3.95461 9.92497 4.87508C9.92497 5.79556 10.6712 6.54175 11.5916 6.54175C12.5121 6.54175 13.2583 5.79556 13.2583 4.87508C13.2583 3.95461 12.5121 3.20841 11.5916 3.20841ZM8.2583 4.87508C8.2583 3.03413 9.75068 1.54175 11.5916 1.54175C13.4326 1.54175 14.925 3.03413 14.925 4.87508C14.925 6.71603 13.4326 8.20842 11.5916 8.20842C9.75068 8.20842 8.2583 6.71603 8.2583 4.87508Z" fill="black"/>
<path fill-rule="evenodd" clip-rule="evenodd" d="M15.1251 6.74162C14.2046 6.74162 13.4584 7.48781 13.4584 8.40828C13.4584 9.32876 14.2046 10.075 15.1251 10.075C16.0456 10.075 16.7917 9.32876 16.7917 8.40828C16.7917 7.48781 16.0456 6.74162 15.1251 6.74162ZM11.7917 8.40828C11.7917 6.56734 13.2841 5.07495 15.1251 5.07495C16.966 5.07495 18.4584 6.56734 18.4584 8.40828C18.4584 10.2492 16.966 11.7416 15.1251 11.7416C13.2841 11.7416 11.7917 10.2492 11.7917 8.40828Z" fill="black"/>
<path fill-rule="evenodd" clip-rule="evenodd" d="M5.46663 9.33341C4.54616 9.33341 3.79997 10.0796 3.79997 11.0001C3.79997 11.9206 4.54616 12.6667 5.46663 12.6667C6.38711 12.6667 7.1333 11.9206 7.1333 11.0001C7.1333 10.0796 6.38711 9.33341 5.46663 9.33341ZM2.1333 11.0001C2.1333 9.15913 3.62568 7.66675 5.46663 7.66675C7.30758 7.66675 8.79997 9.15913 8.79997 11.0001C8.79997 12.841 7.30758 14.3334 5.46663 14.3334C3.62568 14.3334 2.1333 12.841 2.1333 11.0001Z" fill="black"/>
<path fill-rule="evenodd" clip-rule="evenodd" d="M9.00008 12.8666C8.07961 12.8666 7.33341 13.6128 7.33341 14.5333C7.33341 15.4538 8.07961 16.2 9.00008 16.2C9.92056 16.2 10.6667 15.4538 10.6667 14.5333C10.6667 13.6128 9.92056 12.8666 9.00008 12.8666ZM5.66675 14.5333C5.66675 12.6923 7.15913 11.2 9.00008 11.2C10.841 11.2 12.3334 12.6923 12.3334 14.5333C12.3334 16.3742 10.841 17.8666 9.00008 17.8666C7.15913 17.8666 5.66675 16.3742 5.66675 14.5333Z" fill="black"/>
<path fill-rule="evenodd" clip-rule="evenodd" d="M4.16658 14.1667C3.24611 14.1667 2.49992 14.9129 2.49992 15.8333C2.49992 16.7538 3.24611 17.5 4.16658 17.5C5.08706 17.5 5.83325 16.7538 5.83325 15.8333C5.83325 14.9129 5.08706 14.1667 4.16658 14.1667ZM0.833252 15.8333C0.833252 13.9924 2.32564 12.5 4.16658 12.5C6.00753 12.5 7.49992 13.9924 7.49992 15.8333C7.49992 17.6743 6.00753 19.1667 4.16658 19.1667C2.32564 19.1667 0.833252 17.6743 0.833252 15.8333Z" fill="black"/>
</g>
<defs>
<clipPath id="clip0_2001_7331">
<rect width="20" height="20" fill="white"/>
</clipPath>
</defs>
</svg>
