<svg width="20" height="20" viewBox="0 0 20 20" fill="none" xmlns="http://www.w3.org/2000/svg">
<path fill-rule="evenodd" clip-rule="evenodd" d="M4.16675 3.33341C3.70651 3.33341 3.33341 3.70651 3.33341 4.16675V15.8334C3.33341 16.2937 3.70651 16.6667 4.16675 16.6667H15.8334C16.2937 16.6667 16.6667 16.2937 16.6667 15.8334V4.16675C16.6667 3.70651 16.2937 3.33341 15.8334 3.33341H4.16675ZM1.66675 4.16675C1.66675 2.78604 2.78604 1.66675 4.16675 1.66675H15.8334C17.2141 1.66675 18.3334 2.78604 18.3334 4.16675V15.8334C18.3334 17.2141 17.2141 18.3334 15.8334 18.3334H4.16675C2.78604 18.3334 1.66675 17.2141 1.66675 15.8334V4.16675Z" fill="black"/>
<path fill-rule="evenodd" clip-rule="evenodd" d="M1.66675 7.50008C1.66675 7.03984 2.03984 6.66675 2.50008 6.66675H17.5001C17.9603 6.66675 18.3334 7.03984 18.3334 7.50008C18.3334 7.96032 17.9603 8.33341 17.5001 8.33341H2.50008C2.03984 8.33341 1.66675 7.96032 1.66675 7.50008Z" fill="black"/>
<path fill-rule="evenodd" clip-rule="evenodd" d="M1.66675 12.5001C1.66675 12.0398 2.03984 11.6667 2.50008 11.6667H17.5001C17.9603 11.6667 18.3334 12.0398 18.3334 12.5001C18.3334 12.9603 17.9603 13.3334 17.5001 13.3334H2.50008C2.03984 13.3334 1.66675 12.9603 1.66675 12.5001Z" fill="black"/>
<path fill-rule="evenodd" clip-rule="evenodd" d="M7.50008 1.66675C7.96032 1.66675 8.33341 2.03984 8.33341 2.50008V17.5001C8.33341 17.9603 7.96032 18.3334 7.50008 18.3334C7.03984 18.3334 6.66675 17.9603 6.66675 17.5001V2.50008C6.66675 2.03984 7.03984 1.66675 7.50008 1.66675Z" fill="black"/>
<path fill-rule="evenodd" clip-rule="evenodd" d="M12.5001 1.66675C12.9603 1.66675 13.3334 2.03984 13.3334 2.50008V17.5001C13.3334 17.9603 12.9603 18.3334 12.5001 18.3334C12.0398 18.3334 11.6667 17.9603 11.6667 17.5001V2.50008C11.6667 2.03984 12.0398 1.66675 12.5001 1.66675Z" fill="black"/>
</svg>
