<svg width="20" height="20" viewBox="0 0 20 20" fill="none" xmlns="http://www.w3.org/2000/svg">
<path fill-rule="evenodd" clip-rule="evenodd" d="M4.16675 3.33341C3.94573 3.33341 3.73377 3.42121 3.57749 3.57749C3.42121 3.73377 3.33341 3.94573 3.33341 4.16675V9.16675H9.16675V3.33341H4.16675ZM4.16675 1.66675C3.50371 1.66675 2.86782 1.93014 2.39898 2.39898C1.93014 2.86782 1.66675 3.50371 1.66675 4.16675V15.8334C1.66675 16.4965 1.93014 17.1323 2.39898 17.6012C2.86782 18.07 3.50371 18.3334 4.16675 18.3334H9.16675C9.60877 18.3334 10.0327 18.1578 10.3453 17.8453C10.6578 17.5327 10.8334 17.1088 10.8334 16.6667V10.8334H16.6667C17.1088 10.8334 17.5327 10.6578 17.8453 10.3453C18.1578 10.0327 18.3334 9.60877 18.3334 9.16675V4.16675C18.3334 3.50371 18.07 2.86782 17.6012 2.39898C17.1323 1.93014 16.4965 1.66675 15.8334 1.66675H4.16675ZM10.8334 3.33341V9.16675H16.6667V4.16675C16.6667 3.94573 16.5789 3.73377 16.4227 3.57749C16.2664 3.42121 16.0544 3.33341 15.8334 3.33341H10.8334ZM9.16675 10.8334H3.33341V15.8334C3.33341 16.0544 3.42121 16.2664 3.57749 16.4227C3.73377 16.5789 3.94573 16.6667 4.16675 16.6667H9.16675V10.8334Z" fill="black"/>
<path fill-rule="evenodd" clip-rule="evenodd" d="M12.7441 12.7441C13.0695 12.4186 13.5972 12.4186 13.9226 12.7441L18.0893 16.9107C18.4147 17.2362 18.4147 17.7638 18.0893 18.0893C17.7638 18.4147 17.2362 18.4147 16.9107 18.0893L12.7441 13.9226C12.4186 13.5972 12.4186 13.0695 12.7441 12.7441Z" fill="black"/>
<path fill-rule="evenodd" clip-rule="evenodd" d="M18.0893 12.7441C18.4147 13.0695 18.4147 13.5972 18.0893 13.9226L13.9226 18.0893C13.5972 18.4147 13.0695 18.4147 12.7441 18.0893C12.4186 17.7638 12.4186 17.2362 12.7441 16.9107L16.9107 12.7441C17.2362 12.4186 17.7638 12.4186 18.0893 12.7441Z" fill="black"/>
</svg>
