<svg width="20" height="20" viewBox="0 0 20 20" fill="none" xmlns="http://www.w3.org/2000/svg">
<path fill-rule="evenodd" clip-rule="evenodd" d="M5.83325 9.99992C5.83325 9.07944 6.57944 8.33325 7.49992 8.33325C8.42039 8.33325 9.16658 9.07944 9.16658 9.99992C9.16658 10.9204 8.42039 11.6666 7.49992 11.6666C6.57944 11.6666 5.83325 10.9204 5.83325 9.99992Z" fill="black"/>
<path fill-rule="evenodd" clip-rule="evenodd" d="M5.83325 4.16667C5.83325 3.24619 6.57944 2.5 7.49992 2.5C8.42039 2.5 9.16658 3.24619 9.16658 4.16667C9.16658 5.08714 8.42039 5.83333 7.49992 5.83333C6.57944 5.83333 5.83325 5.08714 5.83325 4.16667Z" fill="black"/>
<path fill-rule="evenodd" clip-rule="evenodd" d="M5.83325 15.8334C5.83325 14.9129 6.57944 14.1667 7.49992 14.1667C8.42039 14.1667 9.16658 14.9129 9.16658 15.8334C9.16658 16.7539 8.42039 17.5001 7.49992 17.5001C6.57944 17.5001 5.83325 16.7539 5.83325 15.8334Z" fill="black"/>
<path fill-rule="evenodd" clip-rule="evenodd" d="M10.8333 9.99992C10.8333 9.07944 11.5794 8.33325 12.4999 8.33325C13.4204 8.33325 14.1666 9.07944 14.1666 9.99992C14.1666 10.9204 13.4204 11.6666 12.4999 11.6666C11.5794 11.6666 10.8333 10.9204 10.8333 9.99992Z" fill="black"/>
<path fill-rule="evenodd" clip-rule="evenodd" d="M10.8333 4.16667C10.8333 3.24619 11.5794 2.5 12.4999 2.5C13.4204 2.5 14.1666 3.24619 14.1666 4.16667C14.1666 5.08714 13.4204 5.83333 12.4999 5.83333C11.5794 5.83333 10.8333 5.08714 10.8333 4.16667Z" fill="black"/>
<path fill-rule="evenodd" clip-rule="evenodd" d="M10.8333 15.8334C10.8333 14.9129 11.5794 14.1667 12.4999 14.1667C13.4204 14.1667 14.1666 14.9129 14.1666 15.8334C14.1666 16.7539 13.4204 17.5001 12.4999 17.5001C11.5794 17.5001 10.8333 16.7539 10.8333 15.8334Z" fill="black"/>
</svg>
