<svg width="20" height="20" viewBox="0 0 20 20" fill="none" xmlns="http://www.w3.org/2000/svg">
<path fill-rule="evenodd" clip-rule="evenodd" d="M8.33325 7.49992C8.33325 6.57944 9.07944 5.83325 9.99992 5.83325C10.9204 5.83325 11.6666 6.57944 11.6666 7.49992C11.6666 8.42039 10.9204 9.16658 9.99992 9.16658C9.07944 9.16658 8.33325 8.42039 8.33325 7.49992Z" fill="black"/>
<path fill-rule="evenodd" clip-rule="evenodd" d="M14.1667 7.49992C14.1667 6.57944 14.9129 5.83325 15.8334 5.83325C16.7539 5.83325 17.5001 6.57944 17.5001 7.49992C17.5001 8.42039 16.7539 9.16658 15.8334 9.16658C14.9129 9.16658 14.1667 8.42039 14.1667 7.49992Z" fill="black"/>
<path fill-rule="evenodd" clip-rule="evenodd" d="M2.5 7.49992C2.5 6.57944 3.24619 5.83325 4.16667 5.83325C5.08714 5.83325 5.83333 6.57944 5.83333 7.49992C5.83333 8.42039 5.08714 9.16658 4.16667 9.16658C3.24619 9.16658 2.5 8.42039 2.5 7.49992Z" fill="black"/>
<path fill-rule="evenodd" clip-rule="evenodd" d="M8.33325 12.4999C8.33325 11.5794 9.07944 10.8333 9.99992 10.8333C10.9204 10.8333 11.6666 11.5794 11.6666 12.4999C11.6666 13.4204 10.9204 14.1666 9.99992 14.1666C9.07944 14.1666 8.33325 13.4204 8.33325 12.4999Z" fill="black"/>
<path fill-rule="evenodd" clip-rule="evenodd" d="M14.1667 12.4999C14.1667 11.5794 14.9129 10.8333 15.8334 10.8333C16.7539 10.8333 17.5001 11.5794 17.5001 12.4999C17.5001 13.4204 16.7539 14.1666 15.8334 14.1666C14.9129 14.1666 14.1667 13.4204 14.1667 12.4999Z" fill="black"/>
<path fill-rule="evenodd" clip-rule="evenodd" d="M2.5 12.4999C2.5 11.5794 3.24619 10.8333 4.16667 10.8333C5.08714 10.8333 5.83333 11.5794 5.83333 12.4999C5.83333 13.4204 5.08714 14.1666 4.16667 14.1666C3.24619 14.1666 2.5 13.4204 2.5 12.4999Z" fill="black"/>
</svg>
