<svg width="20" height="20" viewBox="0 0 20 20" fill="none" xmlns="http://www.w3.org/2000/svg">
<path fill-rule="evenodd" clip-rule="evenodd" d="M4.16675 3.33341C3.71032 3.33341 3.33341 3.71032 3.33341 4.16675V5.83342C3.33341 6.29365 2.96032 6.66675 2.50008 6.66675C2.03984 6.66675 1.66675 6.29365 1.66675 5.83342V4.16675C1.66675 2.78984 2.78984 1.66675 4.16675 1.66675H5.83342C6.29365 1.66675 6.66675 2.03984 6.66675 2.50008C6.66675 2.96032 6.29365 3.33341 5.83342 3.33341H4.16675Z" fill="black"/>
<path fill-rule="evenodd" clip-rule="evenodd" d="M13.3333 2.50008C13.3333 2.03984 13.7063 1.66675 14.1666 1.66675H15.8333C17.2102 1.66675 18.3333 2.78984 18.3333 4.16675V5.83342C18.3333 6.29365 17.9602 6.66675 17.4999 6.66675C17.0397 6.66675 16.6666 6.29365 16.6666 5.83342V4.16675C16.6666 3.71032 16.2897 3.33341 15.8333 3.33341H14.1666C13.7063 3.33341 13.3333 2.96032 13.3333 2.50008Z" fill="black"/>
<path fill-rule="evenodd" clip-rule="evenodd" d="M17.4999 13.3333C17.9602 13.3333 18.3333 13.7063 18.3333 14.1666V15.8333C18.3333 17.2102 17.2102 18.3333 15.8333 18.3333H14.1666C13.7063 18.3333 13.3333 17.9602 13.3333 17.4999C13.3333 17.0397 13.7063 16.6666 14.1666 16.6666H15.8333C16.2897 16.6666 16.6666 16.2897 16.6666 15.8333V14.1666C16.6666 13.7063 17.0397 13.3333 17.4999 13.3333Z" fill="black"/>
<path fill-rule="evenodd" clip-rule="evenodd" d="M2.50008 13.3333C2.96032 13.3333 3.33341 13.7063 3.33341 14.1666V15.8333C3.33341 16.2897 3.71032 16.6666 4.16675 16.6666H5.83342C6.29365 16.6666 6.66675 17.0397 6.66675 17.4999C6.66675 17.9602 6.29365 18.3333 5.83342 18.3333H4.16675C2.78984 18.3333 1.66675 17.2102 1.66675 15.8333V14.1666C1.66675 13.7063 2.03984 13.3333 2.50008 13.3333Z" fill="black"/>
<path fill-rule="evenodd" clip-rule="evenodd" d="M6.66667 6.66667V9.16667H10.8333V6.66667H6.66667ZM6.66566 9.16663C6.66561 9.16662 6.6656 9.16662 6.66563 9.16663L6.66566 9.16663ZM5 6.66667C5 5.74619 5.74619 5 6.66667 5H10.8333C11.7538 5 12.5 5.74619 12.5 6.66667V9.16667C12.5 10.0871 11.7538 10.8333 10.8333 10.8333H6.66667C5.74619 10.8333 5 10.0871 5 9.16667V6.66667Z" fill="black"/>
<path fill-rule="evenodd" clip-rule="evenodd" d="M9.16667 10.8334V13.3334H13.3333V10.8334H9.16667ZM9.16566 13.3334C9.16561 13.3334 9.1656 13.3334 9.16563 13.3334L9.16566 13.3334ZM7.5 10.8334C7.5 9.91294 8.24619 9.16675 9.16667 9.16675H13.3333C14.2538 9.16675 15 9.91294 15 10.8334V13.3334C15 14.2539 14.2538 15.0001 13.3333 15.0001H9.16667C8.24619 15.0001 7.5 14.2539 7.5 13.3334V10.8334Z" fill="black"/>
</svg>
