<svg width="20" height="20" viewBox="0 0 20 20" fill="none" xmlns="http://www.w3.org/2000/svg">
<g clip-path="url(#clip0_2001_7393)">
<path fill-rule="evenodd" clip-rule="evenodd" d="M14.2675 5.73236C14.5929 6.0578 14.5929 6.58543 14.2675 6.91087L10.5058 10.6725C10.1804 10.998 9.65277 10.998 9.32733 10.6725C9.00189 10.3471 9.00189 9.81946 9.32733 9.49403L13.089 5.73236C13.4144 5.40692 13.9421 5.40692 14.2675 5.73236Z" fill="black"/>
<path fill-rule="evenodd" clip-rule="evenodd" d="M15 1.32164C15.3115 1.01627 15.7304 0.845215 16.1666 0.845215C16.6029 0.845215 17.0218 1.01626 17.3333 1.32164C17.3353 1.32359 17.3373 1.32554 17.3392 1.32751L18.6726 2.66084C18.6745 2.6628 18.6765 2.66478 18.6784 2.66676C18.9838 2.97831 19.1549 3.39718 19.1549 3.83343C19.1549 4.26968 18.9838 4.68855 18.6784 5.0001C18.6765 5.00208 18.6745 5.00405 18.6726 5.00602L17.7443 5.93426C17.7443 5.93429 17.7443 5.93432 17.7442 5.93435C17.2755 6.40317 16.6398 6.66662 15.9768 6.66676H14.8568C14.8568 6.66676 14.8567 6.66676 14.8566 6.66676C14.6358 6.66686 14.4241 6.75459 14.2679 6.91069C14.2678 6.91077 14.2677 6.91085 14.2676 6.91093C14.2676 6.91099 14.2675 6.91105 14.2675 6.91111C13.942 7.23646 13.4145 7.23642 13.089 6.91102C12.7636 6.58562 12.7636 6.05805 13.089 5.7326C13.089 5.73254 13.0891 5.73248 13.0891 5.73242C13.0892 5.73234 13.0893 5.73226 13.0894 5.73217C13.2455 5.576 13.3332 5.36425 13.3333 5.14343C13.3333 5.14341 13.3333 5.14339 13.3333 5.14336C13.3333 5.14333 13.3333 5.14329 13.3333 5.14325V4.02325C13.3334 3.36031 13.5969 2.72456 14.0657 2.25584C14.0657 2.25581 14.0658 2.25578 14.0658 2.25575L14.994 1.32751C14.996 1.32554 14.998 1.32359 15 1.32164ZM14.6549 2.84499L15.2441 3.43444C15.0879 3.59064 15.0001 3.8025 15 4.02343C15 4.02349 15 4.02355 15 4.02361V5.0001H15.9765C15.9765 5.0001 15.9766 5.0001 15.9766 5.0001C16.1976 5 16.4094 4.91218 16.5656 4.75593L17.1554 5.34552L16.5657 4.75584L17.4881 3.83343L16.1666 2.51194L15.2442 3.43435L14.6549 2.84499Z" fill="black"/>
<path fill-rule="evenodd" clip-rule="evenodd" d="M4.41083 12.7441C4.73626 12.4186 5.2639 12.4186 5.58934 12.7441L7.256 14.4107C7.58144 14.7362 7.58144 15.2638 7.256 15.5893C6.93057 15.9147 6.40293 15.9147 6.07749 15.5893L4.41083 13.9226C4.08539 13.5972 4.08539 13.0695 4.41083 12.7441Z" fill="black"/>
<path fill-rule="evenodd" clip-rule="evenodd" d="M7.59322 8.59184L7.26246 9.33605C7.07063 9.77425 6.75709 10.1482 6.35904 10.4136C5.96011 10.6796 5.49312 10.8252 5.01373 10.8331C5.00913 10.8332 5.00452 10.8333 4.99992 10.8333C4.33688 10.8333 3.70099 11.0966 3.23215 11.5655C2.76331 12.0343 2.49992 12.6702 2.49992 13.3333C2.49992 15.623 4.37682 17.4999 6.66658 17.4999C7.32963 17.4999 7.96551 17.2365 8.43435 16.7677C8.90319 16.2988 9.16658 15.663 9.16658 14.9999C9.16658 14.9978 9.16659 14.9958 9.16661 14.9937C9.16663 14.9912 9.16666 14.9886 9.1667 14.9861C9.17465 14.5067 9.32028 14.0397 9.58623 13.6408C9.85161 13.2427 10.2256 12.9292 10.6638 12.7374L11.408 12.4066C12.0668 12.1058 12.4999 11.4625 12.4999 10.8333C12.4999 8.96016 11.0397 7.49992 9.16658 7.49992C8.53736 7.49992 7.894 7.93301 7.59322 8.59184ZM6.07461 7.90508C6.60773 6.73221 7.79674 5.83325 9.16658 5.83325C11.9602 5.83325 14.1666 8.03968 14.1666 10.8333C14.1666 12.2031 13.2676 13.3921 12.0948 13.9252C12.0926 13.9262 12.0905 13.9271 12.0884 13.9281L11.3384 14.2614C11.3366 14.2622 11.3349 14.263 11.3331 14.2637C11.1867 14.3276 11.0616 14.4323 10.973 14.5653C10.8853 14.6968 10.8369 14.8504 10.8332 15.0084C10.831 16.1104 10.3923 17.1668 9.61286 17.9462C8.83146 18.7276 7.77165 19.1666 6.66658 19.1666C3.45635 19.1666 0.833252 16.5435 0.833252 13.3333C0.833252 12.2282 1.27224 11.1684 2.05364 10.387C2.83305 9.60757 3.88944 9.16883 4.99146 9.16659C5.14937 9.16296 5.30305 9.11452 5.43454 9.02686C5.56752 8.9382 5.6722 8.81318 5.73611 8.6667C5.73645 8.66591 5.7368 8.66512 5.73714 8.66433C5.73756 8.66338 5.73798 8.66242 5.73841 8.66147L6.07174 7.91147C6.07269 7.90934 6.07365 7.90721 6.07461 7.90508Z" fill="black"/>
<path d="M9.58341 10.8333C9.81353 10.8333 10.0001 10.6468 10.0001 10.4167C10.0001 10.1865 9.81353 10 9.58341 10C9.3533 10 9.16675 10.1865 9.16675 10.4167C9.16675 10.6468 9.3533 10.8333 9.58341 10.8333Z" fill="black"/>
<path fill-rule="evenodd" clip-rule="evenodd" d="M9.58325 10.8334C9.81337 10.8334 9.99992 10.6469 9.99992 10.4167C9.99992 10.1866 9.81337 10.0001 9.58325 10.0001C9.35313 10.0001 9.16659 10.1866 9.16659 10.4167C9.16659 10.6469 9.35313 10.8334 9.58325 10.8334ZM8.33325 10.4167C8.33325 9.72639 8.8929 9.16675 9.58325 9.16675C10.2736 9.16675 10.8333 9.72639 10.8333 10.4167C10.8333 11.1071 10.2736 11.6667 9.58325 11.6667C8.8929 11.6667 8.33325 11.1071 8.33325 10.4167Z" fill="black"/>
</g>
<defs>
<clipPath id="clip0_2001_7393">
<rect width="20" height="20" fill="white"/>
</clipPath>
</defs>
</svg>
