<svg width="20" height="20" viewBox="0 0 20 20" fill="none" xmlns="http://www.w3.org/2000/svg">
<g clip-path="url(#clip0_2001_7400)">
<path fill-rule="evenodd" clip-rule="evenodd" d="M7.84121 5.12936C8.91016 4.93806 9.95758 4.95427 10.9182 5.19837C11.8817 5.44317 12.7344 5.91176 13.4113 6.58867C14.0882 7.26557 14.5568 8.11823 14.8016 9.08169C15.0457 10.0423 15.0619 11.0898 14.8706 12.1587C14.6792 13.2279 14.2824 14.3081 13.712 15.341C13.1414 16.3743 12.4039 17.3479 11.5426 18.2092C11.2171 18.5347 10.6895 18.5347 10.364 18.2092C10.0386 17.8838 10.0386 17.3561 10.364 17.0307C11.1193 16.2754 11.761 15.4264 12.2531 14.5353C12.7454 13.6437 13.0743 12.7353 13.23 11.8651C13.3857 10.9948 13.3636 10.1903 13.1862 9.49213C13.0095 8.79675 12.6817 8.21614 12.2328 7.76718C11.7838 7.31822 11.2032 6.99039 10.5078 6.8137C9.80963 6.63631 9.00513 6.61421 8.13481 6.76996C7.26468 6.92568 6.35627 7.2545 5.46468 7.74686C4.57355 8.23898 3.72452 8.88059 2.96922 9.63589C2.64378 9.96133 2.11615 9.96133 1.79071 9.63589C1.46527 9.31045 1.46527 8.78282 1.79071 8.45738C2.65208 7.59601 3.62565 6.85853 4.65898 6.28789C5.69185 5.71749 6.77208 5.32069 7.84121 5.12936Z" fill="black"/>
<path fill-rule="evenodd" clip-rule="evenodd" d="M1.7908 8.4573C2.75394 7.49416 4.20507 7.31192 5.65658 7.6747C7.11778 8.03991 8.60736 8.95065 9.82833 10.1716C11.0493 11.3926 11.96 12.8822 12.3252 14.3434C12.688 15.7949 12.5058 17.246 11.5426 18.2091C10.5795 19.1723 9.12838 19.3545 7.67686 18.9918C6.21566 18.6265 4.72608 17.7158 3.50511 16.4948C2.28414 15.2739 1.3734 13.7843 1.0082 12.3231C0.645412 10.8716 0.827661 9.42044 1.7908 8.4573L2.38006 9.04656L1.7908 8.4573ZM5.25246 9.29163C4.13134 9.01142 3.37063 9.23449 2.96931 9.63581C2.56799 10.0371 2.34492 10.7978 2.62513 11.919C2.90291 13.0304 3.6308 14.2635 4.68362 15.3163C5.73645 16.3691 6.96956 17.097 8.08099 17.3748C9.2021 17.655 9.96281 17.432 10.3641 17.0306C10.7655 16.6293 10.9885 15.8686 10.7083 14.7475C10.4305 13.6361 9.70264 12.4029 8.64982 11.3501C7.597 10.2973 6.36389 9.56942 5.25246 9.29163Z" fill="black"/>
<path fill-rule="evenodd" clip-rule="evenodd" d="M13.8529 0.783622C14.2475 0.643061 14.6678 0.589141 15.085 0.625528C15.5023 0.661916 15.9069 0.787758 16.2712 0.994494C16.6355 1.20123 16.951 1.48401 17.1962 1.82359C17.336 2.01715 17.4511 2.22657 17.5393 2.44697C17.7659 2.5324 17.9817 2.64595 18.1813 2.78546C18.5286 3.02815 18.8188 3.34356 19.0319 3.70978C19.245 4.07599 19.3757 4.48421 19.415 4.90606C19.4544 5.3279 19.4013 5.75326 19.2597 6.15255C19.118 6.55184 18.891 6.91547 18.5946 7.21818C18.2982 7.52088 17.9394 7.75539 17.5431 7.90541C17.1469 8.05542 16.7227 8.11733 16.3002 8.08684C16.096 8.07211 15.8945 8.03597 15.6991 7.9794L14.3934 9.28502C14.068 9.61045 13.5404 9.61046 13.2149 9.28502C12.8895 8.95958 12.8895 8.43194 13.2149 8.10651L14.9108 6.41067C15.1736 6.14783 15.5788 6.09085 15.9039 6.27101C16.0628 6.35905 16.2389 6.41142 16.4201 6.4245C16.6013 6.43757 16.7831 6.41102 16.953 6.34671C17.1229 6.28239 17.2767 6.18185 17.4038 6.05207C17.5309 5.92229 17.6282 5.76638 17.689 5.5952C17.7497 5.42401 17.7724 5.24165 17.7556 5.06078C17.7387 4.87992 17.6826 4.7049 17.5913 4.5479C17.5 4.39089 17.3755 4.25566 17.2266 4.15161C17.0777 4.04756 16.908 3.97719 16.7291 3.94539C16.3912 3.88529 16.1246 3.6241 16.0577 3.28742C16.0227 3.11135 15.9502 2.94489 15.8451 2.79935C15.74 2.65382 15.6047 2.53262 15.4486 2.44402C15.2925 2.35542 15.1191 2.30149 14.9403 2.28589C14.7614 2.2703 14.5813 2.29341 14.4122 2.35365C14.2431 2.41389 14.089 2.50985 13.9602 2.635C13.8315 2.76014 13.7313 2.91155 13.6664 3.0789C13.6014 3.24626 13.5733 3.42564 13.5838 3.60485C13.5944 3.78405 13.6435 3.95887 13.7277 4.11742C13.8994 4.44081 13.8399 4.8384 13.5811 5.09737L11.8944 6.78487C11.5691 7.11039 11.0414 7.11052 10.7159 6.78516C10.3904 6.45981 10.3903 5.93217 10.7156 5.60665L12.0189 4.30272C11.9653 4.10738 11.9321 3.90644 11.9201 3.70308C11.8954 3.28493 11.9611 2.86638 12.1126 2.47588C12.2642 2.08538 12.498 1.73211 12.7984 1.4401C13.0987 1.14809 13.4583 0.924183 13.8529 0.783622Z" fill="black"/>
<path fill-rule="evenodd" clip-rule="evenodd" d="M5.66083 12.3273C5.98626 12.0019 6.5139 12.0019 6.83934 12.3273L7.67267 13.1607C7.99811 13.4861 7.99811 14.0137 7.67267 14.3392C7.34723 14.6646 6.8196 14.6646 6.49416 14.3392L5.66083 13.5058C5.33539 13.1804 5.33539 12.6528 5.66083 12.3273Z" fill="black"/>
</g>
<defs>
<clipPath id="clip0_2001_7400">
<rect width="20" height="20" fill="white"/>
</clipPath>
</defs>
</svg>
