<svg width="20" height="20" viewBox="0 0 20 20" fill="none" xmlns="http://www.w3.org/2000/svg">
<path fill-rule="evenodd" clip-rule="evenodd" d="M10.5892 6.91083C10.9147 7.23626 10.9147 7.7639 10.5892 8.08934L3.61174 15.0668C3.4365 15.2421 3.33805 15.4798 3.33805 15.7276C3.33805 15.9754 3.4365 16.2131 3.61174 16.3883C3.78698 16.5636 4.02466 16.662 4.27249 16.662C4.52031 16.662 4.75799 16.5636 4.93323 16.3883L11.9107 9.41083C12.2362 9.08539 12.7638 9.08539 13.0892 9.41083C13.4147 9.73626 13.4147 10.2639 13.0892 10.5893L6.11174 17.5668C5.62394 18.0546 4.96234 18.3287 4.27249 18.3287C3.58263 18.3287 2.92103 18.0546 2.43323 17.5668C1.94543 17.079 1.67139 16.4174 1.67139 15.7276C1.67139 15.0377 1.94543 14.3761 2.43323 13.8883L9.41073 6.91083C9.73617 6.58539 10.2638 6.58539 10.5892 6.91083Z" fill="black"/>
<path fill-rule="evenodd" clip-rule="evenodd" d="M18.9227 8.57733C19.2481 8.90277 19.2481 9.4304 18.9227 9.75584L15.5893 13.0892C15.2639 13.4146 14.7363 13.4146 14.4108 13.0892C14.0854 12.7637 14.0854 12.2361 14.4108 11.9107L17.7442 8.57733C18.0696 8.25189 18.5972 8.25189 18.9227 8.57733Z" fill="black"/>
<path fill-rule="evenodd" clip-rule="evenodd" d="M6.72215 2.16732C6.84672 1.84365 7.15872 1.63097 7.50553 1.63332L10.4537 1.65332C10.4537 1.65332 10.4538 1.65332 10.4539 1.65332C11.987 1.66344 13.4545 2.27673 14.539 3.36054L16.4225 5.24404C16.5787 5.40033 16.6665 5.61229 16.6665 5.8333V6.80979C16.6665 6.80985 16.6665 6.80991 16.6665 6.80997C16.6666 7.0309 16.7545 7.24275 16.9107 7.39896L16.3224 7.98746L16.9108 7.39904L18.5058 8.99404C18.8312 9.31948 18.8312 9.84712 18.5058 10.1726C18.1804 10.498 17.6527 10.498 17.3273 10.1726L15.7324 8.57765C15.7323 8.57762 15.7323 8.57759 15.7323 8.57756C15.2635 8.10883 15 7.47309 14.9999 6.81015V6.17848L13.3608 4.53939C13.3607 4.53934 13.3607 4.53928 13.3606 4.53922C12.586 3.76515 11.5378 3.32714 10.4427 3.31995L9.56033 3.31396C9.85676 3.69244 10.1073 4.1063 10.3058 4.54706C10.6529 5.31806 10.8326 6.15388 10.8332 6.99941L10.8332 7.98812L12.0117 9.16663H12.6434C13.3063 9.16678 13.9421 9.43023 14.4108 9.89904C14.4108 9.89907 14.4109 9.8991 14.4109 9.89913L16.0058 11.494C16.3312 11.8195 16.3312 12.3471 16.0058 12.6726C15.6804 12.998 15.1527 12.998 14.8273 12.6726L13.2323 11.0776L13.8207 10.4891L13.2322 11.0775C13.076 10.9212 12.8641 10.8334 12.6432 10.8333C12.6431 10.8333 12.6431 10.8333 12.643 10.8333H11.6665C11.4455 10.8333 11.2336 10.7455 11.0773 10.5892L9.41062 8.92256C9.25434 8.76628 9.16654 8.55431 9.16654 8.3333L9.16654 7.00052C9.16654 7.00046 9.16654 7.0004 9.16654 7.00034C9.16611 6.39039 9.03642 5.78746 8.78602 5.23128C8.53559 4.67504 8.17011 4.1782 7.71368 3.7735C7.71314 3.77302 7.7126 3.77254 7.71206 3.77206L6.9454 3.08873C6.6865 2.85797 6.59758 2.49099 6.72215 2.16732Z" fill="black"/>
</svg>
