<svg width="20" height="20" viewBox="0 0 20 20" fill="none" xmlns="http://www.w3.org/2000/svg">
<g clip-path="url(#clip0_2001_7429)">
<path fill-rule="evenodd" clip-rule="evenodd" d="M10.0001 0.833252C10.4603 0.833252 10.8334 1.20635 10.8334 1.66659V2.49992C10.8334 2.96016 10.4603 3.33325 10.0001 3.33325C9.53984 3.33325 9.16675 2.96016 9.16675 2.49992V1.66659C9.16675 1.20635 9.53984 0.833252 10.0001 0.833252Z" fill="black"/>
<path fill-rule="evenodd" clip-rule="evenodd" d="M10.0001 4.23942C8.79927 4.23942 7.63725 4.6645 6.71991 5.43933C5.80257 6.21417 5.18914 7.28872 4.98831 8.4726C4.91134 8.92635 4.4811 9.23179 4.02735 9.15482C3.57359 9.07785 3.26815 8.64761 3.34512 8.19386C3.61179 6.62183 4.42635 5.19496 5.64446 4.16608C6.86256 3.1372 8.40557 2.57275 10.0001 2.57275C11.5945 2.57275 13.1375 3.1372 14.3556 4.16608C15.5738 5.19496 16.3883 6.62183 16.655 8.19386C16.732 8.64761 16.4265 9.07785 15.9728 9.15482C15.519 9.23179 15.0888 8.92635 15.0118 8.4726C14.811 7.28872 14.1975 6.21417 13.2802 5.43933C12.3629 4.6645 11.2008 4.23942 10.0001 4.23942Z" fill="black"/>
<path fill-rule="evenodd" clip-rule="evenodd" d="M2.5 8.33333C2.5 7.8731 2.8731 7.5 3.33333 7.5H16.6667C17.1269 7.5 17.5 7.8731 17.5 8.33333C17.5 8.79357 17.1269 9.16667 16.6667 9.16667H3.33333C2.8731 9.16667 2.5 8.79357 2.5 8.33333Z" fill="black"/>
<path fill-rule="evenodd" clip-rule="evenodd" d="M0.833252 11.6666C0.833252 11.2063 1.20635 10.8333 1.66659 10.8333H11.6666C12.3296 10.8333 12.9655 11.0966 13.4344 11.5655C13.9032 12.0343 14.1666 12.6702 14.1666 13.3333C14.1666 13.9963 13.9032 14.6322 13.4344 15.101C12.9655 15.5699 12.3296 15.8333 11.6666 15.8333H9.99992C9.53968 15.8333 9.16658 15.4602 9.16658 14.9999C9.16658 14.5397 9.53968 14.1666 9.99992 14.1666H11.6666C11.8876 14.1666 12.0996 14.0788 12.2558 13.9225C12.4121 13.7662 12.4999 13.5543 12.4999 13.3333C12.4999 13.1122 12.4121 12.9003 12.2558 12.744C12.0996 12.5877 11.8876 12.4999 11.6666 12.4999H1.66659C1.20635 12.4999 0.833252 12.1268 0.833252 11.6666Z" fill="black"/>
<path fill-rule="evenodd" clip-rule="evenodd" d="M16.6814 12.5289C16.457 12.5249 16.2402 12.6103 16.0788 12.7662C16.069 12.7757 16.0589 12.7849 16.0487 12.7938L13.382 15.1272C13.0357 15.4302 12.5092 15.3951 12.2061 15.0488C11.903 14.7024 11.9381 14.176 12.2845 13.8729L14.9373 11.5517C15.415 11.0986 16.0518 10.8509 16.7107 10.8624C17.3771 10.8741 18.0115 11.1501 18.4744 11.6295C18.9374 12.109 19.1909 12.7527 19.1792 13.4191C19.1675 14.0855 18.8916 14.7199 18.4121 15.1829C18.4069 15.1879 18.4017 15.1928 18.3964 15.1977L15.4281 17.9186C14.6672 18.7656 13.6066 19.1667 12.4999 19.1667H9.1666C8.06325 19.1667 7.00569 18.768 6.24534 17.9262L3.61784 15.6272C3.27148 15.3241 3.23638 14.7976 3.53945 14.4513C3.84252 14.1049 4.36899 14.0698 4.71535 14.3729L7.38202 16.7062C7.40986 16.7306 7.43605 16.7568 7.46041 16.7846C7.86411 17.246 8.45572 17.5 9.1666 17.5H12.4999C13.2108 17.5 13.8024 17.246 14.2061 16.7846C14.2262 16.7616 14.2476 16.7397 14.2702 16.7191L17.2609 13.9776C17.4184 13.8223 17.5089 13.6113 17.5128 13.3899C17.5167 13.1655 17.4313 12.9487 17.2754 12.7872C17.1195 12.6257 16.9059 12.5328 16.6814 12.5289Z" fill="black"/>
<path fill-rule="evenodd" clip-rule="evenodd" d="M4.16658 10.8333C4.62682 10.8333 4.99992 11.2063 4.99992 11.6666V17.4999C4.99992 17.9602 4.62682 18.3333 4.16658 18.3333H1.66659C1.20635 18.3333 0.833252 17.9602 0.833252 17.4999C0.833252 17.0397 1.20635 16.6666 1.66659 16.6666H3.33325V11.6666C3.33325 11.2063 3.70635 10.8333 4.16658 10.8333Z" fill="black"/>
</g>
<defs>
<clipPath id="clip0_2001_7429">
<rect width="20" height="20" fill="white"/>
</clipPath>
</defs>
</svg>
