<svg width="20" height="20" viewBox="0 0 20 20" fill="none" xmlns="http://www.w3.org/2000/svg">
<g clip-path="url(#clip0_2001_7409)">
<path fill-rule="evenodd" clip-rule="evenodd" d="M6.54668 9.10685C7.00023 8.54774 7.68001 8.33325 8.33342 8.33325H10.8334C11.4965 8.33325 12.1323 8.59664 12.6012 9.06549C13.07 9.53433 13.3334 10.1702 13.3334 10.8333C13.3334 11.4963 13.07 12.1322 12.6012 12.601C12.1323 13.0699 11.4965 13.3333 10.8334 13.3333H9.16675C8.70651 13.3333 8.33342 12.9602 8.33342 12.4999C8.33342 12.0397 8.70651 11.6666 9.16675 11.6666H10.8334C11.0544 11.6666 11.2664 11.5788 11.4227 11.4225C11.579 11.2662 11.6667 11.0543 11.6667 10.8333C11.6667 10.6122 11.579 10.4003 11.4227 10.244C11.2664 10.0877 11.0544 9.99992 10.8334 9.99992H8.33342C8.0096 9.99992 7.88069 10.1036 7.83342 10.1666C7.80672 10.2022 7.77722 10.2356 7.7452 10.2665L3.07853 14.7665C2.74723 15.0859 2.21968 15.0763 1.90021 14.745C1.58074 14.4137 1.59034 13.8862 1.92164 13.5667L6.54668 9.10685Z" fill="black"/>
<path fill-rule="evenodd" clip-rule="evenodd" d="M14.9722 8.13333C15.4541 7.67938 16.0963 7.43493 16.7582 7.45364C17.4214 7.47238 18.05 7.75382 18.5057 8.23603C18.9614 8.71824 19.2069 9.36172 19.1881 10.0249C19.1694 10.6872 18.8887 11.315 18.4077 11.7705C18.407 11.7712 18.4064 11.7718 18.4057 11.7724L14.6011 15.4116C13.8398 16.2634 12.7764 16.6667 11.6667 16.6667H8.33334C8.00953 16.6667 7.88062 16.7704 7.83334 16.8334C7.79857 16.8798 7.75905 16.9224 7.71543 16.9605L6.3821 18.1272C6.03573 18.4303 5.50927 18.3952 5.2062 18.0488C4.90313 17.7025 4.93823 17.176 5.28459 16.8729L6.56121 15.7559C7.01468 15.21 7.68691 15.0001 8.33334 15.0001H11.6667C12.3776 15.0001 12.9692 14.746 13.3729 14.2846C13.3891 14.2661 13.4062 14.2482 13.424 14.2312L17.2573 10.5645C17.2585 10.5634 17.2598 10.5622 17.261 10.5611C17.4219 10.409 17.5158 10.1992 17.5221 9.97782C17.5284 9.75648 17.4464 9.54171 17.2943 9.38077C17.1422 9.21983 16.9325 9.1259 16.7111 9.11964C16.4898 9.11338 16.275 9.19531 16.114 9.3474C16.1123 9.34907 16.1105 9.35074 16.1087 9.35239L12.6087 12.6024C12.2715 12.9156 11.7442 12.896 11.431 12.5588C11.1178 12.2215 11.1374 11.6942 11.4746 11.3811L14.9722 8.13333Z" fill="black"/>
<path fill-rule="evenodd" clip-rule="evenodd" d="M1.07733 12.7441C1.40277 12.4186 1.9304 12.4186 2.25584 12.7441L7.25584 17.7441C7.58128 18.0695 7.58128 18.5972 7.25584 18.9226C6.9304 19.248 6.40277 19.248 6.07733 18.9226L1.07733 13.9226C0.751893 13.5972 0.751893 13.0695 1.07733 12.7441Z" fill="black"/>
<path fill-rule="evenodd" clip-rule="evenodd" d="M13.3333 5.91667C12.4588 5.91667 11.7499 6.62555 11.7499 7.5C11.7499 8.37445 12.4588 9.08333 13.3333 9.08333C14.2077 9.08333 14.9166 8.37445 14.9166 7.5C14.9166 6.62555 14.2077 5.91667 13.3333 5.91667ZM10.0833 7.5C10.0833 5.70508 11.5383 4.25 13.3333 4.25C15.1282 4.25 16.5833 5.70508 16.5833 7.5C16.5833 9.29493 15.1282 10.75 13.3333 10.75C11.5383 10.75 10.0833 9.29493 10.0833 7.5Z" fill="black"/>
<path fill-rule="evenodd" clip-rule="evenodd" d="M5.00008 2.49992C4.07961 2.49992 3.33341 3.24611 3.33341 4.16658C3.33341 5.08706 4.07961 5.83325 5.00008 5.83325C5.92056 5.83325 6.66675 5.08706 6.66675 4.16658C6.66675 3.24611 5.92056 2.49992 5.00008 2.49992ZM1.66675 4.16658C1.66675 2.32564 3.15913 0.833252 5.00008 0.833252C6.84103 0.833252 8.33341 2.32564 8.33341 4.16658C8.33341 6.00753 6.84103 7.49992 5.00008 7.49992C3.15913 7.49992 1.66675 6.00753 1.66675 4.16658Z" fill="black"/>
</g>
<defs>
<clipPath id="clip0_2001_7409">
<rect width="20" height="20" fill="white"/>
</clipPath>
</defs>
</svg>
