<svg width="20" height="20" viewBox="0 0 20 20" fill="none" xmlns="http://www.w3.org/2000/svg">
<path fill-rule="evenodd" clip-rule="evenodd" d="M6.54668 8.2736C7.00023 7.71449 7.68001 7.5 8.33342 7.5H10.8334C11.4965 7.5 12.1323 7.76339 12.6012 8.23223C13.07 8.70107 13.3334 9.33696 13.3334 10C13.3334 10.663 13.07 11.2989 12.6012 11.7678C12.1323 12.2366 11.4965 12.5 10.8334 12.5H9.16675C8.70651 12.5 8.33342 12.1269 8.33342 11.6667C8.33342 11.2064 8.70651 10.8333 9.16675 10.8333H10.8334C11.0544 10.8333 11.2664 10.7455 11.4227 10.5893C11.579 10.433 11.6667 10.221 11.6667 10C11.6667 9.77899 11.579 9.56703 11.4227 9.41074C11.2664 9.25446 11.0544 9.16667 10.8334 9.16667H8.33342C8.0096 9.16667 7.88069 9.2703 7.83342 9.33333C7.80672 9.36893 7.77722 9.40232 7.7452 9.4332L3.07853 13.9332C2.74723 14.2527 2.21968 14.2431 1.90021 13.9118C1.58074 13.5805 1.59034 13.0529 1.92164 12.7335L6.54668 8.2736Z" fill="black"/>
<path fill-rule="evenodd" clip-rule="evenodd" d="M14.9722 7.29983C15.4541 6.84589 16.0963 6.60143 16.7582 6.62014C17.4214 6.63889 18.05 6.92032 18.5057 7.40253C18.9614 7.88474 19.2069 8.52823 19.1881 9.19142C19.1694 9.85372 18.8887 10.4815 18.4077 10.937C18.407 10.9377 18.4064 10.9383 18.4057 10.9389L14.6011 14.5781C13.8398 15.4299 12.7764 15.8332 11.6667 15.8332H8.33334C8.00953 15.8332 7.88062 15.9369 7.83334 15.9999C7.79857 16.0463 7.75905 16.0889 7.71543 16.127L6.3821 17.2937C6.03573 17.5968 5.50927 17.5617 5.2062 17.2153C4.90313 16.869 4.93823 16.3425 5.28459 16.0394L6.56121 14.9224C7.01468 14.3765 7.68691 14.1666 8.33334 14.1666H11.6667C12.3776 14.1666 12.9692 13.9125 13.3729 13.4511C13.3891 13.4326 13.4062 13.4148 13.424 13.3977L17.2573 9.73103C17.2585 9.72987 17.2598 9.72872 17.261 9.72756C17.4219 9.57547 17.5158 9.36568 17.5221 9.14433C17.5284 8.92298 17.4464 8.70821 17.2943 8.54727C17.1422 8.38633 16.9325 8.2924 16.7111 8.28614C16.4898 8.27988 16.275 8.36181 16.114 8.51391C16.1123 8.51558 16.1105 8.51724 16.1087 8.5189L12.6087 11.7689C12.2715 12.0821 11.7442 12.0625 11.431 11.7253C11.1178 11.388 11.1374 10.8607 11.4746 10.5476L14.9722 7.29983Z" fill="black"/>
<path fill-rule="evenodd" clip-rule="evenodd" d="M1.07733 11.9108C1.40277 11.5854 1.9304 11.5854 2.25584 11.9108L7.25584 16.9108C7.58128 17.2363 7.58128 17.7639 7.25584 18.0893C6.9304 18.4148 6.40277 18.4148 6.07733 18.0893L1.07733 13.0893C0.751893 12.7639 0.751893 12.2363 1.07733 11.9108Z" fill="black"/>
<path fill-rule="evenodd" clip-rule="evenodd" d="M14.2502 1.62829C14.914 1.40534 15.6337 1.41309 16.2926 1.65029C16.9515 1.8875 17.511 2.34025 17.8804 2.93518C18.2416 3.51683 18.4004 4.20107 18.333 4.88153C18.3104 6.16075 17.3916 7.12037 16.8393 7.67267L13.9226 10.5893C13.6005 10.9114 13.0795 10.9152 12.7527 10.5978L9.83605 7.76448C9.8199 7.74879 9.80439 7.73245 9.78956 7.7155C9.74378 7.66318 9.69444 7.60811 9.64256 7.55019C9.12075 6.96767 8.34159 6.09787 8.33344 4.85311C8.3062 4.18687 8.49109 3.52897 8.86176 2.97428C9.23604 2.41418 9.78002 1.98882 10.4138 1.76064C11.0477 1.53247 11.7379 1.51349 12.3834 1.70651C12.7114 1.80462 13.0191 1.95489 13.2955 2.14969C13.5787 1.9227 13.9013 1.74544 14.2502 1.62829ZM15.7281 3.21844C15.4225 3.10842 15.0887 3.10483 14.7808 3.20823C14.4729 3.31164 14.2089 3.51599 14.0317 3.78817C13.8833 4.01606 13.633 4.1572 13.3612 4.16628C13.0894 4.17537 12.8303 4.05126 12.667 3.83378C12.4765 3.58011 12.2097 3.39419 11.9058 3.3033C11.6019 3.21241 11.2768 3.22134 10.9784 3.32879C10.6799 3.43624 10.4237 3.63654 10.2475 3.90029C10.0713 4.16404 9.9842 4.47735 9.99912 4.79422C9.99974 4.80727 10 4.82034 10 4.83342C10 5.42704 10.3531 5.82984 10.9597 6.52193C10.98 6.54512 11.0006 6.56864 11.0215 6.59251L13.3249 8.83005L15.6608 6.49416C16.2682 5.8867 16.6667 5.36346 16.6667 4.83342C16.6667 4.80177 16.6685 4.77015 16.6721 4.73872C16.709 4.41602 16.6359 4.09031 16.4645 3.81438C16.2932 3.53845 16.0337 3.32846 15.7281 3.21844Z" fill="black"/>
</svg>
