<svg width="20" height="20" viewBox="0 0 20 20" fill="none" xmlns="http://www.w3.org/2000/svg">
<path fill-rule="evenodd" clip-rule="evenodd" d="M12.744 12.7441C13.0694 12.4186 13.5971 12.4186 13.9225 12.7441C14.164 12.9856 14.3556 13.2724 14.4864 13.5879C14.6171 13.9035 14.6844 14.2418 14.6844 14.5833C14.6844 14.9249 14.6171 15.2632 14.4864 15.5787C14.3556 15.8943 14.164 16.1811 13.9225 16.4226C13.681 16.6641 13.3942 16.8557 13.0786 16.9864C12.7631 17.1172 12.4248 17.1844 12.0833 17.1844C11.7417 17.1844 11.4034 17.1172 11.0879 16.9864C10.7723 16.8557 10.4855 16.6641 10.244 16.4226L8.57733 14.7559C8.25189 14.4305 8.25189 13.9028 8.57733 13.5774C8.90277 13.252 9.4304 13.252 9.75584 13.5774L11.4225 15.2441C11.5093 15.3308 11.6123 15.3997 11.7257 15.4466C11.839 15.4936 11.9605 15.5178 12.0833 15.5178C12.206 15.5178 12.3275 15.4936 12.4408 15.4466C12.5542 15.3997 12.6572 15.3308 12.744 15.2441C12.8308 15.1573 12.8996 15.0543 12.9466 14.9409C12.9935 14.8276 13.0177 14.706 13.0177 14.5833C13.0177 14.4606 12.9935 14.3391 12.9466 14.2257C12.8996 14.1124 12.8308 14.0094 12.744 13.9226C12.4186 13.5972 12.4186 13.0695 12.744 12.7441Z" fill="black"/>
<path fill-rule="evenodd" clip-rule="evenodd" d="M14.0474 3.89859C13.285 3.44278 12.3924 3.25427 11.5108 3.3629C10.6294 3.47152 9.80937 3.87097 9.1805 4.49805C9.18039 4.49816 9.18029 4.49827 9.18018 4.49837L6.83928 6.83927C6.66404 7.01451 6.56559 7.25219 6.56559 7.50001C6.56559 7.74784 6.66404 7.98552 6.83928 8.16076C7.01452 8.336 7.2522 8.43445 7.50003 8.43445C7.74785 8.43445 7.98553 8.336 8.16077 8.16076L8.89447 7.42706C9.51947 6.80283 10.3667 6.45221 11.25 6.45221C12.1334 6.45221 12.9806 6.80283 13.6056 7.42706L16.8393 10.6608C17.3271 11.1486 17.6011 11.8102 17.6011 12.5C17.6011 13.1899 17.3271 13.8515 16.8393 14.3393C16.3515 14.8271 15.6899 15.1011 15 15.1011C14.3102 15.1011 13.6486 14.8271 13.1608 14.3393L11.0774 12.2559C10.752 11.9305 10.752 11.4029 11.0774 11.0774C11.4029 10.752 11.9305 10.752 12.2559 11.0774L14.3393 13.1608C14.5145 13.336 14.7522 13.4344 15 13.4344C15.2479 13.4344 15.4855 13.336 15.6608 13.1608C15.836 12.9855 15.9345 12.7478 15.9345 12.5C15.9345 12.2522 15.836 12.0145 15.6608 11.8393L12.4278 8.6063C12.1153 8.29419 11.6917 8.11888 11.25 8.11888C10.8085 8.11888 10.3851 8.29405 10.0726 8.60594C10.0726 8.60595 10.0726 8.60596 10.0726 8.60597C10.0725 8.60608 10.0724 8.60619 10.0722 8.6063L9.33928 9.33927C8.85148 9.82707 8.18988 10.1011 7.50003 10.1011C6.81017 10.1011 6.14857 9.82707 5.66077 9.33927C5.17297 8.85147 4.89893 8.18987 4.89893 7.50001C4.89893 6.81016 5.17297 6.14856 5.66077 5.66076L8.00321 3.31832C8.89471 2.42916 10.0573 1.86274 11.307 1.70875C12.5564 1.55478 13.8215 1.82186 14.902 2.46772C14.9022 2.46785 14.9024 2.46798 14.9027 2.4681L15.2932 2.70076C15.2946 2.70158 15.2959 2.7024 15.2973 2.70323C15.4743 2.81006 15.6847 2.84727 15.8876 2.80766C15.8881 2.80757 15.8885 2.80748 15.889 2.80739L17.3357 2.51638C17.7869 2.42562 18.2262 2.71781 18.317 3.16901C18.4078 3.62021 18.1156 4.05956 17.6644 4.15032L16.2144 4.44198C16.2133 4.4422 16.2122 4.44242 16.2111 4.44264C15.602 4.56261 14.9701 4.45168 14.4383 4.13149C14.4376 4.13104 14.4368 4.13059 14.4361 4.13014L14.0474 3.89859Z" fill="black"/>
<path fill-rule="evenodd" clip-rule="evenodd" d="M17.4245 1.66998C17.8828 1.62831 18.2882 1.9661 18.3298 2.42444L19.1632 11.5911C19.1844 11.8243 19.1065 12.0556 18.9486 12.2285C18.7907 12.4014 18.5674 12.4999 18.3333 12.4999H16.6666C16.2063 12.4999 15.8333 12.1268 15.8333 11.6666C15.8333 11.2063 16.2063 10.8332 16.6666 10.8332H17.4207L16.67 2.57534C16.6283 2.11699 16.9661 1.71165 17.4245 1.66998Z" fill="black"/>
<path fill-rule="evenodd" clip-rule="evenodd" d="M2.57537 1.66998C3.03372 1.71165 3.3715 2.11699 3.32983 2.57534L2.53184 11.3533L7.67251 16.494C7.84775 16.6692 8.08543 16.7677 8.33326 16.7677C8.58108 16.7677 8.81876 16.6692 8.994 16.494C9.16924 16.3187 9.26769 16.0811 9.26769 15.8332C9.26769 15.5854 9.16924 15.3477 8.994 15.1725C8.66856 14.847 8.66856 14.3194 8.994 13.994C9.31944 13.6685 9.84708 13.6685 10.1725 13.994C10.6603 14.4818 10.9344 15.1434 10.9344 15.8332C10.9344 16.5231 10.6603 17.1847 10.1725 17.6725C9.68471 18.1603 9.02311 18.4343 8.33326 18.4343C7.6434 18.4343 6.9818 18.1603 6.494 17.6725L1.07733 12.2558C0.902454 12.0809 0.814287 11.8374 0.836678 11.5911L1.67001 2.42444C1.71168 1.9661 2.11702 1.62831 2.57537 1.66998Z" fill="black"/>
<path fill-rule="evenodd" clip-rule="evenodd" d="M1.66675 3.33333C1.66675 2.8731 2.03984 2.5 2.50008 2.5H9.16675C9.62698 2.5 10.0001 2.8731 10.0001 3.33333C10.0001 3.79357 9.62698 4.16667 9.16675 4.16667H2.50008C2.03984 4.16667 1.66675 3.79357 1.66675 3.33333Z" fill="black"/>
</svg>
