<svg width="20" height="20" viewBox="0 0 20 20" fill="none" xmlns="http://www.w3.org/2000/svg">
<path fill-rule="evenodd" clip-rule="evenodd" d="M6.54668 6.60685C7.00023 6.04774 7.68001 5.83325 8.33342 5.83325H10.8334C11.4965 5.83325 12.1323 6.09664 12.6012 6.56549C13.07 7.03433 13.3334 7.67021 13.3334 8.33325C13.3334 8.99629 13.07 9.63218 12.6012 10.101C12.1323 10.5699 11.4965 10.8333 10.8334 10.8333H9.16675C8.70651 10.8333 8.33342 10.4602 8.33342 9.99992C8.33342 9.53968 8.70651 9.16658 9.16675 9.16658H10.8334C11.0544 9.16658 11.2664 9.07879 11.4227 8.92251C11.579 8.76623 11.6667 8.55427 11.6667 8.33325C11.6667 8.11224 11.579 7.90028 11.4227 7.744C11.2664 7.58772 11.0544 7.49992 10.8334 7.49992H8.33342C8.0096 7.49992 7.88069 7.60355 7.83342 7.66659C7.80672 7.70218 7.77722 7.73557 7.7452 7.76646L3.07853 12.2665C2.74723 12.5859 2.21968 12.5763 1.90021 12.245C1.58074 11.9137 1.59034 11.3862 1.92164 11.0667L6.54668 6.60685Z" fill="black"/>
<path fill-rule="evenodd" clip-rule="evenodd" d="M14.9722 5.63333C15.4541 5.17938 16.0963 4.93493 16.7582 4.95364C17.4214 4.97238 18.05 5.25382 18.5057 5.73603C18.9614 6.21824 19.2069 6.86172 19.1881 7.52492C19.1694 8.18721 18.8887 8.81499 18.4077 9.27054C18.407 9.27116 18.4064 9.27178 18.4057 9.2724L14.6011 12.9116C13.8398 13.7634 12.7764 14.1667 11.6667 14.1667H8.33334C8.00953 14.1667 7.88062 14.2704 7.83334 14.3334C7.79857 14.3798 7.75905 14.4224 7.71543 14.4605L6.3821 15.6272C6.03573 15.9303 5.50927 15.8952 5.2062 15.5488C4.90313 15.2025 4.93823 14.676 5.28459 14.3729L6.56121 13.2559C7.01468 12.71 7.68691 12.5001 8.33334 12.5001H11.6667C12.3776 12.5001 12.9692 12.246 13.3729 11.7846C13.3891 11.7661 13.4062 11.7482 13.424 11.7312L17.2573 8.06453C17.2585 8.06337 17.2598 8.06221 17.261 8.06106C17.4219 7.90897 17.5158 7.69917 17.5221 7.47782C17.5284 7.25648 17.4464 7.04171 17.2943 6.88077C17.1422 6.71983 16.9325 6.6259 16.7111 6.61964C16.4898 6.61338 16.275 6.69531 16.114 6.8474C16.1123 6.84907 16.1105 6.85074 16.1087 6.85239L12.6087 10.1024C12.2715 10.4156 11.7442 10.396 11.431 10.0588C11.1178 9.72152 11.1374 9.19424 11.4746 8.88107L14.9722 5.63333Z" fill="black"/>
<path fill-rule="evenodd" clip-rule="evenodd" d="M1.07733 10.2441C1.40277 9.91864 1.9304 9.91864 2.25584 10.2441L7.25584 15.2441C7.58128 15.5695 7.58128 16.0972 7.25584 16.4226C6.9304 16.748 6.40277 16.748 6.07733 16.4226L1.07733 11.4226C0.751893 11.0972 0.751893 10.5695 1.07733 10.2441Z" fill="black"/>
</svg>
