<svg width="20" height="20" viewBox="0 0 20 20" fill="none" xmlns="http://www.w3.org/2000/svg">
<path fill-rule="evenodd" clip-rule="evenodd" d="M11.5655 6.56549C12.0343 6.09664 12.6702 5.83325 13.3333 5.83325C13.9963 5.83325 14.6322 6.09664 15.101 6.56549C15.5699 7.03433 15.8333 7.67021 15.8333 8.33325V10.4166C15.8333 10.8768 15.4602 11.2499 14.9999 11.2499C14.5397 11.2499 14.1666 10.8768 14.1666 10.4166V8.33325C14.1666 8.11224 14.0788 7.90028 13.9225 7.744C13.7662 7.58772 13.5543 7.49992 13.3333 7.49992C13.1122 7.49992 12.9003 7.58772 12.744 7.744C12.5877 7.90028 12.4999 8.11224 12.4999 8.33325V9.49992C12.4999 9.96016 12.1268 10.3333 11.6666 10.3333C11.2063 10.3333 10.8333 9.96016 10.8333 9.49992V8.33325C10.8333 7.67021 11.0966 7.03433 11.5655 6.56549Z" fill="black"/>
<path fill-rule="evenodd" clip-rule="evenodd" d="M8.23223 5.73223C8.70107 5.26339 9.33696 5 10 5C10.663 5 11.2989 5.26339 11.7678 5.73223C12.2366 6.20107 12.5 6.83696 12.5 7.5V9.16667C12.5 9.6269 12.1269 10 11.6667 10C11.2064 10 10.8333 9.6269 10.8333 9.16667V7.5C10.8333 7.27899 10.7455 7.06702 10.5893 6.91074C10.433 6.75446 10.221 6.66667 10 6.66667C9.77899 6.66667 9.56703 6.75446 9.41074 6.91074C9.25446 7.06702 9.16667 7.27899 9.16667 7.5V9.16667C9.16667 9.6269 8.79357 10 8.33333 10C7.8731 10 7.5 9.6269 7.5 9.16667V7.5C7.5 6.83696 7.76339 6.20107 8.23223 5.73223Z" fill="black"/>
<path fill-rule="evenodd" clip-rule="evenodd" d="M4.89898 2.39898C5.36782 1.93014 6.00371 1.66675 6.66675 1.66675C7.32979 1.66675 7.96567 1.93014 8.43451 2.39898C8.90336 2.86782 9.16675 3.50371 9.16675 4.16675V8.75008C9.16675 9.21032 8.79365 9.58341 8.33342 9.58341C7.87318 9.58341 7.50008 9.21032 7.50008 8.75008V4.16675C7.50008 3.94573 7.41228 3.73377 7.256 3.57749C7.09972 3.42121 6.88776 3.33341 6.66675 3.33341C6.44573 3.33341 6.23377 3.42121 6.07749 3.57749C5.92121 3.73377 5.83341 3.94573 5.83341 4.16675V11.6667C5.83341 12.127 5.46032 12.5001 5.00008 12.5001C4.53984 12.5001 4.16675 12.127 4.16675 11.6667V4.16675C4.16675 3.50371 4.43014 2.86782 4.89898 2.39898Z" fill="black"/>
<path fill-rule="evenodd" clip-rule="evenodd" d="M14.8989 4.06548C15.3677 3.59664 16.0036 3.33325 16.6667 3.33325C17.3297 3.33325 17.9656 3.59664 18.4344 4.06548C18.9033 4.53433 19.1667 5.17021 19.1667 5.83325V11.6666C19.1667 13.6557 18.3765 15.5634 16.97 16.9699C15.5634 18.3764 13.6558 19.1666 11.6667 19.1666H10C7.44266 19.1666 5.81602 18.3601 4.42107 16.9745C4.42041 16.9738 4.41974 16.9732 4.41908 16.9725L1.41908 13.9725C1.40907 13.9625 1.39932 13.9522 1.38983 13.9417C0.959746 13.4654 0.72931 12.8419 0.746231 12.2004C0.763153 11.5589 1.02613 10.9484 1.48073 10.4954C1.93532 10.0424 2.5467 9.78162 3.18829 9.76697C3.82988 9.75232 4.45253 9.98496 4.92733 10.4167C4.93707 10.4256 4.94661 10.4347 4.95593 10.444L6.42259 11.9107C6.74803 12.2361 6.74803 12.7637 6.42259 13.0892C6.09716 13.4146 5.56952 13.4146 5.24408 13.0892L3.79379 11.6389C3.63714 11.502 3.43474 11.4284 3.22634 11.4332C3.01248 11.4381 2.80868 11.525 2.65715 11.676C2.50562 11.827 2.41796 12.0305 2.41232 12.2443C2.40683 12.4523 2.47934 12.6546 2.6152 12.8116L5.59561 15.792C5.59594 15.7923 5.59627 15.7927 5.59661 15.793C6.68473 16.8735 7.89133 17.4999 10 17.4999H11.6667C13.2138 17.4999 14.6975 16.8853 15.7915 15.7914C16.8854 14.6974 17.5 13.2137 17.5 11.6666V5.83325C17.5 5.61224 17.4122 5.40028 17.2559 5.244C17.0996 5.08772 16.8877 4.99992 16.6667 4.99992C16.4457 4.99992 16.2337 5.08772 16.0774 5.244C15.9211 5.40028 15.8333 5.61224 15.8333 5.83325V9.99992C15.8333 10.4602 15.4602 10.8333 15 10.8333C14.5398 10.8333 14.1667 10.4602 14.1667 9.99992V5.83325C14.1667 5.17021 14.4301 4.53433 14.8989 4.06548Z" fill="black"/>
</svg>
