<svg width="20" height="20" viewBox="0 0 20 20" fill="none" xmlns="http://www.w3.org/2000/svg">
<g clip-path="url(#clip0_2001_7436)">
<path fill-rule="evenodd" clip-rule="evenodd" d="M11.5655 3.23223C12.0343 2.76339 12.6702 2.5 13.3333 2.5C13.9963 2.5 14.6322 2.76339 15.101 3.23223C15.5699 3.70107 15.8333 4.33696 15.8333 5V9.16667C15.8333 9.6269 15.4602 10 14.9999 10C14.5397 10 14.1666 9.6269 14.1666 9.16667V5C14.1666 4.77899 14.0788 4.56702 13.9225 4.41074C13.7662 4.25446 13.5543 4.16667 13.3333 4.16667C13.1122 4.16667 12.9003 4.25446 12.744 4.41074C12.5877 4.56702 12.4999 4.77899 12.4999 5C12.4999 5.46024 12.1268 5.83333 11.6666 5.83333C11.2063 5.83333 10.8333 5.46024 10.8333 5C10.8333 4.33696 11.0966 3.70107 11.5655 3.23223Z" fill="black"/>
<path fill-rule="evenodd" clip-rule="evenodd" d="M8.23223 1.56548C8.70107 1.09664 9.33696 0.833252 10 0.833252C10.663 0.833252 11.2989 1.09664 11.7678 1.56548C12.2366 2.03433 12.5 2.67021 12.5 3.33325V8.33325C12.5 8.79349 12.1269 9.16658 11.6667 9.16658C11.2064 9.16658 10.8333 8.79349 10.8333 8.33325V3.33325C10.8333 3.11224 10.7455 2.90028 10.5893 2.744C10.433 2.58772 10.221 2.49992 10 2.49992C9.77899 2.49992 9.56703 2.58772 9.41074 2.744C9.25446 2.90028 9.16667 3.11224 9.16667 3.33325V4.99992C9.16667 5.46016 8.79357 5.83325 8.33333 5.83325C7.8731 5.83325 7.5 5.46016 7.5 4.99992V3.33325C7.5 2.67021 7.76339 2.03433 8.23223 1.56548Z" fill="black"/>
<path fill-rule="evenodd" clip-rule="evenodd" d="M4.89898 3.23223C5.36782 2.76339 6.00371 2.5 6.66675 2.5C7.32979 2.5 7.96567 2.76339 8.43451 3.23223C8.90336 3.70107 9.16675 4.33696 9.16675 5V8.75C9.16675 9.21024 8.79365 9.58333 8.33342 9.58333C7.87318 9.58333 7.50008 9.21024 7.50008 8.75V5C7.50008 4.77899 7.41228 4.56702 7.256 4.41074C7.09972 4.25446 6.88776 4.16667 6.66675 4.16667C6.44573 4.16667 6.23377 4.25446 6.07749 4.41074C5.92121 4.56702 5.83341 4.77899 5.83341 5V11.6667C5.83341 12.1269 5.46032 12.5 5.00008 12.5C4.53984 12.5 4.16675 12.1269 4.16675 11.6667V5C4.16675 4.33696 4.43014 3.70107 4.89898 3.23223Z" fill="black"/>
<path fill-rule="evenodd" clip-rule="evenodd" d="M16.6667 5.83341C16.4457 5.83341 16.2337 5.92121 16.0774 6.07749C15.9211 6.23377 15.8333 6.44573 15.8333 6.66675C15.8333 7.12699 15.4602 7.50008 15 7.50008C14.5398 7.50008 14.1667 7.12699 14.1667 6.66675C14.1667 6.00371 14.4301 5.36782 14.8989 4.89898C15.3677 4.43014 16.0036 4.16675 16.6667 4.16675C17.3297 4.16675 17.9656 4.43014 18.4344 4.89898C18.9033 5.36782 19.1667 6.00371 19.1667 6.66675V11.6667C19.1667 13.6559 18.3765 15.5635 16.97 16.97C15.5634 18.3766 13.6558 19.1667 11.6667 19.1667H10C7.44266 19.1667 5.81602 18.3602 4.42107 16.9747C4.42041 16.974 4.41974 16.9733 4.41908 16.9727L1.41908 13.9727C1.40907 13.9627 1.39932 13.9524 1.38983 13.9419C0.959746 13.4656 0.72931 12.8421 0.746231 12.2006C0.763153 11.559 1.02613 10.9486 1.48073 10.4956C1.93532 10.0426 2.5467 9.78178 3.18829 9.76713C3.82988 9.75248 4.45253 9.98512 4.92733 10.4169C4.93707 10.4257 4.94661 10.4348 4.95593 10.4442L6.42259 11.9108C6.74803 12.2363 6.74803 12.7639 6.42259 13.0893C6.09716 13.4148 5.56952 13.4148 5.24408 13.0893L3.79379 11.639C3.63714 11.5021 3.43474 11.4286 3.22634 11.4334C3.01248 11.4382 2.80868 11.5252 2.65715 11.6762C2.50562 11.8272 2.41796 12.0307 2.41232 12.2445C2.40683 12.4525 2.47933 12.6548 2.61519 12.8118L5.59561 15.7922C5.59594 15.7925 5.59627 15.7928 5.59661 15.7932C6.68473 16.8736 7.89133 17.5001 10 17.5001H11.6667C13.2138 17.5001 14.6975 16.8855 15.7915 15.7915C16.8854 14.6976 17.5 13.2138 17.5 11.6667V6.66675C17.5 6.44573 17.4122 6.23377 17.2559 6.07749C17.0996 5.92121 16.8877 5.83341 16.6667 5.83341Z" fill="black"/>
</g>
<defs>
<clipPath id="clip0_2001_7436">
<rect width="20" height="20" fill="white"/>
</clipPath>
</defs>
</svg>
