<svg width="20" height="20" viewBox="0 0 20 20" fill="none" xmlns="http://www.w3.org/2000/svg">
<g clip-path="url(#clip0_2001_7453)">
<path fill-rule="evenodd" clip-rule="evenodd" d="M9.41066 1.07733C9.7361 0.751893 10.2637 0.751893 10.5892 1.07733L13.9225 4.41066C14.2479 4.7361 14.2479 5.26374 13.9225 5.58917C13.5971 5.91461 13.0694 5.91461 12.744 5.58917L9.99992 2.8451L7.25584 5.58917C6.9304 5.91461 6.40277 5.91461 6.07733 5.58917C5.75189 5.26374 5.75189 4.7361 6.07733 4.41066L9.41066 1.07733Z" fill="black"/>
<path fill-rule="evenodd" clip-rule="evenodd" d="M10.0001 0.833252C10.4603 0.833252 10.8334 1.20635 10.8334 1.66659V8.33325C10.8334 8.79349 10.4603 9.16658 10.0001 9.16658C9.53984 9.16658 9.16675 8.79349 9.16675 8.33325V1.66659C9.16675 1.20635 9.53984 0.833252 10.0001 0.833252Z" fill="black"/>
<path fill-rule="evenodd" clip-rule="evenodd" d="M3.33325 12.4999C2.87301 12.4999 2.49992 12.873 2.49992 13.3333V16.6666C2.49992 17.1268 2.87301 17.4999 3.33325 17.4999H16.6666C17.1268 17.4999 17.4999 17.1268 17.4999 16.6666V13.3333C17.4999 12.873 17.1268 12.4999 16.6666 12.4999H3.33325ZM0.833252 13.3333C0.833252 11.9525 1.95254 10.8333 3.33325 10.8333H16.6666C18.0473 10.8333 19.1666 11.9525 19.1666 13.3333V16.6666C19.1666 18.0473 18.0473 19.1666 16.6666 19.1666H3.33325C1.95254 19.1666 0.833252 18.0473 0.833252 16.6666V13.3333Z" fill="black"/>
<path fill-rule="evenodd" clip-rule="evenodd" d="M4.16675 15.0001C4.16675 14.5398 4.53984 14.1667 5.00008 14.1667H5.00841C5.46865 14.1667 5.84175 14.5398 5.84175 15.0001C5.84175 15.4603 5.46865 15.8334 5.00841 15.8334H5.00008C4.53984 15.8334 4.16675 15.4603 4.16675 15.0001Z" fill="black"/>
<path fill-rule="evenodd" clip-rule="evenodd" d="M7.5 15.0001C7.5 14.5398 7.8731 14.1667 8.33333 14.1667H8.34167C8.8019 14.1667 9.175 14.5398 9.175 15.0001C9.175 15.4603 8.8019 15.8334 8.34167 15.8334H8.33333C7.8731 15.8334 7.5 15.4603 7.5 15.0001Z" fill="black"/>
</g>
<defs>
<clipPath id="clip0_2001_7453">
<rect width="20" height="20" fill="white"/>
</clipPath>
</defs>
</svg>
