<svg width="20" height="20" viewBox="0 0 20 20" fill="none" xmlns="http://www.w3.org/2000/svg">
<path fill-rule="evenodd" clip-rule="evenodd" d="M1.32141 12.1549C1.63397 11.8423 2.05789 11.6667 2.49992 11.6667H17.4999C17.9419 11.6667 18.3659 11.8423 18.6784 12.1549C18.991 12.4675 19.1666 12.8914 19.1666 13.3334V15.0001C19.1666 15.4421 18.991 15.866 18.6784 16.1786C18.3659 16.4912 17.9419 16.6667 17.4999 16.6667H2.49992C2.05789 16.6667 1.63397 16.4912 1.32141 16.1786C1.00885 15.866 0.833252 15.4421 0.833252 15.0001V13.3334C0.833252 12.8914 1.00885 12.4675 1.32141 12.1549ZM17.4999 13.3334H2.49992V15.0001L17.4999 15.0001V13.3334Z" fill="black"/>
<path fill-rule="evenodd" clip-rule="evenodd" d="M7.98816 2.98816C8.30072 2.6756 8.72464 2.5 9.16667 2.5H10.8333C11.2754 2.5 11.6993 2.6756 12.0118 2.98816C12.3244 3.30072 12.5 3.72464 12.5 4.16667V8.33333C12.5 8.79357 12.1269 9.16667 11.6667 9.16667C11.2064 9.16667 10.8333 8.79357 10.8333 8.33333V4.16667L9.16667 4.16667L9.16667 8.33333C9.16667 8.79357 8.79357 9.16667 8.33333 9.16667C7.8731 9.16667 7.5 8.79357 7.5 8.33333V4.16667C7.5 3.72464 7.6756 3.30072 7.98816 2.98816Z" fill="black"/>
<path fill-rule="evenodd" clip-rule="evenodd" d="M8.33333 5.83341C7.22826 5.83341 6.16846 6.2724 5.38705 7.0538C4.60565 7.83521 4.16667 8.89501 4.16667 10.0001V12.5001C4.16667 12.9603 3.79357 13.3334 3.33333 13.3334C2.8731 13.3334 2.5 12.9603 2.5 12.5001V10.0001C2.5 8.45299 3.11458 6.96925 4.20854 5.87529C5.30251 4.78133 6.78624 4.16675 8.33333 4.16675C8.79357 4.16675 9.16667 4.53984 9.16667 5.00008C9.16667 5.46032 8.79357 5.83341 8.33333 5.83341Z" fill="black"/>
<path fill-rule="evenodd" clip-rule="evenodd" d="M10.8333 5.00008C10.8333 4.53984 11.2063 4.16675 11.6666 4.16675C13.2137 4.16675 14.6974 4.78133 15.7914 5.87529C16.8853 6.96925 17.4999 8.45299 17.4999 10.0001V12.5001C17.4999 12.9603 17.1268 13.3334 16.6666 13.3334C16.2063 13.3334 15.8333 12.9603 15.8333 12.5001V10.0001C15.8333 8.89501 15.3943 7.8352 14.6129 7.0538C13.8315 6.2724 12.7717 5.83341 11.6666 5.83341C11.2063 5.83341 10.8333 5.46032 10.8333 5.00008Z" fill="black"/>
</svg>
