<svg width="20" height="20" viewBox="0 0 20 20" fill="none" xmlns="http://www.w3.org/2000/svg">
<path fill-rule="evenodd" clip-rule="evenodd" d="M0.833252 10.0001C0.833252 9.53984 1.20635 9.16675 1.66659 9.16675H18.3333C18.7935 9.16675 19.1666 9.53984 19.1666 10.0001C19.1666 10.4603 18.7935 10.8334 18.3333 10.8334H1.66659C1.20635 10.8334 0.833252 10.4603 0.833252 10.0001Z" fill="black"/>
<path fill-rule="evenodd" clip-rule="evenodd" d="M6.03281 2.5H13.967C14.4321 2.50025 14.8879 2.63024 15.2832 2.87535C15.6781 3.12023 15.997 3.47033 16.2039 3.88632C16.2041 3.88672 16.2043 3.88711 16.2045 3.8875L19.0784 9.62689C19.1364 9.74272 19.1666 9.87047 19.1666 10V15C19.1666 15.663 18.9032 16.2989 18.4344 16.7678C17.9655 17.2366 17.3296 17.5 16.6666 17.5H3.33325C2.67021 17.5 2.03433 17.2366 1.56549 16.7678C1.09664 16.2989 0.833252 15.663 0.833252 15V10C0.833252 9.87047 0.863449 9.74272 0.921446 9.62689L3.79531 3.8875C3.79551 3.88709 3.79572 3.88668 3.79592 3.88626C4.00291 3.47029 4.32173 3.12022 4.71662 2.87535C5.11189 2.63024 5.5677 2.50025 6.03281 2.5ZM6.0335 4.16667C5.87853 4.16679 5.72667 4.21011 5.59496 4.29178C5.4632 4.37349 5.35685 4.49033 5.28786 4.62917C5.28748 4.62993 5.28711 4.63069 5.28673 4.63144L2.49992 10.197V15C2.49992 15.221 2.58772 15.433 2.744 15.5893C2.90028 15.7455 3.11224 15.8333 3.33325 15.8333H16.6666C16.8876 15.8333 17.0996 15.7455 17.2558 15.5893C17.4121 15.433 17.4999 15.221 17.4999 15V10.197L14.7131 4.63144L14.712 4.62917C14.643 4.49033 14.5366 4.37349 14.4049 4.29178C14.2732 4.21011 14.1213 4.16679 13.9663 4.16667H6.0335Z" fill="black"/>
<path fill-rule="evenodd" clip-rule="evenodd" d="M4.16675 13.3333C4.16675 12.8731 4.53984 12.5 5.00008 12.5H5.00841C5.46865 12.5 5.84175 12.8731 5.84175 13.3333C5.84175 13.7936 5.46865 14.1667 5.00841 14.1667H5.00008C4.53984 14.1667 4.16675 13.7936 4.16675 13.3333Z" fill="black"/>
<path fill-rule="evenodd" clip-rule="evenodd" d="M7.5 13.3333C7.5 12.8731 7.8731 12.5 8.33333 12.5H8.34167C8.8019 12.5 9.175 12.8731 9.175 13.3333C9.175 13.7936 8.8019 14.1667 8.34167 14.1667H8.33333C7.8731 14.1667 7.5 13.7936 7.5 13.3333Z" fill="black"/>
</svg>
