<svg width="20" height="20" viewBox="0 0 20 20" fill="none" xmlns="http://www.w3.org/2000/svg">
<path fill-rule="evenodd" clip-rule="evenodd" d="M2.5 7.50008C2.5 7.03984 2.8731 6.66675 3.33333 6.66675H16.6667C17.1269 6.66675 17.5 7.03984 17.5 7.50008C17.5 7.96032 17.1269 8.33341 16.6667 8.33341H3.33333C2.8731 8.33341 2.5 7.96032 2.5 7.50008Z" fill="black"/>
<path fill-rule="evenodd" clip-rule="evenodd" d="M2.5 12.5001C2.5 12.0398 2.8731 11.6667 3.33333 11.6667H16.6667C17.1269 11.6667 17.5 12.0398 17.5 12.5001C17.5 12.9603 17.1269 13.3334 16.6667 13.3334H3.33333C2.8731 13.3334 2.5 12.9603 2.5 12.5001Z" fill="black"/>
<path fill-rule="evenodd" clip-rule="evenodd" d="M8.42535 1.67167C8.88277 1.7225 9.21239 2.13451 9.16156 2.59194L7.4949 17.5919C7.44407 18.0494 7.03205 18.379 6.57463 18.3281C6.11721 18.2773 5.7876 17.8653 5.83842 17.4079L7.50509 2.40788C7.55591 1.95046 7.96793 1.62085 8.42535 1.67167Z" fill="black"/>
<path fill-rule="evenodd" clip-rule="evenodd" d="M13.4254 1.67167C13.8828 1.7225 14.2124 2.13451 14.1616 2.59194L12.4949 17.5919C12.4441 18.0494 12.0321 18.379 11.5746 18.3281C11.1172 18.2773 10.7876 17.8653 10.8384 17.4079L12.5051 2.40788C12.5559 1.95046 12.9679 1.62085 13.4254 1.67167Z" fill="black"/>
</svg>
