<svg width="20" height="20" viewBox="0 0 20 20" fill="none" xmlns="http://www.w3.org/2000/svg">
<path fill-rule="evenodd" clip-rule="evenodd" d="M3.74408 4.57733C4.06951 4.25189 4.59715 4.25189 4.92259 4.57733L6.08926 5.744C6.41469 6.06943 6.41469 6.59707 6.08926 6.92251C5.76382 7.24794 5.23618 7.24794 4.91074 6.92251L3.74408 5.75584C3.41864 5.4304 3.41864 4.90277 3.74408 4.57733Z" fill="black"/>
<path fill-rule="evenodd" clip-rule="evenodd" d="M0.833252 10.8333C0.833252 10.3731 1.20635 10 1.66659 10H3.33325C3.79349 10 4.16658 10.3731 4.16658 10.8333C4.16658 11.2936 3.79349 11.6667 3.33325 11.6667H1.66659C1.20635 11.6667 0.833252 11.2936 0.833252 10.8333Z" fill="black"/>
<path fill-rule="evenodd" clip-rule="evenodd" d="M15.8333 10.8333C15.8333 10.3731 16.2063 10 16.6666 10H18.3333C18.7935 10 19.1666 10.3731 19.1666 10.8333C19.1666 11.2936 18.7935 11.6667 18.3333 11.6667H16.6666C16.2063 11.6667 15.8333 11.2936 15.8333 10.8333Z" fill="black"/>
<path fill-rule="evenodd" clip-rule="evenodd" d="M16.256 4.57733C16.5814 4.90277 16.5814 5.4304 16.256 5.75584L15.0893 6.92251C14.7639 7.24794 14.2363 7.24794 13.9108 6.92251C13.5854 6.59707 13.5854 6.06943 13.9108 5.744L15.0775 4.57733C15.4029 4.25189 15.9306 4.25189 16.256 4.57733Z" fill="black"/>
<path fill-rule="evenodd" clip-rule="evenodd" d="M0.833252 14.1666C0.833252 13.7063 1.20635 13.3333 1.66659 13.3333H18.3333C18.7935 13.3333 19.1666 13.7063 19.1666 14.1666C19.1666 14.6268 18.7935 14.9999 18.3333 14.9999H1.66659C1.20635 14.9999 0.833252 14.6268 0.833252 14.1666Z" fill="black"/>
<path fill-rule="evenodd" clip-rule="evenodd" d="M0.833252 17.5001C0.833252 17.0398 1.20635 16.6667 1.66659 16.6667H18.3333C18.7935 16.6667 19.1666 17.0398 19.1666 17.5001C19.1666 17.9603 18.7935 18.3334 18.3333 18.3334H1.66659C1.20635 18.3334 0.833252 17.9603 0.833252 17.5001Z" fill="black"/>
<path fill-rule="evenodd" clip-rule="evenodd" d="M7.05364 7.88714C7.83504 7.10573 8.89485 6.66675 9.99992 6.66675C11.105 6.66675 12.1648 7.10573 12.9462 7.88714C13.7276 8.66854 14.1666 9.72835 14.1666 10.8334C14.1666 11.2937 13.7935 11.6667 13.3333 11.6667C12.873 11.6667 12.4999 11.2937 12.4999 10.8334C12.4999 10.1704 12.2365 9.53449 11.7677 9.06565C11.2988 8.59681 10.663 8.33341 9.99992 8.33341C9.33688 8.33341 8.70099 8.59681 8.23215 9.06565C7.76331 9.53449 7.49992 10.1704 7.49992 10.8334C7.49992 11.2937 7.12682 11.6667 6.66659 11.6667C6.20635 11.6667 5.83325 11.2937 5.83325 10.8334C5.83325 9.72835 6.27224 8.66854 7.05364 7.88714Z" fill="black"/>
<path fill-rule="evenodd" clip-rule="evenodd" d="M10.0001 1.25C10.4603 1.25 10.8334 1.6231 10.8334 2.08333V4.16667C10.8334 4.6269 10.4603 5 10.0001 5C9.53984 5 9.16675 4.6269 9.16675 4.16667V2.08333C9.16675 1.6231 9.53984 1.25 10.0001 1.25Z" fill="black"/>
</svg>
