<svg width="20" height="20" viewBox="0 0 20 20" fill="none" xmlns="http://www.w3.org/2000/svg">
<path fill-rule="evenodd" clip-rule="evenodd" d="M1.32141 6.32141C1.63397 6.00885 2.05789 5.83325 2.49992 5.83325H17.4999C17.9419 5.83325 18.3659 6.00885 18.6784 6.32141C18.991 6.63397 19.1666 7.05789 19.1666 7.49992V10.8333C19.1666 11.2753 18.991 11.6992 18.6784 12.0118C18.3659 12.3243 17.9419 12.4999 17.4999 12.4999H17.0118L15.5892 13.9225C15.4329 14.0788 15.2209 14.1666 14.9999 14.1666H4.99992C4.77891 14.1666 4.56694 14.0788 4.41066 13.9225L2.98807 12.4999H2.49992C2.05789 12.4999 1.63397 12.3243 1.32141 12.0118C1.00885 11.6992 0.833252 11.2753 0.833252 10.8333V7.49992C0.833252 7.05789 1.00885 6.63397 1.32141 6.32141ZM17.4999 7.49992H2.49992V10.8333H3.33325C3.55427 10.8333 3.76623 10.921 3.92251 11.0773L5.3451 12.4999H14.6547L16.0773 11.0773C16.2336 10.921 16.4456 10.8333 16.6666 10.8333H17.4999V7.49992Z" fill="black"/>
<path fill-rule="evenodd" clip-rule="evenodd" d="M5.41675 10.0001C5.41675 9.53984 5.78984 9.16675 6.25008 9.16675H13.7501C14.2103 9.16675 14.5834 9.53984 14.5834 10.0001C14.5834 10.4603 14.2103 10.8334 13.7501 10.8334H6.25008C5.78984 10.8334 5.41675 10.4603 5.41675 10.0001Z" fill="black"/>
</svg>
