<svg width="20" height="20" viewBox="0 0 20 20" fill="none" xmlns="http://www.w3.org/2000/svg">
<path fill-rule="evenodd" clip-rule="evenodd" d="M2.5 10.0001C2.5 9.53984 2.8731 9.16675 3.33333 9.16675H10C10.4602 9.16675 10.8333 9.53984 10.8333 10.0001C10.8333 10.4603 10.4602 10.8334 10 10.8334H3.33333C2.8731 10.8334 2.5 10.4603 2.5 10.0001Z" fill="black"/>
<path fill-rule="evenodd" clip-rule="evenodd" d="M3.33333 4.16675C3.79357 4.16675 4.16667 4.53984 4.16667 5.00008V15.0001C4.16667 15.4603 3.79357 15.8334 3.33333 15.8334C2.8731 15.8334 2.5 15.4603 2.5 15.0001V5.00008C2.5 4.53984 2.8731 4.16675 3.33333 4.16675Z" fill="black"/>
<path fill-rule="evenodd" clip-rule="evenodd" d="M10.0001 4.16675C10.4603 4.16675 10.8334 4.53984 10.8334 5.00008V15.0001C10.8334 15.4603 10.4603 15.8334 10.0001 15.8334C9.53984 15.8334 9.16675 15.4603 9.16675 15.0001V5.00008C9.16675 4.53984 9.53984 4.16675 10.0001 4.16675Z" fill="black"/>
<path fill-rule="evenodd" clip-rule="evenodd" d="M13.3333 8.33333C13.3333 7.8731 13.7063 7.5 14.1666 7.5H17.4999C17.9602 7.5 18.3333 7.8731 18.3333 8.33333C18.3333 8.79357 17.9602 9.16667 17.4999 9.16667H14.9999V10.8333C14.9999 11.2936 14.6268 11.6667 14.1666 11.6667C13.7063 11.6667 13.3333 11.2936 13.3333 10.8333V8.33333Z" fill="black"/>
<path fill-rule="evenodd" clip-rule="evenodd" d="M13.3334 10.8333C13.3334 10.3731 13.7065 10 14.1668 10H15.2501C16.8963 10 18.3334 11.2282 18.3334 12.9167C18.3334 14.6051 16.8963 15.8333 15.2501 15.8333C14.7049 15.8333 14.2439 15.7203 13.7941 15.4954C13.3824 15.2895 13.2156 14.789 13.4214 14.3773C13.6272 13.9657 14.1278 13.7988 14.5394 14.0046C14.7563 14.1131 14.962 14.1667 15.2501 14.1667C16.1039 14.1667 16.6668 13.5615 16.6668 12.9167C16.6668 12.2718 16.1039 11.6667 15.2501 11.6667H14.1668C13.7065 11.6667 13.3334 11.2936 13.3334 10.8333Z" fill="black"/>
</svg>
