<svg width="20" height="20" viewBox="0 0 20 20" fill="none" xmlns="http://www.w3.org/2000/svg">
<path fill-rule="evenodd" clip-rule="evenodd" d="M2.5 10.0001C2.5 9.53984 2.8731 9.16675 3.33333 9.16675H10C10.4602 9.16675 10.8333 9.53984 10.8333 10.0001C10.8333 10.4603 10.4602 10.8334 10 10.8334H3.33333C2.8731 10.8334 2.5 10.4603 2.5 10.0001Z" fill="black"/>
<path fill-rule="evenodd" clip-rule="evenodd" d="M3.33333 4.16675C3.79357 4.16675 4.16667 4.53984 4.16667 5.00008V15.0001C4.16667 15.4603 3.79357 15.8334 3.33333 15.8334C2.8731 15.8334 2.5 15.4603 2.5 15.0001V5.00008C2.5 4.53984 2.8731 4.16675 3.33333 4.16675Z" fill="black"/>
<path fill-rule="evenodd" clip-rule="evenodd" d="M10.0001 4.16675C10.4603 4.16675 10.8334 4.53984 10.8334 5.00008V15.0001C10.8334 15.4603 10.4603 15.8334 10.0001 15.8334C9.53984 15.8334 9.16675 15.4603 9.16675 15.0001V5.00008C9.16675 4.53984 9.53984 4.16675 10.0001 4.16675Z" fill="black"/>
<path fill-rule="evenodd" clip-rule="evenodd" d="M16.7218 7.85528C17.6385 8.16082 18.3333 8.96758 18.3333 10C18.3333 10.8467 18.0371 11.4684 17.5803 11.9443C17.2318 12.3073 16.7826 12.5826 16.4338 12.7962C16.378 12.8304 16.3248 12.863 16.275 12.8942C15.869 13.1479 15.5727 13.3637 15.3614 13.6542C15.2646 13.7874 15.1749 13.9517 15.1091 14.1667H17.5C17.9602 14.1667 18.3333 14.5398 18.3333 15C18.3333 15.4602 17.9602 15.8333 17.5 15.8333H14.1666C13.7064 15.8333 13.3333 15.4602 13.3333 15C13.3333 14.0152 13.5838 13.2648 14.0135 12.6739C14.4272 12.1051 14.9643 11.7479 15.3916 11.4808C15.4607 11.4377 15.526 11.3972 15.5878 11.359C15.9481 11.1359 16.1895 10.9864 16.378 10.7901C16.5461 10.6149 16.6666 10.4033 16.6666 10C16.6666 9.78245 16.5281 9.54753 16.1948 9.43641C15.8711 9.32853 15.3191 9.34398 14.6666 9.83334C14.2984 10.1095 13.7761 10.0349 13.5 9.66668C13.2238 9.29849 13.2984 8.77615 13.6666 8.50001C14.6808 7.73938 15.7955 7.54649 16.7218 7.85528Z" fill="black"/>
</svg>
