<svg width="20" height="20" viewBox="0 0 20 20" fill="none" xmlns="http://www.w3.org/2000/svg">
<path fill-rule="evenodd" clip-rule="evenodd" d="M10.0001 2.49992C9.1246 2.49992 8.2577 2.67236 7.44886 3.00739C6.64002 3.34242 5.90509 3.83348 5.28604 4.45254C4.66698 5.0716 4.17592 5.80653 3.84088 6.61536C3.61269 7.16627 3.45993 7.74411 3.3857 8.33325H5.00008C5.66312 8.33325 6.29901 8.59664 6.76785 9.06549C7.23669 9.53433 7.50008 10.1702 7.50008 10.8333V13.3333C7.50008 13.9963 7.23669 14.6322 6.76785 15.101C6.29901 15.5699 5.66312 15.8333 5.00008 15.8333H4.16675C3.50371 15.8333 2.86782 15.5699 2.39898 15.101C1.93014 14.6322 1.66675 13.9963 1.66675 13.3333V9.16659C1.66675 8.07224 1.8823 6.9886 2.30109 5.97756C2.71987 4.96651 3.3337 4.04785 4.10752 3.27403C4.88135 2.50021 5.80001 1.88638 6.81105 1.46759C7.8221 1.0488 8.90573 0.833252 10.0001 0.833252C11.0944 0.833252 12.1781 1.0488 13.1891 1.46759C14.2002 1.88638 15.1188 2.50021 15.8926 3.27403C16.6665 4.04785 17.2803 4.96651 17.6991 5.97756C18.1179 6.9886 18.3334 8.07224 18.3334 9.16659V13.3333C18.3334 13.9963 18.07 14.6322 17.6012 15.101C17.1323 15.5699 16.4965 15.8333 15.8334 15.8333H15.0001C14.337 15.8333 13.7012 15.5699 13.2323 15.101C12.7635 14.6322 12.5001 13.9963 12.5001 13.3333V10.8333C12.5001 10.1702 12.7635 9.53433 13.2323 9.06549C13.7012 8.59664 14.337 8.33325 15.0001 8.33325H16.6145C16.5402 7.74411 16.3875 7.16627 16.1593 6.61536C15.8242 5.80653 15.3332 5.0716 14.7141 4.45254C14.0951 3.83348 13.3601 3.34242 12.5513 3.00739C11.7425 2.67236 10.8756 2.49992 10.0001 2.49992ZM16.6667 9.99992H15.0001C14.7791 9.99992 14.5671 10.0877 14.4108 10.244C14.2545 10.4003 14.1667 10.6122 14.1667 10.8333V13.3333C14.1667 13.5543 14.2545 13.7662 14.4108 13.9225C14.5671 14.0788 14.7791 14.1666 15.0001 14.1666H15.8334C16.0544 14.1666 16.2664 14.0788 16.4227 13.9225C16.5789 13.7662 16.6667 13.5543 16.6667 13.3333V9.99992ZM3.33341 9.99992V13.3333C3.33341 13.5543 3.42121 13.7662 3.57749 13.9225C3.73377 14.0788 3.94573 14.1666 4.16675 14.1666H5.00008C5.22109 14.1666 5.43306 14.0788 5.58934 13.9225C5.74562 13.7662 5.83341 13.5543 5.83341 13.3333V10.8333C5.83341 10.6122 5.74562 10.4003 5.58934 10.244C5.43306 10.0877 5.22109 9.99992 5.00008 9.99992H3.33341Z" fill="black"/>
<path fill-rule="evenodd" clip-rule="evenodd" d="M17.5001 12.5C17.9603 12.5 18.3334 12.8731 18.3334 13.3333V15C18.3334 16.1051 17.8944 17.1649 17.113 17.9463C16.3316 18.7277 15.2718 19.1667 14.1667 19.1667H10.0001C9.53984 19.1667 9.16675 18.7936 9.16675 18.3333C9.16675 17.8731 9.53984 17.5 10.0001 17.5H14.1667C14.8298 17.5 15.4657 17.2366 15.9345 16.7678C16.4034 16.2989 16.6667 15.663 16.6667 15V13.3333C16.6667 12.8731 17.0398 12.5 17.5001 12.5Z" fill="black"/>
</svg>
