<svg width="20" height="20" viewBox="0 0 20 20" fill="none" xmlns="http://www.w3.org/2000/svg">
<path fill-rule="evenodd" clip-rule="evenodd" d="M2.5 10.0001C2.5 9.53984 2.8731 9.16675 3.33333 9.16675H10C10.4602 9.16675 10.8333 9.53984 10.8333 10.0001C10.8333 10.4603 10.4602 10.8334 10 10.8334H3.33333C2.8731 10.8334 2.5 10.4603 2.5 10.0001Z" fill="black"/>
<path fill-rule="evenodd" clip-rule="evenodd" d="M3.33333 4.16675C3.79357 4.16675 4.16667 4.53984 4.16667 5.00008V15.0001C4.16667 15.4603 3.79357 15.8334 3.33333 15.8334C2.8731 15.8334 2.5 15.4603 2.5 15.0001V5.00008C2.5 4.53984 2.8731 4.16675 3.33333 4.16675Z" fill="black"/>
<path fill-rule="evenodd" clip-rule="evenodd" d="M10.0001 4.16675C10.4603 4.16675 10.8334 4.53984 10.8334 5.00008V15.0001C10.8334 15.4603 10.4603 15.8334 10.0001 15.8334C9.53984 15.8334 9.16675 15.4603 9.16675 15.0001V5.00008C9.16675 4.53984 9.53984 4.16675 10.0001 4.16675Z" fill="black"/>
<path fill-rule="evenodd" clip-rule="evenodd" d="M17.0599 7.59861C17.3309 7.74362 17.5 8.02601 17.5 8.33333V15C17.5 15.4602 17.1269 15.8333 16.6667 15.8333C16.2064 15.8333 15.8333 15.4602 15.8333 15V9.89043L14.6289 10.6934C14.246 10.9487 13.7286 10.8452 13.4733 10.4623C13.218 10.0793 13.3215 9.56192 13.7044 9.30663L16.2044 7.63996C16.4601 7.46948 16.7889 7.45359 17.0599 7.59861Z" fill="black"/>
</svg>
