<svg width="20" height="20" viewBox="0 0 20 20" fill="none" xmlns="http://www.w3.org/2000/svg">
<path fill-rule="evenodd" clip-rule="evenodd" d="M2.5 10.0001C2.5 9.53984 2.8731 9.16675 3.33333 9.16675H10C10.4602 9.16675 10.8333 9.53984 10.8333 10.0001C10.8333 10.4603 10.4602 10.8334 10 10.8334H3.33333C2.8731 10.8334 2.5 10.4603 2.5 10.0001Z" fill="black"/>
<path fill-rule="evenodd" clip-rule="evenodd" d="M3.33333 4.16675C3.79357 4.16675 4.16667 4.53984 4.16667 5.00008V15.0001C4.16667 15.4603 3.79357 15.8334 3.33333 15.8334C2.8731 15.8334 2.5 15.4603 2.5 15.0001V5.00008C2.5 4.53984 2.8731 4.16675 3.33333 4.16675Z" fill="black"/>
<path fill-rule="evenodd" clip-rule="evenodd" d="M10.0001 4.16675C10.4603 4.16675 10.8334 4.53984 10.8334 5.00008V15.0001C10.8334 15.4603 10.4603 15.8334 10.0001 15.8334C9.53984 15.8334 9.16675 15.4603 9.16675 15.0001V5.00008C9.16675 4.53984 9.53984 4.16675 10.0001 4.16675Z" fill="black"/>
<path fill-rule="evenodd" clip-rule="evenodd" d="M16.2173 9.34733C15.9279 9.2108 15.4896 9.18354 15.0057 9.46816C14.609 9.70151 14.0983 9.5691 13.8649 9.1724C13.6316 8.77571 13.764 8.26496 14.1607 8.03161C15.0935 7.4829 16.1136 7.45564 16.9283 7.83994C17.7366 8.2212 18.3332 9.01484 18.3332 9.99988C18.3332 10.6629 18.0698 11.2988 17.601 11.7677C17.1321 12.2365 16.4963 12.4999 15.8332 12.4999C15.373 12.4999 14.9999 12.1268 14.9999 11.6666C14.9999 11.2063 15.373 10.8332 15.8332 10.8332C16.0542 10.8332 16.2662 10.7454 16.4225 10.5891C16.5788 10.4329 16.6666 10.2209 16.6666 9.99988C16.6666 9.73493 16.5132 9.48691 16.2173 9.34733Z" fill="black"/>
<path fill-rule="evenodd" clip-rule="evenodd" d="M15 11.6666C15 11.2063 15.3731 10.8333 15.8333 10.8333C16.4963 10.8333 17.1322 11.0966 17.6011 11.5655C18.0699 12.0343 18.3333 12.6702 18.3333 13.3333C18.3333 14.4043 17.7305 15.3308 16.8003 15.7494C15.8547 16.175 14.7016 16.0262 13.6666 15.2499C13.2984 14.9738 13.2238 14.4514 13.5 14.0833C13.7761 13.7151 14.2984 13.6404 14.6666 13.9166C15.2983 14.3903 15.8119 14.3666 16.1163 14.2296C16.4361 14.0857 16.6666 13.7622 16.6666 13.3333C16.6666 13.1122 16.5788 12.9003 16.4226 12.744C16.2663 12.5877 16.0543 12.4999 15.8333 12.4999C15.3731 12.4999 15 12.1268 15 11.6666Z" fill="black"/>
</svg>
