<svg width="20" height="20" viewBox="0 0 20 20" fill="none" xmlns="http://www.w3.org/2000/svg">
<path fill-rule="evenodd" clip-rule="evenodd" d="M4.16675 10.0001C4.16675 9.53984 4.53984 9.16675 5.00008 9.16675H15.0001C15.4603 9.16675 15.8334 9.53984 15.8334 10.0001C15.8334 10.4603 15.4603 10.8334 15.0001 10.8334H5.00008C4.53984 10.8334 4.16675 10.4603 4.16675 10.0001Z" fill="black"/>
<path fill-rule="evenodd" clip-rule="evenodd" d="M5.00008 2.5C5.46032 2.5 5.83341 2.8731 5.83341 3.33333V16.6667C5.83341 17.1269 5.46032 17.5 5.00008 17.5C4.53984 17.5 4.16675 17.1269 4.16675 16.6667V3.33333C4.16675 2.8731 4.53984 2.5 5.00008 2.5Z" fill="black"/>
<path fill-rule="evenodd" clip-rule="evenodd" d="M15.0001 2.5C15.4603 2.5 15.8334 2.8731 15.8334 3.33333V16.6667C15.8334 17.1269 15.4603 17.5 15.0001 17.5C14.5398 17.5 14.1667 17.1269 14.1667 16.6667V3.33333C14.1667 2.8731 14.5398 2.5 15.0001 2.5Z" fill="black"/>
</svg>
