<svg width="20" height="20" viewBox="0 0 20 20" fill="none" xmlns="http://www.w3.org/2000/svg">
<path fill-rule="evenodd" clip-rule="evenodd" d="M10.0001 3.33341C8.23197 3.33341 6.53628 4.03579 5.28604 5.28604C4.03579 6.53628 3.33341 8.23197 3.33341 10.0001V10.8334H5.00008C5.66312 10.8334 6.29901 11.0968 6.76785 11.5656C7.23669 12.0345 7.50008 12.6704 7.50008 13.3334V15.8334C7.50008 16.4965 7.23669 17.1323 6.76785 17.6012C6.29901 18.07 5.66312 18.3334 5.00008 18.3334H4.16675C3.50371 18.3334 2.86782 18.07 2.39898 17.6012C1.93014 17.1323 1.66675 16.4965 1.66675 15.8334V10.0001C1.66675 7.78994 2.54472 5.67033 4.10752 4.10752C5.67033 2.54472 7.78994 1.66675 10.0001 1.66675C12.2102 1.66675 14.3298 2.54472 15.8926 4.10752C17.4554 5.67033 18.3334 7.78994 18.3334 10.0001V15.8334C18.3334 16.4965 18.07 17.1323 17.6012 17.6012C17.1323 18.07 16.4965 18.3334 15.8334 18.3334H15.0001C14.337 18.3334 13.7012 18.07 13.2323 17.6012C12.7635 17.1323 12.5001 16.4965 12.5001 15.8334V13.3334C12.5001 12.6704 12.7635 12.0345 13.2323 11.5656C13.7012 11.0968 14.337 10.8334 15.0001 10.8334H16.6667V10.0001C16.6667 8.23197 15.9644 6.53628 14.7141 5.28604C13.4639 4.03579 11.7682 3.33341 10.0001 3.33341ZM16.6667 12.5001H15.0001C14.7791 12.5001 14.5671 12.5879 14.4108 12.7442C14.2545 12.9004 14.1667 13.1124 14.1667 13.3334V15.8334C14.1667 16.0544 14.2545 16.2664 14.4108 16.4227C14.5671 16.5789 14.7791 16.6667 15.0001 16.6667H15.8334C16.0544 16.6667 16.2664 16.5789 16.4227 16.4227C16.5789 16.2664 16.6667 16.0544 16.6667 15.8334V12.5001ZM3.33341 12.5001V15.8334C3.33341 16.0544 3.42121 16.2664 3.57749 16.4227C3.73377 16.5789 3.94573 16.6667 4.16675 16.6667H5.00008C5.22109 16.6667 5.43306 16.5789 5.58934 16.4227C5.74562 16.2664 5.83341 16.0544 5.83341 15.8334V13.3334C5.83341 13.1124 5.74562 12.9004 5.58934 12.7442C5.43306 12.5879 5.22109 12.5001 5.00008 12.5001H3.33341Z" fill="black"/>
</svg>
