<svg width="20" height="20" viewBox="0 0 20 20" fill="none" xmlns="http://www.w3.org/2000/svg">
<path fill-rule="evenodd" clip-rule="evenodd" d="M2.5 10.0001C2.5 9.53984 2.8731 9.16675 3.33333 9.16675H10C10.4602 9.16675 10.8333 9.53984 10.8333 10.0001C10.8333 10.4603 10.4602 10.8334 10 10.8334H3.33333C2.8731 10.8334 2.5 10.4603 2.5 10.0001Z" fill="black"/>
<path fill-rule="evenodd" clip-rule="evenodd" d="M3.33333 4.16675C3.79357 4.16675 4.16667 4.53984 4.16667 5.00008V15.0001C4.16667 15.4603 3.79357 15.8334 3.33333 15.8334C2.8731 15.8334 2.5 15.4603 2.5 15.0001V5.00008C2.5 4.53984 2.8731 4.16675 3.33333 4.16675Z" fill="black"/>
<path fill-rule="evenodd" clip-rule="evenodd" d="M10.0001 4.16675C10.4603 4.16675 10.8334 4.53984 10.8334 5.00008V15.0001C10.8334 15.4603 10.4603 15.8334 10.0001 15.8334C9.53984 15.8334 9.16675 15.4603 9.16675 15.0001V5.00008C9.16675 4.53984 9.53984 4.16675 10.0001 4.16675Z" fill="black"/>
<path fill-rule="evenodd" clip-rule="evenodd" d="M14.1666 7.5C14.6268 7.5 14.9999 7.8731 14.9999 8.33333V10.8333H17.4999C17.9602 10.8333 18.3333 11.2064 18.3333 11.6667C18.3333 12.1269 17.9602 12.5 17.4999 12.5H14.1666C13.7063 12.5 13.3333 12.1269 13.3333 11.6667V8.33333C13.3333 7.8731 13.7063 7.5 14.1666 7.5Z" fill="black"/>
<path fill-rule="evenodd" clip-rule="evenodd" d="M17.5001 7.5C17.9603 7.5 18.3334 7.8731 18.3334 8.33333V15C18.3334 15.4602 17.9603 15.8333 17.5001 15.8333C17.0398 15.8333 16.6667 15.4602 16.6667 15V8.33333C16.6667 7.8731 17.0398 7.5 17.5001 7.5Z" fill="black"/>
</svg>
