<svg width="20" height="20" viewBox="0 0 20 20" fill="none" xmlns="http://www.w3.org/2000/svg">
<path fill-rule="evenodd" clip-rule="evenodd" d="M2.5 10.0001C2.5 9.53984 2.8731 9.16675 3.33333 9.16675H10C10.4602 9.16675 10.8333 9.53984 10.8333 10.0001C10.8333 10.4603 10.4602 10.8334 10 10.8334H3.33333C2.8731 10.8334 2.5 10.4603 2.5 10.0001Z" fill="black"/>
<path fill-rule="evenodd" clip-rule="evenodd" d="M3.33333 4.16675C3.79357 4.16675 4.16667 4.53984 4.16667 5.00008V15.0001C4.16667 15.4603 3.79357 15.8334 3.33333 15.8334C2.8731 15.8334 2.5 15.4603 2.5 15.0001V5.00008C2.5 4.53984 2.8731 4.16675 3.33333 4.16675Z" fill="black"/>
<path fill-rule="evenodd" clip-rule="evenodd" d="M10.0001 4.16675C10.4603 4.16675 10.8334 4.53984 10.8334 5.00008V15.0001C10.8334 15.4603 10.4603 15.8334 10.0001 15.8334C9.53984 15.8334 9.16675 15.4603 9.16675 15.0001V5.00008C9.16675 4.53984 9.53984 4.16675 10.0001 4.16675Z" fill="black"/>
<path fill-rule="evenodd" clip-rule="evenodd" d="M15.8333 12.4999C15.373 12.4999 14.9999 12.873 14.9999 13.3333C14.9999 13.7935 15.373 14.1666 15.8333 14.1666C16.2935 14.1666 16.6666 13.7935 16.6666 13.3333C16.6666 12.873 16.2935 12.4999 15.8333 12.4999ZM13.3333 13.3333C13.3333 11.9525 14.4525 10.8333 15.8333 10.8333C17.214 10.8333 18.3333 11.9525 18.3333 13.3333C18.3333 14.714 17.214 15.8333 15.8333 15.8333C14.4525 15.8333 13.3333 14.714 13.3333 13.3333Z" fill="black"/>
<path fill-rule="evenodd" clip-rule="evenodd" d="M17.2558 7.74408C17.5813 8.06951 17.5813 8.59715 17.2558 8.92259C16.4392 9.73921 15.8846 10.3986 15.5269 11.0692C15.1802 11.7193 14.9999 12.4161 14.9999 13.3333C14.9999 13.7936 14.6268 14.1667 14.1666 14.1667C13.7063 14.1667 13.3333 13.7936 13.3333 13.3333C13.3333 12.1672 13.5697 11.1973 14.0563 10.2849C14.5319 9.3931 15.2273 8.59412 16.0773 7.74408C16.4028 7.41864 16.9304 7.41864 17.2558 7.74408Z" fill="black"/>
</svg>
