<svg width="20" height="20" viewBox="0 0 20 20" fill="none" xmlns="http://www.w3.org/2000/svg">
<g clip-path="url(#clip0_2001_7524)">
<path fill-rule="evenodd" clip-rule="evenodd" d="M15.5476 11.6666C15.5476 11.2063 15.9207 10.8333 16.3809 10.8333H17.5001C17.9603 10.8333 18.3334 11.2063 18.3334 11.6666C18.3334 12.1268 17.9603 12.4999 17.5001 12.4999H16.3809C15.9207 12.4999 15.5476 12.1268 15.5476 11.6666Z" fill="black"/>
<path fill-rule="evenodd" clip-rule="evenodd" d="M10.9905 3.40691C9.94419 3.24971 8.87545 3.34383 7.87268 3.68148C7.4365 3.82835 6.96386 3.59382 6.81699 3.15764C6.67012 2.72147 6.90465 2.24882 7.34083 2.10195C8.59429 1.67989 9.93022 1.56224 11.2382 1.75874C12.5461 1.95524 13.7885 2.46024 14.8626 3.23199C15.9367 4.00374 16.8117 5.02007 17.4152 6.19695C18.0188 7.37383 18.3335 8.67745 18.3334 10C18.3334 10.0001 18.3334 10.0001 18.3334 10.0001V12.7859C18.3334 13.2461 17.9603 13.6192 17.5001 13.6192C17.0399 13.6192 16.6668 13.2461 16.6668 12.7859V10C16.6668 8.9419 16.415 7.89899 15.9322 6.95748C15.4494 6.01597 14.7494 5.20291 13.8901 4.58551C13.0308 3.96811 12.0369 3.56411 10.9905 3.40691Z" fill="black"/>
<path fill-rule="evenodd" clip-rule="evenodd" d="M1.07733 1.07733C1.40277 0.751893 1.9304 0.751893 2.25584 1.07733L18.9225 17.744C19.2479 18.0694 19.2479 18.5971 18.9225 18.9225C18.5971 19.2479 18.0694 19.2479 17.744 18.9225L1.07733 2.25584C0.751893 1.9304 0.751893 1.40277 1.07733 1.07733Z" fill="black"/>
<path fill-rule="evenodd" clip-rule="evenodd" d="M13.3333 12.5C13.7936 12.5 14.1667 12.8731 14.1667 13.3333V15.8333C14.1667 16.0543 14.2545 16.2663 14.4107 16.4226C14.567 16.5789 14.779 16.6667 15 16.6667H15.8332C15.8332 16.6667 15.8333 16.6667 15.8333 16.6667C16.0543 16.6666 16.2661 16.5787 16.4223 16.4225C16.7477 16.097 17.2753 16.0969 17.6008 16.4223C17.9263 16.7477 17.9264 17.2753 17.601 17.6008C17.1323 18.0697 16.4965 18.3332 15.8335 18.3333H15C14.337 18.3333 13.7011 18.0699 13.2322 17.6011C12.7634 17.1323 12.5 16.4964 12.5 15.8333V13.3333C12.5 12.8731 12.8731 12.5 13.3333 12.5Z" fill="black"/>
<path fill-rule="evenodd" clip-rule="evenodd" d="M5.286 4.10736C5.61144 4.43279 5.61144 4.96043 5.28601 5.28587C4.66695 5.90493 4.17589 6.63986 3.84087 7.44871C3.50584 8.25755 3.33341 9.12446 3.33341 9.99995V10.8333H5.00008C5.66312 10.8333 6.29901 11.0967 6.76785 11.5655C7.23669 12.0344 7.50008 12.6702 7.50008 13.3333V15.8333C7.50008 16.4963 7.23669 17.1322 6.76785 17.601C6.29901 18.0699 5.66312 18.3333 5.00008 18.3333H4.16675C3.50371 18.3333 2.86782 18.0699 2.39898 17.601C1.93014 17.1322 1.66675 16.4963 1.66675 15.8333V9.99996C1.66674 8.9056 1.88228 7.82196 2.30106 6.81091C2.71984 5.79986 3.33367 4.88119 4.10749 4.10736C4.43292 3.78192 4.96056 3.78192 5.286 4.10736ZM3.33341 12.4999V15.8333C3.33341 16.0543 3.42121 16.2663 3.57749 16.4225C3.73377 16.5788 3.94573 16.6666 4.16675 16.6666H5.00008C5.22109 16.6666 5.43306 16.5788 5.58934 16.4225C5.74562 16.2663 5.83342 16.0543 5.83342 15.8333V13.3333C5.83342 13.1123 5.74562 12.9003 5.58934 12.744C5.43306 12.5877 5.22109 12.4999 5.00008 12.4999H3.33341Z" fill="black"/>
</g>
<defs>
<clipPath id="clip0_2001_7524">
<rect width="20" height="20" fill="white"/>
</clipPath>
</defs>
</svg>
