<svg width="20" height="20" viewBox="0 0 20 20" fill="none" xmlns="http://www.w3.org/2000/svg">
<path fill-rule="evenodd" clip-rule="evenodd" d="M2.41976 3.25325C3.43558 2.23743 4.81333 1.66675 6.24992 1.66675C7.06674 1.66675 7.8109 1.78357 8.53893 2.10065C9.04966 2.3231 9.52667 2.63289 9.99992 3.03287C10.4732 2.63289 10.9502 2.3231 11.4609 2.10065C12.1889 1.78357 12.9331 1.66675 13.7499 1.66675C15.1865 1.66675 16.5643 2.23743 17.5801 3.25325C18.5959 4.26907 19.1666 5.64683 19.1666 7.08341C19.1666 9.36822 17.6588 11.0443 16.4196 12.2589L10.5892 18.0893C10.2637 18.4148 9.7361 18.4148 9.41066 18.0893L3.58227 12.2609C2.32859 11.0484 0.833252 9.37457 0.833252 7.08341C0.833252 5.64683 1.40394 4.26907 2.41976 3.25325ZM6.24992 3.33341C5.25536 3.33341 4.30153 3.7285 3.59827 4.43176C2.89501 5.13503 2.49992 6.08885 2.49992 7.08341C2.49992 8.62247 3.5005 9.86383 4.74577 11.0676C4.74916 11.0709 4.75251 11.0742 4.75584 11.0775L9.99992 16.3216L15.244 11.0775C15.246 11.0755 15.248 11.0735 15.25 11.0715C16.4935 9.85307 17.4999 8.61337 17.4999 7.08341C17.4999 6.08885 17.1048 5.13503 16.4016 4.43176C15.6983 3.7285 14.7445 3.33341 13.7499 3.33341C13.1001 3.33341 12.5942 3.42493 12.1264 3.62868C11.6532 3.83477 11.1667 4.1785 10.5892 4.756C10.2637 5.08144 9.7361 5.08144 9.41066 4.756C8.83316 4.1785 8.34661 3.83477 7.87341 3.62868C7.4056 3.42493 6.89977 3.33341 6.24992 3.33341Z" fill="black"/>
<path fill-rule="evenodd" clip-rule="evenodd" d="M11.6141 6.25168C11.966 6.22937 12.2938 6.43097 12.4327 6.75508L13.4663 9.16668H17.3084C17.7687 9.16668 18.1418 9.53977 18.1418 10C18.1418 10.4602 17.7687 10.8333 17.3084 10.8333H12.9168C12.5834 10.8333 12.2821 10.6347 12.1508 10.3283L11.8241 9.56599L10.8014 13.1456C10.7051 13.4827 10.4081 13.7235 10.0584 13.748C9.70863 13.7725 9.38097 13.5755 9.23859 13.2551L8.14774 10.8007C8.07373 10.8221 7.99611 10.8333 7.91676 10.8333H2.68343C2.22319 10.8333 1.8501 10.4602 1.8501 10C1.8501 9.53977 2.22319 9.16668 2.68343 9.16668H7.40174L7.58808 8.794C7.73229 8.50557 8.02997 8.32624 8.35236 8.33356C8.67475 8.34088 8.96397 8.53355 9.09494 8.82823L9.8294 10.4808L10.8655 6.85441C10.9624 6.51536 11.2621 6.27398 11.6141 6.25168Z" fill="black"/>
</svg>
