<svg width="20" height="20" viewBox="0 0 20 20" fill="none" xmlns="http://www.w3.org/2000/svg">
<g clip-path="url(#clip0_2001_7543)">
<path fill-rule="evenodd" clip-rule="evenodd" d="M1.07733 1.07733C1.40277 0.751893 1.9304 0.751893 2.25584 1.07733L18.9225 17.744C19.2479 18.0694 19.2479 18.5971 18.9225 18.9225C18.5971 19.2479 18.0694 19.2479 17.744 18.9225L1.07733 2.25584C0.751893 1.9304 0.751893 1.40277 1.07733 1.07733Z" fill="black"/>
<path fill-rule="evenodd" clip-rule="evenodd" d="M4.10967 2.94928C4.39083 3.31365 4.32338 3.83696 3.95901 4.11812C3.50538 4.46817 3.13799 4.91751 2.88506 5.43165C2.63217 5.94569 2.50042 6.51083 2.49992 7.08371C2.50006 8.62261 3.50059 9.86388 4.74577 11.0675C4.74916 11.0708 4.75251 11.0741 4.75584 11.0775L9.99992 16.3215L13.1607 13.1608C13.4861 12.8353 14.0137 12.8353 14.3392 13.1608C14.6646 13.4862 14.6646 14.0139 14.3392 14.3393L10.5892 18.0893C10.2637 18.4147 9.7361 18.4147 9.41066 18.0893L3.5823 12.2609C2.32861 11.0484 0.833252 9.37455 0.833252 7.08337L0.833252 7.08271C0.833908 6.25507 1.02421 5.43858 1.38956 4.69593C1.75491 3.95329 2.28558 3.30424 2.94083 2.79862C3.3052 2.51746 3.82851 2.58491 4.10967 2.94928Z" fill="black"/>
<path fill-rule="evenodd" clip-rule="evenodd" d="M12.1265 3.62868C11.6534 3.83477 11.1668 4.1785 10.5893 4.756C10.4326 4.91274 10.2198 5.00058 9.99817 5.00008C9.77651 4.99958 9.56418 4.91079 9.40815 4.75336C8.56821 3.90585 7.89554 3.54578 7.14346 3.40191C6.69142 3.31543 6.39507 2.87887 6.48155 2.42683C6.56803 1.97479 7.00458 1.67845 7.45662 1.76492C8.39291 1.94404 9.19739 2.34969 10.0017 3.03146C10.4744 2.63217 10.9509 2.32284 11.461 2.10065C12.1891 1.78357 12.9332 1.66675 13.75 1.66675C15.1866 1.66675 16.5644 2.23743 17.5802 3.25325C18.596 4.26908 19.1667 5.64683 19.1667 7.08342C19.1667 9.20592 17.8623 10.7993 16.7019 11.9767C16.3788 12.3045 15.8512 12.3083 15.5234 11.9853C15.1956 11.6622 15.1918 11.1346 15.5149 10.8068C16.6377 9.6675 17.5 8.49425 17.5 7.08342C17.5 6.08885 17.105 5.13503 16.4017 4.43176C15.6984 3.7285 14.7446 3.33341 13.75 3.33341C13.1002 3.33341 12.5944 3.42493 12.1265 3.62868Z" fill="black"/>
</g>
<defs>
<clipPath id="clip0_2001_7543">
<rect width="20" height="20" fill="white"/>
</clipPath>
</defs>
</svg>
