<svg width="20" height="20" viewBox="0 0 20 20" fill="none" xmlns="http://www.w3.org/2000/svg">
<path fill-rule="evenodd" clip-rule="evenodd" d="M2.41976 3.25325C3.43558 2.23743 4.81333 1.66675 6.24992 1.66675C7.06674 1.66675 7.8109 1.78357 8.53893 2.10065C9.04966 2.3231 9.52667 2.63289 9.99992 3.03287C10.4732 2.63289 10.9502 2.3231 11.4609 2.10065C12.1889 1.78357 12.9331 1.66675 13.7499 1.66675C15.1865 1.66675 16.5643 2.23743 17.5801 3.25325C18.5959 4.26907 19.1666 5.64683 19.1666 7.08341C19.1666 9.36822 17.6588 11.0443 16.4196 12.2589L10.5892 18.0893C10.2637 18.4148 9.7361 18.4148 9.41066 18.0893L3.58227 12.2609C2.32859 11.0484 0.833252 9.37457 0.833252 7.08341C0.833252 5.64683 1.40394 4.26907 2.41976 3.25325ZM6.24992 3.33341C5.25536 3.33341 4.30153 3.7285 3.59827 4.43176C2.89501 5.13503 2.49992 6.08885 2.49992 7.08341C2.49992 8.62247 3.5005 9.86383 4.74577 11.0676C4.74916 11.0709 4.75251 11.0742 4.75584 11.0775L9.99992 16.3216L15.244 11.0775C15.246 11.0755 15.248 11.0735 15.25 11.0715C16.4935 9.85307 17.4999 8.61337 17.4999 7.08341C17.4999 6.08885 17.1048 5.13503 16.4016 4.43176C15.6983 3.7285 14.7445 3.33341 13.7499 3.33341C13.1001 3.33341 12.5942 3.42493 12.1264 3.62868C11.6532 3.83477 11.1667 4.1785 10.5892 4.756C10.2637 5.08144 9.7361 5.08144 9.41066 4.756C8.83316 4.1785 8.34661 3.83477 7.87341 3.62868C7.4056 3.42493 6.89977 3.33341 6.24992 3.33341Z" fill="black"/>
<path fill-rule="evenodd" clip-rule="evenodd" d="M10.5893 3.57733C10.9147 3.90277 10.9147 4.4304 10.5893 4.75584L9.51184 5.83325L11.4226 7.744C11.748 8.06943 11.748 8.59707 11.4226 8.92251L10.3452 9.99992L10.5893 10.244C10.9147 10.5694 10.9147 11.0971 10.5893 11.4225C10.2638 11.7479 9.73618 11.7479 9.41074 11.4225L8.57741 10.5892C8.25197 10.2637 8.25197 9.7361 8.57741 9.41066L9.65482 8.33325L7.74408 6.42251C7.41864 6.09707 7.41864 5.56943 7.74408 5.244L9.41074 3.57733C9.73618 3.25189 10.2638 3.25189 10.5893 3.57733Z" fill="black"/>
</svg>
