<svg width="20" height="20" viewBox="0 0 20 20" fill="none" xmlns="http://www.w3.org/2000/svg">
<path fill-rule="evenodd" clip-rule="evenodd" d="M2.41976 3.25325C3.43558 2.23743 4.81333 1.66675 6.24992 1.66675C7.06674 1.66675 7.8109 1.78357 8.53893 2.10065C9.04966 2.3231 9.52667 2.63289 9.99992 3.03287C10.4732 2.63289 10.9502 2.3231 11.4609 2.10065C12.1889 1.78357 12.9331 1.66675 13.7499 1.66675C15.1865 1.66675 16.5643 2.23743 17.5801 3.25325C18.5959 4.26907 19.1666 5.64683 19.1666 7.08341C19.1666 9.36822 17.6588 11.0443 16.4196 12.2589L10.5892 18.0893C10.2637 18.4148 9.7361 18.4148 9.41066 18.0893L3.58227 12.2609C2.32859 11.0484 0.833252 9.37457 0.833252 7.08341C0.833252 5.64683 1.40394 4.26907 2.41976 3.25325ZM6.24992 3.33341C5.25536 3.33341 4.30153 3.7285 3.59827 4.43176C2.89501 5.13503 2.49992 6.08885 2.49992 7.08341C2.49992 8.62247 3.5005 9.86383 4.74577 11.0676C4.74916 11.0709 4.75251 11.0742 4.75584 11.0775L9.99992 16.3216L15.244 11.0775C15.246 11.0755 15.248 11.0735 15.25 11.0715C16.4935 9.85307 17.4999 8.61337 17.4999 7.08341C17.4999 6.08885 17.1048 5.13503 16.4016 4.43176C15.6983 3.7285 14.7445 3.33341 13.7499 3.33341C13.1001 3.33341 12.5942 3.42493 12.1264 3.62868C11.6532 3.83477 11.1667 4.1785 10.5892 4.756C10.2637 5.08144 9.7361 5.08144 9.41066 4.756C8.83316 4.1785 8.34661 3.83477 7.87341 3.62868C7.4056 3.42493 6.89977 3.33341 6.24992 3.33341Z" fill="black"/>
<path fill-rule="evenodd" clip-rule="evenodd" d="M10.5893 3.57733C10.9148 3.90277 10.9148 4.4304 10.5893 4.75584L8.12267 7.22251C8.12196 7.22322 8.12124 7.22394 8.12052 7.22465C8.02924 7.31528 7.95678 7.42307 7.90734 7.54183C7.85789 7.66058 7.83244 7.78795 7.83244 7.91658C7.83244 8.04522 7.85789 8.17259 7.90734 8.29134C7.95678 8.4101 8.02924 8.51789 8.12052 8.60852C8.12124 8.60923 8.12196 8.60995 8.12267 8.61066C8.48772 8.97571 9.074 8.99636 9.47401 8.64057L11.1949 7.06099C11.1961 7.05992 11.1973 7.05885 11.1984 7.05778C11.7841 6.52632 12.5467 6.23191 13.3376 6.23191C14.1277 6.23191 14.8896 6.52577 15.4751 7.05631C15.4757 7.0568 15.4762 7.05729 15.4767 7.05778L17.9404 9.27176C18.2827 9.57938 18.3109 10.1063 18.0032 10.4486C17.6956 10.7909 17.1687 10.819 16.8264 10.5114L14.3597 8.29475C14.3587 8.29385 14.3578 8.29295 14.3568 8.29206C14.0777 8.03884 13.7144 7.89858 13.3376 7.89858C12.9615 7.89858 12.5988 8.03832 12.32 8.29064L10.5969 9.87218C10.5945 9.87437 10.5921 9.87656 10.5897 9.87873C9.54013 10.8197 7.94589 10.7899 6.94516 9.79017C6.69836 9.54486 6.50245 9.2532 6.3687 8.93195C6.23474 8.6102 6.16577 8.26511 6.16577 7.91658C6.16577 7.56806 6.23474 7.22297 6.3687 6.90122C6.50245 6.57998 6.69835 6.28833 6.94513 6.04303L9.41083 3.57733C9.73627 3.25189 10.2639 3.25189 10.5893 3.57733Z" fill="black"/>
<path fill-rule="evenodd" clip-rule="evenodd" d="M12.7441 10.2441C13.0695 9.91864 13.5972 9.91864 13.9226 10.2441L15.5893 11.9107C15.9147 12.2362 15.9147 12.7638 15.5893 13.0893C15.2638 13.4147 14.7362 13.4147 14.4107 13.0893L12.7441 11.4226C12.4186 11.0972 12.4186 10.5695 12.7441 10.2441Z" fill="black"/>
<path fill-rule="evenodd" clip-rule="evenodd" d="M10.2441 12.7441C10.5695 12.4186 11.0972 12.4186 11.4226 12.7441L13.0893 14.4107C13.4147 14.7362 13.4147 15.2638 13.0893 15.5893C12.7638 15.9147 12.2362 15.9147 11.9107 15.5893L10.2441 13.9226C9.91864 13.5972 9.91864 13.0695 10.2441 12.7441Z" fill="black"/>
</svg>
