<svg width="20" height="20" viewBox="0 0 20 20" fill="none" xmlns="http://www.w3.org/2000/svg">
<g clip-path="url(#clip0_2001_7552)">
<path fill-rule="evenodd" clip-rule="evenodd" d="M9.62889 0.973299C10.0118 1.22859 10.1153 1.74598 9.86001 2.12892C9.51477 2.64679 9.50691 2.91344 9.52391 3.04091C9.54649 3.21027 9.63511 3.36707 9.86001 3.70442C9.86831 3.71687 9.87686 3.72965 9.88564 3.74277C10.0797 4.03285 10.3834 4.48675 10.4614 5.07216C10.5486 5.72594 10.3481 6.39679 9.86001 7.12892C9.60472 7.51187 9.08733 7.61534 8.70439 7.36005C8.32145 7.10476 8.21797 6.58736 8.47326 6.20442C8.8185 5.68656 8.82636 5.41991 8.80936 5.29244C8.78678 5.12308 8.69817 4.96628 8.47326 4.62892C8.46496 4.61648 8.45641 4.60369 8.44763 4.59057C8.25357 4.30049 7.94992 3.8466 7.87186 3.26119C7.78469 2.60741 7.98517 1.93656 8.47326 1.20442C8.72855 0.821483 9.24595 0.718005 9.62889 0.973299Z" fill="black"/>
<path fill-rule="evenodd" clip-rule="evenodd" d="M13.3789 0.973299C13.7618 1.22859 13.8653 1.74598 13.61 2.12892C13.2648 2.64679 13.2569 2.91344 13.2739 3.04091C13.2965 3.21027 13.3851 3.36707 13.61 3.70442C13.6183 3.71687 13.6269 3.72965 13.6356 3.74277C13.8297 4.03285 14.1334 4.48675 14.2114 5.07216C14.2986 5.72594 14.0981 6.39679 13.61 7.12892C13.3547 7.51187 12.8373 7.61534 12.4544 7.36005C12.0714 7.10476 11.968 6.58736 12.2233 6.20442C12.5685 5.68656 12.5764 5.41991 12.5594 5.29244C12.5368 5.12308 12.4482 4.96628 12.2233 4.62892C12.215 4.61648 12.2064 4.60369 12.1976 4.59057C12.0036 4.30049 11.6999 3.8466 11.6219 3.26119C11.5347 2.60741 11.7352 1.93656 12.2233 1.20442C12.4786 0.821483 12.9959 0.718005 13.3789 0.973299Z" fill="black"/>
<path fill-rule="evenodd" clip-rule="evenodd" d="M4.16675 8.33333C4.16675 7.8731 4.53984 7.5 5.00008 7.5H5.00841C5.46865 7.5 5.84175 7.8731 5.84175 8.33333C5.84175 8.79357 5.46865 9.16667 5.00841 9.16667H5.00008C4.53984 9.16667 4.16675 8.79357 4.16675 8.33333Z" fill="black"/>
<path fill-rule="evenodd" clip-rule="evenodd" d="M4.16675 11.6666C4.16675 11.2063 4.53984 10.8333 5.00008 10.8333H5.00841C5.46865 10.8333 5.84175 11.2063 5.84175 11.6666C5.84175 12.1268 5.46865 12.4999 5.00841 12.4999H5.00008C4.53984 12.4999 4.16675 12.1268 4.16675 11.6666Z" fill="black"/>
<path fill-rule="evenodd" clip-rule="evenodd" d="M8.33333 9.16675C8.79357 9.16675 9.16667 9.53984 9.16667 10.0001V13.3334C9.16667 13.7937 8.79357 14.1667 8.33333 14.1667C7.8731 14.1667 7.5 13.7937 7.5 13.3334V10.0001C7.5 9.53984 7.8731 9.16675 8.33333 9.16675Z" fill="black"/>
<path fill-rule="evenodd" clip-rule="evenodd" d="M11.6666 9.16675C12.1268 9.16675 12.4999 9.53984 12.4999 10.0001V13.3334C12.4999 13.7937 12.1268 14.1667 11.6666 14.1667C11.2063 14.1667 10.8333 13.7937 10.8333 13.3334V10.0001C10.8333 9.53984 11.2063 9.16675 11.6666 9.16675Z" fill="black"/>
<path fill-rule="evenodd" clip-rule="evenodd" d="M15.0001 9.16675C15.4603 9.16675 15.8334 9.53984 15.8334 10.0001V13.3334C15.8334 13.7937 15.4603 14.1667 15.0001 14.1667C14.5398 14.1667 14.1667 13.7937 14.1667 13.3334V10.0001C14.1667 9.53984 14.5398 9.16675 15.0001 9.16675Z" fill="black"/>
<path fill-rule="evenodd" clip-rule="evenodd" d="M3.33325 5.83341C3.11224 5.83341 2.90028 5.92121 2.744 6.07749C2.58772 6.23377 2.49992 6.44573 2.49992 6.66675V15.0001C2.49992 15.2211 2.58772 15.4331 2.744 15.5893C2.90028 15.7456 3.11224 15.8334 3.33325 15.8334H16.6666C16.8876 15.8334 17.0996 15.7456 17.2558 15.5893C17.4121 15.4331 17.4999 15.2211 17.4999 15.0001V6.66675C17.4999 6.44573 17.4121 6.23377 17.2558 6.07749C17.0996 5.92121 16.8876 5.83341 16.6666 5.83341C16.2063 5.83341 15.8333 5.46032 15.8333 5.00008C15.8333 4.53984 16.2063 4.16675 16.6666 4.16675C17.3296 4.16675 17.9655 4.43014 18.4344 4.89898C18.9032 5.36782 19.1666 6.00371 19.1666 6.66675V15.0001C19.1666 15.6631 18.9032 16.299 18.4344 16.7678C17.9655 17.2367 17.3296 17.5001 16.6666 17.5001H3.33325C2.67021 17.5001 2.03433 17.2367 1.56549 16.7678C1.09664 16.299 0.833252 15.6631 0.833252 15.0001V6.66675C0.833252 6.00371 1.09664 5.36782 1.56549 4.89898C2.03433 4.43014 2.67021 4.16675 3.33325 4.16675H5.83325C6.29349 4.16675 6.66659 4.53984 6.66659 5.00008C6.66659 5.46032 6.29349 5.83341 5.83325 5.83341H3.33325Z" fill="black"/>
<path fill-rule="evenodd" clip-rule="evenodd" d="M4.16659 15.8333C4.62682 15.8333 4.99992 16.2063 4.99992 16.6666V18.3333C4.99992 18.7935 4.62682 19.1666 4.16659 19.1666C3.70635 19.1666 3.33325 18.7935 3.33325 18.3333V16.6666C3.33325 16.2063 3.70635 15.8333 4.16659 15.8333Z" fill="black"/>
<path fill-rule="evenodd" clip-rule="evenodd" d="M15.8333 15.8333C16.2936 15.8333 16.6667 16.2063 16.6667 16.6666V18.3333C16.6667 18.7935 16.2936 19.1666 15.8333 19.1666C15.3731 19.1666 15 18.7935 15 18.3333V16.6666C15 16.2063 15.3731 15.8333 15.8333 15.8333Z" fill="black"/>
</g>
<defs>
<clipPath id="clip0_2001_7552">
<rect width="20" height="20" fill="white"/>
</clipPath>
</defs>
</svg>
