<svg width="20" height="20" viewBox="0 0 20 20" fill="none" xmlns="http://www.w3.org/2000/svg">
<path fill-rule="evenodd" clip-rule="evenodd" d="M8.08934 8.57733C8.41477 8.90277 8.41477 9.4304 8.08934 9.75584L3.33341 14.5118V15.8333H9.6549L11.9108 13.5773C12.2363 13.2519 12.7639 13.2519 13.0893 13.5773C13.4148 13.9028 13.4148 14.4304 13.0893 14.7558L10.5893 17.2558C10.4331 17.4121 10.2211 17.4999 10.0001 17.4999H2.50008C2.03984 17.4999 1.66675 17.1268 1.66675 16.6666V14.1666C1.66675 13.9456 1.75455 13.7336 1.91083 13.5773L6.91083 8.57733C7.23626 8.25189 7.7639 8.25189 8.08934 8.57733Z" fill="black"/>
<path fill-rule="evenodd" clip-rule="evenodd" d="M12.256 2.74408C12.5815 3.06951 12.5815 3.59715 12.256 3.92259L8.42616 7.75246C8.27498 7.90797 8.19035 8.11635 8.19035 8.33333C8.19035 8.55032 8.27498 8.75869 8.42616 8.91421L12.7526 13.2406C12.9081 13.3918 13.1165 13.4764 13.3334 13.4764C13.5504 13.4764 13.7588 13.3918 13.9143 13.2406L17.7442 9.41074C18.0696 9.08531 18.5973 9.08531 18.9227 9.41074C19.2481 9.73618 19.2481 10.2638 18.9227 10.5893L15.0894 14.4226C15.0874 14.4246 15.0854 14.4265 15.0834 14.4285C14.6161 14.8865 13.9878 15.1431 13.3334 15.1431C12.6791 15.1431 12.0508 14.8865 11.5834 14.4285C11.5815 14.4265 11.5795 14.4246 11.5775 14.4226L7.24419 10.0893C7.24222 10.0873 7.24027 10.0853 7.23832 10.0833C6.78026 9.61601 6.52368 8.98772 6.52368 8.33333C6.52368 7.67895 6.78026 7.05066 7.23832 6.58333C7.24027 6.58135 7.24222 6.57938 7.24419 6.57741L11.0775 2.74408C11.403 2.41864 11.9306 2.41864 12.256 2.74408Z" fill="black"/>
</svg>
