<svg width="20" height="20" viewBox="0 0 20 20" fill="none" xmlns="http://www.w3.org/2000/svg">
<path fill-rule="evenodd" clip-rule="evenodd" d="M9.99695 1.66675C9.99799 1.66675 9.99904 1.66675 10.0001 1.66675C11.6483 1.66675 13.2594 2.15549 14.6298 3.07117C16.0002 3.98685 17.0683 5.28834 17.6991 6.81105C18.3298 8.33377 18.4948 10.0093 18.1733 11.6258C17.8517 13.2423 17.0581 14.7272 15.8926 15.8926C14.7272 17.0581 13.2423 17.8517 11.6258 18.1733C10.0093 18.4948 8.33377 18.3298 6.81105 17.6991C5.28834 17.0683 3.98685 16.0002 3.07117 14.6298C2.15549 13.2594 1.66675 11.6483 1.66675 10.0001C1.66675 9.53984 2.03984 9.16675 2.50008 9.16675C2.96032 9.16675 3.33341 9.53984 3.33341 10.0001C3.33341 11.3186 3.72441 12.6076 4.45695 13.7039C5.18949 14.8002 6.23069 15.6547 7.44886 16.1593C8.66703 16.6639 10.0075 16.7959 11.3007 16.5387C12.5939 16.2814 13.7818 15.6465 14.7141 14.7141C15.6465 13.7818 16.2814 12.5939 16.5387 11.3007C16.7959 10.0075 16.6639 8.66703 16.1593 7.44886C15.6547 6.23069 14.8002 5.18949 13.7039 4.45695C12.608 3.7247 11.3196 3.33372 10.0016 3.33342C8.12284 3.34089 6.31949 4.07329 4.96755 5.37779L3.08934 7.256C2.7639 7.58144 2.23626 7.58144 1.91083 7.256C1.58539 6.93057 1.58539 6.40293 1.91083 6.07749L3.79416 4.19416C3.79748 4.19084 3.80083 4.18754 3.80421 4.18428C5.4663 2.57749 7.68519 1.67545 9.99695 1.66675Z" fill="black"/>
<path fill-rule="evenodd" clip-rule="evenodd" d="M2.50008 1.66675C2.96032 1.66675 3.33341 2.03984 3.33341 2.50008V5.83342H6.66675C7.12699 5.83342 7.50008 6.20651 7.50008 6.66675C7.50008 7.12699 7.12699 7.50008 6.66675 7.50008H2.50008C2.03984 7.50008 1.66675 7.12699 1.66675 6.66675V2.50008C1.66675 2.03984 2.03984 1.66675 2.50008 1.66675Z" fill="black"/>
<path fill-rule="evenodd" clip-rule="evenodd" d="M10.0001 5C10.4603 5 10.8334 5.3731 10.8334 5.83333V9.48497L13.7061 10.9213C14.1177 11.1271 14.2846 11.6277 14.0788 12.0393C13.8729 12.451 13.3724 12.6178 12.9607 12.412L9.6274 10.7454C9.34508 10.6042 9.16675 10.3156 9.16675 10V5.83333C9.16675 5.3731 9.53984 5 10.0001 5Z" fill="black"/>
</svg>
