<svg width="20" height="20" viewBox="0 0 20 20" fill="none" xmlns="http://www.w3.org/2000/svg">
<g clip-path="url(#clip0_2001_7572)">
<path fill-rule="evenodd" clip-rule="evenodd" d="M8.23136 13.1546C8.38534 12.7209 8.86176 12.4941 9.29547 12.6481C10.5694 13.1004 12.2958 13.2573 13.3474 13.3081C13.6663 13.0093 14.1669 13.0068 14.4889 13.3109C14.8235 13.6269 14.8385 14.1543 14.5225 14.4889C14.2017 14.8286 13.7544 14.9906 13.3036 14.9745C13.3004 14.9744 13.2972 14.9743 13.294 14.9742C12.2264 14.9237 10.2704 14.7628 8.73786 14.2187C8.30414 14.0647 8.07738 13.5883 8.23136 13.1546Z" fill="black"/>
<path fill-rule="evenodd" clip-rule="evenodd" d="M12.8257 13.3138C13.2737 13.2084 13.7223 13.4862 13.8278 13.9342C13.9916 14.6305 14.3756 16.3429 14.264 17.7573C14.2638 17.7595 14.2636 17.7617 14.2634 17.7639C14.1874 18.6386 13.41 19.2186 12.5755 19.1097C12.5695 19.1089 12.5636 19.1081 12.5577 19.1072C11.0578 18.8785 9.35595 18.0931 8.93471 17.8986L8.93403 17.8983C8.51615 17.7055 8.33374 17.2104 8.52661 16.7925C8.71947 16.3746 9.21458 16.1922 9.63246 16.3851C10.0557 16.5804 11.4228 17.2019 12.614 17.4263C12.6544 16.3375 12.365 14.9941 12.2054 14.3159C12.1 13.8679 12.3777 13.4193 12.8257 13.3138Z" fill="black"/>
<path fill-rule="evenodd" clip-rule="evenodd" d="M12.6632 17.2443C12.8274 16.8144 13.309 16.5989 13.739 16.7631C14.9788 17.2364 16.5478 17.4077 17.523 17.4665C17.8506 17.1683 18.3581 17.1781 18.6738 17.4952C18.9986 17.8212 18.9975 18.3489 18.6715 18.6737C18.5109 18.8336 18.3178 18.9572 18.1054 19.0361C17.895 19.1143 17.6704 19.1468 17.4465 19.1315C16.4354 19.0718 14.6413 18.8916 13.1445 18.3201C12.7145 18.1559 12.499 17.6743 12.6632 17.2443Z" fill="black"/>
<path fill-rule="evenodd" clip-rule="evenodd" d="M14.428 3.98622C14.7669 3.67488 15.2941 3.69726 15.6054 4.03621C16.6919 5.21904 17.6169 6.54054 18.3565 7.96624C18.363 7.97889 18.3692 7.99171 18.3752 8.00468C18.476 8.22622 18.5214 8.46898 18.5075 8.712C18.4936 8.95502 18.4207 9.19099 18.2952 9.39956C18.1697 9.60813 17.9953 9.78301 17.7871 9.90913C17.5824 10.0331 17.3511 10.1063 17.1125 10.1226C16.052 10.2123 14.8691 10.1381 13.6422 9.90153C13.1903 9.81437 12.8946 9.37738 12.9818 8.92547C13.0689 8.47356 13.5059 8.17786 13.9578 8.26502C14.964 8.45906 15.9098 8.52551 16.7416 8.47816C16.0935 7.28046 15.2997 6.16713 14.378 5.16367C14.0666 4.82472 14.089 4.29755 14.428 3.98622Z" fill="black"/>
<path fill-rule="evenodd" clip-rule="evenodd" d="M16.7924 8.52661C17.2103 8.33374 17.7054 8.51615 17.8983 8.93403L17.8986 8.93471C18.093 9.35595 18.8785 11.0578 19.1071 12.5577C19.1079 12.5628 19.1086 12.5679 19.1093 12.5731C19.1799 13.1021 18.9731 13.6638 18.5009 13.9923C18.123 14.2552 17.6037 14.1619 17.3409 13.7841C17.1045 13.4444 17.1561 12.9902 17.4436 12.711C17.2361 11.4981 16.5857 10.0673 16.385 9.63246C16.1921 9.21458 16.3745 8.71947 16.7924 8.52661Z" fill="black"/>
<path fill-rule="evenodd" clip-rule="evenodd" d="M4.69742 3.51892C5.02289 3.84432 5.02295 4.37196 4.69755 4.69743C3.38293 6.01231 2.6036 7.76864 2.51075 9.62565C2.42551 11.3304 2.92436 13.0084 3.9172 14.3857C4.09482 13.7959 4.24694 13.0342 4.36153 12.2384C4.5085 11.2178 4.58323 10.217 4.58323 9.58324C4.58323 9.31504 4.71231 9.06323 4.93006 8.90666C5.14781 8.75008 5.42761 8.70788 5.68185 8.79326C6.75822 9.15473 8.05549 9.47304 9.32503 9.28112C9.65232 8.98539 10.1576 8.99541 10.4728 9.31099C10.7981 9.63661 10.7978 10.1642 10.4721 10.4895C10.2381 10.7233 9.93515 10.8755 9.60804 10.9238C8.38855 11.1148 7.20235 10.9432 6.20496 10.6878C6.1653 11.2412 6.09995 11.8595 6.01118 12.476C5.85779 13.5412 5.62386 14.6784 5.29769 15.4867L5.2976 15.487C5.09657 15.9847 4.6608 16.3092 4.15112 16.3522C3.66422 16.3932 3.20572 16.1717 2.9042 15.8017C1.46613 14.0425 0.732692 11.8118 0.846162 9.54242C0.959646 7.27274 1.91216 5.12612 3.51891 3.51904C3.84432 3.19357 4.37195 3.19352 4.69742 3.51892Z" fill="black"/>
<path fill-rule="evenodd" clip-rule="evenodd" d="M7.66313 9.38057C8.08805 9.20376 8.57585 9.40489 8.75266 9.82981C9.8219 12.3994 10.3014 14.9983 10.1226 17.1124C10.1063 17.351 10.0331 17.5823 9.90913 17.787C9.78302 17.9952 9.60813 18.1696 9.39956 18.2951C9.191 18.4206 8.95502 18.4935 8.712 18.5074C8.46899 18.5213 8.22623 18.4759 8.00468 18.3751C8.00387 18.3747 8.00305 18.3743 8.00224 18.374C6.56063 17.7121 4.93548 16.419 4.04085 15.6096C3.69956 15.3008 3.67322 14.7738 3.98199 14.4325C4.29077 14.0912 4.81775 14.0649 5.15904 14.3737C5.96309 15.1012 7.31451 16.1671 8.47746 16.7531C8.57913 15.0003 8.16838 12.764 7.21389 10.4701C7.03708 10.0452 7.23821 9.55739 7.66313 9.38057Z" fill="black"/>
<path fill-rule="evenodd" clip-rule="evenodd" d="M11.1649 2.58705C9.84938 2.37879 8.50216 2.52459 7.26169 3.00946C6.83304 3.17701 6.34972 2.96535 6.18216 2.53669C6.01461 2.10804 6.22628 1.62472 6.65493 1.45717C8.17107 0.864543 9.81767 0.686346 11.4255 0.94089C13.0328 1.19536 14.5435 1.87314 15.8022 2.9046C16.1719 3.20613 16.3933 3.66447 16.3522 4.15121C16.3093 4.66088 15.9848 5.09665 15.487 5.29768L15.486 5.29808L15.4845 5.29871C14.1015 5.85191 11.6547 6.17314 10.1496 6.23266C9.6897 6.25085 9.30215 5.89279 9.28396 5.43291C9.26578 4.97303 9.62384 4.58549 10.0837 4.5673C11.3433 4.51748 13.192 4.27389 14.3854 3.91622C13.4328 3.22776 12.3299 2.7715 11.1649 2.58705Z" fill="black"/>
<path fill-rule="evenodd" clip-rule="evenodd" d="M1.07733 1.07733C1.40277 0.751893 1.9304 0.751893 2.25584 1.07733L18.9225 17.744C19.2479 18.0694 19.2479 18.5971 18.9225 18.9225C18.5971 19.2479 18.0694 19.2479 17.744 18.9225L1.07733 2.25584C0.751893 1.9304 0.751893 1.40277 1.07733 1.07733Z" fill="black"/>
</g>
<defs>
<clipPath id="clip0_2001_7572">
<rect width="20" height="20" fill="white"/>
</clipPath>
</defs>
</svg>
