<svg width="20" height="20" viewBox="0 0 20 20" fill="none" xmlns="http://www.w3.org/2000/svg">
<g clip-path="url(#clip0_2001_7582)">
<path fill-rule="evenodd" clip-rule="evenodd" d="M13.994 3.99408C14.3194 3.66864 14.847 3.66864 15.1725 3.99408C16.4622 5.28377 17.8374 7.08069 18.3083 8.96455C18.3636 9.18564 18.3259 9.41972 18.2041 9.61229C18.0822 9.80486 17.8868 9.93912 17.6633 9.98382C15.4299 10.4305 13.1736 10.4216 10.0883 9.09929C9.66526 8.91799 9.4693 8.42809 9.6506 8.00507C9.8319 7.58204 10.3218 7.38608 10.7448 7.56738C13.0469 8.55398 14.7611 8.70782 16.3934 8.50446C15.8822 7.32614 14.9656 6.14427 13.994 5.17259C13.6685 4.84715 13.6685 4.31951 13.994 3.99408Z" fill="black"/>
<path fill-rule="evenodd" clip-rule="evenodd" d="M8.00507 9.6506C8.42809 9.4693 8.91799 9.66526 9.09929 10.0883C10.4216 13.1736 10.4305 15.4299 9.98382 17.6633C9.93912 17.8868 9.80486 18.0822 9.61229 18.2041C9.41972 18.3259 9.18564 18.3636 8.96455 18.3083C7.08069 17.8374 5.28377 16.4622 3.99408 15.1725C3.66864 14.847 3.66864 14.3194 3.99408 13.994C4.31951 13.6685 4.84715 13.6685 5.17259 13.994C6.14427 14.9656 7.32614 15.8822 8.50446 16.3934C8.70782 14.7611 8.55398 13.0469 7.56738 10.7448C7.38608 10.3218 7.58204 9.8319 8.00507 9.6506Z" fill="black"/>
<path fill-rule="evenodd" clip-rule="evenodd" d="M13.3773 8.83792C13.7889 8.63209 14.2895 8.79894 14.4953 9.21059C15.4168 11.0536 15.4167 12.4777 15.4166 14.5189C15.4166 14.5403 15.4166 14.5617 15.4166 14.5833C15.4166 15.0435 15.0435 15.4166 14.5833 15.4166C14.5617 15.4166 14.5403 15.4166 14.5189 15.4166C12.4777 15.4167 11.0536 15.4168 9.21059 14.4953C8.79894 14.2895 8.63209 13.7889 8.83792 13.3773C9.04374 12.9656 9.5443 12.7988 9.95595 13.0046C11.2172 13.6352 12.1803 13.7324 13.7473 13.7473C13.7324 12.1803 13.6352 11.2172 13.0046 9.95595C12.7988 9.5443 12.9656 9.04374 13.3773 8.83792Z" fill="black"/>
<path fill-rule="evenodd" clip-rule="evenodd" d="M16.2044 8.89005C16.5873 8.63475 17.1047 8.73823 17.36 9.12117C17.7976 9.7775 18.2363 10.5443 18.5691 11.2655C18.8836 11.9468 19.1666 12.718 19.1666 13.3334C19.1666 13.6921 18.9371 14.0106 18.5968 14.124C17.0806 14.6294 15.5953 14.1333 14.4172 13.7398C14.3845 13.7289 14.352 13.7181 14.3198 13.7073C13.8832 13.5618 13.6472 13.0899 13.7927 12.6532C13.9383 12.2166 14.4102 11.9806 14.8468 12.1262C15.8239 12.4519 16.615 12.6989 17.3456 12.6717C17.2753 12.4694 17.1796 12.2321 17.0558 11.9639C16.7637 11.3308 16.3691 10.6393 15.9733 10.0457C15.718 9.66273 15.8215 9.14534 16.2044 8.89005Z" fill="black"/>
<path fill-rule="evenodd" clip-rule="evenodd" d="M12.6532 13.7927C13.0899 13.6472 13.5618 13.8832 13.7073 14.3198C13.7181 14.352 13.7289 14.3845 13.7398 14.4172C14.1333 15.5953 14.6294 17.0806 14.124 18.5968C14.0106 18.9371 13.6921 19.1666 13.3334 19.1666C12.718 19.1666 11.9468 18.8836 11.2655 18.5691C10.5443 18.2363 9.7775 17.7976 9.12117 17.36C8.73823 17.1047 8.63475 16.5873 8.89005 16.2044C9.14534 15.8215 9.66273 15.718 10.0457 15.9733C10.6393 16.3691 11.3308 16.7637 11.9639 17.0558C12.2321 17.1796 12.4694 17.2753 12.6717 17.3456C12.6989 16.615 12.4519 15.8239 12.1262 14.8468C11.9806 14.4102 12.2166 13.9383 12.6532 13.7927Z" fill="black"/>
<path fill-rule="evenodd" clip-rule="evenodd" d="M16.7107 13.0047C17.1223 12.7988 17.6229 12.9657 17.8287 13.3773C18.6938 15.1076 19.1667 16.4895 19.1667 18.3334C19.1667 18.7936 18.7936 19.1667 18.3334 19.1667C16.4895 19.1667 15.1076 18.6938 13.3773 17.8287C12.9657 17.6229 12.7988 17.1223 13.0047 16.7107C13.2105 16.299 13.711 16.1322 14.1227 16.338C15.3959 16.9746 16.3631 17.333 17.4535 17.4535C17.333 16.3631 16.9746 15.3959 16.338 14.1227C16.1322 13.711 16.299 13.2105 16.7107 13.0047Z" fill="black"/>
<path fill-rule="evenodd" clip-rule="evenodd" d="M13.6706 4.02305C11.0492 1.79941 7.11694 2.03256 4.5752 4.5743C2.03336 7.11614 1.7997 11.0491 4.02312 13.6705C4.18461 13.3099 4.33465 12.8718 4.45208 12.4021C4.69881 11.4152 4.76832 10.4255 4.60833 9.78549C4.52483 9.45149 4.65532 9.10052 4.93674 8.9022C5.21816 8.70388 5.59257 8.69903 5.87903 8.89001C6.33914 9.19675 7.01213 9.38198 7.76043 9.42875C8.31874 9.46365 8.86693 9.41807 9.32115 9.32108C9.41814 8.86687 9.46371 8.31867 9.42882 7.76036C9.38205 7.01206 9.19681 6.33908 8.89007 5.87896C8.6991 5.5925 8.70394 5.2181 8.90227 4.93667C9.10059 4.65525 9.45156 4.52476 9.78556 4.60826C10.4255 4.76826 11.4152 4.69874 12.4022 4.45201C12.8719 4.33458 13.31 4.18454 13.6706 4.02305ZM3.39669 3.39579C6.79933 -0.00684267 12.366 -0.109217 15.6273 3.61796C15.9162 3.94813 15.8996 4.44575 15.5894 4.75597C15.2776 5.06776 14.8342 5.32567 14.3805 5.53123C13.9119 5.74357 13.3687 5.92833 12.8064 6.06892C12.2023 6.21994 11.5358 6.3299 10.8873 6.35526C11.0013 6.78656 11.0656 7.22961 11.0922 7.6564C11.15 8.58076 11.0375 9.523 10.7907 10.2636C10.7077 10.5124 10.5125 10.7077 10.2636 10.7906C9.52307 11.0375 8.58082 11.1499 7.65647 11.0922C7.22968 11.0655 6.78663 11.0012 6.35533 10.8872C6.32996 11.5357 6.22001 12.2022 6.06898 12.8063C5.9284 13.3687 5.74364 13.9118 5.53129 14.3804C5.32574 14.8341 5.06783 15.2775 4.75604 15.5893C4.44581 15.8995 3.9482 15.9161 3.61803 15.6272C-0.109276 12.3658 -0.0058198 6.7983 3.39669 3.39579Z" fill="black"/>
<path fill-rule="evenodd" clip-rule="evenodd" d="M3.23626 2.05757L4.33935 3.16066C4.66478 3.4861 4.66478 4.01374 4.33935 4.33917C4.01391 4.66461 3.48627 4.66461 3.16084 4.33917L1.90924 3.08758C1.72082 2.89813 1.64287 2.67202 1.60756 2.53685C1.56732 2.3828 1.55176 2.22549 1.55176 2.08294C1.55176 1.94041 1.56732 1.78304 1.60764 1.6289C1.64297 1.49385 1.72119 1.26697 1.91084 1.07733C2.23627 0.751893 2.76391 0.751893 3.08935 1.07733C3.35473 1.34272 3.4037 1.74256 3.23626 2.05757Z" fill="black"/>
</g>
<defs>
<clipPath id="clip0_2001_7582">
<rect width="20" height="20" fill="white"/>
</clipPath>
</defs>
</svg>
