<svg width="20" height="20" viewBox="0 0 20 20" fill="none" xmlns="http://www.w3.org/2000/svg">
<g clip-path="url(#clip0_2001_7591)">
<path fill-rule="evenodd" clip-rule="evenodd" d="M10.0001 4.16675C10.4603 4.16675 10.8334 4.53984 10.8334 5.00008V8.33342C10.8334 8.79365 10.4603 9.16675 10.0001 9.16675C9.53984 9.16675 9.16675 8.79365 9.16675 8.33342V5.00008C9.16675 4.53984 9.53984 4.16675 10.0001 4.16675Z" fill="black"/>
<path fill-rule="evenodd" clip-rule="evenodd" d="M7.5 11.6666C7.5 11.2063 7.8731 10.8333 8.33333 10.8333H11.6667C12.1269 10.8333 12.5 11.2063 12.5 11.6666C12.5 12.1268 12.1269 12.4999 11.6667 12.4999H8.33333C7.8731 12.4999 7.5 12.1268 7.5 11.6666Z" fill="black"/>
<path fill-rule="evenodd" clip-rule="evenodd" d="M7.5 15.0001C7.5 14.5398 7.8731 14.1667 8.33333 14.1667H11.6667C12.1269 14.1667 12.5 14.5398 12.5 15.0001C12.5 15.4603 12.1269 15.8334 11.6667 15.8334H8.33333C7.8731 15.8334 7.5 15.4603 7.5 15.0001Z" fill="black"/>
<path fill-rule="evenodd" clip-rule="evenodd" d="M7.5 6.66659C7.5 6.20635 7.8731 5.83325 8.33333 5.83325H11.6667C12.1269 5.83325 12.5 6.20635 12.5 6.66659C12.5 7.12682 12.1269 7.49992 11.6667 7.49992H8.33333C7.8731 7.49992 7.5 7.12682 7.5 6.66659Z" fill="black"/>
<path fill-rule="evenodd" clip-rule="evenodd" d="M3.33325 8.33341C3.11224 8.33341 2.90028 8.42121 2.744 8.57749C2.58772 8.73377 2.49992 8.94573 2.49992 9.16675V16.6667C2.49992 16.8878 2.58772 17.0997 2.744 17.256C2.90028 17.4123 3.11224 17.5001 3.33325 17.5001H16.6666C16.8876 17.5001 17.0996 17.4123 17.2558 17.256C17.4121 17.0997 17.4999 16.8878 17.4999 16.6667V11.6667C17.4999 11.4457 17.4121 11.2338 17.2558 11.0775C17.0996 10.9212 16.8876 10.8334 16.6666 10.8334H14.9999C14.5397 10.8334 14.1666 10.4603 14.1666 10.0001C14.1666 9.53984 14.5397 9.16675 14.9999 9.16675H16.6666C17.3296 9.16675 17.9655 9.43014 18.4344 9.89898C18.9032 10.3678 19.1666 11.0037 19.1666 11.6667V16.6667C19.1666 17.3298 18.9032 17.9657 18.4344 18.4345C17.9655 18.9034 17.3296 19.1667 16.6666 19.1667H3.33325C2.67021 19.1667 2.03433 18.9034 1.56549 18.4345C1.09664 17.9657 0.833252 17.3298 0.833252 16.6667V9.16675C0.833252 8.50371 1.09664 7.86782 1.56549 7.39898C2.03433 6.93014 2.67021 6.66675 3.33325 6.66675H4.99992C5.46016 6.66675 5.83325 7.03984 5.83325 7.50008C5.83325 7.96032 5.46016 8.33341 4.99992 8.33341H3.33325Z" fill="black"/>
<path fill-rule="evenodd" clip-rule="evenodd" d="M4.89898 1.56549C5.36782 1.09664 6.00371 0.833252 6.66675 0.833252H13.3334C13.9965 0.833252 14.6323 1.09664 15.1012 1.56549C15.57 2.03433 15.8334 2.67021 15.8334 3.33325V18.3333C15.8334 18.7935 15.4603 19.1666 15.0001 19.1666C14.5398 19.1666 14.1667 18.7935 14.1667 18.3333V3.33325C14.1667 3.11224 14.079 2.90028 13.9227 2.744C13.7664 2.58772 13.5544 2.49992 13.3334 2.49992H6.66675C6.44573 2.49992 6.23377 2.58772 6.07749 2.744C5.92121 2.90028 5.83341 3.11224 5.83341 3.33325V18.3333C5.83341 18.7935 5.46032 19.1666 5.00008 19.1666C4.53984 19.1666 4.16675 18.7935 4.16675 18.3333V3.33325C4.16675 2.67021 4.43014 2.03433 4.89898 1.56549Z" fill="black"/>
</g>
<defs>
<clipPath id="clip0_2001_7591">
<rect width="20" height="20" fill="white"/>
</clipPath>
</defs>
</svg>
