<svg width="20" height="20" viewBox="0 0 20 20" fill="none" xmlns="http://www.w3.org/2000/svg">
<path fill-rule="evenodd" clip-rule="evenodd" d="M8.33333 12.0249C8.79357 12.0249 9.16667 12.398 9.16667 12.8582V18.3332C9.16667 18.7935 8.79357 19.1666 8.33333 19.1666C7.8731 19.1666 7.5 18.7935 7.5 18.3332V12.8582C7.5 12.398 7.8731 12.0249 8.33333 12.0249Z" fill="black"/>
<path fill-rule="evenodd" clip-rule="evenodd" d="M9.16675 9.16659C9.16675 8.70635 9.53984 8.33325 10.0001 8.33325H10.0084C10.4687 8.33325 10.8417 8.70635 10.8417 9.16659C10.8417 9.62682 10.4687 9.99992 10.0084 9.99992H10.0001C9.53984 9.99992 9.16675 9.62682 9.16675 9.16659Z" fill="black"/>
<path fill-rule="evenodd" clip-rule="evenodd" d="M9.16675 5.83333C9.16675 5.3731 9.53984 5 10.0001 5H10.0084C10.4687 5 10.8417 5.3731 10.8417 5.83333C10.8417 6.29357 10.4687 6.66667 10.0084 6.66667H10.0001C9.53984 6.66667 9.16675 6.29357 9.16675 5.83333Z" fill="black"/>
<path fill-rule="evenodd" clip-rule="evenodd" d="M11.6666 12.0249C12.1268 12.0249 12.4999 12.398 12.4999 12.8582V18.3332C12.4999 18.7935 12.1268 19.1666 11.6666 19.1666C11.2063 19.1666 10.8333 18.7935 10.8333 18.3332V12.8582C10.8333 12.398 11.2063 12.0249 11.6666 12.0249Z" fill="black"/>
<path fill-rule="evenodd" clip-rule="evenodd" d="M6.99989 12.6667C7.86537 12.0176 8.91804 11.6667 9.99989 11.6667C11.0817 11.6667 12.1344 12.0176 12.9999 12.6667C13.3681 12.9429 13.4427 13.4652 13.1666 13.8334C12.8904 14.2016 12.3681 14.2762 11.9999 14.0001C11.4229 13.5673 10.7211 13.3334 9.99989 13.3334C9.27865 13.3334 8.57687 13.5673 7.99989 14.0001C7.6317 14.2762 7.10936 14.2016 6.83322 13.8334C6.55708 13.4652 6.6317 12.9429 6.99989 12.6667Z" fill="black"/>
<path fill-rule="evenodd" clip-rule="evenodd" d="M12.5 9.16659C12.5 8.70635 12.8731 8.33325 13.3333 8.33325H13.3417C13.8019 8.33325 14.175 8.70635 14.175 9.16659C14.175 9.62682 13.8019 9.99992 13.3417 9.99992H13.3333C12.8731 9.99992 12.5 9.62682 12.5 9.16659Z" fill="black"/>
<path fill-rule="evenodd" clip-rule="evenodd" d="M12.5 5.83333C12.5 5.3731 12.8731 5 13.3333 5H13.3417C13.8019 5 14.175 5.3731 14.175 5.83333C14.175 6.29357 13.8019 6.66667 13.3417 6.66667H13.3333C12.8731 6.66667 12.5 6.29357 12.5 5.83333Z" fill="black"/>
<path fill-rule="evenodd" clip-rule="evenodd" d="M5.83325 9.16659C5.83325 8.70635 6.20635 8.33325 6.66659 8.33325H6.67492C7.13516 8.33325 7.50825 8.70635 7.50825 9.16659C7.50825 9.62682 7.13516 9.99992 6.67492 9.99992H6.66659C6.20635 9.99992 5.83325 9.62682 5.83325 9.16659Z" fill="black"/>
<path fill-rule="evenodd" clip-rule="evenodd" d="M5.83325 5.83333C5.83325 5.3731 6.20635 5 6.66659 5H6.67492C7.13516 5 7.50825 5.3731 7.50825 5.83333C7.50825 6.29357 7.13516 6.66667 6.67492 6.66667H6.66659C6.20635 6.66667 5.83325 6.29357 5.83325 5.83333Z" fill="black"/>
<path fill-rule="evenodd" clip-rule="evenodd" d="M5 2.49992C4.53976 2.49992 4.16667 2.87301 4.16667 3.33325V16.6666C4.16667 17.1268 4.53976 17.4999 5 17.4999H15C15.4602 17.4999 15.8333 17.1268 15.8333 16.6666V3.33325C15.8333 2.87301 15.4602 2.49992 15 2.49992H5ZM2.5 3.33325C2.5 1.95254 3.61929 0.833252 5 0.833252H15C16.3807 0.833252 17.5 1.95254 17.5 3.33325V16.6666C17.5 18.0473 16.3807 19.1666 15 19.1666H5C3.61929 19.1666 2.5 18.0473 2.5 16.6666V3.33325Z" fill="black"/>
</svg>
