<svg width="20" height="20" viewBox="0 0 20 20" fill="none" xmlns="http://www.w3.org/2000/svg">
<path fill-rule="evenodd" clip-rule="evenodd" d="M3.33325 18.3333C3.33325 17.8731 3.70635 17.5 4.16659 17.5H15.8333C16.2935 17.5 16.6666 17.8731 16.6666 18.3333C16.6666 18.7936 16.2935 19.1667 15.8333 19.1667H4.16659C3.70635 19.1667 3.33325 18.7936 3.33325 18.3333Z" fill="black"/>
<path fill-rule="evenodd" clip-rule="evenodd" d="M3.33325 1.66659C3.33325 1.20635 3.70635 0.833252 4.16659 0.833252H15.8333C16.2935 0.833252 16.6666 1.20635 16.6666 1.66659C16.6666 2.12682 16.2935 2.49992 15.8333 2.49992H4.16659C3.70635 2.49992 3.33325 2.12682 3.33325 1.66659Z" fill="black"/>
<path fill-rule="evenodd" clip-rule="evenodd" d="M9.41074 9.41083C9.73618 9.08539 10.2638 9.08539 10.5893 9.41083L14.2675 13.0891C14.2675 13.0891 14.2676 13.0891 14.2676 13.0892C14.7364 13.5579 14.9999 14.1936 15 14.8566V18.3334C15 18.7937 14.6269 19.1667 14.1667 19.1667C13.7064 19.1667 13.3333 18.7937 13.3333 18.3334V14.8569C13.3333 14.8569 13.3333 14.8568 13.3333 14.8567C13.3332 14.6358 13.2454 14.424 13.0892 14.2678L13.6783 13.6784L13.0891 14.2677L10 11.1786L6.91092 14.2677L6.32159 13.6783L6.91083 14.2678C6.75458 14.424 6.66676 14.6358 6.66667 14.8567C6.66667 14.8568 6.66667 14.8569 6.66667 14.8569V18.3334C6.66667 18.7937 6.29357 19.1667 5.83333 19.1667C5.3731 19.1667 5 18.7937 5 18.3334V14.8566C5.00014 14.1936 5.26359 13.5579 5.73241 13.0892C5.73244 13.0891 5.73247 13.0891 5.7325 13.0891L9.41074 9.41083Z" fill="black"/>
<path fill-rule="evenodd" clip-rule="evenodd" d="M5.83333 0.833252C6.29357 0.833252 6.66667 1.20635 6.66667 1.66659V5.14307C6.66667 5.14313 6.66667 5.14319 6.66667 5.14325C6.66676 5.36418 6.75458 5.57604 6.91083 5.73224L6.32164 6.32161L6.91092 5.73233L10 8.82141L13.0891 5.73233L13.6783 6.32159L13.0892 5.73224C13.2454 5.57604 13.3332 5.36418 13.3333 5.14325C13.3333 5.14319 13.3333 5.14313 13.3333 5.14307V1.66659C13.3333 1.20635 13.7064 0.833252 14.1667 0.833252C14.6269 0.833252 15 1.20635 15 1.66659V5.14343C14.9999 5.80638 14.7364 6.44212 14.2676 6.91084C14.2676 6.91087 14.2675 6.9109 14.2675 6.91093L10.5893 10.5892C10.433 10.7455 10.221 10.8333 10 10.8333C9.77899 10.8333 9.56703 10.7455 9.41074 10.5892L5.7325 6.91093C5.73247 6.9109 5.73244 6.91087 5.73241 6.91084C5.26359 6.44212 5.00014 5.80638 5 5.14343V1.66659C5 1.20635 5.3731 0.833252 5.83333 0.833252Z" fill="black"/>
</svg>
