<svg width="20" height="20" viewBox="0 0 20 20" fill="none" xmlns="http://www.w3.org/2000/svg">
<path fill-rule="evenodd" clip-rule="evenodd" d="M9.9432 0.834629C10.5143 0.821665 11.0726 1.00466 11.5252 1.35315C11.8898 1.63393 11.9578 2.15717 11.677 2.52183C11.3962 2.8865 10.873 2.95449 10.5083 2.67371C10.3575 2.55754 10.1714 2.49655 9.98102 2.50087C9.79147 2.50517 9.60907 2.57398 9.46393 2.69591L3.63319 7.69285C3.63174 7.69409 3.63029 7.69533 3.62883 7.69656C3.53625 7.77481 3.46185 7.87232 3.41083 7.98228C3.3598 8.09224 3.33339 8.21201 3.33341 8.33323V15.8334C3.33341 16.0544 3.42121 16.2664 3.57749 16.4227C3.73377 16.579 3.94573 16.6668 4.16675 16.6668H15.8334C16.0544 16.6668 16.2664 16.579 16.4227 16.4227C16.5789 16.2664 16.6667 16.0544 16.6667 15.8334V9.7051C16.6667 9.24486 17.0398 8.87176 17.5001 8.87176C17.9603 8.87176 18.3334 9.24486 18.3334 9.7051V15.8334C18.3334 16.4965 18.07 17.1324 17.6012 17.6012C17.1323 18.07 16.4965 18.3334 15.8334 18.3334H4.16675C3.50371 18.3334 2.86782 18.07 2.39898 17.6012C1.93014 17.1324 1.66675 16.4965 1.66675 15.8334V8.33363C1.66675 8.33356 1.66675 8.33349 1.66675 8.33343C1.66669 7.96983 1.74594 7.6106 1.89898 7.28077C2.05161 6.95184 2.27395 6.66007 2.55059 6.42567L8.38197 1.42817C8.38345 1.42691 8.38492 1.42565 8.3864 1.4244C8.82272 1.05573 9.37213 0.847592 9.9432 0.834629Z" fill="black"/>
<path fill-rule="evenodd" clip-rule="evenodd" d="M7.1549 9.6549C7.46746 9.34234 7.89139 9.16675 8.33341 9.16675H11.6667C12.1088 9.16675 12.5327 9.34234 12.8453 9.6549C13.1578 9.96746 13.3334 10.3914 13.3334 10.8334V17.5001C13.3334 17.9603 12.9603 18.3334 12.5001 18.3334C12.0398 18.3334 11.6667 17.9603 11.6667 17.5001V10.8334L8.33341 10.8334L8.33341 17.5001C8.33341 17.9603 7.96032 18.3334 7.50008 18.3334C7.03984 18.3334 6.66675 17.9603 6.66675 17.5001V10.8334C6.66675 10.3914 6.84234 9.96746 7.1549 9.6549Z" fill="black"/>
<path fill-rule="evenodd" clip-rule="evenodd" d="M11.6667 5.00008C11.6667 4.53984 12.0398 4.16675 12.5001 4.16675H17.5001C17.9603 4.16675 18.3334 4.53984 18.3334 5.00008C18.3334 5.46032 17.9603 5.83341 17.5001 5.83341H12.5001C12.0398 5.83341 11.6667 5.46032 11.6667 5.00008Z" fill="black"/>
<path fill-rule="evenodd" clip-rule="evenodd" d="M15.0001 1.66675C15.4603 1.66675 15.8334 2.03984 15.8334 2.50008V7.50008C15.8334 7.96032 15.4603 8.33341 15.0001 8.33341C14.5398 8.33341 14.1667 7.96032 14.1667 7.50008V2.50008C14.1667 2.03984 14.5398 1.66675 15.0001 1.66675Z" fill="black"/>
</svg>
