<svg width="20" height="20" viewBox="0 0 20 20" fill="none" xmlns="http://www.w3.org/2000/svg">
<path fill-rule="evenodd" clip-rule="evenodd" d="M8.33333 6.63672C8.79357 6.63672 9.16667 7.00981 9.16667 7.47005V10.0001C9.16667 10.4603 8.79357 10.8334 8.33333 10.8334C7.8731 10.8334 7.5 10.4603 7.5 10.0001V7.47005C7.5 7.00981 7.8731 6.63672 8.33333 6.63672Z" fill="black"/>
<path fill-rule="evenodd" clip-rule="evenodd" d="M11.6666 6.63672C12.1268 6.63672 12.4999 7.00981 12.4999 7.47005V10.0001C12.4999 10.4603 12.1268 10.8334 11.6666 10.8334C11.2063 10.8334 10.8333 10.4603 10.8333 10.0001V7.47005C10.8333 7.00981 11.2063 6.63672 11.6666 6.63672Z" fill="black"/>
<path fill-rule="evenodd" clip-rule="evenodd" d="M6.32141 9.6549C6.63397 9.34234 7.05789 9.16675 7.49992 9.16675H12.4999C12.9419 9.16675 13.3659 9.34234 13.6784 9.6549C13.991 9.96746 14.1666 10.3914 14.1666 10.8334V12.5001C14.1666 13.1631 13.9032 13.799 13.4344 14.2678C12.9655 14.7367 12.3296 15.0001 11.6666 15.0001H8.33325C7.67021 15.0001 7.03433 14.7367 6.56549 14.2678C6.09664 13.799 5.83325 13.1631 5.83325 12.5001V10.8334C5.83325 10.3914 6.00885 9.96746 6.32141 9.6549ZM12.4999 10.8334L7.49992 10.8334L7.49992 12.5001C7.49992 12.7211 7.58772 12.9331 7.744 13.0893C7.90028 13.2456 8.11224 13.3334 8.33325 13.3334H11.6666C11.8876 13.3334 12.0996 13.2456 12.2558 13.0893C12.4121 12.9331 12.4999 12.7211 12.4999 12.5001V10.8334Z" fill="black"/>
<path fill-rule="evenodd" clip-rule="evenodd" d="M9.46398 2.69574L3.63319 7.69273C3.63174 7.69397 3.63029 7.69521 3.62883 7.69644C3.53625 7.77469 3.46185 7.87219 3.41083 7.98216C3.3598 8.09212 3.33339 8.21189 3.33341 8.33311V15.8333C3.33341 16.0543 3.42121 16.2663 3.57749 16.4226C3.73377 16.5788 3.94573 16.6666 4.16675 16.6666H7.08341C7.54365 16.6666 7.91675 17.0397 7.91675 17.5C7.91675 17.9602 7.54365 18.3333 7.08341 18.3333H4.16675C3.50371 18.3333 2.86782 18.0699 2.39898 17.6011C1.93014 17.1322 1.66675 16.4963 1.66675 15.8333V8.33351C1.66675 8.33344 1.66675 8.33337 1.66675 8.33331C1.66669 7.96971 1.74594 7.61047 1.89898 7.28065C2.05161 6.95172 2.27396 6.65994 2.55059 6.42554L8.38197 1.42805C8.38342 1.42681 8.38487 1.42557 8.38633 1.42434C8.83756 1.04298 9.40928 0.83374 10.0001 0.83374C10.5909 0.83374 11.1626 1.04298 11.6138 1.42434C11.6153 1.42557 11.6167 1.42681 11.6182 1.42805L17.4496 6.42558C17.7262 6.65998 17.9486 6.95174 18.1012 7.28065C18.2542 7.61048 18.3335 7.96971 18.3334 8.33331C18.3334 8.33337 18.3334 8.33344 18.3334 8.33351V15.8333C18.3334 16.4963 18.07 17.1322 17.6012 17.6011C17.1323 18.0699 16.4965 18.3333 15.8334 18.3333H11.6667C11.0037 18.3333 10.3678 18.0699 9.89898 17.6011C9.43014 17.1322 9.16675 16.4963 9.16675 15.8333V14.1666C9.16675 13.7064 9.53984 13.3333 10.0001 13.3333C10.4603 13.3333 10.8334 13.7064 10.8334 14.1666V15.8333C10.8334 16.0543 10.9212 16.2663 11.0775 16.4226C11.2338 16.5788 11.4457 16.6666 11.6667 16.6666H15.8334C16.0544 16.6666 16.2664 16.5788 16.4227 16.4226C16.5789 16.2663 16.6667 16.0543 16.6667 15.8333V8.33311C16.6668 8.21188 16.6404 8.09212 16.5893 7.98216C16.5383 7.87219 16.4639 7.77469 16.3713 7.69644C16.3699 7.69521 16.3684 7.69397 16.367 7.69273L10.5362 2.69574C10.3861 2.56959 10.1962 2.50041 10.0001 2.50041C9.80394 2.50041 9.61411 2.56959 9.46398 2.69574Z" fill="black"/>
</svg>
