<svg width="20" height="20" viewBox="0 0 20 20" fill="none" xmlns="http://www.w3.org/2000/svg">
<path fill-rule="evenodd" clip-rule="evenodd" d="M7.1549 9.6549C7.46746 9.34234 7.89139 9.16675 8.33341 9.16675H11.6667C12.1088 9.16675 12.5327 9.34234 12.8453 9.6549C13.1578 9.96746 13.3334 10.3914 13.3334 10.8334V17.5001C13.3334 17.9603 12.9603 18.3334 12.5001 18.3334C12.0398 18.3334 11.6667 17.9603 11.6667 17.5001V10.8334L8.33341 10.8334L8.33341 17.5001C8.33341 17.9603 7.96032 18.3334 7.50008 18.3334C7.03984 18.3334 6.66675 17.9603 6.66675 17.5001V10.8334C6.66675 10.3914 6.84234 9.96746 7.1549 9.6549Z" fill="black"/>
<path fill-rule="evenodd" clip-rule="evenodd" d="M9.46398 2.69574L3.63319 7.69273C3.63174 7.69397 3.63029 7.69521 3.62883 7.69644C3.53625 7.77469 3.46185 7.87219 3.41083 7.98216C3.3598 8.09212 3.33339 8.21189 3.33341 8.33311V15.8333C3.33341 16.0543 3.42121 16.2663 3.57749 16.4226C3.73377 16.5788 3.94573 16.6666 4.16675 16.6666H15.8334C16.0544 16.6666 16.2664 16.5788 16.4227 16.4226C16.5789 16.2663 16.6667 16.0543 16.6667 15.8333V8.33311C16.6668 8.21188 16.6404 8.09212 16.5893 7.98216C16.5383 7.87219 16.4639 7.77469 16.3713 7.69644C16.3699 7.69521 16.3684 7.69397 16.367 7.69273L10.5362 2.69574C10.3861 2.56959 10.1962 2.50041 10.0001 2.50041C9.80394 2.50041 9.61411 2.56959 9.46398 2.69574ZM8.38633 1.42434C8.83756 1.04298 9.40928 0.83374 10.0001 0.83374C10.5909 0.83374 11.1626 1.04298 11.6138 1.42434C11.6153 1.42557 11.6167 1.42681 11.6182 1.42805L17.4496 6.42558C17.7262 6.65998 17.9486 6.95174 18.1012 7.28065C18.2542 7.61048 18.3335 7.96971 18.3334 8.33331C18.3334 8.33337 18.3334 8.33344 18.3334 8.33351V15.8333C18.3334 16.4963 18.07 17.1322 17.6012 17.6011C17.1323 18.0699 16.4965 18.3333 15.8334 18.3333H4.16675C3.50371 18.3333 2.86782 18.0699 2.39898 17.6011C1.93014 17.1322 1.66675 16.4963 1.66675 15.8333V8.33351C1.66675 8.33344 1.66675 8.33337 1.66675 8.33331C1.66669 7.96971 1.74594 7.61047 1.89898 7.28065C2.05161 6.95172 2.27396 6.65994 2.55059 6.42554L8.38197 1.42805C8.38342 1.42681 8.38487 1.42557 8.38633 1.42434Z" fill="black"/>
</svg>
