<svg width="20" height="20" viewBox="0 0 20 20" fill="none" xmlns="http://www.w3.org/2000/svg">
<path fill-rule="evenodd" clip-rule="evenodd" d="M5.5277 8.39129C5.95587 8.22251 6.4398 8.43278 6.60858 8.86095L9.99998 17.4641L13.3914 8.86095C13.5602 8.43278 14.0441 8.22251 14.4723 8.39129C14.9004 8.56008 15.1107 9.04401 14.9419 9.47218L11.5419 18.0972C11.5391 18.1042 11.5363 18.1112 11.5333 18.1182C11.4052 18.4188 11.1916 18.6752 10.919 18.8554C10.6464 19.0356 10.3268 19.1316 9.99998 19.1316C9.67319 19.1316 9.35361 19.0356 9.08098 18.8554C8.80836 18.6752 8.59472 18.4188 8.46665 18.1182C8.46368 18.1112 8.46081 18.1042 8.45804 18.0972L5.05804 9.47218C4.88926 9.04401 5.09953 8.56008 5.5277 8.39129Z" fill="black"/>
<path fill-rule="evenodd" clip-rule="evenodd" d="M6.46447 2.29772C7.40215 1.36004 8.67392 0.833252 10 0.833252C11.3261 0.833252 12.5979 1.36004 13.5355 2.29772C14.4732 3.2354 15 4.50717 15 5.83325C15 6.29349 14.6269 6.66659 14.1667 6.66659C13.7064 6.66659 13.3333 6.29349 13.3333 5.83325C13.3333 4.9492 12.9821 4.10135 12.357 3.47623C11.7319 2.85111 10.8841 2.49992 10 2.49992C9.11595 2.49992 8.2681 2.85111 7.64298 3.47623C7.01786 4.10135 6.66667 4.9492 6.66667 5.83325C6.66667 6.29349 6.29357 6.66659 5.83333 6.66659C5.3731 6.66659 5 6.29349 5 5.83325C5 4.50717 5.52678 3.2354 6.46447 2.29772Z" fill="black"/>
<path fill-rule="evenodd" clip-rule="evenodd" d="M5.83325 6.66667C5.61224 6.66667 5.40028 6.75446 5.244 6.91074C5.08772 7.06702 4.99992 7.27899 4.99992 7.5C4.99992 7.72101 5.08772 7.93298 5.244 8.08926C5.40028 8.24554 5.61224 8.33333 5.83325 8.33333H14.1666C14.3876 8.33333 14.5996 8.24554 14.7558 8.08926C14.9121 7.93297 14.9999 7.72101 14.9999 7.5C14.9999 7.27899 14.9121 7.06702 14.7558 6.91074C14.5996 6.75446 14.3876 6.66667 14.1666 6.66667C13.7063 6.66667 13.3333 6.29357 13.3333 5.83333C13.3333 5.3731 13.7063 5 14.1666 5C14.8296 5 15.4655 5.26339 15.9344 5.73223C16.4032 6.20107 16.6666 6.83696 16.6666 7.5C16.6666 8.16304 16.4032 8.79893 15.9344 9.26777C15.4655 9.73661 14.8296 10 14.1666 10H5.83325C5.17021 10 4.53433 9.73661 4.06548 9.26777C3.59664 8.79893 3.33325 8.16304 3.33325 7.5C3.33325 6.83696 3.59664 6.20107 4.06548 5.73223C4.53433 5.26339 5.17021 5 5.83325 5C6.29349 5 6.66658 5.3731 6.66658 5.83333C6.66658 6.29357 6.29349 6.66667 5.83325 6.66667Z" fill="black"/>
</svg>
