<svg width="20" height="20" viewBox="0 0 20 20" fill="none" xmlns="http://www.w3.org/2000/svg">
<path fill-rule="evenodd" clip-rule="evenodd" d="M7.07917 6.2526C6.75485 6.2526 6.43501 6.32832 6.14512 6.47373C5.85522 6.61913 5.60328 6.83021 5.40934 7.09016C5.21541 7.3501 5.08484 7.65173 5.02804 7.97104C5.00669 8.09104 4.99598 8.2123 4.99583 8.33342H9.1625C9.16235 8.2123 9.15164 8.09104 9.1303 7.97104C9.07349 7.65173 8.94292 7.3501 8.74899 7.09016C8.55506 6.83021 8.30311 6.61913 8.01322 6.47373C7.72332 6.32832 7.40348 6.2526 7.07917 6.2526ZM10.8292 8.33342C10.829 8.11474 10.8097 7.8958 10.7712 7.67912C10.6689 7.10437 10.4339 6.56143 10.0848 6.09353C9.73577 5.62563 9.28227 5.24569 8.76046 4.98396C8.23865 4.72223 7.66294 4.58594 7.07917 4.58594C6.4954 4.58594 5.91969 4.72223 5.39788 4.98396C4.87607 5.24569 4.42257 5.62563 4.07349 6.09353C3.72441 6.56143 3.48938 7.10437 3.38714 7.67912C3.34859 7.8958 3.32931 8.11474 3.32917 8.33343C2.87085 8.33568 2.5 8.70791 2.5 9.16676C2.5 12.341 5.18739 14.684 9.16718 14.9705C9.16684 14.9804 9.16667 14.9902 9.16667 15.0001V16.6668H6.66667C6.20643 16.6668 5.83333 17.0399 5.83333 17.5001C5.83333 17.9603 6.20643 18.3334 6.66667 18.3334H13.3333C13.7936 18.3334 14.1667 17.9603 14.1667 17.5001C14.1667 17.0399 13.7936 16.6668 13.3333 16.6668H10.8333V15.0001C10.8333 14.9902 10.8332 14.9804 10.8328 14.9705C14.8126 14.684 17.5 12.341 17.5 9.16676C17.5 8.70652 17.1269 8.33342 16.6667 8.33342H10.8292ZM9.85634 10.0001C9.86904 10.0004 9.88171 10.0004 9.89435 10.0001H15.7321C15.2884 11.796 13.3851 13.3334 10 13.3334C6.61496 13.3334 4.71168 11.796 4.26793 10.0002C4.27926 10.0004 4.29061 10.0004 4.302 10.0001H9.85634Z" fill="black"/>
<path fill-rule="evenodd" clip-rule="evenodd" d="M12.9126 6.2526C12.5883 6.2526 12.2684 6.32832 11.9785 6.47373C11.6887 6.61913 11.4367 6.83021 11.2428 7.09016C11.0488 7.3501 10.9183 7.65173 10.8615 7.97104C10.8047 8.29034 10.8232 8.6185 10.9156 8.92938C11.0467 9.37055 10.7953 9.83447 10.3541 9.96557C9.91297 10.0967 9.44905 9.8453 9.31796 9.40413C9.15167 8.84455 9.11832 8.25387 9.22057 7.67912C9.32282 7.10437 9.55784 6.56143 9.90692 6.09353C10.256 5.62563 10.7095 5.24569 11.2313 4.98396C11.7531 4.72223 12.3288 4.58594 12.9126 4.58594C13.4964 4.58594 14.0721 4.72223 14.5939 4.98396C15.1157 5.24569 15.5692 5.62563 15.9183 6.09353C16.2674 6.56143 16.5024 7.10437 16.6046 7.67912C16.7069 8.25387 16.6735 8.84455 16.5072 9.40413C16.3761 9.8453 15.9122 10.0967 15.4711 9.96557C15.0299 9.83447 14.7785 9.37055 14.9096 8.92938C15.002 8.6185 15.0205 8.29034 14.9637 7.97104C14.9069 7.65173 14.7764 7.3501 14.5824 7.09016C14.3885 6.83021 14.1365 6.61913 13.8466 6.47373C13.5568 6.32832 13.2369 6.2526 12.9126 6.2526Z" fill="black"/>
<path fill-rule="evenodd" clip-rule="evenodd" d="M8.56494 1.9522C9.01991 1.76374 9.50754 1.66675 10 1.66675C10.4925 1.66675 10.9801 1.76374 11.4351 1.9522C11.89 2.14065 12.3034 2.41688 12.6517 2.7651C12.9999 3.11332 13.2761 3.52671 13.4645 3.98168C13.653 4.43666 13.75 4.92429 13.75 5.41675C13.75 5.87699 13.3769 6.25008 12.9167 6.25008C12.4564 6.25008 12.0833 5.87699 12.0833 5.41675C12.0833 5.14316 12.0294 4.87225 11.9247 4.61949C11.8201 4.36673 11.6666 4.13706 11.4731 3.94361C11.2797 3.75015 11.05 3.5967 10.7973 3.492C10.5445 3.3873 10.2736 3.33341 10 3.33341C9.72641 3.33341 9.4555 3.3873 9.20274 3.492C8.94998 3.5967 8.72032 3.75015 8.52686 3.94361C8.33341 4.13706 8.17995 4.36673 8.07525 4.61949C7.97055 4.87225 7.91667 5.14316 7.91667 5.41675C7.91667 5.87699 7.54357 6.25008 7.08333 6.25008C6.6231 6.25008 6.25 5.87699 6.25 5.41675C6.25 4.92429 6.347 4.43666 6.53545 3.98168C6.72391 3.52671 7.00013 3.11332 7.34835 2.7651C7.69657 2.41688 8.10997 2.14065 8.56494 1.9522Z" fill="black"/>
</svg>
