<svg width="20" height="20" viewBox="0 0 20 20" fill="none" xmlns="http://www.w3.org/2000/svg">
<path fill-rule="evenodd" clip-rule="evenodd" d="M12.5 8.33333C12.5 7.8731 12.8731 7.5 13.3333 7.5H15C15.4602 7.5 15.8333 7.8731 15.8333 8.33333C15.8333 8.79357 15.4602 9.16667 15 9.16667H13.3333C12.8731 9.16667 12.5 8.79357 12.5 8.33333Z" fill="black"/>
<path fill-rule="evenodd" clip-rule="evenodd" d="M12.5 11.6666C12.5 11.2063 12.8731 10.8333 13.3333 10.8333H15C15.4602 10.8333 15.8333 11.2063 15.8333 11.6666C15.8333 12.1268 15.4602 12.4999 15 12.4999H13.3333C12.8731 12.4999 12.5 12.1268 12.5 11.6666Z" fill="black"/>
<path fill-rule="evenodd" clip-rule="evenodd" d="M7.5 11.663C7.15489 11.663 6.8183 11.7701 6.53668 11.9696C6.25506 12.1691 6.0423 12.451 5.92778 12.7766C5.77505 13.2108 5.29928 13.4389 4.86513 13.2862C4.43097 13.1334 4.20283 12.6577 4.35555 12.2235C4.5846 11.5724 5.01011 11.0085 5.57335 10.6095C6.13659 10.2106 6.80979 9.99634 7.5 9.99634C8.19021 9.99634 8.8634 10.2106 9.42664 10.6095C9.98989 11.0085 10.4154 11.5724 10.6444 12.2235C10.7972 12.6577 10.569 13.1334 10.1349 13.2862C9.70071 13.4389 9.22495 13.2108 9.07222 12.7766C8.9577 12.451 8.74494 12.1691 8.46332 11.9696C8.1817 11.7701 7.8451 11.663 7.5 11.663Z" fill="black"/>
<path fill-rule="evenodd" clip-rule="evenodd" d="M7.5 8.33341C7.03976 8.33341 6.66667 8.70651 6.66667 9.16675C6.66667 9.62699 7.03976 10.0001 7.5 10.0001C7.96024 10.0001 8.33333 9.62699 8.33333 9.16675C8.33333 8.70651 7.96024 8.33341 7.5 8.33341ZM5 9.16675C5 7.78604 6.11929 6.66675 7.5 6.66675C8.88071 6.66675 10 7.78604 10 9.16675C10 10.5475 8.88071 11.6667 7.5 11.6667C6.11929 11.6667 5 10.5475 5 9.16675Z" fill="black"/>
<path fill-rule="evenodd" clip-rule="evenodd" d="M3.33325 4.99992C2.87301 4.99992 2.49992 5.37301 2.49992 5.83325V14.1666C2.49992 14.6268 2.87301 14.9999 3.33325 14.9999H16.6666C17.1268 14.9999 17.4999 14.6268 17.4999 14.1666V5.83325C17.4999 5.37301 17.1268 4.99992 16.6666 4.99992H3.33325ZM0.833252 5.83325C0.833252 4.45254 1.95254 3.33325 3.33325 3.33325H16.6666C18.0473 3.33325 19.1666 4.45254 19.1666 5.83325V14.1666C19.1666 15.5473 18.0473 16.6666 16.6666 16.6666H3.33325C1.95254 16.6666 0.833252 15.5473 0.833252 14.1666V5.83325Z" fill="black"/>
</svg>
