<svg width="20" height="20" viewBox="0 0 20 20" fill="none" xmlns="http://www.w3.org/2000/svg">
<path fill-rule="evenodd" clip-rule="evenodd" d="M9.756 12.7441C10.0814 13.0695 10.0814 13.5972 9.756 13.9226L5.58934 18.0893C5.2639 18.4147 4.73626 18.4147 4.41083 18.0893C4.08539 17.7638 4.08539 17.2362 4.41083 16.9107L8.57749 12.7441C8.90293 12.4186 9.43057 12.4186 9.756 12.7441Z" fill="black"/>
<path fill-rule="evenodd" clip-rule="evenodd" d="M4.16675 3.33341C3.94573 3.33341 3.73377 3.42121 3.57749 3.57749C3.42121 3.73377 3.33341 3.94573 3.33341 4.16675V15.8334C3.33341 16.0544 3.42121 16.2664 3.57749 16.4227C3.73377 16.5789 3.94573 16.6667 4.16675 16.6667H9.16675C9.62698 16.6667 10.0001 17.0398 10.0001 17.5001C10.0001 17.9603 9.62698 18.3334 9.16675 18.3334H4.16675C3.50371 18.3334 2.86782 18.07 2.39898 17.6012C1.93014 17.1323 1.66675 16.4965 1.66675 15.8334V4.16675C1.66675 3.50371 1.93014 2.86782 2.39898 2.39898C2.86782 1.93014 3.50371 1.66675 4.16675 1.66675H15.8334C16.4965 1.66675 17.1323 1.93014 17.6012 2.39898C18.07 2.86782 18.3334 3.50371 18.3334 4.16675V9.58341C18.3334 10.0437 17.9603 10.4167 17.5001 10.4167C17.0398 10.4167 16.6667 10.0437 16.6667 9.58341V4.16675C16.6667 3.94573 16.5789 3.73377 16.4227 3.57749C16.2664 3.42121 16.0544 3.33341 15.8334 3.33341H4.16675Z" fill="black"/>
<path fill-rule="evenodd" clip-rule="evenodd" d="M7.5 6.66667C7.03976 6.66667 6.66667 7.03976 6.66667 7.5C6.66667 7.96024 7.03976 8.33333 7.5 8.33333C7.96024 8.33333 8.33333 7.96024 8.33333 7.5C8.33333 7.03976 7.96024 6.66667 7.5 6.66667ZM5 7.5C5 6.11929 6.11929 5 7.5 5C8.88071 5 10 6.11929 10 7.5C10 8.88071 8.88071 10 7.5 10C6.11929 10 5 8.88071 5 7.5Z" fill="black"/>
</svg>
