<svg width="20" height="20" viewBox="0 0 20 20" fill="none" xmlns="http://www.w3.org/2000/svg">
<path fill-rule="evenodd" clip-rule="evenodd" d="M4.16675 3.33341C3.94573 3.33341 3.73377 3.42121 3.57749 3.57749C3.42121 3.73377 3.33341 3.94573 3.33341 4.16675V15.8334C3.33341 16.0544 3.42121 16.2664 3.57749 16.4227C3.73377 16.5789 3.94573 16.6667 4.16675 16.6667H4.6549L11.9826 9.3391C12.4483 8.87341 13.0791 8.61035 13.7377 8.60708C14.3963 8.6038 15.0297 8.86057 15.5 9.3216C15.502 9.32355 15.504 9.32552 15.506 9.32749L16.6667 10.4882V4.16675C16.6667 3.94573 16.5789 3.73377 16.4227 3.57749C16.2664 3.42121 16.0544 3.33341 15.8334 3.33341H4.16675ZM7.01193 16.6667H8.58341C9.04365 16.6667 9.41675 17.0398 9.41675 17.5001C9.41675 17.9603 9.04365 18.3334 8.58341 18.3334H4.16675C3.50371 18.3334 2.86782 18.07 2.39898 17.6012C1.93014 17.1323 1.66675 16.4965 1.66675 15.8334V4.16675C1.66675 3.50371 1.93014 2.86782 2.39898 2.39898C2.86782 1.93014 3.50371 1.66675 4.16675 1.66675H15.8334C16.4965 1.66675 17.1323 1.93014 17.6012 2.39898C18.07 2.86782 18.3334 3.50371 18.3334 4.16675V12.5001C18.3334 12.8371 18.1304 13.141 17.819 13.27C17.5076 13.399 17.1492 13.3277 16.9108 13.0893L14.331 10.5095C14.1744 10.3573 13.9644 10.2726 13.746 10.2737C13.5265 10.2748 13.3163 10.3625 13.161 10.5177C13.161 10.5177 13.161 10.5177 13.1609 10.5177L7.01193 16.6667Z" fill="black"/>
<path fill-rule="evenodd" clip-rule="evenodd" d="M14.1666 12.9167C14.6268 12.9167 14.9999 13.2898 14.9999 13.7501V18.3334C14.9999 18.6705 14.7969 18.9743 14.4855 19.1033C14.1741 19.2323 13.8157 19.161 13.5773 18.9227L11.0773 16.4227C10.7519 16.0972 10.7519 15.5696 11.0773 15.2442C11.4028 14.9187 11.9304 14.9187 12.2558 15.2442L13.3333 16.3216V13.7501C13.3333 13.2898 13.7063 12.9167 14.1666 12.9167Z" fill="black"/>
<path fill-rule="evenodd" clip-rule="evenodd" d="M17.2558 15.2441C17.5813 15.5695 17.5813 16.0972 17.2558 16.4226L14.7558 18.9226C14.4304 19.248 13.9028 19.248 13.5773 18.9226C13.2519 18.5972 13.2519 18.0695 13.5773 17.7441L16.0773 15.2441C16.4028 14.9186 16.9304 14.9186 17.2558 15.2441Z" fill="black"/>
<path fill-rule="evenodd" clip-rule="evenodd" d="M7.5 6.66667C7.03976 6.66667 6.66667 7.03976 6.66667 7.5C6.66667 7.96024 7.03976 8.33333 7.5 8.33333C7.96024 8.33333 8.33333 7.96024 8.33333 7.5C8.33333 7.03976 7.96024 6.66667 7.5 6.66667ZM5 7.5C5 6.11929 6.11929 5 7.5 5C8.88071 5 10 6.11929 10 7.5C10 8.88071 8.88071 10 7.5 10C6.11929 10 5 8.88071 5 7.5Z" fill="black"/>
</svg>
