<svg width="20" height="20" viewBox="0 0 20 20" fill="none" xmlns="http://www.w3.org/2000/svg">
<g clip-path="url(#clip0_2001_7651)">
<path fill-rule="evenodd" clip-rule="evenodd" d="M1.07733 1.07733C1.40277 0.751893 1.9304 0.751893 2.25584 1.07733L18.9225 17.744C19.2479 18.0694 19.2479 18.5971 18.9225 18.9225C18.5971 19.2479 18.0694 19.2479 17.744 18.9225L1.07733 2.25584C0.751893 1.9304 0.751893 1.40277 1.07733 1.07733Z" fill="black"/>
<path fill-rule="evenodd" clip-rule="evenodd" d="M6.90589 5.72748C7.23133 6.05291 7.23133 6.58055 6.90589 6.90599C6.82842 6.98345 6.76697 7.07542 6.72504 7.17664C6.68312 7.27786 6.66154 7.38634 6.66154 7.4959C6.66154 7.60546 6.68312 7.71394 6.72504 7.81516C6.76697 7.91637 6.82842 8.00834 6.90589 8.08581C6.98336 8.16328 7.07533 8.22473 7.17654 8.26665C7.27776 8.30858 7.38624 8.33016 7.4958 8.33016C7.60536 8.33016 7.71384 8.30858 7.81506 8.26665C7.91627 8.22473 8.00824 8.16328 8.08571 8.08581C8.41115 7.76037 8.93879 7.76037 9.26422 8.08581C9.58966 8.41125 9.58966 8.93888 9.26422 9.26432C9.03199 9.49655 8.75629 9.68077 8.45286 9.80645C8.14944 9.93214 7.82423 9.99683 7.4958 9.99683C7.16737 9.99683 6.84216 9.93214 6.53874 9.80645C6.23531 9.68077 5.95961 9.49655 5.72738 9.26432C5.49515 9.03209 5.31093 8.75639 5.18524 8.45296C5.05956 8.14954 4.99487 7.82432 4.99487 7.4959C4.99487 7.16747 5.05956 6.84226 5.18524 6.53884C5.31093 6.23541 5.49514 5.95971 5.72738 5.72748C6.05281 5.40204 6.58045 5.40204 6.90589 5.72748Z" fill="black"/>
<path fill-rule="evenodd" clip-rule="evenodd" d="M11.8393 10.6608C12.1648 10.9863 12.1648 11.5139 11.8393 11.8393L5.58934 18.0893C5.2639 18.4148 4.73626 18.4148 4.41083 18.0893C4.08539 17.7639 4.08539 17.2363 4.41083 16.9108L10.6608 10.6608C10.9863 10.3354 11.5139 10.3354 11.8393 10.6608Z" fill="black"/>
<path fill-rule="evenodd" clip-rule="evenodd" d="M14.4108 9.41083C14.7363 9.08539 15.2639 9.08539 15.5893 9.41083L18.0893 11.9108C18.4148 12.2363 18.4148 12.7639 18.0893 13.0893C17.7639 13.4148 17.2363 13.4148 16.9108 13.0893L14.4108 10.5893C14.0854 10.2639 14.0854 9.73626 14.4108 9.41083Z" fill="black"/>
<path fill-rule="evenodd" clip-rule="evenodd" d="M3.58398 2.40552C3.90777 2.7326 3.90509 3.26023 3.57801 3.58401C3.50073 3.66052 3.43933 3.75155 3.39735 3.85187C3.35547 3.95196 3.33374 4.05933 3.33341 4.16782V15.8334C3.33341 16.0545 3.42121 16.2664 3.57749 16.4227C3.73377 16.579 3.94573 16.6668 4.16675 16.6668H15.8334C16.0662 16.6668 16.2684 16.5749 16.4095 16.429C16.7296 16.0982 17.2571 16.0895 17.5879 16.4096C17.9186 16.7296 17.9273 17.2572 17.6073 17.5879C17.1518 18.0587 16.5173 18.3334 15.8334 18.3334H4.16675C3.50371 18.3334 2.86782 18.0701 2.39898 17.6012C1.93014 17.1324 1.66675 16.4965 1.66675 15.8334V4.16678L1.66675 4.165C1.66745 3.83656 1.73308 3.5115 1.85986 3.20852C1.98664 2.90554 2.17207 2.63061 2.40549 2.39955C2.73257 2.07576 3.2602 2.07844 3.58398 2.40552Z" fill="black"/>
<path fill-rule="evenodd" clip-rule="evenodd" d="M6.66675 2.50008C6.66675 2.03984 7.03984 1.66675 7.50008 1.66675H15.8334C16.4965 1.66675 17.1323 1.93014 17.6012 2.39898C18.07 2.86782 18.3334 3.50371 18.3334 4.16675V12.5001C18.3334 12.9603 17.9603 13.3334 17.5001 13.3334C17.0398 13.3334 16.6667 12.9603 16.6667 12.5001V4.16675C16.6667 3.94573 16.579 3.73377 16.4227 3.57749C16.2664 3.42121 16.0544 3.33341 15.8334 3.33341H7.50008C7.03984 3.33341 6.66675 2.96032 6.66675 2.50008Z" fill="black"/>
</g>
<defs>
<clipPath id="clip0_2001_7651">
<rect width="20" height="20" fill="white"/>
</clipPath>
</defs>
</svg>
