<svg width="20" height="20" viewBox="0 0 20 20" fill="none" xmlns="http://www.w3.org/2000/svg">
<g clip-path="url(#clip0_2001_7678)">
<path fill-rule="evenodd" clip-rule="evenodd" d="M1.66659 4.16675C2.12682 4.16675 2.49992 4.53984 2.49992 5.00008V16.6667C2.49992 16.8878 2.58772 17.0997 2.744 17.256C2.90028 17.4123 3.11224 17.5001 3.33325 17.5001H14.9999C15.4602 17.5001 15.8333 17.8732 15.8333 18.3334C15.8333 18.7937 15.4602 19.1667 14.9999 19.1667H3.33325C2.67021 19.1667 2.03433 18.9034 1.56549 18.4345C1.09664 17.9657 0.833252 17.3298 0.833252 16.6667V5.00008C0.833252 4.53984 1.20635 4.16675 1.66659 4.16675Z" fill="black"/>
<path fill-rule="evenodd" clip-rule="evenodd" d="M13.824 9.16394C14.3569 8.63112 15.0797 8.33179 15.8333 8.33179C16.5868 8.33179 17.3096 8.63112 17.8425 9.16394L17.8425 9.16399L18.9225 10.244C19.2479 10.5694 19.2479 11.0971 18.9225 11.4225C18.5971 11.7479 18.0694 11.7479 17.744 11.4225L16.664 10.3425C16.664 10.3425 16.664 10.3425 16.664 10.3425C16.4437 10.1222 16.1448 9.99845 15.8333 9.99845C15.5217 9.99845 15.2229 10.1222 15.0025 10.3425C15.0025 10.3425 15.0025 10.3425 15.0025 10.3425L9.75584 15.5892C9.4304 15.9146 8.90277 15.9146 8.57733 15.5892C8.25189 15.2637 8.25189 14.7361 8.57733 14.4107L13.824 9.16399L13.824 9.16394Z" fill="black"/>
<path fill-rule="evenodd" clip-rule="evenodd" d="M10 5.83341C9.53976 5.83341 9.16667 6.20651 9.16667 6.66675C9.16667 7.12699 9.53976 7.50008 10 7.50008C10.4602 7.50008 10.8333 7.12699 10.8333 6.66675C10.8333 6.20651 10.4602 5.83341 10 5.83341ZM7.5 6.66675C7.5 5.28604 8.61929 4.16675 10 4.16675C11.3807 4.16675 12.5 5.28604 12.5 6.66675C12.5 8.04746 11.3807 9.16675 10 9.16675C8.61929 9.16675 7.5 8.04746 7.5 6.66675Z" fill="black"/>
<path fill-rule="evenodd" clip-rule="evenodd" d="M6.66675 2.49992C6.20651 2.49992 5.83341 2.87301 5.83341 3.33325V13.3333C5.83341 13.7935 6.20651 14.1666 6.66675 14.1666H16.6667C17.127 14.1666 17.5001 13.7935 17.5001 13.3333V3.33325C17.5001 2.87301 17.127 2.49992 16.6667 2.49992H6.66675ZM4.16675 3.33325C4.16675 1.95254 5.28604 0.833252 6.66675 0.833252H16.6667C18.0475 0.833252 19.1667 1.95254 19.1667 3.33325V13.3333C19.1667 14.714 18.0475 15.8333 16.6667 15.8333H6.66675C5.28604 15.8333 4.16675 14.714 4.16675 13.3333V3.33325Z" fill="black"/>
</g>
<defs>
<clipPath id="clip0_2001_7678">
<rect width="20" height="20" fill="white"/>
</clipPath>
</defs>
</svg>
