<svg width="20" height="20" viewBox="0 0 20 20" fill="none" xmlns="http://www.w3.org/2000/svg">
<path fill-rule="evenodd" clip-rule="evenodd" d="M4.16675 3.33341C3.94573 3.33341 3.73377 3.42121 3.57749 3.57749C3.42121 3.73377 3.33341 3.94573 3.33341 4.16675V15.8334C3.33341 16.0544 3.42121 16.2664 3.57749 16.4227C3.73377 16.5789 3.94573 16.6667 4.16675 16.6667H15.8334C16.0544 16.6667 16.2664 16.5789 16.4227 16.4227C16.5789 16.2664 16.6667 16.0544 16.6667 15.8334V7.50008C16.6667 7.03984 17.0398 6.66675 17.5001 6.66675C17.9603 6.66675 18.3334 7.03984 18.3334 7.50008V15.8334C18.3334 16.4965 18.07 17.1323 17.6012 17.6012C17.1323 18.07 16.4965 18.3334 15.8334 18.3334H4.16675C3.50371 18.3334 2.86782 18.07 2.39898 17.6012C1.93014 17.1323 1.66675 16.4965 1.66675 15.8334V4.16675C1.66675 3.50371 1.93014 2.86782 2.39898 2.39898C2.86782 1.93014 3.50371 1.66675 4.16675 1.66675H10.0001C10.4603 1.66675 10.8334 2.03984 10.8334 2.50008C10.8334 2.96032 10.4603 3.33341 10.0001 3.33341H4.16675Z" fill="black"/>
<path fill-rule="evenodd" clip-rule="evenodd" d="M12.5 4.16659C12.5 3.70635 12.8731 3.33325 13.3333 3.33325H18.3333C18.7936 3.33325 19.1667 3.70635 19.1667 4.16659C19.1667 4.62682 18.7936 4.99992 18.3333 4.99992H13.3333C12.8731 4.99992 12.5 4.62682 12.5 4.16659Z" fill="black"/>
<path fill-rule="evenodd" clip-rule="evenodd" d="M7.5 6.66667C7.03976 6.66667 6.66667 7.03976 6.66667 7.5C6.66667 7.96024 7.03976 8.33333 7.5 8.33333C7.96024 8.33333 8.33333 7.96024 8.33333 7.5C8.33333 7.03976 7.96024 6.66667 7.5 6.66667ZM5 7.5C5 6.11929 6.11929 5 7.5 5C8.88071 5 10 6.11929 10 7.5C10 8.88071 8.88071 10 7.5 10C6.11929 10 5 8.88071 5 7.5Z" fill="black"/>
<path fill-rule="evenodd" clip-rule="evenodd" d="M11.9826 9.3389C12.4514 8.87022 13.0872 8.60693 13.7501 8.60693C14.413 8.60693 15.0488 8.87022 15.5176 9.3389L14.9285 9.92818L15.5177 9.33899L18.0893 11.9107C18.4148 12.2361 18.4148 12.7637 18.0893 13.0892C17.7639 13.4146 17.2363 13.4146 16.9108 13.0892L14.3392 10.5176C14.183 10.3614 13.9711 10.2736 13.7501 10.2736C13.5292 10.2736 13.3173 10.3613 13.161 10.5175C13.161 10.5175 13.1609 10.5176 13.1609 10.5176L5.58934 18.0892C5.2639 18.4146 4.73626 18.4146 4.41083 18.0892C4.08539 17.7637 4.08539 17.2361 4.41083 16.9107L11.9825 9.33899L12.5717 9.92818L11.9826 9.3389Z" fill="black"/>
</svg>
