<svg width="20" height="20" viewBox="0 0 20 20" fill="none" xmlns="http://www.w3.org/2000/svg">
<path fill-rule="evenodd" clip-rule="evenodd" d="M10.0001 1.66675C10.4603 1.66675 10.8334 2.03984 10.8334 2.50008V12.5001C10.8334 12.9603 10.4603 13.3334 10.0001 13.3334C9.53984 13.3334 9.16675 12.9603 9.16675 12.5001V2.50008C9.16675 2.03984 9.53984 1.66675 10.0001 1.66675Z" fill="black"/>
<path fill-rule="evenodd" clip-rule="evenodd" d="M6.07733 8.57733C6.40277 8.25189 6.9304 8.25189 7.25584 8.57733L9.99992 11.3214L12.744 8.57733C13.0694 8.25189 13.5971 8.25189 13.9225 8.57733C14.2479 8.90277 14.2479 9.4304 13.9225 9.75584L10.5892 13.0892C10.2637 13.4146 9.7361 13.4146 9.41066 13.0892L6.07733 9.75584C5.75189 9.4304 5.75189 8.90277 6.07733 8.57733Z" fill="black"/>
<path fill-rule="evenodd" clip-rule="evenodd" d="M1.56549 4.06548C2.03433 3.59664 2.67021 3.33325 3.33325 3.33325H6.66659C7.12682 3.33325 7.49992 3.70635 7.49992 4.16659C7.49992 4.62682 7.12682 4.99992 6.66659 4.99992H3.33325C3.11224 4.99992 2.90028 5.08772 2.744 5.244C2.58772 5.40028 2.49992 5.61224 2.49992 5.83325V14.1666C2.49992 14.3876 2.58772 14.5996 2.744 14.7558C2.90028 14.9121 3.11224 14.9999 3.33325 14.9999H16.6666C16.8876 14.9999 17.0996 14.9121 17.2558 14.7558C17.4121 14.5996 17.4999 14.3876 17.4999 14.1666V5.83325C17.4999 5.61224 17.4121 5.40028 17.2558 5.244C17.0996 5.08772 16.8876 4.99992 16.6666 4.99992H13.3333C12.873 4.99992 12.4999 4.62682 12.4999 4.16659C12.4999 3.70635 12.873 3.33325 13.3333 3.33325H16.6666C17.3296 3.33325 17.9655 3.59664 18.4344 4.06548C18.9032 4.53433 19.1666 5.17021 19.1666 5.83325V14.1666C19.1666 14.8296 18.9032 15.4655 18.4344 15.9344C17.9655 16.4032 17.3296 16.6666 16.6666 16.6666H3.33325C2.67021 16.6666 2.03433 16.4032 1.56549 15.9344C1.09664 15.4655 0.833252 14.8296 0.833252 14.1666V5.83325C0.833252 5.17021 1.09664 4.53433 1.56549 4.06548Z" fill="black"/>
</svg>
