<svg width="20" height="20" viewBox="0 0 20 20" fill="none" xmlns="http://www.w3.org/2000/svg">
<path fill-rule="evenodd" clip-rule="evenodd" d="M8.33325 10.0001C8.33325 9.53984 8.70635 9.16675 9.16659 9.16675H17.4999C17.9602 9.16675 18.3333 9.53984 18.3333 10.0001C18.3333 10.4603 17.9602 10.8334 17.4999 10.8334H9.16659C8.70635 10.8334 8.33325 10.4603 8.33325 10.0001Z" fill="black"/>
<path fill-rule="evenodd" clip-rule="evenodd" d="M8.33325 15.0001C8.33325 14.5398 8.70635 14.1667 9.16659 14.1667H17.4999C17.9602 14.1667 18.3333 14.5398 18.3333 15.0001C18.3333 15.4603 17.9602 15.8334 17.4999 15.8334H9.16659C8.70635 15.8334 8.33325 15.4603 8.33325 15.0001Z" fill="black"/>
<path fill-rule="evenodd" clip-rule="evenodd" d="M8.33325 5.00008C8.33325 4.53984 8.70635 4.16675 9.16659 4.16675H17.4999C17.9602 4.16675 18.3333 4.53984 18.3333 5.00008C18.3333 5.46032 17.9602 5.83341 17.4999 5.83341H9.16659C8.70635 5.83341 8.33325 5.46032 8.33325 5.00008Z" fill="black"/>
<path fill-rule="evenodd" clip-rule="evenodd" d="M6.42267 6.07733C6.74811 6.40277 6.74811 6.9304 6.42267 7.25584L3.67859 9.99992L6.42267 12.744C6.74811 13.0694 6.74811 13.5971 6.42267 13.9225C6.09723 14.2479 5.5696 14.2479 5.24416 13.9225L1.91083 10.5892C1.58539 10.2637 1.58539 9.7361 1.91083 9.41066L5.24416 6.07733C5.5696 5.75189 6.09723 5.75189 6.42267 6.07733Z" fill="black"/>
</svg>
