<svg width="20" height="20" viewBox="0 0 20 20" fill="none" xmlns="http://www.w3.org/2000/svg">
<path fill-rule="evenodd" clip-rule="evenodd" d="M4.16675 2.50008C4.16675 2.03984 4.53984 1.66675 5.00008 1.66675H15.0001C15.4603 1.66675 15.8334 2.03984 15.8334 2.50008C15.8334 2.96032 15.4603 3.33341 15.0001 3.33341H5.00008C4.53984 3.33341 4.16675 2.96032 4.16675 2.50008Z" fill="black"/>
<path fill-rule="evenodd" clip-rule="evenodd" d="M4.16675 6.66659C4.16675 6.20635 4.53984 5.83325 5.00008 5.83325H15.0001C15.4603 5.83325 15.8334 6.20635 15.8334 6.66659C15.8334 7.12682 15.4603 7.49992 15.0001 7.49992H5.00008C4.53984 7.49992 4.16675 7.12682 4.16675 6.66659Z" fill="black"/>
<path fill-rule="evenodd" clip-rule="evenodd" d="M4.39325 10.2622C4.70868 9.92705 5.23608 9.91107 5.57122 10.2265L12.6546 16.8932C12.9897 17.2086 13.0057 17.736 12.6903 18.0711C12.3748 18.4063 11.8474 18.4223 11.5123 18.1068L4.42895 11.4402C4.0938 11.1247 4.07782 10.5973 4.39325 10.2622Z" fill="black"/>
<path fill-rule="evenodd" clip-rule="evenodd" d="M4.16675 10.8333C4.16675 10.3731 4.53984 10 5.00008 10H7.50008C7.96032 10 8.33341 10.3731 8.33341 10.8333C8.33341 11.2936 7.96032 11.6667 7.50008 11.6667H5.00008C4.53984 11.6667 4.16675 11.2936 4.16675 10.8333Z" fill="black"/>
<path fill-rule="evenodd" clip-rule="evenodd" d="M6.66675 2.50008C6.66675 2.03984 7.03984 1.66675 7.50008 1.66675C9.11516 1.66675 10.3877 2.28066 11.2481 3.24851C12.0948 4.20104 12.5003 5.44751 12.5003 6.66675C12.5003 7.88598 12.0948 9.13246 11.2481 10.085C10.3877 11.0528 9.11516 11.6667 7.50008 11.6667C7.03984 11.6667 6.66675 11.2937 6.66675 10.8334C6.66675 10.3732 7.03984 10.0001 7.50008 10.0001C8.66292 10.0001 9.47381 9.57232 10.0024 8.97768C10.5446 8.3677 10.8336 7.53085 10.8336 6.66675C10.8336 5.80265 10.5446 4.96579 10.0024 4.35582C9.47381 3.76117 8.66292 3.33341 7.50008 3.33341C7.03984 3.33341 6.66675 2.96032 6.66675 2.50008Z" fill="black"/>
</svg>
