<svg width="20" height="20" viewBox="0 0 20 20" fill="none" xmlns="http://www.w3.org/2000/svg">
<path fill-rule="evenodd" clip-rule="evenodd" d="M2.05364 7.05364C2.83504 6.27224 3.89485 5.83325 4.99992 5.83325C6.80001 5.83325 8.46254 6.87575 9.99992 8.6668C11.5373 6.87575 13.1998 5.83325 14.9999 5.83325C16.105 5.83325 17.1648 6.27224 17.9462 7.05364C18.7276 7.83504 19.1666 8.89485 19.1666 9.99992C19.1666 11.105 18.7276 12.1648 17.9462 12.9462C17.1648 13.7276 16.105 14.1666 14.9999 14.1666C13.1998 14.1666 11.5373 13.1241 9.99992 11.333C8.46254 13.1241 6.80001 14.1666 4.99992 14.1666C3.89485 14.1666 2.83504 13.7276 2.05364 12.9462C1.27224 12.1648 0.833252 11.105 0.833252 9.99992C0.833252 8.89485 1.27224 7.83504 2.05364 7.05364ZM8.94272 9.99992C7.48555 8.21451 6.16645 7.49992 4.99992 7.49992C4.33688 7.49992 3.70099 7.76331 3.23215 8.23215C2.76331 8.70099 2.49992 9.33688 2.49992 9.99992C2.49992 10.663 2.76331 11.2988 3.23215 11.7677C3.70099 12.2365 4.33688 12.4999 4.99992 12.4999C6.16645 12.4999 7.48555 11.7853 8.94272 9.99992ZM11.0571 9.99992C12.5143 11.7853 13.8334 12.4999 14.9999 12.4999C15.663 12.4999 16.2988 12.2365 16.7677 11.7677C17.2365 11.2988 17.4999 10.663 17.4999 9.99992C17.4999 9.33688 17.2365 8.70099 16.7677 8.23215C16.2988 7.76331 15.663 7.49992 14.9999 7.49992C13.8334 7.49992 12.5143 8.21451 11.0571 9.99992Z" fill="black"/>
</svg>
