<svg width="20" height="20" viewBox="0 0 20 20" fill="none" xmlns="http://www.w3.org/2000/svg">
<g clip-path="url(#clip0_2001_7708)">
<path fill-rule="evenodd" clip-rule="evenodd" d="M9.99992 2.49992C5.85778 2.49992 2.49992 5.85778 2.49992 9.99992C2.49992 14.1421 5.85778 17.4999 9.99992 17.4999C14.1421 17.4999 17.4999 14.1421 17.4999 9.99992C17.4999 5.85778 14.1421 2.49992 9.99992 2.49992ZM0.833252 9.99992C0.833252 4.93731 4.93731 0.833252 9.99992 0.833252C15.0625 0.833252 19.1666 4.93731 19.1666 9.99992C19.1666 15.0625 15.0625 19.1666 9.99992 19.1666C4.93731 19.1666 0.833252 15.0625 0.833252 9.99992Z" fill="black"/>
<path fill-rule="evenodd" clip-rule="evenodd" d="M10.0001 9.16675C10.4603 9.16675 10.8334 9.53984 10.8334 10.0001V13.3334C10.8334 13.7937 10.4603 14.1667 10.0001 14.1667C9.53984 14.1667 9.16675 13.7937 9.16675 13.3334V10.0001C9.16675 9.53984 9.53984 9.16675 10.0001 9.16675Z" fill="black"/>
<path fill-rule="evenodd" clip-rule="evenodd" d="M9.16675 6.66659C9.16675 6.20635 9.53984 5.83325 10.0001 5.83325H10.0084C10.4687 5.83325 10.8417 6.20635 10.8417 6.66659C10.8417 7.12682 10.4687 7.49992 10.0084 7.49992H10.0001C9.53984 7.49992 9.16675 7.12682 9.16675 6.66659Z" fill="black"/>
</g>
<defs>
<clipPath id="clip0_2001_7708">
<rect width="20" height="20" fill="white"/>
</clipPath>
</defs>
</svg>
