<svg width="20" height="20" viewBox="0 0 20 20" fill="none" xmlns="http://www.w3.org/2000/svg">
<path fill-rule="evenodd" clip-rule="evenodd" d="M4.16675 3.33341C3.70651 3.33341 3.33341 3.70651 3.33341 4.16675V15.8334C3.33341 16.2937 3.70651 16.6667 4.16675 16.6667H15.8334C16.2937 16.6667 16.6667 16.2937 16.6667 15.8334V4.16675C16.6667 3.70651 16.2937 3.33341 15.8334 3.33341H4.16675ZM1.66675 4.16675C1.66675 2.78604 2.78604 1.66675 4.16675 1.66675H15.8334C17.2141 1.66675 18.3334 2.78604 18.3334 4.16675V15.8334C18.3334 17.2141 17.2141 18.3334 15.8334 18.3334H4.16675C2.78604 18.3334 1.66675 17.2141 1.66675 15.8334V4.16675Z" fill="black"/>
<path fill-rule="evenodd" clip-rule="evenodd" d="M5 5.83333C5 5.3731 5.3731 5 5.83333 5H5.84167C6.3019 5 6.675 5.3731 6.675 5.83333C6.675 6.29357 6.3019 6.66667 5.84167 6.66667H5.83333C5.3731 6.66667 5 6.29357 5 5.83333Z" fill="black"/>
<path fill-rule="evenodd" clip-rule="evenodd" d="M13.3333 5.83333C13.3333 5.3731 13.7063 5 14.1666 5H14.1749C14.6352 5 15.0083 5.3731 15.0083 5.83333C15.0083 6.29357 14.6352 6.66667 14.1749 6.66667H14.1666C13.7063 6.66667 13.3333 6.29357 13.3333 5.83333Z" fill="black"/>
<path fill-rule="evenodd" clip-rule="evenodd" d="M5 14.1666C5 13.7063 5.3731 13.3333 5.83333 13.3333H5.84167C6.3019 13.3333 6.675 13.7063 6.675 14.1666C6.675 14.6268 6.3019 14.9999 5.84167 14.9999H5.83333C5.3731 14.9999 5 14.6268 5 14.1666Z" fill="black"/>
<path fill-rule="evenodd" clip-rule="evenodd" d="M13.3333 14.1666C13.3333 13.7063 13.7063 13.3333 14.1666 13.3333H14.1749C14.6352 13.3333 15.0083 13.7063 15.0083 14.1666C15.0083 14.6268 14.6352 14.9999 14.1749 14.9999H14.1666C13.7063 14.9999 13.3333 14.6268 13.3333 14.1666Z" fill="black"/>
</svg>
