<svg width="20" height="20" viewBox="0 0 20 20" fill="none" xmlns="http://www.w3.org/2000/svg">
<g clip-path="url(#clip0_2001_7718)">
<path fill-rule="evenodd" clip-rule="evenodd" d="M5.83325 2.49992C3.9923 2.49992 2.49992 3.9923 2.49992 5.83325V14.1666C2.49992 16.0075 3.9923 17.4999 5.83325 17.4999H14.1666C16.0075 17.4999 17.4999 16.0075 17.4999 14.1666V5.83325C17.4999 3.9923 16.0075 2.49992 14.1666 2.49992H5.83325ZM0.833252 5.83325C0.833252 3.07183 3.07183 0.833252 5.83325 0.833252H14.1666C16.928 0.833252 19.1666 3.07183 19.1666 5.83325V14.1666C19.1666 16.928 16.928 19.1666 14.1666 19.1666H5.83325C3.07183 19.1666 0.833252 16.928 0.833252 14.1666V5.83325Z" fill="black"/>
<path fill-rule="evenodd" clip-rule="evenodd" d="M10.4028 7.49108C9.88261 7.41394 9.35138 7.50279 8.88463 7.74498C8.41788 7.98716 8.03938 8.37036 7.80297 8.84006C7.56656 9.30976 7.48427 9.84205 7.56781 10.3612C7.65135 10.8804 7.89646 11.36 8.26829 11.7318C8.64012 12.1036 9.11972 12.3487 9.63888 12.4323C10.158 12.5158 10.6903 12.4335 11.16 12.1971C11.6297 11.9607 12.0129 11.5822 12.2551 11.1155C12.4973 10.6487 12.5861 10.1175 12.509 9.59733C12.4303 9.06675 12.1831 8.57554 11.8038 8.19627C11.4245 7.81699 10.9333 7.56975 10.4028 7.49108ZM8.11701 6.2656C8.89493 5.86196 9.78031 5.71388 10.6472 5.84244C11.5315 5.97357 12.3502 6.38563 12.9823 7.01776C13.6145 7.64988 14.0265 8.46856 14.1577 9.35285C14.2862 10.2198 14.1381 11.1052 13.7345 11.8831C13.3308 12.661 12.6922 13.2918 11.9093 13.6858C11.1265 14.0799 10.2394 14.217 9.3741 14.0778C8.50883 13.9385 7.70949 13.53 7.08978 12.9103C6.47007 12.2906 6.06154 11.4913 5.92231 10.626C5.78307 9.76072 5.92022 8.87358 6.31424 8.09074C6.70827 7.30791 7.3391 6.66925 8.11701 6.2656Z" fill="black"/>
<path fill-rule="evenodd" clip-rule="evenodd" d="M13.75 5.41659C13.75 4.95635 14.1231 4.58325 14.5833 4.58325H14.5917C15.0519 4.58325 15.425 4.95635 15.425 5.41659C15.425 5.87682 15.0519 6.24992 14.5917 6.24992H14.5833C14.1231 6.24992 13.75 5.87682 13.75 5.41659Z" fill="black"/>
</g>
<defs>
<clipPath id="clip0_2001_7718">
<rect width="20" height="20" fill="white"/>
</clipPath>
</defs>
</svg>
