<svg width="20" height="20" viewBox="0 0 20 20" fill="none" xmlns="http://www.w3.org/2000/svg">
<path fill-rule="evenodd" clip-rule="evenodd" d="M7.5 3.33333C7.5 2.8731 7.8731 2.5 8.33333 2.5H15.8333C16.2936 2.5 16.6667 2.8731 16.6667 3.33333C16.6667 3.79357 16.2936 4.16667 15.8333 4.16667H8.33333C7.8731 4.16667 7.5 3.79357 7.5 3.33333Z" fill="black"/>
<path fill-rule="evenodd" clip-rule="evenodd" d="M3.33325 16.6666C3.33325 16.2063 3.70635 15.8333 4.16659 15.8333H11.6666C12.1268 15.8333 12.4999 16.2063 12.4999 16.6666C12.4999 17.1268 12.1268 17.4999 11.6666 17.4999H4.16659C3.70635 17.4999 3.33325 17.1268 3.33325 16.6666Z" fill="black"/>
<path fill-rule="evenodd" clip-rule="evenodd" d="M12.7927 2.55304C13.2236 2.71464 13.4419 3.19498 13.2803 3.62592L8.28034 16.9593C8.11874 17.3902 7.63839 17.6085 7.20746 17.4469C6.77653 17.2853 6.55819 16.805 6.71979 16.374L11.7198 3.04071C11.8814 2.60978 12.3617 2.39144 12.7927 2.55304Z" fill="black"/>
</svg>
