<svg width="20" height="20" viewBox="0 0 20 20" fill="none" xmlns="http://www.w3.org/2000/svg">
<path fill-rule="evenodd" clip-rule="evenodd" d="M10 2.49992C6.79357 2.49992 4.16667 5.12682 4.16667 8.33325C4.16667 8.79349 3.79357 9.16659 3.33333 9.16659C2.8731 9.16659 2.5 8.79349 2.5 8.33325C2.5 4.20635 5.8731 0.833252 10 0.833252C14.1269 0.833252 17.5 4.20635 17.5 8.33325C17.5 12.4602 14.1269 15.8333 10 15.8333H3.33333C2.8731 15.8333 2.5 15.4602 2.5 14.9999C2.5 14.5397 2.8731 14.1666 3.33333 14.1666H10C13.2064 14.1666 15.8333 11.5397 15.8333 8.33325C15.8333 5.12682 13.2064 2.49992 10 2.49992Z" fill="black"/>
<path fill-rule="evenodd" clip-rule="evenodd" d="M7.25592 11.0773C7.58136 11.4028 7.58136 11.9304 7.25592 12.2558L4.51184 14.9999L7.25592 17.744C7.58136 18.0694 7.58136 18.5971 7.25592 18.9225C6.93049 19.2479 6.40285 19.2479 6.07741 18.9225L2.74408 15.5892C2.41864 15.2637 2.41864 14.7361 2.74408 14.4107L6.07741 11.0773C6.40285 10.7519 6.93049 10.7519 7.25592 11.0773Z" fill="black"/>
</svg>
