<svg width="20" height="20" viewBox="0 0 20 20" fill="none" xmlns="http://www.w3.org/2000/svg">
<path fill-rule="evenodd" clip-rule="evenodd" d="M2.5 8.33325C2.5 4.20635 5.8731 0.833252 10 0.833252C14.1269 0.833252 17.5 4.20635 17.5 8.33325C17.5 8.79349 17.1269 9.16659 16.6667 9.16659C16.2064 9.16659 15.8333 8.79349 15.8333 8.33325C15.8333 5.12682 13.2064 2.49992 10 2.49992C6.79357 2.49992 4.16667 5.12682 4.16667 8.33325C4.16667 11.5397 6.79357 14.1666 10 14.1666H16.6667C17.1269 14.1666 17.5 14.5397 17.5 14.9999C17.5 15.4602 17.1269 15.8333 16.6667 15.8333H10C5.8731 15.8333 2.5 12.4602 2.5 8.33325Z" fill="black"/>
<path fill-rule="evenodd" clip-rule="evenodd" d="M12.7441 11.0773C13.0695 10.7519 13.5972 10.7519 13.9226 11.0773L17.2559 14.4107C17.5814 14.7361 17.5814 15.2637 17.2559 15.5892L13.9226 18.9225C13.5972 19.2479 13.0695 19.2479 12.7441 18.9225C12.4186 18.5971 12.4186 18.0694 12.7441 17.744L15.4882 14.9999L12.7441 12.2558C12.4186 11.9304 12.4186 11.4028 12.7441 11.0773Z" fill="black"/>
</svg>
