<svg width="20" height="20" viewBox="0 0 20 20" fill="none" xmlns="http://www.w3.org/2000/svg">
<path fill-rule="evenodd" clip-rule="evenodd" d="M4.43485 1.88775C4.77304 1.57558 5.30025 1.59667 5.61242 1.93485L10.0001 6.68815L14.3877 1.93485C14.6999 1.59667 15.2271 1.57558 15.5653 1.88775C15.9035 2.19992 15.9246 2.72714 15.6124 3.06532L10.8334 8.24257V17.5001C10.8334 17.9603 10.4603 18.3334 10.0001 18.3334C9.53985 18.3334 9.16675 17.9603 9.16675 17.5001V8.24257L4.38775 3.06532C4.07558 2.72714 4.09667 2.19992 4.43485 1.88775Z" fill="black"/>
<path fill-rule="evenodd" clip-rule="evenodd" d="M4.16675 12.5001C4.16675 12.0398 4.53984 11.6667 5.00008 11.6667H15.0001C15.4603 11.6667 15.8334 12.0398 15.8334 12.5001C15.8334 12.9603 15.4603 13.3334 15.0001 13.3334H5.00008C4.53984 13.3334 4.16675 12.9603 4.16675 12.5001Z" fill="black"/>
<path fill-rule="evenodd" clip-rule="evenodd" d="M4.16675 9.16659C4.16675 8.70635 4.53984 8.33325 5.00008 8.33325H15.0001C15.4603 8.33325 15.8334 8.70635 15.8334 9.16659C15.8334 9.62682 15.4603 9.99992 15.0001 9.99992H5.00008C4.53984 9.99992 4.16675 9.62682 4.16675 9.16659Z" fill="black"/>
</svg>
