<svg width="20" height="20" viewBox="0 0 20 20" fill="none" xmlns="http://www.w3.org/2000/svg">
<path fill-rule="evenodd" clip-rule="evenodd" d="M2.39898 12.399C2.86782 11.9301 3.50371 11.6667 4.16675 11.6667H15.8334C16.4965 11.6667 17.1323 11.9301 17.6012 12.399C18.07 12.8678 18.3334 13.5037 18.3334 14.1667V15.8334C18.3334 16.4965 18.07 17.1323 17.6012 17.6012C17.1323 18.07 16.4965 18.3334 15.8334 18.3334H4.16675C3.50371 18.3334 2.86782 18.07 2.39898 17.6012C1.93014 17.1323 1.66675 16.4965 1.66675 15.8334V14.1667C1.66675 13.5037 1.93014 12.8678 2.39898 12.399ZM4.16675 13.3334C3.94573 13.3334 3.73377 13.4212 3.57749 13.5775C3.42121 13.7338 3.33341 13.9457 3.33341 14.1667V15.8334C3.33341 16.0544 3.42121 16.2664 3.57749 16.4227C3.73377 16.579 3.94573 16.6667 4.16675 16.6667H15.8334C16.0544 16.6667 16.2664 16.579 16.4227 16.4227C16.5789 16.2664 16.6667 16.0544 16.6667 15.8334V14.1667C16.6667 13.9457 16.5789 13.7338 16.4227 13.5775C16.2664 13.4212 16.0544 13.3334 15.8334 13.3334H4.16675Z" fill="black"/>
<path fill-rule="evenodd" clip-rule="evenodd" d="M5.00008 10C5.46032 10 5.83341 10.3731 5.83341 10.8333V12.5C5.83341 12.9602 5.46032 13.3333 5.00008 13.3333C4.53984 13.3333 4.16675 12.9602 4.16675 12.5V10.8333C4.16675 10.3731 4.53984 10 5.00008 10Z" fill="black"/>
<path fill-rule="evenodd" clip-rule="evenodd" d="M10.0001 6.66675C10.4603 6.66675 10.8334 7.03984 10.8334 7.50008V12.5001C10.8334 12.9603 10.4603 13.3334 10.0001 13.3334C9.53984 13.3334 9.16675 12.9603 9.16675 12.5001V7.50008C9.16675 7.03984 9.53984 6.66675 10.0001 6.66675Z" fill="black"/>
<path fill-rule="evenodd" clip-rule="evenodd" d="M10.0001 3.33341C9.07961 3.33341 8.33341 4.07961 8.33341 5.00008C8.33341 5.92056 9.07961 6.66675 10.0001 6.66675C10.9206 6.66675 11.6667 5.92056 11.6667 5.00008C11.6667 4.07961 10.9206 3.33341 10.0001 3.33341ZM6.66675 5.00008C6.66675 3.15913 8.15913 1.66675 10.0001 1.66675C11.841 1.66675 13.3334 3.15913 13.3334 5.00008C13.3334 6.84103 11.841 8.33341 10.0001 8.33341C8.15913 8.33341 6.66675 6.84103 6.66675 5.00008Z" fill="black"/>
</svg>
