<svg width="20" height="20" viewBox="0 0 20 20" fill="none" xmlns="http://www.w3.org/2000/svg">
<path fill-rule="evenodd" clip-rule="evenodd" d="M5.00008 3.33325C5.46032 3.33325 5.83341 3.70635 5.83341 4.16659V13.3333C5.83341 13.7935 5.46032 14.1666 5.00008 14.1666C4.53984 14.1666 4.16675 13.7935 4.16675 13.3333V4.16659C4.16675 3.70635 4.53984 3.33325 5.00008 3.33325Z" fill="black"/>
<path fill-rule="evenodd" clip-rule="evenodd" d="M10.0001 3.33325C10.4603 3.33325 10.8334 3.70635 10.8334 4.16659V9.16658C10.8334 9.62682 10.4603 9.99992 10.0001 9.99992C9.53984 9.99992 9.16675 9.62682 9.16675 9.16658V4.16659C9.16675 3.70635 9.53984 3.33325 10.0001 3.33325Z" fill="black"/>
<path fill-rule="evenodd" clip-rule="evenodd" d="M15.0001 3.33325C15.4603 3.33325 15.8334 3.70635 15.8334 4.16659V15.8333C15.8334 16.2935 15.4603 16.6666 15.0001 16.6666C14.5398 16.6666 14.1667 16.2935 14.1667 15.8333V4.16659C14.1667 3.70635 14.5398 3.33325 15.0001 3.33325Z" fill="black"/>
</svg>
