<svg width="20" height="20" viewBox="0 0 20 20" fill="none" xmlns="http://www.w3.org/2000/svg">
<g clip-path="url(#clip0_2001_7749)">
<path fill-rule="evenodd" clip-rule="evenodd" d="M10.9101 2.85173L7.85174 5.91007C7.6432 6.13992 7.52751 6.4393 7.52751 6.74998C7.52751 7.06066 7.6432 7.36004 7.85173 7.58989L12.4101 12.1482C12.6399 12.3568 12.9393 12.4725 13.25 12.4725C13.5607 12.4725 13.86 12.3568 14.0899 12.1482L17.1482 9.0899C17.3568 8.86004 17.4725 8.56067 17.4725 8.24998C17.4725 7.9393 17.3568 7.63992 17.1482 7.41006L12.5899 2.85173C12.36 2.6432 12.0607 2.52751 11.75 2.52751C11.4393 2.52751 11.1399 2.6432 10.9101 2.85173ZM9.76665 1.63897C10.306 1.13878 11.0144 0.86084 11.75 0.86084C12.4856 0.86084 13.194 1.13878 13.7333 1.63897C13.741 1.64608 13.7485 1.65333 13.7559 1.66073L18.3392 6.24406C18.3466 6.25145 18.3539 6.25898 18.361 6.26665C18.8612 6.80598 19.1391 7.5144 19.1391 8.24998C19.1391 8.98556 18.8612 9.69398 18.361 10.2333C18.3539 10.241 18.3466 10.2485 18.3392 10.2559L15.2559 13.3392C15.2485 13.3466 15.241 13.3539 15.2333 13.361C14.694 13.8612 13.9856 14.1391 13.25 14.1391C12.5144 14.1391 11.806 13.8612 11.2666 13.361C11.259 13.3539 11.2515 13.3466 11.2441 13.3392L6.66073 8.7559C6.65333 8.74851 6.64608 8.74098 6.63897 8.73331C6.13878 8.19398 5.86084 7.48556 5.86084 6.74998C5.86084 6.0144 6.13878 5.30598 6.63897 4.76665C6.64608 4.75898 6.65333 4.75145 6.66073 4.74406L9.74406 1.66073C9.75145 1.65333 9.75898 1.64608 9.76665 1.63897Z" fill="black"/>
<path fill-rule="evenodd" clip-rule="evenodd" d="M11.0773 5.24408C11.4028 4.91864 11.9304 4.91864 12.2558 5.24408L14.7558 7.74408C15.0813 8.06951 15.0813 8.59715 14.7558 8.92259C14.4304 9.24803 13.9028 9.24803 13.5773 8.92259L11.0773 6.42259C10.7519 6.09715 10.7519 5.56951 11.0773 5.24408Z" fill="black"/>
<path fill-rule="evenodd" clip-rule="evenodd" d="M8.42251 8.24408C8.74794 8.56951 8.74794 9.09715 8.42251 9.42259L2.74417 15.1009L2.15401 14.5108L2.74409 15.101C2.58784 15.2572 2.50001 15.4691 2.49992 15.69C2.49992 15.6901 2.49992 15.6901 2.49992 15.6902V17.5H4.99992V16.6667C4.99992 16.2246 5.17551 15.8007 5.48807 15.4882C5.80064 15.1756 6.22456 15 6.66658 15H7.49992V14.1667C7.49992 13.7246 7.67551 13.3007 7.98807 12.9882C8.30064 12.6756 8.72456 12.5 9.16658 12.5H9.30974C9.3098 12.5 9.30986 12.5 9.30992 12.5C9.53085 12.4999 9.7427 12.4121 9.89891 12.2558L10.4874 12.8442L9.899 12.2557L10.5773 11.5774C10.9028 11.252 11.4304 11.252 11.7558 11.5774C12.0813 11.9028 12.0813 12.4305 11.7558 12.7559L11.0776 13.4342C10.6089 13.903 9.97308 14.1665 9.3101 14.1667L9.16658 14.1667V15C9.16658 15.442 8.99099 15.866 8.67843 16.1785C8.36587 16.4911 7.94194 16.6667 7.49992 16.6667L6.66658 16.6667V17.5C6.66658 17.942 6.49099 18.3659 6.17843 18.6785C5.86587 18.9911 5.44194 19.1667 4.99992 19.1667H2.49992C2.05789 19.1667 1.63397 18.9911 1.32141 18.6785C1.00885 18.3659 0.833252 17.942 0.833252 17.5V15.6898C0.833394 15.0269 1.09685 14.3911 1.56566 13.9224C1.56569 13.9224 1.56572 13.9224 1.56575 13.9223L7.244 8.24408C7.56943 7.91864 8.09707 7.91864 8.42251 8.24408Z" fill="black"/>
</g>
<defs>
<clipPath id="clip0_2001_7749">
<rect width="20" height="20" fill="white"/>
</clipPath>
</defs>
</svg>
