<svg width="20" height="20" viewBox="0 0 20 20" fill="none" xmlns="http://www.w3.org/2000/svg">
<g clip-path="url(#clip0_2001_7745)">
<path fill-rule="evenodd" clip-rule="evenodd" d="M9.62695 1.75717C10.8257 1.00511 12.2442 0.68213 13.6504 0.841067C15.0566 1 16.3672 1.63145 17.3679 2.63211C18.3685 3.63276 19 4.94339 19.1589 6.34958C19.3178 7.75576 18.9949 9.17426 18.2428 10.373C17.4907 11.5718 16.3541 12.4798 15.0189 12.9486C13.8523 13.3582 12.5945 13.4113 11.4041 13.1077L11.0776 13.4342C11.0776 13.4342 11.0775 13.4343 11.0775 13.4343C10.6088 13.9031 9.97304 14.1666 9.3101 14.1667H9.16658V15.0001C9.16658 15.4421 8.99099 15.866 8.67843 16.1786C8.36587 16.4911 7.94194 16.6667 7.49992 16.6667H6.66658V17.5001C6.66658 17.9421 6.49099 18.366 6.17843 18.6786C5.86587 18.9911 5.44194 19.1667 4.99992 19.1667H2.49992C2.05789 19.1667 1.63397 18.9911 1.32141 18.6786C1.00885 18.366 0.833252 17.9421 0.833252 17.5001V15.6899C0.833394 15.0269 1.09688 14.3911 1.56575 13.9224L6.89225 8.59588C6.58868 7.40549 6.64177 6.14766 7.05134 4.9811C7.52014 3.64586 8.42819 2.50924 9.62695 1.75717ZM2.15654 14.5133L2.74409 15.1011C2.58784 15.2573 2.50001 15.4691 2.49992 15.6901C2.49992 15.6901 2.49992 15.6902 2.49992 15.6902V17.5001H4.99992V16.6667C4.99992 16.2247 5.17551 15.8008 5.48807 15.4882C5.80064 15.1756 6.22456 15.0001 6.66658 15.0001H7.49992V14.1667C7.49992 13.7247 7.67551 13.3008 7.98807 12.9882C8.30064 12.6756 8.72456 12.5001 9.16658 12.5001H9.30974C9.3098 12.5001 9.30986 12.5001 9.30992 12.5001C9.53085 12.5 9.7427 12.4121 9.89891 12.2559L10.4857 12.8425L9.899 12.2558L10.5773 11.5775C10.8034 11.3514 11.1388 11.2746 11.4407 11.3798C12.4207 11.7212 13.4876 11.7198 14.4668 11.3761C15.4459 11.0323 16.2795 10.3664 16.831 9.48729C17.3825 8.6082 17.6193 7.56797 17.5028 6.53676C17.3862 5.50556 16.9232 4.54443 16.1894 3.81062C15.4555 3.0768 14.4944 2.61374 13.4632 2.49719C12.432 2.38063 11.3918 2.61749 10.5127 3.169C9.63359 3.72051 8.96769 4.55404 8.62391 5.53321C8.28013 6.51238 8.27882 7.57924 8.6202 8.55925C8.72537 8.86115 8.64856 9.19659 8.42251 9.42264L2.74417 15.101L2.15654 14.5133Z" fill="black"/>
<path d="M13.7499 6.66659C13.98 6.66659 14.1666 6.48004 14.1666 6.24992C14.1666 6.0198 13.98 5.83325 13.7499 5.83325C13.5198 5.83325 13.3333 6.0198 13.3333 6.24992C13.3333 6.48004 13.5198 6.66659 13.7499 6.66659Z" fill="black"/>
<path fill-rule="evenodd" clip-rule="evenodd" d="M13.75 6.66667C13.9801 6.66667 14.1667 6.48012 14.1667 6.25C14.1667 6.01988 13.9801 5.83333 13.75 5.83333C13.5199 5.83333 13.3333 6.01988 13.3333 6.25C13.3333 6.48012 13.5199 6.66667 13.75 6.66667ZM12.5 6.25C12.5 5.55964 13.0596 5 13.75 5C14.4404 5 15 5.55964 15 6.25C15 6.94036 14.4404 7.5 13.75 7.5C13.0596 7.5 12.5 6.94036 12.5 6.25Z" fill="black"/>
</g>
<defs>
<clipPath id="clip0_2001_7745">
<rect width="20" height="20" fill="white"/>
</clipPath>
</defs>
</svg>
