<svg width="20" height="20" viewBox="0 0 20 20" fill="none" xmlns="http://www.w3.org/2000/svg">
<path fill-rule="evenodd" clip-rule="evenodd" d="M15.244 2.74408C15.5694 2.41864 16.0971 2.41864 16.4225 2.74408L18.3392 4.66074C18.3403 4.66185 18.3414 4.66296 18.3425 4.66408C18.3433 4.66494 18.3442 4.6658 18.345 4.66667C18.6504 4.97821 18.8215 5.39708 18.8215 5.83333C18.8215 6.26959 18.6504 6.68845 18.345 7C18.3441 7.00095 18.3432 7.0019 18.3422 7.00284C18.3412 7.00387 18.3402 7.0049 18.3392 7.00592L16.5892 8.75592C16.5872 8.75789 16.5852 8.75984 16.5833 8.76179C16.2717 9.06716 15.8528 9.23821 15.4166 9.23821C14.9803 9.23821 14.5615 9.06716 14.2499 8.76179C14.2479 8.75984 14.246 8.75789 14.244 8.75592L12.3273 6.83926C12.0019 6.51382 12.0019 5.98618 12.3273 5.66074C12.6528 5.33531 13.1804 5.33531 13.5058 5.66074L15.4166 7.57149L17.1547 5.83333L15.244 3.92259C14.9186 3.59715 14.9186 3.06951 15.244 2.74408Z" fill="black"/>
<path fill-rule="evenodd" clip-rule="evenodd" d="M18.0893 1.07733C18.4148 1.40277 18.4148 1.9304 18.0893 2.25584L10.0893 10.2558C9.7639 10.5813 9.23626 10.5813 8.91083 10.2558C8.58539 9.9304 8.58539 9.40277 8.91083 9.07733L16.9108 1.07733C17.2363 0.751893 17.7639 0.751893 18.0893 1.07733Z" fill="black"/>
<path fill-rule="evenodd" clip-rule="evenodd" d="M6.24992 9.16667C4.17885 9.16667 2.49992 10.8456 2.49992 12.9167C2.49992 14.9877 4.17885 16.6667 6.24992 16.6667C8.32099 16.6667 9.99992 14.9877 9.99992 12.9167C9.99992 10.8456 8.32099 9.16667 6.24992 9.16667ZM0.833252 12.9167C0.833252 9.92512 3.25838 7.5 6.24992 7.5C9.24146 7.5 11.6666 9.92512 11.6666 12.9167C11.6666 15.9082 9.24146 18.3333 6.24992 18.3333C3.25838 18.3333 0.833252 15.9082 0.833252 12.9167Z" fill="black"/>
</svg>
