<svg width="20" height="20" viewBox="0 0 20 20" fill="none" xmlns="http://www.w3.org/2000/svg">
<path fill-rule="evenodd" clip-rule="evenodd" d="M3.33325 4.16667C2.87301 4.16667 2.49992 4.53976 2.49992 5V15C2.49992 15.4602 2.87301 15.8333 3.33325 15.8333H16.6666C17.1268 15.8333 17.4999 15.4602 17.4999 15V5C17.4999 4.53976 17.1268 4.16667 16.6666 4.16667H3.33325ZM0.833252 5C0.833252 3.61929 1.95254 2.5 3.33325 2.5H16.6666C18.0473 2.5 19.1666 3.61929 19.1666 5V15C19.1666 16.3807 18.0473 17.5 16.6666 17.5H3.33325C1.95254 17.5 0.833252 16.3807 0.833252 15V5Z" fill="black"/>
<path fill-rule="evenodd" clip-rule="evenodd" d="M4.16675 6.66659C4.16675 6.20635 4.53984 5.83325 5.00008 5.83325H8.33342C8.79365 5.83325 9.16675 6.20635 9.16675 6.66659C9.16675 7.12682 8.79365 7.49992 8.33342 7.49992H5.00008C4.53984 7.49992 4.16675 7.12682 4.16675 6.66659Z" fill="black"/>
<path fill-rule="evenodd" clip-rule="evenodd" d="M10.8333 6.66659C10.8333 6.20635 11.2063 5.83325 11.6666 5.83325H11.6749C12.1352 5.83325 12.5083 6.20635 12.5083 6.66659C12.5083 7.12682 12.1352 7.49992 11.6749 7.49992H11.6666C11.2063 7.49992 10.8333 7.12682 10.8333 6.66659Z" fill="black"/>
<path fill-rule="evenodd" clip-rule="evenodd" d="M14.1667 6.66659C14.1667 6.20635 14.5398 5.83325 15.0001 5.83325H15.0084C15.4687 5.83325 15.8417 6.20635 15.8417 6.66659C15.8417 7.12682 15.4687 7.49992 15.0084 7.49992H15.0001C14.5398 7.49992 14.1667 7.12682 14.1667 6.66659Z" fill="black"/>
<path fill-rule="evenodd" clip-rule="evenodd" d="M0.833252 10.0001C0.833252 9.53984 1.20635 9.16675 1.66659 9.16675H18.3333C18.7935 9.16675 19.1666 9.53984 19.1666 10.0001C19.1666 10.4603 18.7935 10.8334 18.3333 10.8334H1.66659C1.20635 10.8334 0.833252 10.4603 0.833252 10.0001Z" fill="black"/>
<path fill-rule="evenodd" clip-rule="evenodd" d="M5.00008 9.16675C5.46032 9.16675 5.83341 9.53984 5.83341 10.0001V13.3334C5.83341 13.7937 5.46032 14.1667 5.00008 14.1667C4.53984 14.1667 4.16675 13.7937 4.16675 13.3334V10.0001C4.16675 9.53984 4.53984 9.16675 5.00008 9.16675Z" fill="black"/>
<path fill-rule="evenodd" clip-rule="evenodd" d="M8.33333 9.16675C8.79357 9.16675 9.16667 9.53984 9.16667 10.0001V13.3334C9.16667 13.7937 8.79357 14.1667 8.33333 14.1667C7.8731 14.1667 7.5 13.7937 7.5 13.3334V10.0001C7.5 9.53984 7.8731 9.16675 8.33333 9.16675Z" fill="black"/>
<path fill-rule="evenodd" clip-rule="evenodd" d="M11.6666 9.16675C12.1268 9.16675 12.4999 9.53984 12.4999 10.0001V13.3334C12.4999 13.7937 12.1268 14.1667 11.6666 14.1667C11.2063 14.1667 10.8333 13.7937 10.8333 13.3334V10.0001C10.8333 9.53984 11.2063 9.16675 11.6666 9.16675Z" fill="black"/>
<path fill-rule="evenodd" clip-rule="evenodd" d="M15.0001 9.16675C15.4603 9.16675 15.8334 9.53984 15.8334 10.0001V13.3334C15.8334 13.7937 15.4603 14.1667 15.0001 14.1667C14.5398 14.1667 14.1667 13.7937 14.1667 13.3334V10.0001C14.1667 9.53984 14.5398 9.16675 15.0001 9.16675Z" fill="black"/>
</svg>
