<svg width="20" height="20" viewBox="0 0 20 20" fill="none" xmlns="http://www.w3.org/2000/svg">
<g clip-path="url(#clip0_2001_7767)">
<path fill-rule="evenodd" clip-rule="evenodd" d="M15.8333 3.33333C15.8333 2.8731 16.2063 2.5 16.6666 2.5C17.3296 2.5 17.9655 2.76339 18.4344 3.23223C18.9032 3.70107 19.1666 4.33696 19.1666 5C19.1666 5.46024 18.7935 5.83333 18.3333 5.83333C17.873 5.83333 17.4999 5.46024 17.4999 5C17.4999 4.77899 17.4121 4.56702 17.2558 4.41074C17.0996 4.25446 16.8876 4.16667 16.6666 4.16667C16.2063 4.16667 15.8333 3.79357 15.8333 3.33333Z" fill="black"/>
<path fill-rule="evenodd" clip-rule="evenodd" d="M18.3333 4.16675C18.7936 4.16675 19.1667 4.53984 19.1667 5.00008V13.6751C19.1667 14.1353 18.7936 14.5084 18.3333 14.5084C17.8731 14.5084 17.5 14.1353 17.5 13.6751V5.00008C17.5 4.53984 17.8731 4.16675 18.3333 4.16675Z" fill="black"/>
<path fill-rule="evenodd" clip-rule="evenodd" d="M5 13.3333C5 12.8731 5.3731 12.5 5.83333 12.5H13.3333C13.7936 12.5 14.1667 12.8731 14.1667 13.3333C14.1667 13.7936 13.7936 14.1667 13.3333 14.1667H5.83333C5.3731 14.1667 5 13.7936 5 13.3333Z" fill="black"/>
<path fill-rule="evenodd" clip-rule="evenodd" d="M7.2417 3.33333C7.2417 2.8731 7.6148 2.5 8.07503 2.5H16.6667C17.1269 2.5 17.5 2.8731 17.5 3.33333C17.5 3.79357 17.1269 4.16667 16.6667 4.16667H8.07503C7.6148 4.16667 7.2417 3.79357 7.2417 3.33333Z" fill="black"/>
<path fill-rule="evenodd" clip-rule="evenodd" d="M10.8333 6.66659C10.8333 6.20635 11.2063 5.83325 11.6666 5.83325H11.6749C12.1352 5.83325 12.5083 6.20635 12.5083 6.66659C12.5083 7.12682 12.1352 7.49992 11.6749 7.49992H11.6666C11.2063 7.49992 10.8333 7.12682 10.8333 6.66659Z" fill="black"/>
<path fill-rule="evenodd" clip-rule="evenodd" d="M14.1667 6.66659C14.1667 6.20635 14.5398 5.83325 15.0001 5.83325H15.0084C15.4687 5.83325 15.8417 6.20635 15.8417 6.66659C15.8417 7.12682 15.4687 7.49992 15.0084 7.49992H15.0001C14.5398 7.49992 14.1667 7.12682 14.1667 6.66659Z" fill="black"/>
<path fill-rule="evenodd" clip-rule="evenodd" d="M1.07733 1.07733C1.40277 0.751893 1.9304 0.751893 2.25584 1.07733L18.9225 17.744C19.2479 18.0694 19.2479 18.5971 18.9225 18.9225C18.5971 19.2479 18.0694 19.2479 17.744 18.9225L1.07733 2.25584C0.751893 1.9304 0.751893 1.40277 1.07733 1.07733Z" fill="black"/>
<path fill-rule="evenodd" clip-rule="evenodd" d="M3.33325 4.16667C3.11224 4.16667 2.90028 4.25446 2.744 4.41074C2.58772 4.56702 2.49992 4.77899 2.49992 5V15C2.49992 15.221 2.58772 15.433 2.744 15.5893C2.90028 15.7455 3.11224 15.8333 3.33325 15.8333H16.6666C17.1268 15.8333 17.4999 16.2064 17.4999 16.6667C17.4999 17.1269 17.1268 17.5 16.6666 17.5H3.33325C2.67021 17.5 2.03433 17.2366 1.56548 16.7678C1.09664 16.2989 0.833252 15.663 0.833252 15V5C0.833252 4.33696 1.09664 3.70107 1.56548 3.23223C2.03433 2.76339 2.67021 2.5 3.33325 2.5C3.79349 2.5 4.16658 2.8731 4.16658 3.33333C4.16658 3.79357 3.79349 4.16667 3.33325 4.16667Z" fill="black"/>
<path fill-rule="evenodd" clip-rule="evenodd" d="M4.16675 6.66659C4.16675 6.20635 4.53984 5.83325 5.00008 5.83325H5.00841C5.46865 5.83325 5.84175 6.20635 5.84175 6.66659C5.84175 7.12682 5.46865 7.49992 5.00841 7.49992H5.00008C4.53984 7.49992 4.16675 7.12682 4.16675 6.66659Z" fill="black"/>
<path fill-rule="evenodd" clip-rule="evenodd" d="M5.83325 10.0001C5.83325 9.53984 6.20635 9.16675 6.66659 9.16675H6.67492C7.13516 9.16675 7.50825 9.53984 7.50825 10.0001C7.50825 10.4603 7.13516 10.8334 6.67492 10.8334H6.66659C6.20635 10.8334 5.83325 10.4603 5.83325 10.0001Z" fill="black"/>
</g>
<defs>
<clipPath id="clip0_2001_7767">
<rect width="20" height="20" fill="white"/>
</clipPath>
</defs>
</svg>
