<svg width="20" height="20" viewBox="0 0 20 20" fill="none" xmlns="http://www.w3.org/2000/svg">
<path fill-rule="evenodd" clip-rule="evenodd" d="M7.5 6.66659C7.5 6.20635 7.8731 5.83325 8.33333 5.83325H8.34167C8.8019 5.83325 9.175 6.20635 9.175 6.66659C9.175 7.12682 8.8019 7.49992 8.34167 7.49992H8.33333C7.8731 7.49992 7.5 7.12682 7.5 6.66659Z" fill="black"/>
<path fill-rule="evenodd" clip-rule="evenodd" d="M9.16675 10.0001C9.16675 9.53984 9.53984 9.16675 10.0001 9.16675H10.0084C10.4687 9.16675 10.8417 9.53984 10.8417 10.0001C10.8417 10.4603 10.4687 10.8334 10.0084 10.8334H10.0001C9.53984 10.8334 9.16675 10.4603 9.16675 10.0001Z" fill="black"/>
<path fill-rule="evenodd" clip-rule="evenodd" d="M10.8333 6.66659C10.8333 6.20635 11.2063 5.83325 11.6666 5.83325H11.6749C12.1352 5.83325 12.5083 6.20635 12.5083 6.66659C12.5083 7.12682 12.1352 7.49992 11.6749 7.49992H11.6666C11.2063 7.49992 10.8333 7.12682 10.8333 6.66659Z" fill="black"/>
<path fill-rule="evenodd" clip-rule="evenodd" d="M12.5 10.0001C12.5 9.53984 12.8731 9.16675 13.3333 9.16675H13.3417C13.8019 9.16675 14.175 9.53984 14.175 10.0001C14.175 10.4603 13.8019 10.8334 13.3417 10.8334H13.3333C12.8731 10.8334 12.5 10.4603 12.5 10.0001Z" fill="black"/>
<path fill-rule="evenodd" clip-rule="evenodd" d="M14.1667 6.66659C14.1667 6.20635 14.5398 5.83325 15.0001 5.83325H15.0084C15.4687 5.83325 15.8417 6.20635 15.8417 6.66659C15.8417 7.12682 15.4687 7.49992 15.0084 7.49992H15.0001C14.5398 7.49992 14.1667 7.12682 14.1667 6.66659Z" fill="black"/>
<path fill-rule="evenodd" clip-rule="evenodd" d="M4.16675 6.66659C4.16675 6.20635 4.53984 5.83325 5.00008 5.83325H5.00841C5.46865 5.83325 5.84175 6.20635 5.84175 6.66659C5.84175 7.12682 5.46865 7.49992 5.00841 7.49992H5.00008C4.53984 7.49992 4.16675 7.12682 4.16675 6.66659Z" fill="black"/>
<path fill-rule="evenodd" clip-rule="evenodd" d="M5 13.3333C5 12.8731 5.3731 12.5 5.83333 12.5H14.1667C14.6269 12.5 15 12.8731 15 13.3333C15 13.7936 14.6269 14.1667 14.1667 14.1667H5.83333C5.3731 14.1667 5 13.7936 5 13.3333Z" fill="black"/>
<path fill-rule="evenodd" clip-rule="evenodd" d="M5.83325 10.0001C5.83325 9.53984 6.20635 9.16675 6.66659 9.16675H6.67492C7.13516 9.16675 7.50825 9.53984 7.50825 10.0001C7.50825 10.4603 7.13516 10.8334 6.67492 10.8334H6.66659C6.20635 10.8334 5.83325 10.4603 5.83325 10.0001Z" fill="black"/>
<path fill-rule="evenodd" clip-rule="evenodd" d="M3.33325 4.16667C2.87301 4.16667 2.49992 4.53976 2.49992 5V15C2.49992 15.4602 2.87301 15.8333 3.33325 15.8333H16.6666C17.1268 15.8333 17.4999 15.4602 17.4999 15V5C17.4999 4.53976 17.1268 4.16667 16.6666 4.16667H3.33325ZM0.833252 5C0.833252 3.61929 1.95254 2.5 3.33325 2.5H16.6666C18.0473 2.5 19.1666 3.61929 19.1666 5V15C19.1666 16.3807 18.0473 17.5 16.6666 17.5H3.33325C1.95254 17.5 0.833252 16.3807 0.833252 15V5Z" fill="black"/>
</svg>
