<svg width="20" height="20" viewBox="0 0 20 20" fill="none" xmlns="http://www.w3.org/2000/svg">
<path fill-rule="evenodd" clip-rule="evenodd" d="M5.89294 1.35709C6.01949 1.04071 6.32592 0.833252 6.66667 0.833252H13.3333C13.6741 0.833252 13.9805 1.04071 14.1071 1.35709L17.4404 9.69043C17.5431 9.94717 17.5118 10.2381 17.3567 10.4671C17.2017 10.6961 16.9432 10.8333 16.6667 10.8333H3.33334C3.05682 10.8333 2.79831 10.6961 2.64328 10.4671C2.48826 10.2381 2.45691 9.94717 2.55961 9.69043L5.89294 1.35709ZM7.23086 2.49992L4.5642 9.16659H15.4358L12.7691 2.49992H7.23086Z" fill="black"/>
<path fill-rule="evenodd" clip-rule="evenodd" d="M10.0001 9.16675C10.4603 9.16675 10.8334 9.53984 10.8334 10.0001V15.0001C10.8334 15.4603 10.4603 15.8334 10.0001 15.8334C9.53984 15.8334 9.16675 15.4603 9.16675 15.0001V10.0001C9.16675 9.53984 9.53984 9.16675 10.0001 9.16675Z" fill="black"/>
<path fill-rule="evenodd" clip-rule="evenodd" d="M8.33325 15.8334C7.87682 15.8334 7.49992 16.2103 7.49992 16.6667V17.5001H12.4999V16.6667C12.4999 16.4457 12.4121 16.2338 12.2558 16.0775C12.0996 15.9212 11.8876 15.8334 11.6666 15.8334H8.33325ZM5.83325 16.6667C5.83325 15.2898 6.95635 14.1667 8.33325 14.1667H11.6666C12.3296 14.1667 12.9655 14.4301 13.4344 14.899C13.9032 15.3678 14.1666 16.0037 14.1666 16.6667V18.3334C14.1666 18.7937 13.7935 19.1667 13.3333 19.1667H6.66659C6.20635 19.1667 5.83325 18.7937 5.83325 18.3334V16.6667Z" fill="black"/>
</svg>
