<svg width="20" height="20" viewBox="0 0 20 20" fill="none" xmlns="http://www.w3.org/2000/svg">
<path fill-rule="evenodd" clip-rule="evenodd" d="M11.0773 3.57735C11.2913 3.36335 11.6045 3.28219 11.8955 3.36534L17.7289 5.032C18.0128 5.11312 18.2326 5.33841 18.3066 5.62424C18.3807 5.91006 18.298 6.21374 18.0892 6.42253L11.4225 13.0892C11.2137 13.298 10.9101 13.3807 10.6242 13.3066C10.3384 13.2326 10.1131 13.0128 10.032 12.7289L8.36534 6.89554C8.28219 6.60455 8.36335 6.29135 8.57735 6.07735L11.0773 3.57735ZM11.9091 5.10258L10.1026 6.90914L11.2455 10.9092L15.9092 6.24547L11.9091 5.10258Z" fill="black"/>
<path fill-rule="evenodd" clip-rule="evenodd" d="M8.57733 1.07733C8.90277 0.751893 9.4304 0.751893 9.75584 1.07733L12.2558 3.57733C12.5813 3.90277 12.5813 4.4304 12.2558 4.75584L9.75584 7.25584C9.4304 7.58128 8.90277 7.58128 8.57733 7.25584L6.07733 4.75584C5.75189 4.4304 5.75189 3.90277 6.07733 3.57733L8.57733 1.07733ZM7.8451 4.16658L9.16658 5.48807L10.4881 4.16658L9.16658 2.8451L7.8451 4.16658Z" fill="black"/>
<path fill-rule="evenodd" clip-rule="evenodd" d="M8.50595 4.82733C8.83138 5.15277 8.83138 5.6804 8.50595 6.00584L4.34732 10.1645L6.57871 14.6272C6.78454 15.0389 6.61768 15.5395 6.20603 15.7453C5.79439 15.9511 5.29382 15.7842 5.088 15.3726L2.588 10.3726C2.42759 10.0518 2.49047 9.6643 2.7441 9.41066L7.32743 4.82733C7.65287 4.50189 8.18051 4.50189 8.50595 4.82733Z" fill="black"/>
<path fill-rule="evenodd" clip-rule="evenodd" d="M4.16675 15.8334C3.71032 15.8334 3.33341 16.2103 3.33341 16.6667V17.5001H8.33341V16.6667C8.33341 16.4457 8.24562 16.2338 8.08934 16.0775C7.93306 15.9212 7.72109 15.8334 7.50008 15.8334H4.16675ZM1.66675 16.6667C1.66675 15.2898 2.78984 14.1667 4.16675 14.1667H7.50008C8.16312 14.1667 8.79901 14.4301 9.26785 14.899C9.73669 15.3678 10.0001 16.0037 10.0001 16.6667V18.3334C10.0001 18.7937 9.62698 19.1667 9.16675 19.1667H2.50008C2.03984 19.1667 1.66675 18.7937 1.66675 18.3334V16.6667Z" fill="black"/>
</svg>
