<svg width="20" height="20" viewBox="0 0 20 20" fill="none" xmlns="http://www.w3.org/2000/svg">
<path fill-rule="evenodd" clip-rule="evenodd" d="M6.73413 1.33832C6.86545 1.03192 7.16673 0.833252 7.50008 0.833252H12.5001C12.8334 0.833252 13.1347 1.03192 13.266 1.33832L15.766 7.17165C15.8764 7.42912 15.85 7.72481 15.6958 7.95866C15.5416 8.19252 15.2802 8.33325 15.0001 8.33325H5.00008C4.71997 8.33325 4.45859 8.19252 4.30438 7.95866C4.15018 7.72481 4.12379 7.42912 4.23413 7.17165L6.73413 1.33832ZM8.04958 2.49992L6.26387 6.66659H13.7363L11.9506 2.49992H8.04958Z" fill="black"/>
<path fill-rule="evenodd" clip-rule="evenodd" d="M10.0001 6.66675C10.4603 6.66675 10.8334 7.03984 10.8334 7.50008V18.3334C10.8334 18.7937 10.4603 19.1667 10.0001 19.1667C9.53984 19.1667 9.16675 18.7937 9.16675 18.3334V7.50008C9.16675 7.03984 9.53984 6.66675 10.0001 6.66675Z" fill="black"/>
<path fill-rule="evenodd" clip-rule="evenodd" d="M6.66675 18.3333C6.66675 17.8731 7.03984 17.5 7.50008 17.5H12.5001C12.9603 17.5 13.3334 17.8731 13.3334 18.3333C13.3334 18.7936 12.9603 19.1667 12.5001 19.1667H7.50008C7.03984 19.1667 6.66675 18.7936 6.66675 18.3333Z" fill="black"/>
</svg>
