<svg width="20" height="20" viewBox="0 0 20 20" fill="none" xmlns="http://www.w3.org/2000/svg">
<path fill-rule="evenodd" clip-rule="evenodd" d="M8.40063 10.5051C8.53195 10.1987 8.83323 10 9.16659 10H14.1666C14.4999 10 14.8012 10.1987 14.9325 10.5051L17.4325 16.3384C17.5429 16.5959 17.5165 16.8916 17.3623 17.1254C17.2081 17.3593 16.9467 17.5 16.6666 17.5H6.66659C6.38647 17.5 6.12509 17.3593 5.97089 17.1254C5.81668 16.8916 5.79029 16.5959 5.90063 16.3384L8.40063 10.5051ZM9.71608 11.6667L7.93037 15.8333H15.4028L13.6171 11.6667H9.71608Z" fill="black"/>
<path fill-rule="evenodd" clip-rule="evenodd" d="M5.83325 5.00008C5.83325 4.53984 6.20635 4.16675 6.66659 4.16675H9.99992C10.663 4.16675 11.2988 4.43014 11.7677 4.89898C12.2365 5.36782 12.4999 6.00371 12.4999 6.66675V10.8334C12.4999 11.2937 12.1268 11.6667 11.6666 11.6667C11.2063 11.6667 10.8333 11.2937 10.8333 10.8334V6.66675C10.8333 6.44573 10.7455 6.23377 10.5892 6.07749C10.4329 5.92121 10.2209 5.83341 9.99992 5.83341H6.66659C6.20635 5.83341 5.83325 5.46032 5.83325 5.00008Z" fill="black"/>
<path fill-rule="evenodd" clip-rule="evenodd" d="M2.5 2.50008C2.5 2.03984 2.8731 1.66675 3.33333 1.66675H5C5.66304 1.66675 6.29893 1.93014 6.76777 2.39898C7.23661 2.86782 7.5 3.50371 7.5 4.16675V5.83341C7.5 6.49646 7.23661 7.13234 6.76777 7.60118C6.29893 8.07002 5.66304 8.33341 5 8.33341H3.33333C2.8731 8.33341 2.5 7.96032 2.5 7.50008V2.50008ZM4.16667 3.33341V6.66675H5C5.22101 6.66675 5.43298 6.57895 5.58926 6.42267C5.74554 6.26639 5.83333 6.05443 5.83333 5.83341V4.16675C5.83333 3.94573 5.74554 3.73377 5.58926 3.57749C5.43298 3.42121 5.22101 3.33341 5 3.33341H4.16667Z" fill="black"/>
</svg>
