<svg width="20" height="20" viewBox="0 0 20 20" fill="none" xmlns="http://www.w3.org/2000/svg">
<path fill-rule="evenodd" clip-rule="evenodd" d="M8.40063 3.00507C8.53195 2.69866 8.83323 2.5 9.16659 2.5H14.1666C14.4999 2.5 14.8012 2.69866 14.9325 3.00507L17.4325 8.8384C17.5429 9.09587 17.5165 9.39155 17.3623 9.62541C17.2081 9.85926 16.9467 10 16.6666 10H6.66659C6.38647 10 6.12509 9.85926 5.97089 9.62541C5.81668 9.39155 5.79029 9.09587 5.90063 8.8384L8.40063 3.00507ZM9.71608 4.16667L7.93037 8.33333H15.4028L13.6171 4.16667H9.71608Z" fill="black"/>
<path fill-rule="evenodd" clip-rule="evenodd" d="M11.6666 8.33325C12.1268 8.33325 12.4999 8.70635 12.4999 9.16659V13.3333C12.4999 13.9963 12.2365 14.6322 11.7677 15.101C11.2988 15.5699 10.663 15.8333 9.99992 15.8333H6.66659C6.20635 15.8333 5.83325 15.4602 5.83325 14.9999C5.83325 14.5397 6.20635 14.1666 6.66659 14.1666H9.99992C10.2209 14.1666 10.4329 14.0788 10.5892 13.9225C10.7455 13.7662 10.8333 13.5543 10.8333 13.3333V9.16659C10.8333 8.70635 11.2063 8.33325 11.6666 8.33325Z" fill="black"/>
<path fill-rule="evenodd" clip-rule="evenodd" d="M2.5 12.5001C2.5 12.0398 2.8731 11.6667 3.33333 11.6667H5C5.66304 11.6667 6.29893 11.9301 6.76777 12.399C7.23661 12.8678 7.5 13.5037 7.5 14.1667V15.8334C7.5 16.4965 7.23661 17.1323 6.76777 17.6012C6.29893 18.07 5.66304 18.3334 5 18.3334H3.33333C2.8731 18.3334 2.5 17.9603 2.5 17.5001V12.5001ZM4.16667 13.3334V16.6667H5C5.22101 16.6667 5.43298 16.579 5.58926 16.4227C5.74554 16.2664 5.83333 16.0544 5.83333 15.8334V14.1667C5.83333 13.9457 5.74554 13.7338 5.58926 13.5775C5.43298 13.4212 5.22101 13.3334 5 13.3334H4.16667Z" fill="black"/>
</svg>
