<svg width="20" height="20" viewBox="0 0 20 20" fill="none" xmlns="http://www.w3.org/2000/svg">
<path fill-rule="evenodd" clip-rule="evenodd" d="M10.0001 0.833252C10.4603 0.833252 10.8334 1.20635 10.8334 1.66659V5.83325C10.8334 6.29349 10.4603 6.66659 10.0001 6.66659C9.53984 6.66659 9.16675 6.29349 9.16675 5.83325V1.66659C9.16675 1.20635 9.53984 0.833252 10.0001 0.833252Z" fill="black"/>
<path fill-rule="evenodd" clip-rule="evenodd" d="M4.23841 5.49488C4.37216 5.19394 4.6706 5 4.99992 5H14.9999C15.3292 5 15.6277 5.19394 15.7614 5.49488L19.0948 12.9949C19.2093 13.2527 19.1857 13.5509 19.032 13.7874C18.8783 14.024 18.6153 14.1667 18.3333 14.1667H1.66659C1.3845 14.1667 1.12156 14.024 0.967844 13.7874C0.81413 13.5509 0.790511 13.2527 0.905078 12.9949L4.23841 5.49488ZM5.54148 6.66667L2.94889 12.5H17.051L14.4584 6.66667H5.54148Z" fill="black"/>
<path fill-rule="evenodd" clip-rule="evenodd" d="M7.91829 12.5472C8.35244 12.6999 8.58059 13.1757 8.42786 13.6099C8.33945 13.8612 8.31258 14.13 8.34949 14.3939C8.3864 14.6577 8.48603 14.9089 8.64001 15.1263C8.794 15.3437 8.99786 15.521 9.2345 15.6434C9.47114 15.7657 9.73367 15.8296 10.0001 15.8296C10.2665 15.8296 10.529 15.7657 10.7657 15.6434C11.0023 15.521 11.2062 15.3437 11.3602 15.1263C11.5141 14.9089 11.6138 14.6577 11.6507 14.3939C11.6876 14.13 11.6607 13.8612 11.5723 13.6099C11.4196 13.1757 11.6477 12.6999 12.0819 12.5472C12.516 12.3945 12.9918 12.6226 13.1445 13.0568C13.3213 13.5594 13.3751 14.0971 13.3013 14.6248C13.2274 15.1525 13.0282 15.6548 12.7202 16.0896C12.4123 16.5244 12.0045 16.879 11.5313 17.1238C11.058 17.3685 10.5329 17.4963 10.0001 17.4963C9.46726 17.4963 8.9422 17.3685 8.46891 17.1238C7.99563 16.879 7.58791 16.5244 7.27994 16.0896C6.97198 15.6548 6.77273 15.1525 6.6989 14.6248C6.62507 14.0971 6.67882 13.5594 6.85564 13.0568C7.00837 12.6226 7.48413 12.3945 7.91829 12.5472Z" fill="black"/>
</svg>
