<svg width="20" height="20" viewBox="0 0 20 20" fill="none" xmlns="http://www.w3.org/2000/svg">
<path fill-rule="evenodd" clip-rule="evenodd" d="M1.66675 18.3333C1.66675 17.8731 2.03984 17.5 2.50008 17.5H17.5001C17.9603 17.5 18.3334 17.8731 18.3334 18.3333C18.3334 18.7936 17.9603 19.1667 17.5001 19.1667H2.50008C2.03984 19.1667 1.66675 18.7936 1.66675 18.3333Z" fill="black"/>
<path fill-rule="evenodd" clip-rule="evenodd" d="M5.00008 8.33325C5.46032 8.33325 5.83341 8.70635 5.83341 9.16659V14.9999C5.83341 15.4602 5.46032 15.8333 5.00008 15.8333C4.53984 15.8333 4.16675 15.4602 4.16675 14.9999V9.16659C4.16675 8.70635 4.53984 8.33325 5.00008 8.33325Z" fill="black"/>
<path fill-rule="evenodd" clip-rule="evenodd" d="M8.33333 8.33325C8.79357 8.33325 9.16667 8.70635 9.16667 9.16659V14.9999C9.16667 15.4602 8.79357 15.8333 8.33333 15.8333C7.8731 15.8333 7.5 15.4602 7.5 14.9999V9.16659C7.5 8.70635 7.8731 8.33325 8.33333 8.33325Z" fill="black"/>
<path fill-rule="evenodd" clip-rule="evenodd" d="M11.6666 8.33325C12.1268 8.33325 12.4999 8.70635 12.4999 9.16659V14.9999C12.4999 15.4602 12.1268 15.8333 11.6666 15.8333C11.2063 15.8333 10.8333 15.4602 10.8333 14.9999V9.16659C10.8333 8.70635 11.2063 8.33325 11.6666 8.33325Z" fill="black"/>
<path fill-rule="evenodd" clip-rule="evenodd" d="M15.0001 8.33325C15.4603 8.33325 15.8334 8.70635 15.8334 9.16659V14.9999C15.8334 15.4602 15.4603 15.8333 15.0001 15.8333C14.5398 15.8333 14.1667 15.4602 14.1667 14.9999V9.16659C14.1667 8.70635 14.5398 8.33325 15.0001 8.33325Z" fill="black"/>
<path fill-rule="evenodd" clip-rule="evenodd" d="M9.5584 0.95992C9.82863 0.791029 10.1715 0.791029 10.4417 0.95992L17.1084 5.12659C17.4237 5.32362 17.5703 5.70564 17.4678 6.06299C17.3653 6.42034 17.0385 6.66659 16.6667 6.66659H3.3334C2.96165 6.66659 2.63485 6.42034 2.53236 6.06299C2.42988 5.70564 2.57649 5.32362 2.89174 5.12659L9.5584 0.95992ZM6.23907 4.99992H13.7611L10.0001 2.64929L6.23907 4.99992Z" fill="black"/>
</svg>
