<svg width="20" height="20" viewBox="0 0 20 20" fill="none" xmlns="http://www.w3.org/2000/svg">
<g clip-path="url(#clip0_2001_7813)">
<path fill-rule="evenodd" clip-rule="evenodd" d="M9.56191 0.95771C9.80759 0.805872 10.1144 0.792068 10.3727 0.92123L15.3727 3.42123C15.655 3.56239 15.8334 3.85094 15.8334 4.16659C15.8334 4.48223 15.655 4.77078 15.3727 4.91194L10.8334 7.18161V9.99992C10.8334 10.4602 10.4603 10.8333 10 10.8333C9.53978 10.8333 9.16669 10.4602 9.16669 9.99992V6.68464C9.16644 6.67302 9.16644 6.66141 9.16669 6.64982V1.66659C9.16669 1.37777 9.31623 1.10955 9.56191 0.95771ZM10.8334 5.31822L13.1366 4.16659L10.8334 3.01495V5.31822Z" fill="black"/>
<path fill-rule="evenodd" clip-rule="evenodd" d="M7.39046 9.57851C7.61864 9.9782 7.47961 10.4872 7.07993 10.7154L2.49659 13.332C2.4962 13.3323 2.4958 13.3325 2.49541 13.3327L2.4943 13.3333C2.49522 13.3339 2.49614 13.3344 2.49706 13.3349L9.58039 17.3849C9.58141 17.3855 9.58242 17.3861 9.58343 17.3867C9.71011 17.4598 9.85381 17.4983 10.0001 17.4983C10.1464 17.4983 10.2901 17.4598 10.4168 17.3867C10.4178 17.3861 10.4188 17.3855 10.4198 17.3849L17.5031 13.3349C17.504 13.3344 17.505 13.3339 17.5059 13.3333L17.5046 13.3326L12.9213 10.7243C12.5213 10.4966 12.3815 9.98784 12.6092 9.58784C12.8368 9.18784 13.3456 9.04811 13.7456 9.27575L18.3276 11.8833C18.3279 11.8835 18.3282 11.8837 18.3285 11.8838C18.5846 12.0292 18.7976 12.2398 18.9459 12.4942C19.0943 12.749 19.1726 13.0385 19.1726 13.3333C19.1726 13.6282 19.0943 13.9177 18.9459 14.1724C18.7978 14.4267 18.585 14.6372 18.3291 14.7825C18.3286 14.7828 18.3281 14.7831 18.3276 14.7833L11.2501 18.83C11.2495 18.8304 11.249 18.8307 11.2484 18.831C10.8688 19.0498 10.4383 19.165 10.0001 19.165C9.5619 19.165 9.13142 19.0498 8.75179 18.831C8.75122 18.8307 8.75066 18.8304 8.75009 18.83L1.67255 14.7833C1.67204 14.7831 1.67153 14.7828 1.67103 14.7825C1.41521 14.6371 1.20241 14.4267 1.05427 14.1724C0.905842 13.9177 0.827637 13.6282 0.827637 13.3333C0.827637 13.0385 0.905842 12.749 1.05427 12.4942C1.20245 12.24 1.41531 12.0294 1.67122 11.8841C1.67166 11.8838 1.67211 11.8836 1.67255 11.8833L6.25359 9.26798C6.65328 9.0398 7.16227 9.17883 7.39046 9.57851Z" fill="black"/>
<path fill-rule="evenodd" clip-rule="evenodd" d="M4.68497 10.2946C4.91339 9.89509 5.42246 9.75636 5.82202 9.98478L15.0054 15.2348C15.4049 15.4632 15.5436 15.9723 15.3152 16.3718C15.0868 16.7714 14.5777 16.9101 14.1782 16.6817L4.99484 11.4317C4.59528 11.2033 4.45655 10.6942 4.68497 10.2946Z" fill="black"/>
<path fill-rule="evenodd" clip-rule="evenodd" d="M15.315 10.2944C15.5436 10.6938 15.4051 11.2029 15.0056 11.4315L5.8306 16.6815C5.43114 16.9101 4.92201 16.7716 4.69343 16.3721C4.46486 15.9726 4.60339 15.4635 5.00285 15.2349L14.1779 9.98494C14.5773 9.75636 15.0864 9.89489 15.315 10.2944Z" fill="black"/>
</g>
<defs>
<clipPath id="clip0_2001_7813">
<rect width="20" height="20" fill="white"/>
</clipPath>
</defs>
</svg>
