<svg width="20" height="20" viewBox="0 0 20 20" fill="none" xmlns="http://www.w3.org/2000/svg">
<g clip-path="url(#clip0_2001_7825)">
<path fill-rule="evenodd" clip-rule="evenodd" d="M3.57733 6.07733C3.90277 5.75189 4.4304 5.75189 4.75584 6.07733L9.75584 11.0773C10.0813 11.4028 10.0813 11.9304 9.75584 12.2558C9.4304 12.5813 8.90277 12.5813 8.57733 12.2558L3.57733 7.25584C3.25189 6.9304 3.25189 6.40277 3.57733 6.07733Z" fill="black"/>
<path fill-rule="evenodd" clip-rule="evenodd" d="M10.4622 3.4733C10.8452 3.72859 10.9487 4.24598 10.6934 4.62892L9.02671 7.12892C8.99627 7.17458 8.96139 7.21713 8.92259 7.25593L3.92259 12.2559C3.59715 12.5814 3.06951 12.5814 2.74408 12.2559C2.41864 11.9305 2.41864 11.4029 2.74408 11.0774L7.68573 6.13577L9.30662 3.70442C9.56192 3.32148 10.0793 3.218 10.4622 3.4733Z" fill="black"/>
<path fill-rule="evenodd" clip-rule="evenodd" d="M0.833252 4.16659C0.833252 3.70635 1.20635 3.33325 1.66659 3.33325H11.6666C12.1268 3.33325 12.4999 3.70635 12.4999 4.16659C12.4999 4.62682 12.1268 4.99992 11.6666 4.99992H1.66659C1.20635 4.99992 0.833252 4.62682 0.833252 4.16659Z" fill="black"/>
<path fill-rule="evenodd" clip-rule="evenodd" d="M5 1.66659C5 1.20635 5.3731 0.833252 5.83333 0.833252H6.66667C7.1269 0.833252 7.5 1.20635 7.5 1.66659C7.5 2.12682 7.1269 2.49992 6.66667 2.49992H5.83333C5.3731 2.49992 5 2.12682 5 1.66659Z" fill="black"/>
<path fill-rule="evenodd" clip-rule="evenodd" d="M14.1667 9.16675C14.4823 9.16675 14.7709 9.34508 14.912 9.6274L19.0787 17.9607C19.2845 18.3724 19.1177 18.8729 18.706 19.0788C18.2944 19.2846 17.7938 19.1177 17.588 18.7061L14.1667 11.8635L10.7454 18.7061C10.5396 19.1177 10.039 19.2846 9.62734 19.0788C9.21569 18.8729 9.04884 18.3724 9.25466 17.9607L13.4213 9.6274C13.5625 9.34508 13.851 9.16675 14.1667 9.16675Z" fill="black"/>
<path fill-rule="evenodd" clip-rule="evenodd" d="M10.8333 15.0001C10.8333 14.5398 11.2063 14.1667 11.6666 14.1667H16.6666C17.1268 14.1667 17.4999 14.5398 17.4999 15.0001C17.4999 15.4603 17.1268 15.8334 16.6666 15.8334H11.6666C11.2063 15.8334 10.8333 15.4603 10.8333 15.0001Z" fill="black"/>
</g>
<defs>
<clipPath id="clip0_2001_7825">
<rect width="20" height="20" fill="white"/>
</clipPath>
</defs>
</svg>
