<svg width="20" height="20" viewBox="0 0 20 20" fill="none" xmlns="http://www.w3.org/2000/svg">
<path fill-rule="evenodd" clip-rule="evenodd" d="M4.16675 4.16667C3.70651 4.16667 3.33341 4.53976 3.33341 5V11.6667C3.33341 12.1269 3.70651 12.5 4.16675 12.5H15.8334C16.2937 12.5 16.6667 12.1269 16.6667 11.6667V5C16.6667 4.53976 16.2937 4.16667 15.8334 4.16667H4.16675ZM1.66675 5C1.66675 3.61929 2.78604 2.5 4.16675 2.5H15.8334C17.2141 2.5 18.3334 3.61929 18.3334 5V11.6667C18.3334 13.0474 17.2141 14.1667 15.8334 14.1667H4.16675C2.78604 14.1667 1.66675 13.0474 1.66675 11.6667V5Z" fill="black"/>
<path fill-rule="evenodd" clip-rule="evenodd" d="M0.833252 16.6666C0.833252 16.2063 1.20635 15.8333 1.66659 15.8333H18.3333C18.7935 15.8333 19.1666 16.2063 19.1666 16.6666C19.1666 17.1268 18.7935 17.4999 18.3333 17.4999H1.66659C1.20635 17.4999 0.833252 17.1268 0.833252 16.6666Z" fill="black"/>
</svg>
