<svg width="20" height="20" viewBox="0 0 20 20" fill="none" xmlns="http://www.w3.org/2000/svg">
<path fill-rule="evenodd" clip-rule="evenodd" d="M3.23229 4.06549C3.70113 3.59664 4.33702 3.33325 5.00006 3.33325H15.0001C15.6631 3.33325 16.299 3.59664 16.7678 4.06549C17.2367 4.53433 17.5001 5.17021 17.5001 5.83325V13.1358L18.4776 15.0832C18.4776 15.0833 18.4776 15.0833 18.4776 15.0834C18.6061 15.3383 18.6669 15.622 18.6542 15.9072C18.6416 16.1924 18.5559 16.4696 18.4053 16.7122C18.2547 16.9548 18.0443 17.1546 17.7943 17.2926C17.5453 17.43 17.2653 17.5013 16.981 17.4999H3.01913C2.73478 17.5013 2.45479 17.43 2.20579 17.2926C1.95579 17.1546 1.74541 16.9548 1.59484 16.7122C1.44426 16.4696 1.35854 16.1924 1.34588 15.9072C1.33323 15.6221 1.39397 15.3386 1.52227 15.0838C1.52236 15.0836 1.52245 15.0834 1.52254 15.0832L2.50006 13.1358V5.83325C2.50006 5.17021 2.76345 4.53433 3.23229 4.06549ZM3.84752 14.1666L3.01091 15.8333C3.01206 15.8333 3.01321 15.8333 3.01436 15.8333L3.01672 15.8333H16.9834L16.9862 15.8333L16.9892 15.8333L16.9886 15.8321L16.1526 14.1666H3.84752ZM15.8334 12.4999V5.83325C15.8334 5.61224 15.7456 5.40028 15.5893 5.244C15.433 5.08772 15.2211 4.99992 15.0001 4.99992H5.00006C4.77904 4.99992 4.56708 5.08772 4.4108 5.244C4.25452 5.40028 4.16673 5.61224 4.16673 5.83325V12.4999H15.8334Z" fill="black"/>
</svg>
