<svg width="20" height="20" viewBox="0 0 20 20" fill="none" xmlns="http://www.w3.org/2000/svg">
<g clip-path="url(#clip0_2001_7837)">
<path fill-rule="evenodd" clip-rule="evenodd" d="M4.16659 14.1667C4.62682 14.1667 4.99992 14.5398 4.99992 15.0001C4.99992 15.5176 5.1204 16.0279 5.35183 16.4908C5.58325 16.9536 5.91926 17.3563 6.33325 17.6667C6.70144 17.9429 6.77606 18.4652 6.49992 18.8334C6.22378 19.2016 5.70144 19.2762 5.33325 19.0001C4.71227 18.5343 4.20825 17.9304 3.86112 17.2362C3.51398 16.5419 3.33325 15.7763 3.33325 15.0001C3.33325 14.5398 3.70635 14.1667 4.16659 14.1667Z" fill="black"/>
<path fill-rule="evenodd" clip-rule="evenodd" d="M5.07277 13.7678C5.26091 13.3478 5.75392 13.1598 6.17395 13.3479C6.91313 13.679 7.67779 13.9154 8.46067 14.0446C8.91476 14.1195 9.22212 14.5484 9.14717 15.0025C9.07222 15.4566 8.64335 15.7639 8.18926 15.689C7.25547 15.5349 6.35346 15.2545 5.49264 14.869C5.07262 14.6808 4.88463 14.1878 5.07277 13.7678Z" fill="black"/>
<path fill-rule="evenodd" clip-rule="evenodd" d="M2.49992 8.32998C2.50867 9.35354 2.84214 10.3479 3.45234 11.1698C3.72669 11.5394 3.64953 12.0613 3.28 12.3357C2.91047 12.61 2.38851 12.5329 2.11416 12.1633C1.29267 11.0568 0.844116 9.71787 0.833278 8.33981C0.833261 8.33762 0.833252 8.33544 0.833252 8.33325C0.833252 4.02553 5.12311 0.833252 9.99992 0.833252C14.8767 0.833252 19.1666 4.02553 19.1666 8.33325C19.1666 8.33939 19.1665 8.34553 19.1664 8.35166C19.1521 8.9961 19.0467 9.63527 18.8531 10.2501C18.7149 10.6891 18.247 10.933 17.808 10.7948C17.369 10.6566 17.1252 10.1887 17.2634 9.74971C17.4087 9.28794 17.4883 8.80803 17.4999 8.3241C17.4936 5.26877 14.3188 2.49992 9.99992 2.49992C5.67827 2.49992 2.50218 5.27233 2.49992 8.32998Z" fill="black"/>
<path fill-rule="evenodd" clip-rule="evenodd" d="M2.39898 11.5655C2.86782 11.0966 3.50371 10.8333 4.16675 10.8333C4.82979 10.8333 5.46567 11.0966 5.93452 11.5655C6.40336 12.0343 6.66675 12.6702 6.66675 13.3333C6.66675 13.9963 6.40336 14.6322 5.93452 15.101C5.46567 15.5699 4.82979 15.8333 4.16675 15.8333C3.50371 15.8333 2.86782 15.5699 2.39898 15.101C1.93014 14.6322 1.66675 13.9963 1.66675 13.3333C1.66675 12.6702 1.93014 12.0343 2.39898 11.5655ZM4.16675 12.4999C3.94573 12.4999 3.73377 12.5877 3.57749 12.744C3.42121 12.9003 3.33341 13.1122 3.33341 13.3333C3.33341 13.5543 3.42121 13.7662 3.57749 13.9225C3.73377 14.0788 3.94573 14.1666 4.16675 14.1666C4.38776 14.1666 4.59972 14.0788 4.756 13.9225C4.91228 13.7662 5.00008 13.5543 5.00008 13.3333C5.00008 13.1122 4.91228 12.9003 4.756 12.744C4.59972 12.5877 4.38776 12.4999 4.16675 12.4999Z" fill="black"/>
<path fill-rule="evenodd" clip-rule="evenodd" d="M12.4999 10.9064V16.2289L13.6235 14.5457C13.7781 14.3141 14.0381 14.175 14.3166 14.175H16.4986L12.4999 10.9064ZM12.6461 8.87322C12.472 8.72947 12.2317 8.6167 11.9416 8.6167C11.9334 8.6167 11.9252 8.61682 11.9171 8.61706C11.6266 8.62561 11.351 8.74702 11.1486 8.95551C10.9463 9.16392 10.8332 9.44294 10.8333 9.73337V18.0667C10.8333 18.0765 10.8334 18.0863 10.8338 18.0961C10.8419 18.3258 10.9202 18.5475 11.0581 18.7314C11.196 18.9153 11.3869 19.0525 11.6052 19.1246C11.6895 19.1525 11.7778 19.1667 11.8666 19.1667H11.9416C12.1162 19.1667 12.2885 19.126 12.4447 19.0479C12.6009 18.9698 12.7368 18.8564 12.8416 18.7167C12.8507 18.7045 12.8595 18.692 12.868 18.6794L14.7623 15.8417H18.0525C18.2812 15.8441 18.5051 15.7756 18.6935 15.6457C18.885 15.5135 19.0301 15.3243 19.1081 15.1051C19.1862 14.8858 19.1932 14.6476 19.1283 14.4241C19.0644 14.2045 18.9343 14.0102 18.7559 13.8676L12.6461 8.87322Z" fill="black"/>
</g>
<defs>
<clipPath id="clip0_2001_7837">
<rect width="20" height="20" fill="white"/>
</clipPath>
</defs>
</svg>
