<svg width="20" height="20" viewBox="0 0 20 20" fill="none" xmlns="http://www.w3.org/2000/svg">
<g clip-path="url(#clip0_2001_7843)">
<path fill-rule="evenodd" clip-rule="evenodd" d="M4.16659 14.1667C4.62682 14.1667 4.99992 14.5398 4.99992 15.0001C4.99992 15.5176 5.1204 16.0279 5.35183 16.4908C5.58325 16.9536 5.91926 17.3563 6.33325 17.6667C6.70144 17.9429 6.77606 18.4652 6.49992 18.8334C6.22378 19.2016 5.70144 19.2762 5.33325 19.0001C4.71227 18.5343 4.20825 17.9304 3.86112 17.2362C3.51398 16.5419 3.33325 15.7763 3.33325 15.0001C3.33325 14.5398 3.70635 14.1667 4.16659 14.1667Z" fill="black"/>
<path fill-rule="evenodd" clip-rule="evenodd" d="M9.99992 2.49992C5.69369 2.49992 2.49992 5.29074 2.49992 8.33325H1.66659L2.49992 8.33341C2.49973 9.35495 2.82322 10.3503 3.42394 11.1765C3.69458 11.5488 3.61221 12.07 3.23996 12.3406C2.86771 12.6112 2.34654 12.5289 2.0759 12.1566C1.26806 11.0455 0.833032 9.707 0.833252 8.33325M0.833252 8.3331C0.833354 4.04236 5.13954 0.833252 9.99992 0.833252C14.8604 0.833252 19.1666 4.04243 19.1666 8.33325C19.1666 12.622 14.8645 15.8302 10.0069 15.8333C8.45731 15.8581 6.9204 15.5502 5.49994 14.9304C5.07812 14.7463 4.8854 14.2551 5.06948 13.8333C5.25356 13.4115 5.74474 13.2187 6.16656 13.4028C7.37029 13.9281 8.67284 14.1886 9.98601 14.1667C9.98895 14.1667 9.9919 14.1666 9.99485 14.1666C9.99654 14.1666 9.99823 14.1666 9.99992 14.1666C14.3062 14.1666 17.4999 11.3758 17.4999 8.33325C17.4999 5.29074 14.3062 2.49992 9.99992 2.49992" fill="black"/>
<path fill-rule="evenodd" clip-rule="evenodd" d="M2.39898 11.5655C2.86782 11.0966 3.50371 10.8333 4.16675 10.8333C4.82979 10.8333 5.46567 11.0966 5.93452 11.5655C6.40336 12.0343 6.66675 12.6702 6.66675 13.3333C6.66675 13.9963 6.40336 14.6322 5.93452 15.101C5.46567 15.5699 4.82979 15.8333 4.16675 15.8333C3.50371 15.8333 2.86782 15.5699 2.39898 15.101C1.93014 14.6322 1.66675 13.9963 1.66675 13.3333C1.66675 12.6702 1.93014 12.0343 2.39898 11.5655ZM4.16675 12.4999C3.94573 12.4999 3.73377 12.5877 3.57749 12.744C3.42121 12.9003 3.33341 13.1122 3.33341 13.3333C3.33341 13.5543 3.42121 13.7662 3.57749 13.9225C3.73377 14.0788 3.94573 14.1666 4.16675 14.1666C4.38776 14.1666 4.59972 14.0788 4.756 13.9225C4.91228 13.7662 5.00008 13.5543 5.00008 13.3333C5.00008 13.1122 4.91228 12.9003 4.756 12.744C4.59972 12.5877 4.38776 12.4999 4.16675 12.4999Z" fill="black"/>
</g>
<defs>
<clipPath id="clip0_2001_7843">
<rect width="20" height="20" fill="white"/>
</clipPath>
</defs>
</svg>
