<svg width="20" height="20" viewBox="0 0 20 20" fill="none" xmlns="http://www.w3.org/2000/svg">
<g clip-path="url(#clip0_2001_7847)">
<path fill-rule="evenodd" clip-rule="evenodd" d="M9.99992 2.49992C5.85778 2.49992 2.49992 5.85778 2.49992 9.99992C2.49992 14.1421 5.85778 17.4999 9.99992 17.4999C14.1421 17.4999 17.4999 14.1421 17.4999 9.99992C17.4999 5.85778 14.1421 2.49992 9.99992 2.49992ZM0.833252 9.99992C0.833252 4.93731 4.93731 0.833252 9.99992 0.833252C15.0625 0.833252 19.1666 4.93731 19.1666 9.99992C19.1666 15.0625 15.0625 19.1666 9.99992 19.1666C4.93731 19.1666 0.833252 15.0625 0.833252 9.99992Z" fill="black"/>
<path fill-rule="evenodd" clip-rule="evenodd" d="M4.36365 10.2954C4.52198 10.1081 4.75481 10 5.00009 10H15.0001C15.2454 10 15.4782 10.1081 15.6365 10.2954C15.7949 10.4827 15.8626 10.7303 15.8218 10.9721C15.5898 12.3453 14.8742 13.5902 13.8043 14.4818C12.7375 15.3708 11.3885 15.85 10.0001 15.8334C8.61167 15.85 7.26271 15.3708 6.19583 14.4818C5.12597 13.5902 4.41037 12.3453 4.1784 10.9721C4.13754 10.7303 4.20531 10.4827 4.36365 10.2954ZM6.11121 11.6667C6.36863 12.2567 6.76121 12.7834 7.2628 13.2014C8.02699 13.8382 8.99379 14.1806 9.98845 14.1667C9.99621 14.1666 10.004 14.1666 10.0117 14.1667C11.0064 14.1806 11.9732 13.8382 12.7374 13.2014C13.239 12.7834 13.6315 12.2567 13.889 11.6667H6.11121Z" fill="black"/>
<path fill-rule="evenodd" clip-rule="evenodd" d="M6.66675 7.50008C6.66675 7.03984 7.03984 6.66675 7.50008 6.66675H7.50841C7.96865 6.66675 8.34175 7.03984 8.34175 7.50008C8.34175 7.96032 7.96865 8.33341 7.50841 8.33341H7.50008C7.03984 8.33341 6.66675 7.96032 6.66675 7.50008Z" fill="black"/>
<path fill-rule="evenodd" clip-rule="evenodd" d="M11.6667 7.50008C11.6667 7.03984 12.0398 6.66675 12.5001 6.66675H12.5084C12.9687 6.66675 13.3417 7.03984 13.3417 7.50008C13.3417 7.96032 12.9687 8.33341 12.5084 8.33341H12.5001C12.0398 8.33341 11.6667 7.96032 11.6667 7.50008Z" fill="black"/>
</g>
<defs>
<clipPath id="clip0_2001_7847">
<rect width="20" height="20" fill="white"/>
</clipPath>
</defs>
</svg>
