<svg width="20" height="20" viewBox="0 0 20 20" fill="none" xmlns="http://www.w3.org/2000/svg">
<g clip-path="url(#clip0_2001_7852)">
<path fill-rule="evenodd" clip-rule="evenodd" d="M7.37371 9.58667C7.60197 9.98632 7.46304 10.4953 7.0634 10.7236L2.49673 13.3319C2.49592 13.3324 2.49511 13.3329 2.4943 13.3333C2.49544 13.334 2.49657 13.3346 2.4977 13.3352L9.58103 17.3936C9.58183 17.394 9.58263 17.3945 9.58343 17.395C9.71011 17.4681 9.85381 17.5066 10.0001 17.5066C10.1464 17.5066 10.2901 17.4681 10.4168 17.395C10.4176 17.3945 10.4184 17.394 10.4192 17.3936L17.5025 13.3352C17.5036 13.3346 17.5047 13.334 17.5059 13.3333L17.5035 13.3319L12.9368 10.7236C12.5371 10.4953 12.3982 9.98632 12.6265 9.58667C12.8547 9.18703 13.3638 9.0481 13.7634 9.27636L18.3276 11.8833C18.3281 11.8836 18.3286 11.8838 18.329 11.8841C18.5849 12.0294 18.7977 12.2399 18.9459 12.4942C19.0943 12.7489 19.1726 13.0385 19.1726 13.3333C19.1726 13.6281 19.0943 13.9177 18.9459 14.1724C18.7979 14.4265 18.5853 14.6368 18.3297 14.7822C18.329 14.7825 18.3283 14.7829 18.3276 14.7833L11.2501 18.8383C11.2497 18.8386 11.2493 18.8388 11.2489 18.839C10.8691 19.058 10.4385 19.1733 10.0001 19.1733C9.56172 19.1733 9.13107 19.058 8.75132 18.839C8.75091 18.8388 8.7505 18.8386 8.75009 18.8383L1.67255 14.7833C1.67186 14.7829 1.67118 14.7825 1.67049 14.7821C1.41491 14.6368 1.20231 14.4265 1.05427 14.1724C0.905842 13.9177 0.827637 13.6281 0.827637 13.3333C0.827637 13.0385 0.905842 12.7489 1.05427 12.4942C1.20243 12.2399 1.41526 12.0295 1.67113 11.8841C1.6716 11.8839 1.67208 11.8836 1.67255 11.8833L6.23679 9.27636C6.63643 9.0481 7.14545 9.18703 7.37371 9.58667Z" fill="black"/>
<path fill-rule="evenodd" clip-rule="evenodd" d="M10.0001 2.49333C9.85381 2.49333 9.71011 2.53183 9.58343 2.60497C9.58263 2.60543 9.58183 2.60589 9.58103 2.60635L2.4977 6.66468C2.49657 6.66533 2.49544 6.66598 2.4943 6.66662C2.49544 6.66726 2.49657 6.66791 2.4977 6.66855L9.58103 10.7269C9.58183 10.7273 9.58263 10.7278 9.58343 10.7283C9.71011 10.8014 9.85381 10.8399 10.0001 10.8399C10.1464 10.8399 10.2901 10.8014 10.4168 10.7283C10.4172 10.728 10.4177 10.7277 10.4182 10.7275L10.4192 10.7269L17.5025 6.66855L17.5043 6.66752L17.5059 6.66662L17.5039 6.66546L17.5025 6.66468L10.4192 2.60635C10.4184 2.60589 10.4176 2.60543 10.4168 2.60497C10.2901 2.53183 10.1464 2.49333 10.0001 2.49333ZM8.75137 1.16086C9.1311 0.941918 9.56174 0.82666 10.0001 0.82666C10.4384 0.82666 10.8691 0.941918 11.2488 1.16086C11.2492 1.16111 11.2497 1.16135 11.2501 1.1616L18.3276 5.21662C18.3283 5.21698 18.3289 5.21734 18.3295 5.2177C18.5852 5.36303 18.7978 5.57341 18.9459 5.82751C19.0943 6.08225 19.1726 6.37179 19.1726 6.66662C19.1726 6.96144 19.0943 7.25099 18.9459 7.50572C18.7979 7.75978 18.5853 7.97014 18.3297 8.11547C18.329 8.11585 18.3283 8.11623 18.3276 8.11662L11.2501 12.1716C11.2497 12.1719 11.2493 12.1721 11.2489 12.1723C10.8691 12.3913 10.4385 12.5066 10.0001 12.5066C9.56172 12.5066 9.13107 12.3913 8.75132 12.1723C8.75091 12.1721 8.7505 12.1719 8.75009 12.1716L1.67255 8.11662C1.67186 8.11623 1.67117 8.11584 1.67049 8.11545C1.41491 7.97012 1.20231 7.75977 1.05427 7.50572C0.905842 7.25099 0.827637 6.96144 0.827637 6.66662C0.827637 6.37179 0.905842 6.08225 1.05427 5.82751C1.20233 5.57343 1.41497 5.36305 1.6706 5.21773L8.75009 1.1616C8.75052 1.16135 8.75094 1.16111 8.75137 1.16086Z" fill="black"/>
</g>
<defs>
<clipPath id="clip0_2001_7852">
<rect width="20" height="20" fill="white"/>
</clipPath>
</defs>
</svg>
