<svg width="20" height="20" viewBox="0 0 20 20" fill="none" xmlns="http://www.w3.org/2000/svg">
<g clip-path="url(#clip0_2001_7859)">
<path fill-rule="evenodd" clip-rule="evenodd" d="M8.96282 1.05829C9.28843 0.909834 9.64211 0.833008 9.99997 0.833008C10.3577 0.833008 10.7113 0.909796 11.0369 1.05818C11.0369 1.05819 11.0369 1.05821 11.0369 1.05822C11.0371 1.0583 11.0373 1.05838 11.0375 1.05845L18.1915 4.31481C18.4849 4.44542 18.7344 4.65808 18.9099 4.92723C19.0864 5.198 19.1804 5.51425 19.1804 5.83747C19.1804 6.1607 19.0864 6.47695 18.9099 6.74771C18.7344 7.01692 18.4848 7.22961 18.1913 7.36022L11.0458 10.6082C11.0457 10.6082 11.0456 10.6083 11.0454 10.6083C10.7198 10.7568 10.3662 10.8336 10.0083 10.8336C9.65041 10.8336 9.2967 10.7568 8.97107 10.6083C8.97103 10.6083 8.971 10.6082 8.97096 10.6082C8.97091 10.6082 8.97086 10.6082 8.9708 10.6082L1.82494 7.35171C1.53157 7.22109 1.28213 7.00847 1.1067 6.73938C0.930169 6.46862 0.836182 6.15236 0.836182 5.82914C0.836182 5.50591 0.930169 5.18966 1.1067 4.9189C1.28217 4.64974 1.53169 4.43708 1.82516 4.30647L8.96247 1.05845C8.96259 1.0584 8.96271 1.05835 8.96282 1.05829ZM9.99997 2.49967C9.88064 2.49967 9.7627 2.5253 9.65414 2.57482L2.51181 5.82513C2.50883 5.82648 2.50584 5.82782 2.50285 5.82914C2.50598 5.83052 2.50909 5.83192 2.5122 5.83333L9.66247 9.09179C9.77104 9.14131 9.88898 9.16694 10.0083 9.16694C10.1276 9.16694 10.2456 9.14131 10.3541 9.09179L17.5051 5.84133C17.508 5.84003 17.5109 5.83874 17.5138 5.83747C17.5107 5.83614 17.5077 5.83479 17.5047 5.83343L10.3458 2.57482C10.2372 2.5253 10.1193 2.49967 9.99997 2.49967Z" fill="black"/>
<path fill-rule="evenodd" clip-rule="evenodd" d="M0.907896 14.364C1.09803 13.9449 1.59194 13.7593 2.01106 13.9494L9.65273 17.4161L9.65429 17.4168C9.76286 17.4663 9.88079 17.4919 10.0001 17.4919C10.1195 17.4919 10.2374 17.4663 10.346 17.4168L10.3475 17.4161L17.9892 13.9494C18.4083 13.7593 18.9022 13.9449 19.0923 14.364C19.2825 14.7831 19.0969 15.277 18.6777 15.4672L11.0376 18.9331C11.0373 18.9333 11.0369 18.9335 11.0366 18.9336C10.7112 19.0819 10.3577 19.1586 10.0001 19.1586C9.64248 19.1586 9.28899 19.0819 8.96354 18.9336C8.96324 18.9334 8.96293 18.9333 8.96262 18.9331L1.32252 15.4672C0.90339 15.277 0.717758 14.7831 0.907896 14.364Z" fill="black"/>
<path fill-rule="evenodd" clip-rule="evenodd" d="M0.907896 10.1973C1.09803 9.77815 1.59194 9.59251 2.01106 9.78265L9.65273 13.2493L9.65429 13.25C9.76286 13.2995 9.88079 13.3252 10.0001 13.3252C10.1195 13.3252 10.2374 13.2995 10.346 13.25L10.3475 13.2493L17.9892 9.78265C18.4083 9.59251 18.9022 9.77815 19.0923 10.1973C19.2825 10.6164 19.0969 11.1103 18.6777 11.3004L11.0376 14.7664C11.0373 14.7666 11.0369 14.7667 11.0366 14.7669C10.7112 14.9151 10.3577 14.9918 10.0001 14.9918C9.64248 14.9918 9.28899 14.9151 8.96354 14.7668C8.96324 14.7667 8.96293 14.7665 8.96262 14.7664L1.32252 11.3004C0.90339 11.1103 0.717758 10.6164 0.907896 10.1973Z" fill="black"/>
</g>
<defs>
<clipPath id="clip0_2001_7859">
<rect width="20" height="20" fill="white"/>
</clipPath>
</defs>
</svg>
