<svg width="20" height="20" viewBox="0 0 20 20" fill="none" xmlns="http://www.w3.org/2000/svg">
<g clip-path="url(#clip0_2001_7855)">
<path fill-rule="evenodd" clip-rule="evenodd" d="M8.96282 1.05829C9.28843 0.909834 9.64211 0.833008 9.99997 0.833008C10.3577 0.833008 10.7113 0.909796 11.0369 1.05818C11.0369 1.05819 11.0369 1.05821 11.0369 1.05822C11.0371 1.0583 11.0373 1.05838 11.0375 1.05845L18.1915 4.31481C18.4849 4.44542 18.7344 4.65808 18.9099 4.92723C19.0864 5.198 19.1804 5.51425 19.1804 5.83747C19.1804 6.1607 19.0864 6.47695 18.9099 6.74771C18.7344 7.01692 18.4848 7.22961 18.1913 7.36022L11.0458 10.6082C11.0457 10.6082 11.0456 10.6083 11.0454 10.6083C10.7198 10.7568 10.3662 10.8336 10.0083 10.8336C9.65041 10.8336 9.2967 10.7568 8.97107 10.6083C8.97103 10.6083 8.971 10.6082 8.97096 10.6082C8.97091 10.6082 8.97086 10.6082 8.9708 10.6082L1.82494 7.35171C1.53157 7.22109 1.28213 7.00847 1.1067 6.73938C0.930169 6.46862 0.836182 6.15236 0.836182 5.82914C0.836182 5.50591 0.930169 5.18966 1.1067 4.9189C1.28217 4.64974 1.53169 4.43708 1.82516 4.30647L8.96247 1.05845C8.96259 1.0584 8.96271 1.05835 8.96282 1.05829ZM9.99997 2.49967C9.88064 2.49967 9.7627 2.5253 9.65414 2.57482L2.51181 5.82513C2.50883 5.82648 2.50584 5.82782 2.50285 5.82914C2.50598 5.83052 2.50909 5.83192 2.5122 5.83333L9.66247 9.09179C9.77104 9.14131 9.88898 9.16694 10.0083 9.16694C10.1276 9.16694 10.2456 9.14131 10.3541 9.09179L17.5051 5.84133C17.508 5.84003 17.5109 5.83874 17.5138 5.83747C17.5107 5.83614 17.5077 5.83479 17.5047 5.83343L10.3458 2.57482C10.2372 2.5253 10.1193 2.49967 9.99997 2.49967Z" fill="black"/>
<path fill-rule="evenodd" clip-rule="evenodd" d="M14.1663 7.57187C14.3567 7.15285 14.8507 6.96747 15.2697 7.15783L18.1829 8.48125C18.4765 8.61186 18.7261 8.82456 18.9017 9.09381C19.0782 9.36457 19.1722 9.68082 19.1722 10.004C19.1722 10.3273 19.0782 10.6435 18.9017 10.9143C18.7261 11.1835 18.4765 11.3962 18.183 11.5268L11.0355 14.7757C10.7115 14.9224 10.3599 14.9983 10.0042 14.9983C9.64854 14.9983 9.29696 14.9224 8.97296 14.7757L1.80515 11.5168C1.80193 11.5154 1.79873 11.5139 1.79554 11.5124C1.50921 11.3778 1.26711 11.1645 1.09753 10.8974C0.927944 10.6303 0.837891 10.3204 0.837891 10.004C0.837891 9.68766 0.927944 9.37781 1.09753 9.11071C1.26711 8.84362 1.50921 8.63031 1.79554 8.49571C1.79821 8.49445 1.80089 8.49321 1.80358 8.49198L4.72025 7.15865C5.13882 6.9673 5.63326 7.1515 5.82461 7.57008C6.01596 7.98865 5.83175 8.48309 5.41318 8.67444L2.5047 10.004L9.66047 13.2574C9.66067 13.2575 9.66087 13.2576 9.66108 13.2577C9.76891 13.3064 9.88588 13.3316 10.0042 13.3316C10.1226 13.3316 10.2396 13.3064 10.3475 13.2576C10.3476 13.2576 10.3478 13.2575 10.348 13.2574L17.4969 10.0079C17.4997 10.0066 17.5026 10.0053 17.5055 10.004C17.5041 10.0034 17.5028 10.0028 17.5014 10.0022C17.5 10.0016 17.4985 10.0009 17.497 10.0003L14.5804 8.67526C14.1613 8.4849 13.976 7.9909 14.1663 7.57187Z" fill="black"/>
<path fill-rule="evenodd" clip-rule="evenodd" d="M14.1663 11.7386C14.3567 11.3196 14.8507 11.1342 15.2697 11.3246L18.1829 12.648C18.4765 12.7786 18.7261 12.9913 18.9017 13.2606C19.0782 13.5313 19.1722 13.8476 19.1722 14.1708C19.1722 14.494 19.0782 14.8103 18.9017 15.081C18.7261 15.3502 18.4765 15.5629 18.183 15.6935L11.0355 18.9424C10.7115 19.0891 10.3599 19.165 10.0042 19.165C9.64854 19.165 9.29696 19.0891 8.97296 18.9424L1.80515 15.6836C1.80193 15.6821 1.79873 15.6806 1.79554 15.6791C1.50921 15.5445 1.26711 15.3312 1.09753 15.0641C0.927943 14.797 0.837891 14.4872 0.837891 14.1708C0.837891 13.8544 0.927944 13.5446 1.09753 13.2775C1.26711 13.0104 1.50921 12.7971 1.79554 12.6625C1.79821 12.6612 1.80089 12.66 1.80358 12.6587L4.72025 11.3254C5.13882 11.134 5.63326 11.3183 5.82461 11.7368C6.01596 12.1554 5.83175 12.6498 5.41318 12.8412L2.5047 14.1708L9.66047 17.4242C9.66067 17.4243 9.66087 17.4243 9.66108 17.4244C9.76891 17.4732 9.88588 17.4984 10.0042 17.4984C10.1226 17.4984 10.2396 17.4731 10.3475 17.4244C10.3476 17.4243 10.3478 17.4242 10.348 17.4242L17.4969 14.1747C17.4997 14.1734 17.5026 14.1721 17.5055 14.1708C17.5041 14.1702 17.5028 14.1696 17.5014 14.169C17.5 14.1683 17.4985 14.1677 17.497 14.167L14.5804 12.842C14.1613 12.6516 13.976 12.1576 14.1663 11.7386Z" fill="black"/>
</g>
<defs>
<clipPath id="clip0_2001_7855">
<rect width="20" height="20" fill="white"/>
</clipPath>
</defs>
</svg>
