<svg width="20" height="20" viewBox="0 0 20 20" fill="none" xmlns="http://www.w3.org/2000/svg">
<path fill-rule="evenodd" clip-rule="evenodd" d="M3.33341 3.33341V7.50008H7.50008V3.33341H3.33341ZM1.66675 3.33341C1.66675 2.41294 2.41294 1.66675 3.33341 1.66675H7.50008C8.42056 1.66675 9.16675 2.41294 9.16675 3.33341V7.50008C9.16675 8.42056 8.42056 9.16675 7.50008 9.16675H3.33341C2.41294 9.16675 1.66675 8.42056 1.66675 7.50008V3.33341Z" fill="black"/>
<path fill-rule="evenodd" clip-rule="evenodd" d="M3.33341 12.4999V16.6666H7.50008V12.4999H3.33341ZM1.66675 12.4999C1.66675 11.5794 2.41294 10.8333 3.33341 10.8333H7.50008C8.42056 10.8333 9.16675 11.5794 9.16675 12.4999V16.6666C9.16675 17.5871 8.42056 18.3333 7.50008 18.3333H3.33341C2.41294 18.3333 1.66675 17.5871 1.66675 16.6666V12.4999Z" fill="black"/>
<path fill-rule="evenodd" clip-rule="evenodd" d="M10.8333 3.33333C10.8333 2.8731 11.2063 2.5 11.6666 2.5H17.4999C17.9602 2.5 18.3333 2.8731 18.3333 3.33333C18.3333 3.79357 17.9602 4.16667 17.4999 4.16667H11.6666C11.2063 4.16667 10.8333 3.79357 10.8333 3.33333Z" fill="black"/>
<path fill-rule="evenodd" clip-rule="evenodd" d="M10.8333 7.50008C10.8333 7.03984 11.2063 6.66675 11.6666 6.66675H17.4999C17.9602 6.66675 18.3333 7.03984 18.3333 7.50008C18.3333 7.96032 17.9602 8.33341 17.4999 8.33341H11.6666C11.2063 8.33341 10.8333 7.96032 10.8333 7.50008Z" fill="black"/>
<path fill-rule="evenodd" clip-rule="evenodd" d="M10.8333 12.5001C10.8333 12.0398 11.2063 11.6667 11.6666 11.6667H17.4999C17.9602 11.6667 18.3333 12.0398 18.3333 12.5001C18.3333 12.9603 17.9602 13.3334 17.4999 13.3334H11.6666C11.2063 13.3334 10.8333 12.9603 10.8333 12.5001Z" fill="black"/>
<path fill-rule="evenodd" clip-rule="evenodd" d="M10.8333 16.6666C10.8333 16.2063 11.2063 15.8333 11.6666 15.8333H17.4999C17.9602 15.8333 18.3333 16.2063 18.3333 16.6666C18.3333 17.1268 17.9602 17.4999 17.4999 17.4999H11.6666C11.2063 17.4999 10.8333 17.1268 10.8333 16.6666Z" fill="black"/>
</svg>
