<svg width="20" height="20" viewBox="0 0 20 20" fill="none" xmlns="http://www.w3.org/2000/svg">
<path fill-rule="evenodd" clip-rule="evenodd" d="M3.33341 3.33341V9.16675H7.50008V3.33341H3.33341ZM7.50112 9.16671C7.50115 9.1667 7.50114 9.16671 7.50109 9.16671L7.50112 9.16671ZM1.66675 3.33341C1.66675 2.41294 2.41294 1.66675 3.33341 1.66675H7.50008C8.42056 1.66675 9.16675 2.41294 9.16675 3.33341V9.16675C9.16675 10.0872 8.42056 10.8334 7.50008 10.8334H3.33341C2.41294 10.8334 1.66675 10.0872 1.66675 9.16675V3.33341Z" fill="black"/>
<path fill-rule="evenodd" clip-rule="evenodd" d="M12.4999 3.33341V5.83342H16.6666V3.33341H12.4999ZM12.4989 5.83338C12.4989 5.83337 12.4989 5.83337 12.4989 5.83337L12.4989 5.83338ZM10.8333 3.33341C10.8333 2.41294 11.5794 1.66675 12.4999 1.66675H16.6666C17.5871 1.66675 18.3333 2.41294 18.3333 3.33341V5.83342C18.3333 6.75389 17.5871 7.50008 16.6666 7.50008H12.4999C11.5794 7.50008 10.8333 6.75389 10.8333 5.83342V3.33341Z" fill="black"/>
<path fill-rule="evenodd" clip-rule="evenodd" d="M12.4999 10.8334V16.6667H16.6666V10.8334H12.4999ZM16.6676 16.6667C16.6677 16.6667 16.6676 16.6667 16.6676 16.6667L16.6676 16.6667ZM10.8333 10.8334C10.8333 9.91294 11.5794 9.16675 12.4999 9.16675H16.6666C17.5871 9.16675 18.3333 9.91294 18.3333 10.8334V16.6667C18.3333 17.5872 17.5871 18.3334 16.6666 18.3334H12.4999C11.5794 18.3334 10.8333 17.5872 10.8333 16.6667V10.8334Z" fill="black"/>
<path fill-rule="evenodd" clip-rule="evenodd" d="M3.33341 14.1667V16.6667H7.50008V14.1667H3.33341ZM3.33241 16.6666C3.33236 16.6666 3.33235 16.6666 3.33238 16.6666L3.33241 16.6666ZM1.66675 14.1667C1.66675 13.2462 2.41294 12.5 3.33341 12.5H7.50008C8.42056 12.5 9.16675 13.2462 9.16675 14.1667V16.6667C9.16675 17.5871 8.42056 18.3333 7.50008 18.3333H3.33341C2.41294 18.3333 1.66675 17.5871 1.66675 16.6667V14.1667Z" fill="black"/>
</svg>
