<svg width="20" height="20" viewBox="0 0 20 20" fill="none" xmlns="http://www.w3.org/2000/svg">
<path fill-rule="evenodd" clip-rule="evenodd" d="M3.33341 3.33341V16.6667H7.50008V3.33341H3.33341ZM1.66675 3.33341C1.66675 2.41294 2.41294 1.66675 3.33341 1.66675H7.50008C8.42056 1.66675 9.16675 2.41294 9.16675 3.33341V16.6667C9.16675 17.5872 8.42056 18.3334 7.50008 18.3334H3.33341C2.41294 18.3334 1.66675 17.5872 1.66675 16.6667V3.33341Z" fill="black"/>
<path fill-rule="evenodd" clip-rule="evenodd" d="M12.4999 3.33341V7.50008H16.6666V3.33341H12.4999ZM10.8333 3.33341C10.8333 2.41294 11.5794 1.66675 12.4999 1.66675H16.6666C17.5871 1.66675 18.3333 2.41294 18.3333 3.33341V7.50008C18.3333 8.42056 17.5871 9.16675 16.6666 9.16675H12.4999C11.5794 9.16675 10.8333 8.42056 10.8333 7.50008V3.33341Z" fill="black"/>
<path fill-rule="evenodd" clip-rule="evenodd" d="M12.4999 12.4999V16.6666H16.6666V12.4999H12.4999ZM10.8333 12.4999C10.8333 11.5794 11.5794 10.8333 12.4999 10.8333H16.6666C17.5871 10.8333 18.3333 11.5794 18.3333 12.4999V16.6666C18.3333 17.5871 17.5871 18.3333 16.6666 18.3333H12.4999C11.5794 18.3333 10.8333 17.5871 10.8333 16.6666V12.4999Z" fill="black"/>
</svg>
