<svg width="20" height="20" viewBox="0 0 20 20" fill="none" xmlns="http://www.w3.org/2000/svg">
<g clip-path="url(#clip0_2001_7895)">
<path fill-rule="evenodd" clip-rule="evenodd" d="M10.39 0.932345C11.0183 0.784407 11.6741 0.801141 12.294 0.98093C12.6668 1.08905 13.019 1.25392 13.3388 1.46848C13.9453 1.07062 14.6594 0.854051 15.3957 0.854051C15.8882 0.854051 16.3758 0.951051 16.8308 1.13951C17.2858 1.32798 17.6992 1.60421 18.0475 1.95244C18.3957 2.30068 18.6719 2.71409 18.8604 3.16908C19.0489 3.62407 19.1459 4.11172 19.1459 4.6042C19.1459 5.09667 19.0489 5.58433 18.8604 6.03932C18.7702 6.25696 18.66 6.46509 18.5314 6.66112C18.746 6.98091 18.9109 7.33312 19.019 7.70591C19.1988 8.32583 19.2155 8.98166 19.0676 9.60994C18.9196 10.2382 18.612 10.8177 18.1745 11.2922C17.9384 11.5484 17.6686 11.7693 17.3738 11.9496C17.4784 12.3409 17.5194 12.7484 17.4934 13.1564C17.4484 13.8611 17.2054 14.5388 16.7924 15.1115C16.3793 15.6842 15.8129 16.1286 15.1585 16.3936C14.7318 16.5664 14.279 16.6584 13.8229 16.6671C13.6509 17.0668 13.4168 17.4384 13.1279 17.7678C12.6793 18.279 12.1125 18.6727 11.4768 18.9144C10.8412 19.1562 10.156 19.2387 9.48107 19.1547C8.80618 19.0707 8.16211 18.8228 7.60509 18.4326C7.57298 18.4101 7.54249 18.3853 7.51386 18.3585C6.82363 17.7127 5.91804 17.3478 4.97427 17.3338C4.06769 17.4748 3.46751 17.9571 2.59908 18.655C2.46723 18.761 2.32919 18.8719 2.18296 18.9874C1.85052 19.2499 1.37406 19.2212 1.07547 18.9208C0.77688 18.6204 0.751174 18.1437 1.01572 17.8129C1.09415 17.7148 1.17023 17.6204 1.24388 17.529C2.00494 16.5843 2.50679 15.9613 2.67673 14.9532C2.72856 14.5985 2.64611 14.2146 2.43602 13.767C2.22331 13.3138 1.91726 12.8698 1.58157 12.3828L1.5677 12.3627C1.18478 11.8066 0.942735 11.1658 0.86238 10.4954C0.782026 9.82509 0.865773 9.14525 1.10641 8.51444C1.34706 7.88363 1.73738 7.32074 2.2438 6.87423C2.56963 6.58693 2.93725 6.35335 3.33272 6.18075C3.34104 5.72337 3.43303 5.26927 3.60627 4.84146C3.8713 4.18696 4.31573 3.6206 4.88842 3.20753C5.46112 2.79447 6.1388 2.55149 6.84348 2.50656C7.25153 2.48054 7.65902 2.52154 8.05026 2.62609C8.23056 2.33126 8.45149 2.06156 8.70767 1.82539C9.18223 1.38789 9.76169 1.08028 10.39 0.932345ZM11.8298 2.58164C11.4854 2.48175 11.121 2.47246 10.772 2.55464C10.4229 2.63683 10.101 2.80772 9.83735 3.05078C9.57371 3.29384 9.37726 3.60083 9.26702 3.94205C9.19082 4.17791 9.01359 4.3676 8.78345 4.45963C8.55332 4.55166 8.29415 4.53646 8.07634 4.41818C7.73161 4.23096 7.34103 4.14489 6.94954 4.16985C6.55804 4.19481 6.18155 4.3298 5.86339 4.55928C5.54523 4.78876 5.29832 5.10341 5.15108 5.46701C5.00384 5.83062 4.96226 6.22841 5.03111 6.61461C5.10834 7.04782 4.83543 7.46641 4.40789 7.57053C4.0143 7.66639 3.6499 7.85645 3.34605 8.12435C3.0422 8.39226 2.80801 8.72999 2.66362 9.10848C2.51924 9.48697 2.46899 9.89487 2.5172 10.2971C2.56541 10.6993 2.71064 11.0838 2.94039 11.4174C2.95486 11.4384 2.9695 11.4596 2.98427 11.481C3.29672 11.9339 3.67227 12.4783 3.94477 13.0589C4.23453 13.6762 4.44442 14.4072 4.32392 15.2074C4.32327 15.2118 4.32258 15.2161 4.32186 15.2204C4.28803 15.4233 4.24394 15.6164 4.19111 15.8011C4.38582 15.7469 4.5893 15.704 4.80259 15.6745C4.84029 15.6693 4.87829 15.6667 4.91635 15.6667C6.28192 15.6664 7.59734 16.1771 8.60444 17.097C8.92859 17.3142 9.29928 17.4525 9.68692 17.5008C10.0919 17.5512 10.503 17.5017 10.8844 17.3566C11.2658 17.2116 11.6059 16.9754 11.875 16.6686C12.1441 16.3619 12.334 15.9939 12.4282 15.5969C12.5302 15.1668 12.9502 14.8912 13.3853 14.9688C13.7715 15.0377 14.1693 14.9961 14.5329 14.8488C14.8965 14.7016 15.2112 14.4547 15.4406 14.1365C15.6701 13.8184 15.8051 13.4419 15.8301 13.0504C15.855 12.6589 15.7689 12.2683 15.5817 11.9236C15.4634 11.7058 15.4483 11.4466 15.5403 11.2165C15.6323 10.9863 15.822 10.8091 16.0579 10.7329C16.3991 10.6226 16.7061 10.4262 16.9491 10.1626C17.1922 9.89891 17.3631 9.57699 17.4453 9.22794C17.5275 8.8789 17.5182 8.51455 17.4183 8.17015C17.3184 7.82575 17.1313 7.51296 16.8751 7.26206C16.7161 7.10636 16.626 6.89355 16.6249 6.67104C16.6237 6.44852 16.7116 6.23479 16.869 6.07744C17.0624 5.88397 17.2159 5.65429 17.3206 5.40151C17.4253 5.14874 17.4792 4.87781 17.4792 4.6042C17.4792 4.33059 17.4253 4.05966 17.3206 3.80689C17.2159 3.55411 17.0624 3.32442 16.869 3.13096C16.6755 2.93749 16.4458 2.78402 16.193 2.67931C15.9402 2.57461 15.6693 2.52072 15.3957 2.52072C14.8431 2.52072 14.3132 2.74023 13.9225 3.13096C13.7651 3.2883 13.5514 3.37618 13.3289 3.37502C13.1064 3.37386 12.8935 3.28376 12.7379 3.12479C12.4869 2.8686 12.1742 2.68152 11.8298 2.58164Z" fill="black"/>
<path fill-rule="evenodd" clip-rule="evenodd" d="M14.7558 5.24408C15.0813 5.56951 15.0813 6.09715 14.7558 6.42259L2.25584 18.9226C1.9304 19.248 1.40277 19.248 1.07733 18.9226C0.751893 18.5972 0.751893 18.0695 1.07733 17.7441L13.5773 5.24408C13.9028 4.91864 14.4304 4.91864 14.7558 5.24408Z" fill="black"/>
</g>
<defs>
<clipPath id="clip0_2001_7895">
<rect width="20" height="20" fill="white"/>
</clipPath>
</defs>
</svg>
