<svg width="20" height="20" viewBox="0 0 20 20" fill="none" xmlns="http://www.w3.org/2000/svg">
<path fill-rule="evenodd" clip-rule="evenodd" d="M15.9226 0.838072C16.2046 0.868503 16.4517 1.04025 16.5786 1.29392C17.4386 3.01392 18.3332 4.96532 18.3332 8.33326C18.3332 13.3914 13.9624 17.4993 9.16769 17.4999C7.49585 17.5047 5.88324 16.881 4.64955 15.7527C3.41551 14.6241 2.65074 13.0728 2.5069 11.4067C2.36306 9.74056 2.85066 8.08122 3.87301 6.75777C4.89346 5.43676 6.37229 4.54673 8.01709 4.26339C10.4037 3.80269 11.8101 3.47967 12.8258 3.04111C13.7848 2.62703 14.4117 2.10179 15.1845 1.14347C15.3626 0.922704 15.6406 0.807641 15.9226 0.838072ZM13.4864 4.57124C12.2742 5.09467 10.6827 5.4464 8.32443 5.9015C8.31859 5.90263 8.31273 5.90369 8.30686 5.90469C7.07052 6.11591 5.95872 6.78407 5.19197 7.77665C4.42521 8.76924 4.05951 10.0137 4.16739 11.2633C4.27527 12.5129 4.84885 13.6764 5.77437 14.5228C6.6999 15.3693 7.90976 15.8371 9.164 15.8333L9.16531 15.8333H9.16653C13.0714 15.8333 16.6665 12.4414 16.6665 8.33326C16.6665 6.0082 16.2024 4.47475 15.6179 3.15112C15.0048 3.74811 14.3461 4.20007 13.4864 4.57124Z" fill="black"/>
<path fill-rule="evenodd" clip-rule="evenodd" d="M11.4225 9.41083C11.7479 9.73626 11.7479 10.2639 11.4225 10.5893C10.9297 11.0822 10.1258 11.6522 9.20448 12.1468C8.27668 12.6449 7.17278 13.0972 6.06205 13.3175L5.89978 12.4994L6.06189 13.3175C3.75399 13.7748 2.49992 15.4044 2.49992 17.5001C2.49992 17.9603 2.12682 18.3334 1.66659 18.3334C1.20635 18.3334 0.833252 17.9603 0.833252 17.5001C0.833252 14.5958 2.66245 12.2921 5.73779 11.6827C5.73782 11.6827 5.73785 11.6827 5.73788 11.6827C5.7379 11.6826 5.73792 11.6826 5.73795 11.6826C6.64383 11.5029 7.58987 11.1219 8.41619 10.6784C9.24905 10.2313 9.90351 9.75132 10.244 9.41083C10.5694 9.08539 11.0971 9.08539 11.4225 9.41083Z" fill="black"/>
</svg>
