<svg width="20" height="20" viewBox="0 0 20 20" fill="none" xmlns="http://www.w3.org/2000/svg">
<g clip-path="url(#clip0_2001_7898)">
<path fill-rule="evenodd" clip-rule="evenodd" d="M2.49998 4.16675C2.24022 4.16674 1.98405 4.22745 1.75192 4.34403L2.49998 4.16675ZM2.50003 4.16675H17.4999C17.4999 4.16675 17.5 4.16675 17.5 4.16675C17.7597 4.16674 18.0159 4.22745 18.248 4.34403C18.4802 4.46062 18.6819 4.62986 18.837 4.83824C18.9921 5.04662 19.0963 5.28838 19.1414 5.54423C19.1865 5.80007 19.1711 6.0629 19.0966 6.31175C19.0953 6.31593 19.094 6.32011 19.0927 6.32428L18.2127 9.10178C18.212 9.10399 18.2113 9.1062 18.2106 9.10841C18.047 9.61004 17.729 10.0471 17.3019 10.3569C16.8749 10.6667 16.3609 10.8335 15.8333 10.8334C15.8332 10.8334 15.8332 10.8334 15.8331 10.8334H13.3333C12.8731 10.8334 12.5 10.4603 12.5 10.0001C12.5 9.53984 12.8731 9.16675 13.3333 9.16675H15.8335C16.0094 9.16679 16.1808 9.1112 16.3231 9.00791C16.4647 8.9052 16.5703 8.76057 16.6251 8.59453L17.4999 5.83341H2.50003L3.37475 8.59511C3.42963 8.761 3.53527 8.90548 3.67678 9.00808C3.81913 9.11129 3.99047 9.16682 4.16629 9.16675H6.66664C7.12688 9.16675 7.49998 9.53984 7.49998 10.0001C7.49998 10.4603 7.12688 10.8334 6.66664 10.8334H4.167C4.16688 10.8334 4.16676 10.8334 4.16664 10.8334C3.6393 10.8336 3.12542 10.667 2.69848 10.3574C2.27144 10.0478 1.95328 9.61106 1.7895 9.10966C1.78872 9.10729 1.78796 9.10492 1.78721 9.10254L0.907207 6.32421C0.905895 6.32007 0.904615 6.31591 0.903368 6.31175C0.828811 6.0629 0.813458 5.80006 0.858533 5.54423C0.903608 5.28839 1.00786 5.04663 1.16298 4.83824C1.31809 4.62986 1.51977 4.46061 1.75192 4.34403" fill="black"/>
<path fill-rule="evenodd" clip-rule="evenodd" d="M10.8333 1.66659C10.8333 1.20635 11.2063 0.833252 11.6666 0.833252H14.1666C14.6086 0.833252 15.0325 1.00885 15.3451 1.32141C15.6577 1.63397 15.8333 2.05789 15.8333 2.49992V4.99992C15.8333 5.46016 15.4602 5.83325 14.9999 5.83325C14.5397 5.83325 14.1666 5.46016 14.1666 4.99992V2.49992H11.6666C11.2063 2.49992 10.8333 2.12682 10.8333 1.66659Z" fill="black"/>
<path fill-rule="evenodd" clip-rule="evenodd" d="M7.49992 9.16667V17.5H12.4999V9.16667H7.49992ZM5.83325 9.16667C5.83325 8.24619 6.57944 7.5 7.49992 7.5H12.4999C13.4204 7.5 14.1666 8.24619 14.1666 9.16667V17.5C14.1666 18.4205 13.4204 19.1667 12.4999 19.1667H7.49992C6.57944 19.1667 5.83325 18.4205 5.83325 17.5V9.16667Z" fill="black"/>
</g>
<defs>
<clipPath id="clip0_2001_7898">
<rect width="20" height="20" fill="white"/>
</clipPath>
</defs>
</svg>
