<svg width="20" height="20" viewBox="0 0 20 20" fill="none" xmlns="http://www.w3.org/2000/svg">
<path fill-rule="evenodd" clip-rule="evenodd" d="M11.6667 10.0001C11.6667 9.53984 12.0398 9.16675 12.5001 9.16675H17.5001C17.9603 9.16675 18.3334 9.53984 18.3334 10.0001C18.3334 10.4603 17.9603 10.8334 17.5001 10.8334H12.5001C12.0398 10.8334 11.6667 10.4603 11.6667 10.0001Z" fill="black"/>
<path fill-rule="evenodd" clip-rule="evenodd" d="M11.6667 5.00008C11.6667 4.53984 12.0398 4.16675 12.5001 4.16675H17.5001C17.9603 4.16675 18.3334 4.53984 18.3334 5.00008C18.3334 5.46032 17.9603 5.83341 17.5001 5.83341H12.5001C12.0398 5.83341 11.6667 5.46032 11.6667 5.00008Z" fill="black"/>
<path fill-rule="evenodd" clip-rule="evenodd" d="M5.17672 3.51962C5.37407 3.39778 5.60143 3.33325 5.83337 3.33325C6.06531 3.33325 6.29267 3.39778 6.49003 3.51962C6.68738 3.64147 6.84695 3.81582 6.95087 4.02317C6.95504 4.03148 6.95906 4.03986 6.96295 4.04831L9.92378 10.485C10.1161 10.9031 9.93308 11.398 9.51496 11.5903C9.09684 11.7826 8.60196 11.5996 8.40963 11.1815L5.83337 5.58086L3.25712 11.1815C3.06478 11.5996 2.56991 11.7826 2.15179 11.5903C1.73367 11.398 1.55063 10.9031 1.74296 10.485L4.7038 4.04831C4.70768 4.03986 4.71171 4.03148 4.71587 4.02317C4.8198 3.81582 4.97936 3.64147 5.17672 3.51962Z" fill="black"/>
<path fill-rule="evenodd" clip-rule="evenodd" d="M1.66675 15.0001C1.66675 14.5398 2.03984 14.1667 2.50008 14.1667H17.5001C17.9603 14.1667 18.3334 14.5398 18.3334 15.0001C18.3334 15.4603 17.9603 15.8334 17.5001 15.8334H2.50008C2.03984 15.8334 1.66675 15.4603 1.66675 15.0001Z" fill="black"/>
<path fill-rule="evenodd" clip-rule="evenodd" d="M2.5 9.16659C2.5 8.70635 2.8731 8.33325 3.33333 8.33325H8.33333C8.79357 8.33325 9.16667 8.70635 9.16667 9.16659C9.16667 9.62682 8.79357 9.99992 8.33333 9.99992H3.33333C2.8731 9.99992 2.5 9.62682 2.5 9.16659Z" fill="black"/>
</svg>
