<svg width="20" height="20" viewBox="0 0 20 20" fill="none" xmlns="http://www.w3.org/2000/svg">
<path fill-rule="evenodd" clip-rule="evenodd" d="M13.1044 4.19878C13.5469 4.07234 14.0081 4.32859 14.1346 4.77112L17.4679 16.4378C17.5943 16.8803 17.3381 17.3416 16.8956 17.468C16.453 17.5944 15.9918 17.3382 15.8654 16.8957L12.532 5.22899C12.4056 4.78646 12.6618 4.32522 13.1044 4.19878Z" fill="black"/>
<path fill-rule="evenodd" clip-rule="evenodd" d="M10.0001 4.16675C10.4603 4.16675 10.8334 4.53984 10.8334 5.00008V16.6667C10.8334 17.127 10.4603 17.5001 10.0001 17.5001C9.53984 17.5001 9.16675 17.127 9.16675 16.6667V5.00008C9.16675 4.53984 9.53984 4.16675 10.0001 4.16675Z" fill="black"/>
<path fill-rule="evenodd" clip-rule="evenodd" d="M6.66659 5.83325C7.12682 5.83325 7.49992 6.20635 7.49992 6.66659V16.6666C7.49992 17.1268 7.12682 17.4999 6.66659 17.4999C6.20635 17.4999 5.83325 17.1268 5.83325 16.6666V6.66659C5.83325 6.20635 6.20635 5.83325 6.66659 5.83325Z" fill="black"/>
<path fill-rule="evenodd" clip-rule="evenodd" d="M3.33333 2.5C3.79357 2.5 4.16667 2.8731 4.16667 3.33333V16.6667C4.16667 17.1269 3.79357 17.5 3.33333 17.5C2.8731 17.5 2.5 17.1269 2.5 16.6667V3.33333C2.5 2.8731 2.8731 2.5 3.33333 2.5Z" fill="black"/>
</svg>
