<svg width="20" height="20" viewBox="0 0 20 20" fill="none" xmlns="http://www.w3.org/2000/svg">
<path fill-rule="evenodd" clip-rule="evenodd" d="M3.33341 3.33341V16.6667H8.33341V3.33341H3.33341ZM1.66675 3.33341C1.66675 2.41294 2.41294 1.66675 3.33341 1.66675H8.33341C9.25389 1.66675 10.0001 2.41294 10.0001 3.33341V16.6667C10.0001 17.5872 9.25389 18.3334 8.33341 18.3334H3.33341C2.41294 18.3334 1.66675 17.5872 1.66675 16.6667V3.33341Z" fill="black"/>
<path fill-rule="evenodd" clip-rule="evenodd" d="M5.83333 1.66675C6.29357 1.66675 6.66667 2.03984 6.66667 2.50008V17.5001C6.66667 17.9603 6.29357 18.3334 5.83333 18.3334C5.3731 18.3334 5 17.9603 5 17.5001V2.50008C5 2.03984 5.3731 1.66675 5.83333 1.66675Z" fill="black"/>
<path fill-rule="evenodd" clip-rule="evenodd" d="M11.6133 3.36824L10.0588 3.94093C10.0574 3.94189 10.0551 3.94366 10.052 3.9466C10.0454 3.95301 10.0392 3.96146 10.035 3.97008L14.608 16.6083C14.609 16.6097 14.6107 16.6119 14.6133 16.6146C14.6197 16.6212 14.6282 16.6274 14.6368 16.6316L16.1912 16.059C16.1926 16.058 16.195 16.0562 16.198 16.0533C16.2046 16.0469 16.2108 16.0384 16.2151 16.0298L11.6421 3.39163C11.641 3.39019 11.6393 3.38802 11.6367 3.38529C11.6303 3.37867 11.6219 3.37251 11.6133 3.36824ZM11.0364 1.8046C11.9304 1.45548 12.8766 1.98916 13.1904 2.77379C13.1939 2.78238 13.1972 2.79103 13.2003 2.79974L17.7797 15.4556C18.1268 16.3488 17.5934 17.2935 16.8095 17.607C16.8024 17.6098 16.7953 17.6126 16.7881 17.6152L15.2137 18.1953C14.3197 18.5444 13.3735 18.0107 13.0596 17.2261C13.0562 17.2175 13.0529 17.2089 13.0497 17.2002L8.47031 4.54426C8.12328 3.65108 8.65669 2.70642 9.44053 2.39288C9.44763 2.39004 9.45477 2.3873 9.46194 2.38466L11.0364 1.8046Z" fill="black"/>
</svg>
