<svg width="20" height="20" viewBox="0 0 20 20" fill="none" xmlns="http://www.w3.org/2000/svg">
<g clip-path="url(#clip0_2001_7917)">
<path fill-rule="evenodd" clip-rule="evenodd" d="M9.99992 2.49992C5.85778 2.49992 2.49992 5.85778 2.49992 9.99992C2.49992 14.1421 5.85778 17.4999 9.99992 17.4999C14.1421 17.4999 17.4999 14.1421 17.4999 9.99992C17.4999 5.85778 14.1421 2.49992 9.99992 2.49992ZM0.833252 9.99992C0.833252 4.93731 4.93731 0.833252 9.99992 0.833252C15.0625 0.833252 19.1666 4.93731 19.1666 9.99992C19.1666 15.0625 15.0625 19.1666 9.99992 19.1666C4.93731 19.1666 0.833252 15.0625 0.833252 9.99992Z" fill="black"/>
<path fill-rule="evenodd" clip-rule="evenodd" d="M3.51898 3.51898C3.84442 3.19354 4.37205 3.19354 4.69749 3.51898L8.23082 7.05231C8.55626 7.37775 8.55626 7.90539 8.23082 8.23082C7.90539 8.55626 7.37775 8.55626 7.05231 8.23082L3.51898 4.69749C3.19354 4.37205 3.19354 3.84442 3.51898 3.51898Z" fill="black"/>
<path fill-rule="evenodd" clip-rule="evenodd" d="M16.4808 3.51898C16.8063 3.84442 16.8063 4.37205 16.4808 4.69749L12.9475 8.23082C12.6221 8.55626 12.0944 8.55626 11.769 8.23082C11.4435 7.90539 11.4435 7.37775 11.769 7.05231L15.3023 3.51898C15.6277 3.19354 16.1554 3.19354 16.4808 3.51898Z" fill="black"/>
<path fill-rule="evenodd" clip-rule="evenodd" d="M11.769 11.769C12.0944 11.4435 12.6221 11.4435 12.9475 11.769L16.4808 15.3023C16.8063 15.6277 16.8063 16.1554 16.4808 16.4808C16.1554 16.8063 15.6277 16.8063 15.3023 16.4808L11.769 12.9475C11.4435 12.6221 11.4435 12.0944 11.769 11.769Z" fill="black"/>
<path fill-rule="evenodd" clip-rule="evenodd" d="M8.23082 11.769C8.55626 12.0944 8.55626 12.6221 8.23082 12.9475L4.69749 16.4808C4.37205 16.8063 3.84442 16.8063 3.51898 16.4808C3.19354 16.1554 3.19354 15.6277 3.51898 15.3023L7.05231 11.769C7.37775 11.4435 7.90539 11.4435 8.23082 11.769Z" fill="black"/>
<path fill-rule="evenodd" clip-rule="evenodd" d="M9.99992 7.49992C8.61921 7.49992 7.49992 8.61921 7.49992 9.99992C7.49992 11.3806 8.61921 12.4999 9.99992 12.4999C11.3806 12.4999 12.4999 11.3806 12.4999 9.99992C12.4999 8.61921 11.3806 7.49992 9.99992 7.49992ZM5.83325 9.99992C5.83325 7.69873 7.69873 5.83325 9.99992 5.83325C12.3011 5.83325 14.1666 7.69873 14.1666 9.99992C14.1666 12.3011 12.3011 14.1666 9.99992 14.1666C7.69873 14.1666 5.83325 12.3011 5.83325 9.99992Z" fill="black"/>
</g>
<defs>
<clipPath id="clip0_2001_7917">
<rect width="20" height="20" fill="white"/>
</clipPath>
</defs>
</svg>
