<svg width="20" height="20" viewBox="0 0 20 20" fill="none" xmlns="http://www.w3.org/2000/svg">
<path fill-rule="evenodd" clip-rule="evenodd" d="M9.99992 4.16667C8.62682 4.16667 7.49992 5.29357 7.49992 6.66667V16.6667C7.49992 17.1269 7.12682 17.5 6.66659 17.5C6.20635 17.5 5.83325 17.1269 5.83325 16.6667V6.66667C5.83325 4.3731 7.70635 2.5 9.99992 2.5C11.5549 2.5 12.9081 3.33157 13.6364 4.58011C13.8683 4.97765 13.734 5.48792 13.3365 5.71982C12.9389 5.95172 12.4287 5.81744 12.1968 5.41989C11.7584 4.66843 10.945 4.16667 9.99992 4.16667Z" fill="black"/>
<path fill-rule="evenodd" clip-rule="evenodd" d="M4.16675 10.0001C4.16675 9.53984 4.53984 9.16675 5.00008 9.16675H8.33342C8.79365 9.16675 9.16675 9.53984 9.16675 10.0001C9.16675 10.4603 8.79365 10.8334 8.33342 10.8334H5.00008C4.53984 10.8334 4.16675 10.4603 4.16675 10.0001Z" fill="black"/>
<path fill-rule="evenodd" clip-rule="evenodd" d="M10.8333 10.0001C10.8333 9.53984 11.2063 9.16675 11.6666 9.16675H13.3333C13.7935 9.16675 14.1666 9.53984 14.1666 10.0001V16.6667C14.1666 17.127 13.7935 17.5001 13.3333 17.5001C12.873 17.5001 12.4999 17.127 12.4999 16.6667V10.8334H11.6666C11.2063 10.8334 10.8333 10.4603 10.8333 10.0001Z" fill="black"/>
<path fill-rule="evenodd" clip-rule="evenodd" d="M4.16675 16.6666C4.16675 16.2063 4.53984 15.8333 5.00008 15.8333H8.33342C8.79365 15.8333 9.16675 16.2063 9.16675 16.6666C9.16675 17.1268 8.79365 17.4999 8.33342 17.4999H5.00008C4.53984 17.4999 4.16675 17.1268 4.16675 16.6666Z" fill="black"/>
<path fill-rule="evenodd" clip-rule="evenodd" d="M10.8333 16.6666C10.8333 16.2063 11.2063 15.8333 11.6666 15.8333H14.9999C15.4602 15.8333 15.8333 16.2063 15.8333 16.6666C15.8333 17.1268 15.4602 17.4999 14.9999 17.4999H11.6666C11.2063 17.4999 10.8333 17.1268 10.8333 16.6666Z" fill="black"/>
</svg>
