<svg width="20" height="20" viewBox="0 0 20 20" fill="none" xmlns="http://www.w3.org/2000/svg">
<path fill-rule="evenodd" clip-rule="evenodd" d="M5.87529 2.5418C6.96925 1.44783 8.45299 0.833252 10.0001 0.833252C11.5472 0.833252 13.0309 1.44783 14.1249 2.5418C15.2188 3.63576 15.8334 5.11949 15.8334 6.66658C15.8334 7.94864 15.3433 9.26057 14.325 10.1869C13.7232 10.791 13.4371 11.2307 13.3172 11.83C13.227 12.2813 12.788 12.574 12.3367 12.4837C11.8854 12.3935 11.5927 11.9545 11.6829 11.5032C11.8955 10.4405 12.4391 9.71575 13.1608 8.994C13.1712 8.98367 13.1818 8.97361 13.1926 8.96384C13.8291 8.39103 14.1667 7.54391 14.1667 6.66658C14.1667 5.56152 13.7278 4.50171 12.9464 3.72031C12.165 2.93891 11.1052 2.49992 10.0001 2.49992C8.89501 2.49992 7.83521 2.93891 7.0538 3.72031C6.2724 4.50171 5.83341 5.56152 5.83341 6.66658C5.83341 7.33679 5.94894 8.1036 6.83934 8.994C7.46953 9.62419 8.1033 10.4335 8.31723 11.5032C8.40749 11.9545 8.11481 12.3935 7.66351 12.4837C7.21221 12.574 6.77319 12.2813 6.68293 11.83C6.56353 11.233 6.1973 10.709 5.66083 10.1725C4.38455 8.89623 4.16675 7.66304 4.16675 6.66658C4.16675 5.11949 4.78133 3.63576 5.87529 2.5418Z" fill="black"/>
<path fill-rule="evenodd" clip-rule="evenodd" d="M6.66675 15.0001C6.66675 14.5398 7.03984 14.1667 7.50008 14.1667H12.5001C12.9603 14.1667 13.3334 14.5398 13.3334 15.0001C13.3334 15.4603 12.9603 15.8334 12.5001 15.8334H7.50008C7.03984 15.8334 6.66675 15.4603 6.66675 15.0001Z" fill="black"/>
<path fill-rule="evenodd" clip-rule="evenodd" d="M7.5 18.3333C7.5 17.8731 7.8731 17.5 8.33333 17.5H11.6667C12.1269 17.5 12.5 17.8731 12.5 18.3333C12.5 18.7936 12.1269 19.1667 11.6667 19.1667H8.33333C7.8731 19.1667 7.5 18.7936 7.5 18.3333Z" fill="black"/>
</svg>
