<svg width="20" height="20" viewBox="0 0 20 20" fill="none" xmlns="http://www.w3.org/2000/svg">
<g clip-path="url(#clip0_2001_7930)">
<path fill-rule="evenodd" clip-rule="evenodd" d="M9.74025 0.848314C10.7913 0.801474 11.8355 1.03979 12.7622 1.53801C13.6889 2.03623 14.4636 2.77581 15.0042 3.67842C15.5449 4.58103 15.8313 5.61305 15.8333 6.66519L15.8333 6.66671C15.8333 7.86229 15.4306 8.97822 14.6228 9.88702C14.317 10.231 13.7903 10.262 13.4463 9.95622C13.1023 9.65046 13.0713 9.12373 13.3771 8.77974C13.9025 8.18871 14.1664 7.47155 14.1666 6.66741C14.1651 5.91617 13.9605 5.17932 13.5744 4.53483C13.1883 3.89011 12.6349 3.36184 11.973 3.00597C11.3111 2.65009 10.5652 2.47987 9.81445 2.51333C9.06367 2.54678 8.33591 2.78268 7.70826 3.19602C7.32389 3.44915 6.80709 3.34275 6.55396 2.95838C6.30083 2.57401 6.40722 2.05721 6.7916 1.80408C7.6703 1.2254 8.68916 0.895153 9.74025 0.848314Z" fill="black"/>
<path fill-rule="evenodd" clip-rule="evenodd" d="M1.07733 1.07733C1.40277 0.751893 1.9304 0.751893 2.25584 1.07733L18.9225 17.744C19.2479 18.0694 19.2479 18.5971 18.9225 18.9225C18.5971 19.2479 18.0694 19.2479 17.744 18.9225L1.07733 2.25584C0.751893 1.9304 0.751893 1.40277 1.07733 1.07733Z" fill="black"/>
<path fill-rule="evenodd" clip-rule="evenodd" d="M5.56009 4.4766C5.98725 4.6479 6.19468 5.13306 6.02337 5.56023C5.79081 6.14017 5.74145 6.77742 5.88195 7.38626C6.02245 7.99509 6.34606 8.54627 6.80924 8.96565C6.81945 8.9749 6.82943 8.9844 6.83917 8.99414C7.46937 9.62433 8.10313 10.4336 8.31706 11.5033C8.40732 11.9546 8.11464 12.3936 7.66334 12.4839C7.21204 12.5741 6.77302 12.2815 6.68276 11.8302C6.56437 11.2382 6.20328 10.7179 5.67417 10.1862C4.96735 9.54014 4.47337 8.69443 4.25797 7.76102C4.0409 6.8204 4.11715 5.83587 4.47645 4.93989C4.64776 4.51272 5.13292 4.3053 5.56009 4.4766Z" fill="black"/>
<path fill-rule="evenodd" clip-rule="evenodd" d="M6.66675 15.0001C6.66675 14.5398 7.03984 14.1667 7.50008 14.1667H12.5001C12.9603 14.1667 13.3334 14.5398 13.3334 15.0001C13.3334 15.4603 12.9603 15.8334 12.5001 15.8334H7.50008C7.03984 15.8334 6.66675 15.4603 6.66675 15.0001Z" fill="black"/>
<path fill-rule="evenodd" clip-rule="evenodd" d="M7.5 18.3333C7.5 17.8731 7.8731 17.5 8.33333 17.5H11.6667C12.1269 17.5 12.5 17.8731 12.5 18.3333C12.5 18.7936 12.1269 19.1667 11.6667 19.1667H8.33333C7.8731 19.1667 7.5 18.7936 7.5 18.3333Z" fill="black"/>
</g>
<defs>
<clipPath id="clip0_2001_7930">
<rect width="20" height="20" fill="white"/>
</clipPath>
</defs>
</svg>
