<svg width="20" height="20" viewBox="0 0 20 20" fill="none" xmlns="http://www.w3.org/2000/svg">
<g clip-path="url(#clip0_2001_7940)">
<path fill-rule="evenodd" clip-rule="evenodd" d="M5.83325 6.66667C4.9492 6.66667 4.10135 7.01786 3.47623 7.64298C2.85111 8.2681 2.49992 9.11595 2.49992 10C2.49992 10.8841 2.85111 11.7319 3.47623 12.357C4.10135 12.9821 4.9492 13.3333 5.83325 13.3333H7.49992C7.96016 13.3333 8.33325 13.7064 8.33325 14.1667C8.33325 14.6269 7.96016 15 7.49992 15H5.83325C4.50717 15 3.2354 14.4732 2.29772 13.5355C1.36004 12.5979 0.833252 11.3261 0.833252 10C0.833252 8.67392 1.36004 7.40215 2.29772 6.46447C3.2354 5.52678 4.50717 5 5.83325 5C6.29349 5 6.66659 5.3731 6.66659 5.83333C6.66659 6.29357 6.29349 6.66667 5.83325 6.66667Z" fill="black"/>
<path fill-rule="evenodd" clip-rule="evenodd" d="M11.6667 5.83333C11.6667 5.3731 12.0398 5 12.5001 5H14.1667C15.0953 5 16.0055 5.25857 16.7954 5.74675C17.5853 6.23492 18.2236 6.9334 18.6389 7.76393C19.0541 8.59446 19.2299 9.52422 19.1465 10.449C19.0632 11.3738 18.7239 12.2572 18.1667 13C17.8906 13.3682 17.3683 13.4428 17.0001 13.1667C16.6319 12.8905 16.5573 12.3682 16.8334 12C17.2048 11.5048 17.431 10.9159 17.4866 10.2994C17.5422 9.68281 17.425 9.06297 17.1482 8.50929C16.8713 7.9556 16.4458 7.48995 15.9192 7.1645C15.3926 6.83905 14.7858 6.66667 14.1667 6.66667H12.5001C12.0398 6.66667 11.6667 6.29357 11.6667 5.83333Z" fill="black"/>
<path fill-rule="evenodd" clip-rule="evenodd" d="M5.83325 10.0001C5.83325 9.53984 6.20635 9.16675 6.66659 9.16675H9.99992C10.4602 9.16675 10.8333 9.53984 10.8333 10.0001C10.8333 10.4603 10.4602 10.8334 9.99992 10.8334H6.66659C6.20635 10.8334 5.83325 10.4603 5.83325 10.0001Z" fill="black"/>
<path fill-rule="evenodd" clip-rule="evenodd" d="M1.07733 1.07733C1.40277 0.751893 1.9304 0.751893 2.25584 1.07733L18.9225 17.744C19.2479 18.0694 19.2479 18.5971 18.9225 18.9225C18.5971 19.2479 18.0694 19.2479 17.744 18.9225L1.07733 2.25584C0.751893 1.9304 0.751893 1.40277 1.07733 1.07733Z" fill="black"/>
</g>
<defs>
<clipPath id="clip0_2001_7940">
<rect width="20" height="20" fill="white"/>
</clipPath>
</defs>
</svg>
