<svg width="20" height="20" viewBox="0 0 20 20" fill="none" xmlns="http://www.w3.org/2000/svg">
<path fill-rule="evenodd" clip-rule="evenodd" d="M13.3333 7.49992C12.2283 7.49992 11.1685 7.93891 10.3871 8.72031C9.60565 9.50171 9.16667 10.5615 9.16667 11.6666V16.6666H10.8333V11.6666C10.8333 11.0035 11.0967 10.3677 11.5656 9.89882C12.0344 9.42998 12.6703 9.16659 13.3333 9.16659C13.9964 9.16659 14.6323 9.42998 15.1011 9.89882C15.5699 10.3677 15.8333 11.0035 15.8333 11.6666V16.6666H17.5V11.6666C17.5 10.5615 17.061 9.50171 16.2796 8.72031C15.4982 7.93891 14.4384 7.49992 13.3333 7.49992ZM9.20854 7.5418C10.3025 6.44783 11.7862 5.83325 13.3333 5.83325C14.8804 5.83325 16.3642 6.44783 17.4581 7.5418C18.5521 8.63576 19.1667 10.1195 19.1667 11.6666V17.4999C19.1667 17.9602 18.7936 18.3333 18.3333 18.3333H15C14.5398 18.3333 14.1667 17.9602 14.1667 17.4999V11.6666C14.1667 11.4456 14.0789 11.2336 13.9226 11.0773C13.7663 10.921 13.5543 10.8333 13.3333 10.8333C13.1123 10.8333 12.9004 10.921 12.7441 11.0773C12.5878 11.2336 12.5 11.4456 12.5 11.6666V17.4999C12.5 17.9602 12.1269 18.3333 11.6667 18.3333H8.33333C7.8731 18.3333 7.5 17.9602 7.5 17.4999V11.6666C7.5 10.1195 8.11458 8.63576 9.20854 7.5418Z" fill="black"/>
<path fill-rule="evenodd" clip-rule="evenodd" d="M0.833252 7.50008C0.833252 7.03984 1.20635 6.66675 1.66659 6.66675H4.99992C5.46016 6.66675 5.83325 7.03984 5.83325 7.50008V17.5001C5.83325 17.9603 5.46016 18.3334 4.99992 18.3334H1.66659C1.20635 18.3334 0.833252 17.9603 0.833252 17.5001V7.50008ZM2.49992 8.33341V16.6667H4.16659V8.33341H2.49992Z" fill="black"/>
<path fill-rule="evenodd" clip-rule="evenodd" d="M3.33325 2.49992C2.87301 2.49992 2.49992 2.87301 2.49992 3.33325C2.49992 3.79349 2.87301 4.16659 3.33325 4.16659C3.79349 4.16659 4.16659 3.79349 4.16659 3.33325C4.16659 2.87301 3.79349 2.49992 3.33325 2.49992ZM0.833252 3.33325C0.833252 1.95254 1.95254 0.833252 3.33325 0.833252C4.71396 0.833252 5.83325 1.95254 5.83325 3.33325C5.83325 4.71396 4.71396 5.83325 3.33325 5.83325C1.95254 5.83325 0.833252 4.71396 0.833252 3.33325Z" fill="black"/>
</svg>
