<svg width="20" height="20" viewBox="0 0 20 20" fill="none" xmlns="http://www.w3.org/2000/svg">
<path fill-rule="evenodd" clip-rule="evenodd" d="M1.91083 3.57733C2.23626 3.25189 2.7639 3.25189 3.08934 3.57733L5.17267 5.66066C5.49811 5.9861 5.49811 6.51374 5.17267 6.83917L3.08934 8.92251C2.7639 9.24794 2.23626 9.24794 1.91083 8.92251C1.58539 8.59707 1.58539 8.06943 1.91083 7.744L3.4049 6.24992L1.91083 4.75584C1.58539 4.4304 1.58539 3.90277 1.91083 3.57733Z" fill="black"/>
<path fill-rule="evenodd" clip-rule="evenodd" d="M1.91083 11.0773C2.23626 10.7519 2.7639 10.7519 3.08934 11.0773L5.17267 13.1607C5.49811 13.4861 5.49811 14.0137 5.17267 14.3392L3.08934 16.4225C2.7639 16.7479 2.23626 16.7479 1.91083 16.4225C1.58539 16.0971 1.58539 15.5694 1.91083 15.244L3.4049 13.7499L1.91083 12.2558C1.58539 11.9304 1.58539 11.4028 1.91083 11.0773Z" fill="black"/>
<path fill-rule="evenodd" clip-rule="evenodd" d="M7.5 5.00008C7.5 4.53984 7.8731 4.16675 8.33333 4.16675H17.5C17.9602 4.16675 18.3333 4.53984 18.3333 5.00008C18.3333 5.46032 17.9602 5.83341 17.5 5.83341H8.33333C7.8731 5.83341 7.5 5.46032 7.5 5.00008Z" fill="black"/>
<path fill-rule="evenodd" clip-rule="evenodd" d="M7.5 10.0001C7.5 9.53984 7.8731 9.16675 8.33333 9.16675H17.5C17.9602 9.16675 18.3333 9.53984 18.3333 10.0001C18.3333 10.4603 17.9602 10.8334 17.5 10.8334H8.33333C7.8731 10.8334 7.5 10.4603 7.5 10.0001Z" fill="black"/>
<path fill-rule="evenodd" clip-rule="evenodd" d="M7.5 15.0001C7.5 14.5398 7.8731 14.1667 8.33333 14.1667H17.5C17.9602 14.1667 18.3333 14.5398 18.3333 15.0001C18.3333 15.4603 17.9602 15.8334 17.5 15.8334H8.33333C7.8731 15.8334 7.5 15.4603 7.5 15.0001Z" fill="black"/>
</svg>
