<svg width="20" height="20" viewBox="0 0 20 20" fill="none" xmlns="http://www.w3.org/2000/svg">
<path fill-rule="evenodd" clip-rule="evenodd" d="M7.5 10.0001C7.5 9.53984 7.8731 9.16675 8.33333 9.16675H17.5C17.9602 9.16675 18.3333 9.53984 18.3333 10.0001C18.3333 10.4603 17.9602 10.8334 17.5 10.8334H8.33333C7.8731 10.8334 7.5 10.4603 7.5 10.0001Z" fill="black"/>
<path fill-rule="evenodd" clip-rule="evenodd" d="M7.5 15.0001C7.5 14.5398 7.8731 14.1667 8.33333 14.1667H17.5C17.9602 14.1667 18.3333 14.5398 18.3333 15.0001C18.3333 15.4603 17.9602 15.8334 17.5 15.8334H8.33333C7.8731 15.8334 7.5 15.4603 7.5 15.0001Z" fill="black"/>
<path fill-rule="evenodd" clip-rule="evenodd" d="M7.5 5.00008C7.5 4.53984 7.8731 4.16675 8.33333 4.16675H17.5C17.9602 4.16675 18.3333 4.53984 18.3333 5.00008C18.3333 5.46032 17.9602 5.83341 17.5 5.83341H8.33333C7.8731 5.83341 7.5 5.46032 7.5 5.00008Z" fill="black"/>
<path fill-rule="evenodd" clip-rule="evenodd" d="M2.5 8.33333C2.5 7.8731 2.8731 7.5 3.33333 7.5H5C5.46024 7.5 5.83333 7.8731 5.83333 8.33333C5.83333 8.79357 5.46024 9.16667 5 9.16667H3.33333C2.8731 9.16667 2.5 8.79357 2.5 8.33333Z" fill="black"/>
<path fill-rule="evenodd" clip-rule="evenodd" d="M2.5 5.00008C2.5 4.53984 2.8731 4.16675 3.33333 4.16675H4.16667C4.6269 4.16675 5 4.53984 5 5.00008V8.33342C5 8.79365 4.6269 9.16675 4.16667 9.16675C3.70643 9.16675 3.33333 8.79365 3.33333 8.33342V5.83341C2.8731 5.83341 2.5 5.46032 2.5 5.00008Z" fill="black"/>
<path fill-rule="evenodd" clip-rule="evenodd" d="M4.85178 10.8691C5.45449 11.1705 5.83327 11.7765 5.83327 12.4999C5.83327 12.9801 5.59834 13.3687 5.40619 13.6249C5.26158 13.8177 5.08763 14.0035 4.92753 14.1666H4.99994C5.46018 14.1666 5.83327 14.5396 5.83327 14.9999C5.83327 15.4601 5.46018 15.8332 4.99994 15.8332H3.33327C2.87303 15.8332 2.49994 15.4601 2.49994 14.9999C2.49994 14.5196 2.73487 14.1311 2.92702 13.8749C3.11932 13.6185 3.36351 13.3744 3.558 13.18C3.56451 13.1735 3.57096 13.167 3.57735 13.1606C3.79658 12.9414 3.95908 12.7766 4.07286 12.6249C4.13569 12.5411 4.15846 12.4934 4.16589 12.476C4.16275 12.4258 4.15021 12.4016 4.14488 12.3928C4.1384 12.3822 4.12815 12.3707 4.10643 12.3598C4.06432 12.3388 3.92626 12.3018 3.70595 12.4119C3.2943 12.6177 2.79374 12.4509 2.58792 12.0392C2.38209 11.6276 2.54895 11.127 2.96059 10.9212C3.57362 10.6147 4.26889 10.5777 4.85178 10.8691Z" fill="black"/>
</svg>
