<svg width="20" height="20" viewBox="0 0 20 20" fill="none" xmlns="http://www.w3.org/2000/svg">
<path fill-rule="evenodd" clip-rule="evenodd" d="M1.66675 10.0001C1.66675 9.53984 2.03984 9.16675 2.50008 9.16675H13.3334C13.7937 9.16675 14.1667 9.53984 14.1667 10.0001C14.1667 10.4603 13.7937 10.8334 13.3334 10.8334H2.50008C2.03984 10.8334 1.66675 10.4603 1.66675 10.0001Z" fill="black"/>
<path fill-rule="evenodd" clip-rule="evenodd" d="M1.66675 5.00008C1.66675 4.53984 2.03984 4.16675 2.50008 4.16675H13.3334C13.7937 4.16675 14.1667 4.53984 14.1667 5.00008C14.1667 5.46032 13.7937 5.83341 13.3334 5.83341H2.50008C2.03984 5.83341 1.66675 5.46032 1.66675 5.00008Z" fill="black"/>
<path fill-rule="evenodd" clip-rule="evenodd" d="M1.66675 15.0001C1.66675 14.5398 2.03984 14.1667 2.50008 14.1667H8.33342C8.79365 14.1667 9.16675 14.5398 9.16675 15.0001C9.16675 15.4603 8.79365 15.8334 8.33342 15.8334H2.50008C2.03984 15.8334 1.66675 15.4603 1.66675 15.0001Z" fill="black"/>
<path fill-rule="evenodd" clip-rule="evenodd" d="M17.4999 4.16675C17.9602 4.16675 18.3333 4.53984 18.3333 5.00008V13.3334C18.3333 13.9965 18.0699 14.6323 17.601 15.1012C17.1322 15.57 16.4963 15.8334 15.8333 15.8334H11.6666C11.2063 15.8334 10.8333 15.4603 10.8333 15.0001C10.8333 14.5398 11.2063 14.1667 11.6666 14.1667H15.8333C16.0543 14.1667 16.2662 14.079 16.4225 13.9227C16.5788 13.7664 16.6666 13.5544 16.6666 13.3334V5.00008C16.6666 4.53984 17.0397 4.16675 17.4999 4.16675Z" fill="black"/>
<path fill-rule="evenodd" clip-rule="evenodd" d="M13.9225 12.7441C14.2479 13.0695 14.2479 13.5972 13.9225 13.9226L12.8451 15L13.9225 16.0774C14.2479 16.4028 14.2479 16.9305 13.9225 17.2559C13.5971 17.5814 13.0694 17.5814 12.744 17.2559L11.0773 15.5893C10.7519 15.2638 10.7519 14.7362 11.0773 14.4107L12.744 12.7441C13.0694 12.4186 13.5971 12.4186 13.9225 12.7441Z" fill="black"/>
</svg>
