<svg width="20" height="20" viewBox="0 0 20 20" fill="none" xmlns="http://www.w3.org/2000/svg">
<path fill-rule="evenodd" clip-rule="evenodd" d="M3.33341 4.99992V8.33325H6.66675V4.99992H3.33341ZM1.66675 4.99992C1.66675 4.07944 2.41294 3.33325 3.33341 3.33325H6.66675C7.58722 3.33325 8.33341 4.07944 8.33341 4.99992V8.33325C8.33341 9.25373 7.58722 9.99992 6.66675 9.99992H3.33341C2.41294 9.99992 1.66675 9.25373 1.66675 8.33325V4.99992Z" fill="black"/>
<path fill-rule="evenodd" clip-rule="evenodd" d="M8.08934 11.9108C8.41477 12.2363 8.41477 12.7639 8.08934 13.0893L4.756 16.4227C4.43057 16.7481 3.90293 16.7481 3.57749 16.4227L1.91083 14.756C1.58539 14.4306 1.58539 13.9029 1.91083 13.5775C2.23626 13.2521 2.7639 13.2521 3.08934 13.5775L4.16675 14.6549L6.91083 11.9108C7.23626 11.5854 7.7639 11.5854 8.08934 11.9108Z" fill="black"/>
<path fill-rule="evenodd" clip-rule="evenodd" d="M10 5.00008C10 4.53984 10.3731 4.16675 10.8333 4.16675H17.5C17.9602 4.16675 18.3333 4.53984 18.3333 5.00008C18.3333 5.46032 17.9602 5.83341 17.5 5.83341H10.8333C10.3731 5.83341 10 5.46032 10 5.00008Z" fill="black"/>
<path fill-rule="evenodd" clip-rule="evenodd" d="M10 10.0001C10 9.53984 10.3731 9.16675 10.8333 9.16675H17.5C17.9602 9.16675 18.3333 9.53984 18.3333 10.0001C18.3333 10.4603 17.9602 10.8334 17.5 10.8334H10.8333C10.3731 10.8334 10 10.4603 10 10.0001Z" fill="black"/>
<path fill-rule="evenodd" clip-rule="evenodd" d="M10 15.0001C10 14.5398 10.3731 14.1667 10.8333 14.1667H17.5C17.9602 14.1667 18.3333 14.5398 18.3333 15.0001C18.3333 15.4603 17.9602 15.8334 17.5 15.8334H10.8333C10.3731 15.8334 10 15.4603 10 15.0001Z" fill="black"/>
</svg>
