<svg width="20" height="20" viewBox="0 0 20 20" fill="none" xmlns="http://www.w3.org/2000/svg">
<path fill-rule="evenodd" clip-rule="evenodd" d="M1.66675 5.00008C1.66675 4.53984 2.03984 4.16675 2.50008 4.16675H17.5001C17.9603 4.16675 18.3334 4.53984 18.3334 5.00008C18.3334 5.46032 17.9603 5.83341 17.5001 5.83341H2.50008C2.03984 5.83341 1.66675 5.46032 1.66675 5.00008Z" fill="black"/>
<path fill-rule="evenodd" clip-rule="evenodd" d="M1.66675 10.0001C1.66675 9.53984 2.03984 9.16675 2.50008 9.16675H5.83342C6.29365 9.16675 6.66675 9.53984 6.66675 10.0001C6.66675 10.4603 6.29365 10.8334 5.83342 10.8334H2.50008C2.03984 10.8334 1.66675 10.4603 1.66675 10.0001Z" fill="black"/>
<path fill-rule="evenodd" clip-rule="evenodd" d="M1.66675 15.0001C1.66675 14.5398 2.03984 14.1667 2.50008 14.1667H5.83342C6.29365 14.1667 6.66675 14.5398 6.66675 15.0001C6.66675 15.4603 6.29365 15.8334 5.83342 15.8334H2.50008C2.03984 15.8334 1.66675 15.4603 1.66675 15.0001Z" fill="black"/>
<path fill-rule="evenodd" clip-rule="evenodd" d="M10.319 9.33583C11.1945 8.46028 12.4126 7.91675 13.7499 7.91675C14.9655 7.91675 16.1313 8.39963 16.9908 9.25918C17.8504 10.1187 18.3333 11.2845 18.3333 12.5001C18.3333 13.5495 18.0031 14.5723 17.3895 15.4236C16.7759 16.275 15.91 16.9116 14.9144 17.2435C13.9188 17.5754 12.8441 17.5855 11.8424 17.2726C10.8407 16.9597 9.9629 16.3396 9.33325 15.5001C9.05711 15.1319 9.13173 14.6096 9.49992 14.3334C9.86811 14.0573 10.3904 14.1319 10.6666 14.5001C11.0864 15.0598 11.6716 15.4732 12.3394 15.6818C13.0071 15.8904 13.7236 15.8836 14.3873 15.6624C15.0511 15.4411 15.6283 15.0167 16.0374 14.4491C16.4465 13.8816 16.6666 13.1997 16.6666 12.5001C16.6666 11.7265 16.3593 10.9847 15.8123 10.4377C15.2653 9.89071 14.5235 9.58341 13.7499 9.58341C12.8706 9.58341 12.072 9.93988 11.4975 10.5143L9.75584 12.256C9.4304 12.5814 8.90277 12.5814 8.57733 12.256C8.25189 11.9306 8.25189 11.4029 8.57733 11.0775L10.319 9.33583Z" fill="black"/>
<path fill-rule="evenodd" clip-rule="evenodd" d="M9.16659 7.5C9.62682 7.5 9.99992 7.8731 9.99992 8.33333V10.8333H12.4999C12.9602 10.8333 13.3333 11.2064 13.3333 11.6667C13.3333 12.1269 12.9602 12.5 12.4999 12.5H9.16659C8.70635 12.5 8.33325 12.1269 8.33325 11.6667V8.33333C8.33325 7.8731 8.70635 7.5 9.16659 7.5Z" fill="black"/>
</svg>
