<svg width="20" height="20" viewBox="0 0 20 20" fill="none" xmlns="http://www.w3.org/2000/svg">
<path fill-rule="evenodd" clip-rule="evenodd" d="M1.66675 10.0001C1.66675 9.53984 2.03984 9.16675 2.50008 9.16675H10.0001C10.4603 9.16675 10.8334 9.53984 10.8334 10.0001C10.8334 10.4603 10.4603 10.8334 10.0001 10.8334H2.50008C2.03984 10.8334 1.66675 10.4603 1.66675 10.0001Z" fill="black"/>
<path fill-rule="evenodd" clip-rule="evenodd" d="M1.66675 5.00008C1.66675 4.53984 2.03984 4.16675 2.50008 4.16675H13.3334C13.7937 4.16675 14.1667 4.53984 14.1667 5.00008C14.1667 5.46032 13.7937 5.83341 13.3334 5.83341H2.50008C2.03984 5.83341 1.66675 5.46032 1.66675 5.00008Z" fill="black"/>
<path fill-rule="evenodd" clip-rule="evenodd" d="M1.66675 15.0001C1.66675 14.5398 2.03984 14.1667 2.50008 14.1667H10.0001C10.4603 14.1667 10.8334 14.5398 10.8334 15.0001C10.8334 15.4603 10.4603 15.8334 10.0001 15.8334H2.50008C2.03984 15.8334 1.66675 15.4603 1.66675 15.0001Z" fill="black"/>
<path fill-rule="evenodd" clip-rule="evenodd" d="M12.9228 9.27491C13.184 9.12699 13.5046 9.13104 13.7621 9.2855L17.9287 11.7855C18.1798 11.9361 18.3333 12.2074 18.3333 12.5001C18.3333 12.7928 18.1798 13.0641 17.9287 13.2147L13.7621 15.7147C13.5046 15.8691 13.184 15.8732 12.9228 15.7252C12.6615 15.5773 12.5 15.3003 12.5 15.0001V10.0001C12.5 9.69985 12.6615 9.42284 12.9228 9.27491ZM14.1667 11.4719V13.5283L15.8803 12.5001L14.1667 11.4719Z" fill="black"/>
</svg>
