<svg width="20" height="20" viewBox="0 0 20 20" fill="none" xmlns="http://www.w3.org/2000/svg">
<path fill-rule="evenodd" clip-rule="evenodd" d="M1.66675 10.0001C1.66675 9.53984 2.03984 9.16675 2.50008 9.16675H13.3334C13.7937 9.16675 14.1667 9.53984 14.1667 10.0001C14.1667 10.4603 13.7937 10.8334 13.3334 10.8334H2.50008C2.03984 10.8334 1.66675 10.4603 1.66675 10.0001Z" fill="black"/>
<path fill-rule="evenodd" clip-rule="evenodd" d="M1.66675 15.0001C1.66675 14.5398 2.03984 14.1667 2.50008 14.1667H13.3334C13.7937 14.1667 14.1667 14.5398 14.1667 15.0001C14.1667 15.4603 13.7937 15.8334 13.3334 15.8334H2.50008C2.03984 15.8334 1.66675 15.4603 1.66675 15.0001Z" fill="black"/>
<path fill-rule="evenodd" clip-rule="evenodd" d="M1.66675 5.00008C1.66675 4.53984 2.03984 4.16675 2.50008 4.16675H8.33342C8.79365 4.16675 9.16675 4.53984 9.16675 5.00008C9.16675 5.46032 8.79365 5.83341 8.33342 5.83341H2.50008C2.03984 5.83341 1.66675 5.46032 1.66675 5.00008Z" fill="black"/>
<path fill-rule="evenodd" clip-rule="evenodd" d="M10.8333 5.00008C10.8333 4.53984 11.2063 4.16675 11.6666 4.16675H15.8333C16.4963 4.16675 17.1322 4.43014 17.601 4.89898C18.0699 5.36782 18.3333 6.00371 18.3333 6.66675V15.0001C18.3333 15.4603 17.9602 15.8334 17.4999 15.8334C17.0397 15.8334 16.6666 15.4603 16.6666 15.0001V6.66675C16.6666 6.44573 16.5788 6.23377 16.4225 6.07749C16.2662 5.92121 16.0543 5.83341 15.8333 5.83341H11.6666C11.2063 5.83341 10.8333 5.46032 10.8333 5.00008Z" fill="black"/>
<path fill-rule="evenodd" clip-rule="evenodd" d="M13.9225 2.74408C14.2479 3.06951 14.2479 3.59715 13.9225 3.92259L12.8451 5L13.9225 6.07741C14.2479 6.40285 14.2479 6.93049 13.9225 7.25592C13.5971 7.58136 13.0694 7.58136 12.744 7.25592L11.0773 5.58926C10.7519 5.26382 10.7519 4.73618 11.0773 4.41074L12.744 2.74408C13.0694 2.41864 13.5971 2.41864 13.9225 2.74408Z" fill="black"/>
</svg>
