<svg width="20" height="20" viewBox="0 0 20 20" fill="none" xmlns="http://www.w3.org/2000/svg">
<path fill-rule="evenodd" clip-rule="evenodd" d="M1.66675 10.0001C1.66675 9.53984 2.03984 9.16675 2.50008 9.16675H9.16675C9.62698 9.16675 10.0001 9.53984 10.0001 10.0001C10.0001 10.4603 9.62698 10.8334 9.16675 10.8334H2.50008C2.03984 10.8334 1.66675 10.4603 1.66675 10.0001Z" fill="black"/>
<path fill-rule="evenodd" clip-rule="evenodd" d="M1.66675 5.00008C1.66675 4.53984 2.03984 4.16675 2.50008 4.16675H13.3334C13.7937 4.16675 14.1667 4.53984 14.1667 5.00008C14.1667 5.46032 13.7937 5.83341 13.3334 5.83341H2.50008C2.03984 5.83341 1.66675 5.46032 1.66675 5.00008Z" fill="black"/>
<path fill-rule="evenodd" clip-rule="evenodd" d="M1.66675 15.0001C1.66675 14.5398 2.03984 14.1667 2.50008 14.1667H13.3334C13.7937 14.1667 14.1667 14.5398 14.1667 15.0001C14.1667 15.4603 13.7937 15.8334 13.3334 15.8334H2.50008C2.03984 15.8334 1.66675 15.4603 1.66675 15.0001Z" fill="black"/>
<path fill-rule="evenodd" clip-rule="evenodd" d="M15.0001 6.66675C15.4603 6.66675 15.8334 7.03984 15.8334 7.50008V12.5001C15.8334 12.9603 15.4603 13.3334 15.0001 13.3334C14.5398 13.3334 14.1667 12.9603 14.1667 12.5001V7.50008C14.1667 7.03984 14.5398 6.66675 15.0001 6.66675Z" fill="black"/>
<path fill-rule="evenodd" clip-rule="evenodd" d="M11.6667 10.0001C11.6667 9.53984 12.0398 9.16675 12.5001 9.16675H17.5001C17.9603 9.16675 18.3334 9.53984 18.3334 10.0001C18.3334 10.4603 17.9603 10.8334 17.5001 10.8334H12.5001C12.0398 10.8334 11.6667 10.4603 11.6667 10.0001Z" fill="black"/>
</svg>
