<svg width="20" height="20" viewBox="0 0 20 20" fill="none" xmlns="http://www.w3.org/2000/svg">
<path fill-rule="evenodd" clip-rule="evenodd" d="M1.66675 10.0001C1.66675 9.53984 2.03984 9.16675 2.50008 9.16675H2.50841C2.96865 9.16675 3.34175 9.53984 3.34175 10.0001C3.34175 10.4603 2.96865 10.8334 2.50841 10.8334H2.50008C2.03984 10.8334 1.66675 10.4603 1.66675 10.0001Z" fill="black"/>
<path fill-rule="evenodd" clip-rule="evenodd" d="M1.66675 15.0001C1.66675 14.5398 2.03984 14.1667 2.50008 14.1667H2.50841C2.96865 14.1667 3.34175 14.5398 3.34175 15.0001C3.34175 15.4603 2.96865 15.8334 2.50841 15.8334H2.50008C2.03984 15.8334 1.66675 15.4603 1.66675 15.0001Z" fill="black"/>
<path fill-rule="evenodd" clip-rule="evenodd" d="M1.66675 5.00008C1.66675 4.53984 2.03984 4.16675 2.50008 4.16675H2.50841C2.96865 4.16675 3.34175 4.53984 3.34175 5.00008C3.34175 5.46032 2.96865 5.83341 2.50841 5.83341H2.50008C2.03984 5.83341 1.66675 5.46032 1.66675 5.00008Z" fill="black"/>
<path fill-rule="evenodd" clip-rule="evenodd" d="M5.83325 10.0001C5.83325 9.53984 6.20635 9.16675 6.66659 9.16675H17.4999C17.9602 9.16675 18.3333 9.53984 18.3333 10.0001C18.3333 10.4603 17.9602 10.8334 17.4999 10.8334H6.66659C6.20635 10.8334 5.83325 10.4603 5.83325 10.0001Z" fill="black"/>
<path fill-rule="evenodd" clip-rule="evenodd" d="M5.83325 15.0001C5.83325 14.5398 6.20635 14.1667 6.66659 14.1667H17.4999C17.9602 14.1667 18.3333 14.5398 18.3333 15.0001C18.3333 15.4603 17.9602 15.8334 17.4999 15.8334H6.66659C6.20635 15.8334 5.83325 15.4603 5.83325 15.0001Z" fill="black"/>
<path fill-rule="evenodd" clip-rule="evenodd" d="M5.83325 5.00008C5.83325 4.53984 6.20635 4.16675 6.66659 4.16675H17.4999C17.9602 4.16675 18.3333 4.53984 18.3333 5.00008C18.3333 5.46032 17.9602 5.83341 17.4999 5.83341H6.66659C6.20635 5.83341 5.83325 5.46032 5.83325 5.00008Z" fill="black"/>
</svg>
