<svg width="20" height="20" viewBox="0 0 20 20" fill="none" xmlns="http://www.w3.org/2000/svg">
<path fill-rule="evenodd" clip-rule="evenodd" d="M1.66675 15.0001C1.66675 14.5398 2.03984 14.1667 2.50008 14.1667H9.16675C9.62698 14.1667 10.0001 14.5398 10.0001 15.0001C10.0001 15.4603 9.62698 15.8334 9.16675 15.8334H2.50008C2.03984 15.8334 1.66675 15.4603 1.66675 15.0001Z" fill="black"/>
<path fill-rule="evenodd" clip-rule="evenodd" d="M18.0893 12.7441C18.4148 13.0695 18.4148 13.5972 18.0893 13.9226L14.756 17.2559C14.4306 17.5814 13.9029 17.5814 13.5775 17.2559L11.9108 15.5893C11.5854 15.2638 11.5854 14.7362 11.9108 14.4107C12.2363 14.0853 12.7639 14.0853 13.0893 14.4107L14.1667 15.4882L16.9108 12.7441C17.2363 12.4186 17.7639 12.4186 18.0893 12.7441Z" fill="black"/>
<path fill-rule="evenodd" clip-rule="evenodd" d="M1.66675 10.0001C1.66675 9.53984 2.03984 9.16675 2.50008 9.16675H13.3334C13.7937 9.16675 14.1667 9.53984 14.1667 10.0001C14.1667 10.4603 13.7937 10.8334 13.3334 10.8334H2.50008C2.03984 10.8334 1.66675 10.4603 1.66675 10.0001Z" fill="black"/>
<path fill-rule="evenodd" clip-rule="evenodd" d="M1.66675 5.00008C1.66675 4.53984 2.03984 4.16675 2.50008 4.16675H13.3334C13.7937 4.16675 14.1667 4.53984 14.1667 5.00008C14.1667 5.46032 13.7937 5.83341 13.3334 5.83341H2.50008C2.03984 5.83341 1.66675 5.46032 1.66675 5.00008Z" fill="black"/>
</svg>
