<svg width="20" height="20" viewBox="0 0 20 20" fill="none" xmlns="http://www.w3.org/2000/svg">
<path fill-rule="evenodd" clip-rule="evenodd" d="M1.66675 5.00008C1.66675 4.53984 2.03984 4.16675 2.50008 4.16675H17.5001C17.9603 4.16675 18.3334 4.53984 18.3334 5.00008C18.3334 5.46032 17.9603 5.83341 17.5001 5.83341H2.50008C2.03984 5.83341 1.66675 5.46032 1.66675 5.00008Z" fill="black"/>
<path fill-rule="evenodd" clip-rule="evenodd" d="M5 10.0001C5 9.53984 5.3731 9.16675 5.83333 9.16675H14.1667C14.6269 9.16675 15 9.53984 15 10.0001C15 10.4603 14.6269 10.8334 14.1667 10.8334H5.83333C5.3731 10.8334 5 10.4603 5 10.0001Z" fill="black"/>
<path fill-rule="evenodd" clip-rule="evenodd" d="M7.5 15.0001C7.5 14.5398 7.8731 14.1667 8.33333 14.1667H11.6667C12.1269 14.1667 12.5 14.5398 12.5 15.0001C12.5 15.4603 12.1269 15.8334 11.6667 15.8334H8.33333C7.8731 15.8334 7.5 15.4603 7.5 15.0001Z" fill="black"/>
</svg>
