<svg width="20" height="20" viewBox="0 0 20 20" fill="none" xmlns="http://www.w3.org/2000/svg">
<path fill-rule="evenodd" clip-rule="evenodd" d="M17.5001 4.16675C17.9603 4.16675 18.3334 4.53984 18.3334 5.00008V12.5001C18.3334 12.9603 17.9603 13.3334 17.5001 13.3334C17.0398 13.3334 16.6667 12.9603 16.6667 12.5001V5.00008C16.6667 4.53984 17.0398 4.16675 17.5001 4.16675Z" fill="black"/>
<path fill-rule="evenodd" clip-rule="evenodd" d="M13.3543 10.8543C13.9013 10.3073 14.6431 10 15.4167 10C16.1902 10 16.9321 10.3073 17.4791 10.8543C18.026 11.4013 18.3333 12.1431 18.3333 12.9167C18.3333 13.6902 18.026 14.4321 17.4791 14.9791C16.9321 15.526 16.1902 15.8333 15.4167 15.8333C14.6431 15.8333 13.9013 15.526 13.3543 14.9791C12.8073 14.4321 12.5 13.6902 12.5 12.9167C12.5 12.1431 12.8073 11.4013 13.3543 10.8543ZM15.4167 11.6667C15.0851 11.6667 14.7672 11.7984 14.5328 12.0328C14.2984 12.2672 14.1667 12.5851 14.1667 12.9167C14.1667 13.2482 14.2984 13.5661 14.5328 13.8006C14.7672 14.035 15.0851 14.1667 15.4167 14.1667C15.7482 14.1667 16.0661 14.035 16.3006 13.8006C16.535 13.5661 16.6667 13.2482 16.6667 12.9167C16.6667 12.5851 16.535 12.2672 16.3006 12.0328C16.0661 11.7984 15.7482 11.6667 15.4167 11.6667Z" fill="black"/>
<path fill-rule="evenodd" clip-rule="evenodd" d="M1.66675 10.0001C1.66675 9.53984 2.03984 9.16675 2.50008 9.16675H10.0001C10.4603 9.16675 10.8334 9.53984 10.8334 10.0001C10.8334 10.4603 10.4603 10.8334 10.0001 10.8334H2.50008C2.03984 10.8334 1.66675 10.4603 1.66675 10.0001Z" fill="black"/>
<path fill-rule="evenodd" clip-rule="evenodd" d="M1.66675 5.00008C1.66675 4.53984 2.03984 4.16675 2.50008 4.16675H13.3334C13.7937 4.16675 14.1667 4.53984 14.1667 5.00008C14.1667 5.46032 13.7937 5.83341 13.3334 5.83341H2.50008C2.03984 5.83341 1.66675 5.46032 1.66675 5.00008Z" fill="black"/>
<path fill-rule="evenodd" clip-rule="evenodd" d="M1.66675 15.0001C1.66675 14.5398 2.03984 14.1667 2.50008 14.1667H10.0001C10.4603 14.1667 10.8334 14.5398 10.8334 15.0001C10.8334 15.4603 10.4603 15.8334 10.0001 15.8334H2.50008C2.03984 15.8334 1.66675 15.4603 1.66675 15.0001Z" fill="black"/>
</svg>
