<svg width="20" height="20" viewBox="0 0 20 20" fill="none" xmlns="http://www.w3.org/2000/svg">
<path fill-rule="evenodd" clip-rule="evenodd" d="M1.66675 10.0001C1.66675 9.53984 2.03984 9.16675 2.50008 9.16675H9.16675C9.62698 9.16675 10.0001 9.53984 10.0001 10.0001C10.0001 10.4603 9.62698 10.8334 9.16675 10.8334H2.50008C2.03984 10.8334 1.66675 10.4603 1.66675 10.0001Z" fill="black"/>
<path fill-rule="evenodd" clip-rule="evenodd" d="M1.66675 5.00008C1.66675 4.53984 2.03984 4.16675 2.50008 4.16675H13.3334C13.7937 4.16675 14.1667 4.53984 14.1667 5.00008C14.1667 5.46032 13.7937 5.83341 13.3334 5.83341H2.50008C2.03984 5.83341 1.66675 5.46032 1.66675 5.00008Z" fill="black"/>
<path fill-rule="evenodd" clip-rule="evenodd" d="M1.66675 15.0001C1.66675 14.5398 2.03984 14.1667 2.50008 14.1667H13.3334C13.7937 14.1667 14.1667 14.5398 14.1667 15.0001C14.1667 15.4603 13.7937 15.8334 13.3334 15.8334H2.50008C2.03984 15.8334 1.66675 15.4603 1.66675 15.0001Z" fill="black"/>
<path fill-rule="evenodd" clip-rule="evenodd" d="M16.4227 7.74408C16.7481 8.06951 16.7481 8.59715 16.4227 8.92259L13.0893 12.2559C12.7639 12.5814 12.2363 12.5814 11.9108 12.2559C11.5854 11.9305 11.5854 11.4028 11.9108 11.0774L15.2442 7.74408C15.5696 7.41864 16.0972 7.41864 16.4227 7.74408Z" fill="black"/>
<path fill-rule="evenodd" clip-rule="evenodd" d="M11.9108 7.74408C12.2363 7.41864 12.7639 7.41864 13.0893 7.74408L16.4227 11.0774C16.7481 11.4028 16.7481 11.9305 16.4227 12.2559C16.0972 12.5814 15.5696 12.5814 15.2442 12.2559L11.9108 8.92259C11.5854 8.59715 11.5854 8.06951 11.9108 7.74408Z" fill="black"/>
</svg>
