<svg width="20" height="20" viewBox="0 0 20 20" fill="none" xmlns="http://www.w3.org/2000/svg">
<path fill-rule="evenodd" clip-rule="evenodd" d="M10 10.0001C10 9.53984 10.3731 9.16675 10.8333 9.16675H17.5C17.9602 9.16675 18.3333 9.53984 18.3333 10.0001C18.3333 10.4603 17.9602 10.8334 17.5 10.8334H10.8333C10.3731 10.8334 10 10.4603 10 10.0001Z" fill="black"/>
<path fill-rule="evenodd" clip-rule="evenodd" d="M5.83325 5.00008C5.83325 4.53984 6.20635 4.16675 6.66659 4.16675H17.4999C17.9602 4.16675 18.3333 4.53984 18.3333 5.00008C18.3333 5.46032 17.9602 5.83341 17.4999 5.83341H6.66659C6.20635 5.83341 5.83325 5.46032 5.83325 5.00008Z" fill="black"/>
<path fill-rule="evenodd" clip-rule="evenodd" d="M10 15.0001C10 14.5398 10.3731 14.1667 10.8333 14.1667H17.5C17.9602 14.1667 18.3333 14.5398 18.3333 15.0001C18.3333 15.4603 17.9602 15.8334 17.5 15.8334H10.8333C10.3731 15.8334 10 15.4603 10 15.0001Z" fill="black"/>
<path fill-rule="evenodd" clip-rule="evenodd" d="M2.50008 4.16675C2.96032 4.16675 3.33341 4.53984 3.33341 5.00008V8.33341C3.33341 8.78984 3.71032 9.16675 4.16675 9.16675H6.66675C7.12699 9.16675 7.50008 9.53984 7.50008 10.0001C7.50008 10.4603 7.12699 10.8334 6.66675 10.8334H4.16675C2.78984 10.8334 1.66675 9.71032 1.66675 8.33341V5.00008C1.66675 4.53984 2.03984 4.16675 2.50008 4.16675Z" fill="black"/>
<path fill-rule="evenodd" clip-rule="evenodd" d="M2.50008 7.5C2.96032 7.5 3.33341 7.8731 3.33341 8.33333V13.3333C3.33341 13.7898 3.71032 14.1667 4.16675 14.1667H6.66675C7.12699 14.1667 7.50008 14.5398 7.50008 15C7.50008 15.4602 7.12699 15.8333 6.66675 15.8333H4.16675C2.78984 15.8333 1.66675 14.7102 1.66675 13.3333V8.33333C1.66675 7.8731 2.03984 7.5 2.50008 7.5Z" fill="black"/>
</svg>
