<svg width="20" height="20" viewBox="0 0 20 20" fill="none" xmlns="http://www.w3.org/2000/svg">
<g clip-path="url(#clip0_2001_8056)">
<path fill-rule="evenodd" clip-rule="evenodd" d="M10.0001 0.833252C10.4603 0.833252 10.8334 1.20635 10.8334 1.66659V4.99992C10.8334 5.46016 10.4603 5.83325 10.0001 5.83325C9.53984 5.83325 9.16675 5.46016 9.16675 4.99992V1.66659C9.16675 1.20635 9.53984 0.833252 10.0001 0.833252Z" fill="black"/>
<path fill-rule="evenodd" clip-rule="evenodd" d="M16.5058 3.49408C16.8312 3.81951 16.8312 4.34715 16.5058 4.67259L14.0891 7.08926C13.7637 7.41469 13.236 7.41469 12.9106 7.08926C12.5851 6.76382 12.5851 6.23618 12.9106 5.91074L15.3272 3.49408C15.6527 3.16864 16.1803 3.16864 16.5058 3.49408Z" fill="black"/>
<path fill-rule="evenodd" clip-rule="evenodd" d="M14.1667 10.0001C14.1667 9.53984 14.5398 9.16675 15.0001 9.16675H18.3334C18.7937 9.16675 19.1667 9.53984 19.1667 10.0001C19.1667 10.4603 18.7937 10.8334 18.3334 10.8334H15.0001C14.5398 10.8334 14.1667 10.4603 14.1667 10.0001Z" fill="black"/>
<path fill-rule="evenodd" clip-rule="evenodd" d="M12.9106 12.9108C13.236 12.5854 13.7637 12.5854 14.0891 12.9108L16.5058 15.3275C16.8312 15.6529 16.8312 16.1806 16.5058 16.506C16.1803 16.8314 15.6527 16.8314 15.3272 16.506L12.9106 14.0893C12.5851 13.7639 12.5851 13.2363 12.9106 12.9108Z" fill="black"/>
<path fill-rule="evenodd" clip-rule="evenodd" d="M10.0001 14.1667C10.4603 14.1667 10.8334 14.5398 10.8334 15.0001V18.3334C10.8334 18.7937 10.4603 19.1667 10.0001 19.1667C9.53984 19.1667 9.16675 18.7937 9.16675 18.3334V15.0001C9.16675 14.5398 9.53984 14.1667 10.0001 14.1667Z" fill="black"/>
<path fill-rule="evenodd" clip-rule="evenodd" d="M7.08926 12.9108C7.41469 13.2363 7.41469 13.7639 7.08926 14.0893L4.67259 16.506C4.34715 16.8314 3.81951 16.8314 3.49408 16.506C3.16864 16.1806 3.16864 15.6529 3.49408 15.3275L5.91074 12.9108C6.23618 12.5854 6.76382 12.5854 7.08926 12.9108Z" fill="black"/>
<path fill-rule="evenodd" clip-rule="evenodd" d="M0.833252 10.0001C0.833252 9.53984 1.20635 9.16675 1.66659 9.16675H4.99992C5.46016 9.16675 5.83325 9.53984 5.83325 10.0001C5.83325 10.4603 5.46016 10.8334 4.99992 10.8334H1.66659C1.20635 10.8334 0.833252 10.4603 0.833252 10.0001Z" fill="black"/>
<path fill-rule="evenodd" clip-rule="evenodd" d="M3.49408 3.49408C3.81951 3.16864 4.34715 3.16864 4.67259 3.49408L7.08926 5.91074C7.41469 6.23618 7.41469 6.76382 7.08926 7.08926C6.76382 7.41469 6.23618 7.41469 5.91074 7.08926L3.49408 4.67259C3.16864 4.34715 3.16864 3.81951 3.49408 3.49408Z" fill="black"/>
</g>
<defs>
<clipPath id="clip0_2001_8056">
<rect width="20" height="20" fill="white"/>
</clipPath>
</defs>
</svg>
