<svg width="20" height="20" viewBox="0 0 20 20" fill="none" xmlns="http://www.w3.org/2000/svg">
<path fill-rule="evenodd" clip-rule="evenodd" d="M12.0601 3.65918C10.7211 3.22416 9.27884 3.22418 7.93991 3.65924C6.60097 4.0943 5.43414 4.94206 4.60663 6.08103C3.77912 7.22 3.33342 8.5917 3.33341 9.99955C3.3334 11.4074 3.77908 12.7791 4.60657 13.9181C5.43406 15.0571 6.60089 15.9048 7.93982 16.3399C9.27874 16.775 10.721 16.775 12.06 16.34C13.3989 15.905 14.5658 15.0573 15.3934 13.9184C16.2209 12.7794 16.6667 11.4078 16.6667 9.99992C16.6668 9.53968 17.0399 9.1666 17.5001 9.16663C17.9604 9.16665 18.3334 9.53976 18.3334 10C18.3333 11.7598 17.7761 13.4744 16.7417 14.8981C15.7072 16.3217 14.2487 17.3814 12.575 17.9251C10.9013 18.4689 9.09841 18.4689 7.42475 17.925C5.75109 17.3812 4.29256 16.3214 3.2582 14.8977C2.22383 13.474 1.66674 11.7593 1.66675 9.99953C1.66676 8.23973 2.22388 6.5251 3.25827 5.10139C4.29265 3.67768 5.7512 2.61797 7.42486 2.07415C9.09853 1.53032 10.9014 1.5303 12.5751 2.07408C13.0128 2.21629 13.2523 2.68641 13.1101 3.12413C12.9679 3.56184 12.4978 3.80139 12.0601 3.65918Z" fill="black"/>
</svg>
