<svg width="20" height="20" viewBox="0 0 20 20" fill="none" xmlns="http://www.w3.org/2000/svg">
<g clip-path="url(#clip0_2001_8051)">
<path fill-rule="evenodd" clip-rule="evenodd" d="M2.29772 6.46447C3.2354 5.52678 4.50717 5 5.83325 5C7.15933 5 8.43111 5.52678 9.36879 6.46447C10.3065 7.40215 10.8333 8.67392 10.8333 10C10.8333 10.8841 11.1844 11.7319 11.8096 12.357C12.4347 12.9821 13.2825 13.3333 14.1666 13.3333C15.0506 13.3333 15.8985 12.9821 16.5236 12.357C17.1487 11.7319 17.4999 10.8841 17.4999 10C17.4999 9.53976 17.873 9.16667 18.3333 9.16667C18.7935 9.16667 19.1666 9.53976 19.1666 10C19.1666 11.3261 18.6398 12.5979 17.7021 13.5355C16.7644 14.4732 15.4927 15 14.1666 15C12.8405 15 11.5687 14.4732 10.6311 13.5355C9.69337 12.5979 9.16659 11.3261 9.16659 10C9.16659 9.11595 8.8154 8.2681 8.19027 7.64298C7.56515 7.01786 6.71731 6.66667 5.83325 6.66667C4.9492 6.66667 4.10135 7.01786 3.47623 7.64298C2.85111 8.2681 2.49992 9.11595 2.49992 10C2.49992 10.4602 2.12682 10.8333 1.66659 10.8333C1.20635 10.8333 0.833252 10.4602 0.833252 10C0.833252 8.67392 1.36004 7.40215 2.29772 6.46447Z" fill="black"/>
<path fill-rule="evenodd" clip-rule="evenodd" d="M13.4463 2.41438C13.6776 2.0165 14.1877 1.88148 14.5856 2.1128C15.1507 2.44139 15.6457 2.87809 16.0421 3.39795C16.4385 3.91781 16.7286 4.51067 16.8959 5.14266C17.0632 5.77465 17.1044 6.4334 17.0171 7.0813C16.9298 7.7292 16.7157 8.35357 16.3871 8.91874C16.0585 9.48392 15.6218 9.97884 15.102 10.3753C14.5821 10.7717 13.9893 11.0618 13.3573 11.2291C12.7253 11.3964 12.0665 11.4376 11.4186 11.3503C10.7715 11.2631 10.1478 11.0494 9.58317 10.7215C8.81373 10.2798 7.90041 10.1617 7.04386 10.393C6.18671 10.6245 5.45663 11.187 5.01422 11.9568C4.57181 12.7266 4.45332 13.6406 4.68481 14.4977C4.91631 15.3549 5.47882 16.085 6.24861 16.5274C6.64764 16.7567 6.78521 17.2661 6.55588 17.6651C6.32656 18.0642 5.81717 18.2017 5.41814 17.9724C4.2651 17.3097 3.42254 16.2162 3.0758 14.9323C2.72905 13.6484 2.90653 12.2794 3.56919 11.1263C4.23186 9.97329 5.32542 9.13073 6.60931 8.78398C7.8932 8.43724 9.26225 8.61472 10.4153 9.27738C10.4165 9.27808 10.4177 9.27877 10.4189 9.27947C10.7949 9.49805 11.2102 9.64045 11.6412 9.69851C12.0722 9.75658 12.5104 9.7292 12.9308 9.61791C13.3512 9.50663 13.7456 9.31363 14.0914 9.04993C14.4372 8.78623 14.7277 8.45701 14.9463 8.08104C15.1649 7.70508 15.3073 7.28975 15.3653 6.85875C15.4234 6.42776 15.396 5.98955 15.2847 5.56914C15.1734 5.14874 14.9804 4.75436 14.7167 4.40854C14.453 4.06273 14.1238 3.77223 13.7479 3.55365C13.35 3.32232 13.215 2.81225 13.4463 2.41438Z" fill="black"/>
<path fill-rule="evenodd" clip-rule="evenodd" d="M8.76398 3.13192C7.91492 2.90717 7.01137 3.02891 6.25208 3.47036C5.8542 3.70168 5.34413 3.56667 5.1128 3.16879C4.88148 2.77091 5.0165 2.26084 5.41438 2.02951C6.5558 1.36589 7.9141 1.18288 9.19046 1.52074C10.4668 1.8586 11.5567 2.68966 12.2203 3.83109C12.8839 4.97251 13.0669 6.33081 12.7291 7.60717C12.3912 8.88353 11.5602 9.9734 10.4187 10.637C9.65945 11.0785 9.10662 11.8035 8.88188 12.6525C8.65713 13.5016 8.77887 14.4051 9.22032 15.1644C9.66176 15.9237 10.3868 16.4765 11.2358 16.7013C12.0849 16.926 12.9884 16.8043 13.7477 16.3628C14.1456 16.1315 14.6557 16.2665 14.887 16.6644C15.1183 17.0623 14.9833 17.5724 14.5854 17.8037C13.444 18.4673 12.0857 18.6503 10.8093 18.3125C9.53296 17.9746 8.44309 17.1435 7.77947 16.0021C7.11585 14.8607 6.93284 13.5024 7.2707 12.226C7.60856 10.9497 8.43961 9.8598 9.58104 9.19618C10.3403 8.75473 10.8932 8.02974 11.1179 7.18069C11.3427 6.33163 11.2209 5.42808 10.7795 4.66879C10.338 3.9095 9.61303 3.35667 8.76398 3.13192Z" fill="black"/>
<path fill-rule="evenodd" clip-rule="evenodd" d="M9.99992 2.49992C5.85778 2.49992 2.49992 5.85778 2.49992 9.99992C2.49992 14.1421 5.85778 17.4999 9.99992 17.4999C14.1421 17.4999 17.4999 14.1421 17.4999 9.99992C17.4999 5.85778 14.1421 2.49992 9.99992 2.49992ZM0.833252 9.99992C0.833252 4.93731 4.93731 0.833252 9.99992 0.833252C15.0625 0.833252 19.1666 4.93731 19.1666 9.99992C19.1666 15.0625 15.0625 19.1666 9.99992 19.1666C4.93731 19.1666 0.833252 15.0625 0.833252 9.99992Z" fill="black"/>
</g>
<defs>
<clipPath id="clip0_2001_8051">
<rect width="20" height="20" fill="white"/>
</clipPath>
</defs>
</svg>
