<svg width="20" height="20" viewBox="0 0 20 20" fill="none" xmlns="http://www.w3.org/2000/svg">
<g clip-path="url(#clip0_2001_8065)">
<path fill-rule="evenodd" clip-rule="evenodd" d="M0.833252 10.0001C0.833252 9.53984 1.20635 9.16675 1.66659 9.16675H4.16658C4.62682 9.16675 4.99992 9.53984 4.99992 10.0001C4.99992 10.4603 4.62682 10.8334 4.16658 10.8334H1.66659C1.20635 10.8334 0.833252 10.4603 0.833252 10.0001Z" fill="black"/>
<path fill-rule="evenodd" clip-rule="evenodd" d="M15 10.0001C15 9.53984 15.3731 9.16675 15.8333 9.16675H18.3333C18.7936 9.16675 19.1667 9.53984 19.1667 10.0001C19.1667 10.4603 18.7936 10.8334 18.3333 10.8334H15.8333C15.3731 10.8334 15 10.4603 15 10.0001Z" fill="black"/>
<path fill-rule="evenodd" clip-rule="evenodd" d="M10.0001 0.833252C10.4603 0.833252 10.8334 1.20635 10.8334 1.66659V4.16658C10.8334 4.62682 10.4603 4.99992 10.0001 4.99992C9.53984 4.99992 9.16675 4.62682 9.16675 4.16658V1.66659C9.16675 1.20635 9.53984 0.833252 10.0001 0.833252Z" fill="black"/>
<path fill-rule="evenodd" clip-rule="evenodd" d="M10.0001 15C10.4603 15 10.8334 15.3731 10.8334 15.8333V18.3333C10.8334 18.7936 10.4603 19.1667 10.0001 19.1667C9.53984 19.1667 9.16675 18.7936 9.16675 18.3333V15.8333C9.16675 15.3731 9.53984 15 10.0001 15Z" fill="black"/>
<path fill-rule="evenodd" clip-rule="evenodd" d="M9.99992 4.99992C7.23849 4.99992 4.99992 7.23849 4.99992 9.99992C4.99992 12.7613 7.23849 14.9999 9.99992 14.9999C12.7613 14.9999 14.9999 12.7613 14.9999 9.99992C14.9999 7.23849 12.7613 4.99992 9.99992 4.99992ZM3.33325 9.99992C3.33325 6.31802 6.31802 3.33325 9.99992 3.33325C13.6818 3.33325 16.6666 6.31802 16.6666 9.99992C16.6666 13.6818 13.6818 16.6666 9.99992 16.6666C6.31802 16.6666 3.33325 13.6818 3.33325 9.99992Z" fill="black"/>
<path fill-rule="evenodd" clip-rule="evenodd" d="M10.0001 8.33341C9.07961 8.33341 8.33341 9.07961 8.33341 10.0001C8.33341 10.9206 9.07961 11.6667 10.0001 11.6667C10.9206 11.6667 11.6667 10.9206 11.6667 10.0001C11.6667 9.07961 10.9206 8.33341 10.0001 8.33341ZM6.66675 10.0001C6.66675 8.15913 8.15913 6.66675 10.0001 6.66675C11.841 6.66675 13.3334 8.15913 13.3334 10.0001C13.3334 11.841 11.841 13.3334 10.0001 13.3334C8.15913 13.3334 6.66675 11.841 6.66675 10.0001Z" fill="black"/>
</g>
<defs>
<clipPath id="clip0_2001_8065">
<rect width="20" height="20" fill="white"/>
</clipPath>
</defs>
</svg>
