<svg width="20" height="20" viewBox="0 0 20 20" fill="none" xmlns="http://www.w3.org/2000/svg">
<g clip-path="url(#clip0_2001_8072)">
<path fill-rule="evenodd" clip-rule="evenodd" d="M0.833252 10.0001C0.833252 9.53984 1.20635 9.16675 1.66659 9.16675H4.16658C4.62682 9.16675 4.99992 9.53984 4.99992 10.0001C4.99992 10.4603 4.62682 10.8334 4.16658 10.8334H1.66659C1.20635 10.8334 0.833252 10.4603 0.833252 10.0001Z" fill="black"/>
<path fill-rule="evenodd" clip-rule="evenodd" d="M15 10.0001C15 9.53984 15.3731 9.16675 15.8333 9.16675H18.3333C18.7936 9.16675 19.1667 9.53984 19.1667 10.0001C19.1667 10.4603 18.7936 10.8334 18.3333 10.8334H15.8333C15.3731 10.8334 15 10.4603 15 10.0001Z" fill="black"/>
<path fill-rule="evenodd" clip-rule="evenodd" d="M10.0001 0.833252C10.4603 0.833252 10.8334 1.20635 10.8334 1.66659V4.16658C10.8334 4.62682 10.4603 4.99992 10.0001 4.99992C9.53984 4.99992 9.16675 4.62682 9.16675 4.16658V1.66659C9.16675 1.20635 9.53984 0.833252 10.0001 0.833252Z" fill="black"/>
<path fill-rule="evenodd" clip-rule="evenodd" d="M10.0001 15C10.4603 15 10.8334 15.3731 10.8334 15.8333V18.3333C10.8334 18.7936 10.4603 19.1667 10.0001 19.1667C9.53984 19.1667 9.16675 18.7936 9.16675 18.3333V15.8333C9.16675 15.3731 9.53984 15 10.0001 15Z" fill="black"/>
<path fill-rule="evenodd" clip-rule="evenodd" d="M6.51417 5.33563C6.83961 5.66107 6.83961 6.1887 6.51417 6.51414C5.58065 7.44766 4.99992 8.66827 4.99992 9.99989C4.99992 12.7646 7.23516 14.9999 9.99992 14.9999C11.3315 14.9999 12.5521 14.4192 13.4857 13.4856C13.8111 13.1602 14.3387 13.1602 14.6642 13.4856C14.9896 13.8111 14.9896 14.3387 14.6642 14.6641C13.4644 15.864 11.835 16.6666 9.99992 16.6666C6.31468 16.6666 3.33325 13.6851 3.33325 9.99989C3.33325 8.16484 4.13585 6.53544 5.33566 5.33563C5.6611 5.01019 6.18874 5.01019 6.51417 5.33563Z" fill="black"/>
<path fill-rule="evenodd" clip-rule="evenodd" d="M8.12614 3.61041C8.72776 3.42897 9.35878 3.33325 10.0001 3.33325C13.6853 3.33325 16.6668 6.31468 16.6668 9.99992C16.6668 10.6412 16.571 11.2723 16.3896 11.8739C16.2567 12.3145 15.7918 12.564 15.3511 12.4311C14.9105 12.2982 14.661 11.8333 14.7939 11.3926C14.9291 10.9443 15.0001 10.4753 15.0001 9.99992C15.0001 7.23516 12.7649 4.99992 10.0001 4.99992C9.52474 4.99992 9.05575 5.07087 8.60737 5.20609C8.16674 5.33898 7.70181 5.0895 7.56892 4.64887C7.43603 4.20824 7.6855 3.7433 8.12614 3.61041Z" fill="black"/>
<path fill-rule="evenodd" clip-rule="evenodd" d="M1.07733 1.07733C1.40277 0.751893 1.9304 0.751893 2.25584 1.07733L18.9225 17.744C19.2479 18.0694 19.2479 18.5971 18.9225 18.9225C18.5971 19.2479 18.0694 19.2479 17.744 18.9225L1.07733 2.25584C0.751893 1.9304 0.751893 1.40277 1.07733 1.07733Z" fill="black"/>
</g>
<defs>
<clipPath id="clip0_2001_8072">
<rect width="20" height="20" fill="white"/>
</clipPath>
</defs>
</svg>
