<svg width="20" height="20" viewBox="0 0 20 20" fill="none" xmlns="http://www.w3.org/2000/svg">
<path fill-rule="evenodd" clip-rule="evenodd" d="M8.33325 13.3334C8.33325 12.4129 9.07944 11.6667 9.99992 11.6667C10.9204 11.6667 11.6666 12.4129 11.6666 13.3334C11.6666 14.2539 10.9204 15.0001 9.99992 15.0001C9.07944 15.0001 8.33325 14.2539 8.33325 13.3334Z" fill="black"/>
<path fill-rule="evenodd" clip-rule="evenodd" d="M4.16675 9.16667C3.70651 9.16667 3.33341 9.53976 3.33341 10V16.6667C3.33341 17.1269 3.70651 17.5 4.16675 17.5H15.8334C16.2937 17.5 16.6667 17.1269 16.6667 16.6667V10C16.6667 9.53976 16.2937 9.16667 15.8334 9.16667H4.16675ZM1.66675 10C1.66675 8.61929 2.78604 7.5 4.16675 7.5H15.8334C17.2141 7.5 18.3334 8.61929 18.3334 10V16.6667C18.3334 18.0474 17.2141 19.1667 15.8334 19.1667H4.16675C2.78604 19.1667 1.66675 18.0474 1.66675 16.6667V10Z" fill="black"/>
<path fill-rule="evenodd" clip-rule="evenodd" d="M10 2.49992C9.11595 2.49992 8.2681 2.85111 7.64298 3.47623C7.01786 4.10135 6.66667 4.9492 6.66667 5.83325V8.33325C6.66667 8.79349 6.29357 9.16658 5.83333 9.16658C5.3731 9.16658 5 8.79349 5 8.33325V5.83325C5 4.50717 5.52678 3.2354 6.46447 2.29772C7.40215 1.36004 8.67392 0.833252 10 0.833252C11.3261 0.833252 12.5979 1.36004 13.5355 2.29772C14.4732 3.2354 15 4.50717 15 5.83325V8.33325C15 8.79349 14.6269 9.16658 14.1667 9.16658C13.7064 9.16658 13.3333 8.79349 13.3333 8.33325V5.83325C13.3333 4.9492 12.9821 4.10135 12.357 3.47623C11.7319 2.85111 10.8841 2.49992 10 2.49992Z" fill="black"/>
</svg>
