<svg width="20" height="20" viewBox="0 0 20 20" fill="none" xmlns="http://www.w3.org/2000/svg">
<path fill-rule="evenodd" clip-rule="evenodd" d="M8.33325 13.3334C8.33325 12.4129 9.07944 11.6667 9.99992 11.6667C10.9204 11.6667 11.6666 12.4129 11.6666 13.3334C11.6666 14.2539 10.9204 15.0001 9.99992 15.0001C9.07944 15.0001 8.33325 14.2539 8.33325 13.3334Z" fill="black"/>
<path fill-rule="evenodd" clip-rule="evenodd" d="M4.16675 9.16667C3.70651 9.16667 3.33341 9.53976 3.33341 10V16.6667C3.33341 17.1269 3.70651 17.5 4.16675 17.5H15.8334C16.2937 17.5 16.6667 17.1269 16.6667 16.6667V10C16.6667 9.53976 16.2937 9.16667 15.8334 9.16667H4.16675ZM1.66675 10C1.66675 8.61929 2.78604 7.5 4.16675 7.5H15.8334C17.2141 7.5 18.3334 8.61929 18.3334 10V16.6667C18.3334 18.0474 17.2141 19.1667 15.8334 19.1667H4.16675C2.78604 19.1667 1.66675 18.0474 1.66675 16.6667V10Z" fill="black"/>
<path fill-rule="evenodd" clip-rule="evenodd" d="M11.2755 2.75386C10.5976 2.47309 9.84601 2.42384 9.13726 2.61375C8.42851 2.80366 7.80222 3.22212 7.35553 3.80424C6.90884 4.38635 6.66671 5.09957 6.66667 5.83331C6.66667 5.83333 6.66667 5.83334 6.66667 5.83335V8.33331C6.66667 8.79355 6.29357 9.16665 5.83333 9.16665C5.3731 9.16665 5 8.79355 5 8.33331V5.83328C5.00005 4.73265 5.36326 3.66279 6.03329 2.78961C6.70333 1.91643 7.64276 1.28874 8.70589 1.00387C9.76901 0.719005 10.8964 0.792883 11.9133 1.21405C12.9302 1.63521 13.7796 2.38013 14.33 3.33328C14.5601 3.73184 14.4236 4.24151 14.025 4.47165C13.6265 4.70179 13.1168 4.56525 12.8867 4.16668C12.5198 3.53125 11.9534 3.03464 11.2755 2.75386Z" fill="black"/>
</svg>
