<svg width="20" height="20" viewBox="0 0 20 20" fill="none" xmlns="http://www.w3.org/2000/svg">
<path fill-rule="evenodd" clip-rule="evenodd" d="M4.16675 9.99992C3.70651 9.99992 3.33341 10.373 3.33341 10.8333V16.6666C3.33341 17.1268 3.70651 17.4999 4.16675 17.4999H15.8334C16.2937 17.4999 16.6667 17.1268 16.6667 16.6666V10.8333C16.6667 10.373 16.2937 9.99992 15.8334 9.99992H4.16675ZM1.66675 10.8333C1.66675 9.45254 2.78604 8.33325 4.16675 8.33325H15.8334C17.2141 8.33325 18.3334 9.45254 18.3334 10.8333V16.6666C18.3334 18.0473 17.2141 19.1666 15.8334 19.1666H4.16675C2.78604 19.1666 1.66675 18.0473 1.66675 16.6666V10.8333Z" fill="black"/>
<path fill-rule="evenodd" clip-rule="evenodd" d="M10 2.49992C9.11595 2.49992 8.2681 2.85111 7.64298 3.47623C7.01786 4.10135 6.66667 4.9492 6.66667 5.83325V9.16659C6.66667 9.62682 6.29357 9.99992 5.83333 9.99992C5.3731 9.99992 5 9.62682 5 9.16659V5.83325C5 4.50717 5.52678 3.2354 6.46447 2.29772C7.40215 1.36004 8.67392 0.833252 10 0.833252C11.3261 0.833252 12.5979 1.36004 13.5355 2.29772C14.4732 3.2354 15 4.50717 15 5.83325V9.16659C15 9.62682 14.6269 9.99992 14.1667 9.99992C13.7064 9.99992 13.3333 9.62682 13.3333 9.16659V5.83325C13.3333 4.9492 12.9821 4.10135 12.357 3.47623C11.7319 2.85111 10.8841 2.49992 10 2.49992Z" fill="black"/>
</svg>
