<svg width="20" height="20" viewBox="0 0 20 20" fill="none" xmlns="http://www.w3.org/2000/svg">
<path fill-rule="evenodd" clip-rule="evenodd" d="M4.16675 9.99992C3.70651 9.99992 3.33341 10.373 3.33341 10.8333V16.6666C3.33341 17.1268 3.70651 17.4999 4.16675 17.4999H15.8334C16.2937 17.4999 16.6667 17.1268 16.6667 16.6666V10.8333C16.6667 10.373 16.2937 9.99992 15.8334 9.99992H4.16675ZM1.66675 10.8333C1.66675 9.45254 2.78604 8.33325 4.16675 8.33325H15.8334C17.2141 8.33325 18.3334 9.45254 18.3334 10.8333V16.6666C18.3334 18.0473 17.2141 19.1666 15.8334 19.1666H4.16675C2.78604 19.1666 1.66675 18.0473 1.66675 16.6666V10.8333Z" fill="black"/>
<path fill-rule="evenodd" clip-rule="evenodd" d="M11.977 3.14534C11.3114 2.65507 10.4875 2.42958 9.665 2.51266C8.84256 2.59573 8.08031 2.98144 7.52625 3.59491C6.97219 4.20837 6.66584 5.00583 6.66667 5.83246L6.66667 9.16663C6.66667 9.62687 6.29357 9.99997 5.83334 9.99997C5.3731 9.99997 5 9.62687 5 9.16663V5.83367C4.99887 4.59389 5.45839 3.39789 6.28938 2.4778C7.12047 1.55761 8.26383 0.979041 9.49751 0.854427C10.7312 0.729813 11.9672 1.06804 12.9655 1.80345C13.9638 2.53886 14.6533 3.61898 14.9 4.83414C14.9916 5.28517 14.7002 5.72505 14.2492 5.81663C13.7981 5.90822 13.3583 5.61683 13.2667 5.1658C13.1022 4.35569 12.6425 3.63561 11.977 3.14534Z" fill="black"/>
</svg>
