<svg width="20" height="20" viewBox="0 0 20 20" fill="none" xmlns="http://www.w3.org/2000/svg">
<path fill-rule="evenodd" clip-rule="evenodd" d="M11.6667 2.50008C11.6667 2.03984 12.0398 1.66675 12.5001 1.66675H15.8334C16.4965 1.66675 17.1323 1.93014 17.6012 2.39898C18.07 2.86782 18.3334 3.50371 18.3334 4.16675V15.8334C18.3334 16.4965 18.07 17.1323 17.6012 17.6012C17.1323 18.07 16.4965 18.3334 15.8334 18.3334H12.5001C12.0398 18.3334 11.6667 17.9603 11.6667 17.5001C11.6667 17.0398 12.0398 16.6667 12.5001 16.6667H15.8334C16.0544 16.6667 16.2664 16.5789 16.4227 16.4227C16.579 16.2664 16.6667 16.0544 16.6667 15.8334V4.16675C16.6667 3.94573 16.579 3.73377 16.4227 3.57749C16.2664 3.42121 16.0544 3.33341 15.8334 3.33341H12.5001C12.0398 3.33341 11.6667 2.96032 11.6667 2.50008Z" fill="black"/>
<path fill-rule="evenodd" clip-rule="evenodd" d="M7.74408 5.24408C8.06951 4.91864 8.59715 4.91864 8.92259 5.24408L13.0893 9.41074C13.4147 9.73618 13.4147 10.2638 13.0893 10.5893L8.92259 14.7559C8.59715 15.0814 8.06951 15.0814 7.74408 14.7559C7.41864 14.4305 7.41864 13.9028 7.74408 13.5774L11.3215 10L7.74408 6.42259C7.41864 6.09715 7.41864 5.56951 7.74408 5.24408Z" fill="black"/>
<path fill-rule="evenodd" clip-rule="evenodd" d="M1.66675 10.0001C1.66675 9.53984 2.03984 9.16675 2.50008 9.16675H12.5001C12.9603 9.16675 13.3334 9.53984 13.3334 10.0001C13.3334 10.4603 12.9603 10.8334 12.5001 10.8334H2.50008C2.03984 10.8334 1.66675 10.4603 1.66675 10.0001Z" fill="black"/>
</svg>
