<svg width="20" height="20" viewBox="0 0 20 20" fill="none" xmlns="http://www.w3.org/2000/svg">
<path fill-rule="evenodd" clip-rule="evenodd" d="M9.16675 3.33341C5.94509 3.33341 3.33341 5.94509 3.33341 9.16675C3.33341 12.3884 5.94509 15.0001 9.16675 15.0001C12.3884 15.0001 15.0001 12.3884 15.0001 9.16675C15.0001 5.94509 12.3884 3.33341 9.16675 3.33341ZM1.66675 9.16675C1.66675 5.02461 5.02461 1.66675 9.16675 1.66675C13.3089 1.66675 16.6667 5.02461 16.6667 9.16675C16.6667 13.3089 13.3089 16.6667 9.16675 16.6667C5.02461 16.6667 1.66675 13.3089 1.66675 9.16675Z" fill="black"/>
<path fill-rule="evenodd" clip-rule="evenodd" d="M13.3273 13.3273C13.6528 13.0019 14.1804 13.0019 14.5058 13.3273L18.0892 16.9107C18.4146 17.2361 18.4146 17.7637 18.0892 18.0892C17.7637 18.4146 17.2361 18.4146 16.9107 18.0892L13.3273 14.5058C13.0019 14.1804 13.0019 13.6528 13.3273 13.3273Z" fill="black"/>
<path fill-rule="evenodd" clip-rule="evenodd" d="M6.22039 6.22039C7.00179 5.43899 8.0616 5 9.16667 5C10.2717 5 11.3315 5.43899 12.1129 6.22039C12.8943 7.00179 13.3333 8.0616 13.3333 9.16667C13.3333 9.82971 13.0699 10.4656 12.6011 10.9344C12.1323 11.4033 11.4964 11.6667 10.8333 11.6667C10.1703 11.6667 9.53441 11.4033 9.06557 10.9344C8.59673 10.4656 8.33333 9.82971 8.33333 9.16667C8.33333 8.70643 8.70643 8.33333 9.16667 8.33333C9.6269 8.33333 10 8.70643 10 9.16667C10 9.38768 10.0878 9.59964 10.2441 9.75592C10.4004 9.9122 10.6123 10 10.8333 10C11.0543 10 11.2663 9.9122 11.4226 9.75592C11.5789 9.59964 11.6667 9.38768 11.6667 9.16667C11.6667 8.50363 11.4033 7.86774 10.9344 7.3989C10.4656 6.93006 9.82971 6.66667 9.16667 6.66667C8.50363 6.66667 7.86774 6.93006 7.3989 7.3989C6.93006 7.86774 6.66667 8.50363 6.66667 9.16667C6.66667 10.2717 7.10565 11.3315 7.88706 12.1129C8.66846 12.8943 9.72826 13.3333 10.8333 13.3333C11.9384 13.3333 12.9982 12.8943 13.7796 12.1129C14.561 11.3315 15 10.2717 15 9.16667C15 8.70643 15.3731 8.33333 15.8333 8.33333C16.2936 8.33333 16.6667 8.70643 16.6667 9.16667C16.6667 10.7138 16.0521 12.1975 14.9581 13.2915C13.8642 14.3854 12.3804 15 10.8333 15C9.28624 15 7.80251 14.3854 6.70854 13.2915C5.61458 12.1975 5 10.7138 5 9.16667C5 8.0616 5.43899 7.00179 6.22039 6.22039Z" fill="black"/>
</svg>
