<svg width="20" height="20" viewBox="0 0 20 20" fill="none" xmlns="http://www.w3.org/2000/svg">
<path fill-rule="evenodd" clip-rule="evenodd" d="M5 5.83341C4.77899 5.83341 4.56702 5.92121 4.41074 6.07749C4.25446 6.23377 4.16667 6.44573 4.16667 6.66675V15.0001C4.16667 15.2211 4.25446 15.4331 4.41074 15.5893C4.56702 15.7456 4.77899 15.8334 5 15.8334C5.46024 15.8334 5.83333 16.2065 5.83333 16.6667C5.83333 17.127 5.46024 17.5001 5 17.5001C4.33696 17.5001 3.70107 17.2367 3.23223 16.7678C2.76339 16.299 2.5 15.6631 2.5 15.0001V6.66675C2.5 6.00371 2.76339 5.36782 3.23223 4.89898C3.70107 4.43014 4.33696 4.16675 5 4.16675H15C15.663 4.16675 16.2989 4.43014 16.7678 4.89898C17.2366 5.36782 17.5 6.00371 17.5 6.66675V15.0001C17.5 15.6631 17.2366 16.299 16.7678 16.7678C16.2989 17.2367 15.663 17.5001 15 17.5001C14.5398 17.5001 14.1667 17.127 14.1667 16.6667C14.1667 16.2065 14.5398 15.8334 15 15.8334C15.221 15.8334 15.433 15.7456 15.5893 15.5893C15.7455 15.4331 15.8333 15.2211 15.8333 15.0001V6.66675C15.8333 6.44573 15.7455 6.23377 15.5893 6.07749C15.433 5.92121 15.221 5.83341 15 5.83341H5Z" fill="black"/>
<path fill-rule="evenodd" clip-rule="evenodd" d="M8.33325 2.49992C8.11224 2.49992 7.90028 2.58772 7.744 2.744C7.58772 2.90028 7.49992 3.11224 7.49992 3.33325V14.9999C7.49992 15.4602 7.12682 15.8333 6.66659 15.8333C6.20635 15.8333 5.83325 15.4602 5.83325 14.9999V3.33325C5.83325 2.67021 6.09664 2.03433 6.56549 1.56549C7.03433 1.09664 7.67021 0.833252 8.33325 0.833252H11.6666C12.3296 0.833252 12.9655 1.09664 13.4344 1.56549C13.9032 2.03433 14.1666 2.67021 14.1666 3.33325V14.9999C14.1666 15.4602 13.7935 15.8333 13.3333 15.8333C12.873 15.8333 12.4999 15.4602 12.4999 14.9999V3.33325C12.4999 3.11224 12.4121 2.90028 12.2558 2.744C12.0996 2.58772 11.8876 2.49992 11.6666 2.49992H8.33325Z" fill="black"/>
<path fill-rule="evenodd" clip-rule="evenodd" d="M7.5 16.6666C7.5 16.2063 7.8731 15.8333 8.33333 15.8333H11.6667C12.1269 15.8333 12.5 16.2063 12.5 16.6666C12.5 17.1268 12.1269 17.4999 11.6667 17.4999H8.33333C7.8731 17.4999 7.5 17.1268 7.5 16.6666Z" fill="black"/>
<path fill-rule="evenodd" clip-rule="evenodd" d="M13.3333 15.8334C12.873 15.8334 12.4999 16.2065 12.4999 16.6667C12.4999 17.127 12.873 17.5001 13.3333 17.5001C13.7935 17.5001 14.1666 17.127 14.1666 16.6667C14.1666 16.2065 13.7935 15.8334 13.3333 15.8334ZM10.8333 16.6667C10.8333 15.286 11.9525 14.1667 13.3333 14.1667C14.714 14.1667 15.8333 15.286 15.8333 16.6667C15.8333 18.0475 14.714 19.1667 13.3333 19.1667C11.9525 19.1667 10.8333 18.0475 10.8333 16.6667Z" fill="black"/>
<path fill-rule="evenodd" clip-rule="evenodd" d="M6.66675 15.8334C6.20651 15.8334 5.83341 16.2065 5.83341 16.6667C5.83341 17.127 6.20651 17.5001 6.66675 17.5001C7.12699 17.5001 7.50008 17.127 7.50008 16.6667C7.50008 16.2065 7.12699 15.8334 6.66675 15.8334ZM4.16675 16.6667C4.16675 15.286 5.28604 14.1667 6.66675 14.1667C8.04746 14.1667 9.16675 15.286 9.16675 16.6667C9.16675 18.0475 8.04746 19.1667 6.66675 19.1667C5.28604 19.1667 4.16675 18.0475 4.16675 16.6667Z" fill="black"/>
</svg>
