<svg width="20" height="20" viewBox="0 0 20 20" fill="none" xmlns="http://www.w3.org/2000/svg">
<path fill-rule="evenodd" clip-rule="evenodd" d="M7.86449 4.13063L2.84423 9.16577L5.0013 11.3228L9.73705 6.60933C9.76263 6.58387 9.78983 6.5601 9.81849 6.53817C10.3222 6.15275 10.9487 5.96337 11.5815 6.00527C12.2144 6.04717 12.8105 6.31749 13.2589 6.76596C13.7074 7.21443 13.9777 7.81051 14.0196 8.44335C14.0615 9.0762 13.8721 9.70272 13.4867 10.2064C13.464 10.2361 13.4393 10.2642 13.4128 10.2906L8.67982 15.0014L10.8324 17.1539L15.8518 12.1196C16.8076 11.044 17.3179 9.64424 17.2783 8.20525C17.2384 6.75907 16.6461 5.38308 15.6231 4.36009C14.6001 3.3371 13.2242 2.74481 11.778 2.70495C10.3394 2.6653 8.94004 3.1753 7.86449 4.13063ZM6.73568 2.90415C8.13093 1.65479 9.95174 0.987318 11.8239 1.03892C13.696 1.09051 15.4773 1.85726 16.8016 3.18158C18.126 4.50589 18.8927 6.28717 18.9443 8.15933C18.9959 10.0315 18.3284 11.8523 17.0791 13.2475C17.0691 13.2586 17.0589 13.2695 17.0484 13.28L11.4234 18.9217C11.2672 19.0783 11.0551 19.1665 10.8339 19.1666C10.6126 19.1668 10.4004 19.079 10.244 18.9226L6.91066 15.5892C6.75414 15.4327 6.66633 15.2203 6.66659 14.999C6.66685 14.7776 6.75516 14.5655 6.91205 14.4093L12.191 9.15517C12.3121 8.97936 12.3708 8.76741 12.3566 8.55346C12.3414 8.3237 12.2432 8.10729 12.0804 7.94447C11.9176 7.78165 11.7012 7.68351 11.4714 7.6683C11.2569 7.65409 11.0444 7.71308 10.8684 7.83484L5.58779 13.0906C5.26213 13.4147 4.73556 13.4141 4.41066 13.0892L1.07733 9.75589C0.752233 9.4308 0.751843 8.90383 1.07646 8.57825L6.70146 2.93659C6.71256 2.92546 6.72397 2.91464 6.73568 2.90415Z" fill="black"/>
<path fill-rule="evenodd" clip-rule="evenodd" d="M3.57733 6.07733C3.90277 5.75189 4.4304 5.75189 4.75584 6.07733L8.08917 9.41066C8.41461 9.7361 8.41461 10.2637 8.08917 10.5892C7.76374 10.9146 7.2361 10.9146 6.91066 10.5892L3.57733 7.25584C3.25189 6.9304 3.25189 6.40277 3.57733 6.07733Z" fill="black"/>
<path fill-rule="evenodd" clip-rule="evenodd" d="M9.41083 11.9108C9.73626 11.5854 10.2639 11.5854 10.5893 11.9108L13.9227 15.2442C14.2481 15.5696 14.2481 16.0972 13.9227 16.4227C13.5972 16.7481 13.0696 16.7481 12.7442 16.4227L9.41083 13.0893C9.08539 12.7639 9.08539 12.2363 9.41083 11.9108Z" fill="black"/>
</svg>
