<svg width="20" height="20" viewBox="0 0 20 20" fill="none" xmlns="http://www.w3.org/2000/svg">
<path fill-rule="evenodd" clip-rule="evenodd" d="M1.56549 3.23223C2.03433 2.76339 2.67021 2.5 3.33325 2.5H16.6666C17.3296 2.5 17.9655 2.76339 18.4344 3.23223C18.9032 3.70107 19.1666 4.33696 19.1666 5V8.75C19.1666 9.21024 18.7935 9.58333 18.3333 9.58333C17.873 9.58333 17.4999 9.21024 17.4999 8.75V5C17.4999 4.77899 17.4121 4.56702 17.2558 4.41074C17.0996 4.25446 16.8876 4.16667 16.6666 4.16667H3.33325C3.11224 4.16667 2.90028 4.25446 2.744 4.41074C2.58772 4.56702 2.49992 4.77899 2.49992 5V15C2.49992 15.4564 2.87682 15.8333 3.33325 15.8333H13.7499C14.2102 15.8333 14.5833 16.2064 14.5833 16.6667C14.5833 17.1269 14.2102 17.5 13.7499 17.5H3.33325C1.95635 17.5 0.833252 16.3769 0.833252 15V5C0.833252 4.33696 1.09664 3.70107 1.56549 3.23223Z" fill="black"/>
<path fill-rule="evenodd" clip-rule="evenodd" d="M0.963349 5.3865C1.21019 4.99805 1.72519 4.88326 2.11363 5.1301L9.58597 9.87841C9.71021 9.95576 9.85364 9.99678 10 9.99678C10.1464 9.99678 10.2898 9.95578 10.414 9.87844L17.8864 5.1301C18.2749 4.88326 18.7899 4.99805 19.0367 5.3865C19.2835 5.77494 19.1687 6.28994 18.7803 6.53678L11.3053 11.2868C11.3038 11.2877 11.3023 11.2887 11.3008 11.2896C10.9109 11.5339 10.4601 11.6634 10 11.6634C9.53993 11.6634 9.08914 11.5339 8.69925 11.2896C8.69775 11.2887 8.69625 11.2877 8.69475 11.2868L1.21975 6.53678C0.831307 6.28994 0.716511 5.77494 0.963349 5.3865Z" fill="black"/>
<path fill-rule="evenodd" clip-rule="evenodd" d="M16.6666 10.8333C17.1268 10.8333 17.4999 11.2063 17.4999 11.6666V14.9999C17.4999 15.4602 17.1268 15.8333 16.6666 15.8333C16.2063 15.8333 15.8333 15.4602 15.8333 14.9999V11.6666C15.8333 11.2063 16.2063 10.8333 16.6666 10.8333Z" fill="black"/>
<path fill-rule="evenodd" clip-rule="evenodd" d="M16.6666 17.5C17.1268 17.5 17.4999 17.8731 17.4999 18.3333V18.3417C17.4999 18.8019 17.1268 19.175 16.6666 19.175C16.2063 19.175 15.8333 18.8019 15.8333 18.3417V18.3333C15.8333 17.8731 16.2063 17.5 16.6666 17.5Z" fill="black"/>
</svg>
