<svg width="20" height="20" viewBox="0 0 20 20" fill="none" xmlns="http://www.w3.org/2000/svg">
<path fill-rule="evenodd" clip-rule="evenodd" d="M6.66675 4.16667C6.20651 4.16667 5.83341 4.53976 5.83341 5V12.5C5.83341 12.9602 6.20651 13.3333 6.66675 13.3333H16.6667C17.127 13.3333 17.5001 12.9602 17.5001 12.5V5C17.5001 4.53976 17.127 4.16667 16.6667 4.16667H6.66675ZM4.16675 5C4.16675 3.61929 5.28604 2.5 6.66675 2.5H16.6667C18.0475 2.5 19.1667 3.61929 19.1667 5V12.5C19.1667 13.8807 18.0475 15 16.6667 15H6.66675C5.28604 15 4.16675 13.8807 4.16675 12.5V5Z" fill="black"/>
<path fill-rule="evenodd" clip-rule="evenodd" d="M4.26442 5.44164C4.48071 5.03539 4.98537 4.88139 5.39162 5.09767L11.3062 8.24658C11.5374 8.3677 11.7959 8.3677 12.0271 8.24658C12.0276 8.24633 12.0281 8.24607 12.0285 8.24582L17.9417 5.09767C18.348 4.88139 18.8526 5.03539 19.0689 5.44164C19.2852 5.84789 19.1312 6.35255 18.725 6.56883L12.8083 9.71883L12.8066 9.71972C12.806 9.72004 12.8054 9.72036 12.8048 9.72069C12.0868 10.0986 11.2465 10.0986 10.5285 9.72069C10.5274 9.72007 10.5262 9.71945 10.525 9.71883L4.60838 6.56883C4.20213 6.35255 4.04814 5.84789 4.26442 5.44164Z" fill="black"/>
<path fill-rule="evenodd" clip-rule="evenodd" d="M1.66659 5.83325C2.12682 5.83325 2.49992 6.20635 2.49992 6.66659V15.8333C2.49992 16.2897 2.87682 16.6666 3.33325 16.6666H14.9999C15.4602 16.6666 15.8333 17.0397 15.8333 17.4999C15.8333 17.9602 15.4602 18.3333 14.9999 18.3333H3.33325C1.95635 18.3333 0.833252 17.2102 0.833252 15.8333V6.66659C0.833252 6.20635 1.20635 5.83325 1.66659 5.83325Z" fill="black"/>
</svg>
