<svg width="20" height="20" viewBox="0 0 20 20" fill="none" xmlns="http://www.w3.org/2000/svg">
<path fill-rule="evenodd" clip-rule="evenodd" d="M5.41659 4.99992C3.79349 4.99992 2.49992 6.29349 2.49992 7.91658V14.1666C2.49992 14.3876 2.58772 14.5996 2.744 14.7558C2.90028 14.9121 3.11224 14.9999 3.33325 14.9999H16.6666C16.8876 14.9999 17.0996 14.9121 17.2558 14.7558C17.4121 14.5996 17.4999 14.3876 17.4999 14.1666V7.49992C17.4999 6.12682 16.373 4.99992 14.9999 4.99992H5.41659ZM0.833252 7.91658C0.833252 5.37301 2.87301 3.33325 5.41659 3.33325H14.9999C17.2935 3.33325 19.1666 5.20635 19.1666 7.49992V14.1666C19.1666 14.8296 18.9032 15.4655 18.4344 15.9344C17.9655 16.4032 17.3296 16.6666 16.6666 16.6666H3.33325C2.67021 16.6666 2.03433 16.4032 1.56549 15.9344C1.09664 15.4655 0.833252 14.8296 0.833252 14.1666V7.91658Z" fill="black"/>
<path fill-rule="evenodd" clip-rule="evenodd" d="M11.6667 7.50008C11.6667 7.03984 12.0398 6.66675 12.5001 6.66675H15.0001C15.4603 6.66675 15.8334 7.03984 15.8334 7.50008V9.16675C15.8334 9.62699 15.4603 10.0001 15.0001 10.0001C14.5398 10.0001 14.1667 9.62699 14.1667 9.16675V8.33341H12.5001C12.0398 8.33341 11.6667 7.96032 11.6667 7.50008Z" fill="black"/>
<path fill-rule="evenodd" clip-rule="evenodd" d="M4.58325 4.16659C4.58325 3.70635 4.95635 3.33325 5.41659 3.33325C7.96016 3.33325 9.99992 5.37301 9.99992 7.91658V14.1666C9.99992 14.8296 9.73653 15.4655 9.26768 15.9344C8.79884 16.4032 8.16296 16.6666 7.49992 16.6666C7.03968 16.6666 6.66659 16.2935 6.66659 15.8333C6.66659 15.373 7.03968 14.9999 7.49992 14.9999C7.72093 14.9999 7.93289 14.9121 8.08917 14.7558C8.24545 14.5996 8.33325 14.3876 8.33325 14.1666V7.91658C8.33325 6.29349 7.03968 4.99992 5.41659 4.99992C4.95635 4.99992 4.58325 4.62682 4.58325 4.16659Z" fill="black"/>
<path fill-rule="evenodd" clip-rule="evenodd" d="M4.16675 8.33333C4.16675 7.8731 4.53984 7.5 5.00008 7.5H5.83341C6.29365 7.5 6.66675 7.8731 6.66675 8.33333C6.66675 8.79357 6.29365 9.16667 5.83341 9.16667H5.00008C4.53984 9.16667 4.16675 8.79357 4.16675 8.33333Z" fill="black"/>
</svg>
