<svg width="20" height="20" viewBox="0 0 20 20" fill="none" xmlns="http://www.w3.org/2000/svg">
<path fill-rule="evenodd" clip-rule="evenodd" d="M1.56549 3.23223C2.03433 2.76339 2.67021 2.5 3.33325 2.5H16.6666C17.3296 2.5 17.9655 2.76339 18.4344 3.23223C18.9032 3.70107 19.1666 4.33696 19.1666 5V10.4167C19.1666 10.8769 18.7935 11.25 18.3333 11.25C17.873 11.25 17.4999 10.8769 17.4999 10.4167V5C17.4999 4.77899 17.4121 4.56702 17.2558 4.41074C17.0996 4.25446 16.8876 4.16667 16.6666 4.16667H3.33325C3.11224 4.16667 2.90028 4.25446 2.744 4.41074C2.58772 4.56702 2.49992 4.77899 2.49992 5V15C2.49992 15.4564 2.87682 15.8333 3.33325 15.8333H9.58325C10.0435 15.8333 10.4166 16.2064 10.4166 16.6667C10.4166 17.1269 10.0435 17.5 9.58325 17.5H3.33325C1.95635 17.5 0.833252 16.3769 0.833252 15V5C0.833252 4.33696 1.09664 3.70107 1.56549 3.23223Z" fill="black"/>
<path fill-rule="evenodd" clip-rule="evenodd" d="M0.963349 5.3865C1.21019 4.99805 1.72519 4.88326 2.11363 5.1301L9.58597 9.87841C9.71021 9.95576 9.85364 9.99678 10 9.99678C10.1464 9.99678 10.2898 9.95578 10.414 9.87844L17.8864 5.1301C18.2749 4.88326 18.7899 4.99805 19.0367 5.3865C19.2835 5.77494 19.1687 6.28994 18.7803 6.53678L11.3053 11.2868C11.3038 11.2877 11.3023 11.2887 11.3008 11.2896C10.9109 11.5339 10.4601 11.6634 10 11.6634C9.53993 11.6634 9.08914 11.5339 8.69925 11.2896C8.69775 11.2887 8.69625 11.2877 8.69475 11.2868L1.21975 6.53678C0.831307 6.28994 0.716511 5.77494 0.963349 5.3865Z" fill="black"/>
<path fill-rule="evenodd" clip-rule="evenodd" d="M12.6431 12.6431C13.2682 12.0179 14.116 11.6667 15.0001 11.6667C15.8841 11.6667 16.732 12.0179 17.3571 12.6431C17.9822 13.2682 18.3334 14.116 18.3334 15.0001C18.3334 15.8841 17.9822 16.732 17.3571 17.3571C16.732 17.9822 15.8841 18.3334 15.0001 18.3334C14.116 18.3334 13.2682 17.9822 12.6431 17.3571C12.0179 16.732 11.6667 15.8841 11.6667 15.0001C11.6667 14.116 12.0179 13.2682 12.6431 12.6431ZM15.0001 13.3334C14.5581 13.3334 14.1341 13.509 13.8216 13.8216C13.509 14.1341 13.3334 14.5581 13.3334 15.0001C13.3334 15.4421 13.509 15.866 13.8216 16.1786C14.1341 16.4912 14.5581 16.6667 15.0001 16.6667C15.4421 16.6667 15.866 16.4912 16.1786 16.1786C16.4912 15.866 16.6667 15.4421 16.6667 15.0001C16.6667 14.5581 16.4912 14.1341 16.1786 13.8216C15.866 13.509 15.4421 13.3334 15.0001 13.3334Z" fill="black"/>
<path fill-rule="evenodd" clip-rule="evenodd" d="M15.0001 13.3334C14.0796 13.3334 13.3334 14.0796 13.3334 15.0001C13.3334 15.9206 14.0796 16.6667 15.0001 16.6667C15.9206 16.6667 16.6667 15.9206 16.6667 15.0001C16.6667 14.0796 15.9206 13.3334 15.0001 13.3334ZM11.6667 15.0001C11.6667 13.1591 13.1591 11.6667 15.0001 11.6667C16.841 11.6667 18.3334 13.1591 18.3334 15.0001C18.3334 16.841 16.841 18.3334 15.0001 18.3334C13.1591 18.3334 11.6667 16.841 11.6667 15.0001Z" fill="black"/>
<path fill-rule="evenodd" clip-rule="evenodd" d="M16.4941 16.4941C16.8195 16.1686 17.3472 16.1686 17.6726 16.4941L18.9226 17.7441C19.248 18.0695 19.248 18.5972 18.9226 18.9226C18.5972 19.248 18.0695 19.248 17.7441 18.9226L16.4941 17.6726C16.1686 17.3472 16.1686 16.8195 16.4941 16.4941Z" fill="black"/>
</svg>
