<svg width="20" height="20" viewBox="0 0 20 20" fill="none" xmlns="http://www.w3.org/2000/svg">
<path fill-rule="evenodd" clip-rule="evenodd" d="M3.33325 4.16667C2.87301 4.16667 2.49992 4.53976 2.49992 5V15C2.49992 15.4602 2.87301 15.8333 3.33325 15.8333H16.6666C17.1268 15.8333 17.4999 15.4602 17.4999 15V5C17.4999 4.53976 17.1268 4.16667 16.6666 4.16667H3.33325ZM0.833252 5C0.833252 3.61929 1.95254 2.5 3.33325 2.5H16.6666C18.0473 2.5 19.1666 3.61929 19.1666 5V15C19.1666 16.3807 18.0473 17.5 16.6666 17.5H3.33325C1.95254 17.5 0.833252 16.3807 0.833252 15V5Z" fill="black"/>
<path fill-rule="evenodd" clip-rule="evenodd" d="M0.963349 5.3865C1.21019 4.99805 1.72519 4.88326 2.11363 5.1301L9.58597 9.87841C9.71021 9.95576 9.85364 9.99678 10 9.99678C10.1464 9.99678 10.2898 9.95578 10.414 9.87844L17.8864 5.1301C18.2749 4.88326 18.7899 4.99805 19.0367 5.3865C19.2835 5.77494 19.1687 6.28994 18.7803 6.53678L11.3053 11.2868C11.3038 11.2877 11.3023 11.2887 11.3008 11.2896C10.9109 11.5339 10.4601 11.6634 10 11.6634C9.53993 11.6634 9.08914 11.5339 8.69925 11.2896C8.69775 11.2887 8.69625 11.2877 8.69475 11.2868L1.21975 6.53678C0.831307 6.28994 0.716511 5.77494 0.963349 5.3865Z" fill="black"/>
</svg>
