<svg width="20" height="20" viewBox="0 0 20 20" fill="none" xmlns="http://www.w3.org/2000/svg">
<g clip-path="url(#clip0_2001_8140)">
<path fill-rule="evenodd" clip-rule="evenodd" d="M9.99992 2.49992C9.81961 2.49992 9.64417 2.5584 9.49992 2.66659L2.83325 7.66658C2.72976 7.74421 2.64575 7.84486 2.5879 7.96057C2.53004 8.07629 2.49992 8.20388 2.49992 8.33325V16.6666C2.49992 16.8876 2.58772 17.0996 2.744 17.2558C2.90028 17.4121 3.11224 17.4999 3.33325 17.4999H16.6666C16.8876 17.4999 17.0996 17.4121 17.2558 17.2558C17.4121 17.0996 17.4999 16.8876 17.4999 16.6666V8.33325C17.4999 8.07554 17.3773 7.82756 17.164 7.66467L10.4999 2.66659C10.3557 2.5584 10.1802 2.49992 9.99992 2.49992ZM8.49992 1.33325C8.93266 1.0087 9.45899 0.833252 9.99992 0.833252C10.5408 0.833252 11.0672 1.0087 11.4999 1.33325L18.1666 6.33325C18.168 6.33431 18.1694 6.33538 18.1708 6.33645C18.7899 6.80692 19.1666 7.54164 19.1666 8.33325V16.6666C19.1666 17.3296 18.9032 17.9655 18.4344 18.4344C17.9655 18.9032 17.3296 19.1666 16.6666 19.1666H3.33325C2.67021 19.1666 2.03433 18.9032 1.56549 18.4344C1.09664 17.9655 0.833252 17.3296 0.833252 16.6666V8.33325C0.833252 7.94514 0.923615 7.56236 1.09718 7.21522C1.27075 6.86808 1.52276 6.56612 1.83325 6.33325L8.49992 1.33325Z" fill="black"/>
<path fill-rule="evenodd" clip-rule="evenodd" d="M0.963349 7.8865C1.21019 7.49805 1.72519 7.38326 2.11363 7.6301L9.58597 12.3784C9.71021 12.4558 9.85364 12.4968 10 12.4968C10.1464 12.4968 10.2898 12.4558 10.414 12.3784L17.8864 7.6301C18.2749 7.38326 18.7899 7.49805 19.0367 7.8865C19.2835 8.27494 19.1687 8.78994 18.7803 9.03678L11.3053 13.7868C11.3038 13.7877 11.3023 13.7887 11.3008 13.7896C10.9109 14.0339 10.4601 14.1634 10 14.1634C9.53993 14.1634 9.08914 14.0339 8.69925 13.7896C8.69775 13.7887 8.69625 13.7877 8.69475 13.7868L1.21975 9.03678C0.831307 8.78994 0.716511 8.27494 0.963349 7.8865Z" fill="black"/>
</g>
<defs>
<clipPath id="clip0_2001_8140">
<rect width="20" height="20" fill="white"/>
</clipPath>
</defs>
</svg>
