<svg width="20" height="20" viewBox="0 0 20 20" fill="none" xmlns="http://www.w3.org/2000/svg">
<path fill-rule="evenodd" clip-rule="evenodd" d="M1.56549 3.23223C2.03433 2.76339 2.67021 2.5 3.33325 2.5H16.6666C17.3296 2.5 17.9655 2.76339 18.4344 3.23223C18.9032 3.70107 19.1666 4.33696 19.1666 5V10.8333C19.1666 11.2936 18.7935 11.6667 18.3333 11.6667C17.873 11.6667 17.4999 11.2936 17.4999 10.8333V5C17.4999 4.77899 17.4121 4.56702 17.2558 4.41074C17.0996 4.25446 16.8876 4.16667 16.6666 4.16667H3.33325C3.11224 4.16667 2.90028 4.25446 2.744 4.41074C2.58772 4.56702 2.49992 4.77899 2.49992 5V15C2.49992 15.4564 2.87682 15.8333 3.33325 15.8333H10.8333C11.2935 15.8333 11.6666 16.2064 11.6666 16.6667C11.6666 17.1269 11.2935 17.5 10.8333 17.5H3.33325C1.95635 17.5 0.833252 16.3769 0.833252 15V5C0.833252 4.33696 1.09664 3.70107 1.56549 3.23223Z" fill="black"/>
<path fill-rule="evenodd" clip-rule="evenodd" d="M0.963349 5.3865C1.21019 4.99805 1.72519 4.88326 2.11363 5.1301L9.58597 9.87841C9.71021 9.95576 9.85364 9.99678 10 9.99678C10.1464 9.99678 10.2898 9.95578 10.414 9.87844L17.8864 5.1301C18.2749 4.88326 18.7899 4.99805 19.0367 5.3865C19.2835 5.77494 19.1687 6.28994 18.7803 6.53678L11.3053 11.2868C11.3038 11.2877 11.3023 11.2887 11.3008 11.2896C10.9109 11.5339 10.4601 11.6634 10 11.6634C9.53993 11.6634 9.08914 11.5339 8.69925 11.2896C8.69775 11.2887 8.69625 11.2877 8.69475 11.2868L1.21975 6.53678C0.831307 6.28994 0.716511 5.77494 0.963349 5.3865Z" fill="black"/>
<path fill-rule="evenodd" clip-rule="evenodd" d="M13.5773 13.5773C13.9028 13.2519 14.4304 13.2519 14.7558 13.5773L18.0892 16.9107C18.4146 17.2361 18.4146 17.7637 18.0892 18.0892C17.7637 18.4146 17.2361 18.4146 16.9107 18.0892L13.5773 14.7558C13.2519 14.4304 13.2519 13.9028 13.5773 13.5773Z" fill="black"/>
<path fill-rule="evenodd" clip-rule="evenodd" d="M18.0892 13.5773C18.4146 13.9028 18.4146 14.4304 18.0892 14.7558L14.7558 18.0892C14.4304 18.4146 13.9028 18.4146 13.5773 18.0892C13.2519 17.7637 13.2519 17.2361 13.5773 16.9107L16.9107 13.5773C17.2361 13.2519 17.7637 13.2519 18.0892 13.5773Z" fill="black"/>
</svg>
