<svg width="20" height="20" viewBox="0 0 20 20" fill="none" xmlns="http://www.w3.org/2000/svg">
<path fill-rule="evenodd" clip-rule="evenodd" d="M1.56549 3.23223C2.03433 2.76339 2.67021 2.5 3.33325 2.5H16.6666C17.3296 2.5 17.9655 2.76339 18.4344 3.23223C18.9032 3.70107 19.1666 4.33696 19.1666 5V8.75C19.1666 9.21024 18.7935 9.58333 18.3333 9.58333C17.873 9.58333 17.4999 9.21024 17.4999 8.75V5C17.4999 4.77899 17.4121 4.56702 17.2558 4.41074C17.0996 4.25446 16.8876 4.16667 16.6666 4.16667H3.33325C3.11224 4.16667 2.90028 4.25446 2.744 4.41074C2.58772 4.56702 2.49992 4.77899 2.49992 5V15C2.49992 15.4564 2.87682 15.8333 3.33325 15.8333H13.7499C14.2102 15.8333 14.5833 16.2064 14.5833 16.6667C14.5833 17.1269 14.2102 17.5 13.7499 17.5H3.33325C1.95635 17.5 0.833252 16.3769 0.833252 15V5C0.833252 4.33696 1.09664 3.70107 1.56549 3.23223Z" fill="black"/>
<path fill-rule="evenodd" clip-rule="evenodd" d="M0.963349 5.3865C1.21019 4.99805 1.72519 4.88326 2.11363 5.1301L9.58597 9.87841C9.71021 9.95576 9.85364 9.99678 10 9.99678C10.1464 9.99678 10.2898 9.95578 10.414 9.87844L17.8864 5.1301C18.2749 4.88326 18.7899 4.99805 19.0367 5.3865C19.2835 5.77494 19.1687 6.28994 18.7803 6.53678L11.3053 11.2868C11.3038 11.2877 11.3023 11.2887 11.3008 11.2896C10.9109 11.5339 10.4601 11.6634 10 11.6634C9.53993 11.6634 9.08914 11.5339 8.69925 11.2896C8.69775 11.2887 8.69625 11.2877 8.69475 11.2868L1.21975 6.53678C0.831307 6.28994 0.716511 5.77494 0.963349 5.3865Z" fill="black"/>
<path fill-rule="evenodd" clip-rule="evenodd" d="M16.7653 12.5091C16.5589 12.4774 16.3479 12.517 16.1671 12.6215C16.1526 12.63 16.1377 12.6379 16.1227 12.6455C16.0217 12.6959 15.8762 12.8444 15.7454 13.1061C15.5396 13.5178 15.039 13.6846 14.6273 13.4788C14.2157 13.273 14.0488 12.7724 14.2547 12.3608C14.4544 11.9614 14.8019 11.4519 15.3539 11.1666C15.8587 10.8811 16.4451 10.7736 17.0187 10.8618C17.6003 10.9513 18.134 11.2367 18.5313 11.6707C18.5497 11.6908 18.567 11.7117 18.5834 11.7334C18.8882 12.1399 19.1667 12.6475 19.1667 13.3168C19.1667 14.3038 18.4239 14.9381 17.9662 15.2471C17.7093 15.4205 17.4581 15.5487 17.2743 15.6329C17.1813 15.6755 17.1027 15.7082 17.0454 15.7309C17.0167 15.7423 16.9932 15.7512 16.9757 15.7577C16.967 15.761 16.9597 15.7636 16.9541 15.7657C16.9512 15.7667 16.9488 15.7676 16.9468 15.7683C16.9458 15.7686 16.9449 15.769 16.9441 15.7692L16.9429 15.7696L16.9424 15.7698C16.9422 15.7699 16.942 15.77 16.6667 14.9834L16.942 15.77C16.5076 15.922 16.0322 15.6931 15.8801 15.2587C15.7284 14.8251 15.9561 14.3507 16.389 14.1977C16.3897 14.1975 16.3918 14.1967 16.3951 14.1955C16.402 14.1929 16.4143 14.1883 16.4312 14.1816C16.4651 14.1681 16.5167 14.1468 16.5799 14.1178C16.7086 14.0588 16.8741 13.9734 17.0338 13.8656C17.4095 13.6121 17.5 13.413 17.5 13.3168C17.5 13.1604 17.4502 13.0086 17.2767 12.7695C17.1387 12.6305 16.9595 12.539 16.7653 12.5091Z" fill="black"/>
<path fill-rule="evenodd" clip-rule="evenodd" d="M16.6666 17.5C17.1268 17.5 17.4999 17.8731 17.4999 18.3333V18.3417C17.4999 18.8019 17.1268 19.175 16.6666 19.175C16.2063 19.175 15.8333 18.8019 15.8333 18.3417V18.3333C15.8333 17.8731 16.2063 17.5 16.6666 17.5Z" fill="black"/>
</svg>
