<svg width="20" height="20" viewBox="0 0 20 20" fill="none" xmlns="http://www.w3.org/2000/svg">
<path fill-rule="evenodd" clip-rule="evenodd" d="M10 2.49992C8.4529 2.49992 6.96917 3.1145 5.87521 4.20846C4.78125 5.30242 4.16667 6.78616 4.16667 8.33325C4.16667 10.1327 5.18056 12.0721 6.49812 13.8032C7.77169 15.4766 9.23308 16.8316 10 17.4971C10.7669 16.8316 12.2283 15.4766 13.5019 13.8032C14.8194 12.0721 15.8333 10.1327 15.8333 8.33325C15.8333 6.78616 15.2188 5.30242 14.1248 4.20846C13.0308 3.1145 11.5471 2.49992 10 2.49992ZM4.6967 3.02995C6.10322 1.62343 8.01088 0.833252 10 0.833252C11.9891 0.833252 13.8968 1.62343 15.3033 3.02995C16.7098 4.43647 17.5 6.34413 17.5 8.33325C17.5 10.6947 16.206 13.0023 14.8281 14.8126C13.4309 16.6484 11.8414 18.1092 11.0454 18.7965C11.0313 18.8088 11.0167 18.8205 11.0017 18.8318C10.7129 19.049 10.3613 19.1664 10 19.1664C9.63867 19.1664 9.28713 19.049 8.99833 18.8318C8.98335 18.8205 8.96875 18.8088 8.95455 18.7965C8.15857 18.1092 6.56906 16.6484 5.17188 14.8126C3.79402 13.0023 2.5 10.6947 2.5 8.33325C2.5 6.34413 3.29018 4.43647 4.6967 3.02995Z" fill="black"/>
<path fill-rule="evenodd" clip-rule="evenodd" d="M12.6725 5.66083C12.9979 5.98626 12.9979 6.5139 12.6725 6.83934L8.50584 11.006C8.1804 11.3314 7.65277 11.3314 7.32733 11.006C7.00189 10.6806 7.00189 10.1529 7.32733 9.82749L11.494 5.66083C11.8194 5.33539 12.3471 5.33539 12.6725 5.66083Z" fill="black"/>
<path fill-rule="evenodd" clip-rule="evenodd" d="M7.32733 5.66083C7.65277 5.33539 8.1804 5.33539 8.50584 5.66083L12.6725 9.82749C12.9979 10.1529 12.9979 10.6806 12.6725 11.006C12.3471 11.3314 11.8194 11.3314 11.494 11.006L7.32733 6.83934C7.00189 6.5139 7.00189 5.98626 7.32733 5.66083Z" fill="black"/>
</svg>
