<svg width="20" height="20" viewBox="0 0 20 20" fill="none" xmlns="http://www.w3.org/2000/svg">
<path fill-rule="evenodd" clip-rule="evenodd" d="M4.6967 3.02995C6.10322 1.62343 8.01088 0.833252 10 0.833252C11.9891 0.833252 13.8968 1.62343 15.3033 3.02995C16.7098 4.43647 17.5 6.34413 17.5 8.33325C17.5 8.33498 17.5 8.3367 17.5 8.33842C17.4962 8.94169 17.4179 9.54217 17.2668 10.1262C17.1514 10.5718 16.6968 10.8395 16.2512 10.7242C15.8057 10.6089 15.5379 10.1542 15.6532 9.70863C15.7697 9.25848 15.8302 8.79567 15.8333 8.3307C15.8327 6.78452 15.2182 5.30182 14.1248 4.20846C13.0308 3.1145 11.5471 2.49992 10 2.49992C8.4529 2.49992 6.96917 3.1145 5.87521 4.20846C4.78125 5.30242 4.16667 6.78616 4.16667 8.33325C4.16667 10.1327 5.18056 12.0721 6.49812 13.8032C7.77186 15.4768 9.23347 16.8319 10.0003 17.4974C10.0109 17.4883 10.0215 17.4792 10.0321 17.4701C10.3809 17.1698 10.9071 17.2091 11.2074 17.5579C11.5076 17.9066 11.4683 18.4328 11.1196 18.7331C11.0933 18.7557 11.067 18.7782 11.0406 18.8006C11.0279 18.8114 11.015 18.8218 11.0017 18.8318C10.7129 19.049 10.3613 19.1664 10 19.1664C9.63867 19.1664 9.28713 19.049 8.99833 18.8318C8.98335 18.8205 8.96875 18.8088 8.95455 18.7965C8.15857 18.1092 6.56906 16.6484 5.17188 14.8126C3.79402 13.0023 2.5 10.6947 2.5 8.33325C2.5 6.34413 3.29018 4.43647 4.6967 3.02995Z" fill="black"/>
<path fill-rule="evenodd" clip-rule="evenodd" d="M10.0001 6.66667C9.07961 6.66667 8.33341 7.41286 8.33341 8.33333C8.33341 9.25381 9.07961 10 10.0001 10C10.9206 10 11.6667 9.25381 11.6667 8.33333C11.6667 7.41286 10.9206 6.66667 10.0001 6.66667ZM6.66675 8.33333C6.66675 6.49238 8.15913 5 10.0001 5C11.841 5 13.3334 6.49238 13.3334 8.33333C13.3334 10.1743 11.841 11.6667 10.0001 11.6667C8.15913 11.6667 6.66675 10.1743 6.66675 8.33333Z" fill="black"/>
<path fill-rule="evenodd" clip-rule="evenodd" d="M18.506 12.3273C18.8314 12.6528 18.8314 13.1804 18.506 13.5058L14.3393 17.6725C14.0139 17.9979 13.4863 17.9979 13.1608 17.6725C12.8354 17.3471 12.8354 16.8194 13.1608 16.494L17.3275 12.3273C17.6529 12.0019 18.1806 12.0019 18.506 12.3273Z" fill="black"/>
<path fill-rule="evenodd" clip-rule="evenodd" d="M13.1608 12.3273C13.4863 12.0019 14.0139 12.0019 14.3393 12.3273L18.506 16.494C18.8314 16.8194 18.8314 17.3471 18.506 17.6725C18.1806 17.9979 17.6529 17.9979 17.3275 17.6725L13.1608 13.5058C12.8354 13.1804 12.8354 12.6528 13.1608 12.3273Z" fill="black"/>
</svg>
