<svg width="20" height="20" viewBox="0 0 20 20" fill="none" xmlns="http://www.w3.org/2000/svg">
<path fill-rule="evenodd" clip-rule="evenodd" d="M4.6967 3.02995C6.10322 1.62343 8.01088 0.833252 10 0.833252C11.9891 0.833252 13.8968 1.62343 15.3033 3.02995C16.7098 4.43647 17.5 6.34413 17.5 8.33325C17.5 9.2699 17.2967 10.192 16.9734 11.0677C16.814 11.4995 16.3348 11.7202 15.9031 11.5608C15.4713 11.4014 15.2505 10.9222 15.4099 10.4905C15.6816 9.75448 15.8333 9.02994 15.8333 8.33325C15.8333 6.78616 15.2188 5.30242 14.1248 4.20846C13.0308 3.1145 11.5471 2.49992 10 2.49992C8.4529 2.49992 6.96917 3.1145 5.87521 4.20846C4.78125 5.30242 4.16667 6.78616 4.16667 8.33325C4.16667 10.1327 5.18056 12.0721 6.49812 13.8032C7.77166 15.4765 9.23302 16.8315 9.99996 17.4971C10.2068 17.3172 10.4109 17.1341 10.612 16.9478C10.9496 16.635 11.4769 16.6551 11.7896 16.9927C12.1024 17.3304 12.0823 17.8576 11.7447 18.1704C11.5154 18.3828 11.2825 18.5914 11.0461 18.7959C11.0317 18.8084 11.0169 18.8203 11.0017 18.8318C10.7129 19.049 10.3613 19.1664 10 19.1664C9.63867 19.1664 9.28713 19.049 8.99833 18.8318C8.98335 18.8205 8.96875 18.8088 8.95455 18.7965C8.15857 18.1092 6.56906 16.6484 5.17188 14.8126C3.79402 13.0023 2.5 10.6947 2.5 8.33325C2.5 6.34413 3.29018 4.43647 4.6967 3.02995Z" fill="black"/>
<path fill-rule="evenodd" clip-rule="evenodd" d="M10.0001 6.66667C9.07961 6.66667 8.33341 7.41286 8.33341 8.33333C8.33341 9.25381 9.07961 10 10.0001 10C10.9206 10 11.6667 9.25381 11.6667 8.33333C11.6667 7.41286 10.9206 6.66667 10.0001 6.66667ZM6.66675 8.33333C6.66675 6.49238 8.15913 5 10.0001 5C11.841 5 13.3334 6.49238 13.3334 8.33333C13.3334 10.1743 11.841 11.6667 10.0001 11.6667C8.15913 11.6667 6.66675 10.1743 6.66675 8.33333Z" fill="black"/>
<path fill-rule="evenodd" clip-rule="evenodd" d="M18.9226 12.7441C19.248 13.0695 19.248 13.5972 18.9226 13.9226L15.5893 17.2559C15.2638 17.5814 14.7362 17.5814 14.4107 17.2559L12.7441 15.5893C12.4186 15.2638 12.4186 14.7362 12.7441 14.4107C13.0695 14.0853 13.5972 14.0853 13.9226 14.4107L15 15.4882L17.7441 12.7441C18.0695 12.4186 18.5972 12.4186 18.9226 12.7441Z" fill="black"/>
</svg>
