<svg width="20" height="20" viewBox="0 0 20 20" fill="none" xmlns="http://www.w3.org/2000/svg">
<g clip-path="url(#clip0_2001_8188)">
<path fill-rule="evenodd" clip-rule="evenodd" d="M14.0752 11.1133C14.349 10.9307 14.6708 10.8333 14.9999 10.8333C15.3291 10.8333 15.6508 10.9307 15.9247 11.1133C15.9247 11.1134 15.9248 11.1134 15.9248 11.1134C15.9249 11.1135 15.9249 11.1135 15.9249 11.1135L18.4249 12.7802C18.6531 12.9324 18.8402 13.1386 18.9696 13.3805C19.0989 13.6224 19.1666 13.8924 19.1666 14.1667C19.1666 14.1668 19.1666 14.1668 19.1666 14.1668V17.5C19.1666 17.9421 18.991 18.366 18.6784 18.6786C18.3659 18.9911 17.9419 19.1667 17.4999 19.1667H12.4999C12.0579 19.1667 11.634 18.9911 11.3214 18.6786C11.0088 18.366 10.8333 17.9421 10.8333 17.5V14.1668C10.8333 14.1668 10.8333 14.1668 10.8333 14.1667C10.8332 13.8924 10.9009 13.6224 11.0303 13.3805C11.1596 13.1386 11.3467 12.9324 11.5749 12.7802L14.0749 11.1135C14.0749 11.1135 14.075 11.1135 14.075 11.1134C14.0751 11.1134 14.0751 11.1134 14.0752 11.1133ZM11.6657 14.1667H12.4996L12.4996 14.1666L11.6657 14.1667ZM12.4999 14.1666L12.4997 14.1667H12.4999V17.5H17.4999V14.1667H17.5001L17.4999 14.1666L14.9999 12.4999L12.4999 14.1666ZM17.5003 14.1666L17.5002 14.1667H18.3341L17.5003 14.1666Z" fill="black"/>
<path fill-rule="evenodd" clip-rule="evenodd" d="M3.02995 3.02995C4.43647 1.62343 6.34413 0.833252 8.33325 0.833252C10.3224 0.833252 12.23 1.62343 13.6366 3.02995C15.0431 4.43647 15.8333 6.34413 15.8333 8.33325C15.8333 8.79349 15.4602 9.16658 14.9999 9.16658C14.5397 9.16658 14.1666 8.79349 14.1666 8.33325C14.1666 6.78616 13.552 5.30242 12.458 4.20846C11.3641 3.1145 9.88035 2.49992 8.33325 2.49992C6.78616 2.49992 5.30242 3.1145 4.20846 4.20846C3.1145 5.30242 2.49992 6.78616 2.49992 8.33325C2.49992 10.1327 3.51382 12.0721 4.83137 13.8032C6.1062 15.4782 7.56923 16.8343 8.33554 17.4991C8.79434 17.5003 9.16613 17.8724 9.16658 18.3316C9.16704 18.7918 8.79432 19.1653 8.33408 19.1658C7.9729 19.1661 7.62137 19.0491 7.33242 18.8324C7.31714 18.821 7.30226 18.809 7.28781 18.7965C6.49182 18.1092 4.90231 16.6484 3.50514 14.8126C2.12727 13.0023 0.833252 10.6947 0.833252 8.33325C0.833252 6.34413 1.62343 4.43647 3.02995 3.02995Z" fill="black"/>
<path fill-rule="evenodd" clip-rule="evenodd" d="M15.0001 15C15.4603 15 15.8334 15.3731 15.8334 15.8333V18.3333C15.8334 18.7936 15.4603 19.1667 15.0001 19.1667C14.5398 19.1667 14.1667 18.7936 14.1667 18.3333V15.8333C14.1667 15.3731 14.5398 15 15.0001 15Z" fill="black"/>
<path fill-rule="evenodd" clip-rule="evenodd" d="M8.33333 6.66667C7.41286 6.66667 6.66667 7.41286 6.66667 8.33333C6.66667 9.25381 7.41286 10 8.33333 10C9.25381 10 10 9.25381 10 8.33333C10 7.41286 9.25381 6.66667 8.33333 6.66667ZM5 8.33333C5 6.49238 6.49238 5 8.33333 5C10.1743 5 11.6667 6.49238 11.6667 8.33333C11.6667 10.1743 10.1743 11.6667 8.33333 11.6667C6.49238 11.6667 5 10.1743 5 8.33333Z" fill="black"/>
</g>
<defs>
<clipPath id="clip0_2001_8188">
<rect width="20" height="20" fill="white"/>
</clipPath>
</defs>
</svg>
