<svg width="20" height="20" viewBox="0 0 20 20" fill="none" xmlns="http://www.w3.org/2000/svg">
<g clip-path="url(#clip0_2001_8200)">
<path fill-rule="evenodd" clip-rule="evenodd" d="M9.81787 5.70107C9.93228 5.25528 10.3864 4.98665 10.8322 5.10107C11.4105 5.2495 11.9384 5.55054 12.3605 5.97273C12.7827 6.39492 13.0838 6.92275 13.2322 7.50107C13.3466 7.94686 13.078 8.40099 12.6322 8.51541C12.1864 8.62983 11.7323 8.3612 11.6179 7.91541C11.5437 7.62625 11.3931 7.36234 11.182 7.15124C10.9709 6.94015 10.707 6.78963 10.4179 6.71541C9.97208 6.60099 9.70345 6.14686 9.81787 5.70107Z" fill="black"/>
<path fill-rule="evenodd" clip-rule="evenodd" d="M5.00244 3.8426C5.3803 4.10536 5.4736 4.62469 5.21083 5.00254C4.53095 5.98021 4.16658 7.14254 4.16667 8.33337V8.33343C4.16667 10.1329 5.18056 12.0723 6.49812 13.8034C7.77169 15.4767 9.23308 16.8318 10 17.4973C10.779 16.8214 12.2744 15.4341 13.561 13.7255C13.8378 13.3578 14.3603 13.2842 14.7279 13.5611C15.0956 13.8379 15.1692 14.3604 14.8924 14.728C13.4801 16.6036 11.8531 18.0994 11.0454 18.7967C11.0312 18.809 11.0166 18.8207 11.0017 18.832C10.7129 19.0491 10.3613 19.1666 10 19.1666C9.63868 19.1666 9.28713 19.0491 8.99833 18.832C8.98335 18.8207 8.96875 18.8089 8.95455 18.7967C8.15857 18.1094 6.56906 16.6485 5.17188 14.8128C3.79403 13.0025 2.50002 10.6949 2.5 8.33349M5.00244 3.8426C4.62459 3.57984 4.10526 3.67314 3.8425 4.05099L5.00244 3.8426ZM3.8425 4.05099C2.96838 5.30798 2.4999 6.80239 2.5 8.33343L3.8425 4.05099Z" fill="black"/>
<path fill-rule="evenodd" clip-rule="evenodd" d="M1.07733 1.07733C1.40277 0.751893 1.9304 0.751893 2.25584 1.07733L18.9225 17.744C19.2479 18.0694 19.2479 18.5971 18.9225 18.9225C18.5971 19.2479 18.0694 19.2479 17.744 18.9225L1.07733 2.25584C0.751893 1.9304 0.751893 1.40277 1.07733 1.07733Z" fill="black"/>
<path fill-rule="evenodd" clip-rule="evenodd" d="M10.2944 2.50711C9.30498 2.45711 8.31908 2.65994 7.42971 3.09648C7.01656 3.29927 6.51724 3.12874 6.31445 2.71559C6.11166 2.30244 6.28219 1.80312 6.69534 1.60032C7.83881 1.03906 9.10639 0.778278 10.3786 0.842568C11.6507 0.906858 12.8856 1.2941 13.9666 1.96778C15.0477 2.64147 15.9394 3.57939 16.5576 4.69311C17.1757 5.80682 17.5001 7.05963 17.5 8.3334M10.2944 2.50711C11.2839 2.55711 12.2443 2.8583 13.0852 3.38228L10.2944 2.50711ZM13.0852 3.38228C13.926 3.90625 14.6195 4.63575 15.1003 5.50198L13.0852 3.38228ZM15.1003 5.50198C15.5811 6.36821 15.8334 7.34263 15.8334 8.33335L15.1003 5.50198ZM15.8334 8.33335V8.3334V8.33335ZM15.8334 8.3334C15.8334 9.1753 15.6121 10.0561 15.2268 10.9467L15.8334 8.3334ZM17.5 8.33345C17.5 9.4632 17.2046 10.5724 16.7565 11.6084C16.5738 12.0308 16.0833 12.2251 15.6609 12.0424C15.2385 11.8597 15.0441 11.3692 15.2268 10.9467" fill="black"/>
<path fill-rule="evenodd" clip-rule="evenodd" d="M7.84958 6.81056C8.29011 6.94379 8.53923 7.40892 8.406 7.84945C8.3187 8.13811 8.31135 8.44506 8.38475 8.73756C8.45815 9.03007 8.60954 9.29719 8.82279 9.51043C9.03604 9.72368 9.30315 9.87507 9.59566 9.94847C9.88817 10.0219 10.1951 10.0145 10.4838 9.92723C10.9243 9.79399 11.3894 10.0431 11.5227 10.4836C11.6559 10.9242 11.4068 11.3893 10.9662 11.5225C10.3889 11.6971 9.77503 11.7118 9.19002 11.565C8.605 11.4182 8.07077 11.1154 7.64428 10.6889C7.21778 10.2624 6.915 9.72822 6.7682 9.14321C6.6214 8.55819 6.63609 7.9443 6.81069 7.36698C6.94392 6.92644 7.40905 6.67733 7.84958 6.81056Z" fill="black"/>
</g>
<defs>
<clipPath id="clip0_2001_8200">
<rect width="20" height="20" fill="white"/>
</clipPath>
</defs>
</svg>
