<svg width="20" height="20" viewBox="0 0 20 20" fill="none" xmlns="http://www.w3.org/2000/svg">
<path fill-rule="evenodd" clip-rule="evenodd" d="M4.6967 3.02995C6.10322 1.62343 8.01088 0.833252 10 0.833252C11.9891 0.833252 13.8968 1.62343 15.3033 3.02995C16.7098 4.43647 17.5 6.34413 17.5 8.33325C17.5 9.61492 17.1195 10.8719 16.5656 12.027C16.3665 12.4419 15.8688 12.617 15.4538 12.418C15.0388 12.2189 14.8638 11.7212 15.0628 11.3062C15.5471 10.2963 15.8333 9.28992 15.8333 8.33325C15.8333 6.78616 15.2188 5.30242 14.1248 4.20846C13.0308 3.1145 11.5471 2.49992 10 2.49992C8.4529 2.49992 6.96917 3.1145 5.87521 4.20846C4.78125 5.30242 4.16667 6.78616 4.16667 8.33325C4.16667 10.1327 5.18056 12.0721 6.49812 13.8032C7.77167 15.4765 9.23304 16.8315 9.99997 17.4971C10.2099 17.3146 10.4169 17.1288 10.6209 16.9397C10.9584 16.6268 11.4856 16.6467 11.7986 16.9841C12.1115 17.3216 12.0916 17.8489 11.7541 18.1618C11.5217 18.3773 11.2857 18.5887 11.046 18.796C11.0316 18.8085 11.0168 18.8204 11.0017 18.8318C10.7129 19.049 10.3613 19.1664 10 19.1664C9.63867 19.1664 9.28713 19.049 8.99833 18.8318C8.98335 18.8205 8.96875 18.8088 8.95455 18.7965C8.15857 18.1092 6.56906 16.6484 5.17188 14.8126C3.79402 13.0023 2.5 10.6947 2.5 8.33325C2.5 6.34413 3.29018 4.43647 4.6967 3.02995Z" fill="black"/>
<path fill-rule="evenodd" clip-rule="evenodd" d="M10.0001 6.66667C9.07961 6.66667 8.33341 7.41286 8.33341 8.33333C8.33341 9.25381 9.07961 10 10.0001 10C10.9206 10 11.6667 9.25381 11.6667 8.33333C11.6667 7.41286 10.9206 6.66667 10.0001 6.66667ZM6.66675 8.33333C6.66675 6.49238 8.15913 5 10.0001 5C11.841 5 13.3334 6.49238 13.3334 8.33333C13.3334 10.1743 11.841 11.6667 10.0001 11.6667C8.15913 11.6667 6.66675 10.1743 6.66675 8.33333Z" fill="black"/>
<path fill-rule="evenodd" clip-rule="evenodd" d="M12.5 15.0001C12.5 14.5398 12.8731 14.1667 13.3333 14.1667H18.3333C18.7936 14.1667 19.1667 14.5398 19.1667 15.0001C19.1667 15.4603 18.7936 15.8334 18.3333 15.8334H13.3333C12.8731 15.8334 12.5 15.4603 12.5 15.0001Z" fill="black"/>
</svg>
