<svg width="20" height="20" viewBox="0 0 20 20" fill="none" xmlns="http://www.w3.org/2000/svg">
<g clip-path="url(#clip0_2001_8227)">
<path fill-rule="evenodd" clip-rule="evenodd" d="M10.0001 2.49992C8.89501 2.49992 7.83521 2.93891 7.0538 3.72031C6.2724 4.50171 5.83341 5.56152 5.83341 6.66659C5.83341 7.90037 6.50854 9.26802 7.44285 10.54C8.33511 11.7548 9.37864 12.7686 10.0001 13.3299C10.6217 12.7688 11.6654 11.7549 12.5576 10.5401C13.4918 9.26811 14.1667 7.90042 14.1667 6.66659C14.1667 5.56152 13.7278 4.50171 12.9464 3.72031C12.165 2.93891 11.1052 2.49992 10.0001 2.49992ZM5.87529 2.5418C6.96925 1.44783 8.45299 0.833252 10.0001 0.833252C11.5472 0.833252 13.0309 1.44783 14.1249 2.5418C15.2188 3.63576 15.8334 5.11949 15.8334 6.66659C15.8334 8.44358 14.8963 10.1713 13.9009 11.5266C12.8881 12.9056 11.7177 14.0287 11.0621 14.6163C11.0459 14.6309 11.0291 14.6448 11.0117 14.658C10.7212 14.8799 10.3657 15.0002 10.0001 15.0002C9.63446 15.0002 9.27898 14.8799 8.98841 14.658C8.97101 14.6447 8.95414 14.6307 8.93784 14.6161C8.28288 14.0287 7.11247 12.9056 6.0996 11.5267C5.10413 10.1714 4.16675 8.44364 4.16675 6.66659C4.16675 5.11949 4.78133 3.63576 5.87529 2.5418Z" fill="black"/>
<path fill-rule="evenodd" clip-rule="evenodd" d="M10 5.83341C9.53976 5.83341 9.16667 6.20651 9.16667 6.66675C9.16667 7.12699 9.53976 7.50008 10 7.50008C10.4602 7.50008 10.8333 7.12699 10.8333 6.66675C10.8333 6.20651 10.4602 5.83341 10 5.83341ZM7.5 6.66675C7.5 5.28604 8.61929 4.16675 10 4.16675C11.3807 4.16675 12.5 5.28604 12.5 6.66675C12.5 8.04746 11.3807 9.16675 10 9.16675C8.61929 9.16675 7.5 8.04746 7.5 6.66675Z" fill="black"/>
<path fill-rule="evenodd" clip-rule="evenodd" d="M4.1697 10.8333L7.26172 10.8333C7.72196 10.8333 8.09505 11.2063 8.09505 11.6666C8.09505 12.1268 7.72196 12.4999 7.26172 12.4999L4.17041 12.4999L2.50041 17.4999L17.4994 17.4999L15.8328 12.5001L15.8328 12.4999H12.7392C12.279 12.4999 11.9059 12.1268 11.9059 11.6666C11.9059 11.2063 12.279 10.8333 12.7392 10.8333L15.8324 10.8333C15.8324 10.8333 15.8325 10.8333 15.8326 10.8333C16.1824 10.8332 16.5234 10.9433 16.8073 11.1478C17.0912 11.3525 17.3034 11.6412 17.414 11.9733L19.0807 16.9733C19.1641 17.2237 19.1868 17.4903 19.147 17.7512C19.1072 18.0122 19.006 18.2599 18.8517 18.4741C18.6975 18.6882 18.4945 18.8627 18.2596 18.9831C18.0248 19.1035 17.7646 19.1664 17.5007 19.1666H2.4997C2.23556 19.1665 1.97523 19.1036 1.74016 18.9831C1.5051 18.8626 1.30204 18.688 1.14773 18.4736C0.99342 18.2592 0.89227 18.0112 0.852622 17.7501C0.812984 17.489 0.835955 17.2222 0.919641 16.9718C0.91966 16.9717 0.919679 16.9716 0.919698 16.9716L2.5897 11.9716C2.70047 11.6402 2.91262 11.3519 3.19615 11.1477C3.47968 10.9434 3.82025 10.8334 4.1697 10.8333Z" fill="black"/>
</g>
<defs>
<clipPath id="clip0_2001_8227">
<rect width="20" height="20" fill="white"/>
</clipPath>
</defs>
</svg>
