<svg width="20" height="20" viewBox="0 0 20 20" fill="none" xmlns="http://www.w3.org/2000/svg">
<path fill-rule="evenodd" clip-rule="evenodd" d="M7.12775 3.61775C7.12769 3.61778 7.12764 3.61781 7.12758 3.61784L3.33342 5.51534L3.33342 16.1507L3.33341 16.1528L6.38232 14.6279L6.38258 14.6278C6.72958 14.4544 7.11217 14.3641 7.50008 14.3641C7.88799 14.3641 8.27058 14.4544 8.61758 14.6278L8.61776 14.6279L12.1276 16.3828C12.1276 16.3828 12.1277 16.3828 12.1278 16.3829C12.2434 16.4406 12.3708 16.4707 12.5001 16.4707C12.6293 16.4707 12.7567 16.4406 12.8723 16.3829C12.8724 16.3829 12.8725 16.3828 12.8726 16.3828L16.6665 14.4854L16.6668 14.4853V3.84784L13.6176 5.37284C13.2706 5.54623 12.888 5.6365 12.5001 5.6365C12.1122 5.6365 11.7296 5.54623 11.3826 5.37284L7.87258 3.61784C7.87252 3.61781 7.87247 3.61778 7.87241 3.61775C7.75679 3.56001 7.62932 3.52995 7.50008 3.52995C7.37087 3.52995 7.24343 3.56 7.12783 3.61771C7.1278 3.61773 7.12778 3.61774 7.12775 3.61775ZM6.38258 2.12695C6.72958 1.95355 7.11217 1.86328 7.50008 1.86328C7.888 1.86328 8.27058 1.95355 8.61758 2.12695L12.1276 3.88195C12.1276 3.88198 12.1277 3.88201 12.1278 3.88204C12.2434 3.93978 12.3708 3.96983 12.5001 3.96983C12.6293 3.96983 12.7567 3.93979 12.8723 3.88208C12.8724 3.88204 12.8724 3.88201 12.8725 3.88198C12.8725 3.88197 12.8726 3.88196 12.8726 3.88195L15.9218 2.35695C16.176 2.22988 16.4586 2.16996 16.7426 2.18289C17.0265 2.19583 17.3025 2.28118 17.5442 2.43083C17.7859 2.58049 17.9853 2.78947 18.1234 3.03792C18.2614 3.28612 18.3337 3.56547 18.3334 3.84944C18.3334 3.84972 18.3334 3.85 18.3334 3.85028V14.4862C18.3333 14.7956 18.2469 15.0989 18.0842 15.362C17.9214 15.6251 17.6887 15.8377 17.412 15.976C17.4119 15.9761 17.4118 15.9761 17.4118 15.9762L13.6178 17.8735L13.6176 17.8737C13.2706 18.0471 12.888 18.1373 12.5001 18.1373C12.1122 18.1373 11.7296 18.0471 11.3826 17.8737L11.3824 17.8736L7.87258 16.1187C7.87252 16.1186 7.87247 16.1186 7.87241 16.1186C7.75679 16.0608 7.62932 16.0308 7.50008 16.0308C7.37088 16.0308 7.24344 16.0608 7.12784 16.1185C7.12776 16.1186 7.12767 16.1186 7.12758 16.1187L4.07842 17.6437C3.82401 17.7708 3.54129 17.8307 3.25718 17.8177C2.97307 17.8047 2.69701 17.7192 2.45528 17.5693C2.21355 17.4195 2.01419 17.2103 1.87616 16.9616C1.73834 16.7133 1.66626 16.4339 1.66675 16.1499L1.66675 5.51445C1.66692 5.20501 1.75322 4.90173 1.916 4.63857C2.07874 4.37549 2.31148 4.16289 2.58817 4.02457C2.58825 4.02453 2.58834 4.02449 2.58842 4.02445L6.38258 2.12695Z" fill="black"/>
<path fill-rule="evenodd" clip-rule="evenodd" d="M12.5001 3.96997C12.9603 3.96997 13.3334 4.34307 13.3334 4.8033V17.3033C13.3334 17.7635 12.9603 18.1366 12.5001 18.1366C12.0398 18.1366 11.6667 17.7635 11.6667 17.3033V4.8033C11.6667 4.34307 12.0398 3.96997 12.5001 3.96997Z" fill="black"/>
<path fill-rule="evenodd" clip-rule="evenodd" d="M7.50008 1.86328C7.96032 1.86328 8.33341 2.23638 8.33341 2.69661V15.1966C8.33341 15.6569 7.96032 16.0299 7.50008 16.0299C7.03984 16.0299 6.66675 15.6569 6.66675 15.1966V2.69661C6.66675 2.23638 7.03984 1.86328 7.50008 1.86328Z" fill="black"/>
</svg>
