<svg width="20" height="20" viewBox="0 0 20 20" fill="none" xmlns="http://www.w3.org/2000/svg">
<path fill-rule="evenodd" clip-rule="evenodd" d="M5.83325 18.3333C5.83325 17.8731 6.20635 17.5 6.66659 17.5H13.3333C13.7935 17.5 14.1666 17.8731 14.1666 18.3333C14.1666 18.7936 13.7935 19.1667 13.3333 19.1667H6.66659C6.20635 19.1667 5.83325 18.7936 5.83325 18.3333Z" fill="black"/>
<path fill-rule="evenodd" clip-rule="evenodd" d="M10.0001 8.33325C10.4603 8.33325 10.8334 8.70635 10.8334 9.16659V18.3333C10.8334 18.7935 10.4603 19.1666 10.0001 19.1666C9.53984 19.1666 9.16675 18.7935 9.16675 18.3333V9.16659C9.16675 8.70635 9.53984 8.33325 10.0001 8.33325Z" fill="black"/>
<path fill-rule="evenodd" clip-rule="evenodd" d="M3.40774 2.15573C3.54285 1.85798 3.83962 1.66675 4.1666 1.66675H15.8333C16.1602 1.66675 16.457 1.85798 16.5921 2.15573C16.7272 2.45349 16.6757 2.80276 16.4604 3.04884L10.6271 9.7155C10.4688 9.89635 10.2402 10.0001 9.99993 10.0001C9.75963 10.0001 9.53102 9.89635 9.37278 9.7155L3.53945 3.04884C3.32413 2.80276 3.27262 2.45349 3.40774 2.15573ZM6.00307 3.33341L9.99993 7.90125L13.9968 3.33341H6.00307Z" fill="black"/>
</svg>
