<svg width="20" height="20" viewBox="0 0 20 20" fill="none" xmlns="http://www.w3.org/2000/svg">
<path fill-rule="evenodd" clip-rule="evenodd" d="M11.6667 2.50008C11.6667 2.03984 12.0398 1.66675 12.5001 1.66675H17.5001C17.9603 1.66675 18.3334 2.03984 18.3334 2.50008V7.50008C18.3334 7.96032 17.9603 8.33341 17.5001 8.33341C17.0398 8.33341 16.6667 7.96032 16.6667 7.50008V3.33341H12.5001C12.0398 3.33341 11.6667 2.96032 11.6667 2.50008Z" fill="black"/>
<path fill-rule="evenodd" clip-rule="evenodd" d="M2.50008 11.6667C2.96032 11.6667 3.33341 12.0398 3.33341 12.5001V16.6667H7.50008C7.96032 16.6667 8.33341 17.0398 8.33341 17.5001C8.33341 17.9603 7.96032 18.3334 7.50008 18.3334H2.50008C2.03984 18.3334 1.66675 17.9603 1.66675 17.5001V12.5001C1.66675 12.0398 2.03984 11.6667 2.50008 11.6667Z" fill="black"/>
<path fill-rule="evenodd" clip-rule="evenodd" d="M18.0892 1.91083C18.4146 2.23626 18.4146 2.7639 18.0892 3.08934L12.2558 8.92267C11.9304 9.24811 11.4028 9.24811 11.0773 8.92267C10.7519 8.59723 10.7519 8.0696 11.0773 7.74416L16.9107 1.91083C17.2361 1.58539 17.7637 1.58539 18.0892 1.91083Z" fill="black"/>
<path fill-rule="evenodd" clip-rule="evenodd" d="M8.92267 11.0773C9.24811 11.4028 9.24811 11.9304 8.92267 12.2558L3.08934 18.0892C2.7639 18.4146 2.23626 18.4146 1.91083 18.0892C1.58539 17.7637 1.58539 17.2361 1.91083 16.9107L7.74416 11.0773C8.0696 10.7519 8.59723 10.7519 8.92267 11.0773Z" fill="black"/>
</svg>
