<svg width="20" height="20" viewBox="0 0 20 20" fill="none" xmlns="http://www.w3.org/2000/svg">
<path fill-rule="evenodd" clip-rule="evenodd" d="M2.39898 2.39898C2.86782 1.93014 3.50371 1.66675 4.16675 1.66675H6.66675C7.12699 1.66675 7.50008 2.03984 7.50008 2.50008C7.50008 2.96032 7.12699 3.33341 6.66675 3.33341H4.16675C3.94573 3.33341 3.73377 3.42121 3.57749 3.57749C3.42121 3.73377 3.33341 3.94573 3.33341 4.16675V6.66675C3.33341 7.12699 2.96032 7.50008 2.50008 7.50008C2.03984 7.50008 1.66675 7.12699 1.66675 6.66675V4.16675C1.66675 3.50371 1.93014 2.86782 2.39898 2.39898Z" fill="black"/>
<path fill-rule="evenodd" clip-rule="evenodd" d="M12.5 2.50008C12.5 2.03984 12.8731 1.66675 13.3333 1.66675H15.8333C16.4964 1.66675 17.1323 1.93014 17.6011 2.39898C18.0699 2.86782 18.3333 3.50371 18.3333 4.16675V6.66675C18.3333 7.12699 17.9602 7.50008 17.5 7.50008C17.0398 7.50008 16.6667 7.12699 16.6667 6.66675V4.16675C16.6667 3.94573 16.5789 3.73377 16.4226 3.57749C16.2663 3.42121 16.0543 3.33341 15.8333 3.33341H13.3333C12.8731 3.33341 12.5 2.96032 12.5 2.50008Z" fill="black"/>
<path fill-rule="evenodd" clip-rule="evenodd" d="M2.50008 12.5C2.96032 12.5 3.33341 12.8731 3.33341 13.3333V15.8333C3.33341 16.0543 3.42121 16.2663 3.57749 16.4226C3.73377 16.5789 3.94573 16.6667 4.16675 16.6667H6.66675C7.12699 16.6667 7.50008 17.0398 7.50008 17.5C7.50008 17.9602 7.12699 18.3333 6.66675 18.3333H4.16675C3.50371 18.3333 2.86782 18.0699 2.39898 17.6011C1.93014 17.1323 1.66675 16.4964 1.66675 15.8333V13.3333C1.66675 12.8731 2.03984 12.5 2.50008 12.5Z" fill="black"/>
<path fill-rule="evenodd" clip-rule="evenodd" d="M17.5 12.5C17.9602 12.5 18.3333 12.8731 18.3333 13.3333V15.8333C18.3333 16.4964 18.0699 17.1323 17.6011 17.6011C17.1323 18.0699 16.4964 18.3333 15.8333 18.3333H13.3333C12.8731 18.3333 12.5 17.9602 12.5 17.5C12.5 17.0398 12.8731 16.6667 13.3333 16.6667H15.8333C16.0543 16.6667 16.2663 16.5789 16.4226 16.4226C16.5789 16.2663 16.6667 16.0543 16.6667 15.8333V13.3333C16.6667 12.8731 17.0398 12.5 17.5 12.5Z" fill="black"/>
</svg>
