<svg width="20" height="20" viewBox="0 0 20 20" fill="none" xmlns="http://www.w3.org/2000/svg">
<path fill-rule="evenodd" clip-rule="evenodd" d="M5.00013 2.49992C4.87076 2.49992 4.74316 2.53004 4.62745 2.5879C4.51174 2.64575 4.41108 2.72975 4.33346 2.83325L2.99228 4.61594C2.99211 4.61617 2.99194 4.61639 2.99177 4.61662C2.89426 4.74717 2.83716 4.90346 2.82754 5.06614C2.81792 5.22903 2.85633 5.39116 2.938 5.53242C2.93804 5.53249 2.93807 5.53255 2.93811 5.53261L6.72967 12.0824C6.96025 12.4807 6.82427 12.9906 6.42595 13.2211C6.02764 13.4517 5.51783 13.3157 5.28725 12.9174L1.49548 6.36723C1.25023 5.94332 1.13489 5.45671 1.16378 4.96783C1.19267 4.47894 1.36451 4.0093 1.65798 3.61723C1.65839 3.61668 1.6588 3.61614 1.65921 3.61559L3.00013 1.83325C3.00026 1.83307 3.0004 1.83289 3.00053 1.83271C3.23335 1.52247 3.53516 1.27065 3.88209 1.09718C4.22923 0.923615 4.61201 0.833252 5.00013 0.833252H15.0001C15.3882 0.833252 15.771 0.923615 16.1182 1.09718C16.4653 1.27075 16.7673 1.52276 17.0001 1.83325L18.3316 3.61409C18.3321 3.61473 18.3325 3.61536 18.333 3.616C18.6276 4.00643 18.8011 4.47469 18.8322 4.9628C18.8633 5.45171 18.7501 5.93898 18.5066 6.36409C18.5059 6.3652 18.5053 6.36631 18.5047 6.36741L14.713 12.9174C14.4824 13.3157 13.9726 13.4517 13.5743 13.2211C13.176 12.9906 13.04 12.4807 13.2706 12.0824L17.0603 5.53575C17.0606 5.53528 17.0609 5.53481 17.0611 5.53435C17.1417 5.39297 17.1792 5.23108 17.1689 5.06865C17.1585 4.90568 17.1005 4.74935 17.002 4.61908C17.0011 4.61792 17.0003 4.61675 16.9994 4.61559L15.6668 2.83325C15.6667 2.83312 15.6666 2.83299 15.6665 2.83286C15.5889 2.72954 15.4884 2.64568 15.3728 2.5879C15.2571 2.53004 15.1295 2.49992 15.0001 2.49992H5.00013Z" fill="black"/>
<path fill-rule="evenodd" clip-rule="evenodd" d="M3.83782 1.11864C4.23247 0.881848 4.74435 1.00982 4.98114 1.40447L9.88114 9.57114C10.1179 9.96579 9.98996 10.4777 9.59531 10.7145C9.20066 10.9513 8.68878 10.8233 8.45199 10.4286L3.55199 2.26196C3.3152 1.86731 3.44317 1.35543 3.83782 1.11864Z" fill="black"/>
<path fill-rule="evenodd" clip-rule="evenodd" d="M16.162 1.11864C16.5566 1.35543 16.6846 1.86731 16.4478 2.26196L11.5478 10.4286C11.311 10.8233 10.7991 10.9513 10.4045 10.7145C10.0098 10.4777 9.88185 9.96579 10.1186 9.57114L15.0186 1.40447C15.2554 1.00982 15.7673 0.881848 16.162 1.11864Z" fill="black"/>
<path fill-rule="evenodd" clip-rule="evenodd" d="M5.83325 5.83333C5.83325 5.3731 6.20635 5 6.66659 5H13.3333C13.7935 5 14.1666 5.3731 14.1666 5.83333C14.1666 6.29357 13.7935 6.66667 13.3333 6.66667H6.66659C6.20635 6.66667 5.83325 6.29357 5.83325 5.83333Z" fill="black"/>
<path fill-rule="evenodd" clip-rule="evenodd" d="M10 10.8334C8.15905 10.8334 6.66667 12.3258 6.66667 14.1667C6.66667 16.0077 8.15905 17.5001 10 17.5001C11.8409 17.5001 13.3333 16.0077 13.3333 14.1667C13.3333 12.3258 11.8409 10.8334 10 10.8334ZM5 14.1667C5 11.4053 7.23858 9.16675 10 9.16675C12.7614 9.16675 15 11.4053 15 14.1667C15 16.9282 12.7614 19.1667 10 19.1667C7.23858 19.1667 5 16.9282 5 14.1667Z" fill="black"/>
<path fill-rule="evenodd" clip-rule="evenodd" d="M8.75 13.3333C8.75 12.8731 9.1231 12.5 9.58333 12.5H10C10.4602 12.5 10.8333 12.8731 10.8333 13.3333V15C10.8333 15.4602 10.4602 15.8333 10 15.8333C9.53976 15.8333 9.16667 15.4602 9.16667 15V14.0552C8.91758 13.9111 8.75 13.6418 8.75 13.3333Z" fill="black"/>
</svg>
