<svg width="20" height="20" viewBox="0 0 20 20" fill="none" xmlns="http://www.w3.org/2000/svg">
<g clip-path="url(#clip0_2001_8256)">
<path fill-rule="evenodd" clip-rule="evenodd" d="M8.51964 7.49343C8.6429 7.93686 8.38334 8.39624 7.93992 8.5195L3.33341 9.7999V10.998L14.4641 13.4698C14.9134 13.5695 15.1967 14.0146 15.0969 14.4639C14.9972 14.9132 14.5521 15.1966 14.1028 15.0968L2.31943 12.4801C1.93809 12.3954 1.66675 12.0572 1.66675 11.6666V9.1666C1.66675 8.79231 1.9163 8.46394 2.27691 8.36371L7.49358 6.91371C7.93701 6.79045 8.39639 7.05001 8.51964 7.49343Z" fill="black"/>
<path fill-rule="evenodd" clip-rule="evenodd" d="M18.0042 4.33667C18.2115 4.49425 18.3333 4.73968 18.3333 5.00009V12.7834C18.3333 13.2437 17.9602 13.6168 17.4999 13.6168C17.0397 13.6168 16.6666 13.2437 16.6666 12.7834V6.09638L11.6312 7.4947C11.1878 7.61785 10.7285 7.35819 10.6053 6.91474C10.4822 6.47128 10.7418 6.01196 11.1853 5.88881L17.2769 4.19714C17.5278 4.12746 17.7969 4.17908 18.0042 4.33667Z" fill="black"/>
<path fill-rule="evenodd" clip-rule="evenodd" d="M5.05488 11.8632C5.49854 11.9856 5.75899 12.4445 5.6366 12.8882C5.57815 13.1 5.56201 13.3213 5.58909 13.5394C5.61617 13.7575 5.68594 13.9682 5.79443 14.1593C5.90291 14.3505 6.04798 14.5184 6.22136 14.6534C6.39473 14.7885 6.59301 14.8881 6.80488 14.9466C7.01674 15.005 7.23805 15.0211 7.45615 14.9941C7.67426 14.967 7.8849 14.8972 8.07604 14.7887C8.26718 14.6802 8.43508 14.5352 8.57015 14.3618C8.70523 14.1884 8.80483 13.9901 8.86328 13.7783C8.98567 13.3346 9.44455 13.0742 9.88821 13.1966C10.3319 13.3189 10.5923 13.7778 10.4699 14.2215C10.3533 14.6443 10.1545 15.0401 9.8849 15.3861C9.6153 15.7321 9.2802 16.0217 8.89871 16.2382C8.51722 16.4547 8.09682 16.594 7.66152 16.648C7.22621 16.7021 6.78452 16.6699 6.36166 16.5532C5.93881 16.4366 5.54307 16.2378 5.19704 15.9682C4.85101 15.6986 4.56147 15.3635 4.34495 14.982C4.12843 14.6005 3.98917 14.1801 3.93512 13.7448C3.88107 13.3095 3.91329 12.8678 4.02994 12.4449C4.15233 12.0013 4.61121 11.7408 5.05488 11.8632Z" fill="black"/>
<path fill-rule="evenodd" clip-rule="evenodd" d="M1.07733 1.07733C1.40277 0.751893 1.9304 0.751893 2.25584 1.07733L18.9225 17.744C19.2479 18.0694 19.2479 18.5971 18.9225 18.9225C18.5971 19.2479 18.0694 19.2479 17.744 18.9225L1.07733 2.25584C0.751893 1.9304 0.751893 1.40277 1.07733 1.07733Z" fill="black"/>
</g>
<defs>
<clipPath id="clip0_2001_8256">
<rect width="20" height="20" fill="white"/>
</clipPath>
</defs>
</svg>
