<svg width="20" height="20" viewBox="0 0 20 20" fill="none" xmlns="http://www.w3.org/2000/svg">
<path fill-rule="evenodd" clip-rule="evenodd" d="M18.0044 4.33665C18.2117 4.49423 18.3334 4.73967 18.3334 5.00009V15.0001C18.3334 15.2529 18.2187 15.492 18.0215 15.6501C17.8244 15.8083 17.5661 15.8684 17.3193 15.8136L2.31931 12.4802C1.93802 12.3955 1.66675 12.0573 1.66675 11.6668V9.16676C1.66675 8.79242 1.91636 8.46401 2.27704 8.36382L17.277 4.19716C17.528 4.12746 17.797 4.17906 18.0044 4.33665ZM3.33341 9.80016V10.9983L16.6667 13.9612V6.09646L3.33341 9.80016Z" fill="black"/>
<path fill-rule="evenodd" clip-rule="evenodd" d="M5.05488 11.8632C5.49854 11.9856 5.75899 12.4445 5.6366 12.8882C5.57815 13.1 5.56201 13.3213 5.58909 13.5394C5.61617 13.7575 5.68594 13.9682 5.79443 14.1593C5.90291 14.3505 6.04798 14.5184 6.22136 14.6534C6.39473 14.7885 6.59301 14.8881 6.80488 14.9466C7.01674 15.005 7.23805 15.0211 7.45615 14.9941C7.67426 14.967 7.8849 14.8972 8.07604 14.7887C8.26718 14.6802 8.43508 14.5352 8.57015 14.3618C8.70523 14.1884 8.80483 13.9901 8.86328 13.7783C8.98567 13.3346 9.44455 13.0742 9.88821 13.1966C10.3319 13.3189 10.5923 13.7778 10.4699 14.2215C10.3533 14.6443 10.1545 15.0401 9.8849 15.3861C9.6153 15.7321 9.2802 16.0217 8.89871 16.2382C8.51722 16.4547 8.09682 16.594 7.66152 16.648C7.22621 16.7021 6.78452 16.6699 6.36166 16.5532C5.93881 16.4366 5.54307 16.2378 5.19704 15.9682C4.85101 15.6986 4.56147 15.3635 4.34495 14.982C4.12843 14.6005 3.98917 14.1801 3.93512 13.7448C3.88107 13.3095 3.91329 12.8678 4.02994 12.4449C4.15233 12.0013 4.61121 11.7408 5.05488 11.8632Z" fill="black"/>
</svg>
