<svg width="20" height="20" viewBox="0 0 20 20" fill="none" xmlns="http://www.w3.org/2000/svg">
<g clip-path="url(#clip0_2001_8264)">
<path fill-rule="evenodd" clip-rule="evenodd" d="M9.99992 2.49992C5.85778 2.49992 2.49992 5.85778 2.49992 9.99992C2.49992 14.1421 5.85778 17.4999 9.99992 17.4999C14.1421 17.4999 17.4999 14.1421 17.4999 9.99992C17.4999 5.85778 14.1421 2.49992 9.99992 2.49992ZM0.833252 9.99992C0.833252 4.93731 4.93731 0.833252 9.99992 0.833252C15.0625 0.833252 19.1666 4.93731 19.1666 9.99992C19.1666 15.0625 15.0625 19.1666 9.99992 19.1666C4.93731 19.1666 0.833252 15.0625 0.833252 9.99992Z" fill="black"/>
<path fill-rule="evenodd" clip-rule="evenodd" d="M5.83325 12.5001C5.83325 12.0398 6.20635 11.6667 6.66659 11.6667H13.3333C13.7935 11.6667 14.1666 12.0398 14.1666 12.5001C14.1666 12.9603 13.7935 13.3334 13.3333 13.3334H6.66659C6.20635 13.3334 5.83325 12.9603 5.83325 12.5001Z" fill="black"/>
<path fill-rule="evenodd" clip-rule="evenodd" d="M6.66675 7.50008C6.66675 7.03984 7.03984 6.66675 7.50008 6.66675H7.50841C7.96865 6.66675 8.34175 7.03984 8.34175 7.50008C8.34175 7.96032 7.96865 8.33341 7.50841 8.33341H7.50008C7.03984 8.33341 6.66675 7.96032 6.66675 7.50008Z" fill="black"/>
<path fill-rule="evenodd" clip-rule="evenodd" d="M11.6667 7.50008C11.6667 7.03984 12.0398 6.66675 12.5001 6.66675H12.5084C12.9687 6.66675 13.3417 7.03984 13.3417 7.50008C13.3417 7.96032 12.9687 8.33341 12.5084 8.33341H12.5001C12.0398 8.33341 11.6667 7.96032 11.6667 7.50008Z" fill="black"/>
</g>
<defs>
<clipPath id="clip0_2001_8264">
<rect width="20" height="20" fill="white"/>
</clipPath>
</defs>
</svg>
