<svg width="20" height="20" viewBox="0 0 20 20" fill="none" xmlns="http://www.w3.org/2000/svg">
<path fill-rule="evenodd" clip-rule="evenodd" d="M5.00008 12.5C5.46032 12.5 5.83341 12.8731 5.83341 13.3333V15.8333C5.83341 16.2936 5.46032 16.6667 5.00008 16.6667C4.53984 16.6667 4.16675 16.2936 4.16675 15.8333V13.3333C4.16675 12.8731 4.53984 12.5 5.00008 12.5Z" fill="black"/>
<path fill-rule="evenodd" clip-rule="evenodd" d="M8.33333 12.5C8.79357 12.5 9.16667 12.8731 9.16667 13.3333V15.8333C9.16667 16.2936 8.79357 16.6667 8.33333 16.6667C7.8731 16.6667 7.5 16.2936 7.5 15.8333V13.3333C7.5 12.8731 7.8731 12.5 8.33333 12.5Z" fill="black"/>
<path fill-rule="evenodd" clip-rule="evenodd" d="M11.6666 12.5C12.1268 12.5 12.4999 12.8731 12.4999 13.3333V15.8333C12.4999 16.2936 12.1268 16.6667 11.6666 16.6667C11.2063 16.6667 10.8333 16.2936 10.8333 15.8333V13.3333C10.8333 12.8731 11.2063 12.5 11.6666 12.5Z" fill="black"/>
<path fill-rule="evenodd" clip-rule="evenodd" d="M15.0001 12.5C15.4603 12.5 15.8334 12.8731 15.8334 13.3333V15.8333C15.8334 16.2936 15.4603 16.6667 15.0001 16.6667C14.5398 16.6667 14.1667 16.2936 14.1667 15.8333V13.3333C14.1667 12.8731 14.5398 12.5 15.0001 12.5Z" fill="black"/>
<path fill-rule="evenodd" clip-rule="evenodd" d="M6.66659 6.66675C7.12682 6.66675 7.49992 7.03984 7.49992 7.50008V9.16675C7.49992 9.62699 7.12682 10.0001 6.66659 10.0001C6.20635 10.0001 5.83325 9.62699 5.83325 9.16675V7.50008C5.83325 7.03984 6.20635 6.66675 6.66659 6.66675Z" fill="black"/>
<path fill-rule="evenodd" clip-rule="evenodd" d="M13.3333 6.66675C13.7936 6.66675 14.1667 7.03984 14.1667 7.50008V9.16675C14.1667 9.62699 13.7936 10.0001 13.3333 10.0001C12.8731 10.0001 12.5 9.62699 12.5 9.16675V7.50008C12.5 7.03984 12.8731 6.66675 13.3333 6.66675Z" fill="black"/>
<path fill-rule="evenodd" clip-rule="evenodd" d="M10.0001 6.66675C10.4603 6.66675 10.8334 7.03984 10.8334 7.50008V9.16675C10.8334 9.62699 10.4603 10.0001 10.0001 10.0001C9.53984 10.0001 9.16675 9.62699 9.16675 9.16675V7.50008C9.16675 7.03984 9.53984 6.66675 10.0001 6.66675Z" fill="black"/>
<path fill-rule="evenodd" clip-rule="evenodd" d="M0.833252 12.5001C0.833252 12.0398 1.20635 11.6667 1.66659 11.6667H18.3333C18.7935 11.6667 19.1666 12.0398 19.1666 12.5001C19.1666 12.9603 18.7935 13.3334 18.3333 13.3334H1.66659C1.20635 13.3334 0.833252 12.9603 0.833252 12.5001Z" fill="black"/>
<path fill-rule="evenodd" clip-rule="evenodd" d="M3.33325 4.99992C3.11224 4.99992 2.90028 5.08772 2.744 5.244C2.58772 5.40028 2.49992 5.61224 2.49992 5.83325V6.18502C2.76906 6.34961 3.00633 6.5647 3.19765 6.8205C3.52095 7.25276 3.69565 7.77805 3.69565 8.31783C3.69565 8.85762 3.52095 9.38291 3.19765 9.81517C3.00633 10.071 2.76906 10.2861 2.49992 10.4506V14.1666C2.49992 14.3876 2.58772 14.5996 2.744 14.7558C2.90028 14.9121 3.11224 14.9999 3.33325 14.9999H16.6666C16.8876 14.9999 17.0996 14.9121 17.2558 14.7558C17.4121 14.5996 17.4999 14.3876 17.4999 14.1666V10.4815C17.2308 10.3169 16.9935 10.1018 16.8022 9.846C16.4789 9.41374 16.3042 8.88845 16.3042 8.34867C16.3042 7.80888 16.4789 7.2836 16.8022 6.85134C16.9935 6.59553 17.2308 6.38044 17.4999 6.21585V5.83325C17.4999 5.61224 17.4121 5.40028 17.2558 5.244C17.0996 5.08772 16.8876 4.99992 16.6666 4.99992H3.33325ZM1.56549 4.06548C2.03433 3.59664 2.67021 3.33325 3.33325 3.33325H16.6666C17.3296 3.33325 17.9655 3.59664 18.4344 4.06548C18.9032 4.53433 19.1666 5.17021 19.1666 5.83325V6.74992C19.1666 7.11947 18.9232 7.44487 18.5687 7.54929C18.3961 7.60013 18.2446 7.70547 18.1369 7.84956C18.0291 7.99364 17.9708 8.16874 17.9708 8.34867C17.9708 8.5286 18.0291 8.70369 18.1369 8.84778C18.2446 8.99187 18.3961 9.0972 18.5687 9.14804C18.9232 9.25246 19.1666 9.57787 19.1666 9.94742V14.1666C19.1666 14.8296 18.9032 15.4655 18.4344 15.9344C17.9655 16.4032 17.3296 16.6666 16.6666 16.6666H3.33325C2.67021 16.6666 2.03433 16.4032 1.56549 15.9344C1.09664 15.4655 0.833252 14.8296 0.833252 14.1666V9.91658C0.833252 9.54704 1.07663 9.22163 1.43112 9.11721C1.60372 9.06637 1.75522 8.96103 1.86299 8.81695C1.97075 8.67286 2.02899 8.49776 2.02899 8.31783C2.02899 8.13791 1.97075 7.96281 1.86299 7.81872C1.75522 7.67464 1.60372 7.5693 1.43112 7.51846C1.07663 7.41404 0.833252 7.08863 0.833252 6.71908V5.83325C0.833252 5.17021 1.09664 4.53433 1.56549 4.06548Z" fill="black"/>
</svg>
