<svg width="20" height="20" viewBox="0 0 20 20" fill="none" xmlns="http://www.w3.org/2000/svg">
<path fill-rule="evenodd" clip-rule="evenodd" d="M9.41066 1.07733C9.7361 0.751893 10.2637 0.751893 10.5892 1.07733L13.9225 4.41066C14.2479 4.7361 14.2479 5.26374 13.9225 5.58917C13.5971 5.91461 13.0694 5.91461 12.744 5.58917L9.99992 2.8451L7.25584 5.58917C6.9304 5.91461 6.40277 5.91461 6.07733 5.58917C5.75189 5.26374 5.75189 4.7361 6.07733 4.41066L9.41066 1.07733Z" fill="black"/>
<path fill-rule="evenodd" clip-rule="evenodd" d="M10 0.833252C10.4602 0.833252 10.8333 1.20635 10.8333 1.66659V10.2457C10.8386 10.7989 10.7337 11.3477 10.5247 11.86C10.315 12.3737 10.0049 12.8404 9.61245 13.2326L3.92259 18.9225C3.59715 19.2479 3.06951 19.2479 2.74408 18.9225C2.41864 18.5971 2.41864 18.0694 2.74408 17.744L8.43408 12.054L8.43421 12.0539C8.66968 11.8185 8.85576 11.5385 8.98155 11.2303C9.10733 10.922 9.17029 10.5918 9.16671 10.2589C9.16668 10.2559 9.16667 10.2529 9.16667 10.2499V1.66659C9.16667 1.20635 9.53976 0.833252 10 0.833252Z" fill="black"/>
<path fill-rule="evenodd" clip-rule="evenodd" d="M11.9108 13.5773C12.2363 13.2519 12.7639 13.2519 13.0893 13.5773L17.256 17.744C17.5814 18.0694 17.5814 18.5971 17.256 18.9225C16.9306 19.2479 16.4029 19.2479 16.0775 18.9225L11.9108 14.7558C11.5854 14.4304 11.5854 13.9028 11.9108 13.5773Z" fill="black"/>
</svg>
