<svg width="20" height="20" viewBox="0 0 20 20" fill="none" xmlns="http://www.w3.org/2000/svg">
<path fill-rule="evenodd" clip-rule="evenodd" d="M2.39898 2.39898C2.86782 1.93014 3.50371 1.66675 4.16675 1.66675H9.75008C10.2103 1.66675 10.5834 2.03984 10.5834 2.50008C10.5834 2.96032 10.2103 3.33341 9.75008 3.33341H4.16675C3.94573 3.33341 3.73377 3.42121 3.57749 3.57749C3.42121 3.73377 3.33341 3.94573 3.33341 4.16675V15.4882L5.24416 13.5775C5.40044 13.4212 5.6124 13.3334 5.83341 13.3334H15.8334C16.0544 13.3334 16.2664 13.2456 16.4227 13.0893C16.5789 12.9331 16.6667 12.7211 16.6667 12.5001V10.2501C16.6667 9.78984 17.0398 9.41675 17.5001 9.41675C17.9603 9.41675 18.3334 9.78984 18.3334 10.2501V12.5001C18.3334 13.1631 18.07 13.799 17.6012 14.2678C17.1323 14.7367 16.4965 15.0001 15.8334 15.0001H6.17859L3.08934 18.0893C2.85101 18.3277 2.49257 18.399 2.18118 18.27C1.86978 18.141 1.66675 17.8371 1.66675 17.5001V4.16675C1.66675 3.50371 1.93014 2.86782 2.39898 2.39898Z" fill="black"/>
<path fill-rule="evenodd" clip-rule="evenodd" d="M15.0001 3.33341C14.0796 3.33341 13.3334 4.07961 13.3334 5.00008C13.3334 5.92056 14.0796 6.66675 15.0001 6.66675C15.9206 6.66675 16.6667 5.92056 16.6667 5.00008C16.6667 4.07961 15.9206 3.33341 15.0001 3.33341ZM11.6667 5.00008C11.6667 3.15913 13.1591 1.66675 15.0001 1.66675C16.841 1.66675 18.3334 3.15913 18.3334 5.00008C18.3334 6.84103 16.841 8.33341 15.0001 8.33341C13.1591 8.33341 11.6667 6.84103 11.6667 5.00008Z" fill="black"/>
</svg>
