<svg width="20" height="20" viewBox="0 0 20 20" fill="none" xmlns="http://www.w3.org/2000/svg">
<path fill-rule="evenodd" clip-rule="evenodd" d="M5.09905 3.2584C6.70428 2.08877 8.67448 1.53093 10.6546 1.68541C12.6348 1.83989 14.4946 2.69652 15.899 4.10095C17.3035 5.50537 18.1601 7.36522 18.3146 9.34536C18.469 11.3255 17.9112 13.2957 16.7416 14.9009C15.5719 16.5062 13.8674 17.6409 11.9352 18.1006C10.1201 18.5324 8.21613 18.3419 6.52703 17.5657L1.93414 19.1226C1.63376 19.2244 1.30162 19.1469 1.07735 18.9226C0.853081 18.6984 0.775563 18.3662 0.877387 18.0658L2.4343 13.473C1.6581 11.7839 1.46758 9.8799 1.89942 8.06476C2.35911 6.13254 3.49382 4.42803 5.09905 3.2584ZM10.525 3.34703C8.94088 3.22345 7.36472 3.66972 6.08053 4.60542C4.79635 5.54113 3.88859 6.90473 3.52083 8.45051C3.15308 9.99629 3.34951 11.6226 4.07474 13.0364C4.17765 13.237 4.19488 13.4707 4.1225 13.6842L2.99776 17.0022L6.31574 15.8775C6.52927 15.8051 6.76302 15.8223 6.96363 15.9252C8.37739 16.6505 10.0037 16.8469 11.5495 16.4791C13.0953 16.1114 14.4589 15.2036 15.3946 13.9194C16.3303 12.6353 16.7765 11.0591 16.653 9.47499C16.5294 7.89088 15.8441 6.403 14.7205 5.27946C13.597 4.15592 12.1091 3.47061 10.525 3.34703Z" fill="black"/>
<path fill-rule="evenodd" clip-rule="evenodd" d="M10.0001 5.83325C10.4603 5.83325 10.8334 6.20635 10.8334 6.66659V9.99992C10.8334 10.4602 10.4603 10.8333 10.0001 10.8333C9.53984 10.8333 9.16675 10.4602 9.16675 9.99992V6.66659C9.16675 6.20635 9.53984 5.83325 10.0001 5.83325Z" fill="black"/>
<path fill-rule="evenodd" clip-rule="evenodd" d="M9.16675 13.3333C9.16675 12.8731 9.53984 12.5 10.0001 12.5H10.0084C10.4687 12.5 10.8417 12.8731 10.8417 13.3333C10.8417 13.7936 10.4687 14.1667 10.0084 14.1667H10.0001C9.53984 14.1667 9.16675 13.7936 9.16675 13.3333Z" fill="black"/>
</svg>
