<svg width="20" height="20" viewBox="0 0 20 20" fill="none" xmlns="http://www.w3.org/2000/svg">
<g clip-path="url(#clip0_2001_8402)">
<path fill-rule="evenodd" clip-rule="evenodd" d="M3.33325 2.49992C3.11224 2.49992 2.90028 2.58772 2.744 2.744C2.58772 2.90028 2.49992 3.11224 2.49992 3.33325V10.4881L4.41066 8.57733C4.56694 8.42105 4.77891 8.33325 4.99992 8.33325H9.99992C10.2209 8.33325 10.4329 8.24546 10.5892 8.08917C10.7455 7.93289 10.8333 7.72093 10.8333 7.49992V3.33325C10.8333 3.11224 10.7455 2.90028 10.5892 2.744C10.4329 2.58772 10.2209 2.49992 9.99992 2.49992H3.33325ZM1.56549 1.56549C2.03433 1.09664 2.67021 0.833252 3.33325 0.833252H9.99992C10.663 0.833252 11.2988 1.09664 11.7677 1.56549C12.2365 2.03433 12.4999 2.67021 12.4999 3.33325V7.49992C12.4999 8.16296 12.2365 8.79885 11.7677 9.26769C11.2988 9.73653 10.663 9.99992 9.99992 9.99992H5.3451L2.25584 13.0892C2.01751 13.3275 1.65908 13.3988 1.34768 13.2698C1.03629 13.1408 0.833252 12.837 0.833252 12.4999V3.33325C0.833252 2.67021 1.09664 2.03433 1.56549 1.56549Z" fill="black"/>
<path fill-rule="evenodd" clip-rule="evenodd" d="M14.1667 7.50008C14.1667 7.03984 14.5398 6.66675 15 6.66675H16.6667C17.3297 6.66675 17.9656 6.93014 18.4344 7.39898C18.9033 7.86782 19.1667 8.50371 19.1667 9.16675V18.3334C19.1667 18.6705 18.9636 18.9743 18.6522 19.1033C18.3408 19.2323 17.9824 19.161 17.7441 18.9227L14.6548 15.8334H10C9.33696 15.8334 8.70107 15.57 8.23223 15.1012C7.76339 14.6323 7.5 13.9965 7.5 13.3334V12.5001C7.5 12.0398 7.8731 11.6667 8.33333 11.6667C8.79357 11.6667 9.16667 12.0398 9.16667 12.5001V13.3334C9.16667 13.5544 9.25446 13.7664 9.41074 13.9227C9.56703 14.079 9.77899 14.1667 10 14.1667H15C15.221 14.1667 15.433 14.2545 15.5893 14.4108L17.5 16.3216V9.16675C17.5 8.94573 17.4122 8.73377 17.2559 8.57749C17.0996 8.42121 16.8877 8.33341 16.6667 8.33341H15C14.5398 8.33341 14.1667 7.96032 14.1667 7.50008Z" fill="black"/>
</g>
<defs>
<clipPath id="clip0_2001_8402">
<rect width="20" height="20" fill="white"/>
</clipPath>
</defs>
</svg>
