<svg width="20" height="20" viewBox="0 0 20 20" fill="none" xmlns="http://www.w3.org/2000/svg">
<path fill-rule="evenodd" clip-rule="evenodd" d="M9.30773 1.71099C9.50621 1.69113 9.74979 1.66675 10.0001 1.66675C10.2504 1.66675 10.494 1.69113 10.6924 1.71099C10.6977 1.71152 10.7028 1.71203 10.708 1.71255C10.9234 1.73409 11.0903 1.75008 11.2501 1.75008C11.7103 1.75008 12.0834 2.12318 12.0834 2.58341C12.0834 3.04365 11.7103 3.41675 11.2501 3.41675C10.9998 3.41675 10.7562 3.39237 10.5577 3.3725C10.5525 3.37198 10.5473 3.37146 10.5422 3.37095C10.3267 3.3494 10.1599 3.33341 10.0001 3.33341C9.84029 3.33341 9.67343 3.3494 9.458 3.37095C9.45284 3.37146 9.44766 3.37198 9.44244 3.3725C9.24396 3.39237 9.00038 3.41675 8.75008 3.41675C8.28984 3.41675 7.91675 3.04365 7.91675 2.58341C7.91675 2.12318 8.28984 1.75008 8.75008 1.75008C8.90987 1.75008 9.07673 1.73409 9.29216 1.71255C9.29732 1.71203 9.30251 1.71152 9.30773 1.71099Z" fill="black"/>
<path fill-rule="evenodd" clip-rule="evenodd" d="M13.6664 3.41709C13.9423 3.04871 14.4645 2.97374 14.8329 3.24963C15.5601 3.79424 16.2058 4.43991 16.7504 5.16709C17.0263 5.53547 16.9513 6.05775 16.5829 6.33364C16.2145 6.60953 15.6923 6.53456 15.4164 6.16618C14.9669 5.56602 14.434 5.03312 13.8338 4.58364C13.4655 4.30775 13.3905 3.78547 13.6664 3.41709Z" fill="black"/>
<path fill-rule="evenodd" clip-rule="evenodd" d="M17.4167 7.91675C17.877 7.91675 18.2501 8.28984 18.2501 8.75008C18.2501 8.90987 18.2661 9.07673 18.2876 9.29216C18.2881 9.29732 18.2886 9.30251 18.2892 9.30772C18.309 9.5062 18.3334 9.74978 18.3334 10.0001C18.3334 10.0099 18.3334 10.0197 18.3334 10.0297C18.3335 10.4281 18.3336 10.9152 18.2339 11.4135C18.1436 11.8648 17.7046 12.1575 17.2533 12.0672C16.802 11.977 16.5093 11.538 16.5996 11.0867C16.6641 10.764 16.6667 10.4297 16.6667 10.0001C16.6667 9.84029 16.6508 9.67343 16.6292 9.458C16.6287 9.45285 16.6282 9.44766 16.6277 9.44244C16.6078 9.24396 16.5834 9.00038 16.5834 8.75008C16.5834 8.28984 16.9565 7.91675 17.4167 7.91675Z" fill="black"/>
<path fill-rule="evenodd" clip-rule="evenodd" d="M16.5829 13.6664C16.9513 13.9423 17.0263 14.4645 16.7504 14.8329C16.2058 15.5601 15.5601 16.2058 14.8329 16.7504C14.4645 17.0263 13.9423 16.9513 13.6664 16.5829C13.3905 16.2145 13.4655 15.6923 13.8338 15.4164C14.434 14.9669 14.9669 14.434 15.4164 13.8338C15.6923 13.4655 16.2145 13.3905 16.5829 13.6664Z" fill="black"/>
<path fill-rule="evenodd" clip-rule="evenodd" d="M7.93285 17.2533C8.02311 16.802 8.46213 16.5093 8.91343 16.5996C9.23607 16.6641 9.57042 16.6667 10 16.6667C10.1598 16.6667 10.3266 16.6508 10.5421 16.6292C10.5472 16.6287 10.5524 16.6282 10.5576 16.6277C10.7561 16.6078 10.9997 16.5834 11.25 16.5834C11.7102 16.5834 12.0833 16.9565 12.0833 17.4167C12.0833 17.877 11.7102 18.2501 11.25 18.2501C11.0902 18.2501 10.9233 18.2661 10.7079 18.2876C10.7028 18.2881 10.6976 18.2886 10.6924 18.2892C10.4939 18.309 10.2503 18.3334 10 18.3334C9.9902 18.3334 9.98034 18.3334 9.97043 18.3334C9.57201 18.3335 9.08486 18.3336 8.58657 18.2339C8.13527 18.1436 7.84259 17.7046 7.93285 17.2533Z" fill="black"/>
<path fill-rule="evenodd" clip-rule="evenodd" d="M3.18013 13.7927C3.61675 13.9383 3.85272 14.4102 3.70718 14.8468L2.98422 17.0157L5.15309 16.2927C5.5897 16.1472 6.06164 16.3832 6.20718 16.8198C6.35272 17.2564 6.11675 17.7283 5.68013 17.8739L1.93013 19.1239C1.63069 19.2237 1.30055 19.1458 1.07735 18.9226C0.854159 18.6994 0.776223 18.3692 0.876038 18.0698L2.12604 14.3198C2.27158 13.8832 2.74351 13.6472 3.18013 13.7927Z" fill="black"/>
<path fill-rule="evenodd" clip-rule="evenodd" d="M2.58341 7.91675C3.04365 7.91675 3.41675 8.28984 3.41675 8.75008C3.41675 9.00038 3.39237 9.24396 3.3725 9.44244C3.37198 9.44766 3.37146 9.45284 3.37095 9.458C3.3494 9.67343 3.33341 9.84029 3.33341 10.0001C3.33341 10.1599 3.3494 10.3267 3.37095 10.5422C3.37146 10.5473 3.37198 10.5525 3.3725 10.5577C3.39237 10.7562 3.41675 10.9998 3.41675 11.2501C3.41675 11.7103 3.04365 12.0834 2.58341 12.0834C2.12318 12.0834 1.75008 11.7103 1.75008 11.2501C1.75008 11.0903 1.73409 10.9234 1.71255 10.708C1.71203 10.7028 1.71152 10.6977 1.71099 10.6924C1.69113 10.494 1.66675 10.2504 1.66675 10.0001C1.66675 9.74979 1.69113 9.50621 1.71099 9.30773C1.71152 9.30251 1.71203 9.29732 1.71255 9.29216C1.73409 9.07673 1.75008 8.90987 1.75008 8.75008C1.75008 8.28984 2.12318 7.91675 2.58341 7.91675Z" fill="black"/>
<path fill-rule="evenodd" clip-rule="evenodd" d="M6.33364 3.41709C6.60953 3.78547 6.53456 4.30775 6.16618 4.58364C5.56602 5.03312 5.03312 5.56602 4.58364 6.16618C4.30775 6.53456 3.78547 6.60953 3.41709 6.33364C3.04871 6.05775 2.97374 5.53547 3.24963 5.16709C3.79424 4.43991 4.43991 3.79424 5.16709 3.24963C5.53547 2.97374 6.05775 3.04871 6.33364 3.41709Z" fill="black"/>
</svg>
