<svg width="20" height="20" viewBox="0 0 20 20" fill="none" xmlns="http://www.w3.org/2000/svg">
<path fill-rule="evenodd" clip-rule="evenodd" d="M5.09905 3.2584C6.70428 2.08877 8.67448 1.53093 10.6546 1.68541C12.6348 1.83989 14.4946 2.69652 15.899 4.10095C17.3035 5.50537 18.1601 7.36522 18.3146 9.34536C18.469 11.3255 17.9112 13.2957 16.7416 14.9009C15.5719 16.5062 13.8674 17.6409 11.9352 18.1006C10.1201 18.5324 8.21613 18.3419 6.52703 17.5657L1.93414 19.1226C1.63376 19.2244 1.30162 19.1469 1.07735 18.9226C0.853081 18.6984 0.775563 18.3662 0.877387 18.0658L2.4343 13.473C1.6581 11.7839 1.46758 9.8799 1.89942 8.06476C2.35911 6.13254 3.49382 4.42803 5.09905 3.2584ZM10.525 3.34703C8.94088 3.22345 7.36472 3.66972 6.08053 4.60542C4.79635 5.54113 3.88859 6.90473 3.52083 8.45051C3.15308 9.99629 3.34951 11.6226 4.07474 13.0364C4.17765 13.237 4.19488 13.4707 4.1225 13.6842L2.99776 17.0022L6.31574 15.8775C6.52927 15.8051 6.76302 15.8223 6.96363 15.9252C8.37739 16.6505 10.0037 16.8469 11.5495 16.4791C13.0953 16.1114 14.4589 15.2036 15.3946 13.9194C16.3303 12.6353 16.7765 11.0591 16.653 9.47499C16.5294 7.89088 15.8441 6.403 14.7205 5.27946C13.597 4.15592 12.1091 3.47061 10.525 3.34703Z" fill="black"/>
<path fill-rule="evenodd" clip-rule="evenodd" d="M8.92259 6.91083C9.24803 7.23626 9.24803 7.7639 8.92259 8.08934L7.01184 10.0001L8.92259 11.9108C9.24803 12.2363 9.24803 12.7639 8.92259 13.0893C8.59715 13.4148 8.06951 13.4148 7.74408 13.0893L5.24408 10.5893C4.91864 10.2639 4.91864 9.73626 5.24408 9.41083L7.74408 6.91083C8.06951 6.58539 8.59715 6.58539 8.92259 6.91083Z" fill="black"/>
<path fill-rule="evenodd" clip-rule="evenodd" d="M5 10.0001C5 9.53984 5.3731 9.16675 5.83333 9.16675H11.6667C12.3297 9.16675 12.9656 9.43014 13.4344 9.89898C13.9033 10.3678 14.1667 11.0037 14.1667 11.6667V12.5001C14.1667 12.9603 13.7936 13.3334 13.3333 13.3334C12.8731 13.3334 12.5 12.9603 12.5 12.5001V11.6667C12.5 11.4457 12.4122 11.2338 12.2559 11.0775C12.0996 10.9212 11.8877 10.8334 11.6667 10.8334H5.83333C5.3731 10.8334 5 10.4603 5 10.0001Z" fill="black"/>
</svg>
