<svg width="20" height="20" viewBox="0 0 20 20" fill="none" xmlns="http://www.w3.org/2000/svg">
<path fill-rule="evenodd" clip-rule="evenodd" d="M2.50008 10.8333C2.96032 10.8333 3.33341 11.2063 3.33341 11.6666V15.4881L5.24416 13.5773C5.40044 13.421 5.6124 13.3333 5.83342 13.3333H8.33342C8.79365 13.3333 9.16675 13.7063 9.16675 14.1666C9.16675 14.6268 8.79365 14.9999 8.33342 14.9999H6.17859L3.08934 18.0892C2.85101 18.3275 2.49257 18.3988 2.18118 18.2698C1.86978 18.1408 1.66675 17.837 1.66675 17.4999V11.6666C1.66675 11.2063 2.03984 10.8333 2.50008 10.8333Z" fill="black"/>
<path fill-rule="evenodd" clip-rule="evenodd" d="M10.8333 14.1666C10.8333 13.7063 11.2063 13.3333 11.6666 13.3333H12.4999C12.9602 13.3333 13.3333 13.7063 13.3333 14.1666C13.3333 14.6268 12.9602 14.9999 12.4999 14.9999H11.6666C11.2063 14.9999 10.8333 14.6268 10.8333 14.1666Z" fill="black"/>
<path fill-rule="evenodd" clip-rule="evenodd" d="M10.8333 2.50008C10.8333 2.03984 11.2063 1.66675 11.6666 1.66675H12.4999C12.9602 1.66675 13.3333 2.03984 13.3333 2.50008C13.3333 2.96032 12.9602 3.33341 12.4999 3.33341H11.6666C11.2063 3.33341 10.8333 2.96032 10.8333 2.50008Z" fill="black"/>
<path fill-rule="evenodd" clip-rule="evenodd" d="M15 2.50008C15 2.03984 15.3731 1.66675 15.8333 1.66675C16.4964 1.66675 17.1323 1.93014 17.6011 2.39898C18.0699 2.86782 18.3333 3.50371 18.3333 4.16675C18.3333 4.62699 17.9602 5.00008 17.5 5.00008C17.0398 5.00008 16.6667 4.62699 16.6667 4.16675C16.6667 3.94573 16.5789 3.73377 16.4226 3.57749C16.2663 3.42121 16.0543 3.33341 15.8333 3.33341C15.3731 3.33341 15 2.96032 15 2.50008Z" fill="black"/>
<path fill-rule="evenodd" clip-rule="evenodd" d="M17.5 10.8333C17.9602 10.8333 18.3333 11.2063 18.3333 11.6666V12.4999C18.3333 13.163 18.0699 13.7988 17.6011 14.2677C17.1323 14.7365 16.4964 14.9999 15.8333 14.9999C15.3731 14.9999 15 14.6268 15 14.1666C15 13.7063 15.3731 13.3333 15.8333 13.3333C16.0543 13.3333 16.2663 13.2455 16.4226 13.0892C16.5789 12.9329 16.6667 12.7209 16.6667 12.4999V11.6666C16.6667 11.2063 17.0398 10.8333 17.5 10.8333Z" fill="black"/>
<path fill-rule="evenodd" clip-rule="evenodd" d="M17.5001 6.66675C17.9603 6.66675 18.3334 7.03984 18.3334 7.50008V8.33341C18.3334 8.79365 17.9603 9.16675 17.5001 9.16675C17.0398 9.16675 16.6667 8.79365 16.6667 8.33341V7.50008C16.6667 7.03984 17.0398 6.66675 17.5001 6.66675Z" fill="black"/>
<path fill-rule="evenodd" clip-rule="evenodd" d="M2.50008 6.66675C2.96032 6.66675 3.33341 7.03984 3.33341 7.50008V8.33341C3.33341 8.79365 2.96032 9.16675 2.50008 9.16675C2.03984 9.16675 1.66675 8.79365 1.66675 8.33341V7.50008C1.66675 7.03984 2.03984 6.66675 2.50008 6.66675Z" fill="black"/>
<path fill-rule="evenodd" clip-rule="evenodd" d="M2.39898 2.39898C2.86782 1.93014 3.50371 1.66675 4.16675 1.66675C4.62699 1.66675 5.00008 2.03984 5.00008 2.50008C5.00008 2.96032 4.62699 3.33341 4.16675 3.33341C3.94573 3.33341 3.73377 3.42121 3.57749 3.57749C3.42121 3.73377 3.33341 3.94573 3.33341 4.16675C3.33341 4.62699 2.96032 5.00008 2.50008 5.00008C2.03984 5.00008 1.66675 4.62699 1.66675 4.16675C1.66675 3.50371 1.93014 2.86782 2.39898 2.39898Z" fill="black"/>
<path fill-rule="evenodd" clip-rule="evenodd" d="M6.66675 2.50008C6.66675 2.03984 7.03984 1.66675 7.50008 1.66675H8.33341C8.79365 1.66675 9.16675 2.03984 9.16675 2.50008C9.16675 2.96032 8.79365 3.33341 8.33341 3.33341H7.50008C7.03984 3.33341 6.66675 2.96032 6.66675 2.50008Z" fill="black"/>
</svg>
