<svg width="20" height="20" viewBox="0 0 20 20" fill="none" xmlns="http://www.w3.org/2000/svg">
<path fill-rule="evenodd" clip-rule="evenodd" d="M8.85383 7.26589C9.21322 7.5534 9.27148 8.07781 8.98398 8.4372L7.73377 9.99995L8.98398 11.5627C9.27148 11.9221 9.21322 12.4465 8.85383 12.734C8.49445 13.0215 7.97004 12.9632 7.68253 12.6039L6.01586 10.5205C5.77238 10.2162 5.77238 9.78372 6.01586 9.47937L7.68253 7.39604C7.97004 7.03665 8.49445 6.97838 8.85383 7.26589Z" fill="black"/>
<path fill-rule="evenodd" clip-rule="evenodd" d="M11.146 7.26589C11.5054 6.97838 12.0298 7.03665 12.3173 7.39604L13.984 9.47937C14.2275 9.78372 14.2275 10.2162 13.984 10.5205L12.3173 12.6039C12.0298 12.9632 11.5054 13.0215 11.146 12.734C10.7867 12.4465 10.7284 11.9221 11.0159 11.5627L12.2661 9.99995L11.0159 8.4372C10.7284 8.07781 10.7867 7.5534 11.146 7.26589Z" fill="black"/>
<path fill-rule="evenodd" clip-rule="evenodd" d="M5.09905 3.2584C6.70428 2.08877 8.67448 1.53093 10.6546 1.68541C12.6348 1.83989 14.4946 2.69652 15.899 4.10095C17.3035 5.50537 18.1601 7.36522 18.3146 9.34536C18.469 11.3255 17.9112 13.2957 16.7416 14.9009C15.5719 16.5062 13.8674 17.6409 11.9352 18.1006C10.1201 18.5324 8.21613 18.3419 6.52703 17.5657L1.93414 19.1226C1.63376 19.2244 1.30162 19.1469 1.07735 18.9226C0.853081 18.6984 0.775563 18.3662 0.877387 18.0658L2.4343 13.473C1.6581 11.7839 1.46758 9.8799 1.89942 8.06476C2.35911 6.13254 3.49382 4.42803 5.09905 3.2584ZM10.525 3.34703C8.94088 3.22345 7.36472 3.66972 6.08053 4.60542C4.79635 5.54113 3.88859 6.90473 3.52083 8.45051C3.15308 9.99629 3.34951 11.6226 4.07474 13.0364C4.17765 13.237 4.19488 13.4707 4.1225 13.6842L2.99776 17.0022L6.31574 15.8775C6.52927 15.8051 6.76302 15.8223 6.96363 15.9252C8.37739 16.6505 10.0037 16.8469 11.5495 16.4791C13.0953 16.1114 14.4589 15.2036 15.3946 13.9194C16.3303 12.6353 16.7765 11.0591 16.653 9.47499C16.5294 7.89088 15.8441 6.403 14.7205 5.27946C13.597 4.15592 12.1091 3.47061 10.525 3.34703Z" fill="black"/>
</svg>
