<svg width="20" height="20" viewBox="0 0 20 20" fill="none" xmlns="http://www.w3.org/2000/svg">
<path fill-rule="evenodd" clip-rule="evenodd" d="M5.09905 3.2584C6.70428 2.08877 8.67448 1.53093 10.6546 1.68541C12.6348 1.83989 14.4946 2.69652 15.899 4.10095C17.3035 5.50537 18.1601 7.36522 18.3146 9.34536C18.469 11.3255 17.9112 13.2957 16.7416 14.9009C15.5719 16.5062 13.8674 17.6409 11.9352 18.1006C10.1201 18.5324 8.21613 18.3419 6.52703 17.5657L1.93414 19.1226C1.63376 19.2244 1.30162 19.1469 1.07735 18.9226C0.853081 18.6984 0.775563 18.3662 0.877387 18.0658L2.4343 13.473C1.6581 11.7839 1.46758 9.8799 1.89942 8.06476C2.35911 6.13254 3.49382 4.42803 5.09905 3.2584ZM10.525 3.34703C8.94088 3.22345 7.36472 3.66972 6.08053 4.60542C4.79635 5.54113 3.88859 6.90473 3.52083 8.45051C3.15308 9.99629 3.34951 11.6226 4.07474 13.0364C4.17765 13.237 4.19488 13.4707 4.1225 13.6842L2.99776 17.0022L6.31574 15.8775C6.52927 15.8051 6.76302 15.8223 6.96363 15.9252C8.37739 16.6505 10.0037 16.8469 11.5495 16.4791C13.0953 16.1114 14.4589 15.2036 15.3946 13.9194C16.3303 12.6353 16.7765 11.0591 16.653 9.47499C16.5294 7.89088 15.8441 6.403 14.7205 5.27946C13.597 4.15592 12.1091 3.47061 10.525 3.34703Z" fill="black"/>
<path fill-rule="evenodd" clip-rule="evenodd" d="M10.2151 6.687C9.82718 6.62046 9.42822 6.69336 9.08888 6.89279C8.74955 7.09222 8.49174 7.40531 8.36113 7.77661C8.2084 8.21076 7.73264 8.43891 7.29848 8.28618C6.86432 8.13345 6.63618 7.65769 6.7889 7.22353C7.05013 6.48094 7.56574 5.85476 8.24441 5.4559C8.92308 5.05704 9.72101 4.91124 10.4969 5.04432C11.2727 5.17741 11.9765 5.58078 12.4834 6.18301C12.9902 6.78506 13.2677 7.547 13.2667 8.33395C13.2664 9.60937 12.3208 10.4516 11.6456 10.9018C11.2826 11.1438 10.9255 11.3217 10.6624 11.4387C10.5297 11.4976 10.418 11.5424 10.3374 11.5731C10.2971 11.5884 10.2644 11.6004 10.2406 11.6088C10.2287 11.613 10.219 11.6164 10.2117 11.619C10.208 11.6202 10.2049 11.6213 10.2024 11.6221C10.2012 11.6225 10.2001 11.6229 10.1992 11.6232L10.1979 11.6236L10.1974 11.6238C10.1971 11.6239 10.1969 11.624 9.93335 10.8334L10.1969 11.624C9.76025 11.7695 9.28832 11.5335 9.14278 11.0969C8.99743 10.6609 9.23259 10.1896 9.66812 10.0434C9.66836 10.0433 9.66878 10.0432 9.66938 10.043C9.67151 10.0422 9.67585 10.0407 9.68225 10.0385C9.69507 10.0339 9.71608 10.0263 9.74411 10.0156C9.8003 9.99419 9.88386 9.96083 9.98553 9.91564C10.1912 9.82422 10.4591 9.68968 10.7211 9.51503C11.2958 9.13192 11.6 8.72435 11.6 8.3334L11.6 8.33216C11.6006 7.93856 11.4619 7.55746 11.2084 7.25634C10.9549 6.95523 10.603 6.75354 10.2151 6.687ZM9.66925 10.043C9.6693 10.043 9.66935 10.043 9.66939 10.043C9.66939 10.043 9.66939 10.043 9.66939 10.043" fill="black"/>
<path fill-rule="evenodd" clip-rule="evenodd" d="M9.16675 14.1666C9.16675 13.7063 9.53984 13.3333 10.0001 13.3333H10.0084C10.4687 13.3333 10.8417 13.7063 10.8417 14.1666C10.8417 14.6268 10.4687 14.9999 10.0084 14.9999H10.0001C9.53984 14.9999 9.16675 14.6268 9.16675 14.1666Z" fill="black"/>
</svg>
