<svg width="20" height="20" viewBox="0 0 20 20" fill="none" xmlns="http://www.w3.org/2000/svg">
<path fill-rule="evenodd" clip-rule="evenodd" d="M4.16675 3.33341C3.94573 3.33341 3.73377 3.42121 3.57749 3.57749C3.42121 3.73377 3.33341 3.94573 3.33341 4.16675V15.4882L5.24416 13.5775C5.40044 13.4212 5.6124 13.3334 5.83341 13.3334H15.8334C16.0544 13.3334 16.2664 13.2456 16.4227 13.0893C16.5789 12.9331 16.6667 12.7211 16.6667 12.5001V4.16675C16.6667 3.94573 16.5789 3.73377 16.4227 3.57749C16.2664 3.42121 16.0544 3.33341 15.8334 3.33341H4.16675ZM2.39898 2.39898C2.86782 1.93014 3.50371 1.66675 4.16675 1.66675H15.8334C16.4965 1.66675 17.1323 1.93014 17.6012 2.39898C18.07 2.86782 18.3334 3.50371 18.3334 4.16675V12.5001C18.3334 13.1631 18.07 13.799 17.6012 14.2678C17.1323 14.7367 16.4965 15.0001 15.8334 15.0001H6.17859L3.08934 18.0893C2.85101 18.3277 2.49257 18.399 2.18118 18.27C1.86978 18.141 1.66675 17.8371 1.66675 17.5001V4.16675C1.66675 3.50371 1.93014 2.86782 2.39898 2.39898Z" fill="black"/>
<path fill-rule="evenodd" clip-rule="evenodd" d="M5.83325 6.66659C5.83325 6.20635 6.20635 5.83325 6.66659 5.83325H8.33325C8.79349 5.83325 9.16658 6.20635 9.16658 6.66659V8.33325C9.16658 8.99629 8.90319 9.63218 8.43435 10.101C7.96551 10.5699 7.32963 10.8333 6.66659 10.8333C6.20635 10.8333 5.83325 10.4602 5.83325 9.99992C5.83325 9.53968 6.20635 9.16659 6.66659 9.16659C6.8876 9.16659 7.09956 9.07879 7.25584 8.92251C7.41212 8.76623 7.49992 8.55427 7.49992 8.33325V7.49992H6.66659C6.20635 7.49992 5.83325 7.12682 5.83325 6.66659Z" fill="black"/>
<path fill-rule="evenodd" clip-rule="evenodd" d="M10.8333 6.66659C10.8333 6.20635 11.2063 5.83325 11.6666 5.83325H13.3333C13.7935 5.83325 14.1666 6.20635 14.1666 6.66659V8.33325C14.1666 8.99629 13.9032 9.63218 13.4344 10.101C12.9655 10.5699 12.3296 10.8333 11.6666 10.8333C11.2063 10.8333 10.8333 10.4602 10.8333 9.99992C10.8333 9.53968 11.2063 9.16659 11.6666 9.16659C11.8876 9.16659 12.0996 9.07879 12.2558 8.92251C12.4121 8.76623 12.4999 8.55427 12.4999 8.33325V7.49992H11.6666C11.2063 7.49992 10.8333 7.12682 10.8333 6.66659Z" fill="black"/>
</svg>
