<svg width="20" height="20" viewBox="0 0 20 20" fill="none" xmlns="http://www.w3.org/2000/svg">
<path fill-rule="evenodd" clip-rule="evenodd" d="M4.16675 3.33341C3.94573 3.33341 3.73377 3.42121 3.57749 3.57749C3.42121 3.73377 3.33341 3.94573 3.33341 4.16675V15.4882L5.24416 13.5775C5.40044 13.4212 5.6124 13.3334 5.83341 13.3334H15.8334C16.0544 13.3334 16.2664 13.2456 16.4227 13.0893C16.5789 12.9331 16.6667 12.7211 16.6667 12.5001V4.16675C16.6667 3.94573 16.5789 3.73377 16.4227 3.57749C16.2664 3.42121 16.0544 3.33341 15.8334 3.33341H4.16675ZM2.39898 2.39898C2.86782 1.93014 3.50371 1.66675 4.16675 1.66675H15.8334C16.4965 1.66675 17.1323 1.93014 17.6012 2.39898C18.07 2.86782 18.3334 3.50371 18.3334 4.16675V12.5001C18.3334 13.1631 18.07 13.799 17.6012 14.2678C17.1323 14.7367 16.4965 15.0001 15.8334 15.0001H6.17859L3.08934 18.0893C2.85101 18.3277 2.49257 18.399 2.18118 18.27C1.86978 18.141 1.66675 17.8371 1.66675 17.5001V4.16675C1.66675 3.50371 1.93014 2.86782 2.39898 2.39898Z" fill="black"/>
<path fill-rule="evenodd" clip-rule="evenodd" d="M12.6725 5.66083C12.9979 5.98626 12.9979 6.5139 12.6725 6.83934L8.50584 11.006C8.1804 11.3314 7.65277 11.3314 7.32733 11.006C7.00189 10.6806 7.00189 10.1529 7.32733 9.82749L11.494 5.66083C11.8194 5.33539 12.3471 5.33539 12.6725 5.66083Z" fill="black"/>
<path fill-rule="evenodd" clip-rule="evenodd" d="M7.32733 5.66083C7.65277 5.33539 8.1804 5.33539 8.50584 5.66083L12.6725 9.82749C12.9979 10.1529 12.9979 10.6806 12.6725 11.006C12.3471 11.3314 11.8194 11.3314 11.494 11.006L7.32733 6.83934C7.00189 6.5139 7.00189 5.98626 7.32733 5.66083Z" fill="black"/>
</svg>
