<svg width="20" height="20" viewBox="0 0 20 20" fill="none" xmlns="http://www.w3.org/2000/svg">
<path fill-rule="evenodd" clip-rule="evenodd" d="M4.16675 3.33341C3.94573 3.33341 3.73377 3.42121 3.57749 3.57749C3.42121 3.73377 3.33341 3.94573 3.33341 4.16675V15.4882L5.24416 13.5775C5.40044 13.4212 5.6124 13.3334 5.83341 13.3334H15.8334C16.0544 13.3334 16.2664 13.2456 16.4227 13.0893C16.5789 12.9331 16.6667 12.7211 16.6667 12.5001V4.16675C16.6667 3.94573 16.5789 3.73377 16.4227 3.57749C16.2664 3.42121 16.0544 3.33341 15.8334 3.33341H4.16675ZM2.39898 2.39898C2.86782 1.93014 3.50371 1.66675 4.16675 1.66675H15.8334C16.4965 1.66675 17.1323 1.93014 17.6012 2.39898C18.07 2.86782 18.3334 3.50371 18.3334 4.16675V12.5001C18.3334 13.1631 18.07 13.799 17.6012 14.2678C17.1323 14.7367 16.4965 15.0001 15.8334 15.0001H6.17859L3.08934 18.0893C2.85101 18.3277 2.49257 18.399 2.18118 18.27C1.86978 18.141 1.66675 17.8371 1.66675 17.5001V4.16675C1.66675 3.50371 1.93014 2.86782 2.39898 2.39898Z" fill="black"/>
<path fill-rule="evenodd" clip-rule="evenodd" d="M10.0001 5C10.4603 5 10.8334 5.3731 10.8334 5.83333V7.5C10.8334 7.96024 10.4603 8.33333 10.0001 8.33333C9.53984 8.33333 9.16675 7.96024 9.16675 7.5V5.83333C9.16675 5.3731 9.53984 5 10.0001 5Z" fill="black"/>
<path fill-rule="evenodd" clip-rule="evenodd" d="M9.16675 10.8333C9.16675 10.3731 9.53984 10 10.0001 10H10.0084C10.4687 10 10.8417 10.3731 10.8417 10.8333C10.8417 11.2936 10.4687 11.6667 10.0084 11.6667H10.0001C9.53984 11.6667 9.16675 11.2936 9.16675 10.8333Z" fill="black"/>
</svg>
