<svg width="20" height="20" viewBox="0 0 20 20" fill="none" xmlns="http://www.w3.org/2000/svg">
<path fill-rule="evenodd" clip-rule="evenodd" d="M12.399 9.06549C12.8678 8.59664 13.5037 8.33325 14.1667 8.33325C14.8298 8.33325 15.4657 8.59664 15.9345 9.06549C16.4034 9.53433 16.6667 10.1702 16.6667 10.8333V12.4999C16.6667 12.9602 16.2937 13.3333 15.8334 13.3333C15.3732 13.3333 15.0001 12.9602 15.0001 12.4999V10.8333C15.0001 10.6122 14.9123 10.4003 14.756 10.244C14.5997 10.0877 14.3878 9.99992 14.1667 9.99992C13.9457 9.99992 13.7338 10.0877 13.5775 10.244C13.4212 10.4003 13.3334 10.6122 13.3334 10.8333V12.4999C13.3334 12.9602 12.9603 13.3333 12.5001 13.3333C12.0398 13.3333 11.6667 12.9602 11.6667 12.4999V10.8333C11.6667 10.1702 11.9301 9.53433 12.399 9.06549Z" fill="black"/>
<path fill-rule="evenodd" clip-rule="evenodd" d="M4.16675 3.33341C3.94573 3.33341 3.73377 3.42121 3.57749 3.57749C3.42121 3.73377 3.33341 3.94573 3.33341 4.16675V15.4882L5.24416 13.5775C5.40044 13.4212 5.6124 13.3334 5.83341 13.3334H7.50008C7.96032 13.3334 8.33341 13.7065 8.33341 14.1667C8.33341 14.627 7.96032 15.0001 7.50008 15.0001H6.17859L3.08934 18.0893C2.85101 18.3277 2.49257 18.399 2.18118 18.27C1.86978 18.141 1.66675 17.8371 1.66675 17.5001V4.16675C1.66675 3.50371 1.93014 2.86782 2.39898 2.39898C2.86782 1.93014 3.50371 1.66675 4.16675 1.66675H15.8334C16.4965 1.66675 17.1323 1.93014 17.6012 2.39898C18.07 2.86782 18.3334 3.50371 18.3334 4.16675V7.08341C18.3334 7.54365 17.9603 7.91675 17.5001 7.91675C17.0398 7.91675 16.6667 7.54365 16.6667 7.08341V4.16675C16.6667 3.94573 16.5789 3.73377 16.4227 3.57749C16.2664 3.42121 16.0544 3.33341 15.8334 3.33341H4.16675Z" fill="black"/>
<path fill-rule="evenodd" clip-rule="evenodd" d="M11.6667 13.3334V15.8334H16.6667V13.3334H11.6667ZM16.6677 15.8334C16.6677 15.8334 16.6677 15.8334 16.6677 15.8334L16.6677 15.8334ZM11.6657 15.8334C11.6656 15.8334 11.6656 15.8334 11.6656 15.8334L11.6657 15.8334ZM10 13.3334C10 12.4129 10.7462 11.6667 11.6667 11.6667H16.6667C17.5871 11.6667 18.3333 12.4129 18.3333 13.3334V15.8334C18.3333 16.7539 17.5871 17.5001 16.6667 17.5001H11.6667C10.7462 17.5001 10 16.7539 10 15.8334V13.3334Z" fill="black"/>
</svg>
