<svg width="20" height="20" viewBox="0 0 20 20" fill="none" xmlns="http://www.w3.org/2000/svg">
<path fill-rule="evenodd" clip-rule="evenodd" d="M8.85383 5.59939C9.21322 5.8869 9.27148 6.41131 8.98398 6.77069L7.73377 8.33345L8.98398 9.8962C9.27148 10.2556 9.21322 10.78 8.85383 11.0675C8.49445 11.355 7.97004 11.2967 7.68253 10.9374L6.01586 8.85402C5.77238 8.54968 5.77238 8.11722 6.01586 7.81287L7.68253 5.72953C7.97004 5.37015 8.49445 5.31188 8.85383 5.59939Z" fill="black"/>
<path fill-rule="evenodd" clip-rule="evenodd" d="M11.146 5.59939C11.5054 5.31188 12.0298 5.37015 12.3173 5.72953L13.984 7.81287C14.2275 8.11722 14.2275 8.54968 13.984 8.85402L12.3173 10.9374C12.0298 11.2967 11.5054 11.355 11.146 11.0675C10.7867 10.78 10.7284 10.2556 11.0159 9.8962L12.2661 8.33345L11.0159 6.77069C10.7284 6.41131 10.7867 5.8869 11.146 5.59939Z" fill="black"/>
<path fill-rule="evenodd" clip-rule="evenodd" d="M4.16675 3.33341C3.94573 3.33341 3.73377 3.42121 3.57749 3.57749C3.42121 3.73377 3.33341 3.94573 3.33341 4.16675V15.4882L5.24416 13.5775C5.40044 13.4212 5.6124 13.3334 5.83341 13.3334H15.8334C16.0544 13.3334 16.2664 13.2456 16.4227 13.0893C16.5789 12.9331 16.6667 12.7211 16.6667 12.5001V4.16675C16.6667 3.94573 16.5789 3.73377 16.4227 3.57749C16.2664 3.42121 16.0544 3.33341 15.8334 3.33341H4.16675ZM2.39898 2.39898C2.86782 1.93014 3.50371 1.66675 4.16675 1.66675H15.8334C16.4965 1.66675 17.1323 1.93014 17.6012 2.39898C18.07 2.86782 18.3334 3.50371 18.3334 4.16675V12.5001C18.3334 13.1631 18.07 13.799 17.6012 14.2678C17.1323 14.7367 16.4965 15.0001 15.8334 15.0001H6.17859L3.08934 18.0893C2.85101 18.3277 2.49257 18.399 2.18118 18.27C1.86978 18.141 1.66675 17.8371 1.66675 17.5001V4.16675C1.66675 3.50371 1.93014 2.86782 2.39898 2.39898Z" fill="black"/>
</svg>
