<svg width="20" height="20" viewBox="0 0 20 20" fill="none" xmlns="http://www.w3.org/2000/svg">
<g clip-path="url(#clip0_2001_8308)">
<path fill-rule="evenodd" clip-rule="evenodd" d="M7.31759 2.1269C8.78814 1.63216 10.3676 1.55779 11.8781 1.91216C13.3887 2.26653 14.7703 3.03557 15.8674 4.13267C16.9645 5.22978 17.7335 6.61138 18.0879 8.12191C18.4423 9.63244 18.3679 11.2119 17.8731 12.6825C17.7264 13.1187 17.2538 13.3533 16.8176 13.2066C16.3814 13.0598 16.1467 12.5872 16.2935 12.151C16.6893 10.9746 16.7488 9.711 16.4653 8.50257C16.1818 7.29415 15.5665 6.18887 14.6889 5.31118C13.8112 4.4335 12.7059 3.81827 11.4975 3.53478C10.289 3.25128 9.02548 3.31078 7.84904 3.70657C7.41283 3.85332 6.94024 3.61867 6.79348 3.18246C6.64673 2.74624 6.88138 2.27366 7.31759 2.1269Z" fill="black"/>
<path fill-rule="evenodd" clip-rule="evenodd" d="M1.07733 1.07733C1.40277 0.751893 1.9304 0.751893 2.25584 1.07733L18.9225 17.744C19.2479 18.0694 19.2479 18.5971 18.9225 18.9225C18.5971 19.2479 18.0694 19.2479 17.744 18.9225L1.07733 2.25584C0.751893 1.9304 0.751893 1.40277 1.07733 1.07733Z" fill="black"/>
<path fill-rule="evenodd" clip-rule="evenodd" d="M5.24464 4.06632C5.57616 4.38556 5.58611 4.9131 5.26687 5.24462C3.33096 7.255 2.74794 10.373 4.07435 12.9521C4.17693 13.1516 4.19477 13.384 4.12384 13.5968L2.98422 17.0156L6.40308 15.876C6.61913 15.804 6.85524 15.8235 7.05651 15.9301C9.5546 17.2526 12.6524 16.7431 14.6501 14.6715C14.9695 14.3402 15.4971 14.3306 15.8284 14.65C16.1597 14.9695 16.1693 15.4971 15.8498 15.8284C13.4327 18.335 9.70932 19.0336 6.60275 17.5663L1.93013 19.1238C1.63069 19.2236 1.30055 19.1457 1.07735 18.9225C0.854159 18.6993 0.776223 18.3692 0.876038 18.0697L2.43526 13.3921C0.969625 10.2069 1.74759 6.49648 4.06634 4.08855C4.38558 3.75703 4.91312 3.74708 5.24464 4.06632Z" fill="black"/>
</g>
<defs>
<clipPath id="clip0_2001_8308">
<rect width="20" height="20" fill="white"/>
</clipPath>
</defs>
</svg>
