<svg width="20" height="20" viewBox="0 0 20 20" fill="none" xmlns="http://www.w3.org/2000/svg">
<g clip-path="url(#clip0_2001_8368)">
<path fill-rule="evenodd" clip-rule="evenodd" d="M6.66675 2.50008C6.66675 2.03984 7.03984 1.66675 7.50008 1.66675H15.8334C16.4965 1.66675 17.1323 1.93014 17.6012 2.39898C18.07 2.86782 18.3334 3.50371 18.3334 4.16675V12.5001C18.3334 12.9603 17.9603 13.3334 17.5001 13.3334C17.0398 13.3334 16.6667 12.9603 16.6667 12.5001V4.16675C16.6667 3.94573 16.579 3.73377 16.4227 3.57749C16.2664 3.42121 16.0544 3.33341 15.8334 3.33341H7.50008C7.03984 3.33341 6.66675 2.96032 6.66675 2.50008Z" fill="black"/>
<path fill-rule="evenodd" clip-rule="evenodd" d="M1.07733 1.07733C1.40277 0.751893 1.9304 0.751893 2.25584 1.07733L18.9225 17.744C19.2479 18.0694 19.2479 18.5971 18.9225 18.9225C18.5971 19.2479 18.0694 19.2479 17.744 18.9225L1.07733 2.25584C0.751893 1.9304 0.751893 1.40277 1.07733 1.07733Z" fill="black"/>
<path fill-rule="evenodd" clip-rule="evenodd" d="M3.66675 2.49989C3.94289 2.86808 3.86827 3.39041 3.50008 3.66655C3.43705 3.71383 3.33341 3.84274 3.33341 4.16655V15.488L5.24416 13.5773C5.40044 13.421 5.6124 13.3332 5.83341 13.3332H14.1667C14.627 13.3332 15.0001 13.7063 15.0001 14.1666C15.0001 14.6268 14.627 14.9999 14.1667 14.9999H6.17859L3.08934 18.0891C2.85101 18.3275 2.49257 18.3988 2.18118 18.2698C1.86978 18.1408 1.66675 17.8369 1.66675 17.4999V4.16655C1.66675 3.49037 1.89645 2.78595 2.50008 2.33322C2.86827 2.05708 3.39061 2.1317 3.66675 2.49989Z" fill="black"/>
</g>
<defs>
<clipPath id="clip0_2001_8368">
<rect width="20" height="20" fill="white"/>
</clipPath>
</defs>
</svg>
