<svg width="20" height="20" viewBox="0 0 20 20" fill="none" xmlns="http://www.w3.org/2000/svg">
<path fill-rule="evenodd" clip-rule="evenodd" d="M5.09905 3.2584C6.70428 2.08877 8.67448 1.53093 10.6546 1.68541C12.6348 1.83989 14.4946 2.69652 15.899 4.10095C17.3035 5.50537 18.1601 7.36522 18.3146 9.34536C18.469 11.3255 17.9112 13.2957 16.7416 14.9009C15.5719 16.5062 13.8674 17.6409 11.9352 18.1006C10.1201 18.5324 8.21613 18.3419 6.52703 17.5657L1.93414 19.1226C1.63376 19.2244 1.30162 19.1469 1.07735 18.9226C0.853081 18.6984 0.775563 18.3662 0.877387 18.0658L2.4343 13.473C1.6581 11.7839 1.46758 9.8799 1.89942 8.06476C2.35911 6.13254 3.49382 4.42803 5.09905 3.2584ZM10.525 3.34703C8.94088 3.22345 7.36472 3.66972 6.08053 4.60542C4.79635 5.54113 3.88859 6.90473 3.52083 8.45051C3.15308 9.99629 3.34951 11.6226 4.07474 13.0364C4.17765 13.237 4.19488 13.4707 4.1225 13.6842L2.99776 17.0022L6.31574 15.8775C6.52927 15.8051 6.76302 15.8223 6.96363 15.9252C8.37739 16.6505 10.0037 16.8469 11.5495 16.4791C13.0953 16.1114 14.4589 15.2036 15.3946 13.9194C16.3303 12.6353 16.7765 11.0591 16.653 9.47499C16.5294 7.89088 15.8441 6.403 14.7205 5.27946C13.597 4.15592 12.1091 3.47061 10.525 3.34703Z" fill="black"/>
<path fill-rule="evenodd" clip-rule="evenodd" d="M9.93633 6.83787C10.4425 6.45066 11.0646 6.23779 11.7084 6.23779C12.3991 6.23779 13.0648 6.48276 13.5891 6.92511C13.6768 6.97012 13.758 7.03156 13.8279 7.10919C14.3316 7.66886 14.6294 8.39056 14.6145 9.16185C14.5996 9.94018 14.2677 10.7026 13.631 11.3393C13.6283 11.342 13.6255 11.3448 13.6227 11.3475L10.6227 14.2642C10.2992 14.5786 9.78432 14.5786 9.46088 14.2642L6.49996 11.3855C6.20102 11.1577 5.94991 10.8729 5.76127 10.5474C5.56181 10.2032 5.43662 9.82098 5.39377 9.42544C5.35093 9.0299 5.39137 8.62977 5.5125 8.25081C5.63363 7.87184 5.83276 7.52244 6.09708 7.22508C6.3614 6.92772 6.68505 6.68899 7.0472 6.52427C7.40935 6.35954 7.80198 6.27247 8.19981 6.26865C8.59765 6.26482 8.99187 6.34434 9.35712 6.50207C9.56327 6.5911 9.7576 6.70392 9.93633 6.83787ZM10.8739 8.22388L10.6668 8.5C10.5285 8.68434 10.3201 8.80321 10.091 8.82835C9.86199 8.8535 9.63275 8.78267 9.45779 8.63271L9.16612 8.38271C9.14158 8.36168 9.11829 8.33924 9.09636 8.3155C8.98426 8.19417 8.848 8.09765 8.69635 8.03216C8.54469 7.96666 8.38101 7.93365 8.21583 7.93524C8.05064 7.93682 7.88762 7.97298 7.73726 8.04137C7.58689 8.10977 7.45251 8.20889 7.34276 8.33235C7.23302 8.45582 7.15034 8.60089 7.10004 8.75824C7.04975 8.91559 7.03296 9.08172 7.05075 9.24595C7.06854 9.41018 7.12051 9.56887 7.20333 9.7118C7.28615 9.85472 7.39798 9.97873 7.53162 10.0758C7.56376 10.0992 7.59419 10.1248 7.62268 10.1525L10.0418 12.5044L12.4564 10.1569C12.8168 9.79483 12.9423 9.43373 12.9482 9.12981C12.9533 8.86527 12.8686 8.59504 12.6927 8.35215C12.6544 8.3256 12.6178 8.29548 12.5834 8.26178C12.3498 8.03275 12.0356 7.90446 11.7084 7.90446C11.3998 7.90446 11.1027 8.01864 10.8739 8.22388Z" fill="black"/>
</svg>
