<svg width="20" height="20" viewBox="0 0 20 20" fill="none" xmlns="http://www.w3.org/2000/svg">
<path fill-rule="evenodd" clip-rule="evenodd" d="M4.16675 3.33341C3.94573 3.33341 3.73377 3.42121 3.57749 3.57749C3.42121 3.73377 3.33341 3.94573 3.33341 4.16675V15.4882L5.24416 13.5775C5.40044 13.4212 5.6124 13.3334 5.83341 13.3334H15.8334C16.0544 13.3334 16.2664 13.2456 16.4227 13.0893C16.5789 12.9331 16.6667 12.7211 16.6667 12.5001V10.0001C16.6667 9.53984 17.0398 9.16675 17.5001 9.16675C17.9603 9.16675 18.3334 9.53984 18.3334 10.0001V12.5001C18.3334 13.1631 18.07 13.799 17.6012 14.2678C17.1323 14.7367 16.4965 15.0001 15.8334 15.0001H6.17859L3.08934 18.0893C2.85101 18.3277 2.49257 18.399 2.18118 18.27C1.86978 18.141 1.66675 17.8371 1.66675 17.5001V4.16675C1.66675 3.50371 1.93014 2.86782 2.39898 2.39898C2.86782 1.93014 3.50371 1.66675 4.16675 1.66675H10.0001C10.4603 1.66675 10.8334 2.03984 10.8334 2.50008C10.8334 2.96032 10.4603 3.33341 10.0001 3.33341H4.16675Z" fill="black"/>
<path fill-rule="evenodd" clip-rule="evenodd" d="M12.5 2.50008C12.5 2.03984 12.8731 1.66675 13.3333 1.66675H17.5C17.9602 1.66675 18.3333 2.03984 18.3333 2.50008V6.66675C18.3333 7.12699 17.9602 7.50008 17.5 7.50008C17.0398 7.50008 16.6667 7.12699 16.6667 6.66675V3.33341H13.3333C12.8731 3.33341 12.5 2.96032 12.5 2.50008Z" fill="black"/>
<path fill-rule="evenodd" clip-rule="evenodd" d="M18.0893 1.91083C18.4147 2.23626 18.4147 2.7639 18.0893 3.08934L13.9226 7.256C13.5972 7.58144 13.0695 7.58144 12.7441 7.256C12.4186 6.93057 12.4186 6.40293 12.7441 6.07749L16.9107 1.91083C17.2362 1.58539 17.7638 1.58539 18.0893 1.91083Z" fill="black"/>
</svg>
