<svg width="20" height="20" viewBox="0 0 20 20" fill="none" xmlns="http://www.w3.org/2000/svg">
<path fill-rule="evenodd" clip-rule="evenodd" d="M4.16675 3.33341C3.94573 3.33341 3.73377 3.42121 3.57749 3.57749C3.42121 3.73377 3.33341 3.94573 3.33341 4.16675V15.4882L5.24416 13.5775C5.40044 13.4212 5.6124 13.3334 5.83341 13.3334H15.8334C16.0544 13.3334 16.2664 13.2456 16.4227 13.0893C16.5789 12.9331 16.6667 12.7211 16.6667 12.5001V4.16675C16.6667 3.94573 16.5789 3.73377 16.4227 3.57749C16.2664 3.42121 16.0544 3.33341 15.8334 3.33341H4.16675ZM2.39898 2.39898C2.86782 1.93014 3.50371 1.66675 4.16675 1.66675H15.8334C16.4965 1.66675 17.1323 1.93014 17.6012 2.39898C18.07 2.86782 18.3334 3.50371 18.3334 4.16675V12.5001C18.3334 13.1631 18.07 13.799 17.6012 14.2678C17.1323 14.7367 16.4965 15.0001 15.8334 15.0001H6.17859L3.08934 18.0893C2.85101 18.3277 2.49257 18.399 2.18118 18.27C1.86978 18.141 1.66675 17.8371 1.66675 17.5001V4.16675C1.66675 3.50371 1.93014 2.86782 2.39898 2.39898Z" fill="black"/>
<path fill-rule="evenodd" clip-rule="evenodd" d="M9.93756 5.36577C10.3234 5.10862 10.7795 4.96851 11.2501 4.96851C11.8771 4.96851 12.4784 5.21731 12.9222 5.6603L12.9226 5.66079C13.8314 6.56956 13.9147 8.0972 12.8393 9.17263L10.5893 11.4226C10.433 11.5789 10.2211 11.6667 10.0001 11.6667C9.77904 11.6667 9.56708 11.5789 9.4108 11.4226L7.18098 9.19282C6.95676 8.99474 6.77199 8.75591 6.63654 8.4889C6.49573 8.21135 6.41098 7.90878 6.38711 7.59848C6.36324 7.28817 6.40072 6.9762 6.49742 6.68038C6.59411 6.38456 6.74813 6.11068 6.95067 5.87439C7.15321 5.63809 7.40031 5.444 7.67786 5.3032C7.95541 5.16239 8.25798 5.07764 8.56829 5.05377C8.87859 5.0299 9.19056 5.06738 9.48638 5.16408C9.64377 5.21553 9.79495 5.2832 9.93756 5.36577ZM9.1878 6.86631C9.12238 6.81427 9.04814 6.77428 8.96855 6.74826C8.88077 6.71957 8.7882 6.70844 8.69611 6.71553C8.60403 6.72261 8.51425 6.74776 8.43189 6.78954C8.34953 6.83132 8.2762 6.88892 8.2161 6.95904C8.156 7.02916 8.11029 7.11043 8.0816 7.19821C8.05291 7.286 8.04178 7.37857 8.04887 7.47065C8.05595 7.56273 8.0811 7.65251 8.12288 7.73488C8.16466 7.81724 8.22226 7.89056 8.29238 7.95067C8.30857 7.96455 8.32423 7.97904 8.33931 7.99412L10.0001 9.65487L11.6608 7.99412C12.0853 7.56966 12.0021 7.09742 11.7443 6.83948C11.6131 6.70865 11.4354 6.63517 11.2501 6.63517C11.087 6.63517 10.9299 6.69203 10.8051 6.79478L10.6934 6.9623C10.5549 7.17003 10.3306 7.30472 10.0822 7.32932C9.83372 7.35392 9.58733 7.26584 9.4108 7.0893L9.1878 6.86631Z" fill="black"/>
</svg>
