<svg width="20" height="20" viewBox="0 0 20 20" fill="none" xmlns="http://www.w3.org/2000/svg">
<path fill-rule="evenodd" clip-rule="evenodd" d="M4.16675 3.33341C3.94573 3.33341 3.73377 3.42121 3.57749 3.57749C3.42121 3.73377 3.33341 3.94573 3.33341 4.16675V15.4882L5.24416 13.5775C5.40044 13.4212 5.6124 13.3334 5.83341 13.3334H15.8334C16.0544 13.3334 16.2664 13.2456 16.4227 13.0893C16.5789 12.9331 16.6667 12.7211 16.6667 12.5001V4.16675C16.6667 3.94573 16.5789 3.73377 16.4227 3.57749C16.2664 3.42121 16.0544 3.33341 15.8334 3.33341H4.16675ZM2.39898 2.39898C2.86782 1.93014 3.50371 1.66675 4.16675 1.66675H15.8334C16.4965 1.66675 17.1323 1.93014 17.6012 2.39898C18.07 2.86782 18.3334 3.50371 18.3334 4.16675V12.5001C18.3334 13.1631 18.07 13.799 17.6012 14.2678C17.1323 14.7367 16.4965 15.0001 15.8334 15.0001H6.17859L3.08934 18.0893C2.85101 18.3277 2.49257 18.399 2.18118 18.27C1.86978 18.141 1.66675 17.8371 1.66675 17.5001V4.16675C1.66675 3.50371 1.93014 2.86782 2.39898 2.39898Z" fill="black"/>
<path fill-rule="evenodd" clip-rule="evenodd" d="M8.92259 5.24408C9.24803 5.56951 9.24803 6.09715 8.92259 6.42259L7.01184 8.33333L8.92259 10.2441C9.24803 10.5695 9.24803 11.0972 8.92259 11.4226C8.59715 11.748 8.06951 11.748 7.74408 11.4226L5.24408 8.92259C4.91864 8.59715 4.91864 8.06951 5.24408 7.74408L7.74408 5.24408C8.06951 4.91864 8.59715 4.91864 8.92259 5.24408Z" fill="black"/>
<path fill-rule="evenodd" clip-rule="evenodd" d="M5 8.33333C5 7.8731 5.3731 7.5 5.83333 7.5H12.5C13.163 7.5 13.7989 7.76339 14.2678 8.23223C14.7366 8.70107 15 9.33696 15 10V10.8333C15 11.2936 14.6269 11.6667 14.1667 11.6667C13.7064 11.6667 13.3333 11.2936 13.3333 10.8333V10C13.3333 9.77899 13.2455 9.56703 13.0893 9.41074C12.933 9.25446 12.721 9.16667 12.5 9.16667H5.83333C5.3731 9.16667 5 8.79357 5 8.33333Z" fill="black"/>
</svg>
