<svg width="20" height="20" viewBox="0 0 20 20" fill="none" xmlns="http://www.w3.org/2000/svg">
<path fill-rule="evenodd" clip-rule="evenodd" d="M9.6589 5.66165C10.0303 5.93346 10.111 6.45489 9.83922 6.82628L4.84422 13.6513L4.84416 13.6514L5.52484 14.3329L12.0695 9.33753C12.4353 9.05829 12.9583 9.1285 13.2375 9.49435C13.5167 9.86019 13.4465 10.3831 13.0807 10.6624L6.53697 15.657C6.53682 15.6571 6.53667 15.6573 6.53652 15.6574C6.2159 15.9023 5.81732 16.0226 5.41474 15.9959C5.01196 15.9692 4.63255 15.7973 4.34697 15.512L3.66599 14.8302C3.66592 14.8301 3.66586 14.8301 3.66579 14.83C3.38443 14.5487 3.21298 14.1761 3.18242 13.7794C3.15185 13.3826 3.26424 12.9881 3.49927 12.667C3.49929 12.6669 3.49931 12.6669 3.49933 12.6669L8.49427 5.84196C8.76608 5.47056 9.28751 5.38984 9.6589 5.66165Z" fill="black"/>
<path fill-rule="evenodd" clip-rule="evenodd" d="M5.2067 14.0303C5.51211 14.3746 5.48059 14.9013 5.13629 15.2067C4.93749 15.3831 4.78314 15.856 4.96202 16.466C5.13175 17.0449 5.51686 17.4334 5.9744 17.512C6.50689 17.6035 7.07519 17.3576 7.93411 16.8822C7.98709 16.8528 8.04131 16.8226 8.09662 16.7918C8.4473 16.5964 8.84158 16.3768 9.24012 16.2041C9.70928 16.0009 10.2467 15.8333 10.8333 15.8333C12.1964 15.8333 13.2975 16.3351 14.2157 16.954C14.5974 17.2112 14.6982 17.7291 14.441 18.1108C14.1838 18.4924 13.6658 18.5933 13.2842 18.336C12.5358 17.8316 11.7568 17.5 10.8333 17.5C10.5624 17.5 10.2619 17.5779 9.90255 17.7335C9.58633 17.8705 9.27287 18.0448 8.91666 18.2429C8.85935 18.2748 8.80093 18.3073 8.74122 18.3404C7.96056 18.7725 6.88635 19.3598 5.69218 19.1546C4.42305 18.9366 3.65191 17.9214 3.36269 16.935C3.0826 15.9798 3.16659 14.7261 4.03029 13.9599C4.37459 13.6545 4.90128 13.686 5.2067 14.0303Z" fill="black"/>
<path fill-rule="evenodd" clip-rule="evenodd" d="M13.3333 2.49992C11.4923 2.49992 9.99992 3.9923 9.99992 5.83325C9.99992 7.6742 11.4923 9.16659 13.3333 9.16659C15.1742 9.16659 16.6666 7.6742 16.6666 5.83325C16.6666 3.9923 15.1742 2.49992 13.3333 2.49992ZM8.33325 5.83325C8.33325 3.07183 10.5718 0.833252 13.3333 0.833252C16.0947 0.833252 18.3333 3.07183 18.3333 5.83325C18.3333 8.59468 16.0947 10.8333 13.3333 10.8333C10.5718 10.8333 8.33325 8.59468 8.33325 5.83325Z" fill="black"/>
</svg>
