<svg width="20" height="20" viewBox="0 0 20 20" fill="none" xmlns="http://www.w3.org/2000/svg">
<g clip-path="url(#clip0_2001_8405)">
<path fill-rule="evenodd" clip-rule="evenodd" d="M1.07733 1.07733C1.40277 0.751893 1.9304 0.751893 2.25584 1.07733L18.9225 17.744C19.2479 18.0694 19.2479 18.5971 18.9225 18.9225C18.5971 19.2479 18.0694 19.2479 17.744 18.9225L1.07733 2.25584C0.751893 1.9304 0.751893 1.40277 1.07733 1.07733Z" fill="black"/>
<path fill-rule="evenodd" clip-rule="evenodd" d="M15.8333 7.5C16.2936 7.5 16.6667 7.8731 16.6667 8.33333V10L16.6667 10.002C16.6657 10.3939 16.6308 10.785 16.5621 11.1709C16.4815 11.6241 16.0489 11.9261 15.5957 11.8455C15.1426 11.7649 14.8406 11.3322 14.9212 10.8791C14.9729 10.5885 14.9993 10.2941 15 9.99899V8.33333C15 7.8731 15.3731 7.5 15.8333 7.5Z" fill="black"/>
<path fill-rule="evenodd" clip-rule="evenodd" d="M4.16671 7.5C4.62695 7.5 5.00005 7.8731 5.00005 8.33333V10C5.00005 10.004 5.00002 10.0081 4.99996 10.0121C4.98543 11.0115 5.27076 11.9923 5.81913 12.828C6.36749 13.6636 7.15373 14.3158 8.07635 14.7002C8.99898 15.0846 10.0156 15.1837 10.9951 14.9847C11.9746 14.7856 12.872 14.2976 13.5714 13.5835C13.8934 13.2548 14.421 13.2493 14.7498 13.5713C15.0786 13.8934 15.0841 14.421 14.762 14.7498C13.8295 15.7018 12.633 16.3526 11.327 16.618C10.021 16.8833 8.66549 16.7512 7.43533 16.2387C6.20516 15.7261 5.15685 14.8566 4.42569 13.7424C3.69568 12.6299 3.31529 11.3245 3.33338 9.99415V8.33333C3.33338 7.8731 3.70648 7.5 4.16671 7.5Z" fill="black"/>
<path fill-rule="evenodd" clip-rule="evenodd" d="M8.58814 1.16216C9.26618 0.845132 10.0312 0.765531 10.76 0.936179C11.4887 1.10683 12.1389 1.51779 12.6057 2.10289C13.0725 2.68798 13.3288 3.41316 13.3333 4.16164C13.3333 4.16331 13.3333 4.16499 13.3333 4.16666V7.78333C13.3333 8.24357 12.9602 8.61666 12.5 8.61666C12.0397 8.61666 11.6666 8.24357 11.6666 7.78333V4.16944C11.6639 3.796 11.5358 3.43427 11.3028 3.14231C11.0694 2.84976 10.7444 2.64428 10.38 2.55895C10.0156 2.47363 9.63309 2.51343 9.29407 2.67194C8.95505 2.83046 8.67925 3.09846 8.51108 3.43279C8.30427 3.84395 7.80331 4.0096 7.39215 3.80279C6.981 3.59598 6.81535 3.09502 7.02216 2.68386C7.3585 2.0152 7.9101 1.47919 8.58814 1.16216Z" fill="black"/>
<path fill-rule="evenodd" clip-rule="evenodd" d="M7.50008 6.66675C7.96032 6.66675 8.33341 7.03984 8.33341 7.50008V9.99967C8.33377 10.329 8.43167 10.6508 8.61476 10.9245C8.79792 11.1983 9.05811 11.4117 9.36247 11.5378C9.66684 11.6638 10.0017 11.6968 10.3248 11.6326C10.6479 11.5684 10.9448 11.4099 11.1779 11.1771C11.5035 10.8519 12.0311 10.8522 12.3564 11.1779C12.6816 11.5035 12.6813 12.0311 12.3556 12.3564C11.8895 12.822 11.2958 13.139 10.6496 13.2673C10.0034 13.3957 9.33359 13.3297 8.72487 13.0776C8.11614 12.8256 7.59576 12.3988 7.22945 11.8512C6.86314 11.3036 6.66733 10.6597 6.66675 10.0008L6.66675 7.50008C6.66675 7.03984 7.03984 6.66675 7.50008 6.66675Z" fill="black"/>
<path fill-rule="evenodd" clip-rule="evenodd" d="M10.0001 15C10.4603 15 10.8334 15.3731 10.8334 15.8333V18.3333C10.8334 18.7936 10.4603 19.1667 10.0001 19.1667C9.53984 19.1667 9.16675 18.7936 9.16675 18.3333V15.8333C9.16675 15.3731 9.53984 15 10.0001 15Z" fill="black"/>
</g>
<defs>
<clipPath id="clip0_2001_8405">
<rect width="20" height="20" fill="white"/>
</clipPath>
</defs>
</svg>
