<svg width="20" height="20" viewBox="0 0 20 20" fill="none" xmlns="http://www.w3.org/2000/svg">
<path fill-rule="evenodd" clip-rule="evenodd" d="M7.64306 1.80956C8.26818 1.18444 9.11603 0.833252 10.0001 0.833252C10.8841 0.833252 11.732 1.18444 12.3571 1.80956C12.9822 2.43468 13.3334 3.28253 13.3334 4.16659V9.99992C13.3334 10.884 12.9822 11.7318 12.3571 12.3569C11.732 12.9821 10.8841 13.3333 10.0001 13.3333C9.11603 13.3333 8.26818 12.9821 7.64306 12.3569C7.01794 11.7318 6.66675 10.884 6.66675 9.99992V4.16659C6.66675 3.28253 7.01794 2.43468 7.64306 1.80956ZM10.0001 2.49992C9.55805 2.49992 9.13413 2.67551 8.82157 2.98807C8.50901 3.30063 8.33341 3.72456 8.33341 4.16659V9.99992C8.33341 10.4419 8.50901 10.8659 8.82157 11.1784C9.13413 11.491 9.55805 11.6666 10.0001 11.6666C10.4421 11.6666 10.866 11.491 11.1786 11.1784C11.4912 10.8659 11.6667 10.4419 11.6667 9.99992V4.16659C11.6667 3.72456 11.4912 3.30063 11.1786 2.98807C10.866 2.67551 10.4421 2.49992 10.0001 2.49992Z" fill="black"/>
<path fill-rule="evenodd" clip-rule="evenodd" d="M4.16659 7.5C4.62682 7.5 4.99992 7.8731 4.99992 8.33333V10C4.99992 11.3261 5.5267 12.5979 6.46438 13.5355C7.40207 14.4732 8.67384 15 9.99992 15C11.326 15 12.5978 14.4732 13.5355 13.5355C14.4731 12.5979 14.9999 11.3261 14.9999 10V8.33333C14.9999 7.8731 15.373 7.5 15.8333 7.5C16.2935 7.5 16.6666 7.8731 16.6666 8.33333V10C16.6666 11.7681 15.9642 13.4638 14.714 14.714C13.4637 15.9643 11.768 16.6667 9.99992 16.6667C8.23181 16.6667 6.53612 15.9643 5.28587 14.714C4.03563 13.4638 3.33325 11.7681 3.33325 10V8.33333C3.33325 7.8731 3.70635 7.5 4.16659 7.5Z" fill="black"/>
<path fill-rule="evenodd" clip-rule="evenodd" d="M10.0001 15C10.4603 15 10.8334 15.3731 10.8334 15.8333V18.3333C10.8334 18.7936 10.4603 19.1667 10.0001 19.1667C9.53984 19.1667 9.16675 18.7936 9.16675 18.3333V15.8333C9.16675 15.3731 9.53984 15 10.0001 15Z" fill="black"/>
</svg>
