<svg width="20" height="20" viewBox="0 0 20 20" fill="none" xmlns="http://www.w3.org/2000/svg">
<path fill-rule="evenodd" clip-rule="evenodd" d="M4.16675 15.0001C4.16675 14.5398 4.53984 14.1667 5.00008 14.1667H11.6667C12.127 14.1667 12.5001 14.5398 12.5001 15.0001C12.5001 15.4603 12.127 15.8334 11.6667 15.8334H5.00008C4.53984 15.8334 4.16675 15.4603 4.16675 15.0001Z" fill="black"/>
<path fill-rule="evenodd" clip-rule="evenodd" d="M1.66675 18.3333C1.66675 17.8731 2.03984 17.5 2.50008 17.5H17.5001C17.9603 17.5 18.3334 17.8731 18.3334 18.3333C18.3334 18.7936 17.9603 19.1667 17.5001 19.1667H2.50008C2.03984 19.1667 1.66675 18.7936 1.66675 18.3333Z" fill="black"/>
<path fill-rule="evenodd" clip-rule="evenodd" d="M10 6.66659C10 6.20635 10.3731 5.83325 10.8333 5.83325H11.6667C13.4348 5.83325 15.1305 6.53563 16.3807 7.78587C17.631 9.03612 18.3333 10.7318 18.3333 12.4999C18.3333 14.268 17.631 15.9637 16.3807 17.214C15.1305 18.4642 13.4348 19.1666 11.6667 19.1666C11.2064 19.1666 10.8333 18.7935 10.8333 18.3333C10.8333 17.873 11.2064 17.4999 11.6667 17.4999C12.9927 17.4999 14.2645 16.9731 15.2022 16.0355C16.1399 15.0978 16.6667 13.826 16.6667 12.4999C16.6667 11.1738 16.1399 9.90207 15.2022 8.96438C14.2645 8.0267 12.9927 7.49992 11.6667 7.49992H10.8333C10.3731 7.49992 10 7.12682 10 6.66659Z" fill="black"/>
<path fill-rule="evenodd" clip-rule="evenodd" d="M6.66675 11.6666C6.66675 11.2063 7.03984 10.8333 7.50008 10.8333H9.16675C9.62699 10.8333 10.0001 11.2063 10.0001 11.6666C10.0001 12.1268 9.62699 12.4999 9.16675 12.4999H7.50008C7.03984 12.4999 6.66675 12.1268 6.66675 11.6666Z" fill="black"/>
<path fill-rule="evenodd" clip-rule="evenodd" d="M5 5.00008C5 4.53984 5.3731 4.16675 5.83333 4.16675H10.8333C11.2936 4.16675 11.6667 4.53984 11.6667 5.00008V8.33341C11.6667 8.99646 11.4033 9.63234 10.9344 10.1012C10.4656 10.57 9.82971 10.8334 9.16667 10.8334H7.5C6.83696 10.8334 6.20107 10.57 5.73223 10.1012C5.26339 9.63234 5 8.99646 5 8.33341V5.00008ZM6.66667 5.83341V8.33341C6.66667 8.55443 6.75446 8.76639 6.91074 8.92267C7.06702 9.07895 7.27899 9.16675 7.5 9.16675H9.16667C9.38768 9.16675 9.59964 9.07895 9.75592 8.92267C9.9122 8.76639 10 8.55443 10 8.33341V5.83341H6.66667Z" fill="black"/>
<path fill-rule="evenodd" clip-rule="evenodd" d="M6.32141 1.32141C6.63397 1.00885 7.05789 0.833252 7.49992 0.833252H9.16659C9.60861 0.833252 10.0325 1.00885 10.3451 1.32141C10.6577 1.63397 10.8333 2.05789 10.8333 2.49992V4.99992C10.8333 5.46016 10.4602 5.83325 9.99992 5.83325C9.53968 5.83325 9.16659 5.46016 9.16659 4.99992V2.49992H7.49992L7.49992 4.99992C7.49992 5.46016 7.12682 5.83325 6.66659 5.83325C6.20635 5.83325 5.83325 5.46016 5.83325 4.99992V2.49992C5.83325 2.05789 6.00885 1.63397 6.32141 1.32141Z" fill="black"/>
</svg>
