<svg width="20" height="20" viewBox="0 0 20 20" fill="none" xmlns="http://www.w3.org/2000/svg">
<path fill-rule="evenodd" clip-rule="evenodd" d="M14.1667 10.0001C14.1667 9.53984 14.5398 9.16675 15.0001 9.16675H16.6667C17.127 9.16675 17.5001 9.53984 17.5001 10.0001C17.5001 10.4603 17.127 10.8334 16.6667 10.8334H15.0001C14.5398 10.8334 14.1667 10.4603 14.1667 10.0001Z" fill="black"/>
<path fill-rule="evenodd" clip-rule="evenodd" d="M14.1667 13.3333C14.1667 12.8731 14.5398 12.5 15.0001 12.5H16.6667C17.127 12.5 17.5001 12.8731 17.5001 13.3333C17.5001 13.7936 17.127 14.1667 16.6667 14.1667H15.0001C14.5398 14.1667 14.1667 13.7936 14.1667 13.3333Z" fill="black"/>
<path fill-rule="evenodd" clip-rule="evenodd" d="M14.1667 16.6666C14.1667 16.2063 14.5398 15.8333 15.0001 15.8333H16.6667C17.127 15.8333 17.5001 16.2063 17.5001 16.6666C17.5001 17.1268 17.127 17.4999 16.6667 17.4999H15.0001C14.5398 17.4999 14.1667 17.1268 14.1667 16.6666Z" fill="black"/>
<path fill-rule="evenodd" clip-rule="evenodd" d="M14.1667 3.33333C14.1667 2.8731 14.5398 2.5 15.0001 2.5H16.6667C17.127 2.5 17.5001 2.8731 17.5001 3.33333C17.5001 3.79357 17.127 4.16667 16.6667 4.16667H15.0001C14.5398 4.16667 14.1667 3.79357 14.1667 3.33333Z" fill="black"/>
<path fill-rule="evenodd" clip-rule="evenodd" d="M14.1667 6.66659C14.1667 6.20635 14.5398 5.83325 15.0001 5.83325H16.6667C17.127 5.83325 17.5001 6.20635 17.5001 6.66659C17.5001 7.12682 17.127 7.49992 16.6667 7.49992H15.0001C14.5398 7.49992 14.1667 7.12682 14.1667 6.66659Z" fill="black"/>
<path fill-rule="evenodd" clip-rule="evenodd" d="M2.5 10.0001C2.5 9.53984 2.8731 9.16675 3.33333 9.16675H5C5.46024 9.16675 5.83333 9.53984 5.83333 10.0001C5.83333 10.4603 5.46024 10.8334 5 10.8334H3.33333C2.8731 10.8334 2.5 10.4603 2.5 10.0001Z" fill="black"/>
<path fill-rule="evenodd" clip-rule="evenodd" d="M2.5 13.3333C2.5 12.8731 2.8731 12.5 3.33333 12.5H5C5.46024 12.5 5.83333 12.8731 5.83333 13.3333C5.83333 13.7936 5.46024 14.1667 5 14.1667H3.33333C2.8731 14.1667 2.5 13.7936 2.5 13.3333Z" fill="black"/>
<path fill-rule="evenodd" clip-rule="evenodd" d="M2.5 16.6666C2.5 16.2063 2.8731 15.8333 3.33333 15.8333H5C5.46024 15.8333 5.83333 16.2063 5.83333 16.6666C5.83333 17.1268 5.46024 17.4999 5 17.4999H3.33333C2.8731 17.4999 2.5 17.1268 2.5 16.6666Z" fill="black"/>
<path fill-rule="evenodd" clip-rule="evenodd" d="M2.5 3.33333C2.5 2.8731 2.8731 2.5 3.33333 2.5H5C5.46024 2.5 5.83333 2.8731 5.83333 3.33333C5.83333 3.79357 5.46024 4.16667 5 4.16667H3.33333C2.8731 4.16667 2.5 3.79357 2.5 3.33333Z" fill="black"/>
<path fill-rule="evenodd" clip-rule="evenodd" d="M2.5 6.66659C2.5 6.20635 2.8731 5.83325 3.33333 5.83325H5C5.46024 5.83325 5.83333 6.20635 5.83333 6.66659C5.83333 7.12682 5.46024 7.49992 5 7.49992H3.33333C2.8731 7.49992 2.5 7.12682 2.5 6.66659Z" fill="black"/>
<path fill-rule="evenodd" clip-rule="evenodd" d="M4.89898 1.56549C5.36782 1.09664 6.00371 0.833252 6.66675 0.833252H7.91675C8.64136 0.833252 9.07305 1.40361 9.19258 1.8732C9.19259 1.87323 9.1926 1.87325 9.1926 1.87328C9.23836 2.05269 9.34257 2.21175 9.48877 2.32535C9.635 2.43897 9.8149 2.50065 10.0001 2.50065C10.1853 2.50065 10.3652 2.43897 10.5114 2.32535C10.6575 2.2118 10.7617 2.05285 10.8075 1.87355C10.9269 1.40389 11.3586 0.833252 12.0834 0.833252H13.3334C13.9965 0.833252 14.6323 1.09664 15.1012 1.56549C15.57 2.03433 15.8334 2.67021 15.8334 3.33325V16.6666C15.8334 17.3296 15.57 17.9655 15.1012 18.4344C14.6323 18.9032 13.9965 19.1666 13.3334 19.1666H6.66675C6.00371 19.1666 5.36782 18.9032 4.89898 18.4344C4.43014 17.9655 4.16675 17.3296 4.16675 16.6666V3.33325C4.16675 2.67021 4.43014 2.03433 4.89898 1.56549ZM6.66675 2.49992C6.44573 2.49992 6.23377 2.58772 6.07749 2.744C5.92121 2.90028 5.83341 3.11224 5.83341 3.33325V16.6666C5.83341 16.8876 5.92121 17.0996 6.07749 17.2558C6.23377 17.4121 6.44573 17.4999 6.66675 17.4999H13.3334C13.5544 17.4999 13.7664 17.4121 13.9227 17.2558C14.079 17.0996 14.1667 16.8876 14.1667 16.6666V3.33325C14.1667 3.11224 14.079 2.90028 13.9227 2.744C13.7664 2.58772 13.5544 2.49992 13.3334 2.49992H12.3574C12.1984 2.94993 11.9133 3.34667 11.534 3.64142C11.0953 3.98228 10.5556 4.16732 10.0001 4.16732C9.44454 4.16732 8.90483 3.98228 8.46615 3.64142C8.08683 3.34667 7.80174 2.94993 7.6428 2.49992H6.66675Z" fill="black"/>
</svg>
