<svg width="20" height="20" viewBox="0 0 20 20" fill="none" xmlns="http://www.w3.org/2000/svg">
<path fill-rule="evenodd" clip-rule="evenodd" d="M3.33325 4.16667C2.87301 4.16667 2.49992 4.53976 2.49992 5V14.1667C2.49992 14.6269 2.87301 15 3.33325 15H16.6666C17.1268 15 17.4999 14.6269 17.4999 14.1667V5C17.4999 4.53976 17.1268 4.16667 16.6666 4.16667H3.33325ZM0.833252 5C0.833252 3.61929 1.95254 2.5 3.33325 2.5H16.6666C18.0473 2.5 19.1666 3.61929 19.1666 5V14.1667C19.1666 15.5474 18.0473 16.6667 16.6666 16.6667H3.33325C1.95254 16.6667 0.833252 15.5474 0.833252 14.1667V5Z" fill="black"/>
<path fill-rule="evenodd" clip-rule="evenodd" d="M5.83341 7.49992V11.6666H10.8334V7.49992H5.83341ZM4.16675 7.49992C4.16675 6.57944 4.91294 5.83325 5.83341 5.83325H10.8334C11.7539 5.83325 12.5001 6.57944 12.5001 7.49992V11.6666C12.5001 12.5871 11.7539 13.3333 10.8334 13.3333H5.83341C4.91294 13.3333 4.16675 12.5871 4.16675 11.6666V7.49992Z" fill="black"/>
<path fill-rule="evenodd" clip-rule="evenodd" d="M15.0001 5.83325C15.4603 5.83325 15.8334 6.20635 15.8334 6.66659V12.4999C15.8334 12.9602 15.4603 13.3333 15.0001 13.3333C14.5398 13.3333 14.1667 12.9602 14.1667 12.4999V6.66659C14.1667 6.20635 14.5398 5.83325 15.0001 5.83325Z" fill="black"/>
<path fill-rule="evenodd" clip-rule="evenodd" d="M5.00008 15C5.46032 15 5.83341 15.3731 5.83341 15.8333V17.5C5.83341 17.9602 5.46032 18.3333 5.00008 18.3333C4.53984 18.3333 4.16675 17.9602 4.16675 17.5V15.8333C4.16675 15.3731 4.53984 15 5.00008 15Z" fill="black"/>
<path fill-rule="evenodd" clip-rule="evenodd" d="M15.0001 15C15.4603 15 15.8334 15.3731 15.8334 15.8333V17.5C15.8334 17.9602 15.4603 18.3333 15.0001 18.3333C14.5398 18.3333 14.1667 17.9602 14.1667 17.5V15.8333C14.1667 15.3731 14.5398 15 15.0001 15Z" fill="black"/>
</svg>
