<svg width="20" height="20" viewBox="0 0 20 20" fill="none" xmlns="http://www.w3.org/2000/svg">
<path fill-rule="evenodd" clip-rule="evenodd" d="M10.0001 10C10.4603 10 10.8334 10.3731 10.8334 10.8333V17.5C10.8334 17.9602 10.4603 18.3333 10.0001 18.3333C9.53984 18.3333 9.16675 17.9602 9.16675 17.5V10.8333C9.16675 10.3731 9.53984 10 10.0001 10Z" fill="black"/>
<path fill-rule="evenodd" clip-rule="evenodd" d="M10.0001 1.66675C10.4603 1.66675 10.8334 2.03984 10.8334 2.50008V5.00008C10.8334 5.46032 10.4603 5.83341 10.0001 5.83341C9.53984 5.83341 9.16675 5.46032 9.16675 5.00008V2.50008C9.16675 2.03984 9.53984 1.66675 10.0001 1.66675Z" fill="black"/>
<path fill-rule="evenodd" clip-rule="evenodd" d="M2.1549 4.6549C2.46746 4.34234 2.89139 4.16675 3.33341 4.16675H14.1667C14.1667 4.16675 14.1667 4.16675 14.1667 4.16675C14.6794 4.16672 15.1797 4.32432 15.5997 4.61808L18.4473 6.54584C18.4515 6.54874 18.4558 6.55168 18.46 6.55466C18.6784 6.70851 18.8566 6.91259 18.9796 7.14971C19.1026 7.38683 19.1668 7.65004 19.1668 7.91716C19.1668 8.18429 19.1026 8.4475 18.9796 8.68462C18.8566 8.92174 18.6784 9.12582 18.46 9.27966C18.4557 9.28268 18.4514 9.28565 18.4471 9.28858L15.5996 11.2155C15.1796 11.5092 14.6794 11.6668 14.1667 11.6667C14.1667 11.6667 14.1667 11.6667 14.1667 11.6667H3.33341C2.89139 11.6667 2.46746 11.4912 2.1549 11.1786C1.84234 10.866 1.66675 10.4421 1.66675 10.0001V5.83341C1.66675 5.39139 1.84234 4.96746 2.1549 4.6549ZM3.33341 5.83342V10.0001H14.1668C14.3387 10.0001 14.5063 9.94697 14.6468 9.848C14.6511 9.84499 14.6554 9.84201 14.6597 9.83908L17.4999 7.91716L14.6596 5.99432C14.6553 5.99142 14.651 5.98848 14.6468 5.9855C14.5063 5.88652 14.3387 5.8334 14.1668 5.83341L3.33341 5.83342Z" fill="black"/>
</svg>
