<svg width="20" height="20" viewBox="0 0 20 20" fill="none" xmlns="http://www.w3.org/2000/svg">
<g clip-path="url(#clip0_2001_8449)">
<path fill-rule="evenodd" clip-rule="evenodd" d="M5.83325 1.66659C5.83325 1.20635 6.20635 0.833252 6.66659 0.833252H13.3333C13.7935 0.833252 14.1666 1.20635 14.1666 1.66659C14.1666 2.12682 13.7935 2.49992 13.3333 2.49992H6.66659C6.20635 2.49992 5.83325 2.12682 5.83325 1.66659Z" fill="black"/>
<path fill-rule="evenodd" clip-rule="evenodd" d="M7.5 0.833252C7.96024 0.833252 8.33333 1.20635 8.33333 1.66659V2.78575C8.33333 3.24599 7.96024 3.61909 7.5 3.61909C7.03976 3.61909 6.66667 3.24599 6.66667 2.78575V1.66659C6.66667 1.20635 7.03976 0.833252 7.5 0.833252ZM12.5 0.833252C12.9602 0.833252 13.3333 1.20635 13.3333 1.66659V3.99073C13.3333 3.99074 13.3333 3.99074 13.3333 3.99075C13.3334 4.48436 13.4795 4.96692 13.7533 5.37761L13.7534 5.37767L14.3 6.19761C14.3 6.19763 14.3 6.19765 14.3 6.19767C14.7566 6.88238 15.0001 7.68696 15 8.50992C15 8.50998 15 8.51004 15 8.51011V9.45242C15 9.91266 14.6269 10.2858 14.1667 10.2858C13.7064 10.2858 13.3333 9.91266 13.3333 9.45242V8.50973C13.3334 8.0159 13.1873 7.5331 12.9133 7.12223L12.9133 7.12217L12.3667 6.30223C12.3667 6.30221 12.3666 6.30219 12.3666 6.30217C11.9102 5.6177 11.6667 4.81344 11.6667 3.99077V1.66659C11.6667 1.20635 12.0398 0.833252 12.5 0.833252ZM6.96225 5.80654C7.34519 6.06184 7.44867 6.57923 7.19338 6.96217L7.08667 7.12223C6.8127 7.5331 6.66656 8.0159 6.66667 8.50973V16.6666C6.66667 16.8876 6.75446 17.0996 6.91074 17.2558C7.06703 17.4121 7.27899 17.4999 7.5 17.4999H12.5C12.721 17.4999 12.933 17.4121 13.0893 17.2558C13.2455 17.0996 13.3333 16.8876 13.3333 16.6666V14.1666C13.3333 13.7063 13.7064 13.3333 14.1667 13.3333C14.6269 13.3333 15 13.7063 15 14.1666V16.6666C15 17.3296 14.7366 17.9655 14.2678 18.4344C13.7989 18.9032 13.163 19.1666 12.5 19.1666H7.5C6.83696 19.1666 6.20107 18.9032 5.73223 18.4344C5.26339 17.9655 5 17.3296 5 16.6666L5 8.51011C5 8.51004 5 8.50998 5 8.50992C4.99985 7.68696 5.24341 6.88238 5.69996 6.19767C5.69997 6.19765 5.69999 6.19763 5.7 6.19761L5.80663 6.03767C6.06192 5.65473 6.57931 5.55125 6.96225 5.80654Z" fill="black"/>
<path fill-rule="evenodd" clip-rule="evenodd" d="M7.91664 12.9145C7.31185 12.9145 6.71312 13.0348 6.1553 13.2685C5.73081 13.4463 5.24253 13.2464 5.0647 12.8219C4.88686 12.3974 5.08682 11.9091 5.51131 11.7313C6.27307 11.4122 7.09073 11.2478 7.91664 11.2478C8.74255 11.2478 9.56021 11.4122 10.322 11.7313L10.322 11.7313C11.0859 12.0514 11.9226 12.1573 12.7422 12.0378C13.1976 11.9714 13.6207 12.2867 13.6871 12.7421C13.7535 13.1976 13.4382 13.6206 12.9827 13.687C11.8636 13.8502 10.7211 13.7056 9.67797 13.2685M7.91664 12.9145C8.52141 12.9145 9.12014 13.0348 9.67795 13.2685L7.91664 12.9145Z" fill="black"/>
<path fill-rule="evenodd" clip-rule="evenodd" d="M1.07733 1.07733C1.40277 0.751893 1.9304 0.751893 2.25584 1.07733L18.9225 17.744C19.2479 18.0694 19.2479 18.5971 18.9225 18.9225C18.5971 19.2479 18.0694 19.2479 17.744 18.9225L1.07733 2.25584C0.751893 1.9304 0.751893 1.40277 1.07733 1.07733Z" fill="black"/>
</g>
<defs>
<clipPath id="clip0_2001_8449">
<rect width="20" height="20" fill="white"/>
</clipPath>
</defs>
</svg>
