<svg width="20" height="20" viewBox="0 0 20 20" fill="none" xmlns="http://www.w3.org/2000/svg">
<path fill-rule="evenodd" clip-rule="evenodd" d="M5.83325 1.66659C5.83325 1.20635 6.20635 0.833252 6.66659 0.833252H13.3333C13.7935 0.833252 14.1666 1.20635 14.1666 1.66659C14.1666 2.12682 13.7935 2.49992 13.3333 2.49992H6.66659C6.20635 2.49992 5.83325 2.12682 5.83325 1.66659Z" fill="black"/>
<path fill-rule="evenodd" clip-rule="evenodd" d="M7.5 0.833252C7.96024 0.833252 8.33333 1.20635 8.33333 1.66659V3.99077C8.33331 4.81344 8.08976 5.6177 7.63338 6.30217C7.63336 6.30219 7.63335 6.30221 7.63333 6.30223L7.08671 7.12217L7.08667 7.12223C6.8127 7.5331 6.66656 8.0159 6.66667 8.50973V16.6666C6.66667 16.8876 6.75446 17.0996 6.91074 17.2558C7.06703 17.4121 7.27899 17.4999 7.5 17.4999H12.5C12.721 17.4999 12.933 17.4121 13.0893 17.2558C13.2455 17.0996 13.3333 16.8876 13.3333 16.6666V8.50911C13.3333 8.5091 13.3333 8.50909 13.3333 8.50909C13.3333 8.01548 13.1872 7.53292 12.9133 7.12223L12.9133 7.12217L12.3667 6.30223C12.3667 6.30221 12.3666 6.30219 12.3666 6.30217C11.9101 5.61746 11.6665 4.81288 11.6667 3.98992C11.6667 3.98986 11.6667 3.98979 11.6667 3.98973V1.66659C11.6667 1.20635 12.0398 0.833252 12.5 0.833252C12.9602 0.833252 13.3333 1.20635 13.3333 1.66659V3.99011C13.3332 4.48394 13.4794 4.96674 13.7533 5.37761L13.7534 5.37767L14.3 6.19761C14.3 6.19763 14.3 6.19765 14.3 6.19767C14.7564 6.88214 15 7.68639 15 8.50906V16.6666C15 17.3296 14.7366 17.9655 14.2678 18.4344C13.7989 18.9032 13.163 19.1666 12.5 19.1666H7.5C6.83696 19.1666 6.20107 18.9032 5.73223 18.4344C5.26339 17.9655 5 17.3296 5 16.6666L5 8.51011C5 8.51004 5 8.50998 5 8.50992C4.99985 7.68696 5.24341 6.88238 5.69996 6.19767C5.69997 6.19765 5.69999 6.19763 5.7 6.19761L6.24667 5.37761C6.52051 4.96692 6.66665 4.48436 6.66667 3.99075C6.66667 3.99074 6.66667 3.99074 6.66667 3.99073V1.66659C6.66667 1.20635 7.03976 0.833252 7.5 0.833252Z" fill="black"/>
<path fill-rule="evenodd" clip-rule="evenodd" d="M7.91664 12.9147C7.31183 12.9147 6.71307 13.035 6.15521 13.2687C5.73069 13.4464 5.24243 13.2464 5.06465 12.8219C4.88687 12.3974 5.08689 11.9091 5.51141 11.7313C6.27317 11.4123 7.09078 11.248 7.91664 11.248C8.7425 11.248 9.56011 11.4123 10.3219 11.7313L10.322 11.7314C10.8798 11.9651 11.4785 12.0854 12.0833 12.0854C12.6881 12.0854 13.2868 11.9651 13.8446 11.7314C14.2691 11.5536 14.7574 11.7535 14.9352 12.178C15.1131 12.6025 14.9131 13.0908 14.4886 13.2686C13.7269 13.5877 12.9092 13.7521 12.0833 13.7521C11.2574 13.7521 10.4398 13.5878 9.67807 13.2687C9.67804 13.2686 9.67801 13.2686 9.67797 13.2686C9.12014 13.035 8.52141 12.9147 7.91664 12.9147Z" fill="black"/>
</svg>
