<svg width="20" height="20" viewBox="0 0 20 20" fill="none" xmlns="http://www.w3.org/2000/svg">
<path fill-rule="evenodd" clip-rule="evenodd" d="M6.66675 1.66675C7.12699 1.66675 7.50008 2.03984 7.50008 2.50008V5.00008C7.50008 5.66312 7.23669 6.29901 6.76785 6.76785C6.29901 7.23669 5.66312 7.50008 5.00008 7.50008H2.50008C2.03984 7.50008 1.66675 7.12699 1.66675 6.66675C1.66675 6.20651 2.03984 5.83342 2.50008 5.83342H5.00008C5.2211 5.83342 5.43306 5.74562 5.58934 5.58934C5.74562 5.43306 5.83342 5.2211 5.83342 5.00008V2.50008C5.83342 2.03984 6.20651 1.66675 6.66675 1.66675Z" fill="black"/>
<path fill-rule="evenodd" clip-rule="evenodd" d="M13.3333 1.66675C13.7936 1.66675 14.1667 2.03984 14.1667 2.50008V5.00008C14.1667 5.22109 14.2545 5.43306 14.4107 5.58934C14.567 5.74562 14.779 5.83342 15 5.83342H17.5C17.9602 5.83342 18.3333 6.20651 18.3333 6.66675C18.3333 7.12699 17.9602 7.50008 17.5 7.50008H15C14.337 7.50008 13.7011 7.23669 13.2322 6.76785C12.7634 6.29901 12.5 5.66312 12.5 5.00008V2.50008C12.5 2.03984 12.8731 1.66675 13.3333 1.66675Z" fill="black"/>
<path fill-rule="evenodd" clip-rule="evenodd" d="M1.66675 13.3333C1.66675 12.8731 2.03984 12.5 2.50008 12.5H5.00008C5.66312 12.5 6.29901 12.7634 6.76785 13.2322C7.23669 13.7011 7.50008 14.337 7.50008 15V17.5C7.50008 17.9602 7.12699 18.3333 6.66675 18.3333C6.20651 18.3333 5.83342 17.9602 5.83342 17.5V15C5.83342 14.779 5.74562 14.567 5.58934 14.4107C5.43306 14.2545 5.22109 14.1667 5.00008 14.1667H2.50008C2.03984 14.1667 1.66675 13.7936 1.66675 13.3333Z" fill="black"/>
<path fill-rule="evenodd" clip-rule="evenodd" d="M15 14.1667C14.779 14.1667 14.567 14.2545 14.4107 14.4107C14.2545 14.567 14.1667 14.779 14.1667 15V17.5C14.1667 17.9602 13.7936 18.3333 13.3333 18.3333C12.8731 18.3333 12.5 17.9602 12.5 17.5V15C12.5 14.337 12.7634 13.7011 13.2322 13.2322C13.7011 12.7634 14.337 12.5 15 12.5H17.5C17.9602 12.5 18.3333 12.8731 18.3333 13.3333C18.3333 13.7936 17.9602 14.1667 17.5 14.1667H15Z" fill="black"/>
</svg>
