<svg width="20" height="20" viewBox="0 0 20 20" fill="none" xmlns="http://www.w3.org/2000/svg">
<path fill-rule="evenodd" clip-rule="evenodd" d="M2.5 11.6666C2.5 11.2063 2.8731 10.8333 3.33333 10.8333H8.33333C8.79357 10.8333 9.16667 11.2063 9.16667 11.6666V16.6666C9.16667 17.1268 8.79357 17.4999 8.33333 17.4999C7.8731 17.4999 7.5 17.1268 7.5 16.6666V12.4999H3.33333C2.8731 12.4999 2.5 12.1268 2.5 11.6666Z" fill="black"/>
<path fill-rule="evenodd" clip-rule="evenodd" d="M11.6666 2.5C12.1268 2.5 12.4999 2.8731 12.4999 3.33333V7.5H16.6666C17.1268 7.5 17.4999 7.8731 17.4999 8.33333C17.4999 8.79357 17.1268 9.16667 16.6666 9.16667H11.6666C11.2063 9.16667 10.8333 8.79357 10.8333 8.33333V3.33333C10.8333 2.8731 11.2063 2.5 11.6666 2.5Z" fill="black"/>
<path fill-rule="evenodd" clip-rule="evenodd" d="M18.0892 1.91083C18.4146 2.23626 18.4146 2.7639 18.0892 3.08934L12.2558 8.92267C11.9304 9.24811 11.4028 9.24811 11.0773 8.92267C10.7519 8.59723 10.7519 8.0696 11.0773 7.74416L16.9107 1.91083C17.2361 1.58539 17.7637 1.58539 18.0892 1.91083Z" fill="black"/>
<path fill-rule="evenodd" clip-rule="evenodd" d="M8.92267 11.0773C9.24811 11.4028 9.24811 11.9304 8.92267 12.2558L3.08934 18.0892C2.7639 18.4146 2.23626 18.4146 1.91083 18.0892C1.58539 17.7637 1.58539 17.2361 1.91083 16.9107L7.74416 11.0773C8.0696 10.7519 8.59723 10.7519 8.92267 11.0773Z" fill="black"/>
</svg>
