<svg width="20" height="20" viewBox="0 0 20 20" fill="none" xmlns="http://www.w3.org/2000/svg">
<path fill-rule="evenodd" clip-rule="evenodd" d="M8.24708 5.18643C8.4732 5.0601 8.72889 4.99627 8.98786 5.00152C9.24683 5.00677 9.49973 5.08089 9.72056 5.21627L12.7746 7.09089C12.987 7.22136 13.1623 7.40408 13.2839 7.62159C13.4056 7.83911 13.4695 8.08417 13.4695 8.33339C13.4695 8.5826 13.4056 8.82766 13.2839 9.04518C13.1623 9.26269 12.987 9.44541 12.7746 9.57589L9.72056 11.4513C9.49945 11.5869 9.24619 11.661 8.98689 11.6661C8.72759 11.6712 8.47162 11.607 8.24538 11.4802C8.01914 11.3534 7.8308 11.1686 7.69977 10.9448C7.56887 10.7211 7.49991 10.4667 7.5 10.2076C7.5 10.2075 7.5 10.2074 7.5 10.2073L7.5 6.45683C7.50049 6.19781 7.56995 5.94359 7.70125 5.72031C7.83255 5.49704 8.02095 5.31276 8.24708 5.18643ZM9.16667 6.83188L11.6129 8.33343L9.16667 9.83564V6.83188Z" fill="black"/>
<path fill-rule="evenodd" clip-rule="evenodd" d="M10.0001 13.3333C10.4603 13.3333 10.8334 13.7063 10.8334 14.1666V17.4999C10.8334 17.9602 10.4603 18.3333 10.0001 18.3333C9.53984 18.3333 9.16675 17.9602 9.16675 17.4999V14.1666C9.16675 13.7063 9.53984 13.3333 10.0001 13.3333Z" fill="black"/>
<path fill-rule="evenodd" clip-rule="evenodd" d="M5.83325 17.5001C5.83325 17.0398 6.20635 16.6667 6.66659 16.6667H13.3333C13.7935 16.6667 14.1666 17.0398 14.1666 17.5001C14.1666 17.9603 13.7935 18.3334 13.3333 18.3334H6.66659C6.20635 18.3334 5.83325 17.9603 5.83325 17.5001Z" fill="black"/>
<path fill-rule="evenodd" clip-rule="evenodd" d="M3.33325 3.33341C2.87301 3.33341 2.49992 3.70651 2.49992 4.16675V12.5001C2.49992 12.9603 2.87301 13.3334 3.33325 13.3334H16.6666C17.1268 13.3334 17.4999 12.9603 17.4999 12.5001V4.16675C17.4999 3.70651 17.1268 3.33341 16.6666 3.33341H3.33325ZM0.833252 4.16675C0.833252 2.78604 1.95254 1.66675 3.33325 1.66675H16.6666C18.0473 1.66675 19.1666 2.78604 19.1666 4.16675V12.5001C19.1666 13.8808 18.0473 15.0001 16.6666 15.0001H3.33325C1.95254 15.0001 0.833252 13.8808 0.833252 12.5001V4.16675Z" fill="black"/>
</svg>
