<svg width="20" height="20" viewBox="0 0 20 20" fill="none" xmlns="http://www.w3.org/2000/svg">
<path fill-rule="evenodd" clip-rule="evenodd" d="M9.41083 5.24408C9.73626 4.91864 10.2639 4.91864 10.5893 5.24408L13.0893 7.74408C13.4148 8.06951 13.4148 8.59715 13.0893 8.92259C12.7639 9.24803 12.2363 9.24803 11.9108 8.92259L10.0001 7.01184L8.08934 8.92259C7.7639 9.24803 7.23626 9.24803 6.91083 8.92259C6.58539 8.59715 6.58539 8.06951 6.91083 7.74408L9.41083 5.24408Z" fill="black"/>
<path fill-rule="evenodd" clip-rule="evenodd" d="M10.0001 5C10.4603 5 10.8334 5.3731 10.8334 5.83333V10.8333C10.8334 11.2936 10.4603 11.6667 10.0001 11.6667C9.53984 11.6667 9.16675 11.2936 9.16675 10.8333V5.83333C9.16675 5.3731 9.53984 5 10.0001 5Z" fill="black"/>
<path fill-rule="evenodd" clip-rule="evenodd" d="M3.33325 3.33341C2.87301 3.33341 2.49992 3.70651 2.49992 4.16675V12.5001C2.49992 12.9603 2.87301 13.3334 3.33325 13.3334H16.6666C17.1268 13.3334 17.4999 12.9603 17.4999 12.5001V4.16675C17.4999 3.70651 17.1268 3.33341 16.6666 3.33341H3.33325ZM0.833252 4.16675C0.833252 2.78604 1.95254 1.66675 3.33325 1.66675H16.6666C18.0473 1.66675 19.1666 2.78604 19.1666 4.16675V12.5001C19.1666 13.8808 18.0473 15.0001 16.6666 15.0001H3.33325C1.95254 15.0001 0.833252 13.8808 0.833252 12.5001V4.16675Z" fill="black"/>
<path fill-rule="evenodd" clip-rule="evenodd" d="M10.0001 13.3333C10.4603 13.3333 10.8334 13.7063 10.8334 14.1666V17.4999C10.8334 17.9602 10.4603 18.3333 10.0001 18.3333C9.53984 18.3333 9.16675 17.9602 9.16675 17.4999V14.1666C9.16675 13.7063 9.53984 13.3333 10.0001 13.3333Z" fill="black"/>
<path fill-rule="evenodd" clip-rule="evenodd" d="M5.83325 17.5001C5.83325 17.0398 6.20635 16.6667 6.66659 16.6667H13.3333C13.7935 16.6667 14.1666 17.0398 14.1666 17.5001C14.1666 17.9603 13.7935 18.3334 13.3333 18.3334H6.66659C6.20635 18.3334 5.83325 17.9603 5.83325 17.5001Z" fill="black"/>
</svg>
