<svg width="20" height="20" viewBox="0 0 20 20" fill="none" xmlns="http://www.w3.org/2000/svg">
<path fill-rule="evenodd" clip-rule="evenodd" d="M8.33333 5C8.79357 5 9.16667 5.3731 9.16667 5.83333V10.8333C9.16667 11.2936 8.79357 11.6667 8.33333 11.6667C7.8731 11.6667 7.5 11.2936 7.5 10.8333V5.83333C7.5 5.3731 7.8731 5 8.33333 5Z" fill="black"/>
<path fill-rule="evenodd" clip-rule="evenodd" d="M11.6666 5C12.1268 5 12.4999 5.3731 12.4999 5.83333V10.8333C12.4999 11.2936 12.1268 11.6667 11.6666 11.6667C11.2063 11.6667 10.8333 11.2936 10.8333 10.8333V5.83333C10.8333 5.3731 11.2063 5 11.6666 5Z" fill="black"/>
<path fill-rule="evenodd" clip-rule="evenodd" d="M3.33325 3.33341C2.87301 3.33341 2.49992 3.70651 2.49992 4.16675V12.5001C2.49992 12.9603 2.87301 13.3334 3.33325 13.3334H16.6666C17.1268 13.3334 17.4999 12.9603 17.4999 12.5001V4.16675C17.4999 3.70651 17.1268 3.33341 16.6666 3.33341H3.33325ZM0.833252 4.16675C0.833252 2.78604 1.95254 1.66675 3.33325 1.66675H16.6666C18.0473 1.66675 19.1666 2.78604 19.1666 4.16675V12.5001C19.1666 13.8808 18.0473 15.0001 16.6666 15.0001H3.33325C1.95254 15.0001 0.833252 13.8808 0.833252 12.5001V4.16675Z" fill="black"/>
<path fill-rule="evenodd" clip-rule="evenodd" d="M10.0001 13.3333C10.4603 13.3333 10.8334 13.7063 10.8334 14.1666V17.4999C10.8334 17.9602 10.4603 18.3333 10.0001 18.3333C9.53984 18.3333 9.16675 17.9602 9.16675 17.4999V14.1666C9.16675 13.7063 9.53984 13.3333 10.0001 13.3333Z" fill="black"/>
<path fill-rule="evenodd" clip-rule="evenodd" d="M5.83325 17.5001C5.83325 17.0398 6.20635 16.6667 6.66659 16.6667H13.3333C13.7935 16.6667 14.1666 17.0398 14.1666 17.5001C14.1666 17.9603 13.7935 18.3334 13.3333 18.3334H6.66659C6.20635 18.3334 5.83325 17.9603 5.83325 17.5001Z" fill="black"/>
</svg>
