<svg width="20" height="20" viewBox="0 0 20 20" fill="none" xmlns="http://www.w3.org/2000/svg">
<g clip-path="url(#clip0_2001_8499)">
<path fill-rule="evenodd" clip-rule="evenodd" d="M2.89417 3.2342C3.29002 3.0219 3.44747 2.53172 3.24527 2.12734C3.03945 1.71569 2.53889 1.54884 2.12724 1.75466L2.49992 2.50002C2.12724 1.75466 2.1268 1.75488 2.12636 1.75511L2.12545 1.75556C2.12484 1.75587 2.12422 1.75618 2.12358 1.75651C2.12304 1.75678 2.1225 1.75705 2.12194 1.75734C2.12118 1.75773 2.12039 1.75813 2.11959 1.75854C2.11682 1.75995 2.11383 1.7615 2.11063 1.76318C2.10424 1.76653 2.09699 1.77041 2.08896 1.77482C2.0729 1.78366 2.05363 1.79468 2.03163 1.80804C1.9877 1.83472 1.93239 1.87098 1.86971 1.91799C1.74472 2.01173 1.58731 2.15055 1.43253 2.34402C1.11451 2.74155 0.833252 3.33925 0.833252 4.16669V12.5C0.833252 13.1631 1.09664 13.7989 1.56549 14.2678C2.03433 14.7366 2.67021 15 3.33325 15H14.1666C14.6268 15 14.9999 14.6269 14.9999 14.1667C14.9999 13.7064 14.6268 13.3334 14.1666 13.3334H3.33325C3.11224 13.3334 2.90028 13.2456 2.744 13.0893C2.58772 12.933 2.49992 12.721 2.49992 12.5V4.16669C2.49992 3.74412 2.63533 3.50849 2.73398 3.38518C2.78753 3.31824 2.83846 3.27476 2.86971 3.25132C2.88158 3.24242 2.89011 3.23679 2.89417 3.2342Z" fill="black"/>
<path fill-rule="evenodd" clip-rule="evenodd" d="M6.66675 2.50008C6.66675 2.03984 7.03984 1.66675 7.50008 1.66675H16.6667C17.3298 1.66675 17.9657 1.93014 18.4345 2.39898C18.9034 2.86782 19.1667 3.50371 19.1667 4.16675V12.5001C19.1667 12.9603 18.7937 13.3334 18.3334 13.3334C17.8732 13.3334 17.5001 12.9603 17.5001 12.5001V4.16675C17.5001 3.94573 17.4123 3.73377 17.256 3.57749C17.0997 3.42121 16.8878 3.33341 16.6667 3.33341H7.50008C7.03984 3.33341 6.66675 2.96032 6.66675 2.50008Z" fill="black"/>
<path fill-rule="evenodd" clip-rule="evenodd" d="M5.83325 17.5001C5.83325 17.0398 6.20635 16.6667 6.66659 16.6667H13.3333C13.7935 16.6667 14.1666 17.0398 14.1666 17.5001C14.1666 17.9603 13.7935 18.3334 13.3333 18.3334H6.66659C6.20635 18.3334 5.83325 17.9603 5.83325 17.5001Z" fill="black"/>
<path fill-rule="evenodd" clip-rule="evenodd" d="M10.0001 13.3333C10.4603 13.3333 10.8334 13.7063 10.8334 14.1666V17.4999C10.8334 17.9602 10.4603 18.3333 10.0001 18.3333C9.53984 18.3333 9.16675 17.9602 9.16675 17.4999V14.1666C9.16675 13.7063 9.53984 13.3333 10.0001 13.3333Z" fill="black"/>
<path fill-rule="evenodd" clip-rule="evenodd" d="M1.07733 1.07733C1.40277 0.751893 1.9304 0.751893 2.25584 1.07733L18.9225 17.744C19.2479 18.0694 19.2479 18.5971 18.9225 18.9225C18.5971 19.2479 18.0694 19.2479 17.744 18.9225L1.07733 2.25584C0.751893 1.9304 0.751893 1.40277 1.07733 1.07733Z" fill="black"/>
</g>
<defs>
<clipPath id="clip0_2001_8499">
<rect width="20" height="20" fill="white"/>
</clipPath>
</defs>
</svg>
