<svg width="20" height="20" viewBox="0 0 20 20" fill="none" xmlns="http://www.w3.org/2000/svg">
<path fill-rule="evenodd" clip-rule="evenodd" d="M7.32733 5.66083C7.65277 5.33539 8.1804 5.33539 8.50584 5.66083L12.6725 9.82749C12.9979 10.1529 12.9979 10.6806 12.6725 11.006C12.3471 11.3314 11.8194 11.3314 11.494 11.006L7.32733 6.83934C7.00189 6.5139 7.00189 5.98626 7.32733 5.66083Z" fill="black"/>
<path fill-rule="evenodd" clip-rule="evenodd" d="M12.6725 5.66083C12.9979 5.98626 12.9979 6.5139 12.6725 6.83934L8.50584 11.006C8.1804 11.3314 7.65277 11.3314 7.32733 11.006C7.00189 10.6806 7.00189 10.1529 7.32733 9.82749L11.494 5.66083C11.8194 5.33539 12.3471 5.33539 12.6725 5.66083Z" fill="black"/>
<path fill-rule="evenodd" clip-rule="evenodd" d="M3.33325 3.33341C2.87301 3.33341 2.49992 3.70651 2.49992 4.16675V12.5001C2.49992 12.9603 2.87301 13.3334 3.33325 13.3334H16.6666C17.1268 13.3334 17.4999 12.9603 17.4999 12.5001V4.16675C17.4999 3.70651 17.1268 3.33341 16.6666 3.33341H3.33325ZM0.833252 4.16675C0.833252 2.78604 1.95254 1.66675 3.33325 1.66675H16.6666C18.0473 1.66675 19.1666 2.78604 19.1666 4.16675V12.5001C19.1666 13.8808 18.0473 15.0001 16.6666 15.0001H3.33325C1.95254 15.0001 0.833252 13.8808 0.833252 12.5001V4.16675Z" fill="black"/>
<path fill-rule="evenodd" clip-rule="evenodd" d="M10.0001 13.3333C10.4603 13.3333 10.8334 13.7063 10.8334 14.1666V17.4999C10.8334 17.9602 10.4603 18.3333 10.0001 18.3333C9.53984 18.3333 9.16675 17.9602 9.16675 17.4999V14.1666C9.16675 13.7063 9.53984 13.3333 10.0001 13.3333Z" fill="black"/>
<path fill-rule="evenodd" clip-rule="evenodd" d="M5.83325 17.5001C5.83325 17.0398 6.20635 16.6667 6.66659 16.6667H13.3333C13.7935 16.6667 14.1666 17.0398 14.1666 17.5001C14.1666 17.9603 13.7935 18.3334 13.3333 18.3334H6.66659C6.20635 18.3334 5.83325 17.9603 5.83325 17.5001Z" fill="black"/>
</svg>
