<svg width="20" height="20" viewBox="0 0 20 20" fill="none" xmlns="http://www.w3.org/2000/svg">
<path fill-rule="evenodd" clip-rule="evenodd" d="M15.8333 3.33341C14.9129 3.33341 14.1667 4.07961 14.1667 5.00008C14.1667 5.92056 14.9129 6.66675 15.8333 6.66675C16.7538 6.66675 17.5 5.92056 17.5 5.00008C17.5 4.07961 16.7538 3.33341 15.8333 3.33341ZM12.5 5.00008C12.5 3.15913 13.9924 1.66675 15.8333 1.66675C17.6743 1.66675 19.1667 3.15913 19.1667 5.00008C19.1667 6.84103 17.6743 8.33341 15.8333 8.33341C13.9924 8.33341 12.5 6.84103 12.5 5.00008Z" fill="black"/>
<path fill-rule="evenodd" clip-rule="evenodd" d="M3.33325 3.33341C3.11224 3.33341 2.90028 3.42121 2.744 3.57749C2.58772 3.73377 2.49992 3.94573 2.49992 4.16675V12.5001C2.49992 12.7211 2.58772 12.9331 2.744 13.0893C2.90028 13.2456 3.11224 13.3334 3.33325 13.3334H16.6666C16.8876 13.3334 17.0996 13.2456 17.2558 13.0893C17.4121 12.9331 17.4999 12.7211 17.4999 12.5001V10.0001C17.4999 9.53984 17.873 9.16675 18.3333 9.16675C18.7935 9.16675 19.1666 9.53984 19.1666 10.0001V12.5001C19.1666 13.1631 18.9032 13.799 18.4344 14.2678C17.9655 14.7367 17.3296 15.0001 16.6666 15.0001H3.33325C2.67021 15.0001 2.03433 14.7367 1.56549 14.2678C1.09664 13.799 0.833252 13.1631 0.833252 12.5001V4.16675C0.833252 3.50371 1.09664 2.86782 1.56549 2.39898C2.03433 1.93014 2.67021 1.66675 3.33325 1.66675H10.8333C11.2935 1.66675 11.6666 2.03984 11.6666 2.50008C11.6666 2.96032 11.2935 3.33341 10.8333 3.33341H3.33325Z" fill="black"/>
<path fill-rule="evenodd" clip-rule="evenodd" d="M10.0001 13.3333C10.4603 13.3333 10.8334 13.7063 10.8334 14.1666V17.4999C10.8334 17.9602 10.4603 18.3333 10.0001 18.3333C9.53984 18.3333 9.16675 17.9602 9.16675 17.4999V14.1666C9.16675 13.7063 9.53984 13.3333 10.0001 13.3333Z" fill="black"/>
<path fill-rule="evenodd" clip-rule="evenodd" d="M5.83325 17.5001C5.83325 17.0398 6.20635 16.6667 6.66659 16.6667H13.3333C13.7935 16.6667 14.1666 17.0398 14.1666 17.5001C14.1666 17.9603 13.7935 18.3334 13.3333 18.3334H6.66659C6.20635 18.3334 5.83325 17.9603 5.83325 17.5001Z" fill="black"/>
</svg>
