<svg width="20" height="20" viewBox="0 0 20 20" fill="none" xmlns="http://www.w3.org/2000/svg">
<path fill-rule="evenodd" clip-rule="evenodd" d="M1.56549 3.23223C2.03433 2.76339 2.67021 2.5 3.33325 2.5H13.3333C13.9963 2.5 14.6322 2.76339 15.101 3.23223C15.5699 3.70107 15.8333 4.33696 15.8333 5V6.66667C15.8333 7.1269 15.4602 7.5 14.9999 7.5C14.5397 7.5 14.1666 7.1269 14.1666 6.66667V5C14.1666 4.77899 14.0788 4.56702 13.9225 4.41074C13.7662 4.25446 13.5543 4.16667 13.3333 4.16667H3.33325C3.11224 4.16667 2.90028 4.25446 2.744 4.41074C2.58772 4.56702 2.49992 4.77899 2.49992 5V10.8333C2.49992 11.0543 2.58772 11.2663 2.744 11.4226C2.90028 11.5789 3.11224 11.6667 3.33325 11.6667H9.99992C10.4602 11.6667 10.8333 12.0398 10.8333 12.5C10.8333 12.9602 10.4602 13.3333 9.99992 13.3333H3.33325C2.67021 13.3333 2.03433 13.0699 1.56549 12.6011C1.09664 12.1323 0.833252 11.4964 0.833252 10.8333V5C0.833252 4.33696 1.09664 3.70107 1.56549 3.23223Z" fill="black"/>
<path fill-rule="evenodd" clip-rule="evenodd" d="M8.33333 11.7C8.79357 11.7 9.16667 12.073 9.16667 12.5333V15.8333C9.16667 16.2935 8.79357 16.6666 8.33333 16.6666C7.8731 16.6666 7.5 16.2935 7.5 15.8333V12.5333C7.5 12.073 7.8731 11.7 8.33333 11.7Z" fill="black"/>
<path fill-rule="evenodd" clip-rule="evenodd" d="M5 15.8333C5 15.3731 5.3731 15 5.83333 15H10C10.4602 15 10.8333 15.3731 10.8333 15.8333C10.8333 16.2936 10.4602 16.6667 10 16.6667H5.83333C5.3731 16.6667 5 16.2936 5 15.8333Z" fill="black"/>
<path fill-rule="evenodd" clip-rule="evenodd" d="M15 10.8334C14.5398 10.8334 14.1667 11.2065 14.1667 11.6667V16.6667C14.1667 17.127 14.5398 17.5001 15 17.5001H16.6667C17.1269 17.5001 17.5 17.127 17.5 16.6667V11.6667C17.5 11.2065 17.1269 10.8334 16.6667 10.8334H15ZM12.5 11.6667C12.5 10.286 13.6193 9.16675 15 9.16675H16.6667C18.0474 9.16675 19.1667 10.286 19.1667 11.6667V16.6667C19.1667 18.0475 18.0474 19.1667 16.6667 19.1667H15C13.6193 19.1667 12.5 18.0475 12.5 16.6667V11.6667Z" fill="black"/>
</svg>
