<svg width="20" height="20" viewBox="0 0 20 20" fill="none" xmlns="http://www.w3.org/2000/svg">
<path fill-rule="evenodd" clip-rule="evenodd" d="M3.75 16.6666C3.75 16.2063 4.1231 15.8333 4.58333 15.8333H6.66667C7.1269 15.8333 7.5 16.2063 7.5 16.6666C7.5 17.1268 7.1269 17.4999 6.66667 17.4999H4.58333C4.1231 17.4999 3.75 17.1268 3.75 16.6666Z" fill="black"/>
<path fill-rule="evenodd" clip-rule="evenodd" d="M13.3333 7.50008C13.3333 7.03984 13.7063 6.66675 14.1666 6.66675H14.1749C14.6352 6.66675 15.0083 7.03984 15.0083 7.50008C15.0083 7.96032 14.6352 8.33341 14.1749 8.33341H14.1666C13.7063 8.33341 13.3333 7.96032 13.3333 7.50008Z" fill="black"/>
<path fill-rule="evenodd" clip-rule="evenodd" d="M11.6667 4.16667C11.2065 4.16667 10.8334 4.53976 10.8334 5V15C10.8334 15.4602 11.2065 15.8333 11.6667 15.8333H16.6667C17.127 15.8333 17.5001 15.4602 17.5001 15V5C17.5001 4.53976 17.127 4.16667 16.6667 4.16667H11.6667ZM9.16675 5C9.16675 3.61929 10.286 2.5 11.6667 2.5H16.6667C18.0475 2.5 19.1667 3.61929 19.1667 5V15C19.1667 16.3807 18.0475 17.5 16.6667 17.5H11.6667C10.286 17.5 9.16675 16.3807 9.16675 15V5Z" fill="black"/>
<path fill-rule="evenodd" clip-rule="evenodd" d="M1.56548 4.89898C2.03433 4.43014 2.67021 4.16675 3.33325 4.16675H6.66658C7.12682 4.16675 7.49992 4.53984 7.49992 5.00008C7.49992 5.46032 7.12682 5.83341 6.66658 5.83341H3.33325C3.11224 5.83341 2.90028 5.92121 2.744 6.07749C2.58772 6.23377 2.49992 6.44573 2.49992 6.66675V11.6667C2.49992 11.8878 2.58772 12.0997 2.744 12.256C2.90028 12.4123 3.11224 12.5001 3.33325 12.5001H6.66658C7.12682 12.5001 7.49992 12.8732 7.49992 13.3334C7.49992 13.7937 7.12682 14.1667 6.66658 14.1667H3.33325C2.67021 14.1667 2.03433 13.9034 1.56548 13.4345C1.09664 12.9657 0.833252 12.3298 0.833252 11.6667V6.66675C0.833252 6.00371 1.09664 5.36782 1.56548 4.89898Z" fill="black"/>
<path fill-rule="evenodd" clip-rule="evenodd" d="M12.5 12.4999C12.5 11.5794 13.2462 10.8333 14.1667 10.8333C15.0871 10.8333 15.8333 11.5794 15.8333 12.4999C15.8333 13.4204 15.0871 14.1666 14.1667 14.1666C13.2462 14.1666 12.5 13.4204 12.5 12.4999Z" fill="black"/>
</svg>
