<svg width="20" height="20" viewBox="0 0 20 20" fill="none" xmlns="http://www.w3.org/2000/svg">
<path fill-rule="evenodd" clip-rule="evenodd" d="M10.0001 13.3333C10.4603 13.3333 10.8334 13.7063 10.8334 14.1666V17.4999C10.8334 17.9602 10.4603 18.3333 10.0001 18.3333C9.53984 18.3333 9.16675 17.9602 9.16675 17.4999V14.1666C9.16675 13.7063 9.53984 13.3333 10.0001 13.3333Z" fill="black"/>
<path fill-rule="evenodd" clip-rule="evenodd" d="M11.1553 3.4116C11.3422 2.99103 11.8347 2.80162 12.2552 2.98854L13.0052 3.32187C13.4258 3.50879 13.6152 4.00126 13.4283 4.42183C13.2414 4.8424 12.7489 5.03181 12.3283 4.84489L11.5783 4.51155C11.1578 4.32463 10.9684 3.83217 11.1553 3.4116Z" fill="black"/>
<path fill-rule="evenodd" clip-rule="evenodd" d="M13.4283 5.5781C13.6152 5.99867 13.4258 6.49114 13.0052 6.67806L12.2552 7.01139C11.8347 7.19831 11.3422 7.0089 11.1553 6.58833C10.9684 6.16776 11.1578 5.67529 11.5783 5.48837L12.3283 5.15504C12.7489 4.96812 13.2414 5.15753 13.4283 5.5781Z" fill="black"/>
<path fill-rule="evenodd" clip-rule="evenodd" d="M13.4116 1.15504C13.8322 0.968119 14.3246 1.15753 14.5116 1.5781L14.8449 2.3281C15.0318 2.74867 14.8424 3.24114 14.4218 3.42806C14.0013 3.61498 13.5088 3.42557 13.3219 3.005L12.9885 2.255C12.8016 1.83443 12.991 1.34196 13.4116 1.15504Z" fill="black"/>
<path fill-rule="evenodd" clip-rule="evenodd" d="M14.4218 6.57179C14.8424 6.75871 15.0318 7.25118 14.8449 7.67175L14.5116 8.42175C14.3246 8.84232 13.8322 9.03173 13.4116 8.84481C12.991 8.65789 12.8016 8.16542 12.9885 7.74485L13.3219 6.99485C13.5088 6.57428 14.0013 6.38487 14.4218 6.57179Z" fill="black"/>
<path fill-rule="evenodd" clip-rule="evenodd" d="M16.5886 1.15504C17.0091 1.34196 17.1986 1.83443 17.0116 2.255L16.6783 3.005C16.4914 3.42557 15.9989 3.61498 15.5783 3.42806C15.1578 3.24114 14.9684 2.74867 15.1553 2.3281L15.4886 1.5781C15.6755 1.15753 16.168 0.968119 16.5886 1.15504Z" fill="black"/>
<path fill-rule="evenodd" clip-rule="evenodd" d="M15.5783 6.57179C15.9989 6.38487 16.4914 6.57428 16.6783 6.99485L17.0116 7.74485C17.1986 8.16542 17.0091 8.65789 16.5886 8.84481C16.168 9.03173 15.6755 8.84232 15.4886 8.42175L15.1553 7.67175C14.9684 7.25118 15.1578 6.75871 15.5783 6.57179Z" fill="black"/>
<path fill-rule="evenodd" clip-rule="evenodd" d="M18.8448 3.4116C19.0317 3.83217 18.8423 4.32464 18.4217 4.51155L17.6717 4.84489C17.2512 5.03181 16.7587 4.8424 16.5718 4.42183C16.3849 4.00126 16.5743 3.50879 16.9948 3.32187L17.7449 2.98854C18.1654 2.80162 18.6579 2.99103 18.8448 3.4116Z" fill="black"/>
<path fill-rule="evenodd" clip-rule="evenodd" d="M16.5718 5.5781C16.7587 5.15753 17.2512 4.96812 17.6717 5.15504L18.4217 5.48837C18.8423 5.67529 19.0317 6.16776 18.8448 6.58833C18.6579 7.0089 18.1654 7.19831 17.7449 7.01139L16.9948 6.67806C16.5743 6.49114 16.3849 5.99867 16.5718 5.5781Z" fill="black"/>
<path fill-rule="evenodd" clip-rule="evenodd" d="M3.33325 3.33341C3.11224 3.33341 2.90028 3.42121 2.744 3.57749C2.58772 3.73377 2.49992 3.94573 2.49992 4.16675V12.5001C2.49992 12.7211 2.58772 12.9331 2.744 13.0893C2.90028 13.2456 3.11224 13.3334 3.33325 13.3334H16.6666C16.8876 13.3334 17.0996 13.2456 17.2558 13.0893C17.4121 12.9331 17.4999 12.7211 17.4999 12.5001V10.8334C17.4999 10.3732 17.873 10.0001 18.3333 10.0001C18.7935 10.0001 19.1666 10.3732 19.1666 10.8334V12.5001C19.1666 13.1631 18.9032 13.799 18.4344 14.2678C17.9655 14.7367 17.3296 15.0001 16.6666 15.0001H3.33325C2.67021 15.0001 2.03433 14.7367 1.56549 14.2678C1.09664 13.799 0.833252 13.1631 0.833252 12.5001V4.16675C0.833252 3.50371 1.09664 2.86782 1.56549 2.39898C2.03433 1.93014 2.67021 1.66675 3.33325 1.66675H9.16659C9.62682 1.66675 9.99992 2.03984 9.99992 2.50008C9.99992 2.96032 9.62682 3.33341 9.16659 3.33341H3.33325Z" fill="black"/>
<path fill-rule="evenodd" clip-rule="evenodd" d="M5.83325 17.5001C5.83325 17.0398 6.20635 16.6667 6.66659 16.6667H13.3333C13.7935 16.6667 14.1666 17.0398 14.1666 17.5001C14.1666 17.9603 13.7935 18.3334 13.3333 18.3334H6.66659C6.20635 18.3334 5.83325 17.9603 5.83325 17.5001Z" fill="black"/>
<path fill-rule="evenodd" clip-rule="evenodd" d="M15.0001 3.33341C14.0796 3.33341 13.3334 4.07961 13.3334 5.00008C13.3334 5.92056 14.0796 6.66675 15.0001 6.66675C15.9206 6.66675 16.6667 5.92056 16.6667 5.00008C16.6667 4.07961 15.9206 3.33341 15.0001 3.33341ZM11.6667 5.00008C11.6667 3.15913 13.1591 1.66675 15.0001 1.66675C16.841 1.66675 18.3334 3.15913 18.3334 5.00008C18.3334 6.84103 16.841 8.33341 15.0001 8.33341C13.1591 8.33341 11.6667 6.84103 11.6667 5.00008Z" fill="black"/>
</svg>
