<svg width="20" height="20" viewBox="0 0 20 20" fill="none" xmlns="http://www.w3.org/2000/svg">
<path fill-rule="evenodd" clip-rule="evenodd" d="M8.22806 3.57324C7.54469 3.76166 6.89205 4.05887 6.29628 4.45695C5.19996 5.18949 4.34547 6.23068 3.84089 7.44886C3.3363 8.66703 3.20428 10.0075 3.46152 11.3007C3.71875 12.5939 4.35369 13.7818 5.28604 14.7141C6.21839 15.6465 7.40628 16.2814 8.69948 16.5387C9.99269 16.7959 11.3331 16.6639 12.5513 16.1593C13.7695 15.6547 14.8107 14.8002 15.5432 13.7039C15.9413 13.1081 16.2385 12.4555 16.4269 11.7721C15.6003 12.1728 14.6862 12.3867 13.7501 12.3867C12.1225 12.3867 10.5617 11.7402 9.41083 10.5893C8.25999 9.4385 7.61345 7.87762 7.61345 6.25008C7.61345 5.31397 7.82734 4.39991 8.22806 3.57324ZM5.37033 3.07117C6.74074 2.15549 8.35191 1.66675 10.0001 1.66675C10.3371 1.66675 10.641 1.86978 10.77 2.18118C10.899 2.49257 10.8277 2.85101 10.5893 3.08934C9.75106 3.92762 9.28012 5.06457 9.28012 6.25008C9.28012 7.43559 9.75106 8.57254 10.5893 9.41083C11.4276 10.2491 12.5646 10.72 13.7501 10.72C14.9356 10.72 16.0725 10.2491 16.9108 9.41083C17.1492 9.17249 17.5076 9.1012 17.819 9.23018C18.1304 9.35917 18.3334 9.66303 18.3334 10.0001C18.3334 11.6483 17.8447 13.2594 16.929 14.6298C16.0133 16.0002 14.7118 17.0683 13.1891 17.6991C11.6664 18.3298 9.99084 18.4948 8.37433 18.1733C6.75782 17.8517 5.27297 17.0581 4.10753 15.8926C2.94209 14.7272 2.14842 13.2423 1.82687 11.6258C1.50533 10.0093 1.67036 8.33377 2.30109 6.81105C2.93182 5.28834 3.99992 3.98685 5.37033 3.07117Z" fill="black"/>
<path fill-rule="evenodd" clip-rule="evenodd" d="M16.6666 1.66675C17.1268 1.66675 17.4999 2.03984 17.4999 2.50008V5.83342C17.4999 6.29365 17.1268 6.66675 16.6666 6.66675C16.2063 6.66675 15.8333 6.29365 15.8333 5.83342V2.50008C15.8333 2.03984 16.2063 1.66675 16.6666 1.66675Z" fill="black"/>
<path fill-rule="evenodd" clip-rule="evenodd" d="M14.1667 4.16659C14.1667 3.70635 14.5398 3.33325 15.0001 3.33325H18.3334C18.7937 3.33325 19.1667 3.70635 19.1667 4.16659C19.1667 4.62682 18.7937 4.99992 18.3334 4.99992H15.0001C14.5398 4.99992 14.1667 4.62682 14.1667 4.16659Z" fill="black"/>
</svg>
