<svg width="20" height="20" viewBox="0 0 20 20" fill="none" xmlns="http://www.w3.org/2000/svg">
<path fill-rule="evenodd" clip-rule="evenodd" d="M6.60752 1.66885C6.94372 1.64496 7.26121 1.82595 7.41195 2.12741L10.2282 7.75995L13.5773 4.41084C13.7816 4.20661 14.077 4.12269 14.3581 4.18905C14.6391 4.25541 14.8658 4.46257 14.9572 4.73657L19.1238 17.2366C19.2085 17.4907 19.1659 17.77 19.0093 17.9873C18.8527 18.2047 18.6011 18.3334 18.3333 18.3334H1.66659C1.39872 18.3334 1.14718 18.2047 0.990556 17.9873C0.83393 17.77 0.791314 17.4907 0.876022 17.2366L5.87602 2.23657C5.98261 1.91681 6.27131 1.69275 6.60752 1.66885ZM6.82096 4.67222L2.82278 16.6668H17.1771L13.8024 6.54278L10.5892 9.75601C10.3998 9.94543 10.1308 10.0322 9.86644 9.98933C9.60203 9.94642 9.37436 9.77903 9.25457 9.53944L6.82096 4.67222Z" fill="black"/>
</svg>
