<svg width="20" height="20" viewBox="0 0 20 20" fill="none" xmlns="http://www.w3.org/2000/svg">
<path fill-rule="evenodd" clip-rule="evenodd" d="M6.60752 1.66885C6.94372 1.64496 7.26121 1.82595 7.41195 2.12741L10.2282 7.75995L13.5773 4.41084C13.7816 4.20661 14.077 4.12269 14.3581 4.18905C14.6391 4.25541 14.8658 4.46257 14.9572 4.73657L19.1238 17.2366C19.2085 17.4907 19.1659 17.77 19.0093 17.9873C18.8527 18.2047 18.6011 18.3334 18.3333 18.3334H1.66659C1.39872 18.3334 1.14718 18.2047 0.990556 17.9873C0.83393 17.77 0.791314 17.4907 0.876022 17.2366L5.87602 2.23657C5.98261 1.91681 6.27131 1.69275 6.60752 1.66885ZM6.82096 4.67222L2.82278 16.6668H17.1771L13.8024 6.54278L10.5892 9.75601C10.3998 9.94543 10.1308 10.0322 9.86644 9.98933C9.60203 9.94642 9.37436 9.77903 9.25457 9.53944L6.82096 4.67222Z" fill="black"/>
<path fill-rule="evenodd" clip-rule="evenodd" d="M6.68045 12.5052C5.78042 12.4571 4.8515 12.6984 3.87826 13.2816C3.48348 13.5182 2.97167 13.3899 2.7351 12.9951C2.49853 12.6003 2.62679 12.0885 3.02157 11.852C4.23166 11.1268 5.48607 10.7723 6.76938 10.8409C8.04945 10.9093 9.28929 11.3949 10.4806 12.236L10.4815 12.2367C11.5177 12.9704 12.5037 13.3132 13.4481 13.3347C14.3909 13.3562 15.3705 13.0591 16.3989 12.3798C16.7829 12.1261 17.2999 12.2318 17.5536 12.6158C17.8072 12.9998 17.7016 13.5168 17.3176 13.7704C16.0626 14.5994 14.7547 15.0316 13.4101 15.0009C12.0671 14.9704 10.7656 14.4799 9.51867 13.5971C8.52684 12.8969 7.58354 12.5534 6.68045 12.5052Z" fill="black"/>
</svg>
