<svg width="20" height="20" viewBox="0 0 20 20" fill="none" xmlns="http://www.w3.org/2000/svg">
<g clip-path="url(#clip0_2001_8559)">
<path fill-rule="evenodd" clip-rule="evenodd" d="M10.0001 4.16675C10.4603 4.16675 10.8334 4.53984 10.8334 5.00008V5.28591C10.8334 5.74615 10.4603 6.11925 10.0001 6.11925C9.53984 6.11925 9.16675 5.74615 9.16675 5.28591V5.00008C9.16675 4.53984 9.53984 4.16675 10.0001 4.16675Z" fill="black"/>
<path fill-rule="evenodd" clip-rule="evenodd" d="M5.201 4.07813C5.60982 4.28952 5.76987 4.79229 5.55849 5.20111C5.19113 5.9116 4.99958 6.69985 4.99992 7.49968V12.5004C4.99944 13.6211 5.37551 14.7095 6.06775 15.5909C6.75999 16.4722 7.72827 17.0955 8.81718 17.3606C9.9061 17.6257 11.0525 17.5173 12.0724 17.0527C13.0923 16.5882 13.9266 15.7945 14.4413 14.799C14.6527 14.3901 15.1555 14.2301 15.5643 14.4415C15.9732 14.6528 16.1332 15.1556 15.9218 15.5644C15.2355 16.8918 14.1231 17.9501 12.7633 18.5695C11.4034 19.1889 9.87483 19.3334 8.42294 18.98C6.97105 18.6265 5.68001 17.7955 4.75702 16.6203C3.83411 15.4453 3.3327 13.9942 3.33325 12.5C3.33325 12.5 3.33325 12.4999 3.33325 12.4998C3.33325 12.4998 3.33325 12.4997 3.33325 12.4997V7.50039C3.33325 7.50034 3.33325 7.50029 3.33325 7.50023C3.33325 7.50017 3.33325 7.5001 3.33325 7.50004C3.33286 6.43371 3.58826 5.38284 4.07801 4.43563C4.2894 4.02681 4.79217 3.86675 5.201 4.07813Z" fill="black"/>
<path fill-rule="evenodd" clip-rule="evenodd" d="M6.72376 1.69258C7.7382 1.12017 8.88491 0.823529 10.0497 0.832217C11.2144 0.840904 12.3566 1.15461 13.3624 1.74209C14.3682 2.32957 15.2025 3.17032 15.7822 4.1806C16.3619 5.19081 16.6668 6.33528 16.6666 7.50001C16.6666 7.50007 16.6666 7.50013 16.6666 7.5002V11.1192C16.6666 11.5794 16.2935 11.9525 15.8333 11.9525C15.373 11.9525 15 11.5794 15 11.1192V7.49982C15.0001 6.62623 14.7715 5.76783 14.3367 5.01012C13.9019 4.25242 13.2761 3.62185 12.5218 3.18124C11.7674 2.74063 10.9108 2.50535 10.0372 2.49884C9.16367 2.49232 8.30364 2.7148 7.54281 3.14411C7.14198 3.37028 6.63369 3.2287 6.40752 2.82787C6.18135 2.42704 6.32293 1.91875 6.72376 1.69258Z" fill="black"/>
<path fill-rule="evenodd" clip-rule="evenodd" d="M1.07733 1.07733C1.40277 0.751893 1.9304 0.751893 2.25584 1.07733L18.9225 17.744C19.2479 18.0694 19.2479 18.5971 18.9225 18.9225C18.5971 19.2479 18.0694 19.2479 17.744 18.9225L1.07733 2.25584C0.751893 1.9304 0.751893 1.40277 1.07733 1.07733Z" fill="black"/>
</g>
<defs>
<clipPath id="clip0_2001_8559">
<rect width="20" height="20" fill="white"/>
</clipPath>
</defs>
</svg>
