<svg width="20" height="20" viewBox="0 0 20 20" fill="none" xmlns="http://www.w3.org/2000/svg">
<path fill-rule="evenodd" clip-rule="evenodd" d="M4.50789 4.50789L9.07803 15.7575L10.0792 11.8733C10.1913 11.441 10.4171 11.0467 10.7332 10.7312C11.0493 10.4159 11.444 10.1909 11.8764 10.0796C11.8765 10.0796 11.8766 10.0796 11.8767 10.0796L15.7579 9.07821L4.50789 4.50789ZM4.2268 2.59475C4.00051 2.4993 3.75095 2.47284 3.50951 2.51884C3.26408 2.56559 3.03839 2.68506 2.86172 2.86172C2.68506 3.03839 2.56559 3.26408 2.51884 3.50951C2.47284 3.75095 2.4993 4.00051 2.59475 4.2268L8.00909 17.5544C8.10818 17.7976 8.28136 18.0035 8.50405 18.1427C8.72674 18.2819 8.98763 18.3475 9.24968 18.33C9.51173 18.3126 9.76163 18.2131 9.96392 18.0456C10.1662 17.8781 10.3106 17.6511 10.3766 17.3969L11.6925 12.2917C11.6925 12.2916 11.6925 12.2916 11.6925 12.2915C11.7299 12.1475 11.8052 12.0161 11.9105 11.911C12.0159 11.8058 12.1475 11.7308 12.2917 11.6938L12.2923 11.6936L17.3969 10.3766C17.6511 10.3106 17.8781 10.1662 18.0456 9.96392C18.2131 9.76163 18.3126 9.51173 18.33 9.24968C18.3475 8.98763 18.2819 8.72674 18.1427 8.50405C18.0035 8.28136 17.7976 8.10818 17.5544 8.00909L4.2268 2.59475Z" fill="black"/>
</svg>
