<svg width="20" height="20" viewBox="0 0 20 20" fill="none" xmlns="http://www.w3.org/2000/svg">
<path fill-rule="evenodd" clip-rule="evenodd" d="M12.2709 2.84263C12.5879 3.1763 12.5744 3.70376 12.2407 4.02075L10.574 5.60409C10.2404 5.92108 9.71291 5.90755 9.39592 5.57388C9.07893 5.24021 9.09245 4.71274 9.42613 4.39575L11.0928 2.81242C11.4265 2.49543 11.9539 2.50896 12.2709 2.84263Z" fill="black"/>
<path fill-rule="evenodd" clip-rule="evenodd" d="M1.02997 5.77844C1.15236 5.33477 1.61124 5.07433 2.05491 5.19672L4.47157 5.86339C4.91524 5.98578 5.17568 6.44466 5.05329 6.88832C4.9309 7.33199 4.47202 7.59243 4.02836 7.47004L1.61169 6.80338C1.16803 6.68098 0.907582 6.22211 1.02997 5.77844Z" fill="black"/>
<path fill-rule="evenodd" clip-rule="evenodd" d="M5.57388 9.39592C5.90755 9.71291 5.92108 10.2404 5.60409 10.574L4.02075 12.2407C3.70376 12.5744 3.1763 12.5879 2.84263 12.2709C2.50896 11.9539 2.49543 11.4265 2.81242 11.0928L4.39575 9.42613C4.71274 9.09245 5.24021 9.07893 5.57388 9.39592Z" fill="black"/>
<path fill-rule="evenodd" clip-rule="evenodd" d="M5.77844 1.02997C6.22211 0.907582 6.68098 1.16803 6.80338 1.61169L7.47004 4.02836C7.59243 4.47202 7.33199 4.9309 6.88832 5.05329C6.44466 5.17568 5.98578 4.91524 5.86339 4.47157L5.19672 2.05491C5.07433 1.61124 5.33477 1.15236 5.77844 1.02997Z" fill="black"/>
<path fill-rule="evenodd" clip-rule="evenodd" d="M8.67785 8.67785L11.5626 15.7294L12.1289 13.3603C12.2008 13.0612 12.3541 12.7878 12.5718 12.5704C12.7894 12.353 13.0631 12.2002 13.3623 12.1287L15.7286 11.5623L8.67785 8.67785ZM8.39427 6.7611C8.16699 6.66611 7.91662 6.64046 7.6747 6.68748C7.43052 6.73495 7.20608 6.85428 7.03018 7.03018C6.85428 7.20608 6.73495 7.43052 6.68748 7.6747C6.64046 7.91662 6.66611 8.16699 6.7611 8.39427L10.5088 17.5554C10.509 17.5559 10.5092 17.5563 10.5094 17.5568C10.6093 17.8019 10.7845 18.009 11.0098 18.1482C11.2354 18.2876 11.4995 18.3517 11.764 18.3311C12.0284 18.3105 12.2795 18.2063 12.4808 18.0336C12.6815 17.8614 12.8225 17.6299 12.8834 17.3725C12.8835 17.3718 12.8837 17.3711 12.8838 17.3704L13.7495 13.7497L17.373 12.8824C17.3732 12.8824 17.3734 12.8823 17.3736 12.8823C17.6307 12.8209 17.8618 12.6797 18.0336 12.4788C18.2055 12.2777 18.3092 12.0273 18.3298 11.7635C18.3504 11.4998 18.2867 11.2363 18.148 11.0111C18.0093 10.7858 17.8028 10.6103 17.558 10.5099L8.39427 6.7611Z" fill="black"/>
</svg>
