<svg width="20" height="20" viewBox="0 0 20 20" fill="none" xmlns="http://www.w3.org/2000/svg">
<path fill-rule="evenodd" clip-rule="evenodd" d="M9.89911 9.89911C10.2245 9.57367 10.7522 9.57367 11.0776 9.89911L16.4226 15.2441C16.7481 15.5695 16.7481 16.0972 16.4226 16.4226C16.0972 16.7481 15.5695 16.7481 15.2441 16.4226L9.89911 11.0776C9.57367 10.7522 9.57367 10.2245 9.89911 9.89911Z" fill="black"/>
<path fill-rule="evenodd" clip-rule="evenodd" d="M3.39069 1.76031L16.7211 7.1758C16.9643 7.27489 17.1702 7.44807 17.3094 7.67076C17.4486 7.89346 17.5142 8.15434 17.4967 8.41639C17.4793 8.67845 17.3798 8.92835 17.2123 9.13063C17.0448 9.33291 16.8178 9.4773 16.5636 9.5433L11.4588 10.8595C11.3115 10.8975 11.1775 10.9749 11.0712 11.0835C10.9648 11.1922 10.8902 11.3278 10.8554 11.4758C10.8541 11.4816 10.8526 11.4874 10.8511 11.4932L9.54364 16.5623C9.54303 16.5647 9.5424 16.5671 9.54177 16.5694C9.47423 16.8221 9.32922 17.0472 9.12713 17.2131C8.92504 17.379 8.67602 17.4775 8.4151 17.4945C8.15417 17.5116 7.89445 17.4465 7.67244 17.3083C7.45044 17.1702 7.27732 16.9659 7.17742 16.7242C7.17678 16.7227 7.17613 16.7211 7.1755 16.7195L1.76031 3.39069C1.66616 3.1638 1.64106 2.9141 1.68827 2.67292C1.73591 2.4295 1.85504 2.20581 2.03042 2.03042C2.20581 1.85504 2.4295 1.73591 2.67292 1.68827C2.9141 1.64106 3.1638 1.66616 3.39069 1.76031ZM3.67463 3.67461L8.24499 14.924L9.23528 11.0847C9.34062 10.6445 9.56351 10.2411 9.88025 9.91758C10.1992 9.59176 10.6013 9.35938 11.0428 9.2456C11.0429 9.24559 11.0429 9.24557 11.043 9.24556L14.9243 8.2448L3.67463 3.67461Z" fill="black"/>
</svg>
