<svg width="20" height="20" viewBox="0 0 20 20" fill="none" xmlns="http://www.w3.org/2000/svg">
<path fill-rule="evenodd" clip-rule="evenodd" d="M9.99992 2.49992C7.23849 2.49992 4.99992 4.7385 4.99992 7.49992V12.4999C4.99992 15.2613 7.23849 17.4999 9.99992 17.4999C12.7613 17.4999 14.9999 15.2613 14.9999 12.4999V7.49992C14.9999 4.7385 12.7613 2.49992 9.99992 2.49992ZM3.33325 7.49992C3.33325 3.81802 6.31802 0.833252 9.99992 0.833252C13.6818 0.833252 16.6666 3.81802 16.6666 7.49992V12.4999C16.6666 16.1818 13.6818 19.1666 9.99992 19.1666C6.31802 19.1666 3.33325 16.1818 3.33325 12.4999V7.49992Z" fill="black"/>
<path fill-rule="evenodd" clip-rule="evenodd" d="M10.0001 4.16675C10.4603 4.16675 10.8334 4.53984 10.8334 5.00008V8.33342C10.8334 8.79365 10.4603 9.16675 10.0001 9.16675C9.53984 9.16675 9.16675 8.79365 9.16675 8.33342V5.00008C9.16675 4.53984 9.53984 4.16675 10.0001 4.16675Z" fill="black"/>
</svg>
