<svg width="20" height="20" viewBox="0 0 20 20" fill="none" xmlns="http://www.w3.org/2000/svg">
<g clip-path="url(#clip0_2001_8566)">
<path fill-rule="evenodd" clip-rule="evenodd" d="M2.81506 2.81504L4.95559 8.31925L5.49056 6.59137C5.4906 6.59126 5.49063 6.59116 5.49066 6.59105C5.65204 6.06947 6.06854 5.65294 6.5901 5.49151C6.59025 5.49147 6.59041 5.49142 6.59056 5.49137L8.3196 4.95569L2.81506 2.81504ZM2.53878 0.919334C1.50723 0.51185 0.533387 1.56073 0.919323 2.53866L3.8346 10.0351C3.83469 10.0353 3.83477 10.0355 3.83485 10.0357C4.25017 11.1067 5.8549 11.0508 6.19443 9.95316C6.19449 9.95297 6.19455 9.95278 6.1946 9.9526L7.08182 7.08703C7.0819 7.08693 7.08198 7.08682 7.08207 7.08671C7.08231 7.0864 7.08258 7.08607 7.08289 7.08573C7.0832 7.08538 7.08353 7.08503 7.08388 7.08468C7.08422 7.08434 7.08457 7.08401 7.08492 7.0837C7.08527 7.08339 7.08559 7.08312 7.0859 7.08288C7.08601 7.08279 7.08612 7.08271 7.08622 7.08263L9.95262 6.19458C9.95278 6.19453 9.95294 6.19448 9.95309 6.19443C9.95317 6.19441 9.95325 6.19438 9.95333 6.19436C11.0509 5.85472 11.1067 4.25012 10.0358 3.83482C10.0355 3.83474 10.0353 3.83466 10.0351 3.83458L2.53878 0.919334ZM7.08124 7.08786C7.08118 7.08797 7.08116 7.08799 7.08121 7.08791L7.08124 7.08786Z" fill="black"/>
<path d="M13.3333 18.3333C16.0947 18.3333 18.3333 16.0947 18.3333 13.3333C18.3333 10.5718 16.0947 8.33325 13.3333 8.33325C10.5718 8.33325 8.33325 10.5718 8.33325 13.3333C8.33325 16.0947 10.5718 18.3333 13.3333 18.3333Z" stroke="black" stroke-width="2" stroke-linecap="round" stroke-linejoin="round"/>
<path d="M9.83325 9.8335L16.8333 16.8335" stroke="black" stroke-width="2" stroke-linecap="round" stroke-linejoin="round"/>
</g>
<defs>
<clipPath id="clip0_2001_8566">
<rect width="20" height="20" fill="white"/>
</clipPath>
</defs>
</svg>
