<svg width="20" height="20" viewBox="0 0 20 20" fill="none" xmlns="http://www.w3.org/2000/svg">
<path fill-rule="evenodd" clip-rule="evenodd" d="M10 4.16659C10 3.70635 10.3731 3.33325 10.8333 3.33325H15.8333C16.2936 3.33325 16.6667 3.70635 16.6667 4.16659V9.16658C16.6667 9.62682 16.2936 9.99992 15.8333 9.99992C15.3731 9.99992 15 9.62682 15 9.16658V4.99992H10.8333C10.3731 4.99992 10 4.62682 10 4.16659Z" fill="black"/>
<path fill-rule="evenodd" clip-rule="evenodd" d="M16.4225 3.57733C16.7479 3.90277 16.7479 4.4304 16.4225 4.75584L4.75584 16.4225C4.4304 16.7479 3.90277 16.7479 3.57733 16.4225C3.25189 16.0971 3.25189 15.5694 3.57733 15.244L15.244 3.57733C15.5694 3.25189 16.0971 3.25189 16.4225 3.57733Z" fill="black"/>
</svg>
