<svg width="20" height="20" viewBox="0 0 20 20" fill="none" xmlns="http://www.w3.org/2000/svg">
<path fill-rule="evenodd" clip-rule="evenodd" d="M15.8333 10C16.2936 10 16.6667 10.3731 16.6667 10.8333V15.8333C16.6667 16.2936 16.2936 16.6667 15.8333 16.6667H10.8333C10.3731 16.6667 10 16.2936 10 15.8333C10 15.3731 10.3731 15 10.8333 15H15V10.8333C15 10.3731 15.3731 10 15.8333 10Z" fill="black"/>
<path fill-rule="evenodd" clip-rule="evenodd" d="M3.57733 3.57733C3.90277 3.25189 4.4304 3.25189 4.75584 3.57733L16.4225 15.244C16.7479 15.5694 16.7479 16.0971 16.4225 16.4225C16.0971 16.7479 15.5694 16.7479 15.244 16.4225L3.57733 4.75584C3.25189 4.4304 3.25189 3.90277 3.57733 3.57733Z" fill="black"/>
</svg>
