<svg width="20" height="20" viewBox="0 0 20 20" fill="none" xmlns="http://www.w3.org/2000/svg">
<path fill-rule="evenodd" clip-rule="evenodd" d="M4.16659 1.66675C4.62682 1.66675 4.99992 2.03984 4.99992 2.50008V15.0001H17.4999C17.9602 15.0001 18.3333 15.3732 18.3333 15.8334C18.3333 16.2937 17.9602 16.6667 17.4999 16.6667H4.16659C3.70635 16.6667 3.33325 16.2937 3.33325 15.8334V2.50008C3.33325 2.03984 3.70635 1.66675 4.16659 1.66675Z" fill="black"/>
<path fill-rule="evenodd" clip-rule="evenodd" d="M9.75584 10.2441C10.0813 10.5695 10.0813 11.0972 9.75584 11.4226L4.75584 16.4226C4.4304 16.748 3.90277 16.748 3.57733 16.4226C3.25189 16.0972 3.25189 15.5695 3.57733 15.2441L8.57733 10.2441C8.90277 9.91864 9.4304 9.91864 9.75584 10.2441Z" fill="black"/>
<path fill-rule="evenodd" clip-rule="evenodd" d="M3.57733 1.91083C3.90277 1.58539 4.4304 1.58539 4.75584 1.91083L7.25584 4.41083C7.58128 4.73626 7.58128 5.2639 7.25584 5.58934C6.9304 5.91477 6.40277 5.91477 6.07733 5.58934L4.16658 3.67859L2.25584 5.58934C1.9304 5.91477 1.40277 5.91477 1.07733 5.58934C0.751893 5.2639 0.751893 4.73626 1.07733 4.41083L3.57733 1.91083Z" fill="black"/>
<path fill-rule="evenodd" clip-rule="evenodd" d="M14.4108 12.7441C14.7363 12.4186 15.2639 12.4186 15.5893 12.7441L18.0893 15.2441C18.4148 15.5695 18.4148 16.0972 18.0893 16.4226L15.5893 18.9226C15.2639 19.248 14.7363 19.248 14.4108 18.9226C14.0854 18.5972 14.0854 18.0695 14.4108 17.7441L16.3216 15.8333L14.4108 13.9226C14.0854 13.5972 14.0854 13.0695 14.4108 12.7441Z" fill="black"/>
</svg>
