<svg width="20" height="20" viewBox="0 0 20 20" fill="none" xmlns="http://www.w3.org/2000/svg">
<g clip-path="url(#clip0_2001_8627)">
<path fill-rule="evenodd" clip-rule="evenodd" d="M10.0001 0.833252C10.4603 0.833252 10.8334 1.20635 10.8334 1.66659V18.3333C10.8334 18.7935 10.4603 19.1666 10.0001 19.1666C9.53984 19.1666 9.16675 18.7935 9.16675 18.3333V1.66659C9.16675 1.20635 9.53984 0.833252 10.0001 0.833252Z" fill="black"/>
<path fill-rule="evenodd" clip-rule="evenodd" d="M6.91083 15.2441C7.23626 14.9186 7.7639 14.9186 8.08934 15.2441L10.0001 17.1548L11.9108 15.2441C12.2363 14.9186 12.7639 14.9186 13.0893 15.2441C13.4148 15.5695 13.4148 16.0972 13.0893 16.4226L10.5893 18.9226C10.2639 19.248 9.73626 19.248 9.41083 18.9226L6.91083 16.4226C6.58539 16.0972 6.58539 15.5695 6.91083 15.2441Z" fill="black"/>
<path fill-rule="evenodd" clip-rule="evenodd" d="M15.2441 6.91083C15.5695 6.58539 16.0972 6.58539 16.4226 6.91083L18.9226 9.41083C19.248 9.73626 19.248 10.2639 18.9226 10.5893L16.4226 13.0893C16.0972 13.4148 15.5695 13.4148 15.2441 13.0893C14.9186 12.7639 14.9186 12.2363 15.2441 11.9108L17.1548 10.0001L15.2441 8.08934C14.9186 7.7639 14.9186 7.23626 15.2441 6.91083Z" fill="black"/>
<path fill-rule="evenodd" clip-rule="evenodd" d="M0.833252 10.0001C0.833252 9.53984 1.20635 9.16675 1.66659 9.16675H18.3333C18.7935 9.16675 19.1666 9.53984 19.1666 10.0001C19.1666 10.4603 18.7935 10.8334 18.3333 10.8334H1.66659C1.20635 10.8334 0.833252 10.4603 0.833252 10.0001Z" fill="black"/>
<path fill-rule="evenodd" clip-rule="evenodd" d="M4.75584 6.91083C5.08128 7.23626 5.08128 7.7639 4.75584 8.08934L2.8451 10.0001L4.75584 11.9108C5.08128 12.2363 5.08128 12.7639 4.75584 13.0893C4.4304 13.4148 3.90277 13.4148 3.57733 13.0893L1.07733 10.5893C0.751893 10.2639 0.751893 9.73626 1.07733 9.41083L3.57733 6.91083C3.90277 6.58539 4.4304 6.58539 4.75584 6.91083Z" fill="black"/>
<path fill-rule="evenodd" clip-rule="evenodd" d="M9.41083 1.07733C9.73626 0.751893 10.2639 0.751893 10.5893 1.07733L13.0893 3.57733C13.4148 3.90277 13.4148 4.4304 13.0893 4.75584C12.7639 5.08128 12.2363 5.08128 11.9108 4.75584L10.0001 2.8451L8.08934 4.75584C7.7639 5.08128 7.23626 5.08128 6.91083 4.75584C6.58539 4.4304 6.58539 3.90277 6.91083 3.57733L9.41083 1.07733Z" fill="black"/>
</g>
<defs>
<clipPath id="clip0_2001_8627">
<rect width="20" height="20" fill="white"/>
</clipPath>
</defs>
</svg>
