<svg width="20" height="20" viewBox="0 0 20 20" fill="none" xmlns="http://www.w3.org/2000/svg">
<path fill-rule="evenodd" clip-rule="evenodd" d="M3.33325 4.16659C3.33325 3.70635 3.70635 3.33325 4.16659 3.33325H9.16658C9.62682 3.33325 9.99992 3.70635 9.99992 4.16659C9.99992 4.62682 9.62682 4.99992 9.16658 4.99992H4.99992V9.16658C4.99992 9.62682 4.62682 9.99992 4.16659 9.99992C3.70635 9.99992 3.33325 9.62682 3.33325 9.16658V4.16659Z" fill="black"/>
<path fill-rule="evenodd" clip-rule="evenodd" d="M3.57733 3.57733C3.90277 3.25189 4.4304 3.25189 4.75584 3.57733L16.4225 15.244C16.7479 15.5694 16.7479 16.0971 16.4225 16.4225C16.0971 16.7479 15.5694 16.7479 15.244 16.4225L3.57733 4.75584C3.25189 4.4304 3.25189 3.90277 3.57733 3.57733Z" fill="black"/>
</svg>
