<svg width="20" height="20" viewBox="0 0 20 20" fill="none" xmlns="http://www.w3.org/2000/svg">
<path fill-rule="evenodd" clip-rule="evenodd" d="M5.58917 6.07733C5.91461 6.40277 5.91461 6.9304 5.58917 7.25584L2.8451 9.99992L5.58917 12.744C5.91461 13.0694 5.91461 13.5971 5.58917 13.9225C5.26374 14.2479 4.7361 14.2479 4.41066 13.9225L1.07733 10.5892C0.751893 10.2637 0.751893 9.7361 1.07733 9.41066L4.41066 6.07733C4.7361 5.75189 5.26374 5.75189 5.58917 6.07733Z" fill="black"/>
<path fill-rule="evenodd" clip-rule="evenodd" d="M0.833252 10.0001C0.833252 9.53984 1.20635 9.16675 1.66659 9.16675H18.3333C18.7935 9.16675 19.1666 9.53984 19.1666 10.0001C19.1666 10.4603 18.7935 10.8334 18.3333 10.8334H1.66659C1.20635 10.8334 0.833252 10.4603 0.833252 10.0001Z" fill="black"/>
</svg>
