<svg width="20" height="20" viewBox="0 0 20 20" fill="none" xmlns="http://www.w3.org/2000/svg">
<path fill-rule="evenodd" clip-rule="evenodd" d="M14.4108 6.07733C14.7363 5.75189 15.2639 5.75189 15.5893 6.07733L18.9227 9.41066C19.2481 9.7361 19.2481 10.2637 18.9227 10.5892L15.5893 13.9225C15.2639 14.2479 14.7363 14.2479 14.4108 13.9225C14.0854 13.5971 14.0854 13.0694 14.4108 12.744L17.1549 9.99992L14.4108 7.25584C14.0854 6.9304 14.0854 6.40277 14.4108 6.07733Z" fill="black"/>
<path fill-rule="evenodd" clip-rule="evenodd" d="M0.833252 10.0001C0.833252 9.53984 1.20635 9.16675 1.66659 9.16675H18.3333C18.7935 9.16675 19.1666 9.53984 19.1666 10.0001C19.1666 10.4603 18.7935 10.8334 18.3333 10.8334H1.66659C1.20635 10.8334 0.833252 10.4603 0.833252 10.0001Z" fill="black"/>
</svg>
