<svg width="20" height="20" viewBox="0 0 20 20" fill="none" xmlns="http://www.w3.org/2000/svg">
<path fill-rule="evenodd" clip-rule="evenodd" d="M9.41066 1.07733C9.7361 0.751893 10.2637 0.751893 10.5892 1.07733L13.9225 4.41066C14.2479 4.7361 14.2479 5.26374 13.9225 5.58917C13.5971 5.91461 13.0694 5.91461 12.744 5.58917L9.99992 2.8451L7.25584 5.58917C6.9304 5.91461 6.40277 5.91461 6.07733 5.58917C5.75189 5.26374 5.75189 4.7361 6.07733 4.41066L9.41066 1.07733Z" fill="black"/>
<path fill-rule="evenodd" clip-rule="evenodd" d="M10.0001 0.833252C10.4603 0.833252 10.8334 1.20635 10.8334 1.66659V18.3333C10.8334 18.7935 10.4603 19.1666 10.0001 19.1666C9.53984 19.1666 9.16675 18.7935 9.16675 18.3333V1.66659C9.16675 1.20635 9.53984 0.833252 10.0001 0.833252Z" fill="black"/>
</svg>
