<svg width="20" height="20" viewBox="0 0 20 20" fill="none" xmlns="http://www.w3.org/2000/svg">
<path fill-rule="evenodd" clip-rule="evenodd" d="M9.99992 12.5002C8.61921 12.5002 7.49992 13.6195 7.49992 15.0002C7.49992 16.3809 8.61921 17.5002 9.99992 17.5002C11.3806 17.5002 12.4999 16.3809 12.4999 15.0002C12.4999 13.6195 11.3806 12.5002 9.99992 12.5002ZM5.83325 15.0002C5.83325 12.699 7.69873 10.8335 9.99992 10.8335C12.3011 10.8335 14.1666 12.699 14.1666 15.0002C14.1666 17.3013 12.3011 19.1668 9.99992 19.1668C7.69873 19.1668 5.83325 17.3013 5.83325 15.0002Z" fill="black"/>
<path fill-rule="evenodd" clip-rule="evenodd" d="M13.3333 0.833252C13.7936 0.833252 14.1667 1.20635 14.1667 1.66659V14.9999C14.1667 15.4602 13.7936 15.8333 13.3333 15.8333C12.8731 15.8333 12.5 15.4602 12.5 14.9999V1.66659C12.5 1.20635 12.8731 0.833252 13.3333 0.833252Z" fill="black"/>
</svg>
