<svg width="20" height="20" viewBox="0 0 20 20" fill="none" xmlns="http://www.w3.org/2000/svg">
<path fill-rule="evenodd" clip-rule="evenodd" d="M18.0387 1.86424C18.2256 2.02257 18.3334 2.25513 18.3334 2.50009V13.3334C18.3334 13.7937 17.9603 14.1668 17.5001 14.1668C17.0398 14.1668 16.6667 13.7937 16.6667 13.3334V3.4838L8.33341 4.87269V15.0001C8.33341 15.4603 7.96032 15.8334 7.50008 15.8334C7.03984 15.8334 6.66675 15.4603 6.66675 15.0001V4.16675C6.66675 3.75939 6.96126 3.41173 7.36308 3.34476L17.3631 1.67809C17.6047 1.63782 17.8518 1.7059 18.0387 1.86424Z" fill="black"/>
<path fill-rule="evenodd" clip-rule="evenodd" d="M5.00008 13.3332C4.07961 13.3332 3.33341 14.0794 3.33341 14.9998C3.33341 15.9203 4.07961 16.6665 5.00008 16.6665C5.92056 16.6665 6.66675 15.9203 6.66675 14.9998C6.66675 14.0794 5.92056 13.3332 5.00008 13.3332ZM1.66675 14.9998C1.66675 13.1589 3.15913 11.6665 5.00008 11.6665C6.84103 11.6665 8.33341 13.1589 8.33341 14.9998C8.33341 16.8408 6.84103 18.3332 5.00008 18.3332C3.15913 18.3332 1.66675 16.8408 1.66675 14.9998Z" fill="black"/>
<path fill-rule="evenodd" clip-rule="evenodd" d="M15.0001 11.6667C14.0796 11.6667 13.3334 12.4129 13.3334 13.3333C13.3334 14.2538 14.0796 15 15.0001 15C15.9206 15 16.6667 14.2538 16.6667 13.3333C16.6667 12.4129 15.9206 11.6667 15.0001 11.6667ZM11.6667 13.3333C11.6667 11.4924 13.1591 10 15.0001 10C16.841 10 18.3334 11.4924 18.3334 13.3333C18.3334 15.1743 16.841 16.6667 15.0001 16.6667C13.1591 16.6667 11.6667 15.1743 11.6667 13.3333Z" fill="black"/>
</svg>
