<svg width="20" height="20" viewBox="0 0 20 20" fill="none" xmlns="http://www.w3.org/2000/svg">
<path fill-rule="evenodd" clip-rule="evenodd" d="M6.66667 12.5002C5.28595 12.5002 4.16667 13.6195 4.16667 15.0002C4.16667 16.3809 5.28595 17.5002 6.66667 17.5002C8.04738 17.5002 9.16667 16.3809 9.16667 15.0002C9.16667 13.6195 8.04738 12.5002 6.66667 12.5002ZM2.5 15.0002C2.5 12.699 4.36548 10.8335 6.66667 10.8335C8.96785 10.8335 10.8333 12.699 10.8333 15.0002C10.8333 17.3013 8.96785 19.1668 6.66667 19.1668C4.36548 19.1668 2.5 17.3013 2.5 15.0002Z" fill="black"/>
<path fill-rule="evenodd" clip-rule="evenodd" d="M9.58181 0.945827C9.83874 0.796725 10.1556 0.795667 10.4135 0.943049L16.2469 4.27638C16.6465 4.50472 16.7853 5.01377 16.557 5.41337C16.3286 5.81297 15.8196 5.9518 15.42 5.72345L10.8334 3.10257V14.9999C10.8334 15.4602 10.4603 15.8333 10.0001 15.8333C9.53984 15.8333 9.16675 15.4602 9.16675 14.9999V1.66659C9.16675 1.36953 9.32488 1.09493 9.58181 0.945827Z" fill="black"/>
</svg>
