<svg width="20" height="20" viewBox="0 0 20 20" fill="none" xmlns="http://www.w3.org/2000/svg">
<path fill-rule="evenodd" clip-rule="evenodd" d="M9.99996 0.833252C10.3491 0.833252 10.6612 1.05089 10.7819 1.3785L16.6152 17.2118C16.7363 17.5405 16.639 17.9098 16.3716 18.136C16.1043 18.3623 15.7239 18.3972 15.4198 18.2235L9.99996 15.1264L4.58008 18.2235C4.27597 18.3972 3.89566 18.3623 3.6283 18.136C3.36094 17.9098 3.26359 17.5405 3.38467 17.2118L9.21801 1.3785C9.3387 1.05089 9.65083 0.833252 9.99996 0.833252ZM5.73944 15.6414L9.58651 13.443C9.84271 13.2967 10.1572 13.2967 10.4134 13.443L14.2605 15.6414L9.99996 4.07712L5.73944 15.6414Z" fill="black"/>
</svg>
