<svg width="20" height="20" viewBox="0 0 20 20" fill="none" xmlns="http://www.w3.org/2000/svg">
<g clip-path="url(#clip0_2001_8655)">
<path fill-rule="evenodd" clip-rule="evenodd" d="M7.77833 6.66844C7.97522 7.08443 7.7976 7.58127 7.3816 7.77816L4.96235 8.92318L9.36888 10.0248C9.66745 10.0995 9.90058 10.3326 9.97522 10.6312L11.0769 15.0377L12.2219 12.6184C12.4188 12.2024 12.9156 12.0248 13.3316 12.2217C13.7476 12.4186 13.9252 12.9154 13.7283 13.3314L11.5867 17.8564C11.4361 18.1746 11.1018 18.3639 10.7515 18.3292C10.4011 18.2946 10.1104 18.0436 10.025 17.702L8.47959 11.5205L2.29799 9.97505C1.95647 9.88967 1.70544 9.5989 1.67081 9.24858C1.63618 8.89827 1.82541 8.56397 2.1436 8.41337L6.6686 6.27171C7.0846 6.07482 7.58144 6.25244 7.77833 6.66844Z" fill="black"/>
<path fill-rule="evenodd" clip-rule="evenodd" d="M18.9225 1.07735C19.1715 1.3264 19.2371 1.70513 19.0863 2.02341L15.2446 10.1317C15.0476 10.5477 14.5507 10.7251 14.1347 10.528C13.7188 10.331 13.5414 9.83405 13.7385 9.41814L16.5808 3.41903L10.5817 6.26136C10.1658 6.45842 9.66886 6.281 9.4718 5.86508C9.27474 5.44916 9.45216 4.95225 9.86808 4.75519L17.9764 0.913526C18.2947 0.762723 18.6734 0.828307 18.9225 1.07735Z" fill="black"/>
<path fill-rule="evenodd" clip-rule="evenodd" d="M1.07733 1.07733C1.40277 0.751893 1.9304 0.751893 2.25584 1.07733L18.9225 17.744C19.2479 18.0694 19.2479 18.5971 18.9225 18.9225C18.5971 19.2479 18.0694 19.2479 17.744 18.9225L1.07733 2.25584C0.751893 1.9304 0.751893 1.40277 1.07733 1.07733Z" fill="black"/>
</g>
<defs>
<clipPath id="clip0_2001_8655">
<rect width="20" height="20" fill="white"/>
</clipPath>
</defs>
</svg>
