<svg width="20" height="20" viewBox="0 0 20 20" fill="none" xmlns="http://www.w3.org/2000/svg">
<g clip-path="url(#clip0_2001_8649)">
<path fill-rule="evenodd" clip-rule="evenodd" d="M8.04657 6.97648C8.47839 7.13569 8.69939 7.61482 8.54018 8.04664L5.74018 15.6411L9.58651 13.4432C9.84271 13.2968 10.1572 13.2968 10.4134 13.4432L14.2587 15.6405L14.0765 15.1469C13.9172 14.7151 14.138 14.2359 14.5697 14.0766C15.0015 13.9172 15.4807 14.1381 15.6401 14.5698L16.6151 17.2115C16.7364 17.5402 16.6392 17.9096 16.3718 18.136C16.1044 18.3624 15.724 18.3974 15.4198 18.2236L9.99996 15.1265L4.58008 18.2236C4.27594 18.3974 3.89559 18.3624 3.62823 18.1361C3.36086 17.9098 3.26357 17.5404 3.38474 17.2118L6.97641 7.47009C7.13562 7.03827 7.61474 6.81727 8.04657 6.97648Z" fill="black"/>
<path fill-rule="evenodd" clip-rule="evenodd" d="M10.0005 0.833252C10.3496 0.83346 10.6616 1.05129 10.7821 1.37897L12.8904 7.1123C13.0493 7.54426 12.8279 8.0232 12.3959 8.18205C11.964 8.34089 11.485 8.11949 11.3262 7.68753L9.99853 4.07719L9.80675 4.5968C9.64739 5.02856 9.16819 5.24939 8.73642 5.09004C8.30465 4.93068 8.08382 4.45147 8.24318 4.01971L9.21818 1.37804C9.33907 1.0505 9.65133 0.833044 10.0005 0.833252Z" fill="black"/>
<path fill-rule="evenodd" clip-rule="evenodd" d="M1.07733 1.07733C1.40277 0.751893 1.9304 0.751893 2.25584 1.07733L18.9225 17.744C19.2479 18.0694 19.2479 18.5971 18.9225 18.9225C18.5971 19.2479 18.0694 19.2479 17.744 18.9225L1.07733 2.25584C0.751893 1.9304 0.751893 1.40277 1.07733 1.07733Z" fill="black"/>
</g>
<defs>
<clipPath id="clip0_2001_8649">
<rect width="20" height="20" fill="white"/>
</clipPath>
</defs>
</svg>
