<svg width="20" height="20" viewBox="0 0 20 20" fill="none" xmlns="http://www.w3.org/2000/svg">
<g clip-path="url(#clip0_2001_8661)">
<path fill-rule="evenodd" clip-rule="evenodd" d="M14.1667 14.1667V17.5H17.5V14.1667H14.1667ZM12.5 14.1667C12.5 13.2462 13.2462 12.5 14.1667 12.5H17.5C18.4205 12.5 19.1667 13.2462 19.1667 14.1667V17.5C19.1667 18.4205 18.4205 19.1667 17.5 19.1667H14.1667C13.2462 19.1667 12.5 18.4205 12.5 17.5V14.1667Z" fill="black"/>
<path fill-rule="evenodd" clip-rule="evenodd" d="M2.49992 14.1667V17.5H5.83325V14.1667H2.49992ZM0.833252 14.1667C0.833252 13.2462 1.57944 12.5 2.49992 12.5H5.83325C6.75373 12.5 7.49992 13.2462 7.49992 14.1667V17.5C7.49992 18.4205 6.75373 19.1667 5.83325 19.1667H2.49992C1.57944 19.1667 0.833252 18.4205 0.833252 17.5V14.1667Z" fill="black"/>
<path fill-rule="evenodd" clip-rule="evenodd" d="M8.33341 2.49992V5.83325H11.6667V2.49992H8.33341ZM6.66675 2.49992C6.66675 1.57944 7.41294 0.833252 8.33341 0.833252H11.6667C12.5872 0.833252 13.3334 1.57944 13.3334 2.49992V5.83325C13.3334 6.75373 12.5872 7.49992 11.6667 7.49992H8.33341C7.41294 7.49992 6.66675 6.75373 6.66675 5.83325V2.49992Z" fill="black"/>
<path fill-rule="evenodd" clip-rule="evenodd" d="M3.82141 9.6549C4.13397 9.34234 4.55789 9.16675 4.99992 9.16675H14.9999C15.4419 9.16675 15.8659 9.34234 16.1784 9.6549C16.491 9.96747 16.6666 10.3914 16.6666 10.8334V13.3334C16.6666 13.7937 16.2935 14.1667 15.8333 14.1667C15.373 14.1667 14.9999 13.7937 14.9999 13.3334L14.9999 10.8334H4.99992L4.99992 13.3334C4.99992 13.7937 4.62682 14.1667 4.16659 14.1667C3.70635 14.1667 3.33325 13.7937 3.33325 13.3334V10.8334C3.33325 10.3914 3.50885 9.96746 3.82141 9.6549Z" fill="black"/>
<path fill-rule="evenodd" clip-rule="evenodd" d="M10.0001 5.83325C10.4603 5.83325 10.8334 6.20635 10.8334 6.66659V9.99992C10.8334 10.4602 10.4603 10.8333 10.0001 10.8333C9.53984 10.8333 9.16675 10.4602 9.16675 9.99992V6.66659C9.16675 6.20635 9.53984 5.83325 10.0001 5.83325Z" fill="black"/>
</g>
<defs>
<clipPath id="clip0_2001_8661">
<rect width="20" height="20" fill="white"/>
</clipPath>
</defs>
</svg>
