<svg width="20" height="20" viewBox="0 0 20 20" fill="none" xmlns="http://www.w3.org/2000/svg">
<g clip-path="url(#clip0_2001_8667)">
<path fill-rule="evenodd" clip-rule="evenodd" d="M4.89882 1.56549C5.36766 1.09664 6.00354 0.833252 6.66659 0.833252H16.6666C17.3296 0.833252 17.9655 1.09664 18.4344 1.56549C18.9032 2.03433 19.1666 2.67021 19.1666 3.33325V16.6666C19.1666 17.3296 18.9032 17.9655 18.4344 18.4344C17.9655 18.9032 17.3296 19.1666 16.6666 19.1666H3.33325C2.67021 19.1666 2.03433 18.9032 1.56549 18.4344C1.09664 17.9655 0.833252 17.3296 0.833252 16.6666V9.16659C0.833252 7.78968 1.95635 6.66659 3.33325 6.66659H4.16659V3.33325C4.16659 2.67021 4.42998 2.03433 4.89882 1.56549ZM4.16659 8.33325H3.33325C2.87682 8.33325 2.49992 8.71016 2.49992 9.16659V16.6666C2.49992 16.8876 2.58772 17.0996 2.744 17.2558C2.90028 17.4121 3.11224 17.4999 3.33325 17.4999C3.55427 17.4999 3.76623 17.4121 3.92251 17.2558C4.07879 17.0996 4.16659 16.8876 4.16659 16.6666V8.33325ZM5.69028 17.4999C5.78403 17.2347 5.83325 16.9532 5.83325 16.6666V3.33325C5.83325 3.11224 5.92105 2.90028 6.07733 2.744C6.23361 2.58772 6.44557 2.49992 6.66659 2.49992H16.6666C16.8876 2.49992 17.0996 2.58772 17.2558 2.744C17.4121 2.90028 17.4999 3.11224 17.4999 3.33325V16.6666C17.4999 16.8876 17.4121 17.0996 17.2558 17.2558C17.0996 17.4121 16.8876 17.4999 16.6666 17.4999H5.69028Z" fill="black"/>
<path fill-rule="evenodd" clip-rule="evenodd" d="M7.5 11.6668C7.5 11.2066 7.8731 10.8335 8.33333 10.8335H15C15.4602 10.8335 15.8333 11.2066 15.8333 11.6668C15.8333 12.1271 15.4602 12.5002 15 12.5002H8.33333C7.8731 12.5002 7.5 12.1271 7.5 11.6668Z" fill="black"/>
<path fill-rule="evenodd" clip-rule="evenodd" d="M7.5 14.9998C7.5 14.5396 7.8731 14.1665 8.33333 14.1665H12.5C12.9602 14.1665 13.3333 14.5396 13.3333 14.9998C13.3333 15.4601 12.9602 15.8332 12.5 15.8332H8.33333C7.8731 15.8332 7.5 15.4601 7.5 14.9998Z" fill="black"/>
<path fill-rule="evenodd" clip-rule="evenodd" d="M7.5 5.00008C7.5 4.53984 7.8731 4.16675 8.33333 4.16675H15C15.4602 4.16675 15.8333 4.53984 15.8333 5.00008V8.33342C15.8333 8.79365 15.4602 9.16675 15 9.16675H8.33333C7.8731 9.16675 7.5 8.79365 7.5 8.33342V5.00008ZM9.16667 5.83341V7.50008H14.1667V5.83341H9.16667Z" fill="black"/>
</g>
<defs>
<clipPath id="clip0_2001_8667">
<rect width="20" height="20" fill="white"/>
</clipPath>
</defs>
</svg>
