<svg width="20" height="20" viewBox="0 0 20 20" fill="none" xmlns="http://www.w3.org/2000/svg">
<path fill-rule="evenodd" clip-rule="evenodd" d="M4.58724 6.20939C4.98706 5.98144 5.49597 6.12077 5.72392 6.52059C6.32828 7.58062 6.64611 8.77979 6.64611 10C6.64611 11.2202 6.32828 12.4194 5.72392 13.4794C5.49597 13.8792 4.98706 14.0186 4.58724 13.7906C4.18742 13.5627 4.04809 13.0537 4.27604 12.6539C4.73701 11.8454 4.97944 10.9307 4.97944 10C4.97944 9.06928 4.73701 8.15461 4.27604 7.34607C4.04809 6.94625 4.18742 6.43734 4.58724 6.20939Z" fill="black"/>
<path fill-rule="evenodd" clip-rule="evenodd" d="M7.47299 4.4497C7.87358 4.2231 8.38202 4.36415 8.60862 4.76474C9.51196 6.36172 9.98671 8.16527 9.98671 10C9.98671 11.8348 9.51196 13.6383 8.60862 15.2353C8.38202 15.6359 7.87358 15.777 7.47299 15.5504C7.0724 15.3238 6.93136 14.8153 7.15795 14.4147C7.9197 13.0681 8.32004 11.5472 8.32004 10C8.32004 8.45285 7.9197 6.93199 7.15795 5.58532C6.93136 5.18473 7.0724 4.6763 7.47299 4.4497Z" fill="black"/>
<path fill-rule="evenodd" clip-rule="evenodd" d="M10.344 2.69365C10.7434 2.46487 11.2526 2.60314 11.4814 3.00248C12.7015 5.13229 13.3442 7.54387 13.3457 9.99843C13.3473 12.453 12.7077 14.8654 11.4902 16.9967C11.2619 17.3964 10.7529 17.5353 10.3533 17.307C9.95365 17.0787 9.81473 16.5697 10.043 16.1701C11.1165 14.2908 11.6804 12.1637 11.6791 9.99948C11.6777 7.83523 11.111 5.70888 10.0352 3.83097C9.80642 3.43162 9.94469 2.92243 10.344 2.69365Z" fill="black"/>
<path fill-rule="evenodd" clip-rule="evenodd" d="M13.2282 0.943141C13.6278 0.714849 14.1369 0.853742 14.3652 1.25337C15.887 3.91727 16.6874 6.93212 16.6874 10.0001C16.6874 13.068 15.887 16.0829 14.3652 18.7468C14.1369 19.1464 13.6278 19.2853 13.2282 19.057C12.8286 18.8287 12.6897 18.3197 12.918 17.92C14.296 15.5079 15.0207 12.778 15.0207 10.0001C15.0207 7.2221 14.296 4.4922 12.918 2.08009C12.6897 1.68046 12.8286 1.17143 13.2282 0.943141Z" fill="black"/>
</svg>
