<svg width="20" height="20" viewBox="0 0 20 20" fill="none" xmlns="http://www.w3.org/2000/svg">
<path fill-rule="evenodd" clip-rule="evenodd" d="M0.833252 5.00008C0.833252 4.53984 1.20635 4.16675 1.66659 4.16675H4.99992C5.46016 4.16675 5.83325 4.53984 5.83325 5.00008C5.83325 5.46032 5.46016 5.83341 4.99992 5.83341H1.66659C1.20635 5.83341 0.833252 5.46032 0.833252 5.00008Z" fill="black"/>
<path fill-rule="evenodd" clip-rule="evenodd" d="M0.833252 8.33333C0.833252 7.8731 1.20635 7.5 1.66659 7.5H4.99992C5.46016 7.5 5.83325 7.8731 5.83325 8.33333C5.83325 8.79357 5.46016 9.16667 4.99992 9.16667H1.66659C1.20635 9.16667 0.833252 8.79357 0.833252 8.33333Z" fill="black"/>
<path fill-rule="evenodd" clip-rule="evenodd" d="M0.833252 11.6668C0.833252 11.2066 1.20635 10.8335 1.66659 10.8335H4.99992C5.46016 10.8335 5.83325 11.2066 5.83325 11.6668C5.83325 12.1271 5.46016 12.5002 4.99992 12.5002H1.66659C1.20635 12.5002 0.833252 12.1271 0.833252 11.6668Z" fill="black"/>
<path fill-rule="evenodd" clip-rule="evenodd" d="M0.833252 14.9998C0.833252 14.5396 1.20635 14.1665 1.66659 14.1665H4.99992C5.46016 14.1665 5.83325 14.5396 5.83325 14.9998C5.83325 15.4601 5.46016 15.8332 4.99992 15.8332H1.66659C1.20635 15.8332 0.833252 15.4601 0.833252 14.9998Z" fill="black"/>
<path fill-rule="evenodd" clip-rule="evenodd" d="M5 2.49992C4.53976 2.49992 4.16667 2.87301 4.16667 3.33325V16.6666C4.16667 17.1268 4.53976 17.4999 5 17.4999H15C15.4602 17.4999 15.8333 17.1268 15.8333 16.6666V3.33325C15.8333 2.87301 15.4602 2.49992 15 2.49992H5ZM2.5 3.33325C2.5 1.95254 3.61929 0.833252 5 0.833252H15C16.3807 0.833252 17.5 1.95254 17.5 3.33325V16.6666C17.5 18.0473 16.3807 19.1666 15 19.1666H5C3.61929 19.1666 2.5 18.0473 2.5 16.6666V3.33325Z" fill="black"/>
<path fill-rule="evenodd" clip-rule="evenodd" d="M13.3333 0.833252C13.7936 0.833252 14.1667 1.20635 14.1667 1.66659V18.3333C14.1667 18.7935 13.7936 19.1666 13.3333 19.1666C12.8731 19.1666 12.5 18.7935 12.5 18.3333V1.66659C12.5 1.20635 12.8731 0.833252 13.3333 0.833252Z" fill="black"/>
</svg>
