<svg width="20" height="20" viewBox="0 0 20 20" fill="none" xmlns="http://www.w3.org/2000/svg">
<g clip-path="url(#clip0_2001_8677)">
<path fill-rule="evenodd" clip-rule="evenodd" d="M3.23223 1.56549C3.70107 1.09664 4.33696 0.833252 5 0.833252H11.1667C11.6269 0.833252 12 1.20635 12 1.66659C12 2.12682 11.6269 2.49992 11.1667 2.49992H5C4.77899 2.49992 4.56702 2.58772 4.41074 2.744C4.25446 2.90028 4.16667 3.11224 4.16667 3.33325V16.6666C4.16667 16.8876 4.25446 17.0996 4.41074 17.2558C4.56702 17.4121 4.77899 17.4999 5 17.4999H15C15.221 17.4999 15.433 17.4121 15.5893 17.2558C15.7455 17.0996 15.8333 16.8876 15.8333 16.6666V10.4999C15.8333 10.0397 16.2064 9.66659 16.6667 9.66659C17.1269 9.66659 17.5 10.0397 17.5 10.4999V16.6666C17.5 17.3296 17.2366 17.9655 16.7678 18.4344C16.2989 18.9032 15.663 19.1666 15 19.1666H5C4.33696 19.1666 3.70107 18.9032 3.23223 18.4344C2.76339 17.9655 2.5 17.3296 2.5 16.6666V3.33325C2.5 2.67021 2.76339 2.03433 3.23223 1.56549Z" fill="black"/>
<path fill-rule="evenodd" clip-rule="evenodd" d="M0.833252 5.00008C0.833252 4.53984 1.20635 4.16675 1.66659 4.16675H4.99992C5.46016 4.16675 5.83325 4.53984 5.83325 5.00008C5.83325 5.46032 5.46016 5.83341 4.99992 5.83341H1.66659C1.20635 5.83341 0.833252 5.46032 0.833252 5.00008Z" fill="black"/>
<path fill-rule="evenodd" clip-rule="evenodd" d="M0.833252 8.33333C0.833252 7.8731 1.20635 7.5 1.66659 7.5H4.99992C5.46016 7.5 5.83325 7.8731 5.83325 8.33333C5.83325 8.79357 5.46016 9.16667 4.99992 9.16667H1.66659C1.20635 9.16667 0.833252 8.79357 0.833252 8.33333Z" fill="black"/>
<path fill-rule="evenodd" clip-rule="evenodd" d="M0.833252 11.6668C0.833252 11.2066 1.20635 10.8335 1.66659 10.8335H4.99992C5.46016 10.8335 5.83325 11.2066 5.83325 11.6668C5.83325 12.1271 5.46016 12.5002 4.99992 12.5002H1.66659C1.20635 12.5002 0.833252 12.1271 0.833252 11.6668Z" fill="black"/>
<path fill-rule="evenodd" clip-rule="evenodd" d="M0.833252 14.9998C0.833252 14.5396 1.20635 14.1665 1.66659 14.1665H4.99992C5.46016 14.1665 5.83325 14.5396 5.83325 14.9998C5.83325 15.4601 5.46016 15.8332 4.99992 15.8332H1.66659C1.20635 15.8332 0.833252 15.4601 0.833252 14.9998Z" fill="black"/>
<path fill-rule="evenodd" clip-rule="evenodd" d="M14.7224 1.59579C15.2106 1.10754 15.8728 0.833252 16.5633 0.833252C17.2538 0.833252 17.916 1.10754 18.4042 1.59579C18.8925 2.08403 19.1668 2.74623 19.1668 3.43671C19.1668 4.12719 18.8925 4.78939 18.4042 5.27763L14.2269 9.45164C14.2269 9.45165 14.2269 9.45167 14.2269 9.45168C13.9298 9.74885 13.5627 9.96637 13.1594 10.0841L10.7675 10.7817C10.7675 10.7817 10.7675 10.7817 10.7675 10.7817C10.5523 10.8445 10.3243 10.8482 10.1073 10.7926C9.89018 10.737 9.69205 10.624 9.5336 10.4656C9.37514 10.3071 9.2622 10.109 9.20659 9.89194C9.15098 9.67487 9.15474 9.44685 9.21747 9.23173C9.21748 9.23172 9.21748 9.23172 9.21748 9.23171L9.91505 6.83979C10.0328 6.43659 10.2502 6.06955 10.5473 5.77257C10.5474 5.77248 10.5475 5.77238 10.5476 5.77229L14.7223 1.5959L15.3116 2.18497L14.7224 1.59579ZM15.901 2.77418C15.901 2.77422 15.9009 2.77426 15.9009 2.7743L11.7257 6.95113C11.6267 7.05007 11.5543 7.17235 11.515 7.30669C11.515 7.30672 11.515 7.30675 11.515 7.30677C11.5149 7.30684 11.5149 7.3069 11.5149 7.30696L11.0302 8.96899L12.6922 8.48428C12.8267 8.44502 12.9491 8.37251 13.0481 8.27345L17.2257 4.09912C17.2258 4.09904 17.2259 4.09896 17.226 4.09889C17.4015 3.92323 17.5001 3.68505 17.5001 3.43671C17.5001 3.18826 17.4014 2.94998 17.2257 2.7743C17.05 2.59862 16.8118 2.49992 16.5633 2.49992C16.3149 2.49992 16.0767 2.59857 15.901 2.77418Z" fill="black"/>
</g>
<defs>
<clipPath id="clip0_2001_8677">
<rect width="20" height="20" fill="white"/>
</clipPath>
</defs>
</svg>
