<svg width="20" height="20" viewBox="0 0 20 20" fill="none" xmlns="http://www.w3.org/2000/svg">
<path fill-rule="evenodd" clip-rule="evenodd" d="M6.66659 0.833252C7.12682 0.833252 7.49992 1.20635 7.49992 1.66659V4.99992C7.49992 5.46016 7.12682 5.83325 6.66659 5.83325C6.20635 5.83325 5.83325 5.46016 5.83325 4.99992V1.66659C5.83325 1.20635 6.20635 0.833252 6.66659 0.833252Z" fill="black"/>
<path fill-rule="evenodd" clip-rule="evenodd" d="M10.0001 0.833252C10.4603 0.833252 10.8334 1.20635 10.8334 1.66659V4.99992C10.8334 5.46016 10.4603 5.83325 10.0001 5.83325C9.53984 5.83325 9.16675 5.46016 9.16675 4.99992V1.66659C9.16675 1.20635 9.53984 0.833252 10.0001 0.833252Z" fill="black"/>
<path fill-rule="evenodd" clip-rule="evenodd" d="M13.3333 0.833252C13.7936 0.833252 14.1667 1.20635 14.1667 1.66659V4.99992C14.1667 5.46016 13.7936 5.83325 13.3333 5.83325C12.8731 5.83325 12.5 5.46016 12.5 4.99992V1.66659C12.5 1.20635 12.8731 0.833252 13.3333 0.833252Z" fill="black"/>
<path fill-rule="evenodd" clip-rule="evenodd" d="M5 4.16667C4.53976 4.16667 4.16667 4.53976 4.16667 5V16.6667C4.16667 17.1269 4.53976 17.5 5 17.5H15C15.4602 17.5 15.8333 17.1269 15.8333 16.6667V5C15.8333 4.53976 15.4602 4.16667 15 4.16667H5ZM2.5 5C2.5 3.61929 3.61929 2.5 5 2.5H15C16.3807 2.5 17.5 3.61929 17.5 5V16.6667C17.5 18.0474 16.3807 19.1667 15 19.1667H5C3.61929 19.1667 2.5 18.0474 2.5 16.6667V5Z" fill="black"/>
<path fill-rule="evenodd" clip-rule="evenodd" d="M5.83325 8.33333C5.83325 7.8731 6.20635 7.5 6.66659 7.5H11.6666C12.1268 7.5 12.4999 7.8731 12.4999 8.33333C12.4999 8.79357 12.1268 9.16667 11.6666 9.16667H6.66659C6.20635 9.16667 5.83325 8.79357 5.83325 8.33333Z" fill="black"/>
<path fill-rule="evenodd" clip-rule="evenodd" d="M5.83325 11.6668C5.83325 11.2066 6.20635 10.8335 6.66659 10.8335H13.3333C13.7935 10.8335 14.1666 11.2066 14.1666 11.6668C14.1666 12.1271 13.7935 12.5002 13.3333 12.5002H6.66659C6.20635 12.5002 5.83325 12.1271 5.83325 11.6668Z" fill="black"/>
<path fill-rule="evenodd" clip-rule="evenodd" d="M5.83325 14.9998C5.83325 14.5396 6.20635 14.1665 6.66659 14.1665H10.8333C11.2935 14.1665 11.6666 14.5396 11.6666 14.9998C11.6666 15.4601 11.2935 15.8332 10.8333 15.8332H6.66659C6.20635 15.8332 5.83325 15.4601 5.83325 14.9998Z" fill="black"/>
</svg>
