<svg width="20" height="20" viewBox="0 0 20 20" fill="none" xmlns="http://www.w3.org/2000/svg">
<path fill-rule="evenodd" clip-rule="evenodd" d="M6.66659 0.833252C7.12682 0.833252 7.49992 1.20635 7.49992 1.66659V4.99992C7.49992 5.46016 7.12682 5.83325 6.66659 5.83325C6.20635 5.83325 5.83325 5.46016 5.83325 4.99992V1.66659C5.83325 1.20635 6.20635 0.833252 6.66659 0.833252Z" fill="black"/>
<path fill-rule="evenodd" clip-rule="evenodd" d="M10.0001 0.833252C10.4603 0.833252 10.8334 1.20635 10.8334 1.66659V4.99992C10.8334 5.46016 10.4603 5.83325 10.0001 5.83325C9.53984 5.83325 9.16675 5.46016 9.16675 4.99992V1.66659C9.16675 1.20635 9.53984 0.833252 10.0001 0.833252Z" fill="black"/>
<path fill-rule="evenodd" clip-rule="evenodd" d="M13.3333 0.833252C13.7936 0.833252 14.1667 1.20635 14.1667 1.66659V4.99992C14.1667 5.46016 13.7936 5.83325 13.3333 5.83325C12.8731 5.83325 12.5 5.46016 12.5 4.99992V1.66659C12.5 1.20635 12.8731 0.833252 13.3333 0.833252Z" fill="black"/>
<path fill-rule="evenodd" clip-rule="evenodd" d="M12.5 3.33333C12.5 2.8731 12.8731 2.5 13.3333 2.5H15C15.663 2.5 16.2989 2.76339 16.7678 3.23223C17.2366 3.70107 17.5 4.33696 17.5 5V6.66667C17.5 7.1269 17.1269 7.5 16.6667 7.5C16.2064 7.5 15.8333 7.1269 15.8333 6.66667V5C15.8333 4.77899 15.7455 4.56702 15.5893 4.41074C15.433 4.25446 15.221 4.16667 15 4.16667H13.3333C12.8731 4.16667 12.5 3.79357 12.5 3.33333Z" fill="black"/>
<path fill-rule="evenodd" clip-rule="evenodd" d="M16.6666 9.16675C17.1268 9.16675 17.4999 9.53984 17.4999 10.0001V11.6667C17.4999 12.127 17.1268 12.5001 16.6666 12.5001C16.2063 12.5001 15.8333 12.127 15.8333 11.6667V10.0001C15.8333 9.53984 16.2063 9.16675 16.6666 9.16675Z" fill="black"/>
<path fill-rule="evenodd" clip-rule="evenodd" d="M16.6666 14.1665C17.1268 14.1665 17.4999 14.5396 17.4999 14.9998V16.6665C17.4999 17.3295 17.2365 17.9654 16.7677 18.4343C16.2988 18.9031 15.663 19.1665 14.9999 19.1665H14.1666C13.7063 19.1665 13.3333 18.7934 13.3333 18.3332C13.3333 17.8729 13.7063 17.4998 14.1666 17.4998H14.9999C15.2209 17.4998 15.4329 17.412 15.5892 17.2558C15.7455 17.0995 15.8333 16.8875 15.8333 16.6665V14.9998C15.8333 14.5396 16.2063 14.1665 16.6666 14.1665Z" fill="black"/>
<path fill-rule="evenodd" clip-rule="evenodd" d="M8.33325 18.3333C8.33325 17.8731 8.70635 17.5 9.16659 17.5H10.8333C11.2935 17.5 11.6666 17.8731 11.6666 18.3333C11.6666 18.7936 11.2935 19.1667 10.8333 19.1667H9.16659C8.70635 19.1667 8.33325 18.7936 8.33325 18.3333Z" fill="black"/>
<path fill-rule="evenodd" clip-rule="evenodd" d="M3.33333 14.1665C3.79357 14.1665 4.16667 14.5396 4.16667 14.9998V16.6665C4.16667 16.8875 4.25446 17.0995 4.41074 17.2558C4.56702 17.412 4.77899 17.4998 5 17.4998H5.83333C6.29357 17.4998 6.66667 17.8729 6.66667 18.3332C6.66667 18.7934 6.29357 19.1665 5.83333 19.1665H5C4.33696 19.1665 3.70107 18.9031 3.23223 18.4343C2.76339 17.9654 2.5 17.3295 2.5 16.6665V14.9998C2.5 14.5396 2.8731 14.1665 3.33333 14.1665Z" fill="black"/>
<path fill-rule="evenodd" clip-rule="evenodd" d="M3.33333 9.16675C3.79357 9.16675 4.16667 9.53984 4.16667 10.0001V11.6667C4.16667 12.127 3.79357 12.5001 3.33333 12.5001C2.8731 12.5001 2.5 12.127 2.5 11.6667V10.0001C2.5 9.53984 2.8731 9.16675 3.33333 9.16675Z" fill="black"/>
<path fill-rule="evenodd" clip-rule="evenodd" d="M5 4.16667C4.77899 4.16667 4.56702 4.25446 4.41074 4.41074C4.25446 4.56702 4.16667 4.77899 4.16667 5V6.66667C4.16667 7.1269 3.79357 7.5 3.33333 7.5C2.8731 7.5 2.5 7.1269 2.5 6.66667V5C2.5 4.33696 2.76339 3.70107 3.23223 3.23223C3.70107 2.76339 4.33696 2.5 5 2.5H6.66667C7.1269 2.5 7.5 2.8731 7.5 3.33333C7.5 3.79357 7.1269 4.16667 6.66667 4.16667H5Z" fill="black"/>
<path fill-rule="evenodd" clip-rule="evenodd" d="M5.83325 8.33333C5.83325 7.8731 6.20635 7.5 6.66659 7.5H11.6666C12.1268 7.5 12.4999 7.8731 12.4999 8.33333C12.4999 8.79357 12.1268 9.16667 11.6666 9.16667H6.66659C6.20635 9.16667 5.83325 8.79357 5.83325 8.33333Z" fill="black"/>
<path fill-rule="evenodd" clip-rule="evenodd" d="M5.83325 11.6668C5.83325 11.2066 6.20635 10.8335 6.66659 10.8335H13.3333C13.7935 10.8335 14.1666 11.2066 14.1666 11.6668C14.1666 12.1271 13.7935 12.5002 13.3333 12.5002H6.66659C6.20635 12.5002 5.83325 12.1271 5.83325 11.6668Z" fill="black"/>
<path fill-rule="evenodd" clip-rule="evenodd" d="M5.83325 14.9998C5.83325 14.5396 6.20635 14.1665 6.66659 14.1665H10.8333C11.2935 14.1665 11.6666 14.5396 11.6666 14.9998C11.6666 15.4601 11.2935 15.8332 10.8333 15.8332H6.66659C6.20635 15.8332 5.83325 15.4601 5.83325 14.9998Z" fill="black"/>
</svg>
