<svg width="30" height="38" viewBox="0 0 30 38" fill="none" xmlns="http://www.w3.org/2000/svg">
<path d="M0 31.875V29.0625H3.75V14.8125C3.75 12.1875 4.52344 9.83594 6.07031 7.75781C7.61719 5.67969 9.65625 4.375 12.1875 3.84375V2.8125C12.1875 2.03125 12.4609 1.36719 13.0078 0.820312C13.5547 0.273438 14.2188 0 15 0C15.7812 0 16.4453 0.273438 16.9922 0.820312C17.5391 1.36719 17.8125 2.03125 17.8125 2.8125V3.84375C20.3438 4.375 22.3828 5.67969 23.9297 7.75781C25.4766 9.83594 26.25 12.1875 26.25 14.8125V29.0625H30V31.875H0ZM15 37.5C13.9688 37.5 13.0859 37.1328 12.3516 36.3984C11.6172 35.6641 11.25 34.7812 11.25 33.75H18.75C18.75 34.7812 18.3828 35.6641 17.6484 36.3984C16.9141 37.1328 16.0312 37.5 15 37.5ZM6.5625 29.0625H23.4375V14.8125C23.4375 12.4688 22.6172 10.4766 20.9766 8.83594C19.3359 7.19531 17.3438 6.375 15 6.375C12.6562 6.375 10.6641 7.19531 9.02344 8.83594C7.38281 10.4766 6.5625 12.4688 6.5625 14.8125V29.0625Z" fill="#BABABA"/>
</svg>
