<svg width="20" height="20" viewBox="0 0 20 20" fill="none" xmlns="http://www.w3.org/2000/svg">
<g clip-path="url(#clip0_2001_8732)">
<path fill-rule="evenodd" clip-rule="evenodd" d="M10.0001 0.833252C10.4603 0.833252 10.8334 1.20635 10.8334 1.66659V3.33325C10.8334 3.79349 10.4603 4.16658 10.0001 4.16658C9.53984 4.16658 9.16675 3.79349 9.16675 3.33325V1.66659C9.16675 1.20635 9.53984 0.833252 10.0001 0.833252Z" fill="black"/>
<path fill-rule="evenodd" clip-rule="evenodd" d="M4.16659 7.5C4.62682 7.5 4.99992 7.8731 4.99992 8.33333V11.6666C4.99992 11.6666 4.99992 11.6666 4.99992 11.6667C5.00006 12.7788 5.37072 13.8592 6.05336 14.7371C6.73587 15.615 7.69134 16.2404 8.76889 16.5147C9.18907 16.6209 9.63097 16.8178 9.99992 17.1577C10.3688 16.8179 10.8106 16.621 11.2307 16.5148C12.4401 16.2065 13.4909 15.4578 14.1772 14.4152C14.4302 14.0307 14.947 13.9242 15.3314 14.1772C15.7159 14.4303 15.8224 14.9471 15.5693 15.3315C14.6546 16.7213 13.2538 17.7193 11.6415 18.13L11.6397 18.1305C11.4011 18.1907 11.2239 18.2879 11.1067 18.4051L10.5892 18.9226C10.2637 19.248 9.7361 19.248 9.41066 18.9226L8.89316 18.4051C8.77594 18.2879 8.59875 18.1907 8.36013 18.1305L8.35861 18.1301C6.92175 17.7645 5.64766 16.9306 4.7376 15.7602C3.82755 14.5897 3.33341 13.1494 3.33325 11.6668V8.33333C3.33325 7.8731 3.70635 7.5 4.16659 7.5Z" fill="black"/>
<path fill-rule="evenodd" clip-rule="evenodd" d="M15.8333 7.5C16.2936 7.5 16.6667 7.8731 16.6667 8.33333V11.1192C16.6667 11.5794 16.2936 11.9525 15.8333 11.9525C15.3731 11.9525 15 11.5794 15 11.1192V8.33333C15 7.8731 15.3731 7.5 15.8333 7.5Z" fill="black"/>
<path fill-rule="evenodd" clip-rule="evenodd" d="M8.06068 2.67318C8.68214 2.56133 9.33237 2.5 9.99995 2.5C11.799 2.5 13.494 2.94824 14.8125 3.63618C16.0892 4.30227 17.1806 5.28662 17.4751 6.46455L17.4752 6.46495C17.6379 7.11743 17.9318 7.77944 18.8534 8.51555C19.1159 8.72522 19.2268 9.07201 19.1347 9.3951C19.0426 9.71818 18.7655 9.95437 18.4319 9.99414C17.8196 10.0671 17.2705 10.0594 16.726 9.87431C16.518 9.80359 16.3229 9.71107 16.1352 9.60042C16.0936 9.65635 16.0493 9.71112 16.0022 9.76476C15.7031 10.1057 15.335 10.3486 14.9183 10.5633C14.5092 10.7741 14.0066 10.6133 13.7958 10.2042C13.585 9.79504 13.7458 9.2925 14.1549 9.08171C14.4774 8.91555 14.6427 8.78721 14.7495 8.66545C14.8516 8.54914 14.9442 8.38888 15.0369 8.08801C15.1203 7.81717 15.3357 7.60729 15.6086 7.53087C15.7605 7.48832 15.9187 7.49039 16.0657 7.53307C15.9801 7.31033 15.9131 7.08876 15.8582 6.86878C15.736 6.38004 15.1607 5.69774 14.0416 5.11382C12.9643 4.55176 11.5342 4.16667 9.99995 4.16667C9.43419 4.16667 8.88276 4.21867 8.35588 4.31349C7.90292 4.39501 7.46964 4.0939 7.38812 3.64094C7.3066 3.18798 7.60772 2.7547 8.06068 2.67318ZM5.50967 4.35002C5.77199 4.72818 5.67808 5.2474 5.29992 5.50972C4.5882 6.00343 4.23389 6.50015 4.14173 6.86878L4.14163 6.86917C4.08464 7.09667 4.00643 7.3204 3.90888 7.54086C4.04896 7.4953 4.20005 7.48724 4.34668 7.51969C4.57287 7.56975 4.76802 7.71171 4.88529 7.9115C5.08792 8.25672 5.25118 8.47547 5.4391 8.66294C5.56278 8.78631 5.70884 8.90783 5.90419 9.04645C6.24054 8.87886 6.46302 8.73803 6.63104 8.60084C6.8462 8.42517 7.00655 8.22752 7.20371 7.9018C7.35511 7.65169 7.6265 7.49922 7.91886 7.5C8.21121 7.50079 8.48178 7.65473 8.63182 7.90564C8.84511 8.26232 9.02368 8.47309 9.24157 8.64649C9.47192 8.8298 9.78737 9.00431 10.3257 9.23299C10.7493 9.41292 10.9469 9.90219 10.767 10.3258C10.587 10.7494 10.0978 10.9469 9.67415 10.767C9.08836 10.5182 8.61006 10.2739 8.20374 9.9506C8.09945 9.8676 8.00246 9.78147 7.91124 9.69161C7.84041 9.75969 7.76531 9.82638 7.6851 9.89186C7.28817 10.2159 6.80317 10.4801 6.17246 10.7612C5.91783 10.8746 5.62334 10.8533 5.38776 10.7042C4.9407 10.4214 4.57861 10.1587 4.26204 9.8429C4.13873 9.71989 4.02649 9.59302 3.92098 9.45949C3.7085 9.57004 3.49361 9.66249 3.2658 9.73764C2.78738 9.89545 2.29628 9.96222 1.71867 9.99837C1.37044 10.0202 1.04549 9.82271 0.904422 9.50358C0.763356 9.18445 0.836043 8.81122 1.08656 8.56835C1.93934 7.7416 2.37688 7.05466 2.52483 6.46455C2.52484 6.46449 2.52486 6.46443 2.52487 6.46437C2.52489 6.4643 2.52491 6.46423 2.52493 6.46416C2.75621 5.53962 3.47848 4.74482 4.34997 4.14028C4.72813 3.87796 5.24734 3.97186 5.50967 4.35002Z" fill="black"/>
<path fill-rule="evenodd" clip-rule="evenodd" d="M1.07733 1.07733C1.40277 0.751893 1.9304 0.751893 2.25584 1.07733L18.9225 17.744C19.2479 18.0694 19.2479 18.5971 18.9225 18.9225C18.5971 19.2479 18.0694 19.2479 17.744 18.9225L1.07733 2.25584C0.751893 1.9304 0.751893 1.40277 1.07733 1.07733Z" fill="black"/>
</g>
<defs>
<clipPath id="clip0_2001_8732">
<rect width="20" height="20" fill="white"/>
</clipPath>
</defs>
</svg>
