<svg width="20" height="20" viewBox="0 0 20 20" fill="none" xmlns="http://www.w3.org/2000/svg">
<g clip-path="url(#clip0_2001_8738)">
<path fill-rule="evenodd" clip-rule="evenodd" d="M10.0001 0.833252C10.4603 0.833252 10.8334 1.20635 10.8334 1.66659V3.33325C10.8334 3.79349 10.4603 4.16658 10.0001 4.16658C9.53984 4.16658 9.16675 3.79349 9.16675 3.33325V1.66659C9.16675 1.20635 9.53984 0.833252 10.0001 0.833252Z" fill="black"/>
<path fill-rule="evenodd" clip-rule="evenodd" d="M4.16659 7.5C4.62682 7.5 4.99992 7.8731 4.99992 8.33333V11.6666C4.99992 11.6666 4.99992 11.6666 4.99992 11.6667C5.00006 12.7788 5.37072 13.8592 6.05336 14.7371C6.73587 15.615 7.69134 16.2404 8.76888 16.5147C9.18907 16.6209 9.63097 16.8178 9.99992 17.1577C10.3689 16.8178 10.8108 16.6209 11.2309 16.5147C12.3086 16.2405 13.2641 15.6151 13.9467 14.7373C14.6293 13.8593 14.9999 12.7788 14.9999 11.6667V8.33333C14.9999 7.8731 15.373 7.5 15.8333 7.5C16.2935 7.5 16.6666 7.8731 16.6666 8.33333V11.6667C16.6666 13.1494 16.1725 14.5898 15.2624 15.7603C14.3523 16.9308 13.0781 17.7647 11.6411 18.1301L11.6397 18.1305C11.4011 18.1907 11.2239 18.2879 11.1067 18.4051L10.5892 18.9226C10.2637 19.248 9.7361 19.248 9.41066 18.9226L8.89316 18.4051C8.77594 18.2879 8.59875 18.1907 8.36013 18.1305L8.35861 18.1301C6.92175 17.7645 5.64766 16.9306 4.7376 15.7602C3.82755 14.5897 3.33341 13.1494 3.33325 11.6668V8.33333C3.33325 7.8731 3.70635 7.5 4.16659 7.5Z" fill="black"/>
<path fill-rule="evenodd" clip-rule="evenodd" d="M5.18739 3.63618C6.50594 2.94824 8.2009 2.5 9.99995 2.5C11.799 2.5 13.494 2.94824 14.8125 3.63618C16.0892 4.30227 17.1806 5.28662 17.4751 6.46455L17.4752 6.46495C17.6379 7.11743 17.9318 7.77944 18.8534 8.51555C19.1159 8.72522 19.2268 9.07201 19.1347 9.3951C19.0426 9.71818 18.7655 9.95437 18.4319 9.99414C17.8196 10.0671 17.2705 10.0594 16.726 9.87431C16.5178 9.80354 16.3227 9.71096 16.1349 9.60022C16.0537 9.70929 15.9629 9.81369 15.8607 9.91372C15.4956 10.2711 15.0357 10.521 14.5106 10.759C14.2969 10.8559 14.0521 10.8582 13.8366 10.7652C13.2496 10.5121 12.7812 10.2637 12.3803 9.94034C12.2684 9.85011 12.1648 9.75651 12.0674 9.65889C11.9744 9.74835 11.8764 9.83451 11.7716 9.91818C11.3796 10.2312 10.9246 10.4839 10.3569 10.753C10.1418 10.855 9.89329 10.8601 9.67415 10.767C9.08836 10.5182 8.61006 10.2739 8.20374 9.9506C8.09945 9.8676 8.00246 9.78147 7.91124 9.69161C7.84041 9.75969 7.76531 9.82638 7.6851 9.89186C7.28817 10.2159 6.80317 10.4801 6.17246 10.7612C5.91783 10.8746 5.62334 10.8533 5.38776 10.7042C4.9407 10.4214 4.57861 10.1587 4.26204 9.8429C4.13873 9.71989 4.02649 9.59302 3.92098 9.45949C3.7085 9.57004 3.49361 9.66249 3.2658 9.73764C2.78738 9.89545 2.29628 9.96222 1.71867 9.99837C1.37044 10.0202 1.04549 9.82271 0.904422 9.50358C0.763356 9.18445 0.836043 8.81122 1.08656 8.56835C1.93934 7.7416 2.37688 7.05466 2.52483 6.46455C2.52484 6.46449 2.52486 6.46443 2.52487 6.46437C2.52489 6.4643 2.52491 6.46423 2.52493 6.46416C2.81955 5.28641 3.91087 4.30219 5.18739 3.63618ZM16.0657 7.53307C15.9801 7.31033 15.9131 7.08876 15.8582 6.86878C15.736 6.38004 15.1607 5.69774 14.0416 5.11382C12.9643 4.55176 11.5342 4.16667 9.99995 4.16667C8.46566 4.16667 7.03562 4.55176 5.95833 5.11382C4.83917 5.69774 4.26392 6.38004 4.14173 6.86878L4.14163 6.86917C4.08464 7.09667 4.00643 7.3204 3.90888 7.54086C4.04896 7.4953 4.20005 7.48724 4.34668 7.51969C4.57287 7.56975 4.76802 7.71171 4.88529 7.9115C5.08792 8.25672 5.25118 8.47547 5.4391 8.66294C5.56278 8.78631 5.70884 8.90783 5.90419 9.04645C6.24054 8.87886 6.46302 8.73803 6.63104 8.60084C6.8462 8.42517 7.00655 8.22752 7.20371 7.9018C7.35511 7.65169 7.6265 7.49922 7.91886 7.5C8.21121 7.50079 8.48178 7.65473 8.63182 7.90564C8.84511 8.26232 9.02368 8.47309 9.24157 8.64649C9.41789 8.78681 9.64406 8.92196 9.98191 9.0802C10.3142 8.90939 10.5454 8.76451 10.7316 8.61578C10.9659 8.42869 11.1596 8.21109 11.3933 7.86602C11.5503 7.63427 11.8131 7.4968 12.093 7.50006C12.3729 7.50332 12.6324 7.64688 12.784 7.88223C13.0175 8.24497 13.2035 8.46314 13.4265 8.64299C13.6028 8.78513 13.8258 8.92242 14.1563 9.0807C14.4253 8.94211 14.5846 8.83066 14.6948 8.72274C14.8245 8.59581 14.931 8.42982 15.0373 8.08675C15.1211 7.81626 15.3365 7.60683 15.6092 7.53069C15.761 7.48832 15.9189 7.49045 16.0657 7.53307Z" fill="black"/>
</g>
<defs>
<clipPath id="clip0_2001_8738">
<rect width="20" height="20" fill="white"/>
</clipPath>
</defs>
</svg>
