<svg width="20" height="20" viewBox="0 0 20 20" fill="none" xmlns="http://www.w3.org/2000/svg">
<g clip-path="url(#clip0_2001_8753)">
<path fill-rule="evenodd" clip-rule="evenodd" d="M13.0893 6.91058C13.4148 7.23602 13.4148 7.76366 13.0893 8.08909L8.08934 13.0891C7.7639 13.4145 7.23626 13.4145 6.91083 13.0891C6.58539 12.7637 6.58539 12.236 6.91083 11.9106L11.9108 6.91058C12.2363 6.58514 12.7639 6.58514 13.0893 6.91058Z" fill="black"/>
<path fill-rule="evenodd" clip-rule="evenodd" d="M6.91083 6.91058C7.23626 6.58514 7.7639 6.58514 8.08934 6.91058L13.0893 11.9106C13.4148 12.236 13.4148 12.7637 13.0893 13.0891C12.7639 13.4145 12.2363 13.4145 11.9108 13.0891L6.91083 8.08909C6.58539 7.76366 6.58539 7.23602 6.91083 6.91058Z" fill="black"/>
<path fill-rule="evenodd" clip-rule="evenodd" d="M5.839 1.07757C5.99528 0.921293 6.20724 0.833496 6.42825 0.833496H13.5716C13.7926 0.833496 14.0046 0.921293 14.1608 1.07757L18.9225 5.83924C19.0788 5.99552 19.1666 6.20748 19.1666 6.4285V13.5718C19.1666 13.7928 19.0788 14.0048 18.9225 14.1611L14.1608 18.9228C14.0046 19.079 13.7926 19.1668 13.5716 19.1668H6.42825C6.20724 19.1668 5.99528 19.079 5.839 18.9228L1.07733 14.1611C0.921049 14.0048 0.833252 13.7928 0.833252 13.5718V6.4285C0.833252 6.20748 0.921049 5.99552 1.07733 5.83924L5.839 1.07757ZM6.77343 2.50016L2.49992 6.77367V13.2267L6.77343 17.5002H13.2264L17.4999 13.2267V6.77367L13.2264 2.50016H6.77343Z" fill="black"/>
</g>
<defs>
<clipPath id="clip0_2001_8753">
<rect width="20" height="20" fill="white"/>
</clipPath>
</defs>
</svg>
