<svg width="20" height="20" viewBox="0 0 20 20" fill="none" xmlns="http://www.w3.org/2000/svg">
<g clip-path="url(#clip0_2001_8749)">
<path fill-rule="evenodd" clip-rule="evenodd" d="M8.33333 6.6665C8.79357 6.6665 9.16667 7.0396 9.16667 7.49984V12.4998C9.16667 12.9601 8.79357 13.3332 8.33333 13.3332C7.8731 13.3332 7.5 12.9601 7.5 12.4998V7.49984C7.5 7.0396 7.8731 6.6665 8.33333 6.6665Z" fill="black"/>
<path fill-rule="evenodd" clip-rule="evenodd" d="M11.6666 6.6665C12.1268 6.6665 12.4999 7.0396 12.4999 7.49984V12.4998C12.4999 12.9601 12.1268 13.3332 11.6666 13.3332C11.2063 13.3332 10.8333 12.9601 10.8333 12.4998V7.49984C10.8333 7.0396 11.2063 6.6665 11.6666 6.6665Z" fill="black"/>
<path fill-rule="evenodd" clip-rule="evenodd" d="M5.839 1.07757C5.99528 0.921293 6.20724 0.833496 6.42825 0.833496H13.5716C13.7926 0.833496 14.0046 0.921293 14.1608 1.07757L18.9225 5.83924C19.0788 5.99552 19.1666 6.20748 19.1666 6.4285V13.5718C19.1666 13.7928 19.0788 14.0048 18.9225 14.1611L14.1608 18.9228C14.0046 19.079 13.7926 19.1668 13.5716 19.1668H6.42825C6.20724 19.1668 5.99528 19.079 5.839 18.9228L1.07733 14.1611C0.921049 14.0048 0.833252 13.7928 0.833252 13.5718V6.4285C0.833252 6.20748 0.921049 5.99552 1.07733 5.83924L5.839 1.07757ZM6.77343 2.50016L2.49992 6.77367V13.2267L6.77343 17.5002H13.2264L17.4999 13.2267V6.77367L13.2264 2.50016H6.77343Z" fill="black"/>
</g>
<defs>
<clipPath id="clip0_2001_8749">
<rect width="20" height="20" fill="white"/>
</clipPath>
</defs>
</svg>
