<svg width="20" height="20" viewBox="0 0 20 20" fill="none" xmlns="http://www.w3.org/2000/svg">
<g clip-path="url(#clip0_2001_8742)">
<path fill-rule="evenodd" clip-rule="evenodd" d="M9.16675 13.3333C9.16675 12.8731 9.53984 12.5 10.0001 12.5H10.0084C10.4687 12.5 10.8417 12.8731 10.8417 13.3333C10.8417 13.7936 10.4687 14.1667 10.0084 14.1667H10.0001C9.53984 14.1667 9.16675 13.7936 9.16675 13.3333Z" fill="black"/>
<path fill-rule="evenodd" clip-rule="evenodd" d="M10.0001 5.83325C10.4603 5.83325 10.8334 6.20635 10.8334 6.66659V9.99992C10.8334 10.4602 10.4603 10.8333 10.0001 10.8333C9.53984 10.8333 9.16675 10.4602 9.16675 9.99992V6.66659C9.16675 6.20635 9.53984 5.83325 10.0001 5.83325Z" fill="black"/>
<path fill-rule="evenodd" clip-rule="evenodd" d="M5.839 1.07733C5.99528 0.921049 6.20724 0.833252 6.42825 0.833252H13.5716C13.7926 0.833252 14.0046 0.921049 14.1608 1.07733L18.9225 5.839C19.0788 5.99528 19.1666 6.20724 19.1666 6.42825V13.5716C19.1666 13.7926 19.0788 14.0046 18.9225 14.1608L14.1608 18.9225C14.0046 19.0788 13.7926 19.1666 13.5716 19.1666H6.42825C6.20724 19.1666 5.99528 19.0788 5.839 18.9225L1.07733 14.1608C0.921049 14.0046 0.833252 13.7926 0.833252 13.5716V6.42825C0.833252 6.20724 0.921049 5.99528 1.07733 5.839L5.839 1.07733ZM6.77343 2.49992L2.49992 6.77343V13.2264L6.77343 17.4999H13.2264L17.4999 13.2264V6.77343L13.2264 2.49992H6.77343Z" fill="black"/>
</g>
<defs>
<clipPath id="clip0_2001_8742">
<rect width="20" height="20" fill="white"/>
</clipPath>
</defs>
</svg>
