<svg width="20" height="20" viewBox="0 0 20 20" fill="none" xmlns="http://www.w3.org/2000/svg">
<path fill-rule="evenodd" clip-rule="evenodd" d="M13.5081 5.34038C12.4967 4.57881 11.2649 4.16701 9.99873 4.16716C8.7326 4.1673 7.50089 4.5794 6.48959 5.34121C5.47829 6.10301 4.74231 7.17318 4.39277 8.3901C4.04324 9.60703 4.09913 10.9046 4.55201 12.087C5.00465 13.2687 5.82928 14.2712 6.90149 14.9432C7.08207 15.0553 7.23155 15.2111 7.33615 15.3961C7.44136 15.5823 7.49773 15.792 7.50003 16.0058C7.50005 16.0074 7.50006 16.009 7.50007 16.0106C7.50008 16.012 7.50008 16.0133 7.50008 16.0147V16.2497C7.50008 16.5813 7.36838 16.8992 7.13396 17.1336C6.89954 17.368 6.5816 17.4997 6.25008 17.4997H2.50008C2.03984 17.4997 1.66675 17.1266 1.66675 16.6664C1.66675 16.2062 2.03984 15.8331 2.50008 15.8331H5.28443C4.26161 15.0062 3.46982 13.9212 2.99561 12.6832C2.41333 11.163 2.34147 9.49461 2.79088 7.92999C3.24028 6.36537 4.18654 4.98945 5.48679 4.00998C6.78703 3.03051 8.37065 2.50068 9.99853 2.50049C11.6264 2.5003 13.2102 3.02976 14.5106 4.00892C15.8111 4.98808 16.7577 6.36378 17.2075 7.9283C17.6572 9.49281 17.5858 11.1612 17.0039 12.6815C16.5297 13.9202 15.7377 15.0059 14.7144 15.8331H17.5001C17.9603 15.8331 18.3334 16.2062 18.3334 16.6664C18.3334 17.1266 17.9603 17.4997 17.5001 17.4997H13.7501C13.4186 17.4997 13.1006 17.368 12.8662 17.1336C12.6318 16.8992 12.5001 16.5813 12.5001 16.2497V16.0147C12.5001 16.0123 12.5001 16.0098 12.5001 16.0074C12.502 15.7932 12.5582 15.583 12.6634 15.3964C12.768 15.2109 12.9177 15.0547 13.0986 14.9424C14.1706 14.2701 14.995 13.2675 15.4473 12.0857C15.8999 10.9033 15.9555 9.60563 15.6057 8.38878C15.2559 7.17194 14.5196 6.10195 13.5081 5.34038Z" fill="black"/>
</svg>
