<svg width="20" height="20" viewBox="0 0 20 20" fill="none" xmlns="http://www.w3.org/2000/svg">
<path fill-rule="evenodd" clip-rule="evenodd" d="M1.66675 2.49984C1.66675 2.0396 2.03984 1.6665 2.50008 1.6665H7.50008C7.85877 1.6665 8.17722 1.89603 8.29065 2.23631L13.1007 16.6665H17.5001C17.9603 16.6665 18.3334 17.0396 18.3334 17.4998C18.3334 17.9601 17.9603 18.3332 17.5001 18.3332H12.5001C12.1414 18.3332 11.8229 18.1036 11.7095 17.7634L6.89945 3.33317H2.50008C2.03984 3.33317 1.66675 2.96007 1.66675 2.49984Z" fill="black"/>
<path fill-rule="evenodd" clip-rule="evenodd" d="M10.8333 2.49984C10.8333 2.0396 11.2063 1.6665 11.6666 1.6665H17.4999C17.9602 1.6665 18.3333 2.0396 18.3333 2.49984C18.3333 2.96007 17.9602 3.33317 17.4999 3.33317H11.6666C11.2063 3.33317 10.8333 2.96007 10.8333 2.49984Z" fill="black"/>
</svg>
