<svg width="20" height="20" viewBox="0 0 20 20" fill="none" xmlns="http://www.w3.org/2000/svg">
<g clip-path="url(#clip0_2001_8764)">
<path fill-rule="evenodd" clip-rule="evenodd" d="M10.0001 8.33317C9.07961 8.33317 8.33341 9.07936 8.33341 9.99984C8.33341 10.9203 9.07961 11.6665 10.0001 11.6665C10.9206 11.6665 11.6667 10.9203 11.6667 9.99984C11.6667 9.07936 10.9206 8.33317 10.0001 8.33317ZM6.66675 9.99984C6.66675 8.15889 8.15913 6.6665 10.0001 6.6665C11.841 6.6665 13.3334 8.15889 13.3334 9.99984C13.3334 11.8408 11.841 13.3332 10.0001 13.3332C8.15913 13.3332 6.66675 11.8408 6.66675 9.99984Z" fill="black"/>
<path fill-rule="evenodd" clip-rule="evenodd" d="M15.8333 3.33317C15.373 3.33317 14.9999 3.70627 14.9999 4.1665C14.9999 4.62674 15.373 4.99984 15.8333 4.99984C16.2935 4.99984 16.6666 4.62674 16.6666 4.1665C16.6666 3.70627 16.2935 3.33317 15.8333 3.33317ZM13.3333 4.1665C13.3333 2.78579 14.4525 1.6665 15.8333 1.6665C17.214 1.6665 18.3333 2.78579 18.3333 4.1665C18.3333 5.54722 17.214 6.6665 15.8333 6.6665C14.4525 6.6665 13.3333 5.54722 13.3333 4.1665Z" fill="black"/>
<path fill-rule="evenodd" clip-rule="evenodd" d="M4.16675 15.0002C3.70651 15.0002 3.33341 15.3733 3.33341 15.8335C3.33341 16.2937 3.70651 16.6668 4.16675 16.6668C4.62699 16.6668 5.00008 16.2937 5.00008 15.8335C5.00008 15.3733 4.62699 15.0002 4.16675 15.0002ZM1.66675 15.8335C1.66675 14.4528 2.78604 13.3335 4.16675 13.3335C5.54746 13.3335 6.66675 14.4528 6.66675 15.8335C6.66675 17.2142 5.54746 18.3335 4.16675 18.3335C2.78604 18.3335 1.66675 17.2142 1.66675 15.8335Z" fill="black"/>
<path fill-rule="evenodd" clip-rule="evenodd" d="M16.4885 4.70994C16.8714 4.45459 17.3888 4.55799 17.6442 4.94089C18.6352 6.42691 19.1705 8.17008 19.1843 9.95619C19.198 11.7423 18.6897 13.4935 17.7217 14.9946C16.7537 16.4958 15.3682 17.6814 13.7355 18.4058C12.1029 19.1302 10.2941 19.3618 8.5316 19.0722C8.07745 18.9976 7.76978 18.5689 7.84441 18.1148C7.91903 17.6607 8.34768 17.353 8.80183 17.4276C10.2439 17.6646 11.7238 17.475 13.0596 16.8823C14.3954 16.2896 15.529 15.3196 16.321 14.0914C17.113 12.8632 17.5289 11.4304 17.5176 9.96904C17.5064 8.50768 17.0684 7.08144 16.2576 5.86561C16.0022 5.48271 16.1056 4.9653 16.4885 4.70994Z" fill="black"/>
<path fill-rule="evenodd" clip-rule="evenodd" d="M6.20787 1.63887C7.82518 0.905825 9.62057 0.658291 11.3759 0.926344C11.8309 0.995821 12.1434 1.42096 12.0739 1.87593C12.0044 2.33089 11.5793 2.64339 11.1243 2.57391C9.68812 2.35459 8.21916 2.55712 6.89592 3.15688C5.57267 3.75665 4.4521 4.72782 3.67038 5.9524C2.88865 7.17699 2.47942 8.60225 2.49241 10.055C2.5054 11.5078 2.94005 12.9255 3.74354 14.1359C3.99808 14.5194 3.89359 15.0365 3.51014 15.2911C3.1267 15.5456 2.60951 15.4411 2.35498 15.0577C1.37292 13.5783 0.841682 11.8455 0.825806 10.0699C0.80993 8.29432 1.3101 6.55232 2.26555 5.05561C3.22099 3.5589 4.59057 2.37191 6.20787 1.63887Z" fill="black"/>
</g>
<defs>
<clipPath id="clip0_2001_8764">
<rect width="20" height="20" fill="white"/>
</clipPath>
</defs>
</svg>
