<svg width="20" height="20" viewBox="0 0 20 20" fill="none" xmlns="http://www.w3.org/2000/svg">
<path fill-rule="evenodd" clip-rule="evenodd" d="M10.8334 3.33831V9.99984C10.8334 10.4601 10.4603 10.8332 10.0001 10.8332C9.53984 10.8332 9.16675 10.4601 9.16675 9.99984V3.33317C9.16675 2.41904 9.91929 1.6665 10.8334 1.6665H16.081C17.6111 1.66664 18.3273 3.60197 17.166 4.59817L13.2524 7.95256C12.903 8.25207 12.3769 8.2116 12.0774 7.86215C11.7778 7.51271 11.8183 6.98663 12.1678 6.68711L16.0711 3.34153C16.0711 3.3414 16.071 3.34128 16.071 3.34116C16.0706 3.33988 16.0702 3.33858 16.0697 3.33729C16.0692 3.336 16.0687 3.33474 16.0682 3.33353C16.0681 3.33341 16.0681 3.33329 16.068 3.33317H10.8386C10.8385 3.33321 10.8384 3.33326 10.8384 3.33331C10.8383 3.33338 10.8382 3.33347 10.8381 3.33355C10.8379 3.33368 10.8377 3.33382 10.8375 3.33396C10.8374 3.33408 10.8372 3.3342 10.8371 3.33433C10.837 3.33446 10.8368 3.33459 10.8367 3.33472C10.8364 3.33499 10.8361 3.33526 10.8358 3.33555C10.8355 3.33584 10.8352 3.33613 10.835 3.33642C10.8347 3.33672 10.8344 3.33701 10.8342 3.33729C10.834 3.33758 10.8338 3.33786 10.8336 3.33812C10.8335 3.33819 10.8335 3.33825 10.8334 3.33831Z" fill="black"/>
<path fill-rule="evenodd" clip-rule="evenodd" d="M4.1777 5.357C4.17589 5.35754 4.17399 5.35821 4.17207 5.359C4.17015 5.3598 4.16834 5.36067 4.16667 5.36157V10.1431C4.16667 10.1432 4.16667 10.1432 4.16667 10.1433C4.16676 10.3642 4.25458 10.5761 4.41083 10.7323L4.41092 10.7324L10.5893 16.9107C10.9147 17.2361 10.9147 17.7638 10.5893 18.0892C10.2638 18.4146 9.73618 18.4146 9.41074 18.0892L3.2325 11.911C3.23247 11.9109 3.23244 11.9109 3.23241 11.9109C2.76359 11.4421 2.50014 10.8064 2.5 10.1435V5.34578C2.5 5.34439 2.5 5.343 2.50001 5.34161C2.50732 3.87986 4.30345 3.13594 5.34217 4.16445C5.3432 4.16547 5.34423 4.16649 5.34525 4.16752L17.2561 16.085C17.5814 16.4105 17.5813 16.9382 17.2558 17.2635C16.9302 17.5889 16.4026 17.5887 16.0772 17.2632L4.1777 5.357Z" fill="black"/>
<path fill-rule="evenodd" clip-rule="evenodd" d="M9.76993 2.09096C10.1711 1.86542 10.6792 2.0078 10.9047 2.40898L17.9166 14.881C18.281 15.5299 18.1665 16.3538 17.6388 16.8787C17.6387 16.8788 17.6387 16.8789 17.6386 16.8789C17.6385 16.8791 17.6384 16.8792 17.6382 16.8793L16.6652 17.8482C16.3525 18.1592 15.9294 18.3335 15.4885 18.3332H5.29288C5.29275 18.3332 5.29262 18.3332 5.29249 18.3332C4.91403 18.3333 4.5468 18.2046 4.25121 17.9682L2.1879 16.3174C2.18784 16.3173 2.18777 16.3173 2.18771 16.3172C1.55839 15.8139 1.46409 15.0425 1.67959 14.4538C1.89198 13.8736 2.45231 13.3439 3.23957 13.349L6.71039 13.3715C7.17062 13.3745 7.54129 13.75 7.5383 14.2103C7.53532 14.6705 7.15981 15.0412 6.69958 15.0382L3.24967 15.0158C3.24944 15.0162 3.24921 15.0167 3.24898 15.0171C3.24818 15.0186 3.24742 15.0202 3.24669 15.0218C3.24631 15.0226 3.24595 15.0235 3.2456 15.0244C3.24528 15.0251 3.24498 15.0259 3.24469 15.0267C3.24452 15.0272 3.24437 15.0276 3.24421 15.0281L5.2921 16.6665H15.4898L16.4608 15.6997C16.4608 15.6997 16.4608 15.6997 16.4608 15.6997C16.461 15.6993 16.4611 15.6989 16.4612 15.6984C16.4613 15.6979 16.4614 15.6974 16.4615 15.6968C16.4615 15.6963 16.4616 15.6958 16.4616 15.6953C16.4616 15.6948 16.4616 15.6944 16.4616 15.694L9.45192 3.22576C9.22637 2.82458 9.36875 2.31651 9.76993 2.09096Z" fill="black"/>
</svg>
