<svg width="20" height="20" viewBox="0 0 20 20" fill="none" xmlns="http://www.w3.org/2000/svg">
<path fill-rule="evenodd" clip-rule="evenodd" d="M8.75185 1.16888C9.13147 0.950118 9.56192 0.834961 10.0001 0.834961C10.4382 0.834961 10.8687 0.950118 11.2483 1.16888C11.2489 1.16922 11.2495 1.16956 11.2501 1.1699L17.0802 4.50138C17.0813 4.502 17.0823 4.50261 17.0834 4.50323C17.4631 4.72243 17.7784 5.03762 17.9978 5.41718C18.2172 5.79674 18.333 6.22732 18.3334 6.66573V13.3341C18.333 13.7725 18.2172 14.2031 17.9978 14.5827C17.7784 14.9622 17.4631 15.2774 17.0834 15.4966C17.0823 15.4972 17.0813 15.4978 17.0802 15.4985L11.2501 18.8299C11.2495 18.8302 11.249 18.8306 11.2485 18.8309C10.8688 19.0497 10.4383 19.1649 10.0001 19.1649C9.56186 19.1649 9.13134 19.0497 8.75169 18.8309C8.75115 18.8306 8.75062 18.8302 8.75008 18.8299L2.91997 15.4985C2.91889 15.4978 2.91782 15.4972 2.91675 15.4966C2.53708 15.2774 2.22172 14.9622 2.00232 14.5827C1.78293 14.2031 1.6672 13.7725 1.66675 13.3341V6.66573C1.6672 6.22732 1.78293 5.79674 2.00232 5.41718C2.22172 5.03762 2.53708 4.72243 2.91675 4.50323C2.91782 4.50261 2.91889 4.502 2.91997 4.50138L8.75185 1.16888ZM10.0001 2.50163C9.8538 2.50163 9.7101 2.54013 9.58341 2.61327C9.58234 2.61389 9.58127 2.61451 9.5802 2.61512L3.74876 5.94737C3.62279 6.02041 3.51815 6.12518 3.44527 6.25126C3.3722 6.37767 3.33363 6.52107 3.33341 6.66708V13.3328C3.33363 13.4788 3.3722 13.6222 3.44527 13.7486C3.51814 13.8746 3.62276 13.9794 3.7487 14.0524C3.74916 14.0527 3.74962 14.053 3.75008 14.0532L9.5802 17.3847C9.58127 17.3853 9.58234 17.3859 9.58341 17.3866C9.7101 17.4597 9.8538 17.4982 10.0001 17.4982C10.1464 17.4982 10.2901 17.4597 10.4167 17.3866C10.4178 17.3859 10.4189 17.3853 10.42 17.3847L16.2501 14.0532C16.2505 14.053 16.251 14.0527 16.2514 14.0524C16.3774 13.9794 16.482 13.8746 16.5549 13.7486C16.628 13.6221 16.6666 13.4785 16.6667 13.3324V6.66744C16.6666 6.5213 16.628 6.37778 16.5549 6.25126C16.482 6.12517 16.3774 6.02039 16.2514 5.94736C16.2509 5.94711 16.2505 5.94686 16.2501 5.94661L10.42 2.61512C10.4189 2.61451 10.4178 2.61389 10.4167 2.61327C10.2901 2.54013 10.1464 2.50163 10.0001 2.50163Z" fill="black"/>
<path fill-rule="evenodd" clip-rule="evenodd" d="M10.0001 9.1665C10.4603 9.1665 10.8334 9.5396 10.8334 9.99984V18.3332C10.8334 18.7934 10.4603 19.1665 10.0001 19.1665C9.53984 19.1665 9.16675 18.7934 9.16675 18.3332V9.99984C9.16675 9.5396 9.53984 9.1665 10.0001 9.1665Z" fill="black"/>
<path fill-rule="evenodd" clip-rule="evenodd" d="M2.03998 5.39712C2.28096 5.00502 2.79417 4.8825 3.18628 5.12348L9.5933 9.06101C9.71753 9.13046 9.85752 9.16697 9.99995 9.16697C10.1424 9.16697 10.2824 9.13046 10.4066 9.06102L16.8136 5.12348C17.2057 4.8825 17.719 5.00502 17.9599 5.39712C18.2009 5.78923 18.0784 6.30245 17.6863 6.54343L11.2671 10.4884C11.2602 10.4927 11.2532 10.4968 11.2462 10.5009C10.867 10.7189 10.4373 10.8336 9.99995 10.8336C9.56258 10.8336 9.13286 10.7189 8.7537 10.5009C8.74667 10.4968 8.7397 10.4927 8.73279 10.4884L2.31363 6.54343C1.92152 6.30245 1.799 5.78923 2.03998 5.39712Z" fill="black"/>
<path fill-rule="evenodd" clip-rule="evenodd" d="M5.52669 3.14469C5.75527 2.74523 6.2644 2.6067 6.66386 2.83528L14.1639 7.12695C14.5633 7.35553 14.7018 7.86466 14.4733 8.26412C14.2447 8.66358 13.7356 8.80211 13.3361 8.57353L5.8361 4.28186C5.43664 4.05328 5.29811 3.54415 5.52669 3.14469Z" fill="black"/>
</svg>
