<svg width="20" height="20" viewBox="0 0 20 20" fill="none" xmlns="http://www.w3.org/2000/svg">
<path fill-rule="evenodd" clip-rule="evenodd" d="M8.75185 1.16888C9.13147 0.950118 9.56192 0.834961 10.0001 0.834961C10.4382 0.834961 10.8687 0.950118 11.2483 1.16888C11.2489 1.16922 11.2495 1.16956 11.2501 1.1699L17.0802 4.50138C17.0813 4.502 17.0823 4.50261 17.0834 4.50323C17.4631 4.72243 17.7784 5.03762 17.9978 5.41718C18.2172 5.79674 18.333 6.22732 18.3334 6.66573V8.33325C18.3334 8.79349 17.9603 9.16659 17.5001 9.16659C17.0398 9.16659 16.6667 8.79349 16.6667 8.33325V6.66744C16.6666 6.5213 16.628 6.37778 16.5549 6.25126C16.482 6.12517 16.3774 6.02039 16.2514 5.94736C16.2509 5.94711 16.2505 5.94686 16.2501 5.94661L10.42 2.61512C10.4189 2.61451 10.4178 2.61389 10.4167 2.61327C10.2901 2.54013 10.1464 2.50163 10.0001 2.50163C9.8538 2.50163 9.7101 2.54013 9.58341 2.61327C9.58234 2.61389 9.58127 2.61451 9.5802 2.61512L3.74876 5.94737C3.62279 6.02041 3.51815 6.12518 3.44527 6.25126C3.3722 6.37767 3.33363 6.52107 3.33341 6.66708V13.3328C3.33363 13.4788 3.3722 13.6222 3.44527 13.7486C3.51814 13.8746 3.62276 13.9794 3.7487 14.0524C3.74916 14.0527 3.74962 14.053 3.75008 14.0532L9.5802 17.3847C9.58127 17.3853 9.58234 17.3859 9.58341 17.3866C9.7101 17.4597 9.8538 17.4982 10.0001 17.4982C10.1464 17.4982 10.2901 17.4597 10.4167 17.3866C10.4181 17.3858 10.4194 17.385 10.4207 17.3843L12.0874 16.4343C12.4873 16.2064 12.9962 16.3457 13.2241 16.7456C13.452 17.1454 13.3126 17.6543 12.9127 17.8822L11.2501 18.8299C11.2494 18.8303 11.2487 18.8308 11.248 18.8312C10.8684 19.0498 10.4381 19.1649 10.0001 19.1649C9.56186 19.1649 9.13134 19.0497 8.75169 18.8309C8.75115 18.8306 8.75062 18.8302 8.75008 18.8299L2.91997 15.4985C2.91889 15.4978 2.91782 15.4972 2.91675 15.4966C2.53708 15.2774 2.22172 14.9622 2.00232 14.5827C1.78293 14.2031 1.6672 13.7725 1.66675 13.3341V6.66573C1.6672 6.22732 1.78293 5.79674 2.00232 5.41718C2.22172 5.03762 2.53708 4.72243 2.91675 4.50323C2.91782 4.50261 2.91889 4.502 2.91997 4.50138L8.75185 1.16888Z" fill="black"/>
<path fill-rule="evenodd" clip-rule="evenodd" d="M5.52669 3.14469C5.75527 2.74523 6.2644 2.6067 6.66386 2.83528L14.1639 7.12695C14.5633 7.35553 14.7018 7.86466 14.4733 8.26412C14.2447 8.66358 13.7356 8.80211 13.3361 8.57353L5.8361 4.28186C5.43664 4.05328 5.29811 3.54415 5.52669 3.14469Z" fill="black"/>
<path fill-rule="evenodd" clip-rule="evenodd" d="M2.01896 5.4186C2.24809 5.01945 2.75741 4.88163 3.15656 5.11076L10 9.03926L16.8435 5.11076C17.2426 4.88163 17.7519 5.01945 17.9811 5.4186C18.2102 5.81774 18.0724 6.32706 17.6732 6.55619L10.4149 10.7229C10.158 10.8703 9.84206 10.8703 9.58513 10.7229L2.3268 6.55619C1.92765 6.32706 1.78983 5.81774 2.01896 5.4186Z" fill="black"/>
<path fill-rule="evenodd" clip-rule="evenodd" d="M10.0001 9.1665C10.4603 9.1665 10.8334 9.5396 10.8334 9.99984V18.3332C10.8334 18.7934 10.4603 19.1665 10.0001 19.1665C9.53984 19.1665 9.16675 18.7934 9.16675 18.3332V9.99984C9.16675 9.5396 9.53984 9.1665 10.0001 9.1665Z" fill="black"/>
<path fill-rule="evenodd" clip-rule="evenodd" d="M15.4167 11.6667C14.7263 11.6667 14.1667 12.2263 14.1667 12.9167C14.1667 13.607 14.7263 14.1667 15.4167 14.1667C16.107 14.1667 16.6667 13.607 16.6667 12.9167C16.6667 12.2263 16.107 11.6667 15.4167 11.6667ZM12.5 12.9167C12.5 11.3058 13.8058 10 15.4167 10C17.0275 10 18.3333 11.3058 18.3333 12.9167C18.3333 14.5275 17.0275 15.8333 15.4167 15.8333C13.8058 15.8333 12.5 14.5275 12.5 12.9167Z" fill="black"/>
<path fill-rule="evenodd" clip-rule="evenodd" d="M16.3024 13.8022C16.6279 13.4767 17.1555 13.4767 17.4809 13.8022L18.9226 15.2438C19.248 15.5693 19.248 16.0969 18.9226 16.4224C18.5972 16.7478 18.0695 16.7478 17.7441 16.4224L16.3024 14.9807C15.977 14.6553 15.977 14.1276 16.3024 13.8022Z" fill="black"/>
</svg>
