<svg width="20" height="20" viewBox="0 0 20 20" fill="none" xmlns="http://www.w3.org/2000/svg">
<g clip-path="url(#clip0_2001_8790)">
<path fill-rule="evenodd" clip-rule="evenodd" d="M5.23745 1.12074C5.58921 0.934679 5.98113 0.837402 6.3791 0.837402C6.77831 0.837402 7.17142 0.935286 7.52402 1.12248L7.5265 1.1238L17.8241 6.6353C18.2246 6.85381 18.5605 7.17388 18.7981 7.56332C19.0358 7.95275 19.1668 8.39786 19.178 8.85395C19.1892 9.31003 19.0801 9.76102 18.8619 10.1616C18.6436 10.5623 18.3237 10.8984 17.9344 11.1363L17.9239 11.1426L14.7656 13.0093C14.759 13.0131 14.7524 13.0169 14.7458 13.0206C14.3748 13.2264 13.9575 13.3343 13.5333 13.3343C13.109 13.3343 12.6918 13.2264 12.3208 13.0206L12.3138 13.0168L2.12143 7.23658C1.72395 7.00454 1.39523 6.6711 1.16877 6.27041C0.942315 5.86973 0.826278 5.41612 0.832514 4.95591C0.83875 4.4957 0.967036 4.0454 1.20427 3.651C1.4415 3.2566 1.77917 2.93224 2.18279 2.71105L2.19848 2.70267L5.23745 1.12074ZM6.3791 2.50407C6.25239 2.50407 6.12761 2.53514 6.01569 2.59455L6.00972 2.59772L2.97718 4.17627C2.83519 4.25557 2.71635 4.37062 2.63248 4.51006C2.54732 4.65164 2.50127 4.81329 2.49903 4.97849C2.49679 5.14369 2.53844 5.30653 2.61974 5.45036C2.70031 5.59292 2.81695 5.71175 2.95793 5.79495L13.132 11.5647C13.2549 11.6322 13.3929 11.6677 13.5333 11.6677C13.6715 11.6677 13.8075 11.6333 13.9291 11.5676L17.0698 9.7114C17.2076 9.62617 17.3208 9.50653 17.3983 9.36423C17.4767 9.22042 17.5158 9.05853 17.5118 8.89481C17.5078 8.73108 17.4608 8.5713 17.3755 8.4315C17.2906 8.29251 17.1709 8.17813 17.0283 8.09973L6.7425 2.59455C6.74217 2.59438 6.74183 2.5942 6.7415 2.59402C6.62984 2.53495 6.50543 2.50407 6.3791 2.50407Z" fill="black"/>
<path fill-rule="evenodd" clip-rule="evenodd" d="M13.2583 2.59402C13.258 2.5942 13.2576 2.59438 13.2573 2.59455L2.97152 8.09974C2.82885 8.17814 2.70916 8.29251 2.62434 8.4315C2.53903 8.5713 2.49201 8.73108 2.48799 8.89481C2.48398 9.05853 2.52311 9.22042 2.60147 9.36423C2.679 9.50654 2.79224 9.62618 2.93001 9.71141L6.07066 11.5676C6.19224 11.6333 6.32827 11.6677 6.46654 11.6677C6.60706 11.6677 6.74528 11.6321 6.86836 11.5644L17.0786 5.79774C17.2165 5.71283 17.33 5.59344 17.4079 5.45128C17.4873 5.3063 17.5268 5.14285 17.5223 4.97761C17.5179 4.81238 17.4696 4.6513 17.3824 4.51084C17.2957 4.3711 17.1737 4.25676 17.0286 4.17938C17.0278 4.17899 17.0271 4.17859 17.0263 4.17819L13.9841 2.59458C13.8722 2.53516 13.7474 2.50407 13.6207 2.50407C13.4944 2.50407 13.37 2.53495 13.2583 2.59402ZM12.4758 1.12248C12.8284 0.935286 13.2215 0.837402 13.6207 0.837402C14.0187 0.837402 14.4106 0.934676 14.7623 1.12073L17.8067 2.70549C18.2136 2.92109 18.5559 3.24089 18.7987 3.63217C19.0414 4.02344 19.1759 4.47217 19.1884 4.93246C19.2009 5.39276 19.0909 5.84811 18.8697 6.25196C18.6485 6.6558 18.324 6.99366 17.9294 7.23098C17.9229 7.23489 17.9163 7.23872 17.9097 7.24245L7.67905 13.0206C7.30804 13.2264 6.89077 13.3343 6.46654 13.3343C6.0423 13.3343 5.62504 13.2264 5.25403 13.0206C5.24737 13.0169 5.24076 13.0131 5.2342 13.0093L2.07586 11.1426L2.06535 11.1363C1.67606 10.8984 1.35621 10.5623 1.13794 10.1616C0.919662 9.76103 0.810642 9.31003 0.821827 8.85395C0.833011 8.39786 0.964006 7.95275 1.20166 7.56332C1.43931 7.17388 1.77524 6.85384 2.17573 6.63532L2.18162 6.63211L12.4733 1.1238L12.4758 1.12248Z" fill="black"/>
<path fill-rule="evenodd" clip-rule="evenodd" d="M10.0001 10C10.4603 10 10.8334 10.3731 10.8334 10.8333V18.3333C10.8334 18.7936 10.4603 19.1667 10.0001 19.1667C9.53984 19.1667 9.16675 18.7936 9.16675 18.3333V10.8333C9.16675 10.3731 9.53984 10 10.0001 10Z" fill="black"/>
<path fill-rule="evenodd" clip-rule="evenodd" d="M3.33333 10.4165C3.79357 10.4165 4.16667 10.7896 4.16667 11.2498V14.0582C4.16667 14.1447 4.2034 14.3108 4.30799 14.4917C4.4105 14.6691 4.53617 14.7879 4.64126 14.843L9.64262 17.4104C9.85991 17.5233 10.1401 17.5233 10.3574 17.4104L10.3611 17.4085L15.3574 14.8437C15.3578 14.8435 15.3583 14.8433 15.3587 14.843C15.4638 14.788 15.5895 14.6691 15.692 14.4917C15.7966 14.3108 15.8333 14.1447 15.8333 14.0582V11.2498C15.8333 10.7896 16.2064 10.4165 16.6667 10.4165C17.1269 10.4165 17.5 10.7896 17.5 11.2498V14.0582C17.5 14.4967 17.3533 14.948 17.135 15.3258C16.915 15.7064 16.5788 16.0872 16.126 16.3226L16.1222 16.3245L11.126 18.8893C11.1253 18.8896 11.1246 18.89 11.1239 18.8904C10.4259 19.2522 9.57414 19.2522 8.87615 18.8904C8.87545 18.89 8.87475 18.8896 8.87405 18.8893L3.87402 16.3226C3.42119 16.0873 3.08503 15.7064 2.86503 15.3258C2.64667 14.948 2.5 14.4967 2.5 14.0582V11.2498C2.5 10.7896 2.8731 10.4165 3.33333 10.4165Z" fill="black"/>
</g>
<defs>
<clipPath id="clip0_2001_8790">
<rect width="20" height="20" fill="white"/>
</clipPath>
</defs>
</svg>
