<svg width="20" height="20" viewBox="0 0 20 20" fill="none" xmlns="http://www.w3.org/2000/svg">
<path fill-rule="evenodd" clip-rule="evenodd" d="M1.66675 7.49984C1.66675 7.0396 2.03984 6.6665 2.50008 6.6665H17.5001C17.9603 6.6665 18.3334 7.0396 18.3334 7.49984V15.8332C18.3334 16.4962 18.07 17.1321 17.6012 17.6009C17.1323 18.0698 16.4965 18.3332 15.8334 18.3332H4.16675C3.50371 18.3332 2.86782 18.0698 2.39898 17.6009C1.93014 17.1321 1.66675 16.4962 1.66675 15.8332V7.49984ZM3.33341 8.33317V15.8332C3.33341 16.0542 3.42121 16.2661 3.57749 16.4224C3.73377 16.5787 3.94573 16.6665 4.16675 16.6665H15.8334C16.0544 16.6665 16.2664 16.5787 16.4227 16.4224C16.5789 16.2661 16.6667 16.0542 16.6667 15.8332V8.33317H3.33341Z" fill="black"/>
<path fill-rule="evenodd" clip-rule="evenodd" d="M14.4128 3.45544C14.2803 3.37445 14.1278 3.33211 13.9725 3.33319C13.9706 3.3332 13.9686 3.33321 13.9667 3.33321L6.03171 3.33321C5.87711 3.3329 5.72548 3.37561 5.59376 3.45655C5.46234 3.53732 5.35592 3.65297 5.28634 3.79063C5.28618 3.79093 5.28603 3.79124 5.28588 3.79154L3.24538 7.87256C3.03955 8.2842 2.53899 8.45106 2.12734 8.24523C1.71569 8.03941 1.54884 7.53885 1.75466 7.1272L3.79633 3.04387C3.79672 3.04309 3.79711 3.04232 3.79749 3.04155C4.0062 2.62736 4.32601 2.2794 4.72115 2.03658C5.11605 1.79391 5.57062 1.6658 6.03411 1.66654H13.9641C14.4289 1.6639 14.8853 1.7909 15.2819 2.0333C15.6795 2.27626 16.0012 2.62548 16.2109 3.04156L16.2117 3.04315L16.2126 3.04508L18.246 7.12842C18.4511 7.5404 18.2835 8.04069 17.8715 8.24584C17.4595 8.45099 16.9592 8.28332 16.7541 7.87134L14.7225 3.79152C14.7222 3.79101 14.722 3.79051 14.7217 3.79C14.6518 3.65197 14.5449 3.53612 14.4128 3.45544Z" fill="black"/>
<path fill-rule="evenodd" clip-rule="evenodd" d="M10.0001 1.6665C10.4603 1.6665 10.8334 2.0396 10.8334 2.49984V7.49984C10.8334 7.96007 10.4603 8.33317 10.0001 8.33317C9.53984 8.33317 9.16675 7.96007 9.16675 7.49984V2.49984C9.16675 2.0396 9.53984 1.6665 10.0001 1.6665Z" fill="black"/>
</svg>
