<svg width="20" height="20" viewBox="0 0 20 20" fill="none" xmlns="http://www.w3.org/2000/svg">
<g clip-path="url(#clip0_2001_8834)">
<path fill-rule="evenodd" clip-rule="evenodd" d="M2.48099 12.2676C2.6021 11.8236 3.06022 11.5618 3.50424 11.6829L12.4042 14.1104C12.8483 14.2315 13.11 14.6896 12.9889 15.1336C12.8678 15.5777 12.4097 15.8394 11.9657 15.7183L3.06567 13.2908C2.62166 13.1697 2.35989 12.7116 2.48099 12.2676Z" fill="black"/>
<path fill-rule="evenodd" clip-rule="evenodd" d="M16.5642 2.50016C16.4413 2.50016 16.3196 2.52436 16.2061 2.57138C16.0926 2.6184 15.9895 2.68732 15.9026 2.7742L12.5534 6.12336L11.9642 5.53411L12.5533 6.12345C12.3189 6.35779 12.001 6.48944 11.6696 6.48944C11.3381 6.48944 11.0203 6.35779 10.7858 6.12345L11.375 5.53411L10.7858 6.12336L9.99913 5.33674C9.99912 5.33673 9.9991 5.33671 9.99909 5.3367C9.77874 5.11641 9.47992 4.99265 9.16834 4.99265C8.85676 4.99265 8.55794 5.11641 8.3376 5.3367C8.33758 5.33671 8.33757 5.33673 8.33755 5.33674L7.84562 5.82867L14.1721 12.1544L14.664 11.6624C14.6641 11.6624 14.6641 11.6624 14.6641 11.6624C14.8844 11.442 15.0081 11.1432 15.0081 10.8316C15.0081 10.52 14.8844 10.2212 14.6641 10.0009C14.6641 10.0009 14.6641 10.0008 14.664 10.0008L13.8774 9.2142L14.4684 8.62326L13.8773 9.21411C13.643 8.9797 13.5113 8.66182 13.5113 8.33036C13.5113 7.9989 13.643 7.68101 13.8773 7.44661L13.8773 7.44659L17.2257 4.09743L17.2258 4.09735C17.3126 4.01047 17.3816 3.90733 17.4286 3.79382C17.4756 3.68031 17.4998 3.55864 17.4998 3.43578C17.4998 3.31291 17.4756 3.19124 17.4286 3.07773C17.3816 2.96422 17.3126 2.86108 17.2258 2.7742C17.1389 2.68732 17.0357 2.6184 16.9222 2.57138C16.8087 2.52436 16.687 2.50016 16.5642 2.50016ZM15.3506 8.33032L15.8426 8.82235L15.8426 8.8224C16.3755 9.3553 16.6748 10.078 16.6748 10.8316C16.6748 11.5852 16.3755 12.3079 15.8426 12.8408L15.8426 12.8409L15.0559 13.6275L14.4667 13.0383L15.0558 13.6276C14.8214 13.862 14.5036 13.9936 14.1721 13.9936C13.8406 13.9936 13.5228 13.862 13.2883 13.6276L13.2883 13.6276L6.37233 6.71244C6.13799 6.47803 6.00635 6.16015 6.00635 5.82869C6.00635 5.49724 6.13799 5.17935 6.37233 4.94494L6.96078 5.53322L6.37242 4.94485L7.15909 4.15819L7.15913 4.15814C7.69203 3.62532 8.41476 3.32599 9.16834 3.32599C9.92193 3.32599 10.6447 3.62532 11.1776 4.15814L11.6696 4.65018L14.7241 1.59569C14.9657 1.35404 15.2526 1.16236 15.5683 1.03158C15.8841 0.900806 16.2224 0.833496 16.5642 0.833496C16.9059 0.833496 17.2443 0.900806 17.56 1.03158C17.8757 1.16236 18.1626 1.35404 18.4043 1.59569C18.6459 1.83733 18.8376 2.1242 18.9684 2.43993C19.0991 2.75565 19.1665 3.09404 19.1665 3.43578C19.1665 3.77751 19.0991 4.1159 18.9684 4.43162C18.8376 4.74732 18.6459 5.03416 18.4043 5.27579C18.4043 5.27582 18.4043 5.27584 18.4043 5.27586L15.3506 8.33032Z" fill="black"/>
<path fill-rule="evenodd" clip-rule="evenodd" d="M7.96179 5.97274C8.34491 6.22777 8.44874 6.74509 8.19371 7.12821C7.37063 8.36465 6.44315 9.18207 5.40415 9.73999C4.5868 10.1789 3.72441 10.4438 2.84228 10.6389L8.46598 17.4634C9.25731 16.9029 10.2773 15.9404 11.1101 14.9321C11.5395 14.4122 11.9014 13.9013 12.1514 13.4492C12.4148 12.9727 12.5 12.657 12.5 12.4998C12.5 12.0395 12.8731 11.6664 13.3333 11.6664C13.7936 11.6664 14.1667 12.0395 14.1667 12.4998C14.1667 13.0892 13.9117 13.7098 13.61 14.2556C13.2947 14.8257 12.8662 15.4231 12.3951 15.9935C11.4577 17.1285 10.281 18.2412 9.321 18.8989C9.29209 18.9187 9.26196 18.9367 9.23079 18.9527C8.90925 19.1179 8.54272 19.174 8.18648 19.1127C7.83024 19.0514 7.50359 18.8759 7.25579 18.6127C7.24321 18.5993 7.23107 18.5855 7.2194 18.5714L1.1194 11.1689C1.11842 11.1677 1.11744 11.1665 1.11647 11.1653C0.978603 10.9961 0.887219 10.7939 0.851326 10.5786C0.815433 10.3633 0.83627 10.1424 0.911782 9.93758C0.987295 9.7328 1.11488 9.55123 1.28194 9.41078C1.44848 9.27078 1.64852 9.17645 1.86246 9.13702C2.92284 8.93893 3.81809 8.69991 4.61567 8.27162C5.39938 7.85079 6.12607 7.22655 6.80633 6.20465C7.06136 5.82154 7.57868 5.71771 7.96179 5.97274Z" fill="black"/>
</g>
<defs>
<clipPath id="clip0_2001_8834">
<rect width="20" height="20" fill="white"/>
</clipPath>
</defs>
</svg>
