<svg width="20" height="20" viewBox="0 0 20 20" fill="none" xmlns="http://www.w3.org/2000/svg">
<g clip-path="url(#clip0_2001_8825)">
<path fill-rule="evenodd" clip-rule="evenodd" d="M3.33325 2.50016C2.87301 2.50016 2.49992 2.87326 2.49992 3.3335V5.00016C2.49992 5.4604 2.87301 5.8335 3.33325 5.8335H13.3333C13.7935 5.8335 14.1666 5.4604 14.1666 5.00016V3.3335C14.1666 2.87326 13.7935 2.50016 13.3333 2.50016H3.33325ZM0.833252 3.3335C0.833252 1.95278 1.95254 0.833496 3.33325 0.833496H13.3333C14.714 0.833496 15.8333 1.95278 15.8333 3.3335V5.00016C15.8333 6.38087 14.714 7.50016 13.3333 7.50016H3.33325C1.95254 7.50016 0.833252 6.38087 0.833252 5.00016V3.3335Z" fill="black"/>
<path fill-rule="evenodd" clip-rule="evenodd" d="M14.1667 4.16683C14.1667 3.70659 14.5398 3.3335 15 3.3335H16.6667C17.3297 3.3335 17.9656 3.59689 18.4344 4.06573C18.9033 4.53457 19.1667 5.17045 19.1667 5.8335V8.3335C19.1667 8.99654 18.9033 9.63242 18.4344 10.1013C17.9656 10.5701 17.3297 10.8335 16.6667 10.8335H10C9.77899 10.8335 9.56703 10.9213 9.41074 11.0776C9.25446 11.2339 9.16667 11.4458 9.16667 11.6668V13.3335C9.16667 13.7937 8.79357 14.1668 8.33333 14.1668C7.8731 14.1668 7.5 13.7937 7.5 13.3335V11.6668C7.5 11.0038 7.76339 10.3679 8.23223 9.89906C8.70107 9.43022 9.33696 9.16683 10 9.16683H16.6667C16.8877 9.16683 17.0996 9.07903 17.2559 8.92275C17.4122 8.76647 17.5 8.55451 17.5 8.3335V5.8335C17.5 5.61248 17.4122 5.40052 17.2559 5.24424C17.0996 5.08796 16.8877 5.00016 16.6667 5.00016H15C14.5398 5.00016 14.1667 4.62707 14.1667 4.16683Z" fill="black"/>
<path fill-rule="evenodd" clip-rule="evenodd" d="M7.49992 14.1667V17.5H9.16659V14.1667H7.49992ZM5.83325 14.1667C5.83325 13.2462 6.57944 12.5 7.49992 12.5H9.16659C10.0871 12.5 10.8333 13.2462 10.8333 14.1667V17.5C10.8333 18.4205 10.0871 19.1667 9.16659 19.1667H7.49992C6.57944 19.1667 5.83325 18.4205 5.83325 17.5V14.1667Z" fill="black"/>
</g>
<defs>
<clipPath id="clip0_2001_8825">
<rect width="20" height="20" fill="white"/>
</clipPath>
</defs>
</svg>
