<svg width="20" height="20" viewBox="0 0 20 20" fill="none" xmlns="http://www.w3.org/2000/svg">
<path fill-rule="evenodd" clip-rule="evenodd" d="M8.33333 0.833496C8.79357 0.833496 9.16667 1.20659 9.16667 1.66683V3.3335C9.16667 3.79373 8.79357 4.16683 8.33333 4.16683C7.8731 4.16683 7.5 3.79373 7.5 3.3335V1.66683C7.5 1.20659 7.8731 0.833496 8.33333 0.833496Z" fill="black"/>
<path fill-rule="evenodd" clip-rule="evenodd" d="M11.6666 0.833496C12.1268 0.833496 12.4999 1.20659 12.4999 1.66683V5.00016C12.4999 5.4604 12.1268 5.8335 11.6666 5.8335C11.2063 5.8335 10.8333 5.4604 10.8333 5.00016V1.66683C10.8333 1.20659 11.2063 0.833496 11.6666 0.833496Z" fill="black"/>
<path fill-rule="evenodd" clip-rule="evenodd" d="M4.6549 1.32165C4.96746 1.00909 5.39139 0.833496 5.83341 0.833496H14.1667C14.6088 0.833496 15.0327 1.00909 15.3453 1.32165C15.6578 1.63421 15.8334 2.05814 15.8334 2.50016V10.0002C15.8334 10.4604 15.4603 10.8335 15.0001 10.8335H5.00008C4.53984 10.8335 4.16675 10.4604 4.16675 10.0002V2.50016C4.16675 2.05813 4.34234 1.63421 4.6549 1.32165ZM14.1667 2.50016H5.83342L5.83341 9.16683H14.1667V2.50016Z" fill="black"/>
<path fill-rule="evenodd" clip-rule="evenodd" d="M3.82141 9.65466C4.13397 9.3421 4.55789 9.1665 4.99992 9.1665C5.46016 9.1665 5.83325 9.5396 5.83325 9.99984C5.83325 10.4601 5.46016 10.8332 4.99992 10.8332L4.99992 11.6665C4.99992 11.8875 5.08772 12.0995 5.244 12.2558C5.40028 12.412 5.61224 12.4998 5.83325 12.4998H7.49992C7.94194 12.4998 8.36587 12.6754 8.67843 12.988C8.99099 13.3006 9.16658 13.7245 9.16658 14.1665V16.5832C9.16658 16.8042 9.25438 17.0161 9.41066 17.1724C9.56694 17.3287 9.7789 17.4165 9.99992 17.4165C10.2209 17.4165 10.4329 17.3287 10.5892 17.1724C10.7455 17.0161 10.8333 16.8042 10.8333 16.5832V14.1665C10.8333 13.7245 11.0088 13.3006 11.3214 12.988C11.634 12.6754 12.0579 12.4998 12.4999 12.4998H14.1666C14.3876 12.4998 14.5996 12.412 14.7558 12.2558C14.9121 12.0995 14.9999 11.8875 14.9999 11.6665L14.9999 10.8332C14.5397 10.8332 14.1666 10.4601 14.1666 9.99984C14.1666 9.5396 14.5397 9.1665 14.9999 9.1665C15.4419 9.1665 15.8659 9.3421 16.1784 9.65466C16.491 9.96722 16.6666 10.3911 16.6666 10.8332V11.6665C16.6666 12.3295 16.4032 12.9654 15.9344 13.4343C15.4655 13.9031 14.8296 14.1665 14.1666 14.1665L12.4999 14.1665V16.5832C12.4999 17.2462 12.2365 17.8821 11.7677 18.3509C11.2988 18.8198 10.663 19.0832 9.99992 19.0832C9.33688 19.0832 8.70099 18.8198 8.23215 18.3509C7.76331 17.8821 7.49992 17.2462 7.49992 16.5832V14.1665H5.83325C5.17021 14.1665 4.53433 13.9031 4.06548 13.4343C3.59664 12.9654 3.33325 12.3295 3.33325 11.6665V10.8332C3.33325 10.3911 3.50885 9.96722 3.82141 9.65466Z" fill="black"/>
</svg>
