<svg width="20" height="20" viewBox="0 0 20 20" fill="none" xmlns="http://www.w3.org/2000/svg">
<g clip-path="url(#clip0_2001_8820)">
<path fill-rule="evenodd" clip-rule="evenodd" d="M8.57736 1.91058C8.9028 1.58514 9.43043 1.58514 9.75587 1.91058L16.4225 8.57725C16.748 8.90269 16.748 9.43032 16.4225 9.75576L9.25587 16.9224C8.26377 17.9145 6.73613 17.9145 5.74402 16.9224L1.41069 12.5891C1.40873 12.5871 1.40677 12.5852 1.40483 12.5832C0.946761 12.1158 0.690186 11.4876 0.690186 10.8332C0.690186 10.1788 0.946761 9.55049 1.40483 9.08317C1.40677 9.08119 1.40873 9.07921 1.41069 9.07725L8.57736 1.91058ZM2.59267 10.2523C2.44148 10.4078 2.35685 10.6162 2.35685 10.8332C2.35685 11.0501 2.44147 11.2585 2.59265 11.414L6.92254 15.7439C7.26377 16.0851 7.73613 16.0851 8.07736 15.7439L14.6548 9.1665L9.16661 3.67835L2.59267 10.2523Z" fill="black"/>
<path fill-rule="evenodd" clip-rule="evenodd" d="M3.57733 1.07757C3.90277 0.752137 4.4304 0.752137 4.75584 1.07757L8.92251 5.24424C9.24794 5.56968 9.24794 6.09732 8.92251 6.42275C8.59707 6.74819 8.06943 6.74819 7.744 6.42275L3.57733 2.25609C3.25189 1.93065 3.25189 1.40301 3.57733 1.07757Z" fill="black"/>
<path fill-rule="evenodd" clip-rule="evenodd" d="M0.833252 10.8333C0.833252 10.3731 1.20635 10 1.66659 10H14.1666C14.6268 10 14.9999 10.3731 14.9999 10.8333C14.9999 11.2936 14.6268 11.6667 14.1666 11.6667H1.66659C1.20635 11.6667 0.833252 11.2936 0.833252 10.8333Z" fill="black"/>
<path fill-rule="evenodd" clip-rule="evenodd" d="M16.6667 12.5C17.0678 12.5 17.4119 12.7856 17.4858 13.1798C17.564 13.5968 17.8145 13.9216 18.218 14.4448C18.2298 14.4601 18.2418 14.4756 18.2538 14.4912C18.6319 14.9817 19.1667 15.6864 19.1667 16.6667C19.1667 17.3297 18.9034 17.9656 18.4345 18.4344C17.9657 18.9033 17.3298 19.1667 16.6667 19.1667C16.0037 19.1667 15.3678 18.9033 14.899 18.4344C14.4301 17.9656 14.1667 17.3297 14.1667 16.6667C14.1667 15.6864 14.7016 14.9817 15.0797 14.4912C15.0917 14.4756 15.1037 14.4601 15.1155 14.4448C15.5189 13.9216 15.7695 13.5968 15.8477 13.1798C15.9216 12.7856 16.2657 12.5 16.6667 12.5ZM16.3997 15.5088C16.0069 16.0183 15.8334 16.3136 15.8334 16.6667C15.8334 16.8877 15.9212 17.0996 16.0775 17.2559C16.2338 17.4122 16.4457 17.5 16.6667 17.5C16.8878 17.5 17.0997 17.4122 17.256 17.2559C17.4123 17.0996 17.5001 16.8877 17.5001 16.6667C17.5001 16.3136 17.3266 16.0183 16.9338 15.5088C16.9051 15.4715 16.8748 15.4327 16.8434 15.3924C16.7876 15.3209 16.728 15.2446 16.6667 15.1635C16.6055 15.2446 16.5459 15.3209 16.4901 15.3924C16.4587 15.4327 16.4284 15.4715 16.3997 15.5088Z" fill="black"/>
</g>
<defs>
<clipPath id="clip0_2001_8820">
<rect width="20" height="20" fill="white"/>
</clipPath>
</defs>
</svg>
