<svg width="20" height="20" viewBox="0 0 20 20" fill="none" xmlns="http://www.w3.org/2000/svg">
<g clip-path="url(#clip0_2001_8838)">
<path d="M11.2499 5.83333C11.48 5.83333 11.6666 5.64679 11.6666 5.41667C11.6666 5.18655 11.48 5 11.2499 5C11.0198 5 10.8333 5.18655 10.8333 5.41667C10.8333 5.64679 11.0198 5.83333 11.2499 5.83333Z" fill="black"/>
<path fill-rule="evenodd" clip-rule="evenodd" d="M11.25 5.83317C11.4801 5.83317 11.6667 5.64662 11.6667 5.4165C11.6667 5.18639 11.4801 4.99984 11.25 4.99984C11.0199 4.99984 10.8333 5.18639 10.8333 5.4165C10.8333 5.64662 11.0199 5.83317 11.25 5.83317ZM10 5.4165C10 4.72615 10.5596 4.1665 11.25 4.1665C11.9404 4.1665 12.5 4.72615 12.5 5.4165C12.5 6.10686 11.9404 6.6665 11.25 6.6665C10.5596 6.6665 10 6.10686 10 5.4165Z" fill="black"/>
<path d="M14.5834 9.16683C14.8135 9.16683 15.0001 8.98028 15.0001 8.75016C15.0001 8.52004 14.8135 8.3335 14.5834 8.3335C14.3533 8.3335 14.1667 8.52004 14.1667 8.75016C14.1667 8.98028 14.3533 9.16683 14.5834 9.16683Z" fill="black"/>
<path fill-rule="evenodd" clip-rule="evenodd" d="M14.5833 9.16667C14.8134 9.16667 14.9999 8.98012 14.9999 8.75C14.9999 8.51988 14.8134 8.33333 14.5833 8.33333C14.3531 8.33333 14.1666 8.51988 14.1666 8.75C14.1666 8.98012 14.3531 9.16667 14.5833 9.16667ZM13.3333 8.75C13.3333 8.05964 13.8929 7.5 14.5833 7.5C15.2736 7.5 15.8333 8.05964 15.8333 8.75C15.8333 9.44036 15.2736 10 14.5833 10C13.8929 10 13.3333 9.44036 13.3333 8.75Z" fill="black"/>
<path d="M7.08341 6.66683C7.31353 6.66683 7.50008 6.48028 7.50008 6.25016C7.50008 6.02004 7.31353 5.8335 7.08341 5.8335C6.8533 5.8335 6.66675 6.02004 6.66675 6.25016C6.66675 6.48028 6.8533 6.66683 7.08341 6.66683Z" fill="black"/>
<path fill-rule="evenodd" clip-rule="evenodd" d="M7.08325 6.66667C7.31337 6.66667 7.49992 6.48012 7.49992 6.25C7.49992 6.01988 7.31337 5.83333 7.08325 5.83333C6.85313 5.83333 6.66659 6.01988 6.66659 6.25C6.66659 6.48012 6.85313 6.66667 7.08325 6.66667ZM5.83325 6.25C5.83325 5.55964 6.3929 5 7.08325 5C7.77361 5 8.33325 5.55964 8.33325 6.25C8.33325 6.94036 7.77361 7.5 7.08325 7.5C6.3929 7.5 5.83325 6.94036 5.83325 6.25Z" fill="black"/>
<path d="M5.41667 10.8333C5.64679 10.8333 5.83333 10.6468 5.83333 10.4167C5.83333 10.1865 5.64679 10 5.41667 10C5.18655 10 5 10.1865 5 10.4167C5 10.6468 5.18655 10.8333 5.41667 10.8333Z" fill="black"/>
<path fill-rule="evenodd" clip-rule="evenodd" d="M5.41675 10.8332C5.64687 10.8332 5.83341 10.6466 5.83341 10.4165C5.83341 10.1864 5.64687 9.99984 5.41675 9.99984C5.18663 9.99984 5.00008 10.1864 5.00008 10.4165C5.00008 10.6466 5.18663 10.8332 5.41675 10.8332ZM4.16675 10.4165C4.16675 9.72615 4.72639 9.1665 5.41675 9.1665C6.1071 9.1665 6.66675 9.72615 6.66675 10.4165C6.66675 11.1069 6.1071 11.6665 5.41675 11.6665C4.72639 11.6665 4.16675 11.1069 4.16675 10.4165Z" fill="black"/>
<path fill-rule="evenodd" clip-rule="evenodd" d="M0.833252 10.0002C0.833252 4.95659 4.95635 0.833496 9.99992 0.833496C14.9169 0.833496 19.1344 4.46002 19.1599 9.02884C19.1599 9.03039 19.1599 9.03194 19.1599 9.0335C19.1599 12.0364 16.7 14.4952 13.6974 14.4952H12.0341C12.0293 14.4952 12.0245 14.4951 12.0197 14.495C11.9482 14.4938 11.8771 14.507 11.8107 14.5338C11.7443 14.5606 11.684 14.6006 11.6334 14.6512C11.5828 14.7018 11.5429 14.7621 11.5161 14.8284C11.4893 14.8948 11.4761 14.9659 11.4773 15.0375C11.4774 15.0423 11.4774 15.047 11.4774 15.0518C11.4774 15.2471 11.5279 15.3299 11.5973 15.3991C11.6095 15.4112 11.6213 15.4237 11.6328 15.4366C11.9639 15.8103 12.2066 16.3332 12.2066 16.9268C12.2066 18.151 11.2526 19.1668 9.99992 19.1668C4.95635 19.1668 0.833252 15.0437 0.833252 10.0002ZM9.99992 2.50016C5.87682 2.50016 2.49992 5.87707 2.49992 10.0002C2.49992 14.1233 5.87682 17.5002 9.99992 17.5002C10.2906 17.5002 10.5399 17.2727 10.5399 16.9268C10.5399 16.7975 10.4871 16.663 10.397 16.5554C10.001 16.1484 9.81227 15.6375 9.81076 15.0588C9.8067 14.7661 9.86111 14.4754 9.97084 14.2039C10.0815 13.9302 10.2461 13.6815 10.4549 13.4727C10.6637 13.2639 10.9124 13.0992 11.1862 12.9886C11.4575 12.8789 11.7479 12.8245 12.0404 12.8285H13.6974C15.7791 12.8285 17.492 11.1168 17.4932 9.03576C17.4723 5.5589 14.1836 2.50016 9.99992 2.50016Z" fill="black"/>
</g>
<defs>
<clipPath id="clip0_2001_8838">
<rect width="20" height="20" fill="white"/>
</clipPath>
</defs>
</svg>
