<svg width="20" height="20" viewBox="0 0 20 20" fill="none" xmlns="http://www.w3.org/2000/svg">
<path fill-rule="evenodd" clip-rule="evenodd" d="M4.16675 3.33317C3.70651 3.33317 3.33341 3.70627 3.33341 4.1665V15.8332C3.33341 16.2934 3.70651 16.6665 4.16675 16.6665H15.8334C16.2937 16.6665 16.6667 16.2934 16.6667 15.8332V4.1665C16.6667 3.70627 16.2937 3.33317 15.8334 3.33317H4.16675ZM1.66675 4.1665C1.66675 2.78579 2.78604 1.6665 4.16675 1.6665H15.8334C17.2141 1.6665 18.3334 2.78579 18.3334 4.1665V15.8332C18.3334 17.2139 17.2141 18.3332 15.8334 18.3332H4.16675C2.78604 18.3332 1.66675 17.2139 1.66675 15.8332V4.1665Z" fill="black"/>
<path fill-rule="evenodd" clip-rule="evenodd" d="M12.5001 10.8335C12.9603 10.8335 13.3334 11.2066 13.3334 11.6668V12.5002C13.3334 12.9604 12.9603 13.3335 12.5001 13.3335C12.0398 13.3335 11.6667 12.9604 11.6667 12.5002V11.6668C11.6667 11.2066 12.0398 10.8335 12.5001 10.8335Z" fill="black"/>
<path fill-rule="evenodd" clip-rule="evenodd" d="M12.5001 15C12.9603 15 13.3334 15.3731 13.3334 15.8333V17.5C13.3334 17.9602 12.9603 18.3333 12.5001 18.3333C12.0398 18.3333 11.6667 17.9602 11.6667 17.5V15.8333C11.6667 15.3731 12.0398 15 12.5001 15Z" fill="black"/>
<path fill-rule="evenodd" clip-rule="evenodd" d="M12.5001 1.6665C12.9603 1.6665 13.3334 2.0396 13.3334 2.49984V4.1665C13.3334 4.62674 12.9603 4.99984 12.5001 4.99984C12.0398 4.99984 11.6667 4.62674 11.6667 4.1665V2.49984C11.6667 2.0396 12.0398 1.6665 12.5001 1.6665Z" fill="black"/>
<path fill-rule="evenodd" clip-rule="evenodd" d="M12.5001 6.6665C12.9603 6.6665 13.3334 7.0396 13.3334 7.49984V8.33317C13.3334 8.79341 12.9603 9.1665 12.5001 9.1665C12.0398 9.1665 11.6667 8.79341 11.6667 8.33317V7.49984C11.6667 7.0396 12.0398 6.6665 12.5001 6.6665Z" fill="black"/>
</svg>
