<svg width="20" height="20" viewBox="0 0 20 20" fill="none" xmlns="http://www.w3.org/2000/svg">
<path fill-rule="evenodd" clip-rule="evenodd" d="M4.16675 3.33317C3.70651 3.33317 3.33341 3.70627 3.33341 4.1665V15.8332C3.33341 16.2934 3.70651 16.6665 4.16675 16.6665H15.8334C16.2937 16.6665 16.6667 16.2934 16.6667 15.8332V4.1665C16.6667 3.70627 16.2937 3.33317 15.8334 3.33317H4.16675ZM1.66675 4.1665C1.66675 2.78579 2.78604 1.6665 4.16675 1.6665H15.8334C17.2141 1.6665 18.3334 2.78579 18.3334 4.1665V15.8332C18.3334 17.2139 17.2141 18.3332 15.8334 18.3332H4.16675C2.78604 18.3332 1.66675 17.2139 1.66675 15.8332V4.1665Z" fill="black"/>
<path fill-rule="evenodd" clip-rule="evenodd" d="M7.50008 1.6665C7.96032 1.6665 8.33341 2.0396 8.33341 2.49984V17.4998C8.33341 17.9601 7.96032 18.3332 7.50008 18.3332C7.03984 18.3332 6.66675 17.9601 6.66675 17.4998V2.49984C6.66675 2.0396 7.03984 1.6665 7.50008 1.6665Z" fill="black"/>
<path fill-rule="evenodd" clip-rule="evenodd" d="M13.9226 6.91058C14.248 7.23602 14.248 7.76366 13.9226 8.08909L12.0118 9.99984L13.9226 11.9106C14.248 12.236 14.248 12.7637 13.9226 13.0891C13.5972 13.4145 13.0695 13.4145 12.7441 13.0891L10.2441 10.5891C9.91864 10.2637 9.91864 9.73602 10.2441 9.41058L12.7441 6.91058C13.0695 6.58514 13.5972 6.58514 13.9226 6.91058Z" fill="black"/>
</svg>
