<svg width="20" height="20" viewBox="0 0 20 20" fill="none" xmlns="http://www.w3.org/2000/svg">
<path fill-rule="evenodd" clip-rule="evenodd" d="M4.16675 3.33317C3.70651 3.33317 3.33341 3.70627 3.33341 4.1665V15.8332C3.33341 16.2934 3.70651 16.6665 4.16675 16.6665H15.8334C16.2937 16.6665 16.6667 16.2934 16.6667 15.8332V4.1665C16.6667 3.70627 16.2937 3.33317 15.8334 3.33317H4.16675ZM1.66675 4.1665C1.66675 2.78579 2.78604 1.6665 4.16675 1.6665H15.8334C17.2141 1.6665 18.3334 2.78579 18.3334 4.1665V15.8332C18.3334 17.2139 17.2141 18.3332 15.8334 18.3332H4.16675C2.78604 18.3332 1.66675 17.2139 1.66675 15.8332V4.1665Z" fill="black"/>
<path fill-rule="evenodd" clip-rule="evenodd" d="M10.8333 12.4998C10.8333 12.0396 11.2063 11.6665 11.6666 11.6665H12.4999C12.9602 11.6665 13.3333 12.0396 13.3333 12.4998C13.3333 12.9601 12.9602 13.3332 12.4999 13.3332H11.6666C11.2063 13.3332 10.8333 12.9601 10.8333 12.4998Z" fill="black"/>
<path fill-rule="evenodd" clip-rule="evenodd" d="M15 12.4998C15 12.0396 15.3731 11.6665 15.8333 11.6665H17.5C17.9602 11.6665 18.3333 12.0396 18.3333 12.4998C18.3333 12.9601 17.9602 13.3332 17.5 13.3332H15.8333C15.3731 13.3332 15 12.9601 15 12.4998Z" fill="black"/>
<path fill-rule="evenodd" clip-rule="evenodd" d="M1.66675 12.4998C1.66675 12.0396 2.03984 11.6665 2.50008 11.6665H4.16675C4.62699 11.6665 5.00008 12.0396 5.00008 12.4998C5.00008 12.9601 4.62699 13.3332 4.16675 13.3332H2.50008C2.03984 13.3332 1.66675 12.9601 1.66675 12.4998Z" fill="black"/>
<path fill-rule="evenodd" clip-rule="evenodd" d="M6.66675 12.4998C6.66675 12.0396 7.03984 11.6665 7.50008 11.6665H8.33341C8.79365 11.6665 9.16675 12.0396 9.16675 12.4998C9.16675 12.9601 8.79365 13.3332 8.33341 13.3332H7.50008C7.03984 13.3332 6.66675 12.9601 6.66675 12.4998Z" fill="black"/>
</svg>
