<svg width="20" height="20" viewBox="0 0 20 20" fill="none" xmlns="http://www.w3.org/2000/svg">
<path fill-rule="evenodd" clip-rule="evenodd" d="M4.16675 3.33317C3.70651 3.33317 3.33341 3.70627 3.33341 4.1665V15.8332C3.33341 16.2934 3.70651 16.6665 4.16675 16.6665H15.8334C16.2937 16.6665 16.6667 16.2934 16.6667 15.8332V4.1665C16.6667 3.70627 16.2937 3.33317 15.8334 3.33317H4.16675ZM1.66675 4.1665C1.66675 2.78579 2.78604 1.6665 4.16675 1.6665H15.8334C17.2141 1.6665 18.3334 2.78579 18.3334 4.1665V15.8332C18.3334 17.2139 17.2141 18.3332 15.8334 18.3332H4.16675C2.78604 18.3332 1.66675 17.2139 1.66675 15.8332V4.1665Z" fill="black"/>
<path fill-rule="evenodd" clip-rule="evenodd" d="M10.8333 7.49984C10.8333 7.0396 11.2063 6.6665 11.6666 6.6665H12.4999C12.9602 6.6665 13.3333 7.0396 13.3333 7.49984C13.3333 7.96007 12.9602 8.33317 12.4999 8.33317H11.6666C11.2063 8.33317 10.8333 7.96007 10.8333 7.49984Z" fill="black"/>
<path fill-rule="evenodd" clip-rule="evenodd" d="M15 7.49984C15 7.0396 15.3731 6.6665 15.8333 6.6665H17.5C17.9602 6.6665 18.3333 7.0396 18.3333 7.49984C18.3333 7.96007 17.9602 8.33317 17.5 8.33317H15.8333C15.3731 8.33317 15 7.96007 15 7.49984Z" fill="black"/>
<path fill-rule="evenodd" clip-rule="evenodd" d="M1.66675 7.49984C1.66675 7.0396 2.03984 6.6665 2.50008 6.6665H4.16675C4.62699 6.6665 5.00008 7.0396 5.00008 7.49984C5.00008 7.96007 4.62699 8.33317 4.16675 8.33317H2.50008C2.03984 8.33317 1.66675 7.96007 1.66675 7.49984Z" fill="black"/>
<path fill-rule="evenodd" clip-rule="evenodd" d="M6.66675 7.49984C6.66675 7.0396 7.03984 6.6665 7.50008 6.6665H8.33341C8.79365 6.6665 9.16675 7.0396 9.16675 7.49984C9.16675 7.96007 8.79365 8.33317 8.33341 8.33317H7.50008C7.03984 8.33317 6.66675 7.96007 6.66675 7.49984Z" fill="black"/>
</svg>
