<svg width="20" height="20" viewBox="0 0 20 20" fill="none" xmlns="http://www.w3.org/2000/svg">
<path fill-rule="evenodd" clip-rule="evenodd" d="M4.16675 3.33317C3.70651 3.33317 3.33341 3.70627 3.33341 4.1665V15.8332C3.33341 16.2934 3.70651 16.6665 4.16675 16.6665H15.8334C16.2937 16.6665 16.6667 16.2934 16.6667 15.8332V4.1665C16.6667 3.70627 16.2937 3.33317 15.8334 3.33317H4.16675ZM1.66675 4.1665C1.66675 2.78579 2.78604 1.6665 4.16675 1.6665H15.8334C17.2141 1.6665 18.3334 2.78579 18.3334 4.1665V15.8332C18.3334 17.2139 17.2141 18.3332 15.8334 18.3332H4.16675C2.78604 18.3332 1.66675 17.2139 1.66675 15.8332V4.1665Z" fill="black"/>
<path fill-rule="evenodd" clip-rule="evenodd" d="M12.5001 1.6665C12.9603 1.6665 13.3334 2.0396 13.3334 2.49984V17.4998C13.3334 17.9601 12.9603 18.3332 12.5001 18.3332C12.0398 18.3332 11.6667 17.9601 11.6667 17.4998V2.49984C11.6667 2.0396 12.0398 1.6665 12.5001 1.6665Z" fill="black"/>
<path fill-rule="evenodd" clip-rule="evenodd" d="M8.92259 6.91058C9.24803 7.23602 9.24803 7.76366 8.92259 8.08909L7.01184 9.99984L8.92259 11.9106C9.24803 12.236 9.24803 12.7637 8.92259 13.0891C8.59715 13.4145 8.06951 13.4145 7.74408 13.0891L5.24408 10.5891C4.91864 10.2637 4.91864 9.73602 5.24408 9.41058L7.74408 6.91058C8.06951 6.58514 8.59715 6.58514 8.92259 6.91058Z" fill="black"/>
</svg>
