<svg width="20" height="20" viewBox="0 0 20 20" fill="none" xmlns="http://www.w3.org/2000/svg">
<path fill-rule="evenodd" clip-rule="evenodd" d="M4.16675 3.33317C3.70651 3.33317 3.33341 3.70627 3.33341 4.1665V15.8332C3.33341 16.2934 3.70651 16.6665 4.16675 16.6665H15.8334C16.2937 16.6665 16.6667 16.2934 16.6667 15.8332V4.1665C16.6667 3.70627 16.2937 3.33317 15.8334 3.33317H4.16675ZM1.66675 4.1665C1.66675 2.78579 2.78604 1.6665 4.16675 1.6665H15.8334C17.2141 1.6665 18.3334 2.78579 18.3334 4.1665V15.8332C18.3334 17.2139 17.2141 18.3332 15.8334 18.3332H4.16675C2.78604 18.3332 1.66675 17.2139 1.66675 15.8332V4.1665Z" fill="black"/>
<path fill-rule="evenodd" clip-rule="evenodd" d="M7.50008 10.8335C7.96032 10.8335 8.33341 11.2066 8.33341 11.6668V12.5002C8.33341 12.9604 7.96032 13.3335 7.50008 13.3335C7.03984 13.3335 6.66675 12.9604 6.66675 12.5002V11.6668C6.66675 11.2066 7.03984 10.8335 7.50008 10.8335Z" fill="black"/>
<path fill-rule="evenodd" clip-rule="evenodd" d="M7.50008 15C7.96032 15 8.33341 15.3731 8.33341 15.8333V17.5C8.33341 17.9602 7.96032 18.3333 7.50008 18.3333C7.03984 18.3333 6.66675 17.9602 6.66675 17.5V15.8333C6.66675 15.3731 7.03984 15 7.50008 15Z" fill="black"/>
<path fill-rule="evenodd" clip-rule="evenodd" d="M7.50008 1.6665C7.96032 1.6665 8.33341 2.0396 8.33341 2.49984V4.1665C8.33341 4.62674 7.96032 4.99984 7.50008 4.99984C7.03984 4.99984 6.66675 4.62674 6.66675 4.1665V2.49984C6.66675 2.0396 7.03984 1.6665 7.50008 1.6665Z" fill="black"/>
<path fill-rule="evenodd" clip-rule="evenodd" d="M7.50008 6.6665C7.96032 6.6665 8.33341 7.0396 8.33341 7.49984V8.33317C8.33341 8.79341 7.96032 9.1665 7.50008 9.1665C7.03984 9.1665 6.66675 8.79341 6.66675 8.33317V7.49984C6.66675 7.0396 7.03984 6.6665 7.50008 6.6665Z" fill="black"/>
</svg>
