<svg width="20" height="20" viewBox="0 0 20 20" fill="none" xmlns="http://www.w3.org/2000/svg">
<path fill-rule="evenodd" clip-rule="evenodd" d="M14.4071 3.23566C13.9369 2.76633 13.2996 2.503 12.6353 2.50358C11.971 2.50417 11.3341 2.76863 10.8648 3.23878L3.72259 10.381C2.94066 11.1629 2.50138 12.2234 2.50138 13.3292C2.50138 14.435 2.94066 15.4955 3.72259 16.2775C4.50451 17.0594 5.56502 17.4987 6.67083 17.4987C7.77664 17.4987 8.83715 17.0594 9.61907 16.2775L17.2774 8.61913C17.6028 8.29369 18.1305 8.29369 18.4559 8.61913C18.7814 8.94456 18.7814 9.4722 18.4559 9.79764L10.7976 17.456C9.7031 18.5505 8.21866 19.1653 6.67083 19.1653C5.123 19.1653 3.63856 18.5505 2.54407 17.456C1.44959 16.3615 0.834717 14.877 0.834717 13.3292C0.834717 11.7814 1.44959 10.2969 2.54407 9.20246L9.68522 2.06131C9.68532 2.06121 9.68543 2.06111 9.68553 2.06101C10.4671 1.27821 11.5276 0.837892 12.6338 0.836916C13.7402 0.835939 14.8016 1.2745 15.5846 2.05611C16.3676 2.83772 16.808 3.89836 16.809 5.0047C16.8099 6.11104 16.3714 7.17246 15.5898 7.95545L15.5886 7.95666L8.43092 15.0976C8.43083 15.0977 8.43074 15.0978 8.43065 15.0979C7.96166 15.5668 7.32566 15.8301 6.6625 15.8301C5.99921 15.8301 5.36309 15.5667 4.89407 15.0976C4.42506 14.6286 4.16157 13.9925 4.16157 13.3292C4.16157 12.6659 4.42506 12.0298 4.89407 11.5608L11.9694 4.49378C12.2951 4.16853 12.8227 4.16884 13.1479 4.49447C13.4732 4.8201 13.4729 5.34774 13.1472 5.67298L6.07259 12.7393C5.91613 12.8958 5.82824 13.108 5.82824 13.3292C5.82824 13.5505 5.91613 13.7627 6.07259 13.9191C6.22904 14.0756 6.44124 14.1635 6.6625 14.1635C6.88376 14.1635 7.09595 14.0756 7.25241 13.9191L14.4102 6.77798C14.4105 6.77773 14.4107 6.77749 14.411 6.77724C14.8798 6.30716 15.1429 5.67014 15.1423 5.00617C15.1417 4.34186 14.8773 3.70498 14.4071 3.23566Z" fill="black"/>
</svg>
