<svg width="20" height="20" viewBox="0 0 20 20" fill="none" xmlns="http://www.w3.org/2000/svg">
<path fill-rule="evenodd" clip-rule="evenodd" d="M7.33333 1.99989C7.60889 2.3673 7.53517 2.88821 7.16899 3.1648C7.16867 3.16505 7.16808 3.1655 7.16725 3.16615C7.16437 3.16838 7.15849 3.17296 7.14981 3.17991C7.13244 3.1938 7.1039 3.2171 7.06576 3.24979C6.98944 3.31521 6.87503 3.41795 6.73509 3.55789C6.45479 3.83819 6.07483 4.26496 5.69337 4.83714C4.93262 5.97828 4.16667 7.69514 4.16667 9.99989C4.16667 12.3046 4.93262 14.0215 5.69337 15.1626C6.07483 15.7348 6.45479 16.1616 6.73509 16.4419C6.87503 16.5818 6.98944 16.6846 7.06576 16.75C7.1039 16.7827 7.13244 16.806 7.14981 16.8199C7.15849 16.8268 7.16437 16.8314 7.16725 16.8336C7.16808 16.8343 7.16866 16.8347 7.16898 16.835C7.53517 17.1116 7.6089 17.6325 7.33333 17.9999C7.05719 18.3681 6.53486 18.4427 6.16667 18.1666L6.66667 17.4999C6.16667 18.1666 6.16634 18.1663 6.166 18.1661L6.16355 18.1642C6.16231 18.1633 6.16086 18.1622 6.15921 18.1609C6.15592 18.1584 6.15183 18.1553 6.14696 18.1515C6.13722 18.144 6.12439 18.1339 6.10865 18.1213C6.07719 18.0961 6.03412 18.0608 5.98111 18.0154C5.87514 17.9246 5.72914 17.7929 5.55658 17.6204C5.21188 17.2757 4.75851 16.765 4.30662 16.0871C3.40072 14.7283 2.5 12.6951 2.5 9.99989C2.5 7.30463 3.40072 5.2715 4.30662 3.91264C4.75851 3.23481 5.21188 2.72408 5.55658 2.37938C5.72914 2.20682 5.87514 2.07519 5.98111 1.98436C6.03412 1.93892 6.07719 1.90363 6.10865 1.87846C6.12439 1.86587 6.13722 1.85581 6.14696 1.84827C6.15183 1.84451 6.15592 1.84137 6.15921 1.83886C6.16009 1.83819 6.16091 1.83757 6.16167 1.83699C6.16234 1.83648 6.16297 1.83601 6.16355 1.83557L6.16526 1.83428L6.166 1.83372C6.16634 1.83346 6.16667 1.83322 6.66667 2.49989L6.16667 1.83322C6.53486 1.55708 7.05719 1.6317 7.33333 1.99989ZM7.16929 16.8352C7.16931 16.8352 7.16929 16.8352 7.16924 16.8352L7.16929 16.8352Z" fill="black"/>
<path fill-rule="evenodd" clip-rule="evenodd" d="M12.6667 1.99989C12.9429 1.6317 13.4652 1.55708 13.8334 1.83322L13.3334 2.49989C13.8334 1.83322 13.8337 1.83346 13.834 1.83372L13.8348 1.83428L13.8365 1.83557C13.8377 1.83651 13.8392 1.8376 13.8408 1.83886C13.8441 1.84137 13.8482 1.84451 13.8531 1.84827C13.8628 1.85581 13.8757 1.86587 13.8914 1.87846C13.9229 1.90363 13.9659 1.93892 14.0189 1.98436C14.1249 2.07519 14.2709 2.20682 14.4435 2.37938C14.7882 2.72408 15.2415 3.23481 15.6934 3.91264C16.5993 5.2715 17.5 7.30463 17.5 9.99989C17.5 12.6951 16.5993 14.7283 15.6934 16.0871C15.2415 16.765 14.7882 17.2757 14.4435 17.6204C14.2709 17.7929 14.1249 17.9246 14.0189 18.0154C13.9659 18.0608 13.9229 18.0961 13.8914 18.1213C13.8757 18.1339 13.8628 18.144 13.8531 18.1515C13.8482 18.1553 13.8441 18.1584 13.8408 18.1609C13.8392 18.1622 13.8377 18.1633 13.8365 18.1642L13.8348 18.1655L13.834 18.1661C13.8337 18.1663 13.8334 18.1666 13.3334 17.4999L13.8334 18.1666C13.4652 18.4427 12.9429 18.3681 12.6667 17.9999C12.3912 17.6325 12.4649 17.1116 12.8311 16.835C12.8314 16.8347 12.832 16.8343 12.8328 16.8336C12.8357 16.8314 12.8416 16.8268 12.8502 16.8199C12.8676 16.806 12.8961 16.7827 12.9343 16.75C13.0106 16.6846 13.125 16.5818 13.265 16.4419C13.5453 16.1616 13.9252 15.7348 14.3067 15.1626C15.0674 14.0215 15.8334 12.3046 15.8334 9.99989C15.8334 7.69514 15.0674 5.97828 14.3067 4.83714C13.9252 4.26496 13.5453 3.83819 13.265 3.55789C13.125 3.41795 13.0106 3.31521 12.9343 3.24979C12.8961 3.2171 12.8676 3.1938 12.8502 3.17991C12.8416 3.17296 12.8357 3.16838 12.8328 3.16615C12.8321 3.16563 12.8316 3.16524 12.8313 3.16498C12.8312 3.16491 12.8311 3.16485 12.8311 3.1648C12.4649 2.88821 12.3912 2.3673 12.6667 1.99989ZM12.8308 16.8352L12.8308 16.8352C12.8308 16.8352 12.8307 16.8352 12.8308 16.8352Z" fill="black"/>
</svg>
