<svg width="20" height="20" viewBox="0 0 20 20" fill="none" xmlns="http://www.w3.org/2000/svg">
<path fill-rule="evenodd" clip-rule="evenodd" d="M8.33325 12.4998C8.33325 12.0396 8.70635 11.6665 9.16659 11.6665H10.8333C11.2935 11.6665 11.6666 12.0396 11.6666 12.4998C11.6666 12.9601 11.2935 13.3332 10.8333 13.3332H9.16659C8.70635 13.3332 8.33325 12.9601 8.33325 12.4998Z" fill="black"/>
<path fill-rule="evenodd" clip-rule="evenodd" d="M10.0001 9.1665C10.4603 9.1665 10.8334 9.5396 10.8334 9.99984V12.4998C10.8334 12.9601 10.4603 13.3332 10.0001 13.3332C9.53984 13.3332 9.16675 12.9601 9.16675 12.4998V9.99984C9.16675 9.5396 9.53984 9.1665 10.0001 9.1665Z" fill="black"/>
<path fill-rule="evenodd" clip-rule="evenodd" d="M10.0001 15C10.4603 15 10.8334 15.3731 10.8334 15.8333V18.3333C10.8334 18.7936 10.4603 19.1667 10.0001 19.1667C9.53984 19.1667 9.16675 18.7936 9.16675 18.3333V15.8333C9.16675 15.3731 9.53984 15 10.0001 15Z" fill="black"/>
<path fill-rule="evenodd" clip-rule="evenodd" d="M6.93546 1.57907C7.88257 1.08886 8.93346 0.833008 9.99992 0.833008C11.0664 0.833008 12.1173 1.08886 13.0644 1.57907C14.0115 2.06929 14.8272 2.77957 15.443 3.65028C16.0587 4.52099 16.4566 5.52673 16.6033 6.58306C16.7497 7.6376 16.6413 8.71183 16.2874 9.71588L14.3144 15.5333C14.3143 15.5336 14.3142 15.534 14.3141 15.5343C14.3141 15.5343 14.3141 15.5343 14.3141 15.5343C14.2024 15.8644 13.99 16.1512 13.7068 16.3543C13.4234 16.5576 13.0833 16.6669 12.7344 16.6667H7.26541C6.91657 16.6669 6.57646 16.5576 6.293 16.3543C6.00983 16.1512 5.79746 15.8644 5.68574 15.5343C5.68571 15.5342 5.68569 15.5342 5.68567 15.5341C5.68558 15.5338 5.68549 15.5336 5.68541 15.5333L3.71238 9.71582C3.35849 8.71179 3.25019 7.63758 3.39657 6.58306C3.5432 5.52673 3.94111 4.52099 4.55689 3.65028C5.17267 2.77957 5.98835 2.06929 6.93546 1.57907ZM9.99992 2.49967C9.20008 2.49967 8.41191 2.69156 7.70158 3.05922C6.99124 3.42688 6.37948 3.95959 5.91765 4.61263C5.45581 5.26566 5.15738 6.01997 5.04741 6.81221C4.93743 7.60446 5.01913 8.41152 5.28563 9.16566C5.28681 9.16899 5.28797 9.17233 5.2891 9.17567L7.26443 15H12.7354L14.7107 9.17567C14.7119 9.17233 14.713 9.16899 14.7142 9.16566C14.9807 8.41152 15.0624 7.60446 14.9524 6.81221C14.8425 6.01996 14.544 5.26566 14.0822 4.61263C13.6204 3.95959 13.0086 3.42689 12.2983 3.05922C11.5879 2.69156 10.7998 2.49967 9.99992 2.49967Z" fill="black"/>
<path fill-rule="evenodd" clip-rule="evenodd" d="M10.0001 5.83317C9.55805 5.83317 9.13413 6.00877 8.82157 6.32133C8.50901 6.63389 8.33341 7.05781 8.33341 7.49984C8.33341 7.96007 7.96032 8.33317 7.50008 8.33317C7.03984 8.33317 6.66675 7.96007 6.66675 7.49984C6.66675 6.61578 7.01794 5.76794 7.64306 5.14281C8.26818 4.51769 9.11603 4.1665 10.0001 4.1665C10.8841 4.1665 11.732 4.51769 12.3571 5.14281C12.9822 5.76794 13.3334 6.61578 13.3334 7.49984C13.3334 7.96007 12.9603 8.33317 12.5001 8.33317C12.0398 8.33317 11.6667 7.96007 11.6667 7.49984C11.6667 7.05781 11.4912 6.63389 11.1786 6.32133C10.866 6.00877 10.4421 5.83317 10.0001 5.83317Z" fill="black"/>
</svg>
