<svg width="20" height="20" viewBox="0 0 20 20" fill="none" xmlns="http://www.w3.org/2000/svg">
<g clip-path="url(#clip0_2001_8939)">
<path fill-rule="evenodd" clip-rule="evenodd" d="M5.11216 8.63129C5.54586 8.78531 5.77258 9.26175 5.61856 9.69545L3.03733 16.9637L10.305 14.3894C10.7389 14.2357 11.2151 14.4628 11.3688 14.8967C11.5225 15.3305 11.2953 15.8067 10.8615 15.9604L1.94484 19.1187C1.6419 19.2261 1.30426 19.1496 1.07711 18.9222C0.849953 18.6949 0.773773 18.3572 0.881327 18.0543L4.04799 9.13768C4.20202 8.70398 4.67846 8.47726 5.11216 8.63129Z" fill="black"/>
<path fill-rule="evenodd" clip-rule="evenodd" d="M2.5 2.49984C2.5 2.0396 2.8731 1.6665 3.33333 1.6665H3.34167C3.8019 1.6665 4.175 2.0396 4.175 2.49984C4.175 2.96007 3.8019 3.33317 3.34167 3.33317H3.33333C2.8731 3.33317 2.5 2.96007 2.5 2.49984Z" fill="black"/>
<path fill-rule="evenodd" clip-rule="evenodd" d="M17.5 6.66683C17.5 6.20659 17.8731 5.8335 18.3333 5.8335H18.3417C18.8019 5.8335 19.175 6.20659 19.175 6.66683C19.175 7.12707 18.8019 7.50016 18.3417 7.50016H18.3333C17.8731 7.50016 17.5 7.12707 17.5 6.66683Z" fill="black"/>
<path fill-rule="evenodd" clip-rule="evenodd" d="M11.6667 1.66683C11.6667 1.20659 12.0398 0.833496 12.5001 0.833496H12.5084C12.9687 0.833496 13.3417 1.20659 13.3417 1.66683C13.3417 2.12707 12.9687 2.50016 12.5084 2.50016H12.5001C12.0398 2.50016 11.6667 2.12707 11.6667 1.66683Z" fill="black"/>
<path fill-rule="evenodd" clip-rule="evenodd" d="M17.5 16.6668C17.5 16.2066 17.8731 15.8335 18.3333 15.8335H18.3417C18.8019 15.8335 19.175 16.2066 19.175 16.6668C19.175 17.1271 18.8019 17.5002 18.3417 17.5002H18.3333C17.8731 17.5002 17.5 17.1271 17.5 16.6668Z" fill="black"/>
<path fill-rule="evenodd" clip-rule="evenodd" d="M19.1236 1.40199C19.2698 1.83841 19.0344 2.31066 18.598 2.45678L16.7301 3.08219C16.382 3.19815 16.0849 3.43142 15.8897 3.74213C15.6946 4.05284 15.6133 4.42169 15.66 4.78564C15.6604 4.78886 15.6608 4.79209 15.6612 4.79532C15.8013 6.00039 14.8634 7.08323 13.6251 7.08323H13.3084C12.9819 7.08323 12.717 7.30856 12.6604 7.60583C12.66 7.60784 12.6596 7.60984 12.6592 7.61185L12.4842 8.49518C12.3947 8.94664 11.9563 9.24012 11.5048 9.15068C11.0533 9.06124 10.7599 8.62275 10.8493 8.17129L11.0238 7.29063C11.2351 6.18968 12.2027 5.41657 13.3084 5.41657H13.6251C13.8523 5.41657 14.0305 5.21793 14.006 4.99099C13.9121 4.24604 14.079 3.49146 14.4785 2.85555C14.879 2.218 15.4884 1.73929 16.2027 1.50119C16.2029 1.5011 16.2031 1.50102 16.2034 1.50094L18.0688 0.876351C18.5053 0.730227 18.9775 0.965562 19.1236 1.40199Z" fill="black"/>
<path fill-rule="evenodd" clip-rule="evenodd" d="M15.1792 11.3392C15.4035 10.0635 16.7469 9.30541 17.9563 9.78355C17.9579 9.78418 17.9595 9.78481 17.961 9.78544L18.6444 10.0604C19.0713 10.2323 19.2782 10.7177 19.1063 11.1446C18.9345 11.5716 18.4491 11.7784 18.0221 11.6066L17.3418 11.3328C17.1197 11.2462 16.8661 11.3857 16.8215 11.6233C16.6615 12.6085 15.8049 13.3335 14.8083 13.3335H14.1666C13.7063 13.3335 13.3333 12.9604 13.3333 12.5002C13.3333 12.0399 13.7063 11.6669 14.1666 11.6669H14.8083C14.9915 11.6669 15.149 11.5303 15.1767 11.3542C15.1775 11.3492 15.1783 11.3442 15.1792 11.3392Z" fill="black"/>
<path fill-rule="evenodd" clip-rule="evenodd" d="M8.85563 0.893484C9.28259 0.721658 9.768 0.928486 9.93983 1.35545L10.2148 2.03878C10.2155 2.04035 10.2161 2.04193 10.2167 2.04351C10.6949 3.25292 9.93677 4.59634 8.66105 4.82064C8.65226 4.82219 8.64344 4.82359 8.6346 4.82485C8.47724 4.84733 8.33341 4.99882 8.33341 5.19156V5.83323C8.33341 6.29347 7.96032 6.66656 7.50008 6.66656C7.03984 6.66656 6.66675 6.29347 6.66675 5.83323V5.19156C6.66675 4.20703 7.38078 3.32991 8.38041 3.17767C8.6159 3.13123 8.75362 2.87902 8.66745 2.65799L8.39367 1.97768C8.22184 1.55072 8.42867 1.06531 8.85563 0.893484Z" fill="black"/>
<path fill-rule="evenodd" clip-rule="evenodd" d="M5.57776 9.76502C5.57766 9.76492 5.57884 9.76404 5.58162 9.76267C5.57925 9.76444 5.57786 9.76512 5.57776 9.76502ZM5.59196 9.75846C5.61077 9.75193 5.65023 9.7428 5.72187 9.74237C5.87701 9.74141 6.11504 9.78493 6.42982 9.91102C7.05639 10.162 7.83347 10.6785 8.57751 11.4225C9.32154 12.1666 9.83804 12.9436 10.089 13.5702C10.2151 13.885 10.2586 14.123 10.2577 14.2782C10.2572 14.3498 10.2481 14.3893 10.2416 14.4081C10.2228 14.4146 10.1833 14.4237 10.1117 14.4242C9.95652 14.4251 9.71849 14.3816 9.40371 14.2555C8.77714 14.0045 8.00006 13.488 7.25602 12.744C6.51198 12 5.99549 11.2229 5.74451 10.5963C5.61843 10.2815 5.57491 10.0435 5.57586 9.88837C5.5763 9.81674 5.58542 9.77727 5.59196 9.75846ZM10.235 14.4223C10.2349 14.4222 10.2356 14.4208 10.2374 14.4184C10.236 14.4212 10.2351 14.4224 10.235 14.4223ZM10.2519 14.4039C10.2543 14.4021 10.2557 14.4014 10.2558 14.4015C10.2559 14.4016 10.2547 14.4025 10.2519 14.4039ZM5.59617 9.74812C5.59753 9.74535 5.59841 9.74416 5.59852 9.74427C5.59862 9.74437 5.59793 9.74576 5.59617 9.74812ZM7.04954 8.36385C7.9313 8.71704 8.89172 9.37972 9.75602 10.244C10.6203 11.1083 11.283 12.0687 11.6362 12.9505C11.8122 13.3899 11.927 13.8487 11.9243 14.2884C11.9216 14.7332 11.795 15.2169 11.4227 15.5892C11.0504 15.9615 10.5666 16.0881 10.1219 16.0908C9.68222 16.0935 9.22337 15.9787 8.78399 15.8027C7.90222 15.4495 6.9418 14.7868 6.07751 13.9225C5.21321 13.0582 4.55054 12.0978 4.19735 11.216C4.02135 10.7767 3.90653 10.3178 3.90923 9.87816C3.91195 9.43338 4.03857 8.94961 4.41084 8.57734C4.78311 8.20508 5.26688 8.07846 5.71165 8.07573C6.15131 8.07304 6.61016 8.18785 7.04954 8.36385Z" fill="black"/>
</g>
<defs>
<clipPath id="clip0_2001_8939">
<rect width="20" height="20" fill="white"/>
</clipPath>
</defs>
</svg>
