<svg width="20" height="20" viewBox="0 0 20 20" fill="none" xmlns="http://www.w3.org/2000/svg">
<path fill-rule="evenodd" clip-rule="evenodd" d="M12.4999 4.16667V15.8333H14.1666V4.16667H12.4999ZM10.8333 4.16667C10.8333 3.24619 11.5794 2.5 12.4999 2.5H14.1666C15.0871 2.5 15.8333 3.24619 15.8333 4.16667V15.8333C15.8333 16.7538 15.0871 17.5 14.1666 17.5H12.4999C11.5794 17.5 10.8333 16.7538 10.8333 15.8333V4.16667Z" fill="black"/>
<path fill-rule="evenodd" clip-rule="evenodd" d="M5.83341 4.16667V15.8333H7.50008V4.16667H5.83341ZM4.16675 4.16667C4.16675 3.24619 4.91294 2.5 5.83341 2.5H7.50008C8.42056 2.5 9.16675 3.24619 9.16675 4.16667V15.8333C9.16675 16.7538 8.42056 17.5 7.50008 17.5H5.83341C4.91294 17.5 4.16675 16.7538 4.16675 15.8333V4.16667Z" fill="black"/>
</svg>
