<svg width="20" height="20" viewBox="0 0 20 20" fill="none" xmlns="http://www.w3.org/2000/svg">
<g clip-path="url(#clip0_2001_8952)">
<path fill-rule="evenodd" clip-rule="evenodd" d="M9.16675 2.50016C8.70651 2.50016 8.33341 2.87326 8.33341 3.3335C8.33341 3.79373 8.70651 4.16683 9.16675 4.16683C9.62699 4.16683 10.0001 3.79373 10.0001 3.3335C10.0001 2.87326 9.62699 2.50016 9.16675 2.50016ZM6.66675 3.3335C6.66675 1.95278 7.78604 0.833496 9.16675 0.833496C10.5475 0.833496 11.6667 1.95278 11.6667 3.3335C11.6667 4.71421 10.5475 5.8335 9.16675 5.8335C7.78604 5.8335 6.66675 4.71421 6.66675 3.3335Z" fill="black"/>
<path fill-rule="evenodd" clip-rule="evenodd" d="M15 5.83317C14.5398 5.83317 14.1667 6.20627 14.1667 6.6665C14.1667 7.12674 14.5398 7.49984 15 7.49984C15.4602 7.49984 15.8333 7.12674 15.8333 6.6665C15.8333 6.20627 15.4602 5.83317 15 5.83317ZM12.5 6.6665C12.5 5.28579 13.6193 4.1665 15 4.1665C16.3807 4.1665 17.5 5.28579 17.5 6.6665C17.5 8.04722 16.3807 9.1665 15 9.1665C13.6193 9.1665 12.5 8.04722 12.5 6.6665Z" fill="black"/>
<path fill-rule="evenodd" clip-rule="evenodd" d="M16.6667 12.5002C16.2065 12.5002 15.8334 12.8733 15.8334 13.3335C15.8334 13.7937 16.2065 14.1668 16.6667 14.1668C17.127 14.1668 17.5001 13.7937 17.5001 13.3335C17.5001 12.8733 17.127 12.5002 16.6667 12.5002ZM14.1667 13.3335C14.1667 11.9528 15.286 10.8335 16.6667 10.8335C18.0475 10.8335 19.1667 11.9528 19.1667 13.3335C19.1667 14.7142 18.0475 15.8335 16.6667 15.8335C15.286 15.8335 14.1667 14.7142 14.1667 13.3335Z" fill="black"/>
<path fill-rule="evenodd" clip-rule="evenodd" d="M4.58183 7.5L7.49996 7.5C8.15656 7.5 8.80674 7.62933 9.41337 7.8806C10.02 8.13188 10.5712 8.50017 11.0355 8.96447C11.4998 9.42876 11.8681 9.97995 12.1194 10.5866C12.3706 11.1932 12.5 11.8434 12.5 12.5V15.4169C12.4997 16.3131 12.1784 17.1796 11.5944 17.8594C11.0104 18.5392 10.2022 18.9874 9.3163 19.1227C8.43037 19.2581 7.52526 19.0716 6.76491 18.5972C6.00456 18.1228 5.43926 17.3918 5.17138 16.5366C5.17114 16.5358 5.17089 16.535 5.17064 16.5342C4.89615 15.6485 4.35092 15.103 3.46938 14.8291L3.46755 14.8286C2.61274 14.5608 1.88201 13.996 1.40758 13.2362C0.933142 12.4764 0.746348 11.5719 0.880997 10.6863C1.01565 9.80073 1.46284 8.9926 2.14166 8.40816C2.82048 7.82372 3.68608 7.50157 4.58183 7.5ZM7.49996 9.16667H4.58408C4.08668 9.1677 3.60605 9.34665 3.22909 9.6712C2.85197 9.99589 2.60353 10.4448 2.52873 10.9368C2.45392 11.4288 2.5577 11.9313 2.82127 12.3534C3.08468 12.7753 3.49029 13.089 3.96479 13.2378C5.37121 13.675 6.32551 14.6318 6.76221 16.0396C6.91118 16.5142 7.22507 16.9199 7.64715 17.1832C8.06957 17.4468 8.57241 17.5504 9.06459 17.4752C9.55678 17.4 10.0058 17.151 10.3302 16.7733C10.6546 16.3957 10.8331 15.9145 10.8333 15.4167C10.8333 15.4166 10.8333 15.4165 10.8333 15.4164V12.5C10.8333 12.0623 10.7471 11.6288 10.5796 11.2244C10.412 10.82 10.1665 10.4525 9.85698 10.143C9.54745 9.83345 9.17999 9.58792 8.77557 9.4204C8.37115 9.25289 7.9377 9.16667 7.49996 9.16667Z" fill="black"/>
</g>
<defs>
<clipPath id="clip0_2001_8952">
<rect width="20" height="20" fill="white"/>
</clipPath>
</defs>
</svg>
