<svg width="20" height="20" viewBox="0 0 20 20" fill="none" xmlns="http://www.w3.org/2000/svg">
<path fill-rule="evenodd" clip-rule="evenodd" d="M5.83325 2.50016C5.37301 2.50016 4.99992 2.87326 4.99992 3.3335V16.6668C4.99992 17.1271 5.37301 17.5002 5.83325 17.5002H14.1666C14.6268 17.5002 14.9999 17.1271 14.9999 16.6668V3.3335C14.9999 2.87326 14.6268 2.50016 14.1666 2.50016H5.83325ZM3.33325 3.3335C3.33325 1.95278 4.45254 0.833496 5.83325 0.833496H14.1666C15.5473 0.833496 16.6666 1.95278 16.6666 3.3335V16.6668C16.6666 18.0475 15.5473 19.1668 14.1666 19.1668H5.83325C4.45254 19.1668 3.33325 18.0475 3.33325 16.6668V3.3335Z" fill="black"/>
<path fill-rule="evenodd" clip-rule="evenodd" d="M11.6667 11.6668C11.6667 11.2066 12.0398 10.8335 12.5001 10.8335H12.5084C12.9687 10.8335 13.3417 11.2066 13.3417 11.6668C13.3417 12.1271 12.9687 12.5002 12.5084 12.5002H12.5001C12.0398 12.5002 11.6667 12.1271 11.6667 11.6668Z" fill="black"/>
<path fill-rule="evenodd" clip-rule="evenodd" d="M6.66675 4.99984C6.66675 4.5396 7.03984 4.1665 7.50008 4.1665H12.5001C12.9603 4.1665 13.3334 4.5396 13.3334 4.99984C13.3334 5.46007 12.9603 5.83317 12.5001 5.83317H7.50008C7.03984 5.83317 6.66675 5.46007 6.66675 4.99984Z" fill="black"/>
<path fill-rule="evenodd" clip-rule="evenodd" d="M6.66675 8.33333C6.66675 7.8731 7.03984 7.5 7.50008 7.5H12.5001C12.9603 7.5 13.3334 7.8731 13.3334 8.33333C13.3334 8.79357 12.9603 9.16667 12.5001 9.16667H7.50008C7.03984 9.16667 6.66675 8.79357 6.66675 8.33333Z" fill="black"/>
</svg>
