<svg width="20" height="20" viewBox="0 0 20 20" fill="none" xmlns="http://www.w3.org/2000/svg">
<path fill-rule="evenodd" clip-rule="evenodd" d="M14.6551 9.9997C14.9677 9.68724 15.3915 9.51172 15.8335 9.51172C16.2754 9.51172 16.6992 9.68724 17.0118 9.9997L16.4207 10.5909L17.0119 9.99979L18.3335 11.3215L17.7449 11.9101L18.3336 11.3215C18.6461 11.6341 18.8216 12.0579 18.8216 12.4999C18.8216 12.9418 18.6461 13.3657 18.3336 13.6782L17.7426 13.0874L18.3335 13.6783L13.6785 18.3333L13.0893 17.744L13.6785 18.3334C13.3659 18.6458 12.9421 18.8214 12.5001 18.8214C12.0582 18.8214 11.6343 18.6458 11.3218 18.3334L11.9116 17.7434L11.3217 18.3333L10 17.0116L10.5901 16.4215L9.99994 17.0115C9.68749 16.699 9.51196 16.2751 9.51196 15.8332C9.51196 15.3913 9.68749 14.9674 9.99994 14.6549L10.5904 15.2451L10 14.6548L14.655 9.99979L15.2443 10.5891L14.6551 9.9997ZM15.8335 11.1784L11.1786 15.8332L12.5001 17.1547L17.1549 12.4999L15.8335 11.1784Z" fill="black"/>
<path fill-rule="evenodd" clip-rule="evenodd" d="M2.04881 0.895708C2.32376 0.8184 2.61398 0.813051 2.8916 0.880173C2.89691 0.881459 2.90222 0.882798 2.90751 0.884188L13.4375 3.65076C13.7427 3.72633 14.0204 3.88673 14.2384 4.11352C14.4587 4.34267 14.6089 4.63003 14.6712 4.94171C14.6712 4.94173 14.6712 4.94174 14.6712 4.94175L15.8171 10.67C15.9073 11.1213 15.6147 11.5604 15.1634 11.6506C14.7121 11.7409 14.273 11.4483 14.1828 10.997L13.0369 5.26862L13.0369 5.26858C13.0333 5.26771 13.0298 5.26682 13.0262 5.26591C13.0243 5.26544 13.0225 5.26496 13.0207 5.26448L2.50015 2.50039L5.26424 13.0209C5.26566 13.0263 5.26702 13.0317 5.26834 13.0372L5.26838 13.0372L10.9967 14.183C11.448 14.2733 11.7407 14.7123 11.6504 15.1636C11.5601 15.6149 11.1211 15.9076 10.6698 15.8173L4.94151 14.6715C4.9415 14.6715 4.94148 14.6715 4.94147 14.6715C4.62979 14.6091 4.34243 14.459 4.11328 14.2387C3.88649 14.0207 3.72608 13.743 3.65051 13.4377L0.883944 2.90776C0.882553 2.90247 0.881215 2.89716 0.879929 2.89184C0.812807 2.61422 0.818156 2.32401 0.895464 2.04905C0.972772 1.77409 1.11944 1.52361 1.32141 1.32165C1.52337 1.11969 1.77385 0.973016 2.04881 0.895708Z" fill="black"/>
<path fill-rule="evenodd" clip-rule="evenodd" d="M1.32757 1.32757C1.65301 1.00214 2.18065 1.00214 2.50609 1.32757L8.57775 7.39924C8.90319 7.72468 8.90319 8.25232 8.57775 8.57775C8.25232 8.90319 7.72468 8.90319 7.39924 8.57775L1.32757 2.50609C1.00214 2.18065 1.00214 1.65301 1.32757 1.32757Z" fill="black"/>
<path fill-rule="evenodd" clip-rule="evenodd" d="M9.16675 8.33317C8.70651 8.33317 8.33341 8.70627 8.33341 9.1665C8.33341 9.62674 8.70651 9.99984 9.16675 9.99984C9.62699 9.99984 10.0001 9.62674 10.0001 9.1665C10.0001 8.70627 9.62699 8.33317 9.16675 8.33317ZM6.66675 9.1665C6.66675 7.78579 7.78604 6.6665 9.16675 6.6665C10.5475 6.6665 11.6667 7.78579 11.6667 9.1665C11.6667 10.5472 10.5475 11.6665 9.16675 11.6665C7.78604 11.6665 6.66675 10.5472 6.66675 9.1665Z" fill="black"/>
</svg>
