<svg width="20" height="20" viewBox="0 0 20 20" fill="none" xmlns="http://www.w3.org/2000/svg">
<g clip-path="url(#clip0_2001_8985)">
<path fill-rule="evenodd" clip-rule="evenodd" d="M3.82875 1.65948C4.36127 1.12954 5.08197 0.832031 5.83325 0.832031C6.58453 0.832031 7.30523 1.12954 7.83774 1.65948L7.83917 1.66091L11.4225 5.24424C11.7479 5.56968 11.7479 6.09731 11.4225 6.42275C11.0971 6.74819 10.5694 6.74819 10.244 6.42275L6.66209 2.84084C6.6619 2.84066 6.66172 2.84047 6.66153 2.84029C6.4414 2.62151 6.14363 2.4987 5.83325 2.4987C5.5229 2.4987 5.22518 2.62148 5.00505 2.84021C5.00484 2.84042 5.00462 2.84063 5.00441 2.84084L2.8406 5.00466C2.84038 5.00487 2.84017 5.00508 2.83996 5.00529C2.62123 5.22542 2.49845 5.52315 2.49845 5.83349C2.49845 6.14388 2.62126 6.44164 2.84004 6.66178C2.84023 6.66196 2.84041 6.66215 2.8406 6.66233L6.42251 10.2442C6.74794 10.5697 6.74794 11.0973 6.42251 11.4228C6.09707 11.7482 5.56943 11.7482 5.24399 11.4228L1.66066 7.83942L1.65924 7.83799C1.12929 7.30547 0.831787 6.58477 0.831787 5.83349C0.831787 5.08222 1.12929 4.36151 1.65924 3.829L1.66066 3.82757L3.82733 1.66091L3.82875 1.65948Z" fill="black"/>
<path fill-rule="evenodd" clip-rule="evenodd" d="M8.92251 2.74408C9.24794 3.06951 9.24794 3.59715 8.92251 3.92259L7.25584 5.58926C6.9304 5.91469 6.40277 5.91469 6.07733 5.58926C5.75189 5.26382 5.75189 4.73618 6.07733 4.41074L7.744 2.74408C8.06943 2.41864 8.59707 2.41864 8.92251 2.74408Z" fill="black"/>
<path fill-rule="evenodd" clip-rule="evenodd" d="M17.256 11.0776C17.5814 11.403 17.5814 11.9306 17.256 12.2561L15.5893 13.9228C15.2639 14.2482 14.7363 14.2482 14.4108 13.9228C14.0854 13.5973 14.0854 13.0697 14.4108 12.7442L16.0775 11.0776C16.4029 10.7521 16.9306 10.7521 17.256 11.0776Z" fill="black"/>
<path fill-rule="evenodd" clip-rule="evenodd" d="M13.5773 8.57757C13.9028 8.25214 14.4304 8.25214 14.7558 8.57757L18.3392 12.1609C19.4479 13.2697 19.4479 15.064 18.3392 16.1728L16.1725 18.3394C15.0637 19.4482 13.2694 19.4482 12.1607 18.3394L8.57733 14.7561C8.25189 14.4306 8.25189 13.903 8.57733 13.5776C8.90277 13.2521 9.4304 13.2521 9.75584 13.5776L13.3392 17.1609C13.7971 17.6188 14.5361 17.6188 14.994 17.1609L17.1607 14.9942C17.6186 14.5363 17.6186 13.7973 17.1607 13.3394L13.5773 9.75609C13.2519 9.43065 13.2519 8.90301 13.5773 8.57757Z" fill="black"/>
<path fill-rule="evenodd" clip-rule="evenodd" d="M13.7343 1.76483C14.3312 1.16809 15.1406 0.832902 15.9847 0.833008C16.8287 0.833114 17.6381 1.1685 18.2349 1.76539C18.8316 2.36228 19.1668 3.17178 19.1667 4.01581C19.1666 4.85978 18.8312 5.66914 18.2344 6.26587C18.2344 6.26591 18.2343 6.26595 18.2343 6.26599L7.11191 17.39L7.11093 17.391C6.82115 17.6799 6.46489 17.8932 6.07343 18.0123L6.07277 18.0125L2.44527 19.1125L2.44333 19.1131C2.22722 19.178 1.99757 19.1833 1.77873 19.1282C1.55989 19.0732 1.36002 18.96 1.20032 18.8006C1.04063 18.6411 0.927079 18.4414 0.87171 18.2227C0.816341 18.0039 0.82122 17.7743 0.885832 17.5581C0.886175 17.5569 0.88652 17.5558 0.886867 17.5546L1.9877 13.9279L1.98838 13.9257C2.10843 13.5342 2.3228 13.1782 2.61266 12.8889C2.6129 12.8887 2.61314 12.8884 2.61338 12.8882L13.7343 1.76483ZM14.9126 2.94349L3.7911 14.0675L3.79017 14.0684C3.69366 14.1647 3.62223 14.2831 3.58213 14.4133C3.58203 14.4136 3.58193 14.414 3.58183 14.4143L2.70864 17.291L5.58846 16.4177C5.71878 16.3781 5.8374 16.3071 5.93393 16.211C5.93405 16.2109 5.93417 16.2108 5.93429 16.2106L17.0559 5.08733C17.3402 4.80311 17.5 4.4176 17.5 4.0156C17.5001 3.6136 17.3404 3.22805 17.0562 2.94376C16.772 2.65947 16.3865 2.49972 15.9845 2.49967C15.5825 2.49962 15.1969 2.65927 14.9126 2.94349Z" fill="black"/>
<path fill-rule="evenodd" clip-rule="evenodd" d="M11.9108 3.57757C12.2363 3.25214 12.7639 3.25214 13.0893 3.57757L16.4227 6.91091C16.7481 7.23634 16.7481 7.76398 16.4227 8.08942C16.0972 8.41486 15.5696 8.41486 15.2442 8.08942L11.9108 4.75609C11.5854 4.43065 11.5854 3.90301 11.9108 3.57757Z" fill="black"/>
</g>
<defs>
<clipPath id="clip0_2001_8985">
<rect width="20" height="20" fill="white"/>
</clipPath>
</defs>
</svg>
