<svg width="20" height="20" viewBox="0 0 20 20" fill="none" xmlns="http://www.w3.org/2000/svg">
<g clip-path="url(#clip0_2001_8992)">
<path fill-rule="evenodd" clip-rule="evenodd" d="M13.7343 1.76483C14.3312 1.16809 15.1406 0.832902 15.9847 0.833008C16.8287 0.833114 17.6381 1.1685 18.2349 1.76539C18.8316 2.36228 19.1668 3.17178 19.1667 4.01581C19.1666 4.85978 18.8312 5.66914 18.2344 6.26587C18.2344 6.26591 18.2343 6.26595 18.2343 6.26599L7.11191 17.39L7.11093 17.391C6.82115 17.6799 6.46489 17.8932 6.07343 18.0123L6.07277 18.0125L2.44527 19.1125L2.44333 19.1131C2.22722 19.178 1.99757 19.1833 1.77873 19.1282C1.55989 19.0732 1.36002 18.96 1.20032 18.8006C1.04063 18.6411 0.927079 18.4414 0.87171 18.2227C0.816341 18.0039 0.82122 17.7743 0.885832 17.5581C0.886175 17.5569 0.88652 17.5558 0.886867 17.5546L1.9877 13.9279L1.98838 13.9257C2.10843 13.5342 2.3228 13.1782 2.61266 12.8889C2.6129 12.8887 2.61314 12.8884 2.61338 12.8882L13.7343 1.76483ZM14.9126 2.94349L3.7911 14.0675L3.79017 14.0684C3.69366 14.1647 3.62223 14.2831 3.58213 14.4133C3.58203 14.4136 3.58193 14.414 3.58183 14.4143L2.70864 17.291L5.58846 16.4177C5.71878 16.3781 5.8374 16.3071 5.93393 16.211C5.93405 16.2109 5.93417 16.2108 5.93429 16.2106L17.0559 5.08733C17.3402 4.80311 17.5 4.4176 17.5 4.0156C17.5001 3.6136 17.3404 3.22805 17.0562 2.94376C16.772 2.65947 16.3865 2.49972 15.9845 2.49967C15.5825 2.49962 15.1969 2.65927 14.9126 2.94349Z" fill="black"/>
<path fill-rule="evenodd" clip-rule="evenodd" d="M11.9108 3.57757C12.2363 3.25214 12.7639 3.25214 13.0893 3.57757L16.4227 6.91091C16.7481 7.23634 16.7481 7.76398 16.4227 8.08942C16.0972 8.41486 15.5696 8.41486 15.2442 8.08942L11.9108 4.75609C11.5854 4.43065 11.5854 3.90301 11.9108 3.57757Z" fill="black"/>
</g>
<defs>
<clipPath id="clip0_2001_8992">
<rect width="20" height="20" fill="white"/>
</clipPath>
</defs>
</svg>
