<svg width="20" height="20" viewBox="0 0 20 20" fill="none" xmlns="http://www.w3.org/2000/svg">
<g clip-path="url(#clip0_2001_8980)">
<path fill-rule="evenodd" clip-rule="evenodd" d="M8.92244 7.74384C9.24801 8.06914 9.24822 8.59678 8.92292 8.92235L3.79153 14.0579C3.69469 14.1546 3.62317 14.2737 3.58329 14.4047C3.58326 14.4048 3.58323 14.4049 3.58319 14.405L2.70797 17.2915L5.58997 16.4166C5.59027 16.4165 5.59058 16.4164 5.59088 16.4163C5.72114 16.3762 5.83957 16.3048 5.9358 16.2083L11.0773 11.0627C11.4026 10.7371 11.9302 10.7369 12.2558 11.0622C12.5813 11.3875 12.5816 11.9151 12.2562 12.2407L7.11604 17.3851C7.11596 17.3851 7.11587 17.3852 7.11578 17.3853C6.82646 17.6754 6.47026 17.89 6.07854 18.0101L6.07633 18.0107L2.44466 19.1132C2.44369 19.1135 2.44272 19.1138 2.44175 19.1141C2.22528 19.179 1.99528 19.1839 1.77623 19.1285C1.55717 19.073 1.35724 18.9592 1.19771 18.7992C1.03818 18.6391 0.925015 18.4388 0.87026 18.2196C0.815504 18.0003 0.821203 17.7704 0.88675 17.5541L0.886775 17.554L1.98865 13.92C2.1082 13.527 2.32277 13.1694 2.61339 12.879C2.61348 12.8789 2.61356 12.8788 2.61365 12.8788L7.74393 7.74432C8.06923 7.41875 8.59687 7.41853 8.92244 7.74384Z" fill="black"/>
<path fill-rule="evenodd" clip-rule="evenodd" d="M15.9841 2.50016C15.7851 2.50016 15.588 2.53936 15.4042 2.61552C15.2203 2.69168 15.0532 2.8033 14.9125 2.94402L11.2791 6.56657C10.9532 6.89152 10.4256 6.89073 10.1006 6.56481C9.77567 6.23889 9.77646 5.71125 10.1024 5.3863L13.734 1.76551C13.7341 1.76537 13.7343 1.76522 13.7344 1.76508C14.0298 1.4698 14.3805 1.23556 14.7663 1.07572C15.1524 0.915804 15.5662 0.833496 15.9841 0.833496C16.402 0.833496 16.8158 0.915804 17.2018 1.07572C17.5879 1.23564 17.9387 1.47003 18.2342 1.76551C18.5297 2.061 18.7641 2.41179 18.924 2.79786C19.0839 3.18394 19.1662 3.59772 19.1662 4.0156C19.1662 4.43348 19.0839 4.84727 18.924 5.23334C18.7641 5.61941 18.5297 5.97021 18.2342 6.26569L14.6067 9.89319C14.2812 10.2186 13.7536 10.2186 13.4282 9.89319C13.1027 9.56775 13.1027 9.04012 13.4282 8.71468L17.0557 5.08718C17.1964 4.94646 17.308 4.7794 17.3842 4.59554C17.4603 4.41168 17.4995 4.21461 17.4995 4.0156C17.4995 3.81659 17.4603 3.61953 17.3842 3.43567C17.308 3.25181 17.1964 3.08475 17.0557 2.94402C16.9149 2.8033 16.7479 2.69168 16.564 2.61552C16.3802 2.53936 16.1831 2.50016 15.9841 2.50016Z" fill="black"/>
<path fill-rule="evenodd" clip-rule="evenodd" d="M11.9108 3.57757C12.2363 3.25214 12.7639 3.25214 13.0893 3.57757L16.4227 6.91091C16.7481 7.23634 16.7481 7.76398 16.4227 8.08942C16.0972 8.41486 15.5696 8.41486 15.2442 8.08942L11.9108 4.75609C11.5854 4.43065 11.5854 3.90301 11.9108 3.57757Z" fill="black"/>
<path fill-rule="evenodd" clip-rule="evenodd" d="M1.07733 1.07757C1.40277 0.752137 1.9304 0.752137 2.25584 1.07757L18.9225 17.7442C19.2479 18.0697 19.2479 18.5973 18.9225 18.9228C18.5971 19.2482 18.0694 19.2482 17.744 18.9228L1.07733 2.25609C0.751893 1.93065 0.751893 1.40301 1.07733 1.07757Z" fill="black"/>
</g>
<defs>
<clipPath id="clip0_2001_8980">
<rect width="20" height="20" fill="white"/>
</clipPath>
</defs>
</svg>
