<svg width="20" height="20" viewBox="0 0 20 20" fill="none" xmlns="http://www.w3.org/2000/svg">
<path fill-rule="evenodd" clip-rule="evenodd" d="M9.99995 2.50163C9.82495 2.50163 9.65438 2.55672 9.51245 2.6591C9.51188 2.65951 9.51132 2.65991 9.51075 2.66032L2.8454 7.44271C2.84523 7.44283 2.84506 7.44295 2.84489 7.44307C2.70134 7.54666 2.5945 7.69328 2.53986 7.86167C2.48516 8.03026 2.48564 8.21191 2.54123 8.38021L5.07419 16.0957C5.07431 16.0961 5.07442 16.0964 5.07454 16.0968C5.12983 16.2626 5.23589 16.4069 5.37771 16.5092C5.51983 16.6117 5.69064 16.6667 5.86586 16.6666L5.86661 16.6666H14.1333L14.134 16.6666C14.3093 16.6667 14.4801 16.6117 14.6222 16.5092C14.764 16.4069 14.8701 16.2626 14.9254 16.0968C14.9255 16.0964 14.9256 16.0961 14.9257 16.0957L17.4582 8.38164L17.4587 8.38021C17.5143 8.21191 17.5147 8.03026 17.46 7.86167C17.4054 7.69325 17.2985 7.54662 17.1549 7.44303C17.1548 7.44292 17.1546 7.44281 17.1545 7.44271L10.4891 2.66032L10.4874 2.6591C10.3455 2.55672 10.175 2.50163 9.99995 2.50163ZM8.5383 1.30676C8.96393 1.00003 9.47529 0.834961 9.99995 0.834961C10.5246 0.834961 11.0359 0.999999 11.4615 1.30669C11.4618 1.30692 11.4621 1.30715 11.4624 1.30738L18.1287 6.09044C18.5602 6.40126 18.8813 6.84154 19.0453 7.34732C19.2094 7.85297 19.208 8.39774 19.0414 8.90252C19.0413 8.90266 19.0413 8.9028 19.0412 8.90294L16.5084 16.6182L16.5075 16.6207C16.3419 17.1196 16.0233 17.5536 15.597 17.8611C15.1706 18.1685 14.6582 18.3337 14.1325 18.3332H5.86737C5.34173 18.3337 4.8293 18.1685 4.40293 17.8611C3.97657 17.5536 3.65795 17.1196 3.49237 16.6207L3.49152 16.6182L0.958662 8.90294C0.958574 8.90267 0.958485 8.9024 0.958397 8.90213C0.791889 8.39745 0.790536 7.85284 0.954546 7.34732C1.11864 6.84154 1.43973 6.40126 1.87116 6.09044L8.53745 1.30738C8.53773 1.30717 8.53802 1.30697 8.5383 1.30676Z" fill="black"/>
</svg>
