<svg width="20" height="20" viewBox="0 0 20 20" fill="none" xmlns="http://www.w3.org/2000/svg">
<path fill-rule="evenodd" clip-rule="evenodd" d="M16.4225 3.57757C16.7479 3.90301 16.7479 4.43065 16.4225 4.75609L4.75584 16.4228C4.4304 16.7482 3.90277 16.7482 3.57733 16.4228C3.25189 16.0973 3.25189 15.5697 3.57733 15.2442L15.244 3.57757C15.5694 3.25214 16.0971 3.25214 16.4225 3.57757Z" fill="black"/>
<path fill-rule="evenodd" clip-rule="evenodd" d="M5.41667 4.16667C4.72631 4.16667 4.16667 4.72631 4.16667 5.41667C4.16667 6.10702 4.72631 6.66667 5.41667 6.66667C6.10702 6.66667 6.66667 6.10702 6.66667 5.41667C6.66667 4.72631 6.10702 4.16667 5.41667 4.16667ZM2.5 5.41667C2.5 3.80584 3.80584 2.5 5.41667 2.5C7.0275 2.5 8.33333 3.80584 8.33333 5.41667C8.33333 7.0275 7.0275 8.33333 5.41667 8.33333C3.80584 8.33333 2.5 7.0275 2.5 5.41667Z" fill="black"/>
<path fill-rule="evenodd" clip-rule="evenodd" d="M14.5834 13.3332C13.8931 13.3332 13.3334 13.8928 13.3334 14.5832C13.3334 15.2735 13.8931 15.8332 14.5834 15.8332C15.2738 15.8332 15.8334 15.2735 15.8334 14.5832C15.8334 13.8928 15.2738 13.3332 14.5834 13.3332ZM11.6667 14.5832C11.6667 12.9723 12.9726 11.6665 14.5834 11.6665C16.1942 11.6665 17.5001 12.9723 17.5001 14.5832C17.5001 16.194 16.1942 17.4998 14.5834 17.4998C12.9726 17.4998 11.6667 16.194 11.6667 14.5832Z" fill="black"/>
</svg>
