<svg width="20" height="20" viewBox="0 0 20 20" fill="none" xmlns="http://www.w3.org/2000/svg">
<path fill-rule="evenodd" clip-rule="evenodd" d="M8.33325 4.16667C8.33325 3.24619 9.07944 2.5 9.99992 2.5C10.9204 2.5 11.6666 3.24619 11.6666 4.16667C11.6666 5.08714 10.9204 5.83333 9.99992 5.83333C9.07944 5.83333 8.33325 5.08714 8.33325 4.16667Z" fill="black"/>
<path fill-rule="evenodd" clip-rule="evenodd" d="M10 10.8335C10.3157 10.8335 10.6042 11.0118 10.7454 11.2942L13.2454 16.2942C13.4512 16.7058 13.2843 17.2064 12.8727 17.4122C12.461 17.618 11.9605 17.4512 11.7547 17.0395L10 13.5302L8.24538 17.0395C8.03955 17.4512 7.53899 17.618 7.12734 17.4122C6.71569 17.2064 6.54884 16.7058 6.75466 16.2942L9.25466 11.2942C9.39582 11.0118 9.68438 10.8335 10 10.8335Z" fill="black"/>
<path fill-rule="evenodd" clip-rule="evenodd" d="M4.20949 6.40304C4.35503 5.96642 4.82697 5.73046 5.26359 5.876L10.0001 7.45482L14.7365 5.876C15.1732 5.73046 15.6451 5.96642 15.7906 6.40304C15.9362 6.83966 15.7002 7.3116 15.2636 7.45714L10.2636 9.1238C10.0925 9.18082 9.9076 9.18082 9.73654 9.1238L4.73654 7.45714C4.29992 7.3116 4.06395 6.83966 4.20949 6.40304Z" fill="black"/>
<path fill-rule="evenodd" clip-rule="evenodd" d="M10.0001 7.5C10.4603 7.5 10.8334 7.8731 10.8334 8.33333V11.6667C10.8334 12.1269 10.4603 12.5 10.0001 12.5C9.53984 12.5 9.16675 12.1269 9.16675 11.6667V8.33333C9.16675 7.8731 9.53984 7.5 10.0001 7.5Z" fill="black"/>
</svg>
