<svg width="20" height="20" viewBox="0 0 20 20" fill="none" xmlns="http://www.w3.org/2000/svg">
<path fill-rule="evenodd" clip-rule="evenodd" d="M2.5 9.16683C2.5 8.70659 2.8731 8.3335 3.33333 8.3335H16.6667C17.1269 8.3335 17.5 8.70659 17.5 9.16683C17.5 9.62707 17.1269 10.0002 16.6667 10.0002H3.33333C2.8731 10.0002 2.5 9.62707 2.5 9.16683Z" fill="black"/>
<path fill-rule="evenodd" clip-rule="evenodd" d="M2.5 5.83333C2.5 5.3731 2.8731 5 3.33333 5H16.6667C17.1269 5 17.5 5.3731 17.5 5.83333C17.5 6.29357 17.1269 6.66667 16.6667 6.66667H3.33333C2.8731 6.66667 2.5 6.29357 2.5 5.83333Z" fill="black"/>
<path fill-rule="evenodd" clip-rule="evenodd" d="M5.48816 2.15466C5.80072 1.8421 6.22464 1.6665 6.66667 1.6665H10C11.5471 1.6665 13.0308 2.28109 14.1248 3.37505C15.2188 4.46901 15.8333 5.95274 15.8333 7.49984C15.8333 9.04693 15.2188 10.5307 14.1248 11.6246C13.0308 12.7186 11.5471 13.3332 10 13.3332H6.66667V17.4998C6.66667 17.9601 6.29357 18.3332 5.83333 18.3332C5.3731 18.3332 5 17.9601 5 17.4998V3.33317C5 2.89114 5.1756 2.46722 5.48816 2.15466ZM6.66667 11.6665H10C11.1051 11.6665 12.1649 11.2275 12.9463 10.4461C13.7277 9.66471 14.1667 8.60491 14.1667 7.49984C14.1667 6.39477 13.7277 5.33496 12.9463 4.55356C12.1649 3.77216 11.1051 3.33317 10 3.33317H6.66667L6.66667 11.6665Z" fill="black"/>
</svg>
