<svg width="20" height="20" viewBox="0 0 20 20" fill="none" xmlns="http://www.w3.org/2000/svg">
<g clip-path="url(#clip0_2001_9022)">
<path fill-rule="evenodd" clip-rule="evenodd" d="M18.9226 1.07757C19.248 1.40301 19.248 1.93065 18.9226 2.25609L13.9226 7.25608C13.5972 7.58152 13.0695 7.58152 12.7441 7.25608C12.4186 6.93065 12.4186 6.40301 12.7441 6.07757L17.7441 1.07757C18.0695 0.752137 18.5972 0.752137 18.9226 1.07757Z" fill="black"/>
<path fill-rule="evenodd" clip-rule="evenodd" d="M12.7441 1.07757C13.0695 0.752137 13.5972 0.752137 13.9226 1.07757L18.9226 6.07757C19.248 6.40301 19.248 6.93065 18.9226 7.25608C18.5972 7.58152 18.0695 7.58152 17.7441 7.25608L12.7441 2.25609C12.4186 1.93065 12.4186 1.40301 12.7441 1.07757Z" fill="black"/>
<path fill-rule="evenodd" clip-rule="evenodd" d="M6.48471 2.70168C6.33139 2.56982 6.13536 2.49821 5.93315 2.5002C5.93041 2.50023 5.92768 2.50024 5.92494 2.50024H3.4254C3.30982 2.5004 3.19553 2.52459 3.08981 2.57129C2.98398 2.61804 2.88905 2.68631 2.81105 2.77175C2.73305 2.8572 2.6737 2.95795 2.63677 3.06759C2.60043 3.17549 2.58659 3.28968 2.59609 3.40311C2.85671 5.84607 3.68853 8.19347 5.02434 10.2555C5.02567 10.2575 5.02698 10.2596 5.02829 10.2616C6.24212 12.1719 7.86166 13.7914 9.77188 15.0052C9.77321 15.0061 9.77454 15.0069 9.77587 15.0078L9.77836 15.0094C11.8307 16.3403 14.1663 17.1719 16.598 17.4375C16.7114 17.4469 16.8257 17.4329 16.9336 17.3964C17.0435 17.3592 17.1445 17.2995 17.23 17.2211C17.3155 17.1426 17.3837 17.0472 17.4302 16.9409C17.4767 16.8345 17.5004 16.7197 17.5 16.6036C17.4999 16.6025 17.4999 16.6014 17.4999 16.6002V14.1002C17.4999 14.0934 17.5 14.0865 17.5002 14.0796C17.5053 13.8752 17.4351 13.6761 17.3029 13.5202C17.1714 13.365 16.9878 13.2633 16.7866 13.2342C15.9257 13.1203 15.0805 12.9096 14.2669 12.606L14.2651 12.6053C14.1159 12.5492 13.9538 12.5371 13.798 12.5703C13.6428 12.6034 13.5003 12.6801 13.3873 12.7914C13.3868 12.7919 13.3863 12.7923 13.3859 12.7928L12.3309 13.8478C12.0656 14.1131 11.6558 14.1684 11.3297 13.983C9.11302 12.7225 7.27764 10.8872 6.0172 8.67049C5.83177 8.34438 5.88709 7.93458 6.15236 7.66932L7.20878 6.6129C7.32006 6.49983 7.39677 6.35734 7.42986 6.20216C7.46309 6.04634 7.45096 5.88426 7.3949 5.73513L7.3942 5.73325C7.09063 4.91974 6.87991 4.07455 6.76603 3.21376C6.73714 3.01475 6.63724 2.83285 6.48471 2.70168ZM5.92126 0.833577C6.52629 0.828714 7.11262 1.04345 7.57144 1.43803C8.03141 1.8336 8.33184 2.38293 8.41674 2.98362C8.4171 2.98617 8.41745 2.98872 8.41779 2.99128C8.51506 3.72878 8.69542 4.45291 8.95543 5.14987C9.12323 5.59695 9.15948 6.08275 9.05987 6.54979C8.96018 7.01725 8.72857 7.44633 8.39249 7.78619C8.39139 7.7873 8.3903 7.7884 8.3892 7.7895L7.79162 8.38708C8.7715 9.92428 10.0759 11.2287 11.6131 12.2086L12.2107 11.611C12.2118 11.6099 12.2129 11.6088 12.214 11.6077C12.5539 11.2716 12.9829 11.04 13.4504 10.9403C13.9175 10.8407 14.4034 10.877 14.8505 11.0448C15.5474 11.3048 16.2715 11.4851 17.0089 11.5824C17.0114 11.5827 17.0139 11.5831 17.0164 11.5834C17.6236 11.6691 18.1781 11.9749 18.5745 12.4428C18.9685 12.9078 19.179 13.5005 19.1666 14.1095V16.5991C19.1677 16.9465 19.0964 17.2903 18.9572 17.6085C18.8178 17.9275 18.6132 18.2138 18.3567 18.4492C18.1002 18.6845 17.7973 18.8637 17.4675 18.9752C17.1378 19.0868 16.7883 19.1282 16.4416 19.0969C16.4366 19.0964 16.4316 19.0959 16.4266 19.0954C13.734 18.8028 11.1475 17.883 8.87475 16.4098C6.76046 15.0657 4.96771 13.2729 3.62355 11.1586C2.1452 8.87548 1.22517 6.27635 0.937937 3.57158C0.937477 3.56725 0.937051 3.56291 0.93666 3.55858C0.905423 3.21291 0.946503 2.86453 1.05728 2.53561C1.16807 2.20669 1.34612 1.90444 1.58012 1.6481C1.81411 1.39177 2.09892 1.18696 2.4164 1.04673C2.73388 0.906495 3.07709 0.833904 3.42416 0.833577L5.92126 0.833577Z" fill="black"/>
</g>
<defs>
<clipPath id="clip0_2001_9022">
<rect width="20" height="20" fill="white"/>
</clipPath>
</defs>
</svg>
