<svg width="20" height="20" viewBox="0 0 20 20" fill="none" xmlns="http://www.w3.org/2000/svg">
<g clip-path="url(#clip0_2001_9026)">
<path fill-rule="evenodd" clip-rule="evenodd" d="M6.48471 2.70168C6.33139 2.56982 6.13536 2.49821 5.93315 2.5002C5.93041 2.50023 5.92768 2.50024 5.92494 2.50024H3.4254C3.30982 2.5004 3.19553 2.52459 3.08981 2.57129C2.98398 2.61804 2.88905 2.68631 2.81105 2.77175C2.73305 2.8572 2.6737 2.95795 2.63677 3.06759C2.60052 3.17522 2.58666 3.28911 2.59602 3.40225C2.8616 5.83386 3.69318 8.16946 5.02413 10.2218C5.27454 10.608 5.16451 11.124 4.77836 11.3744C4.39221 11.6248 3.87618 11.5148 3.62576 11.1287C2.15139 8.85514 1.23087 6.26748 0.938154 3.5736C0.937611 3.56859 0.937112 3.56359 0.93666 3.55858C0.905423 3.21291 0.946503 2.86453 1.05728 2.53561C1.16807 2.20669 1.34612 1.90444 1.58012 1.6481C1.81411 1.39177 2.09892 1.18696 2.4164 1.04673C2.73388 0.906495 3.07709 0.833904 3.42416 0.833577L5.92126 0.833577C6.52629 0.828714 7.11262 1.04345 7.57145 1.43803C8.03141 1.8336 8.33184 2.38293 8.41674 2.98362C8.4171 2.98617 8.41745 2.98872 8.41779 2.99128C8.51506 3.72878 8.69542 4.45291 8.95543 5.14988C9.12323 5.59695 9.15948 6.08275 9.05987 6.54979C8.96018 7.01725 8.72857 7.44633 8.39249 7.78619C8.3914 7.7873 8.3903 7.7884 8.3892 7.7895L7.33087 8.84783C7.00543 9.17327 6.47779 9.17327 6.15236 8.84783C5.82692 8.5224 5.82692 7.99476 6.15236 7.66932L7.20878 6.6129C7.32006 6.49983 7.39677 6.35734 7.42986 6.20216C7.46309 6.04634 7.45096 5.88426 7.3949 5.73513L7.3942 5.73325C7.09063 4.91974 6.87991 4.07456 6.76603 3.21376C6.73714 3.01475 6.63724 2.83285 6.48471 2.70168ZM8.31095 10.5024C8.63653 10.1771 9.16417 10.1773 9.48946 10.5029C10.1335 11.1476 10.8457 11.7194 11.6131 12.2086L12.2107 11.611C12.2118 11.6099 12.2129 11.6088 12.214 11.6077C12.5539 11.2716 12.9829 11.04 13.4504 10.9403C13.9175 10.8407 14.4034 10.877 14.8505 11.0448C15.5474 11.3048 16.2715 11.4851 17.0089 11.5824C17.0115 11.5827 17.014 11.5831 17.0166 11.5834C17.6173 11.6684 18.1666 11.9688 18.5622 12.4287C18.9567 12.8876 19.1715 13.4739 19.1666 14.0789V16.5741C19.1677 16.9215 19.0964 17.2653 18.9572 17.5835C18.8178 17.9025 18.6132 18.1888 18.3567 18.4242C18.1002 18.6595 17.7973 18.8387 17.4675 18.9502C17.1378 19.0618 16.7883 19.1032 16.4416 19.0719C16.4366 19.0714 16.4316 19.0709 16.4266 19.0704C13.7341 18.7778 11.1476 17.858 8.87492 16.385C7.82055 15.7151 6.84315 14.9313 5.96036 14.0475C5.63511 13.7219 5.6354 13.1943 5.96102 12.869C6.28663 12.5437 6.81427 12.544 7.13953 12.8696C7.93669 13.6677 8.81939 14.3754 9.77163 14.9801C9.77388 14.9815 9.77613 14.9829 9.77836 14.9844C11.8307 16.3153 14.1663 17.1469 16.5979 17.4125C16.7114 17.4219 16.8257 17.4079 16.9336 17.3714C17.0435 17.3342 17.1445 17.2745 17.23 17.1961C17.3155 17.1176 17.3837 17.0222 17.4302 16.9159C17.4767 16.8095 17.5004 16.6947 17.5 16.5786C17.4999 16.5775 17.4999 16.5764 17.4999 16.5752V14.0752C17.4999 14.0725 17.5 14.0698 17.5 14.067C17.502 13.8648 17.4304 13.6688 17.2985 13.5155C17.1673 13.363 16.9854 13.2631 16.7864 13.2342C15.9256 13.1203 15.0805 12.9096 14.2669 12.606L14.2651 12.6053C14.1159 12.5492 13.9538 12.5371 13.798 12.5703C13.6428 12.6034 13.5003 12.6801 13.3873 12.7914C13.3868 12.7919 13.3863 12.7923 13.3859 12.7928L12.3309 13.8478C12.0656 14.1131 11.6558 14.1684 11.3297 13.983C10.2245 13.3546 9.209 12.5803 8.31043 11.6809C7.98514 11.3553 7.98537 10.8277 8.31095 10.5024Z" fill="black"/>
<path fill-rule="evenodd" clip-rule="evenodd" d="M18.9225 1.07757C19.2479 1.40301 19.2479 1.93065 18.9225 2.25609L2.25584 18.9228C1.9304 19.2482 1.40277 19.2482 1.07733 18.9228C0.751893 18.5973 0.751893 18.0697 1.07733 17.7442L17.744 1.07757C18.0694 0.752137 18.5971 0.752137 18.9225 1.07757Z" fill="black"/>
</g>
<defs>
<clipPath id="clip0_2001_9026">
<rect width="20" height="20" fill="white"/>
</clipPath>
</defs>
</svg>
