<svg width="20" height="20" viewBox="0 0 20 20" fill="none" xmlns="http://www.w3.org/2000/svg">
<path fill-rule="evenodd" clip-rule="evenodd" d="M7.50008 2.5C7.96032 2.5 8.33341 2.8731 8.33341 3.33333V16.6667C8.33341 17.1269 7.96032 17.5 7.50008 17.5C7.03984 17.5 6.66675 17.1269 6.66675 16.6667V3.33333C6.66675 2.8731 7.03984 2.5 7.50008 2.5Z" fill="black"/>
<path fill-rule="evenodd" clip-rule="evenodd" d="M5.83333 4.16667C4.8769 4.16667 4.16667 4.8769 4.16667 5.83333C4.16667 6.29357 3.79357 6.66667 3.33333 6.66667C2.8731 6.66667 2.5 6.29357 2.5 5.83333C2.5 3.95643 3.95643 2.5 5.83333 2.5H16.6667C17.1269 2.5 17.5 2.8731 17.5 3.33333C17.5 3.79357 17.1269 4.16667 16.6667 4.16667H5.83333Z" fill="black"/>
<path fill-rule="evenodd" clip-rule="evenodd" d="M12.5001 2.5C12.9603 2.5 13.3334 2.8731 13.3334 3.33333V14.1667C13.3334 15.1231 14.0437 15.8333 15.0001 15.8333C15.4603 15.8333 15.8334 16.2064 15.8334 16.6667C15.8334 17.1269 15.4603 17.5 15.0001 17.5C13.1232 17.5 11.6667 16.0436 11.6667 14.1667V3.33333C11.6667 2.8731 12.0398 2.5 12.5001 2.5Z" fill="black"/>
</svg>
