<svg width="20" height="20" viewBox="0 0 20 20" fill="none" xmlns="http://www.w3.org/2000/svg">
<g clip-path="url(#clip0_2001_9039)">
<path fill-rule="evenodd" clip-rule="evenodd" d="M5.92143 0.544046C7.48091 0.192283 9.11518 0.422247 10.517 1.19071C11.903 1.95044 12.9674 3.18479 13.5153 4.66595C13.8877 5.37696 14.5976 5.8331 15.4168 5.8331C17.4603 5.8331 19.1668 7.53953 19.1668 9.5831V16.6664C19.1668 17.3295 18.9034 17.9654 18.4345 18.4342C17.9657 18.903 17.3298 19.1664 16.6668 19.1664H3.33344C2.67039 19.1664 2.03451 18.903 1.56567 18.4342C1.09683 17.9654 0.833435 17.3295 0.833435 16.6664V7.5391C0.689156 5.962 1.12043 4.38539 2.04843 3.10092C2.98465 1.80507 4.36195 0.895809 5.92143 0.544046ZM9.71588 2.65219C8.67028 2.07902 7.45133 1.9075 6.28816 2.16987C5.12499 2.43224 4.0977 3.11043 3.3994 4.07696C2.70111 5.0435 2.37989 6.23181 2.49613 7.41853C2.49878 7.44553 2.5001 7.47264 2.5001 7.49977V16.6664C2.5001 16.8874 2.5879 17.0994 2.74418 17.2557C2.90046 17.412 3.11242 17.4998 3.33344 17.4998H16.6668C16.8878 17.4998 17.0997 17.412 17.256 17.2557C17.4123 17.0994 17.5001 16.8874 17.5001 16.6664V9.5831C17.5001 8.46 16.5399 7.49977 15.4168 7.49977C13.9175 7.49977 12.6381 6.63923 12.0047 5.37244C11.9901 5.34322 11.9773 5.31316 11.9662 5.28243C11.5617 4.16072 10.7615 3.22537 9.71588 2.65219Z" fill="black"/>
<path fill-rule="evenodd" clip-rule="evenodd" d="M0.833252 11.6668C0.833252 11.2066 1.20635 10.8335 1.66659 10.8335H18.3333C18.7935 10.8335 19.1666 11.2066 19.1666 11.6668C19.1666 12.1271 18.7935 12.5002 18.3333 12.5002H1.66659C1.20635 12.5002 0.833252 12.1271 0.833252 11.6668Z" fill="black"/>
<path fill-rule="evenodd" clip-rule="evenodd" d="M5.00008 10.8335C5.46032 10.8335 5.83341 11.2066 5.83341 11.6668V15.0002C5.83341 15.4604 5.46032 15.8335 5.00008 15.8335C4.53984 15.8335 4.16675 15.4604 4.16675 15.0002V11.6668C4.16675 11.2066 4.53984 10.8335 5.00008 10.8335Z" fill="black"/>
<path fill-rule="evenodd" clip-rule="evenodd" d="M8.33333 10.8335C8.79357 10.8335 9.16667 11.2066 9.16667 11.6668V15.0002C9.16667 15.4604 8.79357 15.8335 8.33333 15.8335C7.8731 15.8335 7.5 15.4604 7.5 15.0002V11.6668C7.5 11.2066 7.8731 10.8335 8.33333 10.8335Z" fill="black"/>
<path fill-rule="evenodd" clip-rule="evenodd" d="M11.6666 10.8335C12.1268 10.8335 12.4999 11.2066 12.4999 11.6668V15.0002C12.4999 15.4604 12.1268 15.8335 11.6666 15.8335C11.2063 15.8335 10.8333 15.4604 10.8333 15.0002V11.6668C10.8333 11.2066 11.2063 10.8335 11.6666 10.8335Z" fill="black"/>
<path fill-rule="evenodd" clip-rule="evenodd" d="M15.0001 10.8335C15.4603 10.8335 15.8334 11.2066 15.8334 11.6668V15.0002C15.8334 15.4604 15.4603 15.8335 15.0001 15.8335C14.5398 15.8335 14.1667 15.4604 14.1667 15.0002V11.6668C14.1667 11.2066 14.5398 10.8335 15.0001 10.8335Z" fill="black"/>
</g>
<defs>
<clipPath id="clip0_2001_9039">
<rect width="20" height="20" fill="white"/>
</clipPath>
</defs>
</svg>
