<svg width="20" height="20" viewBox="0 0 20 20" fill="none" xmlns="http://www.w3.org/2000/svg">
<path fill-rule="evenodd" clip-rule="evenodd" d="M10.1985 7.30072C10.5239 7.62616 10.5239 8.15379 10.1985 8.47923L3.60515 15.0726C3.42991 15.2478 3.33146 15.4855 3.33146 15.7333C3.33146 15.9811 3.42991 16.2188 3.60515 16.3941C3.78039 16.5693 4.01807 16.6677 4.2659 16.6677C4.51372 16.6677 4.7514 16.5693 4.92664 16.3941L11.52 9.80151C11.8455 9.4761 12.3731 9.47613 12.6985 9.80159C13.0239 10.127 13.0239 10.6547 12.6984 10.9801L6.10515 17.5726C6.10514 17.5726 6.10513 17.5726 6.10511 17.5726C5.61732 18.0604 4.95573 18.3344 4.2659 18.3344C3.57604 18.3344 2.91444 18.0604 2.42664 17.5726C1.93884 17.0848 1.66479 16.4232 1.66479 15.7333C1.66479 15.0435 1.93884 14.3819 2.42664 13.8941L9.01997 7.30072C9.34541 6.97528 9.87305 6.97528 10.1985 7.30072Z" fill="black"/>
<path fill-rule="evenodd" clip-rule="evenodd" d="M4.30989 1.66741C5.84232 1.20437 7.45593 1.07371 9.04289 1.28417C10.6299 1.49462 12.1536 2.04135 13.5124 2.88781C13.903 3.13116 14.0224 3.64511 13.7791 4.03575C13.5357 4.42639 13.0218 4.54578 12.6311 4.30243C11.4737 3.58137 10.1756 3.11564 8.82378 2.93637C7.56465 2.76939 6.28583 2.85449 5.06153 3.18567C6.99234 3.86207 8.80272 4.84337 10.4238 6.09254C10.7883 6.37346 10.8561 6.89672 10.5752 7.26128C10.2943 7.62583 9.77099 7.69363 9.40644 7.4127C7.89011 6.24422 6.19233 5.33245 4.38076 4.71373C4.3539 4.70455 4.32753 4.69401 4.30174 4.68215C4.02968 4.55695 3.79637 4.36076 3.62636 4.1142C3.45635 3.86765 3.35591 3.57983 3.33562 3.28103C3.31532 2.98223 3.37592 2.68348 3.51103 2.4162C3.64614 2.14892 3.85077 1.92298 4.10341 1.76215C4.16759 1.72129 4.23706 1.68941 4.30989 1.66741Z" fill="black"/>
<path fill-rule="evenodd" clip-rule="evenodd" d="M13 2.48815C13.3116 2.18277 13.7304 2.01172 14.1667 2.01172C14.6029 2.01172 15.0218 2.18277 15.3333 2.48815C15.3353 2.49009 15.3373 2.49205 15.3393 2.49401L17.5059 4.66068C17.5079 4.66264 17.5099 4.66462 17.5118 4.6666C17.8172 4.97815 17.9882 5.39701 17.9882 5.83327C17.9882 6.26952 17.8172 6.68839 17.5118 6.99993C17.5099 7.00192 17.5079 7.00389 17.5059 7.00586L13.6726 10.8392C13.6706 10.8412 13.6687 10.8431 13.6667 10.8451C13.3551 11.1504 12.9363 11.3215 12.5 11.3215C12.0638 11.3215 11.6449 11.1504 11.3333 10.8451C11.3314 10.8431 11.3294 10.8412 11.3274 10.8392L9.16076 8.67252C9.15879 8.67056 9.15684 8.66858 9.1549 8.6666C8.84952 8.35505 8.67847 7.93619 8.67847 7.49993C8.67847 7.06368 8.84952 6.64481 9.1549 6.33327C9.15684 6.33128 9.15879 6.32931 9.16076 6.32734L12.9941 2.49401C12.9961 2.49205 12.998 2.49009 13 2.48815ZM14.1667 3.67844L10.3452 7.49993L12.5 9.65475L16.3215 5.83327L14.1667 3.67844Z" fill="black"/>
<path fill-rule="evenodd" clip-rule="evenodd" d="M15.9645 6.22084C16.3551 5.97751 16.8691 6.09692 17.1124 6.48757C17.9588 7.84635 18.5055 9.37011 18.716 10.9571C18.9264 12.544 18.7958 14.1576 18.3328 15.69C18.3107 15.7631 18.2787 15.8329 18.2376 15.8973C18.0766 16.1495 17.8507 16.3537 17.5836 16.4886C17.3166 16.6234 17.0181 16.6838 16.7196 16.6636C16.4211 16.6433 16.1335 16.543 15.8871 16.3733C15.6407 16.2035 15.4446 15.9706 15.3192 15.699C15.3072 15.6729 15.2966 15.6463 15.2873 15.6191C14.6686 13.8073 13.7569 12.1092 12.5883 10.5926C12.3074 10.2281 12.3752 9.70481 12.7398 9.4239C13.1044 9.14299 13.6276 9.21081 13.9085 9.57538C15.1575 11.1963 16.1386 13.0065 16.8149 14.937C17.1457 13.7131 17.2307 12.4348 17.0638 11.1762C16.8845 9.82431 16.4188 8.52627 15.6978 7.36878C15.4544 6.97813 15.5738 6.46418 15.9645 6.22084Z" fill="black"/>
</svg>
