<svg width="20" height="20" viewBox="0 0 20 20" fill="none" xmlns="http://www.w3.org/2000/svg">
<path fill-rule="evenodd" clip-rule="evenodd" d="M1.07733 2.32757C1.40277 2.00214 1.9304 2.00214 2.25584 2.32757L5.83325 5.90498V3.75016C5.83325 3.28993 6.20635 2.91683 6.66659 2.91683C7.12682 2.91683 7.49992 3.28993 7.49992 3.75016V7.91683C7.49992 8.37707 7.12682 8.75016 6.66659 8.75016H2.49992C2.03968 8.75016 1.66659 8.37707 1.66659 7.91683C1.66659 7.45659 2.03968 7.0835 2.49992 7.0835H4.65474L1.07733 3.50609C0.751893 3.18065 0.751893 2.65301 1.07733 2.32757ZM9.16659 3.75016C9.16659 3.28993 9.53968 2.91683 9.99992 2.91683H15.8333C17.2602 2.91683 18.3333 3.98993 18.3333 5.41683V7.91683C18.3333 8.37707 17.9602 8.75016 17.4999 8.75016C17.0397 8.75016 16.6666 8.37707 16.6666 7.91683V5.41683C16.6666 4.9104 16.3397 4.5835 15.8333 4.5835H9.99992C9.53968 4.5835 9.16659 4.2104 9.16659 3.75016ZM2.49992 10.4168C2.96016 10.4168 3.33325 10.7899 3.33325 11.2502V12.9168C3.33325 13.3316 3.75182 13.7502 4.16659 13.7502H6.66659C7.12682 13.7502 7.49992 14.1233 7.49992 14.5835C7.49992 15.0437 7.12682 15.4168 6.66659 15.4168H4.16659C2.83135 15.4168 1.66659 14.2521 1.66659 12.9168V11.2502C1.66659 10.7899 2.03968 10.4168 2.49992 10.4168Z" fill="black"/>
<path fill-rule="evenodd" clip-rule="evenodd" d="M11.6667 12.0832C11.2065 12.0832 10.8334 12.4563 10.8334 12.9165V15.4165C10.8334 15.8767 11.2065 16.2498 11.6667 16.2498H16.6667C17.127 16.2498 17.5001 15.8767 17.5001 15.4165V12.9165C17.5001 12.4563 17.127 12.0832 16.6667 12.0832H11.6667ZM9.16675 12.9165C9.16675 11.5358 10.286 10.4165 11.6667 10.4165H16.6667C18.0475 10.4165 19.1667 11.5358 19.1667 12.9165V15.4165C19.1667 16.7972 18.0475 17.9165 16.6667 17.9165H11.6667C10.286 17.9165 9.16675 16.7972 9.16675 15.4165V12.9165Z" fill="black"/>
</svg>
