<svg width="20" height="20" viewBox="0 0 20 20" fill="none" xmlns="http://www.w3.org/2000/svg">
<path fill-rule="evenodd" clip-rule="evenodd" d="M1.56549 3.23223C2.03433 2.76339 2.67021 2.5 3.33325 2.5H15.8333C16.4963 2.5 17.1322 2.76339 17.601 3.23223C18.0699 3.70107 18.3333 4.33696 18.3333 5V7.5C18.3333 7.96024 17.9602 8.33333 17.4999 8.33333C17.0397 8.33333 16.6666 7.96024 16.6666 7.5V5C16.6666 4.77899 16.5788 4.56702 16.4225 4.41074C16.2662 4.25446 16.0543 4.16667 15.8333 4.16667H3.33325C3.11224 4.16667 2.90028 4.25446 2.744 4.41074C2.58772 4.56702 2.49992 4.77899 2.49992 5V13.3333C2.49992 13.7898 2.87682 14.1667 3.33325 14.1667H6.66659C7.12682 14.1667 7.49992 14.5398 7.49992 15C7.49992 15.4602 7.12682 15.8333 6.66659 15.8333H3.33325C1.95635 15.8333 0.833252 14.7102 0.833252 13.3333V5C0.833252 4.33696 1.09664 3.70107 1.56549 3.23223Z" fill="black"/>
<path fill-rule="evenodd" clip-rule="evenodd" d="M11.6667 11.6667C11.2065 11.6667 10.8334 12.0398 10.8334 12.5V15C10.8334 15.4602 11.2065 15.8333 11.6667 15.8333H16.6667C17.127 15.8333 17.5001 15.4602 17.5001 15V12.5C17.5001 12.0398 17.127 11.6667 16.6667 11.6667H11.6667ZM9.16675 12.5C9.16675 11.1193 10.286 10 11.6667 10H16.6667C18.0475 10 19.1667 11.1193 19.1667 12.5V15C19.1667 16.3807 18.0475 17.5 16.6667 17.5H11.6667C10.286 17.5 9.16675 16.3807 9.16675 15V12.5Z" fill="black"/>
</svg>
