<svg width="20" height="20" viewBox="0 0 20 20" fill="none" xmlns="http://www.w3.org/2000/svg">
<path fill-rule="evenodd" clip-rule="evenodd" d="M13.6602 4.15898C14.1931 3.73763 14.9544 3.3335 15.8333 3.3335C16.2935 3.3335 16.6666 3.70659 16.6666 4.16683V6.32666C16.9342 6.61206 17.2236 6.98201 17.3812 7.50016H18.3333C18.7935 7.50016 19.1666 7.87326 19.1666 8.3335V11.6668C19.1666 12.1271 18.7935 12.5002 18.3333 12.5002H17.2196C16.8855 13.1154 16.3825 13.5151 15.8333 13.8328V16.6668C15.8333 17.1271 15.4602 17.5002 15 17.5002H11.6666C11.2064 17.5002 10.8333 17.1271 10.8333 16.6668V15.8335H9.99995V16.6668C9.99995 17.1271 9.62685 17.5002 9.16662 17.5002H5.83328C5.37305 17.5002 4.99995 17.1271 4.99995 16.6668V14.1533C4.27641 13.5484 3.83145 12.9369 3.58862 12.2448C3.33275 11.5156 3.33302 10.7654 3.33327 10.0656C3.33328 10.0438 3.33328 10.0219 3.33328 10.0002C3.33328 7.29069 5.28349 5.70812 7.3914 5.00169C9.2131 4.39117 11.3522 4.34947 12.9809 4.8252C13.1629 4.60127 13.3933 4.37002 13.6602 4.15898ZM8.33328 15.8335V15.0002C8.33328 14.5399 8.70638 14.1668 9.16662 14.1668H11.6666C12.1269 14.1668 12.5 14.5399 12.5 15.0002V15.8335H14.1666V13.3335C14.1666 13.0179 14.345 12.7293 14.6273 12.5881C15.409 12.1973 15.7214 11.9174 15.8684 11.4274C15.9742 11.0749 16.2986 10.8335 16.6666 10.8335H17.5V9.16683H16.6666C16.2064 9.16683 15.8333 8.79373 15.8333 8.3335C15.8333 7.86657 15.6519 7.664 15.244 7.25609C15.0877 7.0998 15 6.88784 15 6.66683V5.25634C14.8958 5.31729 14.7933 5.38778 14.6939 5.46634C14.5187 5.60487 14.3731 5.75354 14.2678 5.88444C14.1703 6.00562 14.1329 6.07963 14.1252 6.09481C14.1238 6.09768 14.1234 6.09845 14.1239 6.09702C14.0502 6.3181 13.8873 6.49823 13.6747 6.5937C13.4621 6.68916 13.2192 6.69125 13.005 6.59945C11.7639 6.06753 9.68648 5.9903 7.921 6.58197C6.17475 7.1672 4.99995 8.29297 4.99995 10.0002C4.99995 10.7819 5.00848 11.2575 5.16128 11.693C5.29983 12.0879 5.58989 12.526 6.33328 13.0835C6.54312 13.2409 6.66662 13.4879 6.66662 13.7502V15.8335H8.33328Z" fill="black"/>
<path fill-rule="evenodd" clip-rule="evenodd" d="M1.66659 6.6665C2.12682 6.6665 2.49992 7.0396 2.49992 7.49984V8.33317C2.49992 8.7896 2.87682 9.1665 3.33325 9.1665H4.16658C4.62682 9.1665 4.99992 9.5396 4.99992 9.99984C4.99992 10.4601 4.62682 10.8332 4.16658 10.8332H3.33325C1.95635 10.8332 0.833252 9.71007 0.833252 8.33317V7.49984C0.833252 7.0396 1.20635 6.6665 1.66659 6.6665Z" fill="black"/>
<path fill-rule="evenodd" clip-rule="evenodd" d="M12.5 9.16683C12.5 8.70659 12.8731 8.3335 13.3333 8.3335H13.3417C13.8019 8.3335 14.175 8.70659 14.175 9.16683C14.175 9.62707 13.8019 10.0002 13.3417 10.0002H13.3333C12.8731 10.0002 12.5 9.62707 12.5 9.16683Z" fill="black"/>
</svg>
