<svg width="20" height="20" viewBox="0 0 20 20" fill="none" xmlns="http://www.w3.org/2000/svg">
<path fill-rule="evenodd" clip-rule="evenodd" d="M10.8333 2.5C11.2936 2.5 11.6667 2.8731 11.6667 3.33333V16.6667C11.6667 17.1269 11.2936 17.5 10.8333 17.5C10.3731 17.5 10 17.1269 10 16.6667V3.33333C10 2.8731 10.3731 2.5 10.8333 2.5Z" fill="black"/>
<path fill-rule="evenodd" clip-rule="evenodd" d="M14.1666 2.5C14.6268 2.5 14.9999 2.8731 14.9999 3.33333V16.6667C14.9999 17.1269 14.6268 17.5 14.1666 17.5C13.7063 17.5 13.3333 17.1269 13.3333 16.6667V3.33333C13.3333 2.8731 13.7063 2.5 14.1666 2.5Z" fill="black"/>
<path fill-rule="evenodd" clip-rule="evenodd" d="M4.67568 3.84243C5.53522 2.98289 6.70101 2.5 7.91658 2.5H15.8333C16.2935 2.5 16.6666 2.8731 16.6666 3.33333C16.6666 3.79357 16.2935 4.16667 15.8333 4.16667H7.91658C7.14304 4.16667 6.40117 4.47396 5.85419 5.02094C5.30721 5.56792 4.99992 6.30979 4.99992 7.08333C4.99992 7.85688 5.30721 8.59875 5.85419 9.14573C6.40117 9.69271 7.14304 10 7.91658 10H10.8333C11.2935 10 11.6666 10.3731 11.6666 10.8333C11.6666 11.2936 11.2935 11.6667 10.8333 11.6667H7.91658C6.70101 11.6667 5.53522 11.1838 4.67568 10.3242C3.81614 9.4647 3.33325 8.29891 3.33325 7.08333C3.33325 5.86776 3.81614 4.70197 4.67568 3.84243Z" fill="black"/>
</svg>
