<svg width="20" height="20" viewBox="0 0 20 20" fill="none" xmlns="http://www.w3.org/2000/svg">
<path fill-rule="evenodd" clip-rule="evenodd" d="M11.6666 1.6665C12.1268 1.6665 12.4999 2.0396 12.4999 2.49984V11.6665C12.4999 12.1267 12.1268 12.4998 11.6666 12.4998C11.2063 12.4998 10.8333 12.1267 10.8333 11.6665V2.49984C10.8333 2.0396 11.2063 1.6665 11.6666 1.6665Z" fill="black"/>
<path fill-rule="evenodd" clip-rule="evenodd" d="M9.16659 3.33317C8.72456 3.33317 8.30063 3.50877 7.98807 3.82133C7.67551 4.13389 7.49992 4.55781 7.49992 4.99984C7.49992 5.44186 7.67551 5.86579 7.98807 6.17835C8.30063 6.49091 8.72456 6.6665 9.16659 6.6665H11.6666C12.1268 6.6665 12.4999 7.0396 12.4999 7.49984C12.4999 7.96007 12.1268 8.33317 11.6666 8.33317H9.16659C8.28253 8.33317 7.43468 7.98198 6.80956 7.35686C6.18444 6.73174 5.83325 5.88389 5.83325 4.99984C5.83325 4.11578 6.18444 3.26794 6.80956 2.64281C7.43468 2.01769 8.28253 1.6665 9.16659 1.6665H16.6666C17.1268 1.6665 17.4999 2.0396 17.4999 2.49984C17.4999 2.96007 17.1268 3.33317 16.6666 3.33317H9.16659Z" fill="black"/>
<path fill-rule="evenodd" clip-rule="evenodd" d="M15.0001 1.6665C15.4603 1.6665 15.8334 2.0396 15.8334 2.49984V11.6665C15.8334 12.1267 15.4603 12.4998 15.0001 12.4998C14.5398 12.4998 14.1667 12.1267 14.1667 11.6665V2.49984C14.1667 2.0396 14.5398 1.6665 15.0001 1.6665Z" fill="black"/>
<path fill-rule="evenodd" clip-rule="evenodd" d="M5.5892 11.0776C5.91464 11.403 5.91464 11.9306 5.5892 12.2561L3.67845 14.1668H18.3333C18.7935 14.1668 19.1666 14.5399 19.1666 15.0002C19.1666 15.4604 18.7935 15.8335 18.3333 15.8335H1.66661C1.32956 15.8335 1.02569 15.6305 0.89671 15.3191C0.767726 15.0077 0.839022 14.6492 1.07735 14.4109L4.41069 11.0776C4.73612 10.7521 5.26376 10.7521 5.5892 11.0776Z" fill="black"/>
<path fill-rule="evenodd" clip-rule="evenodd" d="M1.07733 14.4106C1.40277 14.0851 1.9304 14.0851 2.25584 14.4106L5.58917 17.7439C5.91461 18.0694 5.91461 18.597 5.58917 18.9224C5.26374 19.2479 4.7361 19.2479 4.41066 18.9224L1.07733 15.5891C0.751893 15.2637 0.751893 14.736 1.07733 14.4106Z" fill="black"/>
</svg>
