<svg width="20" height="20" viewBox="0 0 20 20" fill="none" xmlns="http://www.w3.org/2000/svg">
<path fill-rule="evenodd" clip-rule="evenodd" d="M8.33333 1.6665C8.79357 1.6665 9.16667 2.0396 9.16667 2.49984V11.6665C9.16667 12.1267 8.79357 12.4998 8.33333 12.4998C7.8731 12.4998 7.5 12.1267 7.5 11.6665V2.49984C7.5 2.0396 7.8731 1.6665 8.33333 1.6665Z" fill="black"/>
<path fill-rule="evenodd" clip-rule="evenodd" d="M5.83333 3.33317C5.39131 3.33317 4.96738 3.50877 4.65482 3.82133C4.34226 4.13389 4.16667 4.55781 4.16667 4.99984C4.16667 5.44186 4.34226 5.86579 4.65482 6.17835C4.96738 6.49091 5.39131 6.6665 5.83333 6.6665H8.33333C8.79357 6.6665 9.16667 7.0396 9.16667 7.49984C9.16667 7.96007 8.79357 8.33317 8.33333 8.33317H5.83333C4.94928 8.33317 4.10143 7.98198 3.47631 7.35686C2.85119 6.73174 2.5 5.88389 2.5 4.99984C2.5 4.11578 2.85119 3.26794 3.47631 2.64281C4.10143 2.01769 4.94928 1.6665 5.83333 1.6665H12.5C12.9602 1.6665 13.3333 2.0396 13.3333 2.49984C13.3333 2.96007 12.9602 3.33317 12.5 3.33317H5.83333Z" fill="black"/>
<path fill-rule="evenodd" clip-rule="evenodd" d="M11.6666 1.6665C12.1268 1.6665 12.4999 2.0396 12.4999 2.49984V11.6665C12.4999 12.1267 12.1268 12.4998 11.6666 12.4998C11.2063 12.4998 10.8333 12.1267 10.8333 11.6665V2.49984C10.8333 2.0396 11.2063 1.6665 11.6666 1.6665Z" fill="black"/>
<path fill-rule="evenodd" clip-rule="evenodd" d="M14.4107 11.0776C14.7361 10.7521 15.2637 10.7521 15.5892 11.0776L18.9225 14.4109C19.1608 14.6492 19.2321 15.0077 19.1031 15.3191C18.9742 15.6305 18.6703 15.8335 18.3333 15.8335H1.66659C1.20635 15.8335 0.833252 15.4604 0.833252 15.0002C0.833252 14.5399 1.20635 14.1668 1.66659 14.1668H16.3214L14.4107 12.2561C14.0852 11.9306 14.0852 11.403 14.4107 11.0776Z" fill="black"/>
<path fill-rule="evenodd" clip-rule="evenodd" d="M18.9227 14.4106C19.2481 14.736 19.2481 15.2637 18.9227 15.5891L15.5893 18.9224C15.2639 19.2479 14.7363 19.2479 14.4108 18.9224C14.0854 18.597 14.0854 18.0694 14.4108 17.7439L17.7442 14.4106C18.0696 14.0851 18.5972 14.0851 18.9227 14.4106Z" fill="black"/>
</svg>
