<svg width="20" height="20" viewBox="0 0 20 20" fill="none" xmlns="http://www.w3.org/2000/svg">
<path fill-rule="evenodd" clip-rule="evenodd" d="M10.4882 8.82165C10.8007 8.50909 11.2246 8.3335 11.6667 8.3335H15C15.4602 8.3335 15.8333 8.70659 15.8333 9.16683C15.8333 9.62707 15.4602 10.0002 15 10.0002L11.6667 10.0002L11.6667 14.1668H15C15.4602 14.1668 15.8333 14.5399 15.8333 15.0002C15.8333 15.4604 15.4602 15.8335 15 15.8335H11.6667C11.2246 15.8335 10.8007 15.6579 10.4882 15.3453C10.1756 15.0328 10 14.6089 10 14.1668V10.0002C10 9.55813 10.1756 9.13421 10.4882 8.82165Z" fill="black"/>
<path fill-rule="evenodd" clip-rule="evenodd" d="M5.00008 5C5.46032 5 5.83341 5.3731 5.83341 5.83333V16.6667C5.83341 16.8877 5.92121 17.0996 6.07749 17.2559C6.23377 17.4122 6.44573 17.5 6.66675 17.5H13.3334C13.5544 17.5 13.7664 17.4122 13.9227 17.2559C14.079 17.0996 14.1667 16.8877 14.1667 16.6667V5.83333C14.1667 5.3731 14.5398 5 15.0001 5C15.4603 5 15.8334 5.3731 15.8334 5.83333V16.6667C15.8334 17.3297 15.57 17.9656 15.1012 18.4344C14.6323 18.9033 13.9965 19.1667 13.3334 19.1667H6.66675C6.00371 19.1667 5.36782 18.9033 4.89898 18.4344C4.43014 17.9656 4.16675 17.3297 4.16675 16.6667V5.83333C4.16675 5.3731 4.53984 5 5.00008 5Z" fill="black"/>
<path fill-rule="evenodd" clip-rule="evenodd" d="M4.16667 2.50016V5.00016H15.8333V2.50016H4.16667ZM15.8343 2.5002C15.8344 2.50021 15.8344 2.50021 15.8344 2.5002L15.8343 2.5002ZM4.16566 5.00012C4.16561 5.00012 4.1656 5.00012 4.16563 5.00012L4.16566 5.00012ZM2.5 2.50016C2.5 1.57969 3.24619 0.833496 4.16667 0.833496H15.8333C16.7538 0.833496 17.5 1.57969 17.5 2.50016V5.00016C17.5 5.92064 16.7538 6.66683 15.8333 6.66683H4.16667C3.24619 6.66683 2.5 5.92064 2.5 5.00016V2.50016Z" fill="black"/>
</svg>
