<svg width="20" height="20" viewBox="0 0 20 20" fill="none" xmlns="http://www.w3.org/2000/svg">
<g clip-path="url(#clip0_2001_9081)">
<path fill-rule="evenodd" clip-rule="evenodd" d="M14.171 0.845766C14.8264 0.842456 15.4759 0.969094 16.0819 1.21836C16.688 1.46762 17.2387 1.83456 17.7021 2.29797C18.1655 2.76137 18.5325 3.31204 18.7817 3.91814C19.031 4.52424 19.1576 5.17374 19.1543 5.82908C19.151 6.48442 19.0178 7.13261 18.7624 7.73616C18.5077 8.33835 18.1363 8.88418 17.6697 9.34224L9.342 17.6699C8.88393 18.1365 8.3381 18.5079 7.73591 18.7627C7.13237 19.0181 6.48418 19.1513 5.82884 19.1546C5.17349 19.1579 4.52399 19.0312 3.91789 18.782C3.3118 18.5327 2.76112 18.1658 2.29772 17.7024C1.83432 17.239 1.46738 16.6883 1.21811 16.0822C0.96885 15.4761 0.842212 14.8266 0.845522 14.1713C0.848832 13.5159 0.982024 12.8677 1.2374 12.2642C1.49219 11.662 1.86357 11.1162 2.33014 10.6581L10.6579 2.33038C11.1159 1.86381 11.6617 1.49243 12.2639 1.23764C12.8675 0.982268 13.5157 0.849076 14.171 0.845766ZM15.448 2.75976C15.0457 2.59428 14.6145 2.51021 14.1794 2.51241C13.7444 2.51461 13.3141 2.60303 12.9134 2.77256C12.5127 2.9421 12.1496 3.18938 11.8451 3.50011C11.8431 3.50211 11.8412 3.5041 11.8392 3.50609L3.50584 11.8394C3.50386 11.8414 3.50187 11.8434 3.49986 11.8453C3.18913 12.1499 2.94185 12.513 2.77232 12.9136C2.60279 13.3143 2.51437 13.7446 2.51217 14.1797C2.50997 14.6147 2.59404 15.0459 2.75952 15.4483C2.92499 15.8506 3.16859 16.2162 3.47623 16.5239C3.78387 16.8315 4.14944 17.0751 4.55181 17.2406C4.95418 17.406 5.38536 17.4901 5.82042 17.4879C6.25548 17.4857 6.68579 17.3973 7.08646 17.2278C7.48714 17.0582 7.85023 16.811 8.15474 16.5002C8.15671 16.4982 8.15868 16.4962 8.16067 16.4942L16.494 8.16091C16.496 8.15893 16.498 8.15695 16.5 8.15499C16.8107 7.85047 17.058 7.48738 17.2275 7.08671C17.3971 6.68603 17.4855 6.25572 17.4877 5.82066C17.4899 5.3856 17.4058 4.95442 17.2403 4.55205C17.0749 4.14969 16.8313 3.78412 16.5236 3.47648C16.216 3.16884 15.8504 2.92524 15.448 2.75976Z" fill="black"/>
<path fill-rule="evenodd" clip-rule="evenodd" d="M6.49408 6.49408C6.81951 6.16864 7.34715 6.16864 7.67259 6.49408L13.5059 12.3274C13.8314 12.6528 13.8314 13.1805 13.5059 13.5059C13.1805 13.8314 12.6528 13.8314 12.3274 13.5059L6.49408 7.67259C6.16864 7.34715 6.16864 6.81951 6.49408 6.49408Z" fill="black"/>
</g>
<defs>
<clipPath id="clip0_2001_9081">
<rect width="20" height="20" fill="white"/>
</clipPath>
</defs>
</svg>
