<svg width="20" height="20" viewBox="0 0 20 20" fill="none" xmlns="http://www.w3.org/2000/svg">
<g clip-path="url(#clip0_2001_9084)">
<path fill-rule="evenodd" clip-rule="evenodd" d="M10.0001 13.3335C10.4603 13.3335 10.8334 13.7066 10.8334 14.1668V18.3335C10.8334 18.7937 10.4603 19.1668 10.0001 19.1668C9.53984 19.1668 9.16675 18.7937 9.16675 18.3335V14.1668C9.16675 13.7066 9.53984 13.3335 10.0001 13.3335Z" fill="black"/>
<path fill-rule="evenodd" clip-rule="evenodd" d="M5.7417 1.66683C5.7417 1.20659 6.1148 0.833496 6.57503 0.833496H13.3334C13.9964 0.833496 14.6323 1.09689 15.1011 1.56573C15.57 2.03457 15.8334 2.67045 15.8334 3.3335C15.8334 3.99654 15.57 4.63242 15.1011 5.10126C14.6323 5.5701 13.9964 5.8335 13.3334 5.8335L13.3334 7.7835C13.3334 8.24373 12.9603 8.61683 12.5 8.61683C12.0398 8.61683 11.6667 8.24373 11.6667 7.7835V5.8335C11.6667 5.39147 11.8423 4.96755 12.1549 4.65498C12.4674 4.34242 12.8913 4.16683 13.3334 4.16683C13.5544 4.16683 13.7663 4.07903 13.9226 3.92275C14.0789 3.76647 14.1667 3.55451 14.1667 3.3335C14.1667 3.11248 14.0789 2.90052 13.9226 2.74424C13.7663 2.58796 13.5544 2.50016 13.3334 2.50016H6.57503C6.1148 2.50016 5.7417 2.12707 5.7417 1.66683Z" fill="black"/>
<path fill-rule="evenodd" clip-rule="evenodd" d="M1.07733 1.07757C1.40277 0.752137 1.9304 0.752137 2.25584 1.07757L18.9225 17.7442C19.2479 18.0697 19.2479 18.5973 18.9225 18.9228C18.5971 19.2482 18.0694 19.2482 17.744 18.9228L1.07733 2.25609C0.751893 1.93065 0.751893 1.40301 1.07733 1.07757Z" fill="black"/>
<path fill-rule="evenodd" clip-rule="evenodd" d="M7.49992 6.6665C7.96016 6.6665 8.33325 7.0396 8.33325 7.49984V8.96695C8.33301 9.43205 8.20302 9.88787 7.9579 10.2831C7.71335 10.6775 7.36388 10.996 6.94863 11.203L5.4676 11.9518C5.46588 11.9527 5.46415 11.9536 5.46242 11.9544C5.32358 12.0234 5.20674 12.1298 5.12504 12.2615C5.04336 12.3933 5.00004 12.5451 4.99992 12.7001V13.3332H14.1666C14.6268 13.3332 14.9999 13.7063 14.9999 14.1665C14.9999 14.6267 14.6268 14.9998 14.1666 14.9998H4.99992C4.55789 14.9998 4.13397 14.8242 3.82141 14.5117C3.50885 14.1991 3.33325 13.7752 3.33325 13.3332L3.33325 12.6994C3.3335 12.2343 3.46349 11.7785 3.7086 11.3832C3.95315 10.9888 4.30262 10.6703 4.71788 10.4633L6.1989 9.71449C6.20063 9.71362 6.20235 9.71276 6.20409 9.71189C6.34292 9.6429 6.45976 9.53655 6.54147 9.40479C6.62317 9.27303 6.6665 9.1211 6.66659 8.96606V7.49984C6.66659 7.0396 7.03968 6.6665 7.49992 6.6665Z" fill="black"/>
</g>
<defs>
<clipPath id="clip0_2001_9084">
<rect width="20" height="20" fill="white"/>
</clipPath>
</defs>
</svg>
