<svg width="20" height="20" viewBox="0 0 20 20" fill="none" xmlns="http://www.w3.org/2000/svg">
<path fill-rule="evenodd" clip-rule="evenodd" d="M10.0001 13.3335C10.4603 13.3335 10.8334 13.7066 10.8334 14.1668V18.3335C10.8334 18.7937 10.4603 19.1668 10.0001 19.1668C9.53984 19.1668 9.16675 18.7937 9.16675 18.3335V14.1668C9.16675 13.7066 9.53984 13.3335 10.0001 13.3335Z" fill="black"/>
<path fill-rule="evenodd" clip-rule="evenodd" d="M4.89882 1.56573C5.36766 1.09689 6.00354 0.833496 6.66658 0.833496H13.3333C13.9963 0.833496 14.6322 1.09689 15.101 1.56573C15.5699 2.03457 15.8333 2.67045 15.8333 3.3335C15.8333 3.99654 15.5699 4.63242 15.101 5.10126C14.6322 5.5701 13.9963 5.8335 13.3333 5.8335V8.96639C13.3333 9.12142 13.3767 9.27336 13.4584 9.40512C13.5401 9.53688 13.6569 9.64323 13.7958 9.71222C13.7975 9.71308 13.7992 9.71395 13.8009 9.71482L15.282 10.4637C15.6972 10.6707 16.0467 10.9892 16.2912 11.3835C16.5363 11.7788 16.6663 12.2346 16.6666 12.6997V13.3335C16.6666 13.7755 16.491 14.1994 16.1784 14.512C15.8659 14.8246 15.4419 15.0002 14.9999 15.0002H4.99992C4.55789 15.0002 4.13397 14.8246 3.82141 14.512C3.50885 14.1994 3.33325 13.7755 3.33325 13.3335L3.33325 12.6997C3.3335 12.2346 3.46349 11.7788 3.7086 11.3835C3.95315 10.9892 4.30262 10.6707 4.71788 10.4637L6.1989 9.71482C6.20063 9.71395 6.20235 9.71308 6.20409 9.71222C6.34292 9.64323 6.45976 9.53688 6.54147 9.40512C6.62317 9.27336 6.6665 9.12142 6.66658 8.96639V5.8335C6.00354 5.8335 5.36766 5.5701 4.89882 5.10126C4.42998 4.63242 4.16659 3.99654 4.16659 3.3335C4.16659 2.67046 4.42998 2.03457 4.89882 1.56573ZM6.66658 2.50016C6.44557 2.50016 6.23361 2.58796 6.07733 2.74424C5.92105 2.90052 5.83325 3.11248 5.83325 3.3335C5.83325 3.55451 5.92105 3.76647 6.07733 3.92275C6.23361 4.07903 6.44557 4.16683 6.66658 4.16683C7.10861 4.16683 7.53254 4.34242 7.8451 4.65499C8.15766 4.96755 8.33325 5.39147 8.33325 5.8335V8.96727C8.333 9.43238 8.20302 9.88819 7.9579 10.2835C7.71335 10.6778 7.36388 10.9963 6.94863 11.2033L5.4676 11.9522C5.46588 11.953 5.46415 11.9539 5.46242 11.9548C5.32358 12.0238 5.20674 12.1301 5.12504 12.2619C5.04336 12.3936 5.00004 12.5454 4.99992 12.7004V13.3335H14.9999V12.7006C14.9998 12.5456 14.9565 12.3936 14.8748 12.2619C14.7931 12.1301 14.6763 12.0238 14.5374 11.9548C14.5357 11.9539 14.534 11.953 14.5322 11.9522L13.0512 11.2033C12.6359 10.9963 12.2865 10.6778 12.0419 10.2835C11.7968 9.88819 11.6668 9.43238 11.6666 8.96727V5.8335C11.6666 5.39147 11.8422 4.96755 12.1547 4.65499C12.4673 4.34242 12.8912 4.16683 13.3333 4.16683C13.5543 4.16683 13.7662 4.07903 13.9225 3.92275C14.0788 3.76647 14.1666 3.55451 14.1666 3.3335C14.1666 3.11248 14.0788 2.90052 13.9225 2.74424C13.7662 2.58796 13.5543 2.50016 13.3333 2.50016H6.66658Z" fill="black"/>
</svg>
