<svg width="20" height="20" viewBox="0 0 20 20" fill="none" xmlns="http://www.w3.org/2000/svg">
<g clip-path="url(#clip0_2001_9092)">
<path fill-rule="evenodd" clip-rule="evenodd" d="M13.0892 9.41058C13.4146 9.73602 13.4146 10.2637 13.0892 10.5891L5.58917 18.0891C5.43289 18.2454 5.22093 18.3332 4.99992 18.3332H2.8451L2.25584 18.9224C1.9304 19.2479 1.40277 19.2479 1.07733 18.9224C0.751893 18.597 0.751893 18.0694 1.07733 17.7439L1.91066 16.9106C2.06694 16.7543 2.2789 16.6665 2.49992 16.6665H4.65474L11.9107 9.41058C12.2361 9.08514 12.7637 9.08514 13.0892 9.41058Z" fill="black"/>
<path fill-rule="evenodd" clip-rule="evenodd" d="M10.5893 6.91058C10.9148 7.23602 10.9148 7.76366 10.5893 8.08909L3.33341 15.345V17.4998C3.33341 17.9601 2.96032 18.3332 2.50008 18.3332C2.03984 18.3332 1.66675 17.9601 1.66675 17.4998V14.9998C1.66675 14.7788 1.75455 14.5669 1.91083 14.4106L9.41083 6.91058C9.73626 6.58514 10.2639 6.58514 10.5893 6.91058Z" fill="black"/>
<path fill-rule="evenodd" clip-rule="evenodd" d="M16.5834 2.4821C16.3356 2.4821 16.0979 2.58055 15.9227 2.75579L13.0894 5.58912C12.9331 5.7454 12.7211 5.8332 12.5001 5.8332C12.2791 5.8332 12.0671 5.7454 11.9109 5.58912L11.5775 5.25579C11.4907 5.16902 11.3877 5.10019 11.2744 5.05323C11.161 5.00627 11.0395 4.9821 10.9168 4.9821C10.7941 4.9821 10.6726 5.00627 10.5592 5.05323C10.4458 5.10018 10.3428 5.16901 10.256 5.25579C10.1693 5.34256 10.1004 5.44557 10.0535 5.55894C10.0065 5.67231 9.98234 5.79382 9.98234 5.91653C9.98234 6.03924 10.0065 6.16075 10.0535 6.27412C10.1004 6.38749 10.1693 6.4905 10.256 6.57727L13.4227 9.74394C13.5095 9.83071 13.6125 9.89954 13.7258 9.9465C13.8392 9.99346 13.9607 10.0176 14.0834 10.0176C14.2062 10.0176 14.3277 9.99346 14.441 9.9465C14.5544 9.89954 14.6574 9.83071 14.7442 9.74394C14.831 9.65717 14.8998 9.55416 14.9467 9.44079C14.9937 9.32742 15.0179 9.20591 15.0179 9.0832C15.0179 8.96048 14.9937 8.83898 14.9467 8.7256C14.8998 8.61223 14.831 8.50922 14.7442 8.42245L14.4109 8.08912C14.0854 7.76368 14.0854 7.23604 14.4109 6.91061L17.2442 4.07727C17.4194 3.90203 17.5179 3.66436 17.5179 3.41653C17.5179 3.1687 17.4194 2.93103 17.2442 2.75579C17.0689 2.58055 16.8313 2.4821 16.5834 2.4821ZM14.7442 1.57727C15.232 1.08947 15.8936 0.81543 16.5834 0.81543C17.2733 0.81543 17.9349 1.08947 18.4227 1.57727C18.9105 2.06507 19.1845 2.72667 19.1845 3.41653C19.1845 4.10638 18.9105 4.76798 18.4227 5.25579L16.1607 7.51776C16.2927 7.69286 16.4023 7.88434 16.4865 8.0878C16.6173 8.40338 16.6845 8.74161 16.6845 9.0832C16.6845 9.42478 16.6173 9.76301 16.4865 10.0786C16.3558 10.3942 16.1642 10.6809 15.9227 10.9225C15.6812 11.164 15.3944 11.3556 15.0788 11.4863C14.7633 11.617 14.425 11.6843 14.0834 11.6843C13.7419 11.6843 13.4036 11.617 13.088 11.4863C12.7725 11.3556 12.4857 11.164 12.2442 10.9225L9.07752 7.75579C8.83598 7.51425 8.64439 7.22751 8.51367 6.91193C8.38295 6.59635 8.31567 6.25811 8.31567 5.91653C8.31567 5.57495 8.38295 5.23671 8.51367 4.92113C8.64439 4.60555 8.83598 4.31881 9.07752 4.07727C9.31905 3.83574 9.6058 3.64414 9.92138 3.51343C10.237 3.38271 10.5752 3.31543 10.9168 3.31543C11.2584 3.31543 11.5966 3.38271 11.9122 3.51343C12.1156 3.5977 12.3071 3.70729 12.4822 3.83924L14.7442 1.57727Z" fill="black"/>
</g>
<defs>
<clipPath id="clip0_2001_9092">
<rect width="20" height="20" fill="white"/>
</clipPath>
</defs>
</svg>
