<svg width="20" height="20" viewBox="0 0 20 20" fill="none" xmlns="http://www.w3.org/2000/svg">
<g clip-path="url(#clip0_2001_9096)">
<path fill-rule="evenodd" clip-rule="evenodd" d="M10.5892 11.0776C10.9146 11.403 10.9146 11.9306 10.5892 12.2561L9.75584 13.0894C9.4304 13.4149 8.90277 13.4149 8.57733 13.0894C8.25189 12.764 8.25189 12.2363 8.57733 11.9109L9.41066 11.0776C9.7361 10.7521 10.2637 10.7521 10.5892 11.0776Z" fill="black"/>
<path fill-rule="evenodd" clip-rule="evenodd" d="M12.0089 14.5828C12.3543 14.8869 12.3879 15.4135 12.0838 15.759L11.0421 16.9423C10.738 17.2878 10.2114 17.3213 9.86597 17.0172C9.52052 16.7131 9.48699 16.1865 9.79109 15.8411L10.8328 14.6577C11.1369 14.3123 11.6634 14.2787 12.0089 14.5828Z" fill="black"/>
<path fill-rule="evenodd" clip-rule="evenodd" d="M15.628 4.5401C15.7227 4.99051 15.4342 5.43234 14.9838 5.52696C12.6599 6.01519 10.5283 7.16924 8.84906 8.84832C7.16984 10.5274 6.01561 12.6589 5.52719 14.9828C5.43253 15.4332 4.99068 15.7216 4.54028 15.627C4.08988 15.5323 3.8015 15.0904 3.89616 14.64C4.45112 11.9995 5.7626 9.5776 7.6706 7.66976C9.57859 5.76192 12.0006 4.45064 14.6412 3.8959C15.0916 3.80128 15.5334 4.0897 15.628 4.5401Z" fill="black"/>
<path fill-rule="evenodd" clip-rule="evenodd" d="M16.4706 7.53078C16.5917 7.9748 16.33 8.43292 15.8859 8.55402C15.2483 8.72793 14.7058 9.14803 14.3779 9.72191C14.0499 10.2958 13.9634 10.9764 14.1373 11.6141C14.3112 12.2518 14.7313 12.7943 15.3052 13.1222C15.8791 13.4501 16.5597 13.5367 17.1974 13.3627C17.6414 13.2416 18.0995 13.5034 18.2206 13.9474C18.3417 14.3915 18.08 14.8496 17.6359 14.9707C16.5718 15.2609 15.436 15.1165 14.4783 14.5693C13.5206 14.022 12.8196 13.1168 12.5294 12.0526C12.2391 10.9885 12.3835 9.85268 12.9308 8.89501C13.478 7.93735 14.3833 7.23629 15.4474 6.94608C15.8914 6.82498 16.3495 7.08676 16.4706 7.53078Z" fill="black"/>
<path fill-rule="evenodd" clip-rule="evenodd" d="M13.324 2.50132C8.121 3.94948 3.94927 8.12121 2.50111 13.3242C2.50117 13.3244 2.50124 13.3246 2.50131 13.3248C2.5015 13.3252 2.50171 13.3257 2.50194 13.3263C2.50205 13.3265 2.50217 13.3268 2.50229 13.327C2.50242 13.3273 2.50257 13.3276 2.50271 13.3279C2.50292 13.3283 2.50313 13.3287 2.50335 13.3291L2.5036 13.3295C2.50391 13.3301 2.50423 13.3306 2.50457 13.3311C2.5049 13.3317 2.50524 13.3322 2.50558 13.3327C2.50592 13.3332 2.50626 13.3336 2.50659 13.3341C2.50686 13.3344 2.50713 13.3347 2.50738 13.3351L17.4858 17.4957C17.4862 17.4954 17.4866 17.4951 17.4869 17.4947C17.4878 17.494 17.4886 17.4933 17.4894 17.4924C17.4902 17.4916 17.4909 17.4908 17.4917 17.4899C17.4925 17.4891 17.4932 17.4882 17.4938 17.4874C17.4944 17.4867 17.4949 17.486 17.4953 17.4853L13.3348 2.5076C13.3345 2.50734 13.3342 2.50708 13.3338 2.50681C13.3334 2.50647 13.3329 2.50614 13.3325 2.50579C13.332 2.50545 13.3315 2.50512 13.3309 2.50478C13.3307 2.50461 13.3304 2.50444 13.3301 2.50427C13.3298 2.50411 13.3296 2.50396 13.3293 2.50381C13.329 2.50361 13.3286 2.50342 13.3282 2.50323C13.328 2.50313 13.3279 2.50303 13.3277 2.50293C13.3271 2.50265 13.3266 2.50239 13.326 2.50216C13.3258 2.50204 13.3255 2.50194 13.3253 2.50183C13.325 2.50172 13.3248 2.50162 13.3245 2.50152C13.3244 2.50145 13.3242 2.50138 13.324 2.50132ZM12.8855 0.89335C13.7669 0.648056 14.6955 1.18074 14.938 2.05192L19.1046 17.0514C19.4431 18.2645 18.3041 19.4544 17.0512 19.1048L2.0517 14.9382C1.18049 14.6957 0.647762 13.7671 0.893136 12.8858C2.49651 7.11343 7.11321 2.49672 12.8855 0.89335Z" fill="black"/>
</g>
<defs>
<clipPath id="clip0_2001_9096">
<rect width="20" height="20" fill="white"/>
</clipPath>
</defs>
</svg>
