<svg width="20" height="20" viewBox="0 0 20 20" fill="none" xmlns="http://www.w3.org/2000/svg">
<path fill-rule="evenodd" clip-rule="evenodd" d="M0.833252 18.3333C0.833252 17.8731 1.20635 17.5 1.66659 17.5H18.3333C18.7935 17.5 19.1666 17.8731 19.1666 18.3333C19.1666 18.7936 18.7935 19.1667 18.3333 19.1667H1.66659C1.20635 19.1667 0.833252 18.7936 0.833252 18.3333Z" fill="black"/>
<path fill-rule="evenodd" clip-rule="evenodd" d="M8.90459 1.29227C9.11491 1.2226 9.34432 1.23956 9.54212 1.3394L10.4131 1.77907C10.4139 1.77943 10.4146 1.7798 10.4153 1.78016C10.7792 1.96182 11.0932 2.22949 11.3302 2.55998C11.5677 2.89113 11.7206 3.27531 11.7756 3.67907C11.7757 3.67989 11.7759 3.68071 11.776 3.68153L12.3756 8.17907C12.3757 8.17946 12.3757 8.17985 12.3758 8.18024C12.3943 8.3144 12.4452 8.44204 12.5241 8.5521C12.6033 8.66248 12.7082 8.75184 12.8298 8.8124L16.4976 10.6463C16.5023 10.6487 16.507 10.651 16.5116 10.6535C16.986 10.9019 17.4104 11.2827 17.6897 11.7775L18.1867 12.6305C18.1894 12.6352 18.1921 12.6399 18.1947 12.6446C18.8853 13.885 18.1162 15.4531 16.6859 15.627L15.7055 15.7516C15.155 15.8219 14.5853 15.7301 14.0795 15.4673L3.20272 10.0373C3.20115 10.0365 3.19958 10.0357 3.19801 10.0349C2.9581 9.91321 2.73941 9.75362 2.55037 9.56227L1.07735 8.08926C0.833537 7.84544 0.765059 7.47664 0.9051 7.16155L2.57177 3.41155C2.6642 3.20359 2.83766 3.04247 3.05187 2.96562C3.26608 2.88877 3.5024 2.90287 3.70595 3.00464L4.62262 3.46298C4.62442 3.46388 4.62622 3.46479 4.62801 3.4657C5.35821 3.83744 5.83328 4.58656 5.83328 5.41667C5.83328 5.60252 5.94074 5.78606 6.12592 5.8813L6.29393 5.9653L8.42125 1.71066C8.52034 1.51248 8.69426 1.36193 8.90459 1.29227ZM9.53787 3.20421L7.41197 7.45601C7.31312 7.65369 7.1398 7.80401 6.93013 7.8739C6.72046 7.94379 6.49161 7.92753 6.29393 7.82869L5.37726 7.37036C5.37546 7.36946 5.37367 7.36855 5.37187 7.36764C4.64167 6.9959 4.16661 6.24678 4.16661 5.41667C4.16661 5.23081 4.05914 5.04727 3.87395 4.95203L3.7406 4.88536L2.66057 7.31544L3.73087 8.38575C3.73207 8.38696 3.73328 8.38817 3.73448 8.38939L3.73521 8.39012C3.79788 8.45373 3.87037 8.50685 3.9499 8.54745L14.8305 13.9794C14.8353 13.9818 14.8402 13.9843 14.8449 13.9868C15.0372 14.0875 15.2644 14.1277 15.4944 14.0984L15.4949 14.0983L16.4782 13.9733C16.4801 13.9731 16.4821 13.9728 16.484 13.9726C16.7164 13.9447 16.8618 13.6847 16.7413 13.4605L16.2465 12.6111C16.2443 12.6072 16.242 12.6033 16.2398 12.5994C16.1368 12.4157 15.965 12.25 15.7444 12.1331L12.0868 10.3043C12.0867 10.3042 12.0866 10.3042 12.0865 10.3041C11.7218 10.1225 11.4071 9.85443 11.1697 9.52336C10.9322 9.19221 10.7793 8.80802 10.7243 8.40427C10.7241 8.40345 10.724 8.40262 10.7239 8.4018L10.1243 3.90427C10.1242 3.90395 10.1242 3.90364 10.1241 3.90333C10.1057 3.76909 10.0547 3.64136 9.97577 3.53124C9.89661 3.42085 9.79167 3.33149 9.67008 3.27093C9.66875 3.27027 9.66743 3.2696 9.6661 3.26893L9.53787 3.20421Z" fill="black"/>
</svg>
