<svg width="20" height="20" viewBox="0 0 20 20" fill="none" xmlns="http://www.w3.org/2000/svg">
<path fill-rule="evenodd" clip-rule="evenodd" d="M0.833252 18.3333C0.833252 17.8731 1.20635 17.5 1.66659 17.5H18.3333C18.7935 17.5 19.1666 17.8731 19.1666 18.3333C19.1666 18.7936 18.7935 19.1667 18.3333 19.1667H1.66659C1.20635 19.1667 0.833252 18.7936 0.833252 18.3333Z" fill="black"/>
<path fill-rule="evenodd" clip-rule="evenodd" d="M5.28662 5.37187L5.2848 5.37278L7.41212 9.62743C7.51165 9.82649 7.52742 10.0571 7.45592 10.2678C7.38442 10.4786 7.23158 10.652 7.03147 10.7494L6.09445 11.2055C5.74699 11.3794 5.36374 11.4701 4.9751 11.4701C4.58436 11.4701 4.19905 11.3785 3.8501 11.2026C3.83399 11.1945 3.81814 11.1859 3.80258 11.1767L3.68827 11.1095C3.57735 11.0573 3.4562 11.0302 3.33343 11.0302C3.20319 11.0302 3.07475 11.0607 2.95843 11.1193L2.95739 11.1198L2.95611 11.1205L2.7848 11.2061L3.88966 13.4158L5.27422 13.6505C5.32878 13.6488 5.38382 13.6525 5.43856 13.6617C5.61168 13.6909 5.78958 13.6646 5.94689 13.5867L16.6415 8.28102C16.8702 8.16324 17.0502 7.97821 17.1631 7.75243L17.4797 7.11909C17.4812 7.11612 17.4827 7.11315 17.4843 7.11019C17.5069 7.06617 17.5195 7.01764 17.5211 6.96814C17.5227 6.91864 17.5132 6.86942 17.4933 6.82404C17.4735 6.77866 17.4438 6.73827 17.4064 6.70581C17.369 6.67335 17.3248 6.64964 17.2771 6.63638C17.2744 6.63563 17.2717 6.63486 17.269 6.63408L16.4652 6.40206C16.1845 6.325 15.8852 6.35485 15.6252 6.4859C15.6227 6.48715 15.6203 6.48839 15.6178 6.48961L12.1288 8.20494C12.1283 8.20519 12.1278 8.20543 12.1273 8.20567C11.7103 8.41222 11.2439 8.49829 10.7807 8.45417C10.3183 8.41013 9.87732 8.23815 9.50724 7.95755L6.16003 5.45963C6.1585 5.45849 6.15697 5.45734 6.15545 5.45619C6.03228 5.36295 5.88562 5.30578 5.73185 5.29106C5.57881 5.27642 5.42472 5.30439 5.28662 5.37187ZM5.36488 15.3309C5.29739 15.3362 5.22889 15.3333 5.16084 15.3217L3.19418 14.9884C2.93211 14.944 2.70695 14.7772 2.58808 14.5394L0.921412 11.2061C0.715587 10.7945 0.882441 10.2939 1.29409 10.0881L2.20843 9.63091C2.20889 9.63068 2.20935 9.63045 2.20981 9.63022C2.55839 9.45484 2.9432 9.36348 3.33343 9.36348C3.72418 9.36348 4.10949 9.45508 4.45843 9.63091C4.47455 9.63903 4.4904 9.64768 4.50595 9.65683L4.62027 9.72407C4.73118 9.77627 4.85234 9.80339 4.9751 9.80339C5.10535 9.80339 5.23379 9.77286 5.3501 9.71425C5.35352 9.71252 5.35696 9.71082 5.3604 9.70915L5.54473 9.61943L3.42141 5.37278C3.32257 5.1751 3.30631 4.94625 3.3762 4.73658C3.44609 4.52691 3.59641 4.35359 3.79409 4.25475L4.54409 3.87975C4.54501 3.87929 4.54593 3.87883 4.54685 3.87838C4.54754 3.87803 4.54823 3.87769 4.54892 3.87735C4.96476 3.67278 5.42928 3.58783 5.89061 3.63198C6.35089 3.67602 6.78991 3.84685 7.15888 4.12544L10.5068 6.62391C10.5089 6.62546 10.511 6.62703 10.5131 6.6286C10.6367 6.72265 10.7841 6.78028 10.9387 6.79501C11.0933 6.80973 11.2489 6.78096 11.3881 6.71193C11.389 6.71149 11.3899 6.71104 11.3908 6.7106L14.879 4.99561C15.5094 4.67908 16.2351 4.60831 16.9149 4.79719C16.9175 4.79793 16.9202 4.79869 16.9229 4.79946L17.7277 5.03177C18.0122 5.11152 18.2756 5.25335 18.4988 5.44707C18.7232 5.64183 18.9014 5.88415 19.0205 6.15641C19.1395 6.42867 19.1963 6.72403 19.1869 7.02103C19.1776 7.31611 19.103 7.60544 18.9686 7.86825L18.6538 8.49778C18.384 9.03743 17.9486 9.48496 17.3958 9.76727C17.3929 9.76874 17.39 9.77019 17.3871 9.77162L6.68664 15.0802C6.27609 15.2835 5.81879 15.3696 5.36488 15.3309Z" fill="black"/>
</svg>
