<svg width="20" height="20" viewBox="0 0 20 20" fill="none" xmlns="http://www.w3.org/2000/svg">
<path fill-rule="evenodd" clip-rule="evenodd" d="M15.5363 1.70336C16.3141 1.46403 17.1852 1.41071 17.8728 1.75448C18.034 1.83512 18.1648 1.96589 18.2454 2.12716C18.5892 2.81471 18.5359 3.68584 18.2966 4.46366C18.0478 5.27201 17.5594 6.11899 16.8393 6.83909L14.2452 9.43328L15.6474 15.8212C15.6485 15.8262 15.6496 15.8313 15.6506 15.8364C15.8086 16.6266 15.4551 17.2627 14.9168 17.6665C14.8582 17.7104 14.7942 17.7464 14.7262 17.7736L14.3096 17.9402C13.6167 18.2174 12.7705 18.1103 12.2501 17.4165C12.2401 17.4032 12.2305 17.3896 12.2214 17.3757L9.76593 13.6575L8.33342 14.6125V16.6665C8.33342 16.8875 8.24562 17.0995 8.08934 17.2558L7.25601 18.0891C7.07947 18.2656 6.83308 18.3537 6.58464 18.3291C6.33619 18.3045 6.11186 18.1698 5.97338 17.9621L4.39916 15.6008L2.03784 14.0265C1.83011 13.8881 1.69541 13.6637 1.67081 13.4153C1.64621 13.1668 1.73429 12.9205 1.91083 12.7439L2.74416 11.9106C2.90044 11.7543 3.11241 11.6665 3.33342 11.6665H5.38743L6.34244 10.234L2.6242 7.77856C2.61032 7.76939 2.59672 7.75982 2.58342 7.74984C1.88958 7.22946 1.78254 6.38323 2.05969 5.69035C2.07619 5.64908 2.09598 5.6092 2.11884 5.57109L2.35494 5.17759C2.70708 4.50835 3.41582 4.19981 4.16352 4.34935C4.16861 4.35037 4.17369 4.35144 4.17876 4.35255L10.5666 5.75477L13.1608 3.16058C13.8809 2.44048 14.7279 1.95208 15.5363 1.70336ZM16.0264 3.29632C15.4806 3.46426 14.8692 3.8092 14.3393 4.33909L11.4227 7.25576C11.2218 7.45669 10.9323 7.54138 10.6547 7.48046L3.83129 5.98263C3.82568 5.9816 3.82061 5.98082 3.81607 5.98024C3.81028 5.99093 3.80425 6.00149 3.798 6.01192L3.59153 6.35604C3.58388 6.38516 3.58313 6.40463 3.58356 6.41481L7.9593 9.30445C8.14426 9.42659 8.27294 9.61738 8.31688 9.83462C8.36082 10.0519 8.31641 10.2777 8.19346 10.4621L6.52679 12.9621C6.37224 13.1939 6.11205 13.3332 5.83342 13.3332H4.0024L5.46234 14.3065C5.55388 14.3675 5.63243 14.446 5.69346 14.5376L6.66675 15.9975V14.1665C6.66675 13.8879 6.806 13.6277 7.03784 13.4731L9.53784 11.8065C9.72226 11.6835 9.94806 11.6391 10.1653 11.683C10.3825 11.727 10.5733 11.8557 10.6955 12.0406L13.5851 16.4164C13.6 16.417 13.6348 16.4151 13.6906 16.3928L13.9824 16.2761C14.0078 16.2494 14.016 16.2325 14.0179 16.2283C14.0194 16.2248 14.0204 16.2217 14.0209 16.2161C14.0215 16.2104 14.0222 16.1954 14.0173 16.1687L12.5195 9.34518C12.4585 9.06763 12.5432 8.77818 12.7442 8.57725L15.6608 5.66058C16.1907 5.13069 16.5357 4.51933 16.7036 3.97352C16.8061 3.64055 16.8315 3.3735 16.8207 3.17922C16.6264 3.1684 16.3594 3.19387 16.0264 3.29632Z" fill="black"/>
</svg>
