<svg width="20" height="20" viewBox="0 0 20 20" fill="none" xmlns="http://www.w3.org/2000/svg">
<path fill-rule="evenodd" clip-rule="evenodd" d="M4.99986 9.1665C5.22088 9.1665 5.43284 9.2543 5.58912 9.41058L10.5891 14.4106C10.7454 14.5669 10.8332 14.7788 10.8332 14.9998C10.8332 15.2209 10.7454 15.4328 10.5891 15.5891L8.67348 17.5047C8.67326 17.5049 8.67305 17.5052 8.67283 17.5054C8.40974 17.7692 8.09719 17.9786 7.75307 18.1215C7.40868 18.2645 7.03944 18.3381 6.66653 18.3381C6.29363 18.3381 5.92439 18.2645 5.57999 18.1215C5.23591 17.9786 4.9234 17.7693 4.66032 17.5055C4.66008 17.5052 4.65983 17.505 4.65959 17.5047L2.49497 15.3401C2.49483 15.34 2.49469 15.3398 2.49455 15.3397C2.2306 15.0766 2.02117 14.7639 1.87824 14.4197C1.73523 14.0753 1.66162 13.7061 1.66162 13.3332C1.66162 12.9603 1.73523 12.591 1.87824 12.2466C2.02114 11.9025 2.23052 11.5899 2.49439 11.3268C2.49458 11.3266 2.49477 11.3264 2.49497 11.3262L4.41061 9.41058C4.56689 9.2543 4.77885 9.1665 4.99986 9.1665ZM4.99987 11.1783L3.67143 12.5068C3.56267 12.6152 3.47637 12.744 3.41748 12.8858C3.3586 13.0276 3.32829 13.1796 3.32829 13.3332C3.32829 13.4867 3.3586 13.6388 3.41748 13.7806C3.47637 13.9224 3.56267 14.0512 3.67143 14.1596L5.84014 16.3283C5.94853 16.437 6.07732 16.5233 6.21913 16.5822C6.36094 16.6411 6.51298 16.6714 6.66653 16.6714C6.82008 16.6714 6.97212 16.6411 7.11393 16.5822C7.25574 16.5233 7.38453 16.437 7.49292 16.3283L8.82135 14.9998L4.99987 11.1783Z" fill="black"/>
<path fill-rule="evenodd" clip-rule="evenodd" d="M4.75584 15.2441C5.08128 15.5695 5.08128 16.0972 4.75584 16.4226L2.25584 18.9226C1.9304 19.248 1.40277 19.248 1.07733 18.9226C0.751893 18.5972 0.751893 18.0695 1.07733 17.7441L3.57733 15.2441C3.90277 14.9186 4.4304 14.9186 4.75584 15.2441Z" fill="black"/>
<path fill-rule="evenodd" clip-rule="evenodd" d="M8.92267 8.57757C9.24811 8.90301 9.24811 9.43065 8.92267 9.75609L6.83934 11.8394C6.5139 12.1649 5.98626 12.1649 5.66083 11.8394C5.33539 11.514 5.33539 10.9863 5.66083 10.6609L7.74416 8.57757C8.0696 8.25214 8.59723 8.25214 8.92267 8.57757Z" fill="black"/>
<path fill-rule="evenodd" clip-rule="evenodd" d="M11.4227 11.0776C11.7481 11.403 11.7481 11.9306 11.4227 12.2561L9.33934 14.3394C9.0139 14.6649 8.48626 14.6649 8.16083 14.3394C7.83539 14.014 7.83539 13.4863 8.16083 13.1609L10.2442 11.0776C10.5696 10.7521 11.0972 10.7521 11.4227 11.0776Z" fill="black"/>
<path fill-rule="evenodd" clip-rule="evenodd" d="M15.5892 1.91058C15.9146 2.23602 15.9146 2.76366 15.5892 3.08909L13.6785 4.99984H16.6666C17.0037 4.99984 17.3075 5.20287 17.4365 5.51427C17.5655 5.82566 17.4942 6.18409 17.2559 6.42243L13.9225 9.75576C13.5971 10.0812 13.0695 10.0812 12.744 9.75576C12.4186 9.43032 12.4186 8.90268 12.744 8.57725L14.6548 6.6665H11.6666C11.3296 6.6665 11.0257 6.46347 10.8967 6.15207C10.7677 5.84068 10.839 5.48225 11.0774 5.24391L14.4107 1.91058C14.7361 1.58514 15.2638 1.58514 15.5892 1.91058Z" fill="black"/>
</svg>
