<svg width="20" height="20" viewBox="0 0 20 20" fill="none" xmlns="http://www.w3.org/2000/svg">
<path fill-rule="evenodd" clip-rule="evenodd" d="M7.50008 0.833496C7.96032 0.833496 8.33341 1.20659 8.33341 1.66683V6.66683C8.33341 7.12707 7.96032 7.50016 7.50008 7.50016C7.03984 7.50016 6.66675 7.12707 6.66675 6.66683V1.66683C6.66675 1.20659 7.03984 0.833496 7.50008 0.833496Z" fill="black"/>
<path fill-rule="evenodd" clip-rule="evenodd" d="M12.5001 0.833496C12.9603 0.833496 13.3334 1.20659 13.3334 1.66683V6.66683C13.3334 7.12707 12.9603 7.50016 12.5001 7.50016C12.0398 7.50016 11.6667 7.12707 11.6667 6.66683V1.66683C11.6667 1.20659 12.0398 0.833496 12.5001 0.833496Z" fill="black"/>
<path fill-rule="evenodd" clip-rule="evenodd" d="M10.0001 13.3335C10.4603 13.3335 10.8334 13.7066 10.8334 14.1668V18.3335C10.8334 18.7937 10.4603 19.1668 10.0001 19.1668C9.53984 19.1668 9.16675 18.7937 9.16675 18.3335V14.1668C9.16675 13.7066 9.53984 13.3335 10.0001 13.3335Z" fill="black"/>
<path fill-rule="evenodd" clip-rule="evenodd" d="M3.33325 6.66683C3.33325 6.20659 3.70635 5.8335 4.16659 5.8335H15.8333C16.2935 5.8335 16.6666 6.20659 16.6666 6.66683C16.6666 7.12707 16.2935 7.50016 15.8333 7.50016H4.16659C3.70635 7.50016 3.33325 7.12707 3.33325 6.66683Z" fill="black"/>
<path fill-rule="evenodd" clip-rule="evenodd" d="M4.16675 6.66683C4.16675 6.20659 4.53984 5.8335 5.00008 5.8335H15.0001C15.4603 5.8335 15.8334 6.20659 15.8334 6.66683V9.16683C15.8334 10.7139 15.2188 12.1977 14.1249 13.2916C13.0309 14.3856 11.5472 15.0002 10.0001 15.0002C8.45299 15.0002 6.96925 14.3856 5.87529 13.2916C4.78133 12.1977 4.16675 10.7139 4.16675 9.16683V6.66683ZM5.83341 7.50016V9.16683C5.83341 10.2719 6.2724 11.3317 7.0538 12.1131C7.83521 12.8945 8.89501 13.3335 10.0001 13.3335C11.1052 13.3335 12.165 12.8945 12.9464 12.1131C13.7278 11.3317 14.1667 10.2719 14.1667 9.16683V7.50016H5.83341Z" fill="black"/>
</svg>
