<svg width="20" height="20" viewBox="0 0 20 20" fill="none" xmlns="http://www.w3.org/2000/svg">
<path fill-rule="evenodd" clip-rule="evenodd" d="M10.0001 13.3335C10.4603 13.3335 10.8334 13.7066 10.8334 14.1668V18.3335C10.8334 18.7937 10.4603 19.1668 10.0001 19.1668C9.53984 19.1668 9.16675 18.7937 9.16675 18.3335V14.1668C9.16675 13.7066 9.53984 13.3335 10.0001 13.3335Z" fill="black"/>
<path fill-rule="evenodd" clip-rule="evenodd" d="M7.50008 0.833496C7.96032 0.833496 8.33341 1.20659 8.33341 1.66683V6.66683C8.33341 7.12707 7.96032 7.50016 7.50008 7.50016C7.03984 7.50016 6.66675 7.12707 6.66675 6.66683V1.66683C6.66675 1.20659 7.03984 0.833496 7.50008 0.833496Z" fill="black"/>
<path fill-rule="evenodd" clip-rule="evenodd" d="M12.5001 0.833496C12.9603 0.833496 13.3334 1.20659 13.3334 1.66683V6.66683C13.3334 7.12707 12.9603 7.50016 12.5001 7.50016C12.0398 7.50016 11.6667 7.12707 11.6667 6.66683V1.66683C11.6667 1.20659 12.0398 0.833496 12.5001 0.833496Z" fill="black"/>
<path fill-rule="evenodd" clip-rule="evenodd" d="M4.16675 6.66683C4.16675 6.20659 4.53984 5.8335 5.00008 5.8335H15.0001C15.4603 5.8335 15.8334 6.20659 15.8334 6.66683V10.8335C15.8334 11.9386 15.3944 12.9984 14.613 13.7798C13.8316 14.5612 12.7718 15.0002 11.6667 15.0002H8.33342C7.22835 15.0002 6.16854 14.5612 5.38714 13.7798C4.60573 12.9984 4.16675 11.9386 4.16675 10.8335V6.66683ZM5.83341 7.50016V10.8335C5.83341 11.4965 6.09681 12.1324 6.56565 12.6013C7.03449 13.0701 7.67037 13.3335 8.33342 13.3335H11.6667C12.3298 13.3335 12.9657 13.0701 13.4345 12.6013C13.9034 12.1324 14.1667 11.4965 14.1667 10.8335V7.50016H5.83341Z" fill="black"/>
</svg>
