<svg width="20" height="20" viewBox="0 0 20 20" fill="none" xmlns="http://www.w3.org/2000/svg">
<path fill-rule="evenodd" clip-rule="evenodd" d="M3.33325 3.33317C3.11224 3.33317 2.90028 3.42097 2.744 3.57725C2.58772 3.73353 2.49992 3.94549 2.49992 4.1665V9.1665C2.49992 11.1556 3.2901 13.0633 4.69662 14.4698C5.39306 15.1662 6.21985 15.7187 7.12979 16.0956C8.03973 16.4725 9.015 16.6665 9.99992 16.6665C11.989 16.6665 13.8967 15.8763 15.3032 14.4698C16.7097 13.0633 17.4999 11.1556 17.4999 9.1665V4.1665C17.4999 3.94549 17.4121 3.73353 17.2558 3.57725C17.0996 3.42097 16.8876 3.33317 16.6666 3.33317H3.33325ZM1.56549 2.39874C2.03433 1.9299 2.67021 1.6665 3.33325 1.6665H16.6666C17.3296 1.6665 17.9655 1.9299 18.4344 2.39874C18.9032 2.86758 19.1666 3.50346 19.1666 4.1665V9.1665C19.1666 11.5977 18.2008 13.9292 16.4817 15.6483C14.7626 17.3674 12.4311 18.3332 9.99992 18.3332C8.79614 18.3332 7.60414 18.0961 6.49199 17.6354C5.37984 17.1747 4.36931 16.4995 3.51811 15.6483C1.79902 13.9292 0.833252 11.5977 0.833252 9.1665V4.1665C0.833252 3.50346 1.09664 2.86758 1.56549 2.39874Z" fill="black"/>
<path fill-rule="evenodd" clip-rule="evenodd" d="M6.07733 7.74408C6.40277 7.41864 6.9304 7.41864 7.25584 7.74408L9.99992 10.4882L12.744 7.74408C13.0694 7.41864 13.5971 7.41864 13.9225 7.74408C14.2479 8.06951 14.2479 8.59715 13.9225 8.92259L10.5892 12.2559C10.2637 12.5814 9.7361 12.5814 9.41066 12.2559L6.07733 8.92259C5.75189 8.59715 5.75189 8.06951 6.07733 7.74408Z" fill="black"/>
</svg>
