<svg width="20" height="20" viewBox="0 0 20 20" fill="none" xmlns="http://www.w3.org/2000/svg">
<g clip-path="url(#clip0_2001_9132)">
<path fill-rule="evenodd" clip-rule="evenodd" d="M2.50008 0.833496C2.96032 0.833496 3.33341 1.20659 3.33341 1.66683V2.38462C3.40391 2.43369 3.51433 2.49226 3.70609 2.58814C3.7157 2.59294 3.72563 2.5979 3.73586 2.603C3.92226 2.69595 4.20729 2.83808 4.43982 3.03185C4.71254 3.25912 5.00008 3.62923 5.00008 4.16683C5.00008 4.70443 4.71254 5.07453 4.43982 5.30181C4.20729 5.49557 3.92226 5.63771 3.73586 5.73066C3.72563 5.73576 3.7157 5.74071 3.70609 5.74552C3.63913 5.779 3.58209 5.80793 3.5332 5.8335C3.58209 5.85906 3.63913 5.88799 3.70609 5.92147C3.7157 5.92628 3.72563 5.93123 3.73586 5.93633C3.92226 6.02928 4.20729 6.17142 4.43982 6.36519C4.71254 6.59246 5.00008 6.96256 5.00008 7.50016C5.00008 8.03776 4.71254 8.40787 4.43982 8.63514C4.2073 8.82891 3.92226 8.97104 3.73586 9.06399C3.72563 9.06909 3.7157 9.07405 3.70609 9.07885C3.63913 9.11233 3.58209 9.14126 3.5332 9.16683C3.58209 9.19239 3.63913 9.22133 3.70609 9.25481C3.7157 9.25961 3.72563 9.26456 3.73586 9.26966C3.92226 9.36261 4.2073 9.50475 4.43982 9.69852C4.71254 9.92579 5.00008 10.2959 5.00008 10.8335C5.00008 11.2937 4.62699 11.6668 4.16675 11.6668C3.74788 11.6668 3.4012 11.3578 3.34225 10.9553C3.27223 10.9049 3.16071 10.8455 2.96074 10.7455C2.95113 10.7407 2.9412 10.7358 2.93097 10.7307C2.74457 10.6377 2.45953 10.4956 2.22701 10.3018C1.95429 10.0745 1.66675 9.70443 1.66675 9.16683C1.66675 8.62923 1.95429 8.25912 2.22701 8.03185C2.45953 7.83808 2.74457 7.69595 2.93097 7.603C2.9412 7.5979 2.95113 7.59294 2.96074 7.58814C3.0277 7.55466 3.08474 7.52573 3.13363 7.50016C3.08474 7.4746 3.0277 7.44567 2.96074 7.41219C2.95113 7.40738 2.9412 7.40243 2.93097 7.39733C2.74457 7.30438 2.45953 7.16224 2.22701 6.96847C1.95429 6.7412 1.66675 6.3711 1.66675 5.8335C1.66675 5.29589 1.95429 4.92579 2.22701 4.69852C2.45953 4.50475 2.74457 4.36261 2.93097 4.26966C2.9412 4.26456 2.95113 4.25961 2.96074 4.25481C3.0277 4.22133 3.08474 4.19239 3.13363 4.16683C3.08474 4.14126 3.0277 4.11233 2.96074 4.07885C2.95113 4.07405 2.9412 4.0691 2.93097 4.064C2.74457 3.97105 2.45953 3.82891 2.22701 3.63514C1.95429 3.40787 1.66675 3.03776 1.66675 2.50016V1.66683C1.66675 1.20659 2.03984 0.833496 2.50008 0.833496Z" fill="black"/>
<path fill-rule="evenodd" clip-rule="evenodd" d="M14.1667 4.99984C14.1667 4.5396 14.5398 4.1665 15.0001 4.1665H15.0084C15.4687 4.1665 15.8417 4.5396 15.8417 4.99984C15.8417 5.46007 15.4687 5.83317 15.0084 5.83317H15.0001C14.5398 5.83317 14.1667 5.46007 14.1667 4.99984Z" fill="black"/>
<path fill-rule="evenodd" clip-rule="evenodd" d="M4.16675 14.9998C4.16675 14.5396 4.53984 14.1665 5.00008 14.1665H5.00841C5.46865 14.1665 5.84175 14.5396 5.84175 14.9998C5.84175 15.4601 5.46865 15.8332 5.00841 15.8332H5.00008C4.53984 15.8332 4.16675 15.4601 4.16675 14.9998Z" fill="black"/>
<path fill-rule="evenodd" clip-rule="evenodd" d="M13.4048 1.14885C13.9106 0.939365 14.4526 0.831543 15.0001 0.831543C15.5475 0.831543 16.0895 0.939365 16.5953 1.14885C17.101 1.35834 17.5606 1.66539 17.9477 2.05247C18.3347 2.43956 18.6418 2.89909 18.8513 3.40484C19.0608 3.91059 19.1686 4.45265 19.1686 5.00006C19.1686 5.54748 19.0608 6.08954 18.8513 6.59529C18.6418 7.10103 18.3347 7.56057 17.9477 7.94765L7.94765 17.9477C7.1659 18.7294 6.10562 19.1686 5.00006 19.1686C4.45265 19.1686 3.91059 19.0608 3.40484 18.8513C2.89909 18.6418 2.43956 18.3347 2.05247 17.9477C1.66539 17.5606 1.35834 17.101 1.14885 16.5953C0.939365 16.0895 0.831543 15.5475 0.831543 15.0001C0.831543 13.8945 1.27073 12.8342 2.05247 12.0525L12.0525 2.05247C12.4396 1.66539 12.8991 1.35834 13.4048 1.14885ZM15.0001 2.49821C14.6715 2.49821 14.3462 2.56292 14.0426 2.68865C13.7391 2.81438 13.4633 2.99867 13.231 3.23099L3.23099 13.231C2.7618 13.7002 2.49821 14.3365 2.49821 15.0001C2.49821 15.3286 2.56292 15.6539 2.68865 15.9575C2.81438 16.261 2.99867 16.5368 3.23099 16.7691C3.4633 17.0015 3.73911 17.1857 4.04265 17.3115C4.34618 17.4372 4.67152 17.5019 5.00006 17.5019C5.6636 17.5019 6.29995 17.2383 6.76914 16.7691L16.7691 6.76914C17.0015 6.53682 17.1857 6.26102 17.3115 5.95748C17.4372 5.65394 17.5019 5.32861 17.5019 5.00006C17.5019 4.67152 17.4372 4.34618 17.3115 4.04265C17.1857 3.73911 17.0015 3.4633 16.7691 3.23099C16.5368 2.99867 16.261 2.81438 15.9575 2.68865C15.6539 2.56292 15.3286 2.49821 15.0001 2.49821Z" fill="black"/>
<path fill-rule="evenodd" clip-rule="evenodd" d="M18.3334 4.1665C18.7937 4.1665 19.1667 4.5396 19.1667 4.99984V14.9998C19.1667 16.1049 18.7278 17.1647 17.9464 17.9461C17.165 18.7275 16.1052 19.1665 15.0001 19.1665C14.5398 19.1665 14.1667 18.7934 14.1667 18.3332V9.7165C14.1667 9.25627 14.5398 8.88317 15.0001 8.88317C15.4603 8.88317 15.8334 9.25627 15.8334 9.7165V17.3569C16.1817 17.2337 16.5017 17.0338 16.7678 16.7676C17.2367 16.2988 17.5001 15.6629 17.5001 14.9998V4.99984C17.5001 4.5396 17.8732 4.1665 18.3334 4.1665Z" fill="black"/>
</g>
<defs>
<clipPath id="clip0_2001_9132">
<rect width="20" height="20" fill="white"/>
</clipPath>
</defs>
</svg>
