<svg width="20" height="20" viewBox="0 0 20 20" fill="none" xmlns="http://www.w3.org/2000/svg">
<path fill-rule="evenodd" clip-rule="evenodd" d="M5.00263 2.49679C6.44464 1.41614 8.19809 0.832031 10.0001 0.832031C11.8021 0.832031 13.5555 1.41614 14.9975 2.49679C16.4395 3.57743 17.4924 5.09639 17.9983 6.82591C18.5042 8.55544 18.4358 10.4024 17.8034 12.0897C17.1711 13.7771 16.0088 15.2141 14.4908 16.1852C14.1031 16.4332 13.5878 16.32 13.3398 15.9323C13.0918 15.5446 13.205 15.0292 13.5927 14.7812C14.807 14.0044 15.7369 12.8548 16.2428 11.5049C16.7487 10.155 16.8034 8.67743 16.3987 7.2938C15.9939 5.91018 15.1517 4.69502 13.998 3.8305C12.8444 2.96599 11.4417 2.4987 10.0001 2.4987C8.55849 2.4987 7.15573 2.96599 6.00212 3.8305C4.84851 4.69502 4.00622 5.91018 3.60151 7.2938C3.19681 8.67743 3.2515 10.155 3.7574 11.5049C4.26329 12.8548 5.19312 14.0044 6.40749 14.7812C6.79518 15.0292 6.90841 15.5446 6.6604 15.9323C6.41238 16.32 5.89704 16.4332 5.50934 16.1852C3.99138 15.2141 2.82909 13.7771 2.19672 12.0897C1.56436 10.4024 1.49599 8.55544 2.00187 6.82591C2.50775 5.09639 3.56062 3.57743 5.00263 2.49679Z" fill="black"/>
<path fill-rule="evenodd" clip-rule="evenodd" d="M10 5.83317C9.38096 5.83317 8.77415 6.00555 8.24757 6.331C7.72098 6.65645 7.29542 7.12211 7.01858 7.67579C6.74174 8.22948 6.62454 8.84932 6.68014 9.46586C6.73573 10.0824 6.96191 10.6713 7.33334 11.1665C7.60948 11.5347 7.53486 12.057 7.16667 12.3332C6.79848 12.6093 6.27614 12.5347 6 12.1665C5.44287 11.4237 5.1036 10.5403 5.02021 9.61553C4.93682 8.69072 5.1126 7.76097 5.52787 6.93044C5.94313 6.09991 6.58147 5.40142 7.37135 4.91325C8.16123 4.42508 9.07144 4.1665 10 4.1665C10.9286 4.1665 11.8388 4.42508 12.6287 4.91325C13.4185 5.40142 14.0569 6.09991 14.4721 6.93044C14.8874 7.76096 15.0632 8.69072 14.9798 9.61553C14.8964 10.5403 14.5571 11.4237 14 12.1665C13.7239 12.5347 13.2015 12.6093 12.8333 12.3332C12.4651 12.057 12.3905 11.5347 12.6667 11.1665C13.0381 10.6713 13.2643 10.0824 13.3199 9.46586C13.3755 8.84932 13.2583 8.22948 12.9814 7.67579C12.7046 7.12211 12.279 6.65645 11.7524 6.331C11.2259 6.00555 10.619 5.83317 10 5.83317Z" fill="black"/>
<path fill-rule="evenodd" clip-rule="evenodd" d="M8.33325 9.16667C8.33325 8.24619 9.07944 7.5 9.99992 7.5C10.9204 7.5 11.6666 8.24619 11.6666 9.16667C11.6666 10.0871 10.9204 10.8333 9.99992 10.8333C9.07944 10.8333 8.33325 10.0871 8.33325 9.16667Z" fill="black"/>
<path fill-rule="evenodd" clip-rule="evenodd" d="M8.82141 12.9882C9.13397 12.6756 9.55789 12.5 9.99992 12.5C10.4419 12.5 10.8659 12.6756 11.1784 12.9882C11.491 13.3007 11.6666 13.7246 11.6666 14.1667C11.6666 14.1974 11.6649 14.2281 11.6615 14.2587L11.2486 17.9751C11.234 18.2854 11.1044 18.5799 10.8838 18.8005C10.6494 19.035 10.3314 19.1667 9.99992 19.1667C9.6684 19.1667 9.35046 19.035 9.11603 18.8005C8.89543 18.5799 8.76579 18.2854 8.75128 17.9751L8.33835 14.2587C8.33495 14.2281 8.33325 14.1974 8.33325 14.1667C8.33325 13.7246 8.50885 13.3007 8.82141 12.9882Z" fill="black"/>
</svg>
