<svg width="20" height="20" viewBox="0 0 20 20" fill="none" xmlns="http://www.w3.org/2000/svg">
<g clip-path="url(#clip0_2001_9153)">
<path fill-rule="evenodd" clip-rule="evenodd" d="M18.3333 10.8335C18.7935 10.8335 19.1666 11.2066 19.1666 11.6668C19.1666 13.656 18.3764 15.5636 16.9699 16.9701C15.5634 18.3767 13.6557 19.1668 11.6666 19.1668C11.2063 19.1668 10.8333 18.7937 10.8333 18.3335C10.8333 17.8733 11.2063 17.5002 11.6666 17.5002C13.2137 17.5002 14.6974 16.8856 15.7914 15.7916C16.8853 14.6977 17.4999 13.2139 17.4999 11.6668C17.4999 11.2066 17.873 10.8335 18.3333 10.8335Z" fill="black"/>
<path fill-rule="evenodd" clip-rule="evenodd" d="M11.5655 6.56573C12.0343 6.09689 12.6702 5.8335 13.3333 5.8335C13.9963 5.8335 14.6322 6.09689 15.101 6.56573C15.5699 7.03457 15.8333 7.67045 15.8333 8.3335V9.16683C15.8333 9.62707 15.4602 10.0002 14.9999 10.0002C14.5397 10.0002 14.1666 9.62707 14.1666 9.16683V8.3335C14.1666 8.11248 14.0788 7.90052 13.9225 7.74424C13.7662 7.58796 13.5543 7.50016 13.3333 7.50016C13.1122 7.50016 12.9003 7.58796 12.744 7.74424C12.5877 7.90052 12.4999 8.11248 12.4999 8.3335C12.4999 8.79373 12.1268 9.16683 11.6666 9.16683C11.2063 9.16683 10.8333 8.79373 10.8333 8.3335C10.8333 7.67045 11.0966 7.03457 11.5655 6.56573Z" fill="black"/>
<path fill-rule="evenodd" clip-rule="evenodd" d="M8.23223 5.73223C8.70107 5.26339 9.33696 5 10 5C10.663 5 11.2989 5.26339 11.7678 5.73223C12.2366 6.20107 12.5 6.83696 12.5 7.5V8.33333C12.5 8.79357 12.1269 9.16667 11.6667 9.16667C11.2064 9.16667 10.8333 8.79357 10.8333 8.33333V7.5C10.8333 7.27899 10.7455 7.06702 10.5893 6.91074C10.433 6.75446 10.221 6.66667 10 6.66667C9.77899 6.66667 9.56703 6.75446 9.41074 6.91074C9.25446 7.06702 9.16667 7.27899 9.16667 7.5V8.33333C9.16667 8.79357 8.79357 9.16667 8.33333 9.16667C7.8731 9.16667 7.5 8.79357 7.5 8.33333V7.5C7.5 6.83696 7.76339 6.20107 8.23223 5.73223Z" fill="black"/>
<path fill-rule="evenodd" clip-rule="evenodd" d="M4.89898 1.56573C5.36782 1.09689 6.00371 0.833496 6.66675 0.833496C7.32979 0.833496 7.96567 1.09689 8.43451 1.56573C8.90336 2.03457 9.16675 2.67045 9.16675 3.3335V7.91683C9.16675 8.37707 8.79365 8.75016 8.33342 8.75016C7.87318 8.75016 7.50008 8.37707 7.50008 7.91683V3.3335C7.50008 3.11248 7.41228 2.90052 7.256 2.74424C7.09972 2.58796 6.88776 2.50016 6.66675 2.50016C6.44573 2.50016 6.23377 2.58796 6.07749 2.74424C5.92121 2.90052 5.83341 3.11248 5.83341 3.3335V11.6668C5.83341 12.1271 5.46032 12.5002 5.00008 12.5002C4.53984 12.5002 4.16675 12.1271 4.16675 11.6668V3.3335C4.16675 2.67046 4.43014 2.03457 4.89898 1.56573Z" fill="black"/>
<path fill-rule="evenodd" clip-rule="evenodd" d="M16.6667 8.33317C16.4457 8.33317 16.2337 8.42097 16.0774 8.57725C15.9211 8.73353 15.8333 8.94549 15.8333 9.1665C15.8333 9.62674 15.4602 9.99984 15 9.99984C14.5398 9.99984 14.1667 9.62674 14.1667 9.1665C14.1667 8.50346 14.4301 7.86758 14.8989 7.39874C15.3677 6.9299 16.0036 6.6665 16.6667 6.6665C17.3297 6.6665 17.9656 6.9299 18.4344 7.39874C18.9033 7.86758 19.1667 8.50346 19.1667 9.1665V11.6665C19.1667 13.6556 18.3765 15.5633 16.97 16.9698C15.5634 18.3763 13.6558 19.1665 11.6667 19.1665H10C7.44266 19.1665 5.81602 18.36 4.42107 16.9744C4.42041 16.9737 4.41974 16.9731 4.41908 16.9724L1.41908 13.9724C1.40907 13.9624 1.39932 13.9521 1.38983 13.9416C0.959746 13.4653 0.72931 12.8418 0.746231 12.2003C0.763153 11.5588 1.02613 10.9483 1.48073 10.4953C1.93532 10.0424 2.5467 9.78154 3.18829 9.76689C3.82988 9.75223 4.45253 9.98487 4.92733 10.4166C4.93707 10.4255 4.94661 10.4346 4.95593 10.4439L6.42259 11.9106C6.74803 12.236 6.74803 12.7637 6.42259 13.0891C6.09716 13.4145 5.56952 13.4145 5.24408 13.0891L3.79379 11.6388C3.63714 11.5019 3.43474 11.4284 3.22634 11.4331C3.01248 11.438 2.80868 11.5249 2.65715 11.6759C2.50562 11.8269 2.41796 12.0304 2.41232 12.2443C2.40683 12.4522 2.47933 12.6545 2.61519 12.8115L5.59561 15.7919C5.59594 15.7923 5.59627 15.7926 5.59661 15.7929C6.68473 16.8734 7.89133 17.4998 10 17.4998H11.6667C13.2138 17.4998 14.6975 16.8853 15.7915 15.7913C16.8854 14.6973 17.5 13.2136 17.5 11.6665V9.1665C17.5 8.94549 17.4122 8.73353 17.2559 8.57725C17.0996 8.42097 16.8877 8.33317 16.6667 8.33317Z" fill="black"/>
</g>
<defs>
<clipPath id="clip0_2001_9153">
<rect width="20" height="20" fill="white"/>
</clipPath>
</defs>
</svg>
