<svg width="20" height="20" viewBox="0 0 20 20" fill="none" xmlns="http://www.w3.org/2000/svg">
<g clip-path="url(#clip0_2001_9146)">
<path fill-rule="evenodd" clip-rule="evenodd" d="M6.15412 0.887079C6.51797 0.810873 6.89422 0.816766 7.2555 0.90433C7.61678 0.991893 7.95398 1.15892 8.24256 1.39326C8.53114 1.62759 8.76382 1.92333 8.92368 2.25894C9.08353 2.59456 9.16653 2.96159 9.16662 3.33333L9.16662 3.33355V3.75021C9.16662 4.21045 8.79353 4.58355 8.33329 4.58355C7.87305 4.58355 7.49996 4.21045 7.49996 3.75021V3.33377C7.49996 3.33369 7.49996 3.33362 7.49996 3.33355C7.49989 3.20971 7.47223 3.08744 7.41897 2.97564C7.36569 2.86377 7.28813 2.76519 7.19194 2.68707C7.09574 2.60896 6.98334 2.55329 6.86292 2.5241C6.74249 2.49491 6.61707 2.49295 6.49579 2.51835C6.04533 2.6127 5.60367 2.32401 5.50932 1.87355C5.41497 1.42308 5.70366 0.981428 6.15412 0.887079Z" fill="black"/>
<path fill-rule="evenodd" clip-rule="evenodd" d="M9.74501 5.6506C9.89433 5.21526 10.3683 4.98339 10.8036 5.13271C11.1748 5.26 11.5107 5.47287 11.7843 5.75409C12.058 6.0353 12.2615 6.37697 12.3786 6.75146C12.516 7.19072 12.2712 7.65816 11.8319 7.79549C11.3927 7.93283 10.9252 7.68807 10.7879 7.2488C10.7489 7.12397 10.681 7.01008 10.5898 6.91634C10.4986 6.82261 10.3866 6.75165 10.2629 6.70922C9.82756 6.5599 9.59569 6.08594 9.74501 5.6506Z" fill="black"/>
<path fill-rule="evenodd" clip-rule="evenodd" d="M12.5423 5.96244C13.0451 5.79472 13.5882 5.79115 14.0931 5.95224C14.5981 6.11333 15.0388 6.43074 15.3516 6.85864C15.3825 6.90096 15.412 6.94413 15.4401 6.9881C15.8113 6.77913 16.2332 6.66655 16.6667 6.66655C17.3297 6.66655 17.9656 6.92994 18.4344 7.39878C18.9033 7.86762 19.1667 8.50351 19.1667 9.16655V11.665C19.1691 12.3617 19.0744 13.0554 18.8854 13.726C18.7605 14.1689 18.3002 14.4268 17.8572 14.302C17.4143 14.1771 17.1564 13.7168 17.2813 13.2738C17.4284 12.7518 17.502 12.2119 17.5 11.6696C17.5 11.6686 17.5 11.6676 17.5 11.6665V9.16655C17.5 8.94554 17.4122 8.73358 17.2559 8.57729C17.0996 8.42101 16.8877 8.33322 16.6667 8.33322C16.4457 8.33322 16.2337 8.42101 16.0774 8.57729C15.9211 8.73358 15.8333 8.94554 15.8333 9.16655C15.8333 9.62679 15.4602 9.99988 15 9.99988C14.5398 9.99988 14.1667 9.62679 14.1667 9.16655L14.1667 8.3336C14.1667 8.33348 14.1667 8.33335 14.1667 8.33323C14.1667 8.33322 14.1667 8.33322 14.1667 8.33322C14.1665 8.15667 14.1103 7.98473 14.0061 7.8422C13.9018 7.69957 13.7549 7.59377 13.5866 7.54007C13.4183 7.48637 13.2372 7.48756 13.0696 7.54347C12.902 7.59938 12.7565 7.70711 12.6542 7.8511C12.3875 8.22619 11.8672 8.31407 11.4921 8.04738C11.117 7.78069 11.0291 7.26043 11.2958 6.88533C11.603 6.45335 12.0395 6.13016 12.5423 5.96244Z" fill="black"/>
<path fill-rule="evenodd" clip-rule="evenodd" d="M3.13727 9.74871C3.77927 9.72545 4.40559 9.95023 4.88629 10.3764C4.89878 10.3875 4.91092 10.3989 4.92271 10.4107L6.42271 11.9107C6.74815 12.2362 6.74815 12.7638 6.42271 13.0892C6.09728 13.4147 5.56964 13.4147 5.2442 13.0892L3.76493 11.61C3.60689 11.4767 3.4047 11.4068 3.19761 11.4143C2.98361 11.422 2.78081 11.5119 2.63127 11.6652C2.48174 11.8184 2.39695 12.0234 2.3945 12.2375C2.39209 12.4484 2.46971 12.6522 2.61149 12.808L5.59449 15.8325C6.15837 16.4063 6.83892 16.8523 7.59011 17.1402C8.34129 17.4282 9.14556 17.5514 9.94849 17.5016C9.96568 17.5005 9.9829 17.5 10.0001 17.5H11.6668C12.4329 17.5 13.1914 17.3491 13.8992 17.056C14.6069 16.7629 15.25 16.3332 15.7917 15.7915C16.1172 15.4661 16.6448 15.4661 16.9702 15.7916C17.2957 16.117 17.2956 16.6446 16.9702 16.9701C16.2737 17.6665 15.4469 18.2189 14.5369 18.5958C13.627 18.9727 12.6517 19.1667 11.6668 19.1666C11.6668 19.1666 11.6668 19.1666 11.6668 19.1666H10.0252C8.99282 19.2269 7.95934 19.0667 6.99355 18.6965C6.01974 18.3232 5.13746 17.7451 4.40638 17.0014C4.40617 17.0012 4.40597 17.0009 4.40576 17.0007L1.41514 13.9685C1.40961 13.9629 1.40416 13.9572 1.3988 13.9514C0.960829 13.4814 0.7206 12.8609 0.727947 12.2185C0.735293 11.5761 0.989651 10.9612 1.43825 10.5013C1.88685 10.0415 2.49526 9.77197 3.13727 9.74871Z" fill="black"/>
<path fill-rule="evenodd" clip-rule="evenodd" d="M5.00008 4.1665C5.46032 4.1665 5.83341 4.5396 5.83341 4.99984V11.6665C5.83341 12.1267 5.46032 12.4998 5.00008 12.4998C4.53984 12.4998 4.16675 12.1267 4.16675 11.6665V4.99984C4.16675 4.5396 4.53984 4.1665 5.00008 4.1665Z" fill="black"/>
<path fill-rule="evenodd" clip-rule="evenodd" d="M1.07733 1.07757C1.40277 0.752137 1.9304 0.752137 2.25584 1.07757L18.9225 17.7442C19.2479 18.0697 19.2479 18.5973 18.9225 18.9228C18.5971 19.2482 18.0694 19.2482 17.744 18.9228L1.07733 2.25609C0.751893 1.93065 0.751893 1.40301 1.07733 1.07757Z" fill="black"/>
</g>
<defs>
<clipPath id="clip0_2001_9146">
<rect width="20" height="20" fill="white"/>
</clipPath>
</defs>
</svg>
