<svg width="20" height="20" viewBox="0 0 20 20" fill="none" xmlns="http://www.w3.org/2000/svg">
<path fill-rule="evenodd" clip-rule="evenodd" d="M4.8989 1.56573C5.36774 1.09689 6.00363 0.833496 6.66667 0.833496C7.28319 0.833496 7.87623 1.06123 8.33333 1.4701C8.79044 1.06123 9.38348 0.833496 10 0.833496C10.6165 0.833496 11.2096 1.06123 11.6667 1.4701C12.1238 1.06123 12.7168 0.833496 13.3333 0.833496C13.9964 0.833496 14.6323 1.09689 15.1011 1.56573C15.3945 1.8591 15.6074 2.21789 15.7257 2.6078C16.1156 2.72609 16.4744 2.93902 16.7678 3.2324C17.2366 3.70124 17.5 4.33712 17.5 5.00016C17.5 5.6632 17.2366 6.29909 16.7678 6.76793C16.2989 7.23677 15.663 7.50016 15 7.50016C14.5398 7.50016 14.1667 7.12707 14.1667 6.66683C14.1667 6.20659 14.5398 5.8335 15 5.8335C15.221 5.8335 15.433 5.7457 15.5893 5.58942C15.7455 5.43314 15.8333 5.22118 15.8333 5.00016C15.8333 4.77915 15.7455 4.56719 15.5893 4.41091C15.433 4.25463 15.221 4.16683 15 4.16683C14.5398 4.16683 14.1667 3.79373 14.1667 3.3335C14.1667 3.11248 14.0789 2.90052 13.9226 2.74424C13.7663 2.58796 13.5543 2.50016 13.3333 2.50016C13.1123 2.50016 12.9004 2.58796 12.7441 2.74424C12.5878 2.90052 12.5 3.11248 12.5 3.3335C12.5 3.79373 12.1269 4.16683 11.6667 4.16683C11.2064 4.16683 10.8333 3.79373 10.8333 3.3335C10.8333 3.11248 10.7455 2.90052 10.5893 2.74424C10.433 2.58796 10.221 2.50016 10 2.50016C9.77899 2.50016 9.56703 2.58796 9.41075 2.74424C9.25446 2.90052 9.16667 3.11248 9.16667 3.3335C9.16667 3.79373 8.79357 4.16683 8.33333 4.16683C7.8731 4.16683 7.5 3.79373 7.5 3.3335C7.5 3.11248 7.4122 2.90052 7.25592 2.74424C7.09964 2.58796 6.88768 2.50016 6.66667 2.50016C6.44565 2.50016 6.23369 2.58796 6.07741 2.74424C5.92113 2.90052 5.83333 3.11248 5.83333 3.3335C5.83333 3.79373 5.46024 4.16683 5 4.16683C4.77899 4.16683 4.56702 4.25463 4.41074 4.41091C4.25446 4.56719 4.16667 4.77915 4.16667 5.00016C4.16667 5.22118 4.25446 5.43314 4.41074 5.58942C4.56702 5.7457 4.77899 5.8335 5 5.8335C5.46024 5.8335 5.83333 6.20659 5.83333 6.66683C5.83333 7.12707 5.46024 7.50016 5 7.50016C4.33696 7.50016 3.70107 7.23677 3.23223 6.76793C2.76339 6.29909 2.5 5.6632 2.5 5.00016C2.5 4.33712 2.76339 3.70124 3.23223 3.2324C3.52561 2.93902 3.88439 2.72609 4.27431 2.6078C4.39259 2.21789 4.60552 1.8591 4.8989 1.56573Z" fill="black"/>
<path fill-rule="evenodd" clip-rule="evenodd" d="M7.4405 5.83565C7.89957 5.80286 8.2983 6.14842 8.33109 6.60749L9.16442 18.2742C9.19721 18.7332 8.85165 19.132 8.39258 19.1647C7.93351 19.1975 7.53478 18.852 7.50199 18.3929L6.66866 6.72624C6.63587 6.26717 6.98143 5.86844 7.4405 5.83565Z" fill="black"/>
<path fill-rule="evenodd" clip-rule="evenodd" d="M12.5593 5.83565C13.0184 5.86844 13.364 6.26717 13.3312 6.72624L12.4978 18.3929C12.465 18.852 12.0663 19.1975 11.6072 19.1647C11.1482 19.132 10.8026 18.7332 10.8354 18.2742L11.6687 6.60749C11.7015 6.14842 12.1003 5.80286 12.5593 5.83565Z" fill="black"/>
<path fill-rule="evenodd" clip-rule="evenodd" d="M3.51928 7.50016H16.4806L14.3522 17.3237C14.3521 17.3239 14.3521 17.3241 14.352 17.3243C14.3502 17.328 14.3466 17.3346 14.3404 17.3439C14.3233 17.3696 14.2954 17.4018 14.2581 17.4329C14.2208 17.464 14.1853 17.4846 14.1598 17.4954C14.1547 17.4976 14.1507 17.4991 14.1477 17.5002H5.83328C5.77041 17.5002 5.72999 17.4802 5.70678 17.4611C5.68526 17.4433 5.6639 17.4149 5.65527 17.3632C5.65307 17.35 5.65055 17.3368 5.64771 17.3237L3.51928 7.50016ZM14.141 17.5022C14.141 17.5022 14.1412 17.5021 14.1415 17.5021C14.1412 17.5022 14.141 17.5022 14.141 17.5022ZM2.17973 6.35367C2.47525 6.0089 2.90107 5.8335 3.33328 5.8335H16.6666C17.0988 5.8335 17.5246 6.0089 17.8202 6.35367C18.1219 6.70565 18.2332 7.1695 18.1553 7.63716C18.1531 7.65037 18.1506 7.66353 18.1477 7.67662L15.9822 17.6714C15.8905 18.1177 15.6074 18.478 15.3251 18.7133C15.0426 18.9487 14.631 19.1668 14.1666 19.1668H5.83328C4.95357 19.1668 4.17767 18.5687 4.01518 17.6597L1.85218 7.67662C1.84934 7.66353 1.84682 7.65037 1.84462 7.63716C1.76667 7.1695 1.87803 6.70565 2.17973 6.35367Z" fill="black"/>
</svg>
