<svg width="20" height="20" viewBox="0 0 20 20" fill="none" xmlns="http://www.w3.org/2000/svg">
<g clip-path="url(#clip0_2001_9164)">
<path fill-rule="evenodd" clip-rule="evenodd" d="M2.24412 2.32737C3.185 1.38649 4.4611 0.85791 5.79171 0.85791C7.12231 0.85791 8.39842 1.38649 9.3393 2.32737L16.0893 9.07737C17.0814 10.0695 17.0814 11.5971 16.0893 12.5892L12.5893 16.0892C11.5867 17.0918 10.1083 17.0473 9.07176 16.2411C9.04448 16.2199 9.01855 16.197 8.99412 16.1725L2.24412 9.42255C1.30324 8.48167 0.774658 7.20556 0.774658 5.87496C0.774658 4.54435 1.30324 3.26825 2.24412 2.32737ZM5.79171 2.52458C4.90313 2.52458 4.05095 2.87756 3.42263 3.50588C2.79431 4.1342 2.44132 4.98638 2.44132 5.87496C2.44132 6.76353 2.79431 7.61572 3.42263 8.24404L10.1317 14.9532C10.5858 15.2834 11.0888 15.2327 11.4108 14.9107L14.9108 11.4107C15.252 11.0695 15.252 10.5971 14.9108 10.2559L8.16078 3.50588C7.53247 2.87756 6.68028 2.52458 5.79171 2.52458Z" fill="black"/>
<path fill-rule="evenodd" clip-rule="evenodd" d="M13.1608 13.1606C13.4863 12.8351 14.0139 12.8351 14.3393 13.1606L18.9227 17.7439C19.2481 18.0694 19.2481 18.597 18.9227 18.9224C18.5972 19.2479 18.0696 19.2479 17.7442 18.9224L13.1608 14.3391C12.8354 14.0137 12.8354 13.486 13.1608 13.1606Z" fill="black"/>
</g>
<defs>
<clipPath id="clip0_2001_9164">
<rect width="20" height="20" fill="white"/>
</clipPath>
</defs>
</svg>
