<svg width="20" height="20" viewBox="0 0 20 20" fill="none" xmlns="http://www.w3.org/2000/svg">
<path fill-rule="evenodd" clip-rule="evenodd" d="M14.512 2.71075C15.3236 3.43214 15.8333 4.49626 15.8333 5.83345C15.8333 6.29369 15.4602 6.66678 15 6.66678C14.5398 6.66678 14.1667 6.29369 14.1667 5.83345C14.1667 4.94856 13.8431 4.34611 13.4047 3.95647C12.951 3.55318 12.3225 3.33366 11.6667 3.33366C11.0109 3.33366 10.3823 3.55318 9.92862 3.95647C9.49023 4.34611 9.16667 4.94856 9.16667 5.83345C9.16667 6.29369 8.79357 6.66678 8.33333 6.66678C7.8731 6.66678 7.5 6.29369 7.5 5.83345C7.5 4.49626 8.00977 3.43214 8.82138 2.71075C9.61766 2.00299 10.6558 1.66699 11.6667 1.66699C12.6775 1.66699 13.7157 2.00299 14.512 2.71075Z" fill="black"/>
<path fill-rule="evenodd" clip-rule="evenodd" d="M8.33333 5C8.79357 5 9.16667 5.3731 9.16667 5.83333V17.5C9.16667 17.9602 8.79357 18.3333 8.33333 18.3333C7.8731 18.3333 7.5 17.9602 7.5 17.5V5.83333C7.5 5.3731 7.8731 5 8.33333 5Z" fill="black"/>
<path fill-rule="evenodd" clip-rule="evenodd" d="M4.16675 17.4998C4.16675 17.0396 4.53984 16.6665 5.00008 16.6665H15.0001C15.4603 16.6665 15.8334 17.0396 15.8334 17.4998C15.8334 17.9601 15.4603 18.3332 15.0001 18.3332H5.00008C4.53984 18.3332 4.16675 17.9601 4.16675 17.4998Z" fill="black"/>
<path fill-rule="evenodd" clip-rule="evenodd" d="M4.16675 10.8333C4.16675 10.3731 4.53984 10 5.00008 10H13.3334C13.7937 10 14.1667 10.3731 14.1667 10.8333C14.1667 11.2936 13.7937 11.6667 13.3334 11.6667H5.00008C4.53984 11.6667 4.16675 11.2936 4.16675 10.8333Z" fill="black"/>
</svg>
