<svg width="20" height="20" viewBox="0 0 20 20" fill="none" xmlns="http://www.w3.org/2000/svg">
<path fill-rule="evenodd" clip-rule="evenodd" d="M10.0001 0.833496C10.4603 0.833496 10.8334 1.20659 10.8334 1.66683V10.0002C10.8334 10.4604 10.4603 10.8335 10.0001 10.8335C9.53984 10.8335 9.16675 10.4604 9.16675 10.0002V1.66683C9.16675 1.20659 9.53984 0.833496 10.0001 0.833496Z" fill="black"/>
<path fill-rule="evenodd" clip-rule="evenodd" d="M14.7443 4.91047C15.0698 4.5851 15.5974 4.58519 15.9228 4.91069C17.0863 6.07468 17.8792 7.55714 18.2013 9.17114C18.5234 10.7851 18.3604 12.4584 17.7328 13.9798C17.1052 15.5013 16.0412 16.8029 14.6748 17.7204C13.3085 18.6379 11.7011 19.1303 10.0552 19.1355C8.40942 19.1406 6.79893 18.6583 5.42687 17.7494C4.05481 16.8404 2.98261 15.5455 2.34551 14.028C1.7084 12.5105 1.53491 10.8383 1.84692 9.22236C2.15893 7.60639 2.94246 6.11898 4.0987 4.94773C4.42204 4.6202 4.94966 4.6168 5.27719 4.94013C5.60472 5.26346 5.60812 5.79109 5.28479 6.11861C4.3598 7.05562 3.73297 8.24554 3.48336 9.53832C3.23376 10.8311 3.37255 12.1689 3.88223 13.3829C4.39192 14.5969 5.24967 15.6328 6.34732 16.3599C7.44498 17.0871 8.73337 17.4729 10.05 17.4688C11.3667 17.4647 12.6526 17.0708 13.7457 16.3367C14.8388 15.6027 15.69 14.5615 16.1921 13.3443C16.6942 12.1271 16.8246 10.7885 16.5669 9.49734C16.3092 8.20615 15.6749 7.02017 14.744 6.08898C14.4187 5.76349 14.4188 5.23585 14.7443 4.91047Z" fill="black"/>
</svg>
