<svg width="20" height="20" viewBox="0 0 20 20" fill="none" xmlns="http://www.w3.org/2000/svg">
<g clip-path="url(#clip0_2001_9172)">
<path fill-rule="evenodd" clip-rule="evenodd" d="M14.7108 4.94413C15.0363 4.61877 15.5639 4.6189 15.8893 4.94442C16.8852 5.94085 17.6123 7.17352 18.0025 8.52722C18.3928 9.88093 18.4335 11.3115 18.1208 12.6852C18.0186 13.1339 17.572 13.4149 17.1233 13.3127C16.6745 13.2106 16.3935 12.764 16.4957 12.3152C16.7458 11.2163 16.7133 10.0718 16.4011 8.98889C16.0889 7.90592 15.5072 6.91979 14.7105 6.12264C14.3851 5.79712 14.3853 5.26949 14.7108 4.94413Z" fill="black"/>
<path fill-rule="evenodd" clip-rule="evenodd" d="M5.77143 4.59721C6.06743 4.94963 6.02168 5.47528 5.66926 5.77128C4.96156 6.36567 4.38517 7.10071 3.9767 7.92974C3.56822 8.75877 3.33658 9.66368 3.29648 10.587C3.25638 11.5103 3.4087 12.4319 3.74376 13.2932C4.07883 14.1546 4.58932 14.9368 5.24282 15.5903C5.89633 16.2438 6.67858 16.7543 7.5399 17.0894C8.40122 17.4244 9.3228 17.5768 10.2461 17.5367C11.1695 17.4966 12.0744 17.2649 12.9034 16.8564C13.7324 16.448 14.4675 15.8716 15.0618 15.1639C15.3578 14.8114 15.8835 14.7657 16.2359 15.0617C16.5883 15.3577 16.6341 15.8834 16.3381 16.2358C15.5951 17.1204 14.6763 17.8409 13.64 18.3515C12.6037 18.8621 11.4726 19.1516 10.3184 19.2017C9.16428 19.2519 8.01231 19.0615 6.93565 18.6426C5.859 18.2238 4.8812 17.5857 4.06431 16.7688C3.24743 15.9519 2.60932 14.9741 2.19049 13.8975C1.77166 12.8208 1.58126 11.6689 1.63138 10.5147C1.68151 9.36053 1.97106 8.2294 2.48165 7.19311C2.99225 6.15683 3.71273 5.23802 4.59735 4.49503C4.94978 4.19904 5.47543 4.24478 5.77143 4.59721Z" fill="black"/>
<path fill-rule="evenodd" clip-rule="evenodd" d="M10.0001 0.833496C10.4603 0.833496 10.8334 1.20659 10.8334 1.66683V5.00016C10.8334 5.4604 10.4603 5.8335 10.0001 5.8335C9.53984 5.8335 9.16675 5.4604 9.16675 5.00016V1.66683C9.16675 1.20659 9.53984 0.833496 10.0001 0.833496Z" fill="black"/>
<path fill-rule="evenodd" clip-rule="evenodd" d="M1.07733 1.07757C1.40277 0.752137 1.9304 0.752137 2.25584 1.07757L18.9225 17.7442C19.2479 18.0697 19.2479 18.5973 18.9225 18.9228C18.5971 19.2482 18.0694 19.2482 17.744 18.9228L1.07733 2.25609C0.751893 1.93065 0.751893 1.40301 1.07733 1.07757Z" fill="black"/>
</g>
<defs>
<clipPath id="clip0_2001_9172">
<rect width="20" height="20" fill="white"/>
</clipPath>
</defs>
</svg>
