<svg width="20" height="20" viewBox="0 0 20 20" fill="none" xmlns="http://www.w3.org/2000/svg">
<path fill-rule="evenodd" clip-rule="evenodd" d="M0.833252 2.49984C0.833252 2.0396 1.20635 1.6665 1.66659 1.6665H18.3333C18.7935 1.6665 19.1666 2.0396 19.1666 2.49984C19.1666 2.96007 18.7935 3.33317 18.3333 3.33317H1.66659C1.20635 3.33317 0.833252 2.96007 0.833252 2.49984Z" fill="black"/>
<path fill-rule="evenodd" clip-rule="evenodd" d="M2.50008 1.6665C2.96032 1.6665 3.33341 2.0396 3.33341 2.49984V11.6665C3.33341 11.8875 3.42121 12.0995 3.57749 12.2558C3.73377 12.412 3.94573 12.4998 4.16675 12.4998H15.8334C16.0544 12.4998 16.2664 12.412 16.4227 12.2558C16.5789 12.0995 16.6667 11.8875 16.6667 11.6665V2.49984C16.6667 2.0396 17.0398 1.6665 17.5001 1.6665C17.9603 1.6665 18.3334 2.0396 18.3334 2.49984V11.6665C18.3334 12.3295 18.07 12.9654 17.6012 13.4343C17.1323 13.9031 16.4965 14.1665 15.8334 14.1665H4.16675C3.50371 14.1665 2.86782 13.9031 2.39898 13.4343C1.93014 12.9654 1.66675 12.3295 1.66675 11.6665V2.49984C1.66675 2.0396 2.03984 1.6665 2.50008 1.6665Z" fill="black"/>
<path fill-rule="evenodd" clip-rule="evenodd" d="M9.41074 12.7441C9.73618 12.4186 10.2638 12.4186 10.5893 12.7441L14.7559 16.9107C15.0814 17.2362 15.0814 17.7638 14.7559 18.0893C14.4305 18.4147 13.9028 18.4147 13.5774 18.0893L10 14.5118L6.42259 18.0893C6.09715 18.4147 5.56951 18.4147 5.24408 18.0893C4.91864 17.7638 4.91864 17.2362 5.24408 16.9107L9.41074 12.7441Z" fill="black"/>
</svg>
