<svg width="20" height="20" viewBox="0 0 20 20" fill="none" xmlns="http://www.w3.org/2000/svg">
<g clip-path="url(#clip0_2001_9184)">
<path fill-rule="evenodd" clip-rule="evenodd" d="M4.6549 11.3217C4.96746 11.0091 5.39139 10.8335 5.83341 10.8335H14.1667C14.6088 10.8335 15.0327 11.0091 15.3453 11.3217C15.6578 11.6342 15.8334 12.0581 15.8334 12.5002V12.9168C15.8334 13.3771 15.4603 13.7502 15.0001 13.7502C14.5398 13.7502 14.1667 13.3771 14.1667 12.9168L14.1667 12.5002H5.83342L5.83341 17.5002H11.2501C11.7103 17.5002 12.0834 17.8733 12.0834 18.3335C12.0834 18.7937 11.7103 19.1668 11.2501 19.1668H5.83341C5.39139 19.1668 4.96747 18.9912 4.6549 18.6787C4.34234 18.3661 4.16675 17.9422 4.16675 17.5002V12.5002C4.16675 12.0581 4.34234 11.6342 4.6549 11.3217Z" fill="black"/>
<path fill-rule="evenodd" clip-rule="evenodd" d="M18.9226 13.5776C19.248 13.903 19.248 14.4306 18.9226 14.7561L15.5893 18.0894C15.2638 18.4149 14.7362 18.4149 14.4107 18.0894L12.7441 16.4228C12.4186 16.0973 12.4186 15.5697 12.7441 15.2442C13.0695 14.9188 13.5972 14.9188 13.9226 15.2442L15 16.3217L17.7441 13.5776C18.0695 13.2521 18.5972 13.2521 18.9226 13.5776Z" fill="black"/>
<path fill-rule="evenodd" clip-rule="evenodd" d="M3.33325 8.33317C3.11224 8.33317 2.90028 8.42097 2.744 8.57725C2.58772 8.73353 2.49992 8.94549 2.49992 9.1665V13.3332C2.49992 13.5542 2.58772 13.7661 2.744 13.9224C2.90028 14.0787 3.11224 14.1665 3.33325 14.1665H4.99992C5.46016 14.1665 5.83325 14.5396 5.83325 14.9998C5.83325 15.4601 5.46016 15.8332 4.99992 15.8332H3.33325C2.67021 15.8332 2.03433 15.5698 1.56549 15.1009C1.09664 14.6321 0.833252 13.9962 0.833252 13.3332V9.1665C0.833252 8.50346 1.09664 7.86758 1.56549 7.39874C2.03433 6.9299 2.67021 6.6665 3.33325 6.6665H16.6666C17.3296 6.6665 17.9655 6.9299 18.4344 7.39874C18.9032 7.86758 19.1666 8.50346 19.1666 9.1665V10.8332C19.1666 11.2934 18.7935 11.6665 18.3333 11.6665C17.873 11.6665 17.4999 11.2934 17.4999 10.8332V9.1665C17.4999 8.94549 17.4121 8.73353 17.2558 8.57725C17.0996 8.42097 16.8876 8.33317 16.6666 8.33317H3.33325Z" fill="black"/>
<path fill-rule="evenodd" clip-rule="evenodd" d="M4.6549 1.32165C4.96746 1.00909 5.39139 0.833496 5.83341 0.833496H14.1667C14.6088 0.833496 15.0327 1.00909 15.3453 1.32165C15.6578 1.63421 15.8334 2.05814 15.8334 2.50016V7.50016C15.8334 7.9604 15.4603 8.3335 15.0001 8.3335C14.5398 8.3335 14.1667 7.9604 14.1667 7.50016V2.50016H5.83342L5.83341 7.50016C5.83341 7.9604 5.46032 8.3335 5.00008 8.3335C4.53984 8.3335 4.16675 7.9604 4.16675 7.50016V2.50016C4.16675 2.05813 4.34234 1.63421 4.6549 1.32165Z" fill="black"/>
</g>
<defs>
<clipPath id="clip0_2001_9184">
<rect width="20" height="20" fill="white"/>
</clipPath>
</defs>
</svg>
