<svg width="20" height="20" viewBox="0 0 20 20" fill="none" xmlns="http://www.w3.org/2000/svg">
<g clip-path="url(#clip0_2001_9189)">
<path fill-rule="evenodd" clip-rule="evenodd" d="M3.33325 8.33317C3.11224 8.33317 2.90028 8.42097 2.744 8.57725C2.58772 8.73353 2.49992 8.94549 2.49992 9.1665V13.3332C2.49992 13.5542 2.58772 13.7661 2.744 13.9224C2.90028 14.0787 3.11224 14.1665 3.33325 14.1665H4.99992C5.46016 14.1665 5.83325 14.5396 5.83325 14.9998C5.83325 15.4601 5.46016 15.8332 4.99992 15.8332H3.33325C2.67021 15.8332 2.03433 15.5698 1.56549 15.1009C1.09664 14.6321 0.833252 13.9962 0.833252 13.3332V9.1665C0.833252 8.50346 1.09664 7.86758 1.56549 7.39874C2.03433 6.9299 2.67021 6.6665 3.33325 6.6665H16.6666C17.3296 6.6665 17.9655 6.9299 18.4344 7.39874C18.9032 7.86758 19.1666 8.50346 19.1666 9.1665V13.3332C19.1666 13.9962 18.9032 14.6321 18.4344 15.1009C17.9655 15.5698 17.3296 15.8332 16.6666 15.8332H14.9999C14.5397 15.8332 14.1666 15.4601 14.1666 14.9998C14.1666 14.5396 14.5397 14.1665 14.9999 14.1665H16.6666C16.8876 14.1665 17.0996 14.0787 17.2558 13.9224C17.4121 13.7661 17.4999 13.5542 17.4999 13.3332V9.1665C17.4999 8.94549 17.4121 8.73353 17.2558 8.57725C17.0996 8.42097 16.8876 8.33317 16.6666 8.33317H3.33325Z" fill="black"/>
<path fill-rule="evenodd" clip-rule="evenodd" d="M4.6549 1.32165C4.96746 1.00909 5.39139 0.833496 5.83341 0.833496H14.1667C14.6088 0.833496 15.0327 1.00909 15.3453 1.32165C15.6578 1.63421 15.8334 2.05814 15.8334 2.50016V7.50016C15.8334 7.9604 15.4603 8.3335 15.0001 8.3335C14.5398 8.3335 14.1667 7.9604 14.1667 7.50016V2.50016H5.83342L5.83341 7.50016C5.83341 7.9604 5.46032 8.3335 5.00008 8.3335C4.53984 8.3335 4.16675 7.9604 4.16675 7.50016V2.50016C4.16675 2.05813 4.34234 1.63421 4.6549 1.32165Z" fill="black"/>
<path fill-rule="evenodd" clip-rule="evenodd" d="M5.83341 12.5002V17.5002H14.1667V12.5002H5.83341ZM4.16675 12.5002C4.16675 11.5797 4.91294 10.8335 5.83341 10.8335H14.1667C15.0872 10.8335 15.8334 11.5797 15.8334 12.5002V17.5002C15.8334 18.4206 15.0872 19.1668 14.1667 19.1668H5.83341C4.91294 19.1668 4.16675 18.4206 4.16675 17.5002V12.5002Z" fill="black"/>
</g>
<defs>
<clipPath id="clip0_2001_9189">
<rect width="20" height="20" fill="white"/>
</clipPath>
</defs>
</svg>
