<svg width="20" height="20" viewBox="0 0 20 20" fill="none" xmlns="http://www.w3.org/2000/svg">
<path fill-rule="evenodd" clip-rule="evenodd" d="M1.91083 3.57757C2.23626 3.25214 2.7639 3.25214 3.08934 3.57757L4.756 5.24424C5.08144 5.56968 5.08144 6.09731 4.756 6.42275C4.43057 6.74819 3.90293 6.74819 3.57749 6.42275L1.91083 4.75609C1.58539 4.43065 1.58539 3.90301 1.91083 3.57757Z" fill="black"/>
<path fill-rule="evenodd" clip-rule="evenodd" d="M7.50008 1.6665C7.96032 1.6665 8.33341 2.0396 8.33341 2.49984V4.99984C8.33341 5.46007 7.96032 5.83317 7.50008 5.83317C7.03984 5.83317 6.66675 5.46007 6.66675 4.99984V2.49984C6.66675 2.0396 7.03984 1.6665 7.50008 1.6665Z" fill="black"/>
<path fill-rule="evenodd" clip-rule="evenodd" d="M13.0893 3.57757C13.4147 3.90301 13.4147 4.43065 13.0893 4.75609L11.4226 6.42275C11.0972 6.74819 10.5695 6.74819 10.2441 6.42275C9.91864 6.09731 9.91864 5.56968 10.2441 5.24424L11.9107 3.57757C12.2362 3.25214 12.7638 3.25214 13.0893 3.57757Z" fill="black"/>
<path fill-rule="evenodd" clip-rule="evenodd" d="M7.50008 9.16667C6.57961 9.16667 5.83341 9.91286 5.83341 10.8333C5.83341 11.7538 6.57961 12.5 7.50008 12.5C8.42056 12.5 9.16675 11.7538 9.16675 10.8333C9.16675 9.91286 8.42056 9.16667 7.50008 9.16667ZM4.16675 10.8333C4.16675 8.99238 5.65913 7.5 7.50008 7.5C9.34103 7.5 10.8334 8.99238 10.8334 10.8333C10.8334 12.6743 9.34103 14.1667 7.50008 14.1667C5.65913 14.1667 4.16675 12.6743 4.16675 10.8333Z" fill="black"/>
<path fill-rule="evenodd" clip-rule="evenodd" d="M3.33325 10.8332C3.11224 10.8332 2.90028 10.921 2.744 11.0772C2.58772 11.2335 2.49992 11.4455 2.49992 11.6665V14.9998C2.49992 15.2209 2.58772 15.4328 2.744 15.5891C2.90028 15.7454 3.11224 15.8332 3.33325 15.8332H16.6666C16.8876 15.8332 17.0996 15.7454 17.2558 15.5891C17.4121 15.4328 17.4999 15.2209 17.4999 14.9998V11.6665C17.4999 11.4455 17.4121 11.2335 17.2558 11.0772C17.0996 10.921 16.8876 10.8332 16.6666 10.8332H9.85825C9.39802 10.8332 9.02492 10.4601 9.02492 9.99984C9.02492 9.5396 9.39802 9.1665 9.85825 9.1665H16.6666C17.3296 9.1665 17.9655 9.4299 18.4344 9.89874C18.9032 10.3676 19.1666 11.0035 19.1666 11.6665V14.9998C19.1666 15.6629 18.9032 16.2988 18.4344 16.7676C17.9655 17.2364 17.3296 17.4998 16.6666 17.4998H3.33325C2.67021 17.4998 2.03433 17.2364 1.56549 16.7676C1.09664 16.2988 0.833252 15.6629 0.833252 14.9998V11.6665C0.833252 11.0035 1.09664 10.3676 1.56549 9.89874C2.03433 9.4299 2.67021 9.1665 3.33325 9.1665H5.14159C5.60182 9.1665 5.97492 9.5396 5.97492 9.99984C5.97492 10.4601 5.60182 10.8332 5.14159 10.8332H3.33325Z" fill="black"/>
<path fill-rule="evenodd" clip-rule="evenodd" d="M12.5 13.3333C12.5 12.8731 12.8731 12.5 13.3333 12.5H15C15.4602 12.5 15.8333 12.8731 15.8333 13.3333C15.8333 13.7936 15.4602 14.1667 15 14.1667H13.3333C12.8731 14.1667 12.5 13.7936 12.5 13.3333Z" fill="black"/>
</svg>
