<svg width="20" height="20" viewBox="0 0 20 20" fill="none" xmlns="http://www.w3.org/2000/svg">
<path fill-rule="evenodd" clip-rule="evenodd" d="M3.33325 4.16667C2.87301 4.16667 2.49992 4.53976 2.49992 5V15C2.49992 15.4602 2.87301 15.8333 3.33325 15.8333H16.6666C17.1268 15.8333 17.4999 15.4602 17.4999 15V5C17.4999 4.53976 17.1268 4.16667 16.6666 4.16667H3.33325ZM0.833252 5C0.833252 3.61929 1.95254 2.5 3.33325 2.5H16.6666C18.0473 2.5 19.1666 3.61929 19.1666 5V15C19.1666 16.3807 18.0473 17.5 16.6666 17.5H3.33325C1.95254 17.5 0.833252 16.3807 0.833252 15V5Z" fill="black"/>
<path fill-rule="evenodd" clip-rule="evenodd" d="M10.0001 6.6665C10.4603 6.6665 10.8334 7.0396 10.8334 7.49984V16.6665C10.8334 17.1267 10.4603 17.4998 10.0001 17.4998C9.53984 17.4998 9.16675 17.1267 9.16675 16.6665V7.49984C9.16675 7.0396 9.53984 6.6665 10.0001 6.6665Z" fill="black"/>
<path fill-rule="evenodd" clip-rule="evenodd" d="M0.833252 7.49984C0.833252 7.0396 1.20635 6.6665 1.66659 6.6665H12.4999C13.163 6.6665 13.7988 6.9299 14.2677 7.39874C14.7365 7.86758 14.9999 8.50346 14.9999 9.1665V16.6665C14.9999 17.1267 14.6268 17.4998 14.1666 17.4998C13.7063 17.4998 13.3333 17.1267 13.3333 16.6665V9.1665C13.3333 8.94549 13.2455 8.73353 13.0892 8.57725C12.9329 8.42097 12.7209 8.33317 12.4999 8.33317H1.66659C1.20635 8.33317 0.833252 7.96007 0.833252 7.49984Z" fill="black"/>
</svg>
