<svg width="20" height="20" viewBox="0 0 20 20" fill="none" xmlns="http://www.w3.org/2000/svg">
<g clip-path="url(#clip0_2001_9204)">
<path fill-rule="evenodd" clip-rule="evenodd" d="M9.99882 2.49821C9.84497 2.49801 9.6926 2.52821 9.55045 2.58705C9.4083 2.6459 9.27917 2.73224 9.17048 2.84112L7.89913 4.11247C7.88502 4.12658 7.87891 4.14569 7.88159 4.1644C7.8819 4.16639 7.88283 4.17125 7.88836 4.18123C7.89482 4.19289 7.90857 4.21308 7.93559 4.23963C7.99293 4.29594 8.08768 4.35865 8.21295 4.40959L8.21376 4.40992C8.65913 4.59157 9.05266 4.88054 9.35932 5.25111C9.66597 5.62167 9.87622 6.06232 9.97134 6.53381C10.0665 7.0053 10.0435 7.493 9.90449 7.95347C9.7655 8.41394 9.51478 8.83288 9.17466 9.173C8.83455 9.51311 8.4156 9.76383 7.95514 9.90283C7.49467 10.0418 7.00697 10.0648 6.53548 9.96967C6.06399 9.87455 5.62334 9.6643 5.25277 9.35765C4.88221 9.051 4.59324 8.65746 4.41159 8.21209L4.41126 8.21128C4.36032 8.08601 4.29761 7.99126 4.24129 7.93392C4.21475 7.9069 4.19456 7.89315 4.1829 7.88669C4.173 7.8812 4.16814 7.88024 4.16612 7.87993C4.14797 7.87732 4.12785 7.88375 4.11413 7.89747L2.84247 9.16913C2.61311 9.39849 2.49821 9.69805 2.49821 9.99988L2.49821 10.0009C2.49801 10.1549 2.52825 10.3074 2.58718 10.4496C2.64612 10.5919 2.73258 10.7211 2.84161 10.8298L4.14913 12.1373L4.14932 12.1375C4.33585 12.3241 4.47604 12.5519 4.55863 12.8025C4.64113 13.0529 4.66386 13.3191 4.62501 13.5798C4.49964 14.4253 3.80124 14.8882 3.29702 15.084C3.10354 15.1595 2.93191 15.2819 2.79763 15.4403C2.66326 15.5989 2.57053 15.7884 2.52784 15.9917C2.48514 16.1951 2.49382 16.4059 2.55308 16.6051C2.61235 16.8043 2.72034 16.9855 2.86728 17.1325C3.01422 17.2794 3.19548 17.3874 3.39465 17.4467C3.59383 17.5059 3.80464 17.5146 4.00801 17.4719C4.21138 17.4292 4.40089 17.3365 4.55942 17.2021C4.71775 17.0679 4.84018 16.8964 4.91563 16.703C5.11155 16.1983 5.57425 15.5009 6.41868 15.3741L6.41984 15.3739C6.68095 15.3351 6.94753 15.3581 7.19816 15.4409C7.44856 15.5237 7.67607 15.6641 7.86247 15.8506C7.86253 15.8507 7.86259 15.8507 7.86265 15.8508C7.86276 15.8509 7.86288 15.851 7.86299 15.8511L9.16913 17.1573L9.16999 17.1581C9.2787 17.2672 9.40789 17.3536 9.55013 17.4126C9.69237 17.4715 9.84485 17.5017 9.99882 17.5015H10.0007C10.1548 17.5017 10.3075 17.4714 10.4499 17.4123C10.5923 17.3533 10.7216 17.2667 10.8305 17.1575L12.1622 15.8257C12.158 15.8204 12.1518 15.8134 12.1431 15.8049C12.1032 15.7661 12.0313 15.7183 11.9313 15.681C11.4729 15.5111 11.0646 15.2287 10.7438 14.8598C10.4229 14.4906 10.1999 14.0467 10.0954 13.5689C9.99084 13.091 10.0082 12.5945 10.1457 12.1251C10.2832 11.6557 10.5366 11.2284 10.8825 10.8825C11.2284 10.5366 11.6557 10.2832 12.1251 10.1457C12.5945 10.0082 13.091 9.99084 13.5689 10.0954C14.0467 10.1999 14.4906 10.4229 14.8598 10.7438C15.2286 11.0645 15.511 11.4727 15.6809 11.931C15.718 12.0302 15.7659 12.1024 15.8052 12.1428C15.8137 12.1514 15.8206 12.1576 15.826 12.1619L17.1573 10.8306C17.3873 10.6006 17.5015 10.302 17.5015 9.99988C17.5015 9.69805 17.3866 9.39849 17.1573 9.16913L15.8506 7.86247C15.4732 7.48502 15.2947 6.9493 15.3749 6.41797C15.5009 5.57231 16.2001 5.11086 16.703 4.91563C16.8964 4.84017 17.0679 4.71775 17.2021 4.55941C17.3365 4.40089 17.4292 4.21138 17.4719 4.00801C17.5146 3.80464 17.5059 3.59383 17.4467 3.39465C17.3874 3.19548 17.2794 3.01422 17.1325 2.86728C16.9855 2.72034 16.8043 2.61235 16.6051 2.55308C16.4059 2.49382 16.1951 2.48514 15.9918 2.52784C15.7884 2.57053 15.5989 2.66326 15.4403 2.79763C15.2819 2.93191 15.1595 3.10354 15.084 3.29702C14.888 3.80172 14.4253 4.49892 13.5811 4.62565L13.5806 4.62571C13.0506 4.70498 12.5149 4.52673 12.1373 4.14913L10.8306 2.84247C10.6013 2.61311 10.3017 2.49821 9.99988 2.49821L9.99882 2.49821ZM15.8378 12.1701C15.8393 12.1706 15.84 12.171 15.84 12.1711C15.8399 12.1711 15.8392 12.1709 15.8378 12.1701ZM12.1709 15.8391C12.1708 15.8391 12.1704 15.8384 12.1699 15.8368C12.1707 15.8383 12.171 15.839 12.1709 15.8391ZM10.0005 0.831545C9.6273 0.831134 9.25773 0.904393 8.91295 1.04712C8.56825 1.18982 8.2551 1.39916 7.99146 1.66312C7.99141 1.66317 7.99136 1.66322 7.99131 1.66327C7.99119 1.66339 7.99107 1.66351 7.99095 1.66363L6.72062 2.93396C6.33315 3.32143 6.15259 3.86884 6.23312 4.41003L6.23321 4.4106C6.36228 5.27387 7.07829 5.74726 7.58462 5.95328C7.77538 6.03114 7.94393 6.15494 8.07529 6.31367C8.20671 6.47249 8.29682 6.66134 8.33758 6.86341C8.37835 7.06547 8.36851 7.27449 8.30894 7.47183C8.24937 7.66917 8.14191 7.84872 7.99615 7.99448C7.85039 8.14025 7.67084 8.2477 7.4735 8.30727C7.27615 8.36684 7.06714 8.37668 6.86507 8.33591C6.663 8.29515 6.47415 8.20504 6.31534 8.07362C6.15665 7.9423 6.03287 7.7738 5.95501 7.5831C5.74903 7.07677 5.27562 6.36062 4.41227 6.23154L4.4117 6.23145C3.86992 6.15083 3.32184 6.33274 2.93562 6.71896L1.66396 7.99062C1.11013 8.54445 0.831692 9.27299 0.831545 9.9993C0.831133 10.3727 0.904503 10.7426 1.04744 11.0876C1.19036 11.4325 1.40001 11.7458 1.66435 12.0095C1.66451 12.0097 1.66466 12.0098 1.66481 12.01L2.97044 13.3156C2.97283 13.318 2.97463 13.3209 2.97569 13.3242C2.97675 13.3274 2.97704 13.3308 2.97654 13.3341L2.97651 13.3343C2.9742 13.3402 2.96532 13.357 2.93716 13.3846C2.88869 13.432 2.80556 13.487 2.69349 13.5305L2.69236 13.5309C2.24056 13.7069 1.83977 13.9928 1.52625 14.3627C1.21272 14.7326 0.996361 15.1748 0.896732 15.6493C0.797102 16.1238 0.81735 16.6157 0.955642 17.0805C1.09393 17.5452 1.34591 17.9681 1.68877 18.311C2.03163 18.6538 2.45456 18.9058 2.9193 19.0441C3.38404 19.1824 3.87593 19.2027 4.35046 19.103C4.82499 19.0034 5.2672 18.787 5.63708 18.4735C6.00696 18.16 6.29284 17.7592 6.46886 17.3074L6.4693 17.3063C6.51276 17.1942 6.56778 17.111 6.61539 17.0623C6.64332 17.0337 6.66045 17.0247 6.66652 17.0223C6.66935 17.0221 6.6722 17.0225 6.6749 17.0233C6.67811 17.0244 6.68104 17.0262 6.68343 17.0286L7.98977 18.3349C7.98989 18.3351 7.99001 18.3352 7.99014 18.3353C8.25385 18.5997 8.5672 18.8094 8.91218 18.9523C9.25711 19.0952 9.62687 19.1686 10.0002 19.1682C10.3736 19.1684 10.7434 19.0949 11.0883 18.9519C11.4333 18.8088 11.7466 18.5991 12.0103 18.3346C12.0105 18.3344 12.0107 18.3342 12.011 18.334L13.3516 16.9933C13.3516 16.9933 13.3516 16.9933 13.3516 16.9933C13.5339 16.811 13.671 16.5885 13.7517 16.3436C13.8324 16.099 13.8546 15.8388 13.8167 15.584C13.8166 15.5839 13.8166 15.5837 13.8166 15.5836C13.8166 15.5835 13.8166 15.5834 13.8166 15.5834C13.6933 14.7561 13.0121 14.305 12.5122 14.1189L12.511 14.1184C12.3143 14.0456 12.1392 13.9245 12.0016 13.7662C11.8639 13.6079 11.7683 13.4176 11.7235 13.2127C11.6787 13.0079 11.6861 12.795 11.7451 12.5938C11.8041 12.3925 11.9127 12.2093 12.061 12.061C12.2093 11.9127 12.3925 11.8041 12.5938 11.7451C12.795 11.6861 13.0079 11.6787 13.2127 11.7235C13.4176 11.7683 13.6079 11.8639 13.7662 12.0015C13.9245 12.1392 14.0456 12.3143 14.1184 12.511L14.1191 12.5128C14.3051 13.0114 14.7571 13.6935 15.5838 13.8166C15.8386 13.8546 16.0989 13.8323 16.3436 13.7516C16.5883 13.6709 16.8107 13.534 16.993 13.3519L16.9933 13.3516L18.3358 12.0091C18.8908 11.4541 19.1682 10.7261 19.1682 9.99988C19.1682 9.27337 18.8898 8.5446 18.3358 7.99062L17.0291 6.68396C17.0237 6.67849 17.0222 6.67167 17.0229 6.66691C17.023 6.66616 17.0231 6.66541 17.0232 6.66466C17.0256 6.65879 17.0345 6.64225 17.0622 6.61519C17.1105 6.56795 17.1937 6.51298 17.3063 6.4693L17.3074 6.46886C17.7592 6.29284 18.16 6.00696 18.4735 5.63708C18.787 5.2672 19.0034 4.82499 19.103 4.35046C19.2027 3.87593 19.1824 3.38404 19.0441 2.9193C18.9058 2.45456 18.6538 2.03163 18.311 1.68877C17.9681 1.34591 17.5452 1.09393 17.0805 0.955642C16.6157 0.81735 16.1238 0.797102 15.6493 0.896732C15.1748 0.996361 14.7326 1.21272 14.3627 1.52625C13.9928 1.83977 13.7069 2.24056 13.5309 2.69236L13.5305 2.69349C13.487 2.80553 13.432 2.88878 13.3844 2.93747C13.3563 2.96622 13.3391 2.97517 13.3331 2.97749C13.331 2.97766 13.3284 2.97746 13.3253 2.97643C13.3216 2.97521 13.3184 2.97321 13.3158 2.97062L12.0091 1.66396C11.4553 1.11013 10.7268 0.831691 10.0005 0.831545ZM13.3307 2.97818C13.3307 2.97811 13.3315 2.97783 13.3329 2.97757C13.3315 2.97812 13.3307 2.97825 13.3307 2.97818ZM17.0232 6.66475C17.0228 6.66582 17.0226 6.66652 17.0225 6.66685C17.0225 6.667 17.0225 6.66707 17.0225 6.66707C17.0225 6.66708 17.0226 6.66701 17.0226 6.66687C17.0228 6.66655 17.023 6.66584 17.0232 6.66475ZM2.97657 13.3341C2.97656 13.3342 2.97655 13.3342 2.97654 13.3343C2.97656 13.3342 2.97657 13.3342 2.97659 13.3341C2.97714 13.3327 2.97727 13.332 2.9772 13.332C2.97712 13.332 2.97684 13.3327 2.97657 13.3341ZM6.66683 17.0222C6.66831 17.0216 6.66904 17.0215 6.66901 17.0216C6.66898 17.0217 6.66826 17.0219 6.66683 17.0222Z" fill="black"/>
</g>
<defs>
<clipPath id="clip0_2001_9204">
<rect width="20" height="20" fill="white"/>
</clipPath>
</defs>
</svg>
