<svg width="20" height="20" viewBox="0 0 20 20" fill="none" xmlns="http://www.w3.org/2000/svg">
<g clip-path="url(#clip0_2001_9206)">
<path fill-rule="evenodd" clip-rule="evenodd" d="M9.22921 1.02433C9.46715 0.900247 9.73153 0.835449 9.99988 0.835449C10.2682 0.835449 10.5326 0.900247 10.7706 1.02433C11.0085 1.14842 11.213 1.32813 11.3666 1.54818C11.3672 1.54913 11.3679 1.55009 11.3685 1.55105L18.8659 12.3889C18.8664 12.3897 18.867 12.3905 18.8676 12.3913C18.9993 12.5802 19.0904 12.7942 19.1353 13.0201C19.1803 13.2469 19.1777 13.4806 19.1275 13.7063C19.0774 13.932 18.9808 14.1448 18.8439 14.3312C18.7071 14.5176 18.5329 14.6735 18.3325 14.7889L18.3298 14.7905L11.2381 18.8405L11.2374 18.8409C10.8603 19.0557 10.4338 19.1687 9.99988 19.1687C9.56593 19.1687 9.13944 19.0557 8.76238 18.8409L8.76162 18.8405L1.66995 14.7905C1.66766 14.7891 1.66538 14.7878 1.6631 14.7865C1.46515 14.6709 1.29316 14.5158 1.15788 14.3308C1.0226 14.1457 0.92695 13.9348 0.876895 13.7111C0.826841 13.4874 0.823463 13.2558 0.866972 13.0308C0.910481 12.8057 0.999942 12.5921 1.12976 12.4032C1.13019 12.4025 1.13062 12.4019 1.13105 12.4013L8.63105 1.5513C8.63177 1.55026 8.63249 1.54922 8.63322 1.54818C8.78681 1.32813 8.99127 1.14842 9.22921 1.02433ZM17.4979 13.3409L9.99988 2.50212L2.50336 13.3471L9.58738 17.3927C9.58757 17.3928 9.58775 17.3929 9.58794 17.393C9.71349 17.4645 9.85544 17.502 9.99988 17.502C10.1443 17.502 10.2863 17.4645 10.4118 17.3931C10.412 17.3929 10.4122 17.3928 10.4124 17.3927L17.5006 13.3447C17.4997 13.3435 17.4988 13.3422 17.4979 13.3409Z" fill="black"/>
<path fill-rule="evenodd" clip-rule="evenodd" d="M10.0001 0.833496C10.4603 0.833496 10.8334 1.20659 10.8334 1.66683V18.3335C10.8334 18.7937 10.4603 19.1668 10.0001 19.1668C9.53984 19.1668 9.16675 18.7937 9.16675 18.3335V1.66683C9.16675 1.20659 9.53984 0.833496 10.0001 0.833496Z" fill="black"/>
</g>
<defs>
<clipPath id="clip0_2001_9206">
<rect width="20" height="20" fill="white"/>
</clipPath>
</defs>
</svg>
