<svg width="20" height="20" viewBox="0 0 20 20" fill="none" xmlns="http://www.w3.org/2000/svg">
<path fill-rule="evenodd" clip-rule="evenodd" d="M3.33341 3.33317V5.83317H5.83342V3.33317H3.33341ZM3.33241 5.83313C3.33236 5.83313 3.33235 5.83313 3.33238 5.83313L3.33241 5.83313ZM1.66675 3.33317C1.66675 2.4127 2.41294 1.6665 3.33341 1.6665H5.83342C6.75389 1.6665 7.50008 2.4127 7.50008 3.33317V5.83317C7.50008 6.75365 6.75389 7.49984 5.83342 7.49984H3.33341C2.41294 7.49984 1.66675 6.75365 1.66675 5.83317V3.33317Z" fill="black"/>
<path fill-rule="evenodd" clip-rule="evenodd" d="M14.1667 3.33317V5.83317H16.6667V3.33317H14.1667ZM14.1657 5.83313C14.1656 5.83313 14.1656 5.83313 14.1656 5.83313L14.1657 5.83313ZM12.5 3.33317C12.5 2.4127 13.2462 1.6665 14.1667 1.6665H16.6667C17.5871 1.6665 18.3333 2.4127 18.3333 3.33317V5.83317C18.3333 6.75365 17.5871 7.49984 16.6667 7.49984H14.1667C13.2462 7.49984 12.5 6.75365 12.5 5.83317V3.33317Z" fill="black"/>
<path fill-rule="evenodd" clip-rule="evenodd" d="M3.33341 14.1667V16.6667H5.83342V14.1667H3.33341ZM3.33241 16.6666C3.33236 16.6666 3.33235 16.6666 3.33238 16.6666L3.33241 16.6666ZM1.66675 14.1667C1.66675 13.2462 2.41294 12.5 3.33341 12.5H5.83342C6.75389 12.5 7.50008 13.2462 7.50008 14.1667V16.6667C7.50008 17.5871 6.75389 18.3333 5.83342 18.3333H3.33341C2.41294 18.3333 1.66675 17.5871 1.66675 16.6667V14.1667Z" fill="black"/>
<path fill-rule="evenodd" clip-rule="evenodd" d="M13.2322 13.2322C13.7011 12.7634 14.337 12.5 15 12.5H17.5C17.9602 12.5 18.3333 12.8731 18.3333 13.3333C18.3333 13.7936 17.9602 14.1667 17.5 14.1667H15C14.779 14.1667 14.567 14.2545 14.4107 14.4107C14.2545 14.567 14.1667 14.779 14.1667 15V17.5C14.1667 17.9602 13.7936 18.3333 13.3333 18.3333C12.8731 18.3333 12.5 17.9602 12.5 17.5V15C12.5 14.337 12.7634 13.7011 13.2322 13.2322Z" fill="black"/>
<path fill-rule="evenodd" clip-rule="evenodd" d="M17.5001 16.6665C17.9603 16.6665 18.3334 17.0396 18.3334 17.4998V17.5082C18.3334 17.9684 17.9603 18.3415 17.5001 18.3415C17.0398 18.3415 16.6667 17.9684 16.6667 17.5082V17.4998C16.6667 17.0396 17.0398 16.6665 17.5001 16.6665Z" fill="black"/>
<path fill-rule="evenodd" clip-rule="evenodd" d="M10 5C10.4602 5 10.8333 5.3731 10.8333 5.83333V8.33333C10.8333 8.99638 10.5699 9.63226 10.1011 10.1011C9.63226 10.5699 8.99638 10.8333 8.33333 10.8333H5.83333C5.3731 10.8333 5 10.4602 5 10C5 9.53976 5.3731 9.16667 5.83333 9.16667H8.33333C8.55435 9.16667 8.76631 9.07887 8.92259 8.92259C9.07887 8.76631 9.16667 8.55435 9.16667 8.33333V5.83333C9.16667 5.3731 9.53976 5 10 5Z" fill="black"/>
<path fill-rule="evenodd" clip-rule="evenodd" d="M1.66675 9.99984C1.66675 9.5396 2.03984 9.1665 2.50008 9.1665H2.50841C2.96865 9.1665 3.34175 9.5396 3.34175 9.99984C3.34175 10.4601 2.96865 10.8332 2.50841 10.8332H2.50008C2.03984 10.8332 1.66675 10.4601 1.66675 9.99984Z" fill="black"/>
<path fill-rule="evenodd" clip-rule="evenodd" d="M9.16675 2.49984C9.16675 2.0396 9.53984 1.6665 10.0001 1.6665H10.0084C10.4687 1.6665 10.8417 2.0396 10.8417 2.49984C10.8417 2.96007 10.4687 3.33317 10.0084 3.33317H10.0001C9.53984 3.33317 9.16675 2.96007 9.16675 2.49984Z" fill="black"/>
<path fill-rule="evenodd" clip-rule="evenodd" d="M10.0001 12.5C10.4603 12.5 10.8334 12.8731 10.8334 13.3333V13.3417C10.8334 13.8019 10.4603 14.175 10.0001 14.175C9.53984 14.175 9.16675 13.8019 9.16675 13.3417V13.3333C9.16675 12.8731 9.53984 12.5 10.0001 12.5Z" fill="black"/>
<path fill-rule="evenodd" clip-rule="evenodd" d="M12.5 9.99984C12.5 9.5396 12.8731 9.1665 13.3333 9.1665H14.1667C14.6269 9.1665 15 9.5396 15 9.99984C15 10.4601 14.6269 10.8332 14.1667 10.8332H13.3333C12.8731 10.8332 12.5 10.4601 12.5 9.99984Z" fill="black"/>
<path fill-rule="evenodd" clip-rule="evenodd" d="M17.5001 9.1665C17.9603 9.1665 18.3334 9.5396 18.3334 9.99984V10.0082C18.3334 10.4684 17.9603 10.8415 17.5001 10.8415C17.0398 10.8415 16.6667 10.4684 16.6667 10.0082V9.99984C16.6667 9.5396 17.0398 9.1665 17.5001 9.1665Z" fill="black"/>
<path fill-rule="evenodd" clip-rule="evenodd" d="M10.0001 15.8335C10.4603 15.8335 10.8334 16.2066 10.8334 16.6668V17.5002C10.8334 17.9604 10.4603 18.3335 10.0001 18.3335C9.53984 18.3335 9.16675 17.9604 9.16675 17.5002V16.6668C9.16675 16.2066 9.53984 15.8335 10.0001 15.8335Z" fill="black"/>
</svg>
