<svg width="20" height="20" viewBox="0 0 20 20" fill="none" xmlns="http://www.w3.org/2000/svg">
<path fill-rule="evenodd" clip-rule="evenodd" d="M11.5655 2.39874C12.0343 1.9299 12.6702 1.6665 13.3333 1.6665H15.8333C16.4963 1.6665 17.1322 1.9299 17.601 2.39874C18.0699 2.86758 18.3333 3.50346 18.3333 4.1665V12.4998C18.3333 14.0469 17.7187 15.5307 16.6247 16.6246C15.5307 17.7186 14.047 18.3332 12.4999 18.3332C12.0579 18.3332 11.634 18.1576 11.3214 17.845C11.0088 17.5325 10.8333 17.1085 10.8333 16.6665V14.9998C10.8333 14.5578 11.0088 14.1339 11.3214 13.8213C11.634 13.5088 12.0579 13.3332 12.4999 13.3332C12.7209 13.3332 12.9329 13.2454 13.0892 13.0891C13.2455 12.9328 13.3333 12.7208 13.3333 12.4998V11.6665C12.6702 11.6665 12.0343 11.4031 11.5655 10.9343C11.0966 10.4654 10.8333 9.82955 10.8333 9.1665V4.1665C10.8333 3.50346 11.0966 2.86758 11.5655 2.39874ZM13.3333 3.33317C13.1122 3.33317 12.9003 3.42097 12.744 3.57725C12.5877 3.73353 12.4999 3.94549 12.4999 4.1665V9.1665C12.4999 9.38752 12.5877 9.59948 12.744 9.75576C12.9003 9.91204 13.1122 9.99984 13.3333 9.99984C13.7753 9.99984 14.1992 10.1754 14.5118 10.488C14.8243 10.8006 14.9999 11.2245 14.9999 11.6665V12.4998C14.9999 13.1629 14.7365 13.7988 14.2677 14.2676C13.7988 14.7364 13.163 14.9998 12.4999 14.9998V16.6665C13.605 16.6665 14.6648 16.2275 15.4462 15.4461C16.2276 14.6647 16.6666 13.6049 16.6666 12.4998V4.1665C16.6666 3.94549 16.5788 3.73353 16.4225 3.57725C16.2662 3.42097 16.0543 3.33317 15.8333 3.33317H13.3333Z" fill="black"/>
<path fill-rule="evenodd" clip-rule="evenodd" d="M2.39898 2.39874C2.86782 1.9299 3.50371 1.6665 4.16675 1.6665H6.66675C7.32979 1.6665 7.96567 1.9299 8.43451 2.39874C8.90336 2.86758 9.16675 3.50346 9.16675 4.1665V12.4998C9.16675 14.0469 8.55217 15.5307 7.4582 16.6246C6.36424 17.7186 4.88051 18.3332 3.33341 18.3332C2.89139 18.3332 2.46747 18.1576 2.1549 17.845C1.84234 17.5325 1.66675 17.1085 1.66675 16.6665V14.9998C1.66675 14.5578 1.84234 14.1339 2.1549 13.8213C2.46747 13.5088 2.89139 13.3332 3.33341 13.3332C3.55443 13.3332 3.76639 13.2454 3.92267 13.0891C4.07895 12.9328 4.16675 12.7208 4.16675 12.4998V11.6665C3.50371 11.6665 2.86782 11.4031 2.39898 10.9343C1.93014 10.4654 1.66675 9.82955 1.66675 9.1665V4.1665C1.66675 3.50346 1.93014 2.86758 2.39898 2.39874ZM4.16675 3.33317C3.94573 3.33317 3.73377 3.42097 3.57749 3.57725C3.42121 3.73353 3.33341 3.94549 3.33341 4.1665V9.1665C3.33341 9.38752 3.42121 9.59948 3.57749 9.75576C3.73377 9.91204 3.94573 9.99984 4.16675 9.99984C4.60878 9.99984 5.0327 10.1754 5.34526 10.488C5.65782 10.8006 5.83342 11.2245 5.83342 11.6665V12.4998C5.83342 13.1629 5.57002 13.7988 5.10118 14.2676C4.63234 14.7364 3.99646 14.9998 3.33341 14.9998V16.6665C4.43848 16.6665 5.49829 16.2275 6.27969 15.4461C7.06109 14.6647 7.50008 13.6049 7.50008 12.4998V4.1665C7.50008 3.94549 7.41228 3.73353 7.256 3.57725C7.09972 3.42097 6.88776 3.33317 6.66675 3.33317H4.16675Z" fill="black"/>
</svg>
