<svg width="20" height="20" viewBox="0 0 20 20" fill="none" xmlns="http://www.w3.org/2000/svg">
<path fill-rule="evenodd" clip-rule="evenodd" d="M11.7418 14.4339C11.4715 14.2591 11.1563 14.1662 10.8344 14.1667C10.3742 14.1673 10.0006 13.7947 10 13.3344C9.9994 12.8742 10.372 12.5006 10.8322 12.5C11.4761 12.4992 12.1064 12.6848 12.647 13.0345C13.1876 13.3842 13.6154 13.8829 13.8786 14.4705C14.1419 15.0581 14.2293 15.7093 14.1304 16.3455C14.0314 16.9817 13.7504 17.5757 13.3211 18.0556C13.0143 18.3986 12.4875 18.428 12.1444 18.1211C11.8014 17.8143 11.772 17.2875 12.0789 16.9444C12.2935 16.7045 12.434 16.4075 12.4835 16.0894C12.533 15.7713 12.4892 15.4457 12.3576 15.1519C12.226 14.8581 12.0121 14.6088 11.7418 14.4339Z" fill="black"/>
<path fill-rule="evenodd" clip-rule="evenodd" d="M14.1667 9.99984C14.1667 9.5396 14.5398 9.1665 15.0001 9.1665H15.0084C15.4687 9.1665 15.8417 9.5396 15.8417 9.99984C15.8417 10.4601 15.4687 10.8332 15.0084 10.8332H15.0001C14.5398 10.8332 14.1667 10.4601 14.1667 9.99984Z" fill="black"/>
<path fill-rule="evenodd" clip-rule="evenodd" d="M9.16675 3.35026C8.95018 3.35026 8.74248 3.43629 8.58934 3.58943C8.4362 3.74257 8.35017 3.95027 8.35017 4.16684C8.35017 4.27408 8.37129 4.38026 8.41232 4.47934C8.45336 4.57841 8.51351 4.66843 8.58934 4.74425L11.5893 7.74425C11.8277 7.98259 11.899 8.34102 11.77 8.65241C11.641 8.96381 11.3371 9.16684 11.0001 9.16684H10.8334C9.50733 9.16684 8.23556 9.69363 7.29788 10.6313C6.3602 11.569 5.83341 12.8408 5.83341 14.1668C5.83341 14.8299 6.09681 15.4658 6.56565 15.9346C7.03449 16.4035 7.67037 16.6668 8.33342 16.6668H13.3334H15.0001C15.4603 16.6668 15.8334 17.0399 15.8334 17.5002C15.8334 17.9604 15.4603 18.3335 15.0001 18.3335H8.33342C7.22835 18.3335 6.16854 17.8945 5.38714 17.1131C4.60573 16.3317 4.16675 15.2719 4.16675 14.1668C4.16675 12.3987 4.86913 10.703 6.11937 9.4528C6.97514 8.59703 8.03961 7.99794 9.19315 7.70509L7.41083 5.92277C7.18024 5.69218 6.99732 5.41842 6.87252 5.11714C6.74773 4.81586 6.6835 4.49295 6.6835 4.16684C6.6835 3.50824 6.94513 2.87662 7.41083 2.41092C7.87653 1.94522 8.50815 1.68359 9.16675 1.68359C9.49285 1.68359 9.81576 1.74782 10.117 1.87262C10.4183 1.99741 10.6921 2.18033 10.9227 2.41092L13.756 5.24425L13.1667 5.83351V5.00018H13.3334C16.5437 5.00018 19.1667 7.62327 19.1667 10.8335V11.6668C19.1667 12.3299 18.9034 12.9658 18.4345 13.4346C17.9657 13.9035 17.3298 14.1668 16.6667 14.1668H15.8334C15.3914 14.1668 14.9675 14.3424 14.6549 14.655C14.3423 14.9676 14.1667 15.3915 14.1667 15.8335C14.1667 16.2937 13.7937 16.6668 13.3334 16.6668C12.8732 16.6668 12.5001 16.2937 12.5001 15.8335C12.5001 14.9495 12.8513 14.1016 13.4764 13.4765C14.1015 12.8514 14.9494 12.5002 15.8334 12.5002H16.6667C16.8878 12.5002 17.0997 12.4124 17.256 12.2561C17.4123 12.0998 17.5001 11.8879 17.5001 11.6668V10.8335C17.5001 8.54375 15.6232 6.66684 13.3334 6.66684H13.1667C12.9457 6.66684 12.7338 6.57905 12.5775 6.42277L9.74416 3.58943C9.66833 3.51361 9.57831 3.45346 9.47924 3.41242C9.38017 3.37138 9.27398 3.35026 9.16675 3.35026Z" fill="black"/>
<path fill-rule="evenodd" clip-rule="evenodd" d="M13.2322 1.56573C13.7011 1.09689 14.337 0.833496 15 0.833496C15.663 0.833496 16.2989 1.09689 16.7678 1.56573C17.2366 2.03457 17.5 2.67045 17.5 3.3335V7.11683C17.5 7.57707 17.1269 7.95016 16.6667 7.95016C16.2064 7.95016 15.8333 7.57707 15.8333 7.11683V3.3335C15.8333 3.11248 15.7455 2.90052 15.5893 2.74424C15.433 2.58796 15.221 2.50016 15 2.50016C14.779 2.50016 14.567 2.58796 14.4107 2.74424C14.2545 2.90052 14.1667 3.11248 14.1667 3.3335V5.8335C14.1667 6.29373 13.7936 6.66683 13.3333 6.66683C12.8731 6.66683 12.5 6.29373 12.5 5.8335V3.3335C12.5 2.67045 12.7634 2.03457 13.2322 1.56573Z" fill="black"/>
<path fill-rule="evenodd" clip-rule="evenodd" d="M3.90362 8.34342C4.53676 8.29327 5.17104 8.42504 5.73182 8.72323C6.29259 9.02141 6.7565 9.4736 7.06894 10.0266C7.29534 10.4273 7.15405 10.9356 6.75336 11.162C6.35266 11.3884 5.84429 11.2471 5.61788 10.8465C5.46166 10.57 5.22971 10.3439 4.94932 10.1948C4.66894 10.0457 4.35179 9.9798 4.03522 10.0049C3.71865 10.03 3.41584 10.145 3.16242 10.3363C2.90901 10.5277 2.71554 10.7875 2.60479 11.0851C2.49405 11.3827 2.47064 11.7058 2.53732 12.0163C2.604 12.3268 2.75799 12.6117 2.98117 12.8377C3.20434 13.0636 3.48742 13.221 3.79707 13.2915C4.10671 13.3619 4.43004 13.3425 4.72899 13.2353C5.16226 13.0801 5.63934 13.3055 5.79457 13.7388C5.94981 14.172 5.72442 14.6491 5.29116 14.8043C4.69326 15.0186 4.0466 15.0575 3.4273 14.9166C2.80801 14.7757 2.24186 14.4608 1.7955 14.009C1.34915 13.5572 1.04116 12.9872 0.907805 12.3662C0.774448 11.7453 0.821269 11.0991 1.04276 10.5039C1.26425 9.90865 1.65118 9.38906 2.15801 9.00631C2.66485 8.62356 3.27048 8.39357 3.90362 8.34342Z" fill="black"/>
</svg>
