<svg width="20" height="20" viewBox="0 0 20 20" fill="none" xmlns="http://www.w3.org/2000/svg">
<g clip-path="url(#clip0_2001_9231)">
<path fill-rule="evenodd" clip-rule="evenodd" d="M5.40783 2.06189C7.15632 1.05102 9.18971 0.645894 11.1921 0.909455C13.1945 1.17302 15.0538 2.09051 16.4812 3.51939C16.8064 3.845 16.8061 4.37264 16.4805 4.6979C16.1549 5.02317 15.6273 5.02288 15.302 4.69727C14.1342 3.52818 12.6129 2.77751 10.9746 2.56187C9.33628 2.34623 7.6726 2.67769 6.24202 3.50477C5.84358 3.73513 5.33384 3.59887 5.10349 3.20043C4.87313 2.80199 5.00939 2.29225 5.40783 2.06189Z" fill="black"/>
<path fill-rule="evenodd" clip-rule="evenodd" d="M2.5 4.99984C2.5 4.5396 2.8731 4.1665 3.33333 4.1665H3.34167C3.8019 4.1665 4.175 4.5396 4.175 4.99984C4.175 5.46007 3.8019 5.83317 3.34167 5.83317H3.33333C2.8731 5.83317 2.5 5.46007 2.5 4.99984Z" fill="black"/>
<path fill-rule="evenodd" clip-rule="evenodd" d="M17.4539 6.18286C17.8823 6.01467 18.3659 6.22563 18.5341 6.65403C19.0608 7.99572 19.2637 9.44271 19.1263 10.8775C18.9889 12.3123 18.5151 13.6945 17.7434 14.9119C16.9716 16.1292 15.9237 17.1475 14.6846 17.8838C13.4455 18.6202 12.0503 19.0541 10.6121 19.1501C9.17393 19.2461 7.73338 19.0016 6.40741 18.4365C5.08143 17.8714 3.90741 17.0016 2.98066 15.8976C2.05391 14.7937 1.40055 13.4867 1.07362 12.0829C0.746695 10.6791 0.755417 9.21801 1.09908 7.8182C1.20881 7.37124 1.66011 7.09786 2.10707 7.20759C2.55404 7.31732 2.82741 7.76862 2.71768 8.21558C2.4365 9.36087 2.42937 10.5563 2.69685 11.7049C2.96434 12.8535 3.49891 13.9228 4.25716 14.826C5.01541 15.7292 5.97597 16.4409 7.06086 16.9033C8.14574 17.3657 9.32437 17.5657 10.5011 17.4871C11.6777 17.4086 12.8193 17.0536 13.8331 16.4511C14.8469 15.8486 15.7043 15.0155 16.3357 14.0195C16.9672 13.0235 17.3548 11.8926 17.4672 10.7187C17.5796 9.54473 17.4136 8.36083 16.9827 7.26308C16.8145 6.83467 17.0255 6.35104 17.4539 6.18286Z" fill="black"/>
<path fill-rule="evenodd" clip-rule="evenodd" d="M9.84111 4.16053C10.6344 4.1406 11.4235 4.28274 12.1599 4.57826C12.8964 4.87378 13.5649 5.31646 14.1244 5.87922C14.4489 6.2056 14.4473 6.73324 14.121 7.05773C13.7946 7.38222 13.2669 7.38069 12.9424 7.05431C12.5428 6.65234 12.0653 6.33614 11.5393 6.12505C11.0132 5.91397 10.4496 5.81244 9.88298 5.82667C9.31632 5.84091 8.75854 5.97062 8.24374 6.20785C7.72895 6.44509 7.26797 6.78487 6.88902 7.2064C6.51006 7.62793 6.2211 8.12235 6.03981 8.65941C5.85853 9.19647 5.78873 9.76487 5.83468 10.3298C5.88064 10.8948 6.04138 11.4444 6.30708 11.9451C6.57278 12.4458 6.93785 12.8871 7.37994 13.2418C7.7389 13.5298 7.7964 14.0543 7.50836 14.4133C7.22033 14.7723 6.69583 14.8298 6.33687 14.5417C5.71793 14.0451 5.20684 13.4274 4.83486 12.7264C4.46288 12.0254 4.23784 11.2559 4.1735 10.465C4.10916 9.67401 4.20689 8.87825 4.46069 8.12637C4.71449 7.37449 5.11904 6.6823 5.64957 6.09215C6.1801 5.50201 6.82547 5.02631 7.54619 4.69418C8.2669 4.36205 9.0478 4.18046 9.84111 4.16053Z" fill="black"/>
<path fill-rule="evenodd" clip-rule="evenodd" d="M9.16675 14.9998C9.16675 14.5396 9.53984 14.1665 10.0001 14.1665H10.0084C10.4687 14.1665 10.8417 14.5396 10.8417 14.9998C10.8417 15.4601 10.4687 15.8332 10.0084 15.8332H10.0001C9.53984 15.8332 9.16675 15.4601 9.16675 14.9998Z" fill="black"/>
<path fill-rule="evenodd" clip-rule="evenodd" d="M14.9441 8.88468C15.4036 8.85841 15.7974 9.2096 15.8237 9.66909C15.8766 10.594 15.7084 11.5183 15.3331 12.3653C14.9577 13.2123 14.3861 13.9578 13.6654 14.5399C13.3073 14.8291 12.7826 14.7733 12.4934 14.4153C12.2042 14.0573 12.26 13.5326 12.6181 13.2434C13.1329 12.8276 13.5412 12.2951 13.8093 11.6901C14.0774 11.0851 14.1975 10.4249 14.1597 9.76423C14.1335 9.30474 14.4847 8.91096 14.9441 8.88468Z" fill="black"/>
<path fill-rule="evenodd" clip-rule="evenodd" d="M10 9.16667C9.53976 9.16667 9.16667 9.53976 9.16667 10C9.16667 10.4602 9.53976 10.8333 10 10.8333C10.4602 10.8333 10.8333 10.4602 10.8333 10C10.8333 9.53976 10.4602 9.16667 10 9.16667ZM7.5 10C7.5 8.61929 8.61929 7.5 10 7.5C11.3807 7.5 12.5 8.61929 12.5 10C12.5 11.3807 11.3807 12.5 10 12.5C8.61929 12.5 7.5 11.3807 7.5 10Z" fill="black"/>
<path fill-rule="evenodd" clip-rule="evenodd" d="M16.4808 3.51898C16.8062 3.84442 16.8062 4.37205 16.4808 4.69749L11.7641 9.41416C11.4387 9.7396 10.9111 9.7396 10.5856 9.41416C10.2602 9.08872 10.2602 8.56109 10.5856 8.23565L15.3023 3.51898C15.6277 3.19354 16.1554 3.19354 16.4808 3.51898Z" fill="black"/>
</g>
<defs>
<clipPath id="clip0_2001_9231">
<rect width="20" height="20" fill="white"/>
</clipPath>
</defs>
</svg>
