<svg width="20" height="20" viewBox="0 0 20 20" fill="none" xmlns="http://www.w3.org/2000/svg">
<path fill-rule="evenodd" clip-rule="evenodd" d="M12.3256 2.5L17.5001 2.5C17.9603 2.5 18.3334 2.8731 18.3334 3.33333C18.3334 3.79357 17.9603 4.16667 17.5001 4.16667H12.3282L9.5538 17.317C9.55228 17.3242 9.55067 17.3314 9.54896 17.3385C9.48598 17.6023 9.33888 17.8385 9.12988 18.0114C8.92088 18.1843 8.66132 18.2845 8.39037 18.2969C8.11942 18.3093 7.85178 18.2333 7.62784 18.0802C7.40391 17.9272 7.23582 17.7055 7.14897 17.4485C7.14505 17.4369 7.14138 17.4253 7.13798 17.4135L5.2321 10.8333H2.50008C2.03984 10.8333 1.66675 10.4602 1.66675 10C1.66675 9.53976 2.03984 9.16667 2.50008 9.16667H5.23405C5.5837 9.16693 5.92442 9.27716 6.20797 9.48175C6.49153 9.68634 6.70356 9.97493 6.81405 10.3067C6.81752 10.3171 6.82079 10.3276 6.82385 10.3382L8.26967 15.3299L10.7014 3.80381C10.7027 3.79752 10.7041 3.79125 10.7056 3.785C10.7915 3.41971 10.9982 3.09411 11.2922 2.8609C11.5862 2.6277 11.9503 2.50054 12.3256 2.5Z" fill="black"/>
</svg>
