<svg width="20" height="20" viewBox="0 0 20 20" fill="none" xmlns="http://www.w3.org/2000/svg">
<path fill-rule="evenodd" clip-rule="evenodd" d="M4.16659 12.5C4.62682 12.5 4.99992 12.8731 4.99992 13.3333V15C4.99992 15.4602 4.62682 15.8333 4.16659 15.8333C3.70635 15.8333 3.33325 15.4602 3.33325 15V13.3333C3.33325 12.8731 3.70635 12.5 4.16659 12.5Z" fill="black"/>
<path fill-rule="evenodd" clip-rule="evenodd" d="M15.8333 12.5C16.2936 12.5 16.6667 12.8731 16.6667 13.3333V15C16.6667 15.4602 16.2936 15.8333 15.8333 15.8333C15.3731 15.8333 15 15.4602 15 15V13.3333C15 12.8731 15.3731 12.5 15.8333 12.5Z" fill="black"/>
<path fill-rule="evenodd" clip-rule="evenodd" d="M3.33325 7.50016C2.87301 7.50016 2.49992 7.87326 2.49992 8.3335V11.6668C2.49992 12.1271 2.87301 12.5002 3.33325 12.5002H16.6666C17.1268 12.5002 17.4999 12.1271 17.4999 11.6668V8.3335C17.4999 7.87326 17.1268 7.50016 16.6666 7.50016H3.33325ZM0.833252 8.3335C0.833252 6.95278 1.95254 5.8335 3.33325 5.8335H16.6666C18.0473 5.8335 19.1666 6.95278 19.1666 8.3335V11.6668C19.1666 13.0475 18.0473 14.1668 16.6666 14.1668H3.33325C1.95254 14.1668 0.833252 13.0475 0.833252 11.6668V8.3335Z" fill="black"/>
<path fill-rule="evenodd" clip-rule="evenodd" d="M14.1667 9.99984C14.1667 9.5396 14.5398 9.1665 15.0001 9.1665H15.0084C15.4687 9.1665 15.8417 9.5396 15.8417 9.99984C15.8417 10.4601 15.4687 10.8332 15.0084 10.8332H15.0001C14.5398 10.8332 14.1667 10.4601 14.1667 9.99984Z" fill="black"/>
</svg>
