<svg width="20" height="20" viewBox="0 0 20 20" fill="none" xmlns="http://www.w3.org/2000/svg">
<g clip-path="url(#clip0_2001_9252)">
<path fill-rule="evenodd" clip-rule="evenodd" d="M4.67259 0.994078C4.99803 1.31951 4.99803 1.84715 4.67259 2.17259C1.74803 5.09715 1.74803 9.90285 4.67259 12.8274C4.99803 13.1528 4.99803 13.6805 4.67259 14.0059C4.34715 14.3314 3.81951 14.3314 3.49408 14.0059C-0.0813593 10.4305 -0.0813593 4.56951 3.49408 0.994078C3.81951 0.668641 4.34715 0.668641 4.67259 0.994078Z" fill="black"/>
<path fill-rule="evenodd" clip-rule="evenodd" d="M7.07875 3.31721C7.40991 3.63682 7.41927 4.16438 7.09966 4.49554C6.43784 5.18127 6.02361 6.06814 5.92253 7.01578C5.82144 7.96343 6.03928 8.91772 6.54157 9.72762C6.78414 10.1187 6.66371 10.6325 6.27258 10.875C5.88146 11.1176 5.36775 10.9972 5.12518 10.606C4.42745 9.48099 4.12485 8.15538 4.26526 6.83901C4.40567 5.52263 4.98108 4.29068 5.90042 3.33812C6.22004 3.00696 6.74759 2.9976 7.07875 3.31721Z" fill="black"/>
<path fill-rule="evenodd" clip-rule="evenodd" d="M10 6.66667C9.53976 6.66667 9.16667 7.03976 9.16667 7.5C9.16667 7.96024 9.53976 8.33333 10 8.33333C10.4602 8.33333 10.8333 7.96024 10.8333 7.5C10.8333 7.03976 10.4602 6.66667 10 6.66667ZM7.5 7.5C7.5 6.11929 8.61929 5 10 5C11.3807 5 12.5 6.11929 12.5 7.5C12.5 8.88071 11.3807 10 10 10C8.61929 10 7.5 8.88071 7.5 7.5Z" fill="black"/>
<path fill-rule="evenodd" clip-rule="evenodd" d="M12.9108 3.41058C13.2363 3.08514 13.7639 3.08514 14.0893 3.41058C16.0451 5.36634 16.2836 8.38708 14.8754 10.6633C14.6333 11.0547 14.1197 11.1757 13.7283 10.9335C13.3369 10.6914 13.2159 10.1778 13.4581 9.78642C14.4833 8.12926 14.2884 5.96667 12.9108 4.58909C12.5854 4.26366 12.5854 3.73602 12.9108 3.41058Z" fill="black"/>
<path fill-rule="evenodd" clip-rule="evenodd" d="M15.3267 0.994682C15.6518 0.668912 16.1795 0.668371 16.5052 0.993474C17.3553 1.84183 18.0298 2.84951 18.4899 3.95883C18.9501 5.06816 19.187 6.25735 19.187 7.45833C19.187 8.65932 18.9501 9.84851 18.4899 10.9578C18.0298 12.0672 17.3553 13.0748 16.5052 13.9232C16.1795 14.2483 15.6518 14.2478 15.3267 13.922C15.0016 13.5962 15.0022 13.0686 15.3279 12.7435C16.0229 12.0499 16.5743 11.2261 16.9505 10.3192C17.3266 9.41234 17.5203 8.44016 17.5203 7.45833C17.5203 6.47651 17.3266 5.50432 16.9505 4.59743C16.5743 3.69053 16.0229 2.86674 15.3279 2.17319C15.0022 1.84809 15.0016 1.32045 15.3267 0.994682Z" fill="black"/>
<path fill-rule="evenodd" clip-rule="evenodd" d="M7.08325 14.9998C7.08325 14.5396 7.45635 14.1665 7.91659 14.1665H12.0833C12.5435 14.1665 12.9166 14.5396 12.9166 14.9998C12.9166 15.4601 12.5435 15.8332 12.0833 15.8332H7.91659C7.45635 15.8332 7.08325 15.4601 7.08325 14.9998Z" fill="black"/>
<path fill-rule="evenodd" clip-rule="evenodd" d="M9.9999 8.3335C10.3503 8.3335 10.6633 8.55272 10.7831 8.88204L14.1164 18.0487C14.2737 18.4812 14.0505 18.9594 13.618 19.1167C13.1855 19.2739 12.7074 19.0508 12.5501 18.6183L9.9999 11.6053L7.44973 18.6183C7.29245 19.0508 6.81431 19.2739 6.38178 19.1167C5.94925 18.9594 5.72612 18.4812 5.88341 18.0487L9.21674 8.88204C9.33649 8.55272 9.64948 8.3335 9.9999 8.3335Z" fill="black"/>
</g>
<defs>
<clipPath id="clip0_2001_9252">
<rect width="20" height="20" fill="white"/>
</clipPath>
</defs>
</svg>
