<svg width="20" height="20" viewBox="0 0 20 20" fill="none" xmlns="http://www.w3.org/2000/svg">
<g clip-path="url(#clip0_2001_9266)">
<path fill-rule="evenodd" clip-rule="evenodd" d="M9.54104 0.845535C11.8103 0.731551 14.041 1.4644 15.8006 2.90195C17.5601 4.3395 18.7231 6.3793 19.0639 8.62571C19.4047 10.8721 18.899 13.1651 17.645 15.0598C17.391 15.4436 16.874 15.5488 16.4902 15.2948C16.1064 15.0408 16.0012 14.5238 16.2552 14.14C17.2812 12.5897 17.6949 10.7137 17.4161 8.8757C17.1372 7.03773 16.1857 5.3688 14.7461 4.19263C13.3065 3.01645 11.4813 2.41684 9.62466 2.5101C7.76799 2.60336 6.01212 3.38284 4.6976 4.69736C3.38308 6.01188 2.60361 7.76774 2.51035 9.62441C2.41709 11.4811 3.01669 13.3062 4.19287 14.7458C5.36905 16.1855 7.03797 17.137 8.87595 17.4158C10.7139 17.6947 12.59 17.281 14.1402 16.255C14.524 16.0009 15.041 16.1062 15.295 16.49C15.5491 16.8738 15.4438 17.3908 15.06 17.6448C13.1653 18.8988 10.8724 19.4044 8.62596 19.0636C6.37954 18.7228 4.33975 17.5599 2.9022 15.8003C1.46465 14.0408 0.731795 11.8101 0.845779 9.5408C0.959763 7.27154 1.91246 5.12548 3.51909 3.51885C5.12572 1.91221 7.27178 0.959519 9.54104 0.845535Z" fill="black"/>
<path fill-rule="evenodd" clip-rule="evenodd" d="M15.8333 15.0002C15.373 15.0002 14.9999 15.3733 14.9999 15.8335C14.9999 16.2937 15.373 16.6668 15.8333 16.6668C16.2935 16.6668 16.6666 16.2937 16.6666 15.8335C16.6666 15.3733 16.2935 15.0002 15.8333 15.0002ZM13.3333 15.8335C13.3333 14.4528 14.4525 13.3335 15.8333 13.3335C17.214 13.3335 18.3333 14.4528 18.3333 15.8335C18.3333 17.2142 17.214 18.3335 15.8333 18.3335C14.4525 18.3335 13.3333 17.2142 13.3333 15.8335Z" fill="black"/>
<path fill-rule="evenodd" clip-rule="evenodd" d="M10.5856 10.5859C10.9111 10.2604 11.4387 10.2604 11.7641 10.5859L15.2475 14.0692C15.5729 14.3946 15.5729 14.9223 15.2475 15.2477C14.922 15.5732 14.3944 15.5732 14.069 15.2477L10.5856 11.7644C10.2602 11.4389 10.2602 10.9113 10.5856 10.5859Z" fill="black"/>
<path fill-rule="evenodd" clip-rule="evenodd" d="M10 9.16667C9.53976 9.16667 9.16667 9.53976 9.16667 10C9.16667 10.4602 9.53976 10.8333 10 10.8333C10.4602 10.8333 10.8333 10.4602 10.8333 10C10.8333 9.53976 10.4602 9.16667 10 9.16667ZM7.5 10C7.5 8.61929 8.61929 7.5 10 7.5C11.3807 7.5 12.5 8.61929 12.5 10C12.5 11.3807 11.3807 12.5 10 12.5C8.61929 12.5 7.5 11.3807 7.5 10Z" fill="black"/>
</g>
<defs>
<clipPath id="clip0_2001_9266">
<rect width="20" height="20" fill="white"/>
</clipPath>
</defs>
</svg>
