<svg width="20" height="20" viewBox="0 0 20 20" fill="none" xmlns="http://www.w3.org/2000/svg">
<path fill-rule="evenodd" clip-rule="evenodd" d="M4.67259 3.49408C4.99803 3.81951 4.99803 4.34715 4.67259 4.67259C1.74803 7.59715 1.74803 12.4028 4.67259 15.3274C4.99803 15.6528 4.99803 16.1805 4.67259 16.5059C4.34715 16.8314 3.81951 16.8314 3.49408 16.5059C-0.0813593 12.9305 -0.0813593 7.06951 3.49408 3.49408C3.81951 3.16864 4.34715 3.16864 4.67259 3.49408Z" fill="black"/>
<path fill-rule="evenodd" clip-rule="evenodd" d="M7.07667 5.81517C7.40896 6.13361 7.42018 6.66113 7.10174 6.99342C5.48723 8.67813 5.50485 11.3264 7.08934 12.9109C7.41477 13.2363 7.41477 13.764 7.08934 14.0894C6.7639 14.4149 6.23626 14.4149 5.91083 14.0894C3.66198 11.8406 3.6796 8.15554 5.89843 5.84024C6.21687 5.50796 6.74438 5.49673 7.07667 5.81517Z" fill="black"/>
<path fill-rule="evenodd" clip-rule="evenodd" d="M10 9.16667C9.53976 9.16667 9.16667 9.53976 9.16667 10C9.16667 10.4602 9.53976 10.8333 10 10.8333C10.4602 10.8333 10.8333 10.4602 10.8333 10C10.8333 9.53976 10.4602 9.16667 10 9.16667ZM7.5 10C7.5 8.61929 8.61929 7.5 10 7.5C11.3807 7.5 12.5 8.61929 12.5 10C12.5 11.3807 11.3807 12.5 10 12.5C8.61929 12.5 7.5 11.3807 7.5 10Z" fill="black"/>
<path fill-rule="evenodd" clip-rule="evenodd" d="M12.9108 5.91058C13.2363 5.58514 13.7639 5.58514 14.0893 5.91058C16.3382 8.15943 16.3206 11.8445 14.1017 14.1598C13.7833 14.492 13.2558 14.5033 12.9235 14.1848C12.5912 13.8664 12.58 13.3389 12.8984 13.0066C14.5129 11.3219 14.4953 8.67358 12.9108 7.08909C12.5854 6.76366 12.5854 6.23602 12.9108 5.91058Z" fill="black"/>
<path fill-rule="evenodd" clip-rule="evenodd" d="M15.3273 3.49408C15.6528 3.16864 16.1804 3.16864 16.5058 3.49408C20.0813 7.06951 20.0813 12.8472 16.5058 16.4226C16.1804 16.748 15.6528 16.748 15.3273 16.4226C15.0019 16.0972 15.0019 15.5695 15.3273 15.2441C18.2519 12.3195 18.2519 7.59715 15.3273 4.67259C15.0019 4.34715 15.0019 3.81951 15.3273 3.49408Z" fill="black"/>
</svg>
