<svg width="20" height="20" viewBox="0 0 20 20" fill="none" xmlns="http://www.w3.org/2000/svg">
<path fill-rule="evenodd" clip-rule="evenodd" d="M9.16675 9.99984C9.16675 9.5396 9.53984 9.1665 10.0001 9.1665H10.0084C10.4687 9.1665 10.8417 9.5396 10.8417 9.99984C10.8417 10.4601 10.4687 10.8332 10.0084 10.8332H10.0001C9.53984 10.8332 9.16675 10.4601 9.16675 9.99984Z" fill="black"/>
<path fill-rule="evenodd" clip-rule="evenodd" d="M4.66941 2.49818C5.53885 1.84878 6.56146 2.39944 6.96465 3.07142C6.96941 3.07936 6.97404 3.08738 6.97854 3.09547C7.39304 3.84157 8.14061 5.1706 9.0546 6.74931C9.16976 6.94823 9.19765 7.18589 9.13166 7.40607C9.06568 7.62625 8.91168 7.8094 8.70609 7.91219C8.00718 8.26164 7.50007 9.04426 7.50007 10.0002C7.50007 10.4604 7.12698 10.8335 6.66674 10.8335H2.50007C2.02147 10.8335 1.58248 10.6361 1.2754 10.329C0.978932 10.0325 0.754235 9.5726 0.841161 9.04945C1.12539 6.39487 2.58929 4.03648 4.66941 2.49818ZM5.5365 3.93168C3.88348 5.20348 2.74536 7.08807 2.50504 9.16684H5.9153C6.09388 8.27184 6.5564 7.4759 7.22287 6.9096C6.49161 5.63803 5.8962 4.57879 5.5365 3.93168Z" fill="black"/>
<path fill-rule="evenodd" clip-rule="evenodd" d="M15.4025 2.57305C17.522 4.05201 18.8888 6.43887 19.1622 9.08108C19.1651 9.10956 19.1666 9.13819 19.1666 9.16682C19.1666 9.6062 19.0165 10.0371 18.6933 10.3602C18.3702 10.6834 17.9393 10.8335 17.4999 10.8335H13.3333C12.873 10.8335 12.4999 10.4604 12.4999 10.0002C12.4999 9.0551 11.9982 8.24166 11.2467 7.80331C11.0532 7.69045 10.9133 7.50448 10.8586 7.28731C10.8038 7.07014 10.8387 6.84006 10.9555 6.64895C11.3176 6.05639 11.6631 5.47343 11.9798 4.93897C12.4199 4.19635 12.8045 3.54738 13.1011 3.09644C13.3264 2.63173 13.7556 2.38669 14.149 2.30801C14.5533 2.22715 15.0242 2.2963 15.4025 2.57305ZM14.512 3.98449C14.2315 4.40738 13.8798 5.00158 13.4547 5.71969C13.2455 6.07314 13.0185 6.4566 12.7735 6.86442C13.4347 7.45782 13.9047 8.25877 14.0851 9.16682H17.495C17.2519 7.04533 16.158 5.16101 14.512 3.98449Z" fill="black"/>
<path fill-rule="evenodd" clip-rule="evenodd" d="M7.62221 12.4819C7.85873 12.0949 8.36137 11.9681 8.75317 12.1966C9.4937 12.6286 10.5062 12.6286 11.2467 12.1966C11.6385 11.9681 12.1412 12.0949 12.3777 12.4819C13.2988 13.9892 14.0525 15.3285 14.4728 16.085C14.954 16.9047 14.6494 17.9715 13.7491 18.3475C11.3703 19.4395 8.62958 19.4395 6.25077 18.3475C5.35051 17.9715 5.04586 16.9047 5.5271 16.085C5.94743 15.3285 6.70109 13.9892 7.62221 12.4819ZM8.66675 13.9749C7.94826 15.1732 7.36158 16.2154 7.00374 16.8589C8.90845 17.7134 11.0914 17.7134 12.9961 16.8589C12.6383 16.2154 12.0516 15.1732 11.3331 13.9749C10.4758 14.2581 9.52405 14.2581 8.66675 13.9749Z" fill="black"/>
</svg>
