<svg width="20" height="20" viewBox="0 0 20 20" fill="none" xmlns="http://www.w3.org/2000/svg">
<path fill-rule="evenodd" clip-rule="evenodd" d="M3.33325 12.4998C3.33325 12.0396 3.70635 11.6665 4.16659 11.6665H15.8333C16.2935 11.6665 16.6666 12.0396 16.6666 12.4998C16.6666 12.9601 16.2935 13.3332 15.8333 13.3332H4.16659C3.70635 13.3332 3.33325 12.9601 3.33325 12.4998Z" fill="black"/>
<path fill-rule="evenodd" clip-rule="evenodd" d="M3.33325 7.49984C3.33325 7.0396 3.70635 6.6665 4.16659 6.6665H15.8333C16.2935 6.6665 16.6666 7.0396 16.6666 7.49984C16.6666 7.96007 16.2935 8.33317 15.8333 8.33317H4.16659C3.70635 8.33317 3.33325 7.96007 3.33325 7.49984Z" fill="black"/>
<path fill-rule="evenodd" clip-rule="evenodd" d="M7.74416 2.74408C8.0696 2.41864 8.59723 2.41864 8.92267 2.74408L13.0893 6.91074C13.4148 7.23618 13.4148 7.76382 13.0893 8.08926L8.67859 12.5L12.256 16.0774C12.5814 16.4028 12.5814 16.9305 12.256 17.2559C11.9306 17.5814 11.4029 17.5814 11.0775 17.2559L6.91083 13.0893C6.58539 12.7638 6.58539 12.2362 6.91083 11.9107L11.3216 7.5L7.74416 3.92259C7.41872 3.59715 7.41872 3.06951 7.74416 2.74408Z" fill="black"/>
</svg>
