<svg width="20" height="20" viewBox="0 0 20 20" fill="none" xmlns="http://www.w3.org/2000/svg">
<path fill-rule="evenodd" clip-rule="evenodd" d="M3.51811 7.68485C5.23719 5.96577 7.56877 5 9.99992 5C12.4311 5 14.7626 5.96577 16.4817 7.68485C18.2008 9.40394 19.1666 11.7355 19.1666 14.1667C19.1666 14.6269 18.7935 15 18.3333 15C17.873 15 17.4999 14.6269 17.4999 14.1667C17.4999 12.1775 16.7097 10.2699 15.3032 8.86337C13.8967 7.45684 11.989 6.66667 9.99992 6.66667C8.0108 6.66667 6.10314 7.45684 4.69662 8.86337C3.2901 10.2699 2.49992 12.1775 2.49992 14.1667C2.49992 14.6269 2.12682 15 1.66659 15C1.20635 15 0.833252 14.6269 0.833252 14.1667C0.833252 11.7355 1.79902 9.40394 3.51811 7.68485Z" fill="black"/>
<path fill-rule="evenodd" clip-rule="evenodd" d="M10.0001 10.0002C8.89501 10.0002 7.83521 10.4391 7.0538 11.2206C6.2724 12.002 5.83341 13.0618 5.83341 14.1668C5.83341 14.6271 5.46032 15.0002 5.00008 15.0002C4.53984 15.0002 4.16675 14.6271 4.16675 14.1668C4.16675 12.6197 4.78133 11.136 5.87529 10.042C6.96925 8.94808 8.45299 8.3335 10.0001 8.3335C11.5472 8.3335 13.0309 8.94808 14.1249 10.042C15.2188 11.136 15.8334 12.6197 15.8334 14.1668C15.8334 14.6271 15.4603 15.0002 15.0001 15.0002C14.5398 15.0002 14.1667 14.6271 14.1667 14.1668C14.1667 13.0618 13.7278 12.002 12.9464 11.2206C12.165 10.4391 11.1052 10.0002 10.0001 10.0002Z" fill="black"/>
<path fill-rule="evenodd" clip-rule="evenodd" d="M10 13.3332C9.77899 13.3332 9.56703 13.421 9.41074 13.5772C9.25446 13.7335 9.16667 13.9455 9.16667 14.1665C9.16667 14.6267 8.79357 14.9998 8.33333 14.9998C7.8731 14.9998 7.5 14.6267 7.5 14.1665C7.5 13.5035 7.76339 12.8676 8.23223 12.3987C8.70107 11.9299 9.33696 11.6665 10 11.6665C10.663 11.6665 11.2989 11.9299 11.7678 12.3987C12.2366 12.8676 12.5 13.5035 12.5 14.1665C12.5 14.6267 12.1269 14.9998 11.6667 14.9998C11.2064 14.9998 10.8333 14.6267 10.8333 14.1665C10.8333 13.9455 10.7455 13.7335 10.5893 13.5772C10.433 13.421 10.221 13.3332 10 13.3332Z" fill="black"/>
</svg>
