<svg width="20" height="20" viewBox="0 0 20 20" fill="none" xmlns="http://www.w3.org/2000/svg">
<g clip-path="url(#clip0_2001_9279)">
<path fill-rule="evenodd" clip-rule="evenodd" d="M8.33333 4.16683C8.33333 2.28993 9.78976 0.833496 11.6667 0.833496C13.5436 0.833496 15 2.28993 15 4.16683C15 4.62707 14.6269 5.00016 14.1667 5.00016C13.7064 5.00016 13.3333 4.62707 13.3333 4.16683C13.3333 3.2104 12.6231 2.50016 11.6667 2.50016C10.7102 2.50016 10 3.2104 10 4.16683C10 4.61953 10.1671 4.98877 10.4226 5.24424C10.6609 5.48257 10.7322 5.841 10.6032 6.1524C10.4742 6.46379 10.1704 6.66683 9.83333 6.66683H9.16667C6.3769 6.66683 4.16667 8.87707 4.16667 11.6668C4.16667 13.0399 5.29357 14.1668 6.66667 14.1668C7.1269 14.1668 7.5 14.5399 7.5 15.0002C7.5 15.4604 7.1269 15.8335 6.66667 15.8335C4.3731 15.8335 2.5 13.9604 2.5 11.6668C2.5 8.19988 5.08143 5.39112 8.44715 5.03768C8.37245 4.76083 8.33333 4.46872 8.33333 4.16683Z" fill="black"/>
<path fill-rule="evenodd" clip-rule="evenodd" d="M15.1731 3.42865C14.9186 3.55848 14.7546 3.67387 14.5892 3.83932C14.2637 4.16475 13.7361 4.16475 13.4107 3.83932C13.0852 3.51388 13.0852 2.98624 13.4107 2.6608C13.7382 2.33325 14.0674 2.11798 14.4606 1.92137C14.4812 1.91104 14.5023 1.90158 14.5238 1.893C16.1696 1.23467 18.1737 1.98241 18.857 3.69057C19.3982 5.04364 18.9891 6.63889 17.8773 7.54326L18.7954 9.14998C19.0884 9.6119 19.0848 10.1577 19.0834 10.3791C19.0833 10.393 19.0833 10.4055 19.0833 10.4167C19.0833 10.4849 19.0749 10.5527 19.0584 10.6188C18.7747 11.7536 17.7512 12.288 16.7299 12.1603C16.7131 12.1582 16.6963 12.1556 16.6797 12.1525L16.8333 11.3334C16.6797 12.1525 16.6797 12.1524 16.6796 12.1524L16.6795 12.1524L16.6793 12.1524L16.6751 12.1516C16.6723 12.1511 16.6682 12.1503 16.663 12.1493C16.6525 12.1473 16.6371 12.1444 16.6174 12.1406C16.5781 12.1331 16.5211 12.1221 16.4501 12.1082C16.3081 12.0803 16.1093 12.0405 15.8813 11.9928C15.4627 11.9052 14.9329 11.7881 14.4734 11.6667H14.1666C13.2102 11.6667 12.4999 12.377 12.4999 13.3334C12.4999 13.7936 12.1268 14.1667 11.6666 14.1667C11.2063 14.1667 10.8333 13.7936 10.8333 13.3334C10.8333 11.4565 12.2897 10.0001 14.1666 10.0001H14.5833C14.6573 10.0001 14.7311 10.0099 14.8025 10.0294C15.2362 10.1477 15.7791 10.2686 16.2227 10.3615C16.4426 10.4075 16.6344 10.4459 16.7711 10.4727C16.8394 10.4861 16.8938 10.4966 16.9309 10.5037C16.9414 10.5057 16.9506 10.5075 16.9582 10.5089C17.1155 10.5245 17.2235 10.4896 17.2874 10.4496C17.3339 10.4206 17.3814 10.3746 17.4158 10.2929C17.4145 10.2241 17.4114 10.1689 17.4041 10.1179C17.3969 10.0676 17.3885 10.0454 17.3866 10.0407C17.3772 10.0263 17.3682 10.0117 17.3597 9.99684L16.0264 7.66351C15.9068 7.45417 15.8837 7.20329 15.9631 6.97564C16.0425 6.74798 16.2166 6.56587 16.4404 6.47633C17.2323 6.15959 17.6512 5.16373 17.3095 4.30955C16.9965 3.52708 16.0204 3.10875 15.1731 3.42865Z" fill="black"/>
<path fill-rule="evenodd" clip-rule="evenodd" d="M8.33331 10.8234C8.33882 10.3632 8.71635 9.99456 9.17655 10.0001C9.81662 10.0077 10.4409 10.1995 10.9749 10.5525C11.5089 10.9055 11.9299 11.4048 12.1877 11.9907C12.4455 12.5766 12.5292 13.2243 12.4287 13.8565C12.3282 14.4887 12.0478 15.0785 11.621 15.5556C11.3141 15.8986 10.7873 15.9279 10.4443 15.6211C10.1013 15.3142 10.072 14.7874 10.3788 14.4444C10.5922 14.2059 10.7324 13.9109 10.7827 13.5948C10.8329 13.2787 10.7911 12.9549 10.6622 12.6619C10.5333 12.369 10.3228 12.1193 10.0558 11.9428C9.78882 11.7663 9.47665 11.6704 9.15662 11.6666C8.69642 11.6611 8.32781 11.2836 8.33331 10.8234Z" fill="black"/>
<path fill-rule="evenodd" clip-rule="evenodd" d="M3.33325 15.8332C3.11224 15.8332 2.90028 15.921 2.744 16.0772C2.58772 16.2335 2.49992 16.4455 2.49992 16.6665C2.49992 16.8875 2.58772 17.0995 2.744 17.2558C2.90028 17.412 3.11224 17.4998 3.33325 17.4998H10.8333C11.2935 17.4998 11.6666 17.8729 11.6666 18.3332C11.6666 18.7934 11.2935 19.1665 10.8333 19.1665H3.33325C2.67021 19.1665 2.03433 18.9031 1.56548 18.4343C1.09664 17.9654 0.833252 17.3295 0.833252 16.6665C0.833252 16.0035 1.09664 15.3676 1.56548 14.8987C2.03433 14.4299 2.67021 14.1665 3.33325 14.1665H13.3333C13.7935 14.1665 14.1666 14.5396 14.1666 14.9998C14.1666 15.4601 13.7935 15.8332 13.3333 15.8332H3.33325Z" fill="black"/>
<path fill-rule="evenodd" clip-rule="evenodd" d="M12.5 7.49984C12.5 7.0396 12.8731 6.6665 13.3333 6.6665H13.3417C13.8019 6.6665 14.175 7.0396 14.175 7.49984C14.175 7.96007 13.8019 8.33317 13.3417 8.33317H13.3333C12.8731 8.33317 12.5 7.96007 12.5 7.49984Z" fill="black"/>
</g>
<defs>
<clipPath id="clip0_2001_9279">
<rect width="20" height="20" fill="white"/>
</clipPath>
</defs>
</svg>
