<svg width="20" height="20" viewBox="0 0 20 20" fill="none" xmlns="http://www.w3.org/2000/svg">
<g clip-path="url(#clip0_2001_9285)">
<path fill-rule="evenodd" clip-rule="evenodd" d="M6.66675 2.50016C6.20651 2.50016 5.83341 2.87326 5.83341 3.3335V16.6668C5.83341 17.1271 6.20651 17.5002 6.66675 17.5002H13.3334C13.7937 17.5002 14.1667 17.1271 14.1667 16.6668V3.3335C14.1667 2.87326 13.7937 2.50016 13.3334 2.50016H6.66675ZM4.16675 3.3335C4.16675 1.95278 5.28604 0.833496 6.66675 0.833496H13.3334C14.7141 0.833496 15.8334 1.95278 15.8334 3.3335V16.6668C15.8334 18.0475 14.7141 19.1668 13.3334 19.1668H6.66675C5.28604 19.1668 4.16675 18.0475 4.16675 16.6668V3.3335Z" fill="black"/>
<path fill-rule="evenodd" clip-rule="evenodd" d="M3.33325 5.83317C2.87301 5.83317 2.49992 6.20627 2.49992 6.6665V13.3332C2.49992 13.7934 2.87301 14.1665 3.33325 14.1665H16.6666C17.1268 14.1665 17.4999 13.7934 17.4999 13.3332V6.6665C17.4999 6.20627 17.1268 5.83317 16.6666 5.83317H3.33325ZM0.833252 6.6665C0.833252 5.28579 1.95254 4.1665 3.33325 4.1665H16.6666C18.0473 4.1665 19.1666 5.28579 19.1666 6.6665V13.3332C19.1666 14.7139 18.0473 15.8332 16.6666 15.8332H3.33325C1.95254 15.8332 0.833252 14.7139 0.833252 13.3332V6.6665Z" fill="black"/>
</g>
<defs>
<clipPath id="clip0_2001_9285">
<rect width="20" height="20" fill="white"/>
</clipPath>
</defs>
</svg>
