<svg width="20" height="20" viewBox="0 0 20 20" fill="none" xmlns="http://www.w3.org/2000/svg">
<path fill-rule="evenodd" clip-rule="evenodd" d="M2.89522 0.957955C3.1409 0.806116 3.44769 0.792312 3.70601 0.921474L5 1.56847L6.29399 0.921474C6.52859 0.804171 6.80474 0.804171 7.03934 0.921474L8.33333 1.56847L9.62732 0.921474C9.86193 0.804171 10.1381 0.804171 10.3727 0.921474L11.6667 1.56847L12.9607 0.921474C13.1953 0.804171 13.4714 0.804171 13.706 0.921474L15 1.56847L16.294 0.921474C16.5523 0.792312 16.8591 0.806116 17.1048 0.957955C17.3505 1.10979 17.5 1.37802 17.5 1.66683V18.3335C17.5 18.6223 17.3505 18.8905 17.1048 19.0424C16.8591 19.1942 16.5523 19.208 16.294 19.0789L15 18.4319L13.706 19.0789C13.4714 19.1962 13.1953 19.1962 12.9607 19.0789L11.6667 18.4319L10.3727 19.0789C10.1381 19.1962 9.86193 19.1962 9.62732 19.0789L8.33333 18.4319L7.03934 19.0789C6.80474 19.1962 6.52859 19.1962 6.29399 19.0789L5 18.4319L3.70601 19.0789C3.44769 19.208 3.1409 19.1942 2.89522 19.0424C2.64954 18.8905 2.5 18.6223 2.5 18.3335V1.66683C2.5 1.37802 2.64954 1.10979 2.89522 0.957955ZM4.16667 3.01519V16.9851L4.62732 16.7548C4.86193 16.6375 5.13807 16.6375 5.37268 16.7548L6.66667 17.4018L7.96066 16.7548C8.19526 16.6375 8.47141 16.6375 8.70601 16.7548L10 17.4018L11.294 16.7548C11.5286 16.6375 11.8047 16.6375 12.0393 16.7548L13.3333 17.4018L14.6273 16.7548C14.8619 16.6375 15.1381 16.6375 15.3727 16.7548L15.8333 16.9851V3.01519L15.3727 3.24552C15.1381 3.36282 14.8619 3.36282 14.6273 3.24552L13.3333 2.59853L12.0393 3.24552C11.8047 3.36282 11.5286 3.36282 11.294 3.24552L10 2.59853L8.70601 3.24552C8.47141 3.36282 8.19526 3.36282 7.96066 3.24552L6.66667 2.59853L5.37268 3.24552C5.13807 3.36282 4.86193 3.36282 4.62732 3.24552L4.16667 3.01519Z" fill="black"/>
<path fill-rule="evenodd" clip-rule="evenodd" d="M6.56549 6.56573C7.03433 6.09689 7.67021 5.8335 8.33325 5.8335H13.3333C13.7935 5.8335 14.1666 6.20659 14.1666 6.66683C14.1666 7.12707 13.7935 7.50016 13.3333 7.50016H8.33325C8.11224 7.50016 7.90028 7.58796 7.744 7.74424C7.58772 7.90052 7.49992 8.11248 7.49992 8.3335C7.49992 8.55451 7.58772 8.76647 7.744 8.92275C7.90028 9.07903 8.11224 9.16683 8.33325 9.16683H11.6666C12.3296 9.16683 12.9655 9.43022 13.4344 9.89906C13.9032 10.3679 14.1666 11.0038 14.1666 11.6668C14.1666 12.3299 13.9032 12.9658 13.4344 13.4346C12.9655 13.9034 12.3296 14.1668 11.6666 14.1668H6.66659C6.20635 14.1668 5.83325 13.7937 5.83325 13.3335C5.83325 12.8733 6.20635 12.5002 6.66659 12.5002H11.6666C11.8876 12.5002 12.0996 12.4124 12.2558 12.2561C12.4121 12.0998 12.4999 11.8878 12.4999 11.6668C12.4999 11.4458 12.4121 11.2339 12.2558 11.0776C12.0996 10.9213 11.8876 10.8335 11.6666 10.8335H8.33325C7.67021 10.8335 7.03433 10.5701 6.56549 10.1013C6.09664 9.63242 5.83325 8.99654 5.83325 8.3335C5.83325 7.67045 6.09664 7.03457 6.56549 6.56573Z" fill="black"/>
<path fill-rule="evenodd" clip-rule="evenodd" d="M10.0001 4.5835C10.4603 4.5835 10.8334 4.95659 10.8334 5.41683V14.5835C10.8334 15.0437 10.4603 15.4168 10.0001 15.4168C9.53984 15.4168 9.16675 15.0437 9.16675 14.5835V5.41683C9.16675 4.95659 9.53984 4.5835 10.0001 4.5835Z" fill="black"/>
</svg>
