<svg width="20" height="20" viewBox="0 0 20 20" fill="none" xmlns="http://www.w3.org/2000/svg">
<path fill-rule="evenodd" clip-rule="evenodd" d="M2.89522 0.957955C3.1409 0.806116 3.44769 0.792312 3.70601 0.921474L5 1.56847L6.29399 0.921474C6.52859 0.804171 6.80474 0.804171 7.03934 0.921474L8.33333 1.56847L9.62732 0.921474C9.86193 0.804171 10.1381 0.804171 10.3727 0.921474L11.6667 1.56847L12.9607 0.921474C13.1953 0.804171 13.4714 0.804171 13.706 0.921474L15 1.56847L16.294 0.921474C16.5523 0.792312 16.8591 0.806116 17.1048 0.957955C17.3505 1.10979 17.5 1.37802 17.5 1.66683V18.3335C17.5 18.6223 17.3505 18.8905 17.1048 19.0424C16.8591 19.1942 16.5523 19.208 16.294 19.0789L15 18.4319L13.706 19.0789C13.4714 19.1962 13.1953 19.1962 12.9607 19.0789L11.6667 18.4319L10.3727 19.0789C10.1381 19.1962 9.86193 19.1962 9.62732 19.0789L8.33333 18.4319L7.03934 19.0789C6.80474 19.1962 6.52859 19.1962 6.29399 19.0789L5 18.4319L3.70601 19.0789C3.44769 19.208 3.1409 19.1942 2.89522 19.0424C2.64954 18.8905 2.5 18.6223 2.5 18.3335V1.66683C2.5 1.37802 2.64954 1.10979 2.89522 0.957955ZM4.16667 3.01519V16.9851L4.62732 16.7548C4.86193 16.6375 5.13807 16.6375 5.37268 16.7548L6.66667 17.4018L7.96066 16.7548C8.19526 16.6375 8.47141 16.6375 8.70601 16.7548L10 17.4018L11.294 16.7548C11.5286 16.6375 11.8047 16.6375 12.0393 16.7548L13.3333 17.4018L14.6273 16.7548C14.8619 16.6375 15.1381 16.6375 15.3727 16.7548L15.8333 16.9851V3.01519L15.3727 3.24552C15.1381 3.36282 14.8619 3.36282 14.6273 3.24552L13.3333 2.59853L12.0393 3.24552C11.8047 3.36282 11.5286 3.36282 11.294 3.24552L10 2.59853L8.70601 3.24552C8.47141 3.36282 8.19526 3.36282 7.96066 3.24552L6.66667 2.59853L5.37268 3.24552C5.13807 3.36282 4.86193 3.36282 4.62732 3.24552L4.16667 3.01519Z" fill="black"/>
<path fill-rule="evenodd" clip-rule="evenodd" d="M5.83325 9.99984C5.83325 9.5396 6.20635 9.1665 6.66659 9.1665H10.8333C11.2935 9.1665 11.6666 9.5396 11.6666 9.99984C11.6666 10.4601 11.2935 10.8332 10.8333 10.8332H6.66659C6.20635 10.8332 5.83325 10.4601 5.83325 9.99984Z" fill="black"/>
<path fill-rule="evenodd" clip-rule="evenodd" d="M9.35664 6.17456C10.1556 5.87948 11.0258 5.83633 11.8501 6.05094C12.6743 6.26554 13.413 6.72758 13.9666 7.37484C14.2658 7.72459 14.2247 8.25063 13.875 8.54978C13.5252 8.84894 12.9992 8.80792 12.7 8.45817C12.3679 8.06982 11.9247 7.79259 11.4301 7.66383C10.9356 7.53507 10.4134 7.56096 9.93407 7.73801C9.45468 7.91506 9.04108 8.23477 8.74895 8.65407C8.45682 9.07338 8.30021 9.57214 8.30021 10.0832C8.30021 10.5942 8.45682 11.093 8.74895 11.5123C9.04108 11.9316 9.45468 12.2513 9.93407 12.4283C10.4134 12.6054 10.9356 12.6313 11.4301 12.5025C11.9247 12.3737 12.3679 12.0965 12.7 11.7082C12.9992 11.3584 13.5252 11.3174 13.875 11.6166C14.2247 11.9157 14.2658 12.4418 13.9666 12.7915C13.413 13.4388 12.6743 13.9008 11.8501 14.1154C11.0258 14.33 10.1556 14.2869 9.35664 13.9918C8.55767 13.6967 7.86832 13.1638 7.38144 12.465C6.89456 11.7662 6.63354 10.9349 6.63354 10.0832C6.63354 9.23145 6.89456 8.40018 7.38144 7.70134C7.86832 7.0025 8.55767 6.46965 9.35664 6.17456Z" fill="black"/>
</svg>
