<svg width="20" height="20" viewBox="0 0 20 20" fill="none" xmlns="http://www.w3.org/2000/svg">
<path fill-rule="evenodd" clip-rule="evenodd" d="M2.89522 0.957955C3.1409 0.806116 3.44769 0.792312 3.70601 0.921474L5 1.56847L6.29399 0.921474C6.52859 0.804171 6.80474 0.804171 7.03934 0.921474L8.33333 1.56847L9.62732 0.921474C9.86193 0.804171 10.1381 0.804171 10.3727 0.921474L11.6667 1.56847L12.9607 0.921474C13.1953 0.804171 13.4714 0.804171 13.706 0.921474L15 1.56847L16.294 0.921474C16.5523 0.792312 16.8591 0.806116 17.1048 0.957955C17.3505 1.10979 17.5 1.37802 17.5 1.66683V18.3335C17.5 18.6223 17.3505 18.8905 17.1048 19.0424C16.8591 19.1942 16.5523 19.208 16.294 19.0789L15 18.4319L13.706 19.0789C13.4714 19.1962 13.1953 19.1962 12.9607 19.0789L11.6667 18.4319L10.3727 19.0789C10.1381 19.1962 9.86193 19.1962 9.62732 19.0789L8.33333 18.4319L7.03934 19.0789C6.80474 19.1962 6.52859 19.1962 6.29399 19.0789L5 18.4319L3.70601 19.0789C3.44769 19.208 3.1409 19.1942 2.89522 19.0424C2.64954 18.8905 2.5 18.6223 2.5 18.3335V1.66683C2.5 1.37802 2.64954 1.10979 2.89522 0.957955ZM4.16667 3.01519V16.9851L4.62732 16.7548C4.86193 16.6375 5.13807 16.6375 5.37268 16.7548L6.66667 17.4018L7.96066 16.7548C8.19526 16.6375 8.47141 16.6375 8.70601 16.7548L10 17.4018L11.294 16.7548C11.5286 16.6375 11.8047 16.6375 12.0393 16.7548L13.3333 17.4018L14.6273 16.7548C14.8619 16.6375 15.1381 16.6375 15.3727 16.7548L15.8333 16.9851V3.01519L15.3727 3.24552C15.1381 3.36282 14.8619 3.36282 14.6273 3.24552L13.3333 2.59853L12.0393 3.24552C11.8047 3.36282 11.5286 3.36282 11.294 3.24552L10 2.59853L8.70601 3.24552C8.47141 3.36282 8.19526 3.36282 7.96066 3.24552L6.66667 2.59853L5.37268 3.24552C5.13807 3.36282 4.86193 3.36282 4.62732 3.24552L4.16667 3.01519Z" fill="black"/>
<path fill-rule="evenodd" clip-rule="evenodd" d="M5.83325 5.83333C5.83325 5.3731 6.20635 5 6.66659 5H13.3333C13.7935 5 14.1666 5.3731 14.1666 5.83333C14.1666 6.29357 13.7935 6.66667 13.3333 6.66667H6.66659C6.20635 6.66667 5.83325 6.29357 5.83325 5.83333Z" fill="black"/>
<path fill-rule="evenodd" clip-rule="evenodd" d="M6.66666 5.83333C6.66666 5.3731 7.03975 5 7.49999 5C8.60506 5 9.66487 5.43899 10.4463 6.22039C11.2277 7.00179 11.6667 8.0616 11.6667 9.16667C11.6667 10.2717 11.2277 11.3315 10.4463 12.1129C10.0509 12.5083 9.58431 12.816 9.07662 13.0235L10.4417 13.8767C10.8319 14.1206 10.9506 14.6347 10.7067 15.025C10.4627 15.4153 9.9486 15.5339 9.55832 15.29L6.22499 13.2067C5.90974 13.0096 5.76313 12.6276 5.86561 12.2703C5.9681 11.9129 6.2949 11.6667 6.66666 11.6667H7.49999C8.16303 11.6667 8.79891 11.4033 9.26776 10.9344C9.7366 10.4656 9.99999 9.82971 9.99999 9.16667C9.99999 8.50363 9.7366 7.86774 9.26776 7.3989C8.79891 6.93006 8.16303 6.66667 7.49999 6.66667C7.03975 6.66667 6.66666 6.29357 6.66666 5.83333Z" fill="black"/>
<path fill-rule="evenodd" clip-rule="evenodd" d="M5.83325 9.16683C5.83325 8.70659 6.20635 8.3335 6.66659 8.3335H13.3333C13.7935 8.3335 14.1666 8.70659 14.1666 9.16683C14.1666 9.62707 13.7935 10.0002 13.3333 10.0002H6.66659C6.20635 10.0002 5.83325 9.62707 5.83325 9.16683Z" fill="black"/>
</svg>
