<svg width="20" height="20" viewBox="0 0 20 20" fill="none" xmlns="http://www.w3.org/2000/svg">
<path fill-rule="evenodd" clip-rule="evenodd" d="M2.89522 0.957955C3.1409 0.806116 3.44769 0.792312 3.70601 0.921474L5 1.56847L6.29399 0.921474C6.52859 0.804171 6.80474 0.804171 7.03934 0.921474L8.33333 1.56847L9.62732 0.921474C9.86193 0.804171 10.1381 0.804171 10.3727 0.921474L11.6667 1.56847L12.9607 0.921474C13.1953 0.804171 13.4714 0.804171 13.706 0.921474L15 1.56847L16.294 0.921474C16.5523 0.792312 16.8591 0.806116 17.1048 0.957955C17.3505 1.10979 17.5 1.37802 17.5 1.66683V18.3335C17.5 18.6223 17.3505 18.8905 17.1048 19.0424C16.8591 19.1942 16.5523 19.208 16.294 19.0789L15 18.4319L13.706 19.0789C13.4714 19.1962 13.1953 19.1962 12.9607 19.0789L11.6667 18.4319L10.3727 19.0789C10.1381 19.1962 9.86193 19.1962 9.62732 19.0789L8.33333 18.4319L7.03934 19.0789C6.80474 19.1962 6.52859 19.1962 6.29399 19.0789L5 18.4319L3.70601 19.0789C3.44769 19.208 3.1409 19.1942 2.89522 19.0424C2.64954 18.8905 2.5 18.6223 2.5 18.3335V1.66683C2.5 1.37802 2.64954 1.10979 2.89522 0.957955ZM4.16667 3.01519V16.9851L4.62732 16.7548C4.86193 16.6375 5.13807 16.6375 5.37268 16.7548L6.66667 17.4018L7.96066 16.7548C8.19526 16.6375 8.47141 16.6375 8.70601 16.7548L10 17.4018L11.294 16.7548C11.5286 16.6375 11.8047 16.6375 12.0393 16.7548L13.3333 17.4018L14.6273 16.7548C14.8619 16.6375 15.1381 16.6375 15.3727 16.7548L15.8333 16.9851V3.01519L15.3727 3.24552C15.1381 3.36282 14.8619 3.36282 14.6273 3.24552L13.3333 2.59853L12.0393 3.24552C11.8047 3.36282 11.5286 3.36282 11.294 3.24552L10 2.59853L8.70601 3.24552C8.47141 3.36282 8.19526 3.36282 7.96066 3.24552L6.66667 2.59853L5.37268 3.24552C5.13807 3.36282 4.86193 3.36282 4.62732 3.24552L4.16667 3.01519Z" fill="black"/>
<path fill-rule="evenodd" clip-rule="evenodd" d="M5.83325 12.4998C5.83325 12.0396 6.20635 11.6665 6.66659 11.6665H10.8333C11.2935 11.6665 11.6666 12.0396 11.6666 12.4998C11.6666 12.9601 11.2935 13.3332 10.8333 13.3332H6.66659C6.20635 13.3332 5.83325 12.9601 5.83325 12.4998Z" fill="black"/>
<path fill-rule="evenodd" clip-rule="evenodd" d="M7.49992 5.83333C7.49992 5.3731 7.87301 5 8.33325 5H10.8333C11.4963 5 12.1322 5.26339 12.601 5.73223C13.0699 6.20107 13.3333 6.83696 13.3333 7.5C13.3333 8.16304 13.0699 8.79893 12.601 9.26777C12.1322 9.73661 11.4963 10 10.8333 10H9.16659V14.1667C9.16659 14.6269 8.79349 15 8.33325 15C7.87301 15 7.49992 14.6269 7.49992 14.1667V10H6.66659C6.20635 10 5.83325 9.6269 5.83325 9.16667C5.83325 8.70643 6.20635 8.33333 6.66659 8.33333H7.49992V5.83333ZM9.16659 8.33333H10.8333C11.0543 8.33333 11.2662 8.24554 11.4225 8.08926C11.5788 7.93297 11.6666 7.72101 11.6666 7.5C11.6666 7.27899 11.5788 7.06702 11.4225 6.91074C11.2662 6.75446 11.0543 6.66667 10.8333 6.66667H9.16659V8.33333Z" fill="black"/>
</svg>
