<svg width="20" height="20" viewBox="0 0 20 20" fill="none" xmlns="http://www.w3.org/2000/svg">
<path fill-rule="evenodd" clip-rule="evenodd" d="M2.89522 0.957955C3.1409 0.806116 3.44769 0.792312 3.70601 0.921474L5 1.56847L6.29399 0.921474C6.52859 0.804171 6.80474 0.804171 7.03934 0.921474L8.33333 1.56847L9.62732 0.921474C9.86193 0.804171 10.1381 0.804171 10.3727 0.921474L11.6667 1.56847L12.9607 0.921474C13.1953 0.804171 13.4714 0.804171 13.706 0.921474L15 1.56847L16.294 0.921474C16.5523 0.792312 16.8591 0.806116 17.1048 0.957955C17.3505 1.10979 17.5 1.37802 17.5 1.66683V18.3335C17.5 18.6223 17.3505 18.8905 17.1048 19.0424C16.8591 19.1942 16.5523 19.208 16.294 19.0789L15 18.4319L13.706 19.0789C13.4714 19.1962 13.1953 19.1962 12.9607 19.0789L11.6667 18.4319L10.3727 19.0789C10.1381 19.1962 9.86193 19.1962 9.62732 19.0789L8.33333 18.4319L7.03934 19.0789C6.80474 19.1962 6.52859 19.1962 6.29399 19.0789L5 18.4319L3.70601 19.0789C3.44769 19.208 3.1409 19.1942 2.89522 19.0424C2.64954 18.8905 2.5 18.6223 2.5 18.3335V1.66683C2.5 1.37802 2.64954 1.10979 2.89522 0.957955ZM4.16667 3.01519V16.9851L4.62732 16.7548C4.86193 16.6375 5.13807 16.6375 5.37268 16.7548L6.66667 17.4018L7.96066 16.7548C8.19526 16.6375 8.47141 16.6375 8.70601 16.7548L10 17.4018L11.294 16.7548C11.5286 16.6375 11.8047 16.6375 12.0393 16.7548L13.3333 17.4018L14.6273 16.7548C14.8619 16.6375 15.1381 16.6375 15.3727 16.7548L15.8333 16.9851V3.01519L15.3727 3.24552C15.1381 3.36282 14.8619 3.36282 14.6273 3.24552L13.3333 2.59853L12.0393 3.24552C11.8047 3.36282 11.5286 3.36282 11.294 3.24552L10 2.59853L8.70601 3.24552C8.47141 3.36282 8.19526 3.36282 7.96066 3.24552L6.66667 2.59853L5.37268 3.24552C5.13807 3.36282 4.86193 3.36282 4.62732 3.24552L4.16667 3.01519Z" fill="black"/>
<path fill-rule="evenodd" clip-rule="evenodd" d="M10.0001 4.5835C10.4603 4.5835 10.8334 4.95659 10.8334 5.41683V14.5835C10.8334 15.0437 10.4603 15.4168 10.0001 15.4168C9.53984 15.4168 9.16675 15.0437 9.16675 14.5835V5.41683C9.16675 4.95659 9.53984 4.5835 10.0001 4.5835Z" fill="black"/>
<path fill-rule="evenodd" clip-rule="evenodd" d="M8.52339 6.09156C9.32236 5.79647 10.1926 5.75332 11.0168 5.96793C11.8411 6.18253 12.5797 6.64458 13.1334 7.29183C13.4325 7.64158 13.3915 8.16762 13.0417 8.46677C12.692 8.76593 12.1659 8.72491 11.8668 8.37516C11.5346 7.98681 11.0914 7.70958 10.5969 7.58082C10.1023 7.45206 9.5802 7.47795 9.10082 7.655C8.62143 7.83205 8.20782 8.15176 7.9157 8.57107C7.62357 8.99037 7.46696 9.48913 7.46696 10.0002C7.46696 10.5112 7.62357 11.01 7.9157 11.4293C8.20782 11.8486 8.62143 12.1683 9.10082 12.3453C9.5802 12.5224 10.1023 12.5483 10.5969 12.4195C11.0914 12.2907 11.5346 12.0135 11.8668 11.6252C12.1659 11.2754 12.692 11.2344 13.0417 11.5336C13.3915 11.8327 13.4325 12.3587 13.1334 12.7085C12.5797 13.3557 11.8411 13.8178 11.0168 14.0324C10.1926 14.247 9.32236 14.2039 8.52339 13.9088C7.72441 13.6137 7.03507 13.0808 6.54819 12.382C6.06131 11.6831 5.80029 10.8519 5.80029 10.0002C5.80029 9.14844 6.06131 8.31718 6.54819 7.61833C7.03507 6.91949 7.72441 6.38664 8.52339 6.09156Z" fill="black"/>
</svg>
