<svg width="20" height="20" viewBox="0 0 20 20" fill="none" xmlns="http://www.w3.org/2000/svg">
<path fill-rule="evenodd" clip-rule="evenodd" d="M2.89522 0.957955C3.1409 0.806116 3.44769 0.792312 3.70601 0.921474L5 1.56847L6.29399 0.921474C6.52859 0.804171 6.80474 0.804171 7.03934 0.921474L8.33333 1.56847L9.62732 0.921474C9.86193 0.804171 10.1381 0.804171 10.3727 0.921474L11.6667 1.56847L12.9607 0.921474C13.1953 0.804171 13.4714 0.804171 13.706 0.921474L15 1.56847L16.294 0.921474C16.5523 0.792312 16.8591 0.806116 17.1048 0.957955C17.3505 1.10979 17.5 1.37802 17.5 1.66683V18.3335C17.5 18.6223 17.3505 18.8905 17.1048 19.0424C16.8591 19.1942 16.5523 19.208 16.294 19.0789L15 18.4319L13.706 19.0789C13.4714 19.1962 13.1953 19.1962 12.9607 19.0789L11.6667 18.4319L10.3727 19.0789C10.1381 19.1962 9.86193 19.1962 9.62732 19.0789L8.33333 18.4319L7.03934 19.0789C6.80474 19.1962 6.52859 19.1962 6.29399 19.0789L5 18.4319L3.70601 19.0789C3.44769 19.208 3.1409 19.1942 2.89522 19.0424C2.64954 18.8905 2.5 18.6223 2.5 18.3335V1.66683C2.5 1.37802 2.64954 1.10979 2.89522 0.957955ZM4.16667 3.01519V16.9851L4.62732 16.7548C4.86193 16.6375 5.13807 16.6375 5.37268 16.7548L6.66667 17.4018L7.96066 16.7548C8.19526 16.6375 8.47141 16.6375 8.70601 16.7548L10 17.4018L11.294 16.7548C11.5286 16.6375 11.8047 16.6375 12.0393 16.7548L13.3333 17.4018L14.6273 16.7548C14.8619 16.6375 15.1381 16.6375 15.3727 16.7548L15.8333 16.9851V3.01519L15.3727 3.24552C15.1381 3.36282 14.8619 3.36282 14.6273 3.24552L13.3333 2.59853L12.0393 3.24552C11.8047 3.36282 11.5286 3.36282 11.294 3.24552L10 2.59853L8.70601 3.24552C8.47141 3.36282 8.19526 3.36282 7.96066 3.24552L6.66667 2.59853L5.37268 3.24552C5.13807 3.36282 4.86193 3.36282 4.62732 3.24552L4.16667 3.01519Z" fill="black"/>
<path fill-rule="evenodd" clip-rule="evenodd" d="M5.83325 6.66683C5.83325 6.20659 6.20635 5.8335 6.66659 5.8335H11.6666C12.1268 5.8335 12.4999 6.20659 12.4999 6.66683C12.4999 7.12707 12.1268 7.50016 11.6666 7.50016H6.66659C6.20635 7.50016 5.83325 7.12707 5.83325 6.66683Z" fill="black"/>
<path fill-rule="evenodd" clip-rule="evenodd" d="M5.83325 9.99984C5.83325 9.5396 6.20635 9.1665 6.66659 9.1665H13.3333C13.7935 9.1665 14.1666 9.5396 14.1666 9.99984C14.1666 10.4601 13.7935 10.8332 13.3333 10.8332H6.66659C6.20635 10.8332 5.83325 10.4601 5.83325 9.99984Z" fill="black"/>
<path fill-rule="evenodd" clip-rule="evenodd" d="M5.83325 13.3333C5.83325 12.8731 6.20635 12.5 6.66659 12.5H10.8333C11.2935 12.5 11.6666 12.8731 11.6666 13.3333C11.6666 13.7936 11.2935 14.1667 10.8333 14.1667H6.66659C6.20635 14.1667 5.83325 13.7936 5.83325 13.3333Z" fill="black"/>
</svg>
