<svg width="20" height="20" viewBox="0 0 20 20" fill="none" xmlns="http://www.w3.org/2000/svg">
<path fill-rule="evenodd" clip-rule="evenodd" d="M2.89522 0.957955C3.1409 0.806116 3.44769 0.792312 3.70601 0.921474L5 1.56847L6.29399 0.921474C6.52859 0.804171 6.80474 0.804171 7.03934 0.921474L8.33333 1.56847L9.62732 0.921474C9.86193 0.804171 10.1381 0.804171 10.3727 0.921474L11.6667 1.56847L12.9607 0.921474C13.1953 0.804171 13.4714 0.804171 13.706 0.921474L15 1.56847L16.294 0.921474C16.5523 0.792312 16.8591 0.806116 17.1048 0.957955C17.3505 1.10979 17.5 1.37802 17.5 1.66683V18.3335C17.5 18.6223 17.3505 18.8905 17.1048 19.0424C16.8591 19.1942 16.5523 19.208 16.294 19.0789L15 18.4319L13.706 19.0789C13.4714 19.1962 13.1953 19.1962 12.9607 19.0789L11.6667 18.4319L10.3727 19.0789C10.1381 19.1962 9.86193 19.1962 9.62732 19.0789L8.33333 18.4319L7.03934 19.0789C6.80474 19.1962 6.52859 19.1962 6.29399 19.0789L5 18.4319L3.70601 19.0789C3.44769 19.208 3.1409 19.1942 2.89522 19.0424C2.64954 18.8905 2.5 18.6223 2.5 18.3335V1.66683C2.5 1.37802 2.64954 1.10979 2.89522 0.957955ZM4.16667 3.01519V16.9851L4.62732 16.7548C4.86193 16.6375 5.13807 16.6375 5.37268 16.7548L6.66667 17.4018L7.96066 16.7548C8.19526 16.6375 8.47141 16.6375 8.70601 16.7548L10 17.4018L11.294 16.7548C11.5286 16.6375 11.8047 16.6375 12.0393 16.7548L13.3333 17.4018L14.6273 16.7548C14.8619 16.6375 15.1381 16.6375 15.3727 16.7548L15.8333 16.9851V3.01519L15.3727 3.24552C15.1381 3.36282 14.8619 3.36282 14.6273 3.24552L13.3333 2.59853L12.0393 3.24552C11.8047 3.36282 11.5286 3.36282 11.294 3.24552L10 2.59853L8.70601 3.24552C8.47141 3.36282 8.19526 3.36282 7.96066 3.24552L6.66667 2.59853L5.37268 3.24552C5.13807 3.36282 4.86193 3.36282 4.62732 3.24552L4.16667 3.01519Z" fill="black"/>
<path fill-rule="evenodd" clip-rule="evenodd" d="M13.0893 5.24408C13.4148 5.56951 13.4148 6.09715 13.0893 6.42259L10.5893 8.92259C10.2639 9.24803 9.73626 9.24803 9.41083 8.92259C9.08539 8.59715 9.08539 8.06951 9.41083 7.74408L11.9108 5.24408C12.2363 4.91864 12.7639 4.91864 13.0893 5.24408Z" fill="black"/>
<path fill-rule="evenodd" clip-rule="evenodd" d="M6.91083 5.24408C7.23626 4.91864 7.7639 4.91864 8.08934 5.24408L10.5893 7.74408C10.7456 7.90036 10.8334 8.11232 10.8334 8.33333V14.5833C10.8334 15.0436 10.4603 15.4167 10.0001 15.4167C9.53984 15.4167 9.16675 15.0436 9.16675 14.5833V8.67851L6.91083 6.42259C6.58539 6.09715 6.58539 5.56951 6.91083 5.24408Z" fill="black"/>
<path fill-rule="evenodd" clip-rule="evenodd" d="M6.66675 9.16683C6.66675 8.70659 7.03984 8.3335 7.50008 8.3335H12.5001C12.9603 8.3335 13.3334 8.70659 13.3334 9.16683C13.3334 9.62707 12.9603 10.0002 12.5001 10.0002H7.50008C7.03984 10.0002 6.66675 9.62707 6.66675 9.16683Z" fill="black"/>
<path fill-rule="evenodd" clip-rule="evenodd" d="M6.66675 12.4998C6.66675 12.0396 7.03984 11.6665 7.50008 11.6665H12.5001C12.9603 11.6665 13.3334 12.0396 13.3334 12.4998C13.3334 12.9601 12.9603 13.3332 12.5001 13.3332H7.50008C7.03984 13.3332 6.66675 12.9601 6.66675 12.4998Z" fill="black"/>
</svg>
