<svg width="20" height="20" viewBox="0 0 20 20" fill="none" xmlns="http://www.w3.org/2000/svg">
<path fill-rule="evenodd" clip-rule="evenodd" d="M3.33325 5.83317C2.87301 5.83317 2.49992 6.20627 2.49992 6.6665V13.3332C2.49992 13.7934 2.87301 14.1665 3.33325 14.1665H16.6666C17.1268 14.1665 17.4999 13.7934 17.4999 13.3332V6.6665C17.4999 6.20627 17.1268 5.83317 16.6666 5.83317H3.33325ZM0.833252 6.6665C0.833252 5.28579 1.95254 4.1665 3.33325 4.1665H16.6666C18.0473 4.1665 19.1666 5.28579 19.1666 6.6665V13.3332C19.1666 14.7139 18.0473 15.8332 16.6666 15.8332H3.33325C1.95254 15.8332 0.833252 14.7139 0.833252 13.3332V6.6665Z" fill="black"/>
</svg>
