<svg width="20" height="20" viewBox="0 0 20 20" fill="none" xmlns="http://www.w3.org/2000/svg">
<path fill-rule="evenodd" clip-rule="evenodd" d="M3.33325 5.83317C2.87301 5.83317 2.49992 6.20627 2.49992 6.6665V13.3332C2.49992 13.7934 2.87301 14.1665 3.33325 14.1665H16.6666C17.1268 14.1665 17.4999 13.7934 17.4999 13.3332V6.6665C17.4999 6.20627 17.1268 5.83317 16.6666 5.83317H3.33325ZM0.833252 6.6665C0.833252 5.28579 1.95254 4.1665 3.33325 4.1665H16.6666C18.0473 4.1665 19.1666 5.28579 19.1666 6.6665V13.3332C19.1666 14.7139 18.0473 15.8332 16.6666 15.8332H3.33325C1.95254 15.8332 0.833252 14.7139 0.833252 13.3332V6.6665Z" fill="black"/>
<path fill-rule="evenodd" clip-rule="evenodd" d="M9.16675 9.99984C9.16675 9.5396 9.53984 9.1665 10.0001 9.1665H10.0084C10.4687 9.1665 10.8417 9.5396 10.8417 9.99984C10.8417 10.4601 10.4687 10.8332 10.0084 10.8332H10.0001C9.53984 10.8332 9.16675 10.4601 9.16675 9.99984Z" fill="black"/>
<path fill-rule="evenodd" clip-rule="evenodd" d="M13.3333 9.99984C13.3333 9.5396 13.7063 9.1665 14.1666 9.1665H14.1749C14.6352 9.1665 15.0083 9.5396 15.0083 9.99984C15.0083 10.4601 14.6352 10.8332 14.1749 10.8332H14.1666C13.7063 10.8332 13.3333 10.4601 13.3333 9.99984Z" fill="black"/>
<path fill-rule="evenodd" clip-rule="evenodd" d="M5 9.99984C5 9.5396 5.3731 9.1665 5.83333 9.1665H5.84167C6.3019 9.1665 6.675 9.5396 6.675 9.99984C6.675 10.4601 6.3019 10.8332 5.84167 10.8332H5.83333C5.3731 10.8332 5 10.4601 5 9.99984Z" fill="black"/>
</svg>
