<svg width="20" height="20" viewBox="0 0 20 20" fill="none" xmlns="http://www.w3.org/2000/svg">
<path fill-rule="evenodd" clip-rule="evenodd" d="M6.66675 2.50016C6.20651 2.50016 5.83341 2.87326 5.83341 3.3335V16.6668C5.83341 17.1271 6.20651 17.5002 6.66675 17.5002H13.3334C13.7937 17.5002 14.1667 17.1271 14.1667 16.6668V3.3335C14.1667 2.87326 13.7937 2.50016 13.3334 2.50016H6.66675ZM4.16675 3.3335C4.16675 1.95278 5.28604 0.833496 6.66675 0.833496H13.3334C14.7141 0.833496 15.8334 1.95278 15.8334 3.3335V16.6668C15.8334 18.0475 14.7141 19.1668 13.3334 19.1668H6.66675C5.28604 19.1668 4.16675 18.0475 4.16675 16.6668V3.3335Z" fill="black"/>
</svg>
