<svg width="20" height="20" viewBox="0 0 20 20" fill="none" xmlns="http://www.w3.org/2000/svg">
<path fill-rule="evenodd" clip-rule="evenodd" d="M6.41408 7.19519C6.81244 7.4257 6.94851 7.93549 6.718 8.33384L3.42364 14.0271C3.42345 14.0275 3.42326 14.0278 3.42307 14.0281C3.36631 14.1274 3.33658 14.2398 3.33683 14.3542C3.33709 14.4663 3.36611 14.5763 3.42107 14.6739C3.4826 14.7726 3.56809 14.8543 3.66966 14.9113C3.77363 14.9697 3.89092 15.0002 4.01014 14.9998C4.01094 14.9998 4.01175 14.9998 4.01255 14.9998H5.83338C6.29362 14.9998 6.66672 15.3729 6.66672 15.8331C6.66672 16.2934 6.29362 16.6665 5.83338 16.6665H4.01381C3.6077 16.6675 3.20822 16.5635 2.85406 16.3648C2.49955 16.1659 2.20249 15.8787 1.99169 15.5311C1.98886 15.5265 1.98607 15.5218 1.98333 15.517C1.77908 15.1648 1.67108 14.7651 1.67017 14.358C1.66926 13.9508 1.77547 13.5506 1.97813 13.1975C1.97862 13.1966 1.97911 13.1958 1.9796 13.1949L5.27543 7.49912C5.50594 7.10076 6.01573 6.96469 6.41408 7.19519Z" fill="black"/>
<path fill-rule="evenodd" clip-rule="evenodd" d="M15.8602 11.1243C16.2587 10.8939 16.7684 11.0301 16.9988 11.4285L18.0205 13.1952C18.021 13.196 18.0215 13.1969 18.022 13.1978C18.2234 13.5491 18.3294 13.947 18.3294 14.3519C18.3294 14.7569 18.2234 15.1548 18.022 15.5061C18.0194 15.5106 18.0168 15.5151 18.0141 15.5195C17.8063 15.8667 17.5127 16.1545 17.1615 16.3553C16.8104 16.5562 16.4134 16.6634 16.0089 16.6665C16.0067 16.6665 16.0046 16.6665 16.0024 16.6665H9.16659C8.70635 16.6665 8.33325 16.2934 8.33325 15.8332C8.33325 15.3729 8.70635 14.9998 9.16659 14.9998H15.9986C16.1163 14.9985 16.2318 14.9671 16.334 14.9086C16.4347 14.851 16.5193 14.769 16.58 14.6702C16.6343 14.573 16.6628 14.4634 16.6628 14.3519C16.6628 14.2383 16.6331 14.1266 16.5768 14.0279C16.5766 14.0276 16.5764 14.0273 16.5762 14.0269L15.556 12.2629C15.3256 11.8644 15.4618 11.3547 15.8602 11.1243Z" fill="black"/>
<path fill-rule="evenodd" clip-rule="evenodd" d="M12.2558 12.7441C12.5813 13.0695 12.5813 13.5972 12.2558 13.9226L10.3451 15.8333L12.2558 17.7441C12.5813 18.0695 12.5813 18.5972 12.2558 18.9226C11.9304 19.248 11.4028 19.248 11.0773 18.9226L8.57733 16.4226C8.25189 16.0972 8.25189 15.5695 8.57733 15.2441L11.0773 12.7441C11.4028 12.4186 11.9304 12.4186 12.2558 12.7441Z" fill="black"/>
<path fill-rule="evenodd" clip-rule="evenodd" d="M6.4133 7.19515C6.60473 7.30567 6.74441 7.48772 6.80159 7.70124L7.71576 11.1146C7.83483 11.5591 7.57095 12.0161 7.12638 12.1351C6.68181 12.2542 6.2249 11.9903 6.10583 11.5458L5.4073 8.93757L2.79907 9.63675C2.35452 9.75591 1.89755 9.49214 1.77838 9.0476C1.65921 8.60306 1.92298 8.14608 2.36753 8.02692L5.78086 7.11192C5.99437 7.05468 6.22187 7.08462 6.4133 7.19515Z" fill="black"/>
<path fill-rule="evenodd" clip-rule="evenodd" d="M9.99711 3.33321C9.8808 3.3371 9.7673 3.37028 9.66715 3.42973C9.56464 3.49059 9.4796 3.57691 9.42028 3.68033C9.41986 3.68106 9.41943 3.68179 9.41901 3.68253L8.50818 5.25919C8.27796 5.65771 7.76826 5.79414 7.36974 5.56392C6.97123 5.3337 6.8348 4.824 7.06502 4.42549L7.97529 2.8498C8.17752 2.49775 8.46721 2.20386 8.81634 1.99659C9.16587 1.78908 9.56311 1.67544 9.9695 1.6667C9.97496 1.66658 9.98042 1.66652 9.98588 1.66651C10.3928 1.66575 10.7928 1.77205 11.1457 1.97475C11.4986 2.17744 11.792 2.4694 11.9964 2.82131C11.9967 2.82188 11.997 2.82245 11.9974 2.82302L15.2836 8.52629C15.5134 8.92507 15.3764 9.43461 14.9776 9.66438C14.5789 9.89416 14.0693 9.75716 13.8396 9.35839L10.5552 3.65837C10.555 3.65804 10.5548 3.65771 10.5546 3.65738C10.497 3.55872 10.4147 3.47686 10.3156 3.41998C10.2186 3.36424 10.1089 3.33439 9.99711 3.33321Z" fill="black"/>
<path fill-rule="evenodd" clip-rule="evenodd" d="M15.6916 4.72438C16.1361 4.84344 16.4 5.30036 16.2809 5.74493L15.3668 9.15826C15.3096 9.37178 15.1699 9.55384 14.9785 9.66436C14.7871 9.77488 14.5596 9.80482 14.346 9.74759L10.9327 8.83259C10.4882 8.71342 10.2244 8.25645 10.3436 7.8119C10.4627 7.36736 10.9197 7.10359 11.3643 7.22276L13.9725 7.92194L14.671 5.31375C14.7901 4.86918 15.247 4.60531 15.6916 4.72438Z" fill="black"/>
</svg>
