<svg width="20" height="20" viewBox="0 0 20 20" fill="none" xmlns="http://www.w3.org/2000/svg">
<path fill-rule="evenodd" clip-rule="evenodd" d="M11.9108 2.74408C12.2363 2.41864 12.7639 2.41864 13.0893 2.74408L17.256 6.91074C17.5814 7.23618 17.5814 7.76382 17.256 8.08926L13.0893 12.2559C12.7639 12.5814 12.2363 12.5814 11.9108 12.2559C11.5854 11.9305 11.5854 11.4028 11.9108 11.0774L15.4882 7.5L11.9108 3.92259C11.5854 3.59715 11.5854 3.06951 11.9108 2.74408Z" fill="black"/>
<path fill-rule="evenodd" clip-rule="evenodd" d="M4.08651 8.25301C5.10233 7.23719 6.48008 6.6665 7.91667 6.6665H16.6667C17.1269 6.6665 17.5 7.0396 17.5 7.49984C17.5 7.96007 17.1269 8.33317 16.6667 8.33317H7.91667C6.9221 8.33317 5.96828 8.72826 5.26502 9.43152C4.56175 10.1348 4.16667 11.0886 4.16667 12.0832C4.16667 12.5756 4.26366 13.0633 4.45212 13.5182C4.64057 13.9732 4.9168 14.3866 5.26502 14.7348C5.96828 15.4381 6.9221 15.8332 7.91667 15.8332H10.8333C11.2936 15.8332 11.6667 16.2063 11.6667 16.6665C11.6667 17.1267 11.2936 17.4998 10.8333 17.4998H7.91667C6.48008 17.4998 5.10233 16.9292 4.08651 15.9133C3.58352 15.4103 3.18453 14.8132 2.91232 14.156C2.64011 13.4989 2.5 12.7945 2.5 12.0832C2.5 10.6466 3.07068 9.26883 4.08651 8.25301Z" fill="black"/>
</svg>
