<svg width="20" height="20" viewBox="0 0 20 20" fill="none" xmlns="http://www.w3.org/2000/svg">
<path fill-rule="evenodd" clip-rule="evenodd" d="M17.5001 5C17.9603 5 18.3334 5.3731 18.3334 5.83333V10.8333C18.3334 11.2936 17.9603 11.6667 17.5001 11.6667H12.5001C12.0398 11.6667 11.6667 11.2936 11.6667 10.8333C11.6667 10.3731 12.0398 10 12.5001 10H16.6667V5.83333C16.6667 5.3731 17.0398 5 17.5001 5Z" fill="black"/>
<path fill-rule="evenodd" clip-rule="evenodd" d="M9.99967 7.50016C8.23171 7.50027 6.53618 8.20264 5.28604 9.45278C4.03579 10.703 3.33341 12.3987 3.33341 14.1668C3.33341 14.6271 2.96032 15.0002 2.50008 15.0002C2.03984 15.0002 1.66675 14.6271 1.66675 14.1668C1.66675 11.9567 2.54472 9.83708 4.10752 8.27427C5.67033 6.71147 7.78994 5.8335 10.0001 5.8335L10.0009 5.8335C12.0517 5.83558 14.0298 6.59383 15.5565 7.96313L18.0576 10.2141C18.3996 10.522 18.4274 11.0489 18.1195 11.391C17.8116 11.7331 17.2847 11.7608 16.9426 11.4529L14.4437 9.20387C14.4435 9.20373 14.4434 9.20359 14.4432 9.20345C13.222 8.10837 11.64 7.50194 9.99967 7.50016Z" fill="black"/>
</svg>
