<svg width="20" height="20" viewBox="0 0 20 20" fill="none" xmlns="http://www.w3.org/2000/svg">
<path fill-rule="evenodd" clip-rule="evenodd" d="M2.50008 0.833496C2.96032 0.833496 3.33341 1.20659 3.33341 1.66683V5.8335H7.50008C7.96032 5.8335 8.33341 6.20659 8.33341 6.66683C8.33341 7.12707 7.96032 7.50016 7.50008 7.50016H2.50008C2.03984 7.50016 1.66675 7.12707 1.66675 6.66683V1.66683C1.66675 1.20659 2.03984 0.833496 2.50008 0.833496Z" fill="black"/>
<path fill-rule="evenodd" clip-rule="evenodd" d="M8.71503 1.77302C10.3038 1.52505 11.9305 1.74206 13.3987 2.39787C14.8669 3.05368 16.1141 4.12028 16.9897 5.46903C17.8653 6.81777 18.332 8.39104 18.3334 9.99909C18.3338 10.4593 17.9611 10.8328 17.5008 10.8332C17.0406 10.8336 16.6672 10.4608 16.6668 10.0006C16.6656 8.71417 16.2922 7.45555 15.5918 6.37656C14.8913 5.29756 13.8936 4.44428 12.719 3.91963C11.5444 3.39498 10.2431 3.22138 8.97204 3.41975C7.70139 3.61807 6.51523 4.17967 5.55654 5.03684C5.55624 5.03711 5.55594 5.03737 5.55564 5.03764L3.05756 7.28592C2.71547 7.5938 2.18856 7.56607 1.88068 7.22398C1.57279 6.88189 1.60053 6.35498 1.94262 6.0471L4.44262 3.7971C4.44326 3.79653 4.44389 3.79595 4.44453 3.79538C5.6431 2.72335 7.12622 2.02099 8.71503 1.77302Z" fill="black"/>
<path fill-rule="evenodd" clip-rule="evenodd" d="M11.6667 13.3333C11.6667 12.8731 12.0398 12.5 12.5001 12.5H17.5001C17.9603 12.5 18.3334 12.8731 18.3334 13.3333V18.3333C18.3334 18.7936 17.9603 19.1667 17.5001 19.1667C17.0398 19.1667 16.6667 18.7936 16.6667 18.3333V14.1667H12.5001C12.0398 14.1667 11.6667 13.7936 11.6667 13.3333Z" fill="black"/>
<path fill-rule="evenodd" clip-rule="evenodd" d="M2.49932 9.1665C2.95956 9.16608 3.333 9.53884 3.33341 9.99908C3.33459 11.2855 3.70793 12.5441 4.40842 13.6231C5.1089 14.7021 6.10661 15.5554 7.2812 16.08C8.45578 16.6047 9.75708 16.7783 11.0281 16.5799C12.2988 16.3816 13.4849 15.82 14.4436 14.9629C14.4439 14.9626 14.4442 14.9623 14.4445 14.962L16.9426 12.7138C17.2847 12.4059 17.8116 12.4336 18.1195 12.7757C18.4274 13.1178 18.3996 13.6447 18.0576 13.9526L15.5576 16.2026L15.5556 16.2043C14.3571 17.2763 12.8739 17.9787 11.2851 18.2267C9.69633 18.4746 8.06971 18.2576 6.60148 17.6018C5.13324 16.946 3.88611 15.8794 3.0105 14.5307C2.1349 13.1819 1.66821 11.6086 1.66675 10.0006C1.66633 9.54036 2.03909 9.16692 2.49932 9.1665Z" fill="black"/>
<path fill-rule="evenodd" clip-rule="evenodd" d="M8.33325 10.0002C8.33325 9.07969 9.07944 8.3335 9.99992 8.3335C10.9204 8.3335 11.6666 9.07969 11.6666 10.0002C11.6666 10.9206 10.9204 11.6668 9.99992 11.6668C9.07944 11.6668 8.33325 10.9206 8.33325 10.0002Z" fill="black"/>
</svg>
