<svg width="20" height="20" viewBox="0 0 20 20" fill="none" xmlns="http://www.w3.org/2000/svg">
<g clip-path="url(#clip0_2001_9367)">
<path fill-rule="evenodd" clip-rule="evenodd" d="M7.33707 2.1036C8.17782 1.81401 9.07813 1.6665 10.0001 1.6665C10.0012 1.6665 10.0022 1.66651 10.0033 1.66651C12.315 1.67521 14.5339 2.57725 16.196 4.18403C16.1994 4.1873 16.2027 4.19059 16.2061 4.19391L18.0894 6.07725C18.4148 6.40269 18.4148 6.93032 18.0894 7.25576C17.7639 7.5812 17.2363 7.5812 16.9109 7.25576L15.0327 5.37755C13.6807 4.07305 11.8774 3.34064 9.99857 3.33317C9.25446 3.33334 8.53865 3.45249 7.87985 3.67941C7.4447 3.82929 6.97044 3.59804 6.82056 3.16289C6.67067 2.72775 6.90193 2.25348 7.33707 2.1036Z" fill="black"/>
<path fill-rule="evenodd" clip-rule="evenodd" d="M1.66675 13.3333C1.66675 12.8731 2.03984 12.5 2.50008 12.5H6.66675C7.12699 12.5 7.50008 12.8731 7.50008 13.3333C7.50008 13.7936 7.12699 14.1667 6.66675 14.1667H3.33341V17.5C3.33341 17.9602 2.96032 18.3333 2.50008 18.3333C2.03984 18.3333 1.66675 17.9602 1.66675 17.5V13.3333Z" fill="black"/>
<path fill-rule="evenodd" clip-rule="evenodd" d="M5.29294 4.1144C5.61638 4.44183 5.61314 4.96946 5.28571 5.29289C4.07392 6.48991 3.33341 8.15286 3.33341 10C3.33341 10.4603 2.96032 10.8334 2.50008 10.8334C2.03984 10.8334 1.66675 10.4603 1.66675 10C1.66675 7.6972 2.59291 5.61016 4.11445 4.10717C4.44188 3.78374 4.96951 3.78698 5.29294 4.1144Z" fill="black"/>
<path fill-rule="evenodd" clip-rule="evenodd" d="M1.91083 12.7441C2.23626 12.4186 2.7639 12.4186 3.08934 12.7441L4.96755 14.6223C6.3195 15.9268 8.12285 16.6592 10.0017 16.6667C11.8482 16.6662 13.5105 15.9258 14.7072 14.7144C15.0307 14.3869 15.5583 14.3837 15.8857 14.7071C16.2131 15.0306 16.2164 15.5582 15.8929 15.8856C14.39 17.4072 12.3029 18.3333 10.0001 18.3333C9.99934 18.3333 9.9986 18.3333 9.99786 18.3333L9.99695 18.3333C7.68519 18.3246 5.4663 17.4226 3.80421 15.8158C3.80083 15.8125 3.79748 15.8092 3.79416 15.8059L1.91083 13.9226C1.58539 13.5972 1.58539 13.0695 1.91083 12.7441Z" fill="black"/>
<path fill-rule="evenodd" clip-rule="evenodd" d="M17.5001 9.1665C17.9604 9.1665 18.3335 9.5396 18.3335 9.99984C18.3335 10.9218 18.186 11.8221 17.8964 12.6629C17.7465 13.098 17.2722 13.3293 16.8371 13.1794C16.4019 13.0295 16.1707 12.5553 16.3206 12.1201C16.5476 11.4609 16.6668 10.7445 16.6668 9.99984C16.6668 9.5396 17.0399 9.1665 17.5001 9.1665Z" fill="black"/>
<path fill-rule="evenodd" clip-rule="evenodd" d="M17.5 1.6665C17.9602 1.6665 18.3333 2.0396 18.3333 2.49984V6.6665C18.3333 7.12674 17.9602 7.49984 17.5 7.49984H13.3333C12.8731 7.49984 12.5 7.12674 12.5 6.6665C12.5 6.20627 12.8731 5.83317 13.3333 5.83317H16.6667V2.49984C16.6667 2.0396 17.0398 1.6665 17.5 1.6665Z" fill="black"/>
<path fill-rule="evenodd" clip-rule="evenodd" d="M1.07733 1.07757C1.40277 0.752137 1.9304 0.752137 2.25584 1.07757L18.9225 17.7442C19.2479 18.0697 19.2479 18.5973 18.9225 18.9228C18.5971 19.2482 18.0694 19.2482 17.744 18.9228L1.07733 2.25609C0.751893 1.93065 0.751893 1.40301 1.07733 1.07757Z" fill="black"/>
</g>
<defs>
<clipPath id="clip0_2001_9367">
<rect width="20" height="20" fill="white"/>
</clipPath>
</defs>
</svg>
