<svg width="20" height="20" viewBox="0 0 20 20" fill="none" xmlns="http://www.w3.org/2000/svg">
<path fill-rule="evenodd" clip-rule="evenodd" d="M7.49992 2.50016C6.83688 2.50016 6.20099 2.76356 5.73215 3.2324C5.26331 3.70124 4.99992 4.33712 4.99992 5.00016V16.6668C4.99992 16.8878 5.08772 17.0998 5.244 17.2561C5.40028 17.4124 5.61224 17.5002 5.83325 17.5002H14.1666C14.3876 17.5002 14.5996 17.4124 14.7558 17.2561C14.9121 17.0998 14.9999 16.8878 14.9999 16.6668V5.00016C14.9999 4.33712 14.7365 3.70124 14.2677 3.2324C13.7988 2.76356 13.163 2.50016 12.4999 2.50016H7.49992ZM4.55364 2.05388C5.33504 1.27248 6.39485 0.833496 7.49992 0.833496H12.4999C13.605 0.833496 14.6648 1.27248 15.4462 2.05388C16.2276 2.83529 16.6666 3.89509 16.6666 5.00016V16.6668C16.6666 17.3299 16.4032 17.9658 15.9344 18.4346C15.4655 18.9034 14.8296 19.1668 14.1666 19.1668H5.83325C5.17021 19.1668 4.53433 18.9034 4.06548 18.4346C3.59664 17.9658 3.33325 17.3299 3.33325 16.6668V5.00016C3.33325 3.89509 3.77224 2.83529 4.55364 2.05388Z" fill="black"/>
<path fill-rule="evenodd" clip-rule="evenodd" d="M3.33325 8.33333C3.33325 7.8731 3.70635 7.5 4.16659 7.5H15.8333C16.2935 7.5 16.6666 7.8731 16.6666 8.33333C16.6666 8.79357 16.2935 9.16667 15.8333 9.16667H4.16659C3.70635 9.16667 3.33325 8.79357 3.33325 8.33333Z" fill="black"/>
<path fill-rule="evenodd" clip-rule="evenodd" d="M12.5001 5C12.9603 5 13.3334 5.3731 13.3334 5.83333V10.8333C13.3334 11.2936 12.9603 11.6667 12.5001 11.6667C12.0398 11.6667 11.6667 11.2936 11.6667 10.8333V5.83333C11.6667 5.3731 12.0398 5 12.5001 5Z" fill="black"/>
</svg>
