<svg width="20" height="20" viewBox="0 0 20 20" fill="none" xmlns="http://www.w3.org/2000/svg">
<path fill-rule="evenodd" clip-rule="evenodd" d="M9.99852 3.33317C8.23097 3.33358 6.53591 4.03592 5.28604 5.28579C4.03579 6.53603 3.33341 8.23173 3.33341 9.99984C3.33341 10.4601 2.96032 10.8332 2.50008 10.8332C2.03984 10.8332 1.66675 10.4601 1.66675 9.99984C1.66675 7.7897 2.54472 5.67008 4.10752 4.10728C5.67033 2.54448 7.78994 1.6665 10.0001 1.6665C10.0011 1.6665 10.0022 1.66651 10.0032 1.66651C12.315 1.67521 14.5339 2.57725 16.196 4.18403C16.1993 4.1873 16.2027 4.19059 16.206 4.19391L18.0893 6.07725C18.4148 6.40269 18.4148 6.93032 18.0893 7.25576C17.7639 7.5812 17.2363 7.5812 16.9108 7.25576L15.0326 5.37754C13.6807 4.07304 11.8773 3.34064 9.99852 3.33317Z" fill="black"/>
<path fill-rule="evenodd" clip-rule="evenodd" d="M17.5 1.6665C17.9602 1.6665 18.3333 2.0396 18.3333 2.49984V6.6665C18.3333 7.12674 17.9602 7.49984 17.5 7.49984H13.3333C12.8731 7.49984 12.5 7.12674 12.5 6.6665C12.5 6.20627 12.8731 5.83317 13.3333 5.83317H16.6667V2.49984C16.6667 2.0396 17.0398 1.6665 17.5 1.6665Z" fill="black"/>
<path fill-rule="evenodd" clip-rule="evenodd" d="M17.5001 9.1665C17.9603 9.1665 18.3334 9.5396 18.3334 9.99984C18.3334 12.21 17.4554 14.3296 15.8926 15.8924C14.3298 17.4552 12.2102 18.3332 10.0001 18.3332C9.99904 18.3332 9.99799 18.3332 9.99695 18.3332C7.68519 18.3245 5.4663 17.4224 3.80421 15.8156C3.80083 15.8124 3.79748 15.8091 3.79416 15.8058L1.91083 13.9224C1.58539 13.597 1.58539 13.0694 1.91083 12.7439C2.23626 12.4185 2.7639 12.4185 3.08934 12.7439L4.96754 14.6221C6.31947 15.9266 8.1228 16.659 10.0016 16.6665C11.7692 16.6661 13.4642 15.9638 14.7141 14.7139C15.9644 13.4636 16.6667 11.7679 16.6667 9.99984C16.6667 9.5396 17.0398 9.1665 17.5001 9.1665Z" fill="black"/>
<path fill-rule="evenodd" clip-rule="evenodd" d="M1.66675 13.3333C1.66675 12.8731 2.03984 12.5 2.50008 12.5H6.66675C7.12699 12.5 7.50008 12.8731 7.50008 13.3333C7.50008 13.7936 7.12699 14.1667 6.66675 14.1667H3.33341V17.5C3.33341 17.9602 2.96032 18.3333 2.50008 18.3333C2.03984 18.3333 1.66675 17.9602 1.66675 17.5V13.3333Z" fill="black"/>
</svg>
