<svg width="20" height="20" viewBox="0 0 20 20" fill="none" xmlns="http://www.w3.org/2000/svg">
<path fill-rule="evenodd" clip-rule="evenodd" d="M9.99695 1.66651C9.99799 1.66651 9.99904 1.6665 10.0001 1.6665C12.2102 1.6665 14.3298 2.54448 15.8926 4.10728C17.4554 5.67008 18.3334 7.7897 18.3334 9.99984C18.3334 10.4601 17.9603 10.8332 17.5001 10.8332C17.0398 10.8332 16.6667 10.4601 16.6667 9.99984C16.6667 8.23173 15.9644 6.53603 14.7141 5.28579C13.4643 4.03592 11.7692 3.33358 10.0016 3.33317C8.12284 3.34064 6.31949 4.07305 4.96755 5.37755L3.08934 7.25576C2.7639 7.5812 2.23626 7.5812 1.91083 7.25576C1.58539 6.93032 1.58539 6.40269 1.91083 6.07725L3.79416 4.19391C3.79748 4.19059 3.80083 4.1873 3.80421 4.18403C5.4663 2.57725 7.68519 1.67521 9.99695 1.66651Z" fill="black"/>
<path fill-rule="evenodd" clip-rule="evenodd" d="M2.50008 1.6665C2.96032 1.6665 3.33341 2.0396 3.33341 2.49984V5.83317H6.66675C7.12699 5.83317 7.50008 6.20627 7.50008 6.6665C7.50008 7.12674 7.12699 7.49984 6.66675 7.49984H2.50008C2.03984 7.49984 1.66675 7.12674 1.66675 6.6665V2.49984C1.66675 2.0396 2.03984 1.6665 2.50008 1.6665Z" fill="black"/>
<path fill-rule="evenodd" clip-rule="evenodd" d="M2.50008 9.1665C2.96032 9.1665 3.33341 9.5396 3.33341 9.99984C3.33341 11.7679 4.03579 13.4636 5.28604 14.7139C6.53592 15.9638 8.23101 16.6661 9.99857 16.6665C11.8774 16.659 13.6807 15.9266 15.0326 14.6221L16.9108 12.7439C17.2363 12.4185 17.7639 12.4185 18.0893 12.7439C18.4148 13.0694 18.4148 13.597 18.0893 13.9224L16.206 15.8058C16.2027 15.8091 16.1993 15.8124 16.196 15.8156C14.5339 17.4224 12.315 18.3245 10.0032 18.3332C10.0022 18.3332 10.0011 18.3332 10.0001 18.3332C7.78994 18.3332 5.67033 17.4552 4.10752 15.8924C2.54472 14.3296 1.66675 12.21 1.66675 9.99984C1.66675 9.5396 2.03984 9.1665 2.50008 9.1665Z" fill="black"/>
<path fill-rule="evenodd" clip-rule="evenodd" d="M12.5 13.3333C12.5 12.8731 12.8731 12.5 13.3333 12.5H17.5C17.9602 12.5 18.3333 12.8731 18.3333 13.3333V17.5C18.3333 17.9602 17.9602 18.3333 17.5 18.3333C17.0398 18.3333 16.6667 17.9602 16.6667 17.5V14.1667H13.3333C12.8731 14.1667 12.5 13.7936 12.5 13.3333Z" fill="black"/>
</svg>
