<svg width="20" height="20" viewBox="0 0 20 20" fill="none" xmlns="http://www.w3.org/2000/svg">
<path fill-rule="evenodd" clip-rule="evenodd" d="M14.1666 1.6665C14.6268 1.6665 14.9999 2.0396 14.9999 2.49984V10.8332C14.9999 11.2934 14.6268 11.6665 14.1666 11.6665C13.7063 11.6665 13.3333 11.2934 13.3333 10.8332V2.49984C13.3333 2.0396 13.7063 1.6665 14.1666 1.6665Z" fill="black"/>
<path fill-rule="evenodd" clip-rule="evenodd" d="M9.83664 4.1668C10.0668 3.76822 10.5764 3.63167 10.975 3.86179L18.1917 8.02846C18.5902 8.25858 18.7268 8.76824 18.4967 9.16681C18.2666 9.56539 17.7569 9.70195 17.3583 9.47182L10.1417 5.30515C9.74308 5.07503 9.60652 4.56537 9.83664 4.1668Z" fill="black"/>
<path fill-rule="evenodd" clip-rule="evenodd" d="M18.4967 4.1668C18.7268 4.56537 18.5902 5.07503 18.1917 5.30515L10.975 9.47182C10.5764 9.70195 10.0668 9.56539 9.83664 9.16681C9.60652 8.76824 9.74308 8.25858 10.1417 8.02846L17.3583 3.86179C17.7569 3.63167 18.2666 3.76822 18.4967 4.1668Z" fill="black"/>
<path fill-rule="evenodd" clip-rule="evenodd" d="M2.39898 12.3987C2.86782 11.9299 3.50371 11.6665 4.16675 11.6665H5.83341C6.49646 11.6665 7.13234 11.9299 7.60118 12.3987C8.07002 12.8676 8.33341 13.5035 8.33341 14.1665V15.8332C8.33341 16.4962 8.07002 17.1321 7.60118 17.6009C7.13234 18.0698 6.49646 18.3332 5.83341 18.3332H4.16675C3.50371 18.3332 2.86782 18.0698 2.39898 17.6009C1.93014 17.1321 1.66675 16.4962 1.66675 15.8332V14.1665C1.66675 13.5035 1.93014 12.8676 2.39898 12.3987ZM4.16675 13.3332C3.94573 13.3332 3.73377 13.421 3.57749 13.5772C3.42121 13.7335 3.33341 13.9455 3.33341 14.1665V15.8332C3.33341 16.0542 3.42121 16.2661 3.57749 16.4224C3.73377 16.5787 3.94573 16.6665 4.16675 16.6665H5.83341C6.05443 16.6665 6.26639 16.5787 6.42267 16.4224C6.57895 16.2661 6.66675 16.0542 6.66675 15.8332V14.1665C6.66675 13.9455 6.57895 13.7335 6.42267 13.5772C6.26639 13.421 6.05443 13.3332 5.83341 13.3332H4.16675Z" fill="black"/>
</svg>
