<svg width="20" height="20" viewBox="0 0 20 20" fill="none" xmlns="http://www.w3.org/2000/svg">
<path fill-rule="evenodd" clip-rule="evenodd" d="M2.5 3.33333C2.5 2.8731 2.8731 2.5 3.33333 2.5H16.6667C17.1269 2.5 17.5 2.8731 17.5 3.33333V5.83333C17.5 6.29357 17.1269 6.66667 16.6667 6.66667C16.2064 6.66667 15.8333 6.29357 15.8333 5.83333V4.16667H4.16667V5.83333C4.16667 6.29357 3.79357 6.66667 3.33333 6.66667C2.8731 6.66667 2.5 6.29357 2.5 5.83333V3.33333Z" fill="black"/>
<path fill-rule="evenodd" clip-rule="evenodd" d="M3.33325 16.6668C3.33325 16.2066 3.70635 15.8335 4.16659 15.8335H9.16658C9.62682 15.8335 9.99992 16.2066 9.99992 16.6668C9.99992 17.1271 9.62682 17.5002 9.16658 17.5002H4.16659C3.70635 17.5002 3.33325 17.1271 3.33325 16.6668Z" fill="black"/>
<path fill-rule="evenodd" clip-rule="evenodd" d="M11.0818 2.53816C11.5211 2.67543 11.7659 3.14283 11.6286 3.58212L7.46196 16.9155C7.32469 17.3547 6.85729 17.5996 6.418 17.4623C5.97871 17.325 5.73389 16.8576 5.87116 16.4183L10.0378 3.08499C10.1751 2.64571 10.6425 2.40088 11.0818 2.53816Z" fill="black"/>
<path fill-rule="evenodd" clip-rule="evenodd" d="M11.9108 11.9106C12.2363 11.5851 12.7639 11.5851 13.0893 11.9106L17.256 16.0772C17.5814 16.4027 17.5814 16.9303 17.256 17.2558C16.9306 17.5812 16.4029 17.5812 16.0775 17.2558L11.9108 13.0891C11.5854 12.7637 11.5854 12.236 11.9108 11.9106Z" fill="black"/>
<path fill-rule="evenodd" clip-rule="evenodd" d="M17.256 11.9106C17.5814 12.236 17.5814 12.7637 17.256 13.0891L13.0893 17.2558C12.7639 17.5812 12.2363 17.5812 11.9108 17.2558C11.5854 16.9303 11.5854 16.4027 11.9108 16.0772L16.0775 11.9106C16.4029 11.5851 16.9306 11.5851 17.256 11.9106Z" fill="black"/>
</svg>
