<svg width="20" height="20" viewBox="0 0 20 20" fill="none" xmlns="http://www.w3.org/2000/svg">
<path fill-rule="evenodd" clip-rule="evenodd" d="M13.5773 1.07757C13.9028 0.752137 14.4304 0.752137 14.7558 1.07757L18.0892 4.41091C18.4146 4.73634 18.4146 5.26398 18.0892 5.58942L14.7558 8.92275C14.4304 9.24819 13.9028 9.24819 13.5773 8.92275C13.2519 8.59731 13.2519 8.06968 13.5773 7.74424L16.3214 5.00016L13.5773 2.25609C13.2519 1.93065 13.2519 1.40301 13.5773 1.07757Z" fill="black"/>
<path fill-rule="evenodd" clip-rule="evenodd" d="M5.83341 5.83317C5.17037 5.83317 4.53449 6.09656 4.06565 6.5654C3.59681 7.03424 3.33341 7.67013 3.33341 8.33317V9.1665C3.33341 9.62674 2.96032 9.99984 2.50008 9.99984C2.03984 9.99984 1.66675 9.62674 1.66675 9.1665V8.33317C1.66675 7.2281 2.10573 6.16829 2.88714 5.38689C3.66854 4.60549 4.72835 4.1665 5.83341 4.1665H17.5001C17.9603 4.1665 18.3334 4.5396 18.3334 4.99984C18.3334 5.46007 17.9603 5.83317 17.5001 5.83317H5.83341Z" fill="black"/>
<path fill-rule="evenodd" clip-rule="evenodd" d="M6.42267 11.0776C6.74811 11.403 6.74811 11.9306 6.42267 12.2561L3.67859 15.0002L6.42267 17.7442C6.74811 18.0697 6.74811 18.5973 6.42267 18.9228C6.09723 19.2482 5.5696 19.2482 5.24416 18.9228L1.91083 15.5894C1.58539 15.264 1.58539 14.7363 1.91083 14.4109L5.24416 11.0776C5.5696 10.7521 6.09723 10.7521 6.42267 11.0776Z" fill="black"/>
<path fill-rule="evenodd" clip-rule="evenodd" d="M17.5001 10C17.9603 10 18.3334 10.3731 18.3334 10.8333V11.6667C18.3334 12.7717 17.8944 13.8315 17.113 14.6129C16.3316 15.3943 15.2718 15.8333 14.1667 15.8333H2.50008C2.03984 15.8333 1.66675 15.4602 1.66675 15C1.66675 14.5398 2.03984 14.1667 2.50008 14.1667H14.1667C14.8298 14.1667 15.4657 13.9033 15.9345 13.4344C16.4034 12.9656 16.6667 12.3297 16.6667 11.6667V10.8333C16.6667 10.3731 17.0398 10 17.5001 10Z" fill="black"/>
<path fill-rule="evenodd" clip-rule="evenodd" d="M8.33325 8.33333C8.33325 7.8731 8.70635 7.5 9.16659 7.5H9.99992C10.4602 7.5 10.8333 7.8731 10.8333 8.33333V11.6667C10.8333 12.1269 10.4602 12.5 9.99992 12.5C9.53968 12.5 9.16659 12.1269 9.16659 11.6667V9.16667C8.70635 9.16667 8.33325 8.79357 8.33325 8.33333Z" fill="black"/>
</svg>
