<svg width="20" height="20" viewBox="0 0 20 20" fill="none" xmlns="http://www.w3.org/2000/svg">
<path fill-rule="evenodd" clip-rule="evenodd" d="M3.57733 4.41058C3.90277 4.08514 4.4304 4.08514 4.75584 4.41058L7.25584 6.91058C7.58128 7.23602 7.58128 7.76366 7.25584 8.08909C6.9304 8.41453 6.40277 8.41453 6.07733 8.08909L4.16658 6.17835L2.25584 8.08909C1.9304 8.41453 1.40277 8.41453 1.07733 8.08909C0.751893 7.76366 0.751893 7.23602 1.07733 6.91058L3.57733 4.41058Z" fill="black"/>
<path fill-rule="evenodd" clip-rule="evenodd" d="M4.16659 4.1665C4.62682 4.1665 4.99992 4.5396 4.99992 4.99984V13.3332C4.99992 13.5542 5.08772 13.7661 5.244 13.9224C5.40028 14.0787 5.61224 14.1665 5.83325 14.1665H10.8333C11.2935 14.1665 11.6666 14.5396 11.6666 14.9998C11.6666 15.4601 11.2935 15.8332 10.8333 15.8332H5.83325C5.17021 15.8332 4.53433 15.5698 4.06548 15.1009C3.59664 14.6321 3.33325 13.9962 3.33325 13.3332V4.99984C3.33325 4.5396 3.70635 4.1665 4.16659 4.1665Z" fill="black"/>
<path fill-rule="evenodd" clip-rule="evenodd" d="M12.7441 11.9106C13.0695 11.5851 13.5972 11.5851 13.9226 11.9106L15.8333 13.8213L17.7441 11.9106C18.0695 11.5851 18.5972 11.5851 18.9226 11.9106C19.248 12.236 19.248 12.7637 18.9226 13.0891L16.4226 15.5891C16.0972 15.9145 15.5695 15.9145 15.2441 15.5891L12.7441 13.0891C12.4186 12.7637 12.4186 12.236 12.7441 11.9106Z" fill="black"/>
<path fill-rule="evenodd" clip-rule="evenodd" d="M8.33325 4.99984C8.33325 4.5396 8.70635 4.1665 9.16659 4.1665H14.1666C14.8296 4.1665 15.4655 4.4299 15.9344 4.89874C16.4032 5.36758 16.6666 6.00346 16.6666 6.6665V14.9998C16.6666 15.4601 16.2935 15.8332 15.8333 15.8332C15.373 15.8332 14.9999 15.4601 14.9999 14.9998V6.6665C14.9999 6.44549 14.9121 6.23353 14.7558 6.07725C14.5996 5.92097 14.3876 5.83317 14.1666 5.83317H9.16659C8.70635 5.83317 8.33325 5.46007 8.33325 4.99984Z" fill="black"/>
</svg>
