<svg width="20" height="20" viewBox="0 0 20 20" fill="none" xmlns="http://www.w3.org/2000/svg">
<path fill-rule="evenodd" clip-rule="evenodd" d="M6.42251 5.24408C6.74794 5.56951 6.74794 6.09715 6.42251 6.42259L2.8451 10L6.42251 13.5774C6.74794 13.9028 6.74794 14.4305 6.42251 14.7559C6.09707 15.0814 5.56943 15.0814 5.244 14.7559L1.07733 10.5893C0.751893 10.2638 0.751893 9.73618 1.07733 9.41074L5.244 5.24408C5.56943 4.91864 6.09707 4.91864 6.42251 5.24408Z" fill="black"/>
<path fill-rule="evenodd" clip-rule="evenodd" d="M10.5893 5.24408C10.9147 5.56951 10.9147 6.09715 10.5893 6.42259L7.01184 10L10.5893 13.5774C10.9147 13.9028 10.9147 14.4305 10.5893 14.7559C10.2638 15.0814 9.73618 15.0814 9.41074 14.7559L5.24408 10.5893C4.91864 10.2638 4.91864 9.73618 5.24408 9.41074L9.41074 5.24408C9.73618 4.91864 10.2638 4.91864 10.5893 5.24408Z" fill="black"/>
<path fill-rule="evenodd" clip-rule="evenodd" d="M5 9.99984C5 9.5396 5.3731 9.1665 5.83333 9.1665H15C16.1051 9.1665 17.1649 9.60549 17.9463 10.3869C18.7277 11.1683 19.1667 12.2281 19.1667 13.3332V14.9998C19.1667 15.4601 18.7936 15.8332 18.3333 15.8332C17.8731 15.8332 17.5 15.4601 17.5 14.9998V13.3332C17.5 12.6701 17.2366 12.0342 16.7678 11.5654C16.2989 11.0966 15.663 10.8332 15 10.8332H5.83333C5.3731 10.8332 5 10.4601 5 9.99984Z" fill="black"/>
</svg>
