<svg width="20" height="20" viewBox="0 0 20 20" fill="none" xmlns="http://www.w3.org/2000/svg">
<path fill-rule="evenodd" clip-rule="evenodd" d="M8.08926 5.24408C8.41469 5.56951 8.41469 6.09715 8.08926 6.42259L4.51184 10L8.08926 13.5774C8.41469 13.9028 8.41469 14.4305 8.08926 14.7559C7.76382 15.0814 7.23618 15.0814 6.91074 14.7559L2.74408 10.5893C2.41864 10.2638 2.41864 9.73618 2.74408 9.41074L6.91074 5.24408C7.23618 4.91864 7.76382 4.91864 8.08926 5.24408Z" fill="black"/>
<path fill-rule="evenodd" clip-rule="evenodd" d="M2.5 9.99984C2.5 9.5396 2.8731 9.1665 3.33333 9.1665H13.3333C14.4384 9.1665 15.4982 9.60549 16.2796 10.3869C17.061 11.1683 17.5 12.2281 17.5 13.3332V14.9998C17.5 15.4601 17.1269 15.8332 16.6667 15.8332C16.2064 15.8332 15.8333 15.4601 15.8333 14.9998V13.3332C15.8333 12.6701 15.5699 12.0342 15.1011 11.5654C14.6323 11.0966 13.9964 10.8332 13.3333 10.8332H3.33333C2.8731 10.8332 2.5 10.4601 2.5 9.99984Z" fill="black"/>
</svg>
