<svg width="20" height="20" viewBox="0 0 20 20" fill="none" xmlns="http://www.w3.org/2000/svg">
<g clip-path="url(#clip0_2001_9411)">
<path fill-rule="evenodd" clip-rule="evenodd" d="M10.8333 11.6668C10.8333 11.2066 11.2063 10.8335 11.6666 10.8335C12.3296 10.8335 12.9655 11.0969 13.4344 11.5657C13.9032 12.0346 14.1666 12.6705 14.1666 13.3335V16.6668C14.1666 17.3299 13.9032 17.9658 13.4344 18.4346C12.9655 18.9034 12.3296 19.1668 11.6666 19.1668C11.2063 19.1668 10.8333 18.7937 10.8333 18.3335C10.8333 17.8733 11.2063 17.5002 11.6666 17.5002C11.8876 17.5002 12.0996 17.4124 12.2558 17.2561C12.4121 17.0998 12.4999 16.8878 12.4999 16.6668V13.3335C12.4999 13.1125 12.4121 12.9005 12.2558 12.7442C12.0996 12.588 11.8876 12.5002 11.6666 12.5002C11.2063 12.5002 10.8333 12.1271 10.8333 11.6668Z" fill="black"/>
<path fill-rule="evenodd" clip-rule="evenodd" d="M13.3333 2.50016C13.1122 2.50016 12.9003 2.58796 12.744 2.74424C12.5877 2.90052 12.4999 3.11248 12.4999 3.3335C12.4999 3.79373 12.1268 4.16683 11.6666 4.16683C11.2063 4.16683 10.8333 3.79373 10.8333 3.3335C10.8333 2.67045 11.0966 2.03457 11.5655 1.56573C12.0343 1.09689 12.6702 0.833496 13.3333 0.833496C13.7935 0.833496 14.1666 1.20659 14.1666 1.66683C14.1666 2.12707 13.7935 2.50016 13.3333 2.50016Z" fill="black"/>
<path fill-rule="evenodd" clip-rule="evenodd" d="M11.6666 5.8335C12.1268 5.8335 12.4999 6.20659 12.4999 6.66683C12.4999 6.88784 12.5877 7.0998 12.744 7.25608C12.9003 7.41237 13.1122 7.50016 13.3333 7.50016C13.7935 7.50016 14.1666 7.87326 14.1666 8.3335C14.1666 8.79373 13.7935 9.16683 13.3333 9.16683C12.6702 9.16683 12.0343 8.90344 11.5655 8.4346C11.0966 7.96576 10.8333 7.32987 10.8333 6.66683C10.8333 6.20659 11.2063 5.8335 11.6666 5.8335Z" fill="black"/>
<path fill-rule="evenodd" clip-rule="evenodd" d="M15.8333 11.6668C15.8333 11.2066 16.2063 10.8335 16.6666 10.8335C17.3296 10.8335 17.9655 11.0969 18.4344 11.5657C18.9032 12.0346 19.1666 12.6705 19.1666 13.3335V16.6668C19.1666 17.3299 18.9032 17.9658 18.4344 18.4346C17.9655 18.9034 17.3296 19.1668 16.6666 19.1668C16.2063 19.1668 15.8333 18.7937 15.8333 18.3335C15.8333 17.8733 16.2063 17.5002 16.6666 17.5002C16.8876 17.5002 17.0996 17.4124 17.2558 17.2561C17.4121 17.0998 17.4999 16.8878 17.4999 16.6668V13.3335C17.4999 13.1125 17.4121 12.9005 17.2558 12.7442C17.0996 12.588 16.8876 12.5002 16.6666 12.5002C16.2063 12.5002 15.8333 12.1271 15.8333 11.6668Z" fill="black"/>
<path fill-rule="evenodd" clip-rule="evenodd" d="M15.8333 1.66683C15.8333 1.20659 16.2063 0.833496 16.6666 0.833496C17.3296 0.833496 17.9655 1.09689 18.4344 1.56573C18.9032 2.03457 19.1666 2.67045 19.1666 3.3335C19.1666 3.79373 18.7935 4.16683 18.3333 4.16683C17.873 4.16683 17.4999 3.79373 17.4999 3.3335C17.4999 3.11248 17.4121 2.90052 17.2558 2.74424C17.0996 2.58796 16.8876 2.50016 16.6666 2.50016C16.2063 2.50016 15.8333 2.12707 15.8333 1.66683Z" fill="black"/>
<path fill-rule="evenodd" clip-rule="evenodd" d="M18.3333 5.8335C18.7935 5.8335 19.1666 6.20659 19.1666 6.66683C19.1666 7.32987 18.9032 7.96576 18.4344 8.4346C17.9655 8.90344 17.3296 9.16683 16.6666 9.16683C16.2063 9.16683 15.8333 8.79373 15.8333 8.3335C15.8333 7.87326 16.2063 7.50016 16.6666 7.50016C16.8876 7.50016 17.0996 7.41237 17.2558 7.25608C17.4121 7.0998 17.4999 6.88784 17.4999 6.66683C17.4999 6.20659 17.873 5.8335 18.3333 5.8335Z" fill="black"/>
<path fill-rule="evenodd" clip-rule="evenodd" d="M1.91083 5.24408C2.23626 4.91864 2.7639 4.91864 3.08934 5.24408L5.00008 7.15482L6.91083 5.24408C7.23626 4.91864 7.7639 4.91864 8.08934 5.24408C8.41477 5.56951 8.41477 6.09715 8.08934 6.42259L5.58934 8.92259C5.2639 9.24803 4.73626 9.24803 4.41083 8.92259L1.91083 6.42259C1.58539 6.09715 1.58539 5.56951 1.91083 5.24408Z" fill="black"/>
<path fill-rule="evenodd" clip-rule="evenodd" d="M7.50008 2.50016C7.05805 2.50016 6.63413 2.67576 6.32157 2.98832C6.00901 3.30088 5.83341 3.7248 5.83341 4.16683V8.3335C5.83341 8.79373 5.46032 9.16683 5.00008 9.16683C4.53984 9.16683 4.16675 8.79373 4.16675 8.3335V4.16683C4.16675 3.28277 4.51794 2.43493 5.14306 1.80981C5.76818 1.18469 6.61603 0.833496 7.50008 0.833496H8.33342C8.79365 0.833496 9.16675 1.20659 9.16675 1.66683C9.16675 2.12707 8.79365 2.50016 8.33342 2.50016H7.50008Z" fill="black"/>
<path fill-rule="evenodd" clip-rule="evenodd" d="M3.33325 12.5002C2.87301 12.5002 2.49992 12.8733 2.49992 13.3335V16.6668C2.49992 17.1271 2.87301 17.5002 3.33325 17.5002H6.66658C7.12682 17.5002 7.49992 17.1271 7.49992 16.6668V13.3335C7.49992 12.8733 7.12682 12.5002 6.66658 12.5002H3.33325ZM0.833252 13.3335C0.833252 11.9528 1.95254 10.8335 3.33325 10.8335H6.66658C8.0473 10.8335 9.16658 11.9528 9.16658 13.3335V16.6668C9.16658 18.0475 8.0473 19.1668 6.66658 19.1668H3.33325C1.95254 19.1668 0.833252 18.0475 0.833252 16.6668V13.3335Z" fill="black"/>
</g>
<defs>
<clipPath id="clip0_2001_9411">
<rect width="20" height="20" fill="white"/>
</clipPath>
</defs>
</svg>
