<svg width="20" height="20" viewBox="0 0 20 20" fill="none" xmlns="http://www.w3.org/2000/svg">
<path fill-rule="evenodd" clip-rule="evenodd" d="M9.53271 3.41824C9.81863 3.55808 9.99992 3.84856 9.99992 4.16684V15.8335C9.99992 16.1518 9.81863 16.4423 9.53271 16.5821C9.2468 16.7219 8.9062 16.6867 8.65497 16.4913L1.15497 10.658C0.951979 10.5001 0.833252 10.2573 0.833252 10.0002C0.833252 9.74301 0.951979 9.50026 1.15497 9.34238L8.65497 3.50904C8.9062 3.31364 9.2468 3.2784 9.53271 3.41824ZM3.02394 10.0002L8.33325 14.1296V5.8707L3.02394 10.0002Z" fill="black"/>
<path fill-rule="evenodd" clip-rule="evenodd" d="M18.6995 3.41824C18.9854 3.55808 19.1667 3.84856 19.1667 4.16684V15.8335C19.1667 16.1518 18.9854 16.4423 18.6995 16.5821C18.4135 16.7219 18.073 16.6867 17.8217 16.4913L10.3217 10.658C10.1187 10.5001 10 10.2573 10 10.0002C10 9.74301 10.1187 9.50026 10.3217 9.34238L17.8217 3.50904C18.073 3.31364 18.4135 3.2784 18.6995 3.41824ZM12.1907 10.0002L17.5 14.1296V5.8707L12.1907 10.0002Z" fill="black"/>
</svg>
