<svg width="20" height="20" viewBox="0 0 20 20" fill="none" xmlns="http://www.w3.org/2000/svg">
<path fill-rule="evenodd" clip-rule="evenodd" d="M10 5.83317C9.77899 5.83317 9.56703 5.92097 9.41074 6.07725C9.25446 6.23353 9.16667 6.44549 9.16667 6.6665C9.16667 6.81295 9.24424 7.04923 9.5332 7.45541C9.67151 7.64983 9.82636 7.8421 9.99942 8.04982C10.1737 7.84201 10.3293 7.64936 10.4667 7.4565C10.7556 7.05107 10.8333 6.81345 10.8333 6.6665C10.8333 6.44549 10.7455 6.23353 10.5893 6.07725C10.433 5.92097 10.221 5.83317 10 5.83317ZM10.702 9.79935C10.7876 9.69726 10.8764 9.59297 10.9662 9.48748C11.2672 9.13373 11.5798 8.76649 11.8241 8.42359C12.1619 7.94943 12.5 7.35289 12.5 6.6665C12.5 6.00346 12.2366 5.36758 11.7678 4.89874C11.2989 4.4299 10.663 4.1665 10 4.1665C9.33696 4.1665 8.70107 4.4299 8.23223 4.89874C7.76339 5.36758 7.5 6.00346 7.5 6.6665C7.5 7.35339 7.83909 7.94919 8.17513 8.42155C8.40813 8.74907 8.707 9.10396 8.99512 9.4461C9.09446 9.56406 9.19253 9.68051 9.28617 9.79379C9.33185 9.86635 9.38959 9.93303 9.45911 9.9908C9.61595 10.1211 9.80643 10.1842 9.99554 10.1832C10.1827 10.1843 10.3713 10.1227 10.5275 9.99497C10.5975 9.93776 10.6557 9.87153 10.702 9.79935Z" fill="black"/>
<path fill-rule="evenodd" clip-rule="evenodd" d="M12.6348 11.4117C13.0057 11.6841 13.0857 12.2056 12.8133 12.5766L10.6716 15.4933C10.3992 15.8642 9.87764 15.9442 9.50667 15.6718C9.1357 15.3994 9.0558 14.8778 9.32819 14.5068L11.4699 11.5902C11.7423 11.2192 12.2638 11.1393 12.6348 11.4117Z" fill="black"/>
<path fill-rule="evenodd" clip-rule="evenodd" d="M12.3158 6.40095C11.5998 6.02672 10.8037 5.83156 9.99582 5.8322C9.18791 5.83283 8.39218 6.02923 7.67676 6.40458C6.96133 6.77993 6.34752 7.32305 5.88786 7.98746C5.62601 8.36595 5.10691 8.4605 4.72843 8.19865C4.34994 7.9368 4.25539 7.4177 4.51724 7.03921C5.13012 6.15334 5.94853 5.42917 6.90243 4.9287C7.85633 4.42824 8.9173 4.16637 9.99452 4.16553C11.0717 4.16469 12.1331 4.42489 13.0878 4.92387C14.0425 5.42284 14.862 6.14573 15.4763 7.03064C15.7387 7.40872 15.645 7.92796 15.2669 8.1904C14.8888 8.45285 14.3696 8.35911 14.1071 7.98103C13.6464 7.31734 13.0318 6.77518 12.3158 6.40095Z" fill="black"/>
<path fill-rule="evenodd" clip-rule="evenodd" d="M10.5208 8.69943C10.88 8.98707 10.9381 9.51151 10.6505 9.87078L8.44215 12.6291C8.15451 12.9884 7.63008 13.0465 7.2708 12.7588C6.91152 12.4712 6.85344 11.9468 7.14108 11.5875L9.34942 8.82915C9.63706 8.46987 10.1615 8.41179 10.5208 8.69943Z" fill="black"/>
<path fill-rule="evenodd" clip-rule="evenodd" d="M9.9999 2.50016C8.85068 2.50016 7.77244 2.88191 6.99785 3.5274C6.2277 4.1692 5.83323 5.00357 5.83323 5.8335C5.83323 7.962 6.83348 9.35033 8.06058 11.0535C8.19501 11.2401 8.33215 11.4305 8.471 11.626C8.6836 11.9254 8.67521 12.3286 8.45034 12.6189L5.5445 16.3697L5.54435 16.3699L7.09841 17.4973L7.09848 17.4974L9.33183 14.502C9.48973 14.2903 9.7387 14.1659 10.0029 14.1668C10.267 14.1678 10.5151 14.2939 10.6715 14.5068L12.8729 17.5036L14.4504 16.3708L11.4863 12.5984C11.2557 12.3049 11.2484 11.8939 11.4683 11.5924C11.6125 11.3947 11.755 11.2023 11.8946 11.0137C13.1438 9.32645 14.1631 7.94983 14.1666 5.83288C14.1664 5.00316 13.7719 4.16904 13.0019 3.5274C12.2274 2.88191 11.1491 2.50016 9.9999 2.50016ZM5.05487 17.0444L4.56544 17.7188C4.38471 17.5876 4.23218 17.4215 4.11691 17.2302C4.00163 17.039 3.92597 16.8265 3.89441 16.6054C3.86285 16.3844 3.87604 16.1592 3.93319 15.9433C3.99033 15.7275 4.09023 15.5254 4.22696 15.349C4.22701 15.3489 4.22706 15.3488 4.22711 15.3488L6.75156 12.0902C6.73483 12.0672 6.71807 12.0441 6.70129 12.021C5.49226 10.3557 4.16657 8.52967 4.16657 5.8335C4.16657 4.45328 4.82567 3.16804 5.93088 2.24703C7.03165 1.32972 8.49696 0.833496 9.9999 0.833496C11.5028 0.833496 12.9681 1.32972 14.0689 2.24703C15.1741 3.16804 15.8332 4.45328 15.8332 5.8335L15.8332 5.83479C15.829 8.5318 14.4698 10.3529 13.2393 12.0015C13.2227 12.0238 13.2061 12.0461 13.1895 12.0683L15.761 15.3411L15.761 15.3412C15.9 15.518 16.0017 15.7212 16.06 15.9384C16.1184 16.1556 16.1322 16.3824 16.1006 16.6051C16.069 16.8277 15.9926 17.0417 15.8761 17.2341C15.7596 17.4265 15.6054 17.5933 15.4227 17.7245L13.8436 18.8584C13.4888 19.1126 13.0484 19.2175 12.617 19.1505C12.1857 19.0835 11.7979 18.85 11.5369 18.5001C11.5357 18.4984 11.5345 18.4968 11.5333 18.4952L9.99491 16.401L8.43632 18.4913C8.43615 18.4915 8.43597 18.4918 8.4358 18.492C8.17412 18.8438 7.78435 19.0784 7.35092 19.1448C6.91724 19.2112 6.47484 19.104 6.11972 18.8464C6.1197 18.8463 6.11968 18.8463 6.11965 18.8463L4.56555 17.7189L5.05487 17.0444Z" fill="black"/>
</svg>
