<svg width="20" height="20" viewBox="0 0 20 20" fill="none" xmlns="http://www.w3.org/2000/svg">
<path fill-rule="evenodd" clip-rule="evenodd" d="M2.68762 0.865286C3.13015 0.738849 3.59139 0.995092 3.71783 1.43762L6.04514 9.58322H14.9999C15.4601 9.58322 15.8332 9.95632 15.8332 10.4166C15.8332 10.8768 15.4601 11.2499 14.9999 11.2499H5.41656C5.04449 11.2499 4.7175 11.0032 4.61529 10.6455L2.11529 1.89549C1.98885 1.45296 2.24509 0.991723 2.68762 0.865286Z" fill="black"/>
<path fill-rule="evenodd" clip-rule="evenodd" d="M8.30874 9.68121C8.71484 9.89779 8.86846 10.4026 8.65188 10.8087L5.31855 17.0587C5.10197 17.4648 4.59719 17.6184 4.1911 17.4018C3.78501 17.1852 3.63138 16.6804 3.84796 16.2743L7.18129 10.0243C7.39788 9.61826 7.90265 9.46463 8.30874 9.68121Z" fill="black"/>
<path fill-rule="evenodd" clip-rule="evenodd" d="M12.1476 9.66139C12.5647 9.46676 13.0606 9.64708 13.2552 10.0641L16.1719 16.3141C16.3665 16.7312 16.1862 17.2271 15.7691 17.4217C15.352 17.6163 14.8562 17.436 14.6616 17.0189L11.7449 10.7689C11.5503 10.3519 11.7306 9.85601 12.1476 9.66139Z" fill="black"/>
<path fill-rule="evenodd" clip-rule="evenodd" d="M1.70605 14.4069C2.03352 14.0835 2.56115 14.0868 2.88453 14.4143C3.8147 15.3562 4.92263 16.1041 6.14406 16.6145C7.36549 17.125 8.67612 17.3878 9.99992 17.3878C11.3237 17.3878 12.6343 17.125 13.8558 16.6145C15.0772 16.1041 16.1851 15.3562 17.1153 14.4143C17.4387 14.0868 17.9663 14.0835 18.2938 14.4069C18.6213 14.7303 18.6246 15.2579 18.3012 15.5854C17.216 16.6843 15.9234 17.5568 14.4984 18.1523C13.0734 18.7478 11.5444 19.0545 9.99992 19.0545C8.45549 19.0545 6.92642 18.7478 5.50142 18.1523C4.07641 17.5568 2.78383 16.6843 1.69864 15.5854C1.37525 15.2579 1.37857 14.7303 1.70605 14.4069Z" fill="black"/>
</svg>
