<svg width="20" height="20" viewBox="0 0 20 20" fill="none" xmlns="http://www.w3.org/2000/svg">
<path fill-rule="evenodd" clip-rule="evenodd" d="M3.21351 13.1124C3.71289 12.6918 4.34999 12.4703 5.00262 12.4905C5.65548 12.5107 6.27788 12.7713 6.75038 13.2223C6.75378 13.2255 6.75715 13.2288 6.7605 13.2321C7.75084 14.2099 7.73814 15.7794 6.88728 16.7871C6.51839 17.2258 6.01033 17.548 5.52174 17.7866C5.02325 18.0301 4.4853 18.2152 4.0021 18.3534C3.51624 18.4924 3.06812 18.589 2.74218 18.6508C2.57863 18.6819 2.44439 18.7045 2.34978 18.7195C2.30245 18.727 2.26493 18.7326 2.23853 18.7364C2.22532 18.7384 2.21488 18.7398 2.20737 18.7409C2.20361 18.7414 2.20059 18.7418 2.19832 18.7421L2.19408 18.7427C2.19392 18.7427 2.19377 18.7428 2.08334 17.9168C1.25736 17.8063 1.25738 17.8062 1.2574 17.806L1.25759 17.8046L1.25797 17.8018C1.25828 17.7995 1.2587 17.7965 1.25922 17.7927C1.26027 17.7852 1.26175 17.7748 1.26367 17.7616C1.26751 17.7352 1.27313 17.6977 1.28063 17.6503C1.29563 17.5557 1.31822 17.4215 1.34927 17.2579C1.41116 16.932 1.50775 16.4839 1.64672 15.998C1.78494 15.5148 1.96998 14.9769 2.21347 14.4784C2.4522 13.9896 2.77453 13.4814 3.21351 13.1124ZM2.08334 17.9168L1.25736 17.8063C1.22295 18.0637 1.31048 18.3224 1.49409 18.506C1.67769 18.6896 1.9364 18.7772 2.19377 18.7428L2.08334 17.9168ZM3.14205 16.8581C3.27125 16.826 3.40603 16.7904 3.54375 16.751C3.97096 16.6288 4.40905 16.4753 4.79025 16.2891C5.181 16.0982 5.45588 15.8999 5.61192 15.7141C5.61247 15.7135 5.61302 15.7128 5.61357 15.7122C5.94356 15.3217 5.9158 14.7458 5.59439 14.423C5.41972 14.2587 5.19095 14.1638 4.9511 14.1564C4.70885 14.1489 4.47236 14.2311 4.28702 14.3873L4.286 14.3882C4.10024 14.5442 3.90189 14.8191 3.71103 15.2099C3.52483 15.5911 3.37133 16.0292 3.24913 16.4564C3.20973 16.5941 3.1741 16.7289 3.14205 16.8581Z" fill="black"/>
<path fill-rule="evenodd" clip-rule="evenodd" d="M17.4661 2.53211C16.0766 2.64488 14.7231 3.05018 13.4959 3.72514C12.016 4.53909 10.7689 5.71812 9.8733 7.1501C9.87174 7.15259 9.87017 7.15508 9.86858 7.15755C9.33078 7.99754 8.86595 8.8817 8.47901 9.80028L10.2017 11.523C11.1314 11.137 12.0269 10.6727 12.8786 10.1349C16.3996 7.76972 17.2959 4.67717 17.4661 2.53211ZM12.6927 2.26478C14.4217 1.3138 16.3653 0.820991 18.3386 0.83323C18.7968 0.836072 19.1668 1.20833 19.1668 1.66655C19.1668 4.09669 18.4594 8.3996 13.7975 11.5254C13.7913 11.5295 13.7851 11.5336 13.7788 11.5375C12.6791 12.2329 11.5125 12.8163 10.2963 13.2788C9.98959 13.3955 9.64292 13.3212 9.41085 13.0891L6.91085 10.5891C6.67783 10.3561 6.60401 10.0077 6.72254 9.70016C7.18562 8.49876 7.76859 7.34708 8.4626 6.26257C9.5088 4.59122 10.9649 3.21504 12.6927 2.26478Z" fill="black"/>
<path fill-rule="evenodd" clip-rule="evenodd" d="M5.46282 7.35943C5.10045 7.60221 4.75768 8.20156 4.49694 8.92038C4.46661 9.00401 4.43839 9.08635 4.41224 9.16643H7.50001C7.96024 9.16643 8.33334 9.53953 8.33334 9.99977C8.33334 10.46 7.96024 10.8331 7.50001 10.8331H3.33334C3.08628 10.8331 2.85196 10.7235 2.69362 10.5338C2.53529 10.3442 2.46928 10.094 2.51341 9.85093L3.33334 9.99977C2.51341 9.85093 2.51344 9.85076 2.51347 9.85058L2.51373 9.84916L2.51423 9.84646C2.51462 9.84435 2.51512 9.84163 2.51575 9.83832C2.51699 9.83169 2.51871 9.82268 2.52091 9.81141C2.52532 9.78889 2.53165 9.75731 2.53999 9.71774C2.55667 9.63867 2.58146 9.52725 2.61501 9.39198C2.68181 9.1227 2.78486 8.75263 2.93016 8.35206C3.20054 7.60666 3.69089 6.53958 4.53665 5.97379L4.53776 5.97306C5.03358 5.64251 5.61508 5.5061 6.14346 5.45699C6.67903 5.40721 7.2233 5.4415 7.69611 5.50243C8.17222 5.56379 8.59862 5.65523 8.90498 5.73077C9.0589 5.76872 9.18436 5.80312 9.27281 5.8285C9.31707 5.8412 9.3522 5.85167 9.37711 5.85924C9.38957 5.86303 9.39948 5.8661 9.40672 5.86836C9.4083 5.86885 9.40974 5.8693 9.41106 5.86971C9.41278 5.87025 9.41429 5.87073 9.41557 5.87113C9.4167 5.87149 9.41767 5.87179 9.41846 5.87205L9.41995 5.87252C9.42014 5.87258 9.42031 5.87264 9.16667 6.66643L9.42031 5.87264C9.85871 6.01272 10.1006 6.48167 9.96047 6.92007C9.82047 7.3582 9.35201 7.60001 8.91384 7.46048C8.91382 7.46048 8.91379 7.46047 8.91377 7.46046C8.91363 7.46042 8.91348 7.46037 8.91334 7.46032L8.91303 7.46023M8.91303 7.46023L8.91221 7.45997L8.91038 7.4594C8.90688 7.45831 8.90082 7.45643 8.89232 7.45385C8.87531 7.44868 8.8486 7.44069 8.81321 7.43054C8.74235 7.41021 8.63721 7.38133 8.50597 7.34897C8.24202 7.28388 7.87988 7.20657 7.48307 7.15543C7.08297 7.10387 6.66994 7.0819 6.2977 7.1165C5.91867 7.15173 5.64201 7.24017 5.46282 7.35943M4.15312 10.1494C4.1531 10.1496 4.1531 10.1496 4.15313 10.1494L4.15312 10.1494Z" fill="black"/>
<path fill-rule="evenodd" clip-rule="evenodd" d="M13.0798 10.0398C13.5182 9.89968 13.9871 10.1415 14.1272 10.5799L13.3334 10.8336C14.1272 10.5799 14.1273 10.5801 14.1273 10.5803L14.1278 10.5818C14.1281 10.5826 14.1284 10.5835 14.1287 10.5847C14.1294 10.5869 14.1304 10.5899 14.1315 10.5935C14.1338 10.6007 14.1368 10.6107 14.1406 10.6231C14.1482 10.648 14.1587 10.6832 14.1714 10.7274C14.1967 10.8159 14.2311 10.9413 14.2691 11.0953C14.3446 11.4016 14.4361 11.828 14.4974 12.3041C14.5583 12.7769 14.5926 13.3212 14.5429 13.8568C14.4937 14.3852 14.3573 14.9666 14.0268 15.4625L14.0261 15.4636C13.4603 16.3093 12.3932 16.7997 11.6478 17.0701C11.2472 17.2154 10.8772 17.3184 10.6079 17.3852C10.4726 17.4188 10.3612 17.4436 10.2821 17.4602C10.2425 17.4686 10.211 17.4749 10.1884 17.4793C10.1772 17.4815 10.1682 17.4832 10.1615 17.4845C10.1582 17.4851 10.1555 17.4856 10.1534 17.486L10.1507 17.4865L10.1493 17.4868C10.1491 17.4868 10.1489 17.4868 10.0001 16.6669L10.1489 17.4868C9.90583 17.531 9.65569 17.4649 9.46603 17.3066C9.27637 17.1483 9.16675 16.914 9.16675 16.6669V12.5002C9.16675 12.04 9.53984 11.6669 10.0001 11.6669C10.4603 11.6669 10.8334 12.04 10.8334 12.5002V15.588C10.9135 15.5618 10.9958 15.5336 11.0795 15.5033C11.7983 15.2426 12.3976 14.8998 12.6404 14.5374C12.7597 14.3582 12.8481 14.0816 12.8833 13.7025C12.9179 13.3303 12.896 12.9173 12.8444 12.5172C12.7933 12.1204 12.716 11.7582 12.6509 11.4943C12.6185 11.363 12.5896 11.2579 12.5693 11.187C12.5592 11.1516 12.5512 11.1249 12.546 11.1079C12.5434 11.0994 12.5415 11.0933 12.5404 11.0899C12.5399 11.0881 12.5396 11.087 12.5394 11.0865L12.5394 11.0866L12.5394 11.0867L12.5395 11.0869C12.5395 11.0868 12.5395 11.0867 12.5394 11.0866C12.5394 11.0865 12.5394 11.0864 12.5393 11.0863C12.3999 10.6482 12.6417 10.1798 13.0798 10.0398Z" fill="black"/>
</svg>
