<svg width="20" height="20" viewBox="0 0 20 20" fill="none" xmlns="http://www.w3.org/2000/svg">
<path fill-rule="evenodd" clip-rule="evenodd" d="M5.00008 3.3335C5.46032 3.3335 5.83341 3.70659 5.83341 4.16683V15.8335C5.83341 16.2937 5.46032 16.6668 5.00008 16.6668C4.53984 16.6668 4.16675 16.2937 4.16675 15.8335V4.16683C4.16675 3.70659 4.53984 3.3335 5.00008 3.3335Z" fill="black"/>
<path fill-rule="evenodd" clip-rule="evenodd" d="M8.33333 4.8335C8.79357 4.8335 9.16667 5.20659 9.16667 5.66683V15.8335C9.16667 16.2937 8.79357 16.6668 8.33333 16.6668C7.8731 16.6668 7.5 16.2937 7.5 15.8335V5.66683C7.5 5.20659 7.8731 4.8335 8.33333 4.8335Z" fill="black"/>
<path fill-rule="evenodd" clip-rule="evenodd" d="M11.6666 8.5C12.1268 8.5 12.4999 8.8731 12.4999 9.33333V15.8333C12.4999 16.2936 12.1268 16.6667 11.6666 16.6667C11.2063 16.6667 10.8333 16.2936 10.8333 15.8333V9.33333C10.8333 8.8731 11.2063 8.5 11.6666 8.5Z" fill="black"/>
<path fill-rule="evenodd" clip-rule="evenodd" d="M15.0001 3.3335C15.4603 3.3335 15.8334 3.70659 15.8334 4.16683V7.50016C15.8334 7.9604 15.4603 8.3335 15.0001 8.3335C14.5398 8.3335 14.1667 7.9604 14.1667 7.50016V4.16683C14.1667 3.70659 14.5398 3.3335 15.0001 3.3335Z" fill="black"/>
<path fill-rule="evenodd" clip-rule="evenodd" d="M15.0001 10C15.4603 10 15.8334 10.3731 15.8334 10.8333V15.8333C15.8334 16.2936 15.4603 16.6667 15.0001 16.6667C14.5398 16.6667 14.1667 16.2936 14.1667 15.8333V10.8333C14.1667 10.3731 14.5398 10 15.0001 10Z" fill="black"/>
<path fill-rule="evenodd" clip-rule="evenodd" d="M18.3333 6.6665C18.7936 6.6665 19.1667 7.0396 19.1667 7.49984V15.8332C19.1667 16.2934 18.7936 16.6665 18.3333 16.6665C17.8731 16.6665 17.5 16.2934 17.5 15.8332V7.49984C17.5 7.0396 17.8731 6.6665 18.3333 6.6665Z" fill="black"/>
<path fill-rule="evenodd" clip-rule="evenodd" d="M4.99992 5.00016C4.33688 5.00016 3.70099 5.26355 3.23215 5.7324C2.76331 6.20124 2.49992 6.83712 2.49992 7.50016V15.8335C2.49992 16.2937 2.12682 16.6668 1.66659 16.6668C1.20635 16.6668 0.833252 16.2937 0.833252 15.8335V7.50016C0.833252 6.39509 1.27224 5.33529 2.05364 4.55388C2.83504 3.77248 3.89485 3.3335 4.99992 3.3335C7.06345 3.3335 8.9462 4.70345 10.6669 7.00056C12.2794 9.15329 13.7299 10 14.9996 10.0002C15.417 9.99969 15.8276 9.89474 16.1939 9.6949C16.5605 9.49497 16.8711 9.20644 17.0974 8.85562C17.3238 8.50481 17.4587 8.10289 17.4898 7.68654C17.521 7.2702 17.4473 6.85269 17.2756 6.47212C17.1039 6.09154 16.8397 5.76003 16.507 5.50783C16.1742 5.25563 15.7836 5.09077 15.3708 5.0283C14.958 4.96584 14.5361 5.00775 14.1437 5.15022C13.7513 5.29269 13.4007 5.53117 13.1241 5.84391C12.8192 6.18866 12.2926 6.22095 11.9478 5.91605C11.6031 5.61114 11.5708 5.08449 11.8757 4.73975C12.3367 4.21852 12.9209 3.82104 13.575 3.58359C14.2291 3.34614 14.9322 3.27629 15.6202 3.3804C16.3082 3.48451 16.9592 3.75927 17.5137 4.1796C18.0683 4.59994 18.5087 5.15246 18.7949 5.78675C19.081 6.42104 19.2037 7.11689 19.1519 7.8108C19.1 8.5047 18.8751 9.17457 18.4979 9.75926C18.1206 10.3439 17.6029 10.8248 16.992 11.1581C16.3811 11.4913 15.6965 11.6662 15.0007 11.6668L14.9999 11.6668C12.9364 11.6668 11.0536 10.2969 9.33295 7.99976C7.7203 5.84687 6.26972 5.00016 4.99992 5.00016Z" fill="black"/>
</svg>
