<svg width="20" height="20" viewBox="0 0 20 20" fill="none" xmlns="http://www.w3.org/2000/svg">
<path fill-rule="evenodd" clip-rule="evenodd" d="M6.30851 3.73486C7.10685 2.13829 8.36389 0.833496 10 0.833496C11.1574 0.833496 12.1325 1.49857 12.8657 2.41991C13.6018 3.34487 14.1673 4.60962 14.5297 6.04636C14.6423 6.49262 14.3717 6.94563 13.9255 7.05819C13.4792 7.17075 13.0262 6.90023 12.9136 6.45397C12.5902 5.17154 12.1082 4.14462 11.5616 3.45771C11.0121 2.76718 10.4693 2.50016 10 2.50016C9.33528 2.50016 8.50898 3.06079 7.7992 4.48026C7.11436 5.84985 6.66667 7.80025 6.66667 10.0002C6.66667 12.2001 7.11436 14.1505 7.7992 15.5201C8.50898 16.9395 9.33528 17.5002 10 17.5002C10.1707 17.5002 10.3439 17.4661 10.5201 17.3946C10.9466 17.2216 11.4326 17.4271 11.6056 17.8536C11.7785 18.2801 11.573 18.7661 11.1465 18.9391C10.7845 19.0859 10.3993 19.1668 10 19.1668C8.36389 19.1668 7.10685 17.862 6.30851 16.2655C5.48523 14.619 5 12.4028 5 10.0002C5 7.59757 5.48523 5.38131 6.30851 3.73486Z" fill="black"/>
<path fill-rule="evenodd" clip-rule="evenodd" d="M11.9126 11.0571C12.1144 10.6434 12.6133 10.4716 13.0269 10.6734L16.2053 12.2234C16.6189 12.4251 16.7907 12.924 16.589 13.3377L15.039 16.516C14.8373 16.9297 14.3384 17.1015 13.9247 16.8997C13.511 16.698 13.3392 16.1991 13.541 15.7854L14.7257 13.3561L12.2964 12.1714C11.8827 11.9697 11.7109 11.4708 11.9126 11.0571Z" fill="black"/>
<path fill-rule="evenodd" clip-rule="evenodd" d="M4.48001 7.7992C3.06055 8.50898 2.49992 9.33528 2.49992 10C2.49992 10.6647 3.06055 11.491 4.48001 12.2008C5.84961 12.8856 7.80001 13.3333 9.99992 13.3333C12.1712 13.3333 14.099 12.8976 15.4662 12.2268C15.8794 12.0241 16.3787 12.1948 16.5814 12.608C16.7841 13.0212 16.6135 13.5205 16.2003 13.7232C14.5609 14.5274 12.372 15 9.99992 15C7.59733 15 5.38106 14.5148 3.73462 13.6915C2.13804 12.8931 0.833252 11.6361 0.833252 10C0.833252 8.36389 2.13804 7.10685 3.73462 6.30851C5.38106 5.48523 7.59733 5 9.99992 5C12.1078 5 14.0669 5.37328 15.6237 6.01673C17.1486 6.64695 18.429 7.59844 18.9386 8.85304C19.1119 9.27944 18.9066 9.76552 18.4802 9.93873C18.0538 10.1119 17.5677 9.90669 17.3945 9.4803C17.1317 8.83322 16.3446 8.11805 14.9871 7.55702C13.6617 7.00922 11.9237 6.66667 9.99992 6.66667C7.80001 6.66667 5.84961 7.11436 4.48001 7.7992Z" fill="black"/>
</svg>
