<svg width="20" height="20" viewBox="0 0 20 20" fill="none" xmlns="http://www.w3.org/2000/svg">
<path fill-rule="evenodd" clip-rule="evenodd" d="M9.16675 4.16683C9.16675 3.70659 9.53984 3.3335 10.0001 3.3335H15.0001C15.6631 3.3335 16.299 3.59689 16.7678 4.06573C17.2367 4.53457 17.5001 5.17045 17.5001 5.8335V7.50016C17.5001 7.9604 17.127 8.3335 16.6667 8.3335C16.2065 8.3335 15.8334 7.9604 15.8334 7.50016V5.8335C15.8334 5.61248 15.7456 5.40052 15.5893 5.24424C15.4331 5.08796 15.2211 5.00016 15.0001 5.00016H10.0001C9.53984 5.00016 9.16675 4.62707 9.16675 4.16683Z" fill="black"/>
<path fill-rule="evenodd" clip-rule="evenodd" d="M13.0893 1.07757C13.4148 1.40301 13.4148 1.93065 13.0893 2.25609L11.1786 4.16683L13.0893 6.07757C13.4148 6.40301 13.4148 6.93065 13.0893 7.25608C12.7639 7.58152 12.2363 7.58152 11.9108 7.25608L9.41083 4.75608C9.08539 4.43065 9.08539 3.90301 9.41083 3.57757L11.9108 1.07757C12.2363 0.752137 12.7639 0.752137 13.0893 1.07757Z" fill="black"/>
<path fill-rule="evenodd" clip-rule="evenodd" d="M5 5.00016C4.77899 5.00016 4.56702 5.08796 4.41074 5.24424C4.25446 5.40052 4.16667 5.61248 4.16667 5.8335V15.0002C4.16667 15.2212 4.25446 15.4331 4.41074 15.5894C4.56702 15.7457 4.77899 15.8335 5 15.8335H15C15.221 15.8335 15.433 15.7457 15.5893 15.5894C15.7455 15.4331 15.8333 15.2212 15.8333 15.0002V10.8335C15.8333 10.3733 16.2064 10.0002 16.6667 10.0002C17.1269 10.0002 17.5 10.3733 17.5 10.8335V15.0002C17.5 15.6632 17.2366 16.2991 16.7678 16.7679C16.2989 17.2368 15.663 17.5002 15 17.5002H5C4.33696 17.5002 3.70107 17.2368 3.23223 16.7679C2.76339 16.2991 2.5 15.6632 2.5 15.0002V5.8335C2.5 5.17046 2.76339 4.53457 3.23223 4.06573C3.70107 3.59689 4.33696 3.3335 5 3.3335H6.66667C7.1269 3.3335 7.5 3.70659 7.5 4.16683C7.5 4.62707 7.1269 5.00016 6.66667 5.00016H5Z" fill="black"/>
</svg>
