<svg width="20" height="20" viewBox="0 0 20 20" fill="none" xmlns="http://www.w3.org/2000/svg">
<path fill-rule="evenodd" clip-rule="evenodd" d="M3.23223 4.06573C3.70107 3.59689 4.33696 3.3335 5 3.3335H10C10.4602 3.3335 10.8333 3.70659 10.8333 4.16683C10.8333 4.62707 10.4602 5.00016 10 5.00016H5C4.77899 5.00016 4.56702 5.08796 4.41074 5.24424C4.25446 5.40052 4.16667 5.61248 4.16667 5.8335V8.3335C4.16667 8.79373 3.79357 9.16683 3.33333 9.16683C2.8731 9.16683 2.5 8.79373 2.5 8.3335V5.8335C2.5 5.17046 2.76339 4.53457 3.23223 4.06573Z" fill="black"/>
<path fill-rule="evenodd" clip-rule="evenodd" d="M6.91083 1.07757C7.23626 0.752137 7.7639 0.752137 8.08934 1.07757L10.5893 3.57757C10.9148 3.90301 10.9148 4.43065 10.5893 4.75608L8.08934 7.25608C7.7639 7.58152 7.23626 7.58152 6.91083 7.25608C6.58539 6.93065 6.58539 6.40301 6.91083 6.07757L8.82157 4.16683L6.91083 2.25609C6.58539 1.93065 6.58539 1.40301 6.91083 1.07757Z" fill="black"/>
<path fill-rule="evenodd" clip-rule="evenodd" d="M12.5 4.16683C12.5 3.70659 12.8731 3.3335 13.3333 3.3335H15C15.663 3.3335 16.2989 3.59689 16.7678 4.06573C17.2366 4.53457 17.5 5.17045 17.5 5.8335V15.0002C17.5 15.6632 17.2366 16.2991 16.7678 16.7679C16.2989 17.2368 15.663 17.5002 15 17.5002H5C4.33696 17.5002 3.70107 17.2368 3.23223 16.7679C2.76339 16.2991 2.5 15.6632 2.5 15.0002V11.6668C2.5 11.2066 2.8731 10.8335 3.33333 10.8335C3.79357 10.8335 4.16667 11.2066 4.16667 11.6668V15.0002C4.16667 15.2212 4.25446 15.4331 4.41074 15.5894C4.56702 15.7457 4.77899 15.8335 5 15.8335H15C15.221 15.8335 15.433 15.7457 15.5893 15.5894C15.7455 15.4331 15.8333 15.2212 15.8333 15.0002V5.8335C15.8333 5.61248 15.7455 5.40052 15.5893 5.24424C15.433 5.08796 15.221 5.00016 15 5.00016H13.3333C12.8731 5.00016 12.5 4.62707 12.5 4.16683Z" fill="black"/>
</svg>
