<svg width="20" height="20" viewBox="0 0 20 20" fill="none" xmlns="http://www.w3.org/2000/svg">
<path fill-rule="evenodd" clip-rule="evenodd" d="M10.0001 3.33317C8.68154 3.33317 7.39261 3.72416 6.29628 4.45671C5.19996 5.18925 4.34547 6.23044 3.84089 7.44861C3.3363 8.66679 3.20428 10.0072 3.46152 11.3004C3.71875 12.5936 4.35369 13.7815 5.28604 14.7139C6.21839 15.6462 7.40628 16.2812 8.69948 16.5384C9.99269 16.7956 11.3331 16.6636 12.5513 16.159C13.7695 15.6545 14.8107 14.8 15.5432 13.7036C16.2758 12.6073 16.6668 11.3184 16.6668 9.99984C16.6668 9.5396 17.0398 9.1665 17.5001 9.1665C17.9603 9.1665 18.3334 9.5396 18.3334 9.99984C18.3334 11.648 17.8447 13.2592 16.929 14.6296C16.0133 16 14.7118 17.0681 13.1891 17.6988C11.6664 18.3296 9.99084 18.4946 8.37433 18.173C6.75782 17.8515 5.27297 17.0578 4.10753 15.8924C2.94209 14.727 2.14842 13.2421 1.82687 11.6256C1.50533 10.0091 1.67036 8.33353 2.30109 6.81081C2.93182 5.28809 3.99992 3.9866 5.37033 3.07092C6.74074 2.15525 8.35191 1.6665 10.0001 1.6665C12.3216 1.6665 14.5352 2.58751 16.1943 4.18241C16.1982 4.18621 16.2021 4.19004 16.206 4.19391L18.0893 6.07725C18.4148 6.40269 18.4148 6.93032 18.0893 7.25576C17.7639 7.5812 17.2363 7.5812 16.9108 7.25576L15.0335 5.3784C13.6765 4.07672 11.8759 3.33317 10.0001 3.33317Z" fill="black"/>
<path fill-rule="evenodd" clip-rule="evenodd" d="M17.5 1.6665C17.9602 1.6665 18.3333 2.0396 18.3333 2.49984V6.6665C18.3333 7.12674 17.9602 7.49984 17.5 7.49984H13.3333C12.8731 7.49984 12.5 7.12674 12.5 6.6665C12.5 6.20627 12.8731 5.83317 13.3333 5.83317H16.6667V2.49984C16.6667 2.0396 17.0398 1.6665 17.5 1.6665Z" fill="black"/>
</svg>
