<svg width="20" height="20" viewBox="0 0 20 20" fill="none" xmlns="http://www.w3.org/2000/svg">
<path fill-rule="evenodd" clip-rule="evenodd" d="M9.99695 1.66651C9.99799 1.66651 9.99904 1.6665 10.0001 1.6665C11.6483 1.6665 13.2594 2.15525 14.6298 3.07092C16.0002 3.9866 17.0683 5.28809 17.6991 6.81081C18.3298 8.33353 18.4948 10.0091 18.1733 11.6256C17.8517 13.2421 17.0581 14.727 15.8926 15.8924C14.7272 17.0578 13.2423 17.8515 11.6258 18.173C10.0093 18.4946 8.33377 18.3296 6.81105 17.6988C5.28834 17.0681 3.98685 16 3.07117 14.6296C2.15549 13.2592 1.66675 11.648 1.66675 9.99984C1.66675 9.5396 2.03984 9.1665 2.50008 9.1665C2.96032 9.1665 3.33341 9.5396 3.33341 9.99984C3.33341 11.3184 3.72441 12.6073 4.45695 13.7036C5.18949 14.8 6.23069 15.6545 7.44886 16.159C8.66703 16.6636 10.0075 16.7956 11.3007 16.5384C12.5939 16.2812 13.7818 15.6462 14.7141 14.7139C15.6465 13.7815 16.2814 12.5936 16.5387 11.3004C16.7959 10.0072 16.6639 8.66679 16.1593 7.44861C15.6547 6.23044 14.8002 5.18925 13.7039 4.45671C12.608 3.72445 11.3196 3.33348 10.0016 3.33317C8.12284 3.34064 6.31949 4.07305 4.96755 5.37755L3.08934 7.25576C2.7639 7.5812 2.23626 7.5812 1.91083 7.25576C1.58539 6.93032 1.58539 6.40269 1.91083 6.07725L3.79416 4.19391C3.79748 4.19059 3.80083 4.1873 3.80421 4.18403C5.4663 2.57725 7.68519 1.67521 9.99695 1.66651Z" fill="black"/>
<path fill-rule="evenodd" clip-rule="evenodd" d="M2.50008 1.6665C2.96032 1.6665 3.33341 2.0396 3.33341 2.49984V5.83317H6.66675C7.12699 5.83317 7.50008 6.20627 7.50008 6.6665C7.50008 7.12674 7.12699 7.49984 6.66675 7.49984H2.50008C2.03984 7.49984 1.66675 7.12674 1.66675 6.6665V2.49984C1.66675 2.0396 2.03984 1.6665 2.50008 1.6665Z" fill="black"/>
</svg>
