<svg width="20" height="20" viewBox="0 0 20 20" fill="none" xmlns="http://www.w3.org/2000/svg">
<g clip-path="url(#clip0_2001_9493)">
<path fill-rule="evenodd" clip-rule="evenodd" d="M3.33325 12.5002C2.87301 12.5002 2.49992 12.8733 2.49992 13.3335V16.6668C2.49992 17.1271 2.87301 17.5002 3.33325 17.5002H16.6666C17.1268 17.5002 17.4999 17.1271 17.4999 16.6668V13.3335C17.4999 12.8733 17.1268 12.5002 16.6666 12.5002H3.33325ZM0.833252 13.3335C0.833252 11.9528 1.95254 10.8335 3.33325 10.8335H16.6666C18.0473 10.8335 19.1666 11.9528 19.1666 13.3335V16.6668C19.1666 18.0475 18.0473 19.1668 16.6666 19.1668H3.33325C1.95254 19.1668 0.833252 18.0475 0.833252 16.6668V13.3335Z" fill="black"/>
<path fill-rule="evenodd" clip-rule="evenodd" d="M4.16675 14.9998C4.16675 14.5396 4.53984 14.1665 5.00008 14.1665H5.00841C5.46865 14.1665 5.84175 14.5396 5.84175 14.9998C5.84175 15.4601 5.46865 15.8332 5.00841 15.8332H5.00008C4.53984 15.8332 4.16675 15.4601 4.16675 14.9998Z" fill="black"/>
<path fill-rule="evenodd" clip-rule="evenodd" d="M7.5 14.9998C7.5 14.5396 7.8731 14.1665 8.33333 14.1665H8.34167C8.8019 14.1665 9.175 14.5396 9.175 14.9998C9.175 15.4601 8.8019 15.8332 8.34167 15.8332H8.33333C7.8731 15.8332 7.5 15.4601 7.5 14.9998Z" fill="black"/>
<path fill-rule="evenodd" clip-rule="evenodd" d="M12.5001 7.5C12.9603 7.5 13.3334 7.8731 13.3334 8.33333V11.6667C13.3334 12.1269 12.9603 12.5 12.5001 12.5C12.0398 12.5 11.6667 12.1269 11.6667 11.6667V8.33333C11.6667 7.8731 12.0398 7.5 12.5001 7.5Z" fill="black"/>
<path fill-rule="evenodd" clip-rule="evenodd" d="M10.9127 4.48167C11.4186 4.27199 11.9608 4.16406 12.5083 4.16406C13.0559 4.16406 13.5981 4.27199 14.1039 4.48167C14.6097 4.69136 15.0693 4.99869 15.4562 5.38609C15.7815 5.71171 15.7812 6.23935 15.4556 6.5646C15.13 6.88986 14.6023 6.88956 14.2771 6.56395C14.0449 6.33151 13.7692 6.14711 13.4657 6.0213C13.1622 5.89549 12.8369 5.83073 12.5083 5.83073C12.1798 5.83073 11.8545 5.89549 11.551 6.0213C11.2475 6.14711 10.9718 6.3315 10.7396 6.56395C10.4143 6.88956 9.88667 6.88986 9.56106 6.5646C9.23544 6.23935 9.23514 5.71171 9.5604 5.38609C9.94737 4.99869 10.4069 4.69136 10.9127 4.48167Z" fill="black"/>
<path fill-rule="evenodd" clip-rule="evenodd" d="M7.20252 3.02699C8.6089 1.62153 10.5158 0.832031 12.5041 0.832031C14.4924 0.832031 16.3993 1.62153 17.8056 3.02699C18.1312 3.35232 18.1314 3.87996 17.806 4.2055C17.4807 4.53105 16.9531 4.53122 16.6275 4.20589C15.5337 3.11276 14.0505 2.4987 12.5041 2.4987C10.9577 2.4987 9.4745 3.11276 8.38065 4.20589C8.0551 4.53122 7.52747 4.53105 7.20214 4.2055C6.87681 3.87996 6.87698 3.35232 7.20252 3.02699Z" fill="black"/>
</g>
<defs>
<clipPath id="clip0_2001_9493">
<rect width="20" height="20" fill="white"/>
</clipPath>
</defs>
</svg>
