<svg width="20" height="20" viewBox="0 0 20 20" fill="none" xmlns="http://www.w3.org/2000/svg">
<g clip-path="url(#clip0_2001_9481)">
<path fill-rule="evenodd" clip-rule="evenodd" d="M5.00008 14.1667C4.07961 14.1667 3.33341 14.9129 3.33341 15.8333C3.33341 16.7538 4.07961 17.5 5.00008 17.5C5.92056 17.5 6.66675 16.7538 6.66675 15.8333C6.66675 14.9129 5.92056 14.1667 5.00008 14.1667ZM1.66675 15.8333C1.66675 13.9924 3.15913 12.5 5.00008 12.5C6.84103 12.5 8.33341 13.9924 8.33341 15.8333C8.33341 17.6743 6.84103 19.1667 5.00008 19.1667C3.15913 19.1667 1.66675 17.6743 1.66675 15.8333Z" fill="black"/>
<path fill-rule="evenodd" clip-rule="evenodd" d="M16.4752 15.4644C16.5868 15.9109 16.3154 16.3634 15.8689 16.475C15.5238 16.5613 15.0244 16.6665 14.5834 16.6665H7.50008C7.03984 16.6665 6.66675 16.2934 6.66675 15.8332C6.66675 15.373 7.03984 14.9999 7.50008 14.9999H14.5834C14.8091 14.9999 15.1431 14.9385 15.4646 14.8581C15.9111 14.7465 16.3636 15.0179 16.4752 15.4644Z" fill="black"/>
<path fill-rule="evenodd" clip-rule="evenodd" d="M5.10438 4.01738C5.279 4.44321 5.07535 4.92996 4.64953 5.10458C4.2038 5.28735 3.83311 5.62112 3.60209 6.0506C3.371 6.48023 3.29455 6.97814 3.38648 7.45905C3.47841 7.9399 3.73262 8.37226 4.10402 8.68316C4.47474 8.99349 4.93947 9.16389 5.41903 9.16689H10C10.4603 9.16689 10.8334 9.53998 10.8334 10.0002C10.8334 10.4605 10.4603 10.8336 10 10.8336L5.41486 10.8336C5.41401 10.8335 5.41316 10.8335 5.41231 10.8335C4.54238 10.829 3.70194 10.5201 3.0342 9.96115C2.36661 9.40231 1.91318 8.62835 1.74946 7.77201C1.58577 6.91575 1.72153 6.02845 2.1343 5.26107C2.54715 4.49356 3.21211 3.89266 4.01718 3.56253C4.44301 3.38791 4.92976 3.59156 5.10438 4.01738Z" fill="black"/>
<path fill-rule="evenodd" clip-rule="evenodd" d="M1.07733 1.07757C1.40277 0.752137 1.9304 0.752137 2.25584 1.07757L18.9225 17.7442C19.2479 18.0697 19.2479 18.5973 18.9225 18.9228C18.5971 19.2482 18.0694 19.2482 17.744 18.9228L1.07733 2.25609C0.751893 1.93065 0.751893 1.40301 1.07733 1.07757Z" fill="black"/>
<path fill-rule="evenodd" clip-rule="evenodd" d="M13.9181 9.95353C13.9436 9.494 14.3369 9.14223 14.7964 9.16782C15.7175 9.2191 16.5873 9.60808 17.2396 10.2604C17.8919 10.9127 18.2809 11.7825 18.3321 12.7035C18.3577 13.1631 18.006 13.5563 17.5464 13.5819C17.0869 13.6075 16.6936 13.2557 16.6681 12.7962C16.6396 12.2845 16.4235 11.8013 16.0611 11.4389C15.6987 11.0765 15.2155 10.8604 14.7038 10.8319C14.2442 10.8063 13.8925 10.4131 13.9181 9.95353Z" fill="black"/>
<path fill-rule="evenodd" clip-rule="evenodd" d="M8.08325 4.16683C8.08325 3.70659 8.45635 3.3335 8.91659 3.3335H12.4999C12.9602 3.3335 13.3333 3.70659 13.3333 4.16683C13.3333 4.62707 12.9602 5.00016 12.4999 5.00016H8.91659C8.45635 5.00016 8.08325 4.62707 8.08325 4.16683Z" fill="black"/>
<path fill-rule="evenodd" clip-rule="evenodd" d="M15.0001 2.50016C14.0796 2.50016 13.3334 3.24635 13.3334 4.16683C13.3334 5.0873 14.0796 5.8335 15.0001 5.8335C15.9206 5.8335 16.6667 5.0873 16.6667 4.16683C16.6667 3.24635 15.9206 2.50016 15.0001 2.50016ZM11.6667 4.16683C11.6667 2.32588 13.1591 0.833496 15.0001 0.833496C16.841 0.833496 18.3334 2.32588 18.3334 4.16683C18.3334 6.00778 16.841 7.50016 15.0001 7.50016C13.1591 7.50016 11.6667 6.00778 11.6667 4.16683Z" fill="black"/>
</g>
<defs>
<clipPath id="clip0_2001_9481">
<rect width="20" height="20" fill="white"/>
</clipPath>
</defs>
</svg>
