<svg width="20" height="20" viewBox="0 0 20 20" fill="none" xmlns="http://www.w3.org/2000/svg">
<path fill-rule="evenodd" clip-rule="evenodd" d="M5.00008 14.1667C4.07961 14.1667 3.33341 14.9129 3.33341 15.8333C3.33341 16.7538 4.07961 17.5 5.00008 17.5C5.92056 17.5 6.66675 16.7538 6.66675 15.8333C6.66675 14.9129 5.92056 14.1667 5.00008 14.1667ZM1.66675 15.8333C1.66675 13.9924 3.15913 12.5 5.00008 12.5C6.84103 12.5 8.33341 13.9924 8.33341 15.8333C8.33341 17.6743 6.84103 19.1667 5.00008 19.1667C3.15913 19.1667 1.66675 17.6743 1.66675 15.8333Z" fill="black"/>
<path fill-rule="evenodd" clip-rule="evenodd" d="M5.41675 5.00016C4.86421 5.00016 4.33431 5.21966 3.94361 5.61036C3.55291 6.00106 3.33341 6.53096 3.33341 7.0835C3.33341 7.63603 3.55291 8.16593 3.94361 8.55663C4.33431 8.94734 4.86421 9.16683 5.41675 9.16683H14.5834C15.578 9.16683 16.5318 9.56192 17.2351 10.2652C17.9383 10.9684 18.3334 11.9223 18.3334 12.9168C18.3334 13.9114 17.9383 14.8652 17.2351 15.5685C16.5318 16.2717 15.578 16.6668 14.5834 16.6668H7.50008C7.03984 16.6668 6.66675 16.2937 6.66675 15.8335C6.66675 15.3733 7.03984 15.0002 7.50008 15.0002H14.5834C15.1359 15.0002 15.6659 14.7807 16.0566 14.39C16.4473 13.9993 16.6667 13.4694 16.6667 12.9168C16.6667 12.3643 16.4473 11.8344 16.0566 11.4437C15.6659 11.053 15.1359 10.8335 14.5834 10.8335H5.41675C4.42219 10.8335 3.46836 10.4384 2.7651 9.73515C2.06184 9.03189 1.66675 8.07806 1.66675 7.0835C1.66675 6.08893 2.06184 5.13511 2.7651 4.43185C3.46836 3.72858 4.42219 3.3335 5.41675 3.3335H12.5001C12.9603 3.3335 13.3334 3.70659 13.3334 4.16683C13.3334 4.62707 12.9603 5.00016 12.5001 5.00016H5.41675Z" fill="black"/>
<path fill-rule="evenodd" clip-rule="evenodd" d="M15.0001 2.50016C14.0796 2.50016 13.3334 3.24635 13.3334 4.16683C13.3334 5.0873 14.0796 5.8335 15.0001 5.8335C15.9206 5.8335 16.6667 5.0873 16.6667 4.16683C16.6667 3.24635 15.9206 2.50016 15.0001 2.50016ZM11.6667 4.16683C11.6667 2.32588 13.1591 0.833496 15.0001 0.833496C16.841 0.833496 18.3334 2.32588 18.3334 4.16683C18.3334 6.00778 16.841 7.50016 15.0001 7.50016C13.1591 7.50016 11.6667 6.00778 11.6667 4.16683Z" fill="black"/>
</svg>
