<svg width="20" height="20" viewBox="0 0 20 20" fill="none" xmlns="http://www.w3.org/2000/svg">
<path fill-rule="evenodd" clip-rule="evenodd" d="M4.16675 3.33317C3.70651 3.33317 3.33341 3.70627 3.33341 4.1665V15.8332C3.33341 16.2934 3.70651 16.6665 4.16675 16.6665H15.8334C16.2937 16.6665 16.6667 16.2934 16.6667 15.8332V4.1665C16.6667 3.70627 16.2937 3.33317 15.8334 3.33317H4.16675ZM1.66675 4.1665C1.66675 2.78579 2.78604 1.6665 4.16675 1.6665H15.8334C17.2141 1.6665 18.3334 2.78579 18.3334 4.1665V15.8332C18.3334 17.2139 17.2141 18.3332 15.8334 18.3332H4.16675C2.78604 18.3332 1.66675 17.2139 1.66675 15.8332V4.1665Z" fill="black"/>
<path fill-rule="evenodd" clip-rule="evenodd" d="M1.66675 6.24984C1.66675 5.7896 2.03984 5.4165 2.50008 5.4165H17.5001C17.9603 5.4165 18.3334 5.7896 18.3334 6.24984C18.3334 6.71007 17.9603 7.08317 17.5001 7.08317H2.50008C2.03984 7.08317 1.66675 6.71007 1.66675 6.24984Z" fill="black"/>
<path fill-rule="evenodd" clip-rule="evenodd" d="M1.66675 9.99984C1.66675 9.5396 2.03984 9.1665 2.50008 9.1665H17.5001C17.9603 9.1665 18.3334 9.5396 18.3334 9.99984C18.3334 10.4601 17.9603 10.8332 17.5001 10.8332H2.50008C2.03984 10.8332 1.66675 10.4601 1.66675 9.99984Z" fill="black"/>
<path fill-rule="evenodd" clip-rule="evenodd" d="M1.66675 13.7498C1.66675 13.2896 2.03984 12.9165 2.50008 12.9165H17.5001C17.9603 12.9165 18.3334 13.2896 18.3334 13.7498C18.3334 14.2101 17.9603 14.5832 17.5001 14.5832H2.50008C2.03984 14.5832 1.66675 14.2101 1.66675 13.7498Z" fill="black"/>
</svg>
