<svg width="20" height="20" viewBox="0 0 20 20" fill="none" xmlns="http://www.w3.org/2000/svg">
<path fill-rule="evenodd" clip-rule="evenodd" d="M2.5 9.16683C2.5 8.70659 2.8731 8.3335 3.33333 8.3335C5.54347 8.3335 7.66309 9.21147 9.22589 10.7743C10.7887 12.3371 11.6667 14.4567 11.6667 16.6668C11.6667 17.1271 11.2936 17.5002 10.8333 17.5002C10.3731 17.5002 10 17.1271 10 16.6668C10 14.8987 9.29762 13.203 8.04738 11.9528C6.79714 10.7025 5.10144 10.0002 3.33333 10.0002C2.8731 10.0002 2.5 9.62707 2.5 9.16683Z" fill="black"/>
<path fill-rule="evenodd" clip-rule="evenodd" d="M2.5 3.33333C2.5 2.8731 2.8731 2.5 3.33333 2.5C7.09057 2.5 10.6939 3.99256 13.3507 6.64932C16.0074 9.30609 17.5 12.9094 17.5 16.6667C17.5 17.1269 17.1269 17.5 16.6667 17.5C16.2064 17.5 15.8333 17.1269 15.8333 16.6667C15.8333 13.3515 14.5164 10.172 12.1722 7.82783C9.82796 5.48363 6.64854 4.16667 3.33333 4.16667C2.8731 4.16667 2.5 3.79357 2.5 3.33333Z" fill="black"/>
<path fill-rule="evenodd" clip-rule="evenodd" d="M2.5 15.8332C2.5 14.9127 3.24619 14.1665 4.16667 14.1665C5.08714 14.1665 5.83333 14.9127 5.83333 15.8332C5.83333 16.7536 5.08714 17.4998 4.16667 17.4998C3.24619 17.4998 2.5 16.7536 2.5 15.8332Z" fill="black"/>
</svg>
