<svg width="20" height="20" viewBox="0 0 20 20" fill="none" xmlns="http://www.w3.org/2000/svg">
<g clip-path="url(#clip0_2001_9516)">
<path fill-rule="evenodd" clip-rule="evenodd" d="M5.00503 2.84023C5.00482 2.84043 5.00462 2.84064 5.00441 2.84084L2.8406 5.00466C2.84039 5.00486 2.84019 5.00507 2.83998 5.00527C2.62124 5.2254 2.49845 5.52314 2.49845 5.83349C2.49845 6.14385 2.62124 6.44159 2.83998 6.66172C2.84019 6.66192 2.84039 6.66213 2.8406 6.66233L13.3402 17.1619C13.4486 17.2707 13.5774 17.357 13.7192 17.4159C13.861 17.4748 14.013 17.5051 14.1666 17.5051C14.3201 17.5051 14.4722 17.4748 14.614 17.4159C14.7558 17.357 14.8846 17.2707 14.993 17.1619L17.1617 14.9932C17.2704 14.8848 17.3567 14.756 17.4156 14.6142C17.4745 14.4724 17.5048 14.3204 17.5048 14.1668C17.5048 14.0133 17.4745 13.8612 17.4156 13.7194C17.3567 13.5776 17.2705 13.4488 17.1617 13.3404L6.66209 2.84084C6.66188 2.84064 6.66168 2.84043 6.66147 2.84023C6.44134 2.62148 6.1436 2.4987 5.83325 2.4987C5.5229 2.4987 5.22516 2.62148 5.00503 2.84023ZM3.82876 1.65948C4.36127 1.12954 5.08197 0.832031 5.83325 0.832031C6.58453 0.832031 7.30523 1.12954 7.83775 1.65948L7.83917 1.66091L18.3381 12.1599C18.3384 12.1601 18.3386 12.1603 18.3388 12.1605C18.6026 12.4236 18.812 12.7362 18.9549 13.0803C19.0979 13.4247 19.1715 13.7939 19.1715 14.1668C19.1715 14.5397 19.0979 14.909 18.9549 15.2534C18.812 15.5975 18.6026 15.91 18.3388 16.1731C18.3386 16.1733 18.3384 16.1736 18.3381 16.1738L16.1735 18.3384C16.1733 18.3386 16.1731 18.3388 16.1729 18.339C15.9098 18.6029 15.5972 18.8122 15.2531 18.9551C14.9087 19.0981 14.5395 19.1717 14.1666 19.1717C13.7937 19.1717 13.4244 19.0981 13.08 18.9551C12.7359 18.8122 12.4234 18.6029 12.1603 18.339C12.1601 18.3388 12.1599 18.3386 12.1596 18.3384L1.66066 7.83942L1.65924 7.83799C1.12929 7.30547 0.831787 6.58477 0.831787 5.83349C0.831787 5.08222 1.12929 4.36151 1.65924 3.829L1.66066 3.82757L3.82733 1.66091L3.82876 1.65948Z" fill="black"/>
<path fill-rule="evenodd" clip-rule="evenodd" d="M14.3393 8.16058C14.6647 8.48602 14.6647 9.01366 14.3393 9.33909L12.6726 11.0058C12.3472 11.3312 11.8195 11.3312 11.4941 11.0058C11.1686 10.6803 11.1686 10.1527 11.4941 9.82725L13.1607 8.16058C13.4862 7.83514 14.0138 7.83514 14.3393 8.16058Z" fill="black"/>
<path fill-rule="evenodd" clip-rule="evenodd" d="M11.8393 5.66058C12.1647 5.98602 12.1647 6.51366 11.8393 6.83909L10.1726 8.50576C9.84715 8.8312 9.31951 8.8312 8.99408 8.50576C8.66864 8.18032 8.66864 7.65268 8.99408 7.32725L10.6607 5.66058C10.9862 5.33514 11.5138 5.33514 11.8393 5.66058Z" fill="black"/>
<path fill-rule="evenodd" clip-rule="evenodd" d="M9.33926 3.16058C9.66469 3.48602 9.66469 4.01366 9.33926 4.33909L7.67259 6.00576C7.34715 6.3312 6.81951 6.3312 6.49408 6.00576C6.16864 5.68032 6.16864 5.15268 6.49408 4.82725L8.16074 3.16058C8.48618 2.83514 9.01382 2.83514 9.33926 3.16058Z" fill="black"/>
<path fill-rule="evenodd" clip-rule="evenodd" d="M16.8393 10.6606C17.1647 10.986 17.1647 11.5137 16.8393 11.8391L15.1726 13.5058C14.8472 13.8312 14.3195 13.8312 13.9941 13.5058C13.6686 13.1803 13.6686 12.6527 13.9941 12.3272L15.6607 10.6606C15.9862 10.3351 16.5138 10.3351 16.8393 10.6606Z" fill="black"/>
</g>
<defs>
<clipPath id="clip0_2001_9516">
<rect width="20" height="20" fill="white"/>
</clipPath>
</defs>
</svg>
