<svg width="20" height="20" viewBox="0 0 20 20" fill="none" xmlns="http://www.w3.org/2000/svg">
<path fill-rule="evenodd" clip-rule="evenodd" d="M6.66675 2.49984C6.66675 2.0396 7.03984 1.6665 7.50008 1.6665H11.6667C12.7718 1.6665 13.8316 2.10549 14.613 2.88689C15.3944 3.66829 15.8334 4.7281 15.8334 5.83317C15.8334 6.93824 15.3944 7.99805 14.613 8.77945C13.8316 9.56085 12.7718 9.99984 11.6667 9.99984H8.33342V17.4998C8.33342 17.9601 7.96032 18.3332 7.50008 18.3332C7.03984 18.3332 6.66675 17.9601 6.66675 17.4998V9.99984H5.00008C4.53984 9.99984 4.16675 9.62674 4.16675 9.1665C4.16675 8.70627 4.53984 8.33317 5.00008 8.33317H6.66675V2.49984ZM8.33342 8.33317H11.6667C12.3298 8.33317 12.9657 8.06978 13.4345 7.60094C13.9034 7.1321 14.1667 6.49621 14.1667 5.83317C14.1667 5.17013 13.9034 4.53424 13.4345 4.0654C12.9657 3.59656 12.3298 3.33317 11.6667 3.33317H8.33342V8.33317Z" fill="black"/>
<path fill-rule="evenodd" clip-rule="evenodd" d="M4.16675 12.4998C4.16675 12.0396 4.53984 11.6665 5.00008 11.6665H11.6667C12.127 11.6665 12.5001 12.0396 12.5001 12.4998C12.5001 12.9601 12.127 13.3332 11.6667 13.3332H5.00008C4.53984 13.3332 4.16675 12.9601 4.16675 12.4998Z" fill="black"/>
</svg>
