<svg width="20" height="20" viewBox="0 0 20 20" fill="none" xmlns="http://www.w3.org/2000/svg">
<g clip-path="url(#clip0_2001_9525)">
<path fill-rule="evenodd" clip-rule="evenodd" d="M1.07733 14.4106C1.23361 14.2543 1.44557 14.1665 1.66659 14.1665H18.3333C18.7935 14.1665 19.1666 14.5396 19.1666 14.9998C19.1666 16.1049 18.7276 17.1647 17.9462 17.9461C17.1648 18.7275 16.105 19.1665 14.9999 19.1665H4.99992C3.89485 19.1665 2.83504 18.7275 2.05364 17.9461C1.27224 17.1647 0.833252 16.1049 0.833252 14.9998C0.833252 14.7788 0.921049 14.5669 1.07733 14.4106ZM2.64289 15.8332C2.76603 16.1814 2.96598 16.5014 3.23215 16.7676C3.70099 17.2364 4.33688 17.4998 4.99992 17.4998H14.9999C15.663 17.4998 16.2988 17.2364 16.7677 16.7676C17.0339 16.5014 17.2338 16.1814 17.3569 15.8332H2.64289Z" fill="black"/>
<path fill-rule="evenodd" clip-rule="evenodd" d="M8.24447 0.838263C8.50775 0.810001 8.76878 0.908542 8.94771 1.10373L18.1144 11.1037C18.3377 11.3473 18.3959 11.6999 18.2629 12.0024C18.1298 12.3049 17.8306 12.5002 17.5001 12.5002H2.50008C2.20169 12.5002 1.92608 12.3406 1.77746 12.0819C1.62885 11.8231 1.62992 11.5047 1.78027 11.2469L7.6136 1.24694C7.74702 1.01822 7.98119 0.866525 8.24447 0.838263ZM8.48336 3.06365L3.95095 10.8335H15.6057L8.48336 3.06365Z" fill="black"/>
<path fill-rule="evenodd" clip-rule="evenodd" d="M8.33333 0.833496C8.79357 0.833496 9.16667 1.20659 9.16667 1.66683V15.0002C9.16667 15.4604 8.79357 15.8335 8.33333 15.8335C7.8731 15.8335 7.5 15.4604 7.5 15.0002V1.66683C7.5 1.20659 7.8731 0.833496 8.33333 0.833496Z" fill="black"/>
</g>
<defs>
<clipPath id="clip0_2001_9525">
<rect width="20" height="20" fill="white"/>
</clipPath>
</defs>
</svg>
