<svg width="20" height="20" viewBox="0 0 20 20" fill="none" xmlns="http://www.w3.org/2000/svg">
<path fill-rule="evenodd" clip-rule="evenodd" d="M5 17.4998C5 17.0396 5.3731 16.6665 5.83333 16.6665H14.1667C14.6269 16.6665 15 17.0396 15 17.4998C15 17.9601 14.6269 18.3332 14.1667 18.3332H5.83333C5.3731 18.3332 5 17.9601 5 17.4998Z" fill="black"/>
<path fill-rule="evenodd" clip-rule="evenodd" d="M1.91083 9.41058C2.06711 9.2543 2.27907 9.1665 2.50008 9.1665H17.5001C17.7211 9.1665 17.9331 9.2543 18.0893 9.41058C18.2456 9.56686 18.3334 9.77882 18.3334 9.99984C18.3334 12.21 17.4554 14.3296 15.8926 15.8924C14.3298 17.4552 12.2102 18.3332 10.0001 18.3332C7.78994 18.3332 5.67033 17.4552 4.10752 15.8924C2.54472 14.3296 1.66675 12.21 1.66675 9.99984C1.66675 9.77882 1.75455 9.56686 1.91083 9.41058ZM3.38568 10.8332C3.56969 12.294 4.23385 13.6617 5.28604 14.7139C6.53628 15.9641 8.23197 16.6665 10.0001 16.6665C11.7682 16.6665 13.4639 15.9641 14.7141 14.7139C15.7663 13.6617 16.4305 12.294 16.6145 10.8332H3.38568Z" fill="black"/>
<path fill-rule="evenodd" clip-rule="evenodd" d="M16.0138 3.59941C15.7289 3.5824 15.4477 3.67039 15.2233 3.84674C14.9261 4.08035 14.5088 4.08462 14.2069 3.85714C14.0783 3.76023 13.931 3.69101 13.7743 3.65382C13.6176 3.61663 13.4549 3.61228 13.2964 3.64105C13.138 3.66981 12.9872 3.73107 12.8536 3.82097C12.72 3.91087 12.6064 4.02745 12.5201 4.16339C12.3075 4.49804 11.8886 4.63659 11.5184 4.49468C11.3212 4.41909 11.1072 4.39845 10.8991 4.43495C10.6911 4.47146 10.4969 4.56374 10.3372 4.70197C10.1776 4.84019 10.0584 5.01917 9.99246 5.2198C9.92652 5.42044 9.91628 5.63521 9.96283 5.84121C10.0136 6.06585 9.96913 6.30148 9.83999 6.49217C9.71085 6.68286 9.50855 6.81161 9.28112 6.84785C8.99036 6.89417 8.72788 7.04871 8.5463 7.28048C8.36473 7.51224 8.2775 7.80408 8.3021 8.09747C8.3267 8.39086 8.46132 8.6641 8.67896 8.86239C8.8966 9.06067 9.18115 9.16934 9.47556 9.1666C9.93578 9.16231 10.3123 9.53191 10.3166 9.99213C10.3209 10.4523 9.95131 10.8289 9.49109 10.8332C8.77611 10.8399 8.08504 10.5759 7.55649 10.0944C7.02795 9.61284 6.70101 8.94926 6.64126 8.23675C6.58151 7.52423 6.79337 6.81547 7.23433 6.25261C7.51258 5.89746 7.86906 5.61697 8.27166 5.43006C8.28513 5.18266 8.33105 4.93697 8.40911 4.69943C8.56925 4.21217 8.85865 3.77752 9.24644 3.44184C9.63424 3.10615 10.1059 2.88203 10.6111 2.79337C10.9084 2.74119 11.2108 2.73709 11.5069 2.77998C11.6342 2.6534 11.7735 2.53888 11.9232 2.43815C12.2477 2.21983 12.6139 2.07105 12.9987 2.00119C13.3835 1.93132 13.7786 1.94188 14.1592 2.0322C14.3452 2.07636 14.5259 2.13913 14.6984 2.21926C15.1346 2.00571 15.6216 1.90636 16.1131 1.9357C16.8049 1.97701 17.4576 2.27046 17.9477 2.76053C18.4378 3.2506 18.7312 3.9033 18.7725 4.59513C18.8019 5.08668 18.7025 5.57376 18.4889 6.01002C18.5906 6.2292 18.6642 6.46123 18.7073 6.70065C18.7859 7.13684 18.761 7.58538 18.6347 8.01021C18.5084 8.43504 18.2842 8.82432 17.9801 9.14676C17.8344 9.30124 17.6723 9.43832 17.4972 9.55581C17.5 9.75804 17.4819 9.96064 17.4427 10.1603C17.3541 10.612 16.9162 10.9062 16.4646 10.8176C16.0129 10.729 15.7186 10.2911 15.8073 9.83946C15.8431 9.65679 15.838 9.46844 15.7922 9.288C15.687 8.87287 15.9135 8.44557 16.3162 8.29971C16.4878 8.23756 16.6424 8.13602 16.7676 8.00325C16.8928 7.87048 16.9851 7.71019 17.0371 7.53526C17.0891 7.36033 17.0994 7.17564 17.067 6.99603C17.0347 6.81642 16.9607 6.6469 16.8509 6.5011C16.6236 6.19917 16.6279 5.78207 16.8615 5.48494C17.0378 5.26057 17.1258 4.97934 17.1088 4.69447C17.0918 4.40959 16.971 4.14084 16.7692 3.93904C16.5674 3.73725 16.2986 3.61642 16.0138 3.59941Z" fill="black"/>
<path fill-rule="evenodd" clip-rule="evenodd" d="M14.7559 6.07757C15.0814 6.40301 15.0814 6.93065 14.7559 7.25609L11.4226 10.5894C11.0972 10.9149 10.5695 10.9149 10.2441 10.5894C9.91864 10.264 9.91864 9.73634 10.2441 9.41091L13.5774 6.07757C13.9028 5.75214 14.4305 5.75214 14.7559 6.07757Z" fill="black"/>
<path fill-rule="evenodd" clip-rule="evenodd" d="M5.11879 4.45369C5.89498 4.14435 6.74635 4.076 7.56194 4.25757C8.37753 4.43913 9.11951 4.86219 9.69116 5.47159C10.006 5.80726 9.98917 6.33463 9.65351 6.6495C9.31784 6.96437 8.79047 6.94752 8.4756 6.61185C8.13306 6.2467 7.68847 5.9932 7.19977 5.88441C6.71107 5.77562 6.20093 5.81657 5.73584 6.00193C5.27076 6.18729 4.8723 6.50846 4.5924 6.92358C4.31251 7.3387 4.16416 7.82851 4.1667 8.32916C4.16671 8.33057 4.16671 8.33198 4.16671 8.33339C4.16671 8.78659 4.29032 9.21074 4.5054 9.58397C4.7352 9.98273 4.59822 10.4923 4.19946 10.7221C3.80069 10.9519 3.29115 10.8149 3.06135 10.4161C2.71009 9.80659 2.50043 9.09816 2.50004 8.3355C2.49624 7.50069 2.74379 6.68404 3.21051 5.99183C3.67763 5.29904 4.34261 4.76304 5.11879 4.45369Z" fill="black"/>
</svg>
