<svg width="20" height="20" viewBox="0 0 20 20" fill="none" xmlns="http://www.w3.org/2000/svg">
<path fill-rule="evenodd" clip-rule="evenodd" d="M9.47595 4.35253C9.4759 4.35257 9.47585 4.35261 9.4758 4.35265L2.49928 10C2.14155 10.2896 1.61682 10.2344 1.32725 9.87663C1.03767 9.51891 1.09292 8.99417 1.45065 8.7046L8.42746 3.05698C8.87246 2.69692 9.42755 2.50049 9.99996 2.50049C10.5724 2.50049 11.1275 2.69692 11.5725 3.05698L18.5485 8.70463C18.9062 8.99422 18.9614 9.51896 18.6718 9.87667C18.3822 10.2344 17.8575 10.2896 17.4998 10L10.5241 4.35265C10.3758 4.23263 10.1908 4.16716 9.99996 4.16716C9.80922 4.16716 9.62425 4.23259 9.47595 4.35253Z" fill="black"/>
<path fill-rule="evenodd" clip-rule="evenodd" d="M16.6667 12.4998C16.6667 12.0396 17.0398 11.6665 17.5001 11.6665C17.9421 11.6665 18.366 11.8421 18.6786 12.1547C18.9912 12.4672 19.1667 12.8911 19.1667 13.3332V14.9998C19.1667 15.4419 18.9912 15.8658 18.6786 16.1783C18.366 16.4909 17.9421 16.6665 17.5001 16.6665H13.1251C12.6648 16.6665 12.2917 16.2934 12.2917 15.8332C12.2917 15.3729 12.6648 14.9998 13.1251 14.9998H17.5001L17.5001 13.3332C17.0398 13.3332 16.6667 12.9601 16.6667 12.4998Z" fill="black"/>
<path fill-rule="evenodd" clip-rule="evenodd" d="M1.32141 12.1547C1.63397 11.8421 2.05789 11.6665 2.49992 11.6665C2.96016 11.6665 3.33325 12.0396 3.33325 12.4998C3.33325 12.9601 2.96016 13.3332 2.49992 13.3332V14.9998L9.99992 14.9998C10.4602 14.9998 10.8333 15.3729 10.8333 15.8332C10.8333 16.2934 10.4602 16.6665 9.99992 16.6665H2.49992C2.05789 16.6665 1.63397 16.4909 1.32141 16.1783C1.00885 15.8658 0.833252 15.4419 0.833252 14.9998V13.3332C0.833252 12.8911 1.00885 12.4672 1.32141 12.1547Z" fill="black"/>
<path fill-rule="evenodd" clip-rule="evenodd" d="M16.1251 11.8332C16.4933 12.1094 16.568 12.6317 16.2918 12.9999L13.6668 16.4999C13.4698 16.7625 13.223 16.9838 12.9405 17.1511C12.658 17.3183 12.3454 17.4283 12.0204 17.4748C11.6954 17.5212 11.3644 17.5031 11.0464 17.4217C10.7283 17.3402 10.4295 17.1969 10.1668 16.9999L5.05831 13.1664C4.69019 12.8902 4.61571 12.3678 4.89194 11.9997C5.16818 11.6316 5.69054 11.5571 6.05865 11.8334L11.1668 15.6666C11.1669 15.6666 11.1669 15.6666 11.1669 15.6666C11.167 15.6667 11.167 15.6667 11.167 15.6667C11.2545 15.7323 11.3541 15.78 11.46 15.8071C11.566 15.8343 11.6763 15.8403 11.7847 15.8248C11.893 15.8094 11.9972 15.7727 12.0914 15.7169C12.1856 15.6612 12.2678 15.5874 12.3335 15.4999L14.9585 11.9999C15.2346 11.6317 15.757 11.5571 16.1251 11.8332Z" fill="black"/>
<path fill-rule="evenodd" clip-rule="evenodd" d="M2.49992 10.0002V11.6668H17.4999V10.0002H2.49992ZM0.833252 10.0002C0.833252 9.07969 1.57944 8.3335 2.49992 8.3335H17.4999C18.4204 8.3335 19.1666 9.07969 19.1666 10.0002V11.6668C19.1666 12.5873 18.4204 13.3335 17.4999 13.3335H2.49992C1.57944 13.3335 0.833252 12.5873 0.833252 11.6668V10.0002Z" fill="black"/>
</svg>
