<svg width="20" height="20" viewBox="0 0 20 20" fill="none" xmlns="http://www.w3.org/2000/svg">
<path fill-rule="evenodd" clip-rule="evenodd" d="M3.22676 7.50684C3.48292 7.47383 3.73992 7.56145 3.92255 7.74408L12.2559 16.0774C12.4385 16.2601 12.5261 16.517 12.4931 16.7732C12.4601 17.0294 12.3102 17.2557 12.0872 17.3861C10.7656 18.1587 9.22526 18.4716 7.70696 18.2759C6.18867 18.0802 4.77801 17.3869 3.69553 16.3044C2.61305 15.222 1.91977 13.8113 1.72407 12.293C1.52836 10.7747 1.84127 9.23436 2.61387 7.91277C2.74422 7.68979 2.9706 7.53986 3.22676 7.50684ZM3.59446 9.77302C3.3528 10.5119 3.27649 11.2997 3.37706 12.0799C3.52566 13.2328 4.05209 14.304 4.87404 15.1259C5.696 15.9479 6.76715 16.4743 7.92003 16.6229C8.70022 16.7235 9.48809 16.6472 10.2269 16.4055L3.59446 9.77302Z" fill="black"/>
<path fill-rule="evenodd" clip-rule="evenodd" d="M10.5893 9.41058C10.9148 9.73602 10.9148 10.2637 10.5893 10.5891L8.08934 13.0891C7.7639 13.4145 7.23626 13.4145 6.91083 13.0891C6.58539 12.7637 6.58539 12.236 6.91083 11.9106L9.41083 9.41058C9.73626 9.08514 10.2639 9.08514 10.5893 9.41058Z" fill="black"/>
<path fill-rule="evenodd" clip-rule="evenodd" d="M8.33325 5.83333C8.33325 5.3731 8.70635 5 9.16659 5C10.7137 5 12.1974 5.61458 13.2914 6.70854C14.3853 7.80251 14.9999 9.28624 14.9999 10.8333C14.9999 11.2936 14.6268 11.6667 14.1666 11.6667C13.7063 11.6667 13.3333 11.2936 13.3333 10.8333C13.3333 9.72826 12.8943 8.66846 12.1129 7.88705C11.3315 7.10565 10.2717 6.66667 9.16659 6.66667C8.70635 6.66667 8.33325 6.29357 8.33325 5.83333Z" fill="black"/>
<path fill-rule="evenodd" clip-rule="evenodd" d="M8.33325 2.49984C8.33325 2.0396 8.70635 1.6665 9.16659 1.6665C11.5977 1.6665 13.9293 2.63228 15.6484 4.35136C17.3675 6.07044 18.3333 8.40202 18.3333 10.8332C18.3333 11.2934 17.9602 11.6665 17.4999 11.6665C17.0397 11.6665 16.6666 11.2934 16.6666 10.8332C16.6666 8.84405 15.8764 6.93639 14.4699 5.52987C13.0634 4.12335 11.1557 3.33317 9.16659 3.33317C8.70635 3.33317 8.33325 2.96007 8.33325 2.49984Z" fill="black"/>
</svg>
