<svg width="20" height="20" viewBox="0 0 20 20" fill="none" xmlns="http://www.w3.org/2000/svg">
<path fill-rule="evenodd" clip-rule="evenodd" d="M6.91066 1.91058C7.2361 1.58514 7.76374 1.58514 8.08917 1.91058L11.4225 5.24391C11.7479 5.56935 11.7479 6.09699 11.4225 6.42243C11.0971 6.74786 10.5694 6.74786 10.244 6.42243L7.49992 3.67835L5.3451 5.83317L8.08917 8.57725C8.41461 8.90268 8.41461 9.43032 8.08917 9.75576C7.76374 10.0812 7.2361 10.0812 6.91066 9.75576L3.57733 6.42243C3.25189 6.09699 3.25189 5.56935 3.57733 5.24391L6.91066 1.91058Z" fill="black"/>
<path fill-rule="evenodd" clip-rule="evenodd" d="M13.5774 8.57757C13.9028 8.25214 14.4305 8.25214 14.7559 8.57757L18.0893 11.9109C18.4147 12.2363 18.4147 12.764 18.0893 13.0894L14.7559 16.4228C14.4305 16.7482 13.9028 16.7482 13.5774 16.4228L10.2441 13.0894C9.91864 12.764 9.91864 12.2363 10.2441 11.9109C10.5695 11.5855 11.0972 11.5855 11.4226 11.9109L14.1667 14.655L16.3215 12.5002L13.5774 9.75609C13.252 9.43065 13.252 8.90301 13.5774 8.57757Z" fill="black"/>
<path fill-rule="evenodd" clip-rule="evenodd" d="M11.0773 4.41058C11.4028 4.08514 11.9304 4.08514 12.2558 4.41058L15.5892 7.74392C15.9146 8.06935 15.9146 8.59699 15.5892 8.92243L10.5892 13.9224C10.2637 14.2479 9.7361 14.2479 9.41066 13.9224L6.07733 10.5891C5.75189 10.2637 5.75189 9.73602 6.07733 9.41058L11.0773 4.41058ZM7.8451 9.99984L9.99992 12.1547L13.8214 8.33317L11.6666 6.17835L7.8451 9.99984Z" fill="black"/>
<path fill-rule="evenodd" clip-rule="evenodd" d="M16.4226 3.57757C16.748 3.90301 16.748 4.43065 16.4226 4.75609L13.9226 7.25608C13.5972 7.58152 13.0695 7.58152 12.7441 7.25608C12.4186 6.93065 12.4186 6.40301 12.7441 6.07757L15.2441 3.57757C15.5695 3.25214 16.0972 3.25214 16.4226 3.57757Z" fill="black"/>
<path fill-rule="evenodd" clip-rule="evenodd" d="M1.66675 12.4998C1.66675 12.0396 2.03984 11.6665 2.50008 11.6665C4.04718 11.6665 5.53091 12.2811 6.62487 13.375C7.71883 14.469 8.33341 15.9527 8.33341 17.4998C8.33341 17.9601 7.96032 18.3332 7.50008 18.3332C7.03984 18.3332 6.66675 17.9601 6.66675 17.4998C6.66675 16.3948 6.22776 15.335 5.44636 14.5536C4.66496 13.7722 3.60515 13.3332 2.50008 13.3332C2.03984 13.3332 1.66675 12.9601 1.66675 12.4998Z" fill="black"/>
</svg>
