<svg width="20" height="20" viewBox="0 0 20 20" fill="none" xmlns="http://www.w3.org/2000/svg">
<g clip-path="url(#clip0_2001_9557)">
<path fill-rule="evenodd" clip-rule="evenodd" d="M5.48816 10.4882C5.80072 10.1756 6.22464 10 6.66667 10H10.8333C11.2936 10 11.6667 10.3731 11.6667 10.8333C11.6667 11.2936 11.2936 11.6667 10.8333 11.6667L6.66667 11.6667L6.66667 17.5C6.66667 17.9602 6.29357 18.3333 5.83333 18.3333C5.3731 18.3333 5 17.9602 5 17.5V11.6667C5 11.2246 5.1756 10.8007 5.48816 10.4882Z" fill="black"/>
<path fill-rule="evenodd" clip-rule="evenodd" d="M10.8333 6.66683C10.8333 6.20659 11.2063 5.8335 11.6666 5.8335H12.4999C12.9602 5.8335 13.3333 6.20659 13.3333 6.66683C13.3333 7.12707 12.9602 7.50016 12.4999 7.50016H11.6666C11.2063 7.50016 10.8333 7.12707 10.8333 6.66683Z" fill="black"/>
<path fill-rule="evenodd" clip-rule="evenodd" d="M14.1666 13.3335C14.6268 13.3335 14.9999 13.7066 14.9999 14.1668V17.5002C14.9999 17.9604 14.6268 18.3335 14.1666 18.3335C13.7063 18.3335 13.3333 17.9604 13.3333 17.5002V14.1668C13.3333 13.7066 13.7063 13.3335 14.1666 13.3335Z" fill="black"/>
<path fill-rule="evenodd" clip-rule="evenodd" d="M1.07733 1.07757C1.40277 0.752137 1.9304 0.752137 2.25584 1.07757L18.9225 17.7442C19.2479 18.0697 19.2479 18.5973 18.9225 18.9228C18.5971 19.2482 18.0694 19.2482 17.744 18.9228L1.07733 2.25609C0.751893 1.93065 0.751893 1.40301 1.07733 1.07757Z" fill="black"/>
<path fill-rule="evenodd" clip-rule="evenodd" d="M3.58276 2.40404C3.90722 2.73045 3.90565 3.25809 3.57924 3.58255C3.42309 3.73777 3.33473 3.94847 3.33341 4.1686V15.8332C3.33341 16.0542 3.42121 16.2662 3.57749 16.4225C3.73377 16.5787 3.94573 16.6665 4.16675 16.6665H15.8313C16.0515 16.6652 16.2622 16.5769 16.4174 16.4207C16.7419 16.0943 17.2695 16.0927 17.5959 16.4172C17.9223 16.7417 17.9239 17.2693 17.5994 17.5957C17.1327 18.0652 16.4989 18.3304 15.8369 18.3332C15.8358 18.3332 15.8346 18.3332 15.8334 18.3332H4.16675C3.50371 18.3332 2.86782 18.0698 2.39898 17.601C1.93014 17.1321 1.66675 16.4962 1.66675 15.8332V4.16654C1.66675 4.16537 1.66675 4.16419 1.66676 4.16302C1.66955 3.50105 1.93477 2.86721 2.40426 2.40052C2.73066 2.07606 3.2583 2.07764 3.58276 2.40404Z" fill="black"/>
<path fill-rule="evenodd" clip-rule="evenodd" d="M6.66675 2.49984C6.66675 2.0396 7.03984 1.6665 7.50008 1.6665H12.6667C12.6707 1.6665 12.6747 1.66653 12.6786 1.66659C13.3365 1.67596 13.9641 1.94428 14.4253 2.41325L17.5866 5.57456C18.0556 6.03583 18.324 6.66343 18.3333 7.3213C18.3334 7.32345 18.3334 7.32559 18.3334 7.32774C18.3334 7.32955 18.3334 7.33136 18.3334 7.33317V12.4998C18.3334 12.9601 17.9603 13.3332 17.5001 13.3332C17.0398 13.3332 16.6667 12.9601 16.6667 12.4998V7.34013C16.6624 7.12211 16.5727 6.91442 16.4168 6.76171C16.4159 6.76079 16.415 6.75988 16.414 6.75896C16.413 6.75789 16.4119 6.75683 16.4108 6.75576L13.2442 3.58909C13.2431 3.58802 13.242 3.58694 13.2409 3.58586C13.24 3.58494 13.2391 3.58401 13.2382 3.58309C13.0855 3.42725 12.8778 3.33756 12.6598 3.33317H7.50008C7.03984 3.33317 6.66675 2.96007 6.66675 2.49984Z" fill="black"/>
</g>
<defs>
<clipPath id="clip0_2001_9557">
<rect width="20" height="20" fill="white"/>
</clipPath>
</defs>
</svg>
