<svg width="20" height="20" viewBox="0 0 20 20" fill="none" xmlns="http://www.w3.org/2000/svg">
<path fill-rule="evenodd" clip-rule="evenodd" d="M4.16675 3.33317C3.94573 3.33317 3.73377 3.42097 3.57749 3.57725C3.42121 3.73353 3.33341 3.94549 3.33341 4.1665V15.8332C3.33341 16.0542 3.42121 16.2661 3.57749 16.4224C3.73377 16.5787 3.94573 16.6665 4.16675 16.6665H15.8334C16.0544 16.6665 16.2664 16.5787 16.4227 16.4224C16.5789 16.2661 16.6667 16.0542 16.6667 15.8332V7.34013C16.6624 7.12211 16.5727 6.91442 16.4168 6.76171C16.4148 6.75973 16.4128 6.75775 16.4108 6.75576L13.2442 3.58909C13.2422 3.5871 13.2402 3.5851 13.2382 3.58309C13.0855 3.42725 12.8778 3.33756 12.6598 3.33317H4.16675ZM2.39898 2.39874C2.86782 1.9299 3.50371 1.6665 4.16675 1.6665H12.6667C12.6707 1.6665 12.6747 1.66653 12.6786 1.66659C13.3365 1.67596 13.9641 1.9443 14.4254 2.41331L17.5866 5.57456C18.0556 6.03583 18.324 6.66343 18.3333 7.3213C18.3334 7.32413 18.3334 7.32696 18.3334 7.32979C18.3334 7.33092 18.3334 7.33204 18.3334 7.33317V15.8332C18.3334 16.4962 18.07 17.1321 17.6012 17.6009C17.1323 18.0698 16.4965 18.3332 15.8334 18.3332H4.16675C3.50371 18.3332 2.86782 18.0698 2.39898 17.6009C1.93014 17.1321 1.66675 16.4962 1.66675 15.8332V4.1665C1.66675 3.50346 1.93014 2.86758 2.39898 2.39874Z" fill="black"/>
<path fill-rule="evenodd" clip-rule="evenodd" d="M5.48816 10.4882C5.80072 10.1756 6.22464 10 6.66667 10H13.3333C13.7754 10 14.1993 10.1756 14.5118 10.4882C14.8244 10.8007 15 11.2246 15 11.6667V17.5C15 17.9602 14.6269 18.3333 14.1667 18.3333C13.7064 18.3333 13.3333 17.9602 13.3333 17.5V11.6667H6.66667L6.66667 17.5C6.66667 17.9602 6.29357 18.3333 5.83333 18.3333C5.3731 18.3333 5 17.9602 5 17.5V11.6667C5 11.2246 5.1756 10.8007 5.48816 10.4882Z" fill="black"/>
<path fill-rule="evenodd" clip-rule="evenodd" d="M5.83333 1.6665C6.29357 1.6665 6.66667 2.0396 6.66667 2.49984V5.83317H12.5C12.9602 5.83317 13.3333 6.20627 13.3333 6.6665C13.3333 7.12674 12.9602 7.49984 12.5 7.49984H6.66667C6.22464 7.49984 5.80072 7.32424 5.48816 7.01168C5.1756 6.69912 5 6.2752 5 5.83317V2.49984C5 2.0396 5.3731 1.6665 5.83333 1.6665Z" fill="black"/>
</svg>
