<svg width="20" height="20" viewBox="0 0 20 20" fill="none" xmlns="http://www.w3.org/2000/svg">
<g clip-path="url(#clip0_2001_9552)">
<path fill-rule="evenodd" clip-rule="evenodd" d="M8.33333 0.833496C8.79357 0.833496 9.16667 1.20659 9.16667 1.66683V4.16683H13.3333C13.7936 4.16683 14.1667 4.53993 14.1667 5.00016C14.1667 5.4604 13.7936 5.8335 13.3333 5.8335H9.16667C8.72464 5.8335 8.30072 5.6579 7.98816 5.34534C7.6756 5.03278 7.5 4.60886 7.5 4.16683V1.66683C7.5 1.20659 7.8731 0.833496 8.33333 0.833496Z" fill="black"/>
<path fill-rule="evenodd" clip-rule="evenodd" d="M7.98816 8.82165C8.30072 8.50909 8.72464 8.3335 9.16667 8.3335H14.1667C14.6087 8.3335 15.0326 8.50909 15.3452 8.82165C15.6577 9.13421 15.8333 9.55814 15.8333 10.0002V15.0002C15.8333 15.4604 15.4602 15.8335 15 15.8335C14.5398 15.8335 14.1667 15.4604 14.1667 15.0002L14.1667 10.0002H9.16667L9.16667 15.0002C9.16667 15.4604 8.79357 15.8335 8.33333 15.8335C7.8731 15.8335 7.5 15.4604 7.5 15.0002V10.0002C7.5 9.55813 7.6756 9.13421 7.98816 8.82165Z" fill="black"/>
<path fill-rule="evenodd" clip-rule="evenodd" d="M1.66659 4.1665C2.12682 4.1665 2.49992 4.5396 2.49992 4.99984V16.6665C2.49992 16.8875 2.58772 17.0995 2.744 17.2558C2.90028 17.412 3.11224 17.4998 3.33325 17.4998H14.9999C15.4602 17.4998 15.8333 17.8729 15.8333 18.3332C15.8333 18.7934 15.4602 19.1665 14.9999 19.1665H3.33325C2.67021 19.1665 2.03433 18.9031 1.56549 18.4343C1.09664 17.9654 0.833252 17.3295 0.833252 16.6665V4.99984C0.833252 4.5396 1.20635 4.1665 1.66659 4.1665Z" fill="black"/>
<path fill-rule="evenodd" clip-rule="evenodd" d="M6.66675 2.50016C6.44573 2.50016 6.23377 2.58796 6.07749 2.74424C5.92121 2.90052 5.83341 3.11248 5.83341 3.3335V13.3335C5.83341 13.5545 5.92121 13.7665 6.07749 13.9228C6.23377 14.079 6.44573 14.1668 6.66675 14.1668H16.6584C16.6598 14.1668 16.6612 14.1668 16.6626 14.1668C16.7724 14.1674 16.8812 14.1462 16.9828 14.1046C17.0844 14.063 17.1767 14.0017 17.2545 13.9242C17.3324 13.8468 17.3941 13.7548 17.4363 13.6534C17.4784 13.552 17.5001 13.4433 17.5001 13.3335V5.69034C17.5001 5.69028 17.5001 5.69022 17.5001 5.69016C17.5 5.46923 17.4122 5.25738 17.2559 5.10117L17.8472 4.50973L17.2558 5.10108L14.8992 2.74442L15.4903 2.15329L14.8991 2.74433C14.7429 2.58808 14.531 2.50026 14.3101 2.50016C14.31 2.50016 14.31 2.50016 14.3099 2.50016H6.66675ZM16.0777 1.56591C15.6089 1.09709 14.9732 0.833638 14.3103 0.833496H6.66675C6.00371 0.833496 5.36782 1.09689 4.89898 1.56573C4.43014 2.03457 4.16675 2.67045 4.16675 3.3335V13.3335C4.16675 13.9965 4.43014 14.6324 4.89898 15.1013C5.36782 15.5701 6.00371 15.8335 6.66675 15.8335H16.6565C16.9851 15.8348 17.3107 15.7714 17.6148 15.6468C17.9196 15.5219 18.1966 15.338 18.4301 15.1057C18.6636 14.8734 18.8488 14.5972 18.9753 14.2931C19.1017 13.989 19.1668 13.6628 19.1667 13.3335V5.68998C19.1666 5.027 18.9031 4.39122 18.4342 3.92248L16.0778 1.566C16.0777 1.56597 16.0777 1.56594 16.0777 1.56591Z" fill="black"/>
</g>
<defs>
<clipPath id="clip0_2001_9552">
<rect width="20" height="20" fill="white"/>
</clipPath>
</defs>
</svg>
