<svg width="20" height="20" viewBox="0 0 20 20" fill="none" xmlns="http://www.w3.org/2000/svg">
<path fill-rule="evenodd" clip-rule="evenodd" d="M2.39898 2.39874C2.86782 1.9299 3.50371 1.6665 4.16675 1.6665H10.0001C10.4603 1.6665 10.8334 2.0396 10.8334 2.49984C10.8334 2.96007 10.4603 3.33317 10.0001 3.33317H4.16675C3.94573 3.33317 3.73377 3.42097 3.57749 3.57725C3.42121 3.73353 3.33341 3.94549 3.33341 4.1665V15.8332C3.33341 16.0542 3.42121 16.2661 3.57749 16.4224C3.73377 16.5787 3.94573 16.6665 4.16675 16.6665H15.8334C16.0544 16.6665 16.2664 16.5787 16.4227 16.4224C16.5789 16.2661 16.6667 16.0542 16.6667 15.8332V9.99984C16.6667 9.5396 17.0398 9.1665 17.5001 9.1665C17.9603 9.1665 18.3334 9.5396 18.3334 9.99984V15.8332C18.3334 16.4962 18.07 17.1321 17.6012 17.6009C17.1323 18.0698 16.4965 18.3332 15.8334 18.3332H4.16675C3.50371 18.3332 2.86782 18.0698 2.39898 17.6009C1.93014 17.1321 1.66675 16.4962 1.66675 15.8332V4.1665C1.66675 3.50346 1.93014 2.86758 2.39898 2.39874Z" fill="black"/>
<path fill-rule="evenodd" clip-rule="evenodd" d="M7.50008 7.5C7.96032 7.5 8.33341 7.8731 8.33341 8.33333V11.6667H11.6667C12.127 11.6667 12.5001 12.0398 12.5001 12.5C12.5001 12.9602 12.127 13.3333 11.6667 13.3333H7.50008C7.03984 13.3333 6.66675 12.9602 6.66675 12.5V8.33333C6.66675 7.8731 7.03984 7.5 7.50008 7.5Z" fill="black"/>
<path fill-rule="evenodd" clip-rule="evenodd" d="M12.5 2.49984C12.5 2.0396 12.8731 1.6665 13.3333 1.6665H17.5C17.9602 1.6665 18.3333 2.0396 18.3333 2.49984V6.6665C18.3333 7.12674 17.9602 7.49984 17.5 7.49984C17.0398 7.49984 16.6667 7.12674 16.6667 6.6665V3.33317H13.3333C12.8731 3.33317 12.5 2.96007 12.5 2.49984Z" fill="black"/>
<path fill-rule="evenodd" clip-rule="evenodd" d="M18.0893 1.91058C18.4148 2.23602 18.4148 2.76366 18.0893 3.08909L8.08934 13.0891C7.7639 13.4145 7.23626 13.4145 6.91083 13.0891C6.58539 12.7637 6.58539 12.236 6.91083 11.9106L16.9108 1.91058C17.2363 1.58514 17.7639 1.58514 18.0893 1.91058Z" fill="black"/>
</svg>
