<svg width="20" height="20" viewBox="0 0 20 20" fill="none" xmlns="http://www.w3.org/2000/svg">
<path fill-rule="evenodd" clip-rule="evenodd" d="M15.8333 15.0002C15.373 15.0002 14.9999 15.3733 14.9999 15.8335C14.9999 16.2937 15.373 16.6668 15.8333 16.6668C16.2935 16.6668 16.6666 16.2937 16.6666 15.8335C16.6666 15.3733 16.2935 15.0002 15.8333 15.0002ZM13.3333 15.8335C13.3333 14.4528 14.4525 13.3335 15.8333 13.3335C17.214 13.3335 18.3333 14.4528 18.3333 15.8335C18.3333 17.2142 17.214 18.3335 15.8333 18.3335C14.4525 18.3335 13.3333 17.2142 13.3333 15.8335Z" fill="black"/>
<path fill-rule="evenodd" clip-rule="evenodd" d="M4.16675 3.33317C3.70651 3.33317 3.33341 3.70627 3.33341 4.1665C3.33341 4.62674 3.70651 4.99984 4.16675 4.99984C4.62699 4.99984 5.00008 4.62674 5.00008 4.1665C5.00008 3.70627 4.62699 3.33317 4.16675 3.33317ZM1.66675 4.1665C1.66675 2.78579 2.78604 1.6665 4.16675 1.6665C5.54746 1.6665 6.66675 2.78579 6.66675 4.1665C6.66675 5.54722 5.54746 6.6665 4.16675 6.6665C2.78604 6.6665 1.66675 5.54722 1.66675 4.1665Z" fill="black"/>
<path fill-rule="evenodd" clip-rule="evenodd" d="M4.16659 5C4.62682 5 4.99992 5.3731 4.99992 5.83333V15H14.1666C14.6268 15 14.9999 15.3731 14.9999 15.8333C14.9999 16.2936 14.6268 16.6667 14.1666 16.6667H4.16659C3.70635 16.6667 3.33325 16.2936 3.33325 15.8333V5.83333C3.33325 5.3731 3.70635 5 4.16659 5Z" fill="black"/>
<path fill-rule="evenodd" clip-rule="evenodd" d="M9.75584 10.2441C10.0813 10.5695 10.0813 11.0972 9.75584 11.4226L4.75584 16.4226C4.4304 16.748 3.90277 16.748 3.57733 16.4226C3.25189 16.0972 3.25189 15.5695 3.57733 15.2441L8.57733 10.2441C8.90277 9.91864 9.4304 9.91864 9.75584 10.2441Z" fill="black"/>
</svg>
