<svg width="20" height="20" viewBox="0 0 20 20" fill="none" xmlns="http://www.w3.org/2000/svg">
<path fill-rule="evenodd" clip-rule="evenodd" d="M15.8334 5.8335C16.1808 5.8335 16.4917 6.04897 16.6137 6.37423L19.1137 13.0409C19.2438 13.3879 19.1291 13.7792 18.8322 14.0011C17.964 14.6497 16.9143 15.0002 15.8334 15.0002C14.7525 15.0002 13.7028 14.6497 12.8346 14.0011C12.5377 13.7792 12.423 13.3879 12.5531 13.0409L15.0531 6.37423C15.1751 6.04897 15.486 5.8335 15.8334 5.8335ZM14.3536 12.9864C14.8128 13.214 15.3182 13.3335 15.8334 13.3335C16.3486 13.3335 16.854 13.214 17.3132 12.9864L15.8334 9.04016L14.3536 12.9864Z" fill="black"/>
<path fill-rule="evenodd" clip-rule="evenodd" d="M4.16664 5.8335C4.51402 5.8335 4.82495 6.04897 4.94692 6.37423L7.44692 13.0409C7.57706 13.3879 7.46234 13.7792 7.16542 14.0011C6.29726 14.6497 5.2475 15.0002 4.16664 15.0002C3.08578 15.0002 2.03603 14.6497 1.16787 14.0011C0.870945 13.7792 0.756227 13.3879 0.886371 13.0409L3.38637 6.37423C3.50834 6.04897 3.81927 5.8335 4.16664 5.8335ZM2.68681 12.9864C3.146 13.214 3.65148 13.3335 4.16664 13.3335C4.68181 13.3335 5.18728 13.214 5.64648 12.9864L4.16664 9.04016L2.68681 12.9864Z" fill="black"/>
<path fill-rule="evenodd" clip-rule="evenodd" d="M5 17.4998C5 17.0396 5.3731 16.6665 5.83333 16.6665H14.1667C14.6269 16.6665 15 17.0396 15 17.4998C15 17.9601 14.6269 18.3332 14.1667 18.3332H5.83333C5.3731 18.3332 5 17.9601 5 17.4998Z" fill="black"/>
<path fill-rule="evenodd" clip-rule="evenodd" d="M10.0001 1.6665C10.4603 1.6665 10.8334 2.0396 10.8334 2.49984V17.4998C10.8334 17.9601 10.4603 18.3332 10.0001 18.3332C9.53984 18.3332 9.16675 17.9601 9.16675 17.4998V2.49984C9.16675 2.0396 9.53984 1.6665 10.0001 1.6665Z" fill="black"/>
<path fill-rule="evenodd" clip-rule="evenodd" d="M9.6274 3.42147C9.86201 3.30417 10.1382 3.30417 10.3728 3.42147C11.9923 4.23122 14.3556 5.00016 15.8334 5.00016H17.5001C17.9603 5.00016 18.3334 5.37326 18.3334 5.8335C18.3334 6.29373 17.9603 6.66683 17.5001 6.66683H15.8334C14.1077 6.66683 11.7064 5.89032 10.0001 5.09232C8.29381 5.89032 5.89242 6.66683 4.16675 6.66683H2.50008C2.03984 6.66683 1.66675 6.29373 1.66675 5.8335C1.66675 5.37326 2.03984 5.00016 2.50008 5.00016H4.16675C5.6446 5.00016 8.0079 4.23122 9.6274 3.42147Z" fill="black"/>
</svg>
