<svg width="20" height="20" viewBox="0 0 20 20" fill="none" xmlns="http://www.w3.org/2000/svg">
<path fill-rule="evenodd" clip-rule="evenodd" d="M4.16675 3.33317C3.94573 3.33317 3.73377 3.42097 3.57749 3.57725C3.42121 3.73353 3.33341 3.94549 3.33341 4.1665V5.83317C3.33341 6.29341 2.96032 6.6665 2.50008 6.6665C2.03984 6.6665 1.66675 6.29341 1.66675 5.83317V4.1665C1.66675 3.50346 1.93014 2.86758 2.39898 2.39874C2.86782 1.9299 3.50371 1.6665 4.16675 1.6665H5.83342C6.29365 1.6665 6.66675 2.0396 6.66675 2.49984C6.66675 2.96007 6.29365 3.33317 5.83342 3.33317H4.16675Z" fill="black"/>
<path fill-rule="evenodd" clip-rule="evenodd" d="M13.3333 2.49984C13.3333 2.0396 13.7063 1.6665 14.1666 1.6665H15.8333C16.4963 1.6665 17.1322 1.9299 17.601 2.39874C18.0699 2.86758 18.3333 3.50346 18.3333 4.1665V5.83317C18.3333 6.29341 17.9602 6.6665 17.4999 6.6665C17.0397 6.6665 16.6666 6.29341 16.6666 5.83317V4.1665C16.6666 3.94549 16.5788 3.73353 16.4225 3.57725C16.2662 3.42097 16.0543 3.33317 15.8333 3.33317H14.1666C13.7063 3.33317 13.3333 2.96007 13.3333 2.49984Z" fill="black"/>
<path fill-rule="evenodd" clip-rule="evenodd" d="M17.4999 13.3335C17.9602 13.3335 18.3333 13.7066 18.3333 14.1668V15.8335C18.3333 16.4965 18.0699 17.1324 17.601 17.6013C17.1322 18.0701 16.4963 18.3335 15.8333 18.3335H14.1666C13.7063 18.3335 13.3333 17.9604 13.3333 17.5002C13.3333 17.0399 13.7063 16.6668 14.1666 16.6668H15.8333C16.0543 16.6668 16.2662 16.579 16.4225 16.4228C16.5788 16.2665 16.6666 16.0545 16.6666 15.8335V14.1668C16.6666 13.7066 17.0397 13.3335 17.4999 13.3335Z" fill="black"/>
<path fill-rule="evenodd" clip-rule="evenodd" d="M2.50008 13.3335C2.96032 13.3335 3.33341 13.7066 3.33341 14.1668V15.8335C3.33341 16.0545 3.42121 16.2665 3.57749 16.4228C3.73377 16.579 3.94573 16.6668 4.16675 16.6668H5.83342C6.29365 16.6668 6.66675 17.0399 6.66675 17.5002C6.66675 17.9604 6.29365 18.3335 5.83342 18.3335H4.16675C3.50371 18.3335 2.86782 18.0701 2.39898 17.6013C1.93014 17.1324 1.66675 16.4965 1.66675 15.8335V14.1668C1.66675 13.7066 2.03984 13.3335 2.50008 13.3335Z" fill="black"/>
<path fill-rule="evenodd" clip-rule="evenodd" d="M10.0001 8.33317C9.07961 8.33317 8.33341 9.07936 8.33341 9.99984C8.33341 10.9203 9.07961 11.6665 10.0001 11.6665C10.9206 11.6665 11.6667 10.9203 11.6667 9.99984C11.6667 9.07936 10.9206 8.33317 10.0001 8.33317ZM6.66675 9.99984C6.66675 8.15889 8.15913 6.6665 10.0001 6.6665C11.841 6.6665 13.3334 8.15889 13.3334 9.99984C13.3334 11.8408 11.841 13.3332 10.0001 13.3332C8.15913 13.3332 6.66675 11.8408 6.66675 9.99984Z" fill="black"/>
<path fill-rule="evenodd" clip-rule="evenodd" d="M11.1608 11.1606C11.4863 10.8351 12.0139 10.8351 12.3393 11.1606L13.9227 12.7439C14.2481 13.0694 14.2481 13.597 13.9227 13.9224C13.5972 14.2479 13.0696 14.2479 12.7442 13.9224L11.1608 12.3391C10.8354 12.0137 10.8354 11.486 11.1608 11.1606Z" fill="black"/>
</svg>
