<svg width="20" height="20" viewBox="0 0 20 20" fill="none" xmlns="http://www.w3.org/2000/svg">
<path fill-rule="evenodd" clip-rule="evenodd" d="M4.16675 3.33317C3.94573 3.33317 3.73377 3.42097 3.57749 3.57725C3.42121 3.73353 3.33341 3.94549 3.33341 4.1665V5.83317C3.33341 6.29341 2.96032 6.6665 2.50008 6.6665C2.03984 6.6665 1.66675 6.29341 1.66675 5.83317V4.1665C1.66675 3.50346 1.93014 2.86758 2.39898 2.39874C2.86782 1.9299 3.50371 1.6665 4.16675 1.6665H5.83342C6.29365 1.6665 6.66675 2.0396 6.66675 2.49984C6.66675 2.96007 6.29365 3.33317 5.83342 3.33317H4.16675Z" fill="black"/>
<path fill-rule="evenodd" clip-rule="evenodd" d="M13.3333 2.49984C13.3333 2.0396 13.7063 1.6665 14.1666 1.6665H15.8333C16.4963 1.6665 17.1322 1.9299 17.601 2.39874C18.0699 2.86758 18.3333 3.50346 18.3333 4.1665V5.83317C18.3333 6.29341 17.9602 6.6665 17.4999 6.6665C17.0397 6.6665 16.6666 6.29341 16.6666 5.83317V4.1665C16.6666 3.94549 16.5788 3.73353 16.4225 3.57725C16.2662 3.42097 16.0543 3.33317 15.8333 3.33317H14.1666C13.7063 3.33317 13.3333 2.96007 13.3333 2.49984Z" fill="black"/>
<path fill-rule="evenodd" clip-rule="evenodd" d="M17.4999 13.3335C17.9602 13.3335 18.3333 13.7066 18.3333 14.1668V15.8335C18.3333 16.4965 18.0699 17.1324 17.601 17.6013C17.1322 18.0701 16.4963 18.3335 15.8333 18.3335H14.1666C13.7063 18.3335 13.3333 17.9604 13.3333 17.5002C13.3333 17.0399 13.7063 16.6668 14.1666 16.6668H15.8333C16.0543 16.6668 16.2662 16.579 16.4225 16.4228C16.5788 16.2665 16.6666 16.0545 16.6666 15.8335V14.1668C16.6666 13.7066 17.0397 13.3335 17.4999 13.3335Z" fill="black"/>
<path fill-rule="evenodd" clip-rule="evenodd" d="M2.50008 13.3335C2.96032 13.3335 3.33341 13.7066 3.33341 14.1668V15.8335C3.33341 16.0545 3.42121 16.2665 3.57749 16.4228C3.73377 16.579 3.94573 16.6668 4.16675 16.6668H5.83342C6.29365 16.6668 6.66675 17.0399 6.66675 17.5002C6.66675 17.9604 6.29365 18.3335 5.83342 18.3335H4.16675C3.50371 18.3335 2.86782 18.0701 2.39898 17.6013C1.93014 17.1324 1.66675 16.4965 1.66675 15.8335V14.1668C1.66675 13.7066 2.03984 13.3335 2.50008 13.3335Z" fill="black"/>
<path fill-rule="evenodd" clip-rule="evenodd" d="M8.33325 10.0002C8.33325 9.07969 9.07944 8.3335 9.99992 8.3335C10.9204 8.3335 11.6666 9.07969 11.6666 10.0002C11.6666 10.9206 10.9204 11.6668 9.99992 11.6668C9.07944 11.6668 8.33325 10.9206 8.33325 10.0002Z" fill="black"/>
<path fill-rule="evenodd" clip-rule="evenodd" d="M6.04927 6.20748C7.21732 5.42259 8.59268 5.00342 9.99993 5.00342C11.4072 5.00342 12.7826 5.42259 13.9506 6.20748C15.1186 6.99236 16.0264 8.10738 16.5582 9.41031C16.5635 9.42347 16.5686 9.43677 16.5733 9.45019C16.6977 9.80629 16.6977 10.1941 16.5733 10.5502C16.5686 10.5636 16.5635 10.5769 16.5582 10.5901C16.0264 11.893 15.1186 13.008 13.9506 13.7929C12.7826 14.5778 11.4072 14.997 9.99993 14.997C8.59268 14.997 7.21731 14.5778 6.04927 13.7929C4.88123 13.008 3.97344 11.893 3.44171 10.5901C3.43634 10.5769 3.43131 10.5636 3.42662 10.5502C3.30213 10.1941 3.30213 9.80629 3.42662 9.45019C3.43131 9.43677 3.43634 9.42347 3.44171 9.41031C3.97344 8.10738 4.88123 6.99236 6.04927 6.20748ZM9.99993 6.67008C8.9238 6.67008 7.87205 6.99063 6.97884 7.59084C6.09757 8.18302 5.41004 9.02095 5.00128 10.0002C5.41004 10.9794 6.09757 11.8174 6.97884 12.4095C7.87205 13.0097 8.9238 13.3303 9.99993 13.3303C11.0761 13.3303 12.1278 13.0097 13.021 12.4095C13.9023 11.8174 14.5898 10.9794 14.9986 10.0002C14.5898 9.02095 13.9023 8.18302 13.021 7.59084C12.1278 6.99063 11.0761 6.67008 9.99993 6.67008Z" fill="black"/>
</svg>
