<svg width="20" height="20" viewBox="0 0 20 20" fill="none" xmlns="http://www.w3.org/2000/svg">
<path fill-rule="evenodd" clip-rule="evenodd" d="M4.16675 3.33317C3.94573 3.33317 3.73377 3.42097 3.57749 3.57725C3.42121 3.73353 3.33341 3.94549 3.33341 4.1665V5.83317C3.33341 6.29341 2.96032 6.6665 2.50008 6.6665C2.03984 6.6665 1.66675 6.29341 1.66675 5.83317V4.1665C1.66675 3.50346 1.93014 2.86758 2.39898 2.39874C2.86782 1.9299 3.50371 1.6665 4.16675 1.6665H5.83342C6.29365 1.6665 6.66675 2.0396 6.66675 2.49984C6.66675 2.96007 6.29365 3.33317 5.83342 3.33317H4.16675Z" fill="black"/>
<path fill-rule="evenodd" clip-rule="evenodd" d="M13.3333 2.49984C13.3333 2.0396 13.7063 1.6665 14.1666 1.6665H15.8333C16.4963 1.6665 17.1322 1.9299 17.601 2.39874C18.0699 2.86758 18.3333 3.50346 18.3333 4.1665V5.83317C18.3333 6.29341 17.9602 6.6665 17.4999 6.6665C17.0397 6.6665 16.6666 6.29341 16.6666 5.83317V4.1665C16.6666 3.94549 16.5788 3.73353 16.4225 3.57725C16.2662 3.42097 16.0543 3.33317 15.8333 3.33317H14.1666C13.7063 3.33317 13.3333 2.96007 13.3333 2.49984Z" fill="black"/>
<path fill-rule="evenodd" clip-rule="evenodd" d="M17.4999 13.3335C17.9602 13.3335 18.3333 13.7066 18.3333 14.1668V15.8335C18.3333 16.4965 18.0699 17.1324 17.601 17.6013C17.1322 18.0701 16.4963 18.3335 15.8333 18.3335H14.1666C13.7063 18.3335 13.3333 17.9604 13.3333 17.5002C13.3333 17.0399 13.7063 16.6668 14.1666 16.6668H15.8333C16.0543 16.6668 16.2662 16.579 16.4225 16.4228C16.5788 16.2665 16.6666 16.0545 16.6666 15.8335V14.1668C16.6666 13.7066 17.0397 13.3335 17.4999 13.3335Z" fill="black"/>
<path fill-rule="evenodd" clip-rule="evenodd" d="M2.50008 13.3335C2.96032 13.3335 3.33341 13.7066 3.33341 14.1668V15.8335C3.33341 16.0545 3.42121 16.2665 3.57749 16.4228C3.73377 16.579 3.94573 16.6668 4.16675 16.6668H5.83342C6.29365 16.6668 6.66675 17.0399 6.66675 17.5002C6.66675 17.9604 6.29365 18.3335 5.83342 18.3335H4.16675C3.50371 18.3335 2.86782 18.0701 2.39898 17.6013C1.93014 17.1324 1.66675 16.4965 1.66675 15.8335V14.1668C1.66675 13.7066 2.03984 13.3335 2.50008 13.3335Z" fill="black"/>
<path fill-rule="evenodd" clip-rule="evenodd" d="M7.33081 11.1636C7.05402 10.7982 6.53372 10.7249 6.16663 11.0002C5.79844 11.2764 5.72383 11.7987 5.99997 12.1669L6.66663 11.6669C5.99997 12.1669 6.00017 12.1671 6.00037 12.1674L6.00081 12.168L6.00177 12.1693C6.00211 12.1697 6.00246 12.1702 6.00284 12.1707C6.00322 12.1712 6.00363 12.1717 6.00405 12.1723C6.00574 12.1745 6.00774 12.1771 6.01006 12.1801C6.0147 12.1862 6.02062 12.1938 6.02781 12.2028C6.04218 12.221 6.06164 12.2451 6.0861 12.2742C6.13497 12.3324 6.20413 12.4113 6.29284 12.5039C6.46957 12.6883 6.72783 12.9312 7.06191 13.1742C7.72686 13.6578 8.72869 14.1669 9.99997 14.1669C11.2712 14.1669 12.2731 13.6578 12.938 13.1742C13.2721 12.9312 13.5304 12.6883 13.7071 12.5039C13.7958 12.4113 13.865 12.3324 13.9138 12.2742C13.9383 12.2451 13.9578 12.221 13.9721 12.2028C13.9793 12.1938 13.9852 12.1862 13.9899 12.1801C13.9922 12.1771 13.9942 12.1745 13.9959 12.1723L13.9967 12.1712C13.9972 12.1705 13.9977 12.1699 13.9982 12.1693L13.9991 12.168L13.9996 12.1674C13.9998 12.1671 14 12.1669 13.3333 11.6669L14 12.1669C14.2761 11.7987 14.2015 11.2764 13.8333 11.0002C13.4662 10.7249 12.9459 10.7982 12.6691 11.1636C12.6686 11.1643 12.6673 11.1659 12.6654 11.1683C12.6604 11.1746 12.651 11.1863 12.6372 11.2028C12.6096 11.2357 12.5648 11.287 12.5038 11.3507C12.381 11.4788 12.1966 11.6526 11.9577 11.8263C11.4769 12.176 10.812 12.5002 9.99997 12.5002C9.18791 12.5002 8.52308 12.176 8.04219 11.8263C7.80336 11.6526 7.61891 11.4788 7.49616 11.3507C7.43512 11.287 7.39035 11.2357 7.36273 11.2028C7.34894 11.1863 7.33951 11.1746 7.33455 11.1683C7.33261 11.1659 7.33136 11.1643 7.33081 11.1636ZM12.6674 11.1658L12.6674 11.1659L12.667 11.1664C12.6671 11.1662 12.6673 11.166 12.6674 11.1658Z" fill="black"/>
<path fill-rule="evenodd" clip-rule="evenodd" d="M6.66675 7.49984C6.66675 7.0396 7.03984 6.6665 7.50008 6.6665H7.50841C7.96865 6.6665 8.34175 7.0396 8.34175 7.49984C8.34175 7.96007 7.96865 8.33317 7.50841 8.33317H7.50008C7.03984 8.33317 6.66675 7.96007 6.66675 7.49984Z" fill="black"/>
<path fill-rule="evenodd" clip-rule="evenodd" d="M11.6667 7.49984C11.6667 7.0396 12.0398 6.6665 12.5001 6.6665H12.5084C12.9687 6.6665 13.3417 7.0396 13.3417 7.49984C13.3417 7.96007 12.9687 8.33317 12.5084 8.33317H12.5001C12.0398 8.33317 11.6667 7.96007 11.6667 7.49984Z" fill="black"/>
</svg>
