<svg width="34" height="38" viewBox="0 0 34 38" fill="none" xmlns="http://www.w3.org/2000/svg">
<path d="M2.8125 37.5C2.0625 37.5 1.40625 37.2188 0.84375 36.6562C0.28125 36.0938 0 35.4375 0 34.6875V5.625C0 4.875 0.28125 4.21875 0.84375 3.65625C1.40625 3.09375 2.0625 2.8125 2.8125 2.8125H5.85938V0H8.90625V2.8125H24.8438V0H27.8906V2.8125H30.9375C31.6875 2.8125 32.3438 3.09375 32.9062 3.65625C33.4688 4.21875 33.75 4.875 33.75 5.625V34.6875C33.75 35.4375 33.4688 36.0938 32.9062 36.6562C32.3438 37.2188 31.6875 37.5 30.9375 37.5H2.8125ZM2.8125 34.6875H30.9375V14.5312H2.8125V34.6875ZM2.8125 11.7188H30.9375V5.625H2.8125V11.7188ZM16.875 22.5C16.3438 22.5 15.8984 22.3203 15.5391 21.9609C15.1797 21.6016 15 21.1562 15 20.625C15 20.0938 15.1797 19.6484 15.5391 19.2891C15.8984 18.9297 16.3438 18.75 16.875 18.75C17.4062 18.75 17.8516 18.9297 18.2109 19.2891C18.5703 19.6484 18.75 20.0938 18.75 20.625C18.75 21.1562 18.5703 21.6016 18.2109 21.9609C17.8516 22.3203 17.4062 22.5 16.875 22.5ZM9.375 22.5C8.84375 22.5 8.39844 22.3203 8.03906 21.9609C7.67969 21.6016 7.5 21.1562 7.5 20.625C7.5 20.0938 7.67969 19.6484 8.03906 19.2891C8.39844 18.9297 8.84375 18.75 9.375 18.75C9.90625 18.75 10.3516 18.9297 10.7109 19.2891C11.0703 19.6484 11.25 20.0938 11.25 20.625C11.25 21.1562 11.0703 21.6016 10.7109 21.9609C10.3516 22.3203 9.90625 22.5 9.375 22.5ZM24.375 22.5C23.8438 22.5 23.3984 22.3203 23.0391 21.9609C22.6797 21.6016 22.5 21.1562 22.5 20.625C22.5 20.0938 22.6797 19.6484 23.0391 19.2891C23.3984 18.9297 23.8438 18.75 24.375 18.75C24.9062 18.75 25.3516 18.9297 25.7109 19.2891C26.0703 19.6484 26.25 20.0938 26.25 20.625C26.25 21.1562 26.0703 21.6016 25.7109 21.9609C25.3516 22.3203 24.9062 22.5 24.375 22.5ZM16.875 30C16.3438 30 15.8984 29.8203 15.5391 29.4609C15.1797 29.1016 15 28.6562 15 28.125C15 27.5938 15.1797 27.1484 15.5391 26.7891C15.8984 26.4297 16.3438 26.25 16.875 26.25C17.4062 26.25 17.8516 26.4297 18.2109 26.7891C18.5703 27.1484 18.75 27.5938 18.75 28.125C18.75 28.6562 18.5703 29.1016 18.2109 29.4609C17.8516 29.8203 17.4062 30 16.875 30ZM9.375 30C8.84375 30 8.39844 29.8203 8.03906 29.4609C7.67969 29.1016 7.5 28.6562 7.5 28.125C7.5 27.5938 7.67969 27.1484 8.03906 26.7891C8.39844 26.4297 8.84375 26.25 9.375 26.25C9.90625 26.25 10.3516 26.4297 10.7109 26.7891C11.0703 27.1484 11.25 27.5938 11.25 28.125C11.25 28.6562 11.0703 29.1016 10.7109 29.4609C10.3516 29.8203 9.90625 30 9.375 30ZM24.375 30C23.8438 30 23.3984 29.8203 23.0391 29.4609C22.6797 29.1016 22.5 28.6562 22.5 28.125C22.5 27.5938 22.6797 27.1484 23.0391 26.7891C23.3984 26.4297 23.8438 26.25 24.375 26.25C24.9062 26.25 25.3516 26.4297 25.7109 26.7891C26.0703 27.1484 26.25 27.5938 26.25 28.125C26.25 28.6562 26.0703 29.1016 25.7109 29.4609C25.3516 29.8203 24.9062 30 24.375 30Z" fill="#955EAB"/>
</svg>
