<svg width="20" height="20" viewBox="0 0 20 20" fill="none" xmlns="http://www.w3.org/2000/svg">
<g clip-path="url(#clip0_2001_9643)">
<path fill-rule="evenodd" clip-rule="evenodd" d="M8.23223 13.2322C8.70107 12.7634 9.33696 12.5 10 12.5C10.663 12.5 11.2989 12.7634 11.7678 13.2322C12.2366 13.7011 12.5 14.337 12.5 15V18.3333C12.5 18.7936 12.1269 19.1667 11.6667 19.1667C11.2064 19.1667 10.8333 18.7936 10.8333 18.3333V15C10.8333 14.779 10.7455 14.567 10.5893 14.4107C10.433 14.2545 10.221 14.1667 10 14.1667C9.77899 14.1667 9.56703 14.2545 9.41074 14.4107C9.25446 14.567 9.16667 14.779 9.16667 15V18.3333C9.16667 18.7936 8.79357 19.1667 8.33333 19.1667C7.8731 19.1667 7.5 18.7936 7.5 18.3333V15C7.5 14.337 7.76339 13.7011 8.23223 13.2322Z" fill="black"/>
<path fill-rule="evenodd" clip-rule="evenodd" d="M5.74528 7.96084C5.9511 8.37249 5.78425 8.87305 5.3726 9.07887L2.49992 10.5152V16.6668C2.49992 16.8879 2.58772 17.0998 2.744 17.2561C2.90028 17.4124 3.11224 17.5002 3.33325 17.5002H16.6666C16.8876 17.5002 17.0996 17.4124 17.2558 17.2561C17.4121 17.0998 17.4999 16.8879 17.4999 16.6668V10.5152L14.6272 9.07887C14.2156 8.87305 14.0487 8.37249 14.2546 7.96084C14.4604 7.54919 14.9609 7.38234 15.3726 7.58816L18.7059 9.25483C18.9883 9.39599 19.1666 9.68454 19.1666 10.0002V16.6668C19.1666 17.3299 18.9032 17.9658 18.4344 18.4346C17.9655 18.9035 17.3296 19.1668 16.6666 19.1668H3.33325C2.67021 19.1668 2.03433 18.9035 1.56549 18.4346C1.09664 17.9658 0.833252 17.3299 0.833252 16.6668V10.0002C0.833252 9.68454 1.01159 9.39599 1.29391 9.25483L4.62724 7.58816C5.03889 7.38234 5.53945 7.54919 5.74528 7.96084Z" fill="black"/>
<path fill-rule="evenodd" clip-rule="evenodd" d="M15.0001 3.3335C15.4603 3.3335 15.8334 3.70659 15.8334 4.16683V18.3335C15.8334 18.7937 15.4603 19.1668 15.0001 19.1668C14.5398 19.1668 14.1667 18.7937 14.1667 18.3335V4.16683C14.1667 3.70659 14.5398 3.3335 15.0001 3.3335Z" fill="black"/>
<path fill-rule="evenodd" clip-rule="evenodd" d="M9.62726 0.921473C9.86187 0.80417 10.138 0.80417 10.3726 0.921473L17.0393 4.25481C17.4509 4.46063 17.6178 4.96119 17.412 5.37284C17.2061 5.78449 16.7056 5.95134 16.2939 5.74552L9.99994 2.59852L3.70595 5.74552C3.2943 5.95134 2.79374 5.78449 2.58792 5.37284C2.38209 4.96119 2.54895 4.46063 2.96059 4.25481L9.62726 0.921473Z" fill="black"/>
<path fill-rule="evenodd" clip-rule="evenodd" d="M5.00008 3.3335C5.46032 3.3335 5.83341 3.70659 5.83341 4.16683V18.3335C5.83341 18.7937 5.46032 19.1668 5.00008 19.1668C4.53984 19.1668 4.16675 18.7937 4.16675 18.3335V4.16683C4.16675 3.70659 4.53984 3.3335 5.00008 3.3335Z" fill="black"/>
<path fill-rule="evenodd" clip-rule="evenodd" d="M10 6.66667C9.53976 6.66667 9.16667 7.03976 9.16667 7.5C9.16667 7.96024 9.53976 8.33333 10 8.33333C10.4602 8.33333 10.8333 7.96024 10.8333 7.5C10.8333 7.03976 10.4602 6.66667 10 6.66667ZM7.5 7.5C7.5 6.11929 8.61929 5 10 5C11.3807 5 12.5 6.11929 12.5 7.5C12.5 8.88071 11.3807 10 10 10C8.61929 10 7.5 8.88071 7.5 7.5Z" fill="black"/>
</g>
<defs>
<clipPath id="clip0_2001_9643">
<rect width="20" height="20" fill="white"/>
</clipPath>
</defs>
</svg>
