<svg width="20" height="20" viewBox="0 0 20 20" fill="none" xmlns="http://www.w3.org/2000/svg">
<path fill-rule="evenodd" clip-rule="evenodd" d="M5.00008 3.33317C4.07961 3.33317 3.33341 4.07936 3.33341 4.99984C3.33341 5.92031 4.07961 6.6665 5.00008 6.6665C5.92056 6.6665 6.66675 5.92031 6.66675 4.99984C6.66675 4.07936 5.92056 3.33317 5.00008 3.33317ZM1.66675 4.99984C1.66675 3.15889 3.15913 1.6665 5.00008 1.6665C6.84103 1.6665 8.33341 3.15889 8.33341 4.99984C8.33341 6.84079 6.84103 8.33317 5.00008 8.33317C3.15913 8.33317 1.66675 6.84079 1.66675 4.99984Z" fill="black"/>
<path fill-rule="evenodd" clip-rule="evenodd" d="M6.17743 6.17718C6.50286 5.85175 7.0305 5.85175 7.35594 6.17718L10.5893 9.41052C10.9147 9.73595 10.9147 10.2636 10.5893 10.589C10.2638 10.9145 9.7362 10.9145 9.41076 10.589L6.17743 7.35569C5.85199 7.03026 5.85199 6.50262 6.17743 6.17718Z" fill="black"/>
<path fill-rule="evenodd" clip-rule="evenodd" d="M17.2559 2.74408C17.5814 3.06951 17.5814 3.59715 17.2559 3.92259L7.35594 13.8226C7.0305 14.148 6.50286 14.148 6.17743 13.8226C5.85199 13.4972 5.85199 12.9695 6.17743 12.6441L16.0774 2.74408C16.4029 2.41864 16.9305 2.41864 17.2559 2.74408Z" fill="black"/>
<path fill-rule="evenodd" clip-rule="evenodd" d="M5.00008 13.3332C4.07961 13.3332 3.33341 14.0794 3.33341 14.9998C3.33341 15.9203 4.07961 16.6665 5.00008 16.6665C5.92056 16.6665 6.66675 15.9203 6.66675 14.9998C6.66675 14.0794 5.92056 13.3332 5.00008 13.3332ZM1.66675 14.9998C1.66675 13.1589 3.15913 11.6665 5.00008 11.6665C6.84103 11.6665 8.33341 13.1589 8.33341 14.9998C8.33341 16.8408 6.84103 18.3332 5.00008 18.3332C3.15913 18.3332 1.66675 16.8408 1.66675 14.9998Z" fill="black"/>
<path fill-rule="evenodd" clip-rule="evenodd" d="M11.7441 11.7441C12.0695 11.4186 12.5972 11.4186 12.9226 11.7441L17.2559 16.0774C17.5814 16.4028 17.5814 16.9305 17.2559 17.2559C16.9305 17.5814 16.4028 17.5814 16.0774 17.2559L11.7441 12.9226C11.4186 12.5972 11.4186 12.0695 11.7441 11.7441Z" fill="black"/>
</svg>
