<svg width="20" height="20" viewBox="0 0 20 20" fill="none" xmlns="http://www.w3.org/2000/svg">
<path fill-rule="evenodd" clip-rule="evenodd" d="M3.92743 7.26068C4.25286 6.93524 4.7805 6.93524 5.10594 7.26068L7.25594 9.41068C7.58138 9.73612 7.58138 10.2638 7.25594 10.5892C6.9305 10.9146 6.40286 10.9146 6.07743 10.5892L3.92743 8.43919C3.60199 8.11375 3.60199 7.58612 3.92743 7.26068Z" fill="black"/>
<path fill-rule="evenodd" clip-rule="evenodd" d="M3.33325 5.83317C2.87301 5.83317 2.49992 6.20627 2.49992 6.6665C2.49992 7.12674 2.87301 7.49984 3.33325 7.49984C3.79349 7.49984 4.16659 7.12674 4.16659 6.6665C4.16659 6.20627 3.79349 5.83317 3.33325 5.83317ZM0.833252 6.6665C0.833252 5.28579 1.95254 4.1665 3.33325 4.1665C4.71396 4.1665 5.83325 5.28579 5.83325 6.6665C5.83325 8.04722 4.71396 9.1665 3.33325 9.1665C1.95254 9.1665 0.833252 8.04722 0.833252 6.6665Z" fill="black"/>
<path fill-rule="evenodd" clip-rule="evenodd" d="M12.2559 4.41058C12.5814 4.73602 12.5814 5.26366 12.2559 5.58909L5.10594 12.7391C4.7805 13.0645 4.25286 13.0645 3.92743 12.7391C3.60199 12.4137 3.60199 11.886 3.92743 11.5606L11.0774 4.41058C11.4029 4.08514 11.9305 4.08514 12.2559 4.41058Z" fill="black"/>
<path fill-rule="evenodd" clip-rule="evenodd" d="M3.33325 12.5002C2.87301 12.5002 2.49992 12.8733 2.49992 13.3335C2.49992 13.7937 2.87301 14.1668 3.33325 14.1668C3.79349 14.1668 4.16659 13.7937 4.16659 13.3335C4.16659 12.8733 3.79349 12.5002 3.33325 12.5002ZM0.833252 13.3335C0.833252 11.9528 1.95254 10.8335 3.33325 10.8335C4.71396 10.8335 5.83325 11.9528 5.83325 13.3335C5.83325 14.7142 4.71396 15.8335 3.33325 15.8335C1.95254 15.8335 0.833252 14.7142 0.833252 13.3335Z" fill="black"/>
<path fill-rule="evenodd" clip-rule="evenodd" d="M8.41083 11.7441C8.73626 11.4186 9.2639 11.4186 9.58934 11.7441L12.256 14.4107C12.5814 14.7362 12.5814 15.2638 12.256 15.5893C11.9306 15.9147 11.4029 15.9147 11.0775 15.5893L8.41083 12.9226C8.08539 12.5972 8.08539 12.0695 8.41083 11.7441Z" fill="black"/>
<path fill-rule="evenodd" clip-rule="evenodd" d="M10.8333 9.99984C10.8333 9.5396 11.2063 9.1665 11.6666 9.1665H13.3333C13.7935 9.1665 14.1666 9.5396 14.1666 9.99984C14.1666 10.4601 13.7935 10.8332 13.3333 10.8332H11.6666C11.2063 10.8332 10.8333 10.4601 10.8333 9.99984Z" fill="black"/>
<path fill-rule="evenodd" clip-rule="evenodd" d="M15.8333 9.99984C15.8333 9.5396 16.2063 9.1665 16.6666 9.1665H18.3333C18.7935 9.1665 19.1666 9.5396 19.1666 9.99984C19.1666 10.4601 18.7935 10.8332 18.3333 10.8332H16.6666C16.2063 10.8332 15.8333 10.4601 15.8333 9.99984Z" fill="black"/>
</svg>
