<svg width="20" height="20" viewBox="0 0 20 20" fill="none" xmlns="http://www.w3.org/2000/svg">
<path fill-rule="evenodd" clip-rule="evenodd" d="M1.56549 2.39874C2.03433 1.9299 2.67021 1.6665 3.33325 1.6665H10.8333C11.2935 1.6665 11.6666 2.0396 11.6666 2.49984C11.6666 2.96007 11.2935 3.33317 10.8333 3.33317H3.33325C3.11224 3.33317 2.90028 3.42097 2.744 3.57725C2.58772 3.73353 2.49992 3.94549 2.49992 4.1665V12.4998C2.49992 12.7208 2.58772 12.9328 2.744 13.0891C2.90028 13.2454 3.11224 13.3332 3.33325 13.3332H16.6666C16.8876 13.3332 17.0996 13.2454 17.2558 13.0891C17.4121 12.9328 17.4999 12.7208 17.4999 12.4998V9.99984C17.4999 9.5396 17.873 9.1665 18.3333 9.1665C18.7935 9.1665 19.1666 9.5396 19.1666 9.99984V12.4998C19.1666 13.1629 18.9032 13.7988 18.4344 14.2676C17.9655 14.7364 17.3296 14.9998 16.6666 14.9998H3.33325C2.67021 14.9998 2.03433 14.7364 1.56549 14.2676C1.09664 13.7988 0.833252 13.1629 0.833252 12.4998V4.1665C0.833252 3.50346 1.09664 2.86758 1.56549 2.39874Z" fill="black"/>
<path fill-rule="evenodd" clip-rule="evenodd" d="M5.83325 17.4998C5.83325 17.0396 6.20635 16.6665 6.66659 16.6665H13.3333C13.7935 16.6665 14.1666 17.0396 14.1666 17.4998C14.1666 17.9601 13.7935 18.3332 13.3333 18.3332H6.66659C6.20635 18.3332 5.83325 17.9601 5.83325 17.4998Z" fill="black"/>
<path fill-rule="evenodd" clip-rule="evenodd" d="M10.0001 13.3335C10.4603 13.3335 10.8334 13.7066 10.8334 14.1668V17.5002C10.8334 17.9604 10.4603 18.3335 10.0001 18.3335C9.53984 18.3335 9.16675 17.9604 9.16675 17.5002V14.1668C9.16675 13.7066 9.53984 13.3335 10.0001 13.3335Z" fill="black"/>
<path fill-rule="evenodd" clip-rule="evenodd" d="M18.9225 1.91058C19.2479 2.23602 19.2479 2.76366 18.9225 3.08909L14.7558 7.25576C14.4304 7.5812 13.9028 7.5812 13.5773 7.25576C13.2519 6.93032 13.2519 6.40269 13.5773 6.07725L17.744 1.91058C18.0694 1.58514 18.5971 1.58514 18.9225 1.91058Z" fill="black"/>
<path fill-rule="evenodd" clip-rule="evenodd" d="M13.5773 1.91058C13.9028 1.58514 14.4304 1.58514 14.7558 1.91058L18.9225 6.07725C19.2479 6.40269 19.2479 6.93032 18.9225 7.25576C18.5971 7.5812 18.0694 7.5812 17.744 7.25576L13.5773 3.08909C13.2519 2.76366 13.2519 2.23602 13.5773 1.91058Z" fill="black"/>
</svg>
