<svg width="20" height="20" viewBox="0 0 20 20" fill="none" xmlns="http://www.w3.org/2000/svg">
<path fill-rule="evenodd" clip-rule="evenodd" d="M7.5 9.99984C7.5 9.5396 7.8731 9.1665 8.33333 9.1665H12.5C12.9602 9.1665 13.3333 9.5396 13.3333 9.99984C13.3333 10.4601 12.9602 10.8332 12.5 10.8332H8.33333C7.8731 10.8332 7.5 10.4601 7.5 9.99984Z" fill="black"/>
<path fill-rule="evenodd" clip-rule="evenodd" d="M7.5 6.66683C7.5 6.20659 7.8731 5.8335 8.33333 5.8335H12.5C12.9602 5.8335 13.3333 6.20659 13.3333 6.66683C13.3333 7.12707 12.9602 7.50016 12.5 7.50016H8.33333C7.8731 7.50016 7.5 7.12707 7.5 6.66683Z" fill="black"/>
<path fill-rule="evenodd" clip-rule="evenodd" d="M2.5 2.49984C2.5 2.0396 2.8731 1.6665 3.33333 1.6665H14.1667C14.8297 1.6665 15.4656 1.9299 15.9344 2.39874C16.4033 2.86758 16.6667 3.50346 16.6667 4.1665V14.1665C16.6667 14.6267 16.2936 14.9998 15.8333 14.9998C15.3731 14.9998 15 14.6267 15 14.1665V4.1665C15 3.94549 14.9122 3.73353 14.7559 3.57725C14.5996 3.42097 14.3877 3.33317 14.1667 3.33317H3.33333C2.8731 3.33317 2.5 2.96007 2.5 2.49984Z" fill="black"/>
<path fill-rule="evenodd" clip-rule="evenodd" d="M1.56549 2.39874C2.03433 1.9299 2.67021 1.6665 3.33325 1.6665C3.99629 1.6665 4.63218 1.9299 5.10102 2.39874C5.56986 2.86758 5.83325 3.50346 5.83325 4.1665V15.8332C5.83325 16.0542 5.92105 16.2661 6.07733 16.4224C6.23361 16.5787 6.44557 16.6665 6.66659 16.6665C6.8876 16.6665 7.09956 16.5787 7.25584 16.4224C7.41212 16.2661 7.49992 16.0542 7.49992 15.8332V14.9998C7.49992 14.5578 7.67551 14.1339 7.98807 13.8213C8.30064 13.5088 8.72456 13.3332 9.16659 13.3332H17.4999C17.9419 13.3332 18.3659 13.5088 18.6784 13.8213C18.991 14.1339 19.1666 14.5578 19.1666 14.9998V15.8332C19.1666 16.4962 18.9032 17.1321 18.4344 17.6009C17.9655 18.0698 17.3296 18.3332 16.6666 18.3332H6.66659C6.00354 18.3332 5.36766 18.0698 4.89882 17.6009C4.42998 17.1321 4.16659 16.4962 4.16659 15.8332V7.49984H2.49992C2.05789 7.49984 1.63397 7.32424 1.32141 7.01168C1.00885 6.69912 0.833252 6.2752 0.833252 5.83317V4.1665C0.833252 3.50346 1.09664 2.86758 1.56549 2.39874ZM4.16659 5.83317V4.1665C4.16659 3.94549 4.07879 3.73353 3.92251 3.57725C3.76623 3.42097 3.55427 3.33317 3.33325 3.33317C3.11224 3.33317 2.90028 3.42097 2.744 3.57725C2.58772 3.73353 2.49992 3.94549 2.49992 4.1665V5.83317H4.16659ZM9.02361 16.6665H16.6666C16.8876 16.6665 17.0996 16.5787 17.2558 16.4224C17.4121 16.2661 17.4999 16.0542 17.4999 15.8332V14.9998L9.16659 14.9998V15.8332C9.16659 16.1198 9.11737 16.4013 9.02361 16.6665Z" fill="black"/>
</svg>
