<svg width="20" height="20" viewBox="0 0 20 20" fill="none" xmlns="http://www.w3.org/2000/svg">
<path fill-rule="evenodd" clip-rule="evenodd" d="M11.8393 6.49408C12.1647 6.81951 12.1647 7.34715 11.8393 7.67259L7.67259 11.8393C7.34715 12.1647 6.81951 12.1647 6.49408 11.8393C6.16864 11.5138 6.16864 10.9862 6.49408 10.6607L10.6607 6.49408C10.9862 6.16864 11.5138 6.16864 11.8393 6.49408Z" fill="black"/>
<path fill-rule="evenodd" clip-rule="evenodd" d="M6.49408 6.49408C6.81951 6.16864 7.34715 6.16864 7.67259 6.49408L11.8393 10.6607C12.1647 10.9862 12.1647 11.5138 11.8393 11.8393C11.5138 12.1647 10.9862 12.1647 10.6607 11.8393L6.49408 7.67259C6.16864 7.34715 6.16864 6.81951 6.49408 6.49408Z" fill="black"/>
<path fill-rule="evenodd" clip-rule="evenodd" d="M9.16675 3.33317C5.94509 3.33317 3.33341 5.94484 3.33341 9.1665C3.33341 12.3882 5.94509 14.9998 9.16675 14.9998C12.3884 14.9998 15.0001 12.3882 15.0001 9.1665C15.0001 5.94484 12.3884 3.33317 9.16675 3.33317ZM1.66675 9.1665C1.66675 5.02437 5.02461 1.6665 9.16675 1.6665C13.3089 1.6665 16.6667 5.02437 16.6667 9.1665C16.6667 13.3086 13.3089 16.6665 9.16675 16.6665C5.02461 16.6665 1.66675 13.3086 1.66675 9.1665Z" fill="black"/>
<path fill-rule="evenodd" clip-rule="evenodd" d="M13.3273 13.3276C13.6528 13.0021 14.1804 13.0021 14.5058 13.3276L18.0892 16.9109C18.4146 17.2363 18.4146 17.764 18.0892 18.0894C17.7637 18.4149 17.2361 18.4149 16.9107 18.0894L13.3273 14.5061C13.0019 14.1806 13.0019 13.653 13.3273 13.3276Z" fill="black"/>
</svg>
