<svg width="20" height="20" viewBox="0 0 20 20" fill="none" xmlns="http://www.w3.org/2000/svg">
<path fill-rule="evenodd" clip-rule="evenodd" d="M10.3128 6.43264C10.6722 6.14513 11.1966 6.2034 11.4841 6.56278L13.1508 8.64612C13.3942 8.95047 13.3942 9.38293 13.1508 9.68728L11.4841 11.7706C11.1966 12.13 10.6722 12.1883 10.3128 11.9008C9.9534 11.6132 9.89513 11.0888 10.1826 10.7295L11.4328 9.1667L10.1826 7.60394C9.89513 7.24456 9.9534 6.72015 10.3128 6.43264Z" fill="black"/>
<path fill-rule="evenodd" clip-rule="evenodd" d="M13.3273 13.3276C13.6528 13.0021 14.1804 13.0021 14.5058 13.3276L18.0892 16.9109C18.4146 17.2363 18.4146 17.764 18.0892 18.0894C17.7637 18.4149 17.2361 18.4149 16.9107 18.0894L13.3273 14.5061C13.0019 14.1806 13.0019 13.653 13.3273 13.3276Z" fill="black"/>
<path fill-rule="evenodd" clip-rule="evenodd" d="M8.02058 6.43264C8.37996 6.72015 8.43823 7.24456 8.15072 7.60394L6.90052 9.1667L8.15072 10.7295C8.43823 11.0888 8.37996 11.6132 8.02058 11.9008C7.66119 12.1883 7.13678 12.13 6.84928 11.7706L5.18261 9.68728C4.93913 9.38293 4.93913 8.95047 5.18261 8.64612L6.84928 6.56278C7.13678 6.2034 7.66119 6.14513 8.02058 6.43264Z" fill="black"/>
<path fill-rule="evenodd" clip-rule="evenodd" d="M9.16675 3.33317C5.94509 3.33317 3.33341 5.94484 3.33341 9.1665C3.33341 12.3882 5.94509 14.9998 9.16675 14.9998C12.3884 14.9998 15.0001 12.3882 15.0001 9.1665C15.0001 5.94484 12.3884 3.33317 9.16675 3.33317ZM1.66675 9.1665C1.66675 5.02437 5.02461 1.6665 9.16675 1.6665C13.3089 1.6665 16.6667 5.02437 16.6667 9.1665C16.6667 13.3086 13.3089 16.6665 9.16675 16.6665C5.02461 16.6665 1.66675 13.3086 1.66675 9.1665Z" fill="black"/>
</svg>
