<svg width="20" height="20" viewBox="0 0 20 20" fill="none" xmlns="http://www.w3.org/2000/svg">
<path fill-rule="evenodd" clip-rule="evenodd" d="M12.2558 6.91058C12.5813 7.23602 12.5813 7.76366 12.2558 8.08909L8.92251 11.4224C8.59707 11.7479 8.06943 11.7479 7.744 11.4224L6.07733 9.75576C5.75189 9.43032 5.75189 8.90269 6.07733 8.57725C6.40277 8.25181 6.9304 8.25181 7.25584 8.57725L8.33325 9.65466L11.0773 6.91058C11.4028 6.58514 11.9304 6.58514 12.2558 6.91058Z" fill="black"/>
<path fill-rule="evenodd" clip-rule="evenodd" d="M9.16675 3.33317C5.94509 3.33317 3.33341 5.94484 3.33341 9.1665C3.33341 12.3882 5.94509 14.9998 9.16675 14.9998C12.3884 14.9998 15.0001 12.3882 15.0001 9.1665C15.0001 5.94484 12.3884 3.33317 9.16675 3.33317ZM1.66675 9.1665C1.66675 5.02437 5.02461 1.6665 9.16675 1.6665C13.3089 1.6665 16.6667 5.02437 16.6667 9.1665C16.6667 13.3086 13.3089 16.6665 9.16675 16.6665C5.02461 16.6665 1.66675 13.3086 1.66675 9.1665Z" fill="black"/>
<path fill-rule="evenodd" clip-rule="evenodd" d="M13.3273 13.3276C13.6528 13.0021 14.1804 13.0021 14.5058 13.3276L18.0892 16.9109C18.4146 17.2363 18.4146 17.764 18.0892 18.0894C17.7637 18.4149 17.2361 18.4149 16.9107 18.0894L13.3273 14.5061C13.0019 14.1806 13.0019 13.653 13.3273 13.3276Z" fill="black"/>
</svg>
