<svg width="20" height="20" viewBox="0 0 20 20" fill="none" xmlns="http://www.w3.org/2000/svg">
<path fill-rule="evenodd" clip-rule="evenodd" d="M7.1429 1.7324C7.93092 1.14138 8.96035 0.833496 9.99992 0.833496C11.0395 0.833496 12.0689 1.14138 12.8569 1.7324C13.6496 2.32685 14.1666 3.19272 14.1666 4.16683C14.1666 4.62707 13.7935 5.00016 13.3333 5.00016C12.873 5.00016 12.4999 4.62707 12.4999 4.16683C12.4999 3.81486 12.3146 3.40895 11.8569 3.06573C11.3947 2.71906 10.7285 2.50016 9.99992 2.50016C9.27137 2.50016 8.60512 2.71906 8.1429 3.06573C7.68526 3.40895 7.49992 3.81486 7.49992 4.16683C7.49992 4.65401 7.71531 4.99958 8.18993 5.33577C8.70915 5.70355 9.4304 5.97993 10.2925 6.30322C10.3111 6.31018 10.3297 6.31716 10.3484 6.32417C11.1406 6.62109 12.0593 6.96548 12.7733 7.47118C13.5486 8.02041 14.1666 8.82067 14.1666 10.0002C14.1666 10.9743 13.6496 11.8401 12.8569 12.4346C12.0689 13.0256 11.0395 13.3335 9.99992 13.3335C8.96035 13.3335 7.93092 13.0256 7.1429 12.4346C6.35029 11.8401 5.83325 10.9743 5.83325 10.0002C5.83325 9.53993 6.20635 9.16683 6.66659 9.16683C7.12682 9.16683 7.49992 9.53993 7.49992 10.0002C7.49992 10.3521 7.68526 10.758 8.1429 11.1013C8.60512 11.4479 9.27137 11.6668 9.99992 11.6668C10.7285 11.6668 11.3947 11.4479 11.8569 11.1013C12.3146 10.758 12.4999 10.3521 12.4999 10.0002C12.4999 9.51299 12.2845 9.16742 11.8099 8.83123C11.2907 8.46345 10.5694 8.18707 9.70732 7.86377C9.68877 7.85681 9.67014 7.84983 9.65145 7.84283C8.85929 7.5459 7.9405 7.20151 7.22657 6.69581C6.45119 6.14658 5.83325 5.34632 5.83325 4.16683C5.83325 3.19272 6.35029 2.32685 7.1429 1.7324Z" fill="black"/>
<path fill-rule="evenodd" clip-rule="evenodd" d="M9.99992 8.33317C9.27137 8.33317 8.60512 8.55207 8.1429 8.89874C7.68526 9.24196 7.49992 9.64787 7.49992 9.99984C7.49992 10.487 7.71531 10.8326 8.18993 11.1688C8.70915 11.5366 9.4304 11.8129 10.2925 12.1362C10.3111 12.1432 10.3297 12.1502 10.3484 12.1572C11.1406 12.4541 12.0593 12.7985 12.7733 13.3042C13.5486 13.8534 14.1666 14.6537 14.1666 15.8332C14.1666 16.8073 13.6496 17.6731 12.8569 18.2676C12.0689 18.8586 11.0395 19.1665 9.99992 19.1665C8.96035 19.1665 7.93092 18.8586 7.1429 18.2676C6.35029 17.6731 5.83325 16.8073 5.83325 15.8332C5.83325 15.3729 6.20635 14.9998 6.66659 14.9998C7.12682 14.9998 7.49992 15.3729 7.49992 15.8332C7.49992 16.1851 7.68526 16.591 8.1429 16.9343C8.60512 17.2809 9.27137 17.4998 9.99992 17.4998C10.7285 17.4998 11.3947 17.2809 11.8569 16.9343C12.3146 16.591 12.4999 16.1851 12.4999 15.8332C12.4999 15.346 12.2845 15.0004 11.8099 14.6642C11.2907 14.2965 10.5694 14.0201 9.70732 13.6968C9.68877 13.6898 9.67014 13.6828 9.65145 13.6758C8.85929 13.3789 7.9405 13.0345 7.22657 12.5288C6.45119 11.9796 5.83325 11.1793 5.83325 9.99984C5.83325 9.02573 6.35029 8.15986 7.1429 7.5654C7.93092 6.97439 8.96035 6.6665 9.99992 6.6665C11.0395 6.6665 12.0689 6.97439 12.8569 7.5654C13.6496 8.15986 14.1666 9.02573 14.1666 9.99984C14.1666 10.4601 13.7935 10.8332 13.3333 10.8332C12.873 10.8332 12.4999 10.4601 12.4999 9.99984C12.4999 9.64787 12.3146 9.24196 11.8569 8.89874C11.3947 8.55207 10.7285 8.33317 9.99992 8.33317Z" fill="black"/>
</svg>
