<svg width="20" height="20" viewBox="0 0 20 20" fill="none" xmlns="http://www.w3.org/2000/svg">
<g clip-path="url(#clip0_2001_9711)">
<path fill-rule="evenodd" clip-rule="evenodd" d="M13.3333 12.5002C12.873 12.5002 12.4999 12.8733 12.4999 13.3335V16.6668C12.4999 17.1271 12.873 17.5002 13.3333 17.5002H16.6666C17.1268 17.5002 17.4999 17.1271 17.4999 16.6668V13.3335C17.4999 12.8733 17.1268 12.5002 16.6666 12.5002H13.3333ZM10.8333 13.3335C10.8333 11.9528 11.9525 10.8335 13.3333 10.8335H16.6666C18.0473 10.8335 19.1666 11.9528 19.1666 13.3335V16.6668C19.1666 18.0475 18.0473 19.1668 16.6666 19.1668H13.3333C11.9525 19.1668 10.8333 18.0475 10.8333 16.6668V13.3335Z" fill="black"/>
<path fill-rule="evenodd" clip-rule="evenodd" d="M3.33325 2.50016C2.87301 2.50016 2.49992 2.87326 2.49992 3.3335V6.66683C2.49992 7.12707 2.87301 7.50016 3.33325 7.50016H6.66658C7.12682 7.50016 7.49992 7.12707 7.49992 6.66683V3.3335C7.49992 2.87326 7.12682 2.50016 6.66658 2.50016H3.33325ZM0.833252 3.3335C0.833252 1.95278 1.95254 0.833496 3.33325 0.833496H6.66658C8.0473 0.833496 9.16658 1.95278 9.16658 3.3335V6.66683C9.16658 8.04754 8.0473 9.16683 6.66658 9.16683H3.33325C1.95254 9.16683 0.833252 8.04754 0.833252 6.66683V3.3335Z" fill="black"/>
<path fill-rule="evenodd" clip-rule="evenodd" d="M5.83333 10.8335C6.29357 10.8335 6.66667 11.2066 6.66667 11.6668V12.5002C6.66667 12.7212 6.75446 12.9331 6.91074 13.0894C7.06702 13.2457 7.27899 13.3335 7.5 13.3335H8.33333C8.79357 13.3335 9.16667 13.7066 9.16667 14.1668C9.16667 14.6271 8.79357 15.0002 8.33333 15.0002H7.5C6.83696 15.0002 6.20107 14.7368 5.73223 14.2679C5.26339 13.7991 5 13.1632 5 12.5002V11.6668C5 11.2066 5.3731 10.8335 5.83333 10.8335Z" fill="black"/>
<path fill-rule="evenodd" clip-rule="evenodd" d="M10.8333 5.83333C10.8333 5.3731 11.2063 5 11.6666 5H12.4999C13.163 5 13.7988 5.26339 14.2677 5.73223C14.7365 6.20107 14.9999 6.83696 14.9999 7.5V8.33333C14.9999 8.79357 14.6268 9.16667 14.1666 9.16667C13.7063 9.16667 13.3333 8.79357 13.3333 8.33333V7.5C13.3333 7.27899 13.2455 7.06702 13.0892 6.91074C12.9329 6.75446 12.7209 6.66667 12.4999 6.66667H11.6666C11.2063 6.66667 10.8333 6.29357 10.8333 5.83333Z" fill="black"/>
</g>
<defs>
<clipPath id="clip0_2001_9711">
<rect width="20" height="20" fill="white"/>
</clipPath>
</defs>
</svg>
