<svg width="20" height="20" viewBox="0 0 20 20" fill="none" xmlns="http://www.w3.org/2000/svg">
<g clip-path="url(#clip0_2001_9716)">
<path fill-rule="evenodd" clip-rule="evenodd" d="M17.507 0.902178C17.7274 0.824378 17.9652 0.810055 18.1934 0.860938C18.4245 0.912473 18.6362 1.02876 18.8036 1.1962C18.971 1.36363 19.0873 1.57528 19.1389 1.8064C19.1897 2.03459 19.1754 2.27242 19.0976 2.49276L13.6824 18.3218C13.5997 18.5631 13.4451 18.7732 13.2395 18.9241C13.0339 19.075 12.787 19.1594 12.532 19.1659C12.2771 19.1724 12.0262 19.1008 11.8131 18.9606C11.6 18.8205 11.4349 18.6185 11.3399 18.3818L8.69026 11.7726C8.6902 11.7725 8.69015 11.7723 8.69009 11.7722C8.64808 11.668 8.58544 11.5733 8.50591 11.4939C8.42628 11.4145 8.33138 11.3519 8.22693 11.3101L1.61801 8.65987C1.3813 8.56489 1.17931 8.39977 1.03915 8.18668C0.898996 7.9736 0.827375 7.72273 0.833906 7.46776C0.840437 7.2128 0.924806 6.96593 1.07569 6.76029C1.22657 6.55466 1.43675 6.4001 1.67801 6.31737L17.507 0.902178ZM17.2473 2.75254L3.28021 7.53074L8.84641 9.76284C8.84648 9.76287 8.84655 9.76289 8.84662 9.76292C8.84669 9.76295 8.84676 9.76298 8.84683 9.76301C9.16002 9.88847 9.44458 10.076 9.68336 10.3144C9.92225 10.5528 10.1104 10.8372 10.2364 11.1503L10.2368 11.1514L12.4691 16.7194L17.2473 2.75254Z" fill="black"/>
<path fill-rule="evenodd" clip-rule="evenodd" d="M18.801 1.19967C19.1264 1.52512 19.1264 2.05276 18.8009 2.37818L9.68428 11.494C9.35883 11.8194 8.83119 11.8194 8.50577 11.494C8.18035 11.1685 8.18037 10.6409 8.50582 10.3155L17.6225 1.19962C17.9479 0.874195 18.4756 0.874219 18.801 1.19967Z" fill="black"/>
</g>
<defs>
<clipPath id="clip0_2001_9716">
<rect width="20" height="20" fill="white"/>
</clipPath>
</defs>
</svg>
