<svg width="20" height="20" viewBox="0 0 20 20" fill="none" xmlns="http://www.w3.org/2000/svg">
<path fill-rule="evenodd" clip-rule="evenodd" d="M3.45435 1.78809L18.4512 8.86995C18.6653 8.97119 18.8462 9.13114 18.9729 9.33119C19.0995 9.53124 19.1668 9.76315 19.1668 9.99995C19.1668 10.2367 19.0995 10.4687 18.9729 10.6687C18.8462 10.8688 18.6653 11.0287 18.4512 11.13L18.4508 11.1302L3.45366 18.2121C3.22951 18.3196 2.97832 18.3577 2.73229 18.3216C2.4845 18.2851 2.25341 18.175 2.06904 18.0055C1.88467 17.836 1.75554 17.615 1.69845 17.3711C1.64178 17.1291 1.65867 16.8757 1.74687 16.6434L4.114 10.2908C4.11402 10.2907 4.11404 10.2907 4.11406 10.2906C4.18384 10.1032 4.18385 9.89683 4.11409 9.70935C4.11406 9.70927 4.11403 9.70919 4.114 9.70912L1.74619 3.35692C1.65773 3.12449 1.6407 2.87089 1.69734 2.62864C1.75447 2.38435 1.88387 2.16295 2.06868 1.99329C2.2535 1.82363 2.48514 1.71359 2.73341 1.67752C2.97942 1.64178 3.23045 1.68031 3.45435 1.78809ZM4.89494 10.5816L5.67582 10.8726L3.66491 16.2692L16.941 9.99995L3.66405 3.73027L5.67588 9.12745C5.88547 9.69024 5.88547 10.3097 5.67588 10.8724L4.89494 10.5816Z" fill="black"/>
<path fill-rule="evenodd" clip-rule="evenodd" d="M4.16675 9.99984C4.16675 9.5396 4.53984 9.1665 5.00008 9.1665H18.3334C18.7937 9.1665 19.1667 9.5396 19.1667 9.99984C19.1667 10.4601 18.7937 10.8332 18.3334 10.8332H5.00008C4.53984 10.8332 4.16675 10.4601 4.16675 9.99984Z" fill="black"/>
</svg>
