<svg width="20" height="20" viewBox="0 0 20 20" fill="none" xmlns="http://www.w3.org/2000/svg">
<path fill-rule="evenodd" clip-rule="evenodd" d="M1.66675 9.99984C1.66675 9.5396 2.03984 9.1665 2.50008 9.1665H17.5001C17.9603 9.1665 18.3334 9.5396 18.3334 9.99984C18.3334 10.4601 17.9603 10.8332 17.5001 10.8332H2.50008C2.03984 10.8332 1.66675 10.4601 1.66675 9.99984Z" fill="black"/>
<path fill-rule="evenodd" clip-rule="evenodd" d="M9.41066 2.74408C9.7361 2.41864 10.2637 2.41864 10.5892 2.74408L13.9225 6.07741C14.2479 6.40285 14.2479 6.93049 13.9225 7.25592C13.5971 7.58136 13.0694 7.58136 12.744 7.25592L9.99992 4.51184L7.25584 7.25592C6.9304 7.58136 6.40277 7.58136 6.07733 7.25592C5.75189 6.93049 5.75189 6.40285 6.07733 6.07741L9.41066 2.74408Z" fill="black"/>
<path fill-rule="evenodd" clip-rule="evenodd" d="M6.07733 12.7441C6.40277 12.4186 6.9304 12.4186 7.25584 12.7441L9.99992 15.4882L12.744 12.7441C13.0694 12.4186 13.5971 12.4186 13.9225 12.7441C14.2479 13.0695 14.2479 13.5972 13.9225 13.9226L10.5892 17.2559C10.2637 17.5814 9.7361 17.5814 9.41066 17.2559L6.07733 13.9226C5.75189 13.5972 5.75189 13.0695 6.07733 12.7441Z" fill="black"/>
</svg>
