<svg width="20" height="20" viewBox="0 0 20 20" fill="none" xmlns="http://www.w3.org/2000/svg">
<path fill-rule="evenodd" clip-rule="evenodd" d="M10.0001 1.6665C10.4603 1.6665 10.8334 2.0396 10.8334 2.49984V17.4998C10.8334 17.9601 10.4603 18.3332 10.0001 18.3332C9.53984 18.3332 9.16675 17.9601 9.16675 17.4998V2.49984C9.16675 2.0396 9.53984 1.6665 10.0001 1.6665Z" fill="black"/>
<path fill-rule="evenodd" clip-rule="evenodd" d="M7.25592 6.07757C7.58136 6.40301 7.58136 6.93065 7.25592 7.25609L4.51184 10.0002L7.25592 12.7442C7.58136 13.0697 7.58136 13.5973 7.25592 13.9228C6.93049 14.2482 6.40285 14.2482 6.07741 13.9228L2.74408 10.5894C2.41864 10.264 2.41864 9.73634 2.74408 9.41091L6.07741 6.07757C6.40285 5.75214 6.93049 5.75214 7.25592 6.07757Z" fill="black"/>
<path fill-rule="evenodd" clip-rule="evenodd" d="M12.7441 6.07757C13.0695 5.75214 13.5972 5.75214 13.9226 6.07757L17.2559 9.41091C17.5814 9.73634 17.5814 10.264 17.2559 10.5894L13.9226 13.9228C13.5972 14.2482 13.0695 14.2482 12.7441 13.9228C12.4186 13.5973 12.4186 13.0697 12.7441 12.7442L15.4882 10.0002L12.7441 7.25609C12.4186 6.93065 12.4186 6.40301 12.7441 6.07757Z" fill="black"/>
</svg>
