<svg width="20" height="20" viewBox="0 0 20 20" fill="none" xmlns="http://www.w3.org/2000/svg">
<g clip-path="url(#clip0_2001_9747)">
<path fill-rule="evenodd" clip-rule="evenodd" d="M5 1.66683C5 1.20659 5.3731 0.833496 5.83333 0.833496H16.6667C17.3297 0.833496 17.9656 1.09689 18.4344 1.56573C18.9033 2.03457 19.1667 2.67045 19.1667 3.3335V6.66683C19.1667 7.32987 18.9033 7.96576 18.4344 8.4346C17.9656 8.90344 17.3297 9.16683 16.6667 9.16683H12.5C12.0398 9.16683 11.6667 8.79373 11.6667 8.3335C11.6667 7.87326 12.0398 7.50016 12.5 7.50016H16.6667C16.8877 7.50016 17.0996 7.41237 17.2559 7.25608C17.4122 7.0998 17.5 6.88784 17.5 6.66683V3.3335C17.5 3.11248 17.4122 2.90052 17.2559 2.74424C17.0996 2.58796 16.8877 2.50016 16.6667 2.50016H5.83333C5.3731 2.50016 5 2.12707 5 1.66683Z" fill="black"/>
<path fill-rule="evenodd" clip-rule="evenodd" d="M2.38088 1.25704C2.50443 1.33269 2.60466 1.42618 2.67254 1.49405L8.92254 7.74405C9.16087 7.98239 9.23216 8.34082 9.10318 8.65221C8.9742 8.96361 8.67033 9.16664 8.33328 9.16664H3.33328C2.67024 9.16664 2.03435 8.90325 1.56551 8.43441C1.09667 7.96557 0.833279 7.32968 0.833279 6.66664V4.16664C0.833279 4.12104 0.833272 4.076 0.833265 4.03153C0.833121 3.10923 0.833015 2.43259 0.896701 2.05048C0.914533 1.94349 0.947325 1.7887 1.02298 1.63739C1.09964 1.48408 1.28699 1.20984 1.66162 1.12659C2.00445 1.05041 2.27195 1.19035 2.38088 1.25704ZM2.50034 3.67888C2.50003 3.82733 2.49995 3.98954 2.49995 4.16664V6.66664C2.49995 6.88766 2.58774 7.09962 2.74402 7.2559C2.9003 7.41218 3.11227 7.49998 3.33328 7.49998H6.32144L2.50034 3.67888ZM2.54511 2.30208C2.54514 2.30214 2.5448 2.30374 2.544 2.3067C2.54468 2.3035 2.54509 2.30202 2.54511 2.30208ZM1.47219 2.65177C1.47175 2.6514 1.47152 2.6512 1.47152 2.6512C1.47152 2.65119 1.47174 2.65138 1.47219 2.65177Z" fill="black"/>
<path fill-rule="evenodd" clip-rule="evenodd" d="M15 11.6668C15 11.2066 15.3731 10.8335 15.8333 10.8335H16.6667C17.3297 10.8335 17.9656 11.0969 18.4344 11.5657C18.9033 12.0346 19.1667 12.6705 19.1667 13.3335V14.1668C19.1667 14.6271 18.7936 15.0002 18.3333 15.0002C17.8731 15.0002 17.5 14.6271 17.5 14.1668V13.3335C17.5 13.1125 17.4122 12.9005 17.2559 12.7442C17.0996 12.588 16.8877 12.5002 16.6667 12.5002H15.8333C15.3731 12.5002 15 12.1271 15 11.6668Z" fill="black"/>
<path fill-rule="evenodd" clip-rule="evenodd" d="M1.56549 11.5657C2.03433 11.0969 2.67021 10.8335 3.33325 10.8335H11.6666C11.8876 10.8335 12.0996 10.9213 12.2558 11.0776L18.5058 17.3275C18.5058 17.3275 18.5058 17.3276 18.5058 17.3276L18.9225 17.7442C19.2479 18.0697 19.2479 18.5973 18.9225 18.9228C18.5998 19.2455 18.0781 19.2482 17.7521 18.9308L17.4559 19.0789C17.3402 19.1367 17.2126 19.1668 17.0833 19.1668H3.33325C2.67021 19.1668 2.03433 18.9034 1.56549 18.4346C1.09664 17.9658 0.833252 17.3299 0.833252 16.6668V13.3335C0.833252 12.6705 1.09664 12.0346 1.56549 11.5657ZM16.3214 17.5002L11.3214 12.5002H3.33325C3.11224 12.5002 2.90028 12.588 2.744 12.7442C2.58772 12.9005 2.49992 13.1125 2.49992 13.3335V16.6668C2.49992 16.8878 2.58772 17.0998 2.744 17.2561C2.90028 17.4124 3.11224 17.5002 3.33325 17.5002H16.3214Z" fill="black"/>
<path fill-rule="evenodd" clip-rule="evenodd" d="M4.16675 14.9998C4.16675 14.5396 4.53984 14.1665 5.00008 14.1665H5.00841C5.46865 14.1665 5.84175 14.5396 5.84175 14.9998C5.84175 15.4601 5.46865 15.8332 5.00841 15.8332H5.00008C4.53984 15.8332 4.16675 15.4601 4.16675 14.9998Z" fill="black"/>
<path fill-rule="evenodd" clip-rule="evenodd" d="M1.07733 1.07757C1.40277 0.752137 1.9304 0.752137 2.25584 1.07757L18.9225 17.7442C19.2479 18.0697 19.2479 18.5973 18.9225 18.9228C18.5971 19.2482 18.0694 19.2482 17.744 18.9228L1.07733 2.25609C0.751893 1.93065 0.751893 1.40301 1.07733 1.07757Z" fill="black"/>
</g>
<defs>
<clipPath id="clip0_2001_9747">
<rect width="20" height="20" fill="white"/>
</clipPath>
</defs>
</svg>
