<svg width="20" height="20" viewBox="0 0 20 20" fill="none" xmlns="http://www.w3.org/2000/svg">
<g clip-path="url(#clip0_2001_9741)">
<path fill-rule="evenodd" clip-rule="evenodd" d="M3.33325 2.50016C3.11224 2.50016 2.90028 2.58796 2.744 2.74424C2.58772 2.90052 2.49992 3.11248 2.49992 3.3335V6.66683C2.49992 6.88784 2.58772 7.0998 2.744 7.25608C2.90028 7.41236 3.11224 7.50016 3.33325 7.50016H4.99992C5.46016 7.50016 5.83325 7.87326 5.83325 8.3335C5.83325 8.79373 5.46016 9.16683 4.99992 9.16683H3.33325C2.67021 9.16683 2.03433 8.90344 1.56549 8.4346C1.09664 7.96575 0.833252 7.32987 0.833252 6.66683V3.3335C0.833252 2.67045 1.09664 2.03457 1.56549 1.56573C2.03433 1.09689 2.67021 0.833496 3.33325 0.833496H16.6666C17.3296 0.833496 17.9655 1.09689 18.4344 1.56573C18.9032 2.03457 19.1666 2.67045 19.1666 3.3335V6.66683C19.1666 7.32987 18.9032 7.96576 18.4344 8.4346C17.9655 8.90344 17.3296 9.16683 16.6666 9.16683H14.9999C14.5397 9.16683 14.1666 8.79373 14.1666 8.3335C14.1666 7.87326 14.5397 7.50016 14.9999 7.50016H16.6666C16.8876 7.50016 17.0996 7.41237 17.2558 7.25608C17.4121 7.0998 17.4999 6.88784 17.4999 6.66683V3.3335C17.4999 3.11248 17.4121 2.90052 17.2558 2.74424C17.0996 2.58796 16.8876 2.50016 16.6666 2.50016H3.33325Z" fill="black"/>
<path fill-rule="evenodd" clip-rule="evenodd" d="M1.56549 11.5657C2.03433 11.0969 2.67021 10.8335 3.33325 10.8335H4.99992C5.46016 10.8335 5.83325 11.2066 5.83325 11.6668C5.83325 12.1271 5.46016 12.5002 4.99992 12.5002H3.33325C3.11224 12.5002 2.90028 12.588 2.744 12.7442C2.58772 12.9005 2.49992 13.1125 2.49992 13.3335V16.6668C2.49992 16.8878 2.58772 17.0998 2.744 17.2561C2.90028 17.4124 3.11224 17.5002 3.33325 17.5002H16.6666C16.8876 17.5002 17.0996 17.4124 17.2558 17.2561C17.4121 17.0998 17.4999 16.8878 17.4999 16.6668V13.3335C17.4999 13.1125 17.4121 12.9005 17.2558 12.7442C17.0996 12.588 16.8876 12.5002 16.6666 12.5002H14.9999C14.5397 12.5002 14.1666 12.1271 14.1666 11.6668C14.1666 11.2066 14.5397 10.8335 14.9999 10.8335H16.6666C17.3296 10.8335 17.9655 11.0969 18.4344 11.5657C18.9032 12.0346 19.1666 12.6705 19.1666 13.3335V16.6668C19.1666 17.3299 18.9032 17.9658 18.4344 18.4346C17.9655 18.9034 17.3296 19.1668 16.6666 19.1668H3.33325C2.67021 19.1668 2.03433 18.9034 1.56549 18.4346C1.09664 17.9658 0.833252 17.3299 0.833252 16.6668V13.3335C0.833252 12.6705 1.09664 12.0346 1.56549 11.5657Z" fill="black"/>
<path fill-rule="evenodd" clip-rule="evenodd" d="M4.16675 4.99984C4.16675 4.5396 4.53984 4.1665 5.00008 4.1665H5.00841C5.46865 4.1665 5.84175 4.5396 5.84175 4.99984C5.84175 5.46007 5.46865 5.83317 5.00841 5.83317H5.00008C4.53984 5.83317 4.16675 5.46007 4.16675 4.99984Z" fill="black"/>
<path fill-rule="evenodd" clip-rule="evenodd" d="M4.16675 14.9998C4.16675 14.5396 4.53984 14.1665 5.00008 14.1665H5.00841C5.46865 14.1665 5.84175 14.5396 5.84175 14.9998C5.84175 15.4601 5.46865 15.8332 5.00841 15.8332H5.00008C4.53984 15.8332 4.16675 15.4601 4.16675 14.9998Z" fill="black"/>
<path fill-rule="evenodd" clip-rule="evenodd" d="M11.2957 4.30655C11.6786 4.56184 11.7821 5.07924 11.5268 5.46218L9.05718 9.16659H12.5001C12.8074 9.16659 13.0898 9.33575 13.2348 9.60671C13.3798 9.87768 13.3639 10.2065 13.1935 10.4622L9.86012 15.4622C9.60483 15.8451 9.08744 15.9486 8.7045 15.6933C8.32156 15.438 8.21808 14.9206 8.47337 14.5377L10.943 10.8333H7.50008C7.19275 10.8333 6.91037 10.6641 6.76535 10.3931C6.62034 10.1222 6.63623 9.79339 6.80671 9.53768L10.14 4.53768C10.3953 4.15474 10.9127 4.05126 11.2957 4.30655Z" fill="black"/>
</g>
<defs>
<clipPath id="clip0_2001_9741">
<rect width="20" height="20" fill="white"/>
</clipPath>
</defs>
</svg>
