<svg width="20" height="20" viewBox="0 0 20 20" fill="none" xmlns="http://www.w3.org/2000/svg">
<g clip-path="url(#clip0_2001_9727)">
<path fill-rule="evenodd" clip-rule="evenodd" d="M10.0001 8.33317C9.07961 8.33317 8.33341 9.07936 8.33341 9.99984C8.33341 10.9203 9.07961 11.6665 10.0001 11.6665C10.9206 11.6665 11.6667 10.9203 11.6667 9.99984C11.6667 9.07936 10.9206 8.33317 10.0001 8.33317ZM6.66675 9.99984C6.66675 8.15889 8.15913 6.6665 10.0001 6.6665C11.841 6.6665 13.3334 8.15889 13.3334 9.99984C13.3334 11.8408 11.841 13.3332 10.0001 13.3332C8.15913 13.3332 6.66675 11.8408 6.66675 9.99984Z" fill="black"/>
<path fill-rule="evenodd" clip-rule="evenodd" d="M3.33325 2.50016C3.11224 2.50016 2.90028 2.58796 2.744 2.74424C2.58772 2.90052 2.49992 3.11248 2.49992 3.3335V6.66683C2.49992 6.88784 2.58772 7.0998 2.744 7.25608C2.90028 7.41236 3.11224 7.50016 3.33325 7.50016H3.74992C4.21016 7.50016 4.58325 7.87326 4.58325 8.3335C4.58325 8.79373 4.21016 9.16683 3.74992 9.16683H3.33325C2.67021 9.16683 2.03433 8.90344 1.56549 8.4346C1.09664 7.96575 0.833252 7.32987 0.833252 6.66683V3.3335C0.833252 2.67045 1.09664 2.03457 1.56549 1.56573C2.03433 1.09689 2.67021 0.833496 3.33325 0.833496H16.6666C17.3296 0.833496 17.9655 1.09689 18.4344 1.56573C18.9032 2.03457 19.1666 2.67045 19.1666 3.3335V6.66683C19.1666 7.32987 18.9032 7.96576 18.4344 8.4346C17.9655 8.90344 17.3296 9.16683 16.6666 9.16683H16.2499C15.7897 9.16683 15.4166 8.79373 15.4166 8.3335C15.4166 7.87326 15.7897 7.50016 16.2499 7.50016H16.6666C16.8876 7.50016 17.0996 7.41237 17.2558 7.25608C17.4121 7.0998 17.4999 6.88784 17.4999 6.66683V3.3335C17.4999 3.11248 17.4121 2.90052 17.2558 2.74424C17.0996 2.58796 16.8876 2.50016 16.6666 2.50016H3.33325Z" fill="black"/>
<path fill-rule="evenodd" clip-rule="evenodd" d="M1.56549 11.5657C2.03433 11.0969 2.67021 10.8335 3.33325 10.8335H3.74992C4.21016 10.8335 4.58325 11.2066 4.58325 11.6668C4.58325 12.1271 4.21016 12.5002 3.74992 12.5002H3.33325C3.11224 12.5002 2.90028 12.588 2.744 12.7442C2.58772 12.9005 2.49992 13.1125 2.49992 13.3335V16.6668C2.49992 16.8878 2.58772 17.0998 2.744 17.2561C2.90028 17.4124 3.11224 17.5002 3.33325 17.5002H16.6666C16.8876 17.5002 17.0996 17.4124 17.2558 17.2561C17.4121 17.0998 17.4999 16.8878 17.4999 16.6668V13.3335C17.4999 13.1125 17.4121 12.9005 17.2558 12.7442C17.0996 12.588 16.8876 12.5002 16.6666 12.5002H16.2499C15.7897 12.5002 15.4166 12.1271 15.4166 11.6668C15.4166 11.2066 15.7897 10.8335 16.2499 10.8335H16.6666C17.3296 10.8335 17.9655 11.0969 18.4344 11.5657C18.9032 12.0346 19.1666 12.6705 19.1666 13.3335V16.6668C19.1666 17.3299 18.9032 17.9658 18.4344 18.4346C17.9655 18.9034 17.3296 19.1668 16.6666 19.1668H3.33325C2.67021 19.1668 2.03433 18.9034 1.56549 18.4346C1.09664 17.9658 0.833252 17.3299 0.833252 16.6668V13.3335C0.833252 12.6705 1.09664 12.0346 1.56549 11.5657Z" fill="black"/>
<path fill-rule="evenodd" clip-rule="evenodd" d="M4.16675 4.99984C4.16675 4.5396 4.53984 4.1665 5.00008 4.1665H5.00841C5.46865 4.1665 5.84175 4.5396 5.84175 4.99984C5.84175 5.46007 5.46865 5.83317 5.00841 5.83317H5.00008C4.53984 5.83317 4.16675 5.46007 4.16675 4.99984Z" fill="black"/>
<path fill-rule="evenodd" clip-rule="evenodd" d="M4.16675 14.9998C4.16675 14.5396 4.53984 14.1665 5.00008 14.1665H5.00841C5.46865 14.1665 5.84175 14.5396 5.84175 14.9998C5.84175 15.4601 5.46865 15.8332 5.00841 15.8332H5.00008C4.53984 15.8332 4.16675 15.4601 4.16675 14.9998Z" fill="black"/>
<path fill-rule="evenodd" clip-rule="evenodd" d="M11.5427 10.653C11.6883 10.2164 12.1602 9.98046 12.5968 10.126L13.3468 10.376C13.7835 10.5215 14.0194 10.9935 13.8739 11.4301C13.7283 11.8667 13.2564 12.1027 12.8198 11.9571L12.0698 11.7071C11.6332 11.5616 11.3972 11.0897 11.5427 10.653Z" fill="black"/>
<path fill-rule="evenodd" clip-rule="evenodd" d="M6.12624 8.56955C6.27178 8.13293 6.74371 7.89696 7.18033 8.0425L7.93033 8.2925C8.36695 8.43804 8.60292 8.90997 8.45738 9.34659C8.31184 9.78321 7.83991 10.0192 7.40329 9.87364L6.65329 9.62364C6.21667 9.4781 5.9807 9.00617 6.12624 8.56955Z" fill="black"/>
<path fill-rule="evenodd" clip-rule="evenodd" d="M9.34684 11.543C9.78346 11.6885 10.0194 12.1605 9.87388 12.5971L9.62388 13.3471C9.47835 13.7837 9.00641 14.0197 8.56979 13.8741C8.13317 13.7286 7.89721 13.2567 8.04275 12.82L8.29275 12.07C8.43828 11.6334 8.91022 11.3975 9.34684 11.543Z" fill="black"/>
<path fill-rule="evenodd" clip-rule="evenodd" d="M10.6906 11.4763C11.1179 11.3054 11.6029 11.5132 11.7738 11.9406L12.1071 12.7739C12.2781 13.2012 12.0702 13.6862 11.6429 13.8571C11.2156 14.0281 10.7306 13.8202 10.5597 13.3929L10.2263 12.5596C10.0554 12.1322 10.2632 11.6473 10.6906 11.4763Z" fill="black"/>
<path fill-rule="evenodd" clip-rule="evenodd" d="M8.35731 6.14283C8.78463 5.9719 9.26961 6.17975 9.44054 6.60707L9.77387 7.4404C9.9448 7.86772 9.73695 8.3527 9.30963 8.52363C8.88231 8.69455 8.39734 8.48671 8.22641 8.05939L7.89308 7.22606C7.72215 6.79874 7.92999 6.31376 8.35731 6.14283Z" fill="black"/>
<path fill-rule="evenodd" clip-rule="evenodd" d="M8.52387 10.6906C8.6948 11.1179 8.48695 11.6029 8.05963 11.7738L7.2263 12.1071C6.79898 12.2781 6.314 12.0702 6.14308 11.6429C5.97215 11.2156 6.17999 10.7306 6.60731 10.5597L7.44065 10.2263C7.86797 10.0554 8.35294 10.2632 8.52387 10.6906Z" fill="black"/>
<path fill-rule="evenodd" clip-rule="evenodd" d="M13.8571 8.35707C14.0281 8.78439 13.8202 9.26937 13.3929 9.44029L12.5596 9.77363C12.1322 9.94455 11.6473 9.73671 11.4763 9.30939C11.3054 8.88207 11.5132 8.39709 11.9406 8.22617L12.7739 7.89283C13.2012 7.7219 13.6862 7.92975 13.8571 8.35707Z" fill="black"/>
<path fill-rule="evenodd" clip-rule="evenodd" d="M11.4303 6.126C11.867 6.27154 12.1029 6.74347 11.9574 7.18009L11.7074 7.93009C11.5618 8.36671 11.0899 8.60268 10.6533 8.45714C10.2167 8.3116 9.9807 7.83966 10.1262 7.40304L10.3762 6.65304C10.5218 6.21643 10.9937 5.98046 11.4303 6.126Z" fill="black"/>
</g>
<defs>
<clipPath id="clip0_2001_9727">
<rect width="20" height="20" fill="white"/>
</clipPath>
</defs>
</svg>
