<svg width="20" height="20" viewBox="0 0 20 20" fill="none" xmlns="http://www.w3.org/2000/svg">
<g clip-path="url(#clip0_2001_9754)">
<path fill-rule="evenodd" clip-rule="evenodd" d="M3.33325 2.50016C2.87301 2.50016 2.49992 2.87326 2.49992 3.3335V6.66683C2.49992 7.12707 2.87301 7.50016 3.33325 7.50016H16.6666C17.1268 7.50016 17.4999 7.12707 17.4999 6.66683V3.3335C17.4999 2.87326 17.1268 2.50016 16.6666 2.50016H3.33325ZM0.833252 3.3335C0.833252 1.95278 1.95254 0.833496 3.33325 0.833496H16.6666C18.0473 0.833496 19.1666 1.95278 19.1666 3.3335V6.66683C19.1666 8.04754 18.0473 9.16683 16.6666 9.16683H3.33325C1.95254 9.16683 0.833252 8.04754 0.833252 6.66683V3.3335Z" fill="black"/>
<path fill-rule="evenodd" clip-rule="evenodd" d="M3.33325 12.5002C2.87301 12.5002 2.49992 12.8733 2.49992 13.3335V16.6668C2.49992 17.1271 2.87301 17.5002 3.33325 17.5002H16.6666C17.1268 17.5002 17.4999 17.1271 17.4999 16.6668V13.3335C17.4999 12.8733 17.1268 12.5002 16.6666 12.5002H3.33325ZM0.833252 13.3335C0.833252 11.9528 1.95254 10.8335 3.33325 10.8335H16.6666C18.0473 10.8335 19.1666 11.9528 19.1666 13.3335V16.6668C19.1666 18.0475 18.0473 19.1668 16.6666 19.1668H3.33325C1.95254 19.1668 0.833252 18.0475 0.833252 16.6668V13.3335Z" fill="black"/>
<path fill-rule="evenodd" clip-rule="evenodd" d="M4.16675 4.99984C4.16675 4.5396 4.53984 4.1665 5.00008 4.1665H5.00841C5.46865 4.1665 5.84175 4.5396 5.84175 4.99984C5.84175 5.46007 5.46865 5.83317 5.00841 5.83317H5.00008C4.53984 5.83317 4.16675 5.46007 4.16675 4.99984Z" fill="black"/>
<path fill-rule="evenodd" clip-rule="evenodd" d="M4.16675 14.9998C4.16675 14.5396 4.53984 14.1665 5.00008 14.1665H5.00841C5.46865 14.1665 5.84175 14.5396 5.84175 14.9998C5.84175 15.4601 5.46865 15.8332 5.00841 15.8332H5.00008C4.53984 15.8332 4.16675 15.4601 4.16675 14.9998Z" fill="black"/>
</g>
<defs>
<clipPath id="clip0_2001_9754">
<rect width="20" height="20" fill="white"/>
</clipPath>
</defs>
</svg>
