<svg width="20" height="20" viewBox="0 0 20 20" fill="none" xmlns="http://www.w3.org/2000/svg">
<path fill-rule="evenodd" clip-rule="evenodd" d="M8.33325 5.83333C8.33325 5.3731 8.70635 5 9.16659 5H16.6666C17.1268 5 17.4999 5.3731 17.4999 5.83333C17.4999 6.29357 17.1268 6.66667 16.6666 6.66667H9.16659C8.70635 6.66667 8.33325 6.29357 8.33325 5.83333Z" fill="black"/>
<path fill-rule="evenodd" clip-rule="evenodd" d="M3.33325 14.1668C3.33325 13.7066 3.70635 13.3335 4.16659 13.3335H11.6666C12.1268 13.3335 12.4999 13.7066 12.4999 14.1668C12.4999 14.6271 12.1268 15.0002 11.6666 15.0002H4.16659C3.70635 15.0002 3.33325 14.6271 3.33325 14.1668Z" fill="black"/>
<path fill-rule="evenodd" clip-rule="evenodd" d="M14.1666 12.5002C13.2461 12.5002 12.4999 13.2464 12.4999 14.1668C12.4999 15.0873 13.2461 15.8335 14.1666 15.8335C15.0871 15.8335 15.8333 15.0873 15.8333 14.1668C15.8333 13.2464 15.0871 12.5002 14.1666 12.5002ZM10.8333 14.1668C10.8333 12.3259 12.3256 10.8335 14.1666 10.8335C16.0075 10.8335 17.4999 12.3259 17.4999 14.1668C17.4999 16.0078 16.0075 17.5002 14.1666 17.5002C12.3256 17.5002 10.8333 16.0078 10.8333 14.1668Z" fill="black"/>
<path fill-rule="evenodd" clip-rule="evenodd" d="M5.83333 4.16667C4.91286 4.16667 4.16667 4.91286 4.16667 5.83333C4.16667 6.75381 4.91286 7.5 5.83333 7.5C6.75381 7.5 7.5 6.75381 7.5 5.83333C7.5 4.91286 6.75381 4.16667 5.83333 4.16667ZM2.5 5.83333C2.5 3.99238 3.99238 2.5 5.83333 2.5C7.67428 2.5 9.16667 3.99238 9.16667 5.83333C9.16667 7.67428 7.67428 9.16667 5.83333 9.16667C3.99238 9.16667 2.5 7.67428 2.5 5.83333Z" fill="black"/>
</svg>
