<svg width="20" height="20" viewBox="0 0 20 20" fill="none" xmlns="http://www.w3.org/2000/svg">
<path fill-rule="evenodd" clip-rule="evenodd" d="M8.04898 1.56573C8.51783 1.09689 9.15371 0.833496 9.81675 0.833496H10.1834C10.8465 0.833496 11.4823 1.09689 11.9512 1.56573C12.42 2.03457 12.6834 2.67045 12.6834 3.3335L12.6834 3.48264C12.6834 3.48287 12.6834 3.48311 12.6834 3.48334C12.6837 3.62924 12.7223 3.77251 12.7953 3.89882C12.8684 4.02534 12.9735 4.13041 13.1001 4.20347C13.1008 4.2039 13.1015 4.20432 13.1023 4.20474L13.4584 4.41181C13.4587 4.41198 13.459 4.41215 13.4593 4.41232C13.5858 4.48513 13.7291 4.52345 13.8751 4.52345C14.0214 4.52345 14.1651 4.48495 14.2917 4.41181C14.2998 4.40714 14.308 4.4026 14.3163 4.3982L14.4303 4.3374C15.0012 4.0127 15.6771 3.92561 16.312 4.09537C16.9518 4.26645 17.4976 4.6844 17.8295 5.25749L18.0136 5.57543C18.3445 6.1491 18.4343 6.83064 18.2632 7.47043C18.0927 8.10794 17.6772 8.6521 17.1072 8.98437L16.9872 9.05641C16.9832 9.05881 16.9791 9.06118 16.9751 9.06352C16.8479 9.13694 16.7424 9.24266 16.6692 9.36998C16.5961 9.49729 16.5578 9.64168 16.5584 9.78852C16.5584 9.78963 16.5584 9.79073 16.5584 9.79183V10.2085C16.5584 10.2096 16.5584 10.2107 16.5584 10.2118C16.5578 10.3586 16.5961 10.503 16.6692 10.6304C16.7405 10.7543 16.8424 10.8578 16.9651 10.9309L17.0756 10.9899C17.0842 10.9944 17.0927 10.9992 17.1011 11.0041C17.6742 11.336 18.0921 11.8818 18.2632 12.5216C18.4339 13.1599 18.3449 13.8399 18.0158 14.4128L17.8342 14.7346C17.8327 14.7374 17.8311 14.7401 17.8295 14.7428C17.4976 15.3159 16.9518 15.7339 16.312 15.905C15.6771 16.0747 15.0012 15.9876 14.4303 15.6629L14.3163 15.6021C14.308 15.5977 14.2998 15.5932 14.2917 15.5885C14.1651 15.5154 14.0214 15.4769 13.8751 15.4769C13.7291 15.4769 13.5858 15.5152 13.4593 15.588C13.459 15.5882 13.4587 15.5883 13.4584 15.5885L13.1013 15.7961L13.1001 15.7969C12.9735 15.8699 12.8684 15.975 12.7953 16.1015C12.7223 16.2278 12.6837 16.3711 12.6834 16.517C12.6834 16.5172 12.6834 16.5175 12.6834 16.5177L12.6834 16.6668C12.6834 17.3299 12.42 17.9658 11.9512 18.4346C11.4823 18.9034 10.8465 19.1668 10.1834 19.1668H9.81675C9.15371 19.1668 8.51783 18.9034 8.04898 18.4346C7.58014 17.9658 7.31675 17.3299 7.31675 16.6668L7.31675 16.5177C7.31675 16.5176 7.31675 16.5174 7.31675 16.5173C7.31653 16.3713 7.27796 16.2279 7.20489 16.1015C7.13176 15.975 7.02664 15.8699 6.90008 15.7969C6.89936 15.7964 6.89863 15.796 6.8979 15.7956L6.54175 15.5885C6.54146 15.5883 6.54116 15.5882 6.54086 15.588C6.4144 15.5152 6.27102 15.4769 6.12508 15.4769C5.97881 15.4769 5.8351 15.5154 5.70842 15.5885C5.70032 15.5932 5.69215 15.5977 5.68391 15.6021L5.56989 15.6629C4.999 15.9876 4.32302 16.0747 3.68815 15.905C3.04836 15.7339 2.50259 15.3159 2.17065 14.7428L1.98657 14.4249C1.65565 13.8512 1.56588 13.1697 1.73696 12.5299C1.90743 11.8924 2.32303 11.3482 2.89298 11.0159L3.01301 10.9439C3.01701 10.9415 3.02104 10.9391 3.02509 10.9368C3.15226 10.8634 3.25777 10.7577 3.33094 10.6304C3.40411 10.503 3.44234 10.3586 3.44176 10.2118C3.44175 10.2107 3.44175 10.2096 3.44175 10.2085V9.78644C3.44052 9.64173 3.40162 9.49983 3.32887 9.37471C3.25577 9.24898 3.15105 9.14457 3.0251 9.07186C3.0096 9.06291 2.99439 9.05347 2.9795 9.04354L2.87414 8.9733C2.31388 8.64008 1.90555 8.10091 1.73696 7.47043C1.56588 6.83064 1.65565 6.1491 1.98657 5.57543L2.17065 5.25749C2.50259 4.68441 3.04836 4.26645 3.68815 4.09537C4.32303 3.92561 4.99901 4.0127 5.56991 4.3374L5.68391 4.3982C5.69215 4.4026 5.70032 4.40714 5.70842 4.41181C5.8351 4.48495 5.9788 4.52345 6.12508 4.52345C6.27102 4.52345 6.4144 4.48513 6.54086 4.41232C6.54116 4.41215 6.54146 4.41198 6.54175 4.41181L6.8979 4.20474C6.89863 4.20432 6.89936 4.2039 6.90008 4.20347C7.02664 4.13041 7.13176 4.02534 7.20489 3.89882C7.27796 3.77242 7.31653 3.62904 7.31675 3.48304C7.31675 3.48291 7.31675 3.48277 7.31675 3.48264L7.31675 3.3335C7.31675 2.67045 7.58014 2.03457 8.04898 1.56573ZM9.81675 2.50016C9.59574 2.50016 9.38378 2.58796 9.2275 2.74424C9.07121 2.90052 8.98342 3.11248 8.98342 3.3335L8.98342 3.48435C8.98297 3.92276 8.86724 4.35334 8.64784 4.7329C8.42867 5.11206 8.11375 5.42699 7.73461 5.64616C7.73421 5.64639 7.73381 5.64662 7.73342 5.64685L7.37727 5.85392C7.37654 5.85434 7.37581 5.85476 7.37508 5.85518C6.99504 6.0746 6.56393 6.19012 6.12508 6.19012C5.69139 6.19012 5.26524 6.0773 4.88848 5.86286L4.7746 5.80212C4.76644 5.79778 4.75836 5.79329 4.75035 5.78867C4.55913 5.67837 4.33195 5.64844 4.11869 5.70547C3.90548 5.76248 3.72359 5.90174 3.61294 6.09269C3.61291 6.09274 3.61288 6.09279 3.61286 6.09284L3.43026 6.40823C3.43017 6.40838 3.43008 6.40854 3.42999 6.4087C3.31991 6.59982 3.29008 6.8268 3.34706 7.03989C3.40408 7.25316 3.5434 7.43508 3.73443 7.54573C3.74957 7.5545 3.76444 7.56375 3.779 7.57346L3.88391 7.6434C4.25039 7.86079 4.55538 8.16835 4.76972 8.537C4.98901 8.91418 5.10577 9.34218 5.1084 9.77847C5.10841 9.78014 5.10842 9.78182 5.10842 9.7835V10.207C5.10984 10.6469 4.99517 11.0794 4.77597 11.4608C4.55774 11.8405 4.24361 12.1562 3.86507 12.3763L3.7455 12.4481C3.74183 12.4503 3.73814 12.4525 3.73443 12.4546C3.5434 12.5652 3.40408 12.7472 3.34706 12.9604C3.29008 13.1735 3.3199 13.4005 3.42996 13.5916C3.43006 13.5918 3.43016 13.5919 3.43026 13.5921L3.61286 13.9075C3.61288 13.9075 3.61291 13.9076 3.61294 13.9076C3.7236 14.0986 3.90548 14.2378 4.11869 14.2949C4.33195 14.3519 4.55913 14.322 4.75035 14.2117C4.75836 14.207 4.76644 14.2026 4.7746 14.1982L4.88848 14.1375C5.26525 13.923 5.69139 13.8102 6.12508 13.8102C6.56393 13.8102 6.99504 13.9257 7.37508 14.1451L7.37615 14.1458L7.73342 14.3535C7.73384 14.3537 7.73426 14.354 7.73468 14.3542C8.11379 14.5734 8.42869 14.8883 8.64784 15.2674C8.86724 15.647 8.98297 16.0776 8.98342 16.516L8.98342 16.6668C8.98342 16.8878 9.07121 17.0998 9.2275 17.2561C9.38378 17.4124 9.59574 17.5002 9.81675 17.5002H10.1834C10.4044 17.5002 10.6164 17.4124 10.7727 17.2561C10.929 17.0998 11.0168 16.8878 11.0168 16.6668V16.516C11.0172 16.0776 11.1329 15.647 11.3523 15.2674C11.5715 14.8883 11.8864 14.5733 12.2656 14.3542C12.266 14.3539 12.2664 14.3537 12.2668 14.3535L12.6229 14.1464C12.6234 14.1461 12.624 14.1458 12.6245 14.1455L12.6251 14.1451C13.0051 13.9257 13.4362 13.8102 13.8751 13.8102C14.3088 13.8102 14.7349 13.923 15.1117 14.1375L15.2256 14.1982C15.2337 14.2026 15.2418 14.207 15.2498 14.2117C15.441 14.322 15.6682 14.3519 15.8815 14.2949C16.0935 14.2382 16.2745 14.1002 16.3853 13.9109L16.5659 13.5907C16.5672 13.5884 16.5686 13.5861 16.5699 13.5838C16.6802 13.3925 16.7101 13.1654 16.6531 12.9521C16.5971 12.7427 16.4618 12.5636 16.2762 12.4524L16.1663 12.3938C16.158 12.3894 16.1498 12.3849 16.1418 12.3802C15.7602 12.1599 15.4437 11.8428 15.2242 11.4608C15.005 11.0795 14.8904 10.647 14.8918 10.2072V9.79315C14.8904 9.35331 15.005 8.92087 15.2242 8.5395C15.4424 8.15979 15.7566 7.84411 16.1351 7.62401L16.2547 7.55225C16.2583 7.55005 16.262 7.54787 16.2657 7.54573C16.4568 7.43508 16.5961 7.25316 16.6531 7.03989C16.7101 6.82673 16.6802 6.59967 16.5701 6.40851C16.57 6.40842 16.57 6.40832 16.5699 6.40823L16.3873 6.09284C16.3873 6.09279 16.3873 6.09274 16.3872 6.09269C16.2766 5.90174 16.0947 5.76248 15.8815 5.70547C15.6682 5.64844 15.441 5.67837 15.2498 5.78867C15.2418 5.79329 15.2337 5.79777 15.2256 5.80212L15.1117 5.86286C14.7349 6.0773 14.3088 6.19012 13.8751 6.19012C13.4362 6.19012 13.0051 6.0746 12.6251 5.85518C12.6244 5.85476 12.6236 5.85434 12.6229 5.85392L12.2668 5.64685C12.2664 5.64664 12.266 5.64643 12.2657 5.64622C11.8865 5.42704 11.5715 5.11209 11.3523 4.7329C11.1329 4.35334 11.0172 3.92276 11.0168 3.48435V3.3335C11.0168 3.11248 10.929 2.90052 10.7727 2.74424C10.6164 2.58796 10.4044 2.50016 10.1834 2.50016H9.81675Z" fill="black"/>
<path fill-rule="evenodd" clip-rule="evenodd" d="M10.0001 8.33317C9.07961 8.33317 8.33341 9.07936 8.33341 9.99984C8.33341 10.9203 9.07961 11.6665 10.0001 11.6665C10.9206 11.6665 11.6667 10.9203 11.6667 9.99984C11.6667 9.07936 10.9206 8.33317 10.0001 8.33317ZM6.66675 9.99984C6.66675 8.15889 8.15913 6.6665 10.0001 6.6665C11.841 6.6665 13.3334 8.15889 13.3334 9.99984C13.3334 11.8408 11.841 13.3332 10.0001 13.3332C8.15913 13.3332 6.66675 11.8408 6.66675 9.99984Z" fill="black"/>
</svg>
