<svg width="20" height="20" viewBox="0 0 20 20" fill="none" xmlns="http://www.w3.org/2000/svg">
<path fill-rule="evenodd" clip-rule="evenodd" d="M10.0094 3.25542L7.33823 7.50016H12.6535L10.0094 3.25542ZM9.95921 1.36761C10.2031 1.35886 10.4452 1.41326 10.6619 1.52556C10.8785 1.63786 11.0626 1.80424 11.196 2.00857C11.1993 2.01358 11.2025 2.01864 11.2057 2.02372L14.2819 6.96209C14.4207 7.16938 14.5023 7.40979 14.5184 7.65904C14.535 7.91694 14.4808 8.17447 14.3616 8.40375C14.2423 8.63304 14.0627 8.82534 13.842 8.95984C13.6213 9.09434 13.3681 9.16592 13.1096 9.16683L13.1083 9.16683L6.93448 9.16683C6.68292 9.17564 6.43337 9.11726 6.21162 8.99746C5.98174 8.87328 5.79067 8.68795 5.65956 8.46195C5.52844 8.23595 5.46238 7.9781 5.46867 7.7169C5.47492 7.45776 5.55214 7.20535 5.69187 6.98712L8.78525 2.07142C8.9031 1.86868 9.06952 1.69823 9.2697 1.57553C9.47779 1.44799 9.7153 1.37637 9.95921 1.36761Z" fill="black"/>
<path fill-rule="evenodd" clip-rule="evenodd" d="M3.33341 12.5002V16.6668H7.50008V12.5002H3.33341ZM1.66675 12.5002C1.66675 11.5797 2.41294 10.8335 3.33341 10.8335H7.50008C8.42056 10.8335 9.16675 11.5797 9.16675 12.5002V16.6668C9.16675 17.5873 8.42056 18.3335 7.50008 18.3335H3.33341C2.41294 18.3335 1.66675 17.5873 1.66675 16.6668V12.5002Z" fill="black"/>
<path fill-rule="evenodd" clip-rule="evenodd" d="M14.5833 12.5002C13.4327 12.5002 12.4999 13.4329 12.4999 14.5835C12.4999 15.7341 13.4327 16.6668 14.5833 16.6668C15.7338 16.6668 16.6666 15.7341 16.6666 14.5835C16.6666 13.4329 15.7338 12.5002 14.5833 12.5002ZM10.8333 14.5835C10.8333 12.5124 12.5122 10.8335 14.5833 10.8335C16.6543 10.8335 18.3333 12.5124 18.3333 14.5835C18.3333 16.6546 16.6543 18.3335 14.5833 18.3335C12.5122 18.3335 10.8333 16.6546 10.8333 14.5835Z" fill="black"/>
</svg>
