<svg width="20" height="20" viewBox="0 0 20 20" fill="none" xmlns="http://www.w3.org/2000/svg">
<path fill-rule="evenodd" clip-rule="evenodd" d="M3.33333 9.1665C3.79357 9.1665 4.16667 9.5396 4.16667 9.99984V16.6665C4.16667 16.8875 4.25446 17.0995 4.41074 17.2558C4.56702 17.412 4.77899 17.4998 5 17.4998H15C15.221 17.4998 15.433 17.412 15.5893 17.2558C15.7455 17.0995 15.8333 16.8875 15.8333 16.6665V9.99984C15.8333 9.5396 16.2064 9.1665 16.6667 9.1665C17.1269 9.1665 17.5 9.5396 17.5 9.99984V16.6665C17.5 17.3295 17.2366 17.9654 16.7678 18.4343C16.2989 18.9031 15.663 19.1665 15 19.1665H5C4.33696 19.1665 3.70107 18.9031 3.23223 18.4343C2.76339 17.9654 2.5 17.3295 2.5 16.6665V9.99984C2.5 9.5396 2.8731 9.1665 3.33333 9.1665Z" fill="black"/>
<path fill-rule="evenodd" clip-rule="evenodd" d="M9.41066 1.07757C9.7361 0.752137 10.2637 0.752137 10.5892 1.07757L13.9225 4.41091C14.2479 4.73634 14.2479 5.26398 13.9225 5.58942C13.5971 5.91486 13.0694 5.91486 12.744 5.58942L9.99992 2.84534L7.25584 5.58942C6.9304 5.91486 6.40277 5.91486 6.07733 5.58942C5.75189 5.26398 5.75189 4.73634 6.07733 4.41091L9.41066 1.07757Z" fill="black"/>
<path fill-rule="evenodd" clip-rule="evenodd" d="M10.0001 0.833496C10.4603 0.833496 10.8334 1.20659 10.8334 1.66683V12.5002C10.8334 12.9604 10.4603 13.3335 10.0001 13.3335C9.53984 13.3335 9.16675 12.9604 9.16675 12.5002V1.66683C9.16675 1.20659 9.53984 0.833496 10.0001 0.833496Z" fill="black"/>
</svg>
