<svg width="20" height="20" viewBox="0 0 20 20" fill="none" xmlns="http://www.w3.org/2000/svg">
<path fill-rule="evenodd" clip-rule="evenodd" d="M15.0001 2.50016C14.0796 2.50016 13.3334 3.24635 13.3334 4.16683C13.3334 5.0873 14.0796 5.8335 15.0001 5.8335C15.9206 5.8335 16.6667 5.0873 16.6667 4.16683C16.6667 3.24635 15.9206 2.50016 15.0001 2.50016ZM11.6667 4.16683C11.6667 2.32588 13.1591 0.833496 15.0001 0.833496C16.841 0.833496 18.3334 2.32588 18.3334 4.16683C18.3334 6.00778 16.841 7.50016 15.0001 7.50016C13.1591 7.50016 11.6667 6.00778 11.6667 4.16683Z" fill="black"/>
<path fill-rule="evenodd" clip-rule="evenodd" d="M5.00008 8.33317C4.07961 8.33317 3.33341 9.07936 3.33341 9.99984C3.33341 10.9203 4.07961 11.6665 5.00008 11.6665C5.92056 11.6665 6.66675 10.9203 6.66675 9.99984C6.66675 9.07936 5.92056 8.33317 5.00008 8.33317ZM1.66675 9.99984C1.66675 8.15889 3.15913 6.6665 5.00008 6.6665C6.84103 6.6665 8.33341 8.15889 8.33341 9.99984C8.33341 11.8408 6.84103 13.3332 5.00008 13.3332C3.15913 13.3332 1.66675 11.8408 1.66675 9.99984Z" fill="black"/>
<path fill-rule="evenodd" clip-rule="evenodd" d="M15.0001 14.1667C14.0796 14.1667 13.3334 14.9129 13.3334 15.8333C13.3334 16.7538 14.0796 17.5 15.0001 17.5C15.9206 17.5 16.6667 16.7538 16.6667 15.8333C16.6667 14.9129 15.9206 14.1667 15.0001 14.1667ZM11.6667 15.8333C11.6667 13.9924 13.1591 12.5 15.0001 12.5C16.841 12.5 18.3334 13.9924 18.3334 15.8333C18.3334 17.6743 16.841 19.1667 15.0001 19.1667C13.1591 19.1667 11.6667 17.6743 11.6667 15.8333Z" fill="black"/>
<path fill-rule="evenodd" clip-rule="evenodd" d="M6.43841 10.8387C6.67013 10.4411 7.18034 10.3065 7.57799 10.5383L13.2697 13.8549C13.6673 14.0867 13.8018 14.5969 13.5701 14.9945C13.3384 15.3922 12.8282 15.5267 12.4305 15.2949L6.73886 11.9783C6.34121 11.7466 6.20669 11.2364 6.43841 10.8387Z" fill="black"/>
<path fill-rule="evenodd" clip-rule="evenodd" d="M13.5615 5.00475C13.7935 5.40225 13.6593 5.91254 13.2618 6.14452L7.57844 9.46118C7.18094 9.69316 6.67065 9.55897 6.43868 9.16147C6.20671 8.76397 6.3409 8.25368 6.7384 8.0217L12.4217 4.70504C12.8192 4.47307 13.3295 4.60725 13.5615 5.00475Z" fill="black"/>
</svg>
