<svg width="20" height="20" viewBox="0 0 20 20" fill="none" xmlns="http://www.w3.org/2000/svg">
<path fill-rule="evenodd" clip-rule="evenodd" d="M5.26841 3.2779C5.15817 3.24982 5.04335 3.24461 4.93101 3.26259C4.81868 3.28057 4.71122 3.32136 4.61525 3.38244C4.51928 3.44353 4.43683 3.52362 4.37299 3.61778C4.36482 3.62982 4.35634 3.64165 4.34755 3.65325C3.14606 5.23954 2.49711 7.17565 2.49993 9.16559L2.49993 9.16677C2.49993 11.1559 3.2901 13.0635 4.69663 14.4701C6.10315 15.8766 8.01081 16.6668 9.99993 16.6668C11.9891 16.6668 13.8967 15.8766 15.3032 14.4701C16.7098 13.0635 17.4999 11.1559 17.4999 9.16677C17.4999 7.61967 16.8853 6.13594 15.7914 5.04198C14.6974 3.94802 13.2137 3.33344 11.6666 3.33344C10.1195 3.33344 8.63577 3.94802 7.54181 5.04198C7.37545 5.20834 7.22018 5.38371 7.07647 5.56694C7.05519 5.59587 7.03327 5.62436 7.01072 5.65238C6.251 6.65883 5.83326 7.89127 5.83326 9.16677C5.83326 10.2718 6.27225 11.3316 7.05365 12.113C7.83505 12.8944 8.89486 13.3334 9.99993 13.3334C11.105 13.3334 12.1648 12.8944 12.9462 12.113C13.7276 11.3316 14.1666 10.2718 14.1666 9.16677C14.1666 8.50373 13.9032 7.86784 13.4344 7.399C12.9655 6.93016 12.3296 6.66677 11.6666 6.66677C11.0036 6.66677 10.3677 6.93016 9.89883 7.399C9.42999 7.86784 9.1666 8.50373 9.1666 9.16677C9.1666 9.38778 9.25439 9.59974 9.41067 9.75602C9.56695 9.9123 9.77892 10.0001 9.99993 10.0001C10.2209 10.0001 10.4329 9.9123 10.5892 9.75602C10.7455 9.59974 10.8333 9.38778 10.8333 9.16677C10.8333 8.70653 11.2064 8.33344 11.6666 8.33344C12.1268 8.33344 12.4999 8.70653 12.4999 9.16677C12.4999 9.82981 12.2365 10.4657 11.7677 10.9345C11.2989 11.4034 10.663 11.6668 9.99993 11.6668C9.33689 11.6668 8.701 11.4034 8.23216 10.9345C7.76332 10.4657 7.49993 9.82981 7.49993 9.16677C7.49993 8.0617 7.93892 7.00189 8.72032 6.22049C9.50172 5.43909 10.5615 5.0001 11.6666 5.0001C12.7717 5.0001 13.8315 5.43909 14.6129 6.22049C15.3943 7.00189 15.8333 8.0617 15.8333 9.16677C15.8333 10.7139 15.2187 12.1976 14.1247 13.2916C13.0308 14.3855 11.547 15.0001 9.99993 15.0001C8.45283 15.0001 6.9691 14.3855 5.87514 13.2916C4.78118 12.1976 4.1666 10.7139 4.1666 9.16677C4.1666 7.57071 4.67533 6.02711 5.60301 4.75276C5.62795 4.71155 5.65682 4.67194 5.68966 4.63444C5.69347 4.63008 5.69724 4.62569 5.70096 4.62126C5.71527 4.60248 5.72967 4.58376 5.74417 4.5651C5.79249 4.49646 5.83025 4.42077 5.85605 4.34053C5.89087 4.23223 5.90315 4.11795 5.89213 4.00472C5.88111 3.89149 5.84703 3.78172 5.79197 3.68217C5.73692 3.58262 5.66207 3.49539 5.57202 3.42586C5.48198 3.35633 5.37865 3.30598 5.26841 3.2779ZM7.33537 3.04378C7.30924 2.98677 7.28093 2.93067 7.25048 2.87561C7.08532 2.57695 6.86075 2.31527 6.59063 2.10669C6.3205 1.89811 6.01052 1.74704 5.6798 1.6628C5.34907 1.57856 5.0046 1.56293 4.6676 1.61687C4.33061 1.67081 4.00823 1.79318 3.72032 1.97643C3.43904 2.15546 3.19649 2.38891 3.00687 2.66296C1.59339 4.53636 0.830068 6.82019 0.833262 9.16737C0.83342 11.5983 1.79917 13.9296 3.51812 15.6486C5.2372 17.3677 7.56878 18.3334 9.99993 18.3334C12.4311 18.3334 14.7627 17.3677 16.4817 15.6486C18.2008 13.9295 19.1666 11.5979 19.1666 9.16677C19.1666 7.17765 18.3764 5.26999 16.9699 3.86347C15.5634 2.45695 13.6557 1.66677 11.6666 1.66677C10.1049 1.66677 8.59351 2.15381 7.33537 3.04378Z" fill="black"/>
</svg>
