<svg width="20" height="20" viewBox="0 0 20 20" fill="none" xmlns="http://www.w3.org/2000/svg">
<g clip-path="url(#clip0_2001_9810)">
<path fill-rule="evenodd" clip-rule="evenodd" d="M1.07733 1.07757C1.40277 0.752137 1.9304 0.752137 2.25584 1.07757L18.9225 17.7442C19.2479 18.0697 19.2479 18.5973 18.9225 18.9228C18.5971 19.2482 18.0694 19.2482 17.744 18.9228L1.07733 2.25609C0.751893 1.93065 0.751893 1.40301 1.07733 1.07757Z" fill="black"/>
<path fill-rule="evenodd" clip-rule="evenodd" d="M2.98816 3.82165C3.30072 3.50909 3.72464 3.3335 4.16667 3.3335C4.6269 3.3335 5 3.70659 5 4.16683C5 4.62707 4.6269 5.00016 4.16667 5.00016L4.16667 10.8335C4.16667 12.6968 4.80899 14.051 5.82229 15.0888C6.85828 16.1498 8.31978 16.9166 9.99701 17.4958C10.0033 17.498 10.0096 17.5002 10.0158 17.5026C11.9071 16.8418 13.5126 15.9498 14.5544 14.6733C14.8454 14.3167 15.3703 14.2635 15.7269 14.5545C16.0835 14.8455 16.1366 15.3705 15.8456 15.7271C14.522 17.3489 12.5802 18.373 10.5579 19.0786C10.5555 19.0795 10.5532 19.0803 10.5508 19.0811C10.1914 19.2029 9.80134 19.1983 9.44505 19.0684C7.65012 18.4478 5.91899 17.5735 4.62979 16.2532C3.31601 14.9076 2.5 13.1369 2.5 10.8335V5.00016C2.5 4.55813 2.6756 4.13421 2.98816 3.82165Z" fill="black"/>
<path fill-rule="evenodd" clip-rule="evenodd" d="M9.90932 2.53254C9.37142 2.99877 8.7897 3.41191 8.17228 3.76618C7.77309 3.99523 7.2638 3.85731 7.03475 3.45812C6.8057 3.05893 6.94362 2.54964 7.34281 2.32058C7.86818 2.01913 8.3631 1.66748 8.82064 1.27057C8.82222 1.26919 8.82381 1.26783 8.8254 1.26647C9.15284 0.986713 9.56938 0.833008 10 0.833008C10.4307 0.833008 10.8473 0.986713 11.1747 1.26647C11.1771 1.26852 11.1795 1.27059 11.1819 1.27268C12.5481 2.46719 14.4358 3.33338 15.8334 3.33338C16.2754 3.33338 16.6993 3.50898 17.0119 3.82154C17.3245 4.1341 17.5 4.55802 17.5 5.00005L17.5 10.8321C17.5 10.8323 17.5 10.8325 17.5 10.8327C17.5006 11.2207 17.4761 11.6083 17.4266 11.9931C17.3678 12.4495 16.9502 12.772 16.4937 12.7132C16.0372 12.6545 15.7148 12.2368 15.7735 11.7804C15.8139 11.4668 15.8339 11.1509 15.8334 10.8347L15.8334 5.00005C13.8998 5.00005 11.6404 3.88543 10.0901 2.532C10.0648 2.51112 10.0329 2.49967 10 2.49967C9.96687 2.49967 9.93477 2.51132 9.90932 2.53254Z" fill="black"/>
</g>
<defs>
<clipPath id="clip0_2001_9810">
<rect width="20" height="20" fill="white"/>
</clipPath>
</defs>
</svg>
