<svg width="20" height="20" viewBox="0 0 20 20" fill="none" xmlns="http://www.w3.org/2000/svg">
<path fill-rule="evenodd" clip-rule="evenodd" d="M9.90985 2.53206C8.36869 3.87649 6.10089 5.00005 4.16667 5.00005V10.8334C4.16667 12.6967 4.80899 14.0509 5.82229 15.0887C6.85828 16.1497 8.31978 16.9165 9.99701 17.4957C10.0033 17.4979 10.0096 17.5001 10.0158 17.5024C11.6867 16.9193 13.1442 16.1512 14.1782 15.0903C15.191 14.0512 15.8333 12.6966 15.8333 10.8334V5.00005C13.8998 5.00005 11.6403 3.88543 10.0901 2.532C10.0647 2.51112 10.0329 2.49967 10 2.49967C9.96708 2.49967 9.93521 2.51114 9.90985 2.53206ZM8.82536 1.26647C9.1528 0.986713 9.56933 0.833008 10 0.833008C10.4307 0.833008 10.8472 0.986713 11.1746 1.26647C11.1771 1.26852 11.1795 1.27059 11.1818 1.27268C12.5481 2.46719 14.4357 3.33338 15.8333 3.33338C16.2754 3.33338 16.6993 3.50898 17.0118 3.82154C17.3244 4.1341 17.5 4.55802 17.5 5.00005V10.8334C17.5 13.1368 16.684 14.9073 15.3718 16.2536C14.0822 17.5766 12.3505 18.4537 10.5576 19.0786C10.5553 19.0794 10.5531 19.0802 10.5508 19.081C10.1914 19.2028 9.8013 19.1982 9.445 19.0683C7.65008 18.4477 5.91897 17.5734 4.62979 16.2531C3.31601 14.9075 2.5 13.1368 2.5 10.8334V5.00005C2.5 4.55802 2.6756 4.1341 2.98816 3.82154C3.30072 3.50898 3.72464 3.33338 4.16667 3.33338C5.56366 3.33338 7.45968 2.45941 8.81842 1.27246C8.82072 1.27045 8.82303 1.26845 8.82536 1.26647Z" fill="black"/>
<path fill-rule="evenodd" clip-rule="evenodd" d="M5.83325 9.99984C5.83325 9.5396 6.20635 9.1665 6.66659 9.1665H6.67492C7.13516 9.1665 7.50825 9.5396 7.50825 9.99984C7.50825 10.4601 7.13516 10.8332 6.67492 10.8332H6.66659C6.20635 10.8332 5.83325 10.4601 5.83325 9.99984Z" fill="black"/>
<path fill-rule="evenodd" clip-rule="evenodd" d="M9.16675 9.99984C9.16675 9.5396 9.53984 9.1665 10.0001 9.1665H10.0084C10.4687 9.1665 10.8417 9.5396 10.8417 9.99984C10.8417 10.4601 10.4687 10.8332 10.0084 10.8332H10.0001C9.53984 10.8332 9.16675 10.4601 9.16675 9.99984Z" fill="black"/>
<path fill-rule="evenodd" clip-rule="evenodd" d="M12.5 9.99984C12.5 9.5396 12.8731 9.1665 13.3333 9.1665H13.3417C13.8019 9.1665 14.175 9.5396 14.175 9.99984C14.175 10.4601 13.8019 10.8332 13.3417 10.8332H13.3333C12.8731 10.8332 12.5 10.4601 12.5 9.99984Z" fill="black"/>
</svg>
