<svg width="20" height="20" viewBox="0 0 20 20" fill="none" xmlns="http://www.w3.org/2000/svg">
<path fill-rule="evenodd" clip-rule="evenodd" d="M9.90985 2.53206C8.36869 3.87649 6.10089 5.00005 4.16667 5.00005V10.8334C4.16667 12.6967 4.80899 14.0509 5.82229 15.0887C6.85828 16.1497 8.31978 16.9165 9.99701 17.4957C10.0033 17.4979 10.0096 17.5001 10.0158 17.5024C11.6867 16.9193 13.1442 16.1512 14.1782 15.0903C15.191 14.0512 15.8333 12.6966 15.8333 10.8334V5.00005C13.8998 5.00005 11.6403 3.88543 10.0901 2.532C10.0647 2.51112 10.0329 2.49967 10 2.49967C9.96708 2.49967 9.93521 2.51114 9.90985 2.53206ZM8.82536 1.26647C9.1528 0.986713 9.56933 0.833008 10 0.833008C10.4307 0.833008 10.8472 0.986713 11.1746 1.26647C11.1771 1.26852 11.1795 1.27059 11.1818 1.27268C12.5481 2.46719 14.4357 3.33338 15.8333 3.33338C16.2754 3.33338 16.6993 3.50898 17.0118 3.82154C17.3244 4.1341 17.5 4.55802 17.5 5.00005V10.8334C17.5 13.1368 16.684 14.9073 15.3718 16.2536C14.0822 17.5766 12.3505 18.4537 10.5576 19.0786C10.5553 19.0794 10.5531 19.0802 10.5508 19.081C10.1914 19.2028 9.8013 19.1982 9.445 19.0683C7.65008 18.4477 5.91897 17.5734 4.62979 16.2531C3.31601 14.9075 2.5 13.1368 2.5 10.8334V5.00005C2.5 4.55802 2.6756 4.1341 2.98816 3.82154C3.30072 3.50898 3.72464 3.33338 4.16667 3.33338C5.56366 3.33338 7.45968 2.45941 8.81842 1.27246C8.82072 1.27045 8.82303 1.26845 8.82536 1.26647Z" fill="black"/>
<path fill-rule="evenodd" clip-rule="evenodd" d="M10.2156 6.71027C9.8304 6.64409 9.43417 6.71539 9.09619 6.91173C8.75821 7.10808 8.5 7.41696 8.36667 7.78439C8.20969 8.21702 7.73171 8.44048 7.29907 8.2835C6.86644 8.12652 6.64297 7.64854 6.79996 7.2159C7.0666 6.48104 7.58304 5.86328 8.25899 5.4706C8.93495 5.07792 9.72741 4.9353 10.4979 5.06768C11.2683 5.20006 11.9677 5.59901 12.4738 6.1948C12.9799 6.79058 13.2606 7.5453 13.2666 8.32701C13.2666 8.32917 13.2666 8.33132 13.2666 8.33348C13.2666 9.6092 12.3209 10.4516 11.6456 10.9019C11.2825 11.1439 10.9254 11.3218 10.6624 11.4387C10.5297 11.4977 10.4179 11.5425 10.3374 11.5732C10.2971 11.5885 10.2644 11.6004 10.2406 11.6089C10.2287 11.6131 10.219 11.6165 10.2116 11.619C10.208 11.6203 10.2049 11.6213 10.2024 11.6222C10.2012 11.6226 10.2001 11.623 10.1992 11.6233L10.1979 11.6237L10.1973 11.6239C10.1971 11.624 10.1968 11.624 9.93332 10.8335L10.1968 11.624C9.76022 11.7696 9.28829 11.5336 9.14275 11.097C8.9974 10.661 9.23256 10.1897 9.66808 10.0435C9.66832 10.0434 9.66875 10.0433 9.66935 10.043C9.67148 10.0423 9.67581 10.0408 9.68222 10.0385C9.69504 10.034 9.71605 10.0264 9.74408 10.0157C9.80027 9.99427 9.88383 9.9609 9.98549 9.91572C10.1912 9.8243 10.4591 9.68975 10.7211 9.5151C11.2943 9.13295 11.5984 8.72647 11.6 8.33643C11.5961 7.94682 11.4559 7.57083 11.2036 7.27383C10.9506 6.97594 10.6008 6.77646 10.2156 6.71027ZM9.66922 10.0431C9.66927 10.0431 9.66931 10.0431 9.66936 10.0431C9.66936 10.0431 9.66936 10.0431 9.66936 10.0431" fill="black"/>
<path fill-rule="evenodd" clip-rule="evenodd" d="M9.16675 14.1668C9.16675 13.7066 9.53984 13.3335 10.0001 13.3335H10.0084C10.4687 13.3335 10.8417 13.7066 10.8417 14.1668C10.8417 14.6271 10.4687 15.0002 10.0084 15.0002H10.0001C9.53984 15.0002 9.16675 14.6271 9.16675 14.1668Z" fill="black"/>
</svg>
