<svg width="20" height="20" viewBox="0 0 20 20" fill="none" xmlns="http://www.w3.org/2000/svg">
<g clip-path="url(#clip0_2001_9828)">
<path fill-rule="evenodd" clip-rule="evenodd" d="M10 4.16667C6.77834 4.16667 4.16667 6.77834 4.16667 10C4.16667 13.2217 6.77834 15.8333 10 15.8333C13.2217 15.8333 15.8333 13.2217 15.8333 10C15.8333 6.77834 13.2217 4.16667 10 4.16667ZM2.5 10C2.5 5.85786 5.85786 2.5 10 2.5C14.1421 2.5 17.5 5.85786 17.5 10C17.5 14.1421 14.1421 17.5 10 17.5C5.85786 17.5 2.5 14.1421 2.5 10Z" fill="black"/>
<path fill-rule="evenodd" clip-rule="evenodd" d="M10.0001 0.833496C10.4603 0.833496 10.8334 1.20659 10.8334 1.66683V7.91683C10.8334 8.37707 10.4603 8.75016 10.0001 8.75016C9.53984 8.75016 9.16675 8.37707 9.16675 7.91683V1.66683C9.16675 1.20659 9.53984 0.833496 10.0001 0.833496Z" fill="black"/>
<path fill-rule="evenodd" clip-rule="evenodd" d="M16.4225 3.57757C16.748 3.90301 16.748 4.43065 16.4225 4.75609L12.0642 9.11442C11.7388 9.43986 11.2111 9.43986 10.8857 9.11442C10.5602 8.78898 10.5602 8.26134 10.8857 7.93591L15.244 3.57757C15.5694 3.25214 16.0971 3.25214 16.4225 3.57757Z" fill="black"/>
<path fill-rule="evenodd" clip-rule="evenodd" d="M11.25 9.99984C11.25 9.5396 11.6231 9.1665 12.0833 9.1665H18.3333C18.7936 9.1665 19.1667 9.5396 19.1667 9.99984C19.1667 10.4601 18.7936 10.8332 18.3333 10.8332H12.0833C11.6231 10.8332 11.25 10.4601 11.25 9.99984Z" fill="black"/>
<path fill-rule="evenodd" clip-rule="evenodd" d="M10.8857 10.8857C11.2111 10.5602 11.7388 10.5602 12.0642 10.8857L16.4225 15.244C16.748 15.5694 16.748 16.0971 16.4225 16.4225C16.0971 16.748 15.5694 16.748 15.244 16.4225L10.8857 12.0642C10.5602 11.7388 10.5602 11.2111 10.8857 10.8857Z" fill="black"/>
<path fill-rule="evenodd" clip-rule="evenodd" d="M10.0001 11.25C10.4603 11.25 10.8334 11.6231 10.8334 12.0833V18.3333C10.8334 18.7936 10.4603 19.1667 10.0001 19.1667C9.53984 19.1667 9.16675 18.7936 9.16675 18.3333V12.0833C9.16675 11.6231 9.53984 11.25 10.0001 11.25Z" fill="black"/>
<path fill-rule="evenodd" clip-rule="evenodd" d="M9.11417 10.8857C9.43961 11.2111 9.43961 11.7388 9.11417 12.0642L4.75584 16.4225C4.4304 16.748 3.90277 16.748 3.57733 16.4225C3.25189 16.0971 3.25189 15.5694 3.57733 15.244L7.93566 10.8857C8.2611 10.5602 8.78874 10.5602 9.11417 10.8857Z" fill="black"/>
<path fill-rule="evenodd" clip-rule="evenodd" d="M0.833252 9.99984C0.833252 9.5396 1.20635 9.1665 1.66659 9.1665H7.91658C8.37682 9.1665 8.74992 9.5396 8.74992 9.99984C8.74992 10.4601 8.37682 10.8332 7.91658 10.8332H1.66659C1.20635 10.8332 0.833252 10.4601 0.833252 9.99984Z" fill="black"/>
<path fill-rule="evenodd" clip-rule="evenodd" d="M3.57733 3.57757C3.90277 3.25214 4.4304 3.25214 4.75584 3.57757L9.11417 7.93591C9.43961 8.26134 9.43961 8.78898 9.11417 9.11442C8.78874 9.43986 8.2611 9.43986 7.93566 9.11442L3.57733 4.75609C3.25189 4.43065 3.25189 3.90301 3.57733 3.57757Z" fill="black"/>
<path fill-rule="evenodd" clip-rule="evenodd" d="M9.99992 8.75016C9.30956 8.75016 8.74992 9.30981 8.74992 10.0002C8.74992 10.6905 9.30956 11.2502 9.99992 11.2502C10.6903 11.2502 11.2499 10.6905 11.2499 10.0002C11.2499 9.30981 10.6903 8.75016 9.99992 8.75016ZM7.08325 10.0002C7.08325 8.38933 8.38909 7.0835 9.99992 7.0835C11.6107 7.0835 12.9166 8.38933 12.9166 10.0002C12.9166 11.611 11.6107 12.9168 9.99992 12.9168C8.38909 12.9168 7.08325 11.611 7.08325 10.0002Z" fill="black"/>
</g>
<defs>
<clipPath id="clip0_2001_9828">
<rect width="20" height="20" fill="white"/>
</clipPath>
</defs>
</svg>
