<svg width="20" height="20" viewBox="0 0 20 20" fill="none" xmlns="http://www.w3.org/2000/svg">
<g clip-path="url(#clip0_2001_9839)">
<path fill-rule="evenodd" clip-rule="evenodd" d="M5.34753 18.8243C4.906 19.0363 4.39171 19.1668 3.74994 19.1668C3.09262 19.1668 2.57136 19.0384 2.12656 18.8232C1.71078 18.622 1.39372 18.3576 1.15391 18.1577C1.14692 18.1518 1.13998 18.1461 1.13312 18.1403C0.779555 17.8457 0.731785 17.3202 1.02642 16.9667C1.32106 16.6131 1.84653 16.5653 2.20009 16.86C2.45791 17.0748 2.63457 17.2175 2.85249 17.3229C3.05352 17.4202 3.32393 17.5002 3.74994 17.5002C4.14984 17.5002 4.41679 17.4224 4.62631 17.3218C4.85358 17.2127 5.04393 17.0645 5.31269 16.8494C5.31967 16.8439 5.32671 16.8382 5.3338 16.8325C5.58313 16.633 5.90698 16.3738 6.31902 16.176C6.76054 15.964 7.27484 15.8335 7.91661 15.8335C8.57393 15.8335 9.09519 15.9619 9.53999 16.1771C9.95577 16.3783 10.2728 16.6427 10.5126 16.8426C10.5196 16.8485 10.5266 16.8543 10.5334 16.86C10.7912 17.0748 10.9679 17.2175 11.1858 17.3229C11.3869 17.4202 11.6573 17.5002 12.0833 17.5002C12.4832 17.5002 12.7501 17.4224 12.9596 17.3218C13.1869 17.2127 13.3773 17.0645 13.646 16.8494C13.653 16.8439 13.66 16.8382 13.6671 16.8326C13.9165 16.633 14.2403 16.3738 14.6524 16.176C15.0939 15.964 15.6082 15.8335 16.2499 15.8335C16.9073 15.8335 17.4285 15.9619 17.8733 16.1771C18.2891 16.3783 18.6062 16.6427 18.846 16.8426C18.853 16.8485 18.8599 16.8543 18.8668 16.86C19.2203 17.1546 19.2681 17.6801 18.9735 18.0336C18.6788 18.3872 18.1534 18.435 17.7998 18.1403C17.542 17.9255 17.3653 17.7828 17.1474 17.6774C16.9464 17.5801 16.676 17.5002 16.2499 17.5002C15.85 17.5002 15.5831 17.5779 15.3736 17.6785C15.1463 17.7876 14.956 17.9359 14.6872 18.1509C14.6802 18.1565 14.6732 18.1621 14.6661 18.1678C14.4168 18.3673 14.0929 18.6266 13.6809 18.8243C13.2393 19.0363 12.725 19.1668 12.0833 19.1668C11.426 19.1668 10.9047 19.0384 10.4599 18.8232C10.0441 18.622 9.72705 18.3576 9.48725 18.1577C9.48025 18.1518 9.47332 18.1461 9.46645 18.1403C9.20863 17.9255 9.03198 17.7828 8.81406 17.6774C8.61302 17.5801 8.34262 17.5002 7.91661 17.5002C7.51671 17.5002 7.24975 17.5779 7.04024 17.6785C6.81297 17.7876 6.62262 17.9359 6.35385 18.1509C6.34688 18.1565 6.33984 18.1621 6.33274 18.1678C6.08342 18.3673 5.75957 18.6266 5.34753 18.8243Z" fill="black"/>
<path fill-rule="evenodd" clip-rule="evenodd" d="M9.66163 7.57182C9.8771 7.47606 10.1231 7.47606 10.3385 7.57182L17.8385 10.9052C18.1374 11.038 18.3309 11.3334 18.3334 11.6604C18.3477 13.5705 17.8407 15.4482 16.867 17.0915C16.6324 17.4874 16.1212 17.6182 15.7253 17.3836C15.3293 17.149 15.1985 16.6378 15.4331 16.2419C16.162 15.0118 16.58 13.6255 16.6548 12.2029L10.0001 9.24526L3.34763 12.2019C3.45397 14.1771 4.15806 15.8857 5.50115 17.6238C5.78256 17.988 5.71547 18.5113 5.35129 18.7927C4.98711 19.0741 4.46375 19.0071 4.18234 18.6429C2.5286 16.5027 1.66675 14.2942 1.66675 11.6667C1.66675 11.3373 1.86069 11.0389 2.16163 10.9052L9.66163 7.57182Z" fill="black"/>
<path fill-rule="evenodd" clip-rule="evenodd" d="M4.06548 4.06573C4.53433 3.59689 5.17021 3.3335 5.83325 3.3335H14.1666C14.8296 3.3335 15.4655 3.59689 15.9344 4.06573C16.4032 4.53457 16.6666 5.17045 16.6666 5.8335V10.8335C16.6666 11.2937 16.2935 11.6668 15.8333 11.6668C15.373 11.6668 14.9999 11.2937 14.9999 10.8335V5.8335C14.9999 5.61248 14.9121 5.40052 14.7558 5.24424C14.5996 5.08796 14.3876 5.00016 14.1666 5.00016H5.83325C5.61224 5.00016 5.40028 5.08796 5.244 5.24424C5.08772 5.40052 4.99992 5.61248 4.99992 5.8335V10.8335C4.99992 11.2937 4.62682 11.6668 4.16659 11.6668C3.70635 11.6668 3.33325 11.2937 3.33325 10.8335V5.8335C3.33325 5.17045 3.59664 4.53457 4.06548 4.06573Z" fill="black"/>
<path fill-rule="evenodd" clip-rule="evenodd" d="M10.0001 7.5C10.4603 7.5 10.8334 7.8731 10.8334 8.33333V11.6667C10.8334 12.1269 10.4603 12.5 10.0001 12.5C9.53984 12.5 9.16675 12.1269 9.16675 11.6667V8.33333C9.16675 7.8731 9.53984 7.5 10.0001 7.5Z" fill="black"/>
<path fill-rule="evenodd" clip-rule="evenodd" d="M10.0001 0.833496C10.4603 0.833496 10.8334 1.20659 10.8334 1.66683V4.16683C10.8334 4.62707 10.4603 5.00016 10.0001 5.00016C9.53984 5.00016 9.16675 4.62707 9.16675 4.16683V1.66683C9.16675 1.20659 9.53984 0.833496 10.0001 0.833496Z" fill="black"/>
</g>
<defs>
<clipPath id="clip0_2001_9839">
<rect width="20" height="20" fill="white"/>
</clipPath>
</defs>
</svg>
