<svg width="20" height="20" viewBox="0 0 20 20" fill="none" xmlns="http://www.w3.org/2000/svg">
<path fill-rule="evenodd" clip-rule="evenodd" d="M7.15392 0.9908C7.37123 1.14743 7.5 1.39897 7.5 1.66684C7.5 2.32988 7.76339 2.96576 8.23223 3.4346C8.70107 3.90344 9.33695 4.16684 10 4.16684C10.663 4.16684 11.2989 3.90344 11.7678 3.4346C12.2366 2.96576 12.5 2.32988 12.5 1.66684C12.5 1.39897 12.6288 1.14743 12.8461 0.9908C13.0634 0.834174 13.3427 0.791558 13.5969 0.876266L17.2467 2.09289C17.2468 2.09291 17.2468 2.09292 17.2469 2.09293C17.8126 2.28144 18.2923 2.66595 18.5994 3.17707C18.9065 3.68818 19.0209 4.29223 18.9218 4.88022C18.9217 4.88028 18.9217 4.88034 18.9217 4.88039L18.4393 7.76683C18.4391 7.76762 18.439 7.7684 18.4389 7.76918C18.375 8.15978 18.1742 8.51492 17.8724 8.77102C17.5703 9.02732 17.1868 9.16763 16.7907 9.16684H15.8333V16.6668C15.8333 17.3299 15.5699 17.9658 15.1011 18.4346C14.6323 18.9034 13.9964 19.1668 13.3333 19.1668H6.66666C5.28976 19.1668 4.16666 18.0437 4.16666 16.6668V9.16684H3.20928C2.81316 9.16763 2.4297 9.02732 2.12763 8.77102C1.82581 8.51493 1.625 8.15979 1.56112 7.7692L1.07826 4.88039C1.07823 4.88019 1.07819 4.87999 1.07816 4.87979C0.979187 4.29193 1.09353 3.68805 1.40058 3.17707C1.70771 2.66595 2.18742 2.28144 2.75314 2.09293C2.75316 2.09293 2.75317 2.09292 2.75319 2.09291C2.75322 2.09291 2.75324 2.0929 2.75326 2.09289L6.40314 0.876266C6.65726 0.791558 6.93661 0.834174 7.15392 0.9908ZM3.01667 2.88353L3.28006 3.67411C3.09147 3.73694 2.93155 3.86512 2.82917 4.03551C2.72678 4.20589 2.68868 4.40726 2.72173 4.60328L3.20526 7.49612C3.20548 7.49747 3.20571 7.49882 3.20593 7.50017L3.20733 7.50017L5 7.50017C5.46023 7.50017 5.83333 7.87327 5.83333 8.3335V16.6668C5.83333 17.1233 6.21023 17.5002 6.66666 17.5002H13.3333C13.5543 17.5002 13.7663 17.4124 13.9226 17.2561C14.0789 17.0998 14.1667 16.8878 14.1667 16.6668V8.3335C14.1667 7.87327 14.5398 7.50017 15 7.50017H16.7917L16.7941 7.50017L16.7943 7.49858L16.7947 7.49612L17.2781 4.60445L17.2783 4.60328C17.3113 4.40726 17.2732 4.20589 17.1708 4.03551C17.0684 3.86512 16.9085 3.73694 16.7199 3.67411L16.9833 2.88356L16.7198 3.67407L14.0171 2.77317C13.8271 3.46286 13.461 4.09839 12.9463 4.61311C12.1649 5.39452 11.1051 5.8335 10 5.8335C8.89493 5.8335 7.83512 5.39452 7.05372 4.61311C6.53899 4.09839 6.17285 3.46286 5.98288 2.77317L3.28018 3.67407L3.01667 2.88353Z" fill="black"/>
</svg>
