<svg width="20" height="20" viewBox="0 0 20 20" fill="none" xmlns="http://www.w3.org/2000/svg">
<path fill-rule="evenodd" clip-rule="evenodd" d="M12.592 8.33867C13.0494 8.38949 13.3791 8.80151 13.3282 9.25893L12.4949 16.7589C12.4441 17.2164 12.0321 17.546 11.5746 17.4951C11.1172 17.4443 10.7876 17.0323 10.8384 16.5749L11.6718 9.07488C11.7226 8.61745 12.1346 8.28784 12.592 8.33867Z" fill="black"/>
<path fill-rule="evenodd" clip-rule="evenodd" d="M12.0865 2.60994C12.4861 2.3816 12.9952 2.52043 13.2235 2.92003L16.5568 8.75336C16.7852 9.15296 16.6464 9.662 16.2468 9.89034C15.8472 10.1187 15.3381 9.97986 15.1098 9.58026L11.7764 3.74692C11.5481 3.34733 11.6869 2.83828 12.0865 2.60994Z" fill="black"/>
<path fill-rule="evenodd" clip-rule="evenodd" d="M0.833252 9.16683C0.833252 8.70659 1.20635 8.3335 1.66659 8.3335H18.3333C18.7935 8.3335 19.1666 8.70659 19.1666 9.16683C19.1666 9.62707 18.7935 10.0002 18.3333 10.0002H1.66659C1.20635 10.0002 0.833252 9.62707 0.833252 9.16683Z" fill="black"/>
<path fill-rule="evenodd" clip-rule="evenodd" d="M17.3533 8.35435C17.8019 8.45739 18.082 8.90455 17.9789 9.35311L16.5643 15.5108C16.4457 16.0795 16.1326 16.5893 15.6788 16.9524C15.2244 17.3159 14.6575 17.5094 14.0759 17.4999H5.92432C5.34268 17.5094 4.7758 17.3159 4.32142 16.9524C3.86603 16.5881 3.55238 16.076 3.43465 15.505L2.10225 9.34264C2.00498 8.89279 2.29081 8.44928 2.74065 8.35201C3.19049 8.25475 3.63401 8.54057 3.73127 8.99041L5.0646 15.1571L5.06501 15.159C5.06556 15.1616 5.0661 15.1641 5.06662 15.1667C5.10558 15.3578 5.21031 15.5291 5.36258 15.6509C5.51484 15.7727 5.705 15.8373 5.89996 15.8334C5.90556 15.8332 5.91116 15.8332 5.91676 15.8332H14.0834C14.089 15.8332 14.0946 15.8332 14.1002 15.8334C14.2952 15.8373 14.4853 15.7727 14.6376 15.6509C14.7899 15.5291 14.8946 15.3578 14.9336 15.1667C14.9349 15.16 14.9364 15.1533 14.9379 15.1466L16.3546 8.97994C16.4576 8.53139 16.9048 8.2513 17.3533 8.35435Z" fill="black"/>
<path fill-rule="evenodd" clip-rule="evenodd" d="M2.91675 12.9168C2.91675 12.4566 3.28984 12.0835 3.75008 12.0835H16.2501C16.7103 12.0835 17.0834 12.4566 17.0834 12.9168C17.0834 13.3771 16.7103 13.7502 16.2501 13.7502H3.75008C3.28984 13.7502 2.91675 13.3771 2.91675 12.9168Z" fill="black"/>
<path fill-rule="evenodd" clip-rule="evenodd" d="M7.91351 2.60994C8.31311 2.83828 8.45194 3.34733 8.2236 3.74692L4.89026 9.58026C4.66192 9.97986 4.15288 10.1187 3.75328 9.89034C3.35368 9.662 3.21485 9.15296 3.44319 8.75336L6.77653 2.92003C7.00487 2.52043 7.51391 2.3816 7.91351 2.60994Z" fill="black"/>
<path fill-rule="evenodd" clip-rule="evenodd" d="M7.40788 8.33867C7.86531 8.28784 8.27732 8.61745 8.32815 9.07488L9.16148 16.5749C9.21231 17.0323 8.88269 17.4443 8.42527 17.4951C7.96785 17.546 7.55583 17.2164 7.50501 16.7589L6.67167 9.25893C6.62085 8.80151 6.95046 8.38949 7.40788 8.33867Z" fill="black"/>
</svg>
