<svg width="20" height="20" viewBox="0 0 20 20" fill="none" xmlns="http://www.w3.org/2000/svg">
<g clip-path="url(#clip0_2001_9859)">
<path fill-rule="evenodd" clip-rule="evenodd" d="M5 17.5002C5 16.5797 5.74619 15.8335 6.66667 15.8335C7.58714 15.8335 8.33333 16.5797 8.33333 17.5002C8.33333 18.4206 7.58714 19.1668 6.66667 19.1668C5.74619 19.1668 5 18.4206 5 17.5002Z" fill="black"/>
<path fill-rule="evenodd" clip-rule="evenodd" d="M14.1667 17.5002C14.1667 16.5797 14.9129 15.8335 15.8334 15.8335C16.7539 15.8335 17.5001 16.5797 17.5001 17.5002C17.5001 18.4206 16.7539 19.1668 15.8334 19.1668C14.9129 19.1668 14.1667 18.4206 14.1667 17.5002Z" fill="black"/>
<path fill-rule="evenodd" clip-rule="evenodd" d="M0.875 1.70833C0.875 1.2481 1.2481 0.875 1.70833 0.875H3.375C3.76798 0.875 4.10756 1.14955 4.18985 1.53382L4.94113 5.04167H18.4083C18.6611 5.04167 18.9002 5.15637 19.0583 5.35351C19.2165 5.55065 19.2766 5.80892 19.2218 6.05566L17.8472 12.2458C17.8471 12.246 17.8471 12.2462 17.8471 12.2464C17.7246 12.8018 17.4165 13.2989 16.9735 13.6556C16.5303 14.0124 15.9786 14.2074 15.4097 14.2083L7.26671 14.2083C6.68889 14.2188 6.12515 14.0288 5.67151 13.6704C5.21521 13.31 4.89884 12.8017 4.77687 12.2331L3.4606 6.08723C3.45422 6.06294 3.44891 6.0382 3.44472 6.01309L2.70124 2.54167H1.70833C1.2481 2.54167 0.875 2.16857 0.875 1.70833ZM5.29808 6.70833L6.40646 11.8835C6.40648 11.8836 6.4065 11.8837 6.40652 11.8838C6.44722 12.0732 6.55265 12.2425 6.70468 12.3626C6.85678 12.4828 7.04601 12.5462 7.2398 12.5419C7.24597 12.5417 7.25215 12.5417 7.25833 12.5417L15.407 12.5417C15.4072 12.5417 15.4073 12.5417 15.4075 12.5417C15.597 12.5412 15.7807 12.4763 15.9283 12.3574C16.076 12.2385 16.1787 12.0727 16.2195 11.8875L16.2198 11.886L17.3696 6.70833H5.29808Z" fill="black"/>
</g>
<defs>
<clipPath id="clip0_2001_9859">
<rect width="20" height="20" fill="white"/>
</clipPath>
</defs>
</svg>
