<svg width="20" height="20" viewBox="0 0 20 20" fill="none" xmlns="http://www.w3.org/2000/svg">
<path fill-rule="evenodd" clip-rule="evenodd" d="M4.33341 1.16683C4.49079 0.956991 4.73778 0.833496 5.00008 0.833496H15.0001C15.2624 0.833496 15.5094 0.956991 15.6667 1.16683L18.1667 4.50016C18.2749 4.64441 18.3334 4.81985 18.3334 5.00016V16.6668C18.3334 17.3299 18.07 17.9658 17.6012 18.4346C17.1323 18.9034 16.4965 19.1668 15.8334 19.1668H4.16675C3.50371 19.1668 2.86782 18.9034 2.39898 18.4346C1.93014 17.9658 1.66675 17.3299 1.66675 16.6668V5.00016C1.66675 4.81985 1.72523 4.64441 1.83341 4.50016L4.33341 1.16683ZM5.41675 2.50016L3.33341 5.27794V16.6668C3.33341 16.8878 3.42121 17.0998 3.57749 17.2561C3.73377 17.4124 3.94573 17.5002 4.16675 17.5002H15.8334C16.0544 17.5002 16.2664 17.4124 16.4227 17.2561C16.5789 17.0998 16.6667 16.8878 16.6667 16.6668V5.27794L14.5834 2.50016H5.41675Z" fill="black"/>
<path fill-rule="evenodd" clip-rule="evenodd" d="M1.66675 4.99984C1.66675 4.5396 2.03984 4.1665 2.50008 4.1665H17.5001C17.9603 4.1665 18.3334 4.5396 18.3334 4.99984C18.3334 5.46007 17.9603 5.83317 17.5001 5.83317H2.50008C2.03984 5.83317 1.66675 5.46007 1.66675 4.99984Z" fill="black"/>
<path fill-rule="evenodd" clip-rule="evenodd" d="M6.66659 7.5C7.12682 7.5 7.49992 7.8731 7.49992 8.33333C7.49992 8.99637 7.76331 9.63226 8.23215 10.1011C8.70099 10.5699 9.33688 10.8333 9.99992 10.8333C10.663 10.8333 11.2988 10.5699 11.7677 10.1011C12.2365 9.63226 12.4999 8.99637 12.4999 8.33333C12.4999 7.8731 12.873 7.5 13.3333 7.5C13.7935 7.5 14.1666 7.8731 14.1666 8.33333C14.1666 9.4384 13.7276 10.4982 12.9462 11.2796C12.1648 12.061 11.105 12.5 9.99992 12.5C8.89485 12.5 7.83504 12.061 7.05364 11.2796C6.27224 10.4982 5.83325 9.4384 5.83325 8.33333C5.83325 7.8731 6.20635 7.5 6.66659 7.5Z" fill="black"/>
</svg>
