<svg width="20" height="20" viewBox="0 0 20 20" fill="none" xmlns="http://www.w3.org/2000/svg">
<g clip-path="url(#clip0_2001_9863)">
<path fill-rule="evenodd" clip-rule="evenodd" d="M5.244 9.41058C5.56943 9.08514 6.09707 9.08514 6.42251 9.41058L10.5892 13.5772C10.9146 13.9027 10.9146 14.4303 10.5892 14.7558L6.42251 18.9224C6.26623 19.0787 6.05427 19.1665 5.83325 19.1665H1.66659C1.20635 19.1665 0.833252 18.7934 0.833252 18.3332V14.1665C0.833252 13.9455 0.921049 13.7335 1.07733 13.5772L5.244 9.41058ZM2.49992 14.5117V17.4998H5.48807L8.82141 14.1665L5.83325 11.1783L2.49992 14.5117Z" fill="black"/>
<path fill-rule="evenodd" clip-rule="evenodd" d="M13.9225 6.07757C14.2479 6.40301 14.2479 6.93065 13.9225 7.25609L8.50584 12.6728C8.1804 12.9982 7.65277 12.9982 7.32733 12.6728C7.00189 12.3473 7.00189 11.8197 7.32733 11.4942L12.744 6.07757C13.0694 5.75214 13.5971 5.75214 13.9225 6.07757Z" fill="black"/>
<path fill-rule="evenodd" clip-rule="evenodd" d="M13.5774 1.07757C13.9028 0.752137 14.4304 0.752137 14.7559 1.07757L18.9225 5.24424C19.248 5.56968 19.248 6.09732 18.9225 6.42275L18.5068 6.83849C18.5066 6.83867 18.5065 6.83884 18.5063 6.83901C18.1557 7.19056 17.7392 7.46951 17.2807 7.65987C16.8219 7.85032 16.33 7.94836 15.8333 7.94836C15.3365 7.94836 14.8447 7.85032 14.3859 7.65987C13.9275 7.46958 13.5112 7.19077 13.1607 6.8394C12.8093 6.4889 12.5305 6.07256 12.3402 5.61419C12.1498 5.15542 12.0518 4.66357 12.0518 4.16683C12.0518 3.67009 12.1498 3.17824 12.3402 2.71946C12.5306 2.2609 12.8096 1.8444 13.1611 1.49381L13.5774 1.07757ZM14.1763 2.85499C14.0547 3.00792 13.9547 3.17732 13.8795 3.35848C13.7732 3.6147 13.7184 3.8894 13.7184 4.16683C13.7184 4.44426 13.7732 4.71896 13.8795 4.97518C13.9859 5.23141 14.1418 5.46412 14.3383 5.65998C14.3389 5.6606 14.3395 5.66122 14.3401 5.66183C14.536 5.85831 14.7687 6.0142 15.0249 6.12057C15.2812 6.22694 15.5559 6.28169 15.8333 6.28169C16.1107 6.28169 16.3854 6.22694 16.6416 6.12057C16.8228 6.04537 16.9922 5.94541 17.1451 5.82385L14.1763 2.85499Z" fill="black"/>
</g>
<defs>
<clipPath id="clip0_2001_9863">
<rect width="20" height="20" fill="white"/>
</clipPath>
</defs>
</svg>
