<svg width="20" height="20" viewBox="0 0 20 20" fill="none" xmlns="http://www.w3.org/2000/svg">
<path fill-rule="evenodd" clip-rule="evenodd" d="M2.74408 2.74408C3.06951 2.41864 3.59715 2.41864 3.92259 2.74408L6.00592 4.82741C6.33136 5.15285 6.33136 5.68049 6.00592 6.00592C5.68049 6.33136 5.15285 6.33136 4.82741 6.00592L2.74408 3.92259C2.41864 3.59715 2.41864 3.06951 2.74408 2.74408Z" fill="black"/>
<path fill-rule="evenodd" clip-rule="evenodd" d="M8.33783 3.40436C9.64417 3.39776 10.9003 3.90697 11.8334 4.82132C12.1621 5.14346 12.1674 5.67107 11.8453 5.99977C11.5231 6.32848 10.9955 6.33381 10.6668 6.01168C10.0474 5.40467 9.21348 5.06663 8.34625 5.07101C7.47902 5.07539 6.64855 5.42184 6.03531 6.03507C5.42208 6.6483 5.07563 7.47877 5.07125 8.34601C5.06687 9.21324 5.40491 10.0472 6.01192 10.6666C6.33406 10.9953 6.32873 11.5229 6.00002 11.845C5.67131 12.1671 5.1437 12.1618 4.82157 11.8331C3.90721 10.9001 3.39801 9.64393 3.4046 8.33759C3.4112 7.03125 3.93307 5.78029 4.8568 4.85656C5.78054 3.93283 7.03149 3.41096 8.33783 3.40436Z" fill="black"/>
<path fill-rule="evenodd" clip-rule="evenodd" d="M13.0892 3.57757C13.4146 3.90301 13.4146 4.43065 13.0892 4.75609L4.75584 13.0894C4.4304 13.4149 3.90277 13.4149 3.57733 13.0894C3.25189 12.764 3.25189 12.2363 3.57733 11.9109L11.9107 3.57757C12.2361 3.25214 12.7637 3.25214 13.0892 3.57757Z" fill="black"/>
<path fill-rule="evenodd" clip-rule="evenodd" d="M11.6666 13.3335C12.1268 13.3335 12.4999 13.7066 12.4999 14.1668V14.1752C12.4999 14.6354 12.1268 15.0085 11.6666 15.0085C11.2063 15.0085 10.8333 14.6354 10.8333 14.1752V14.1668C10.8333 13.7066 11.2063 13.3335 11.6666 13.3335Z" fill="black"/>
<path fill-rule="evenodd" clip-rule="evenodd" d="M8.33333 12.5C8.79357 12.5 9.16667 12.8731 9.16667 13.3333V13.3417C9.16667 13.8019 8.79357 14.175 8.33333 14.175C7.8731 14.175 7.5 13.8019 7.5 13.3417V13.3333C7.5 12.8731 7.8731 12.5 8.33333 12.5Z" fill="black"/>
<path fill-rule="evenodd" clip-rule="evenodd" d="M10.8333 10C11.2936 10 11.6667 10.3731 11.6667 10.8333V10.8417C11.6667 11.3019 11.2936 11.675 10.8333 11.675C10.3731 11.675 10 11.3019 10 10.8417V10.8333C10 10.3731 10.3731 10 10.8333 10Z" fill="black"/>
<path fill-rule="evenodd" clip-rule="evenodd" d="M13.3333 7.5C13.7936 7.5 14.1667 7.8731 14.1667 8.33333V8.34167C14.1667 8.8019 13.7936 9.175 13.3333 9.175C12.8731 9.175 12.5 8.8019 12.5 8.34167V8.33333C12.5 7.8731 12.8731 7.5 13.3333 7.5Z" fill="black"/>
<path fill-rule="evenodd" clip-rule="evenodd" d="M9.16659 15.8335C9.62682 15.8335 9.99992 16.2066 9.99992 16.6668V16.6752C9.99992 17.1354 9.62682 17.5085 9.16659 17.5085C8.70635 17.5085 8.33325 17.1354 8.33325 16.6752V16.6668C8.33325 16.2066 8.70635 15.8335 9.16659 15.8335Z" fill="black"/>
<path fill-rule="evenodd" clip-rule="evenodd" d="M14.1666 10.8335C14.6268 10.8335 14.9999 11.2066 14.9999 11.6668V11.6752C14.9999 12.1354 14.6268 12.5085 14.1666 12.5085C13.7063 12.5085 13.3333 12.1354 13.3333 11.6752V11.6668C13.3333 11.2066 13.7063 10.8335 14.1666 10.8335Z" fill="black"/>
<path fill-rule="evenodd" clip-rule="evenodd" d="M16.6666 8.3335C17.1268 8.3335 17.4999 8.70659 17.4999 9.16683V9.17516C17.4999 9.6354 17.1268 10.0085 16.6666 10.0085C16.2063 10.0085 15.8333 9.6354 15.8333 9.17516V9.16683C15.8333 8.70659 16.2063 8.3335 16.6666 8.3335Z" fill="black"/>
</svg>
