<svg width="20" height="20" viewBox="0 0 20 20" fill="none" xmlns="http://www.w3.org/2000/svg">
<path fill-rule="evenodd" clip-rule="evenodd" d="M11.6667 12.4998C11.6667 12.0396 12.0398 11.6665 12.5001 11.6665H16.5001C16.9603 11.6665 17.3334 12.0396 17.3334 12.4998C17.3334 12.9601 16.9603 13.3332 16.5001 13.3332H14.5119L18.0893 16.9106C18.4148 17.236 18.4148 17.7637 18.0893 18.0891C17.7639 18.4145 17.2363 18.4145 16.9108 18.0891L13.3334 14.5117V16.4998C13.3334 16.9601 12.9603 17.3332 12.5001 17.3332C12.0398 17.3332 11.6667 16.9601 11.6667 16.4998V12.4998Z" fill="black"/>
<path fill-rule="evenodd" clip-rule="evenodd" d="M2.66675 12.4998C2.66675 12.0396 3.03984 11.6665 3.50008 11.6665H7.50008C7.96032 11.6665 8.33341 12.0396 8.33341 12.4998V16.4998C8.33341 16.9601 7.96032 17.3332 7.50008 17.3332C7.03984 17.3332 6.66675 16.9601 6.66675 16.4998V14.5117L3.08934 18.0891C2.7639 18.4145 2.23626 18.4145 1.91083 18.0891C1.58539 17.7637 1.58539 17.236 1.91083 16.9106L5.48824 13.3332H3.50008C3.03984 13.3332 2.66675 12.9601 2.66675 12.4998Z" fill="black"/>
<path fill-rule="evenodd" clip-rule="evenodd" d="M18.0893 1.91058C18.4148 2.23602 18.4148 2.76366 18.0893 3.08909L14.5119 6.6665H16.5001C16.9603 6.6665 17.3334 7.0396 17.3334 7.49984C17.3334 7.96007 16.9603 8.33317 16.5001 8.33317H12.5001C12.0398 8.33317 11.6667 7.96007 11.6667 7.49984V3.49984C11.6667 3.0396 12.0398 2.6665 12.5001 2.6665C12.9603 2.6665 13.3334 3.0396 13.3334 3.49984V5.48799L16.9108 1.91058C17.2363 1.58514 17.7639 1.58514 18.0893 1.91058Z" fill="black"/>
<path fill-rule="evenodd" clip-rule="evenodd" d="M1.91083 1.91058C2.23626 1.58514 2.7639 1.58514 3.08934 1.91058L6.66675 5.48799V3.49984C6.66675 3.0396 7.03984 2.6665 7.50008 2.6665C7.96032 2.6665 8.33341 3.0396 8.33341 3.49984V7.49984C8.33341 7.96007 7.96032 8.33317 7.50008 8.33317H3.50008C3.03984 8.33317 2.66675 7.96007 2.66675 7.49984C2.66675 7.0396 3.03984 6.6665 3.50008 6.6665H5.48824L1.91083 3.08909C1.58539 2.76366 1.58539 2.23602 1.91083 1.91058Z" fill="black"/>
</svg>
