<svg width="20" height="20" viewBox="0 0 20 20" fill="none" xmlns="http://www.w3.org/2000/svg">
<path fill-rule="evenodd" clip-rule="evenodd" d="M7.74408 10.2441C8.06951 9.91864 8.59715 9.91864 8.92259 10.2441L10.5893 11.9107C10.7455 12.067 10.8333 12.279 10.8333 12.5V18.3333C10.8333 18.7936 10.4602 19.1667 10 19.1667C9.53976 19.1667 9.16667 18.7936 9.16667 18.3333V12.8452L7.74408 11.4226C7.41864 11.0972 7.41864 10.5695 7.74408 10.2441Z" fill="black"/>
<path fill-rule="evenodd" clip-rule="evenodd" d="M9.99996 3.33317C9.11591 3.33317 8.26806 3.68436 7.64294 4.30948C7.01782 4.9346 6.66663 5.78245 6.66663 6.6665C6.66663 6.95408 6.51835 7.22134 6.27436 7.37355C5.45221 7.88641 4.81376 8.64665 4.45071 9.54506C4.08766 10.4435 4.0187 11.4338 4.25371 12.3739C4.48873 13.314 5.01564 14.1554 5.75876 14.7772C6.49495 15.3933 7.40583 15.7625 8.36274 15.8332H11.5C11.5098 15.8332 11.5197 15.8333 11.5296 15.8337C12.4598 15.8668 13.3743 15.5874 14.1273 15.0402C14.8803 14.493 15.4283 13.7093 15.684 12.8143C15.9398 11.9193 15.8884 10.9645 15.5382 10.102C15.188 9.2396 14.5591 8.51927 13.7518 8.05592C13.4929 7.90734 13.3333 7.63165 13.3333 7.33317V6.6665C13.3333 5.78245 12.9821 4.9346 12.357 4.30948C11.7319 3.68436 10.884 3.33317 9.99996 3.33317ZM6.46443 3.13097C7.40211 2.19329 8.67388 1.6665 9.99996 1.6665C11.326 1.6665 12.5978 2.19329 13.5355 3.13097C14.4732 4.06865 15 5.34042 15 6.6665V6.87484C15.9292 7.51865 16.6544 8.42102 17.0824 9.47498C17.5727 10.6824 17.6446 12.0192 17.2866 13.2722C16.9286 14.5252 16.1613 15.6223 15.1072 16.3884C14.0572 17.1515 12.7828 17.5425 11.4857 17.4998H8.33329C8.31446 17.4998 8.29564 17.4992 8.27685 17.4979C6.95852 17.4084 5.70249 16.9034 4.68914 16.0554C3.67579 15.2074 2.95728 14.06 2.63681 12.7781C2.31633 11.4962 2.41038 10.1457 2.90545 8.92062C3.3444 7.83438 4.07858 6.89627 5.02082 6.21007C5.127 5.05138 5.63494 3.96046 6.46443 3.13097Z" fill="black"/>
<path fill-rule="evenodd" clip-rule="evenodd" d="M12.256 11.0776C12.5814 11.403 12.5814 11.9306 12.256 12.2561L10.5893 13.9228C10.2639 14.2482 9.73626 14.2482 9.41083 13.9228C9.08539 13.5973 9.08539 13.0697 9.41083 12.7442L11.0775 11.0776C11.4029 10.7521 11.9306 10.7521 12.256 11.0776Z" fill="black"/>
</svg>
