<svg width="20" height="20" viewBox="0 0 20 20" fill="none" xmlns="http://www.w3.org/2000/svg">
<g clip-path="url(#clip0_2001_9887)">
<path fill-rule="evenodd" clip-rule="evenodd" d="M13.4166 5.83317C12.5678 5.83317 11.7748 6.22721 11.3696 6.8639C11.3621 6.87567 11.3544 6.88725 11.3463 6.89862L6.26296 14.0653C6.26106 14.068 6.25914 14.0707 6.2572 14.0733C5.43482 15.2041 4.18506 15.8332 2.83325 15.8332H1.66659C1.20635 15.8332 0.833252 15.4601 0.833252 14.9998C0.833252 14.5396 1.20635 14.1665 1.66659 14.1665H2.83325C3.64666 14.1665 4.39569 13.7969 4.90659 13.0968L9.97556 5.95034C10.7394 4.76613 12.1056 4.1665 13.4166 4.1665H18.3333C18.7935 4.1665 19.1666 4.5396 19.1666 4.99984C19.1666 5.46007 18.7935 5.83317 18.3333 5.83317H13.4166Z" fill="black"/>
<path fill-rule="evenodd" clip-rule="evenodd" d="M14.4108 1.07757C14.7363 0.752137 15.2639 0.752137 15.5893 1.07757L18.9227 4.41091C19.2481 4.73634 19.2481 5.26398 18.9227 5.58942L15.5893 8.92275C15.2639 9.24819 14.7363 9.24819 14.4108 8.92275C14.0854 8.59731 14.0854 8.06968 14.4108 7.74424L17.1549 5.00016L14.4108 2.25609C14.0854 1.93065 14.0854 1.40301 14.4108 1.07757Z" fill="black"/>
<path fill-rule="evenodd" clip-rule="evenodd" d="M0.833252 4.99984C0.833252 4.5396 1.20635 4.1665 1.66659 4.1665H3.24992C4.82763 4.1665 6.26527 5.10397 6.98364 6.43809C7.20184 6.84331 7.05023 7.3487 6.645 7.5669C6.23978 7.78509 5.73439 7.63348 5.51619 7.22825C5.0679 6.3957 4.1722 5.83317 3.24992 5.83317H1.66659C1.20635 5.83317 0.833252 5.46007 0.833252 4.99984Z" fill="black"/>
<path fill-rule="evenodd" clip-rule="evenodd" d="M9.80828 12.1268C10.1986 11.8829 10.7127 12.0015 10.9566 12.3918L11.3713 13.0553C11.7993 13.7257 12.6139 14.1668 13.4166 14.1668H18.3333C18.7935 14.1668 19.1666 14.5399 19.1666 15.0001C19.1666 15.4603 18.7935 15.8334 18.3333 15.8334H13.4166C12.0537 15.8334 10.7027 15.109 9.96356 13.9475C9.96235 13.9456 9.96115 13.9437 9.95995 13.9418L9.54328 13.2751C9.29936 12.8848 9.418 12.3707 9.80828 12.1268Z" fill="black"/>
<path fill-rule="evenodd" clip-rule="evenodd" d="M14.4108 11.0776C14.7363 10.7521 15.2639 10.7521 15.5893 11.0776L18.9227 14.4109C19.2481 14.7363 19.2481 15.264 18.9227 15.5894L15.5893 18.9228C15.2639 19.2482 14.7363 19.2482 14.4108 18.9228C14.0854 18.5973 14.0854 18.0697 14.4108 17.7442L17.1549 15.0002L14.4108 12.2561C14.0854 11.9306 14.0854 11.403 14.4108 11.0776Z" fill="black"/>
</g>
<defs>
<clipPath id="clip0_2001_9887">
<rect width="20" height="20" fill="white"/>
</clipPath>
</defs>
</svg>
