<svg width="20" height="20" viewBox="0 0 20 20" fill="none" xmlns="http://www.w3.org/2000/svg">
<path fill-rule="evenodd" clip-rule="evenodd" d="M4.75958 2.68669C4.95705 2.56464 5.18461 2.5 5.41675 2.5H14.1667C14.6088 2.5 15.0327 2.67559 15.3453 2.98816C15.6578 3.30072 15.8334 3.72464 15.8334 4.16667V5.83333C15.8334 6.29357 15.4603 6.66667 15.0001 6.66667C14.5398 6.66667 14.1667 6.29357 14.1667 5.83333L14.1667 4.16667L6.25008 4.16667L9.50008 8.5C9.82464 8.93274 10.0001 9.45908 10.0001 10C10.0001 10.5409 9.82464 11.0673 9.50008 11.5L6.25008 15.8333H14.1667V14.1667C14.1667 13.7064 14.5398 13.3333 15.0001 13.3333C15.4603 13.3333 15.8334 13.7064 15.8334 14.1667V15.8333C15.8334 16.2754 15.6578 16.6993 15.3453 17.0118C15.0327 17.3244 14.6088 17.5 14.1667 17.5H5.41675C5.18461 17.5 4.95705 17.4354 4.75958 17.3133C4.56211 17.1913 4.40253 17.0166 4.29871 16.809C4.1949 16.6014 4.15095 16.3689 4.1718 16.1377C4.19265 15.9065 4.27747 15.6857 4.41675 15.5L8.16675 10.5C8.27493 10.3558 8.33342 10.1803 8.33342 10C8.33342 9.81969 8.27493 9.64425 8.16675 9.5L4.41675 4.5C4.27746 4.31429 4.19265 4.09346 4.1718 3.86226C4.15095 3.63106 4.1949 3.39862 4.29871 3.19098C4.40253 2.98335 4.56211 2.80873 4.75958 2.68669Z" fill="black"/>
</svg>
