<svg width="20" height="20" viewBox="0 0 20 20" fill="none" xmlns="http://www.w3.org/2000/svg">
<g clip-path="url(#clip0_2001_9918)">
<path fill-rule="evenodd" clip-rule="evenodd" d="M2.744 3.57757C2.90028 3.42129 3.11224 3.3335 3.33325 3.3335H8.33325C8.79349 3.3335 9.16658 3.70659 9.16658 4.16683C9.16658 4.62707 8.79349 5.00016 8.33325 5.00016H3.67843L2.8451 5.8335L3.67843 6.66683H8.33325C8.79349 6.66683 9.16658 7.03993 9.16658 7.50016C9.16658 7.9604 8.79349 8.3335 8.33325 8.3335H3.33325C3.11224 8.3335 2.90028 8.2457 2.744 8.08942L1.07733 6.42275C0.751893 6.09732 0.751893 5.56968 1.07733 5.24424L2.744 3.57757Z" fill="black"/>
<path fill-rule="evenodd" clip-rule="evenodd" d="M10.8333 4.16683C10.8333 3.70659 11.2063 3.3335 11.6666 3.3335H16.6666C16.8876 3.3335 17.0996 3.42129 17.2558 3.57757L18.9225 5.24424C19.2479 5.56968 19.2479 6.09732 18.9225 6.42275L17.2558 8.08942C17.0996 8.2457 16.8876 8.3335 16.6666 8.3335H11.6666C11.2063 8.3335 10.8333 7.9604 10.8333 7.50016C10.8333 7.03993 11.2063 6.66683 11.6666 6.66683H16.3214L17.1547 5.8335L16.3214 5.00016H11.6666C11.2063 5.00016 10.8333 4.62707 10.8333 4.16683Z" fill="black"/>
<path fill-rule="evenodd" clip-rule="evenodd" d="M10 2.50016C9.77899 2.50016 9.56703 2.58796 9.41074 2.74424C9.25446 2.90052 9.16667 3.11248 9.16667 3.3335V18.3335C9.16667 18.7937 8.79357 19.1668 8.33333 19.1668C7.8731 19.1668 7.5 18.7937 7.5 18.3335V3.3335C7.5 2.67045 7.76339 2.03457 8.23223 1.56573C8.70107 1.09689 9.33696 0.833496 10 0.833496C10.663 0.833496 11.2989 1.09689 11.7678 1.56573C12.2366 2.03457 12.5 2.67045 12.5 3.3335V18.3335C12.5 18.7937 12.1269 19.1668 11.6667 19.1668C11.2064 19.1668 10.8333 18.7937 10.8333 18.3335V3.3335C10.8333 3.11248 10.7455 2.90052 10.5893 2.74424C10.433 2.58796 10.221 2.50016 10 2.50016Z" fill="black"/>
<path fill-rule="evenodd" clip-rule="evenodd" d="M5.83325 18.3333C5.83325 17.8731 6.20635 17.5 6.66659 17.5H13.3333C13.7935 17.5 14.1666 17.8731 14.1666 18.3333C14.1666 18.7936 13.7935 19.1667 13.3333 19.1667H6.66659C6.20635 19.1667 5.83325 18.7936 5.83325 18.3333Z" fill="black"/>
</g>
<defs>
<clipPath id="clip0_2001_9918">
<rect width="20" height="20" fill="white"/>
</clipPath>
</defs>
</svg>
