<svg width="20" height="20" viewBox="0 0 20 20" fill="none" xmlns="http://www.w3.org/2000/svg">
<path fill-rule="evenodd" clip-rule="evenodd" d="M10.0001 10C10.4603 10 10.8334 10.3731 10.8334 10.8333V17.5C10.8334 17.9602 10.4603 18.3333 10.0001 18.3333C9.53984 18.3333 9.16675 17.9602 9.16675 17.5V10.8333C9.16675 10.3731 9.53984 10 10.0001 10Z" fill="black"/>
<path fill-rule="evenodd" clip-rule="evenodd" d="M10.0001 1.6665C10.4603 1.6665 10.8334 2.0396 10.8334 2.49984V4.99984C10.8334 5.46007 10.4603 5.83317 10.0001 5.83317C9.53984 5.83317 9.16675 5.46007 9.16675 4.99984V2.49984C9.16675 2.0396 9.53984 1.6665 10.0001 1.6665Z" fill="black"/>
<path fill-rule="evenodd" clip-rule="evenodd" d="M4.99969 4.1665H15.0005C15.647 4.16681 16.2682 4.41753 16.7337 4.86603C16.7338 4.86608 16.7338 4.86612 16.7339 4.86616C16.734 4.86628 16.7341 4.86639 16.7342 4.8665L18.6567 6.7165C18.818 6.87198 18.9463 7.05838 19.034 7.26456C19.1216 7.47074 19.1668 7.69247 19.1668 7.9165C19.1668 8.14054 19.1216 8.36227 19.034 8.56845C18.9463 8.77463 18.818 8.96103 18.6567 9.1165L16.7342 10.9665C16.7341 10.9666 16.7339 10.9668 16.7338 10.9669C16.7338 10.9669 16.7338 10.967 16.7337 10.967C16.2682 11.4155 15.647 11.6662 15.0005 11.6665H4.99969C4.35315 11.6662 3.73188 11.4154 3.2663 10.9668C3.26618 10.9667 3.26606 10.9666 3.26594 10.9665L1.34427 9.1165C1.18297 8.96103 1.05466 8.77463 0.96703 8.56845C0.879395 8.36227 0.834229 8.14054 0.834229 7.9165C0.834229 7.69247 0.879395 7.47074 0.96703 7.26456C1.05466 7.05838 1.18297 6.87198 1.34427 6.7165L3.26594 4.8665C3.26604 4.8664 3.26615 4.8663 3.26625 4.8662C3.26627 4.86619 3.26628 4.86617 3.2663 4.86616C3.73188 4.41758 4.35315 4.16681 4.99969 4.1665ZM14.9997 5.83317H5.00048C5.00044 5.83317 5.0004 5.83317 5.00036 5.83317C4.78484 5.8333 4.57774 5.91693 4.42256 6.0665L2.50089 7.9165L4.42256 9.7665C4.57777 9.9161 4.78491 9.99974 5.00048 9.99984H14.9997C15.2153 9.99974 15.4224 9.9161 15.5776 9.7665L17.5001 7.9165L15.5776 6.0665C15.4224 5.91693 15.2153 5.8333 14.9998 5.83317C14.9998 5.83317 14.9997 5.83317 14.9997 5.83317Z" fill="black"/>
</svg>
