<svg width="20" height="20" viewBox="0 0 20 20" fill="none" xmlns="http://www.w3.org/2000/svg">
<path fill-rule="evenodd" clip-rule="evenodd" d="M0.833252 16.6668C0.833252 16.2066 1.20635 15.8335 1.66659 15.8335H1.67492C2.13516 15.8335 2.50825 16.2066 2.50825 16.6668C2.50825 17.1271 2.13516 17.5002 1.67492 17.5002H1.66659C1.20635 17.5002 0.833252 17.1271 0.833252 16.6668Z" fill="black"/>
<path fill-rule="evenodd" clip-rule="evenodd" d="M5.83333 12.5C6.29357 12.5 6.66667 12.8731 6.66667 13.3333V16.6667C6.66667 17.1269 6.29357 17.5 5.83333 17.5C5.3731 17.5 5 17.1269 5 16.6667V13.3333C5 12.8731 5.3731 12.5 5.83333 12.5Z" fill="black"/>
<path fill-rule="evenodd" clip-rule="evenodd" d="M10.0001 9.1665C10.4603 9.1665 10.8334 9.5396 10.8334 9.99984V16.6665C10.8334 17.1267 10.4603 17.4998 10.0001 17.4998C9.53984 17.4998 9.16675 17.1267 9.16675 16.6665V9.99984C9.16675 9.5396 9.53984 9.1665 10.0001 9.1665Z" fill="black"/>
</svg>
