<svg width="20" height="20" viewBox="0 0 20 20" fill="none" xmlns="http://www.w3.org/2000/svg">
<path fill-rule="evenodd" clip-rule="evenodd" d="M11.6142 2.55565C11.4199 2.49633 11.2141 2.48523 11.0146 2.52332C10.8151 2.5614 10.6279 2.64753 10.4692 2.77424C10.3105 2.90095 10.185 3.06443 10.1037 3.25054C10.0382 3.40051 9.95681 3.67963 9.86041 4.10993C9.76711 4.52644 9.67107 5.03061 9.56413 5.60288C9.5493 5.68222 9.53429 5.76277 9.51907 5.84442C9.31704 6.92819 9.07884 8.20598 8.76629 9.43608C8.74369 9.52505 8.72061 9.61411 8.69705 9.70313C9.11149 9.8212 9.5033 9.95894 9.86611 10.1165C11.2622 10.7228 12.5001 11.7609 12.5001 13.3335H14.1667V12.9199C14.1653 12.6763 14.2351 12.4376 14.3675 12.2331C14.5009 12.027 14.6921 11.8648 14.9171 11.7667C15.1422 11.6686 15.3911 11.6389 15.6329 11.6813C15.8669 11.7224 16.0842 11.8293 16.2594 11.9893L18.0458 13.537C18.3936 13.8384 18.4313 14.3646 18.1299 14.7125C17.8285 15.0603 17.3022 15.098 16.9544 14.7966L15.7741 13.774C15.6983 14.0507 15.5516 14.3056 15.3453 14.512C15.0327 14.8245 14.6088 15.0001 14.1667 15.0001H12.5001C12.0581 15.0001 11.6341 14.8245 11.3216 14.512C11.009 14.1994 10.8334 13.7755 10.8334 13.3335C10.8334 12.7852 10.4084 12.1691 9.20217 11.6452C8.90161 11.5147 8.56883 11.3983 8.20944 11.2972C7.97638 11.9502 7.70629 12.5652 7.38883 13.0954C6.78778 14.0994 5.88833 15.0001 4.58341 15.0001C3.80987 15.0001 3.068 14.6928 2.52102 14.1459C1.97404 13.5989 1.66675 12.857 1.66675 12.0835C1.66675 11.3099 1.97404 10.5681 2.52102 10.0211C3.068 9.47409 3.80987 9.1668 4.58341 9.1668C4.58502 9.1668 4.58663 9.16681 4.58824 9.16682L4.58896 9.16682C5.43621 9.17246 6.27243 9.23473 7.06509 9.35456C7.09422 9.24601 7.12283 9.13633 7.15095 9.02565C7.44965 7.85008 7.67856 6.62254 7.88228 5.53007C7.89692 5.45157 7.91143 5.37377 7.92582 5.29674C8.03206 4.72819 8.13326 4.19554 8.23406 3.7456C8.33172 3.30964 8.44125 2.89273 8.5764 2.58328L8.57649 2.58307C8.76628 2.14883 9.05903 1.76737 9.42939 1.47171C9.79976 1.17605 10.2366 0.975091 10.7021 0.886219C11.1676 0.797347 11.6477 0.82324 12.101 0.961659C12.5542 1.10008 12.9669 1.34685 13.3033 1.68063C13.6397 2.01441 13.8897 2.42513 14.0317 2.87726C14.1737 3.3294 14.2034 3.80932 14.1182 4.2755C14.033 4.74168 13.8355 5.18008 13.5428 5.55277C13.25 5.92545 12.8709 6.22119 12.4382 6.4144C12.0179 6.60204 11.5251 6.41347 11.3375 5.99321C11.1498 5.57296 11.3384 5.08017 11.7587 4.89254C11.9441 4.80973 12.1066 4.68299 12.2321 4.52327C12.3575 4.36354 12.4422 4.17566 12.4787 3.97586C12.5152 3.77607 12.5025 3.57039 12.4416 3.37662C12.3808 3.18285 12.2736 3.00683 12.1294 2.86378C11.9853 2.72073 11.8084 2.61497 11.6142 2.55565ZM6.55575 10.9657C5.93222 10.8835 5.26797 10.8382 4.58095 10.8335C4.25032 10.8341 3.93337 10.9657 3.69953 11.1996C3.46511 11.434 3.33341 11.7519 3.33341 12.0835C3.33341 12.415 3.46511 12.7329 3.69953 12.9674C3.93395 13.2018 4.25189 13.3335 4.58341 13.3335C5.00891 13.3335 5.46894 13.0576 5.95883 12.2393C6.17603 11.8765 6.37411 11.4458 6.55575 10.9657Z" fill="black"/>
<path fill-rule="evenodd" clip-rule="evenodd" d="M1.66675 17.4998C1.66675 17.0396 2.03984 16.6665 2.50008 16.6665H17.5001C17.9603 16.6665 18.3334 17.0396 18.3334 17.4998C18.3334 17.9601 17.9603 18.3332 17.5001 18.3332H2.50008C2.03984 18.3332 1.66675 17.9601 1.66675 17.4998Z" fill="black"/>
</svg>
