<svg width="20" height="20" viewBox="0 0 20 20" fill="none" xmlns="http://www.w3.org/2000/svg">
<g clip-path="url(#clip0_2001_9927)">
<path fill-rule="evenodd" clip-rule="evenodd" d="M10 6.66667C9.11595 6.66667 8.2681 7.01786 7.64298 7.64298C7.01786 8.2681 6.66667 9.11594 6.66667 10V15C6.66667 15.4602 6.29357 15.8333 5.83333 15.8333C5.3731 15.8333 5 15.4602 5 15V10C5 8.67392 5.52678 7.40215 6.46447 6.46447C7.40215 5.52678 8.67392 5 10 5C11.3261 5 12.5979 5.52678 13.5355 6.46447C14.4732 7.40215 15 8.67392 15 10V15C15 15.4602 14.6269 15.8333 14.1667 15.8333C13.7064 15.8333 13.3333 15.4602 13.3333 15V10C13.3333 9.11594 12.9821 8.2681 12.357 7.64298C11.7319 7.01786 10.8841 6.66667 10 6.66667Z" fill="black"/>
<path fill-rule="evenodd" clip-rule="evenodd" d="M4.06548 14.8987C4.53433 14.4299 5.17021 14.1665 5.83325 14.1665H14.1666C14.8296 14.1665 15.4655 14.4299 15.9344 14.8987C16.4032 15.3676 16.6666 16.0035 16.6666 16.6665V17.4998C16.6666 17.9419 16.491 18.3658 16.1784 18.6783C15.8659 18.9909 15.4419 19.1665 14.9999 19.1665H4.99992C4.55789 19.1665 4.13397 18.9909 3.82141 18.6783C3.50885 18.3658 3.33325 17.9419 3.33325 17.4998V16.6665C3.33325 16.0035 3.59664 15.3676 4.06548 14.8987ZM5.83325 15.8332C5.61224 15.8332 5.40028 15.921 5.244 16.0772C5.08772 16.2335 4.99992 16.4455 4.99992 16.6665V17.4998H14.9999V16.6665C14.9999 16.4455 14.9121 16.2335 14.7558 16.0772C14.5996 15.921 14.3876 15.8332 14.1666 15.8332H5.83325Z" fill="black"/>
<path fill-rule="evenodd" clip-rule="evenodd" d="M16.6667 9.99984C16.6667 9.5396 17.0398 9.1665 17.5001 9.1665H18.3334C18.7937 9.1665 19.1667 9.5396 19.1667 9.99984C19.1667 10.4601 18.7937 10.8332 18.3334 10.8332H17.5001C17.0398 10.8332 16.6667 10.4601 16.6667 9.99984Z" fill="black"/>
<path fill-rule="evenodd" clip-rule="evenodd" d="M16.006 3.16058C16.3314 3.48602 16.3314 4.01366 16.006 4.33909L15.5893 4.75576C15.2639 5.0812 14.7363 5.0812 14.4108 4.75576C14.0854 4.43032 14.0854 3.90269 14.4108 3.57725L14.8275 3.16058C15.1529 2.83514 15.6806 2.83514 16.006 3.16058Z" fill="black"/>
<path fill-rule="evenodd" clip-rule="evenodd" d="M0.833252 9.99984C0.833252 9.5396 1.20635 9.1665 1.66659 9.1665H2.49992C2.96016 9.1665 3.33325 9.5396 3.33325 9.99984C3.33325 10.4601 2.96016 10.8332 2.49992 10.8332H1.66659C1.20635 10.8332 0.833252 10.4601 0.833252 9.99984Z" fill="black"/>
<path fill-rule="evenodd" clip-rule="evenodd" d="M10.0001 0.833496C10.4603 0.833496 10.8334 1.20659 10.8334 1.66683V2.50016C10.8334 2.9604 10.4603 3.3335 10.0001 3.3335C9.53984 3.3335 9.16675 2.9604 9.16675 2.50016V1.66683C9.16675 1.20659 9.53984 0.833496 10.0001 0.833496Z" fill="black"/>
<path fill-rule="evenodd" clip-rule="evenodd" d="M3.51825 3.518C3.84368 3.19257 4.37132 3.19257 4.69676 3.518L5.28593 4.10717C5.61136 4.43261 5.61136 4.96024 5.28593 5.28568C4.96049 5.61112 4.43285 5.61112 4.10741 5.28568L3.51825 4.69651C3.19281 4.37108 3.19281 3.84344 3.51825 3.518Z" fill="black"/>
<path fill-rule="evenodd" clip-rule="evenodd" d="M10.0001 9.1665C10.4603 9.1665 10.8334 9.5396 10.8334 9.99984V14.9998C10.8334 15.4601 10.4603 15.8332 10.0001 15.8332C9.53984 15.8332 9.16675 15.4601 9.16675 14.9998V9.99984C9.16675 9.5396 9.53984 9.1665 10.0001 9.1665Z" fill="black"/>
</g>
<defs>
<clipPath id="clip0_2001_9927">
<rect width="20" height="20" fill="white"/>
</clipPath>
</defs>
</svg>
