<svg width="20" height="20" viewBox="0 0 20 20" fill="none" xmlns="http://www.w3.org/2000/svg">
<path fill-rule="evenodd" clip-rule="evenodd" d="M16.1944 2.58226C16.4831 2.72102 16.6667 3.013 16.6667 3.33334V16.6667C16.6667 16.987 16.4831 17.279 16.1944 17.4178C15.9057 17.5565 15.563 17.5175 15.3128 17.3174L6.9795 10.6507C6.78182 10.4926 6.66675 10.2532 6.66675 10C6.66675 9.74685 6.78182 9.50743 6.9795 9.34928L15.3128 2.68262C15.563 2.4825 15.9057 2.44349 16.1944 2.58226ZM8.83407 10L15.0001 14.9328V5.06719L8.83407 10Z" fill="black"/>
<path fill-rule="evenodd" clip-rule="evenodd" d="M4.16659 3.3335C4.62682 3.3335 4.99992 3.70659 4.99992 4.16683V15.8335C4.99992 16.2937 4.62682 16.6668 4.16659 16.6668C3.70635 16.6668 3.33325 16.2937 3.33325 15.8335V4.16683C3.33325 3.70659 3.70635 3.3335 4.16659 3.3335Z" fill="black"/>
</svg>
