<svg width="20" height="20" viewBox="0 0 20 20" fill="none" xmlns="http://www.w3.org/2000/svg">
<path fill-rule="evenodd" clip-rule="evenodd" d="M10 12.5C10.3156 12.5 10.6042 12.6783 10.7454 12.9607L11.162 13.794C11.2912 14.0523 11.2774 14.3591 11.1255 14.6048C10.9737 14.8505 10.7055 15 10.4167 15H9.58333C9.29452 15 9.0263 14.8505 8.87446 14.6048C8.72262 14.3591 8.70882 14.0523 8.83798 13.794L9.25464 12.9607C9.3958 12.6783 9.68436 12.5 10 12.5Z" fill="black"/>
<path fill-rule="evenodd" clip-rule="evenodd" d="M5.80679 2.94676C7.04565 2.11136 8.5058 1.66504 10 1.66504C11.4942 1.66504 12.9544 2.11136 14.1932 2.94676C15.4321 3.78216 16.3931 4.96857 16.9532 6.35384C17.5133 7.73911 17.6468 9.2601 17.3367 10.7218C17.0716 11.971 16.4928 13.1283 15.6594 14.0866C15.7384 14.2878 15.7913 14.4993 15.8161 14.7162C15.8696 15.184 15.7899 15.6574 15.5861 16.0819C15.3823 16.5064 15.0628 16.8648 14.6644 17.1156C14.5072 17.2146 14.3402 17.2953 14.1667 17.3568V17.5001C14.1667 17.9421 13.9911 18.3661 13.6785 18.6786C13.366 18.9912 12.942 19.1668 12.5 19.1668H7.5C7.05798 19.1668 6.63405 18.9912 6.32149 18.6786C6.00893 18.3661 5.83334 17.9421 5.83334 17.5001V17.3568C5.65983 17.2953 5.49284 17.2146 5.33562 17.1156C4.93716 16.8648 4.61766 16.5064 4.4139 16.0819C4.21014 15.6574 4.13041 15.184 4.18388 14.7162C4.20867 14.4993 4.26162 14.2878 4.3406 14.0866C3.50724 13.1283 2.92841 11.971 2.66334 10.7218C2.3532 9.2601 2.48672 7.73911 3.04679 6.35384C3.60686 4.96857 4.56794 3.78216 5.80679 2.94676ZM10 3.33171C8.83784 3.33171 7.70217 3.67884 6.73862 4.3286C5.77507 4.97836 5.02756 5.90112 4.59195 6.97855C4.15634 8.05598 4.05249 9.23897 4.29371 10.3758C4.53493 11.5127 5.11023 12.5516 5.94584 13.3593C6.25513 13.6582 6.28604 14.1435 6.01719 14.4793C5.91909 14.6018 5.85759 14.7495 5.83977 14.9055C5.82194 15.0614 5.84852 15.2192 5.91644 15.3607C5.98436 15.5022 6.09086 15.6217 6.22368 15.7053C6.3565 15.7889 6.51024 15.8333 6.66719 15.8334C7.12722 15.8337 7.5 16.2067 7.5 16.6668V17.5001H12.5V16.6668C12.5 16.2067 12.8728 15.8337 13.3328 15.8334C13.4898 15.8333 13.6435 15.7889 13.7763 15.7053C13.9091 15.6217 14.0156 15.5022 14.0836 15.3607C14.1515 15.2192 14.1781 15.0614 14.1602 14.9055C14.1424 14.7495 14.0809 14.6018 13.9828 14.4793C13.714 14.1435 13.7449 13.6582 14.0542 13.3593C14.8898 12.5516 15.4651 11.5127 15.7063 10.3758C15.9475 9.23897 15.8437 8.05598 15.4081 6.97855C14.9724 5.90112 14.2249 4.97836 13.2614 4.3286C12.2978 3.67884 11.1622 3.33171 10 3.33171Z" fill="black"/>
<path fill-rule="evenodd" clip-rule="evenodd" d="M10.8333 10.0002C10.8333 9.07969 11.5794 8.3335 12.4999 8.3335C13.4204 8.3335 14.1666 9.07969 14.1666 10.0002C14.1666 10.9206 13.4204 11.6668 12.4999 11.6668C11.5794 11.6668 10.8333 10.9206 10.8333 10.0002Z" fill="black"/>
<path fill-rule="evenodd" clip-rule="evenodd" d="M5.83325 10.0002C5.83325 9.07969 6.57944 8.3335 7.49992 8.3335C8.42039 8.3335 9.16658 9.07969 9.16658 10.0002C9.16658 10.9206 8.42039 11.6668 7.49992 11.6668C6.57944 11.6668 5.83325 10.9206 5.83325 10.0002Z" fill="black"/>
</svg>
