<svg width="20" height="20" viewBox="0 0 20 20" fill="none" xmlns="http://www.w3.org/2000/svg">
<g clip-path="url(#clip0_2001_9947)">
<path fill-rule="evenodd" clip-rule="evenodd" d="M12.0833 2.50016C11.8532 2.50016 11.6667 2.68671 11.6667 2.91683V7.0835C11.6667 7.31361 11.8532 7.50016 12.0833 7.50016C12.3135 7.50016 12.5 7.31361 12.5 7.0835V2.91683C12.5 2.68671 12.3135 2.50016 12.0833 2.50016ZM10 2.91683C10 1.76624 10.9327 0.833496 12.0833 0.833496C13.2339 0.833496 14.1667 1.76624 14.1667 2.91683V7.0835C14.1667 8.23409 13.2339 9.16683 12.0833 9.16683C10.9327 9.16683 10 8.23409 10 7.0835V2.91683Z" fill="black"/>
<path fill-rule="evenodd" clip-rule="evenodd" d="M16.2861 5.15859C16.6668 5.0009 17.0856 4.95965 17.4898 5.04003C17.8939 5.12042 18.2651 5.31884 18.5565 5.6102C18.8478 5.90155 19.0463 6.27277 19.1266 6.6769C19.207 7.08102 19.1658 7.49991 19.0081 7.88059C18.8504 8.26127 18.5834 8.58664 18.2408 8.81556C17.8982 9.04448 17.4954 9.16667 17.0833 9.16667H15.8333C15.3731 9.16667 15 8.79357 15 8.33333V7.08333C15 6.67129 15.1222 6.2685 15.3511 5.9259C15.58 5.58329 15.9054 5.31627 16.2861 5.15859ZM17.1646 6.67467C17.0838 6.6586 17 6.66685 16.9239 6.69838C16.8477 6.72992 16.7827 6.78333 16.7369 6.85185C16.6911 6.92037 16.6667 7.00093 16.6667 7.08333V7.5H17.0833C17.1657 7.5 17.2463 7.47556 17.3148 7.42978C17.3833 7.384 17.4367 7.31892 17.4683 7.24279C17.4998 7.16665 17.5081 7.08287 17.492 7.00205C17.4759 6.92122 17.4362 6.84698 17.378 6.78871C17.3197 6.73043 17.2454 6.69075 17.1646 6.67467Z" fill="black"/>
<path fill-rule="evenodd" clip-rule="evenodd" d="M7.91659 12.5002C7.68647 12.5002 7.49992 12.6867 7.49992 12.9168V17.0835C7.49992 17.3136 7.68647 17.5002 7.91659 17.5002C8.1467 17.5002 8.33325 17.3136 8.33325 17.0835V12.9168C8.33325 12.6867 8.1467 12.5002 7.91659 12.5002ZM5.83325 12.9168C5.83325 11.7662 6.76599 10.8335 7.91659 10.8335C9.06718 10.8335 9.99992 11.7662 9.99992 12.9168V17.0835C9.99992 18.2341 9.06718 19.1668 7.91659 19.1668C6.76599 19.1668 5.83325 18.2341 5.83325 17.0835V12.9168Z" fill="black"/>
<path fill-rule="evenodd" clip-rule="evenodd" d="M1.75915 11.1846C2.10175 10.9557 2.50454 10.8335 2.91659 10.8335H4.16659C4.62682 10.8335 4.99992 11.2066 4.99992 11.6668V12.9168C4.99992 13.3289 4.87773 13.7317 4.64881 14.0743C4.41989 14.4169 4.09452 14.6839 3.71384 14.8416C3.33317 14.9993 2.91428 15.0405 2.51015 14.9601C2.10602 14.8797 1.73481 14.6813 1.44345 14.39C1.15209 14.0986 0.95367 13.7274 0.873284 13.3233C0.792898 12.9191 0.834155 12.5003 0.991837 12.1196C1.14952 11.7389 1.41655 11.4135 1.75915 11.1846ZM2.91659 12.5002C2.83418 12.5002 2.75362 12.5246 2.6851 12.5704C2.61658 12.6162 2.56317 12.6812 2.53164 12.7574C2.5001 12.8335 2.49185 12.9173 2.50793 12.9981C2.524 13.0789 2.56369 13.1532 2.62196 13.2115C2.68023 13.2697 2.75447 13.3094 2.8353 13.3255C2.91612 13.3416 2.9999 13.3333 3.07604 13.3018C3.15217 13.2702 3.21725 13.2168 3.26303 13.1483C3.30882 13.0798 3.33325 12.9992 3.33325 12.9168V12.5002H2.91659Z" fill="black"/>
<path fill-rule="evenodd" clip-rule="evenodd" d="M12.9166 11.6667C12.6865 11.6667 12.4999 11.8532 12.4999 12.0833C12.4999 12.3135 12.6865 12.5 12.9166 12.5H17.0833C17.3134 12.5 17.4999 12.3135 17.4999 12.0833C17.4999 11.8532 17.3134 11.6667 17.0833 11.6667H12.9166ZM10.8333 12.0833C10.8333 10.9327 11.766 10 12.9166 10H17.0833C18.2338 10 19.1666 10.9327 19.1666 12.0833C19.1666 13.2339 18.2338 14.1667 17.0833 14.1667H12.9166C11.766 14.1667 10.8333 13.2339 10.8333 12.0833Z" fill="black"/>
<path fill-rule="evenodd" clip-rule="evenodd" d="M10.8333 15.8333C10.8333 15.3731 11.2063 15 11.6666 15H12.9166C13.3286 15 13.7314 15.1222 14.074 15.3511C14.4166 15.58 14.6837 15.9054 14.8413 16.2861C14.999 16.6668 15.0403 17.0856 14.9599 17.4898C14.8795 17.8939 14.6811 18.2651 14.3897 18.5565C14.0984 18.8478 13.7272 19.0463 13.323 19.1266C12.9189 19.207 12.5 19.1658 12.1193 19.0081C11.7386 18.8504 11.4133 18.5834 11.1844 18.2408C10.9554 17.8982 10.8333 17.4954 10.8333 17.0833V15.8333ZM12.4999 16.6667V17.0833C12.4999 17.1657 12.5244 17.2463 12.5701 17.3148C12.6159 17.3833 12.681 17.4367 12.7571 17.4683C12.8333 17.4998 12.917 17.5081 12.9979 17.492C13.0787 17.4759 13.1529 17.4362 13.2112 17.378C13.2695 17.3197 13.3092 17.2454 13.3252 17.1646C13.3413 17.0838 13.3331 17 13.3015 16.9239C13.27 16.8477 13.2166 16.7827 13.1481 16.7369C13.0796 16.6911 12.999 16.6667 12.9166 16.6667H12.4999Z" fill="black"/>
<path fill-rule="evenodd" clip-rule="evenodd" d="M2.91659 7.50016C2.68647 7.50016 2.49992 7.68671 2.49992 7.91683C2.49992 8.14695 2.68647 8.3335 2.91659 8.3335H7.08325C7.31337 8.3335 7.49992 8.14695 7.49992 7.91683C7.49992 7.68671 7.31337 7.50016 7.08325 7.50016H2.91659ZM0.833252 7.91683C0.833252 6.76624 1.76599 5.8335 2.91659 5.8335H7.08325C8.23384 5.8335 9.16658 6.76624 9.16658 7.91683C9.16658 9.06742 8.23384 10.0002 7.08325 10.0002H2.91659C1.76599 10.0002 0.833252 9.06742 0.833252 7.91683Z" fill="black"/>
<path fill-rule="evenodd" clip-rule="evenodd" d="M6.6769 0.873528C7.08102 0.793142 7.49991 0.834399 7.88059 0.992081C8.26127 1.14976 8.58664 1.41679 8.81556 1.75939C9.04448 2.102 9.16667 2.50479 9.16667 2.91683V4.16683C9.16667 4.62707 8.79357 5.00016 8.33333 5.00016H7.08333C6.67129 5.00016 6.2685 4.87798 5.9259 4.64906C5.58329 4.42014 5.31627 4.09477 5.15859 3.71409C5.0009 3.33341 4.95965 2.91452 5.04003 2.51039C5.12042 2.10627 5.31884 1.73505 5.6102 1.44369C5.90155 1.15233 6.27277 0.953914 6.6769 0.873528ZM7.24279 2.53188C7.16665 2.50034 7.08287 2.49209 7.00205 2.50817C6.92122 2.52425 6.84698 2.56393 6.78871 2.6222C6.73043 2.68047 6.69075 2.75472 6.67467 2.83554C6.6586 2.91637 6.66685 3.00015 6.69838 3.07628C6.72992 3.15242 6.78333 3.21749 6.85185 3.26328C6.92037 3.30906 7.00093 3.3335 7.08333 3.3335H7.5V2.91683C7.5 2.83442 7.47556 2.75386 7.42978 2.68534C7.384 2.61682 7.31892 2.56342 7.24279 2.53188Z" fill="black"/>
</g>
<defs>
<clipPath id="clip0_2001_9947">
<rect width="20" height="20" fill="white"/>
</clipPath>
</defs>
</svg>
