<svg width="20" height="20" viewBox="0 0 20 20" fill="none" xmlns="http://www.w3.org/2000/svg">
<path fill-rule="evenodd" clip-rule="evenodd" d="M7.25587 11.0776C7.5813 11.403 7.5813 11.9306 7.25587 12.2561L3.67845 15.8335H8.33328V14.1668C8.33328 13.7066 8.70637 13.3335 9.16661 13.3335C9.62685 13.3335 9.99994 13.7066 9.99994 14.1668V16.6668C9.99994 17.1271 9.62685 17.5002 9.16661 17.5002H1.66661C1.32956 17.5002 1.02569 17.2971 0.89671 16.9857C0.767726 16.6743 0.839022 16.3159 1.07735 16.0776L6.07735 11.0776C6.40279 10.7521 6.93043 10.7521 7.25587 11.0776Z" fill="black"/>
<path fill-rule="evenodd" clip-rule="evenodd" d="M14.719 2.43567C15.2068 1.94787 15.8684 1.67383 16.5583 1.67383C17.2481 1.67383 17.9097 1.94787 18.3975 2.43567C18.8853 2.92347 19.1594 3.58508 19.1594 4.27493C19.1594 4.96478 18.8853 5.62638 18.3975 6.11418L9.75584 14.7559C9.4304 15.0813 8.90277 15.0813 8.57733 14.7559L6.07733 12.2559C5.92105 12.0996 5.83325 11.8876 5.83325 11.6666C5.83325 11.4456 5.92105 11.2336 6.07733 11.0773L14.719 2.43567ZM16.5583 3.34049C16.3104 3.34049 16.0727 3.43894 15.8975 3.61418L7.8451 11.6666L9.16658 12.9881L17.219 4.93567C17.3942 4.76043 17.4927 4.52276 17.4927 4.27493C17.4927 4.0271 17.3942 3.78942 17.219 3.61418C17.0438 3.43894 16.8061 3.34049 16.5583 3.34049Z" fill="black"/>
</svg>
