<svg width="20" height="20" viewBox="0 0 20 20" fill="none" xmlns="http://www.w3.org/2000/svg">
<path fill-rule="evenodd" clip-rule="evenodd" d="M3.33333 10.8335C3.79357 10.8335 4.16667 11.2066 4.16667 11.6668V17.5002C4.16667 17.9604 3.79357 18.3335 3.33333 18.3335C2.8731 18.3335 2.5 17.9604 2.5 17.5002V11.6668C2.5 11.2066 2.8731 10.8335 3.33333 10.8335Z" fill="black"/>
<path fill-rule="evenodd" clip-rule="evenodd" d="M3.33333 1.6665C3.79357 1.6665 4.16667 2.0396 4.16667 2.49984V8.33317C4.16667 8.79341 3.79357 9.1665 3.33333 9.1665C2.8731 9.1665 2.5 8.79341 2.5 8.33317V2.49984C2.5 2.0396 2.8731 1.6665 3.33333 1.6665Z" fill="black"/>
<path fill-rule="evenodd" clip-rule="evenodd" d="M10.0001 9.1665C10.4603 9.1665 10.8334 9.5396 10.8334 9.99984V17.4998C10.8334 17.9601 10.4603 18.3332 10.0001 18.3332C9.53984 18.3332 9.16675 17.9601 9.16675 17.4998V9.99984C9.16675 9.5396 9.53984 9.1665 10.0001 9.1665Z" fill="black"/>
<path fill-rule="evenodd" clip-rule="evenodd" d="M10.0001 1.6665C10.4603 1.6665 10.8334 2.0396 10.8334 2.49984V6.6665C10.8334 7.12674 10.4603 7.49984 10.0001 7.49984C9.53984 7.49984 9.16675 7.12674 9.16675 6.6665V2.49984C9.16675 2.0396 9.53984 1.6665 10.0001 1.6665Z" fill="black"/>
<path fill-rule="evenodd" clip-rule="evenodd" d="M16.6666 12.5C17.1268 12.5 17.4999 12.8731 17.4999 13.3333V17.5C17.4999 17.9602 17.1268 18.3333 16.6666 18.3333C16.2063 18.3333 15.8333 17.9602 15.8333 17.5V13.3333C15.8333 12.8731 16.2063 12.5 16.6666 12.5Z" fill="black"/>
<path fill-rule="evenodd" clip-rule="evenodd" d="M16.6666 1.6665C17.1268 1.6665 17.4999 2.0396 17.4999 2.49984V9.99984C17.4999 10.4601 17.1268 10.8332 16.6666 10.8332C16.2063 10.8332 15.8333 10.4601 15.8333 9.99984V2.49984C15.8333 2.0396 16.2063 1.6665 16.6666 1.6665Z" fill="black"/>
<path fill-rule="evenodd" clip-rule="evenodd" d="M0.833252 11.6668C0.833252 11.2066 1.20635 10.8335 1.66659 10.8335H4.99992C5.46016 10.8335 5.83325 11.2066 5.83325 11.6668C5.83325 12.1271 5.46016 12.5002 4.99992 12.5002H1.66659C1.20635 12.5002 0.833252 12.1271 0.833252 11.6668Z" fill="black"/>
<path fill-rule="evenodd" clip-rule="evenodd" d="M7.5 6.66683C7.5 6.20659 7.8731 5.8335 8.33333 5.8335H11.6667C12.1269 5.8335 12.5 6.20659 12.5 6.66683C12.5 7.12707 12.1269 7.50016 11.6667 7.50016H8.33333C7.8731 7.50016 7.5 7.12707 7.5 6.66683Z" fill="black"/>
<path fill-rule="evenodd" clip-rule="evenodd" d="M14.1667 13.3333C14.1667 12.8731 14.5398 12.5 15.0001 12.5H18.3334C18.7937 12.5 19.1667 12.8731 19.1667 13.3333C19.1667 13.7936 18.7937 14.1667 18.3334 14.1667H15.0001C14.5398 14.1667 14.1667 13.7936 14.1667 13.3333Z" fill="black"/>
</svg>
