<svg width="20" height="20" viewBox="0 0 20 20" fill="none" xmlns="http://www.w3.org/2000/svg">
<path fill-rule="evenodd" clip-rule="evenodd" d="M10.8333 3.33333C10.8333 2.8731 11.2063 2.5 11.6666 2.5H17.4999C17.9602 2.5 18.3333 2.8731 18.3333 3.33333C18.3333 3.79357 17.9602 4.16667 17.4999 4.16667H11.6666C11.2063 4.16667 10.8333 3.79357 10.8333 3.33333Z" fill="black"/>
<path fill-rule="evenodd" clip-rule="evenodd" d="M1.66675 3.33333C1.66675 2.8731 2.03984 2.5 2.50008 2.5H8.33342C8.79365 2.5 9.16675 2.8731 9.16675 3.33333C9.16675 3.79357 8.79365 4.16667 8.33342 4.16667H2.50008C2.03984 4.16667 1.66675 3.79357 1.66675 3.33333Z" fill="black"/>
<path fill-rule="evenodd" clip-rule="evenodd" d="M9.16675 9.99984C9.16675 9.5396 9.53984 9.1665 10.0001 9.1665H17.5001C17.9603 9.1665 18.3334 9.5396 18.3334 9.99984C18.3334 10.4601 17.9603 10.8332 17.5001 10.8332H10.0001C9.53984 10.8332 9.16675 10.4601 9.16675 9.99984Z" fill="black"/>
<path fill-rule="evenodd" clip-rule="evenodd" d="M1.66675 9.99984C1.66675 9.5396 2.03984 9.1665 2.50008 9.1665H6.66675C7.12699 9.1665 7.50008 9.5396 7.50008 9.99984C7.50008 10.4601 7.12699 10.8332 6.66675 10.8332H2.50008C2.03984 10.8332 1.66675 10.4601 1.66675 9.99984Z" fill="black"/>
<path fill-rule="evenodd" clip-rule="evenodd" d="M12.5 16.6668C12.5 16.2066 12.8731 15.8335 13.3333 15.8335H17.5C17.9602 15.8335 18.3333 16.2066 18.3333 16.6668C18.3333 17.1271 17.9602 17.5002 17.5 17.5002H13.3333C12.8731 17.5002 12.5 17.1271 12.5 16.6668Z" fill="black"/>
<path fill-rule="evenodd" clip-rule="evenodd" d="M1.66675 16.6668C1.66675 16.2066 2.03984 15.8335 2.50008 15.8335H10.0001C10.4603 15.8335 10.8334 16.2066 10.8334 16.6668C10.8334 17.1271 10.4603 17.5002 10.0001 17.5002H2.50008C2.03984 17.5002 1.66675 17.1271 1.66675 16.6668Z" fill="black"/>
<path fill-rule="evenodd" clip-rule="evenodd" d="M11.6666 0.833496C12.1268 0.833496 12.4999 1.20659 12.4999 1.66683V5.00016C12.4999 5.4604 12.1268 5.8335 11.6666 5.8335C11.2063 5.8335 10.8333 5.4604 10.8333 5.00016V1.66683C10.8333 1.20659 11.2063 0.833496 11.6666 0.833496Z" fill="black"/>
<path fill-rule="evenodd" clip-rule="evenodd" d="M6.66659 7.5C7.12682 7.5 7.49992 7.8731 7.49992 8.33333V11.6667C7.49992 12.1269 7.12682 12.5 6.66659 12.5C6.20635 12.5 5.83325 12.1269 5.83325 11.6667V8.33333C5.83325 7.8731 6.20635 7.5 6.66659 7.5Z" fill="black"/>
<path fill-rule="evenodd" clip-rule="evenodd" d="M13.3333 14.1665C13.7936 14.1665 14.1667 14.5396 14.1667 14.9998V18.3332C14.1667 18.7934 13.7936 19.1665 13.3333 19.1665C12.8731 19.1665 12.5 18.7934 12.5 18.3332V14.9998C12.5 14.5396 12.8731 14.1665 13.3333 14.1665Z" fill="black"/>
</svg>
