<svg width="20" height="20" viewBox="0 0 20 20" fill="none" xmlns="http://www.w3.org/2000/svg">
<path fill-rule="evenodd" clip-rule="evenodd" d="M5.83325 2.50016C5.37301 2.50016 4.99992 2.87326 4.99992 3.3335V16.6668C4.99992 17.1271 5.37301 17.5002 5.83325 17.5002H14.1666C14.6268 17.5002 14.9999 17.1271 14.9999 16.6668V3.3335C14.9999 2.87326 14.6268 2.50016 14.1666 2.50016H5.83325ZM3.33325 3.3335C3.33325 1.95278 4.45254 0.833496 5.83325 0.833496H14.1666C15.5473 0.833496 16.6666 1.95278 16.6666 3.3335V16.6668C16.6666 18.0475 15.5473 19.1668 14.1666 19.1668H5.83325C4.45254 19.1668 3.33325 18.0475 3.33325 16.6668V3.3335Z" fill="black"/>
<path fill-rule="evenodd" clip-rule="evenodd" d="M11.0181 5.97357C11.4011 6.22889 11.5045 6.74628 11.2492 7.12921L9.89054 9.16692H11.6667C11.974 9.16692 12.2564 9.33608 12.4014 9.60706C12.5464 9.87803 12.5305 10.2068 12.36 10.4625L10.1375 13.7959C9.8822 14.1788 9.3648 14.2822 8.98188 14.0269C8.59895 13.7716 8.4955 13.2542 8.75082 12.8713L10.1095 10.8336H8.33333C8.026 10.8336 7.74361 10.6644 7.59859 10.3934C7.45358 10.1225 7.46949 9.79367 7.63999 9.53796L9.86249 6.20463C10.1178 5.8217 10.6352 5.71825 11.0181 5.97357Z" fill="black"/>
</svg>
