<svg width="20" height="20" viewBox="0 0 20 20" fill="none" xmlns="http://www.w3.org/2000/svg">
<path fill-rule="evenodd" clip-rule="evenodd" d="M5.83325 2.50016C5.37301 2.50016 4.99992 2.87326 4.99992 3.3335V16.6668C4.99992 17.1271 5.37301 17.5002 5.83325 17.5002H14.1666C14.6268 17.5002 14.9999 17.1271 14.9999 16.6668V3.3335C14.9999 2.87326 14.6268 2.50016 14.1666 2.50016H5.83325ZM3.33325 3.3335C3.33325 1.95278 4.45254 0.833496 5.83325 0.833496H14.1666C15.5473 0.833496 16.6666 1.95278 16.6666 3.3335V16.6668C16.6666 18.0475 15.5473 19.1668 14.1666 19.1668H5.83325C4.45254 19.1668 3.33325 18.0475 3.33325 16.6668V3.3335Z" fill="black"/>
<path fill-rule="evenodd" clip-rule="evenodd" d="M9.16675 14.9998C9.16675 14.5396 9.53984 14.1665 10.0001 14.1665H10.0084C10.4687 14.1665 10.8417 14.5396 10.8417 14.9998C10.8417 15.4601 10.4687 15.8332 10.0084 15.8332H10.0001C9.53984 15.8332 9.16675 15.4601 9.16675 14.9998Z" fill="black"/>
</svg>
