<svg width="20" height="20" viewBox="0 0 20 20" fill="none" xmlns="http://www.w3.org/2000/svg">
<path fill-rule="evenodd" clip-rule="evenodd" d="M2.49992 5.83317V14.1665H6.66659V5.83317H2.49992ZM0.833252 5.83317C0.833252 4.9127 1.57944 4.1665 2.49992 4.1665H6.66659C7.58706 4.1665 8.33325 4.9127 8.33325 5.83317V14.1665C8.33325 15.087 7.58706 15.8332 6.66659 15.8332H2.49992C1.57944 15.8332 0.833252 15.087 0.833252 14.1665V5.83317Z" fill="black"/>
<path fill-rule="evenodd" clip-rule="evenodd" d="M10.4205 6.20963C10.8203 5.98168 11.3292 6.12101 11.5572 6.52083C12.1615 7.58086 12.4794 8.78003 12.4794 10.0002C12.4794 11.2205 12.1615 12.4196 11.5572 13.4796C11.3292 13.8795 10.8203 14.0188 10.4205 13.7908C10.0207 13.5629 9.88134 13.054 10.1093 12.6542C10.5703 11.8456 10.8127 10.931 10.8127 10.0002C10.8127 9.06952 10.5703 8.15486 10.1093 7.34632C9.88134 6.94649 10.0207 6.43758 10.4205 6.20963Z" fill="black"/>
<path fill-rule="evenodd" clip-rule="evenodd" d="M13.3065 4.44946C13.7071 4.22286 14.2155 4.36391 14.4421 4.7645C15.3455 6.36148 15.8202 8.16502 15.8202 9.99979C15.8202 11.8346 15.3455 13.6381 14.4421 15.2351C14.2155 15.6357 13.7071 15.7767 13.3065 15.5501C12.9059 15.3235 12.7649 14.8151 12.9914 14.4145C13.7532 13.0678 14.1535 11.547 14.1535 9.99979C14.1535 8.4526 13.7532 6.93174 12.9914 5.58508C12.7649 5.18449 12.9059 4.67605 13.3065 4.44946Z" fill="black"/>
<path fill-rule="evenodd" clip-rule="evenodd" d="M16.1775 2.6934C16.5769 2.46462 17.0861 2.60289 17.3149 3.00224C18.535 5.13205 19.1777 7.54363 19.1792 9.99818C19.1808 12.4527 18.5412 14.8651 17.3237 16.9965C17.0954 17.3961 16.5864 17.535 16.1868 17.3068C15.7871 17.0785 15.6482 16.5695 15.8765 16.1698C16.95 14.2905 17.5139 12.1635 17.5126 9.99924C17.5112 7.83499 16.9445 5.70864 15.8687 3.83073C15.6399 3.43138 15.7782 2.92218 16.1775 2.6934Z" fill="black"/>
</svg>
