<svg width="20" height="20" viewBox="0 0 20 20" fill="none" xmlns="http://www.w3.org/2000/svg">
<g clip-path="url(#clip0_2001_9999)">
<path fill-rule="evenodd" clip-rule="evenodd" d="M9.99992 2.50016C5.85778 2.50016 2.49992 5.85803 2.49992 10.0002C2.49992 14.1423 5.85778 17.5002 9.99992 17.5002C14.1421 17.5002 17.4999 14.1423 17.4999 10.0002C17.4999 5.85803 14.1421 2.50016 9.99992 2.50016ZM0.833252 10.0002C0.833252 4.93755 4.93731 0.833496 9.99992 0.833496C15.0625 0.833496 19.1666 4.93755 19.1666 10.0002C19.1666 15.0628 15.0625 19.1668 9.99992 19.1668C4.93731 19.1668 0.833252 15.0628 0.833252 10.0002Z" fill="black"/>
<path fill-rule="evenodd" clip-rule="evenodd" d="M7.33081 11.1636C7.05402 10.7982 6.53372 10.7249 6.16663 11.0002C5.79844 11.2764 5.72383 11.7987 5.99997 12.1669L6.66663 11.6669C5.99997 12.1669 6.00017 12.1671 6.00037 12.1674L6.00081 12.168L6.00177 12.1693C6.00211 12.1697 6.00246 12.1702 6.00284 12.1707C6.00322 12.1712 6.00363 12.1717 6.00405 12.1723C6.00574 12.1745 6.00774 12.1771 6.01006 12.1801C6.0147 12.1862 6.02062 12.1938 6.02781 12.2028C6.04218 12.221 6.06164 12.2451 6.0861 12.2742C6.13497 12.3324 6.20413 12.4113 6.29284 12.5039C6.46957 12.6883 6.72783 12.9312 7.06191 13.1742C7.72686 13.6578 8.72869 14.1669 9.99997 14.1669C11.2712 14.1669 12.2731 13.6578 12.938 13.1742C13.2721 12.9312 13.5304 12.6883 13.7071 12.5039C13.7958 12.4113 13.865 12.3324 13.9138 12.2742C13.9383 12.2451 13.9578 12.221 13.9721 12.2028C13.9793 12.1938 13.9852 12.1862 13.9899 12.1801C13.9922 12.1771 13.9942 12.1745 13.9959 12.1723L13.9967 12.1712C13.9972 12.1705 13.9977 12.1699 13.9982 12.1693L13.9991 12.168L13.9996 12.1674C13.9998 12.1671 14 12.1669 13.3333 11.6669L14 12.1669C14.2761 11.7987 14.2015 11.2764 13.8333 11.0002C13.4662 10.7249 12.9459 10.7982 12.6691 11.1636C12.6686 11.1643 12.6673 11.1659 12.6654 11.1683C12.6604 11.1746 12.651 11.1863 12.6372 11.2028C12.6096 11.2357 12.5648 11.287 12.5038 11.3507C12.381 11.4788 12.1966 11.6526 11.9577 11.8263C11.4769 12.176 10.812 12.5002 9.99997 12.5002C9.18791 12.5002 8.52308 12.176 8.04219 11.8263C7.80336 11.6526 7.61891 11.4788 7.49616 11.3507C7.43512 11.287 7.39035 11.2357 7.36273 11.2028C7.34894 11.1863 7.33951 11.1746 7.33455 11.1683C7.33261 11.1659 7.33136 11.1643 7.33081 11.1636ZM12.6674 11.1658L12.6674 11.1659L12.667 11.1664C12.6671 11.1662 12.6673 11.166 12.6674 11.1658Z" fill="black"/>
<path fill-rule="evenodd" clip-rule="evenodd" d="M6.66675 7.49984C6.66675 7.0396 7.03984 6.6665 7.50008 6.6665H7.50841C7.96865 6.6665 8.34175 7.0396 8.34175 7.49984C8.34175 7.96007 7.96865 8.33317 7.50841 8.33317H7.50008C7.03984 8.33317 6.66675 7.96007 6.66675 7.49984Z" fill="black"/>
<path fill-rule="evenodd" clip-rule="evenodd" d="M11.6667 7.49984C11.6667 7.0396 12.0398 6.6665 12.5001 6.6665H12.5084C12.9687 6.6665 13.3417 7.0396 13.3417 7.49984C13.3417 7.96007 12.9687 8.33317 12.5084 8.33317H12.5001C12.0398 8.33317 11.6667 7.96007 11.6667 7.49984Z" fill="black"/>
</g>
<defs>
<clipPath id="clip0_2001_9999">
<rect width="20" height="20" fill="white"/>
</clipPath>
</defs>
</svg>
