<svg width="20" height="20" viewBox="0 0 20 20" fill="none" xmlns="http://www.w3.org/2000/svg">
<g clip-path="url(#clip0_2001_9992)">
<path fill-rule="evenodd" clip-rule="evenodd" d="M10.7501 2.49576C9.2439 2.34441 7.72718 2.65236 6.3993 3.37914C5.07142 4.10592 3.99455 5.21751 3.31025 6.56776C2.62594 7.91802 2.36624 9.44375 2.56529 10.9444C2.76434 12.445 3.41281 13.8502 4.42546 14.9754C5.43812 16.1006 6.76754 16.893 8.23898 17.2485C9.71041 17.6039 11.255 17.5058 12.6696 16.967C14.0842 16.4283 15.3027 15.474 16.1649 14.2298C17.0266 12.9861 17.4921 11.5108 17.5001 9.99774V9.16661C17.5001 8.70637 17.8732 8.33327 18.3334 8.33327C18.7936 8.33327 19.1667 8.70637 19.1667 9.16661V9.99994C19.1667 10.0013 19.1667 10.0027 19.1667 10.0041C19.1575 11.8542 18.5885 13.6583 17.5348 15.179C16.4811 16.6998 14.9918 17.8661 13.2628 18.5246C11.5338 19.1831 9.64601 19.303 7.8476 18.8685C6.04918 18.4341 4.42433 17.4656 3.18664 16.0904C1.94895 14.7151 1.15637 12.9976 0.913095 11.1635C0.669816 9.32943 0.987225 7.46466 1.8236 5.81434C2.65997 4.16402 3.97615 2.80542 5.59911 1.91713C7.22207 1.02884 9.07584 0.652456 10.9167 0.837448C11.3747 0.883466 11.7086 1.292 11.6626 1.74993C11.6165 2.20786 11.208 2.54178 10.7501 2.49576Z" fill="black"/>
<path fill-rule="evenodd" clip-rule="evenodd" d="M7.33081 11.1636C7.05402 10.7982 6.53372 10.7249 6.16663 11.0002C5.79844 11.2764 5.72383 11.7987 5.99997 12.1669L6.66663 11.6669C5.99997 12.1669 6.00017 12.1671 6.00037 12.1674L6.00081 12.168L6.00177 12.1693C6.00211 12.1697 6.00246 12.1702 6.00284 12.1707C6.00322 12.1712 6.00363 12.1717 6.00405 12.1723C6.00574 12.1745 6.00774 12.1771 6.01006 12.1801C6.0147 12.1862 6.02062 12.1938 6.02781 12.2028C6.04218 12.221 6.06164 12.2451 6.0861 12.2742C6.13497 12.3324 6.20413 12.4113 6.29284 12.5039C6.46957 12.6883 6.72783 12.9312 7.06191 13.1742C7.72686 13.6578 8.72869 14.1669 9.99997 14.1669C11.2712 14.1669 12.2731 13.6578 12.938 13.1742C13.2721 12.9312 13.5304 12.6883 13.7071 12.5039C13.7958 12.4113 13.865 12.3324 13.9138 12.2742C13.9383 12.2451 13.9578 12.221 13.9721 12.2028C13.9793 12.1938 13.9852 12.1862 13.9899 12.1801C13.9922 12.1771 13.9942 12.1745 13.9959 12.1723L13.9967 12.1712C13.9972 12.1705 13.9977 12.1699 13.9982 12.1693L13.9991 12.168L13.9996 12.1674C13.9998 12.1671 14 12.1669 13.3333 11.6669L14 12.1669C14.2761 11.7987 14.2015 11.2764 13.8333 11.0002C13.4662 10.7249 12.9459 10.7982 12.6691 11.1636C12.6686 11.1643 12.6673 11.1659 12.6654 11.1683C12.6604 11.1746 12.651 11.1863 12.6372 11.2028C12.6096 11.2357 12.5648 11.287 12.5038 11.3507C12.381 11.4788 12.1966 11.6526 11.9577 11.8263C11.4769 12.176 10.812 12.5002 9.99997 12.5002C9.18791 12.5002 8.52308 12.176 8.04219 11.8263C7.80336 11.6526 7.61891 11.4788 7.49616 11.3507C7.43512 11.287 7.39035 11.2357 7.36273 11.2028C7.34894 11.1863 7.33951 11.1746 7.33455 11.1683C7.33261 11.1659 7.33136 11.1643 7.33081 11.1636ZM12.6674 11.1658L12.6674 11.1659L12.667 11.1664C12.6671 11.1662 12.6673 11.166 12.6674 11.1658Z" fill="black"/>
<path fill-rule="evenodd" clip-rule="evenodd" d="M6.66675 7.49984C6.66675 7.0396 7.03984 6.6665 7.50008 6.6665H7.50841C7.96865 6.6665 8.34175 7.0396 8.34175 7.49984C8.34175 7.96007 7.96865 8.33317 7.50841 8.33317H7.50008C7.03984 8.33317 6.66675 7.96007 6.66675 7.49984Z" fill="black"/>
<path fill-rule="evenodd" clip-rule="evenodd" d="M11.6667 7.49984C11.6667 7.0396 12.0398 6.6665 12.5001 6.6665H12.5084C12.9687 6.6665 13.3417 7.0396 13.3417 7.49984C13.3417 7.96007 12.9687 8.33317 12.5084 8.33317H12.5001C12.0398 8.33317 11.6667 7.96007 11.6667 7.49984Z" fill="black"/>
<path fill-rule="evenodd" clip-rule="evenodd" d="M12.5 4.16683C12.5 3.70659 12.8731 3.3335 13.3333 3.3335H18.3333C18.7936 3.3335 19.1667 3.70659 19.1667 4.16683C19.1667 4.62707 18.7936 5.00016 18.3333 5.00016H13.3333C12.8731 5.00016 12.5 4.62707 12.5 4.16683Z" fill="black"/>
<path fill-rule="evenodd" clip-rule="evenodd" d="M15.8333 0.833496C16.2936 0.833496 16.6667 1.20659 16.6667 1.66683V6.66683C16.6667 7.12707 16.2936 7.50016 15.8333 7.50016C15.3731 7.50016 15 7.12707 15 6.66683V1.66683C15 1.20659 15.3731 0.833496 15.8333 0.833496Z" fill="black"/>
</g>
<defs>
<clipPath id="clip0_2001_9992">
<rect width="20" height="20" fill="white"/>
</clipPath>
</defs>
</svg>
