<svg width="20" height="20" viewBox="0 0 20 20" fill="none" xmlns="http://www.w3.org/2000/svg">
<path fill-rule="evenodd" clip-rule="evenodd" d="M5.38697 7.88689C6.16838 7.10549 7.22818 6.6665 8.33325 6.6665C9.43832 6.6665 10.4981 7.10549 11.2795 7.88689C12.0609 8.66829 12.4999 9.7281 12.4999 10.8332C12.4999 11.5992 12.349 12.3578 12.0559 13.0655C11.7627 13.7732 11.3331 14.4163 10.7914 14.958C10.2497 15.4996 9.60664 15.9293 8.89891 16.2225C8.19117 16.5156 7.43263 16.6665 6.66659 16.6665C5.90054 16.6665 5.142 16.5156 4.43427 16.2225C3.72653 15.9293 3.08347 15.4996 2.5418 14.958C2.00012 14.4163 1.57044 13.7732 1.27729 13.0655C0.984136 12.3578 0.833252 11.5992 0.833252 10.8332C0.833252 10.3729 1.20635 9.99984 1.66659 9.99984C2.12682 9.99984 2.49992 10.3729 2.49992 10.8332C2.49992 11.3803 2.60769 11.9222 2.81709 12.4277C3.02648 12.9332 3.3334 13.3925 3.72031 13.7794C4.10722 14.1664 4.56655 14.4733 5.07207 14.6827C5.57759 14.8921 6.11941 14.9998 6.66659 14.9998C7.21376 14.9998 7.75558 14.8921 8.2611 14.6827C8.76662 14.4733 9.22595 14.1664 9.61286 13.7794C9.99977 13.3925 10.3067 12.9332 10.5161 12.4277C10.7255 11.9222 10.8333 11.3803 10.8333 10.8332C10.8333 10.1701 10.5699 9.53424 10.101 9.0654C9.63218 8.59656 8.99629 8.33317 8.33325 8.33317C7.67021 8.33317 7.03433 8.59656 6.56549 9.0654C6.09664 9.53424 5.83325 10.1701 5.83325 10.8332C5.83325 11.0542 5.92105 11.2661 6.07733 11.4224C6.23361 11.5787 6.44557 11.6665 6.66659 11.6665C6.8876 11.6665 7.09956 11.5787 7.25584 11.4224C7.41212 11.2661 7.49992 11.0542 7.49992 10.8332C7.49992 10.3729 7.87302 9.99984 8.33325 9.99984C8.79349 9.99984 9.16659 10.3729 9.16659 10.8332C9.16659 11.4962 8.90319 12.1321 8.43435 12.6009C7.96551 13.0698 7.32963 13.3332 6.66659 13.3332C6.00354 13.3332 5.36766 13.0698 4.89882 12.6009C4.42998 12.1321 4.16659 11.4962 4.16659 10.8332C4.16659 9.7281 4.60557 8.66829 5.38697 7.88689Z" fill="black"/>
<path fill-rule="evenodd" clip-rule="evenodd" d="M8.33325 5.00016C5.11159 5.00016 2.49992 7.61184 2.49992 10.8335C2.49992 14.0552 5.11159 16.6668 8.33325 16.6668C11.5549 16.6668 14.1666 14.0552 14.1666 10.8335C14.1666 7.61184 11.5549 5.00016 8.33325 5.00016ZM0.833252 10.8335C0.833252 6.69136 4.19112 3.3335 8.33325 3.3335C12.4754 3.3335 15.8333 6.69136 15.8333 10.8335C15.8333 14.9756 12.4754 18.3335 8.33325 18.3335C4.19112 18.3335 0.833252 14.9756 0.833252 10.8335Z" fill="black"/>
<path fill-rule="evenodd" clip-rule="evenodd" d="M14.8988 4.06573C15.3677 3.59689 16.0035 3.3335 16.6666 3.3335C17.3296 3.3335 17.9655 3.59689 18.4344 4.06573C18.9032 4.53457 19.1666 5.17045 19.1666 5.8335V10.8335C19.1666 14.9604 15.7935 18.3335 11.6666 18.3335H1.66659C1.20635 18.3335 0.833252 17.9604 0.833252 17.5002C0.833252 17.0399 1.20635 16.6668 1.66659 16.6668H11.6666C14.873 16.6668 17.4999 14.0399 17.4999 10.8335V5.8335C17.4999 5.61248 17.4121 5.40052 17.2558 5.24424C17.0996 5.08796 16.8876 5.00016 16.6666 5.00016C16.4456 5.00016 16.2336 5.08796 16.0773 5.24424C15.9211 5.40052 15.8333 5.61248 15.8333 5.8335V10.8335C15.8333 11.2937 15.4602 11.6668 14.9999 11.6668C14.5397 11.6668 14.1666 11.2937 14.1666 10.8335V5.8335C14.1666 5.17045 14.43 4.53457 14.8988 4.06573Z" fill="black"/>
<path fill-rule="evenodd" clip-rule="evenodd" d="M14.6273 1.75466C15.039 1.54884 15.5396 1.71569 15.7454 2.12734L16.662 3.96068C16.8679 4.37232 16.701 4.87288 16.2894 5.07871C15.8777 5.28453 15.3772 5.11768 15.1713 4.70603L14.2547 2.8727C14.0488 2.46105 14.2157 1.96049 14.6273 1.75466Z" fill="black"/>
<path fill-rule="evenodd" clip-rule="evenodd" d="M18.7061 1.75466C19.1178 1.96049 19.2846 2.46105 19.0788 2.8727L18.1621 4.70603C17.9563 5.11768 17.4557 5.28453 17.0441 5.07871C16.6324 4.87288 16.4656 4.37232 16.6714 3.96068L17.5881 2.12734C17.7939 1.71569 18.2945 1.54884 18.7061 1.75466Z" fill="black"/>
</svg>
