<svg width="20" height="20" viewBox="0 0 20 20" fill="none" xmlns="http://www.w3.org/2000/svg">
<g clip-path="url(#clip0_2001_10010)">
<path fill-rule="evenodd" clip-rule="evenodd" d="M0.833252 9.99984C0.833252 9.5396 1.20635 9.1665 1.66659 9.1665H18.3333C18.7935 9.1665 19.1666 9.5396 19.1666 9.99984C19.1666 10.4601 18.7935 10.8332 18.3333 10.8332H1.66659C1.20635 10.8332 0.833252 10.4601 0.833252 9.99984Z" fill="black"/>
<path fill-rule="evenodd" clip-rule="evenodd" d="M10.0001 0.833496C10.4603 0.833496 10.8334 1.20659 10.8334 1.66683V18.3335C10.8334 18.7937 10.4603 19.1668 10.0001 19.1668C9.53984 19.1668 9.16675 18.7937 9.16675 18.3335V1.66683C9.16675 1.20659 9.53984 0.833496 10.0001 0.833496Z" fill="black"/>
<path fill-rule="evenodd" clip-rule="evenodd" d="M17.2559 6.07757C17.5814 6.40301 17.5814 6.93065 17.2559 7.25609L14.5118 10.0002L17.2559 12.7442C17.5814 13.0697 17.5814 13.5973 17.2559 13.9228C16.9305 14.2482 16.4028 14.2482 16.0774 13.9228L12.7441 10.5894C12.4186 10.264 12.4186 9.73634 12.7441 9.41091L16.0774 6.07757C16.4028 5.75214 16.9305 5.75214 17.2559 6.07757Z" fill="black"/>
<path fill-rule="evenodd" clip-rule="evenodd" d="M2.74408 6.07757C3.06951 5.75214 3.59715 5.75214 3.92259 6.07757L7.25592 9.41091C7.58136 9.73634 7.58136 10.264 7.25592 10.5894L3.92259 13.9228C3.59715 14.2482 3.06951 14.2482 2.74408 13.9228C2.41864 13.5973 2.41864 13.0697 2.74408 12.7442L5.48816 10.0002L2.74408 7.25609C2.41864 6.93065 2.41864 6.40301 2.74408 6.07757Z" fill="black"/>
<path fill-rule="evenodd" clip-rule="evenodd" d="M6.07733 2.74408C6.40277 2.41864 6.9304 2.41864 7.25584 2.74408L9.99992 5.48816L12.744 2.74408C13.0694 2.41864 13.5971 2.41864 13.9225 2.74408C14.2479 3.06951 14.2479 3.59715 13.9225 3.92259L10.5892 7.25592C10.2637 7.58136 9.7361 7.58136 9.41066 7.25592L6.07733 3.92259C5.75189 3.59715 5.75189 3.06951 6.07733 2.74408Z" fill="black"/>
<path fill-rule="evenodd" clip-rule="evenodd" d="M9.41066 12.7441C9.7361 12.4186 10.2637 12.4186 10.5892 12.7441L13.9225 16.0774C14.2479 16.4028 14.2479 16.9305 13.9225 17.2559C13.5971 17.5814 13.0694 17.5814 12.744 17.2559L9.99992 14.5118L7.25584 17.2559C6.9304 17.5814 6.40277 17.5814 6.07733 17.2559C5.75189 16.9305 5.75189 16.4028 6.07733 16.0774L9.41066 12.7441Z" fill="black"/>
</g>
<defs>
<clipPath id="clip0_2001_10010">
<rect width="20" height="20" fill="white"/>
</clipPath>
</defs>
</svg>
