<svg width="20" height="20" viewBox="0 0 20 20" fill="none" xmlns="http://www.w3.org/2000/svg">
<path fill-rule="evenodd" clip-rule="evenodd" d="M3.23223 3.23223C3.70107 2.76339 4.33696 2.5 5 2.5H15C15.663 2.5 16.2989 2.76339 16.7678 3.23223C17.2366 3.70107 17.5 4.33696 17.5 5V7.5C17.5 7.96024 17.1269 8.33333 16.6667 8.33333C16.2064 8.33333 15.8333 7.96024 15.8333 7.5V5C15.8333 4.77899 15.7455 4.56702 15.5893 4.41074C15.433 4.25446 15.221 4.16667 15 4.16667H5C4.77899 4.16667 4.56702 4.25446 4.41074 4.41074C4.25446 4.56702 4.16667 4.77899 4.16667 5V7.5C4.16667 7.96024 3.79357 8.33333 3.33333 8.33333C2.8731 8.33333 2.5 7.96024 2.5 7.5V5C2.5 4.33696 2.76339 3.70107 3.23223 3.23223Z" fill="black"/>
<path fill-rule="evenodd" clip-rule="evenodd" d="M1.56549 7.39874C2.03433 6.9299 2.67021 6.6665 3.33325 6.6665C3.99629 6.6665 4.63218 6.9299 5.10102 7.39874C5.56986 7.86758 5.83325 8.50346 5.83325 9.1665V9.99984H14.1666V9.1665C14.1666 8.50346 14.43 7.86758 14.8988 7.39874C15.3677 6.9299 16.0035 6.6665 16.6666 6.6665C17.3296 6.6665 17.9655 6.9299 18.4344 7.39874C18.9032 7.86758 19.1666 8.50346 19.1666 9.1665V13.3332C19.1666 13.9962 18.9032 14.6321 18.4344 15.1009C17.9655 15.5698 17.3296 15.8332 16.6666 15.8332H3.33325C2.67021 15.8332 2.03433 15.5698 1.56549 15.1009C1.09664 14.6321 0.833252 13.9962 0.833252 13.3332V9.1665C0.833252 8.50346 1.09664 7.86758 1.56549 7.39874ZM3.33325 8.33317C3.11224 8.33317 2.90028 8.42097 2.744 8.57725C2.58772 8.73353 2.49992 8.94549 2.49992 9.1665V13.3332C2.49992 13.5542 2.58772 13.7661 2.744 13.9224C2.90028 14.0787 3.11224 14.1665 3.33325 14.1665H16.6666C16.8876 14.1665 17.0996 14.0787 17.2558 13.9224C17.4121 13.7661 17.4999 13.5542 17.4999 13.3332V9.1665C17.4999 8.94549 17.4121 8.73353 17.2558 8.57725C17.0996 8.42097 16.8876 8.33317 16.6666 8.33317C16.4456 8.33317 16.2336 8.42097 16.0773 8.57725C15.9211 8.73353 15.8333 8.94549 15.8333 9.1665V10.4165C15.8333 10.748 15.7016 11.066 15.4671 11.3004C15.2327 11.5348 14.9148 11.6665 14.5833 11.6665H5.41659C5.08507 11.6665 4.76712 11.5348 4.5327 11.3004C4.29828 11.066 4.16659 10.748 4.16659 10.4165V9.1665C4.16659 8.94549 4.07879 8.73353 3.92251 8.57725C3.76623 8.42097 3.55427 8.33317 3.33325 8.33317Z" fill="black"/>
<path fill-rule="evenodd" clip-rule="evenodd" d="M3.33333 14.1665C3.79357 14.1665 4.16667 14.5396 4.16667 14.9998V16.6665C4.16667 17.1267 3.79357 17.4998 3.33333 17.4998C2.8731 17.4998 2.5 17.1267 2.5 16.6665V14.9998C2.5 14.5396 2.8731 14.1665 3.33333 14.1665Z" fill="black"/>
<path fill-rule="evenodd" clip-rule="evenodd" d="M16.6666 14.1665C17.1268 14.1665 17.4999 14.5396 17.4999 14.9998V16.6665C17.4999 17.1267 17.1268 17.4998 16.6666 17.4998C16.2063 17.4998 15.8333 17.1267 15.8333 16.6665V14.9998C15.8333 14.5396 16.2063 14.1665 16.6666 14.1665Z" fill="black"/>
<path fill-rule="evenodd" clip-rule="evenodd" d="M10.0001 2.5C10.4603 2.5 10.8334 2.8731 10.8334 3.33333V10.8333C10.8334 11.2936 10.4603 11.6667 10.0001 11.6667C9.53984 11.6667 9.16675 11.2936 9.16675 10.8333V3.33333C9.16675 2.8731 9.53984 2.5 10.0001 2.5Z" fill="black"/>
</svg>
