<svg width="20" height="20" viewBox="0 0 20 20" fill="none" xmlns="http://www.w3.org/2000/svg">
<path fill-rule="evenodd" clip-rule="evenodd" d="M1.91083 9.41058C2.06711 9.2543 2.27907 9.1665 2.50008 9.1665H17.5001C17.7211 9.1665 17.9331 9.2543 18.0893 9.41058C18.2456 9.56686 18.3334 9.77882 18.3334 9.99984C18.3334 12.21 17.4554 14.3296 15.8926 15.8924C14.3298 17.4552 12.2102 18.3332 10.0001 18.3332C7.78994 18.3332 5.67033 17.4552 4.10752 15.8924C2.54472 14.3296 1.66675 12.21 1.66675 9.99984C1.66675 9.77882 1.75455 9.56686 1.91083 9.41058ZM3.38568 10.8332C3.56969 12.294 4.23385 13.6617 5.28604 14.7139C6.53628 15.9641 8.23197 16.6665 10.0001 16.6665C11.7682 16.6665 13.4639 15.9641 14.7141 14.7139C15.7663 13.6617 16.4305 12.294 16.6145 10.8332H3.38568Z" fill="black"/>
<path fill-rule="evenodd" clip-rule="evenodd" d="M5 17.4998C5 17.0396 5.3731 16.6665 5.83333 16.6665H14.1667C14.6269 16.6665 15 17.0396 15 17.4998C15 17.9601 14.6269 18.3332 14.1667 18.3332H5.83333C5.3731 18.3332 5 17.9601 5 17.4998Z" fill="black"/>
<path fill-rule="evenodd" clip-rule="evenodd" d="M18.6539 4.23082C19.0787 4.40784 19.2796 4.89573 19.1026 5.32057L17.0193 10.3206C16.8423 10.7454 16.3544 10.9463 15.9295 10.7693C15.5047 10.5923 15.3038 10.1044 15.4808 9.67954L17.5642 4.67954C17.7412 4.25471 18.2291 4.05381 18.6539 4.23082Z" fill="black"/>
<path fill-rule="evenodd" clip-rule="evenodd" d="M12.7602 2.21063C12.9201 1.77905 13.3995 1.55876 13.8311 1.71861C14.3432 1.90827 15.0657 2.56805 14.9985 3.68351C14.9983 3.68683 14.9981 3.69016 14.9978 3.69348C14.954 4.29956 14.6173 4.72751 14.4342 4.96026C14.4256 4.97117 14.4173 4.98165 14.4095 4.9917C14.1992 5.26039 14.1706 5.32585 14.1644 5.38063C14.156 5.53727 14.1888 5.63825 14.2337 5.72165C14.2885 5.82326 14.3761 5.92655 14.5232 6.06987C14.8529 6.39106 14.8597 6.91865 14.5385 7.24828C14.2174 7.57792 13.6898 7.58477 13.3601 7.26359C12.9869 6.89989 12.436 6.28928 12.5017 5.26342C12.5021 5.25756 12.5025 5.2517 12.503 5.24585C12.5536 4.65313 12.8872 4.23046 13.0674 4.00212C13.0777 3.989 13.0876 3.97651 13.0968 3.96467C13.3055 3.69796 13.3303 3.63361 13.3352 3.57755C13.3391 3.50194 13.3298 3.44864 13.3191 3.41244C13.3079 3.37466 13.2924 3.34574 13.2763 3.32333C13.2596 3.29989 13.2421 3.28335 13.2296 3.27366C13.2286 3.27294 13.2278 3.27229 13.227 3.27171C12.8121 3.1028 12.6035 2.63372 12.7602 2.21063ZM13.2206 3.26737C13.2207 3.26736 13.2211 3.26763 13.2221 3.26823C13.2211 3.26768 13.2206 3.26738 13.2206 3.26737Z" fill="black"/>
<path fill-rule="evenodd" clip-rule="evenodd" d="M8.5935 2.21063C8.75335 1.77905 9.2328 1.55876 9.66439 1.71861C10.1758 1.90803 10.9019 2.56954 10.8231 3.68875C10.7848 4.29582 10.4479 4.72581 10.267 4.95665C10.2579 4.96827 10.2492 4.97939 10.2409 4.99C10.023 5.26998 10.0095 5.32187 10.0068 5.36745C10.0065 5.37185 10.0062 5.37625 10.0058 5.38064C9.99349 5.54117 10.0255 5.64185 10.0695 5.72439C10.1227 5.82406 10.2091 5.92629 10.3565 6.06987C10.6862 6.39106 10.693 6.91865 10.3718 7.24828C10.0506 7.57792 9.52304 7.58477 9.19341 7.26359C8.82128 6.901 8.26689 6.28756 8.34362 5.25898C8.38264 4.65843 8.71837 4.23061 8.8973 4.0026C8.90726 3.98991 8.91674 3.97783 8.92565 3.96638C9.14043 3.6904 9.15672 3.6345 9.1598 3.58329C9.16 3.57996 9.16022 3.57664 9.16046 3.57331C9.1661 3.49533 9.15714 3.44146 9.14695 3.4059C9.13656 3.36966 9.12189 3.34212 9.10677 3.32081C9.09089 3.29843 9.07417 3.28255 9.06214 3.27321C9.0614 3.27263 9.0607 3.2721 9.06005 3.27161C8.64534 3.10263 8.43684 2.63364 8.5935 2.21063ZM9.05365 3.26722C9.05366 3.2672 9.05415 3.26749 9.05509 3.2681C9.05411 3.26754 9.05364 3.26723 9.05365 3.26722Z" fill="black"/>
<path fill-rule="evenodd" clip-rule="evenodd" d="M4.42698 2.21063C4.58683 1.77905 5.06628 1.55876 5.49786 1.71861C6.00994 1.90827 6.73246 2.56805 6.66526 3.68351C6.66506 3.68683 6.66484 3.69016 6.6646 3.69348C6.62079 4.29956 6.28404 4.72751 6.1009 4.96026C6.09232 4.97117 6.08407 4.98165 6.07621 4.9917C5.86598 5.26039 5.83736 5.32585 5.83111 5.38063C5.82276 5.53722 5.85561 5.6371 5.90006 5.71892C5.95429 5.81874 6.04225 5.92151 6.19073 6.06256C6.5244 6.37955 6.53792 6.90702 6.22094 7.24069C5.90395 7.57436 5.37648 7.58788 5.04281 7.2709C4.65515 6.90262 4.10258 6.29138 4.16848 5.26342C4.16885 5.25756 4.16929 5.2517 4.16979 5.24585C4.22039 4.65313 4.55392 4.23046 4.73411 4.00212C4.74447 3.989 4.75432 3.97651 4.76358 3.96467C4.97227 3.69796 4.99701 3.63361 5.00193 3.57755C5.00588 3.50194 4.99654 3.44864 4.98584 3.41244C4.97468 3.37466 4.95911 3.34574 4.94308 3.32333C4.92632 3.29989 4.90883 3.28335 4.89632 3.27366C4.8954 3.27294 4.89454 3.27229 4.89375 3.27171C4.47889 3.1028 4.27028 2.63372 4.42698 2.21063ZM4.8874 3.26737C4.88741 3.26736 4.88789 3.26763 4.88881 3.26823C4.88785 3.26768 4.88739 3.26738 4.8874 3.26737Z" fill="black"/>
</svg>
