<svg width="20" height="20" viewBox="0 0 20 20" fill="none" xmlns="http://www.w3.org/2000/svg">
<g clip-path="url(#clip0_2001_10032)">
<path fill-rule="evenodd" clip-rule="evenodd" d="M9.41066 1.07757C9.7361 0.752137 10.2637 0.752137 10.5892 1.07757L16.4225 6.91091C17.6602 8.14856 19.1666 9.78707 19.1666 12.0835C19.1666 12.7948 19.0265 13.4992 18.7543 14.1564C18.4821 14.8135 18.0831 15.4107 17.5801 15.9137C17.0771 16.4166 16.48 16.8156 15.8228 17.0878C15.1656 17.3601 14.4612 17.5002 13.7499 17.5002C12.9184 17.5002 12.1728 17.384 11.4465 17.0654C10.9389 16.8428 10.468 16.5333 9.99992 16.1356C9.53184 16.5333 9.06094 16.8428 8.55339 17.0654C7.82707 17.384 7.0814 17.5002 6.24992 17.5002C4.81333 17.5002 3.43558 16.9295 2.41976 15.9137C1.91677 15.4107 1.51778 14.8135 1.24557 14.1564C0.973358 13.4992 0.833252 12.7948 0.833252 12.0835C0.833252 9.78707 2.33967 8.14856 3.57733 6.91091L9.41066 1.07757ZM9.99992 2.84534L4.75584 8.08942C3.4935 9.35176 2.49992 10.5466 2.49992 12.0835C2.49992 12.576 2.59692 13.0636 2.78537 13.5186C2.97383 13.9735 3.25005 14.3869 3.59827 14.7351C4.30153 15.4384 5.25536 15.8335 6.24992 15.8335C6.91844 15.8335 7.42277 15.7414 7.88395 15.5391C8.35128 15.3341 8.8299 14.9917 9.41066 14.4109C9.7361 14.0855 10.2637 14.0855 10.5892 14.4109C11.1699 14.9917 11.6486 15.3341 12.1159 15.5391C12.5771 15.7414 13.0814 15.8335 13.7499 15.8335C14.2424 15.8335 14.73 15.7365 15.185 15.548C15.64 15.3596 16.0534 15.0834 16.4016 14.7351C16.7498 14.3869 17.026 13.9735 17.2145 13.5186C17.4029 13.0636 17.4999 12.576 17.4999 12.0835C17.4999 10.5466 16.5063 9.35176 15.244 8.08942L9.99992 2.84534Z" fill="black"/>
<path fill-rule="evenodd" clip-rule="evenodd" d="M10.0001 14.1665C10.4603 14.1665 10.8334 14.5396 10.8334 14.9998V18.3332C10.8334 18.7934 10.4603 19.1665 10.0001 19.1665C9.53984 19.1665 9.16675 18.7934 9.16675 18.3332V14.9998C9.16675 14.5396 9.53984 14.1665 10.0001 14.1665Z" fill="black"/>
</g>
<defs>
<clipPath id="clip0_2001_10032">
<rect width="20" height="20" fill="white"/>
</clipPath>
</defs>
</svg>
