<svg width="20" height="20" viewBox="0 0 20 20" fill="none" xmlns="http://www.w3.org/2000/svg">
<g clip-path="url(#clip0_2001_10037)">
<path fill-rule="evenodd" clip-rule="evenodd" d="M9.24508 1.08712C9.46242 0.922249 9.72773 0.833008 10.0005 0.833008C10.2733 0.833008 10.5386 0.922249 10.756 1.08712C10.9733 1.25198 11.1308 1.48342 11.2043 1.74613C11.2058 1.75166 11.2073 1.7572 11.2087 1.76276L12.5262 6.87505C12.5262 6.87512 12.5262 6.87519 12.5262 6.87526C12.5635 7.01937 12.6386 7.15089 12.7439 7.25614C12.8491 7.36139 12.9806 7.43653 13.1247 7.47375C13.1248 7.47376 13.1249 7.47378 13.1249 7.4738L18.2372 8.79125C18.2418 8.79242 18.2463 8.79363 18.2509 8.79488C18.5146 8.86763 18.7472 9.02491 18.913 9.24257C19.0787 9.46024 19.1685 9.72628 19.1685 9.99988C19.1685 10.2735 19.0787 10.5395 18.913 10.7572C18.7472 10.9749 18.5146 11.1321 18.2509 11.2049C18.2463 11.2061 18.2418 11.2073 18.2372 11.2085L13.1249 12.526C13.1249 12.526 13.1248 12.526 13.1247 12.526C12.9806 12.5632 12.8491 12.6384 12.7439 12.7436C12.6386 12.8489 12.5634 12.9805 12.5262 13.1247L11.2079 18.2371C11.2069 18.2411 11.2058 18.245 11.2048 18.2489C11.2043 18.2505 11.2039 18.2521 11.2034 18.2536C11.1299 18.5163 10.9725 18.7478 10.7551 18.9126C10.5378 19.0775 10.2725 19.1668 9.9997 19.1668C9.7269 19.1668 9.46159 19.0775 9.24425 18.9126C9.02691 18.7478 8.86947 18.5163 8.79595 18.2536C8.7944 18.2481 8.79291 18.2426 8.79148 18.237L7.47403 13.1247C7.47401 13.1246 7.474 13.1246 7.47398 13.1245C7.43676 12.9804 7.36162 12.8489 7.25637 12.7436C7.15107 12.6383 7.01948 12.5632 6.87528 12.526L1.76287 11.2077C1.75636 11.206 1.74987 11.2042 1.74341 11.2024C1.48173 11.1281 1.25143 10.9705 1.08744 10.7535C0.923444 10.5365 0.834717 10.2719 0.834717 9.99988C0.834717 9.72787 0.923444 9.46329 1.08744 9.24627C1.25143 9.02925 1.48173 8.87165 1.74341 8.79738C1.74983 8.79556 1.75628 8.79381 1.76274 8.79214L6.87524 7.47298L7.08336 8.27956L6.8754 7.47294C7.01954 7.43577 7.1511 7.36068 7.2564 7.25545C7.36169 7.15023 7.43688 7.01872 7.47415 6.8746L8.79234 1.76263C8.79377 1.75712 8.79524 1.75162 8.79678 1.74613C8.8703 1.48343 9.02774 1.25199 9.24508 1.08712ZM7.2915 9.08683L3.7534 9.99975L7.29153 10.9121L7.29161 10.9121C7.7242 11.0237 8.11898 11.2492 8.43488 11.5651C8.75078 11.881 8.97626 12.2758 9.08786 12.7084L9.99982 16.2472L10.9123 12.7085L10.9124 12.7084C11.024 12.2758 11.2494 11.881 11.5653 11.5651C11.8812 11.2492 12.276 11.0237 12.7086 10.9121L16.2486 9.99988L12.7086 9.08763C12.276 8.97603 11.8812 8.75055 11.5653 8.43465C11.2494 8.11875 11.024 7.72397 10.9124 7.29138L10.9123 7.29117L10.0004 3.75255L9.08775 7.29183C8.97595 7.72419 8.75039 8.11871 8.4345 8.43437C8.11861 8.75004 7.72393 8.97533 7.2915 9.08683Z" fill="black"/>
<path fill-rule="evenodd" clip-rule="evenodd" d="M16.6666 1.6665C17.1268 1.6665 17.4999 2.0396 17.4999 2.49984V5.83317C17.4999 6.29341 17.1268 6.6665 16.6666 6.6665C16.2063 6.6665 15.8333 6.29341 15.8333 5.83317V2.49984C15.8333 2.0396 16.2063 1.6665 16.6666 1.6665Z" fill="black"/>
<path fill-rule="evenodd" clip-rule="evenodd" d="M14.1667 4.16683C14.1667 3.70659 14.5398 3.3335 15.0001 3.3335H18.3334C18.7937 3.3335 19.1667 3.70659 19.1667 4.16683C19.1667 4.62707 18.7937 5.00016 18.3334 5.00016H15.0001C14.5398 5.00016 14.1667 4.62707 14.1667 4.16683Z" fill="black"/>
<path fill-rule="evenodd" clip-rule="evenodd" d="M3.33333 13.3335C3.79357 13.3335 4.16667 13.7066 4.16667 14.1668V15.8335C4.16667 16.2937 3.79357 16.6668 3.33333 16.6668C2.8731 16.6668 2.5 16.2937 2.5 15.8335V14.1668C2.5 13.7066 2.8731 13.3335 3.33333 13.3335Z" fill="black"/>
<path fill-rule="evenodd" clip-rule="evenodd" d="M1.66675 14.9998C1.66675 14.5396 2.03984 14.1665 2.50008 14.1665H4.16675C4.62699 14.1665 5.00008 14.5396 5.00008 14.9998C5.00008 15.4601 4.62699 15.8332 4.16675 15.8332H2.50008C2.03984 15.8332 1.66675 15.4601 1.66675 14.9998Z" fill="black"/>
</g>
<defs>
<clipPath id="clip0_2001_10037">
<rect width="20" height="20" fill="white"/>
</clipPath>
</defs>
</svg>
