<svg width="20" height="20" viewBox="0 0 20 20" fill="none" xmlns="http://www.w3.org/2000/svg">
<path fill-rule="evenodd" clip-rule="evenodd" d="M5 2.50016C4.53976 2.50016 4.16667 2.87326 4.16667 3.3335V16.6668C4.16667 17.1271 4.53976 17.5002 5 17.5002H15C15.4602 17.5002 15.8333 17.1271 15.8333 16.6668V3.3335C15.8333 2.87326 15.4602 2.50016 15 2.50016H5ZM2.5 3.3335C2.5 1.95278 3.61929 0.833496 5 0.833496H15C16.3807 0.833496 17.5 1.95278 17.5 3.3335V16.6668C17.5 18.0475 16.3807 19.1668 15 19.1668H5C3.61929 19.1668 2.5 18.0475 2.5 16.6668V3.3335Z" fill="black"/>
<path fill-rule="evenodd" clip-rule="evenodd" d="M9.16675 4.99984C9.16675 4.5396 9.53984 4.1665 10.0001 4.1665H10.0084C10.4687 4.1665 10.8417 4.5396 10.8417 4.99984C10.8417 5.46007 10.4687 5.83317 10.0084 5.83317H10.0001C9.53984 5.83317 9.16675 5.46007 9.16675 4.99984Z" fill="black"/>
<path fill-rule="evenodd" clip-rule="evenodd" d="M9.99992 9.16667C8.61921 9.16667 7.49992 10.286 7.49992 11.6667C7.49992 13.0474 8.61921 14.1667 9.99992 14.1667C11.3806 14.1667 12.4999 13.0474 12.4999 11.6667C12.4999 10.286 11.3806 9.16667 9.99992 9.16667ZM5.83325 11.6667C5.83325 9.36548 7.69873 7.5 9.99992 7.5C12.3011 7.5 14.1666 9.36548 14.1666 11.6667C14.1666 13.9679 12.3011 15.8333 9.99992 15.8333C7.69873 15.8333 5.83325 13.9679 5.83325 11.6667Z" fill="black"/>
<path fill-rule="evenodd" clip-rule="evenodd" d="M9.16675 11.6668C9.16675 11.2066 9.53984 10.8335 10.0001 10.8335H10.0084C10.4687 10.8335 10.8417 11.2066 10.8417 11.6668C10.8417 12.1271 10.4687 12.5002 10.0084 12.5002H10.0001C9.53984 12.5002 9.16675 12.1271 9.16675 11.6668Z" fill="black"/>
</svg>
