<svg width="20" height="20" viewBox="0 0 20 20" fill="none" xmlns="http://www.w3.org/2000/svg">
<path fill-rule="evenodd" clip-rule="evenodd" d="M2.42079 3.08816C3.43061 2.0876 4.79655 1.52916 6.21811 1.5357C7.63966 1.54224 9.0004 2.11323 10.001 3.12305C11.001 4.13238 11.5594 5.49747 11.5534 6.91829V11.6665C11.5534 11.6903 11.5524 11.714 11.5504 11.7377C11.4938 12.3977 11.2009 13.015 10.7256 13.4763C10.2502 13.9376 9.62436 14.2118 8.963 14.2486C8.91849 14.251 8.87386 14.2499 8.82953 14.2453L8.16677 14.1755V16.6665C8.16677 17.1268 7.79367 17.4999 7.33344 17.4999C6.8732 17.4999 6.5001 17.1268 6.5001 16.6665V13.2499C6.5001 13.0137 6.60034 12.7886 6.77588 12.6305C6.95142 12.4725 7.18578 12.3964 7.42067 12.4211L8.9279 12.5798C9.16709 12.5537 9.39143 12.4486 9.56489 12.2803C9.74482 12.1056 9.85838 11.8743 9.88677 11.6258V6.91653C9.88677 6.91525 9.88677 6.91397 9.88678 6.91269C9.89129 5.93316 9.50649 4.99195 8.81704 4.29612C8.12759 3.6003 7.18997 3.20686 6.21043 3.20235C5.2309 3.19784 4.28969 3.58264 3.59387 4.27209C2.89848 4.9611 2.5051 5.89798 2.5001 6.87684C2.50026 7.96798 2.62689 8.50952 2.76378 8.90662C2.81624 9.0588 2.8673 9.18373 2.9271 9.33005C2.9568 9.40273 2.98867 9.4807 3.02393 9.5699C3.1233 9.82126 3.22592 10.1074 3.30982 10.4693C3.53442 11.3491 3.54336 12.2701 3.33581 13.1542C3.33571 13.1546 3.33561 13.1551 3.3355 13.1555L2.47861 16.8546C2.37474 17.303 1.92707 17.5822 1.47871 17.4784C1.03034 17.3745 0.751071 16.9268 0.854935 16.4785L1.71244 12.7768C1.71264 12.7759 1.71284 12.7751 1.71304 12.7742C1.86008 12.1486 1.85322 11.4966 1.69306 10.8742C1.69127 10.8672 1.68957 10.8603 1.68797 10.8533C1.62898 10.5968 1.55678 10.3921 1.47398 10.1826C1.45283 10.1291 1.4288 10.0702 1.4031 10.0073C1.33541 9.84141 1.25622 9.64739 1.1881 9.44977C0.980065 8.84627 0.833437 8.11573 0.833437 6.87486C0.833437 6.87358 0.83344 6.8723 0.833446 6.87102C0.839989 5.44947 1.41097 4.08873 2.42079 3.08816Z" fill="black"/>
<path fill-rule="evenodd" clip-rule="evenodd" d="M15.9137 5.40777C16.2393 5.08254 16.767 5.08287 17.0922 5.40851C18.4192 6.73713 19.1643 8.53828 19.1637 10.4161C19.1632 12.2938 18.4171 14.0946 17.0894 15.4225C16.764 15.7479 16.2363 15.7479 15.9109 15.4225C15.5854 15.0971 15.5854 14.5695 15.9108 14.244C16.9261 13.2286 17.4967 11.8515 17.4971 10.4156C17.4975 8.97964 16.9277 7.60229 15.913 6.58628C15.5877 6.26065 15.5881 5.73301 15.9137 5.40777Z" fill="black"/>
<path fill-rule="evenodd" clip-rule="evenodd" d="M13.5506 7.77109C13.8727 7.44236 14.4004 7.43701 14.7291 7.75912C15.0831 8.10605 15.3649 8.51974 15.558 8.97624C15.7512 9.43275 15.8519 9.92303 15.8544 10.4187C15.8569 10.9144 15.7611 11.4057 15.5726 11.8641C15.384 12.3225 15.1064 12.739 14.7559 13.0895C14.4304 13.4149 13.9028 13.4148 13.5774 13.0894C13.2519 12.7639 13.252 12.2363 13.5775 11.9108C13.7722 11.7161 13.9264 11.4848 14.0312 11.2301C14.1359 10.9754 14.1892 10.7025 14.1878 10.4271C14.1864 10.1517 14.1304 9.87933 14.0231 9.62572C13.9158 9.3721 13.7593 9.14228 13.5626 8.94954C13.2339 8.62742 13.2285 8.09981 13.5506 7.77109Z" fill="black"/>
</svg>
