<svg width="20" height="20" viewBox="0 0 20 20" fill="none" xmlns="http://www.w3.org/2000/svg">
<path fill-rule="evenodd" clip-rule="evenodd" d="M10 2.5C10.3157 2.5 10.6042 2.67834 10.7454 2.96066L15.7454 12.9607C15.9512 13.3723 15.7843 13.8729 15.3727 14.0787C14.961 14.2845 14.4605 14.1177 14.2547 13.706L10 5.19672L5.74538 13.706C5.53955 14.1177 5.03899 14.2845 4.62734 14.0787C4.21569 13.8729 4.04884 13.3723 4.25466 12.9607L9.25466 2.96066C9.39582 2.67834 9.68438 2.5 10 2.5Z" fill="black"/>
<path fill-rule="evenodd" clip-rule="evenodd" d="M5.83325 9.99984C5.83325 9.5396 6.20635 9.1665 6.66659 9.1665H13.3333C13.7935 9.1665 14.1666 9.5396 14.1666 9.99984C14.1666 10.4601 13.7935 10.8332 13.3333 10.8332H6.66659C6.20635 10.8332 5.83325 10.4601 5.83325 9.99984Z" fill="black"/>
<path fill-rule="evenodd" clip-rule="evenodd" d="M18.9226 14.4106C19.248 14.736 19.248 15.2637 18.9226 15.5891L15.5893 18.9224C15.2638 19.2479 14.7362 19.2479 14.4107 18.9224L12.7441 17.2558C12.4186 16.9303 12.4186 16.4027 12.7441 16.0772C13.0695 15.7518 13.5972 15.7518 13.9226 16.0772L15 17.1547L17.7441 14.4106C18.0695 14.0851 18.5972 14.0851 18.9226 14.4106Z" fill="black"/>
</svg>
