<svg width="20" height="20" viewBox="0 0 20 20" fill="none" xmlns="http://www.w3.org/2000/svg">
<path fill-rule="evenodd" clip-rule="evenodd" d="M10 2.5C10.3157 2.5 10.6042 2.67834 10.7454 2.96066L15.7454 12.9607C15.9512 13.3723 15.7843 13.8729 15.3727 14.0787C14.961 14.2845 14.4605 14.1177 14.2547 13.706L10 5.19672L5.74538 13.706C5.53955 14.1177 5.03899 14.2845 4.62734 14.0787C4.21569 13.8729 4.04884 13.3723 4.25466 12.9607L9.25466 2.96066C9.39582 2.67834 9.68438 2.5 10 2.5Z" fill="black"/>
<path fill-rule="evenodd" clip-rule="evenodd" d="M5.83325 9.99984C5.83325 9.5396 6.20635 9.1665 6.66659 9.1665H13.3333C13.7935 9.1665 14.1666 9.5396 14.1666 9.99984C14.1666 10.4601 13.7935 10.8332 13.3333 10.8332H6.66659C6.20635 10.8332 5.83325 10.4601 5.83325 9.99984Z" fill="black"/>
<path fill-rule="evenodd" clip-rule="evenodd" d="M4.77927 17.7367C4.52887 17.9555 4.09623 18.3335 3.33333 18.3335C2.8731 18.3335 2.5 17.9604 2.5 17.5002C2.5 17.0399 2.8731 16.6668 3.33333 16.6668C3.45791 16.6668 3.48016 16.6576 3.7136 16.4547C3.71555 16.453 3.71751 16.4513 3.71949 16.4495C3.83735 16.347 4.02801 16.1812 4.28238 16.0529C4.55763 15.9142 4.87418 15.8335 5.25 15.8335C5.62626 15.8335 5.94304 15.9144 6.21885 16.0596C6.46296 16.1881 6.64549 16.3544 6.75355 16.4529C6.75884 16.4577 6.76396 16.4624 6.76889 16.4669C6.89239 16.5792 6.93326 16.611 6.97406 16.6325C6.99512 16.6436 7.04292 16.6668 7.16667 16.6668C7.29124 16.6668 7.31349 16.6576 7.54693 16.4547L7.55283 16.4495C7.67069 16.347 7.86134 16.1812 8.11571 16.0529C8.39096 15.9142 8.70751 15.8335 9.08333 15.8335C9.84623 15.8335 10.2789 16.2115 10.5293 16.4303C10.5389 16.4386 10.5482 16.4468 10.5572 16.4547C10.6795 16.5609 10.7315 16.6 10.7827 16.6259C10.8174 16.6433 10.8758 16.6668 11 16.6668C11.1246 16.6668 11.1468 16.6576 11.3803 16.4547L11.3862 16.4495C11.504 16.347 11.6947 16.1812 11.949 16.0529C12.2243 15.9142 12.5408 15.8335 12.9167 15.8335C13.6796 15.8335 14.1122 16.2115 14.3626 16.4303C14.3722 16.4386 14.3815 16.4468 14.3906 16.4547C14.5128 16.5609 14.5648 16.6 14.6161 16.6259C14.6507 16.6433 14.7092 16.6668 14.8333 16.6668C14.9579 16.6668 14.9802 16.6576 15.2136 16.4547L15.2195 16.4495C15.3373 16.347 15.528 16.1812 15.7824 16.0529C16.0576 15.9142 16.3742 15.8335 16.75 15.8335C17.2102 15.8335 17.5833 16.2066 17.5833 16.6668C17.5833 17.1271 17.2102 17.5002 16.75 17.5002C16.6258 17.5002 16.5674 17.5237 16.5327 17.5411C16.4815 17.567 16.4295 17.606 16.3072 17.7123C16.2982 17.7202 16.2889 17.7284 16.2793 17.7367C16.0289 17.9555 15.5962 18.3335 14.8333 18.3335C14.4575 18.3335 14.141 18.2528 13.8657 18.1141C13.6113 17.9858 13.4207 17.82 13.3028 17.7175L13.2969 17.7123C13.0635 17.5093 13.0412 17.5002 12.9167 17.5002C12.7925 17.5002 12.734 17.5237 12.6994 17.5411C12.6482 17.567 12.5961 17.606 12.4739 17.7123C12.4648 17.7202 12.4555 17.7284 12.4459 17.7367C12.1955 17.9555 11.7629 18.3335 11 18.3335C10.6242 18.3335 10.3076 18.2528 10.0324 18.1141C9.77801 17.9858 9.58736 17.82 9.4695 17.7175L9.4636 17.7123C9.23016 17.5093 9.20791 17.5002 9.08333 17.5002C8.95916 17.5002 8.9007 17.5237 8.86606 17.5411C8.81482 17.567 8.7628 17.606 8.64057 17.7123C8.63151 17.7202 8.62219 17.7284 8.61261 17.7367C8.3622 17.9555 7.92956 18.3335 7.16667 18.3335C6.79041 18.3335 6.47363 18.2526 6.19782 18.1074C5.95371 17.9789 5.77118 17.8126 5.66312 17.7141C5.65782 17.7093 5.65271 17.7046 5.64777 17.7001C5.52427 17.5878 5.48341 17.5559 5.44261 17.5345C5.42155 17.5234 5.37374 17.5002 5.25 17.5002C5.12582 17.5002 5.06737 17.5237 5.03273 17.5411C4.98148 17.567 4.92947 17.606 4.80723 17.7123C4.79817 17.7202 4.78886 17.7284 4.77927 17.7367Z" fill="black"/>
</svg>
