<svg width="20" height="20" viewBox="0 0 20 20" fill="none" xmlns="http://www.w3.org/2000/svg">
<path fill-rule="evenodd" clip-rule="evenodd" d="M12.5 2.49984C12.5 2.0396 12.8731 1.6665 13.3333 1.6665H17.5C17.9602 1.6665 18.3333 2.0396 18.3333 2.49984V6.6665C18.3333 7.12674 17.9602 7.49984 17.5 7.49984C17.0398 7.49984 16.6667 7.12674 16.6667 6.6665V3.33317H13.3333C12.8731 3.33317 12.5 2.96007 12.5 2.49984Z" fill="black"/>
<path fill-rule="evenodd" clip-rule="evenodd" d="M1.66675 2.49984C1.66675 2.0396 2.03984 1.6665 2.50008 1.6665H6.66675C7.12699 1.6665 7.50008 2.0396 7.50008 2.49984C7.50008 2.96007 7.12699 3.33317 6.66675 3.33317H3.33341V6.6665C3.33341 7.12674 2.96032 7.49984 2.50008 7.49984C2.03984 7.49984 1.66675 7.12674 1.66675 6.6665V2.49984Z" fill="black"/>
<path fill-rule="evenodd" clip-rule="evenodd" d="M1.91083 1.91058C2.23626 1.58514 2.7639 1.58514 3.08934 1.91058L9.61253 8.43378C10.005 8.82603 10.3151 9.29272 10.5248 9.80645C10.7338 10.3187 10.8387 10.8675 10.8334 11.4207V18.3332C10.8334 18.7934 10.4603 19.1665 10.0001 19.1665C9.53984 19.1665 9.16675 18.7934 9.16675 18.3332V11.4165C9.16675 11.4135 9.16676 11.4105 9.1668 11.4076C9.17037 11.0747 9.10741 10.7444 8.98163 10.4362C8.85584 10.1279 8.66976 9.84792 8.4343 9.61256L1.91083 3.08909C1.58539 2.76366 1.58539 2.23602 1.91083 1.91058Z" fill="black"/>
<path fill-rule="evenodd" clip-rule="evenodd" d="M18.0893 1.91058C18.4148 2.23602 18.4148 2.76366 18.0893 3.08909L13.0893 8.08909C12.7639 8.41453 12.2363 8.41453 11.9108 8.08909C11.5854 7.76366 11.5854 7.23602 11.9108 6.91058L16.9108 1.91058C17.2363 1.58514 17.7639 1.58514 18.0893 1.91058Z" fill="black"/>
</svg>
