<svg width="20" height="20" viewBox="0 0 20 20" fill="none" xmlns="http://www.w3.org/2000/svg">
<path fill-rule="evenodd" clip-rule="evenodd" d="M15.8333 3.33317C15.373 3.33317 14.9999 3.70627 14.9999 4.1665C14.9999 4.62674 15.373 4.99984 15.8333 4.99984C16.2935 4.99984 16.6666 4.62674 16.6666 4.1665C16.6666 3.70627 16.2935 3.33317 15.8333 3.33317ZM13.3333 4.1665C13.3333 2.78579 14.4525 1.6665 15.8333 1.6665C17.214 1.6665 18.3333 2.78579 18.3333 4.1665C18.3333 5.54722 17.214 6.6665 15.8333 6.6665C14.4525 6.6665 13.3333 5.54722 13.3333 4.1665Z" fill="black"/>
<path fill-rule="evenodd" clip-rule="evenodd" d="M4.16675 15.0002C3.70651 15.0002 3.33341 15.3733 3.33341 15.8335C3.33341 16.2937 3.70651 16.6668 4.16675 16.6668C4.62699 16.6668 5.00008 16.2937 5.00008 15.8335C5.00008 15.3733 4.62699 15.0002 4.16675 15.0002ZM1.66675 15.8335C1.66675 14.4528 2.78604 13.3335 4.16675 13.3335C5.54746 13.3335 6.66675 14.4528 6.66675 15.8335C6.66675 17.2142 5.54746 18.3335 4.16675 18.3335C2.78604 18.3335 1.66675 17.2142 1.66675 15.8335Z" fill="black"/>
<path fill-rule="evenodd" clip-rule="evenodd" d="M14.1666 5.00016C11.7354 5.00016 9.40386 5.96593 7.68477 7.68502C5.96569 9.4041 4.99992 11.7357 4.99992 14.1668C4.99992 14.6271 4.62682 15.0002 4.16659 15.0002C3.70635 15.0002 3.33325 14.6271 3.33325 14.1668C3.33325 11.2937 4.47462 8.53815 6.50626 6.50651C8.53791 4.47486 11.2934 3.3335 14.1666 3.3335C14.6268 3.3335 14.9999 3.70659 14.9999 4.16683C14.9999 4.62707 14.6268 5.00016 14.1666 5.00016Z" fill="black"/>
</svg>
