<svg width="20" height="20" viewBox="0 0 20 20" fill="none" xmlns="http://www.w3.org/2000/svg">
<path fill-rule="evenodd" clip-rule="evenodd" d="M1.66675 2.49984C1.66675 2.0396 2.03984 1.6665 2.50008 1.6665H2.50841C2.96865 1.6665 3.34175 2.0396 3.34175 2.49984C3.34175 2.96007 2.96865 3.33317 2.50841 3.33317H2.50008C2.03984 3.33317 1.66675 2.96007 1.66675 2.49984Z" fill="black"/>
<path fill-rule="evenodd" clip-rule="evenodd" d="M5 4.16683C5 3.70659 5.3731 3.3335 5.83333 3.3335H5.84167C6.3019 3.3335 6.675 3.70659 6.675 4.16683C6.675 4.62707 6.3019 5.00016 5.84167 5.00016H5.83333C5.3731 5.00016 5 4.62707 5 4.16683Z" fill="black"/>
<path fill-rule="evenodd" clip-rule="evenodd" d="M8.33325 5.83333C8.33325 5.3731 8.70635 5 9.16659 5H9.17492C9.63516 5 10.0083 5.3731 10.0083 5.83333C10.0083 6.29357 9.63516 6.66667 9.17492 6.66667H9.16659C8.70635 6.66667 8.33325 6.29357 8.33325 5.83333Z" fill="black"/>
<path fill-rule="evenodd" clip-rule="evenodd" d="M1.66675 5.83333C1.66675 5.3731 2.03984 5 2.50008 5H2.50841C2.96865 5 3.34175 5.3731 3.34175 5.83333C3.34175 6.29357 2.96865 6.66667 2.50841 6.66667H2.50008C2.03984 6.66667 1.66675 6.29357 1.66675 5.83333Z" fill="black"/>
<path fill-rule="evenodd" clip-rule="evenodd" d="M5 7.49984C5 7.0396 5.3731 6.6665 5.83333 6.6665H5.84167C6.3019 6.6665 6.675 7.0396 6.675 7.49984C6.675 7.96007 6.3019 8.33317 5.84167 8.33317H5.83333C5.3731 8.33317 5 7.96007 5 7.49984Z" fill="black"/>
<path fill-rule="evenodd" clip-rule="evenodd" d="M1.66675 9.16683C1.66675 8.70659 2.03984 8.3335 2.50008 8.3335H2.50841C2.96865 8.3335 3.34175 8.70659 3.34175 9.16683C3.34175 9.62707 2.96865 10.0002 2.50841 10.0002H2.50008C2.03984 10.0002 1.66675 9.62707 1.66675 9.16683Z" fill="black"/>
<path fill-rule="evenodd" clip-rule="evenodd" d="M11.6667 4.16683C11.6667 3.70659 12.0398 3.3335 12.5001 3.3335H15.8334C16.2937 3.3335 16.6667 3.70659 16.6667 4.16683V7.50016C16.6667 7.9604 16.2937 8.3335 15.8334 8.3335H12.5001C12.0398 8.3335 11.6667 7.9604 11.6667 7.50016V4.16683ZM13.3334 5.00016V6.66683H15.0001V5.00016H13.3334Z" fill="black"/>
<path fill-rule="evenodd" clip-rule="evenodd" d="M13.0893 6.91058C13.4147 7.23602 13.4147 7.76366 13.0893 8.08909L11.6667 9.51168V17.4998H16.6667V9.51168L15.2441 8.08909C14.9186 7.76366 14.9186 7.23602 15.2441 6.91058C15.5695 6.58514 16.0972 6.58514 16.4226 6.91058L18.0893 8.57725C18.2455 8.73353 18.3333 8.94549 18.3333 9.1665V17.4998C18.3333 17.9392 18.1832 18.3701 17.8601 18.6933C17.5369 19.0164 17.106 19.1665 16.6667 19.1665H11.6667C11.2273 19.1665 10.7964 19.0164 10.4732 18.6933C10.1501 18.3701 10 17.9392 10 17.4998V9.1665C10 8.94549 10.0878 8.73353 10.2441 8.57725L11.9107 6.91058C12.2362 6.58514 12.7638 6.58514 13.0893 6.91058Z" fill="black"/>
<path fill-rule="evenodd" clip-rule="evenodd" d="M18.3084 9.79792C18.42 10.2444 18.1486 10.6969 17.7021 10.8085L11.0354 12.4752C10.5889 12.5868 10.1365 12.3153 10.0248 11.8688C9.91321 11.4223 10.1847 10.9699 10.6312 10.8582L17.2978 9.19158C17.7443 9.07996 18.1968 9.35143 18.3084 9.79792Z" fill="black"/>
<path fill-rule="evenodd" clip-rule="evenodd" d="M18.3084 13.9644C18.42 14.4109 18.1486 14.8634 17.7021 14.975L11.0354 16.6417C10.5889 16.7533 10.1365 16.4818 10.0248 16.0353C9.91321 15.5888 10.1847 15.1364 10.6312 15.0248L17.2978 13.3581C17.7443 13.2465 18.1968 13.5179 18.3084 13.9644Z" fill="black"/>
</svg>
