<svg width="20" height="20" viewBox="0 0 20 20" fill="none" xmlns="http://www.w3.org/2000/svg">
<path fill-rule="evenodd" clip-rule="evenodd" d="M5 16.6668C5 16.2066 5.3731 15.8335 5.83333 15.8335H14.1667C14.6269 15.8335 15 16.2066 15 16.6668C15 17.1271 14.6269 17.5002 14.1667 17.5002H5.83333C5.3731 17.5002 5 17.1271 5 16.6668Z" fill="black"/>
<path fill-rule="evenodd" clip-rule="evenodd" d="M11.2678 7.62238C11.6605 7.86238 11.7844 8.37528 11.5444 8.76799C11.2005 9.33061 11.1136 9.91385 11.1461 10.5668C11.1626 10.8998 11.2098 11.2415 11.2681 11.6083C11.282 11.6959 11.2969 11.7864 11.312 11.8788C11.3579 12.1585 11.4066 12.4557 11.4417 12.7427C11.5359 13.5132 11.5618 14.4028 11.1525 15.2651C10.7356 16.1432 9.93718 16.8531 8.67813 17.4254C8.25914 17.6159 7.7651 17.4306 7.57465 17.0116C7.38421 16.5926 7.56947 16.0986 7.98846 15.9081C9.02108 15.4388 9.45183 14.9612 9.64689 14.5503C9.84953 14.1235 9.87023 13.6225 9.78737 12.945C9.75676 12.6947 9.71607 12.4465 9.67187 12.1768C9.65565 12.0778 9.63896 11.976 9.62212 11.8701C9.56164 11.4898 9.50265 11.0757 9.48146 10.6496C9.43842 9.7843 9.54938 8.83629 10.1222 7.89891C10.3622 7.5062 10.8751 7.38239 11.2678 7.62238Z" fill="black"/>
<path fill-rule="evenodd" clip-rule="evenodd" d="M4.47221 7.85637C4.97895 9.01128 5.61416 9.62512 6.20601 9.92105C6.21354 9.92481 6.22101 9.92869 6.22842 9.93268C6.86992 10.2781 7.62517 10.3818 8.68972 10.2581C8.34703 9.48477 7.93512 8.87691 7.42653 8.50702C6.84963 8.08746 5.99647 7.73673 4.47221 7.85637ZM3.18684 6.34605C5.68723 5.89955 7.26513 6.32881 8.40681 7.15913C9.54354 7.98583 10.195 9.36609 10.6239 10.6529C10.6995 10.8796 10.6741 11.1279 10.5541 11.3347C10.4341 11.5414 10.2312 11.6867 9.99677 11.7336C8.27731 12.0774 6.79045 12.1236 5.44932 11.4061C4.18902 10.7712 3.16126 9.46311 2.53611 7.40904C2.46675 7.18115 2.49823 6.93448 2.6226 6.73131C2.74698 6.52815 2.95234 6.38792 3.18684 6.34605Z" fill="black"/>
<path fill-rule="evenodd" clip-rule="evenodd" d="M16.4244 2.74598C16.5884 2.91102 16.6759 3.1371 16.6658 3.36953C16.5757 5.44084 16.0206 6.74114 15.0058 7.75592C14.9841 7.77766 14.9612 7.79818 14.9371 7.81739C13.9321 8.62146 12.5823 9.07576 10.877 9.16552C10.6534 9.17728 10.4345 9.09857 10.2696 8.94711C10.1046 8.79565 10.0076 8.58419 10.0003 8.36039C9.9566 7.01386 10.3219 5.68568 11.048 4.55087C11.0725 4.51256 11.1001 4.47633 11.1305 4.44253C11.5605 3.96471 12.1055 3.49097 12.876 3.13058C13.6421 2.77226 14.5891 2.54551 15.8024 2.50057C16.0349 2.49196 16.2604 2.58094 16.4244 2.74598ZM12.4155 5.50686C12.0551 6.08733 11.8191 6.73289 11.7187 7.40284C12.6613 7.24678 13.3529 6.93894 13.8601 6.54426C14.3649 6.02819 14.7411 5.37369 14.9116 4.25409C14.3604 4.34014 13.929 4.47802 13.5821 4.64026C13.0858 4.8724 12.7251 5.1718 12.4155 5.50686Z" fill="black"/>
</svg>
