<svg width="20" height="20" viewBox="0 0 20 20" fill="none" xmlns="http://www.w3.org/2000/svg">
<path fill-rule="evenodd" clip-rule="evenodd" d="M10.0001 5C10.4603 5 10.8334 5.3731 10.8334 5.83333V9.16667C10.8334 9.6269 10.4603 10 10.0001 10C9.53984 10 9.16675 9.6269 9.16675 9.16667V5.83333C9.16675 5.3731 9.53984 5 10.0001 5Z" fill="black"/>
<path fill-rule="evenodd" clip-rule="evenodd" d="M12.8311 6.83207C13.1991 6.55569 13.7215 6.62999 13.9979 6.998C14.5555 7.7405 14.8953 8.62361 14.9793 9.54836C15.0632 10.4731 14.888 11.403 14.4733 12.2338C14.0585 13.0646 13.4206 13.7634 12.6311 14.2521C11.8415 14.7408 10.9314 14.9999 10.0029 15.0005C9.07432 15.0011 8.16395 14.7431 7.37376 14.2554C6.58358 13.7677 5.9448 13.0696 5.52902 12.2394C5.11324 11.4091 4.93687 10.4794 5.01968 9.55459C5.10249 8.62973 5.44121 7.7462 5.99788 7.003C6.2738 6.63464 6.79608 6.5597 7.16445 6.83561C7.53281 7.11152 7.60775 7.63381 7.33184 8.00217C6.96073 8.49764 6.73492 9.08665 6.67971 9.70323C6.6245 10.3198 6.74208 10.9396 7.01927 11.4931C7.29646 12.0466 7.7223 12.512 8.24909 12.8371C8.77588 13.1622 9.3828 13.3342 10.0018 13.3338C10.6209 13.3334 11.2276 13.1607 11.754 12.8349C12.2803 12.5091 12.7056 12.0432 12.9821 11.4894C13.2586 10.9355 13.3754 10.3156 13.3194 9.69908C13.2635 9.08257 13.0369 8.49384 12.6652 7.99884C12.3888 7.63082 12.4631 7.10844 12.8311 6.83207Z" fill="black"/>
<path fill-rule="evenodd" clip-rule="evenodd" d="M4.16675 3.33317C3.70651 3.33317 3.33341 3.70627 3.33341 4.1665V15.8332C3.33341 16.2934 3.70651 16.6665 4.16675 16.6665H15.8334C16.2937 16.6665 16.6667 16.2934 16.6667 15.8332V4.1665C16.6667 3.70627 16.2937 3.33317 15.8334 3.33317H4.16675ZM1.66675 4.1665C1.66675 2.78579 2.78604 1.6665 4.16675 1.6665H15.8334C17.2141 1.6665 18.3334 2.78579 18.3334 4.1665V15.8332C18.3334 17.2139 17.2141 18.3332 15.8334 18.3332H4.16675C2.78604 18.3332 1.66675 17.2139 1.66675 15.8332V4.1665Z" fill="black"/>
</svg>
