<svg width="20" height="20" viewBox="0 0 20 20" fill="none" xmlns="http://www.w3.org/2000/svg">
<path fill-rule="evenodd" clip-rule="evenodd" d="M4.16675 3.33317C3.70651 3.33317 3.33341 3.70627 3.33341 4.1665V15.8332C3.33341 16.2934 3.70651 16.6665 4.16675 16.6665H15.8334C16.2937 16.6665 16.6667 16.2934 16.6667 15.8332V4.1665C16.6667 3.70627 16.2937 3.33317 15.8334 3.33317H4.16675ZM1.66675 4.1665C1.66675 2.78579 2.78604 1.6665 4.16675 1.6665H15.8334C17.2141 1.6665 18.3334 2.78579 18.3334 4.1665V15.8332C18.3334 17.2139 17.2141 18.3332 15.8334 18.3332H4.16675C2.78604 18.3332 1.66675 17.2139 1.66675 15.8332V4.1665Z" fill="black"/>
<path fill-rule="evenodd" clip-rule="evenodd" d="M10.5892 6.07757C10.9146 6.40301 10.9146 6.93065 10.5892 7.25609L7.8451 10.0002L10.5892 12.7442C10.9146 13.0697 10.9146 13.5973 10.5892 13.9228C10.2637 14.2482 9.7361 14.2482 9.41066 13.9228L6.07733 10.5894C5.75189 10.264 5.75189 9.73634 6.07733 9.41091L9.41066 6.07757C9.7361 5.75214 10.2637 5.75214 10.5892 6.07757Z" fill="black"/>
<path fill-rule="evenodd" clip-rule="evenodd" d="M5.83325 9.99984C5.83325 9.5396 6.20635 9.1665 6.66659 9.1665H13.3333C13.7935 9.1665 14.1666 9.5396 14.1666 9.99984C14.1666 10.4601 13.7935 10.8332 13.3333 10.8332H6.66659C6.20635 10.8332 5.83325 10.4601 5.83325 9.99984Z" fill="black"/>
</svg>
