<svg width="20" height="20" viewBox="0 0 20 20" fill="none" xmlns="http://www.w3.org/2000/svg">
<path fill-rule="evenodd" clip-rule="evenodd" d="M4.16675 3.33317C3.70651 3.33317 3.33341 3.70627 3.33341 4.1665V15.8332C3.33341 16.2934 3.70651 16.6665 4.16675 16.6665H15.8334C16.2937 16.6665 16.6667 16.2934 16.6667 15.8332V4.1665C16.6667 3.70627 16.2937 3.33317 15.8334 3.33317H4.16675ZM1.66675 4.1665C1.66675 2.78579 2.78604 1.6665 4.16675 1.6665H15.8334C17.2141 1.6665 18.3334 2.78579 18.3334 4.1665V15.8332C18.3334 17.2139 17.2141 18.3332 15.8334 18.3332H4.16675C2.78604 18.3332 1.66675 17.2139 1.66675 15.8332V4.1665Z" fill="black"/>
<path fill-rule="evenodd" clip-rule="evenodd" d="M6.07733 7.74408C6.40277 7.41864 6.9304 7.41864 7.25584 7.74408L9.99992 10.4882L12.744 7.74408C13.0694 7.41864 13.5971 7.41864 13.9225 7.74408C14.2479 8.06951 14.2479 8.59715 13.9225 8.92259L10.5892 12.2559C10.2637 12.5814 9.7361 12.5814 9.41066 12.2559L6.07733 8.92259C5.75189 8.59715 5.75189 8.06951 6.07733 7.74408Z" fill="black"/>
</svg>
