<svg width="20" height="20" viewBox="0 0 20 20" fill="none" xmlns="http://www.w3.org/2000/svg">
<path fill-rule="evenodd" clip-rule="evenodd" d="M3.61017 5.27692C3.41463 5.47246 3.33341 5.68786 3.33341 5.8335V14.1668C3.33341 14.3125 3.41463 14.5279 3.61017 14.7234C3.80572 14.919 4.02111 15.0002 4.16675 15.0002H6.66675C7.12699 15.0002 7.50008 15.3733 7.50008 15.8335C7.50008 16.2937 7.12699 16.6668 6.66675 16.6668H4.16675C3.47906 16.6668 2.86111 16.3314 2.43166 15.9019C2.0022 15.4725 1.66675 14.8545 1.66675 14.1668V5.8335C1.66675 5.1458 2.0022 4.52786 2.43166 4.09841C2.86111 3.66895 3.47906 3.3335 4.16675 3.3335H6.66675C7.12699 3.3335 7.50008 3.70659 7.50008 4.16683C7.50008 4.62707 7.12699 5.00016 6.66675 5.00016H4.16675C4.02111 5.00016 3.80572 5.08137 3.61017 5.27692Z" fill="black"/>
<path fill-rule="evenodd" clip-rule="evenodd" d="M12.5 4.16683C12.5 3.70659 12.8731 3.3335 13.3333 3.3335H15.8333C16.521 3.3335 17.139 3.66895 17.5684 4.09841C17.9979 4.52786 18.3333 5.1458 18.3333 5.8335V14.1668C18.3333 14.8545 17.9979 15.4725 17.5684 15.9019C17.139 16.3314 16.521 16.6668 15.8333 16.6668H13.3333C12.8731 16.6668 12.5 16.2937 12.5 15.8335C12.5 15.3733 12.8731 15.0002 13.3333 15.0002H15.8333C15.979 15.0002 16.1944 14.919 16.3899 14.7234C16.5855 14.5279 16.6667 14.3125 16.6667 14.1668V5.8335C16.6667 5.68786 16.5855 5.47246 16.3899 5.27692C16.1944 5.08137 15.979 5.00016 15.8333 5.00016H13.3333C12.8731 5.00016 12.5 4.62707 12.5 4.16683Z" fill="black"/>
<path fill-rule="evenodd" clip-rule="evenodd" d="M10.0001 2.5C10.4603 2.5 10.8334 2.8731 10.8334 3.33333V16.6667C10.8334 17.1269 10.4603 17.5 10.0001 17.5C9.53984 17.5 9.16675 17.1269 9.16675 16.6667V3.33333C9.16675 2.8731 9.53984 2.5 10.0001 2.5Z" fill="black"/>
</svg>
