<svg width="20" height="20" viewBox="0 0 20 20" fill="none" xmlns="http://www.w3.org/2000/svg">
<path fill-rule="evenodd" clip-rule="evenodd" d="M4.16675 3.33317C3.94573 3.33317 3.73377 3.42097 3.57749 3.57725C3.42121 3.73353 3.33341 3.94549 3.33341 4.1665V15.8332C3.33341 16.0542 3.42121 16.2661 3.57749 16.4224C3.73377 16.5787 3.94573 16.6665 4.16675 16.6665H15.8334C16.0544 16.6665 16.2664 16.5787 16.4227 16.4224C16.5789 16.2661 16.6667 16.0542 16.6667 15.8332V8.74984C16.6667 8.2896 17.0398 7.9165 17.5001 7.9165C17.9603 7.9165 18.3334 8.2896 18.3334 8.74984V15.8332C18.3334 16.4962 18.07 17.1321 17.6012 17.6009C17.1323 18.0698 16.4965 18.3332 15.8334 18.3332H4.16675C3.50371 18.3332 2.86782 18.0698 2.39898 17.6009C1.93014 17.1321 1.66675 16.4962 1.66675 15.8332V4.1665C1.66675 3.50346 1.93014 2.86758 2.39898 2.39874C2.86782 1.9299 3.50371 1.6665 4.16675 1.6665H14.5834C15.0437 1.6665 15.4167 2.0396 15.4167 2.49984C15.4167 2.96007 15.0437 3.33317 14.5834 3.33317H4.16675Z" fill="black"/>
<path fill-rule="evenodd" clip-rule="evenodd" d="M18.9227 2.74408C19.2481 3.06951 19.2481 3.59715 18.9227 3.92259L10.5893 12.2559C10.2639 12.5814 9.73626 12.5814 9.41083 12.2559L6.91083 9.75592C6.58539 9.43049 6.58539 8.90285 6.91083 8.57741C7.23626 8.25197 7.7639 8.25197 8.08934 8.57741L10.0001 10.4882L17.7442 2.74408C18.0696 2.41864 18.5972 2.41864 18.9227 2.74408Z" fill="black"/>
</svg>
