<svg width="20" height="20" viewBox="0 0 20 20" fill="none" xmlns="http://www.w3.org/2000/svg">
<path fill-rule="evenodd" clip-rule="evenodd" d="M4.16675 3.33317C3.70651 3.33317 3.33341 3.70627 3.33341 4.1665V15.8332C3.33341 16.2934 3.70651 16.6665 4.16675 16.6665H15.8334C16.2937 16.6665 16.6667 16.2934 16.6667 15.8332V4.1665C16.6667 3.70627 16.2937 3.33317 15.8334 3.33317H4.16675ZM1.66675 4.1665C1.66675 2.78579 2.78604 1.6665 4.16675 1.6665H15.8334C17.2141 1.6665 18.3334 2.78579 18.3334 4.1665V15.8332C18.3334 17.2139 17.2141 18.3332 15.8334 18.3332H4.16675C2.78604 18.3332 1.66675 17.2139 1.66675 15.8332V4.1665Z" fill="black"/>
<path fill-rule="evenodd" clip-rule="evenodd" d="M10.0001 5.8335C10.4603 5.8335 10.8334 6.20659 10.8334 6.66683V13.3335C10.8334 13.7937 10.4603 14.1668 10.0001 14.1668C9.53984 14.1668 9.16675 13.7937 9.16675 13.3335V6.66683C9.16675 6.20659 9.53984 5.8335 10.0001 5.8335Z" fill="black"/>
<path fill-rule="evenodd" clip-rule="evenodd" d="M13.6401 7.92003C13.8684 8.31962 13.7296 8.82867 13.33 9.05701L7.49668 12.3903C7.09708 12.6187 6.58804 12.4799 6.3597 12.0803C6.13135 11.6807 6.27018 11.1716 6.66978 10.9433L12.5031 7.60994C12.9027 7.3816 13.4118 7.52043 13.6401 7.92003Z" fill="black"/>
<path fill-rule="evenodd" clip-rule="evenodd" d="M6.3597 7.92003C6.58804 7.52043 7.09708 7.3816 7.49668 7.60994L13.33 10.9433C13.7296 11.1716 13.8684 11.6807 13.6401 12.0803C13.4118 12.4799 12.9027 12.6187 12.5031 12.3903L6.66978 9.05701C6.27018 8.82867 6.13135 8.31962 6.3597 7.92003Z" fill="black"/>
</svg>
