<svg width="20" height="20" viewBox="0 0 20 20" fill="none" xmlns="http://www.w3.org/2000/svg">
<path fill-rule="evenodd" clip-rule="evenodd" d="M4.16675 3.33317C3.70651 3.33317 3.33341 3.70627 3.33341 4.1665V15.8332C3.33341 16.2934 3.70651 16.6665 4.16675 16.6665H15.8334C16.2937 16.6665 16.6667 16.2934 16.6667 15.8332V4.1665C16.6667 3.70627 16.2937 3.33317 15.8334 3.33317H4.16675ZM1.66675 4.1665C1.66675 2.78579 2.78604 1.6665 4.16675 1.6665H15.8334C17.2141 1.6665 18.3334 2.78579 18.3334 4.1665V15.8332C18.3334 17.2139 17.2141 18.3332 15.8334 18.3332H4.16675C2.78604 18.3332 1.66675 17.2139 1.66675 15.8332V4.1665Z" fill="black"/>
<path fill-rule="evenodd" clip-rule="evenodd" d="M13.9225 6.07757C14.2479 6.40301 14.2479 6.93065 13.9225 7.25609L7.25584 13.9228C6.9304 14.2482 6.40277 14.2482 6.07733 13.9228C5.75189 13.5973 5.75189 13.0697 6.07733 12.7442L12.744 6.07757C13.0694 5.75214 13.5971 5.75214 13.9225 6.07757Z" fill="black"/>
<path fill-rule="evenodd" clip-rule="evenodd" d="M6.66659 5.8335C7.12682 5.8335 7.49992 6.20659 7.49992 6.66683V12.5002H13.3333C13.7935 12.5002 14.1666 12.8733 14.1666 13.3335C14.1666 13.7937 13.7935 14.1668 13.3333 14.1668H6.66659C6.20635 14.1668 5.83325 13.7937 5.83325 13.3335V6.66683C5.83325 6.20659 6.20635 5.8335 6.66659 5.8335Z" fill="black"/>
</svg>
