<svg width="20" height="20" viewBox="0 0 20 20" fill="none" xmlns="http://www.w3.org/2000/svg">
<path fill-rule="evenodd" clip-rule="evenodd" d="M4.16675 3.33317C3.70651 3.33317 3.33341 3.70627 3.33341 4.1665V15.8332C3.33341 16.2934 3.70651 16.6665 4.16675 16.6665H15.8334C16.2937 16.6665 16.6667 16.2934 16.6667 15.8332V4.1665C16.6667 3.70627 16.2937 3.33317 15.8334 3.33317H4.16675ZM1.66675 4.1665C1.66675 2.78579 2.78604 1.6665 4.16675 1.6665H15.8334C17.2141 1.6665 18.3334 2.78579 18.3334 4.1665V15.8332C18.3334 17.2139 17.2141 18.3332 15.8334 18.3332H4.16675C2.78604 18.3332 1.66675 17.2139 1.66675 15.8332V4.1665Z" fill="black"/>
<path fill-rule="evenodd" clip-rule="evenodd" d="M7.49992 7.50016V12.5002H12.4999V7.50016H7.49992ZM12.501 12.5001C12.501 12.5001 12.501 12.5001 12.5009 12.5001L12.501 12.5001ZM5.83325 7.50016C5.83325 6.57969 6.57944 5.8335 7.49992 5.8335H12.4999C13.4204 5.8335 14.1666 6.57969 14.1666 7.50016V12.5002C14.1666 13.4206 13.4204 14.1668 12.4999 14.1668H7.49992C6.57944 14.1668 5.83325 13.4206 5.83325 12.5002V7.50016Z" fill="black"/>
</svg>
