<svg width="20" height="20" viewBox="0 0 20 20" fill="none" xmlns="http://www.w3.org/2000/svg">
<path fill-rule="evenodd" clip-rule="evenodd" d="M5.24408 5.24408C5.56951 4.91864 6.09715 4.91864 6.42259 5.24408L8.08926 6.91074C8.41469 7.23618 8.41469 7.76382 8.08926 8.08926L6.42259 9.75592C6.09715 10.0814 5.56951 10.0814 5.24408 9.75592C4.91864 9.43049 4.91864 8.90285 5.24408 8.57741L6.32149 7.5L5.24408 6.42259C4.91864 6.09715 4.91864 5.56951 5.24408 5.24408Z" fill="black"/>
<path fill-rule="evenodd" clip-rule="evenodd" d="M8.33325 10.8333C8.33325 10.3731 8.70635 10 9.16659 10H12.4999C12.9602 10 13.3333 10.3731 13.3333 10.8333C13.3333 11.2936 12.9602 11.6667 12.4999 11.6667H9.16659C8.70635 11.6667 8.33325 11.2936 8.33325 10.8333Z" fill="black"/>
<path fill-rule="evenodd" clip-rule="evenodd" d="M4.16675 3.33317C3.70651 3.33317 3.33341 3.70627 3.33341 4.1665V15.8332C3.33341 16.2934 3.70651 16.6665 4.16675 16.6665H15.8334C16.2937 16.6665 16.6667 16.2934 16.6667 15.8332V4.1665C16.6667 3.70627 16.2937 3.33317 15.8334 3.33317H4.16675ZM1.66675 4.1665C1.66675 2.78579 2.78604 1.6665 4.16675 1.6665H15.8334C17.2141 1.6665 18.3334 2.78579 18.3334 4.1665V15.8332C18.3334 17.2139 17.2141 18.3332 15.8334 18.3332H4.16675C2.78604 18.3332 1.66675 17.2139 1.66675 15.8332V4.1665Z" fill="black"/>
</svg>
