<svg width="20" height="20" viewBox="0 0 20 20" fill="none" xmlns="http://www.w3.org/2000/svg">
<path fill-rule="evenodd" clip-rule="evenodd" d="M4.16675 3.33317C3.70651 3.33317 3.33341 3.70627 3.33341 4.1665V15.8332C3.33341 16.2934 3.70651 16.6665 4.16675 16.6665H15.8334C16.2937 16.6665 16.6667 16.2934 16.6667 15.8332V4.1665C16.6667 3.70627 16.2937 3.33317 15.8334 3.33317H4.16675ZM1.66675 4.1665C1.66675 2.78579 2.78604 1.6665 4.16675 1.6665H15.8334C17.2141 1.6665 18.3334 2.78579 18.3334 4.1665V15.8332C18.3334 17.2139 17.2141 18.3332 15.8334 18.3332H4.16675C2.78604 18.3332 1.66675 17.2139 1.66675 15.8332V4.1665Z" fill="black"/>
<path fill-rule="evenodd" clip-rule="evenodd" d="M9.24286 5.00351C9.61009 5.03723 9.91149 5.30831 9.98382 5.66993L11.1007 11.2544L11.7263 9.69053C11.8528 9.37415 12.1592 9.16669 12.5 9.16669H14.1667C14.6269 9.16669 15 9.53979 15 10C15 10.4603 14.6269 10.8334 14.1667 10.8334H13.0642L11.6071 14.4762C11.4701 14.8186 11.1244 15.0302 10.7571 14.9965C10.3899 14.9628 10.0885 14.6917 10.0162 14.3301L8.89928 8.74563L8.27373 10.3095C8.14718 10.6259 7.84075 10.8334 7.5 10.8334H5.83333C5.3731 10.8334 5 10.4603 5 10C5 9.53979 5.3731 9.16669 5.83333 9.16669H6.93581L8.39294 5.52386C8.5299 5.18146 8.87562 4.9698 9.24286 5.00351Z" fill="black"/>
</svg>
