<svg width="20" height="20" viewBox="0 0 20 20" fill="none" xmlns="http://www.w3.org/2000/svg">
<path fill-rule="evenodd" clip-rule="evenodd" d="M4.16675 3.33317C3.94573 3.33317 3.73377 3.42097 3.57749 3.57725C3.42121 3.73353 3.33341 3.94549 3.33341 4.1665V15.8332C3.33341 16.0542 3.42121 16.2661 3.57749 16.4224C3.73377 16.5787 3.94573 16.6665 4.16675 16.6665H15.8334C16.0544 16.6665 16.2664 16.5787 16.4227 16.4224C16.5789 16.2661 16.6667 16.0542 16.6667 15.8332V10.8332C16.6667 10.3729 17.0398 9.99984 17.5001 9.99984C17.9603 9.99984 18.3334 10.3729 18.3334 10.8332V15.8332C18.3334 16.4962 18.07 17.1321 17.6012 17.6009C17.1323 18.0698 16.4965 18.3332 15.8334 18.3332H4.16675C3.50371 18.3332 2.86782 18.0698 2.39898 17.6009C1.93014 17.1321 1.66675 16.4962 1.66675 15.8332V4.1665C1.66675 3.50346 1.93014 2.86758 2.39898 2.39874C2.86782 1.9299 3.50371 1.6665 4.16675 1.6665H9.16675C9.62698 1.6665 10.0001 2.0396 10.0001 2.49984C10.0001 2.96007 9.62698 3.33317 9.16675 3.33317H4.16675Z" fill="black"/>
<path fill-rule="evenodd" clip-rule="evenodd" d="M18.0893 1.91058C18.4148 2.23602 18.4148 2.76366 18.0893 3.08909L10.5893 10.5891C10.2639 10.9145 9.73626 10.9145 9.41083 10.5891C9.08539 10.2637 9.08539 9.73602 9.41083 9.41058L16.9108 1.91058C17.2363 1.58514 17.7639 1.58514 18.0893 1.91058Z" fill="black"/>
<path fill-rule="evenodd" clip-rule="evenodd" d="M11.6667 2.49984C11.6667 2.0396 12.0398 1.6665 12.5001 1.6665H17.5001C17.9603 1.6665 18.3334 2.0396 18.3334 2.49984V7.49984C18.3334 7.96007 17.9603 8.33317 17.5001 8.33317C17.0398 8.33317 16.6667 7.96007 16.6667 7.49984V3.33317H12.5001C12.0398 3.33317 11.6667 2.96007 11.6667 2.49984Z" fill="black"/>
</svg>
