<svg width="20" height="20" viewBox="0 0 20 20" fill="none" xmlns="http://www.w3.org/2000/svg">
<path fill-rule="evenodd" clip-rule="evenodd" d="M11.1484 11.1484L13.2886 16.6519L13.8239 14.9247C13.8239 14.9246 13.8239 14.9245 13.824 14.9244C13.824 14.9243 13.824 14.9242 13.824 14.9242C13.9041 14.6654 14.0461 14.4301 14.2377 14.2385C14.4293 14.0469 14.6647 13.9049 14.9236 13.8248C14.9237 13.8248 14.9238 13.8247 14.9239 13.8247L16.6522 13.2887L11.1484 11.1484ZM10.8719 9.25261C10.6464 9.16363 10.3997 9.14226 10.1621 9.19117C9.92309 9.24039 9.70372 9.35859 9.53116 9.53116C9.35859 9.70372 9.24039 9.92309 9.19117 10.1621C9.14226 10.3997 9.16363 10.6464 9.25261 10.8719L12.1688 18.3708C12.2631 18.612 12.43 18.818 12.6464 18.9603C12.8628 19.1026 13.118 19.1742 13.3768 19.1651C13.6357 19.1561 13.8853 19.0668 14.0912 18.9098C14.2971 18.7527 14.4492 18.5355 14.5263 18.2883L14.5268 18.2867L15.416 15.4175L15.4162 15.417L18.2883 14.5263C18.5355 14.4492 18.7527 14.2971 18.9098 14.0912C19.0668 13.8853 19.1561 13.6357 19.1651 13.3768C19.1742 13.118 19.1026 12.8628 18.9603 12.6464C18.818 12.43 18.612 12.2631 18.3708 12.1688L10.8719 9.25261Z" fill="black"/>
<path fill-rule="evenodd" clip-rule="evenodd" d="M2.39898 2.39874C2.86782 1.9299 3.50371 1.6665 4.16675 1.6665C4.62699 1.6665 5.00008 2.0396 5.00008 2.49984C5.00008 2.96007 4.62699 3.33317 4.16675 3.33317C3.94573 3.33317 3.73377 3.42097 3.57749 3.57725C3.42121 3.73353 3.33341 3.94549 3.33341 4.1665C3.33341 4.62674 2.96032 4.99984 2.50008 4.99984C2.03984 4.99984 1.66675 4.62674 1.66675 4.1665C1.66675 3.50346 1.93014 2.86758 2.39898 2.39874Z" fill="black"/>
<path fill-rule="evenodd" clip-rule="evenodd" d="M15 2.49984C15 2.0396 15.3731 1.6665 15.8333 1.6665C16.4964 1.6665 17.1323 1.9299 17.6011 2.39874C18.0699 2.86758 18.3333 3.50346 18.3333 4.1665C18.3333 4.62674 17.9602 4.99984 17.5 4.99984C17.0398 4.99984 16.6667 4.62674 16.6667 4.1665C16.6667 3.94549 16.5789 3.73353 16.4226 3.57725C16.2663 3.42097 16.0543 3.33317 15.8333 3.33317C15.3731 3.33317 15 2.96007 15 2.49984Z" fill="black"/>
<path fill-rule="evenodd" clip-rule="evenodd" d="M2.50008 15C2.96032 15 3.33341 15.3731 3.33341 15.8333C3.33341 16.0543 3.42121 16.2663 3.57749 16.4226C3.73377 16.5789 3.94573 16.6667 4.16675 16.6667C4.62699 16.6667 5.00008 17.0398 5.00008 17.5C5.00008 17.9602 4.62699 18.3333 4.16675 18.3333C3.50371 18.3333 2.86782 18.0699 2.39898 17.6011C1.93014 17.1323 1.66675 16.4964 1.66675 15.8333C1.66675 15.3731 2.03984 15 2.50008 15Z" fill="black"/>
<path fill-rule="evenodd" clip-rule="evenodd" d="M6.66675 2.49984C6.66675 2.0396 7.03984 1.6665 7.50008 1.6665H8.33341C8.79365 1.6665 9.16675 2.0396 9.16675 2.49984C9.16675 2.96007 8.79365 3.33317 8.33341 3.33317H7.50008C7.03984 3.33317 6.66675 2.96007 6.66675 2.49984Z" fill="black"/>
<path fill-rule="evenodd" clip-rule="evenodd" d="M6.66675 17.4998C6.66675 17.0396 7.03984 16.6665 7.50008 16.6665H9.16675C9.62699 16.6665 10.0001 17.0396 10.0001 17.4998C10.0001 17.9601 9.62699 18.3332 9.16675 18.3332H7.50008C7.03984 18.3332 6.66675 17.9601 6.66675 17.4998Z" fill="black"/>
<path fill-rule="evenodd" clip-rule="evenodd" d="M10.8333 2.49984C10.8333 2.0396 11.2063 1.6665 11.6666 1.6665H12.4999C12.9602 1.6665 13.3333 2.0396 13.3333 2.49984C13.3333 2.96007 12.9602 3.33317 12.4999 3.33317H11.6666C11.2063 3.33317 10.8333 2.96007 10.8333 2.49984Z" fill="black"/>
<path fill-rule="evenodd" clip-rule="evenodd" d="M2.50008 6.6665C2.96032 6.6665 3.33341 7.0396 3.33341 7.49984V8.33317C3.33341 8.79341 2.96032 9.1665 2.50008 9.1665C2.03984 9.1665 1.66675 8.79341 1.66675 8.33317V7.49984C1.66675 7.0396 2.03984 6.6665 2.50008 6.6665Z" fill="black"/>
<path fill-rule="evenodd" clip-rule="evenodd" d="M17.5001 6.6665C17.9603 6.6665 18.3334 7.0396 18.3334 7.49984V9.1665C18.3334 9.62674 17.9603 9.99984 17.5001 9.99984C17.0398 9.99984 16.6667 9.62674 16.6667 9.1665V7.49984C16.6667 7.0396 17.0398 6.6665 17.5001 6.6665Z" fill="black"/>
<path fill-rule="evenodd" clip-rule="evenodd" d="M2.50008 10.8335C2.96032 10.8335 3.33341 11.2066 3.33341 11.6668V12.5002C3.33341 12.9604 2.96032 13.3335 2.50008 13.3335C2.03984 13.3335 1.66675 12.9604 1.66675 12.5002V11.6668C1.66675 11.2066 2.03984 10.8335 2.50008 10.8335Z" fill="black"/>
</svg>
