<svg width="20" height="20" viewBox="0 0 20 20" fill="none" xmlns="http://www.w3.org/2000/svg">
<path fill-rule="evenodd" clip-rule="evenodd" d="M10.0162 5.6699C10.0941 5.28038 10.4361 5 10.8333 5H14.1667C14.6269 5 15 5.3731 15 5.83333C15 6.29357 14.6269 6.66667 14.1667 6.66667H11.5165L9.98382 14.3301C9.91149 14.6917 9.61009 14.9628 9.24286 14.9965C8.87562 15.0302 8.5299 14.8186 8.39294 14.4762L6.93581 10.8333H5.83333C5.3731 10.8333 5 10.4602 5 10C5 9.53976 5.3731 9.16667 5.83333 9.16667H7.5C7.84075 9.16667 8.14718 9.37413 8.27373 9.69051L8.89928 11.2544L10.0162 5.6699Z" fill="black"/>
<path fill-rule="evenodd" clip-rule="evenodd" d="M4.16675 3.33317C3.70651 3.33317 3.33341 3.70627 3.33341 4.1665V15.8332C3.33341 16.2934 3.70651 16.6665 4.16675 16.6665H15.8334C16.2937 16.6665 16.6667 16.2934 16.6667 15.8332V4.1665C16.6667 3.70627 16.2937 3.33317 15.8334 3.33317H4.16675ZM1.66675 4.1665C1.66675 2.78579 2.78604 1.6665 4.16675 1.6665H15.8334C17.2141 1.6665 18.3334 2.78579 18.3334 4.1665V15.8332C18.3334 17.2139 17.2141 18.3332 15.8334 18.3332H4.16675C2.78604 18.3332 1.66675 17.2139 1.66675 15.8332V4.1665Z" fill="black"/>
</svg>
