<svg width="20" height="20" viewBox="0 0 20 20" fill="none" xmlns="http://www.w3.org/2000/svg">
<path fill-rule="evenodd" clip-rule="evenodd" d="M5.87529 13.375C6.96925 12.2811 8.45299 11.6665 10.0001 11.6665C11.5472 11.6665 13.0309 12.2811 14.1249 13.375C15.2188 14.469 15.8334 15.9527 15.8334 17.4998C15.8334 17.9601 15.4603 18.3332 15.0001 18.3332C14.5398 18.3332 14.1667 17.9601 14.1667 17.4998C14.1667 16.3948 13.7278 15.335 12.9464 14.5536C12.165 13.7722 11.1052 13.3332 10.0001 13.3332C8.89501 13.3332 7.8352 13.7722 7.0538 14.5536C6.2724 15.335 5.83341 16.3948 5.83341 17.4998C5.83341 17.9601 5.46032 18.3332 5.00008 18.3332C4.53984 18.3332 4.16675 17.9601 4.16675 17.4998C4.16675 15.9527 4.78133 14.469 5.87529 13.375Z" fill="black"/>
<path fill-rule="evenodd" clip-rule="evenodd" d="M9.99992 6.66667C8.61921 6.66667 7.49992 7.78595 7.49992 9.16667C7.49992 10.5474 8.61921 11.6667 9.99992 11.6667C11.3806 11.6667 12.4999 10.5474 12.4999 9.16667C12.4999 7.78595 11.3806 6.66667 9.99992 6.66667ZM5.83325 9.16667C5.83325 6.86548 7.69873 5 9.99992 5C12.3011 5 14.1666 6.86548 14.1666 9.16667C14.1666 11.4679 12.3011 13.3333 9.99992 13.3333C7.69873 13.3333 5.83325 11.4679 5.83325 9.16667Z" fill="black"/>
<path fill-rule="evenodd" clip-rule="evenodd" d="M4.16675 3.33317C3.70651 3.33317 3.33341 3.70627 3.33341 4.1665V15.8332C3.33341 16.2934 3.70651 16.6665 4.16675 16.6665H15.8334C16.2937 16.6665 16.6667 16.2934 16.6667 15.8332V4.1665C16.6667 3.70627 16.2937 3.33317 15.8334 3.33317H4.16675ZM1.66675 4.1665C1.66675 2.78579 2.78604 1.6665 4.16675 1.6665H15.8334C17.2141 1.6665 18.3334 2.78579 18.3334 4.1665V15.8332C18.3334 17.2139 17.2141 18.3332 15.8334 18.3332H4.16675C2.78604 18.3332 1.66675 17.2139 1.66675 15.8332V4.1665Z" fill="black"/>
</svg>
