<svg width="20" height="20" viewBox="0 0 20 20" fill="none" xmlns="http://www.w3.org/2000/svg">
<g clip-path="url(#clip0_2001_10267)">
<path fill-rule="evenodd" clip-rule="evenodd" d="M4.15488 1.66659C4.15884 1.66653 4.16279 1.6665 4.16675 1.6665H15.8334C16.4965 1.6665 17.1323 1.9299 17.6012 2.39874C18.07 2.86758 18.3334 3.50346 18.3334 4.1665V15.8332C18.3334 15.8343 18.3334 15.8355 18.3334 15.8367C18.3306 16.4987 18.0654 17.1325 17.5959 17.5992C17.2695 17.9236 16.7419 17.9221 16.4174 17.5957C16.0929 17.2693 16.0945 16.7416 16.4209 16.4172C16.5771 16.2619 16.6654 16.0512 16.6667 15.8311V4.1665C16.6667 3.94549 16.5789 3.73353 16.4227 3.57725C16.2664 3.42097 16.0544 3.33317 15.8334 3.33317H4.1737C3.95569 3.33756 3.74799 3.42724 3.59528 3.58309C3.27316 3.91181 2.74555 3.91716 2.41683 3.59504C2.08811 3.27292 2.08276 2.74531 2.40488 2.41659C2.86646 1.94555 3.49546 1.67598 4.15488 1.66659Z" fill="black"/>
<path fill-rule="evenodd" clip-rule="evenodd" d="M2.50008 6.4165C2.96032 6.4165 3.33341 6.7896 3.33341 7.24984V15.8332C3.33341 16.0542 3.42121 16.2661 3.57749 16.4224C3.73377 16.5787 3.94573 16.6665 4.16675 16.6665H12.7501C13.2103 16.6665 13.5834 17.0396 13.5834 17.4998C13.5834 17.9601 13.2103 18.3332 12.7501 18.3332H4.16675C3.50371 18.3332 2.86782 18.0698 2.39898 17.6009C1.93014 17.1321 1.66675 16.4962 1.66675 15.8332V7.24984C1.66675 6.7896 2.03984 6.4165 2.50008 6.4165Z" fill="black"/>
<path fill-rule="evenodd" clip-rule="evenodd" d="M1.07733 1.07757C1.40277 0.752137 1.9304 0.752137 2.25584 1.07757L18.9225 17.7442C19.2479 18.0697 19.2479 18.5973 18.9225 18.9228C18.5971 19.2482 18.0694 19.2482 17.744 18.9228L1.07733 2.25609C0.751893 1.93065 0.751893 1.40301 1.07733 1.07757Z" fill="black"/>
<path fill-rule="evenodd" clip-rule="evenodd" d="M6.66675 5.83333C6.66675 5.3731 7.03984 5 7.50008 5H10.8334C11.7175 5 12.5653 5.35119 13.1904 5.97631C13.8156 6.60143 14.1667 7.44928 14.1667 8.33333C14.1667 9.21739 13.8156 10.0652 13.1904 10.6904C12.5653 11.3155 11.7175 11.6667 10.8334 11.6667C10.3732 11.6667 10.0001 11.2936 10.0001 10.8333C10.0001 10.3731 10.3732 10 10.8334 10C11.2754 10 11.6994 9.82441 12.0119 9.51184C12.3245 9.19928 12.5001 8.77536 12.5001 8.33333C12.5001 7.89131 12.3245 7.46738 12.0119 7.15482C11.6994 6.84226 11.2754 6.66667 10.8334 6.66667H8.33341V7.5C8.33341 7.96024 7.96032 8.33333 7.50008 8.33333C7.03984 8.33333 6.66675 7.96024 6.66675 7.5V5.83333Z" fill="black"/>
<path fill-rule="evenodd" clip-rule="evenodd" d="M7.50008 11.4165C7.96032 11.4165 8.33341 11.7896 8.33341 12.2498V14.1665C8.33341 14.6267 7.96032 14.9998 7.50008 14.9998C7.03984 14.9998 6.66675 14.6267 6.66675 14.1665V12.2498C6.66675 11.7896 7.03984 11.4165 7.50008 11.4165Z" fill="black"/>
</g>
<defs>
<clipPath id="clip0_2001_10267">
<rect width="20" height="20" fill="white"/>
</clipPath>
</defs>
</svg>
