<svg width="20" height="20" viewBox="0 0 20 20" fill="none" xmlns="http://www.w3.org/2000/svg">
<path fill-rule="evenodd" clip-rule="evenodd" d="M11.1484 11.1484L13.2886 16.6519L13.8239 14.9247C13.8239 14.9246 13.8239 14.9245 13.824 14.9244C13.824 14.9243 13.824 14.9242 13.824 14.9242C13.9041 14.6654 14.0461 14.4301 14.2377 14.2385C14.4293 14.0469 14.6647 13.9049 14.9236 13.8248C14.9237 13.8248 14.9238 13.8247 14.9239 13.8247L16.6522 13.2887L11.1484 11.1484ZM10.8719 9.25261C10.6464 9.16363 10.3997 9.14226 10.1621 9.19117C9.92309 9.24039 9.70372 9.35859 9.53116 9.53116C9.35859 9.70372 9.24039 9.92309 9.19117 10.1621C9.14226 10.3997 9.16363 10.6464 9.25261 10.8719L12.1688 18.3708C12.2631 18.612 12.43 18.818 12.6464 18.9603C12.8628 19.1026 13.118 19.1742 13.3768 19.1651C13.6357 19.1561 13.8853 19.0668 14.0912 18.9098C14.2971 18.7527 14.4492 18.5355 14.5263 18.2883L14.5268 18.2867L15.416 15.4175L15.4162 15.417L18.2883 14.5263C18.5355 14.4492 18.7527 14.2971 18.9098 14.0912C19.0668 13.8853 19.1561 13.6357 19.1651 13.3768C19.1742 13.118 19.1026 12.8628 18.9603 12.6464C18.818 12.43 18.612 12.2631 18.3708 12.1688L10.8719 9.25261Z" fill="black"/>
<path fill-rule="evenodd" clip-rule="evenodd" d="M2.39898 2.39874C2.86782 1.9299 3.50371 1.6665 4.16675 1.6665H15.8334C16.4965 1.6665 17.1323 1.9299 17.6012 2.39874C18.07 2.86758 18.3334 3.50346 18.3334 4.1665V9.1665C18.3334 9.62674 17.9603 9.99984 17.5001 9.99984C17.0398 9.99984 16.6667 9.62674 16.6667 9.1665V4.1665C16.6667 3.94549 16.5789 3.73353 16.4227 3.57725C16.2664 3.42097 16.0544 3.33317 15.8334 3.33317H4.16675C3.94573 3.33317 3.73377 3.42097 3.57749 3.57725C3.42121 3.73353 3.33341 3.94549 3.33341 4.1665V15.8332C3.33341 16.0542 3.42121 16.2661 3.57749 16.4224C3.73377 16.5787 3.94573 16.6665 4.16675 16.6665H9.16675C9.62698 16.6665 10.0001 17.0396 10.0001 17.4998C10.0001 17.9601 9.62698 18.3332 9.16675 18.3332H4.16675C3.50371 18.3332 2.86782 18.0698 2.39898 17.6009C1.93014 17.1321 1.66675 16.4962 1.66675 15.8332V4.1665C1.66675 3.50346 1.93014 2.86758 2.39898 2.39874Z" fill="black"/>
</svg>
