<svg width="20" height="20" viewBox="0 0 20 20" fill="none" xmlns="http://www.w3.org/2000/svg">
<path fill-rule="evenodd" clip-rule="evenodd" d="M4.16675 3.33317C3.70651 3.33317 3.33341 3.70627 3.33341 4.1665V15.8332C3.33341 16.2934 3.70651 16.6665 4.16675 16.6665H15.8334C16.2937 16.6665 16.6667 16.2934 16.6667 15.8332V4.1665C16.6667 3.70627 16.2937 3.33317 15.8334 3.33317H4.16675ZM1.66675 4.1665C1.66675 2.78579 2.78604 1.6665 4.16675 1.6665H15.8334C17.2141 1.6665 18.3334 2.78579 18.3334 4.1665V15.8332C18.3334 17.2139 17.2141 18.3332 15.8334 18.3332H4.16675C2.78604 18.3332 1.66675 17.2139 1.66675 15.8332V4.1665Z" fill="black"/>
<path fill-rule="evenodd" clip-rule="evenodd" d="M5.83333 5C6.29357 5 6.66667 5.3731 6.66667 5.83333V14.1667C6.66667 14.6269 6.29357 15 5.83333 15C5.3731 15 5 14.6269 5 14.1667V5.83333C5 5.3731 5.3731 5 5.83333 5Z" fill="black"/>
<path fill-rule="evenodd" clip-rule="evenodd" d="M9.16659 5C9.62682 5 9.99992 5.3731 9.99992 5.83333V14.1667C9.99992 14.6269 9.62682 15 9.16659 15C8.70635 15 8.33325 14.6269 8.33325 14.1667V5.83333C8.33325 5.3731 8.70635 5 9.16659 5Z" fill="black"/>
<path fill-rule="evenodd" clip-rule="evenodd" d="M12.3366 5.01634C12.7879 4.92608 13.2269 5.21876 13.3171 5.67006L14.9838 14.0034C15.0741 14.4547 14.7814 14.8937 14.3301 14.984C13.8788 15.0742 13.4398 14.7816 13.3495 14.3303L11.6828 5.99692C11.5926 5.54562 11.8853 5.1066 12.3366 5.01634Z" fill="black"/>
</svg>
