<svg width="20" height="20" viewBox="0 0 20 20" fill="none" xmlns="http://www.w3.org/2000/svg">
<path fill-rule="evenodd" clip-rule="evenodd" d="M4.16675 3.33317C3.70651 3.33317 3.33341 3.70627 3.33341 4.1665V15.8332C3.33341 16.2934 3.70651 16.6665 4.16675 16.6665H15.8334C16.2937 16.6665 16.6667 16.2934 16.6667 15.8332V4.1665C16.6667 3.70627 16.2937 3.33317 15.8334 3.33317H4.16675ZM1.66675 4.1665C1.66675 2.78579 2.78604 1.6665 4.16675 1.6665H15.8334C17.2141 1.6665 18.3334 2.78579 18.3334 4.1665V15.8332C18.3334 17.2139 17.2141 18.3332 15.8334 18.3332H4.16675C2.78604 18.3332 1.66675 17.2139 1.66675 15.8332V4.1665Z" fill="black"/>
<path fill-rule="evenodd" clip-rule="evenodd" d="M6.66675 5.83333C6.66675 5.3731 7.03984 5 7.50008 5H10.8334C11.7175 5 12.5653 5.35119 13.1904 5.97631C13.8156 6.60143 14.1667 7.44928 14.1667 8.33333C14.1667 9.21739 13.8156 10.0652 13.1904 10.6904C12.5653 11.3155 11.7175 11.6667 10.8334 11.6667H8.33341V14.1667C8.33341 14.6269 7.96032 15 7.50008 15C7.03984 15 6.66675 14.6269 6.66675 14.1667V5.83333ZM8.33341 10H10.8334C11.2754 10 11.6994 9.82441 12.0119 9.51185C12.3245 9.19929 12.5001 8.77536 12.5001 8.33333C12.5001 7.89131 12.3245 7.46738 12.0119 7.15482C11.6994 6.84226 11.2754 6.66667 10.8334 6.66667H8.33341V10Z" fill="black"/>
</svg>
