<svg width="20" height="20" viewBox="0 0 20 20" fill="none" xmlns="http://www.w3.org/2000/svg">
<path fill-rule="evenodd" clip-rule="evenodd" d="M4.16675 3.33317C3.70651 3.33317 3.33341 3.70627 3.33341 4.1665V15.8332C3.33341 16.2934 3.70651 16.6665 4.16675 16.6665H15.8334C16.2937 16.6665 16.6667 16.2934 16.6667 15.8332V4.1665C16.6667 3.70627 16.2937 3.33317 15.8334 3.33317H4.16675ZM1.66675 4.1665C1.66675 2.78579 2.78604 1.6665 4.16675 1.6665H15.8334C17.2141 1.6665 18.3334 2.78579 18.3334 4.1665V15.8332C18.3334 17.2139 17.2141 18.3332 15.8334 18.3332H4.16675C2.78604 18.3332 1.66675 17.2139 1.66675 15.8332V4.1665Z" fill="black"/>
<path fill-rule="evenodd" clip-rule="evenodd" d="M6.34768 5.89695C6.65908 5.76797 7.01751 5.83927 7.25584 6.0776L9.99992 8.82168L12.744 6.0776C12.9823 5.83927 13.3408 5.76797 13.6522 5.89695C13.9635 6.02594 14.1666 6.3298 14.1666 6.66685V13.3335C14.1666 13.7938 13.7935 14.1669 13.3333 14.1669C12.873 14.1669 12.4999 13.7938 12.4999 13.3335V8.6787L10.5892 10.5894C10.2637 10.9149 9.7361 10.9149 9.41066 10.5894L7.49992 8.6787V13.3335C7.49992 13.7938 7.12682 14.1669 6.66659 14.1669C6.20635 14.1669 5.83325 13.7938 5.83325 13.3335V6.66685C5.83325 6.3298 6.03629 6.02594 6.34768 5.89695Z" fill="black"/>
</svg>
