<svg width="20" height="20" viewBox="0 0 20 20" fill="none" xmlns="http://www.w3.org/2000/svg">
<path fill-rule="evenodd" clip-rule="evenodd" d="M2.39898 2.39874C2.86782 1.9299 3.50371 1.6665 4.16675 1.6665H10.0001C10.4603 1.6665 10.8334 2.0396 10.8334 2.49984C10.8334 2.96007 10.4603 3.33317 10.0001 3.33317H4.16675C3.94573 3.33317 3.73377 3.42097 3.57749 3.57725C3.42121 3.73353 3.33341 3.94549 3.33341 4.1665V15.8332C3.33341 16.0542 3.42121 16.2661 3.57749 16.4224C3.73377 16.5787 3.94573 16.6665 4.16675 16.6665H15.8334C16.0544 16.6665 16.2664 16.5787 16.4227 16.4224C16.5789 16.2661 16.6667 16.0542 16.6667 15.8332V9.99984C16.6667 9.5396 17.0398 9.1665 17.5001 9.1665C17.9603 9.1665 18.3334 9.5396 18.3334 9.99984V15.8332C18.3334 16.4962 18.07 17.1321 17.6012 17.6009C17.1323 18.0698 16.4965 18.3332 15.8334 18.3332H4.16675C3.50371 18.3332 2.86782 18.0698 2.39898 17.6009C1.93014 17.1321 1.66675 16.4962 1.66675 15.8332V4.1665C1.66675 3.50346 1.93014 2.86758 2.39898 2.39874Z" fill="black"/>
<path fill-rule="evenodd" clip-rule="evenodd" d="M15.9019 2.77675C15.9019 2.77676 15.9018 2.77677 15.9018 2.77678L8.39049 10.289C8.29164 10.3876 8.21918 10.5096 8.17977 10.6436C8.17973 10.6437 8.1797 10.6438 8.17966 10.644L7.69356 12.3065L9.35705 11.8202L9.35733 11.8201C9.49145 11.7809 9.61357 11.7087 9.71246 11.61C9.71248 11.6099 9.71251 11.6099 9.71253 11.6099C9.7126 11.6098 9.71267 11.6098 9.71274 11.6097L17.2233 4.09827C17.3986 3.92303 17.497 3.68535 17.497 3.43753C17.497 3.1897 17.3986 2.95202 17.2233 2.77678C17.0481 2.60154 16.8104 2.50309 16.5626 2.50309C16.3148 2.50309 16.0771 2.60153 15.9019 2.77675ZM14.7233 1.59827C15.2111 1.11047 15.8727 0.836426 16.5626 0.836426C17.2524 0.836426 17.914 1.11047 18.4018 1.59827C18.8896 2.08607 19.1637 2.74767 19.1637 3.43753C19.1637 4.12737 18.8896 4.78895 18.4019 5.27675C18.4019 5.27676 18.4018 5.27677 18.4018 5.27678L10.8907 12.7887C10.594 13.0852 10.2274 13.3022 9.82477 13.4199C9.82468 13.4199 9.82459 13.4199 9.8245 13.42L7.43008 14.12C7.21495 14.1828 6.98692 14.1865 6.76985 14.1309C6.55278 14.0753 6.35465 13.9624 6.19619 13.8039C6.03774 13.6455 5.9248 13.4473 5.86919 13.2303C5.81357 13.0132 5.81733 12.7851 5.88008 12.57L6.5805 10.1744C6.69864 9.77206 6.9161 9.40587 7.21285 9.10957C7.2129 9.10953 7.21295 9.10948 7.213 9.10943L14.7233 1.5983L14.7233 1.59827Z" fill="black"/>
</svg>
