<svg width="20" height="20" viewBox="0 0 20 20" fill="none" xmlns="http://www.w3.org/2000/svg">
<path fill-rule="evenodd" clip-rule="evenodd" d="M4.16675 3.33317C3.70651 3.33317 3.33341 3.70627 3.33341 4.1665V15.8332C3.33341 16.2934 3.70651 16.6665 4.16675 16.6665H15.8334C16.2937 16.6665 16.6667 16.2934 16.6667 15.8332V4.1665C16.6667 3.70627 16.2937 3.33317 15.8334 3.33317H4.16675ZM1.66675 4.1665C1.66675 2.78579 2.78604 1.6665 4.16675 1.6665H15.8334C17.2141 1.6665 18.3334 2.78579 18.3334 4.1665V15.8332C18.3334 17.2139 17.2141 18.3332 15.8334 18.3332H4.16675C2.78604 18.3332 1.66675 17.2139 1.66675 15.8332V4.1665Z" fill="black"/>
<path fill-rule="evenodd" clip-rule="evenodd" d="M12.2559 6.07757C12.5814 6.40301 12.5814 6.93065 12.2559 7.25609L9.51184 10.0002L12.2559 12.7442C12.5814 13.0697 12.5814 13.5973 12.2559 13.9228C11.9305 14.2482 11.4028 14.2482 11.0774 13.9228L7.74408 10.5894C7.41864 10.264 7.41864 9.73634 7.74408 9.41091L11.0774 6.07757C11.4028 5.75214 11.9305 5.75214 12.2559 6.07757Z" fill="black"/>
</svg>
