<svg width="20" height="20" viewBox="0 0 20 20" fill="none" xmlns="http://www.w3.org/2000/svg">
<path fill-rule="evenodd" clip-rule="evenodd" d="M4.16675 3.33317C3.70651 3.33317 3.33341 3.70627 3.33341 4.1665V15.8332C3.33341 16.2934 3.70651 16.6665 4.16675 16.6665H15.8334C16.2937 16.6665 16.6667 16.2934 16.6667 15.8332V4.1665C16.6667 3.70627 16.2937 3.33317 15.8334 3.33317H4.16675ZM1.66675 4.1665C1.66675 2.78579 2.78604 1.6665 4.16675 1.6665H15.8334C17.2141 1.6665 18.3334 2.78579 18.3334 4.1665V15.8332C18.3334 17.2139 17.2141 18.3332 15.8334 18.3332H4.16675C2.78604 18.3332 1.66675 17.2139 1.66675 15.8332V4.1665Z" fill="black"/>
<path fill-rule="evenodd" clip-rule="evenodd" d="M7.91667 6.66667C7.58515 6.66667 7.2672 6.79836 7.03278 7.03278C6.79836 7.2672 6.66667 7.58515 6.66667 7.91667C6.66667 8.24819 6.79836 8.56613 7.03278 8.80055C7.2672 9.03497 7.58515 9.16667 7.91667 9.16667H10C10.4602 9.16667 10.8333 9.53976 10.8333 10C10.8333 10.4602 10.4602 10.8333 10 10.8333H7.91667C7.14312 10.8333 6.40125 10.526 5.85427 9.97906C5.30729 9.43208 5 8.69021 5 7.91667C5 7.14312 5.30729 6.40125 5.85427 5.85427C6.40125 5.30729 7.14312 5 7.91667 5H14.1667C14.6269 5 15 5.3731 15 5.83333C15 6.29357 14.6269 6.66667 14.1667 6.66667H7.91667Z" fill="black"/>
<path fill-rule="evenodd" clip-rule="evenodd" d="M10.0001 5C10.4603 5 10.8334 5.3731 10.8334 5.83333V14.1667C10.8334 14.6269 10.4603 15 10.0001 15C9.53984 15 9.16675 14.6269 9.16675 14.1667V5.83333C9.16675 5.3731 9.53984 5 10.0001 5Z" fill="black"/>
<path fill-rule="evenodd" clip-rule="evenodd" d="M13.3333 5C13.7936 5 14.1667 5.3731 14.1667 5.83333V14.1667C14.1667 14.6269 13.7936 15 13.3333 15C12.8731 15 12.5 14.6269 12.5 14.1667V5.83333C12.5 5.3731 12.8731 5 13.3333 5Z" fill="black"/>
</svg>
