<svg width="20" height="20" viewBox="0 0 20 20" fill="none" xmlns="http://www.w3.org/2000/svg">
<path fill-rule="evenodd" clip-rule="evenodd" d="M4.16675 3.33317C3.70651 3.33317 3.33341 3.70627 3.33341 4.1665V15.8332C3.33341 16.2934 3.70651 16.6665 4.16675 16.6665H15.8334C16.2937 16.6665 16.6667 16.2934 16.6667 15.8332V4.1665C16.6667 3.70627 16.2937 3.33317 15.8334 3.33317H4.16675ZM1.66675 4.1665C1.66675 2.78579 2.78604 1.6665 4.16675 1.6665H15.8334C17.2141 1.6665 18.3334 2.78579 18.3334 4.1665V15.8332C18.3334 17.2139 17.2141 18.3332 15.8334 18.3332H4.16675C2.78604 18.3332 1.66675 17.2139 1.66675 15.8332V4.1665Z" fill="black"/>
<path fill-rule="evenodd" clip-rule="evenodd" d="M11.0754 6.94665C10.8475 7.18002 10.6667 7.61824 10.6667 8.33312V11.8331C10.6667 12.6883 10.4788 13.521 9.89671 14.1354C9.30636 14.7586 8.46146 14.9998 7.50008 14.9998C7.03984 14.9998 6.66675 14.6267 6.66675 14.1665C6.66675 13.7062 7.03984 13.3331 7.50008 13.3331C8.20537 13.3331 8.52714 13.1577 8.68679 12.9892C8.85473 12.8119 9.00008 12.4779 9.00008 11.8331V8.33312C9.00008 7.38132 9.23604 6.44455 9.8831 5.78208C10.5557 5.09344 11.516 4.85788 12.6127 5.00742C13.0687 5.06961 13.388 5.48969 13.3258 5.94571C13.2636 6.40173 12.8435 6.72099 12.3875 6.65881C11.6508 6.55836 11.2778 6.73946 11.0754 6.94665Z" fill="black"/>
<path fill-rule="evenodd" clip-rule="evenodd" d="M6.66675 9.33333C6.66675 8.8731 7.03984 8.5 7.50008 8.5H12.2501C12.7103 8.5 13.0834 8.8731 13.0834 9.33333C13.0834 9.79357 12.7103 10.1667 12.2501 10.1667H7.50008C7.03984 10.1667 6.66675 9.79357 6.66675 9.33333Z" fill="black"/>
</svg>
