<svg width="20" height="20" viewBox="0 0 20 20" fill="none" xmlns="http://www.w3.org/2000/svg">
<path fill-rule="evenodd" clip-rule="evenodd" d="M8.85383 7.26614C9.21322 7.55364 9.27148 8.07805 8.98398 8.43744L7.73377 10.0002L8.98398 11.5629C9.27148 11.9223 9.21322 12.4467 8.85383 12.7343C8.49445 13.0218 7.97004 12.9635 7.68253 12.6041L6.01586 10.5208C5.77238 10.2164 5.77238 9.78396 6.01586 9.47961L7.68253 7.39628C7.97004 7.0369 8.49445 6.97863 8.85383 7.26614Z" fill="black"/>
<path fill-rule="evenodd" clip-rule="evenodd" d="M11.146 7.26614C11.5054 6.97863 12.0298 7.0369 12.3173 7.39628L13.984 9.47961C14.2275 9.78396 14.2275 10.2164 13.984 10.5208L12.3173 12.6041C12.0298 12.9635 11.5054 13.0218 11.146 12.7343C10.7867 12.4467 10.7284 11.9223 11.0159 11.5629L12.2661 10.0002L11.0159 8.43744C10.7284 8.07805 10.7867 7.55364 11.146 7.26614Z" fill="black"/>
<path fill-rule="evenodd" clip-rule="evenodd" d="M4.16675 3.33317C3.70651 3.33317 3.33341 3.70627 3.33341 4.1665V15.8332C3.33341 16.2934 3.70651 16.6665 4.16675 16.6665H15.8334C16.2937 16.6665 16.6667 16.2934 16.6667 15.8332V4.1665C16.6667 3.70627 16.2937 3.33317 15.8334 3.33317H4.16675ZM1.66675 4.1665C1.66675 2.78579 2.78604 1.6665 4.16675 1.6665H15.8334C17.2141 1.6665 18.3334 2.78579 18.3334 4.1665V15.8332C18.3334 17.2139 17.2141 18.3332 15.8334 18.3332H4.16675C2.78604 18.3332 1.66675 17.2139 1.66675 15.8332V4.1665Z" fill="black"/>
</svg>
