<svg width="20" height="20" viewBox="0 0 20 20" fill="none" xmlns="http://www.w3.org/2000/svg">
<path fill-rule="evenodd" clip-rule="evenodd" d="M4.16675 3.33317C3.70651 3.33317 3.33341 3.70627 3.33341 4.1665V15.8332C3.33341 16.2934 3.70651 16.6665 4.16675 16.6665H15.8334C16.2937 16.6665 16.6667 16.2934 16.6667 15.8332V4.1665C16.6667 3.70627 16.2937 3.33317 15.8334 3.33317H4.16675ZM1.66675 4.1665C1.66675 2.78579 2.78604 1.6665 4.16675 1.6665H15.8334C17.2141 1.6665 18.3334 2.78579 18.3334 4.1665V15.8332C18.3334 17.2139 17.2141 18.3332 15.8334 18.3332H4.16675C2.78604 18.3332 1.66675 17.2139 1.66675 15.8332V4.1665Z" fill="black"/>
<path fill-rule="evenodd" clip-rule="evenodd" d="M6.66659 5C7.12682 5 7.49992 5.3731 7.49992 5.83333V11.6667C7.49992 12.1269 7.12682 12.5 6.66659 12.5C6.20635 12.5 5.83325 12.1269 5.83325 11.6667V5.83333C5.83325 5.3731 6.20635 5 6.66659 5Z" fill="black"/>
<path fill-rule="evenodd" clip-rule="evenodd" d="M10.0001 5C10.4603 5 10.8334 5.3731 10.8334 5.83333V9.16667C10.8334 9.6269 10.4603 10 10.0001 10C9.53984 10 9.16675 9.6269 9.16675 9.16667V5.83333C9.16675 5.3731 9.53984 5 10.0001 5Z" fill="black"/>
<path fill-rule="evenodd" clip-rule="evenodd" d="M13.3333 5C13.7936 5 14.1667 5.3731 14.1667 5.83333V13.3333C14.1667 13.7936 13.7936 14.1667 13.3333 14.1667C12.8731 14.1667 12.5 13.7936 12.5 13.3333V5.83333C12.5 5.3731 12.8731 5 13.3333 5Z" fill="black"/>
</svg>
