<svg width="20" height="20" viewBox="0 0 20 20" fill="none" xmlns="http://www.w3.org/2000/svg">
<path fill-rule="evenodd" clip-rule="evenodd" d="M2.39898 2.39874C2.86782 1.9299 3.50371 1.6665 4.16675 1.6665H15.8334C16.4965 1.6665 17.1323 1.9299 17.6012 2.39874C18.07 2.86758 18.3334 3.50346 18.3334 4.1665V9.1665C18.3334 9.62674 17.9603 9.99984 17.5001 9.99984C17.0398 9.99984 16.6667 9.62674 16.6667 9.1665V4.1665C16.6667 3.94549 16.5789 3.73353 16.4227 3.57725C16.2664 3.42097 16.0544 3.33317 15.8334 3.33317H4.16675C3.94573 3.33317 3.73377 3.42097 3.57749 3.57725C3.42121 3.73353 3.33341 3.94549 3.33341 4.1665V15.8332C3.33341 16.0542 3.42121 16.2661 3.57749 16.4224C3.73377 16.5787 3.94573 16.6665 4.16675 16.6665H9.16675C9.62698 16.6665 10.0001 17.0396 10.0001 17.4998C10.0001 17.9601 9.62698 18.3332 9.16675 18.3332H4.16675C3.50371 18.3332 2.86782 18.0698 2.39898 17.6009C1.93014 17.1321 1.66675 16.4962 1.66675 15.8332V4.1665C1.66675 3.50346 1.93014 2.86758 2.39898 2.39874Z" fill="black"/>
<path fill-rule="evenodd" clip-rule="evenodd" d="M9.41083 9.41058C9.73626 9.08514 10.2639 9.08514 10.5893 9.41058L18.0893 16.9106C18.4148 17.236 18.4148 17.7637 18.0893 18.0891C17.7639 18.4145 17.2363 18.4145 16.9108 18.0891L9.41083 10.5891C9.08539 10.2637 9.08539 9.73602 9.41083 9.41058Z" fill="black"/>
<path fill-rule="evenodd" clip-rule="evenodd" d="M17.5001 11.6665C17.9603 11.6665 18.3334 12.0396 18.3334 12.4998V17.4998C18.3334 17.9601 17.9603 18.3332 17.5001 18.3332H12.5001C12.0398 18.3332 11.6667 17.9601 11.6667 17.4998C11.6667 17.0396 12.0398 16.6665 12.5001 16.6665H16.6667V12.4998C16.6667 12.0396 17.0398 11.6665 17.5001 11.6665Z" fill="black"/>
</svg>
