<svg width="20" height="20" viewBox="0 0 20 20" fill="none" xmlns="http://www.w3.org/2000/svg">
<path fill-rule="evenodd" clip-rule="evenodd" d="M4.16675 3.33317C3.70651 3.33317 3.33341 3.70627 3.33341 4.1665V15.8332C3.33341 16.2934 3.70651 16.6665 4.16675 16.6665H15.8334C16.2937 16.6665 16.6667 16.2934 16.6667 15.8332V4.1665C16.6667 3.70627 16.2937 3.33317 15.8334 3.33317H4.16675ZM1.66675 4.1665C1.66675 2.78579 2.78604 1.6665 4.16675 1.6665H15.8334C17.2141 1.6665 18.3334 2.78579 18.3334 4.1665V15.8332C18.3334 17.2139 17.2141 18.3332 15.8334 18.3332H4.16675C2.78604 18.3332 1.66675 17.2139 1.66675 15.8332V4.1665Z" fill="black"/>
<path fill-rule="evenodd" clip-rule="evenodd" d="M5.91551 5.47234C6.05427 5.18362 6.34626 5 6.66659 5H13.3333C13.7935 5 14.1666 5.3731 14.1666 5.83333V7.41667C14.1666 7.8769 13.7935 8.25 13.3333 8.25C12.873 8.25 12.4999 7.8769 12.4999 7.41667V6.66667H8.40045L10.6507 9.47942C10.8941 9.78377 10.8941 10.2162 10.6507 10.5206L8.40045 13.3333H12.4999V12.5833C12.4999 12.1231 12.873 11.75 13.3333 11.75C13.7935 11.75 14.1666 12.1231 14.1666 12.5833V14.1667C14.1666 14.6269 13.7935 15 13.3333 15H6.66659C6.34626 15 6.05427 14.8164 5.91551 14.5277C5.77674 14.2389 5.81576 13.8962 6.01587 13.6461L8.93274 10L6.01587 6.35391C5.81576 6.10377 5.77674 5.76106 5.91551 5.47234Z" fill="black"/>
</svg>
