<svg width="20" height="20" viewBox="0 0 20 20" fill="none" xmlns="http://www.w3.org/2000/svg">
<g clip-path="url(#clip0_2001_10332)">
<path fill-rule="evenodd" clip-rule="evenodd" d="M3.33325 2.50016C2.87682 2.50016 2.49992 2.87707 2.49992 3.3335V6.66683C2.49992 7.12326 2.87682 7.50016 3.33325 7.50016C3.79349 7.50016 4.16658 7.87326 4.16658 8.3335C4.16658 8.79373 3.79349 9.16683 3.33325 9.16683C1.95635 9.16683 0.833252 8.04373 0.833252 6.66683V3.3335C0.833252 1.95659 1.95635 0.833496 3.33325 0.833496H6.66658C8.04349 0.833496 9.16658 1.95659 9.16658 3.3335C9.16658 3.79373 8.79349 4.16683 8.33325 4.16683C7.87301 4.16683 7.49992 3.79373 7.49992 3.3335C7.49992 2.87707 7.12301 2.50016 6.66658 2.50016H3.33325Z" fill="black"/>
<path fill-rule="evenodd" clip-rule="evenodd" d="M8.33325 7.50016C7.87682 7.50016 7.49992 7.87707 7.49992 8.3335V11.6668C7.49992 12.1233 7.87682 12.5002 8.33325 12.5002C8.79349 12.5002 9.16658 12.8733 9.16658 13.3335C9.16658 13.7937 8.79349 14.1668 8.33325 14.1668C6.95635 14.1668 5.83325 13.0437 5.83325 11.6668V8.3335C5.83325 6.95659 6.95635 5.8335 8.33325 5.8335H11.6666C13.0435 5.8335 14.1666 6.95659 14.1666 8.3335C14.1666 8.79373 13.7935 9.16683 13.3333 9.16683C12.873 9.16683 12.4999 8.79373 12.4999 8.3335C12.4999 7.87707 12.123 7.50016 11.6666 7.50016H8.33325Z" fill="black"/>
<path fill-rule="evenodd" clip-rule="evenodd" d="M13.3333 12.5002C12.873 12.5002 12.4999 12.8733 12.4999 13.3335V16.6668C12.4999 17.1271 12.873 17.5002 13.3333 17.5002H16.6666C17.1268 17.5002 17.4999 17.1271 17.4999 16.6668V13.3335C17.4999 12.8733 17.1268 12.5002 16.6666 12.5002H13.3333ZM10.8333 13.3335C10.8333 11.9528 11.9525 10.8335 13.3333 10.8335H16.6666C18.0473 10.8335 19.1666 11.9528 19.1666 13.3335V16.6668C19.1666 18.0475 18.0473 19.1668 16.6666 19.1668H13.3333C11.9525 19.1668 10.8333 18.0475 10.8333 16.6668V13.3335Z" fill="black"/>
</g>
<defs>
<clipPath id="clip0_2001_10332">
<rect width="20" height="20" fill="white"/>
</clipPath>
</defs>
</svg>
