<svg width="20" height="20" viewBox="0 0 20 20" fill="none" xmlns="http://www.w3.org/2000/svg">
<path fill-rule="evenodd" clip-rule="evenodd" d="M4.16675 3.33317C3.70651 3.33317 3.33341 3.70627 3.33341 4.1665V15.8332C3.33341 16.2934 3.70651 16.6665 4.16675 16.6665H15.8334C16.2937 16.6665 16.6667 16.2934 16.6667 15.8332V4.1665C16.6667 3.70627 16.2937 3.33317 15.8334 3.33317H4.16675ZM1.66675 4.1665C1.66675 2.78579 2.78604 1.6665 4.16675 1.6665H15.8334C17.2141 1.6665 18.3334 2.78579 18.3334 4.1665V15.8332C18.3334 17.2139 17.2141 18.3332 15.8334 18.3332H4.16675C2.78604 18.3332 1.66675 17.2139 1.66675 15.8332V4.1665Z" fill="black"/>
<path fill-rule="evenodd" clip-rule="evenodd" d="M10.0001 6.66667C9.07961 6.66667 8.33341 7.41286 8.33341 8.33333C8.33341 9.25381 9.07961 10 10.0001 10C10.9206 10 11.6667 9.25381 11.6667 8.33333C11.6667 7.41286 10.9206 6.66667 10.0001 6.66667ZM6.66675 8.33333C6.66675 6.49238 8.15913 5 10.0001 5C11.841 5 13.3334 6.49238 13.3334 8.33333C13.3334 10.1743 11.841 11.6667 10.0001 11.6667C8.15913 11.6667 6.66675 10.1743 6.66675 8.33333Z" fill="black"/>
<path fill-rule="evenodd" clip-rule="evenodd" d="M7.5 15.0002C7.27899 15.0002 7.06702 15.088 6.91074 15.2442C6.75446 15.4005 6.66667 15.6125 6.66667 15.8335V17.5002C6.66667 17.9604 6.29357 18.3335 5.83333 18.3335C5.3731 18.3335 5 17.9604 5 17.5002V15.8335C5 15.1705 5.26339 14.5346 5.73223 14.0657C6.20107 13.5969 6.83696 13.3335 7.5 13.3335H12.5C13.163 13.3335 13.7989 13.5969 14.2678 14.0657C14.7366 14.5346 15 15.1705 15 15.8335V17.5002C15 17.9604 14.6269 18.3335 14.1667 18.3335C13.7064 18.3335 13.3333 17.9604 13.3333 17.5002V15.8335C13.3333 15.6125 13.2455 15.4005 13.0893 15.2442C12.933 15.088 12.721 15.0002 12.5 15.0002H7.5Z" fill="black"/>
</svg>
