<svg width="20" height="20" viewBox="0 0 20 20" fill="none" xmlns="http://www.w3.org/2000/svg">
<path fill-rule="evenodd" clip-rule="evenodd" d="M4.16675 3.33317C3.70651 3.33317 3.33341 3.70627 3.33341 4.1665V15.8332C3.33341 16.2934 3.70651 16.6665 4.16675 16.6665H15.8334C16.2937 16.6665 16.6667 16.2934 16.6667 15.8332V4.1665C16.6667 3.70627 16.2937 3.33317 15.8334 3.33317H4.16675ZM1.66675 4.1665C1.66675 2.78579 2.78604 1.6665 4.16675 1.6665H15.8334C17.2141 1.6665 18.3334 2.78579 18.3334 4.1665V15.8332C18.3334 17.2139 17.2141 18.3332 15.8334 18.3332H4.16675C2.78604 18.3332 1.66675 17.2139 1.66675 15.8332V4.1665Z" fill="black"/>
<path fill-rule="evenodd" clip-rule="evenodd" d="M13.0893 6.91058C13.4148 7.23602 13.4148 7.76366 13.0893 8.08909L8.08934 13.0891C7.7639 13.4145 7.23626 13.4145 6.91083 13.0891C6.58539 12.7637 6.58539 12.236 6.91083 11.9106L11.9108 6.91058C12.2363 6.58514 12.7639 6.58514 13.0893 6.91058Z" fill="black"/>
<path fill-rule="evenodd" clip-rule="evenodd" d="M6.66675 7.49984C6.66675 7.0396 7.03984 6.6665 7.50008 6.6665H7.50841C7.96865 6.6665 8.34175 7.0396 8.34175 7.49984C8.34175 7.96007 7.96865 8.33317 7.50841 8.33317H7.50008C7.03984 8.33317 6.66675 7.96007 6.66675 7.49984Z" fill="black"/>
<path fill-rule="evenodd" clip-rule="evenodd" d="M11.6667 12.4998C11.6667 12.0396 12.0398 11.6665 12.5001 11.6665H12.5084C12.9687 11.6665 13.3417 12.0396 13.3417 12.4998C13.3417 12.9601 12.9687 13.3332 12.5084 13.3332H12.5001C12.0398 13.3332 11.6667 12.9601 11.6667 12.4998Z" fill="black"/>
</svg>
