<svg width="20" height="20" viewBox="0 0 20 20" fill="none" xmlns="http://www.w3.org/2000/svg">
<path fill-rule="evenodd" clip-rule="evenodd" d="M5.27667 3.60993C5.08113 3.80547 4.99992 4.02086 4.99992 4.1665V6.6665C4.99992 7.12674 4.62682 7.49984 4.16659 7.49984C3.70635 7.49984 3.33325 7.12674 3.33325 6.6665V4.1665C3.33325 3.47881 3.66871 2.86087 4.09816 2.43141C4.52762 2.00196 5.14556 1.6665 5.83325 1.6665H14.1666C14.8543 1.6665 15.4722 2.00196 15.9017 2.43141C16.3311 2.86087 16.6666 3.47881 16.6666 4.1665V6.6665C16.6666 7.12674 16.2935 7.49984 15.8333 7.49984C15.373 7.49984 14.9999 7.12674 14.9999 6.6665V4.1665C14.9999 4.02086 14.9187 3.80547 14.7232 3.60993C14.5276 3.41438 14.3122 3.33317 14.1666 3.33317H5.83325C5.68761 3.33317 5.47222 3.41438 5.27667 3.60993Z" fill="black"/>
<path fill-rule="evenodd" clip-rule="evenodd" d="M4.16659 12.5C4.62682 12.5 4.99992 12.8731 4.99992 13.3333V15.8333C4.99992 15.979 5.08113 16.1944 5.27667 16.3899C5.47222 16.5855 5.68761 16.6667 5.83325 16.6667H14.1666C14.3122 16.6667 14.5276 16.5855 14.7232 16.3899C14.9187 16.1944 14.9999 15.979 14.9999 15.8333V13.3333C14.9999 12.8731 15.373 12.5 15.8333 12.5C16.2935 12.5 16.6666 12.8731 16.6666 13.3333V15.8333C16.6666 16.521 16.3311 17.139 15.9017 17.5684C15.4722 17.9979 14.8543 18.3333 14.1666 18.3333H5.83325C5.14556 18.3333 4.52762 17.9979 4.09816 17.5684C3.66871 17.139 3.33325 16.521 3.33325 15.8333V13.3333C3.33325 12.8731 3.70635 12.5 4.16659 12.5Z" fill="black"/>
<path fill-rule="evenodd" clip-rule="evenodd" d="M2.5 9.99984C2.5 9.5396 2.8731 9.1665 3.33333 9.1665H16.6667C17.1269 9.1665 17.5 9.5396 17.5 9.99984C17.5 10.4601 17.1269 10.8332 16.6667 10.8332H3.33333C2.8731 10.8332 2.5 10.4601 2.5 9.99984Z" fill="black"/>
</svg>
