<svg width="20" height="20" viewBox="0 0 20 20" fill="none" xmlns="http://www.w3.org/2000/svg">
<path fill-rule="evenodd" clip-rule="evenodd" d="M4.16675 3.33317C3.70651 3.33317 3.33341 3.70627 3.33341 4.1665V15.8332C3.33341 16.2934 3.70651 16.6665 4.16675 16.6665H15.8334C16.2937 16.6665 16.6667 16.2934 16.6667 15.8332V4.1665C16.6667 3.70627 16.2937 3.33317 15.8334 3.33317H4.16675ZM1.66675 4.1665C1.66675 2.78579 2.78604 1.6665 4.16675 1.6665H15.8334C17.2141 1.6665 18.3334 2.78579 18.3334 4.1665V15.8332C18.3334 17.2139 17.2141 18.3332 15.8334 18.3332H4.16675C2.78604 18.3332 1.66675 17.2139 1.66675 15.8332V4.1665Z" fill="black"/>
<path fill-rule="evenodd" clip-rule="evenodd" d="M7.74408 6.07757C8.06951 5.75214 8.59715 5.75214 8.92259 6.07757L12.2559 9.41091C12.5814 9.73634 12.5814 10.264 12.2559 10.5894L8.92259 13.9228C8.59715 14.2482 8.06951 14.2482 7.74408 13.9228C7.41864 13.5973 7.41864 13.0697 7.74408 12.7442L10.4882 10.0002L7.74408 7.25609C7.41864 6.93065 7.41864 6.40301 7.74408 6.07757Z" fill="black"/>
</svg>
