<svg width="20" height="20" viewBox="0 0 20 20" fill="none" xmlns="http://www.w3.org/2000/svg">
<path fill-rule="evenodd" clip-rule="evenodd" d="M4.16675 3.33317C3.70651 3.33317 3.33341 3.70627 3.33341 4.1665V15.8332C3.33341 16.2934 3.70651 16.6665 4.16675 16.6665H15.8334C16.2937 16.6665 16.6667 16.2934 16.6667 15.8332V4.1665C16.6667 3.70627 16.2937 3.33317 15.8334 3.33317H4.16675ZM1.66675 4.1665C1.66675 2.78579 2.78604 1.6665 4.16675 1.6665H15.8334C17.2141 1.6665 18.3334 2.78579 18.3334 4.1665V15.8332C18.3334 17.2139 17.2141 18.3332 15.8334 18.3332H4.16675C2.78604 18.3332 1.66675 17.2139 1.66675 15.8332V4.1665Z" fill="black"/>
<path fill-rule="evenodd" clip-rule="evenodd" d="M6.66675 6.66683C6.66675 6.20659 7.03984 5.8335 7.50008 5.8335H13.3334C13.7937 5.8335 14.1667 6.20659 14.1667 6.66683C14.1667 7.12707 13.7937 7.50016 13.3334 7.50016H7.50008C7.03984 7.50016 6.66675 7.12707 6.66675 6.66683Z" fill="black"/>
<path fill-rule="evenodd" clip-rule="evenodd" d="M5.83325 9.99984C5.83325 9.5396 6.20635 9.1665 6.66659 9.1665H11.6666C12.1268 9.1665 12.4999 9.5396 12.4999 9.99984C12.4999 10.4601 12.1268 10.8332 11.6666 10.8332H6.66659C6.20635 10.8332 5.83325 10.4601 5.83325 9.99984Z" fill="black"/>
<path fill-rule="evenodd" clip-rule="evenodd" d="M8.33325 13.3333C8.33325 12.8731 8.70635 12.5 9.16659 12.5H13.3333C13.7935 12.5 14.1666 12.8731 14.1666 13.3333C14.1666 13.7936 13.7935 14.1667 13.3333 14.1667H9.16659C8.70635 14.1667 8.33325 13.7936 8.33325 13.3333Z" fill="black"/>
</svg>
