<svg width="20" height="20" viewBox="0 0 20 20" fill="none" xmlns="http://www.w3.org/2000/svg">
<path fill-rule="evenodd" clip-rule="evenodd" d="M2.39898 2.39874C2.86782 1.9299 3.50371 1.6665 4.16675 1.6665H15.8334C16.4965 1.6665 17.1323 1.9299 17.6012 2.39874C18.07 2.86758 18.3334 3.50346 18.3334 4.1665V15.8332C18.3334 16.4962 18.07 17.1321 17.6012 17.6009C17.1323 18.0698 16.4965 18.3332 15.8334 18.3332H10.8334C10.3732 18.3332 10.0001 17.9601 10.0001 17.4998C10.0001 17.0396 10.3732 16.6665 10.8334 16.6665H15.8334C16.0544 16.6665 16.2664 16.5787 16.4227 16.4224C16.5789 16.2661 16.6667 16.0542 16.6667 15.8332V4.1665C16.6667 3.94549 16.5789 3.73353 16.4227 3.57725C16.2664 3.42097 16.0544 3.33317 15.8334 3.33317H4.16675C3.94573 3.33317 3.73377 3.42097 3.57749 3.57725C3.42121 3.73353 3.33341 3.94549 3.33341 4.1665V9.1665C3.33341 9.62674 2.96032 9.99984 2.50008 9.99984C2.03984 9.99984 1.66675 9.62674 1.66675 9.1665V4.1665C1.66675 3.50346 1.93014 2.86758 2.39898 2.39874Z" fill="black"/>
<path fill-rule="evenodd" clip-rule="evenodd" d="M10.5893 9.41058C10.9148 9.73602 10.9148 10.2637 10.5893 10.5891L3.08934 18.0891C2.7639 18.4145 2.23626 18.4145 1.91083 18.0891C1.58539 17.7637 1.58539 17.236 1.91083 16.9106L9.41083 9.41058C9.73626 9.08514 10.2639 9.08514 10.5893 9.41058Z" fill="black"/>
<path fill-rule="evenodd" clip-rule="evenodd" d="M2.50008 11.6665C2.96032 11.6665 3.33341 12.0396 3.33341 12.4998V16.6665H7.50008C7.96032 16.6665 8.33341 17.0396 8.33341 17.4998C8.33341 17.9601 7.96032 18.3332 7.50008 18.3332H2.50008C2.03984 18.3332 1.66675 17.9601 1.66675 17.4998V12.4998C1.66675 12.0396 2.03984 11.6665 2.50008 11.6665Z" fill="black"/>
</svg>
