<svg width="20" height="20" viewBox="0 0 20 20" fill="none" xmlns="http://www.w3.org/2000/svg">
<path fill-rule="evenodd" clip-rule="evenodd" d="M4.16675 3.33317C3.70651 3.33317 3.33341 3.70627 3.33341 4.1665V15.8332C3.33341 16.2934 3.70651 16.6665 4.16675 16.6665H15.8334C16.2937 16.6665 16.6667 16.2934 16.6667 15.8332V4.1665C16.6667 3.70627 16.2937 3.33317 15.8334 3.33317H4.16675ZM1.66675 4.1665C1.66675 2.78579 2.78604 1.6665 4.16675 1.6665H15.8334C17.2141 1.6665 18.3334 2.78579 18.3334 4.1665V15.8332C18.3334 17.2139 17.2141 18.3332 15.8334 18.3332H4.16675C2.78604 18.3332 1.66675 17.2139 1.66675 15.8332V4.1665Z" fill="black"/>
<path fill-rule="evenodd" clip-rule="evenodd" d="M10.0001 5.8335C10.4603 5.8335 10.8334 6.20659 10.8334 6.66683V13.3335C10.8334 13.7937 10.4603 14.1668 10.0001 14.1668C9.53984 14.1668 9.16675 13.7937 9.16675 13.3335V6.66683C9.16675 6.20659 9.53984 5.8335 10.0001 5.8335Z" fill="black"/>
<path fill-rule="evenodd" clip-rule="evenodd" d="M6.07733 9.41058C6.40277 9.08514 6.9304 9.08514 7.25584 9.41058L9.99992 12.1547L12.744 9.41058C13.0694 9.08514 13.5971 9.08514 13.9225 9.41058C14.2479 9.73602 14.2479 10.2637 13.9225 10.5891L10.5892 13.9224C10.2637 14.2479 9.7361 14.2479 9.41066 13.9224L6.07733 10.5891C5.75189 10.2637 5.75189 9.73602 6.07733 9.41058Z" fill="black"/>
</svg>
