<svg width="20" height="20" viewBox="0 0 20 20" fill="none" xmlns="http://www.w3.org/2000/svg">
<path fill-rule="evenodd" clip-rule="evenodd" d="M4.16675 3.33317C3.70651 3.33317 3.33341 3.70627 3.33341 4.1665V15.8332C3.33341 16.2934 3.70651 16.6665 4.16675 16.6665H15.8334C16.2937 16.6665 16.6667 16.2934 16.6667 15.8332V4.1665C16.6667 3.70627 16.2937 3.33317 15.8334 3.33317H4.16675ZM1.66675 4.1665C1.66675 2.78579 2.78604 1.6665 4.16675 1.6665H15.8334C17.2141 1.6665 18.3334 2.78579 18.3334 4.1665V15.8332C18.3334 17.2139 17.2141 18.3332 15.8334 18.3332H4.16675C2.78604 18.3332 1.66675 17.2139 1.66675 15.8332V4.1665Z" fill="black"/>
<path fill-rule="evenodd" clip-rule="evenodd" d="M9.41066 7.74408C9.7361 7.41864 10.2637 7.41864 10.5892 7.74408L13.9225 11.0774C14.2479 11.4028 14.2479 11.9305 13.9225 12.2559C13.5971 12.5814 13.0694 12.5814 12.744 12.2559L9.99992 9.51184L7.25584 12.2559C6.9304 12.5814 6.40277 12.5814 6.07733 12.2559C5.75189 11.9305 5.75189 11.4028 6.07733 11.0774L9.41066 7.74408Z" fill="black"/>
</svg>
