<svg width="20" height="20" viewBox="0 0 20 20" fill="none" xmlns="http://www.w3.org/2000/svg">
<path fill-rule="evenodd" clip-rule="evenodd" d="M4.16675 3.33317C3.70651 3.33317 3.33341 3.70627 3.33341 4.1665V15.8332C3.33341 16.2934 3.70651 16.6665 4.16675 16.6665H15.8334C16.2937 16.6665 16.6667 16.2934 16.6667 15.8332V4.1665C16.6667 3.70627 16.2937 3.33317 15.8334 3.33317H4.16675ZM1.66675 4.1665C1.66675 2.78579 2.78604 1.6665 4.16675 1.6665H15.8334C17.2141 1.6665 18.3334 2.78579 18.3334 4.1665V15.8332C18.3334 17.2139 17.2141 18.3332 15.8334 18.3332H4.16675C2.78604 18.3332 1.66675 17.2139 1.66675 15.8332V4.1665Z" fill="black"/>
<path fill-rule="evenodd" clip-rule="evenodd" d="M7.10687 5.9321C7.37783 5.78709 7.70662 5.80298 7.96233 5.97346L12.9623 9.30679C13.1942 9.46134 13.3334 9.72154 13.3334 10.0002C13.3334 10.2788 13.1942 10.539 12.9623 10.6935L7.96233 14.0269C7.70662 14.1973 7.37783 14.2132 7.10687 14.0682C6.8359 13.9232 6.66675 13.6408 6.66675 13.3335V6.66683C6.66675 6.3595 6.8359 6.07712 7.10687 5.9321ZM8.33341 8.22393V11.7764L10.9978 10.0002L8.33341 8.22393Z" fill="black"/>
</svg>
