<svg width="20" height="20" viewBox="0 0 20 20" fill="none" xmlns="http://www.w3.org/2000/svg">
<path fill-rule="evenodd" clip-rule="evenodd" d="M4.16675 3.33317C3.70651 3.33317 3.33341 3.70627 3.33341 4.1665V15.8332C3.33341 16.2934 3.70651 16.6665 4.16675 16.6665H15.8334C16.2937 16.6665 16.6667 16.2934 16.6667 15.8332V4.1665C16.6667 3.70627 16.2937 3.33317 15.8334 3.33317H4.16675ZM1.66675 4.1665C1.66675 2.78579 2.78604 1.6665 4.16675 1.6665H15.8334C17.2141 1.6665 18.3334 2.78579 18.3334 4.1665V15.8332C18.3334 17.2139 17.2141 18.3332 15.8334 18.3332H4.16675C2.78604 18.3332 1.66675 17.2139 1.66675 15.8332V4.1665Z" fill="black"/>
<path fill-rule="evenodd" clip-rule="evenodd" d="M13.0893 7.74408C13.4148 8.06951 13.4148 8.59715 13.0893 8.92259L9.756 12.2559C9.43057 12.5814 8.90293 12.5814 8.57749 12.2559L6.91083 10.5893C6.58539 10.2638 6.58539 9.73618 6.91083 9.41074C7.23626 9.08531 7.7639 9.08531 8.08934 9.41074L9.16675 10.4882L11.9108 7.74408C12.2363 7.41864 12.7639 7.41864 13.0893 7.74408Z" fill="black"/>
</svg>
