<svg width="20" height="20" viewBox="0 0 20 20" fill="none" xmlns="http://www.w3.org/2000/svg">
<g clip-path="url(#clip0_2001_10141)">
<path fill-rule="evenodd" clip-rule="evenodd" d="M3.33325 2.50016C3.11224 2.50016 2.90028 2.58796 2.744 2.74424C2.58772 2.90052 2.49992 3.11248 2.49992 3.3335V16.6668C2.49992 16.8878 2.58772 17.0998 2.744 17.2561C2.90028 17.4124 3.11224 17.5002 3.33325 17.5002C3.79349 17.5002 4.16659 17.8733 4.16659 18.3335C4.16659 18.7937 3.79349 19.1668 3.33325 19.1668C2.67021 19.1668 2.03433 18.9034 1.56549 18.4346C1.09664 17.9658 0.833252 17.3299 0.833252 16.6668V3.3335C0.833252 2.67046 1.09664 2.03457 1.56549 1.56573C2.03433 1.09689 2.67021 0.833496 3.33325 0.833496H16.6666C17.3296 0.833496 17.9655 1.09689 18.4344 1.56573C18.9032 2.03457 19.1666 2.67045 19.1666 3.3335V16.6668C19.1666 17.3299 18.9032 17.9658 18.4344 18.4346C17.9655 18.9034 17.3296 19.1668 16.6666 19.1668C16.2063 19.1668 15.8333 18.7937 15.8333 18.3335C15.8333 17.8733 16.2063 17.5002 16.6666 17.5002C16.8876 17.5002 17.0996 17.4124 17.2558 17.2561C17.4121 17.0998 17.4999 16.8878 17.4999 16.6668V3.3335C17.4999 3.11248 17.4121 2.90052 17.2558 2.74424C17.0996 2.58796 16.8876 2.50016 16.6666 2.50016H3.33325Z" fill="black"/>
<path fill-rule="evenodd" clip-rule="evenodd" d="M5.83325 18.3333C5.83325 17.8731 6.20635 17.5 6.66659 17.5H8.33325C8.79349 17.5 9.16658 17.8731 9.16658 18.3333C9.16658 18.7936 8.79349 19.1667 8.33325 19.1667H6.66659C6.20635 19.1667 5.83325 18.7936 5.83325 18.3333Z" fill="black"/>
<path fill-rule="evenodd" clip-rule="evenodd" d="M10.8333 18.3333C10.8333 17.8731 11.2063 17.5 11.6666 17.5H13.3333C13.7935 17.5 14.1666 17.8731 14.1666 18.3333C14.1666 18.7936 13.7935 19.1667 13.3333 19.1667H11.6666C11.2063 19.1667 10.8333 18.7936 10.8333 18.3333Z" fill="black"/>
<path fill-rule="evenodd" clip-rule="evenodd" d="M6.66675 5.83317C6.20651 5.83317 5.83341 6.20627 5.83341 6.6665C5.83341 7.12674 6.20651 7.49984 6.66675 7.49984C7.12699 7.49984 7.50008 7.12674 7.50008 6.6665C7.50008 6.20627 7.12699 5.83317 6.66675 5.83317ZM4.16675 6.6665C4.16675 5.28579 5.28604 4.1665 6.66675 4.1665C8.04746 4.1665 9.16675 5.28579 9.16675 6.6665C9.16675 8.04722 8.04746 9.1665 6.66675 9.1665C5.28604 9.1665 4.16675 8.04722 4.16675 6.6665Z" fill="black"/>
<path fill-rule="evenodd" clip-rule="evenodd" d="M7.25555 7.2558C7.58099 6.93036 8.10863 6.93036 8.43406 7.2558L10.5891 9.4108C10.9145 9.73623 10.9145 10.2639 10.5891 10.5893C10.2636 10.9147 9.73599 10.9147 9.41055 10.5893L7.25555 8.43431C6.93012 8.10887 6.93012 7.58123 7.25555 7.2558Z" fill="black"/>
<path fill-rule="evenodd" clip-rule="evenodd" d="M11.7441 11.7441C12.0695 11.4186 12.5972 11.4186 12.9226 11.7441L15.5893 14.4107C15.9147 14.7362 15.9147 15.2638 15.5893 15.5893C15.2638 15.9147 14.7362 15.9147 14.4107 15.5893L11.7441 12.9226C11.4186 12.5972 11.4186 12.0695 11.7441 11.7441Z" fill="black"/>
<path fill-rule="evenodd" clip-rule="evenodd" d="M6.66675 12.5002C6.20651 12.5002 5.83341 12.8733 5.83341 13.3335C5.83341 13.7937 6.20651 14.1668 6.66675 14.1668C7.12699 14.1668 7.50008 13.7937 7.50008 13.3335C7.50008 12.8733 7.12699 12.5002 6.66675 12.5002ZM4.16675 13.3335C4.16675 11.9528 5.28604 10.8335 6.66675 10.8335C8.04746 10.8335 9.16675 11.9528 9.16675 13.3335C9.16675 14.7142 8.04746 15.8335 6.66675 15.8335C5.28604 15.8335 4.16675 14.7142 4.16675 13.3335Z" fill="black"/>
<path fill-rule="evenodd" clip-rule="evenodd" d="M15.5891 4.41058C15.9145 4.73602 15.9145 5.26366 15.5891 5.58909L8.43406 12.7441C8.10863 13.0695 7.58099 13.0695 7.25555 12.7441C6.93012 12.4187 6.93012 11.891 7.25555 11.5656L14.4106 4.41058C14.736 4.08514 15.2636 4.08514 15.5891 4.41058Z" fill="black"/>
</g>
<defs>
<clipPath id="clip0_2001_10141">
<rect width="20" height="20" fill="white"/>
</clipPath>
</defs>
</svg>
