<svg width="20" height="20" viewBox="0 0 20 20" fill="none" xmlns="http://www.w3.org/2000/svg">
<path fill-rule="evenodd" clip-rule="evenodd" d="M4.16675 3.33317C3.70651 3.33317 3.33341 3.70627 3.33341 4.1665V15.8332C3.33341 16.2934 3.70651 16.6665 4.16675 16.6665H15.8334C16.2937 16.6665 16.6667 16.2934 16.6667 15.8332V4.1665C16.6667 3.70627 16.2937 3.33317 15.8334 3.33317H4.16675ZM1.66675 4.1665C1.66675 2.78579 2.78604 1.6665 4.16675 1.6665H15.8334C17.2141 1.6665 18.3334 2.78579 18.3334 4.1665V15.8332C18.3334 17.2139 17.2141 18.3332 15.8334 18.3332H4.16675C2.78604 18.3332 1.66675 17.2139 1.66675 15.8332V4.1665Z" fill="black"/>
<path fill-rule="evenodd" clip-rule="evenodd" d="M5 6.66683C5 6.20659 5.3731 5.8335 5.83333 5.8335H14.1667C14.6269 5.8335 15 6.20659 15 6.66683C15 7.12707 14.6269 7.50016 14.1667 7.50016H5.83333C5.3731 7.50016 5 7.12707 5 6.66683Z" fill="black"/>
<path fill-rule="evenodd" clip-rule="evenodd" d="M5 9.99984C5 9.5396 5.3731 9.1665 5.83333 9.1665H14.1667C14.6269 9.1665 15 9.5396 15 9.99984C15 10.4601 14.6269 10.8332 14.1667 10.8332H5.83333C5.3731 10.8332 5 10.4601 5 9.99984Z" fill="black"/>
<path fill-rule="evenodd" clip-rule="evenodd" d="M5 13.3333C5 12.8731 5.3731 12.5 5.83333 12.5H14.1667C14.6269 12.5 15 12.8731 15 13.3333C15 13.7936 14.6269 14.1667 14.1667 14.1667H5.83333C5.3731 14.1667 5 13.7936 5 13.3333Z" fill="black"/>
</svg>
