<svg width="20" height="20" viewBox="0 0 20 20" fill="none" xmlns="http://www.w3.org/2000/svg">
<path fill-rule="evenodd" clip-rule="evenodd" d="M8.85383 7.26614C9.21322 7.55364 9.27148 8.07805 8.98398 8.43744L7.73377 10.0002L8.98398 11.5629C9.27148 11.9223 9.21322 12.4467 8.85383 12.7343C8.49445 13.0218 7.97004 12.9635 7.68253 12.6041L6.01586 10.5208C5.77238 10.2164 5.77238 9.78396 6.01586 9.47961L7.68253 7.39628C7.97004 7.0369 8.49445 6.97863 8.85383 7.26614Z" fill="black"/>
<path fill-rule="evenodd" clip-rule="evenodd" d="M10.8333 17.4998C10.8333 17.0396 11.2063 16.6665 11.6666 16.6665H12.4999C12.9602 16.6665 13.3333 17.0396 13.3333 17.4998C13.3333 17.9601 12.9602 18.3332 12.4999 18.3332H11.6666C11.2063 18.3332 10.8333 17.9601 10.8333 17.4998Z" fill="black"/>
<path fill-rule="evenodd" clip-rule="evenodd" d="M11.146 7.26614C11.5054 6.97863 12.0298 7.0369 12.3173 7.39628L13.984 9.47961C14.2275 9.78396 14.2275 10.2164 13.984 10.5208L12.3173 12.6041C12.0298 12.9635 11.5054 13.0218 11.146 12.7343C10.7867 12.4467 10.7284 11.9223 11.0159 11.5629L12.2661 10.0002L11.0159 8.43744C10.7284 8.07805 10.7867 7.55364 11.146 7.26614Z" fill="black"/>
<path fill-rule="evenodd" clip-rule="evenodd" d="M4.16675 3.33317C3.94573 3.33317 3.73377 3.42097 3.57749 3.57725C3.42121 3.73353 3.33341 3.94549 3.33341 4.1665V15.8332C3.33341 16.0542 3.42121 16.2661 3.57749 16.4224C3.73377 16.5787 3.94573 16.6665 4.16675 16.6665C4.62699 16.6665 5.00008 17.0396 5.00008 17.4998C5.00008 17.9601 4.62699 18.3332 4.16675 18.3332C3.50371 18.3332 2.86782 18.0698 2.39898 17.6009C1.93014 17.1321 1.66675 16.4962 1.66675 15.8332V4.1665C1.66675 3.50346 1.93014 2.86758 2.39898 2.39874C2.86782 1.9299 3.50371 1.6665 4.16675 1.6665H15.8334C16.4965 1.6665 17.1323 1.9299 17.6012 2.39874C18.07 2.86758 18.3334 3.50346 18.3334 4.1665V15.8332C18.3334 16.4962 18.07 17.1321 17.6012 17.6009C17.1323 18.0698 16.4965 18.3332 15.8334 18.3332C15.3732 18.3332 15.0001 17.9601 15.0001 17.4998C15.0001 17.0396 15.3732 16.6665 15.8334 16.6665C16.0544 16.6665 16.2664 16.5787 16.4227 16.4224C16.5789 16.2661 16.6667 16.0542 16.6667 15.8332V4.1665C16.6667 3.94549 16.5789 3.73353 16.4227 3.57725C16.2664 3.42097 16.0544 3.33317 15.8334 3.33317H4.16675Z" fill="black"/>
<path fill-rule="evenodd" clip-rule="evenodd" d="M6.66675 17.4998C6.66675 17.0396 7.03984 16.6665 7.50008 16.6665H8.33341C8.79365 16.6665 9.16675 17.0396 9.16675 17.4998C9.16675 17.9601 8.79365 18.3332 8.33341 18.3332H7.50008C7.03984 18.3332 6.66675 17.9601 6.66675 17.4998Z" fill="black"/>
</svg>
