<svg width="20" height="20" viewBox="0 0 20 20" fill="none" xmlns="http://www.w3.org/2000/svg">
<g clip-path="url(#clip0_2001_10308)">
<path fill-rule="evenodd" clip-rule="evenodd" d="M3.33325 2.50016C2.87301 2.50016 2.49992 2.87326 2.49992 3.3335V16.6668C2.49992 17.1271 2.87301 17.5002 3.33325 17.5002H16.6666C17.1268 17.5002 17.4999 17.1271 17.4999 16.6668V3.3335C17.4999 2.87326 17.1268 2.50016 16.6666 2.50016H3.33325ZM0.833252 3.3335C0.833252 1.95278 1.95254 0.833496 3.33325 0.833496H16.6666C18.0473 0.833496 19.1666 1.95278 19.1666 3.3335V16.6668C19.1666 18.0475 18.0473 19.1668 16.6666 19.1668H3.33325C1.95254 19.1668 0.833252 18.0475 0.833252 16.6668V3.3335Z" fill="black"/>
<path fill-rule="evenodd" clip-rule="evenodd" d="M6.66675 5.83317C6.20651 5.83317 5.83341 6.20627 5.83341 6.6665C5.83341 7.12674 6.20651 7.49984 6.66675 7.49984C7.12699 7.49984 7.50008 7.12674 7.50008 6.6665C7.50008 6.20627 7.12699 5.83317 6.66675 5.83317ZM4.16675 6.6665C4.16675 5.28579 5.28604 4.1665 6.66675 4.1665C8.04746 4.1665 9.16675 5.28579 9.16675 6.6665C9.16675 8.04722 8.04746 9.1665 6.66675 9.1665C5.28604 9.1665 4.16675 8.04722 4.16675 6.6665Z" fill="black"/>
<path fill-rule="evenodd" clip-rule="evenodd" d="M7.2558 7.2558C7.58123 6.93036 8.10887 6.93036 8.43431 7.2558L10.5893 9.4108C10.9147 9.73623 10.9147 10.2639 10.5893 10.5893C10.2639 10.9147 9.73623 10.9147 9.4108 10.5893L7.2558 8.43431C6.93036 8.10887 6.93036 7.58123 7.2558 7.2558Z" fill="black"/>
<path fill-rule="evenodd" clip-rule="evenodd" d="M11.7441 11.7441C12.0695 11.4186 12.5972 11.4186 12.9226 11.7441L15.5893 14.4107C15.9147 14.7362 15.9147 15.2638 15.5893 15.5893C15.2638 15.9147 14.7362 15.9147 14.4107 15.5893L11.7441 12.9226C11.4186 12.5972 11.4186 12.0695 11.7441 11.7441Z" fill="black"/>
<path fill-rule="evenodd" clip-rule="evenodd" d="M6.66675 12.5002C6.20651 12.5002 5.83341 12.8733 5.83341 13.3335C5.83341 13.7937 6.20651 14.1668 6.66675 14.1668C7.12699 14.1668 7.50008 13.7937 7.50008 13.3335C7.50008 12.8733 7.12699 12.5002 6.66675 12.5002ZM4.16675 13.3335C4.16675 11.9528 5.28604 10.8335 6.66675 10.8335C8.04746 10.8335 9.16675 11.9528 9.16675 13.3335C9.16675 14.7142 8.04746 15.8335 6.66675 15.8335C5.28604 15.8335 4.16675 14.7142 4.16675 13.3335Z" fill="black"/>
<path fill-rule="evenodd" clip-rule="evenodd" d="M15.5893 4.41058C15.9147 4.73602 15.9147 5.26366 15.5893 5.58909L8.43431 12.7441C8.10887 13.0695 7.58123 13.0695 7.2558 12.7441C6.93036 12.4187 6.93036 11.891 7.2558 11.5656L14.4108 4.41058C14.7362 4.08514 15.2639 4.08514 15.5893 4.41058Z" fill="black"/>
</g>
<defs>
<clipPath id="clip0_2001_10308">
<rect width="20" height="20" fill="white"/>
</clipPath>
</defs>
</svg>
