<svg width="20" height="20" viewBox="0 0 20 20" fill="none" xmlns="http://www.w3.org/2000/svg">
<path fill-rule="evenodd" clip-rule="evenodd" d="M10.0001 2.49984C10.0001 2.0396 10.3732 1.6665 10.8334 1.6665H15.8334C16.4965 1.6665 17.1323 1.9299 17.6012 2.39874C18.07 2.86758 18.3334 3.50346 18.3334 4.1665V15.8332C18.3334 16.4962 18.07 17.1321 17.6012 17.6009C17.1323 18.0698 16.4965 18.3332 15.8334 18.3332H4.16675C3.50371 18.3332 2.86782 18.0698 2.39898 17.6009C1.93014 17.1321 1.66675 16.4962 1.66675 15.8332V10.8332C1.66675 10.3729 2.03984 9.99984 2.50008 9.99984C2.96032 9.99984 3.33341 10.3729 3.33341 10.8332V15.8332C3.33341 16.0542 3.42121 16.2661 3.57749 16.4224C3.73377 16.5787 3.94573 16.6665 4.16675 16.6665H15.8334C16.0544 16.6665 16.2664 16.5787 16.4227 16.4224C16.5789 16.2661 16.6667 16.0542 16.6667 15.8332V4.1665C16.6667 3.94549 16.5789 3.73353 16.4227 3.57725C16.2664 3.42097 16.0544 3.33317 15.8334 3.33317H10.8334C10.3732 3.33317 10.0001 2.96007 10.0001 2.49984Z" fill="black"/>
<path fill-rule="evenodd" clip-rule="evenodd" d="M1.91083 1.91058C2.23626 1.58514 2.7639 1.58514 3.08934 1.91058L10.5893 9.41058C10.9148 9.73602 10.9148 10.2637 10.5893 10.5891C10.2639 10.9145 9.73626 10.9145 9.41083 10.5891L1.91083 3.08909C1.58539 2.76366 1.58539 2.23602 1.91083 1.91058Z" fill="black"/>
<path fill-rule="evenodd" clip-rule="evenodd" d="M1.66675 2.49984C1.66675 2.0396 2.03984 1.6665 2.50008 1.6665H7.50008C7.96032 1.6665 8.33341 2.0396 8.33341 2.49984C8.33341 2.96007 7.96032 3.33317 7.50008 3.33317H3.33341V7.49984C3.33341 7.96007 2.96032 8.33317 2.50008 8.33317C2.03984 8.33317 1.66675 7.96007 1.66675 7.49984V2.49984Z" fill="black"/>
</svg>
