<svg width="20" height="20" viewBox="0 0 20 20" fill="none" xmlns="http://www.w3.org/2000/svg">
<path fill-rule="evenodd" clip-rule="evenodd" d="M4.16675 3.33317C3.70651 3.33317 3.33341 3.70627 3.33341 4.1665V15.8332C3.33341 16.2934 3.70651 16.6665 4.16675 16.6665H15.8334C16.2937 16.6665 16.6667 16.2934 16.6667 15.8332V4.1665C16.6667 3.70627 16.2937 3.33317 15.8334 3.33317H4.16675ZM1.66675 4.1665C1.66675 2.78579 2.78604 1.6665 4.16675 1.6665H15.8334C17.2141 1.6665 18.3334 2.78579 18.3334 4.1665V15.8332C18.3334 17.2139 17.2141 18.3332 15.8334 18.3332H4.16675C2.78604 18.3332 1.66675 17.2139 1.66675 15.8332V4.1665Z" fill="black"/>
<path fill-rule="evenodd" clip-rule="evenodd" d="M5 5.83333C5 5.3731 5.3731 5 5.83333 5H14.1667C14.6269 5 15 5.3731 15 5.83333C15 6.29357 14.6269 6.66667 14.1667 6.66667H5.83333C5.3731 6.66667 5 6.29357 5 5.83333Z" fill="black"/>
<path fill-rule="evenodd" clip-rule="evenodd" d="M8.33333 5C8.79357 5 9.16667 5.3731 9.16667 5.83333V14.1667C9.16667 14.6269 8.79357 15 8.33333 15C7.8731 15 7.5 14.6269 7.5 14.1667V5.83333C7.5 5.3731 7.8731 5 8.33333 5Z" fill="black"/>
<path fill-rule="evenodd" clip-rule="evenodd" d="M11.6666 5C12.1268 5 12.4999 5.3731 12.4999 5.83333V12.5C12.4999 12.721 12.5877 12.933 12.744 13.0893C12.9003 13.2455 13.1122 13.3333 13.3333 13.3333C13.7935 13.3333 14.1666 13.7064 14.1666 14.1667C14.1666 14.6269 13.7935 15 13.3333 15C12.6702 15 12.0343 14.7366 11.5655 14.2678C11.0966 13.7989 10.8333 13.163 10.8333 12.5V5.83333C10.8333 5.3731 11.2063 5 11.6666 5Z" fill="black"/>
</svg>
