<svg width="20" height="20" viewBox="0 0 20 20" fill="none" xmlns="http://www.w3.org/2000/svg">
<g clip-path="url(#clip0_2001_10356)">
<path fill-rule="evenodd" clip-rule="evenodd" d="M10.0301 14.1569C10.0356 13.6967 10.4131 13.3281 10.8733 13.3336C11.5134 13.3412 12.1377 13.533 12.6717 13.886C13.2057 14.239 13.6267 14.7383 13.8845 15.3242C14.1423 15.9101 14.226 16.5578 14.1255 17.19C14.025 17.8222 13.7446 18.412 13.3178 18.8891C13.0109 19.2321 12.4841 19.2614 12.1411 18.9546C11.7981 18.6477 11.7688 18.1209 12.0756 17.7779C12.289 17.5393 12.4292 17.2444 12.4795 16.9283C12.5297 16.6122 12.4879 16.2884 12.359 15.9954C12.2301 15.7025 12.0196 15.4528 11.7526 15.2763C11.4856 15.0998 11.1734 15.0039 10.8534 15.0001C10.3932 14.9946 10.0246 14.6171 10.0301 14.1569Z" fill="black"/>
<path fill-rule="evenodd" clip-rule="evenodd" d="M15 2.5C15.4602 2.5 15.8333 2.8731 15.8333 3.33333V6.75083C16.6279 6.91303 17.3643 7.30507 17.9463 7.88706C18.7277 8.66846 19.1667 9.72826 19.1667 10.8333V12.5C19.1667 13.163 18.9033 13.7989 18.4344 14.2678C17.9656 14.7366 17.3297 15 16.6667 15H15.8333C15.3913 15 14.9674 15.1756 14.6548 15.4882C14.3423 15.8007 14.1667 16.2246 14.1667 16.6667C14.1667 17.1269 13.7936 17.5 13.3333 17.5C12.8731 17.5 12.5 17.1269 12.5 16.6667C12.5 15.7826 12.8512 14.9348 13.4763 14.3096C14.1014 13.6845 14.9493 13.3333 15.8333 13.3333H16.6667C16.8877 13.3333 17.0996 13.2455 17.2559 13.0893C17.4122 12.933 17.5 12.721 17.5 12.5V10.8333C17.5 10.1703 17.2366 9.53441 16.7678 9.06557C16.2989 8.59673 15.663 8.33333 15 8.33333C14.5398 8.33333 14.1667 7.96024 14.1667 7.5V3.33333C14.1667 2.8731 14.5398 2.5 15 2.5Z" fill="black"/>
<path fill-rule="evenodd" clip-rule="evenodd" d="M14.1667 10.8333C14.1667 10.3731 14.5398 10 15.0001 10H15.0084C15.4687 10 15.8417 10.3731 15.8417 10.8333C15.8417 11.2936 15.4687 11.6667 15.0084 11.6667H15.0001C14.5398 11.6667 14.1667 11.2936 14.1667 10.8333Z" fill="black"/>
<path fill-rule="evenodd" clip-rule="evenodd" d="M3.66262 1.18238C4.2187 0.952047 4.81469 0.833496 5.41659 0.833496C6.01848 0.833496 6.61448 0.952047 7.17055 1.18238C7.72663 1.41272 8.23189 1.75032 8.65749 2.17592C9.08309 2.60152 9.4207 3.10679 9.65103 3.66286C9.88137 4.21894 9.99992 4.81494 9.99992 5.41683C9.99992 6.35289 9.87205 7.13312 9.65677 7.81032C10.0629 7.68191 10.4821 7.59216 10.9088 7.54334C11.0655 6.73232 11.4611 5.97973 12.0536 5.38722C12.835 4.60582 13.8949 4.16683 14.9999 4.16683C15.4602 4.16683 15.8333 4.53993 15.8333 5.00016C15.8333 5.4604 15.4602 5.8335 14.9999 5.8335C14.3369 5.8335 13.701 6.09689 13.2322 6.56573C12.7633 7.03457 12.4999 7.67046 12.4999 8.3335C12.4999 8.79373 12.1268 9.16683 11.6666 9.16683C10.3405 9.16683 9.06873 9.69361 8.13105 10.6313C7.19337 11.569 6.66659 12.8407 6.66659 14.1668C6.66659 14.6271 6.29349 15.0002 5.83325 15.0002C5.37301 15.0002 4.99992 14.6271 4.99992 14.1668C4.99992 11.8505 5.93941 10.6194 6.76918 9.53204C6.79189 9.50228 6.81453 9.47262 6.83706 9.44304C7.2537 8.89621 7.61452 8.4057 7.88309 7.79582C8.14621 7.19833 8.33325 6.45412 8.33325 5.41683C8.33325 5.03381 8.25781 4.65454 8.11123 4.30067C7.96466 3.9468 7.74982 3.62527 7.47898 3.35443C7.20814 3.0836 6.88661 2.86876 6.53275 2.72218C6.17888 2.5756 5.79961 2.50016 5.41659 2.50016C5.03356 2.50016 4.65429 2.5756 4.30043 2.72218C3.94656 2.86876 3.62503 3.0836 3.35419 3.35443C3.08335 3.62527 2.86851 3.9468 2.72194 4.30067C2.57536 4.65454 2.49992 5.03381 2.49992 5.41683C2.49992 5.74835 2.63161 6.06629 2.86604 6.30071C3.10046 6.53513 3.4184 6.66683 3.74992 6.66683C4.08144 6.66683 4.39938 6.53513 4.6338 6.30071C4.86822 6.06629 4.99992 5.74835 4.99992 5.41683C4.99992 4.95659 5.37301 4.5835 5.83325 4.5835C6.29349 4.5835 6.66659 4.95659 6.66659 5.41683C6.66659 6.96852 5.86633 8.0758 5.16068 9.05218C5.05416 9.19957 4.9498 9.34397 4.85067 9.48647C4.07282 10.6046 3.33325 11.8977 3.33325 14.1668C3.33325 16.0399 4.79349 17.5002 6.66659 17.5002H14.9999C15.4602 17.5002 15.8333 17.8733 15.8333 18.3335C15.8333 18.7937 15.4602 19.1668 14.9999 19.1668H6.66659C3.87301 19.1668 1.66659 16.9604 1.66659 14.1668C1.66659 11.4359 2.59369 9.81236 3.4825 8.53469C3.53098 8.46501 3.57859 8.39711 3.6253 8.33084C2.89707 8.29972 2.20506 7.99676 1.68752 7.47922C1.14054 6.93224 0.833252 6.19038 0.833252 5.41683C0.833252 4.81494 0.951803 4.21894 1.18214 3.66286C1.41247 3.10679 1.75008 2.60153 2.17568 2.17592C2.60128 1.75032 3.10654 1.41272 3.66262 1.18238Z" fill="black"/>
</g>
<defs>
<clipPath id="clip0_2001_10356">
<rect width="20" height="20" fill="white"/>
</clipPath>
</defs>
</svg>
