<svg width="20" height="20" viewBox="0 0 20 20" fill="none" xmlns="http://www.w3.org/2000/svg">
<path fill-rule="evenodd" clip-rule="evenodd" d="M4.58934 4.58909C3.72934 5.44909 3.33341 6.99388 3.33341 9.99984C3.33341 13.0058 3.72934 14.5506 4.58934 15.4106C5.44933 16.2706 6.99413 16.6665 10.0001 16.6665C13.006 16.6665 14.5508 16.2706 15.4108 15.4106C16.2708 14.5506 16.6667 13.0058 16.6667 9.99984C16.6667 6.99388 16.2708 5.44909 15.4108 4.58909C14.5508 3.7291 13.006 3.33317 10.0001 3.33317C6.99413 3.33317 5.44933 3.7291 4.58934 4.58909ZM3.41083 3.41058C4.80083 2.02058 7.00604 1.6665 10.0001 1.6665C12.9941 1.6665 15.1993 2.02058 16.5893 3.41058C17.9793 4.80059 18.3334 7.00579 18.3334 9.99984C18.3334 12.9939 17.9793 15.1991 16.5893 16.5891C15.1993 17.9791 12.9941 18.3332 10.0001 18.3332C7.00604 18.3332 4.80083 17.9791 3.41083 16.5891C2.02082 15.1991 1.66675 12.9939 1.66675 9.99984C1.66675 7.00579 2.02082 4.80059 3.41083 3.41058Z" fill="black"/>
</svg>
