<svg width="20" height="20" viewBox="0 0 20 20" fill="none" xmlns="http://www.w3.org/2000/svg">
<path fill-rule="evenodd" clip-rule="evenodd" d="M3.33325 18.3333C3.33325 17.8731 3.70635 17.5 4.16659 17.5H15.8333C16.2935 17.5 16.6666 17.8731 16.6666 18.3333C16.6666 18.7936 16.2935 19.1667 15.8333 19.1667H4.16659C3.70635 19.1667 3.33325 18.7936 3.33325 18.3333Z" fill="black"/>
<path fill-rule="evenodd" clip-rule="evenodd" d="M14.5827 10C14.9657 9.99943 15.345 10.0743 15.6991 10.2203C16.0534 10.3665 16.3755 10.581 16.6468 10.8517L16.6476 10.8524C17.198 11.4028 17.5 12.1492 17.5 12.9167V14.1667C17.5 14.6087 17.3244 15.0326 17.0118 15.3452C16.6993 15.6577 16.2754 15.8333 15.8333 15.8333H4.16667C3.72464 15.8333 3.30072 15.6577 2.98816 15.3452C2.67559 15.0326 2.5 14.6087 2.5 14.1667V12.9167C2.5 12.1431 2.80729 11.4013 3.35427 10.8543C3.90125 10.3073 4.64312 10 5.41667 10H14.5827ZM15.0636 11.7611C14.9118 11.6985 14.7491 11.6664 14.5848 11.6667L5.41667 11.6667C5.08515 11.6667 4.7672 11.7984 4.53278 12.0328C4.29836 12.2672 4.16667 12.5851 4.16667 12.9167V14.1667H15.8333V12.9167C15.8333 12.5843 15.7021 12.264 15.4693 12.0312C15.3531 11.9154 15.2153 11.8236 15.0636 11.7611Z" fill="black"/>
<path fill-rule="evenodd" clip-rule="evenodd" d="M7.66657 1.67906C8.3037 1.09185 9.14578 0.833496 10.0001 0.833496C10.8841 0.833496 11.732 1.18469 12.3571 1.80981C12.9822 2.43493 13.3334 3.28277 13.3334 4.16683C13.3334 5.18664 13.0634 5.74605 12.807 6.19486C12.7926 6.21994 12.7788 6.24395 12.7656 6.26705C12.5827 6.58526 12.5001 6.72912 12.5001 7.0835V10.8335C12.5001 11.2937 12.127 11.6668 11.6667 11.6668C11.2065 11.6668 10.8334 11.2937 10.8334 10.8335V7.0835C10.8334 6.27621 11.1104 5.79861 11.314 5.44748C11.3298 5.42024 11.3451 5.39377 11.3599 5.36796C11.5201 5.0876 11.6667 4.81368 11.6667 4.16683C11.6667 3.7248 11.4912 3.30088 11.1786 2.98832C10.866 2.67576 10.4421 2.50016 10.0001 2.50016C9.47105 2.50016 9.06313 2.65848 8.7961 2.9046C8.54019 3.14046 8.33341 3.52999 8.33341 4.16683C8.33341 4.81368 8.48008 5.0876 8.64028 5.36796C8.65503 5.39377 8.67038 5.42024 8.68617 5.44748C8.88979 5.79861 9.16675 6.27621 9.16675 7.0835V10.8335C9.16675 11.2937 8.79365 11.6668 8.33341 11.6668C7.87318 11.6668 7.50008 11.2937 7.50008 10.8335V7.0835C7.50008 6.72912 7.41743 6.58526 7.23461 6.26705C7.22134 6.24395 7.20754 6.21994 7.19321 6.19486C6.93675 5.74605 6.66675 5.18664 6.66675 4.16683C6.66675 3.137 7.01831 2.27654 7.66657 1.67906Z" fill="black"/>
</svg>
