<svg width="20" height="20" viewBox="0 0 20 20" fill="none" xmlns="http://www.w3.org/2000/svg">
<g clip-path="url(#clip0_2001_10367)">
<path fill-rule="evenodd" clip-rule="evenodd" d="M7.77445 6.8292C7.84125 7.28456 7.52625 7.70786 7.07089 7.77465L3.45617 8.30489L6.41472 11.1865C6.61138 11.3781 6.70109 11.6542 6.65455 11.9247L5.95676 15.9814L9.61394 14.0699C9.85576 13.9435 10.1441 13.9435 10.3859 14.0699L14.0431 15.9814L13.837 14.7831C13.759 14.3295 14.0634 13.8986 14.517 13.8205C14.9706 13.7425 15.4015 14.047 15.4795 14.5005L15.9712 17.3589C16.0249 17.6712 15.8969 17.987 15.6407 18.1736C15.3846 18.3603 15.0448 18.3855 14.7639 18.2387L9.99994 15.7488L5.23595 18.2387C4.95508 18.3855 4.61526 18.3603 4.35915 18.1736C4.10303 17.987 3.97495 17.6712 4.02867 17.3589L4.93766 12.0744L1.08517 8.32211C0.858039 8.10089 0.776125 7.76994 0.873839 7.46832C0.971553 7.16669 1.23196 6.94665 1.54566 6.90063L6.829 6.12563C7.28436 6.05884 7.70766 6.37383 7.77445 6.8292Z" fill="black"/>
<path fill-rule="evenodd" clip-rule="evenodd" d="M10.0007 0.833496C10.3179 0.833754 10.6074 1.01399 10.7476 1.29845L13.1286 6.12992L18.4528 6.90042C18.7668 6.94586 19.0277 7.16568 19.1259 7.4674C19.224 7.76912 19.1423 8.10039 18.9151 8.32187L15.9318 11.2302C15.6022 11.5515 15.0746 11.5448 14.7534 11.2152C14.4321 10.8856 14.4388 10.3581 14.7684 10.0368L16.5418 8.3079L12.4557 7.71657C12.1839 7.67724 11.949 7.50653 11.8276 7.26021L9.99854 3.54886L9.54696 4.46142C9.34284 4.87392 8.84297 5.04284 8.43048 4.83872C8.01798 4.6346 7.84906 4.13473 8.05318 3.72223L9.25318 1.29723C9.39383 1.013 9.68362 0.833239 10.0007 0.833496Z" fill="black"/>
<path fill-rule="evenodd" clip-rule="evenodd" d="M1.07733 1.07757C1.40277 0.752137 1.9304 0.752137 2.25584 1.07757L18.9225 17.7442C19.2479 18.0697 19.2479 18.5973 18.9225 18.9228C18.5971 19.2482 18.0694 19.2482 17.744 18.9228L1.07733 2.25609C0.751893 1.93065 0.751893 1.40301 1.07733 1.07757Z" fill="black"/>
</g>
<defs>
<clipPath id="clip0_2001_10367">
<rect width="20" height="20" fill="white"/>
</clipPath>
</defs>
</svg>
