<svg width="20" height="20" viewBox="0 0 20 20" fill="none" xmlns="http://www.w3.org/2000/svg">
<path fill-rule="evenodd" clip-rule="evenodd" d="M10 2.9934L8.42708 6.18085C8.24036 6.5588 7.9646 6.88572 7.62352 7.13347C7.28243 7.38122 6.88626 7.54237 6.46909 7.60306L2.9485 8.11769L5.49458 10.5963L4.91477 11.1919L5.49468 10.5964C5.79703 10.8908 6.02322 11.2544 6.15372 11.6558C6.28422 12.0571 6.31514 12.4841 6.2438 12.9C6.2438 12.9001 6.2438 12.9001 6.24379 12.9001L5.64345 16.402L8.79004 14.7473C9.16311 14.5514 9.57817 14.449 9.99954 14.449C10.4209 14.449 10.836 14.5514 11.209 14.7473L14.3573 16.4025L13.7561 12.8993L13.756 12.8988C13.685 12.4831 13.7161 12.0563 13.8465 11.6553C13.977 11.2542 14.203 10.8909 14.505 10.5966L17.0502 8.11821L13.5289 7.60291C13.1123 7.54175 12.7167 7.38041 12.3762 7.13273C12.0356 6.88505 11.7602 6.55843 11.5737 6.18091L10 2.9934ZM4.332 11.7905C4.33196 11.7905 4.33193 11.7905 4.3319 11.7904L1.22102 8.76198C1.2205 8.76147 1.21997 8.76096 1.21945 8.76045C1.0485 8.59477 0.927338 8.38453 0.869705 8.15352C0.811896 7.92181 0.820328 7.67851 0.894042 7.45135C0.967756 7.22419 1.10379 7.0223 1.28664 6.86868C1.46888 6.71558 1.69033 6.61655 1.92591 6.58279L6.22915 5.95376C6.37908 5.93194 6.52145 5.87403 6.64403 5.78499C6.76661 5.69596 6.86572 5.57847 6.93282 5.44263L8.85726 1.54291C8.96269 1.32991 9.12555 1.15062 9.32746 1.02527C9.52937 0.89992 9.7623 0.833496 9.99995 0.833496C10.2376 0.833496 10.4705 0.89992 10.6725 1.02527C10.8744 1.15062 11.0372 1.32991 11.1426 1.54291L13.0679 5.44257C13.135 5.57833 13.234 5.69578 13.3565 5.78484C13.4789 5.8739 13.6212 5.93192 13.771 5.95391L18.0744 6.58369C18.0748 6.58373 18.0751 6.58378 18.0754 6.58383C18.0755 6.58384 18.0756 6.58385 18.0756 6.58386C18.3107 6.61813 18.5315 6.71739 18.7131 6.87044C18.8951 7.02375 19.0305 7.22491 19.1041 7.45118C19.1777 7.67745 19.1865 7.9198 19.1295 8.15082C19.0726 8.38184 18.9521 8.5923 18.7817 8.7584L15.6682 11.7902C15.5596 11.8961 15.4783 12.0267 15.4314 12.1709C15.3845 12.3151 15.3734 12.4684 15.3988 12.6178C15.3989 12.6179 15.3989 12.618 15.3989 12.6181L16.1331 16.8968C16.1332 16.8976 16.1334 16.8985 16.1335 16.8993C16.1745 17.1339 16.1489 17.3753 16.0597 17.5961C15.9702 17.8177 15.8202 18.0097 15.6268 18.1502C15.4334 18.2906 15.2045 18.3739 14.966 18.3905C14.7285 18.407 14.4911 18.3567 14.2808 18.2453C14.28 18.2448 14.2791 18.2444 14.2783 18.244L10.4342 16.2229C10.3001 16.1525 10.151 16.1157 9.99954 16.1157C9.84811 16.1157 9.69895 16.1525 9.56488 16.2229C9.56488 16.2229 9.56487 16.2229 9.56486 16.2229L5.71985 18.2449C5.7194 18.2451 5.71896 18.2454 5.71851 18.2456C5.50794 18.3568 5.27044 18.4067 5.03292 18.3899C4.79488 18.3729 4.56638 18.2896 4.37339 18.1492C4.1804 18.0088 4.03067 17.8172 3.94124 17.5959C3.85207 17.3753 3.8264 17.1342 3.86713 16.8998C3.86725 16.8991 3.86737 16.8984 3.86749 16.8977L4.60112 12.6184C4.62676 12.4689 4.61565 12.3154 4.56875 12.1711C4.52186 12.0269 4.44061 11.8963 4.332 11.7905Z" fill="black"/>
</svg>
