<svg width="20" height="20" viewBox="0 0 20 20" fill="none" xmlns="http://www.w3.org/2000/svg">
<path fill-rule="evenodd" clip-rule="evenodd" d="M10.2646 2.45724C10.5951 2.34661 10.8333 2.03448 10.8333 1.66675C10.8332 1.20651 10.4601 0.83345 9.99985 0.833496C9.51828 0.833544 9.07068 1.11153 8.85716 1.54317L6.93262 5.44309C6.80044 5.71098 6.52516 5.91093 6.22953 5.95378L1.92594 6.58287C0.865279 6.73467 0.482913 8.04699 1.21955 8.76067C1.22004 8.76113 1.22052 8.7616 1.221 8.76206L4.33197 11.7906L4.33217 11.7908C4.54651 11.9993 4.65187 12.3233 4.60116 12.618L3.86747 16.8978C3.86736 16.8985 3.86724 16.8991 3.86713 16.8997C3.68356 17.9547 4.8119 18.7243 5.7185 18.2457C5.71894 18.2455 5.71938 18.2452 5.71983 18.245L9.5653 16.2227L9.56731 16.2217C9.70003 16.1514 9.84797 16.1148 9.99814 16.1152C10.4584 16.1161 10.8323 15.7439 10.8333 15.2836C10.8343 14.8234 10.462 14.4495 10.0017 14.4485C9.57885 14.4476 9.16222 14.5505 8.78842 14.7482C8.78813 14.7484 8.78784 14.7485 8.78755 14.7487L5.64343 16.4021L6.2437 12.9006C6.38756 12.0644 6.10251 11.1878 5.49436 10.5962L2.94848 8.11777L6.46866 7.60321C6.46898 7.60316 6.46931 7.60311 6.46963 7.60307C7.30797 7.48119 8.05235 6.94032 8.42722 6.18061L8.42724 6.18057L10.2646 2.45724Z" fill="black"/>
</svg>
