<svg width="20" height="20" viewBox="0 0 20 20" fill="none" xmlns="http://www.w3.org/2000/svg">
<path fill-rule="evenodd" clip-rule="evenodd" d="M15.0001 2.5C15.4603 2.5 15.8334 2.8731 15.8334 3.33333V16.6667C15.8334 17.1269 15.4603 17.5 15.0001 17.5C14.5398 17.5 14.1667 17.1269 14.1667 16.6667V3.33333C14.1667 2.8731 14.5398 2.5 15.0001 2.5Z" fill="black"/>
<path fill-rule="evenodd" clip-rule="evenodd" d="M12.0277 2.58226C12.3164 2.72102 12.5 3.013 12.5 3.33334V16.6667C12.5 16.987 12.3164 17.279 12.0277 17.4178C11.7389 17.5565 11.3962 17.5175 11.1461 17.3174L2.81275 10.6507C2.61507 10.4926 2.5 10.2532 2.5 10C2.5 9.74685 2.61507 9.50743 2.81275 9.34928L11.1461 2.68262C11.3962 2.4825 11.7389 2.44349 12.0277 2.58226ZM4.66732 10L10.8333 14.9328V5.06719L4.66732 10Z" fill="black"/>
</svg>
