<svg width="20" height="20" viewBox="0 0 20 20" fill="none" xmlns="http://www.w3.org/2000/svg">
<path fill-rule="evenodd" clip-rule="evenodd" d="M5.00008 2.5C5.46032 2.5 5.83341 2.8731 5.83341 3.33333V16.6667C5.83341 17.1269 5.46032 17.5 5.00008 17.5C4.53984 17.5 4.16675 17.1269 4.16675 16.6667V3.33333C4.16675 2.8731 4.53984 2.5 5.00008 2.5Z" fill="black"/>
<path fill-rule="evenodd" clip-rule="evenodd" d="M7.97234 2.58226C8.26106 2.44349 8.60377 2.4825 8.85391 2.68262L17.1872 9.34928C17.3849 9.50743 17.5 9.74685 17.5 10C17.5 10.2532 17.3849 10.4926 17.1872 10.6507L8.85391 17.3174C8.60377 17.5175 8.26106 17.5565 7.97234 17.4178C7.68362 17.279 7.5 16.987 7.5 16.6667V3.33334C7.5 3.013 7.68362 2.72102 7.97234 2.58226ZM9.16667 5.06719V14.9328L15.3327 10L9.16667 5.06719Z" fill="black"/>
</svg>
