<svg width="20" height="20" viewBox="0 0 20 20" fill="none" xmlns="http://www.w3.org/2000/svg">
<path fill-rule="evenodd" clip-rule="evenodd" d="M9.16659 0.833496C9.62682 0.833496 9.99992 1.20659 9.99992 1.66683V3.3335C9.99992 3.79373 9.62682 4.16683 9.16659 4.16683C8.70635 4.16683 8.33325 3.79373 8.33325 3.3335V1.66683C8.33325 1.20659 8.70635 0.833496 9.16659 0.833496Z" fill="black"/>
<path fill-rule="evenodd" clip-rule="evenodd" d="M4.16659 0.833496C4.62682 0.833496 4.99992 1.20659 4.99992 1.66683V3.3335C4.99992 3.79373 4.62682 4.16683 4.16659 4.16683C3.70635 4.16683 3.33325 3.79373 3.33325 3.3335V1.66683C3.33325 1.20659 3.70635 0.833496 4.16659 0.833496Z" fill="black"/>
<path fill-rule="evenodd" clip-rule="evenodd" d="M1.56549 2.39874C2.03433 1.9299 2.67021 1.6665 3.33325 1.6665H4.16659C4.62682 1.6665 4.99992 2.0396 4.99992 2.49984C4.99992 2.96007 4.62682 3.33317 4.16659 3.33317H3.33325C3.11224 3.33317 2.90028 3.42097 2.744 3.57725C2.58772 3.73353 2.49992 3.94549 2.49992 4.1665V7.49984C2.49992 8.60491 2.93891 9.66471 3.72031 10.4461C4.50171 11.2275 5.56152 11.6665 6.66659 11.6665C7.77165 11.6665 8.83146 11.2275 9.61286 10.4461C10.3943 9.66471 10.8333 8.60491 10.8333 7.49984V4.1665C10.8333 3.94549 10.7455 3.73353 10.5892 3.57725C10.4329 3.42097 10.2209 3.33317 9.99992 3.33317H9.16659C8.70635 3.33317 8.33325 2.96007 8.33325 2.49984C8.33325 2.0396 8.70635 1.6665 9.16659 1.6665H9.99992C10.663 1.6665 11.2988 1.9299 11.7677 2.39874C12.2365 2.86758 12.4999 3.50346 12.4999 4.1665V7.49984C12.4999 9.04693 11.8853 10.5307 10.7914 11.6246C9.69741 12.7186 8.21368 13.3332 6.66659 13.3332C5.11949 13.3332 3.63576 12.7186 2.5418 11.6246C1.44783 10.5307 0.833252 9.04693 0.833252 7.49984V4.1665C0.833252 3.50346 1.09664 2.86758 1.56549 2.39874Z" fill="black"/>
<path fill-rule="evenodd" clip-rule="evenodd" d="M16.6666 9.1665C17.1268 9.1665 17.4999 9.5396 17.4999 9.99984V12.4998C17.4999 14.0469 16.8853 15.5307 15.7914 16.6246C14.6974 17.7186 13.2137 18.3332 11.6666 18.3332C10.1195 18.3332 8.63576 17.7186 7.5418 16.6246C6.44783 15.5307 5.83325 14.0469 5.83325 12.4998C5.83325 12.0396 6.20635 11.6665 6.66659 11.6665C7.12682 11.6665 7.49992 12.0396 7.49992 12.4998C7.49992 13.6049 7.93891 14.6647 8.72031 15.4461C9.50171 16.2275 10.5615 16.6665 11.6666 16.6665C12.7717 16.6665 13.8315 16.2275 14.6129 15.4461C15.3943 14.6647 15.8333 13.6049 15.8333 12.4998V9.99984C15.8333 9.5396 16.2063 9.1665 16.6666 9.1665Z" fill="black"/>
<path fill-rule="evenodd" clip-rule="evenodd" d="M16.6667 7.50016C16.2065 7.50016 15.8334 7.87326 15.8334 8.3335C15.8334 8.79373 16.2065 9.16683 16.6667 9.16683C17.127 9.16683 17.5001 8.79373 17.5001 8.3335C17.5001 7.87326 17.127 7.50016 16.6667 7.50016ZM14.1667 8.3335C14.1667 6.95278 15.286 5.8335 16.6667 5.8335C18.0475 5.8335 19.1667 6.95278 19.1667 8.3335C19.1667 9.71421 18.0475 10.8335 16.6667 10.8335C15.286 10.8335 14.1667 9.71421 14.1667 8.3335Z" fill="black"/>
</svg>
