<svg width="20" height="20" viewBox="0 0 20 20" fill="none" xmlns="http://www.w3.org/2000/svg">
<path fill-rule="evenodd" clip-rule="evenodd" d="M2.39898 2.39874C2.86782 1.9299 3.50371 1.6665 4.16675 1.6665H12.9167C13.1378 1.6665 13.3497 1.7543 13.506 1.91058L18.0893 6.49391C18.2456 6.6502 18.3334 6.86216 18.3334 7.08317V15.8332C18.3334 16.4962 18.07 17.1321 17.6012 17.6009C17.1323 18.0698 16.4965 18.3332 15.8334 18.3332H4.16675C2.78984 18.3332 1.66675 17.2101 1.66675 15.8332V4.1665C1.66675 3.50346 1.93014 2.86758 2.39898 2.39874ZM4.16675 3.33317C3.94573 3.33317 3.73377 3.42097 3.57749 3.57725C3.42121 3.73353 3.33341 3.94549 3.33341 4.1665V15.8332C3.33341 16.2896 3.71032 16.6665 4.16675 16.6665H15.8334C16.0544 16.6665 16.2664 16.5787 16.4227 16.4224C16.5789 16.2661 16.6667 16.0542 16.6667 15.8332V7.42835L12.5716 3.33317H4.16675Z" fill="black"/>
<path fill-rule="evenodd" clip-rule="evenodd" d="M11.6666 1.6665C12.1268 1.6665 12.4999 2.0396 12.4999 2.49984V5.83317C12.4999 6.05418 12.5877 6.26614 12.744 6.42243C12.9003 6.57871 13.1122 6.6665 13.3333 6.6665H16.6666C17.1268 6.6665 17.4999 7.0396 17.4999 7.49984C17.4999 7.96007 17.1268 8.33317 16.6666 8.33317H13.3333C12.6702 8.33317 12.0343 8.06978 11.5655 7.60094C11.0966 7.1321 10.8333 6.49621 10.8333 5.83317V2.49984C10.8333 2.0396 11.2063 1.6665 11.6666 1.6665Z" fill="black"/>
<path fill-rule="evenodd" clip-rule="evenodd" d="M5.83325 10.8333C5.83325 10.3731 6.20635 10 6.66659 10H6.67492C7.13516 10 7.50825 10.3731 7.50825 10.8333C7.50825 11.2936 7.13516 11.6667 6.67492 11.6667H6.66659C6.20635 11.6667 5.83325 11.2936 5.83325 10.8333Z" fill="black"/>
<path fill-rule="evenodd" clip-rule="evenodd" d="M12.5 10.8333C12.5 10.3731 12.8731 10 13.3333 10H13.3417C13.8019 10 14.175 10.3731 14.175 10.8333C14.175 11.2936 13.8019 11.6667 13.3417 11.6667H13.3333C12.8731 11.6667 12.5 11.2936 12.5 10.8333Z" fill="black"/>
<path fill-rule="evenodd" clip-rule="evenodd" d="M12.1446 12.6507C12.5216 12.9146 12.6133 13.4342 12.3494 13.8113L11.6667 13.3334C12.3494 13.8113 12.3492 13.8116 12.349 13.8119L12.3485 13.8125L12.3476 13.8138C12.347 13.8147 12.3464 13.8156 12.3457 13.8166C12.3442 13.8186 12.3427 13.8208 12.341 13.8231C12.3375 13.8279 12.3334 13.8335 12.3287 13.8399C12.3192 13.8526 12.3072 13.8685 12.2925 13.8869C12.2633 13.9238 12.2234 13.9717 12.1729 14.0267C12.0726 14.1361 11.9268 14.2781 11.7356 14.4197C11.3529 14.7032 10.7664 15.0001 10 15.0001C9.26574 15.0001 8.68138 14.6954 8.30733 14.4282C8.11672 14.292 7.96732 14.1563 7.8639 14.0529C7.81182 14.0008 7.77036 13.9559 7.74014 13.9217C7.725 13.9046 7.7126 13.8902 7.70301 13.8788C7.69821 13.873 7.69411 13.8681 7.69071 13.8639C7.68902 13.8619 7.68749 13.86 7.68615 13.8583C7.68579 13.8579 7.68545 13.8575 7.68512 13.8571C7.68483 13.8567 7.68454 13.8563 7.68426 13.856L7.68342 13.855L7.68302 13.8545C7.68283 13.8542 7.68264 13.854 8.33336 13.3334L7.68264 13.854C7.39513 13.4946 7.4534 12.9702 7.81278 12.6827C8.17032 12.3967 8.69119 12.4529 8.97963 12.8073C8.98076 12.8086 8.9835 12.8118 8.98779 12.8167C8.99793 12.8281 9.01637 12.8483 9.04241 12.8744C9.09524 12.9272 9.17501 12.9998 9.27606 13.072C9.48535 13.2215 9.73432 13.3334 10 13.3334C10.317 13.3334 10.5638 13.2136 10.7436 13.0804C10.8337 13.0137 10.9014 12.9473 10.9443 12.9005C10.9655 12.8774 10.9796 12.8602 10.9865 12.8515C10.9883 12.8493 10.9895 12.8476 10.9903 12.8467C11.2561 12.4771 11.7705 12.3889 12.1446 12.6507Z" fill="black"/>
</svg>
