<svg width="20" height="20" viewBox="0 0 20 20" fill="none" xmlns="http://www.w3.org/2000/svg">
<path fill-rule="evenodd" clip-rule="evenodd" d="M2.39898 2.39874C2.86782 1.9299 3.50371 1.6665 4.16675 1.6665H13.3334C13.5544 1.6665 13.7664 1.7543 13.9227 1.91058L18.0893 6.07725C18.2456 6.23353 18.3334 6.44549 18.3334 6.6665V15.8332C18.3334 16.4962 18.07 17.1321 17.6012 17.6009C17.1323 18.0698 16.4965 18.3332 15.8334 18.3332H4.16675C3.50371 18.3332 2.86782 18.0698 2.39898 17.6009C1.93014 17.1321 1.66675 16.4962 1.66675 15.8332V4.1665C1.66675 3.50346 1.93014 2.86758 2.39898 2.39874ZM4.16675 3.33317C3.94573 3.33317 3.73377 3.42097 3.57749 3.57725C3.42121 3.73353 3.33341 3.94549 3.33341 4.1665V15.8332C3.33341 16.0542 3.42121 16.2661 3.57749 16.4224C3.73377 16.5787 3.94573 16.6665 4.16675 16.6665H15.8334C16.0544 16.6665 16.2664 16.5787 16.4227 16.4224C16.5789 16.2661 16.6667 16.0542 16.6667 15.8332V7.01168L12.9882 3.33317H4.16675Z" fill="black"/>
<path fill-rule="evenodd" clip-rule="evenodd" d="M12.5001 1.6665C12.9603 1.6665 13.3334 2.0396 13.3334 2.49984V5.83317C13.3334 6.05418 13.4212 6.26614 13.5775 6.42243C13.7338 6.57871 13.9457 6.6665 14.1667 6.6665H17.5001C17.9603 6.6665 18.3334 7.0396 18.3334 7.49984C18.3334 7.96007 17.9603 8.33317 17.5001 8.33317H14.1667C13.5037 8.33317 12.8678 8.06978 12.399 7.60094C11.9301 7.1321 11.6667 6.49621 11.6667 5.83317V2.49984C11.6667 2.0396 12.0398 1.6665 12.5001 1.6665Z" fill="black"/>
</svg>
