<svg width="20" height="20" viewBox="0 0 20 20" fill="none" xmlns="http://www.w3.org/2000/svg">
<g clip-path="url(#clip0_2001_10394)">
<path d="M6.52492 0.833496L6.52459 1.66683L6.52426 2.50016H13.4756C13.6933 2.49999 13.9137 2.59157 14.0672 2.746L15.2484 1.57015C14.7833 1.10266 14.1339 0.833496 13.4746 0.833496C13.4746 0.833496 9.23894 0.833496 6.52492 0.833496Z" fill="black"/>
<path fill-rule="evenodd" clip-rule="evenodd" d="M5.93259 2.746C6.08611 2.59157 6.30651 2.49999 6.52426 2.50016L6.52459 1.66683L6.52492 0.833496C5.86362 0.833151 5.21794 1.10134 4.75149 1.57008L4.75058 1.571L1.07733 5.24424C0.751893 5.56968 0.751893 6.09732 1.07733 6.42275C1.40277 6.74819 1.9304 6.74819 2.25584 6.42275C2.66424 6.01435 3.073 5.60631 3.48177 5.19826C4.29967 4.3818 5.11759 3.56533 5.93259 2.746ZM14.0672 2.746L17.744 6.42275C18.0694 6.74819 18.5971 6.74819 18.9225 6.42275C19.2479 6.09732 19.2479 5.56968 18.9225 5.24424L15.2493 1.571L15.2484 1.57015L14.0672 2.746Z" fill="black"/>
<path fill-rule="evenodd" clip-rule="evenodd" d="M3.33333 9.1665C3.79357 9.1665 4.16667 9.5396 4.16667 9.99984V16.6665C4.16667 17.114 4.55246 17.4998 5 17.4998H15C15.4475 17.4998 15.8333 17.114 15.8333 16.6665V9.99984C15.8333 9.5396 16.2064 9.1665 16.6667 9.1665C17.1269 9.1665 17.5 9.5396 17.5 9.99984V16.6665C17.5 18.0345 16.368 19.1665 15 19.1665H5C3.63198 19.1665 2.5 18.0345 2.5 16.6665V9.99984C2.5 9.5396 2.8731 9.1665 3.33333 9.1665Z" fill="black"/>
<path fill-rule="evenodd" clip-rule="evenodd" d="M6.66675 15C6.66675 13.632 7.79873 12.5 9.16675 12.5H10.8334C12.2014 12.5 13.3334 13.632 13.3334 15V18.3333C13.3334 18.7936 12.9603 19.1667 12.5001 19.1667C12.0398 19.1667 11.6667 18.7936 11.6667 18.3333V15C11.6667 14.5525 11.281 14.1667 10.8334 14.1667H9.16675C8.71921 14.1667 8.33341 14.5525 8.33341 15V18.3333C8.33341 18.7936 7.96032 19.1667 7.50008 19.1667C7.03984 19.1667 6.66675 18.7936 6.66675 18.3333V15Z" fill="black"/>
<path fill-rule="evenodd" clip-rule="evenodd" d="M0.833252 5.83333C0.833252 5.3731 1.20635 5 1.66659 5H18.3333C18.7935 5 19.1666 5.3731 19.1666 5.83333C19.1666 6.29357 18.7935 6.66667 18.3333 6.66667H1.66659C1.20635 6.66667 0.833252 6.29357 0.833252 5.83333Z" fill="black"/>
<path fill-rule="evenodd" clip-rule="evenodd" d="M1.66659 5C2.12682 5 2.49992 5.3731 2.49992 5.83333V8.33333C2.49992 8.75661 2.7106 8.97034 3.00905 9.06505C3.35746 9.17561 3.80609 9.10295 4.12171 8.83737C4.13739 8.82418 4.15355 8.81157 4.17016 8.79957C4.66036 8.44532 5.33947 8.44532 5.82968 8.79957C5.84629 8.81157 5.86245 8.82418 5.87812 8.83737C6.35665 9.24003 6.97652 9.24003 7.45505 8.83737C7.47073 8.82418 7.48688 8.81157 7.50349 8.79957C7.9937 8.44532 8.67281 8.44532 9.16301 8.79957C9.17962 8.81157 9.19578 8.82418 9.21146 8.83737C9.68999 9.24003 10.3099 9.24003 10.7884 8.83737C10.8041 8.82418 10.8202 8.81157 10.8368 8.79957C11.327 8.44532 12.0061 8.44532 12.4963 8.79957C12.513 8.81157 12.5291 8.82418 12.5448 8.83737C13.0233 9.24003 13.6432 9.24003 14.1217 8.83737C14.1374 8.82418 14.1536 8.81157 14.1702 8.79957C14.6604 8.44532 15.3395 8.44532 15.8297 8.79957C15.8463 8.81157 15.8624 8.82418 15.8781 8.83737C16.2021 9.10994 16.6488 9.17797 16.9921 9.06666C17.2896 8.97024 17.4999 8.75288 17.4999 8.33333V5.83333C17.4999 5.3731 17.873 5 18.3333 5C18.7935 5 19.1666 5.3731 19.1666 5.83333V8.33333C19.1666 9.53718 18.4301 10.3526 17.5061 10.6521C16.7001 10.9134 15.7499 10.7892 15.0008 10.2632C13.9879 10.9868 12.6796 10.987 11.6666 10.2638C10.6539 10.9868 9.34598 10.9868 8.33325 10.2638C7.32019 10.987 6.01178 10.9868 4.99891 10.2631C4.25686 10.7827 3.30938 10.9089 2.50493 10.6536C1.57783 10.3594 0.833252 9.54746 0.833252 8.33333V5.83333C0.833252 5.3731 1.20635 5 1.66659 5Z" fill="black"/>
</g>
<defs>
<clipPath id="clip0_2001_10394">
<rect width="20" height="20" fill="white"/>
</clipPath>
</defs>
</svg>
