<svg width="20" height="20" viewBox="0 0 20 20" fill="none" xmlns="http://www.w3.org/2000/svg">
<path fill-rule="evenodd" clip-rule="evenodd" d="M5 2.50016C4.53976 2.50016 4.16667 2.87326 4.16667 3.3335V16.6668C4.16667 17.1271 4.53976 17.5002 5 17.5002H6.66667C7.1269 17.5002 7.5 17.1271 7.5 16.6668V3.3335C7.5 2.87326 7.1269 2.50016 6.66667 2.50016H5ZM2.5 3.3335C2.5 1.95278 3.61929 0.833496 5 0.833496H6.66667C8.04738 0.833496 9.16667 1.95278 9.16667 3.3335V16.6668C9.16667 18.0475 8.04738 19.1668 6.66667 19.1668H5C3.61929 19.1668 2.5 18.0475 2.5 16.6668V3.3335Z" fill="black"/>
<path fill-rule="evenodd" clip-rule="evenodd" d="M13.3333 2.50016C12.873 2.50016 12.4999 2.87326 12.4999 3.3335V16.6668C12.4999 17.1271 12.873 17.5002 13.3333 17.5002H14.9999C15.4602 17.5002 15.8333 17.1271 15.8333 16.6668V3.3335C15.8333 2.87326 15.4602 2.50016 14.9999 2.50016H13.3333ZM10.8333 3.3335C10.8333 1.95278 11.9525 0.833496 13.3333 0.833496H14.9999C16.3806 0.833496 17.4999 1.95278 17.4999 3.3335V16.6668C17.4999 18.0475 16.3806 19.1668 14.9999 19.1668H13.3333C11.9525 19.1668 10.8333 18.0475 10.8333 16.6668V3.3335Z" fill="black"/>
</svg>
