<svg width="20" height="20" viewBox="0 0 20 20" fill="none" xmlns="http://www.w3.org/2000/svg">
<path fill-rule="evenodd" clip-rule="evenodd" d="M3.33325 4.16667C2.87301 4.16667 2.49992 4.53976 2.49992 5V6.66667C2.49992 7.1269 2.87301 7.5 3.33325 7.5H16.6666C17.1268 7.5 17.4999 7.1269 17.4999 6.66667V5C17.4999 4.53976 17.1268 4.16667 16.6666 4.16667H3.33325ZM0.833252 5C0.833252 3.61929 1.95254 2.5 3.33325 2.5H16.6666C18.0473 2.5 19.1666 3.61929 19.1666 5V6.66667C19.1666 8.04738 18.0473 9.16667 16.6666 9.16667H3.33325C1.95254 9.16667 0.833252 8.04738 0.833252 6.66667V5Z" fill="black"/>
<path fill-rule="evenodd" clip-rule="evenodd" d="M3.33325 12.5002C2.87301 12.5002 2.49992 12.8733 2.49992 13.3335V15.0002C2.49992 15.4604 2.87301 15.8335 3.33325 15.8335H16.6666C17.1268 15.8335 17.4999 15.4604 17.4999 15.0002V13.3335C17.4999 12.8733 17.1268 12.5002 16.6666 12.5002H3.33325ZM0.833252 13.3335C0.833252 11.9528 1.95254 10.8335 3.33325 10.8335H16.6666C18.0473 10.8335 19.1666 11.9528 19.1666 13.3335V15.0002C19.1666 16.3809 18.0473 17.5002 16.6666 17.5002H3.33325C1.95254 17.5002 0.833252 16.3809 0.833252 15.0002V13.3335Z" fill="black"/>
</svg>
