<svg width="20" height="20" viewBox="0 0 20 20" fill="none" xmlns="http://www.w3.org/2000/svg">
<path fill-rule="evenodd" clip-rule="evenodd" d="M7.49993 2.5C7.49999 2.5 7.50004 2.5 7.5001 2.5H13.3333C13.7935 2.5 14.1666 2.8731 14.1666 3.33333C14.1666 3.79357 13.7935 4.16667 13.3333 4.16667H7.49949C7.23278 4.16653 6.96994 4.2304 6.73303 4.35291C6.49613 4.47542 6.29208 4.653 6.13804 4.87073C5.984 5.08845 5.88446 5.33997 5.84778 5.60414C5.81111 5.86832 5.83837 6.13743 5.92727 6.38889C6.08068 6.82281 5.85329 7.29893 5.41937 7.45234C4.98546 7.60575 4.50933 7.37836 4.35592 6.94445C4.17812 6.44154 4.1236 5.9033 4.19695 5.37495C4.2703 4.8466 4.46938 4.34357 4.77747 3.90812C5.08555 3.47267 5.49364 3.11751 5.96745 2.87248C6.44113 2.62753 6.96666 2.49979 7.49993 2.5Z" fill="black"/>
<path fill-rule="evenodd" clip-rule="evenodd" d="M10.8334 9.99984C10.8334 9.5396 11.2065 9.1665 11.6667 9.1665C12.7718 9.1665 13.8316 9.60549 14.613 10.3869C15.3944 11.1683 15.8334 12.2281 15.8334 13.3332C15.8334 14.4382 15.3944 15.498 14.613 16.2794C13.8316 17.0608 12.7718 17.4998 11.6667 17.4998H5.00008C4.53984 17.4998 4.16675 17.1267 4.16675 16.6665C4.16675 16.2063 4.53984 15.8332 5.00008 15.8332H11.6667C12.3298 15.8332 12.9657 15.5698 13.4345 15.1009C13.9034 14.6321 14.1667 13.9962 14.1667 13.3332C14.1667 12.6701 13.9034 12.0342 13.4345 11.5654C12.9657 11.0966 12.3298 10.8332 11.6667 10.8332C11.2065 10.8332 10.8334 10.4601 10.8334 9.99984Z" fill="black"/>
<path fill-rule="evenodd" clip-rule="evenodd" d="M2.5 9.99984C2.5 9.5396 2.8731 9.1665 3.33333 9.1665H16.6667C17.1269 9.1665 17.5 9.5396 17.5 9.99984C17.5 10.4601 17.1269 10.8332 16.6667 10.8332H3.33333C2.8731 10.8332 2.5 10.4601 2.5 9.99984Z" fill="black"/>
</svg>
