<svg width="20" height="20" viewBox="0 0 20 20" fill="none" xmlns="http://www.w3.org/2000/svg">
<path fill-rule="evenodd" clip-rule="evenodd" d="M2.74408 3.57757C3.06951 3.25214 3.59715 3.25214 3.92259 3.57757L10.5893 10.2442C10.9147 10.5697 10.9147 11.0973 10.5893 11.4228C10.2638 11.7482 9.73618 11.7482 9.41074 11.4228L2.74408 4.75609C2.41864 4.43065 2.41864 3.90301 2.74408 3.57757Z" fill="black"/>
<path fill-rule="evenodd" clip-rule="evenodd" d="M10.5893 3.57757C10.9147 3.90301 10.9147 4.43065 10.5893 4.75609L3.92259 11.4228C3.59715 11.7482 3.06951 11.7482 2.74408 11.4228C2.41864 11.0973 2.41864 10.5697 2.74408 10.2442L9.41074 3.57757C9.73618 3.25214 10.2638 3.25214 10.5893 3.57757Z" fill="black"/>
<path fill-rule="evenodd" clip-rule="evenodd" d="M13.6732 9.49969C14.1903 9.20733 14.7921 9.10148 15.378 9.19986C15.9638 9.29824 16.498 9.59489 16.8913 10.0401C16.8936 10.0427 16.8959 10.0454 16.8981 10.048C17.2865 10.4991 17.5 11.0753 17.5 11.6668C17.5 12.5687 16.9968 13.2002 16.4786 13.6171C15.995 14.0062 15.4048 14.2843 14.9856 14.4818C14.9698 14.4892 14.9542 14.4966 14.9388 14.5038C14.5393 14.6922 14.4003 14.8181 14.3268 14.9318C14.3143 14.9511 14.3015 14.9735 14.2889 15.0001H16.6666C17.1269 15.0001 17.5 15.3732 17.5 15.8334C17.5 16.2937 17.1269 16.6668 16.6666 16.6668H13.3333C12.8731 16.6668 12.5 16.2937 12.5 15.8334C12.5 15.1424 12.598 14.536 12.9273 14.0268C13.258 13.5154 13.744 13.2246 14.2278 12.9964C14.6899 12.7784 15.1149 12.5751 15.4338 12.3185C15.7365 12.0751 15.8333 11.8732 15.8333 11.6668C15.8333 11.4766 15.7646 11.2878 15.6385 11.1394C15.4985 10.9827 15.3093 10.8783 15.1019 10.8435C14.8935 10.8085 14.6793 10.8459 14.4951 10.9496C14.3161 11.0524 14.1837 11.2125 14.1185 11.396C13.9643 11.8296 13.4878 12.0561 13.0541 11.902C12.6205 11.7478 12.394 11.2712 12.5481 10.8376C12.7494 10.2716 13.1497 9.7988 13.6699 9.50157C13.671 9.50094 13.6721 9.50032 13.6732 9.49969Z" fill="black"/>
</svg>
