<svg width="20" height="20" viewBox="0 0 20 20" fill="none" xmlns="http://www.w3.org/2000/svg">
<path fill-rule="evenodd" clip-rule="evenodd" d="M9.99992 7.50016C8.61921 7.50016 7.49992 8.61945 7.49992 10.0002C7.49992 11.3809 8.61921 12.5002 9.99992 12.5002C11.3806 12.5002 12.4999 11.3809 12.4999 10.0002C12.4999 8.61945 11.3806 7.50016 9.99992 7.50016ZM5.83325 10.0002C5.83325 7.69898 7.69873 5.8335 9.99992 5.8335C12.3011 5.8335 14.1666 7.69898 14.1666 10.0002C14.1666 12.3013 12.3011 14.1668 9.99992 14.1668C7.69873 14.1668 5.83325 12.3013 5.83325 10.0002Z" fill="black"/>
<path fill-rule="evenodd" clip-rule="evenodd" d="M9.16675 3.33333C9.16675 2.8731 9.53984 2.5 10.0001 2.5H10.0084C10.4687 2.5 10.8417 2.8731 10.8417 3.33333C10.8417 3.79357 10.4687 4.16667 10.0084 4.16667H10.0001C9.53984 4.16667 9.16675 3.79357 9.16675 3.33333Z" fill="black"/>
<path fill-rule="evenodd" clip-rule="evenodd" d="M15.8333 9.99984C15.8333 9.5396 16.2063 9.1665 16.6666 9.1665H16.6749C17.1352 9.1665 17.5083 9.5396 17.5083 9.99984C17.5083 10.4601 17.1352 10.8332 16.6749 10.8332H16.6666C16.2063 10.8332 15.8333 10.4601 15.8333 9.99984Z" fill="black"/>
<path fill-rule="evenodd" clip-rule="evenodd" d="M9.16675 16.6668C9.16675 16.2066 9.53984 15.8335 10.0001 15.8335H10.0084C10.4687 15.8335 10.8417 16.2066 10.8417 16.6668C10.8417 17.1271 10.4687 17.5002 10.0084 17.5002H10.0001C9.53984 17.5002 9.16675 17.1271 9.16675 16.6668Z" fill="black"/>
<path fill-rule="evenodd" clip-rule="evenodd" d="M2.5 9.99984C2.5 9.5396 2.8731 9.1665 3.33333 9.1665H3.34167C3.8019 9.1665 4.175 9.5396 4.175 9.99984C4.175 10.4601 3.8019 10.8332 3.34167 10.8332H3.33333C2.8731 10.8332 2.5 10.4601 2.5 9.99984Z" fill="black"/>
<path fill-rule="evenodd" clip-rule="evenodd" d="M13.8809 5.28597C13.8809 4.82573 14.254 4.45264 14.7142 4.45264H14.7225C15.1828 4.45264 15.5559 4.82573 15.5559 5.28597C15.5559 5.74621 15.1828 6.1193 14.7225 6.1193H14.7142C14.254 6.1193 13.8809 5.74621 13.8809 5.28597Z" fill="black"/>
<path fill-rule="evenodd" clip-rule="evenodd" d="M13.8809 14.7142C13.8809 14.254 14.254 13.8809 14.7142 13.8809H14.7225C15.1828 13.8809 15.5559 14.254 15.5559 14.7142C15.5559 15.1744 15.1828 15.5475 14.7225 15.5475H14.7142C14.254 15.5475 13.8809 15.1744 13.8809 14.7142Z" fill="black"/>
<path fill-rule="evenodd" clip-rule="evenodd" d="M4.45239 14.7142C4.45239 14.254 4.82549 13.8809 5.28573 13.8809H5.29406C5.7543 13.8809 6.12739 14.254 6.12739 14.7142C6.12739 15.1744 5.7543 15.5475 5.29406 15.5475H5.28573C4.82549 15.5475 4.45239 15.1744 4.45239 14.7142Z" fill="black"/>
<path fill-rule="evenodd" clip-rule="evenodd" d="M4.45239 5.28597C4.45239 4.82573 4.82549 4.45264 5.28573 4.45264H5.29406C5.7543 4.45264 6.12739 4.82573 6.12739 5.28597C6.12739 5.74621 5.7543 6.1193 5.29406 6.1193H5.28573C4.82549 6.1193 4.45239 5.74621 4.45239 5.28597Z" fill="black"/>
</svg>
