<svg width="20" height="20" viewBox="0 0 20 20" fill="none" xmlns="http://www.w3.org/2000/svg">
<path fill-rule="evenodd" clip-rule="evenodd" d="M9.99992 7.50016C8.61921 7.50016 7.49992 8.61945 7.49992 10.0002C7.49992 11.3809 8.61921 12.5002 9.99992 12.5002C11.3806 12.5002 12.4999 11.3809 12.4999 10.0002C12.4999 8.61945 11.3806 7.50016 9.99992 7.50016ZM5.83325 10.0002C5.83325 7.69898 7.69873 5.8335 9.99992 5.8335C12.3011 5.8335 14.1666 7.69898 14.1666 10.0002C14.1666 12.3013 12.3011 14.1668 9.99992 14.1668C7.69873 14.1668 5.83325 12.3013 5.83325 10.0002Z" fill="black"/>
<path fill-rule="evenodd" clip-rule="evenodd" d="M10.0001 1.6665C10.4603 1.6665 10.8334 2.0396 10.8334 2.49984V3.33317C10.8334 3.79341 10.4603 4.1665 10.0001 4.1665C9.53984 4.1665 9.16675 3.79341 9.16675 3.33317V2.49984C9.16675 2.0396 9.53984 1.6665 10.0001 1.6665Z" fill="black"/>
<path fill-rule="evenodd" clip-rule="evenodd" d="M10.0001 15.8335C10.4603 15.8335 10.8334 16.2066 10.8334 16.6668V17.5002C10.8334 17.9604 10.4603 18.3335 10.0001 18.3335C9.53984 18.3335 9.16675 17.9604 9.16675 17.5002V16.6668C9.16675 16.2066 9.53984 15.8335 10.0001 15.8335Z" fill="black"/>
<path fill-rule="evenodd" clip-rule="evenodd" d="M1.66675 9.99984C1.66675 9.5396 2.03984 9.1665 2.50008 9.1665H3.33341C3.79365 9.1665 4.16675 9.5396 4.16675 9.99984C4.16675 10.4601 3.79365 10.8332 3.33341 10.8332H2.50008C2.03984 10.8332 1.66675 10.4601 1.66675 9.99984Z" fill="black"/>
<path fill-rule="evenodd" clip-rule="evenodd" d="M15.8333 9.99984C15.8333 9.5396 16.2063 9.1665 16.6666 9.1665H17.4999C17.9602 9.1665 18.3333 9.5396 18.3333 9.99984C18.3333 10.4601 17.9602 10.8332 17.4999 10.8332H16.6666C16.2063 10.8332 15.8333 10.4601 15.8333 9.99984Z" fill="black"/>
<path fill-rule="evenodd" clip-rule="evenodd" d="M15.8926 4.10736C16.2181 4.4328 16.2181 4.96043 15.8926 5.28587L15.3034 5.87504C14.978 6.20047 14.4504 6.20047 14.1249 5.87504C13.7995 5.5496 13.7995 5.02196 14.1249 4.69653L14.7141 4.10736C15.0395 3.78192 15.5672 3.78192 15.8926 4.10736Z" fill="black"/>
<path fill-rule="evenodd" clip-rule="evenodd" d="M5.87504 14.1249C6.20047 14.4504 6.20047 14.978 5.87504 15.3034L5.28587 15.8926C4.96043 16.2181 4.4328 16.2181 4.10736 15.8926C3.78192 15.5672 3.78192 15.0395 4.10736 14.7141L4.69653 14.1249C5.02196 13.7995 5.5496 13.7995 5.87504 14.1249Z" fill="black"/>
<path fill-rule="evenodd" clip-rule="evenodd" d="M4.10736 4.10736C4.4328 3.78192 4.96043 3.78192 5.28587 4.10736L5.87504 4.69653C6.20047 5.02196 6.20047 5.5496 5.87504 5.87504C5.5496 6.20047 5.02196 6.20047 4.69653 5.87504L4.10736 5.28587C3.78192 4.96043 3.78192 4.4328 4.10736 4.10736Z" fill="black"/>
<path fill-rule="evenodd" clip-rule="evenodd" d="M14.1249 14.1249C14.4504 13.7995 14.978 13.7995 15.3034 14.1249L15.8926 14.7141C16.2181 15.0395 16.2181 15.5672 15.8926 15.8926C15.5672 16.2181 15.0395 16.2181 14.7141 15.8926L14.1249 15.3034C13.7995 14.978 13.7995 14.4504 14.1249 14.1249Z" fill="black"/>
</svg>
