<svg width="20" height="20" viewBox="0 0 20 20" fill="none" xmlns="http://www.w3.org/2000/svg">
<g clip-path="url(#clip0_2001_10434)">
<path fill-rule="evenodd" clip-rule="evenodd" d="M8.54572 7.96662C8.16592 8.23821 7.86931 8.61111 7.69022 9.04345C7.501 9.50027 7.45149 10.0029 7.54796 10.4879C7.64442 10.9728 7.88252 11.4183 8.23215 11.7679C8.58178 12.1176 9.02724 12.3557 9.5122 12.4521C9.99715 12.5486 10.4998 12.4991 10.9566 12.3099C11.389 12.1308 11.7619 11.8342 12.0335 11.4544C11.9129 11.4662 11.7912 11.4712 11.669 11.4691C10.841 11.4553 10.0509 11.1203 9.46533 10.5348C8.8798 9.94923 8.54476 9.15906 8.53095 8.33111C8.52892 8.20884 8.53391 8.08717 8.54572 7.96662ZM7.68505 6.53571C8.37025 6.07787 9.17583 5.8335 9.99992 5.8335C10.3319 5.8335 10.6323 6.03057 10.7644 6.33514C10.8965 6.63971 10.8353 6.99366 10.6085 7.23611C10.3382 7.52505 10.1908 7.90773 10.1974 8.30333C10.204 8.69892 10.3641 9.07647 10.6438 9.35624C10.9236 9.63601 11.3012 9.7961 11.6968 9.80269C12.0924 9.80929 12.475 9.66188 12.764 9.39159C13.0064 9.16479 13.3604 9.10354 13.6649 9.23569C13.9695 9.36783 14.1666 9.66816 14.1666 10.0002C14.1666 10.8243 13.9222 11.6298 13.4644 12.315C13.0065 13.0002 12.3558 13.5343 11.5944 13.8497C10.8331 14.165 9.9953 14.2475 9.18704 14.0868C8.37879 13.926 7.63636 13.5292 7.05364 12.9464C6.47092 12.3637 6.07409 11.6213 5.91332 10.813C5.75254 10.0048 5.83506 9.16701 6.15042 8.40565C6.46579 7.64429 6.99984 6.99355 7.68505 6.53571Z" fill="black"/>
<path fill-rule="evenodd" clip-rule="evenodd" d="M10.0001 0.833496C10.4603 0.833496 10.8334 1.20659 10.8334 1.66683V3.3335C10.8334 3.79373 10.4603 4.16683 10.0001 4.16683C9.53984 4.16683 9.16675 3.79373 9.16675 3.3335V1.66683C9.16675 1.20659 9.53984 0.833496 10.0001 0.833496Z" fill="black"/>
<path fill-rule="evenodd" clip-rule="evenodd" d="M10.0001 15.8335C10.4603 15.8335 10.8334 16.2066 10.8334 16.6668V18.3335C10.8334 18.7937 10.4603 19.1668 10.0001 19.1668C9.53984 19.1668 9.16675 18.7937 9.16675 18.3335V16.6668C9.16675 16.2066 9.53984 15.8335 10.0001 15.8335Z" fill="black"/>
<path fill-rule="evenodd" clip-rule="evenodd" d="M3.49408 3.49408C3.81951 3.16864 4.34715 3.16864 4.67259 3.49408L5.83926 4.66074C6.16469 4.98618 6.16469 5.51382 5.83926 5.83926C5.51382 6.16469 4.98618 6.16469 4.66074 5.83926L3.49408 4.67259C3.16864 4.34715 3.16864 3.81951 3.49408 3.49408Z" fill="black"/>
<path fill-rule="evenodd" clip-rule="evenodd" d="M14.1608 14.1606C14.4863 13.8351 15.0139 13.8351 15.3393 14.1606L16.506 15.3272C16.8314 15.6527 16.8314 16.1803 16.506 16.5058C16.1806 16.8312 15.6529 16.8312 15.3275 16.5058L14.1608 15.3391C13.8354 15.0137 13.8354 14.486 14.1608 14.1606Z" fill="black"/>
<path fill-rule="evenodd" clip-rule="evenodd" d="M0.833252 9.99984C0.833252 9.5396 1.20635 9.1665 1.66659 9.1665H3.33325C3.79349 9.1665 4.16658 9.5396 4.16658 9.99984C4.16658 10.4601 3.79349 10.8332 3.33325 10.8332H1.66659C1.20635 10.8332 0.833252 10.4601 0.833252 9.99984Z" fill="black"/>
<path fill-rule="evenodd" clip-rule="evenodd" d="M15.8333 9.99984C15.8333 9.5396 16.2063 9.1665 16.6666 9.1665H18.3333C18.7935 9.1665 19.1666 9.5396 19.1666 9.99984C19.1666 10.4601 18.7935 10.8332 18.3333 10.8332H16.6666C16.2063 10.8332 15.8333 10.4601 15.8333 9.99984Z" fill="black"/>
<path fill-rule="evenodd" clip-rule="evenodd" d="M5.83926 14.1606C6.16469 14.486 6.16469 15.0137 5.83926 15.3391L4.67259 16.5058C4.34715 16.8312 3.81951 16.8312 3.49408 16.5058C3.16864 16.1803 3.16864 15.6527 3.49408 15.3272L4.66074 14.1606C4.98618 13.8351 5.51382 13.8351 5.83926 14.1606Z" fill="black"/>
<path fill-rule="evenodd" clip-rule="evenodd" d="M16.506 3.49408C16.8314 3.81951 16.8314 4.34715 16.506 4.67259L15.3393 5.83926C15.0139 6.16469 14.4863 6.16469 14.1608 5.83926C13.8354 5.51382 13.8354 4.98618 14.1608 4.66074L15.3275 3.49408C15.6529 3.16864 16.1806 3.16864 16.506 3.49408Z" fill="black"/>
</g>
<defs>
<clipPath id="clip0_2001_10434">
<rect width="20" height="20" fill="white"/>
</clipPath>
</defs>
</svg>
