<svg width="20" height="20" viewBox="0 0 20 20" fill="none" xmlns="http://www.w3.org/2000/svg">
<path fill-rule="evenodd" clip-rule="evenodd" d="M5.97631 7.64281C6.60143 7.01769 7.44928 6.6665 8.33333 6.6665C8.79357 6.6665 9.16667 7.0396 9.16667 7.49984C9.16667 7.96007 8.79357 8.33317 8.33333 8.33317C7.89131 8.33317 7.46738 8.50877 7.15482 8.82133C6.84226 9.13389 6.66667 9.55781 6.66667 9.99984C6.66667 10.4419 6.84226 10.8658 7.15482 11.1783C7.46738 11.4909 7.89131 11.6665 8.33333 11.6665C8.79357 11.6665 9.16667 12.0396 9.16667 12.4998C9.16667 12.9601 8.79357 13.3332 8.33333 13.3332C7.44928 13.3332 6.60143 12.982 5.97631 12.3569C5.35119 11.7317 5 10.8839 5 9.99984C5 9.11578 5.35119 8.26794 5.97631 7.64281Z" fill="black"/>
<path fill-rule="evenodd" clip-rule="evenodd" d="M0.833252 9.99984C0.833252 9.5396 1.20635 9.1665 1.66659 9.1665H2.49992C2.96016 9.1665 3.33325 9.5396 3.33325 9.99984C3.33325 10.4601 2.96016 10.8332 2.49992 10.8332H1.66659C1.20635 10.8332 0.833252 10.4601 0.833252 9.99984Z" fill="black"/>
<path fill-rule="evenodd" clip-rule="evenodd" d="M11.6666 1.6665C12.1268 1.6665 12.4999 2.0396 12.4999 2.49984V17.4998C12.4999 17.9601 12.1268 18.3332 11.6666 18.3332C11.2063 18.3332 10.8333 17.9601 10.8333 17.4998V2.49984C10.8333 2.0396 11.2063 1.6665 11.6666 1.6665Z" fill="black"/>
<path fill-rule="evenodd" clip-rule="evenodd" d="M8.33333 1.6665C8.79357 1.6665 9.16667 2.0396 9.16667 2.49984V3.33317C9.16667 3.79341 8.79357 4.1665 8.33333 4.1665C7.8731 4.1665 7.5 3.79341 7.5 3.33317V2.49984C7.5 2.0396 7.8731 1.6665 8.33333 1.6665Z" fill="black"/>
<path fill-rule="evenodd" clip-rule="evenodd" d="M8.33333 15.8335C8.79357 15.8335 9.16667 16.2066 9.16667 16.6668V17.5002C9.16667 17.9604 8.79357 18.3335 8.33333 18.3335C7.8731 18.3335 7.5 17.9604 7.5 17.5002V16.6668C7.5 16.2066 7.8731 15.8335 8.33333 15.8335Z" fill="black"/>
<path fill-rule="evenodd" clip-rule="evenodd" d="M4.20587 14.1274C4.53131 14.4528 4.53131 14.9805 4.20587 15.3059L3.62254 15.8892C3.2971 16.2147 2.76947 16.2147 2.44403 15.8892C2.11859 15.5638 2.11859 15.0361 2.44403 14.7107L3.02736 14.1274C3.3528 13.8019 3.88044 13.8019 4.20587 14.1274Z" fill="black"/>
<path fill-rule="evenodd" clip-rule="evenodd" d="M2.44403 4.11078C2.76947 3.78534 3.2971 3.78534 3.62254 4.11078L4.20587 4.69411C4.53131 5.01955 4.53131 5.54718 4.20587 5.87262C3.88044 6.19806 3.3528 6.19806 3.02736 5.87262L2.44403 5.28929C2.11859 4.96385 2.11859 4.43621 2.44403 4.11078Z" fill="black"/>
<path fill-rule="evenodd" clip-rule="evenodd" d="M10.8333 9.99984C10.8333 9.5396 11.2063 9.1665 11.6666 9.1665H18.3333C18.7935 9.1665 19.1666 9.5396 19.1666 9.99984C19.1666 10.4601 18.7935 10.8332 18.3333 10.8332H11.6666C11.2063 10.8332 10.8333 10.4601 10.8333 9.99984Z" fill="black"/>
<path fill-rule="evenodd" clip-rule="evenodd" d="M14.7558 2.74408C15.0813 3.06951 15.0813 3.59715 14.7558 3.92259L12.2558 6.42259C11.9304 6.74803 11.4028 6.74803 11.0773 6.42259C10.7519 6.09715 10.7519 5.56951 11.0773 5.24408L13.5773 2.74408C13.9028 2.41864 14.4304 2.41864 14.7558 2.74408Z" fill="black"/>
<path fill-rule="evenodd" clip-rule="evenodd" d="M11.0773 13.5776C11.4028 13.2521 11.9304 13.2521 12.2558 13.5776L14.7558 16.0776C15.0813 16.403 15.0813 16.9306 14.7558 17.2561C14.4304 17.5815 13.9028 17.5815 13.5773 17.2561L11.0773 14.7561C10.7519 14.4306 10.7519 13.903 11.0773 13.5776Z" fill="black"/>
<path fill-rule="evenodd" clip-rule="evenodd" d="M18.0893 6.91058C18.4148 7.23602 18.4148 7.76366 18.0893 8.08909L16.1786 9.99984L18.0893 11.9106C18.4148 12.236 18.4148 12.7637 18.0893 13.0891C17.7639 13.4145 17.2363 13.4145 16.9108 13.0891L14.4108 10.5891C14.0854 10.2637 14.0854 9.73602 14.4108 9.41058L16.9108 6.91058C17.2363 6.58514 17.7639 6.58514 18.0893 6.91058Z" fill="black"/>
</svg>
