<svg width="20" height="20" viewBox="0 0 20 20" fill="none" xmlns="http://www.w3.org/2000/svg">
<g clip-path="url(#clip0_2001_10456)">
<path fill-rule="evenodd" clip-rule="evenodd" d="M9.99992 7.50016C8.61921 7.50016 7.49992 8.61945 7.49992 10.0002C7.49992 11.3809 8.61921 12.5002 9.99992 12.5002C11.3806 12.5002 12.4999 11.3809 12.4999 10.0002C12.4999 8.61945 11.3806 7.50016 9.99992 7.50016ZM5.83325 10.0002C5.83325 7.69898 7.69873 5.8335 9.99992 5.8335C12.3011 5.8335 14.1666 7.69898 14.1666 10.0002C14.1666 12.3013 12.3011 14.1668 9.99992 14.1668C7.69873 14.1668 5.83325 12.3013 5.83325 10.0002Z" fill="black"/>
<path fill-rule="evenodd" clip-rule="evenodd" d="M10.0001 0.833496C10.4603 0.833496 10.8334 1.20659 10.8334 1.66683V3.3335C10.8334 3.79373 10.4603 4.16683 10.0001 4.16683C9.53984 4.16683 9.16675 3.79373 9.16675 3.3335V1.66683C9.16675 1.20659 9.53984 0.833496 10.0001 0.833496Z" fill="black"/>
<path fill-rule="evenodd" clip-rule="evenodd" d="M10.0001 15.8335C10.4603 15.8335 10.8334 16.2066 10.8334 16.6668V18.3335C10.8334 18.7937 10.4603 19.1668 10.0001 19.1668C9.53984 19.1668 9.16675 18.7937 9.16675 18.3335V16.6668C9.16675 16.2066 9.53984 15.8335 10.0001 15.8335Z" fill="black"/>
<path fill-rule="evenodd" clip-rule="evenodd" d="M3.51898 3.51898C3.84442 3.19354 4.37205 3.19354 4.69749 3.51898L5.87249 4.69398C6.19793 5.01942 6.19793 5.54705 5.87249 5.87249C5.54705 6.19793 5.01942 6.19793 4.69398 5.87249L3.51898 4.69749C3.19354 4.37205 3.19354 3.84442 3.51898 3.51898Z" fill="black"/>
<path fill-rule="evenodd" clip-rule="evenodd" d="M14.1274 14.1274C14.4528 13.8019 14.9805 13.8019 15.3059 14.1274L16.4809 15.3024C16.8063 15.6278 16.8063 16.1555 16.4809 16.4809C16.1555 16.8063 15.6278 16.8063 15.3024 16.4809L14.1274 15.3059C13.8019 14.9805 13.8019 14.4528 14.1274 14.1274Z" fill="black"/>
<path fill-rule="evenodd" clip-rule="evenodd" d="M0.833252 9.99984C0.833252 9.5396 1.20635 9.1665 1.66659 9.1665H3.33325C3.79349 9.1665 4.16658 9.5396 4.16658 9.99984C4.16658 10.4601 3.79349 10.8332 3.33325 10.8332H1.66659C1.20635 10.8332 0.833252 10.4601 0.833252 9.99984Z" fill="black"/>
<path fill-rule="evenodd" clip-rule="evenodd" d="M15.8333 9.99984C15.8333 9.5396 16.2063 9.1665 16.6666 9.1665H18.3333C18.7935 9.1665 19.1666 9.5396 19.1666 9.99984C19.1666 10.4601 18.7935 10.8332 18.3333 10.8332H16.6666C16.2063 10.8332 15.8333 10.4601 15.8333 9.99984Z" fill="black"/>
<path fill-rule="evenodd" clip-rule="evenodd" d="M5.87249 14.1274C6.19793 14.4528 6.19793 14.9805 5.87249 15.3059L4.69749 16.4809C4.37205 16.8063 3.84442 16.8063 3.51898 16.4809C3.19354 16.1555 3.19354 15.6278 3.51898 15.3024L4.69398 14.1274C5.01942 13.8019 5.54706 13.8019 5.87249 14.1274Z" fill="black"/>
<path fill-rule="evenodd" clip-rule="evenodd" d="M16.4809 3.51898C16.8063 3.84442 16.8063 4.37205 16.4809 4.69749L15.3059 5.87249C14.9805 6.19793 14.4528 6.19793 14.1274 5.87249C13.8019 5.54706 13.8019 5.01942 14.1274 4.69398L15.3024 3.51898C15.6278 3.19354 16.1555 3.19354 16.4809 3.51898Z" fill="black"/>
</g>
<defs>
<clipPath id="clip0_2001_10456">
<rect width="20" height="20" fill="white"/>
</clipPath>
</defs>
</svg>
