<svg width="20" height="20" viewBox="0 0 20 20" fill="none" xmlns="http://www.w3.org/2000/svg">
<g clip-path="url(#clip0_2001_10466)">
<path fill-rule="evenodd" clip-rule="evenodd" d="M10.0001 0.833496C10.4603 0.833496 10.8334 1.20659 10.8334 1.66683V8.3335C10.8334 8.79373 10.4603 9.16683 10.0001 9.16683C9.53984 9.16683 9.16675 8.79373 9.16675 8.3335V1.66683C9.16675 1.20659 9.53984 0.833496 10.0001 0.833496Z" fill="black"/>
<path fill-rule="evenodd" clip-rule="evenodd" d="M3.51898 8.51898C3.84442 8.19354 4.37205 8.19354 4.69749 8.51898L5.87249 9.69398C6.19793 10.0194 6.19793 10.5471 5.87249 10.8725C5.54706 11.1979 5.01942 11.1979 4.69398 10.8725L3.51898 9.69749C3.19354 9.37205 3.19354 8.84442 3.51898 8.51898Z" fill="black"/>
<path fill-rule="evenodd" clip-rule="evenodd" d="M0.833252 14.9998C0.833252 14.5396 1.20635 14.1665 1.66659 14.1665H3.33325C3.79349 14.1665 4.16658 14.5396 4.16658 14.9998C4.16658 15.4601 3.79349 15.8332 3.33325 15.8332H1.66659C1.20635 15.8332 0.833252 15.4601 0.833252 14.9998Z" fill="black"/>
<path fill-rule="evenodd" clip-rule="evenodd" d="M15.8333 14.9998C15.8333 14.5396 16.2063 14.1665 16.6666 14.1665H18.3333C18.7935 14.1665 19.1666 14.5396 19.1666 14.9998C19.1666 15.4601 18.7935 15.8332 18.3333 15.8332H16.6666C16.2063 15.8332 15.8333 15.4601 15.8333 14.9998Z" fill="black"/>
<path fill-rule="evenodd" clip-rule="evenodd" d="M16.4809 8.51898C16.8063 8.84442 16.8063 9.37205 16.4809 9.69749L15.3059 10.8725C14.9805 11.1979 14.4528 11.1979 14.1274 10.8725C13.8019 10.5471 13.8019 10.0194 14.1274 9.69398L15.3024 8.51898C15.6278 8.19354 16.1555 8.19354 16.4809 8.51898Z" fill="black"/>
<path fill-rule="evenodd" clip-rule="evenodd" d="M0.833252 18.3333C0.833252 17.8731 1.20635 17.5 1.66659 17.5H18.3333C18.7935 17.5 19.1666 17.8731 19.1666 18.3333C19.1666 18.7936 18.7935 19.1667 18.3333 19.1667H1.66659C1.20635 19.1667 0.833252 18.7936 0.833252 18.3333Z" fill="black"/>
<path fill-rule="evenodd" clip-rule="evenodd" d="M9.41066 1.07757C9.7361 0.752137 10.2637 0.752137 10.5892 1.07757L13.9225 4.41091C14.2479 4.73634 14.2479 5.26398 13.9225 5.58942C13.5971 5.91486 13.0694 5.91486 12.744 5.58942L9.99992 2.84534L7.25584 5.58942C6.9304 5.91486 6.40277 5.91486 6.07733 5.58942C5.75189 5.26398 5.75189 4.73634 6.07733 4.41091L9.41066 1.07757Z" fill="black"/>
<path fill-rule="evenodd" clip-rule="evenodd" d="M7.05364 12.0539C7.83504 11.2725 8.89485 10.8335 9.99992 10.8335C11.105 10.8335 12.1648 11.2725 12.9462 12.0539C13.7276 12.8353 14.1666 13.8951 14.1666 15.0002C14.1666 15.4604 13.7935 15.8335 13.3333 15.8335C12.873 15.8335 12.4999 15.4604 12.4999 15.0002C12.4999 14.3371 12.2365 13.7012 11.7677 13.2324C11.2988 12.7636 10.663 12.5002 9.99992 12.5002C9.33688 12.5002 8.70099 12.7636 8.23215 13.2324C7.76331 13.7012 7.49992 14.3371 7.49992 15.0002C7.49992 15.4604 7.12682 15.8335 6.66659 15.8335C6.20635 15.8335 5.83325 15.4604 5.83325 15.0002C5.83325 13.8951 6.27224 12.8353 7.05364 12.0539Z" fill="black"/>
</g>
<defs>
<clipPath id="clip0_2001_10466">
<rect width="20" height="20" fill="white"/>
</clipPath>
</defs>
</svg>
