<svg width="20" height="20" viewBox="0 0 20 20" fill="none" xmlns="http://www.w3.org/2000/svg">
<path fill-rule="evenodd" clip-rule="evenodd" d="M10.5893 8.57757C10.9147 8.90301 10.9147 9.43065 10.5893 9.75609L3.92259 16.4228C3.59715 16.7482 3.06951 16.7482 2.74408 16.4228C2.41864 16.0973 2.41864 15.5697 2.74408 15.2442L9.41074 8.57757C9.73618 8.25214 10.2638 8.25214 10.5893 8.57757Z" fill="black"/>
<path fill-rule="evenodd" clip-rule="evenodd" d="M2.74408 8.57757C3.06951 8.25214 3.59715 8.25214 3.92259 8.57757L10.5893 15.2442C10.9147 15.5697 10.9147 16.0973 10.5893 16.4228C10.2638 16.7482 9.73618 16.7482 9.41074 16.4228L2.74408 9.75609C2.41864 9.43065 2.41864 8.90301 2.74408 8.57757Z" fill="black"/>
<path fill-rule="evenodd" clip-rule="evenodd" d="M13.6708 3.67227C14.1871 3.37892 14.7886 3.27207 15.3743 3.36966C15.96 3.46724 16.4944 3.76332 16.8877 4.20821C16.8889 4.20959 16.8901 4.21098 16.8913 4.21238C17.2859 4.6647 17.5 5.24114 17.5 5.83514C17.5 6.73828 16.996 7.36951 16.4772 7.78586C15.9971 8.17121 15.4117 8.44742 14.995 8.64397C14.9761 8.65289 14.9576 8.66165 14.9394 8.67025C14.5405 8.85874 14.4011 8.98472 14.3272 9.09882C14.3148 9.11808 14.302 9.14041 14.2894 9.16681H16.6666C17.1269 9.16681 17.5 9.53991 17.5 10.0001C17.5 10.4604 17.1269 10.8335 16.6666 10.8335H13.3333C12.8731 10.8335 12.5 10.4604 12.5 10.0001C12.5 9.30851 12.5986 8.70224 12.9281 8.19313C13.2589 7.68224 13.7444 7.39155 14.2273 7.16338C14.69 6.94468 15.1146 6.74242 15.434 6.48609C15.7365 6.24328 15.8333 6.04201 15.8333 5.83514C15.8333 5.64339 15.7648 5.45733 15.6371 5.30998C15.4973 5.15283 15.3079 5.04824 15.1004 5.01366C14.8921 4.97895 14.6781 5.01692 14.4944 5.1212C14.3135 5.22424 14.1825 5.38199 14.1171 5.5631C13.9609 5.99599 13.4833 6.22024 13.0504 6.06397C12.6175 5.9077 12.3932 5.43009 12.5495 4.99719C12.7524 4.43504 13.1514 3.96783 13.6703 3.67253L13.6708 3.67227Z" fill="black"/>
</svg>
