<svg width="20" height="20" viewBox="0 0 20 20" fill="none" xmlns="http://www.w3.org/2000/svg">
<path fill-rule="evenodd" clip-rule="evenodd" d="M4.16675 3.33317C3.94573 3.33317 3.73377 3.42097 3.57749 3.57725C3.42121 3.73353 3.33341 3.94549 3.33341 4.1665V14.1665C3.33341 14.8295 3.59681 15.4654 4.06565 15.9343C4.53449 16.4031 5.17037 16.6665 5.83341 16.6665C6.49646 16.6665 7.13234 16.4031 7.60118 15.9343C8.07002 15.4654 8.33341 14.8295 8.33341 14.1665V4.1665C8.33341 3.94549 8.24562 3.73353 8.08934 3.57725C7.93306 3.42097 7.7211 3.33317 7.50008 3.33317H4.16675ZM2.39898 2.39874C2.86782 1.9299 3.50371 1.6665 4.16675 1.6665H7.50008C8.16312 1.6665 8.79901 1.9299 9.26785 2.39874C9.73669 2.86758 10.0001 3.50346 10.0001 4.1665V14.1665C10.0001 15.2716 9.56109 16.3314 8.77969 17.1128C7.99829 17.8942 6.93848 18.3332 5.83341 18.3332C4.72835 18.3332 3.66854 17.8942 2.88714 17.1128C2.10573 16.3314 1.66675 15.2716 1.66675 14.1665V4.1665C1.66675 3.50346 1.93014 2.86758 2.39898 2.39874Z" fill="black"/>
<path fill-rule="evenodd" clip-rule="evenodd" d="M13.0833 10.8333C13.0833 10.3731 13.4564 10 13.9167 10H15.8333C16.4964 10 17.1323 10.2634 17.6011 10.7322C18.0699 11.2011 18.3333 11.837 18.3333 12.5V15.8333C18.3333 16.4964 18.0699 17.1323 17.6011 17.6011C17.1323 18.0699 16.4964 18.3333 15.8333 18.3333H5.83333C5.3731 18.3333 5 17.9602 5 17.5C5 17.0398 5.3731 16.6667 5.83333 16.6667H15.8333C16.0543 16.6667 16.2663 16.5789 16.4226 16.4226C16.5789 16.2663 16.6667 16.0543 16.6667 15.8333V12.5C16.6667 12.279 16.5789 12.067 16.4226 11.9107C16.2663 11.7545 16.0543 11.6667 15.8333 11.6667H13.9167C13.4564 11.6667 13.0833 11.2936 13.0833 10.8333Z" fill="black"/>
<path fill-rule="evenodd" clip-rule="evenodd" d="M5 14.1668C5 13.7066 5.3731 13.3335 5.83333 13.3335H5.84167C6.3019 13.3335 6.675 13.7066 6.675 14.1668C6.675 14.6271 6.3019 15.0002 5.84167 15.0002H5.83333C5.3731 15.0002 5 14.6271 5 14.1668Z" fill="black"/>
<path fill-rule="evenodd" clip-rule="evenodd" d="M12.5015 4.99528C12.3477 4.9951 12.1954 5.02532 12.0533 5.08421C11.9113 5.1431 11.7822 5.2295 11.6737 5.33843L9.756 7.25612C9.43057 7.58156 8.90293 7.58156 8.57749 7.25612C8.25206 6.93069 8.25206 6.40305 8.57749 6.07761L10.4931 4.16197C10.4933 4.16178 10.4935 4.1616 10.4937 4.16141C10.7572 3.89713 11.0703 3.68751 11.4151 3.5446C11.7601 3.40158 12.1299 3.32818 12.5034 3.32862C12.8769 3.32905 13.2466 3.40332 13.5913 3.54715C13.9353 3.69074 14.2477 3.90083 14.5104 4.16536C14.5109 4.1658 14.5113 4.16625 14.5117 4.16669L16.0841 5.73906C16.3534 5.99968 16.5683 6.31115 16.7164 6.65545C16.8656 7.00244 16.944 7.37577 16.9469 7.75349C16.9497 8.13121 16.877 8.50569 16.733 8.85491C16.5894 9.20323 16.3778 9.5194 16.1105 9.78493L8.84068 17.0881C8.51599 17.4143 7.98835 17.4155 7.66217 17.0908C7.33599 16.7661 7.33479 16.2385 7.65948 15.9123L14.9311 8.60729C14.9324 8.606 14.9337 8.60471 14.935 8.60343C15.0455 8.49392 15.1329 8.36343 15.1922 8.21964C15.2515 8.07584 15.2814 7.92164 15.2802 7.76611C15.2791 7.61058 15.2468 7.45686 15.1853 7.31398C15.1239 7.17109 15.0345 7.04195 14.9224 6.93412C14.9185 6.93038 14.9146 6.9266 14.9108 6.92279L13.3308 5.34279C13.33 5.34199 13.3292 5.34118 13.3284 5.34037C13.2201 5.23119 13.0913 5.14449 12.9494 5.08527C12.8075 5.02604 12.6552 4.99546 12.5015 4.99528Z" fill="black"/>
</svg>
