<svg width="20" height="20" viewBox="0 0 20 20" fill="none" xmlns="http://www.w3.org/2000/svg">
<path fill-rule="evenodd" clip-rule="evenodd" d="M7.5 2.49984C7.5 2.0396 7.8731 1.6665 8.33333 1.6665H15C15.4602 1.6665 15.8333 2.0396 15.8333 2.49984C15.8333 2.96007 15.4602 3.33317 15 3.33317H9.16667V17.4998C9.16667 17.9601 8.79357 18.3332 8.33333 18.3332C7.8731 18.3332 7.5 17.9601 7.5 17.4998V2.49984Z" fill="black"/>
<path fill-rule="evenodd" clip-rule="evenodd" d="M4.16675 13.3333C4.16675 12.8731 4.53984 12.5 5.00008 12.5H12.5001C12.9603 12.5 13.3334 12.8731 13.3334 13.3333C13.3334 13.7936 12.9603 14.1667 12.5001 14.1667H5.00008C4.53984 14.1667 4.16675 13.7936 4.16675 13.3333Z" fill="black"/>
<path fill-rule="evenodd" clip-rule="evenodd" d="M7.5 7.91683C7.5 7.45659 7.8731 7.0835 8.33333 7.0835H14.1667C14.6269 7.0835 15 7.45659 15 7.91683C15 8.37707 14.6269 8.75016 14.1667 8.75016H8.33333C7.8731 8.75016 7.5 8.37707 7.5 7.91683Z" fill="black"/>
</svg>
