<svg width="20" height="20" viewBox="0 0 20 20" fill="none" xmlns="http://www.w3.org/2000/svg">
<g clip-path="url(#clip0_2001_10497)">
<path fill-rule="evenodd" clip-rule="evenodd" d="M3.33325 5.00016C3.11224 5.00016 2.90028 5.08796 2.744 5.24424C2.58772 5.40052 2.49992 5.61248 2.49992 5.8335V14.1668C2.49992 14.3878 2.58772 14.5998 2.744 14.7561C2.90028 14.9124 3.11224 15.0002 3.33325 15.0002H9.16659C9.62682 15.0002 9.99992 15.3733 9.99992 15.8335C9.99992 16.2937 9.62682 16.6668 9.16659 16.6668H3.33325C2.67021 16.6668 2.03433 16.4034 1.56549 15.9346C1.09664 15.4658 0.833252 14.8299 0.833252 14.1668V5.8335C0.833252 5.17045 1.09664 4.53457 1.56549 4.06573C2.03433 3.59689 2.67021 3.3335 3.33325 3.3335H7.49992C7.96016 3.3335 8.33325 3.70659 8.33325 4.16683C8.33325 4.62707 7.96016 5.00016 7.49992 5.00016H3.33325Z" fill="black"/>
<path fill-rule="evenodd" clip-rule="evenodd" d="M10 4.16683C10 3.70659 10.3731 3.3335 10.8333 3.3335H16.6667C17.3297 3.3335 17.9656 3.59689 18.4344 4.06573C18.9033 4.53457 19.1667 5.17045 19.1667 5.8335V14.1668C19.1667 14.8299 18.9033 15.4658 18.4344 15.9346C17.9656 16.4034 17.3297 16.6668 16.6667 16.6668H12.5C12.0398 16.6668 11.6667 16.2937 11.6667 15.8335C11.6667 15.3733 12.0398 15.0002 12.5 15.0002H16.6667C16.8877 15.0002 17.0996 14.9124 17.2559 14.7561C17.4122 14.5998 17.5 14.3878 17.5 14.1668V5.8335C17.5 5.61248 17.4122 5.40052 17.2559 5.24424C17.0996 5.08796 16.8877 5.00016 16.6667 5.00016H10.8333C10.3731 5.00016 10 4.62707 10 4.16683Z" fill="black"/>
<path fill-rule="evenodd" clip-rule="evenodd" d="M10.0001 8.33317C9.07961 8.33317 8.33341 9.07936 8.33341 9.99984C8.33341 10.9203 9.07961 11.6665 10.0001 11.6665C10.9206 11.6665 11.6667 10.9203 11.6667 9.99984C11.6667 9.07936 10.9206 8.33317 10.0001 8.33317ZM6.66675 9.99984C6.66675 8.15889 8.15913 6.6665 10.0001 6.6665C11.841 6.6665 13.3334 8.15889 13.3334 9.99984C13.3334 11.8408 11.841 13.3332 10.0001 13.3332C8.15913 13.3332 6.66675 11.8408 6.66675 9.99984Z" fill="black"/>
<path fill-rule="evenodd" clip-rule="evenodd" d="M15.5893 12.7441C15.9148 13.0695 15.9148 13.5972 15.5893 13.9226L13.6786 15.8333L15.5893 17.7441C15.9148 18.0695 15.9148 18.5972 15.5893 18.9226C15.2639 19.248 14.7363 19.248 14.4108 18.9226L11.9108 16.4226C11.5854 16.0972 11.5854 15.5695 11.9108 15.2441L14.4108 12.7441C14.7363 12.4186 15.2639 12.4186 15.5893 12.7441Z" fill="black"/>
<path fill-rule="evenodd" clip-rule="evenodd" d="M4.41083 1.07757C4.73626 0.752137 5.2639 0.752137 5.58934 1.07757L8.08934 3.57757C8.41477 3.90301 8.41477 4.43065 8.08934 4.75608L5.58934 7.25608C5.2639 7.58152 4.73626 7.58152 4.41083 7.25608C4.08539 6.93065 4.08539 6.40301 4.41083 6.07757L6.32157 4.16683L4.41083 2.25609C4.08539 1.93065 4.08539 1.40301 4.41083 1.07757Z" fill="black"/>
</g>
<defs>
<clipPath id="clip0_2001_10497">
<rect width="20" height="20" fill="white"/>
</clipPath>
</defs>
</svg>
