<svg width="20" height="20" viewBox="0 0 20 20" fill="none" xmlns="http://www.w3.org/2000/svg">
<path fill-rule="evenodd" clip-rule="evenodd" d="M1.66675 2.49984C1.66675 2.0396 2.03984 1.6665 2.50008 1.6665H5.00008C5.2211 1.6665 5.43306 1.7543 5.58934 1.91058L15.1727 11.4939C15.4981 11.8194 15.4981 12.347 15.1727 12.6724C14.8472 12.9979 14.3196 12.9979 13.9942 12.6724L4.6549 3.33317H3.33341V4.65466L12.6727 13.9939C12.9981 14.3194 12.9981 14.847 12.6727 15.1724C12.3472 15.4979 11.8196 15.4979 11.4942 15.1724L1.91083 5.58909C1.75455 5.43281 1.66675 5.22085 1.66675 4.99984V2.49984Z" fill="black"/>
<path fill-rule="evenodd" clip-rule="evenodd" d="M16.4226 10.2441C16.748 10.5695 16.748 11.0972 16.4226 11.4226L11.4226 16.4226C11.0972 16.748 10.5695 16.748 10.2441 16.4226C9.91864 16.0972 9.91864 15.5695 10.2441 15.2441L15.2441 10.2441C15.5695 9.91864 16.0972 9.91864 16.4226 10.2441Z" fill="black"/>
<path fill-rule="evenodd" clip-rule="evenodd" d="M12.7441 12.7441C13.0695 12.4186 13.5972 12.4186 13.9226 12.7441L17.2559 16.0774C17.5814 16.4028 17.5814 16.9305 17.2559 17.2559C16.9305 17.5814 16.4028 17.5814 16.0774 17.2559L12.7441 13.9226C12.4186 13.5972 12.4186 13.0695 12.7441 12.7441Z" fill="black"/>
<path fill-rule="evenodd" clip-rule="evenodd" d="M18.0893 15.2441C18.4147 15.5695 18.4147 16.0972 18.0893 16.4226L16.4226 18.0893C16.0972 18.4147 15.5695 18.4147 15.2441 18.0893C14.9186 17.7638 14.9186 17.2362 15.2441 16.9107L16.9107 15.2441C17.2362 14.9186 17.7638 14.9186 18.0893 15.2441Z" fill="black"/>
</svg>
