<svg width="20" height="20" viewBox="0 0 20 20" fill="none" xmlns="http://www.w3.org/2000/svg">
<path fill-rule="evenodd" clip-rule="evenodd" d="M1.66675 2.49984C1.66675 2.0396 2.03984 1.6665 2.50008 1.6665H5.00008C5.2211 1.6665 5.43306 1.7543 5.58934 1.91058L15.1727 11.4939C15.4981 11.8194 15.4981 12.347 15.1727 12.6724C14.8472 12.9979 14.3196 12.9979 13.9942 12.6724L4.6549 3.33317H3.33341V4.65466L12.6727 13.9939C12.9981 14.3194 12.9981 14.847 12.6727 15.1724C12.3472 15.4979 11.8196 15.4979 11.4942 15.1724L1.91083 5.58909C1.75455 5.43281 1.66675 5.22085 1.66675 4.99984V2.49984Z" fill="black"/>
<path fill-rule="evenodd" clip-rule="evenodd" d="M16.4226 10.2441C16.748 10.5695 16.748 11.0972 16.4226 11.4226L11.4226 16.4226C11.0972 16.748 10.5695 16.748 10.2441 16.4226C9.91864 16.0972 9.91864 15.5695 10.2441 15.2441L15.2441 10.2441C15.5695 9.91864 16.0972 9.91864 16.4226 10.2441Z" fill="black"/>
<path fill-rule="evenodd" clip-rule="evenodd" d="M12.7441 12.7441C13.0695 12.4186 13.5972 12.4186 13.9226 12.7441L17.2559 16.0774C17.5814 16.4028 17.5814 16.9305 17.2559 17.2559C16.9305 17.5814 16.4028 17.5814 16.0774 17.2559L12.7441 13.9226C12.4186 13.5972 12.4186 13.0695 12.7441 12.7441Z" fill="black"/>
<path fill-rule="evenodd" clip-rule="evenodd" d="M18.0893 15.2441C18.4147 15.5695 18.4147 16.0972 18.0893 16.4226L16.4226 18.0893C16.0972 18.4147 15.5695 18.4147 15.2441 18.0893C14.9186 17.7638 14.9186 17.2362 15.2441 16.9107L16.9107 15.2441C17.2362 14.9186 17.7638 14.9186 18.0893 15.2441Z" fill="black"/>
<path fill-rule="evenodd" clip-rule="evenodd" d="M14.4107 1.91058C14.567 1.7543 14.779 1.6665 15 1.6665H17.5C17.9602 1.6665 18.3333 2.0396 18.3333 2.49984V4.99984C18.3333 5.22085 18.2455 5.43281 18.0893 5.58909L15.1726 8.50576C14.8472 8.8312 14.3195 8.8312 13.9941 8.50576C13.6686 8.18032 13.6686 7.65269 13.9941 7.32725L16.6667 4.65466V3.33317H15.3452L12.6726 6.00576C12.3472 6.3312 11.8195 6.3312 11.4941 6.00576C11.1686 5.68032 11.1686 5.15269 11.4941 4.82725L14.4107 1.91058Z" fill="black"/>
<path fill-rule="evenodd" clip-rule="evenodd" d="M3.57733 11.0776C3.90277 10.7521 4.4304 10.7521 4.75584 11.0776L8.08917 14.4109C8.41461 14.7363 8.41461 15.264 8.08917 15.5894C7.76374 15.9149 7.2361 15.9149 6.91066 15.5894L3.57733 12.2561C3.25189 11.9306 3.25189 11.403 3.57733 11.0776Z" fill="black"/>
<path fill-rule="evenodd" clip-rule="evenodd" d="M6.42259 13.5776C6.74803 13.903 6.74803 14.4306 6.42259 14.7561L3.92259 17.2561C3.59715 17.5815 3.06951 17.5815 2.74408 17.2561C2.41864 16.9306 2.41864 16.403 2.74408 16.0776L5.24408 13.5776C5.56951 13.2521 6.09715 13.2521 6.42259 13.5776Z" fill="black"/>
<path fill-rule="evenodd" clip-rule="evenodd" d="M1.91083 15.2441C2.23626 14.9186 2.7639 14.9186 3.08934 15.2441L4.756 16.9107C5.08144 17.2362 5.08144 17.7638 4.756 18.0893C4.43057 18.4147 3.90293 18.4147 3.57749 18.0893L1.91083 16.4226C1.58539 16.0972 1.58539 15.5695 1.91083 15.2441Z" fill="black"/>
</svg>
