<svg width="20" height="20" viewBox="0 0 20 20" fill="none" xmlns="http://www.w3.org/2000/svg">
<g clip-path="url(#clip0_2001_10517)">
<path fill-rule="evenodd" clip-rule="evenodd" d="M14.4108 1.07757C14.7363 0.752137 15.2639 0.752137 15.5893 1.07757L18.9227 4.41091C19.2481 4.73634 19.2481 5.26398 18.9227 5.58942C18.5972 5.91486 18.0696 5.91486 17.7442 5.58942L14.4108 2.25609C14.0854 1.93065 14.0854 1.40301 14.4108 1.07757Z" fill="black"/>
<path fill-rule="evenodd" clip-rule="evenodd" d="M17.2558 2.74408C17.5813 3.06951 17.5813 3.59715 17.2558 3.92259L14.7558 6.42259C14.4304 6.74803 13.9028 6.74803 13.5773 6.42259C13.2519 6.09715 13.2519 5.56951 13.5773 5.24408L16.0773 2.74408C16.4028 2.41864 16.9304 2.41864 17.2558 2.74408Z" fill="black"/>
<path fill-rule="evenodd" clip-rule="evenodd" d="M13.0892 3.57757C13.4146 3.90301 13.4146 4.43065 13.0892 4.75609L4.50585 13.3394C4.49552 13.3497 4.48492 13.3598 4.47407 13.3696C4.02676 13.7721 3.97974 14.4681 4.50585 14.9942L5.00585 15.4942C5.01618 15.5046 5.02623 15.5152 5.03601 15.526C5.43858 15.9733 6.13456 16.0204 6.66067 15.4942L15.244 6.91091C15.5694 6.58547 16.0971 6.58547 16.4225 6.91091C16.748 7.23634 16.748 7.76398 16.4225 8.08942L7.83918 16.6728C6.70414 17.8078 4.91202 17.8599 3.81314 16.6585L3.32734 16.1728C2.19229 15.0377 2.14024 13.2456 3.34155 12.1467L11.9107 3.57757C12.2361 3.25214 12.7637 3.25214 13.0892 3.57757Z" fill="black"/>
<path fill-rule="evenodd" clip-rule="evenodd" d="M6.91083 8.57757C7.23626 8.25214 7.7639 8.25214 8.08934 8.57757L11.4227 11.9109C11.7481 12.2363 11.7481 12.764 11.4227 13.0894C11.0972 13.4149 10.5696 13.4149 10.2442 13.0894L6.91083 9.75609C6.58539 9.43065 6.58539 8.90301 6.91083 8.57757Z" fill="black"/>
<path fill-rule="evenodd" clip-rule="evenodd" d="M4.75584 15.2441C5.08128 15.5695 5.08128 16.0972 4.75584 16.4226L2.25584 18.9226C1.9304 19.248 1.40277 19.248 1.07733 18.9226C0.751893 18.5972 0.751893 18.0695 1.07733 17.7441L3.57733 15.2441C3.90277 14.9186 4.4304 14.9186 4.75584 15.2441Z" fill="black"/>
<path fill-rule="evenodd" clip-rule="evenodd" d="M11.0773 2.74408C11.4028 2.41864 11.9304 2.41864 12.2558 2.74408L17.2558 7.74408C17.5813 8.06951 17.5813 8.59715 17.2558 8.92259C16.9304 9.24803 16.4028 9.24803 16.0773 8.92259L11.0773 3.92259C10.7519 3.59715 10.7519 3.06951 11.0773 2.74408Z" fill="black"/>
</g>
<defs>
<clipPath id="clip0_2001_10517">
<rect width="20" height="20" fill="white"/>
</clipPath>
</defs>
</svg>
