<svg width="20" height="20" viewBox="0 0 20 20" fill="none" xmlns="http://www.w3.org/2000/svg">
<path fill-rule="evenodd" clip-rule="evenodd" d="M2.39898 2.39874C2.86782 1.9299 3.50371 1.6665 4.16675 1.6665H15.8334C16.4965 1.6665 17.1323 1.9299 17.6012 2.39874C18.07 2.86758 18.3334 3.50346 18.3334 4.1665V15.8332C18.3334 16.4962 18.07 17.1321 17.6012 17.6009C17.1323 18.0698 16.4965 18.3332 15.8334 18.3332H4.16675C3.50371 18.3332 2.86782 18.0698 2.39898 17.6009C1.93014 17.1321 1.66675 16.4962 1.66675 15.8332V4.1665C1.66675 3.50346 1.93014 2.86758 2.39898 2.39874ZM4.16675 3.33317C3.94573 3.33317 3.73377 3.42097 3.57749 3.57725C3.42121 3.73353 3.33341 3.94549 3.33341 4.1665V6.6665H6.66675V3.33317H4.16675ZM8.33341 3.33317V6.6665H16.6667V4.1665C16.6667 3.94549 16.5789 3.73353 16.4227 3.57725C16.2664 3.42097 16.0544 3.33317 15.8334 3.33317H8.33341ZM16.6667 8.33317H8.33341V16.6665H15.8334C16.0544 16.6665 16.2664 16.5787 16.4227 16.4224C16.5789 16.2661 16.6667 16.0542 16.6667 15.8332V8.33317ZM6.66675 16.6665V8.33317H3.33341V15.8332C3.33341 16.0542 3.42121 16.2661 3.57749 16.4224C3.73377 16.5787 3.94573 16.6665 4.16675 16.6665H6.66675Z" fill="black"/>
</svg>
