<svg width="20" height="20" viewBox="0 0 20 20" fill="none" xmlns="http://www.w3.org/2000/svg">
<path fill-rule="evenodd" clip-rule="evenodd" d="M1.66675 9.99984C1.66675 9.5396 2.03984 9.1665 2.50008 9.1665H13.3334C13.7937 9.1665 14.1667 9.5396 14.1667 9.99984C14.1667 10.4601 13.7937 10.8332 13.3334 10.8332H2.50008C2.03984 10.8332 1.66675 10.4601 1.66675 9.99984Z" fill="black"/>
<path fill-rule="evenodd" clip-rule="evenodd" d="M1.66675 14.9998C1.66675 14.5396 2.03984 14.1665 2.50008 14.1665H13.3334C13.7937 14.1665 14.1667 14.5396 14.1667 14.9998C14.1667 15.4601 13.7937 15.8332 13.3334 15.8332H2.50008C2.03984 15.8332 1.66675 15.4601 1.66675 14.9998Z" fill="black"/>
<path fill-rule="evenodd" clip-rule="evenodd" d="M1.66675 4.99984C1.66675 4.5396 2.03984 4.1665 2.50008 4.1665H13.3334C13.7937 4.1665 14.1667 4.5396 14.1667 4.99984C14.1667 5.46007 13.7937 5.83317 13.3334 5.83317H2.50008C2.03984 5.83317 1.66675 5.46007 1.66675 4.99984Z" fill="black"/>
<path fill-rule="evenodd" clip-rule="evenodd" d="M16.6667 9.99984C16.6667 9.5396 17.0398 9.1665 17.5001 9.1665H17.5084C17.9687 9.1665 18.3417 9.5396 18.3417 9.99984C18.3417 10.4601 17.9687 10.8332 17.5084 10.8332H17.5001C17.0398 10.8332 16.6667 10.4601 16.6667 9.99984Z" fill="black"/>
<path fill-rule="evenodd" clip-rule="evenodd" d="M16.6667 14.9998C16.6667 14.5396 17.0398 14.1665 17.5001 14.1665H17.5084C17.9687 14.1665 18.3417 14.5396 18.3417 14.9998C18.3417 15.4601 17.9687 15.8332 17.5084 15.8332H17.5001C17.0398 15.8332 16.6667 15.4601 16.6667 14.9998Z" fill="black"/>
<path fill-rule="evenodd" clip-rule="evenodd" d="M16.6667 4.99984C16.6667 4.5396 17.0398 4.1665 17.5001 4.1665H17.5084C17.9687 4.1665 18.3417 4.5396 18.3417 4.99984C18.3417 5.46007 17.9687 5.83317 17.5084 5.83317H17.5001C17.0398 5.83317 16.6667 5.46007 16.6667 4.99984Z" fill="black"/>
</svg>
