<svg width="20" height="20" viewBox="0 0 20 20" fill="none" xmlns="http://www.w3.org/2000/svg">
<g clip-path="url(#clip0_2001_10537)">
<path fill-rule="evenodd" clip-rule="evenodd" d="M11.6666 10.8335C12.1268 10.8335 12.4999 11.2066 12.4999 11.6668V13.3335C12.4999 13.7937 12.1268 14.1668 11.6666 14.1668C11.2063 14.1668 10.8333 13.7937 10.8333 13.3335V11.6668C10.8333 11.2066 11.2063 10.8335 11.6666 10.8335Z" fill="black"/>
<path fill-rule="evenodd" clip-rule="evenodd" d="M11.6666 15.8335C12.1268 15.8335 12.4999 16.2066 12.4999 16.6668V18.3335C12.4999 18.7937 12.1268 19.1668 11.6666 19.1668C11.2063 19.1668 10.8333 18.7937 10.8333 18.3335V16.6668C10.8333 16.2066 11.2063 15.8335 11.6666 15.8335Z" fill="black"/>
<path fill-rule="evenodd" clip-rule="evenodd" d="M11.6666 0.833496C12.1268 0.833496 12.4999 1.20659 12.4999 1.66683V3.3335C12.4999 3.79373 12.1268 4.16683 11.6666 4.16683C11.2063 4.16683 10.8333 3.79373 10.8333 3.3335V1.66683C10.8333 1.20659 11.2063 0.833496 11.6666 0.833496Z" fill="black"/>
<path fill-rule="evenodd" clip-rule="evenodd" d="M11.6666 5.8335C12.1268 5.8335 12.4999 6.20659 12.4999 6.66683V8.3335C12.4999 8.79373 12.1268 9.16683 11.6666 9.16683C11.2063 9.16683 10.8333 8.79373 10.8333 8.3335V6.66683C10.8333 6.20659 11.2063 5.8335 11.6666 5.8335Z" fill="black"/>
<path fill-rule="evenodd" clip-rule="evenodd" d="M0.833252 12.4998C0.833252 12.0396 1.20635 11.6665 1.66659 11.6665H8.33325C8.79349 11.6665 9.16658 12.0396 9.16658 12.4998C9.16658 12.9601 8.79349 13.3332 8.33325 13.3332H1.66659C1.20635 13.3332 0.833252 12.9601 0.833252 12.4998Z" fill="black"/>
<path fill-rule="evenodd" clip-rule="evenodd" d="M0.833252 2.49984C0.833252 2.0396 1.20635 1.6665 1.66659 1.6665H6.66658C7.32963 1.6665 7.96551 1.9299 8.43435 2.39874C8.90319 2.86758 9.16658 3.50346 9.16658 4.1665V15.8332C9.16658 16.4962 8.90319 17.1321 8.43435 17.6009C7.96551 18.0698 7.32963 18.3332 6.66658 18.3332H1.66659C1.20635 18.3332 0.833252 17.9601 0.833252 17.4998C0.833252 17.0396 1.20635 16.6665 1.66659 16.6665H6.66658C6.8876 16.6665 7.09956 16.5787 7.25584 16.4224C7.41212 16.2661 7.49992 16.0542 7.49992 15.8332V4.1665C7.49992 3.94549 7.41212 3.73353 7.25584 3.57725C7.09956 3.42097 6.8876 3.33317 6.66658 3.33317H1.66659C1.20635 3.33317 0.833252 2.96007 0.833252 2.49984Z" fill="black"/>
<path fill-rule="evenodd" clip-rule="evenodd" d="M0.833252 7.49984C0.833252 7.0396 1.20635 6.6665 1.66659 6.6665H8.33325C8.79349 6.6665 9.16658 7.0396 9.16658 7.49984C9.16658 7.96007 8.79349 8.33317 8.33325 8.33317H1.66659C1.20635 8.33317 0.833252 7.96007 0.833252 7.49984Z" fill="black"/>
<path fill-rule="evenodd" clip-rule="evenodd" d="M14.1667 12.4998C14.1667 12.0396 14.5398 11.6665 15.0001 11.6665H18.3334C18.7937 11.6665 19.1667 12.0396 19.1667 12.4998C19.1667 12.9601 18.7937 13.3332 18.3334 13.3332H15.0001C14.5398 13.3332 14.1667 12.9601 14.1667 12.4998Z" fill="black"/>
<path fill-rule="evenodd" clip-rule="evenodd" d="M14.899 2.39874C15.3678 1.9299 16.0037 1.6665 16.6667 1.6665H18.3334C18.7937 1.6665 19.1667 2.0396 19.1667 2.49984C19.1667 2.96007 18.7937 3.33317 18.3334 3.33317H16.6667C16.4457 3.33317 16.2338 3.42097 16.0775 3.57725C15.9212 3.73353 15.8334 3.94549 15.8334 4.1665V15.8332C15.8334 16.0542 15.9212 16.2661 16.0775 16.4224C16.2338 16.5787 16.4457 16.6665 16.6667 16.6665H18.3334C18.7937 16.6665 19.1667 17.0396 19.1667 17.4998C19.1667 17.9601 18.7937 18.3332 18.3334 18.3332H16.6667C16.0037 18.3332 15.3678 18.0698 14.899 17.6009C14.4301 17.1321 14.1667 16.4962 14.1667 15.8332V4.1665C14.1667 3.50346 14.4301 2.86758 14.899 2.39874Z" fill="black"/>
<path fill-rule="evenodd" clip-rule="evenodd" d="M14.1667 7.49984C14.1667 7.0396 14.5398 6.6665 15.0001 6.6665H18.3334C18.7937 6.6665 19.1667 7.0396 19.1667 7.49984C19.1667 7.96007 18.7937 8.33317 18.3334 8.33317H15.0001C14.5398 8.33317 14.1667 7.96007 14.1667 7.49984Z" fill="black"/>
<path fill-rule="evenodd" clip-rule="evenodd" d="M4.16659 1.6665C4.62682 1.6665 4.99992 2.0396 4.99992 2.49984V17.4998C4.99992 17.9601 4.62682 18.3332 4.16659 18.3332C3.70635 18.3332 3.33325 17.9601 3.33325 17.4998V2.49984C3.33325 2.0396 3.70635 1.6665 4.16659 1.6665Z" fill="black"/>
</g>
<defs>
<clipPath id="clip0_2001_10537">
<rect width="20" height="20" fill="white"/>
</clipPath>
</defs>
</svg>
