<svg width="20" height="20" viewBox="0 0 20 20" fill="none" xmlns="http://www.w3.org/2000/svg">
<path fill-rule="evenodd" clip-rule="evenodd" d="M5 2.50016C4.53976 2.50016 4.16667 2.87326 4.16667 3.3335V16.6668C4.16667 17.1271 4.53976 17.5002 5 17.5002H15C15.4602 17.5002 15.8333 17.1271 15.8333 16.6668V3.3335C15.8333 2.87326 15.4602 2.50016 15 2.50016H5ZM2.5 3.3335C2.5 1.95278 3.61929 0.833496 5 0.833496H15C16.3807 0.833496 17.5 1.95278 17.5 3.3335V16.6668C17.5 18.0475 16.3807 19.1668 15 19.1668H5C3.61929 19.1668 2.5 18.0475 2.5 16.6668V3.3335Z" fill="black"/>
<path fill-rule="evenodd" clip-rule="evenodd" d="M9.16675 14.9998C9.16675 14.5396 9.53984 14.1665 10.0001 14.1665H10.0084C10.4687 14.1665 10.8417 14.5396 10.8417 14.9998C10.8417 15.4601 10.4687 15.8332 10.0084 15.8332H10.0001C9.53984 15.8332 9.16675 15.4601 9.16675 14.9998Z" fill="black"/>
</svg>
