<svg width="20" height="20" viewBox="0 0 20 20" fill="none" xmlns="http://www.w3.org/2000/svg">
<path fill-rule="evenodd" clip-rule="evenodd" d="M10.0001 1.6665C10.4603 1.6665 10.8334 2.0396 10.8334 2.49984V17.4998C10.8334 17.9601 10.4603 18.3332 10.0001 18.3332C9.53984 18.3332 9.16675 17.9601 9.16675 17.4998V2.49984C9.16675 2.0396 9.53984 1.6665 10.0001 1.6665Z" fill="black"/>
<path fill-rule="evenodd" clip-rule="evenodd" d="M4.16675 3.33317C3.70651 3.33317 3.33341 3.70627 3.33341 4.1665V15.8332C3.33341 16.2934 3.70651 16.6665 4.16675 16.6665H15.8334C16.2937 16.6665 16.6667 16.2934 16.6667 15.8332V4.1665C16.6667 3.70627 16.2937 3.33317 15.8334 3.33317H4.16675ZM1.66675 4.1665C1.66675 2.78579 2.78604 1.6665 4.16675 1.6665H15.8334C17.2141 1.6665 18.3334 2.78579 18.3334 4.1665V15.8332C18.3334 17.2139 17.2141 18.3332 15.8334 18.3332H4.16675C2.78604 18.3332 1.66675 17.2139 1.66675 15.8332V4.1665Z" fill="black"/>
<path fill-rule="evenodd" clip-rule="evenodd" d="M1.66675 7.49984C1.66675 7.0396 2.03984 6.6665 2.50008 6.6665H17.5001C17.9603 6.6665 18.3334 7.0396 18.3334 7.49984C18.3334 7.96007 17.9603 8.33317 17.5001 8.33317H2.50008C2.03984 8.33317 1.66675 7.96007 1.66675 7.49984Z" fill="black"/>
<path fill-rule="evenodd" clip-rule="evenodd" d="M1.66675 12.4998C1.66675 12.0396 2.03984 11.6665 2.50008 11.6665H17.5001C17.9603 11.6665 18.3334 12.0396 18.3334 12.4998C18.3334 12.9601 17.9603 13.3332 17.5001 13.3332H2.50008C2.03984 13.3332 1.66675 12.9601 1.66675 12.4998Z" fill="black"/>
</svg>
