<svg width="20" height="20" viewBox="0 0 20 20" fill="none" xmlns="http://www.w3.org/2000/svg">
<g clip-path="url(#clip0_2001_10585)">
<path fill-rule="evenodd" clip-rule="evenodd" d="M5.83325 2.50016C3.9923 2.50016 2.49992 3.99255 2.49992 5.8335C2.49992 7.67445 3.9923 9.16683 5.83325 9.16683C7.6742 9.16683 9.16659 7.67445 9.16659 5.8335C9.16659 3.99255 7.6742 2.50016 5.83325 2.50016ZM0.833252 5.8335C0.833252 3.07207 3.07183 0.833496 5.83325 0.833496C8.59468 0.833496 10.8333 3.07207 10.8333 5.8335C10.8333 8.59492 8.59468 10.8335 5.83325 10.8335C3.07183 10.8335 0.833252 8.59492 0.833252 5.8335Z" fill="black"/>
<path fill-rule="evenodd" clip-rule="evenodd" d="M14.1667 10.8332C12.3258 10.8332 10.8334 12.3256 10.8334 14.1665C10.8334 16.0075 12.3258 17.4998 14.1667 17.4998C16.0077 17.4998 17.5001 16.0075 17.5001 14.1665C17.5001 12.3256 16.0077 10.8332 14.1667 10.8332ZM9.16675 14.1665C9.16675 11.4051 11.4053 9.1665 14.1667 9.1665C16.9282 9.1665 19.1667 11.4051 19.1667 14.1665C19.1667 16.9279 16.9282 19.1665 14.1667 19.1665C11.4053 19.1665 9.16675 16.9279 9.16675 14.1665Z" fill="black"/>
<path fill-rule="evenodd" clip-rule="evenodd" d="M9.16675 14.1668C9.16675 13.7066 9.53984 13.3335 10.0001 13.3335H18.3334C18.7937 13.3335 19.1667 13.7066 19.1667 14.1668C19.1667 14.6271 18.7937 15.0002 18.3334 15.0002H10.0001C9.53984 15.0002 9.16675 14.6271 9.16675 14.1668Z" fill="black"/>
<path fill-rule="evenodd" clip-rule="evenodd" d="M9.37264 2.29388C9.69807 2.61932 9.69807 3.14696 9.37264 3.47239L3.47264 9.37239C3.1472 9.69783 2.61956 9.69783 2.29413 9.37239C1.96869 9.04696 1.96869 8.51932 2.29413 8.19388L8.19413 2.29388C8.51956 1.96845 9.0472 1.96845 9.37264 2.29388Z" fill="black"/>
</g>
<defs>
<clipPath id="clip0_2001_10585">
<rect width="20" height="20" fill="white"/>
</clipPath>
</defs>
</svg>
