<svg width="20" height="20" viewBox="0 0 20 20" fill="none" xmlns="http://www.w3.org/2000/svg">
<g clip-path="url(#clip0_2001_10561)">
<path fill-rule="evenodd" clip-rule="evenodd" d="M10.8333 8.33333C10.8333 7.8731 11.2063 7.5 11.6666 7.5H13.3333C13.7935 7.5 14.1666 7.8731 14.1666 8.33333C14.1666 8.79357 13.7935 9.16667 13.3333 9.16667H11.6666C11.2063 9.16667 10.8333 8.79357 10.8333 8.33333Z" fill="black"/>
<path fill-rule="evenodd" clip-rule="evenodd" d="M12.5001 10.8335C12.9603 10.8335 13.3334 11.2066 13.3334 11.6668V18.3335C13.3334 18.7937 12.9603 19.1668 12.5001 19.1668C12.0398 19.1668 11.6667 18.7937 11.6667 18.3335V11.6668C11.6667 11.2066 12.0398 10.8335 12.5001 10.8335Z" fill="black"/>
<path fill-rule="evenodd" clip-rule="evenodd" d="M12.5001 0.833496C12.9603 0.833496 13.3334 1.20659 13.3334 1.66683V5.00016C13.3334 5.4604 12.9603 5.8335 12.5001 5.8335C12.0398 5.8335 11.6667 5.4604 11.6667 5.00016V1.66683C11.6667 1.20659 12.0398 0.833496 12.5001 0.833496Z" fill="black"/>
<path fill-rule="evenodd" clip-rule="evenodd" d="M0.833252 8.33333C0.833252 7.8731 1.20635 7.5 1.66659 7.5H3.33325C3.79349 7.5 4.16658 7.8731 4.16658 8.33333C4.16658 8.79357 3.79349 9.16667 3.33325 9.16667H1.66659C1.20635 9.16667 0.833252 8.79357 0.833252 8.33333Z" fill="black"/>
<path fill-rule="evenodd" clip-rule="evenodd" d="M15.8333 8.33333C15.8333 7.8731 16.2063 7.5 16.6666 7.5H18.3333C18.7935 7.5 19.1666 7.8731 19.1666 8.33333C19.1666 8.79357 18.7935 9.16667 18.3333 9.16667H16.6666C16.2063 9.16667 15.8333 8.79357 15.8333 8.33333Z" fill="black"/>
<path fill-rule="evenodd" clip-rule="evenodd" d="M1.66675 15.8333C1.66675 15.3731 2.03984 15 2.50008 15H17.5001C17.9603 15 18.3334 15.3731 18.3334 15.8333C18.3334 16.2936 17.9603 16.6667 17.5001 16.6667H2.50008C2.03984 16.6667 1.66675 16.2936 1.66675 15.8333Z" fill="black"/>
<path fill-rule="evenodd" clip-rule="evenodd" d="M4.16675 12.5002C4.05731 12.5002 3.94895 12.5217 3.84784 12.5636C3.74674 12.6055 3.65488 12.6669 3.57749 12.7442C3.50011 12.8216 3.43873 12.9135 3.39685 13.0146C3.35497 13.1157 3.33341 13.2241 3.33341 13.3335V18.3335C3.33341 18.7937 2.96032 19.1668 2.50008 19.1668C2.03984 19.1668 1.66675 18.7937 1.66675 18.3335V13.3335C1.66675 13.0052 1.73141 12.6801 1.85705 12.3768C1.98269 12.0735 2.16683 11.7979 2.39898 11.5657C2.63113 11.3336 2.90672 11.1494 3.21004 11.0238C3.51335 10.8982 3.83844 10.8335 4.16675 10.8335H15.8334C16.1617 10.8335 16.4868 10.8982 16.7901 11.0238C17.0934 11.1494 17.369 11.3336 17.6012 11.5657C17.8333 11.7979 18.0175 12.0735 18.1431 12.3768C18.2687 12.6801 18.3334 13.0052 18.3334 13.3335V18.3335C18.3334 18.7937 17.9603 19.1668 17.5001 19.1668C17.0398 19.1668 16.6667 18.7937 16.6667 18.3335V13.3335C16.6667 13.2241 16.6452 13.1157 16.6033 13.0146C16.5614 12.9135 16.5001 12.8216 16.4227 12.7442C16.3453 12.6669 16.2534 12.6055 16.1523 12.5636C16.0512 12.5217 15.9429 12.5002 15.8334 12.5002H4.16675Z" fill="black"/>
<path fill-rule="evenodd" clip-rule="evenodd" d="M2.50008 0.833496C2.96032 0.833496 3.33341 1.20659 3.33341 1.66683V3.3335C3.33341 3.55451 3.42121 3.76647 3.57749 3.92275C3.73377 4.07903 3.94573 4.16683 4.16675 4.16683H15.8334C16.0544 4.16683 16.2664 4.07903 16.4227 3.92275C16.5789 3.76647 16.6667 3.55451 16.6667 3.3335V1.66683C16.6667 1.20659 17.0398 0.833496 17.5001 0.833496C17.9603 0.833496 18.3334 1.20659 18.3334 1.66683V3.3335C18.3334 3.99654 18.07 4.63242 17.6012 5.10126C17.1323 5.5701 16.4965 5.8335 15.8334 5.8335H4.16675C3.50371 5.8335 2.86782 5.5701 2.39898 5.10126C1.93014 4.63242 1.66675 3.99654 1.66675 3.3335V1.66683C1.66675 1.20659 2.03984 0.833496 2.50008 0.833496Z" fill="black"/>
<path fill-rule="evenodd" clip-rule="evenodd" d="M5.83325 8.33333C5.83325 7.8731 6.20635 7.5 6.66659 7.5H8.33325C8.79349 7.5 9.16658 7.8731 9.16658 8.33333C9.16658 8.79357 8.79349 9.16667 8.33325 9.16667H6.66659C6.20635 9.16667 5.83325 8.79357 5.83325 8.33333Z" fill="black"/>
<path fill-rule="evenodd" clip-rule="evenodd" d="M7.50008 10.8335C7.96032 10.8335 8.33341 11.2066 8.33341 11.6668V18.3335C8.33341 18.7937 7.96032 19.1668 7.50008 19.1668C7.03984 19.1668 6.66675 18.7937 6.66675 18.3335V11.6668C6.66675 11.2066 7.03984 10.8335 7.50008 10.8335Z" fill="black"/>
<path fill-rule="evenodd" clip-rule="evenodd" d="M7.50008 0.833496C7.96032 0.833496 8.33341 1.20659 8.33341 1.66683V5.00016C8.33341 5.4604 7.96032 5.8335 7.50008 5.8335C7.03984 5.8335 6.66675 5.4604 6.66675 5.00016V1.66683C6.66675 1.20659 7.03984 0.833496 7.50008 0.833496Z" fill="black"/>
</g>
<defs>
<clipPath id="clip0_2001_10561">
<rect width="20" height="20" fill="white"/>
</clipPath>
</defs>
</svg>
