<svg width="20" height="20" viewBox="0 0 20 20" fill="none" xmlns="http://www.w3.org/2000/svg">
<path fill-rule="evenodd" clip-rule="evenodd" d="M4.16675 7.50016C3.70651 7.50016 3.33341 7.87326 3.33341 8.3335V16.6668C3.33341 17.1271 3.70651 17.5002 4.16675 17.5002H9.16675C9.62699 17.5002 10.0001 17.1271 10.0001 16.6668V8.3335C10.0001 7.87326 9.62699 7.50016 9.16675 7.50016H4.16675ZM1.66675 8.3335C1.66675 6.95278 2.78604 5.8335 4.16675 5.8335H9.16675C10.5475 5.8335 11.6667 6.95278 11.6667 8.3335V16.6668C11.6667 18.0475 10.5475 19.1668 9.16675 19.1668H4.16675C2.78604 19.1668 1.66675 18.0475 1.66675 16.6668V8.3335Z" fill="black"/>
<path fill-rule="evenodd" clip-rule="evenodd" d="M5.83325 2.50016C5.61224 2.50016 5.40028 2.58796 5.244 2.74424C5.08772 2.90052 4.99992 3.11248 4.99992 3.3335C4.99992 3.79373 4.62682 4.16683 4.16659 4.16683C3.70635 4.16683 3.33325 3.79373 3.33325 3.3335C3.33325 2.67046 3.59664 2.03457 4.06549 1.56573C4.53433 1.09689 5.17021 0.833496 5.83325 0.833496H15.8333C16.4963 0.833496 17.1322 1.09689 17.601 1.56573C18.0699 2.03457 18.3333 2.67045 18.3333 3.3335V16.6668C18.3333 17.3299 18.0699 17.9658 17.601 18.4346C17.1322 18.9034 16.4963 19.1668 15.8333 19.1668H13.8333C13.373 19.1668 12.9999 18.7937 12.9999 18.3335C12.9999 17.8733 13.373 17.5002 13.8333 17.5002H15.8333C16.0543 17.5002 16.2662 17.4124 16.4225 17.2561C16.5788 17.0998 16.6666 16.8878 16.6666 16.6668V3.3335C16.6666 3.11248 16.5788 2.90052 16.4225 2.74424C16.2662 2.58796 16.0543 2.50016 15.8333 2.50016H5.83325Z" fill="black"/>
<path fill-rule="evenodd" clip-rule="evenodd" d="M5.83325 14.9998C5.83325 14.5396 6.20635 14.1665 6.66659 14.1665H6.67492C7.13516 14.1665 7.50825 14.5396 7.50825 14.9998C7.50825 15.4601 7.13516 15.8332 6.67492 15.8332H6.66659C6.20635 15.8332 5.83325 15.4601 5.83325 14.9998Z" fill="black"/>
</svg>
