<svg width="20" height="20" viewBox="0 0 20 20" fill="none" xmlns="http://www.w3.org/2000/svg">
<g clip-path="url(#clip0_2001_10590)">
<path fill-rule="evenodd" clip-rule="evenodd" d="M1.56549 1.56573C2.03433 1.09689 2.67021 0.833496 3.33325 0.833496H9.3101C9.97308 0.833638 10.6089 1.09712 11.0776 1.566L18.3308 8.81924L18.3327 8.82111C18.8642 9.356 19.1625 10.0794 19.1625 10.8335C19.1625 11.5876 18.8642 12.311 18.3327 12.8459L18.3308 12.8478L12.8475 18.3311L12.8456 18.333C12.3108 18.8645 11.5873 19.1628 10.8333 19.1628C10.0792 19.1628 9.35575 18.8645 8.82087 18.333L8.819 18.3311L1.56575 11.0778C1.09688 10.6091 0.833394 9.97333 0.833252 9.31034V3.3335C0.833252 2.67046 1.09664 2.03457 1.56549 1.56573ZM2.15555 10.4879L2.74417 9.89924L9.99564 17.1507C9.9959 17.151 9.99616 17.1512 9.99641 17.1515C10.219 17.3722 10.5198 17.4961 10.8333 17.4961C11.1468 17.4961 11.4476 17.3722 11.6702 17.1514C11.6704 17.1512 11.6706 17.1509 11.6709 17.1507L17.1505 11.6711C17.1507 11.6709 17.1509 11.6706 17.1512 11.6704C17.372 11.4478 17.4959 11.147 17.4959 10.8335C17.4959 10.52 17.372 10.2192 17.1512 9.99666C17.151 9.9964 17.1507 9.99614 17.1505 9.99588L9.899 2.74442L10.4876 2.15579L9.89891 2.74433C9.74271 2.58808 9.53085 2.50026 9.30992 2.50016C9.30986 2.50016 9.3098 2.50016 9.30974 2.50016H3.33325C3.11224 2.50016 2.90028 2.58796 2.744 2.74424C2.58772 2.90052 2.49992 3.11248 2.49992 3.3335V9.30999C2.49992 9.31005 2.49992 9.3101 2.49992 9.31016C2.50001 9.53109 2.58784 9.74295 2.74409 9.89915L2.15555 10.4879Z" fill="black"/>
<path d="M6.24992 6.66683C6.48004 6.66683 6.66659 6.48028 6.66659 6.25016C6.66659 6.02004 6.48004 5.8335 6.24992 5.8335C6.0198 5.8335 5.83325 6.02004 5.83325 6.25016C5.83325 6.48028 6.0198 6.66683 6.24992 6.66683Z" fill="black"/>
<path fill-rule="evenodd" clip-rule="evenodd" d="M6.25 6.66667C6.48012 6.66667 6.66667 6.48012 6.66667 6.25C6.66667 6.01988 6.48012 5.83333 6.25 5.83333C6.01988 5.83333 5.83333 6.01988 5.83333 6.25C5.83333 6.48012 6.01988 6.66667 6.25 6.66667ZM5 6.25C5 5.55964 5.55964 5 6.25 5C6.94036 5 7.5 5.55964 7.5 6.25C7.5 6.94036 6.94036 7.5 6.25 7.5C5.55964 7.5 5 6.94036 5 6.25Z" fill="black"/>
</g>
<defs>
<clipPath id="clip0_2001_10590">
<rect width="20" height="20" fill="white"/>
</clipPath>
</defs>
</svg>
