<svg width="20" height="20" viewBox="0 0 20 20" fill="none" xmlns="http://www.w3.org/2000/svg">
<path fill-rule="evenodd" clip-rule="evenodd" d="M11.9108 3.57757C12.2363 3.25214 12.7639 3.25214 13.0893 3.57757L18.3383 8.82655C18.3385 8.82677 18.3387 8.82698 18.339 8.8272C18.6028 9.09029 18.8122 9.40284 18.955 9.74695C19.098 10.0914 19.1717 10.4606 19.1717 10.8335C19.1717 11.2064 19.098 11.5756 18.955 11.92C18.8122 12.264 18.603 12.5764 18.3393 12.8394L18.3383 12.8404M18.3383 12.8404L14.756 16.4228C14.4306 16.7482 13.9029 16.7482 13.5775 16.4228C13.2521 16.0973 13.2521 15.5697 13.5775 15.2442L17.1618 11.6599C17.2706 11.5515 17.3569 11.4227 17.4158 11.2809C17.4747 11.1391 17.505 10.987 17.505 10.8335C17.505 10.6799 17.4747 10.5279 17.4158 10.3861C17.3569 10.2443 17.2706 10.1155 17.1618 10.0071L11.9108 4.75609C11.5854 4.43065 11.5854 3.90301 11.9108 3.57757" fill="black"/>
<path fill-rule="evenodd" clip-rule="evenodd" d="M1.32141 3.82165C1.63397 3.50909 2.05789 3.3335 2.49992 3.3335H6.8101C7.47304 3.33364 8.10878 3.59709 8.57751 4.06591C8.57754 4.06594 8.57757 4.06597 8.5776 4.066L13.3308 8.81924C13.3315 8.81986 13.3321 8.82049 13.3327 8.82111C13.8642 9.356 14.1625 10.0794 14.1625 10.8335C14.1625 11.5876 13.8642 12.311 13.3327 12.8459C13.3321 12.8465 13.3315 12.8471 13.3308 12.8478L10.3475 15.8311L10.3456 15.8329C9.81075 16.3645 9.08731 16.6628 8.33325 16.6628C7.57919 16.6628 6.85575 16.3645 6.32087 15.8329C6.32024 15.8323 6.31962 15.8317 6.319 15.8311L1.56575 11.0778C1.56572 11.0778 1.56569 11.0778 1.56566 11.0778C1.09684 10.609 0.833394 9.97329 0.833252 9.31034V5.00016C0.833252 4.55814 1.00885 4.13421 1.32141 3.82165ZM2.15472 10.4887L2.74417 9.89924L7.49564 14.6507C7.4959 14.651 7.49615 14.6512 7.49641 14.6515C7.71897 14.8722 8.01975 14.9961 8.33325 14.9961C8.64675 14.9961 8.94753 14.8722 9.17009 14.6515C9.17035 14.6512 9.17061 14.651 9.17087 14.6507L12.1505 11.6711C12.1508 11.6708 12.1511 11.6705 12.1514 11.6702C12.372 11.4477 12.4959 11.1469 12.4959 10.8335C12.4959 10.5201 12.372 10.2193 12.1514 9.99678C12.1511 9.99648 12.1508 9.99618 12.1505 9.99588L7.399 5.24442L7.98832 4.6551L7.39891 5.24433C7.24271 5.08808 7.03085 5.00026 6.80992 5.00016C6.80986 5.00016 6.8098 5.00016 6.80974 5.00016L2.49992 5.00016V9.30999C2.49992 9.31004 2.49992 9.3101 2.49992 9.31016C2.50001 9.53109 2.58784 9.74295 2.74409 9.89915L2.15472 10.4887Z" fill="black"/>
<path d="M5.41667 8.33333C5.64679 8.33333 5.83333 8.14679 5.83333 7.91667C5.83333 7.68655 5.64679 7.5 5.41667 7.5C5.18655 7.5 5 7.68655 5 7.91667C5 8.14679 5.18655 8.33333 5.41667 8.33333Z" fill="black"/>
<path fill-rule="evenodd" clip-rule="evenodd" d="M5.41675 8.33317C5.64687 8.33317 5.83341 8.14662 5.83341 7.9165C5.83341 7.68639 5.64687 7.49984 5.41675 7.49984C5.18663 7.49984 5.00008 7.68639 5.00008 7.9165C5.00008 8.14662 5.18663 8.33317 5.41675 8.33317ZM4.16675 7.9165C4.16675 7.22615 4.72639 6.6665 5.41675 6.6665C6.1071 6.6665 6.66675 7.22615 6.66675 7.9165C6.66675 8.60686 6.1071 9.1665 5.41675 9.1665C4.72639 9.1665 4.16675 8.60686 4.16675 7.9165Z" fill="black"/>
</svg>
