<svg width="20" height="20" viewBox="0 0 20 20" fill="none" xmlns="http://www.w3.org/2000/svg">
<path fill-rule="evenodd" clip-rule="evenodd" d="M3.33333 2.5C3.79357 2.5 4.16667 2.8731 4.16667 3.33333V16.6667C4.16667 17.1269 3.79357 17.5 3.33333 17.5C2.8731 17.5 2.5 17.1269 2.5 16.6667V3.33333C2.5 2.8731 2.8731 2.5 3.33333 2.5Z" fill="black"/>
<path fill-rule="evenodd" clip-rule="evenodd" d="M7.50008 2.5C7.96032 2.5 8.33341 2.8731 8.33341 3.33333V16.6667C8.33341 17.1269 7.96032 17.5 7.50008 17.5C7.03984 17.5 6.66675 17.1269 6.66675 16.6667V3.33333C6.66675 2.8731 7.03984 2.5 7.50008 2.5Z" fill="black"/>
<path fill-rule="evenodd" clip-rule="evenodd" d="M11.6666 2.5C12.1268 2.5 12.4999 2.8731 12.4999 3.33333V16.6667C12.4999 17.1269 12.1268 17.5 11.6666 17.5C11.2063 17.5 10.8333 17.1269 10.8333 16.6667V3.33333C10.8333 2.8731 11.2063 2.5 11.6666 2.5Z" fill="black"/>
<path fill-rule="evenodd" clip-rule="evenodd" d="M15.8333 2.5C16.2936 2.5 16.6667 2.8731 16.6667 3.33333V16.6667C16.6667 17.1269 16.2936 17.5 15.8333 17.5C15.3731 17.5 15 17.1269 15 16.6667V3.33333C15 2.8731 15.3731 2.5 15.8333 2.5Z" fill="black"/>
<path fill-rule="evenodd" clip-rule="evenodd" d="M19.048 4.57122C19.2847 4.96587 19.1568 5.47775 18.7621 5.71454L2.09546 15.7145C1.70081 15.9513 1.18892 15.8234 0.952134 15.4287C0.715344 15.0341 0.843315 14.5222 1.23796 14.2854L17.9046 4.28539C18.2993 4.0486 18.8112 4.17657 19.048 4.57122Z" fill="black"/>
</svg>
