<svg width="20" height="20" viewBox="0 0 20 20" fill="none" xmlns="http://www.w3.org/2000/svg">
<g clip-path="url(#clip0_2001_10619)">
<path fill-rule="evenodd" clip-rule="evenodd" d="M14.1667 2.50016C13.7065 2.50016 13.3334 2.87326 13.3334 3.3335C13.3334 3.79373 13.7065 4.16683 14.1667 4.16683C14.627 4.16683 15.0001 3.79373 15.0001 3.3335C15.0001 2.87326 14.627 2.50016 14.1667 2.50016ZM11.6667 3.3335C11.6667 1.95278 12.786 0.833496 14.1667 0.833496C15.5475 0.833496 16.6667 1.95278 16.6667 3.3335C16.6667 4.71421 15.5475 5.8335 14.1667 5.8335C12.786 5.8335 11.6667 4.71421 11.6667 3.3335Z" fill="black"/>
<path fill-rule="evenodd" clip-rule="evenodd" d="M13.581 3.91888C13.9064 4.24432 13.9064 4.77196 13.581 5.09739L5.09764 13.5807C4.7722 13.9062 4.24456 13.9062 3.91913 13.5807C3.59369 13.2553 3.59369 12.7277 3.91913 12.4022L12.4025 3.91888C12.7279 3.59345 13.2555 3.59345 13.581 3.91888Z" fill="black"/>
<path fill-rule="evenodd" clip-rule="evenodd" d="M3.33325 13.3332C2.87301 13.3332 2.49992 13.7063 2.49992 14.1665C2.49992 14.6267 2.87301 14.9998 3.33325 14.9998C3.79349 14.9998 4.16659 14.6267 4.16659 14.1665C4.16659 13.7063 3.79349 13.3332 3.33325 13.3332ZM0.833252 14.1665C0.833252 12.7858 1.95254 11.6665 3.33325 11.6665C4.71396 11.6665 5.83325 12.7858 5.83325 14.1665C5.83325 15.5472 4.71396 16.6665 3.33325 16.6665C1.95254 16.6665 0.833252 15.5472 0.833252 14.1665Z" fill="black"/>
<path fill-rule="evenodd" clip-rule="evenodd" d="M11.11 8.89935C10.1734 8.88099 9.61116 9.06714 9.33927 9.33903C9.06739 9.61092 8.88123 10.1732 8.8996 11.1097C8.91722 12.0086 9.11975 13.0673 9.39864 14.1068C9.67545 15.1385 10.0168 16.1129 10.2906 16.8323C10.4271 17.191 10.5459 17.4841 10.6302 17.6865C10.6723 17.7876 10.7057 17.866 10.7283 17.9184C10.7396 17.9446 10.7482 17.9644 10.7538 17.9772C10.7567 17.9836 10.7587 17.9883 10.76 17.9912L10.7612 17.9939L10.7615 17.9947C10.9484 18.4152 10.759 18.9077 10.3385 19.0946C9.9179 19.2815 9.42543 19.0921 9.23851 18.6716L10 18.3331C9.23851 18.6716 9.23844 18.6714 9.23836 18.6712L9.23746 18.6692C9.23691 18.6679 9.23615 18.6662 9.2352 18.6641C9.23386 18.661 9.23212 18.6571 9.23001 18.6523L9.2272 18.6459C9.22033 18.6302 9.21047 18.6076 9.19787 18.5783C9.17267 18.5199 9.13651 18.4351 9.09154 18.3271C9.00164 18.1112 8.87633 17.802 8.73289 17.4251C8.44674 16.6731 8.085 15.6423 7.7889 14.5386C7.49487 13.4427 7.25469 12.2357 7.23325 11.1424C7.21255 10.0868 7.39098 8.9303 8.16076 8.16052C8.93054 7.39074 10.087 7.21231 11.1427 7.23301C12.2359 7.25444 13.443 7.49463 14.5389 7.78866C15.6425 8.08476 16.6733 8.44649 17.4253 8.73264C17.8023 8.87609 18.1114 9.0014 18.3273 9.0913C18.4353 9.13626 18.5201 9.17242 18.5786 9.19762C18.6078 9.21022 18.6304 9.22009 18.6461 9.22695C18.6516 9.22936 18.6562 9.2314 18.66 9.23306L18.6643 9.23496C18.6665 9.23591 18.6682 9.23666 18.6694 9.23721L18.6715 9.23812C18.6716 9.2382 18.6718 9.23826 18.3334 9.99977L18.6718 9.23826C19.0924 9.42518 19.2818 9.91765 19.0949 10.3382C18.9079 10.7588 18.4155 10.9482 17.9949 10.7613L17.9942 10.761L17.9915 10.7598C17.9886 10.7585 17.9839 10.7564 17.9774 10.7536C17.9646 10.748 17.9449 10.7394 17.9187 10.7281C17.8662 10.7055 17.7879 10.672 17.6867 10.6299C17.4843 10.5457 17.1913 10.4268 16.8325 10.2903C16.1132 10.0166 15.1388 9.67521 14.107 9.39839C13.0675 9.11951 12.0089 8.91698 11.11 8.89935Z" fill="black"/>
</g>
<defs>
<clipPath id="clip0_2001_10619">
<rect width="20" height="20" fill="white"/>
</clipPath>
</defs>
</svg>
