<svg width="20" height="20" viewBox="0 0 20 20" fill="none" xmlns="http://www.w3.org/2000/svg">
<g clip-path="url(#clip0_2001_10624)">
<path fill-rule="evenodd" clip-rule="evenodd" d="M9.99992 2.50016C5.85778 2.50016 2.49992 5.85803 2.49992 10.0002C2.49992 14.1423 5.85778 17.5002 9.99992 17.5002C14.1421 17.5002 17.4999 14.1423 17.4999 10.0002C17.4999 5.85803 14.1421 2.50016 9.99992 2.50016ZM0.833252 10.0002C0.833252 4.93755 4.93731 0.833496 9.99992 0.833496C15.0625 0.833496 19.1666 4.93755 19.1666 10.0002C19.1666 15.0628 15.0625 19.1668 9.99992 19.1668C4.93731 19.1668 0.833252 15.0628 0.833252 10.0002Z" fill="black"/>
<path fill-rule="evenodd" clip-rule="evenodd" d="M10.0001 5.83317C7.6989 5.83317 5.83341 7.69865 5.83341 9.99984C5.83341 12.301 7.6989 14.1665 10.0001 14.1665C12.3013 14.1665 14.1667 12.301 14.1667 9.99984C14.1667 7.69865 12.3013 5.83317 10.0001 5.83317ZM4.16675 9.99984C4.16675 6.77818 6.77842 4.1665 10.0001 4.1665C13.2217 4.1665 15.8334 6.77818 15.8334 9.99984C15.8334 13.2215 13.2217 15.8332 10.0001 15.8332C6.77842 15.8332 4.16675 13.2215 4.16675 9.99984Z" fill="black"/>
<path fill-rule="evenodd" clip-rule="evenodd" d="M10 9.16667C9.53976 9.16667 9.16667 9.53976 9.16667 10C9.16667 10.4602 9.53976 10.8333 10 10.8333C10.4602 10.8333 10.8333 10.4602 10.8333 10C10.8333 9.53976 10.4602 9.16667 10 9.16667ZM7.5 10C7.5 8.61929 8.61929 7.5 10 7.5C11.3807 7.5 12.5 8.61929 12.5 10C12.5 11.3807 11.3807 12.5 10 12.5C8.61929 12.5 7.5 11.3807 7.5 10Z" fill="black"/>
</g>
<defs>
<clipPath id="clip0_2001_10624">
<rect width="20" height="20" fill="white"/>
</clipPath>
</defs>
</svg>
