<svg width="20" height="20" viewBox="0 0 20 20" fill="none" xmlns="http://www.w3.org/2000/svg">
<path fill-rule="evenodd" clip-rule="evenodd" d="M14.4876 4.1182C14.6313 4.55541 14.3934 5.02637 13.9562 5.17012L2.71179 8.86719C2.69906 8.87217 2.68845 8.88149 2.68187 8.89354C2.67505 8.90602 2.67303 8.92054 2.67617 8.93438L3.11311 10.6838L8.21377 9.59598C8.66389 9.49998 9.1066 9.78705 9.20259 10.2372C9.29859 10.6873 9.01151 11.13 8.5614 11.226L3.41432 12.3237C3.41378 12.3238 3.41324 12.3239 3.41271 12.324C2.99927 12.4133 2.56728 12.3365 2.20995 12.1101C1.85453 11.8849 1.60136 11.5297 1.50433 11.1206L1.05826 9.33458C1.05802 9.33365 1.05779 9.33272 1.05756 9.33179C1.05741 9.33119 1.05727 9.33058 1.05712 9.32997C0.955336 8.91236 1.01314 8.47179 1.21919 8.09456C1.42525 7.71734 1.76472 7.43063 2.17111 7.29061C2.17483 7.28932 2.17856 7.28807 2.1823 7.28684L13.4356 3.58684C13.8728 3.44309 14.3438 3.68098 14.4876 4.1182Z" fill="black"/>
<path fill-rule="evenodd" clip-rule="evenodd" d="M15.7251 8.84522C15.8211 9.29533 15.534 9.73804 15.0839 9.83405L11.4739 10.6041C11.0238 10.7001 10.5811 10.413 10.4851 9.96289C10.3891 9.51278 10.6761 9.07006 11.1262 8.97405L14.7362 8.20405C15.1863 8.10804 15.629 8.3951 15.7251 8.84522Z" fill="black"/>
<path fill-rule="evenodd" clip-rule="evenodd" d="M10.3732 11.5799C10.7848 11.374 11.2854 11.5409 11.4912 11.9525L14.0787 17.1275C14.2845 17.5392 14.1177 18.0397 13.706 18.2456C13.2944 18.4514 12.7938 18.2845 12.588 17.8729L10.0005 12.6979C9.79469 12.2862 9.96154 11.7857 10.3732 11.5799Z" fill="black"/>
<path fill-rule="evenodd" clip-rule="evenodd" d="M15.6567 1.8938C16.0852 1.7869 16.5386 1.85446 16.9174 2.08165C17.2961 2.30884 17.5692 2.67707 17.6767 3.10547L18.9392 8.1557C18.9393 8.15583 18.9393 8.15595 18.9393 8.15607C19.0466 8.58473 18.9792 9.03845 18.7521 9.41747C18.5249 9.7966 18.1563 10.0699 17.7276 10.1774L16.8187 10.4042C16.8186 10.4042 16.8186 10.4042 16.8185 10.4042C16.8185 10.4042 16.8185 10.4042 16.8185 10.4042C16.1754 10.5648 15.4949 10.4635 14.9265 10.1225C14.358 9.78139 13.9483 9.22852 13.7874 8.58542L14.5959 8.38319L13.7874 8.5853L12.9291 5.15197L13.7375 4.94985L12.9291 5.15185C12.7684 4.5087 12.8697 3.82807 13.2108 3.25963C13.5518 2.69118 14.1047 2.28147 14.7478 2.1206L15.6567 1.8938ZM15.4043 8.18096C15.4043 8.181 15.4043 8.18104 15.4043 8.18108C15.458 8.39539 15.5945 8.57963 15.784 8.6933C15.9734 8.80699 16.2003 8.84077 16.4147 8.78721L17.3225 8.56067L16.0601 3.51091L15.1523 3.73744C15.1522 3.73746 15.1521 3.73748 15.152 3.7375C14.9378 3.79117 14.7536 3.92771 14.6399 4.11712C14.5263 4.30657 14.4925 4.5334 14.546 4.74774" fill="black"/>
<path fill-rule="evenodd" clip-rule="evenodd" d="M4.92951 6.38592C5.37601 6.27429 5.82845 6.54576 5.94008 6.99226L6.86841 10.7056C6.98004 11.1521 6.70857 11.6045 6.26207 11.7162C5.81558 11.8278 5.36313 11.5563 5.25151 11.1098L4.32317 7.39648C4.21155 6.94999 4.48302 6.49754 4.92951 6.38592Z" fill="black"/>
<path fill-rule="evenodd" clip-rule="evenodd" d="M9.62695 11.5799C10.0386 11.7857 10.2054 12.2862 9.99962 12.6979L7.41212 17.8729C7.2063 18.2845 6.70574 18.4514 6.29409 18.2456C5.88244 18.0397 5.71559 17.5392 5.92141 17.1275L8.50891 11.9525C8.71474 11.5409 9.2153 11.374 9.62695 11.5799Z" fill="black"/>
<path fill-rule="evenodd" clip-rule="evenodd" d="M10 10.0002C9.53976 10.0002 9.16667 10.3733 9.16667 10.8335C9.16667 11.2937 9.53976 11.6668 10 11.6668C10.4602 11.6668 10.8333 11.2937 10.8333 10.8335C10.8333 10.3733 10.4602 10.0002 10 10.0002ZM7.5 10.8335C7.5 9.45278 8.61929 8.3335 10 8.3335C11.3807 8.3335 12.5 9.45278 12.5 10.8335C12.5 12.2142 11.3807 13.3335 10 13.3335C8.61929 13.3335 7.5 12.2142 7.5 10.8335Z" fill="black"/>
</svg>
