<svg width="20" height="20" viewBox="0 0 20 20" fill="none" xmlns="http://www.w3.org/2000/svg">
<path fill-rule="evenodd" clip-rule="evenodd" d="M12.0866 1.78016C12.4842 2.01206 12.6184 2.52232 12.3865 2.91987L3.63654 17.9199C3.40464 18.3174 2.89437 18.4517 2.49683 18.2198C2.09929 17.9879 1.965 17.4776 2.19691 17.0801L10.9469 2.08008C11.1788 1.68254 11.6891 1.54826 12.0866 1.78016Z" fill="black"/>
<path fill-rule="evenodd" clip-rule="evenodd" d="M7.91333 1.78016C8.31088 1.54826 8.82114 1.68254 9.05304 2.08008L17.803 17.0801C18.0349 17.4776 17.9007 17.9879 17.5031 18.2198C17.1056 18.4517 16.5953 18.3174 16.3634 17.9199L7.61341 2.91987C7.38151 2.52232 7.51579 2.01206 7.91333 1.78016Z" fill="black"/>
<path fill-rule="evenodd" clip-rule="evenodd" d="M9.99989 11.6665C10.2963 11.6665 10.5704 11.8239 10.7197 12.0799L13.6364 17.0799C13.8683 17.4775 13.734 17.9878 13.3365 18.2197C12.9389 18.4516 12.4286 18.3173 12.1967 17.9197L9.99989 14.1537L7.80304 17.9197C7.57114 18.3173 7.06088 18.4516 6.66333 18.2197C6.26579 17.9878 6.13151 17.4775 6.36341 17.0799L9.28008 12.0799C9.42942 11.8239 9.7035 11.6665 9.99989 11.6665Z" fill="black"/>
<path fill-rule="evenodd" clip-rule="evenodd" d="M0.833252 17.4998C0.833252 17.0396 1.20635 16.6665 1.66659 16.6665H18.3333C18.7935 16.6665 19.1666 17.0396 19.1666 17.4998C19.1666 17.9601 18.7935 18.3332 18.3333 18.3332H1.66659C1.20635 18.3332 0.833252 17.9601 0.833252 17.4998Z" fill="black"/>
</svg>
