<svg width="20" height="20" viewBox="0 0 20 20" fill="none" xmlns="http://www.w3.org/2000/svg">
<g clip-path="url(#clip0_2001_10636)">
<path fill-rule="evenodd" clip-rule="evenodd" d="M3.33325 2.50016C2.87301 2.50016 2.49992 2.87326 2.49992 3.3335C2.49992 3.79373 2.87301 4.16683 3.33325 4.16683C3.79349 4.16683 4.16659 3.79373 4.16659 3.3335C4.16659 2.87326 3.79349 2.50016 3.33325 2.50016ZM0.833252 3.3335C0.833252 1.95278 1.95254 0.833496 3.33325 0.833496C4.71396 0.833496 5.83325 1.95278 5.83325 3.3335C5.83325 4.71421 4.71396 5.8335 3.33325 5.8335C1.95254 5.8335 0.833252 4.71421 0.833252 3.3335Z" fill="black"/>
<path fill-rule="evenodd" clip-rule="evenodd" d="M13.5773 1.07757C13.9028 0.752137 14.4304 0.752137 14.7558 1.07757L17.2558 3.57757C17.5813 3.90301 17.5813 4.43065 17.2558 4.75608C16.9304 5.08152 16.4028 5.08152 16.0773 4.75608L14.1666 2.84534L12.2558 4.75608C11.9304 5.08152 11.4028 5.08152 11.0773 4.75608C10.7519 4.43065 10.7519 3.90301 11.0773 3.57757L13.5773 1.07757Z" fill="black"/>
<path fill-rule="evenodd" clip-rule="evenodd" d="M13.5773 5.24408C13.9028 4.91864 14.4304 4.91864 14.7558 5.24408L17.2558 7.74408C17.5813 8.06951 17.5813 8.59715 17.2558 8.92259C16.9304 9.24803 16.4028 9.24803 16.0773 8.92259L14.1666 7.01184L12.2558 8.92259C11.9304 9.24803 11.4028 9.24803 11.0773 8.92259C10.7519 8.59715 10.7519 8.06951 11.0773 7.74408L13.5773 5.24408Z" fill="black"/>
<path fill-rule="evenodd" clip-rule="evenodd" d="M14.1666 0.833496C14.6268 0.833496 14.9999 1.20659 14.9999 1.66683V11.6668C14.9999 12.1271 14.6268 12.5002 14.1666 12.5002C13.7063 12.5002 13.3333 12.1271 13.3333 11.6668V1.66683C13.3333 1.20659 13.7063 0.833496 14.1666 0.833496Z" fill="black"/>
<path fill-rule="evenodd" clip-rule="evenodd" d="M5.12659 11.2252C5.27887 10.9815 5.54593 10.8335 5.83325 10.8335H14.1666C14.4539 10.8335 14.721 10.9815 14.8733 11.2252L19.0399 17.8918C19.2005 18.1487 19.209 18.4725 19.0621 18.7375C18.9153 19.0024 18.6362 19.1668 18.3333 19.1668H1.66659C1.36365 19.1668 1.08457 19.0024 0.937717 18.7375C0.790862 18.4725 0.799364 18.1487 0.95992 17.8918L5.12659 11.2252ZM6.29513 12.5002L3.17013 17.5002H16.8297L13.7047 12.5002H6.29513Z" fill="black"/>
<path fill-rule="evenodd" clip-rule="evenodd" d="M6.66659 10.8335C7.12682 10.8335 7.49992 11.2066 7.49992 11.6668V18.3335C7.49992 18.7937 7.12682 19.1668 6.66659 19.1668C6.20635 19.1668 5.83325 18.7937 5.83325 18.3335V11.6668C5.83325 11.2066 6.20635 10.8335 6.66659 10.8335Z" fill="black"/>
<path fill-rule="evenodd" clip-rule="evenodd" d="M7.05828 10.9598C7.44856 10.7159 7.96269 10.8345 8.20661 11.2248L12.3733 17.8915C12.6172 18.2817 12.4986 18.7959 12.1083 19.0398C11.718 19.2837 11.2039 19.1651 10.96 18.7748L6.79328 12.1081C6.54936 11.7178 6.668 11.2037 7.05828 10.9598Z" fill="black"/>
</g>
<defs>
<clipPath id="clip0_2001_10636">
<rect width="20" height="20" fill="white"/>
</clipPath>
</defs>
</svg>
