<svg width="20" height="20" viewBox="0 0 20 20" fill="none" xmlns="http://www.w3.org/2000/svg">
<path fill-rule="evenodd" clip-rule="evenodd" d="M2.74408 3.57757C3.06951 3.25214 3.59715 3.25214 3.92259 3.57757L8.92259 8.57757C9.24803 8.90301 9.24803 9.43065 8.92259 9.75609L3.92259 14.7561C3.59715 15.0815 3.06951 15.0815 2.74408 14.7561C2.41864 14.4306 2.41864 13.903 2.74408 13.5776L7.15482 9.16683L2.74408 4.75609C2.41864 4.43065 2.41864 3.90301 2.74408 3.57757Z" fill="black"/>
<path fill-rule="evenodd" clip-rule="evenodd" d="M9.16675 15.8333C9.16675 15.3731 9.53984 15 10.0001 15H16.6667C17.127 15 17.5001 15.3731 17.5001 15.8333C17.5001 16.2936 17.127 16.6667 16.6667 16.6667H10.0001C9.53984 16.6667 9.16675 16.2936 9.16675 15.8333Z" fill="black"/>
</svg>
