<svg width="20" height="20" viewBox="0 0 20 20" fill="none" xmlns="http://www.w3.org/2000/svg">
<path fill-rule="evenodd" clip-rule="evenodd" d="M1.66675 4.99984C1.66675 4.5396 2.03984 4.1665 2.50008 4.1665H17.5001C17.9603 4.1665 18.3334 4.5396 18.3334 4.99984C18.3334 5.46007 17.9603 5.83317 17.5001 5.83317H2.50008C2.03984 5.83317 1.66675 5.46007 1.66675 4.99984Z" fill="black"/>
<path fill-rule="evenodd" clip-rule="evenodd" d="M1.66675 9.99984C1.66675 9.5396 2.03984 9.1665 2.50008 9.1665H8.33342C8.79365 9.1665 9.16675 9.5396 9.16675 9.99984C9.16675 10.4601 8.79365 10.8332 8.33342 10.8332H2.50008C2.03984 10.8332 1.66675 10.4601 1.66675 9.99984Z" fill="black"/>
<path fill-rule="evenodd" clip-rule="evenodd" d="M1.66675 14.9998C1.66675 14.5396 2.03984 14.1665 2.50008 14.1665H8.33342C8.79365 14.1665 9.16675 14.5396 9.16675 14.9998C9.16675 15.4601 8.79365 15.8332 8.33342 15.8332H2.50008C2.03984 15.8332 1.66675 15.4601 1.66675 14.9998Z" fill="black"/>
<path fill-rule="evenodd" clip-rule="evenodd" d="M14.1666 10.8332C13.2461 10.8332 12.4999 11.5794 12.4999 12.4998C12.4999 13.4203 13.2461 14.1665 14.1666 14.1665C15.0871 14.1665 15.8333 13.4203 15.8333 12.4998C15.8333 11.5794 15.0871 10.8332 14.1666 10.8332ZM10.8333 12.4998C10.8333 10.6589 12.3256 9.1665 14.1666 9.1665C16.0075 9.1665 17.4999 10.6589 17.4999 12.4998C17.4999 14.3408 16.0075 15.8332 14.1666 15.8332C12.3256 15.8332 10.8333 14.3408 10.8333 12.4998Z" fill="black"/>
<path fill-rule="evenodd" clip-rule="evenodd" d="M15.3273 13.6606C15.6528 13.3351 16.1804 13.3351 16.5058 13.6606L18.0892 15.2439C18.4146 15.5694 18.4146 16.097 18.0892 16.4224C17.7637 16.7479 17.2361 16.7479 16.9107 16.4224L15.3273 14.8391C15.0019 14.5137 15.0019 13.986 15.3273 13.6606Z" fill="black"/>
</svg>
