<svg width="20" height="20" viewBox="0 0 20 20" fill="none" xmlns="http://www.w3.org/2000/svg">
<path fill-rule="evenodd" clip-rule="evenodd" d="M2.39898 2.39874C2.86782 1.9299 3.50371 1.6665 4.16675 1.6665C4.62699 1.6665 5.00008 2.0396 5.00008 2.49984C5.00008 2.96007 4.62699 3.33317 4.16675 3.33317C3.94573 3.33317 3.73377 3.42097 3.57749 3.57725C3.42121 3.73353 3.33341 3.94549 3.33341 4.1665C3.33341 4.62674 2.96032 4.99984 2.50008 4.99984C2.03984 4.99984 1.66675 4.62674 1.66675 4.1665C1.66675 3.50346 1.93014 2.86758 2.39898 2.39874Z" fill="black"/>
<path fill-rule="evenodd" clip-rule="evenodd" d="M15 2.49984C15 2.0396 15.3731 1.6665 15.8333 1.6665C16.4964 1.6665 17.1323 1.9299 17.6011 2.39874C18.0699 2.86758 18.3333 3.50346 18.3333 4.1665C18.3333 4.62674 17.9602 4.99984 17.5 4.99984C17.0398 4.99984 16.6667 4.62674 16.6667 4.1665C16.6667 3.94549 16.5789 3.73353 16.4226 3.57725C16.2663 3.42097 16.0543 3.33317 15.8333 3.33317C15.3731 3.33317 15 2.96007 15 2.49984Z" fill="black"/>
<path fill-rule="evenodd" clip-rule="evenodd" d="M17.5 15C17.9602 15 18.3333 15.3731 18.3333 15.8333C18.3333 16.4964 18.0699 17.1323 17.6011 17.6011C17.1323 18.0699 16.4964 18.3333 15.8333 18.3333C15.3731 18.3333 15 17.9602 15 17.5C15 17.0398 15.3731 16.6667 15.8333 16.6667C16.0543 16.6667 16.2663 16.5789 16.4226 16.4226C16.5789 16.2663 16.6667 16.0543 16.6667 15.8333C16.6667 15.3731 17.0398 15 17.5 15Z" fill="black"/>
<path fill-rule="evenodd" clip-rule="evenodd" d="M2.50008 15C2.96032 15 3.33341 15.3731 3.33341 15.8333C3.33341 16.0543 3.42121 16.2663 3.57749 16.4226C3.73377 16.5789 3.94573 16.6667 4.16675 16.6667C4.62699 16.6667 5.00008 17.0398 5.00008 17.5C5.00008 17.9602 4.62699 18.3333 4.16675 18.3333C3.50371 18.3333 2.86782 18.0699 2.39898 17.6011C1.93014 17.1323 1.66675 16.4964 1.66675 15.8333C1.66675 15.3731 2.03984 15 2.50008 15Z" fill="black"/>
<path fill-rule="evenodd" clip-rule="evenodd" d="M6.66675 2.49984C6.66675 2.0396 7.03984 1.6665 7.50008 1.6665H8.33341C8.79365 1.6665 9.16675 2.0396 9.16675 2.49984C9.16675 2.96007 8.79365 3.33317 8.33341 3.33317H7.50008C7.03984 3.33317 6.66675 2.96007 6.66675 2.49984Z" fill="black"/>
<path fill-rule="evenodd" clip-rule="evenodd" d="M6.66675 17.4998C6.66675 17.0396 7.03984 16.6665 7.50008 16.6665H8.33341C8.79365 16.6665 9.16675 17.0396 9.16675 17.4998C9.16675 17.9601 8.79365 18.3332 8.33341 18.3332H7.50008C7.03984 18.3332 6.66675 17.9601 6.66675 17.4998Z" fill="black"/>
<path fill-rule="evenodd" clip-rule="evenodd" d="M10.8333 2.49984C10.8333 2.0396 11.2063 1.6665 11.6666 1.6665H12.4999C12.9602 1.6665 13.3333 2.0396 13.3333 2.49984C13.3333 2.96007 12.9602 3.33317 12.4999 3.33317H11.6666C11.2063 3.33317 10.8333 2.96007 10.8333 2.49984Z" fill="black"/>
<path fill-rule="evenodd" clip-rule="evenodd" d="M10.8333 17.4998C10.8333 17.0396 11.2063 16.6665 11.6666 16.6665H12.4999C12.9602 16.6665 13.3333 17.0396 13.3333 17.4998C13.3333 17.9601 12.9602 18.3332 12.4999 18.3332H11.6666C11.2063 18.3332 10.8333 17.9601 10.8333 17.4998Z" fill="black"/>
<path fill-rule="evenodd" clip-rule="evenodd" d="M2.50008 6.6665C2.96032 6.6665 3.33341 7.0396 3.33341 7.49984V8.33317C3.33341 8.79341 2.96032 9.1665 2.50008 9.1665C2.03984 9.1665 1.66675 8.79341 1.66675 8.33317V7.49984C1.66675 7.0396 2.03984 6.6665 2.50008 6.6665Z" fill="black"/>
<path fill-rule="evenodd" clip-rule="evenodd" d="M17.5001 6.6665C17.9603 6.6665 18.3334 7.0396 18.3334 7.49984V8.33317C18.3334 8.79341 17.9603 9.1665 17.5001 9.1665C17.0398 9.1665 16.6667 8.79341 16.6667 8.33317V7.49984C16.6667 7.0396 17.0398 6.6665 17.5001 6.6665Z" fill="black"/>
<path fill-rule="evenodd" clip-rule="evenodd" d="M2.50008 10.8335C2.96032 10.8335 3.33341 11.2066 3.33341 11.6668V12.5002C3.33341 12.9604 2.96032 13.3335 2.50008 13.3335C2.03984 13.3335 1.66675 12.9604 1.66675 12.5002V11.6668C1.66675 11.2066 2.03984 10.8335 2.50008 10.8335Z" fill="black"/>
<path fill-rule="evenodd" clip-rule="evenodd" d="M17.5001 10.8335C17.9603 10.8335 18.3334 11.2066 18.3334 11.6668V12.5002C18.3334 12.9604 17.9603 13.3335 17.5001 13.3335C17.0398 13.3335 16.6667 12.9604 16.6667 12.5002V11.6668C16.6667 11.2066 17.0398 10.8335 17.5001 10.8335Z" fill="black"/>
<path fill-rule="evenodd" clip-rule="evenodd" d="M5 6.66683C5 6.20659 5.3731 5.8335 5.83333 5.8335H12.5C12.9602 5.8335 13.3333 6.20659 13.3333 6.66683C13.3333 7.12707 12.9602 7.50016 12.5 7.50016H5.83333C5.3731 7.50016 5 7.12707 5 6.66683Z" fill="black"/>
<path fill-rule="evenodd" clip-rule="evenodd" d="M5 9.99984C5 9.5396 5.3731 9.1665 5.83333 9.1665H14.1667C14.6269 9.1665 15 9.5396 15 9.99984C15 10.4601 14.6269 10.8332 14.1667 10.8332H5.83333C5.3731 10.8332 5 10.4601 5 9.99984Z" fill="black"/>
<path fill-rule="evenodd" clip-rule="evenodd" d="M5 13.3333C5 12.8731 5.3731 12.5 5.83333 12.5H10.8333C11.2936 12.5 11.6667 12.8731 11.6667 13.3333C11.6667 13.7936 11.2936 14.1667 10.8333 14.1667H5.83333C5.3731 14.1667 5 13.7936 5 13.3333Z" fill="black"/>
</svg>
