<svg width="20" height="20" viewBox="0 0 20 20" fill="none" xmlns="http://www.w3.org/2000/svg">
<path fill-rule="evenodd" clip-rule="evenodd" d="M1.66675 5.08333C1.66675 4.6231 2.03984 4.25 2.50008 4.25H14.1667C14.627 4.25 15.0001 4.6231 15.0001 5.08333C15.0001 5.54357 14.627 5.91667 14.1667 5.91667H2.50008C2.03984 5.91667 1.66675 5.54357 1.66675 5.08333Z" fill="black"/>
<path fill-rule="evenodd" clip-rule="evenodd" d="M1.66675 10.0833C1.66675 9.6231 2.03984 9.25 2.50008 9.25H17.5001C17.9603 9.25 18.3334 9.6231 18.3334 10.0833C18.3334 10.5436 17.9603 10.9167 17.5001 10.9167H2.50008C2.03984 10.9167 1.66675 10.5436 1.66675 10.0833Z" fill="black"/>
<path fill-rule="evenodd" clip-rule="evenodd" d="M1.66675 14.9998C1.66675 14.5396 2.03984 14.1665 2.50008 14.1665H12.5834C13.0437 14.1665 13.4167 14.5396 13.4167 14.9998C13.4167 15.4601 13.0437 15.8332 12.5834 15.8332H2.50008C2.03984 15.8332 1.66675 15.4601 1.66675 14.9998Z" fill="black"/>
</svg>
