<svg width="20" height="20" viewBox="0 0 20 20" fill="none" xmlns="http://www.w3.org/2000/svg">
<path fill-rule="evenodd" clip-rule="evenodd" d="M1.66675 4.99984C1.66675 4.5396 2.03984 4.1665 2.50008 4.1665H14.1667C14.627 4.1665 15.0001 4.5396 15.0001 4.99984C15.0001 5.46007 14.627 5.83317 14.1667 5.83317H2.50008C2.03984 5.83317 1.66675 5.46007 1.66675 4.99984Z" fill="black"/>
<path fill-rule="evenodd" clip-rule="evenodd" d="M5.83325 9.99984C5.83325 9.5396 6.20635 9.1665 6.66659 9.1665H17.4999C17.9602 9.1665 18.3333 9.5396 18.3333 9.99984C18.3333 10.4601 17.9602 10.8332 17.4999 10.8332H6.66659C6.20635 10.8332 5.83325 10.4601 5.83325 9.99984Z" fill="black"/>
<path fill-rule="evenodd" clip-rule="evenodd" d="M5.83325 14.9998C5.83325 14.5396 6.20635 14.1665 6.66659 14.1665H17.4999C17.9602 14.1665 18.3333 14.5396 18.3333 14.9998C18.3333 15.4601 17.9602 15.8332 17.4999 15.8332H6.66659C6.20635 15.8332 5.83325 15.4601 5.83325 14.9998Z" fill="black"/>
<path fill-rule="evenodd" clip-rule="evenodd" d="M2.50008 9.1665C2.96032 9.1665 3.33341 9.5396 3.33341 9.99984V14.9998C3.33341 15.4601 2.96032 15.8332 2.50008 15.8332C2.03984 15.8332 1.66675 15.4601 1.66675 14.9998V9.99984C1.66675 9.5396 2.03984 9.1665 2.50008 9.1665Z" fill="black"/>
</svg>
