<svg width="20" height="20" viewBox="0 0 20 20" fill="none" xmlns="http://www.w3.org/2000/svg">
<g clip-path="url(#clip0_2001_10708)">
<path fill-rule="evenodd" clip-rule="evenodd" d="M4.16658 0.833496C4.62682 0.833496 4.99992 1.20659 4.99992 1.66683C4.99992 3.92057 4.32333 5.7239 3.64816 6.96171C3.31051 7.58075 2.97155 8.06158 2.71346 8.39136C2.58427 8.55643 2.47488 8.68425 2.39539 8.77321C2.35562 8.81771 2.32328 8.85255 2.29962 8.87752C2.28779 8.89001 2.27812 8.90004 2.27077 8.90759C2.2671 8.91136 2.26401 8.91451 2.26151 8.91704C2.26026 8.9183 2.25917 8.91941 2.25822 8.92036L2.25692 8.92167L2.25635 8.92224C2.25609 8.9225 2.25584 8.92275 1.66658 8.3335L2.25584 8.92275C1.9304 9.24819 1.40277 9.24819 1.07733 8.92275C0.752495 8.59792 0.751894 8.07163 1.07553 7.74605C1.07577 7.7458 1.07617 7.74539 1.07674 7.74481C1.07885 7.74264 1.08322 7.73812 1.0897 7.73128C1.10266 7.7176 1.12403 7.69466 1.15263 7.66266C1.20985 7.59863 1.29577 7.49858 1.40096 7.36418C1.61162 7.095 1.89766 6.69041 2.18501 6.16362C2.75984 5.10976 3.33325 3.57975 3.33325 1.66683C3.33325 1.20659 3.70635 0.833496 4.16658 0.833496ZM1.07528 7.7463L1.0753 7.74628C1.07527 7.74631 1.07526 7.74632 1.07528 7.7463ZM1.07686 7.74471L1.07688 7.74469L1.07686 7.74471Z" fill="black"/>
<path fill-rule="evenodd" clip-rule="evenodd" d="M15.8333 0.833496C16.2936 0.833496 16.6667 1.20659 16.6667 1.66683C16.6667 3.57975 17.2401 5.10976 17.8149 6.16362C18.1023 6.69041 18.3883 7.095 18.599 7.36418C18.7041 7.49858 18.7901 7.59863 18.8473 7.66266C18.8759 7.69466 18.8973 7.7176 18.9102 7.73128C18.9167 7.73812 18.9211 7.74264 18.9232 7.74481C18.9237 7.74538 18.9241 7.74579 18.9244 7.74604C19.248 8.07162 19.2474 8.59791 18.9226 8.92275C18.5972 9.24819 18.0695 9.24819 17.7441 8.92275L18.3333 8.3335C17.7441 8.92275 17.7438 8.9225 17.7436 8.92224L17.743 8.92167L17.7417 8.92036C17.7408 8.91941 17.7397 8.9183 17.7384 8.91704C17.7359 8.91451 17.7328 8.91136 17.7291 8.90759C17.7218 8.90004 17.7121 8.89001 17.7003 8.87752C17.6766 8.85255 17.6443 8.81771 17.6045 8.77321C17.525 8.68425 17.4156 8.55643 17.2865 8.39136C17.0284 8.06158 16.6894 7.58075 16.3518 6.96171C15.6766 5.7239 15 3.92057 15 1.66683C15 1.20659 15.3731 0.833496 15.8333 0.833496ZM18.9246 7.7463C18.9247 7.74632 18.9246 7.74631 18.9246 7.74628L18.9246 7.7463Z" fill="black"/>
<path fill-rule="evenodd" clip-rule="evenodd" d="M8.33325 0.833496C8.79349 0.833496 9.16658 1.20659 9.16658 1.66683C9.16658 5.79373 5.79349 9.16683 1.66659 9.16683C1.20635 9.16683 0.833252 8.79373 0.833252 8.3335C0.833252 7.87326 1.20635 7.50016 1.66659 7.50016C4.87301 7.50016 7.49992 4.87326 7.49992 1.66683C7.49992 1.20659 7.87301 0.833496 8.33325 0.833496Z" fill="black"/>
<path fill-rule="evenodd" clip-rule="evenodd" d="M11.6666 0.833496C12.1268 0.833496 12.4999 1.20659 12.4999 1.66683C12.4999 4.87326 15.1268 7.50016 18.3333 7.50016C18.7935 7.50016 19.1666 7.87326 19.1666 8.3335C19.1666 8.79373 18.7935 9.16683 18.3333 9.16683C14.2063 9.16683 10.8333 5.79373 10.8333 1.66683C10.8333 1.20659 11.2063 0.833496 11.6666 0.833496Z" fill="black"/>
<path fill-rule="evenodd" clip-rule="evenodd" d="M1.07733 7.74408C1.40277 7.41864 1.9304 7.41864 2.25584 7.74408L1.66659 8.33333C2.25584 7.74408 2.25606 7.7443 2.25629 7.74453L2.25678 7.74502L2.25788 7.74612C2.25866 7.74691 2.25954 7.7478 2.26053 7.74879C2.26249 7.75078 2.26486 7.75319 2.26762 7.75602C2.27314 7.76167 2.28022 7.76899 2.28875 7.77795C2.30581 7.79586 2.32872 7.82037 2.35662 7.85126C2.41238 7.913 2.48836 8.00053 2.57773 8.11223C2.75604 8.33513 2.99007 8.65729 3.22345 9.06572C3.68825 9.87911 4.16658 11.0635 4.16658 12.5C4.16658 12.9602 3.79349 13.3333 3.33325 13.3333C2.87301 13.3333 2.49992 12.9602 2.49992 12.5C2.49992 11.4365 2.14492 10.5376 1.77638 9.89262C1.5931 9.57188 1.41046 9.32112 1.27628 9.15339C1.20939 9.06978 1.15516 9.00757 1.11978 8.9684C1.10211 8.94884 1.08921 8.93509 1.08185 8.92737C1.07818 8.92352 1.0759 8.92117 1.07511 8.92036C1.0751 8.92036 1.0751 8.92035 1.07509 8.92034C0.751894 8.59473 0.752641 8.06877 1.07733 7.74408Z" fill="black"/>
<path fill-rule="evenodd" clip-rule="evenodd" d="M18.9225 7.74408C19.2472 8.06877 19.2479 8.59473 18.9247 8.92034C18.924 8.92109 18.9233 8.92184 18.9225 8.92259L18.3456 8.3457C18.9225 8.92259 18.9227 8.92238 18.9229 8.92218L18.9233 8.9218L18.9247 8.92036C18.9239 8.92117 18.9217 8.92352 18.918 8.92737C18.9106 8.93509 18.8977 8.94884 18.8801 8.9684C18.8447 9.00757 18.7904 9.06978 18.7236 9.15339C18.5894 9.32112 18.4067 9.57188 18.2235 9.89262C17.8549 10.5376 17.4999 11.4365 17.4999 12.5C17.4999 12.9602 17.1268 13.3333 16.6666 13.3333C16.2063 13.3333 15.8333 12.9602 15.8333 12.5C15.8333 11.0635 16.3116 9.87911 16.7764 9.06572C17.0098 8.65729 17.2438 8.33513 17.4221 8.11223C17.5115 8.00053 17.5875 7.913 17.6432 7.85126C17.6711 7.82037 17.694 7.79586 17.7111 7.77795C17.7196 7.76899 17.7267 7.76167 17.7322 7.75602C17.735 7.75319 17.7373 7.75078 17.7393 7.74879C17.7403 7.7478 17.7412 7.74691 17.742 7.74612L17.7431 7.74502L17.7435 7.74453C17.7438 7.7443 17.744 7.74408 18.3333 8.33333L17.744 7.74408C18.0694 7.41864 18.5971 7.41864 18.9225 7.74408Z" fill="black"/>
<path fill-rule="evenodd" clip-rule="evenodd" d="M5.83325 12.4998C5.83325 12.0396 6.20635 11.6665 6.66659 11.6665H13.3333C13.7935 11.6665 14.1666 12.0396 14.1666 12.4998C14.1666 12.9601 13.7935 13.3332 13.3333 13.3332H6.66659C6.20635 13.3332 5.83325 12.9601 5.83325 12.4998Z" fill="black"/>
<path fill-rule="evenodd" clip-rule="evenodd" d="M3.33325 16.6667C3.11224 16.6667 2.90028 16.7545 2.744 16.9107C2.58772 17.067 2.49992 17.279 2.49992 17.5V18.3333C2.49992 18.7936 2.12682 19.1667 1.66659 19.1667C1.20635 19.1667 0.833252 18.7936 0.833252 18.3333V17.5C0.833252 16.837 1.09664 16.2011 1.56548 15.7322C2.03433 15.2634 2.67021 15 3.33325 15H6.66658C7.32963 15 7.96551 15.2634 8.43435 15.7322C8.90319 16.2011 9.16658 16.837 9.16658 17.5V18.3333C9.16658 18.7936 8.79349 19.1667 8.33325 19.1667C7.87301 19.1667 7.49992 18.7936 7.49992 18.3333V17.5C7.49992 17.279 7.41212 17.067 7.25584 16.9107C7.09956 16.7545 6.8876 16.6667 6.66658 16.6667H3.33325Z" fill="black"/>
<path fill-rule="evenodd" clip-rule="evenodd" d="M13.3333 16.6667C13.1122 16.6667 12.9003 16.7545 12.744 16.9107C12.5877 17.067 12.4999 17.279 12.4999 17.5V18.3333C12.4999 18.7936 12.1268 19.1667 11.6666 19.1667C11.2063 19.1667 10.8333 18.7936 10.8333 18.3333V17.5C10.8333 16.837 11.0966 16.2011 11.5655 15.7322C12.0343 15.2634 12.6702 15 13.3333 15H16.6666C17.3296 15 17.9655 15.2634 18.4344 15.7322C18.9032 16.2011 19.1666 16.837 19.1666 17.5V18.3333C19.1666 18.7936 18.7935 19.1667 18.3333 19.1667C17.873 19.1667 17.4999 18.7936 17.4999 18.3333V17.5C17.4999 17.279 17.4121 17.067 17.2558 16.9107C17.0996 16.7545 16.8876 16.6667 16.6666 16.6667H13.3333Z" fill="black"/>
</g>
<defs>
<clipPath id="clip0_2001_10708">
<rect width="20" height="20" fill="white"/>
</clipPath>
</defs>
</svg>
