<svg width="20" height="20" viewBox="0 0 20 20" fill="none" xmlns="http://www.w3.org/2000/svg">
<g clip-path="url(#clip0_2001_10725)">
<path fill-rule="evenodd" clip-rule="evenodd" d="M7.43443 7.50822C8.17611 6.94784 9.08388 6.65158 10.0133 6.66656C10.4735 6.67397 10.8406 7.05303 10.8331 7.51321C10.8257 7.97339 10.4467 8.34042 9.98649 8.33301C9.42881 8.32402 8.88415 8.50178 8.43914 8.838C7.99413 9.17423 7.67433 9.64961 7.53062 10.1885C7.38691 10.7274 7.42754 11.2989 7.64605 11.8121C7.86455 12.3253 8.24839 12.7506 8.73649 13.0205C9.13926 13.2432 9.28523 13.7503 9.06252 14.153C8.83982 14.5558 8.33278 14.7018 7.93001 14.4791C7.11651 14.0292 6.47678 13.3203 6.11261 12.465C5.74843 11.6098 5.68071 10.6573 5.92023 9.75909C6.15975 8.8609 6.69274 8.06859 7.43443 7.50822Z" fill="black"/>
<path fill-rule="evenodd" clip-rule="evenodd" d="M10.0001 1.6665C10.4603 1.6665 10.8334 2.0396 10.8334 2.49984V4.1665C10.8334 4.62674 10.4603 4.99984 10.0001 4.99984C9.53984 4.99984 9.16675 4.62674 9.16675 4.1665V2.49984C9.16675 2.0396 9.53984 1.6665 10.0001 1.6665Z" fill="black"/>
<path fill-rule="evenodd" clip-rule="evenodd" d="M6.08926 14.7441C6.41469 15.0695 6.41469 15.5972 6.08926 15.9226L4.92259 17.0893C4.59715 17.4147 4.06951 17.4147 3.74408 17.0893C3.41864 16.7638 3.41864 16.2362 3.74408 15.9107L4.91074 14.7441C5.23618 14.4186 5.76382 14.4186 6.08926 14.7441Z" fill="black"/>
<path fill-rule="evenodd" clip-rule="evenodd" d="M14.9999 2.50016C14.7789 2.50016 14.5669 2.58796 14.4107 2.74424C14.2544 2.90052 14.1666 3.11248 14.1666 3.3335V12.1168C14.1666 12.4145 14.0078 12.6897 13.7499 12.8385C13.2733 13.1137 12.9008 13.5384 12.6902 14.0469C12.4796 14.5553 12.4427 15.119 12.5851 15.6506C12.7275 16.1822 13.0414 16.6519 13.478 16.987C13.9146 17.322 14.4496 17.5036 14.9999 17.5036C15.5503 17.5036 16.0852 17.322 16.5218 16.987C16.9584 16.6519 17.2723 16.1822 17.4147 15.6506C17.5572 15.119 17.5202 14.5553 17.3096 14.0469C17.099 13.5384 16.7265 13.1137 16.2499 12.8385C15.9921 12.6897 15.8333 12.4145 15.8333 12.1168V3.3335C15.8333 3.11248 15.7455 2.90052 15.5892 2.74424C15.4329 2.58796 15.2209 2.50016 14.9999 2.50016ZM13.2322 1.56573C13.701 1.09689 14.3369 0.833496 14.9999 0.833496C15.663 0.833496 16.2988 1.09689 16.7677 1.56573C17.2365 2.03457 17.4999 2.67045 17.4999 3.3335V11.6702C18.095 12.1166 18.5624 12.7162 18.8494 13.4091C19.2004 14.2565 19.262 15.196 19.0246 16.082C18.7872 16.968 18.2641 17.7508 17.5364 18.3092C16.8087 18.8676 15.9171 19.1702 14.9999 19.1702C14.0827 19.1702 13.1911 18.8676 12.4634 18.3092C11.7357 17.7508 11.2126 16.968 10.9752 16.082C10.7378 15.196 10.7994 14.2565 11.1504 13.4091C11.4374 12.7162 11.9048 12.1166 12.4999 11.6702V3.3335C12.4999 2.67045 12.7633 2.03457 13.2322 1.56573Z" fill="black"/>
<path fill-rule="evenodd" clip-rule="evenodd" d="M0.833252 10.8333C0.833252 10.3731 1.20635 10 1.66659 10H3.33325C3.79349 10 4.16658 10.3731 4.16658 10.8333C4.16658 11.2936 3.79349 11.6667 3.33325 11.6667H1.66659C1.20635 11.6667 0.833252 11.2936 0.833252 10.8333Z" fill="black"/>
<path fill-rule="evenodd" clip-rule="evenodd" d="M3.51898 4.35248C3.84442 4.02704 4.37205 4.02704 4.69749 4.35248L5.87249 5.52748C6.19793 5.85291 6.19793 6.38055 5.87249 6.70599C5.54705 7.03142 5.01942 7.03142 4.69398 6.70599L3.51898 5.53099C3.19354 5.20555 3.19354 4.67791 3.51898 4.35248Z" fill="black"/>
</g>
<defs>
<clipPath id="clip0_2001_10725">
<rect width="20" height="20" fill="white"/>
</clipPath>
</defs>
</svg>
