<svg width="20" height="20" viewBox="0 0 20 20" fill="none" xmlns="http://www.w3.org/2000/svg">
<g clip-path="url(#clip0_2001_10718)">
<path fill-rule="evenodd" clip-rule="evenodd" d="M0.833252 9.99984C0.833252 9.5396 1.20635 9.1665 1.66659 9.1665H9.99992C10.4602 9.1665 10.8333 9.5396 10.8333 9.99984C10.8333 10.4601 10.4602 10.8332 9.99992 10.8332H1.66659C1.20635 10.8332 0.833252 10.4601 0.833252 9.99984Z" fill="black"/>
<path fill-rule="evenodd" clip-rule="evenodd" d="M7.50008 2.5C7.96032 2.5 8.33341 2.8731 8.33341 3.33333V16.6667C8.33341 17.1269 7.96032 17.5 7.50008 17.5C7.03984 17.5 6.66675 17.1269 6.66675 16.6667V3.33333C6.66675 2.8731 7.03984 2.5 7.50008 2.5Z" fill="black"/>
<path fill-rule="evenodd" clip-rule="evenodd" d="M1.91083 6.91058C2.23626 6.58514 2.7639 6.58514 3.08934 6.91058L5.58934 9.41058C5.91477 9.73602 5.91477 10.2637 5.58934 10.5891L3.08934 13.0891C2.7639 13.4145 2.23626 13.4145 1.91083 13.0891C1.58539 12.7637 1.58539 12.236 1.91083 11.9106L3.82157 9.99984L1.91083 8.08909C1.58539 7.76366 1.58539 7.23602 1.91083 6.91058Z" fill="black"/>
<path fill-rule="evenodd" clip-rule="evenodd" d="M4.41083 4.41058C4.73626 4.08514 5.2639 4.08514 5.58934 4.41058L7.50008 6.32133L9.41083 4.41058C9.73626 4.08514 10.2639 4.08514 10.5893 4.41058C10.9148 4.73602 10.9148 5.26366 10.5893 5.58909L8.08934 8.08909C7.7639 8.41453 7.23626 8.41453 6.91083 8.08909L4.41083 5.58909C4.08539 5.26366 4.08539 4.73602 4.41083 4.41058Z" fill="black"/>
<path fill-rule="evenodd" clip-rule="evenodd" d="M6.91083 11.9106C7.23626 11.5851 7.7639 11.5851 8.08934 11.9106L9.33934 13.1606C9.66477 13.486 9.66477 14.0137 9.33934 14.3391C9.0139 14.6645 8.48626 14.6645 8.16083 14.3391L7.50008 13.6783L5.58934 15.5891C5.2639 15.9145 4.73626 15.9145 4.41083 15.5891C4.08539 15.2637 4.08539 14.736 4.41083 14.4106L6.91083 11.9106Z" fill="black"/>
<path fill-rule="evenodd" clip-rule="evenodd" d="M14.9999 2.50016C14.7789 2.50016 14.5669 2.58796 14.4107 2.74424C14.2544 2.90052 14.1666 3.11248 14.1666 3.3335V12.1168C14.1666 12.4145 14.0078 12.6897 13.7499 12.8385C13.2733 13.1137 12.9008 13.5384 12.6902 14.0469C12.4796 14.5553 12.4427 15.119 12.5851 15.6506C12.7275 16.1822 13.0414 16.6519 13.478 16.987C13.9146 17.322 14.4496 17.5036 14.9999 17.5036C15.5503 17.5036 16.0852 17.322 16.5218 16.987C16.9584 16.6519 17.2723 16.1822 17.4147 15.6506C17.5572 15.119 17.5202 14.5553 17.3096 14.0469C17.099 13.5384 16.7265 13.1137 16.2499 12.8385C15.9921 12.6897 15.8333 12.4145 15.8333 12.1168V3.3335C15.8333 3.11248 15.7455 2.90052 15.5892 2.74424C15.4329 2.58796 15.2209 2.50016 14.9999 2.50016ZM13.2322 1.56573C13.701 1.09689 14.3369 0.833496 14.9999 0.833496C15.663 0.833496 16.2988 1.09689 16.7677 1.56573C17.2365 2.03457 17.4999 2.67045 17.4999 3.3335V11.6702C18.095 12.1166 18.5624 12.7162 18.8494 13.4091C19.2004 14.2565 19.262 15.196 19.0246 16.082C18.7872 16.968 18.2641 17.7508 17.5364 18.3092C16.8087 18.8676 15.9171 19.1702 14.9999 19.1702C14.0827 19.1702 13.1911 18.8676 12.4634 18.3092C11.7357 17.7508 11.2126 16.968 10.9752 16.082C10.7378 15.196 10.7994 14.2565 11.1504 13.4091C11.4374 12.7162 11.9048 12.1166 12.4999 11.6702V3.3335C12.4999 2.67045 12.7633 2.03457 13.2322 1.56573Z" fill="black"/>
</g>
<defs>
<clipPath id="clip0_2001_10718">
<rect width="20" height="20" fill="white"/>
</clipPath>
</defs>
</svg>
