<svg width="20" height="20" viewBox="0 0 20 20" fill="none" xmlns="http://www.w3.org/2000/svg">
<path fill-rule="evenodd" clip-rule="evenodd" d="M9.99992 2.50016C9.77891 2.50016 9.56695 2.58796 9.41067 2.74424C9.25438 2.90052 9.16659 3.11248 9.16659 3.3335V12.1168C9.16659 12.4145 9.00775 12.6897 8.74992 12.8385C8.27332 13.1137 7.90083 13.5384 7.69022 14.0469C7.47962 14.5553 7.44267 15.119 7.58511 15.6506C7.72754 16.1822 8.04141 16.6519 8.47802 16.987C8.91463 17.322 9.44958 17.5036 9.99992 17.5036C10.5503 17.5036 11.0852 17.322 11.5218 16.987C11.9584 16.6519 12.2723 16.1822 12.4147 15.6506C12.5572 15.119 12.5202 14.5553 12.3096 14.0469C12.099 13.5384 11.7265 13.1137 11.2499 12.8385C10.9921 12.6897 10.8333 12.4145 10.8333 12.1168V3.3335C10.8333 3.11248 10.7455 2.90052 10.5892 2.74424C10.4329 2.58796 10.2209 2.50016 9.99992 2.50016ZM8.23215 1.56573C8.70099 1.09689 9.33688 0.833496 9.99992 0.833496C10.663 0.833496 11.2988 1.09689 11.7677 1.56573C12.2365 2.03457 12.4999 2.67045 12.4999 3.3335V11.6702C13.095 12.1166 13.5624 12.7162 13.8494 13.4091C14.2004 14.2565 14.262 15.196 14.0246 16.082C13.7872 16.968 13.2641 17.7508 12.5364 18.3092C11.8087 18.8676 10.9171 19.1702 9.99992 19.1702C9.08269 19.1702 8.1911 18.8676 7.46341 18.3092C6.73573 17.7508 6.21262 16.968 5.97523 16.082C5.73783 15.196 5.79941 14.2565 6.15042 13.4091C6.43742 12.7162 6.9048 12.1166 7.49992 11.6702V3.3335C7.49992 2.67045 7.76331 2.03457 8.23215 1.56573Z" fill="black"/>
</svg>
