<svg width="20" height="20" viewBox="0 0 20 20" fill="none" xmlns="http://www.w3.org/2000/svg">
<g clip-path="url(#clip0_2001_10737)">
<path fill-rule="evenodd" clip-rule="evenodd" d="M5.83333 7.5C6.29357 7.5 6.66667 7.8731 6.66667 8.33333V18.3333C6.66667 18.7936 6.29357 19.1667 5.83333 19.1667C5.3731 19.1667 5 18.7936 5 18.3333V8.33333C5 7.8731 5.3731 7.5 5.83333 7.5Z" fill="black"/>
<path fill-rule="evenodd" clip-rule="evenodd" d="M9.25478 1.29372C9.39769 1.00831 9.69107 0.829608 10.0102 0.83356C10.5288 0.839981 11.0392 0.963496 11.5032 1.19488C11.9673 1.42626 12.3731 1.75952 12.6903 2.16977C13.0075 2.58001 13.2279 3.05664 13.3351 3.56402C13.4421 4.07082 13.4333 4.59521 13.3094 5.09813C13.3092 5.09872 13.3091 5.09931 13.309 5.09991L12.7264 7.50016H16.5249C16.913 7.50016 17.2958 7.59053 17.643 7.7641C17.9901 7.93766 18.292 8.18967 18.5249 8.50016C18.7578 8.81066 18.9152 9.1711 18.9846 9.55295C19.054 9.9347 19.0336 10.3274 18.925 10.6999C18.925 10.6999 18.925 10.7 18.9249 10.7001C18.9249 10.7001 18.9249 10.7001 18.9249 10.7002L16.9833 17.3668C16.8318 17.8861 16.516 18.3423 16.0833 18.6668C15.6505 18.9914 15.1242 19.1668 14.5833 19.1668H3.33325C2.67021 19.1668 2.03433 18.9034 1.56548 18.4346C1.09664 17.9658 0.833252 17.3299 0.833252 16.6668V10.0002C0.833252 9.33712 1.09664 8.70124 1.56548 8.2324C2.03433 7.76356 2.67021 7.50016 3.33325 7.50016H5.63281C5.78784 7.50008 5.93978 7.45675 6.07154 7.37505C6.2033 7.29334 6.30965 7.1765 6.37864 7.03766C6.37902 7.0369 6.3794 7.03615 6.37978 7.03539L9.25478 1.29372ZM10.4773 2.57471L7.87119 7.77933C7.87099 7.77973 7.87079 7.78013 7.87059 7.78054C7.66361 8.19652 7.34478 8.5466 6.94989 8.79148C6.55461 9.0366 6.0988 9.16658 5.63369 9.16683H3.33325C3.11224 9.16683 2.90028 9.25463 2.744 9.41091C2.58772 9.56719 2.49992 9.77915 2.49992 10.0002V16.6668C2.49992 16.8878 2.58772 17.0998 2.744 17.2561C2.90028 17.4124 3.11224 17.5002 3.33325 17.5002H14.5833C14.7636 17.5002 14.939 17.4417 15.0833 17.3335C15.2274 17.2254 15.3326 17.0734 15.3832 16.9005C15.3832 16.9004 15.3832 16.9003 15.3832 16.9003C15.3832 16.9002 15.3832 16.9002 15.3833 16.9002L17.3249 10.2335C17.3611 10.1093 17.368 9.97838 17.3448 9.85109C17.3217 9.72381 17.2692 9.60366 17.1916 9.50016C17.114 9.39667 17.0133 9.31266 16.8976 9.25481C16.7819 9.19695 16.6543 9.16683 16.5249 9.16683H11.6666C11.411 9.16683 11.1695 9.04952 11.0115 8.84859C10.8535 8.64766 10.7965 8.38533 10.8568 8.13694L11.6901 4.7036C11.6903 4.70285 11.6905 4.7021 11.6906 4.70135L11.6909 4.70042C11.755 4.44077 11.7596 4.16998 11.7043 3.9083C11.6491 3.64662 11.5354 3.40081 11.3718 3.18923C11.2082 2.97765 10.999 2.80578 10.7596 2.68644C10.6686 2.64107 10.5741 2.60374 10.4773 2.57471Z" fill="black"/>
</g>
<defs>
<clipPath id="clip0_2001_10737">
<rect width="20" height="20" fill="white"/>
</clipPath>
</defs>
</svg>
