<svg width="20" height="20" viewBox="0 0 20 20" fill="none" xmlns="http://www.w3.org/2000/svg">
<g clip-path="url(#clip0_2001_10734)">
<path fill-rule="evenodd" clip-rule="evenodd" d="M14.1666 0.833496C14.6268 0.833496 14.9999 1.20659 14.9999 1.66683V11.6668C14.9999 12.1271 14.6268 12.5002 14.1666 12.5002C13.7063 12.5002 13.3333 12.1271 13.3333 11.6668V1.66683C13.3333 1.20659 13.7063 0.833496 14.1666 0.833496Z" fill="black"/>
<path fill-rule="evenodd" clip-rule="evenodd" d="M5.41676 2.50016C5.23646 2.50016 5.06101 2.55864 4.91676 2.66683C4.7726 2.77495 4.66737 2.92689 4.61685 3.09986C4.61683 3.09993 4.61681 3.1 4.61679 3.10007C4.61678 3.1001 4.61677 3.10013 4.61676 3.10016L2.6751 9.76683C2.63887 9.89103 2.63206 10.022 2.65521 10.1492C2.67835 10.2765 2.73081 10.3967 2.80843 10.5002C2.88605 10.6037 2.98671 10.6877 3.10242 10.7455C3.21813 10.8034 3.34573 10.8335 3.4751 10.8335H8.33343C8.58904 10.8335 8.83051 10.9508 8.9885 11.1517C9.1465 11.3527 9.20354 11.615 9.14325 11.8634L8.30992 15.2967C8.30966 15.2978 8.3094 15.2988 8.30914 15.2999C8.24503 15.5596 8.24043 15.8303 8.29568 16.092C8.35092 16.3537 8.46459 16.5995 8.62818 16.8111C8.79177 17.0227 9.00106 17.1946 9.24041 17.3139C9.33143 17.3593 9.42589 17.3966 9.52273 17.4256L12.1288 12.221C12.129 12.2206 12.1292 12.2202 12.1294 12.2198C12.3364 11.8038 12.6552 11.4537 13.0501 11.2088C13.4454 10.9637 13.9012 10.8337 14.3663 10.8335H16.6668C16.8878 10.8335 17.0997 10.7457 17.256 10.5894C17.4123 10.4331 17.5001 10.2212 17.5001 10.0002V3.3335C17.5001 3.11248 17.4123 2.90052 17.256 2.74424C17.0997 2.58796 16.8878 2.50016 16.6668 2.50016H5.41676ZM3.91676 1.3335C4.3495 1.00894 4.87584 0.833496 5.41676 0.833496H16.6668C17.3298 0.833496 17.9657 1.09689 18.4345 1.56573C18.9034 2.03457 19.1668 2.67045 19.1668 3.3335V10.0002C19.1668 10.6632 18.9034 11.2991 18.4345 11.7679C17.9657 12.2368 17.3298 12.5002 16.6668 12.5002H14.3672C14.2122 12.5002 14.0602 12.5436 13.9285 12.6253C13.7967 12.707 13.6904 12.8238 13.6214 12.9627L13.6202 12.9649L10.7452 18.7066C10.6023 18.992 10.3089 19.1707 9.98978 19.1668C9.47124 19.1603 8.96087 19.0368 8.49677 18.8055C8.03268 18.5741 7.62687 18.2408 7.30967 17.8306C6.99247 17.4203 6.77208 16.9437 6.66496 16.4363C6.55795 15.9295 6.56674 15.405 6.69065 14.9021C6.69079 14.9015 6.69092 14.901 6.69106 14.9004L7.27364 12.5002H3.4751C3.08699 12.5002 2.7042 12.4098 2.35706 12.2362C2.00992 12.0627 1.70796 11.8107 1.4751 11.5002C1.24223 11.1897 1.08485 10.8292 1.01542 10.4474C0.946014 10.0656 0.966415 9.67297 1.07501 9.30047C1.07504 9.30037 1.07507 9.30027 1.0751 9.30016L3.01676 2.6335C3.16822 2.11421 3.48402 1.65805 3.91676 1.3335Z" fill="black"/>
</g>
<defs>
<clipPath id="clip0_2001_10734">
<rect width="20" height="20" fill="white"/>
</clipPath>
</defs>
</svg>
