<svg width="20" height="20" viewBox="0 0 20 20" fill="none" xmlns="http://www.w3.org/2000/svg">
<path fill-rule="evenodd" clip-rule="evenodd" d="M1.56549 4.06573C2.03433 3.59689 2.67021 3.3335 3.33325 3.3335H16.6666C17.3296 3.3335 17.9655 3.59689 18.4344 4.06573C18.9032 4.53457 19.1666 5.17045 19.1666 5.8335V7.50016C19.1666 7.9604 18.7935 8.3335 18.3333 8.3335C17.8912 8.3335 17.4673 8.50909 17.1547 8.82165C16.8422 9.13421 16.6666 9.55813 16.6666 10.0002C16.6666 10.4422 16.8422 10.8661 17.1547 11.1787C17.4673 11.4912 17.8912 11.6668 18.3333 11.6668C18.7935 11.6668 19.1666 12.0399 19.1666 12.5002V14.1668C19.1666 14.8299 18.9032 15.4658 18.4344 15.9346C17.9655 16.4034 17.3296 16.6668 16.6666 16.6668H3.33325C2.67021 16.6668 2.03433 16.4034 1.56549 15.9346C1.09664 15.4658 0.833252 14.8299 0.833252 14.1668V12.5002C0.833252 12.0399 1.20635 11.6668 1.66659 11.6668C2.10861 11.6668 2.53254 11.4912 2.8451 11.1787C3.15766 10.8661 3.33325 10.4422 3.33325 10.0002C3.33325 9.55814 3.15766 9.13421 2.8451 8.82165C2.53254 8.50909 2.10861 8.3335 1.66659 8.3335C1.20635 8.3335 0.833252 7.9604 0.833252 7.50016V5.8335C0.833252 5.17045 1.09664 4.53457 1.56549 4.06573ZM3.33325 5.00016C3.11224 5.00016 2.90028 5.08796 2.744 5.24424C2.58772 5.40052 2.49992 5.61248 2.49992 5.8335V6.77267C3.07161 6.92029 3.59899 7.21852 4.02361 7.64314C4.64873 8.26826 4.99992 9.11611 4.99992 10.0002C4.99992 10.8842 4.64873 11.7321 4.02361 12.3572C3.59899 12.7818 3.07161 13.08 2.49992 13.2277V14.1668C2.49992 14.3878 2.58772 14.5998 2.744 14.7561C2.90028 14.9124 3.11224 15.0002 3.33325 15.0002H16.6666C16.8876 15.0002 17.0996 14.9124 17.2558 14.7561C17.4121 14.5998 17.4999 14.3878 17.4999 14.1668V13.2277C16.9282 13.08 16.4008 12.7818 15.9762 12.3572C15.3511 11.7321 14.9999 10.8842 14.9999 10.0002C14.9999 9.11611 15.3511 8.26826 15.9762 7.64314C16.4008 7.21852 16.9282 6.92029 17.4999 6.77267V5.8335C17.4999 5.61248 17.4121 5.40052 17.2558 5.24424C17.0996 5.08796 16.8876 5.00016 16.6666 5.00016H3.33325Z" fill="black"/>
<path fill-rule="evenodd" clip-rule="evenodd" d="M10.8333 3.3335C11.2936 3.3335 11.6667 3.70659 11.6667 4.16683V5.8335C11.6667 6.29373 11.2936 6.66683 10.8333 6.66683C10.3731 6.66683 10 6.29373 10 5.8335V4.16683C10 3.70659 10.3731 3.3335 10.8333 3.3335Z" fill="black"/>
<path fill-rule="evenodd" clip-rule="evenodd" d="M10.8333 13.3335C11.2936 13.3335 11.6667 13.7066 11.6667 14.1668V15.8335C11.6667 16.2937 11.2936 16.6668 10.8333 16.6668C10.3731 16.6668 10 16.2937 10 15.8335V14.1668C10 13.7066 10.3731 13.3335 10.8333 13.3335Z" fill="black"/>
<path fill-rule="evenodd" clip-rule="evenodd" d="M10.8333 8.3335C11.2936 8.3335 11.6667 8.70659 11.6667 9.16683V10.8335C11.6667 11.2937 11.2936 11.6668 10.8333 11.6668C10.3731 11.6668 10 11.2937 10 10.8335V9.16683C10 8.70659 10.3731 8.3335 10.8333 8.3335Z" fill="black"/>
</svg>
