<svg width="20" height="20" viewBox="0 0 20 20" fill="none" xmlns="http://www.w3.org/2000/svg">
<path fill-rule="evenodd" clip-rule="evenodd" d="M15.6167 9.43928C15.9263 9.77983 15.9012 10.3069 15.5606 10.6165L11.4539 14.3498C10.9938 14.768 10.3944 14.9998 9.77267 14.9998H8.75008C8.28984 14.9998 7.91675 14.6267 7.91675 14.1665C7.91675 13.7063 8.28984 13.3332 8.75008 13.3332H9.77249C9.77252 13.3332 9.77255 13.3332 9.77258 13.3332C9.97977 13.3331 10.1795 13.2559 10.3329 13.1166C10.3329 13.1165 10.3329 13.1165 10.3329 13.1165L14.4395 9.38323C14.7801 9.07364 15.3071 9.09873 15.6167 9.43928Z" fill="black"/>
<path fill-rule="evenodd" clip-rule="evenodd" d="M9.17391 11.1398C9.23474 10.6836 9.65387 10.3631 10.1101 10.4239L13.2351 10.8406C13.6913 10.9014 14.0118 11.3205 13.951 11.7767C13.8901 12.2329 13.471 12.5535 13.0148 12.4926L9.8898 12.076C9.4336 12.0151 9.11308 11.596 9.17391 11.1398Z" fill="black"/>
<path fill-rule="evenodd" clip-rule="evenodd" d="M12.8451 1.53714C13.0665 1.52633 13.2878 1.55977 13.496 1.6355C13.7043 1.71124 13.8954 1.82775 14.0581 1.97821C14.2208 2.12868 14.3518 2.31008 14.4436 2.51181L14.4437 2.51201L16.1753 6.32201C16.3658 6.741 16.1805 7.23504 15.7615 7.42547C15.3425 7.6159 14.8485 7.43062 14.658 7.01163L12.9265 3.20182L4.10958 7.4186C3.69438 7.61717 3.19682 7.44156 2.99825 7.02637C2.79968 6.61117 2.97529 6.11361 3.39048 5.91504L12.2069 1.69848C12.207 1.69845 12.2071 1.69841 12.2072 1.69837C12.407 1.60276 12.6239 1.54795 12.8451 1.53714Z" fill="black"/>
<path fill-rule="evenodd" clip-rule="evenodd" d="M5.00008 5.8335C5.46032 5.8335 5.83341 6.20659 5.83341 6.66683V8.3335C5.83341 8.79373 5.46032 9.16683 5.00008 9.16683C4.53984 9.16683 4.16675 8.79373 4.16675 8.3335V6.66683C4.16675 6.20659 4.53984 5.8335 5.00008 5.8335Z" fill="black"/>
<path fill-rule="evenodd" clip-rule="evenodd" d="M5.00008 10.8335C5.46032 10.8335 5.83341 11.2066 5.83341 11.6668V12.5002C5.83341 12.9604 5.46032 13.3335 5.00008 13.3335C4.53984 13.3335 4.16675 12.9604 4.16675 12.5002V11.6668C4.16675 11.2066 4.53984 10.8335 5.00008 10.8335Z" fill="black"/>
<path fill-rule="evenodd" clip-rule="evenodd" d="M5.00008 15C5.46032 15 5.83341 15.3731 5.83341 15.8333V17.5C5.83341 17.9602 5.46032 18.3333 5.00008 18.3333C4.53984 18.3333 4.16675 17.9602 4.16675 17.5V15.8333C4.16675 15.3731 4.53984 15 5.00008 15Z" fill="black"/>
<path fill-rule="evenodd" clip-rule="evenodd" d="M3.33325 7.50016C2.87301 7.50016 2.49992 7.87326 2.49992 8.3335V15.8335C2.49992 16.2937 2.87301 16.6668 3.33325 16.6668H16.6666C17.1268 16.6668 17.4999 16.2937 17.4999 15.8335V8.3335C17.4999 7.87326 17.1268 7.50016 16.6666 7.50016H3.33325ZM0.833252 8.3335C0.833252 6.95278 1.95254 5.8335 3.33325 5.8335H16.6666C18.0473 5.8335 19.1666 6.95278 19.1666 8.3335V15.8335C19.1666 17.2142 18.0473 18.3335 16.6666 18.3335H3.33325C1.95254 18.3335 0.833252 17.2142 0.833252 15.8335V8.3335Z" fill="black"/>
</svg>
