<svg width="20" height="20" viewBox="0 0 20 20" fill="none" xmlns="http://www.w3.org/2000/svg">
<path fill-rule="evenodd" clip-rule="evenodd" d="M1.56549 4.06573C2.03433 3.59689 2.67021 3.3335 3.33325 3.3335H16.6666C17.3296 3.3335 17.9655 3.59689 18.4344 4.06573C18.9032 4.53457 19.1666 5.17045 19.1666 5.8335V7.50016C19.1666 7.9604 18.7935 8.3335 18.3333 8.3335C17.8912 8.3335 17.4673 8.50909 17.1547 8.82165C16.8422 9.13421 16.6666 9.55813 16.6666 10.0002C16.6666 10.4422 16.8422 10.8661 17.1547 11.1787C17.4673 11.4912 17.8912 11.6668 18.3333 11.6668C18.7935 11.6668 19.1666 12.0399 19.1666 12.5002V14.1668C19.1666 14.8299 18.9032 15.4658 18.4344 15.9346C17.9655 16.4034 17.3296 16.6668 16.6666 16.6668H3.33325C2.67021 16.6668 2.03433 16.4034 1.56549 15.9346C1.09664 15.4658 0.833252 14.8299 0.833252 14.1668V12.5002C0.833252 12.0399 1.20635 11.6668 1.66659 11.6668C2.10861 11.6668 2.53254 11.4912 2.8451 11.1787C3.15766 10.8661 3.33325 10.4422 3.33325 10.0002C3.33325 9.55814 3.15766 9.13421 2.8451 8.82165C2.53254 8.50909 2.10861 8.3335 1.66659 8.3335C1.20635 8.3335 0.833252 7.9604 0.833252 7.50016V5.8335C0.833252 5.17045 1.09664 4.53457 1.56549 4.06573ZM3.33325 5.00016C3.11224 5.00016 2.90028 5.08796 2.744 5.24424C2.58772 5.40052 2.49992 5.61248 2.49992 5.8335V6.77267C3.07161 6.92029 3.59899 7.21852 4.02361 7.64314C4.64873 8.26826 4.99992 9.11611 4.99992 10.0002C4.99992 10.8842 4.64873 11.7321 4.02361 12.3572C3.59899 12.7818 3.07161 13.08 2.49992 13.2277V14.1668C2.49992 14.3878 2.58772 14.5998 2.744 14.7561C2.90028 14.9124 3.11224 15.0002 3.33325 15.0002H16.6666C16.8876 15.0002 17.0996 14.9124 17.2558 14.7561C17.4121 14.5998 17.4999 14.3878 17.4999 14.1668V13.2277C16.9282 13.08 16.4008 12.7818 15.9762 12.3572C15.3511 11.7321 14.9999 10.8842 14.9999 10.0002C14.9999 9.11611 15.3511 8.26826 15.9762 7.64314C16.4008 7.21852 16.9282 6.92029 17.4999 6.77267V5.8335C17.4999 5.61248 17.4121 5.40052 17.2558 5.24424C17.0996 5.08796 16.8876 5.00016 16.6666 5.00016H3.33325Z" fill="black"/>
<path fill-rule="evenodd" clip-rule="evenodd" d="M6.66675 7.49984C6.66675 7.0396 7.03984 6.6665 7.50008 6.6665H7.50841C7.96865 6.6665 8.34175 7.0396 8.34175 7.49984C8.34175 7.96007 7.96865 8.33317 7.50841 8.33317H7.50008C7.03984 8.33317 6.66675 7.96007 6.66675 7.49984Z" fill="black"/>
<path fill-rule="evenodd" clip-rule="evenodd" d="M13.0893 6.91058C13.4148 7.23602 13.4148 7.76366 13.0893 8.08909L8.08934 13.0891C7.7639 13.4145 7.23626 13.4145 6.91083 13.0891C6.58539 12.7637 6.58539 12.236 6.91083 11.9106L11.9108 6.91058C12.2363 6.58514 12.7639 6.58514 13.0893 6.91058Z" fill="black"/>
<path fill-rule="evenodd" clip-rule="evenodd" d="M11.6667 12.4998C11.6667 12.0396 12.0398 11.6665 12.5001 11.6665H12.5084C12.9687 11.6665 13.3417 12.0396 13.3417 12.4998C13.3417 12.9601 12.9687 13.3332 12.5084 13.3332H12.5001C12.0398 13.3332 11.6667 12.9601 11.6667 12.4998Z" fill="black"/>
</svg>
