<svg width="20" height="20" viewBox="0 0 20 20" fill="none" xmlns="http://www.w3.org/2000/svg">
<g clip-path="url(#clip0_2001_10781)">
<path fill-rule="evenodd" clip-rule="evenodd" d="M7.5 1.66683C7.5 1.20659 7.8731 0.833496 8.33333 0.833496H11.6667C12.1269 0.833496 12.5 1.20659 12.5 1.66683C12.5 2.12707 12.1269 2.50016 11.6667 2.50016H8.33333C7.8731 2.50016 7.5 2.12707 7.5 1.66683Z" fill="black"/>
<path fill-rule="evenodd" clip-rule="evenodd" d="M4.15333 8.39715C4.57826 8.57392 4.77943 9.06171 4.60266 9.48664C4.16092 10.5485 4.04292 11.7172 4.26347 12.8459C4.48374 13.9732 5.0319 15.0103 5.83917 15.8273C6.65614 16.6346 7.69328 17.1827 8.82057 17.403C9.94928 17.6236 11.118 17.5055 12.1798 17.0638C12.6048 16.887 13.0925 17.0882 13.2693 17.5131C13.4461 17.9381 13.2449 18.4259 12.82 18.6026C11.4548 19.1706 9.95214 19.3223 8.50094 19.0387C7.04975 18.7552 5.71475 18.049 4.66375 17.0089C4.66168 17.0068 4.65963 17.0048 4.65759 17.0027C3.61751 15.9517 2.9113 14.6167 2.62774 13.1655C2.34417 11.7143 2.49589 10.2117 3.06384 8.84648C3.24061 8.42154 3.7284 8.22037 4.15333 8.39715Z" fill="black"/>
<path fill-rule="evenodd" clip-rule="evenodd" d="M10.5307 5.83802C9.15525 5.70449 7.77708 6.06358 6.6417 6.85133C6.26357 7.11369 5.74434 7.01983 5.48198 6.6417C5.21963 6.26356 5.31348 5.74434 5.69162 5.48198C7.15139 4.46916 8.92333 4.00746 10.6917 4.17916C12.4585 4.35069 14.1072 5.14331 15.3445 6.41597C16.5789 7.6593 17.3392 9.29564 17.4932 11.041C17.6473 12.7881 17.1843 14.5339 16.1847 15.975C15.9224 16.3531 15.4032 16.447 15.025 16.1847C14.6469 15.9224 14.5529 15.4032 14.8153 15.025C15.5927 13.9042 15.9528 12.5463 15.8329 11.1875C15.7131 9.82871 15.1208 8.55489 14.159 7.58752C14.1578 7.58634 14.1567 7.58516 14.1555 7.58397C14.1544 7.58282 14.1532 7.58166 14.1521 7.5805C13.1895 6.58905 11.9061 5.97156 10.5307 5.83802Z" fill="black"/>
<path fill-rule="evenodd" clip-rule="evenodd" d="M1.07733 1.07757C1.40277 0.752137 1.9304 0.752137 2.25584 1.07757L18.9225 17.7442C19.2479 18.0697 19.2479 18.5973 18.9225 18.9228C18.5971 19.2482 18.0694 19.2482 17.744 18.9228L1.07733 2.25609C0.751893 1.93065 0.751893 1.40301 1.07733 1.07757Z" fill="black"/>
<path fill-rule="evenodd" clip-rule="evenodd" d="M10.0001 7.5C10.4603 7.5 10.8334 7.8731 10.8334 8.33333V10C10.8334 10.4602 10.4603 10.8333 10.0001 10.8333C9.53984 10.8333 9.16675 10.4602 9.16675 10V8.33333C9.16675 7.8731 9.53984 7.5 10.0001 7.5Z" fill="black"/>
</g>
<defs>
<clipPath id="clip0_2001_10781">
<rect width="20" height="20" fill="white"/>
</clipPath>
</defs>
</svg>
