<svg width="20" height="20" viewBox="0 0 20 20" fill="none" xmlns="http://www.w3.org/2000/svg">
<path fill-rule="evenodd" clip-rule="evenodd" d="M7.5 1.66683C7.5 1.20659 7.8731 0.833496 8.33333 0.833496H11.6667C12.1269 0.833496 12.5 1.20659 12.5 1.66683C12.5 2.12707 12.1269 2.50016 11.6667 2.50016H8.33333C7.8731 2.50016 7.5 2.12707 7.5 1.66683Z" fill="black"/>
<path fill-rule="evenodd" clip-rule="evenodd" d="M13.0893 8.57757C13.4148 8.90301 13.4148 9.43065 13.0893 9.75609L10.5893 12.2561C10.2639 12.5815 9.73626 12.5815 9.41083 12.2561C9.08539 11.9306 9.08539 11.403 9.41083 11.0776L11.9108 8.57757C12.2363 8.25214 12.7639 8.25214 13.0893 8.57757Z" fill="black"/>
<path fill-rule="evenodd" clip-rule="evenodd" d="M10 5.83317C6.77834 5.83317 4.16667 8.44484 4.16667 11.6665C4.16667 14.8882 6.77834 17.4998 10 17.4998C13.2217 17.4998 15.8333 14.8882 15.8333 11.6665C15.8333 8.44484 13.2217 5.83317 10 5.83317ZM2.5 11.6665C2.5 7.52437 5.85786 4.1665 10 4.1665C14.1421 4.1665 17.5 7.52437 17.5 11.6665C17.5 15.8086 14.1421 19.1665 10 19.1665C5.85786 19.1665 2.5 15.8086 2.5 11.6665Z" fill="black"/>
</svg>
