<svg width="20" height="20" viewBox="0 0 20 20" fill="none" xmlns="http://www.w3.org/2000/svg">
<path fill-rule="evenodd" clip-rule="evenodd" d="M7.5 1.66683C7.5 1.20659 7.8731 0.833496 8.33333 0.833496H11.6667C12.1269 0.833496 12.5 1.20659 12.5 1.66683C12.5 2.12707 12.1269 2.50016 11.6667 2.50016H8.33333C7.8731 2.50016 7.5 2.12707 7.5 1.66683Z" fill="black"/>
<path fill-rule="evenodd" clip-rule="evenodd" d="M10.0001 7.5C10.4603 7.5 10.8334 7.8731 10.8334 8.33333V11.6667C10.8334 12.1269 10.4603 12.5 10.0001 12.5C9.53984 12.5 9.16675 12.1269 9.16675 11.6667V8.33333C9.16675 7.8731 9.53984 7.5 10.0001 7.5Z" fill="black"/>
<path fill-rule="evenodd" clip-rule="evenodd" d="M9.99356 5.83335C8.56488 5.82215 7.18177 6.33565 6.10655 7.27647C5.03133 8.21729 4.33877 9.52 4.16022 10.9375C4.10271 11.3941 3.68591 11.7177 3.22928 11.6602C2.77265 11.6027 2.44911 11.1859 2.50662 10.7292C2.73618 8.90671 3.62661 7.2318 5.00904 6.02218C6.39076 4.81317 8.16793 4.15301 10.0038 4.16671C11.216 4.16846 12.4097 4.464 13.4827 5.02805C14.5566 5.59253 15.4775 6.40909 16.1664 7.40767C16.8553 8.40625 17.2917 9.55705 17.4382 10.7613C17.5846 11.9656 17.4367 13.1875 17.0072 14.3221C16.5777 15.4567 15.8793 16.4701 14.9721 17.2755C14.0648 18.0809 12.9757 18.6542 11.7982 18.9462C10.6207 19.2382 9.38995 19.2402 8.2115 18.9521C7.03306 18.6639 5.9421 18.0941 5.03222 17.2917C5.03141 17.291 5.0306 17.2903 5.02979 17.2896L2.77979 15.2896C2.4358 14.9838 2.40482 14.4571 2.71058 14.1131C3.01635 13.7691 3.54307 13.7381 3.88706 14.0439L6.13462 16.0417C6.135 16.042 6.13538 16.0424 6.13576 16.0427C6.84322 16.6663 7.69132 17.1091 8.60739 17.3331C9.52396 17.5572 10.4812 17.5557 11.3971 17.3285C12.3129 17.1014 13.16 16.6555 13.8656 16.0291C14.5713 15.4027 15.1144 14.6145 15.4485 13.732C15.7826 12.8495 15.8976 11.8992 15.7837 10.9625C15.6698 10.0259 15.3304 9.13079 14.7945 8.35412C14.2587 7.57745 13.5424 6.94235 12.7072 6.50331C11.872 6.06426 10.9428 5.83438 9.9992 5.83338C9.99732 5.83337 9.99544 5.83336 9.99356 5.83335Z" fill="black"/>
<path fill-rule="evenodd" clip-rule="evenodd" d="M2.5 14.1668C2.5 13.7066 2.8731 13.3335 3.33333 13.3335H7.5C7.96024 13.3335 8.33333 13.7066 8.33333 14.1668C8.33333 14.6271 7.96024 15.0002 7.5 15.0002H4.16667V18.3335C4.16667 18.7937 3.79357 19.1668 3.33333 19.1668C2.8731 19.1668 2.5 18.7937 2.5 18.3335V14.1668Z" fill="black"/>
</svg>
