<svg width="20" height="20" viewBox="0 0 20 20" fill="none" xmlns="http://www.w3.org/2000/svg">
<path fill-rule="evenodd" clip-rule="evenodd" d="M6.66659 5.83317C4.3654 5.83317 2.49992 7.69865 2.49992 9.99984C2.49992 12.301 4.3654 14.1665 6.66659 14.1665H13.3333C15.6344 14.1665 17.4999 12.301 17.4999 9.99984C17.4999 7.69865 15.6344 5.83317 13.3333 5.83317H6.66659ZM0.833252 9.99984C0.833252 6.77818 3.44492 4.1665 6.66659 4.1665H13.3333C16.5549 4.1665 19.1666 6.77818 19.1666 9.99984C19.1666 13.2215 16.5549 15.8332 13.3333 15.8332H6.66659C3.44492 15.8332 0.833252 13.2215 0.833252 9.99984Z" fill="black"/>
<path fill-rule="evenodd" clip-rule="evenodd" d="M13.3333 9.16667C12.873 9.16667 12.4999 9.53976 12.4999 10C12.4999 10.4602 12.873 10.8333 13.3333 10.8333C13.7935 10.8333 14.1666 10.4602 14.1666 10C14.1666 9.53976 13.7935 9.16667 13.3333 9.16667ZM10.8333 10C10.8333 8.61929 11.9525 7.5 13.3333 7.5C14.714 7.5 15.8333 8.61929 15.8333 10C15.8333 11.3807 14.714 12.5 13.3333 12.5C11.9525 12.5 10.8333 11.3807 10.8333 10Z" fill="black"/>
</svg>
