<svg width="20" height="20" viewBox="0 0 20 20" fill="none" xmlns="http://www.w3.org/2000/svg">
<path fill-rule="evenodd" clip-rule="evenodd" d="M6.66659 5.83317C4.3654 5.83317 2.49992 7.69865 2.49992 9.99984C2.49992 12.301 4.3654 14.1665 6.66659 14.1665H13.3333C15.6344 14.1665 17.4999 12.301 17.4999 9.99984C17.4999 7.69865 15.6344 5.83317 13.3333 5.83317H6.66659ZM0.833252 9.99984C0.833252 6.77818 3.44492 4.1665 6.66659 4.1665H13.3333C16.5549 4.1665 19.1666 6.77818 19.1666 9.99984C19.1666 13.2215 16.5549 15.8332 13.3333 15.8332H6.66659C3.44492 15.8332 0.833252 13.2215 0.833252 9.99984Z" fill="black"/>
<path fill-rule="evenodd" clip-rule="evenodd" d="M6.66675 9.16667C6.20651 9.16667 5.83341 9.53976 5.83341 10C5.83341 10.4602 6.20651 10.8333 6.66675 10.8333C7.12699 10.8333 7.50008 10.4602 7.50008 10C7.50008 9.53976 7.12699 9.16667 6.66675 9.16667ZM4.16675 10C4.16675 8.61929 5.28604 7.5 6.66675 7.5C8.04746 7.5 9.16675 8.61929 9.16675 10C9.16675 11.3807 8.04746 12.5 6.66675 12.5C5.28604 12.5 4.16675 11.3807 4.16675 10Z" fill="black"/>
</svg>
