<svg width="20" height="20" viewBox="0 0 20 20" fill="none" xmlns="http://www.w3.org/2000/svg">
<path fill-rule="evenodd" clip-rule="evenodd" d="M1.66675 3.33333C1.66675 2.8731 2.03984 2.5 2.50008 2.5H17.5001C17.9603 2.5 18.3334 2.8731 18.3334 3.33333C18.3334 3.79357 17.9603 4.16667 17.5001 4.16667H2.50008C2.03984 4.16667 1.66675 3.79357 1.66675 3.33333Z" fill="black"/>
<path fill-rule="evenodd" clip-rule="evenodd" d="M4.16675 6.66683C4.16675 6.20659 4.53984 5.8335 5.00008 5.8335H15.0001C15.4603 5.8335 15.8334 6.20659 15.8334 6.66683C15.8334 7.12707 15.4603 7.50016 15.0001 7.50016H5.00008C4.53984 7.50016 4.16675 7.12707 4.16675 6.66683Z" fill="black"/>
<path fill-rule="evenodd" clip-rule="evenodd" d="M6.66675 9.99984C6.66675 9.5396 7.03984 9.1665 7.50008 9.1665H15.8334C16.2937 9.1665 16.6667 9.5396 16.6667 9.99984C16.6667 10.4601 16.2937 10.8332 15.8334 10.8332H7.50008C7.03984 10.8332 6.66675 10.4601 6.66675 9.99984Z" fill="black"/>
<path fill-rule="evenodd" clip-rule="evenodd" d="M7.5 13.3333C7.5 12.8731 7.8731 12.5 8.33333 12.5H13.3333C13.7936 12.5 14.1667 12.8731 14.1667 13.3333C14.1667 13.7936 13.7936 14.1667 13.3333 14.1667H8.33333C7.8731 14.1667 7.5 13.7936 7.5 13.3333Z" fill="black"/>
<path fill-rule="evenodd" clip-rule="evenodd" d="M6.66675 16.6668C6.66675 16.2066 7.03984 15.8335 7.50008 15.8335H9.16675C9.62699 15.8335 10.0001 16.2066 10.0001 16.6668C10.0001 17.1271 9.62699 17.5002 9.16675 17.5002H7.50008C7.03984 17.5002 6.66675 17.1271 6.66675 16.6668Z" fill="black"/>
</svg>
