<svg width="20" height="20" viewBox="0 0 20 20" fill="none" xmlns="http://www.w3.org/2000/svg">
<path fill-rule="evenodd" clip-rule="evenodd" d="M8.69456 8.68137C8.39114 8.88365 8.33341 9.07159 8.33341 9.1665C8.33341 9.26142 8.39114 9.44936 8.69456 9.65164C8.99216 9.85004 9.4513 9.99984 10.0001 9.99984C10.5489 9.99984 11.008 9.85004 11.3056 9.65164C11.609 9.44936 11.6667 9.26142 11.6667 9.1665C11.6667 9.07159 11.609 8.88365 11.3056 8.68137C11.008 8.48297 10.5489 8.33317 10.0001 8.33317C9.4513 8.33317 8.99216 8.48297 8.69456 8.68137ZM7.77006 7.29462C8.37729 6.8898 9.16815 6.6665 10.0001 6.6665C10.832 6.6665 11.6229 6.8898 12.2301 7.29462C12.8315 7.69555 13.3334 8.34095 13.3334 9.1665C13.3334 9.99206 12.8315 10.6375 12.2301 11.0384C11.6229 11.4432 10.832 11.6665 10.0001 11.6665C9.16815 11.6665 8.37729 11.4432 7.77006 11.0384C7.16867 10.6375 6.66675 9.99206 6.66675 9.1665C6.66675 8.34095 7.16867 7.69555 7.77006 7.29462Z" fill="black"/>
<path fill-rule="evenodd" clip-rule="evenodd" d="M9.99992 4.16667C5.72565 4.16667 2.49992 7.08674 2.49992 10.4167C2.49992 13.7466 5.72565 16.6667 9.99992 16.6667C14.2742 16.6667 17.4999 13.7466 17.4999 10.4167C17.4999 7.08674 14.2742 4.16667 9.99992 4.16667ZM0.833252 10.4167C0.833252 5.92256 5.06944 2.5 9.99992 2.5C14.9304 2.5 19.1666 5.92256 19.1666 10.4167C19.1666 14.9108 14.9304 18.3333 9.99992 18.3333C5.06944 18.3333 0.833252 14.9108 0.833252 10.4167Z" fill="black"/>
</svg>
