<svg width="20" height="20" viewBox="0 0 20 20" fill="none" xmlns="http://www.w3.org/2000/svg">
<path fill-rule="evenodd" clip-rule="evenodd" d="M3.33325 4.16667C2.87301 4.16667 2.49992 4.53976 2.49992 5V15C2.49992 15.4602 2.87301 15.8333 3.33325 15.8333H16.6666C17.1268 15.8333 17.4999 15.4602 17.4999 15V5C17.4999 4.53976 17.1268 4.16667 16.6666 4.16667H3.33325ZM0.833252 5C0.833252 3.61929 1.95254 2.5 3.33325 2.5H16.6666C18.0473 2.5 19.1666 3.61929 19.1666 5V15C19.1666 16.3807 18.0473 17.5 16.6666 17.5H3.33325C1.95254 17.5 0.833252 16.3807 0.833252 15V5Z" fill="black"/>
<path fill-rule="evenodd" clip-rule="evenodd" d="M0.833252 11.6668C0.833252 11.2066 1.20635 10.8335 1.66659 10.8335H18.3333C18.7935 10.8335 19.1666 11.2066 19.1666 11.6668C19.1666 12.1271 18.7935 12.5002 18.3333 12.5002H1.66659C1.20635 12.5002 0.833252 12.1271 0.833252 11.6668Z" fill="black"/>
<path fill-rule="evenodd" clip-rule="evenodd" d="M10.0001 10.8335C10.4603 10.8335 10.8334 11.2066 10.8334 11.6668V16.6668C10.8334 17.1271 10.4603 17.5002 10.0001 17.5002C9.53984 17.5002 9.16675 17.1271 9.16675 16.6668V11.6668C9.16675 11.2066 9.53984 10.8335 10.0001 10.8335Z" fill="black"/>
</svg>
