<svg width="20" height="20" viewBox="0 0 20 20" fill="none" xmlns="http://www.w3.org/2000/svg">
<g clip-path="url(#clip0_2001_10811)">
<path fill-rule="evenodd" clip-rule="evenodd" d="M1.56548 3.23223C2.03433 2.76339 2.67021 2.5 3.33325 2.5C3.79349 2.5 4.16658 2.8731 4.16658 3.33333C4.16658 3.79357 3.79349 4.16667 3.33325 4.16667C3.11224 4.16667 2.90028 4.25446 2.744 4.41074C2.58772 4.56702 2.49992 4.77899 2.49992 5V15C2.49992 15.221 2.58772 15.433 2.744 15.5893C2.90028 15.7455 3.11224 15.8333 3.33325 15.8333H16.6666C17.1268 15.8333 17.4999 16.2064 17.4999 16.6667C17.4999 17.1269 17.1268 17.5 16.6666 17.5H3.33325C2.67021 17.5 2.03433 17.2366 1.56548 16.7678C1.09664 16.2989 0.833252 15.663 0.833252 15V5C0.833252 4.33696 1.09664 3.70107 1.56548 3.23223Z" fill="black"/>
<path fill-rule="evenodd" clip-rule="evenodd" d="M0.833252 11.6668C0.833252 11.2066 1.20635 10.8335 1.66659 10.8335H11.6666C12.1268 10.8335 12.4999 11.2066 12.4999 11.6668C12.4999 12.1271 12.1268 12.5002 11.6666 12.5002H1.66659C1.20635 12.5002 0.833252 12.1271 0.833252 11.6668Z" fill="black"/>
<path fill-rule="evenodd" clip-rule="evenodd" d="M15.8333 11.6668C15.8333 11.2066 16.2063 10.8335 16.6666 10.8335H18.3333C18.7935 10.8335 19.1666 11.2066 19.1666 11.6668C19.1666 12.1271 18.7935 12.5002 18.3333 12.5002H16.6666C16.2063 12.5002 15.8333 12.1271 15.8333 11.6668Z" fill="black"/>
<path fill-rule="evenodd" clip-rule="evenodd" d="M10.0001 10.8335C10.4603 10.8335 10.8334 11.2066 10.8334 11.6668V16.6668C10.8334 17.1271 10.4603 17.5002 10.0001 17.5002C9.53984 17.5002 9.16675 17.1271 9.16675 16.6668V11.6668C9.16675 11.2066 9.53984 10.8335 10.0001 10.8335Z" fill="black"/>
<path fill-rule="evenodd" clip-rule="evenodd" d="M1.07733 1.07757C1.40277 0.752137 1.9304 0.752137 2.25584 1.07757L18.9225 17.7442C19.2479 18.0697 19.2479 18.5973 18.9225 18.9228C18.5971 19.2482 18.0694 19.2482 17.744 18.9228L1.07733 2.25609C0.751893 1.93065 0.751893 1.40301 1.07733 1.07757Z" fill="black"/>
<path fill-rule="evenodd" clip-rule="evenodd" d="M7.5 3.33333C7.5 2.8731 7.8731 2.5 8.33333 2.5H16.6667C17.3297 2.5 17.9656 2.76339 18.4344 3.23223C18.9033 3.70107 19.1667 4.33696 19.1667 5V13.3333C19.1667 13.7936 18.7936 14.1667 18.3333 14.1667C17.8731 14.1667 17.5 13.7936 17.5 13.3333V5C17.5 4.77899 17.4122 4.56702 17.2559 4.41074C17.0996 4.25446 16.8877 4.16667 16.6667 4.16667H8.33333C7.8731 4.16667 7.5 3.79357 7.5 3.33333Z" fill="black"/>
</g>
<defs>
<clipPath id="clip0_2001_10811">
<rect width="20" height="20" fill="white"/>
</clipPath>
</defs>
</svg>
