<svg width="20" height="20" viewBox="0 0 20 20" fill="none" xmlns="http://www.w3.org/2000/svg">
<path fill-rule="evenodd" clip-rule="evenodd" d="M2.66773 4.49843C2.82518 4.28942 3.07166 4.1665 3.33334 4.1665H16.6667C16.9284 4.1665 17.1748 4.28942 17.3323 4.49843C17.4897 4.70744 17.5399 4.97827 17.4677 5.22978L16.0001 10.3417C15.995 10.378 15.9874 10.4141 15.9774 10.4498C15.8794 10.7991 15.6702 11.1069 15.3814 11.3265C15.0927 11.5461 14.7402 11.6655 14.3774 11.6665C14.3766 11.6665 14.3758 11.6665 14.375 11.6665H5.62501C5.62143 11.6665 5.61785 11.6665 5.61427 11.6664C5.25437 11.6618 4.90564 11.5408 4.62023 11.3215C4.33564 11.1028 4.12926 10.7981 4.03177 10.4527L2.53236 5.22978C2.46015 4.97827 2.51028 4.70744 2.66773 4.49843ZM14.3643 9.99984C14.3648 9.99819 14.3652 9.99654 14.3657 9.99489L15.5604 5.83317H4.43957L5.63432 9.99489C5.63479 9.99654 5.63526 9.99819 5.63572 9.99984H14.3643Z" fill="black"/>
<path fill-rule="evenodd" clip-rule="evenodd" d="M6.66659 10C7.12682 10 7.49992 10.3731 7.49992 10.8333V18.3333C7.49992 18.7936 7.12682 19.1667 6.66659 19.1667C6.20635 19.1667 5.83325 18.7936 5.83325 18.3333V10.8333C5.83325 10.3731 6.20635 10 6.66659 10Z" fill="black"/>
<path fill-rule="evenodd" clip-rule="evenodd" d="M13.3333 10C13.7936 10 14.1667 10.3731 14.1667 10.8333V18.3333C14.1667 18.7936 13.7936 19.1667 13.3333 19.1667C12.8731 19.1667 12.5 18.7936 12.5 18.3333V10.8333C12.5 10.3731 12.8731 10 13.3333 10Z" fill="black"/>
<path fill-rule="evenodd" clip-rule="evenodd" d="M7.38209 4.17499C7.8377 4.1099 8.25981 4.42648 8.3249 4.88209L9.15823 10.7154C9.22332 11.171 8.90674 11.5931 8.45113 11.6582C7.99552 11.7233 7.57341 11.4067 7.50832 10.9511L6.67499 5.11779C6.6099 4.66218 6.92648 4.24007 7.38209 4.17499Z" fill="black"/>
<path fill-rule="evenodd" clip-rule="evenodd" d="M12.6179 4.17499C13.0735 4.24007 13.3901 4.66218 13.325 5.11779L12.4916 10.9511C12.4266 11.4067 12.0045 11.7233 11.5488 11.6582C11.0932 11.5931 10.7766 11.171 10.8417 10.7154L11.6751 4.88209C11.7402 4.42648 12.1623 4.1099 12.6179 4.17499Z" fill="black"/>
<path fill-rule="evenodd" clip-rule="evenodd" d="M10.0001 0.833496C10.4603 0.833496 10.8334 1.20659 10.8334 1.66683V5.00016C10.8334 5.4604 10.4603 5.8335 10.0001 5.8335C9.53984 5.8335 9.16675 5.4604 9.16675 5.00016V1.66683C9.16675 1.20659 9.53984 0.833496 10.0001 0.833496Z" fill="black"/>
<path fill-rule="evenodd" clip-rule="evenodd" d="M8.33325 1.66683C8.33325 1.20659 8.70635 0.833496 9.16659 0.833496H10.8333C11.2935 0.833496 11.6666 1.20659 11.6666 1.66683C11.6666 2.12707 11.2935 2.50016 10.8333 2.50016H9.16659C8.70635 2.50016 8.33325 2.12707 8.33325 1.66683Z" fill="black"/>
</svg>
