<svg width="20" height="20" viewBox="0 0 20 20" fill="none" xmlns="http://www.w3.org/2000/svg">
<path fill-rule="evenodd" clip-rule="evenodd" d="M3.33341 7.50016V15.8335H16.6667V7.50016H3.33341ZM1.66675 7.50016C1.66675 6.57969 2.41294 5.8335 3.33341 5.8335H16.6667C17.5872 5.8335 18.3334 6.57969 18.3334 7.50016V15.8335C18.3334 16.754 17.5872 17.5002 16.6667 17.5002H3.33341C2.41294 17.5002 1.66675 16.754 1.66675 15.8335V7.50016Z" fill="black"/>
<path fill-rule="evenodd" clip-rule="evenodd" d="M3.82141 2.98816C4.13397 2.6756 4.55789 2.5 4.99992 2.5H7.49992C7.93929 2.5 8.37019 2.6501 8.69334 2.97324C9.01649 3.29639 9.16659 3.72729 9.16659 4.16667V6.66667C9.16659 7.1269 8.79349 7.5 8.33325 7.5C7.87301 7.5 7.49992 7.1269 7.49992 6.66667V4.16667L4.99992 4.16667L4.99992 6.66667C4.99992 7.1269 4.62682 7.5 4.16659 7.5C3.70635 7.5 3.33325 7.1269 3.33325 6.66667V4.16667C3.33325 3.72464 3.50885 3.30072 3.82141 2.98816Z" fill="black"/>
<path fill-rule="evenodd" clip-rule="evenodd" d="M11.3214 2.98816C11.634 2.6756 12.0579 2.5 12.4999 2.5H14.9999C15.4393 2.5 15.8702 2.6501 16.1933 2.97324C16.5165 3.29639 16.6666 3.72729 16.6666 4.16667V6.66667C16.6666 7.1269 16.2935 7.5 15.8333 7.5C15.373 7.5 14.9999 7.1269 14.9999 6.66667V4.16667L12.4999 4.16667L12.4999 6.66667C12.4999 7.1269 12.1268 7.5 11.6666 7.5C11.2063 7.5 10.8333 7.1269 10.8333 6.66667V4.16667C10.8333 3.72464 11.0088 3.30072 11.3214 2.98816Z" fill="black"/>
</svg>
