<svg width="20" height="20" viewBox="0 0 20 20" fill="none" xmlns="http://www.w3.org/2000/svg">
<path fill-rule="evenodd" clip-rule="evenodd" d="M7.50282 9.09892C7.54035 8.64022 7.94263 8.29879 8.40133 8.33632L17.568 9.08632C17.5992 9.08886 17.6301 9.09316 17.6608 9.0992C18.0733 9.1803 18.4399 9.41428 18.6872 9.75427C18.9344 10.0943 19.0441 10.5151 18.9941 10.9325C18.9928 10.9434 18.9913 10.9543 18.9896 10.9651L18.4354 14.4301L18.4354 14.4302C18.3728 14.8218 18.1725 15.1782 17.8707 15.4354C17.569 15.6925 17.1856 15.8337 16.7892 15.8335C16.7891 15.8335 16.7889 15.8335 16.7887 15.8335H16.6667C16.2065 15.8335 15.8334 15.4604 15.8334 15.0002C15.8334 14.54 16.2065 14.1669 16.6667 14.1669H16.7892L16.7897 14.1669L17.3378 10.7397L8.26542 9.99743C7.80672 9.9599 7.46529 9.55762 7.50282 9.09892Z" fill="black"/>
<path fill-rule="evenodd" clip-rule="evenodd" d="M8.33325 14.9998C8.33325 14.5396 8.70635 14.1665 9.16659 14.1665H13.3333C13.7935 14.1665 14.1666 14.5396 14.1666 14.9998C14.1666 15.4601 13.7935 15.8332 13.3333 15.8332H9.16659C8.70635 15.8332 8.33325 15.4601 8.33325 14.9998Z" fill="black"/>
<path fill-rule="evenodd" clip-rule="evenodd" d="M13.8214 3.82165C14.134 3.50909 14.5579 3.3335 14.9999 3.3335C15.4602 3.3335 15.8333 3.70659 15.8333 4.16683C15.8333 4.62707 15.4602 5.00016 14.9999 5.00016V9.64433C14.9999 10.1046 14.6268 10.4777 14.1666 10.4777C13.7063 10.4777 13.3333 10.1046 13.3333 9.64433V5.00016C13.3333 4.55814 13.5088 4.13421 13.8214 3.82165Z" fill="black"/>
<path fill-rule="evenodd" clip-rule="evenodd" d="M1.66675 3.33333C1.66675 2.8731 2.03984 2.5 2.50008 2.5L9.27472 2.5C9.67703 2.50023 10.0657 2.64597 10.3689 2.91033C10.6722 3.17469 10.8696 3.53982 10.9247 3.93833L11.6589 9.25773C11.7218 9.71364 11.4033 10.1342 10.9474 10.1972C10.4914 10.2601 10.0708 9.94152 10.0079 9.48561L9.27377 4.16667H2.50008C2.03984 4.16667 1.66675 3.79357 1.66675 3.33333Z" fill="black"/>
<path fill-rule="evenodd" clip-rule="evenodd" d="M3.33333 2.5C3.79357 2.5 4.16667 2.8731 4.16667 3.33333V9.16667C4.16667 9.6269 3.79357 10 3.33333 10C2.8731 10 2.5 9.6269 2.5 9.16667V3.33333C2.5 2.8731 2.8731 2.5 3.33333 2.5Z" fill="black"/>
<path fill-rule="evenodd" clip-rule="evenodd" d="M5 12.4998C5 12.0396 5.3731 11.6665 5.83333 11.6665H5.84167C6.3019 11.6665 6.675 12.0396 6.675 12.4998C6.675 12.9601 6.3019 13.3332 5.84167 13.3332H5.83333C5.3731 13.3332 5 12.9601 5 12.4998Z" fill="black"/>
<path fill-rule="evenodd" clip-rule="evenodd" d="M6.66659 2.5C7.12682 2.5 7.49992 2.8731 7.49992 3.33333V8.41667C7.49992 8.8769 7.12682 9.25 6.66659 9.25C6.20635 9.25 5.83325 8.8769 5.83325 8.41667V3.33333C5.83325 2.8731 6.20635 2.5 6.66659 2.5Z" fill="black"/>
<path fill-rule="evenodd" clip-rule="evenodd" d="M15 14.1667C14.5398 14.1667 14.1667 14.5398 14.1667 15C14.1667 15.4602 14.5398 15.8333 15 15.8333C15.4602 15.8333 15.8333 15.4602 15.8333 15C15.8333 14.5398 15.4602 14.1667 15 14.1667ZM12.5 15C12.5 13.6193 13.6193 12.5 15 12.5C16.3807 12.5 17.5 13.6193 17.5 15C17.5 16.3807 16.3807 17.5 15 17.5C13.6193 17.5 12.5 16.3807 12.5 15Z" fill="black"/>
<path fill-rule="evenodd" clip-rule="evenodd" d="M5.83325 9.16667C3.9923 9.16667 2.49992 10.6591 2.49992 12.5C2.49992 14.3409 3.9923 15.8333 5.83325 15.8333C7.6742 15.8333 9.16659 14.3409 9.16659 12.5C9.16659 10.6591 7.6742 9.16667 5.83325 9.16667ZM0.833252 12.5C0.833252 9.73858 3.07183 7.5 5.83325 7.5C8.59468 7.5 10.8333 9.73858 10.8333 12.5C10.8333 15.2614 8.59468 17.5 5.83325 17.5C3.07183 17.5 0.833252 15.2614 0.833252 12.5Z" fill="black"/>
</svg>
