<svg width="20" height="20" viewBox="0 0 20 20" fill="none" xmlns="http://www.w3.org/2000/svg">
<g clip-path="url(#clip0_2001_10844)">
<path fill-rule="evenodd" clip-rule="evenodd" d="M7.07914 4.67238C7.35225 4.30193 7.87395 4.22302 8.2444 4.49613C8.75292 4.87104 9.36811 5.07329 9.99989 5.07329C10.6317 5.07329 11.2469 4.87104 11.7554 4.49613C12.1258 4.22302 12.6475 4.30193 12.9206 4.67238C13.1938 5.04282 13.1148 5.56453 12.7444 5.83764C11.9494 6.42375 10.9876 6.73996 9.99989 6.73996C9.01218 6.73996 8.0504 6.42375 7.25539 5.83764C6.88494 5.56453 6.80603 5.04282 7.07914 4.67238Z" fill="black"/>
<path fill-rule="evenodd" clip-rule="evenodd" d="M5.9605 8.3632C6.26627 8.01922 6.79299 7.98823 7.13698 8.294C7.69117 8.78661 8.72099 9.16684 10 9.16684C11.279 9.16684 12.3088 8.78661 12.863 8.294C13.207 7.98823 13.7338 8.01922 14.0395 8.3632C14.3453 8.70719 14.3143 9.23391 13.9703 9.53968C13.0245 10.3804 11.5543 10.8335 10 10.8335C8.44569 10.8335 6.97552 10.3804 6.02971 9.53968C5.68572 9.23391 5.65474 8.70719 5.9605 8.3632Z" fill="black"/>
<path fill-rule="evenodd" clip-rule="evenodd" d="M8.47291 1.24296C8.9222 0.885696 9.48299 0.698148 10.0568 0.713248C10.6306 0.728348 11.1808 0.945132 11.6107 1.32553C12.024 1.69134 12.3008 2.18597 12.3968 2.72826L14.8457 10.8911C14.9381 11.0583 14.9682 11.2187 14.9811 11.309C15.0002 11.4428 15 11.5796 14.9999 11.6523C14.9999 11.6573 14.9999 11.6621 14.9999 11.6664C14.9999 12.7734 14.2815 13.628 13.3855 14.1631C12.4813 14.7032 11.2848 14.9998 9.99992 14.9998C8.71501 14.9998 7.51859 14.7032 6.61431 14.1631C5.71832 13.628 4.99992 12.7734 4.99992 11.6664C4.99992 11.6585 4.99989 11.65 4.99985 11.6408C4.99923 11.4936 4.99796 11.1912 5.13482 10.8723L7.60868 2.62606C7.72962 2.08002 8.0345 1.59157 8.47291 1.24296ZM10.013 2.37934C9.83083 2.37454 9.65283 2.43407 9.51022 2.54747C9.36762 2.66087 9.26952 2.82088 9.23316 2.99941C9.22814 3.02406 9.22201 3.04848 9.21478 3.07257L6.71478 11.4059C6.70286 11.4456 6.688 11.4844 6.67032 11.5219C6.66934 11.5304 6.6682 11.5445 6.66748 11.5675C6.66666 11.594 6.66659 11.6226 6.66659 11.6664C6.66659 11.9762 6.86486 12.3715 7.46887 12.7322C8.06459 13.088 8.9515 13.3331 9.99992 13.3331C11.0483 13.3331 11.9353 13.088 12.531 12.7322C13.135 12.3715 13.3333 11.9762 13.3333 11.6664C13.3333 11.6453 13.3332 11.6279 13.3331 11.6128C13.3139 11.5731 13.2978 11.5318 13.2851 11.4892L10.7851 3.15591C10.7736 3.1178 10.7649 3.07892 10.7591 3.03957C10.7321 2.85937 10.6426 2.69442 10.5062 2.57368C10.3697 2.45294 10.1951 2.38413 10.013 2.37934Z" fill="black"/>
<path fill-rule="evenodd" clip-rule="evenodd" d="M13.034 9.65696C13.2696 9.26157 13.781 9.13199 14.1764 9.36754L18.0931 11.7009L18.0953 11.7022C18.6212 12.0178 19.1666 12.5732 19.1666 13.3335C19.1666 14.1364 18.5727 14.6825 17.8812 14.9928L11.5912 18.7172C11.5846 18.7211 11.578 18.7249 11.5713 18.7286C10.5696 19.2851 9.26357 19.2851 8.26188 18.7286C8.25765 18.7262 8.25345 18.7239 8.24926 18.7214C8.24683 18.72 8.24442 18.7186 8.24201 18.7172L1.90868 14.9672C1.90728 14.9664 1.90589 14.9655 1.90451 14.9647C1.3786 14.6492 0.833252 14.0937 0.833252 13.3335C0.833252 12.5732 1.3786 12.0178 1.90451 11.7022C1.90903 11.6995 1.91358 11.6968 1.91815 11.6942L5.83482 9.44421C6.23389 9.21495 6.74325 9.35262 6.97251 9.75169C7.20176 10.1508 7.0641 10.6601 6.66502 10.8894L2.756 13.135C2.62734 13.2131 2.55386 13.2858 2.51806 13.3335C2.55424 13.3816 2.62892 13.4554 2.76015 13.5344L9.08019 17.2766C9.57487 17.5469 10.2583 17.5469 10.753 17.2766L17.0753 13.5331C17.1064 13.5147 17.1385 13.4984 17.1717 13.4842C17.3276 13.4174 17.4179 13.3561 17.4668 13.3147C17.4264 13.2671 17.3546 13.2015 17.2389 13.132C17.2385 13.1318 17.2382 13.1316 17.2378 13.1314L13.3234 10.7994C12.928 10.5638 12.7984 10.0523 13.034 9.65696ZM17.5049 13.3706C17.5049 13.3706 17.5047 13.3702 17.5044 13.3694C17.5048 13.3702 17.5049 13.3706 17.5049 13.3706ZM2.49494 13.2963C2.49496 13.2964 2.49513 13.2968 2.4954 13.2975C2.49505 13.2967 2.49492 13.2963 2.49494 13.2963ZM2.4954 13.3694C2.49513 13.3702 2.49496 13.3706 2.49494 13.3706C2.49492 13.3706 2.49505 13.3702 2.4954 13.3694Z" fill="black"/>
</g>
<defs>
<clipPath id="clip0_2001_10844">
<rect width="20" height="20" fill="white"/>
</clipPath>
</defs>
</svg>
