<svg width="20" height="20" viewBox="0 0 20 20" fill="none" xmlns="http://www.w3.org/2000/svg">
<g clip-path="url(#clip0_2001_10849)">
<path fill-rule="evenodd" clip-rule="evenodd" d="M9.99992 2.50016C8.0108 2.50016 6.10314 3.29034 4.69662 4.69686C3.2901 6.10338 2.49992 8.01104 2.49992 10.0002V18.3335C2.49992 18.7937 2.12682 19.1668 1.66659 19.1668C1.20635 19.1668 0.833252 18.7937 0.833252 18.3335V10.0002C0.833252 7.56901 1.79902 5.23743 3.51811 3.51835C5.23719 1.79927 7.56877 0.833496 9.99992 0.833496C12.4311 0.833496 14.7626 1.79927 16.4817 3.51835C18.2008 5.23743 19.1666 7.56901 19.1666 10.0002V18.3335C19.1666 18.7937 18.7935 19.1668 18.3333 19.1668C17.873 19.1668 17.4999 18.7937 17.4999 18.3335V10.0002C17.4999 8.01104 16.7097 6.10338 15.3032 4.69686C13.8967 3.29034 11.989 2.50016 9.99992 2.50016Z" fill="black"/>
<path fill-rule="evenodd" clip-rule="evenodd" d="M7.50008 4.8335C7.96032 4.8335 8.33341 5.20659 8.33341 5.66683V6.8335C8.33341 7.21204 8.49401 7.58775 8.80091 7.8742C9.10976 8.16246 9.54021 8.3335 10.0001 8.3335C10.4599 8.3335 10.8904 8.16246 11.1993 7.8742C11.5062 7.58775 11.6667 7.21204 11.6667 6.8335V5.66683C11.6667 5.20659 12.0398 4.8335 12.5001 4.8335C12.9603 4.8335 13.3334 5.20659 13.3334 5.66683V6.8335C13.3334 7.69263 12.9672 8.5039 12.3364 9.09262C11.7076 9.67953 10.8663 10.0002 10.0001 10.0002C9.13387 10.0002 8.29255 9.67953 7.66372 9.09262C7.03294 8.5039 6.66675 7.69263 6.66675 6.8335V5.66683C6.66675 5.20659 7.03984 4.8335 7.50008 4.8335Z" fill="black"/>
<path fill-rule="evenodd" clip-rule="evenodd" d="M7.5 12.4998C7.5 12.0396 7.8731 11.6665 8.33333 11.6665H8.34167C8.8019 11.6665 9.175 12.0396 9.175 12.4998C9.175 12.9601 8.8019 13.3332 8.34167 13.3332H8.33333C7.8731 13.3332 7.5 12.9601 7.5 12.4998Z" fill="black"/>
<path fill-rule="evenodd" clip-rule="evenodd" d="M10.8333 12.4998C10.8333 12.0396 11.2063 11.6665 11.6666 11.6665H11.6749C12.1352 11.6665 12.5083 12.0396 12.5083 12.4998C12.5083 12.9601 12.1352 13.3332 11.6749 13.3332H11.6666C11.2063 13.3332 10.8333 12.9601 10.8333 12.4998Z" fill="black"/>
<path fill-rule="evenodd" clip-rule="evenodd" d="M10.0001 5.83317C8.89501 5.83317 7.83521 6.27216 7.0538 7.05356C6.2724 7.83496 5.83341 8.89477 5.83341 9.99984V12.4998C5.83341 13.1629 6.09681 13.7988 6.56565 14.2676C7.03449 14.7364 7.67037 14.9998 8.33342 14.9998H11.6667C12.3298 14.9998 12.9657 14.7364 13.4345 14.2676C13.9034 13.7988 14.1667 13.1629 14.1667 12.4998V9.99984C14.1667 8.89477 13.7278 7.83496 12.9464 7.05356C12.165 6.27216 11.1052 5.83317 10.0001 5.83317ZM5.87529 5.87505C6.96925 4.78109 8.45299 4.1665 10.0001 4.1665C11.5472 4.1665 13.0309 4.78109 14.1249 5.87505C15.2188 6.96901 15.8334 8.45274 15.8334 9.99984V12.4998C15.8334 13.6049 15.3944 14.6647 14.613 15.4461C13.8316 16.2275 12.7718 16.6665 11.6667 16.6665H8.33342C7.22835 16.6665 6.16854 16.2275 5.38714 15.4461C4.60573 14.6647 4.16675 13.6049 4.16675 12.4998V9.99984C4.16675 8.45274 4.78133 6.96901 5.87529 5.87505Z" fill="black"/>
<path fill-rule="evenodd" clip-rule="evenodd" d="M7.96234 15.14C8.34528 15.3953 8.44876 15.9127 8.19346 16.2957L6.5268 18.7957C6.2715 19.1786 5.75411 19.2821 5.37117 19.0268C4.98823 18.7715 4.88475 18.2541 5.14005 17.8712L6.80671 15.3712C7.06201 14.9882 7.5794 14.8848 7.96234 15.14Z" fill="black"/>
<path fill-rule="evenodd" clip-rule="evenodd" d="M12.0377 15.14C12.4206 14.8848 12.938 14.9882 13.1933 15.3712L14.86 17.8712C15.1153 18.2541 15.0118 18.7715 14.6288 19.0268C14.2459 19.2821 13.7285 19.1786 13.4732 18.7957L11.8066 16.2957C11.5513 15.9127 11.6547 15.3953 12.0377 15.14Z" fill="black"/>
</g>
<defs>
<clipPath id="clip0_2001_10849">
<rect width="20" height="20" fill="white"/>
</clipPath>
</defs>
</svg>
