<svg width="20" height="20" viewBox="0 0 20 20" fill="none" xmlns="http://www.w3.org/2000/svg">
<g clip-path="url(#clip0_2001_10864)">
<path fill-rule="evenodd" clip-rule="evenodd" d="M14.7558 1.07757C15.0813 1.40301 15.0813 1.93065 14.7558 2.25609L2.25584 14.7561C1.9304 15.0815 1.40277 15.0815 1.07733 14.7561C0.751893 14.4306 0.751893 13.903 1.07733 13.5776L13.5773 1.07757C13.9028 0.752137 14.4304 0.752137 14.7558 1.07757Z" fill="black"/>
<path fill-rule="evenodd" clip-rule="evenodd" d="M1.07733 11.0776C1.40277 10.7521 1.9304 10.7521 2.25584 11.0776L8.92251 17.7442C9.24794 18.0697 9.24794 18.5973 8.92251 18.9228C8.59707 19.2482 8.06943 19.2482 7.744 18.9228L1.07733 12.2561C0.751893 11.9306 0.751893 11.403 1.07733 11.0776Z" fill="black"/>
<path fill-rule="evenodd" clip-rule="evenodd" d="M3.57733 8.57757C3.90277 8.25214 4.4304 8.25214 4.75584 8.57757L11.4225 15.2442C11.7479 15.5697 11.7479 16.0973 11.4225 16.4228C11.0971 16.7482 10.5694 16.7482 10.244 16.4228L3.57733 9.75609C3.25189 9.43065 3.25189 8.90301 3.57733 8.57757Z" fill="black"/>
<path fill-rule="evenodd" clip-rule="evenodd" d="M6.07733 6.07757C6.40277 5.75214 6.9304 5.75214 7.25584 6.07757L13.9225 12.7442C14.2479 13.0697 14.2479 13.5973 13.9225 13.9228C13.5971 14.2482 13.0694 14.2482 12.744 13.9228L6.07733 7.25609C5.75189 6.93065 5.75189 6.40301 6.07733 6.07757Z" fill="black"/>
<path fill-rule="evenodd" clip-rule="evenodd" d="M8.57733 3.57757C8.90277 3.25214 9.4304 3.25214 9.75584 3.57757L16.4225 10.2442C16.7479 10.5697 16.7479 11.0973 16.4225 11.4228C16.0971 11.7482 15.5694 11.7482 15.244 11.4228L8.57733 4.75609C8.25189 4.43065 8.25189 3.90301 8.57733 3.57757Z" fill="black"/>
<path fill-rule="evenodd" clip-rule="evenodd" d="M11.0773 1.07757C11.4028 0.752137 11.9304 0.752137 12.2558 1.07757L18.9225 7.74424C19.2479 8.06968 19.2479 8.59731 18.9225 8.92275C18.5971 9.24819 18.0694 9.24819 17.744 8.92275L11.0773 2.25609C10.7519 1.93065 10.7519 1.40301 11.0773 1.07757Z" fill="black"/>
<path fill-rule="evenodd" clip-rule="evenodd" d="M18.9226 5.24408C19.248 5.56951 19.248 6.09715 18.9226 6.42259L6.42259 18.9226C6.09715 19.248 5.56951 19.248 5.24408 18.9226C4.91864 18.5972 4.91864 18.0695 5.24408 17.7441L17.7441 5.24408C18.0695 4.91864 18.5972 4.91864 18.9226 5.24408Z" fill="black"/>
</g>
<defs>
<clipPath id="clip0_2001_10864">
<rect width="20" height="20" fill="white"/>
</clipPath>
</defs>
</svg>
