<svg width="20" height="20" viewBox="0 0 20 20" fill="none" xmlns="http://www.w3.org/2000/svg">
<path fill-rule="evenodd" clip-rule="evenodd" d="M6.66659 1.75C7.12682 1.75 7.49992 2.1231 7.49992 2.58333V5.83333C7.49992 6.49638 7.76331 7.13226 8.23215 7.6011C8.70099 8.06994 9.33688 8.33333 9.99992 8.33333C10.663 8.33333 11.2988 8.06994 11.7677 7.6011C12.2365 7.13226 12.4999 6.49638 12.4999 5.83333V2.58333C12.4999 2.1231 12.873 1.75 13.3333 1.75C13.7935 1.75 14.1666 2.1231 14.1666 2.58333V5.83333C14.1666 6.9384 13.7276 7.99821 12.9462 8.77961C12.1648 9.56101 11.105 10 9.99992 10C8.89485 10 7.83504 9.56101 7.05364 8.77961C6.27224 7.99821 5.83325 6.9384 5.83325 5.83333V2.58333C5.83325 2.1231 6.20635 1.75 6.66659 1.75Z" fill="black"/>
<path fill-rule="evenodd" clip-rule="evenodd" d="M6.07733 11.0776C6.40277 10.7521 6.9304 10.7521 7.25584 11.0776L8.08917 11.9109C8.41461 12.2363 8.41461 12.764 8.08917 13.0894C7.76374 13.4149 7.2361 13.4149 6.91066 13.0894L6.07733 12.2561C5.75189 11.9306 5.75189 11.403 6.07733 11.0776Z" fill="black"/>
<path fill-rule="evenodd" clip-rule="evenodd" d="M13.9227 11.0776C14.2481 11.403 14.2481 11.9306 13.9227 12.2561L13.0893 13.0894C12.7639 13.4149 12.2363 13.4149 11.9108 13.0894C11.5854 12.764 11.5854 12.2363 11.9108 11.9109L12.7442 11.0776C13.0696 10.7521 13.5972 10.7521 13.9227 11.0776Z" fill="black"/>
<path fill-rule="evenodd" clip-rule="evenodd" d="M10 2.50016C8.4529 2.50016 6.96917 3.11474 5.87521 4.20871C4.78125 5.30267 4.16667 6.7864 4.16667 8.3335V11.6668C4.16667 13.5399 5.6269 15.0002 7.5 15.0002H12.5C14.3731 15.0002 15.8333 13.5399 15.8333 11.6668V8.3335C15.8333 6.7864 15.2188 5.30267 14.1248 4.20871C13.0308 3.11474 11.5471 2.50016 10 2.50016ZM4.6967 3.0302C6.10322 1.62367 8.01088 0.833496 10 0.833496C11.9891 0.833496 13.8968 1.62367 15.3033 3.0302C16.7098 4.43672 17.5 6.34437 17.5 8.3335V11.6668C17.5 14.4604 15.2936 16.6668 12.5 16.6668H7.5C4.70643 16.6668 2.5 14.4604 2.5 11.6668V8.3335C2.5 6.34437 3.29018 4.43672 4.6967 3.0302Z" fill="black"/>
<path fill-rule="evenodd" clip-rule="evenodd" d="M7.12884 15.14C7.51178 15.3953 7.61526 15.9127 7.35997 16.2957L5.6933 18.7957C5.43801 19.1786 4.92062 19.2821 4.53768 19.0268C4.15474 18.7715 4.05126 18.2541 4.30655 17.8712L5.97322 15.3712C6.22851 14.9882 6.7459 14.8848 7.12884 15.14Z" fill="black"/>
<path fill-rule="evenodd" clip-rule="evenodd" d="M12.8712 15.14C13.2541 14.8848 13.7715 14.9882 14.0268 15.3712L15.6935 17.8712C15.9488 18.2541 15.8453 18.7715 15.4623 19.0268C15.0794 19.2821 14.562 19.1786 14.3067 18.7957L12.64 16.2957C12.3848 15.9127 12.4882 15.3953 12.8712 15.14Z" fill="black"/>
</svg>
