<svg width="20" height="20" viewBox="0 0 20 20" fill="none" xmlns="http://www.w3.org/2000/svg">
<path fill-rule="evenodd" clip-rule="evenodd" d="M5 3.33317C4.53976 3.33317 4.16667 3.70627 4.16667 4.1665V14.1665C4.16667 14.6267 4.53976 14.9998 5 14.9998H15C15.4602 14.9998 15.8333 14.6267 15.8333 14.1665V4.1665C15.8333 3.70627 15.4602 3.33317 15 3.33317H5ZM2.5 4.1665C2.5 2.78579 3.61929 1.6665 5 1.6665H15C16.3807 1.6665 17.5 2.78579 17.5 4.1665V14.1665C17.5 15.5472 16.3807 16.6665 15 16.6665H5C3.61929 16.6665 2.5 15.5472 2.5 14.1665V4.1665Z" fill="black"/>
<path fill-rule="evenodd" clip-rule="evenodd" d="M2.5 9.16683C2.5 8.70659 2.8731 8.3335 3.33333 8.3335H16.6667C17.1269 8.3335 17.5 8.70659 17.5 9.16683C17.5 9.62707 17.1269 10.0002 16.6667 10.0002H3.33333C2.8731 10.0002 2.5 9.62707 2.5 9.16683Z" fill="black"/>
<path fill-rule="evenodd" clip-rule="evenodd" d="M10.0001 1.6665C10.4603 1.6665 10.8334 2.0396 10.8334 2.49984V9.1665C10.8334 9.62674 10.4603 9.99984 10.0001 9.99984C9.53984 9.99984 9.16675 9.62674 9.16675 9.1665V2.49984C9.16675 2.0396 9.53984 1.6665 10.0001 1.6665Z" fill="black"/>
<path fill-rule="evenodd" clip-rule="evenodd" d="M7.12884 15.14C7.51178 15.3953 7.61526 15.9127 7.35997 16.2957L5.6933 18.7957C5.43801 19.1786 4.92062 19.2821 4.53768 19.0268C4.15474 18.7715 4.05126 18.2541 4.30655 17.8712L5.97322 15.3712C6.22851 14.9882 6.7459 14.8848 7.12884 15.14Z" fill="black"/>
<path fill-rule="evenodd" clip-rule="evenodd" d="M12.8712 15.14C13.2541 14.8848 13.7715 14.9882 14.0268 15.3712L15.6935 17.8712C15.9488 18.2541 15.8453 18.7715 15.4623 19.0268C15.0794 19.2821 14.562 19.1786 14.3067 18.7957L12.64 16.2957C12.3848 15.9127 12.4882 15.3953 12.8712 15.14Z" fill="black"/>
<path fill-rule="evenodd" clip-rule="evenodd" d="M5.83325 12.4998C5.83325 12.0396 6.20635 11.6665 6.66659 11.6665H6.67492C7.13516 11.6665 7.50825 12.0396 7.50825 12.4998C7.50825 12.9601 7.13516 13.3332 6.67492 13.3332H6.66659C6.20635 13.3332 5.83325 12.9601 5.83325 12.4998Z" fill="black"/>
<path fill-rule="evenodd" clip-rule="evenodd" d="M12.5 12.4998C12.5 12.0396 12.8731 11.6665 13.3333 11.6665H13.3417C13.8019 11.6665 14.175 12.0396 14.175 12.4998C14.175 12.9601 13.8019 13.3332 13.3417 13.3332H13.3333C12.8731 13.3332 12.5 12.9601 12.5 12.4998Z" fill="black"/>
</svg>
