<svg width="20" height="20" viewBox="0 0 20 20" fill="none" xmlns="http://www.w3.org/2000/svg">
<path fill-rule="evenodd" clip-rule="evenodd" d="M1.66675 4.99984C1.66675 4.5396 2.03984 4.1665 2.50008 4.1665H17.5001C17.9603 4.1665 18.3334 4.5396 18.3334 4.99984C18.3334 5.46007 17.9603 5.83317 17.5001 5.83317H2.50008C2.03984 5.83317 1.66675 5.46007 1.66675 4.99984Z" fill="black"/>
<path fill-rule="evenodd" clip-rule="evenodd" d="M4.16659 4.1665C4.62682 4.1665 4.99992 4.5396 4.99992 4.99984V16.6665C4.99992 16.8121 5.08113 17.0275 5.27667 17.2231C5.47222 17.4186 5.68761 17.4998 5.83325 17.4998H14.1666C14.3122 17.4998 14.5276 17.4186 14.7232 17.2231C14.9187 17.0275 14.9999 16.8121 14.9999 16.6665V4.99984C14.9999 4.5396 15.373 4.1665 15.8333 4.1665C16.2935 4.1665 16.6666 4.5396 16.6666 4.99984V16.6665C16.6666 17.3542 16.3311 17.9721 15.9017 18.4016C15.4722 18.831 14.8543 19.1665 14.1666 19.1665H5.83325C5.14556 19.1665 4.52762 18.831 4.09816 18.4016C3.66871 17.9721 3.33325 17.3542 3.33325 16.6665V4.99984C3.33325 4.5396 3.70635 4.1665 4.16659 4.1665Z" fill="black"/>
<path fill-rule="evenodd" clip-rule="evenodd" d="M7.77667 2.77692C7.58113 2.97246 7.49992 3.18786 7.49992 3.3335V5.00016C7.49992 5.4604 7.12682 5.8335 6.66659 5.8335C6.20635 5.8335 5.83325 5.4604 5.83325 5.00016V3.3335C5.83325 2.6458 6.16871 2.02786 6.59816 1.59841C7.02762 1.16895 7.64556 0.833496 8.33325 0.833496H11.6666C12.3543 0.833496 12.9722 1.16895 13.4017 1.59841C13.8311 2.02786 14.1666 2.6458 14.1666 3.3335V5.00016C14.1666 5.4604 13.7935 5.8335 13.3333 5.8335C12.873 5.8335 12.4999 5.4604 12.4999 5.00016V3.3335C12.4999 3.18786 12.4187 2.97246 12.2232 2.77692C12.0276 2.58137 11.8122 2.50016 11.6666 2.50016H8.33325C8.18761 2.50016 7.97222 2.58137 7.77667 2.77692Z" fill="black"/>
<path fill-rule="evenodd" clip-rule="evenodd" d="M8.33333 8.3335C8.79357 8.3335 9.16667 8.70659 9.16667 9.16683V14.1668C9.16667 14.6271 8.79357 15.0002 8.33333 15.0002C7.8731 15.0002 7.5 14.6271 7.5 14.1668V9.16683C7.5 8.70659 7.8731 8.3335 8.33333 8.3335Z" fill="black"/>
<path fill-rule="evenodd" clip-rule="evenodd" d="M11.6666 8.3335C12.1268 8.3335 12.4999 8.70659 12.4999 9.16683V14.1668C12.4999 14.6271 12.1268 15.0002 11.6666 15.0002C11.2063 15.0002 10.8333 14.6271 10.8333 14.1668V9.16683C10.8333 8.70659 11.2063 8.3335 11.6666 8.3335Z" fill="black"/>
</svg>
