<svg width="20" height="20" viewBox="0 0 20 20" fill="none" xmlns="http://www.w3.org/2000/svg">
<path fill-rule="evenodd" clip-rule="evenodd" d="M10 1.6665C10.2315 1.6665 10.4525 1.76277 10.6102 1.93225L13.936 5.50754C14.1706 5.74862 14.3269 6.05515 14.384 6.38689C14.4421 6.72373 14.3951 7.07027 14.2496 7.37954C14.1696 7.54947 14.062 7.70364 13.9321 7.83626L15.6079 9.67966C15.8293 9.9105 15.9796 10.2003 16.0409 10.5145C16.1033 10.8347 16.0703 11.1662 15.9461 11.4678C15.8641 11.6669 15.7448 11.8472 15.5956 11.9995L17.2745 13.8463C17.4959 14.0771 17.6463 14.3669 17.7075 14.6811C17.7699 15.0013 17.737 15.3328 17.6128 15.6345C17.4886 15.9362 17.2785 16.1948 17.0087 16.3782C16.739 16.5616 16.4213 16.6618 16.0951 16.6664C16.0912 16.6665 16.0872 16.6665 16.0833 16.6665H3.91668C3.91278 16.6665 3.90888 16.6665 3.90498 16.6664C3.57877 16.6618 3.26107 16.5616 2.99128 16.3782C2.72149 16.1948 2.51147 15.9362 2.38726 15.6345C2.26304 15.3328 2.23009 15.0013 2.29249 14.6811C2.35372 14.3669 2.5041 14.0772 2.72549 13.8463L4.4044 11.9995C4.25521 11.8472 4.13589 11.6669 4.05392 11.4678C3.92971 11.1662 3.89676 10.8347 3.95916 10.5145C4.02039 10.2003 4.17077 9.91049 4.39215 9.67965L6.06796 7.83626C5.93803 7.70364 5.83042 7.54947 5.75045 7.37954C5.60491 7.07027 5.55798 6.72373 5.61601 6.38689C5.67317 6.05516 5.82941 5.74863 6.064 5.50755L9.38986 1.93225C9.54751 1.76277 9.76855 1.6665 10 1.6665ZM5.59513 10.8332H5.83335C6.1632 10.8332 6.462 11.0277 6.59544 11.3294C6.72888 11.631 6.67184 11.983 6.44996 12.2271L3.94996 14.9771C3.94294 14.9848 3.93577 14.9924 3.92847 14.9998H16.0716C16.0643 14.9924 16.0571 14.9848 16.0501 14.9771L13.5501 12.2271C13.3282 11.983 13.2711 11.631 13.4046 11.3294C13.538 11.0277 13.8368 10.8332 14.1667 10.8332H14.4049C14.3976 10.8257 14.3904 10.8181 14.3834 10.8104L11.8834 8.0604C11.6615 7.81633 11.6045 7.46436 11.7379 7.16271C11.8714 6.86106 12.1702 6.6665 12.5 6.6665H12.6667C12.6917 6.6665 12.7167 6.66763 12.7416 6.66987C12.7353 6.6636 12.7292 6.65723 12.7232 6.65076L10 3.72334L7.27684 6.65076C7.27082 6.65723 7.2647 6.6636 7.25848 6.66987C7.28337 6.66763 7.30835 6.6665 7.33335 6.6665H7.50002C7.82986 6.6665 8.12867 6.86106 8.26211 7.16271C8.39555 7.46436 8.33851 7.81633 8.11663 8.0604L5.61663 10.8104C5.60961 10.8181 5.60244 10.8257 5.59513 10.8332Z" fill="black"/>
<path fill-rule="evenodd" clip-rule="evenodd" d="M10.0001 15C10.4603 15 10.8334 15.3731 10.8334 15.8333V18.3333C10.8334 18.7936 10.4603 19.1667 10.0001 19.1667C9.53984 19.1667 9.16675 18.7936 9.16675 18.3333V15.8333C9.16675 15.3731 9.53984 15 10.0001 15Z" fill="black"/>
</svg>
