<svg width="20" height="20" viewBox="0 0 20 20" fill="none" xmlns="http://www.w3.org/2000/svg">
<path fill-rule="evenodd" clip-rule="evenodd" d="M5.83333 6.66667C5.39131 6.66667 4.96738 6.84226 4.65482 7.15482C4.34226 7.46738 4.16667 7.89131 4.16667 8.33333V8.5C4.16667 8.84506 3.954 9.15443 3.63184 9.27804C3.27163 9.41623 2.97053 9.67511 2.77989 10.0105C2.58924 10.3459 2.52086 10.7371 2.58641 11.1173C2.65196 11.4975 2.84738 11.8432 3.13934 12.0954C3.42895 12.3455 3.79575 12.4883 4.17808 12.5H7.41667C7.41818 12.5 7.4197 12.5 7.42122 12.5C7.42185 12.5 7.42248 12.5 7.42311 12.5C7.81346 12.503 8.19248 12.369 8.49409 12.1211C8.79569 11.8733 9.00074 11.5275 9.07348 11.144C9.14621 10.7604 9.08202 10.3636 8.8921 10.0225C8.70218 9.68147 8.39857 9.41792 8.03422 9.2778C7.71238 9.15403 7.5 8.84482 7.5 8.5V8.33333C7.5 7.89131 7.3244 7.46738 7.01184 7.15482C6.69928 6.84226 6.27536 6.66667 5.83333 6.66667ZM3.47631 5.97631C4.10143 5.35119 4.94928 5 5.83333 5C6.71739 5 7.56523 5.35119 8.19036 5.97631C8.7299 6.51586 9.06538 7.22132 9.14712 7.97277C9.64642 8.27144 10.0619 8.69751 10.3482 9.21162C10.728 9.8937 10.8564 10.6875 10.711 11.4545C10.5655 12.2216 10.1554 12.9132 9.55217 13.4089C8.94985 13.9038 8.19315 14.1719 7.41367 14.1667H4.16667C4.15976 14.1667 4.15285 14.1666 4.14594 14.1664C3.37457 14.1472 2.63375 13.861 2.04984 13.3566C1.46592 12.8522 1.07508 12.1609 0.94398 11.4005C0.812879 10.6401 0.949636 9.85775 1.33093 9.18694C1.61715 8.68338 2.02785 8.26607 2.51959 7.97236C2.60141 7.22106 2.93687 6.51576 3.47631 5.97631Z" fill="black"/>
<path fill-rule="evenodd" clip-rule="evenodd" d="M5.83333 12.5C6.29357 12.5 6.66667 12.8731 6.66667 13.3333V18.3333C6.66667 18.7936 6.29357 19.1667 5.83333 19.1667C5.3731 19.1667 5 18.7936 5 18.3333V13.3333C5 12.8731 5.3731 12.5 5.83333 12.5Z" fill="black"/>
<path fill-rule="evenodd" clip-rule="evenodd" d="M10.8333 15C11.2936 15 11.6667 15.3731 11.6667 15.8333V18.3333C11.6667 18.7936 11.2936 19.1667 10.8333 19.1667C10.3731 19.1667 10 18.7936 10 18.3333V15.8333C10 15.3731 10.3731 15 10.8333 15Z" fill="black"/>
<path fill-rule="evenodd" clip-rule="evenodd" d="M10.8339 1.6665C11.0652 1.6667 11.2859 1.76295 11.4434 1.93225L14.7693 5.50755C15.0039 5.74863 15.1601 6.05516 15.2173 6.38689C15.2753 6.72373 15.2284 7.07027 15.0828 7.37954C15.0029 7.54947 14.8952 7.70364 14.7653 7.83626L16.4411 9.67964C16.6625 9.91048 16.8129 10.2003 16.8741 10.5145C16.9365 10.8347 16.9036 11.1662 16.7793 11.4678C16.6974 11.6669 16.5781 11.8472 16.4289 11.9995L18.1078 13.8463C18.3292 14.0771 18.4795 14.3669 18.5408 14.6811C18.6032 15.0013 18.5702 15.3328 18.446 15.6345C18.3218 15.9362 18.1118 16.1948 17.842 16.3782C17.5722 16.5616 17.2545 16.6618 16.9283 16.6664C16.9244 16.6665 16.9205 16.6665 16.9166 16.6665H9.99992C9.53968 16.6665 9.16659 16.2934 9.16659 15.8332C9.16659 15.3729 9.53968 14.9998 9.99992 14.9998H16.9048C16.8975 14.9924 16.8903 14.9848 16.8833 14.9771L14.3833 12.2271C14.1614 11.983 14.1044 11.631 14.2378 11.3294C14.3713 11.0277 14.6701 10.8332 14.9999 10.8332H15.2381C15.2308 10.8257 15.2237 10.8181 15.2166 10.8104L12.7166 8.0604C12.4948 7.81633 12.4377 7.46436 12.5712 7.16271C12.7046 6.86106 13.0034 6.6665 13.3333 6.6665H13.4999C13.5249 6.6665 13.5499 6.66763 13.5748 6.66987C13.5686 6.6636 13.5624 6.65723 13.5564 6.65076L10.8322 3.72225L10.2758 4.31844C9.96177 4.65489 9.43445 4.67308 9.09799 4.35905C8.76153 4.04502 8.74335 3.5177 9.05738 3.18124L10.224 1.93124C10.3818 1.7622 10.6027 1.66631 10.8339 1.6665Z" fill="black"/>
</svg>
