<svg width="20" height="20" viewBox="0 0 20 20" fill="none" xmlns="http://www.w3.org/2000/svg">
<path fill-rule="evenodd" clip-rule="evenodd" d="M0.833252 6.6665C0.833252 3.83368 3.33246 1.6665 6.24992 1.6665C9.16738 1.6665 11.6666 3.83368 11.6666 6.6665C11.6666 7.12674 11.2935 7.49984 10.8333 7.49984C10.373 7.49984 9.99992 7.12674 9.99992 6.6665C9.99992 4.89933 8.39912 3.33317 6.24992 3.33317C4.44722 3.33317 3.03034 4.43504 2.62034 5.83317H2.98807L3.57733 5.24392C3.90277 4.91848 4.4304 4.91848 4.75584 5.24392L5.3451 5.83317H8.33325C8.79349 5.83317 9.16658 6.20627 9.16658 6.6665C9.16658 7.12674 8.79349 7.49984 8.33325 7.49984H4.99992C4.7789 7.49984 4.56694 7.41204 4.41066 7.25576L4.16658 7.01168L3.92251 7.25576C3.76623 7.41204 3.55427 7.49984 3.33325 7.49984H1.66659C1.20635 7.49984 0.833252 7.12674 0.833252 6.6665Z" fill="black"/>
<path fill-rule="evenodd" clip-rule="evenodd" d="M13.7443 5.83327C12.8752 5.82729 12.0276 6.10336 11.3288 6.62004C10.9587 6.89364 10.4369 6.81544 10.1633 6.44536C9.8897 6.07529 9.9679 5.55348 10.338 5.27987C11.326 4.54937 12.5242 4.15878 13.7529 4.16662C16.6692 4.16804 19.1667 6.33472 19.1667 9.16662C19.1667 9.62686 18.7936 9.99995 18.3334 9.99995H15.8334C15.6124 9.99995 15.4004 9.91216 15.2441 9.75588L15.0001 9.5118L14.756 9.75588C14.5997 9.91216 14.3877 9.99995 14.1667 9.99995H11.6667C11.2065 9.99995 10.8334 9.62686 10.8334 9.16662C10.8334 8.70638 11.2065 8.33329 11.6667 8.33329H13.8215L14.4108 7.74403C14.7362 7.41859 15.2639 7.41859 15.5893 7.74403L16.1786 8.33329H17.3796C16.9696 6.93515 15.5528 5.83329 13.7501 5.83329C13.7481 5.83329 13.7462 5.83328 13.7443 5.83327Z" fill="black"/>
<path fill-rule="evenodd" clip-rule="evenodd" d="M4.31904 7.50258C6.38123 5.4404 9.67946 5.19922 11.6824 7.21242C12.0064 7.5381 12.0057 8.06458 11.6809 8.38943L5.20658 14.8721C5.0501 15.0289 4.83761 15.117 4.61606 15.1168C4.3945 15.1167 4.18213 15.0283 4.02587 14.8713C2.02797 12.8631 2.2538 9.56782 4.31904 7.50258ZM9.82986 7.88343C8.55358 7.18131 6.77415 7.4045 5.49755 8.68109C4.22421 9.95444 4.00191 11.7343 4.70223 13.0178L9.82986 7.88343Z" fill="black"/>
<path fill-rule="evenodd" clip-rule="evenodd" d="M10.6312 5.85809C11.0777 5.74646 11.5302 6.01793 11.6418 6.46443C11.6884 6.65096 11.7672 6.91744 11.8649 7.24753C12.1446 8.1931 12.5786 9.66062 12.8527 11.2659C13.2282 13.4652 13.3542 16.1311 12.4498 18.618C12.3301 18.9473 12.0171 19.1665 11.6667 19.1665H8.33334C8.05492 19.1665 7.79489 19.0275 7.64029 18.7959C7.48569 18.5644 7.45693 18.2709 7.56365 18.0138C8.24137 16.3807 8.71538 14.9093 8.34952 13.08C8.25926 12.6287 8.55194 12.1896 9.00324 12.0994C9.45454 12.0091 9.89356 12.3018 9.98382 12.7531C10.3481 14.5746 10.0382 16.1073 9.54976 17.4999H11.0626C11.6296 15.5505 11.5329 13.4389 11.2098 11.5464C10.9543 10.0497 10.5827 8.7948 10.3042 7.85454C10.191 7.47228 10.0932 7.14203 10.0249 6.86865C9.91326 6.42216 10.1847 5.96971 10.6312 5.85809Z" fill="black"/>
</svg>
