<svg width="20" height="20" viewBox="0 0 20 20" fill="none" xmlns="http://www.w3.org/2000/svg">
<path fill-rule="evenodd" clip-rule="evenodd" d="M9.9999 3.33317C9.55787 3.33317 9.13395 3.50877 8.82139 3.82133C8.50883 4.13389 8.33323 4.55781 8.33323 4.99984V5.02484C8.33323 5.26693 8.22795 5.49707 8.04477 5.65536C7.86159 5.81365 7.61863 5.88446 7.37909 5.84937C6.96525 5.78873 6.54274 5.85407 6.16654 6.03687C5.79034 6.21967 5.47788 6.51148 5.26981 6.87432C5.06174 7.23715 4.9677 7.65421 4.99993 8.07123C5.03216 8.48825 5.18917 8.88591 5.45052 9.21246C5.59615 9.39442 5.65892 9.62905 5.62361 9.85942C5.5883 10.0898 5.45814 10.2948 5.2647 10.4248C4.81961 10.7239 4.48249 11.1582 4.30311 11.6636C4.12373 12.169 4.11161 12.7186 4.26852 13.2314C4.42544 13.7442 4.74308 14.1929 5.17455 14.5113C5.60602 14.8298 6.12845 15.001 6.6647 14.9998L6.66657 14.9998L13.332 14.9998C13.3322 14.9998 13.3324 14.9998 13.3327 14.9998C13.8669 14.9989 14.3869 14.8269 14.8162 14.5089C15.2458 14.1908 15.562 13.7433 15.7186 13.2323C15.8752 12.7212 15.8639 12.1735 15.6864 11.6693C15.5088 11.1652 15.1743 10.7312 14.732 10.4311C14.5397 10.3006 14.4106 10.0957 14.3759 9.86591C14.3412 9.63611 14.4041 9.40225 14.5493 9.2208C14.8106 8.89424 14.9676 8.49658 14.9999 8.07956C15.0321 7.66255 14.9381 7.24548 14.73 6.88265C14.5219 6.51981 14.2095 6.22801 13.8333 6.0452C13.4571 5.8624 13.0345 5.79707 12.6207 5.8577C12.3812 5.8928 12.1382 5.82199 11.955 5.66369C11.7718 5.5054 11.6666 5.27527 11.6666 5.03317V4.99984C11.6666 4.55781 11.491 4.13389 11.1784 3.82133C10.8659 3.50877 10.4419 3.33317 9.9999 3.33317ZM7.64288 2.64281C8.268 2.01769 9.11584 1.6665 9.9999 1.6665C10.884 1.6665 11.7318 2.01769 12.3569 2.64281C12.7853 3.0712 13.0851 3.60419 13.2313 4.18174C13.6911 4.21971 14.1424 4.34239 14.5617 4.54615C15.2388 4.87519 15.8013 5.40044 16.1758 6.05355C16.5503 6.70665 16.7196 7.45736 16.6616 8.20799C16.6248 8.6836 16.4979 9.14522 16.2902 9.56916C16.7209 10.0044 17.0527 10.5318 17.2584 11.1156C17.5543 11.9559 17.5732 12.8688 17.3122 13.7206C17.0512 14.5724 16.5241 15.318 15.8082 15.8482C15.0923 16.3784 14.2253 16.6652 13.3345 16.6665L6.66748 16.6665C5.77406 16.6683 4.90371 16.3829 4.18485 15.8523C3.46574 15.3216 2.93634 14.5737 2.67481 13.7191C2.41328 12.8644 2.43349 11.9484 2.73245 11.1061C2.94013 10.521 3.27469 9.99304 3.7083 9.55808C3.50136 9.1349 3.3749 8.67424 3.33822 8.19966C3.28021 7.44903 3.44948 6.69832 3.824 6.04521C4.19852 5.39211 4.76096 4.86686 5.43811 4.53781C5.8581 4.33373 6.31016 4.21099 6.77067 4.17323C6.91769 3.59895 7.21659 3.0691 7.64288 2.64281Z" fill="black"/>
<path fill-rule="evenodd" clip-rule="evenodd" d="M10.0001 15C10.4603 15 10.8334 15.3731 10.8334 15.8333V18.3333C10.8334 18.7936 10.4603 19.1667 10.0001 19.1667C9.53984 19.1667 9.16675 18.7936 9.16675 18.3333V15.8333C9.16675 15.3731 9.53984 15 10.0001 15Z" fill="black"/>
</svg>
