<svg width="20" height="20" viewBox="0 0 20 20" fill="none" xmlns="http://www.w3.org/2000/svg">
<path fill-rule="evenodd" clip-rule="evenodd" d="M4.16675 3.33317C3.70651 3.33317 3.33341 3.70627 3.33341 4.1665V15.8332C3.33341 16.2934 3.70651 16.6665 4.16675 16.6665H15.8334C16.2937 16.6665 16.6667 16.2934 16.6667 15.8332V4.1665C16.6667 3.70627 16.2937 3.33317 15.8334 3.33317H4.16675ZM1.66675 4.1665C1.66675 2.78579 2.78604 1.6665 4.16675 1.6665H15.8334C17.2141 1.6665 18.3334 2.78579 18.3334 4.1665V15.8332C18.3334 17.2139 17.2141 18.3332 15.8334 18.3332H4.16675C2.78604 18.3332 1.66675 17.2139 1.66675 15.8332V4.1665Z" fill="black"/>
<path fill-rule="evenodd" clip-rule="evenodd" d="M5 5.83333C5 5.3731 5.3731 5 5.83333 5H8.33333C8.79357 5 9.16667 5.3731 9.16667 5.83333V13.3333C9.16667 13.7936 8.79357 14.1667 8.33333 14.1667H5.83333C5.3731 14.1667 5 13.7936 5 13.3333V5.83333ZM6.66667 6.66667V12.5H7.5V6.66667H6.66667Z" fill="black"/>
<path fill-rule="evenodd" clip-rule="evenodd" d="M10.8333 5.83333C10.8333 5.3731 11.2063 5 11.6666 5H14.1666C14.6268 5 14.9999 5.3731 14.9999 5.83333V10C14.9999 10.4602 14.6268 10.8333 14.1666 10.8333H11.6666C11.2063 10.8333 10.8333 10.4602 10.8333 10V5.83333ZM12.4999 6.66667V9.16667H13.3333V6.66667H12.4999Z" fill="black"/>
</svg>
