<svg width="20" height="20" viewBox="0 0 20 20" fill="none" xmlns="http://www.w3.org/2000/svg">
<path fill-rule="evenodd" clip-rule="evenodd" d="M18.9225 5.24408C19.2479 5.56951 19.2479 6.09715 18.9225 6.42259L11.8392 13.5059C11.5137 13.8314 10.9861 13.8314 10.6607 13.5059L7.08325 9.92851L2.25584 14.7559C1.9304 15.0814 1.40277 15.0814 1.07733 14.7559C0.751893 14.4305 0.751893 13.9028 1.07733 13.5774L6.494 8.16074C6.81943 7.83531 7.34707 7.83531 7.67251 8.16074L11.2499 11.7382L17.744 5.24408C18.0694 4.91864 18.5971 4.91864 18.9225 5.24408Z" fill="black"/>
<path fill-rule="evenodd" clip-rule="evenodd" d="M12.5 5.83333C12.5 5.3731 12.8731 5 13.3333 5H18.3333C18.7936 5 19.1667 5.3731 19.1667 5.83333V10.8333C19.1667 11.2936 18.7936 11.6667 18.3333 11.6667C17.8731 11.6667 17.5 11.2936 17.5 10.8333V6.66667H13.3333C12.8731 6.66667 12.5 6.29357 12.5 5.83333Z" fill="black"/>
</svg>
