<svg width="20" height="20" viewBox="0 0 20 20" fill="none" xmlns="http://www.w3.org/2000/svg">
<path fill-rule="evenodd" clip-rule="evenodd" d="M1.07733 5.24408C1.40277 4.91864 1.9304 4.91864 2.25584 5.24408L7.08325 10.0715L10.6607 6.49408C10.9861 6.16864 11.5137 6.16864 11.8392 6.49408L18.9225 13.5774C19.2479 13.9028 19.2479 14.4305 18.9225 14.7559C18.5971 15.0814 18.0694 15.0814 17.744 14.7559L11.2499 8.26185L7.67251 11.8393C7.34707 12.1647 6.81943 12.1647 6.494 11.8393L1.07733 6.42259C0.751893 6.09715 0.751893 5.56951 1.07733 5.24408Z" fill="black"/>
<path fill-rule="evenodd" clip-rule="evenodd" d="M18.3333 8.3335C18.7936 8.3335 19.1667 8.70659 19.1667 9.16683V14.1668C19.1667 14.6271 18.7936 15.0002 18.3333 15.0002H13.3333C12.8731 15.0002 12.5 14.6271 12.5 14.1668C12.5 13.7066 12.8731 13.3335 13.3333 13.3335H17.5V9.16683C17.5 8.70659 17.8731 8.3335 18.3333 8.3335Z" fill="black"/>
</svg>
