<svg width="20" height="20" viewBox="0 0 20 20" fill="none" xmlns="http://www.w3.org/2000/svg">
<path fill-rule="evenodd" clip-rule="evenodd" d="M11.7673 11.7675C12.0927 11.4421 12.6203 11.4421 12.9458 11.7675L18.0891 16.9108C18.4146 17.2363 18.4146 17.7639 18.0891 18.0894C17.7637 18.4148 17.236 18.4148 16.9106 18.0894L11.7673 12.946C11.4418 12.6206 11.4418 12.093 11.7673 11.7675Z" fill="black"/>
<path fill-rule="evenodd" clip-rule="evenodd" d="M17.5 12.5C17.9602 12.5 18.3333 12.8731 18.3333 13.3333V17.5C18.3333 17.9602 17.9602 18.3333 17.5 18.3333H13.3333C12.8731 18.3333 12.5 17.9602 12.5 17.5C12.5 17.0398 12.8731 16.6667 13.3333 16.6667H16.6667V13.3333C16.6667 12.8731 17.0398 12.5 17.5 12.5Z" fill="black"/>
<path fill-rule="evenodd" clip-rule="evenodd" d="M18.0892 1.91058C18.4146 2.23602 18.4146 2.76366 18.0892 3.08909L10.5892 10.5891C10.2637 10.9145 9.7361 10.9145 9.41066 10.5891L6.66659 7.84502L2.25584 12.2558C1.9304 12.5812 1.40277 12.5812 1.07733 12.2558C0.751893 11.9303 0.751893 11.4027 1.07733 11.0772L6.07733 6.07725C6.40277 5.75181 6.9304 5.75181 7.25584 6.07725L9.99992 8.82133L16.9107 1.91058C17.2361 1.58514 17.7637 1.58514 18.0892 1.91058Z" fill="black"/>
<path fill-rule="evenodd" clip-rule="evenodd" d="M12.5 2.49984C12.5 2.0396 12.8731 1.6665 13.3333 1.6665H17.5C17.9602 1.6665 18.3333 2.0396 18.3333 2.49984V6.6665C18.3333 7.12674 17.9602 7.49984 17.5 7.49984C17.0398 7.49984 16.6667 7.12674 16.6667 6.6665V3.33317H13.3333C12.8731 3.33317 12.5 2.96007 12.5 2.49984Z" fill="black"/>
</svg>
