<svg width="20" height="20" viewBox="0 0 20 20" fill="none" xmlns="http://www.w3.org/2000/svg">
<path fill-rule="evenodd" clip-rule="evenodd" d="M17.5 4.25093L3.18263 15.8335H16.6667C16.8877 15.8335 17.0997 15.7457 17.2559 15.5895C17.4122 15.4332 17.5 15.2212 17.5 15.0002V4.25093ZM18.2802 2.54848C18.9817 2.85349 19.1667 3.59194 19.1667 4.16687V15.0002C19.1667 15.6632 18.9033 16.2991 18.4345 16.768C17.9656 17.2368 17.3297 17.5002 16.6667 17.5002H2.50002C2.20654 17.5002 1.90311 17.4618 1.63204 17.3475C1.35719 17.2317 1.04196 17.001 0.913704 16.5949C0.78737 16.1948 0.90745 15.8285 1.05444 15.5777C1.20043 15.3285 1.41447 15.1138 1.64837 14.931L16.4759 2.93567C16.48 2.93232 16.4842 2.92901 16.4884 2.92575C16.9396 2.5748 17.6115 2.25772 18.2802 2.54848Z" fill="black"/>
</svg>
