<svg width="20" height="20" viewBox="0 0 20 20" fill="none" xmlns="http://www.w3.org/2000/svg">
<path fill-rule="evenodd" clip-rule="evenodd" d="M8.75238 2.00309C9.1319 1.78449 9.56219 1.66943 10.0002 1.66943C10.4381 1.66943 10.8684 1.78449 11.2479 2.00309C11.6275 2.22169 11.9429 2.53616 12.1627 2.915C12.1636 2.91657 12.1645 2.91813 12.1654 2.9197L18.8302 14.5831C18.8305 14.5836 18.8308 14.5841 18.831 14.5846C19.0498 14.9641 19.165 15.3945 19.1651 15.8325C19.1652 16.2711 19.0499 16.7021 18.8308 17.082C18.6117 17.462 18.2965 17.7776 17.9168 17.9972C17.5371 18.2169 17.1063 18.3327 16.6677 18.3331L16.6668 18.3331H3.3335L3.33264 18.3331C2.89402 18.3327 2.46323 18.2169 2.08354 17.9972C1.70385 17.7776 1.38862 17.462 1.1695 17.082C0.950383 16.7021 0.835093 16.2711 0.835205 15.8325C0.835318 15.3945 0.950487 14.9643 1.16916 14.5848C1.16949 14.5843 1.16982 14.5837 1.17014 14.5831L7.83496 2.9197C7.83586 2.91813 7.83676 2.91657 7.83766 2.915C8.05743 2.53616 8.37286 2.22169 8.75238 2.00309ZM10.0002 3.3361C9.85417 3.3361 9.71074 3.37445 9.58424 3.44732C9.45838 3.51981 9.35367 3.62392 9.28047 3.74933L2.61537 15.4133C2.61475 15.4143 2.61414 15.4154 2.61352 15.4165C2.54041 15.5431 2.50191 15.6867 2.50187 15.8329C2.50183 15.9791 2.54026 16.1228 2.6133 16.2494C2.68634 16.3761 2.79142 16.4813 2.91798 16.5545C3.04455 16.6277 3.18814 16.6663 3.33435 16.6665H16.666C16.8122 16.6663 16.9558 16.6277 17.0823 16.5545C17.2089 16.4813 17.314 16.3761 17.387 16.2494C17.4601 16.1228 17.4985 15.9791 17.4985 15.8329C17.4984 15.6867 17.4599 15.5431 17.3868 15.4165L17.3859 15.4149L10.7199 3.74933C10.6467 3.62392 10.5419 3.51981 10.4161 3.44732C10.2896 3.37445 10.1462 3.3361 10.0002 3.3361Z" fill="black"/>
</svg>
