<svg width="20" height="20" viewBox="0 0 20 20" fill="none" xmlns="http://www.w3.org/2000/svg">
<path fill-rule="evenodd" clip-rule="evenodd" d="M8.73303 1.99523C9.11513 1.77258 9.54945 1.65527 9.99169 1.65527C10.4339 1.65527 10.8682 1.77258 11.2503 1.99523C11.632 2.21759 11.9478 2.53708 12.1658 2.92117C12.1661 2.92166 12.1664 2.92215 12.1667 2.92264L18.83 14.5835C18.8304 14.5841 18.8307 14.5846 18.831 14.5851C19.0497 14.9646 19.1649 15.3949 19.165 15.8329C19.1651 16.2715 19.0498 16.7024 18.8307 17.0824C18.6116 17.4624 18.2963 17.778 17.9166 17.9976C17.537 18.2172 17.1062 18.3331 16.6675 18.3335H3.33675C2.89742 18.3368 2.46497 18.2241 2.08297 18.007C1.69979 17.7892 1.381 17.474 1.15891 17.0933C0.936826 16.7125 0.819342 16.2799 0.818366 15.8391C0.817391 15.3991 0.932594 14.9665 1.15231 14.5853C1.15266 14.5847 1.15301 14.5841 1.15335 14.5835L7.81669 2.92264C7.81694 2.9222 7.8172 2.92175 7.81745 2.9213C8.03547 2.53715 8.35138 2.21762 8.73303 1.99523ZM9.99169 3.32194C9.84428 3.32194 9.6995 3.36104 9.57214 3.43526C9.44477 3.50948 9.33937 3.61615 9.26669 3.7444C9.2662 3.74526 9.26571 3.74611 9.26522 3.74697L2.59856 15.4136C2.59794 15.4147 2.59732 15.4158 2.59669 15.4169C2.52323 15.5441 2.4847 15.6885 2.48503 15.8354C2.48535 15.9824 2.52452 16.1266 2.59854 16.2535C2.67257 16.3804 2.77883 16.4855 2.90656 16.5581C3.03429 16.6307 3.17895 16.6682 3.32586 16.6669C3.32836 16.6669 3.33086 16.6669 3.33336 16.6669L16.6658 16.6669C16.6661 16.6669 16.6663 16.6669 16.6665 16.6669C16.8125 16.6666 16.9558 16.628 17.0822 16.5549C17.2088 16.4817 17.3138 16.3765 17.3869 16.2498C17.4599 16.1232 17.4984 15.9795 17.4983 15.8333C17.4983 15.6871 17.4598 15.5435 17.3867 15.4169C17.386 15.4158 17.3854 15.4147 17.3848 15.4136L10.7174 3.74572L10.7167 3.7444C10.644 3.61615 10.5386 3.50947 10.4112 3.43526C10.2839 3.36104 10.1391 3.32194 9.99169 3.32194Z" fill="black"/>
<path fill-rule="evenodd" clip-rule="evenodd" d="M10.0001 6.6665C10.4603 6.6665 10.8334 7.0396 10.8334 7.49984V10.8332C10.8334 11.2934 10.4603 11.6665 10.0001 11.6665C9.53984 11.6665 9.16675 11.2934 9.16675 10.8332V7.49984C9.16675 7.0396 9.53984 6.6665 10.0001 6.6665Z" fill="black"/>
<path fill-rule="evenodd" clip-rule="evenodd" d="M9.16675 14.1668C9.16675 13.7066 9.53984 13.3335 10.0001 13.3335H10.0084C10.4687 13.3335 10.8417 13.7066 10.8417 14.1668C10.8417 14.6271 10.4687 15.0002 10.0084 15.0002H10.0001C9.53984 15.0002 9.16675 14.6271 9.16675 14.1668Z" fill="black"/>
</svg>
