<svg width="20" height="20" viewBox="0 0 20 20" fill="none" xmlns="http://www.w3.org/2000/svg">
<path fill-rule="evenodd" clip-rule="evenodd" d="M1.56549 3.23223C2.03433 2.76339 2.67021 2.5 3.33325 2.5H9.99992C10.663 2.5 11.2988 2.76339 11.7677 3.23223C12.2365 3.70107 12.4999 4.33696 12.4999 5V15C12.4999 15.4602 12.1268 15.8333 11.6666 15.8333C11.2063 15.8333 10.8333 15.4602 10.8333 15V5C10.8333 4.77899 10.7455 4.56702 10.5892 4.41074C10.4329 4.25446 10.2209 4.16667 9.99992 4.16667H3.33325C3.11224 4.16667 2.90028 4.25446 2.744 4.41074C2.58772 4.56702 2.49992 4.77899 2.49992 5V14.1667H4.16659C4.62682 14.1667 4.99992 14.5398 4.99992 15C4.99992 15.4602 4.62682 15.8333 4.16659 15.8333H2.49992C2.05789 15.8333 1.63397 15.6577 1.32141 15.3452C1.00885 15.0326 0.833252 14.6087 0.833252 14.1667V5C0.833252 4.33696 1.09664 3.70107 1.56549 3.23223Z" fill="black"/>
<path fill-rule="evenodd" clip-rule="evenodd" d="M6.66675 14.9998C6.66675 14.5396 7.03984 14.1665 7.50008 14.1665H12.5001C12.9603 14.1665 13.3334 14.5396 13.3334 14.9998C13.3334 15.4601 12.9603 15.8332 12.5001 15.8332H7.50008C7.03984 15.8332 6.66675 15.4601 6.66675 14.9998Z" fill="black"/>
<path fill-rule="evenodd" clip-rule="evenodd" d="M10.8333 6.66683C10.8333 6.20659 11.2063 5.8335 11.6666 5.8335L14.6011 5.8335C14.8509 5.83385 15.0974 5.89036 15.3225 5.99883C15.5474 6.10725 15.7451 6.26483 15.9009 6.45991C15.901 6.45999 15.901 6.46008 15.9011 6.46016L18.7999 10.0837C18.8 10.0838 18.8 10.0838 18.8001 10.0839C19.0367 10.3789 19.1659 10.7456 19.1666 11.1237L19.1666 11.1252V14.1668C19.1666 14.6089 18.991 15.0328 18.6784 15.3453C18.3659 15.6579 17.9419 15.8335 17.4999 15.8335H15.8333C15.373 15.8335 14.9999 15.4604 14.9999 15.0002C14.9999 14.5399 15.373 14.1668 15.8333 14.1668H17.4999L17.4999 11.1266L14.5992 7.50074L14.5987 7.50016L11.6666 7.50016C11.2063 7.50016 10.8333 7.12707 10.8333 6.66683Z" fill="black"/>
<path fill-rule="evenodd" clip-rule="evenodd" d="M14.1667 14.1667C13.7065 14.1667 13.3334 14.5398 13.3334 15C13.3334 15.4602 13.7065 15.8333 14.1667 15.8333C14.627 15.8333 15.0001 15.4602 15.0001 15C15.0001 14.5398 14.627 14.1667 14.1667 14.1667ZM11.6667 15C11.6667 13.6193 12.786 12.5 14.1667 12.5C15.5475 12.5 16.6667 13.6193 16.6667 15C16.6667 16.3807 15.5475 17.5 14.1667 17.5C12.786 17.5 11.6667 16.3807 11.6667 15Z" fill="black"/>
<path fill-rule="evenodd" clip-rule="evenodd" d="M5.83325 14.1667C5.37301 14.1667 4.99992 14.5398 4.99992 15C4.99992 15.4602 5.37301 15.8333 5.83325 15.8333C6.29349 15.8333 6.66659 15.4602 6.66659 15C6.66659 14.5398 6.29349 14.1667 5.83325 14.1667ZM3.33325 15C3.33325 13.6193 4.45254 12.5 5.83325 12.5C7.21396 12.5 8.33325 13.6193 8.33325 15C8.33325 16.3807 7.21396 17.5 5.83325 17.5C4.45254 17.5 3.33325 16.3807 3.33325 15Z" fill="black"/>
</svg>
