<svg width="20" height="20" viewBox="0 0 20 20" fill="none" xmlns="http://www.w3.org/2000/svg">
<path fill-rule="evenodd" clip-rule="evenodd" d="M3.02995 6.3632C4.43647 4.95668 6.34413 4.1665 8.33325 4.1665C10.3224 4.1665 12.23 4.95668 13.6366 6.3632C15.0431 7.76973 15.8333 9.67738 15.8333 11.6665V14.1665C15.8333 14.6085 15.6577 15.0325 15.3451 15.345C15.0325 15.6576 14.6086 15.8332 14.1666 15.8332H12.4999C12.0579 15.8332 11.634 15.6576 11.3214 15.345C11.0088 15.0325 10.8333 14.6085 10.8333 14.1665V11.8632L9.48489 9.1665H7.18161L5.83325 11.8632V14.1665C5.83325 14.6085 5.65766 15.0325 5.3451 15.345C5.03254 15.6576 4.60861 15.8332 4.16659 15.8332H2.49992C2.05789 15.8332 1.63397 15.6576 1.32141 15.345C1.00885 15.0325 0.833252 14.6085 0.833252 14.1665V11.6665C0.833252 9.67738 1.62343 7.76973 3.02995 6.3632ZM8.33325 5.83317C6.78616 5.83317 5.30242 6.44775 4.20846 7.54171C3.1145 8.63568 2.49992 10.1194 2.49992 11.6665V14.1665H4.16659V11.6665C4.16659 11.5371 4.19671 11.4095 4.25456 11.2938L5.92123 7.96049C6.06239 7.67817 6.35094 7.49984 6.66659 7.49984H9.99992C10.3156 7.49984 10.6041 7.67817 10.7453 7.96049L12.4119 11.2938C12.4698 11.4095 12.4999 11.5371 12.4999 11.6665V14.1665H14.1666V11.6665C14.1666 10.1194 13.552 8.63568 12.458 7.54171C11.3641 6.44775 9.88035 5.83317 8.33325 5.83317Z" fill="black"/>
<path fill-rule="evenodd" clip-rule="evenodd" d="M3.32114 6.12421C3.57476 5.74016 4.0917 5.63442 4.47575 5.88804L7.12575 7.63804C7.5098 7.89166 7.61554 8.40859 7.36192 8.79264C7.1083 9.17669 6.59136 9.28243 6.20731 9.02881L3.55731 7.27881C3.17326 7.02519 3.06752 6.50826 3.32114 6.12421Z" fill="black"/>
<path fill-rule="evenodd" clip-rule="evenodd" d="M13.3453 6.12421C13.5989 6.50826 13.4932 7.02519 13.1091 7.27881L10.4591 9.02881C10.0751 9.28243 9.55816 9.1767 9.30454 8.79264C9.05092 8.40859 9.15666 7.89166 9.54071 7.63804L12.1907 5.88804C12.5748 5.63442 13.0917 5.74016 13.3453 6.12421Z" fill="black"/>
<path fill-rule="evenodd" clip-rule="evenodd" d="M13.2749 8.33333C13.2749 7.8731 13.648 7.5 14.1083 7.5H16.6666C17.3296 7.5 17.9655 7.76339 18.4344 8.23223C18.9032 8.70107 19.1666 9.33696 19.1666 10C19.1666 10.663 18.9032 11.2989 18.4344 11.7678C17.9655 12.2366 17.3296 12.5 16.6666 12.5H1.66659C1.20635 12.5 0.833252 12.1269 0.833252 11.6667C0.833252 11.2064 1.20635 10.8333 1.66659 10.8333H16.6666C16.8876 10.8333 17.0996 10.7455 17.2558 10.5893C17.4121 10.433 17.4999 10.221 17.4999 10C17.4999 9.77899 17.4121 9.56703 17.2558 9.41074C17.0996 9.25446 16.8876 9.16667 16.6666 9.16667H14.1083C13.648 9.16667 13.2749 8.79357 13.2749 8.33333Z" fill="black"/>
</svg>
