<svg width="20" height="20" viewBox="0 0 20 20" fill="none" xmlns="http://www.w3.org/2000/svg">
<path fill-rule="evenodd" clip-rule="evenodd" d="M5 17.4998C5 17.0396 5.3731 16.6665 5.83333 16.6665H14.1667C14.6269 16.6665 15 17.0396 15 17.4998C15 17.9601 14.6269 18.3332 14.1667 18.3332H5.83333C5.3731 18.3332 5 17.9601 5 17.4998Z" fill="black"/>
<path fill-rule="evenodd" clip-rule="evenodd" d="M3.33325 3.33317C2.87301 3.33317 2.49992 3.70627 2.49992 4.1665V12.4998C2.49992 12.9601 2.87301 13.3332 3.33325 13.3332H16.6666C17.1268 13.3332 17.4999 12.9601 17.4999 12.4998V4.1665C17.4999 3.70627 17.1268 3.33317 16.6666 3.33317H3.33325ZM0.833252 4.1665C0.833252 2.78579 1.95254 1.6665 3.33325 1.6665H16.6666C18.0473 1.6665 19.1666 2.78579 19.1666 4.1665V12.4998C19.1666 13.8805 18.0473 14.9998 16.6666 14.9998H3.33325C1.95254 14.9998 0.833252 13.8805 0.833252 12.4998V4.1665Z" fill="black"/>
</svg>
