<svg width="20" height="20" viewBox="0 0 20 20" fill="none" xmlns="http://www.w3.org/2000/svg">
<path fill-rule="evenodd" clip-rule="evenodd" d="M8.24708 5.18618C8.4732 5.05985 8.72889 4.99603 8.98786 5.00128C9.24683 5.00652 9.49973 5.08065 9.72056 5.21603L12.7746 7.09064C12.987 7.22112 13.1623 7.40383 13.2839 7.62135C13.4056 7.83886 13.4695 8.08392 13.4695 8.33314C13.4695 8.58236 13.4056 8.82742 13.2839 9.04493C13.1623 9.26245 12.987 9.44517 12.7746 9.57564L9.72056 11.4511C9.49945 11.5866 9.24619 11.6608 8.98689 11.6659C8.72759 11.6709 8.47162 11.6068 8.24538 11.48C8.01914 11.3532 7.8308 11.1684 7.69977 10.9445C7.56887 10.7209 7.49991 10.4664 7.5 10.2073C7.5 10.2072 7.5 10.2071 7.5 10.207L7.5 6.45658C7.50049 6.19756 7.56995 5.94334 7.70125 5.72007C7.83255 5.49679 8.02095 5.31251 8.24708 5.18618ZM9.16667 6.83164L11.6129 8.33318L9.16667 9.83539V6.83164Z" fill="black"/>
<path fill-rule="evenodd" clip-rule="evenodd" d="M5 17.4998C5 17.0396 5.3731 16.6665 5.83333 16.6665H14.1667C14.6269 16.6665 15 17.0396 15 17.4998C15 17.9601 14.6269 18.3332 14.1667 18.3332H5.83333C5.3731 18.3332 5 17.9601 5 17.4998Z" fill="black"/>
<path fill-rule="evenodd" clip-rule="evenodd" d="M3.33325 3.33317C2.87301 3.33317 2.49992 3.70627 2.49992 4.1665V12.4998C2.49992 12.9601 2.87301 13.3332 3.33325 13.3332H16.6666C17.1268 13.3332 17.4999 12.9601 17.4999 12.4998V4.1665C17.4999 3.70627 17.1268 3.33317 16.6666 3.33317H3.33325ZM0.833252 4.1665C0.833252 2.78579 1.95254 1.6665 3.33325 1.6665H16.6666C18.0473 1.6665 19.1666 2.78579 19.1666 4.1665V12.4998C19.1666 13.8805 18.0473 14.9998 16.6666 14.9998H3.33325C1.95254 14.9998 0.833252 13.8805 0.833252 12.4998V4.1665Z" fill="black"/>
</svg>
