<svg width="20" height="20" viewBox="0 0 20 20" fill="none" xmlns="http://www.w3.org/2000/svg">
<g clip-path="url(#clip0_2001_10954)">
<path fill-rule="evenodd" clip-rule="evenodd" d="M3.33325 6.66667C2.87301 6.66667 2.49992 7.03976 2.49992 7.5V16.6667C2.49992 17.1269 2.87301 17.5 3.33325 17.5H16.6666C17.1268 17.5 17.4999 17.1269 17.4999 16.6667V7.5C17.4999 7.03976 17.1268 6.66667 16.6666 6.66667H3.33325ZM0.833252 7.5C0.833252 6.11929 1.95254 5 3.33325 5H16.6666C18.0473 5 19.1666 6.11929 19.1666 7.5V16.6667C19.1666 18.0474 18.0473 19.1667 16.6666 19.1667H3.33325C1.95254 19.1667 0.833252 18.0474 0.833252 16.6667V7.5Z" fill="black"/>
<path fill-rule="evenodd" clip-rule="evenodd" d="M5.24408 1.07757C5.56951 0.752137 6.09715 0.752137 6.42259 1.07757L10 4.65498L13.5774 1.07757C13.9028 0.752137 14.4305 0.752137 14.7559 1.07757C15.0814 1.40301 15.0814 1.93065 14.7559 2.25609L10.5893 6.42275C10.2638 6.74819 9.73618 6.74819 9.41074 6.42275L5.24408 2.25609C4.91864 1.93065 4.91864 1.40301 5.24408 1.07757Z" fill="black"/>
</g>
<defs>
<clipPath id="clip0_2001_10954">
<rect width="20" height="20" fill="white"/>
</clipPath>
</defs>
</svg>
