<svg width="20" height="20" viewBox="0 0 20 20" fill="none" xmlns="http://www.w3.org/2000/svg">
<path fill-rule="evenodd" clip-rule="evenodd" d="M1.66675 1.66683C1.66675 1.20659 2.03984 0.833496 2.50008 0.833496H17.5001C17.9603 0.833496 18.3334 1.20659 18.3334 1.66683V11.6668C18.3334 11.8878 18.2456 12.0998 18.0893 12.2561L14.756 15.5894C14.5997 15.7457 14.3878 15.8335 14.1667 15.8335H10.3453L7.256 18.9228C7.01767 19.1611 6.65924 19.2324 6.34785 19.1034C6.03645 18.9744 5.83341 18.6705 5.83341 18.3335V15.8335H2.50008C2.03984 15.8335 1.66675 15.4604 1.66675 15.0002V1.66683ZM3.33341 2.50016V14.1668H6.66675C7.12699 14.1668 7.50008 14.5399 7.50008 15.0002V16.3217L9.41083 14.4109C9.56711 14.2546 9.77907 14.1668 10.0001 14.1668H13.8216L16.6667 11.3217V2.50016H3.33341ZM9.16675 5.00016C9.62698 5.00016 10.0001 5.37326 10.0001 5.8335V9.16683C10.0001 9.62707 9.62698 10.0002 9.16675 10.0002C8.70651 10.0002 8.33341 9.62707 8.33341 9.16683V5.8335C8.33341 5.37326 8.70651 5.00016 9.16675 5.00016ZM13.3334 5.00016C13.7937 5.00016 14.1667 5.37326 14.1667 5.8335V9.16683C14.1667 9.62707 13.7937 10.0002 13.3334 10.0002C12.8732 10.0002 12.5001 9.62707 12.5001 9.16683V5.8335C12.5001 5.37326 12.8732 5.00016 13.3334 5.00016Z" fill="black"/>
</svg>
