<svg width="20" height="20" viewBox="0 0 20 20" fill="none" xmlns="http://www.w3.org/2000/svg">
<path fill-rule="evenodd" clip-rule="evenodd" d="M12.083 4.46815C11.154 4.95216 10.5234 5.96545 10.8148 7.32533C10.8667 7.56721 10.8083 7.81962 10.6557 8.01426C10.503 8.20889 10.2718 8.32564 10.0245 8.33291C7.37767 8.41076 4.73594 7.42291 2.77653 5.64822C1.81011 8.7986 3.62051 12.3827 6.90611 13.3684C7.19655 13.4556 7.41673 13.6936 7.48104 13.9899C7.54534 14.2862 7.44361 14.5941 7.21541 14.7938C6.43924 15.4729 5.52109 15.9725 4.53719 16.2853C10.5458 18.1214 16.9188 13.0168 15.8438 6.29827C15.8016 6.03441 15.8885 5.7663 16.0774 5.57735C16.2284 5.42639 16.3703 5.25646 16.5023 5.0769C16.2868 5.12996 16.0583 5.16661 15.8333 5.16661C15.6222 5.16661 15.419 5.08651 15.2647 4.94249C14.2896 4.03239 13.03 3.97475 12.083 4.46815ZM18.3333 3.33327C19.1239 3.5968 19.1238 3.59695 19.1238 3.59711L19.1234 3.59827L19.1227 3.60039C19.1221 3.60201 19.1215 3.60406 19.1206 3.60653C19.1189 3.61146 19.1167 3.61806 19.1138 3.62625C19.1082 3.64262 19.1001 3.66539 19.0898 3.69394C19.0692 3.751 19.0392 3.83138 19.0001 3.93025C18.9221 4.12751 18.8065 4.40088 18.6543 4.71092C18.4034 5.22191 18.0353 5.86965 17.547 6.4405C18.6368 15.2661 8.87375 21.6098 1.20627 16.5279C0.893987 16.3209 0.758217 15.931 0.874421 15.5748C0.990625 15.2186 1.33023 14.9838 1.7045 15.0008C2.83824 15.0523 3.96022 14.8177 4.92647 14.3346C1.29197 12.3295 -0.306258 7.58495 1.7678 3.76868C1.89916 3.52699 2.14132 3.36569 2.41496 3.33762C2.6886 3.30956 2.95846 3.41833 3.13615 3.62832C4.61001 5.37016 6.80348 6.46578 9.07585 6.64461C9.08469 4.98349 10.02 3.66366 11.3129 2.99007C12.7444 2.24421 14.6123 2.29042 16.0953 3.4606C16.1674 3.44313 16.2503 3.4192 16.3438 3.38757C16.5756 3.30924 16.8245 3.20051 17.0605 3.08489C17.2947 2.97021 17.5043 2.85462 17.6557 2.76742C17.731 2.72403 17.791 2.68819 17.8314 2.66372C17.8515 2.65149 17.8667 2.64214 17.8764 2.63613C17.8812 2.63313 17.8847 2.63097 17.8867 2.62971L17.8883 2.6287C17.8884 2.62867 17.8884 2.62863 17.8885 2.6286C17.8884 2.62865 17.8883 2.6287 18.3333 3.33327ZM17.8885 2.6286C17.8885 2.62858 17.8885 2.62857 17.8886 2.62856C17.8886 2.62852 17.8887 2.62848 17.8888 2.62844C18.1865 2.44063 18.5702 2.46018 18.8473 2.67731C19.1245 2.89455 19.2353 3.26265 19.1239 3.5968L18.3333 3.33327" fill="black"/>
</svg>
