<svg width="20" height="20" viewBox="0 0 20 20" fill="none" xmlns="http://www.w3.org/2000/svg">
<path fill-rule="evenodd" clip-rule="evenodd" d="M2.5 3.33333C2.5 2.8731 2.8731 2.5 3.33333 2.5H16.6667C17.1269 2.5 17.5 2.8731 17.5 3.33333V5.83333C17.5 6.29357 17.1269 6.66667 16.6667 6.66667C16.2064 6.66667 15.8333 6.29357 15.8333 5.83333V4.16667H4.16667V5.83333C4.16667 6.29357 3.79357 6.66667 3.33333 6.66667C2.8731 6.66667 2.5 6.29357 2.5 5.83333V3.33333Z" fill="black"/>
<path fill-rule="evenodd" clip-rule="evenodd" d="M6.66675 16.6668C6.66675 16.2066 7.03984 15.8335 7.50008 15.8335H12.5001C12.9603 15.8335 13.3334 16.2066 13.3334 16.6668C13.3334 17.1271 12.9603 17.5002 12.5001 17.5002H7.50008C7.03984 17.5002 6.66675 17.1271 6.66675 16.6668Z" fill="black"/>
<path fill-rule="evenodd" clip-rule="evenodd" d="M10.0001 2.5C10.4603 2.5 10.8334 2.8731 10.8334 3.33333V16.6667C10.8334 17.1269 10.4603 17.5 10.0001 17.5C9.53984 17.5 9.16675 17.1269 9.16675 16.6667V3.33333C9.16675 2.8731 9.53984 2.5 10.0001 2.5Z" fill="black"/>
</svg>
