<svg width="20" height="20" viewBox="0 0 20 20" fill="none" xmlns="http://www.w3.org/2000/svg">
<path fill-rule="evenodd" clip-rule="evenodd" d="M3.33325 3.33317C3.11224 3.33317 2.90028 3.42097 2.744 3.57725C2.58772 3.73353 2.49992 3.94549 2.49992 4.1665V6.6665C2.49992 6.88752 2.58772 7.09948 2.744 7.25576C2.90028 7.41204 3.11224 7.49984 3.33325 7.49984C3.55427 7.49984 3.76623 7.41204 3.92251 7.25576C4.07879 7.09948 4.16659 6.88752 4.16659 6.6665V6.24984C4.16659 5.91832 4.29828 5.60037 4.5327 5.36595C4.76712 5.13153 5.08506 4.99984 5.41659 4.99984H7.91659C8.24811 4.99984 8.56605 5.13153 8.80047 5.36595C9.03489 5.60038 9.16659 5.91832 9.16659 6.24984V13.7498C9.16659 14.0814 9.03489 14.3993 8.80047 14.6337C8.56605 14.8681 8.2481 14.9998 7.91659 14.9998H7.49992C7.27891 14.9998 7.06694 15.0876 6.91066 15.2439C6.75438 15.4002 6.66659 15.6122 6.66659 15.8332C6.66659 16.0542 6.75438 16.2661 6.91066 16.4224C7.06694 16.5787 7.27891 16.6665 7.49992 16.6665H12.4999C12.7209 16.6665 12.9329 16.5787 13.0892 16.4224C13.2455 16.2661 13.3333 16.0542 13.3333 15.8332C13.3333 15.6122 13.2455 15.4002 13.0892 15.2439C12.9329 15.0876 12.7209 14.9998 12.4999 14.9998H12.0833C11.7517 14.9998 11.4338 14.8681 11.1994 14.6337C10.9649 14.3993 10.8333 14.0814 10.8333 13.7498V6.24984C10.8333 5.91832 10.9649 5.60038 11.1994 5.36595C11.4338 5.13153 11.7517 4.99984 12.0833 4.99984H14.5833C14.9148 4.99984 15.2327 5.13153 15.4671 5.36595C15.7016 5.60038 15.8333 5.91832 15.8333 6.24984V6.6665C15.8333 6.88752 15.9211 7.09948 16.0773 7.25576C16.2336 7.41204 16.4456 7.49984 16.6666 7.49984C16.8876 7.49984 17.0996 7.41204 17.2558 7.25576C17.4121 7.09948 17.4999 6.88752 17.4999 6.6665V4.1665C17.4999 3.94549 17.4121 3.73353 17.2558 3.57725C17.0996 3.42097 16.8876 3.33317 16.6666 3.33317H3.33325ZM1.56549 2.39874C2.03433 1.9299 2.67021 1.6665 3.33325 1.6665H16.6666C17.3296 1.6665 17.9655 1.9299 18.4344 2.39874C18.9032 2.86758 19.1666 3.50346 19.1666 4.1665V6.6665C19.1666 7.32955 18.9032 7.96543 18.4344 8.43427C17.9655 8.90311 17.3296 9.1665 16.6666 9.1665C16.0035 9.1665 15.3677 8.90311 14.8988 8.43427C14.43 7.96543 14.1666 7.32955 14.1666 6.6665H12.4999V13.3332C13.163 13.3332 13.7988 13.5966 14.2677 14.0654C14.7365 14.5342 14.9999 15.1701 14.9999 15.8332C14.9999 16.4962 14.7365 17.1321 14.2677 17.6009C13.7988 18.0698 13.163 18.3332 12.4999 18.3332H7.49992C6.83688 18.3332 6.20099 18.0698 5.73215 17.6009C5.26331 17.1321 4.99992 16.4962 4.99992 15.8332C4.99992 15.1701 5.26331 14.5342 5.73215 14.0654C6.20099 13.5966 6.83688 13.3332 7.49992 13.3332V6.6665H5.83325C5.83325 7.32954 5.56986 7.96543 5.10102 8.43427C4.63218 8.90311 3.99629 9.1665 3.33325 9.1665C2.67021 9.1665 2.03433 8.90311 1.56549 8.43427C1.09664 7.96543 0.833252 7.32954 0.833252 6.6665V4.1665C0.833252 3.50346 1.09664 2.86758 1.56549 2.39874Z" fill="black"/>
</svg>
