<svg width="20" height="20" viewBox="0 0 20 20" fill="none" xmlns="http://www.w3.org/2000/svg">
<g clip-path="url(#clip0_2001_10967)">
<path fill-rule="evenodd" clip-rule="evenodd" d="M10.0001 0.833496C10.4603 0.833496 10.8334 1.20659 10.8334 1.66683V2.50016C10.8334 2.9604 10.4603 3.3335 10.0001 3.3335C9.53984 3.3335 9.16675 2.9604 9.16675 2.50016V1.66683C9.16675 1.20659 9.53984 0.833496 10.0001 0.833496Z" fill="black"/>
<path fill-rule="evenodd" clip-rule="evenodd" d="M5.15501 3.97741C5.45515 4.32632 5.4156 4.85247 5.06669 5.15261C3.84572 6.20288 3.00168 7.61235 2.6463 9.16668H9.99992C10.4602 9.16668 10.8333 9.53978 10.8333 10V16.6667C10.8333 16.6939 10.8319 16.7211 10.8293 16.7483C10.813 16.9133 10.8552 17.0788 10.9485 17.2159C11.0417 17.3531 11.1801 17.4531 11.3396 17.4987C11.499 17.5442 11.6694 17.5324 11.8211 17.4652C11.9727 17.3981 12.0959 17.2798 12.1693 17.1311C12.3731 16.7184 12.8728 16.549 13.2855 16.7528C13.6982 16.9565 13.8676 17.4562 13.6638 17.8689C13.4177 18.3675 13.0044 18.7639 12.496 18.9891C11.9876 19.2143 11.4164 19.254 10.8817 19.1012C10.3471 18.9485 9.88298 18.613 9.5703 18.1532C9.2661 17.7059 9.12397 17.1685 9.16659 16.6302V10.8333H1.66659C1.43099 10.8333 1.20639 10.7336 1.0484 10.5588C0.890408 10.3841 0.81378 10.1506 0.837484 9.91617C1.07386 7.57869 2.19871 5.4212 3.97982 3.88909C4.32873 3.58896 4.85488 3.6285 5.15501 3.97741Z" fill="black"/>
<path fill-rule="evenodd" clip-rule="evenodd" d="M7.2498 2.08545C8.55178 1.66936 9.93033 1.5497 11.2845 1.73523C12.6387 1.92076 13.9343 2.40678 15.0764 3.15772C16.2185 3.90865 17.1782 4.90549 17.8852 6.07526C18.5923 7.24502 19.0288 8.5581 19.1628 9.91837C19.1859 10.1525 19.1089 10.3854 18.9509 10.5597C18.793 10.734 18.5687 10.8334 18.3335 10.8334H14.5835C14.1232 10.8334 13.7501 10.4603 13.7501 10.0001C13.7501 9.53983 14.1232 9.16674 14.5835 9.16674H17.3565C17.1795 8.38217 16.877 7.62916 16.4589 6.9374C15.8804 5.98032 15.0952 5.16473 14.1607 4.55032C13.2263 3.93592 12.1663 3.53827 11.0583 3.38647C9.95032 3.23467 8.82241 3.33258 7.75716 3.67302C7.31877 3.81312 6.8498 3.57131 6.7097 3.13292C6.56959 2.69452 6.8114 2.22556 7.2498 2.08545Z" fill="black"/>
<path fill-rule="evenodd" clip-rule="evenodd" d="M1.07733 1.07757C1.40277 0.752137 1.9304 0.752137 2.25584 1.07757L18.9225 17.7442C19.2479 18.0697 19.2479 18.5973 18.9225 18.9228C18.5971 19.2482 18.0694 19.2482 17.744 18.9228L1.07733 2.25609C0.751893 1.93065 0.751893 1.40301 1.07733 1.07757Z" fill="black"/>
</g>
<defs>
<clipPath id="clip0_2001_10967">
<rect width="20" height="20" fill="white"/>
</clipPath>
</defs>
</svg>
