<svg width="20" height="20" viewBox="0 0 20 20" fill="none" xmlns="http://www.w3.org/2000/svg">
<g clip-path="url(#clip0_2001_10972)">
<path fill-rule="evenodd" clip-rule="evenodd" d="M3.84837 4.05108C5.53905 2.53575 7.72954 1.69775 9.99992 1.69775C12.2703 1.69775 14.4608 2.53575 16.1515 4.05108C17.8421 5.56642 18.914 7.65246 19.1616 9.9093C19.1874 10.1447 19.1119 10.38 18.9538 10.5564C18.7957 10.7327 18.5701 10.8335 18.3333 10.8335H1.66659C1.42975 10.8335 1.20411 10.7327 1.04603 10.5564C0.887962 10.38 0.812398 10.1447 0.838226 9.9093C1.08582 7.65246 2.1577 5.56642 3.84837 4.05108ZM9.99992 3.36442C8.1401 3.36442 6.34572 4.05088 4.96077 5.29219C3.81 6.32362 3.0092 7.67781 2.65494 9.16685H17.3449C16.9906 7.67781 16.1898 6.32362 15.0391 5.29219C13.6541 4.05088 11.8597 3.36442 9.99992 3.36442Z" fill="black"/>
<path fill-rule="evenodd" clip-rule="evenodd" d="M10.0001 9.1665C10.4603 9.1665 10.8334 9.5396 10.8334 9.99984V16.6665C10.8334 16.8875 10.9212 17.0995 11.0775 17.2558C11.2338 17.412 11.4457 17.4998 11.6667 17.4998C11.8878 17.4998 12.0997 17.412 12.256 17.2558C12.4123 17.0995 12.5001 16.8875 12.5001 16.6665C12.5001 16.2063 12.8732 15.8332 13.3334 15.8332C13.7937 15.8332 14.1667 16.2063 14.1667 16.6665C14.1667 17.3295 13.9034 17.9654 13.4345 18.4343C12.9657 18.9031 12.3298 19.1665 11.6667 19.1665C11.0037 19.1665 10.3678 18.9031 9.89898 18.4343C9.43014 17.9654 9.16675 17.3295 9.16675 16.6665V9.99984C9.16675 9.5396 9.53984 9.1665 10.0001 9.1665Z" fill="black"/>
<path fill-rule="evenodd" clip-rule="evenodd" d="M10.0001 0.833496C10.4603 0.833496 10.8334 1.20659 10.8334 1.66683V2.50016C10.8334 2.9604 10.4603 3.3335 10.0001 3.3335C9.53984 3.3335 9.16675 2.9604 9.16675 2.50016V1.66683C9.16675 1.20659 9.53984 0.833496 10.0001 0.833496Z" fill="black"/>
</g>
<defs>
<clipPath id="clip0_2001_10972">
<rect width="20" height="20" fill="white"/>
</clipPath>
</defs>
</svg>
