<svg width="20" height="20" viewBox="0 0 20 20" fill="none" xmlns="http://www.w3.org/2000/svg">
<path fill-rule="evenodd" clip-rule="evenodd" d="M5.00008 2.5C5.46032 2.5 5.83341 2.8731 5.83341 3.33333V8.33333C5.83341 9.4384 6.2724 10.4982 7.0538 11.2796C7.83521 12.061 8.89501 12.5 10.0001 12.5C11.1052 12.5 12.165 12.061 12.9464 11.2796C13.7278 10.4982 14.1667 9.4384 14.1667 8.33333V3.33333C14.1667 2.8731 14.5398 2.5 15.0001 2.5C15.4603 2.5 15.8334 2.8731 15.8334 3.33333V8.33333C15.8334 9.88043 15.2188 11.3642 14.1249 12.4581C13.0309 13.5521 11.5472 14.1667 10.0001 14.1667C8.45299 14.1667 6.96925 13.5521 5.87529 12.4581C4.78133 11.3642 4.16675 9.88043 4.16675 8.33333V3.33333C4.16675 2.8731 4.53984 2.5 5.00008 2.5Z" fill="black"/>
<path fill-rule="evenodd" clip-rule="evenodd" d="M2.5 16.6668C2.5 16.2066 2.8731 15.8335 3.33333 15.8335H16.6667C17.1269 15.8335 17.5 16.2066 17.5 16.6668C17.5 17.1271 17.1269 17.5002 16.6667 17.5002H3.33333C2.8731 17.5002 2.5 17.1271 2.5 16.6668Z" fill="black"/>
</svg>
