<svg width="20" height="20" viewBox="0 0 20 20" fill="none" xmlns="http://www.w3.org/2000/svg">
<path fill-rule="evenodd" clip-rule="evenodd" d="M2.50008 5C2.96032 5 3.33341 5.3731 3.33341 5.83333V10H7.50008C7.96032 10 8.33341 10.3731 8.33341 10.8333C8.33341 11.2936 7.96032 11.6667 7.50008 11.6667H2.50008C2.03984 11.6667 1.66675 11.2936 1.66675 10.8333V5.83333C1.66675 5.3731 2.03984 5 2.50008 5Z" fill="black"/>
<path fill-rule="evenodd" clip-rule="evenodd" d="M9.99924 5.8335L10.0001 5.8335C12.2102 5.8335 14.3298 6.71147 15.8926 8.27427C17.4554 9.83708 18.3334 11.9567 18.3334 14.1668C18.3334 14.6271 17.9603 15.0002 17.5001 15.0002C17.0399 15.0002 16.6668 14.6271 16.6668 14.1668C16.6668 12.3987 15.9644 10.703 14.7141 9.45278C13.464 8.20264 11.7685 7.50027 10.0005 7.50016C8.36028 7.50194 6.77828 8.10833 5.55709 9.20333C5.55689 9.20351 5.55669 9.20369 5.55649 9.20387L3.05756 11.4529C2.71547 11.7608 2.18856 11.7331 1.88068 11.391C1.57279 11.0489 1.60053 10.522 1.94262 10.2141L4.44368 7.96313C5.9704 6.59383 7.94843 5.83558 9.99924 5.8335Z" fill="black"/>
</svg>
