<svg width="20" height="20" viewBox="0 0 20 20" fill="none" xmlns="http://www.w3.org/2000/svg">
<path fill-rule="evenodd" clip-rule="evenodd" d="M8.08926 2.74408C8.41469 3.06951 8.41469 3.59715 8.08926 3.92259L4.51184 7.5L8.08926 11.0774C8.41469 11.4028 8.41469 11.9305 8.08926 12.2559C7.76382 12.5814 7.23618 12.5814 6.91074 12.2559L2.74408 8.08926C2.41864 7.76382 2.41864 7.23618 2.74408 6.91074L6.91074 2.74408C7.23618 2.41864 7.76382 2.41864 8.08926 2.74408Z" fill="black"/>
<path fill-rule="evenodd" clip-rule="evenodd" d="M2.5 7.49984C2.5 7.0396 2.8731 6.6665 3.33333 6.6665H12.0833C12.7947 6.6665 13.499 6.80661 14.1562 7.07882C14.8134 7.35104 15.4105 7.75002 15.9135 8.25301C16.4165 8.75599 16.8155 9.35312 17.0877 10.0103C17.3599 10.6675 17.5 11.3718 17.5 12.0832C17.5 12.7945 17.3599 13.4989 17.0877 14.156C16.8155 14.8132 16.4165 15.4103 15.9135 15.9133C15.4105 16.4163 14.8134 16.8153 14.1562 17.0875C13.499 17.3597 12.7947 17.4998 12.0833 17.4998H9.16667C8.70643 17.4998 8.33333 17.1267 8.33333 16.6665C8.33333 16.2063 8.70643 15.8332 9.16667 15.8332H12.0833C12.5758 15.8332 13.0634 15.7362 13.5184 15.5477C13.9734 15.3593 14.3868 15.083 14.735 14.7348C15.0832 14.3866 15.3594 13.9732 15.5479 13.5182C15.7363 13.0633 15.8333 12.5756 15.8333 12.0832C15.8333 11.5907 15.7363 11.1031 15.5479 10.6481C15.3594 10.1931 15.0832 9.77974 14.735 9.43152C14.3868 9.0833 13.9734 8.80708 13.5184 8.61862C13.0634 8.43017 12.5758 8.33317 12.0833 8.33317H3.33333C2.8731 8.33317 2.5 7.96007 2.5 7.49984Z" fill="black"/>
</svg>
