<svg width="20" height="20" viewBox="0 0 20 20" fill="none" xmlns="http://www.w3.org/2000/svg">
<g clip-path="url(#clip0_2001_10998)">
<path fill-rule="evenodd" clip-rule="evenodd" d="M10.0001 12.5C10.4603 12.5 10.8334 12.8731 10.8334 13.3333V18.3333C10.8334 18.7936 10.4603 19.1667 10.0001 19.1667C9.53984 19.1667 9.16675 18.7936 9.16675 18.3333V13.3333C9.16675 12.8731 9.53984 12.5 10.0001 12.5Z" fill="black"/>
<path fill-rule="evenodd" clip-rule="evenodd" d="M10.0001 0.833496C10.4603 0.833496 10.8334 1.20659 10.8334 1.66683V6.66683C10.8334 7.12707 10.4603 7.50016 10.0001 7.50016C9.53984 7.50016 9.16675 7.12707 9.16675 6.66683V1.66683C9.16675 1.20659 9.53984 0.833496 10.0001 0.833496Z" fill="black"/>
<path fill-rule="evenodd" clip-rule="evenodd" d="M0.833252 9.99984C0.833252 9.5396 1.20635 9.1665 1.66659 9.1665H3.33325C3.79349 9.1665 4.16658 9.5396 4.16658 9.99984C4.16658 10.4601 3.79349 10.8332 3.33325 10.8332H1.66659C1.20635 10.8332 0.833252 10.4601 0.833252 9.99984Z" fill="black"/>
<path fill-rule="evenodd" clip-rule="evenodd" d="M5.83325 9.99984C5.83325 9.5396 6.20635 9.1665 6.66659 9.1665H8.33325C8.79349 9.1665 9.16658 9.5396 9.16658 9.99984C9.16658 10.4601 8.79349 10.8332 8.33325 10.8332H6.66659C6.20635 10.8332 5.83325 10.4601 5.83325 9.99984Z" fill="black"/>
<path fill-rule="evenodd" clip-rule="evenodd" d="M10.8333 9.99984C10.8333 9.5396 11.2063 9.1665 11.6666 9.1665H13.3333C13.7935 9.1665 14.1666 9.5396 14.1666 9.99984C14.1666 10.4601 13.7935 10.8332 13.3333 10.8332H11.6666C11.2063 10.8332 10.8333 10.4601 10.8333 9.99984Z" fill="black"/>
<path fill-rule="evenodd" clip-rule="evenodd" d="M15.8333 9.99984C15.8333 9.5396 16.2063 9.1665 16.6666 9.1665H18.3333C18.7935 9.1665 19.1666 9.5396 19.1666 9.99984C19.1666 10.4601 18.7935 10.8332 18.3333 10.8332H16.6666C16.2063 10.8332 15.8333 10.4601 15.8333 9.99984Z" fill="black"/>
<path fill-rule="evenodd" clip-rule="evenodd" d="M6.91083 15.2441C7.23626 14.9186 7.7639 14.9186 8.08934 15.2441L10.0001 17.1548L11.9108 15.2441C12.2363 14.9186 12.7639 14.9186 13.0893 15.2441C13.4148 15.5695 13.4148 16.0972 13.0893 16.4226L10.5893 18.9226C10.2639 19.248 9.73626 19.248 9.41083 18.9226L6.91083 16.4226C6.58539 16.0972 6.58539 15.5695 6.91083 15.2441Z" fill="black"/>
<path fill-rule="evenodd" clip-rule="evenodd" d="M9.41083 1.07757C9.73626 0.752137 10.2639 0.752137 10.5893 1.07757L13.0893 3.57757C13.4148 3.90301 13.4148 4.43065 13.0893 4.75608C12.7639 5.08152 12.2363 5.08152 11.9108 4.75608L10.0001 2.84534L8.08934 4.75608C7.7639 5.08152 7.23626 5.08152 6.91083 4.75608C6.58539 4.43065 6.58539 3.90301 6.91083 3.57757L9.41083 1.07757Z" fill="black"/>
</g>
<defs>
<clipPath id="clip0_2001_10998">
<rect width="20" height="20" fill="white"/>
</clipPath>
</defs>
</svg>
