<svg width="20" height="20" viewBox="0 0 20 20" fill="none" xmlns="http://www.w3.org/2000/svg">
<g clip-path="url(#clip0_2001_10989)">
<path fill-rule="evenodd" clip-rule="evenodd" d="M12.5 9.99984C12.5 9.5396 12.8731 9.1665 13.3333 9.1665H18.3333C18.7936 9.1665 19.1667 9.5396 19.1667 9.99984C19.1667 10.4601 18.7936 10.8332 18.3333 10.8332H13.3333C12.8731 10.8332 12.5 10.4601 12.5 9.99984Z" fill="black"/>
<path fill-rule="evenodd" clip-rule="evenodd" d="M0.833252 9.99984C0.833252 9.5396 1.20635 9.1665 1.66659 9.1665H6.66658C7.12682 9.1665 7.49992 9.5396 7.49992 9.99984C7.49992 10.4601 7.12682 10.8332 6.66658 10.8332H1.66659C1.20635 10.8332 0.833252 10.4601 0.833252 9.99984Z" fill="black"/>
<path fill-rule="evenodd" clip-rule="evenodd" d="M10.0001 0.833496C10.4603 0.833496 10.8334 1.20659 10.8334 1.66683V3.3335C10.8334 3.79373 10.4603 4.16683 10.0001 4.16683C9.53984 4.16683 9.16675 3.79373 9.16675 3.3335V1.66683C9.16675 1.20659 9.53984 0.833496 10.0001 0.833496Z" fill="black"/>
<path fill-rule="evenodd" clip-rule="evenodd" d="M10.0001 5.8335C10.4603 5.8335 10.8334 6.20659 10.8334 6.66683V8.3335C10.8334 8.79373 10.4603 9.16683 10.0001 9.16683C9.53984 9.16683 9.16675 8.79373 9.16675 8.3335V6.66683C9.16675 6.20659 9.53984 5.8335 10.0001 5.8335Z" fill="black"/>
<path fill-rule="evenodd" clip-rule="evenodd" d="M10.0001 10.8335C10.4603 10.8335 10.8334 11.2066 10.8334 11.6668V13.3335C10.8334 13.7937 10.4603 14.1668 10.0001 14.1668C9.53984 14.1668 9.16675 13.7937 9.16675 13.3335V11.6668C9.16675 11.2066 9.53984 10.8335 10.0001 10.8335Z" fill="black"/>
<path fill-rule="evenodd" clip-rule="evenodd" d="M10.0001 15.8335C10.4603 15.8335 10.8334 16.2066 10.8334 16.6668V18.3335C10.8334 18.7937 10.4603 19.1668 10.0001 19.1668C9.53984 19.1668 9.16675 18.7937 9.16675 18.3335V16.6668C9.16675 16.2066 9.53984 15.8335 10.0001 15.8335Z" fill="black"/>
<path fill-rule="evenodd" clip-rule="evenodd" d="M15.2441 6.91058C15.5695 6.58514 16.0972 6.58514 16.4226 6.91058L18.9226 9.41058C19.248 9.73602 19.248 10.2637 18.9226 10.5891L16.4226 13.0891C16.0972 13.4145 15.5695 13.4145 15.2441 13.0891C14.9186 12.7637 14.9186 12.236 15.2441 11.9106L17.1548 9.99984L15.2441 8.08909C14.9186 7.76366 14.9186 7.23602 15.2441 6.91058Z" fill="black"/>
<path fill-rule="evenodd" clip-rule="evenodd" d="M4.75584 6.91058C5.08128 7.23602 5.08128 7.76366 4.75584 8.08909L2.8451 9.99984L4.75584 11.9106C5.08128 12.236 5.08128 12.7637 4.75584 13.0891C4.4304 13.4145 3.90277 13.4145 3.57733 13.0891L1.07733 10.5891C0.751893 10.2637 0.751893 9.73602 1.07733 9.41058L3.57733 6.91058C3.90277 6.58514 4.4304 6.58514 4.75584 6.91058Z" fill="black"/>
</g>
<defs>
<clipPath id="clip0_2001_10989">
<rect width="20" height="20" fill="white"/>
</clipPath>
</defs>
</svg>
