<svg width="20" height="20" viewBox="0 0 20 20" fill="none" xmlns="http://www.w3.org/2000/svg">
<path fill-rule="evenodd" clip-rule="evenodd" d="M4.99992 4.16667V7.5H9.99992V4.16667H4.99992ZM3.33325 4.16667C3.33325 3.24619 4.07944 2.5 4.99992 2.5H9.99992C10.9204 2.5 11.6666 3.24619 11.6666 4.16667V7.5C11.6666 8.42047 10.9204 9.16667 9.99992 9.16667H4.99992C4.07944 9.16667 3.33325 8.42047 3.33325 7.5V4.16667Z" fill="black"/>
<path fill-rule="evenodd" clip-rule="evenodd" d="M9.99992 12.5002V15.8335H14.9999V12.5002H9.99992ZM8.33325 12.5002C8.33325 11.5797 9.07944 10.8335 9.99992 10.8335H14.9999C15.9204 10.8335 16.6666 11.5797 16.6666 12.5002V15.8335C16.6666 16.754 15.9204 17.5002 14.9999 17.5002H9.99992C9.07944 17.5002 8.33325 16.754 8.33325 15.8335V12.5002Z" fill="black"/>
</svg>
