<svg width="20" height="20" viewBox="0 0 20 20" fill="none" xmlns="http://www.w3.org/2000/svg">
<path fill-rule="evenodd" clip-rule="evenodd" d="M8.33325 8.33317C8.33325 7.4127 9.07944 6.6665 9.99992 6.6665C10.9204 6.6665 11.6666 7.4127 11.6666 8.33317C11.6666 9.25364 10.9204 9.99984 9.99992 9.99984C9.07944 9.99984 8.33325 9.25364 8.33325 8.33317Z" fill="black"/>
<path fill-rule="evenodd" clip-rule="evenodd" d="M9.53767 2.63996C9.81759 2.45335 10.1823 2.45335 10.4622 2.63996L15.2522 5.83333H18.3333C18.7935 5.83333 19.1666 6.20643 19.1666 6.66667V16.6667C19.1666 17.3297 18.9032 17.9656 18.4344 18.4344C17.9655 18.9033 17.3296 19.1667 16.6666 19.1667H3.33325C2.67021 19.1667 2.03433 18.9033 1.56549 18.4344C1.09664 17.9656 0.833252 17.3297 0.833252 16.6667V6.66667C0.833252 6.20643 1.20635 5.83333 1.66659 5.83333H4.74761L9.53767 2.63996ZM9.99992 4.33488L5.46217 7.36004C5.32528 7.4513 5.16444 7.5 4.99992 7.5H2.49992V16.6667C2.49992 16.8877 2.58772 17.0996 2.744 17.2559C2.90028 17.4122 3.11224 17.5 3.33325 17.5H16.6666C16.8876 17.5 17.0996 17.4122 17.2558 17.2559C17.4121 17.0996 17.4999 16.8877 17.4999 16.6667V7.5H14.9999C14.8354 7.5 14.6746 7.4513 14.5377 7.36004L9.99992 4.33488Z" fill="black"/>
<path fill-rule="evenodd" clip-rule="evenodd" d="M5.00008 13.3335C5.46032 13.3335 5.83341 13.7066 5.83341 14.1668V14.1752C5.83341 14.6354 5.46032 15.0085 5.00008 15.0085C4.53984 15.0085 4.16675 14.6354 4.16675 14.1752V14.1668C4.16675 13.7066 4.53984 13.3335 5.00008 13.3335Z" fill="black"/>
<path fill-rule="evenodd" clip-rule="evenodd" d="M5.00008 10C5.46032 10 5.83341 10.3731 5.83341 10.8333V10.8417C5.83341 11.3019 5.46032 11.675 5.00008 11.675C4.53984 11.675 4.16675 11.3019 4.16675 10.8417V10.8333C4.16675 10.3731 4.53984 10 5.00008 10Z" fill="black"/>
<path fill-rule="evenodd" clip-rule="evenodd" d="M15.0001 13.3335C15.4603 13.3335 15.8334 13.7066 15.8334 14.1668V14.1752C15.8334 14.6354 15.4603 15.0085 15.0001 15.0085C14.5398 15.0085 14.1667 14.6354 14.1667 14.1752V14.1668C14.1667 13.7066 14.5398 13.3335 15.0001 13.3335Z" fill="black"/>
<path fill-rule="evenodd" clip-rule="evenodd" d="M15.0001 10C15.4603 10 15.8334 10.3731 15.8334 10.8333V10.8417C15.8334 11.3019 15.4603 11.675 15.0001 11.675C14.5398 11.675 14.1667 11.3019 14.1667 10.8417V10.8333C14.1667 10.3731 14.5398 10 15.0001 10Z" fill="black"/>
<path fill-rule="evenodd" clip-rule="evenodd" d="M8.23223 12.3987C8.70107 11.9299 9.33696 11.6665 10 11.6665C10.663 11.6665 11.2989 11.9299 11.7678 12.3987C12.2366 12.8676 12.5 13.5035 12.5 14.1665V18.3332C12.5 18.7934 12.1269 19.1665 11.6667 19.1665C11.2064 19.1665 10.8333 18.7934 10.8333 18.3332V14.1665C10.8333 13.9455 10.7455 13.7335 10.5893 13.5772C10.433 13.421 10.221 13.3332 10 13.3332C9.77899 13.3332 9.56703 13.421 9.41074 13.5772C9.25446 13.7335 9.16667 13.9455 9.16667 14.1665V18.3332C9.16667 18.7934 8.79357 19.1665 8.33333 19.1665C7.8731 19.1665 7.5 18.7934 7.5 18.3332V14.1665C7.5 13.5035 7.76339 12.8676 8.23223 12.3987Z" fill="black"/>
</svg>
