<svg width="20" height="20" viewBox="0 0 20 20" fill="none" xmlns="http://www.w3.org/2000/svg">
<path fill-rule="evenodd" clip-rule="evenodd" d="M5.83325 6.66667C4.9492 6.66667 4.10135 7.01786 3.47623 7.64298C2.85111 8.2681 2.49992 9.11595 2.49992 10C2.49992 10.8841 2.85111 11.7319 3.47623 12.357C4.10135 12.9821 4.9492 13.3333 5.83325 13.3333H7.49992C7.96016 13.3333 8.33325 13.7064 8.33325 14.1667C8.33325 14.6269 7.96016 15 7.49992 15H5.83325C4.50717 15 3.2354 14.4732 2.29772 13.5355C1.36004 12.5979 0.833252 11.3261 0.833252 10C0.833252 8.67392 1.36004 7.40215 2.29772 6.46447C3.2354 5.52678 4.50717 5 5.83325 5H7.49992C7.96016 5 8.33325 5.3731 8.33325 5.83333C8.33325 6.29357 7.96016 6.66667 7.49992 6.66667H5.83325ZM11.6666 5.83333C11.6666 5.3731 12.0397 5 12.4999 5H14.1666C15.4927 5 16.7644 5.52678 17.7021 6.46447C18.6398 7.40215 19.1666 8.67392 19.1666 10C19.1666 11.3261 18.6398 12.5979 17.7021 13.5355C16.7644 14.4732 15.4927 15 14.1666 15H12.4999C12.0397 15 11.6666 14.6269 11.6666 14.1667C11.6666 13.7064 12.0397 13.3333 12.4999 13.3333H14.1666C15.0506 13.3333 15.8985 12.9821 16.5236 12.357C17.1487 11.7319 17.4999 10.8841 17.4999 10C17.4999 9.11595 17.1487 8.2681 16.5236 7.64298C15.8985 7.01786 15.0506 6.66667 14.1666 6.66667H12.4999C12.0397 6.66667 11.6666 6.29357 11.6666 5.83333Z" fill="black"/>
</svg>
