<svg width="20" height="20" viewBox="0 0 20 20" fill="none" xmlns="http://www.w3.org/2000/svg">
<g clip-path="url(#clip0_2001_11020)">
<path fill-rule="evenodd" clip-rule="evenodd" d="M10.6464 2.29198C11.5793 1.39235 12.8248 0.889648 14.1208 0.889648C15.4167 0.889648 16.6622 1.39235 17.5951 2.29198L17.5962 2.29312C18.5486 3.21517 19.0961 4.47745 19.1186 5.80283C19.1402 7.07203 18.6785 8.29975 17.831 9.23917C17.7995 9.28737 17.7627 9.33277 17.7208 9.37446L16.2875 10.7995C15.9611 11.124 15.4334 11.1224 15.1089 10.796C14.7845 10.4696 14.786 9.94201 15.1124 9.61752L16.4383 8.29929C16.4619 8.26623 16.4882 8.23463 16.5169 8.2048C17.1308 7.5687 17.4672 6.71499 17.4522 5.83111C17.4372 4.9475 17.0723 4.10593 16.4375 3.49108C15.8153 2.8914 14.9849 2.55632 14.1208 2.55632C13.2583 2.55632 12.4294 2.89007 11.8077 3.48752L10.3791 4.9078C10.0527 5.23228 9.5251 5.23074 9.20061 4.90436C8.87613 4.57798 8.87767 4.05034 9.20405 3.72585L10.6374 2.30085C10.6404 2.29787 10.6434 2.29491 10.6464 2.29198Z" fill="black"/>
<path fill-rule="evenodd" clip-rule="evenodd" d="M4.89762 9.20257C5.22306 9.52801 5.22306 10.0556 4.89762 10.3811L3.47815 11.8006C2.86735 12.4361 2.5328 13.2877 2.54776 14.1692C2.56276 15.0528 2.92771 15.8944 3.5625 16.5093C4.18465 17.1089 5.01508 17.444 5.8792 17.444C6.74124 17.444 7.56976 17.1105 8.19142 16.5136L9.61077 15.0942C9.93621 14.7688 10.4638 14.7688 10.7893 15.0942C11.1147 15.4197 11.1147 15.9473 10.7893 16.2728L9.36429 17.6978C9.36072 17.7013 9.35713 17.7048 9.3535 17.7083C8.42064 18.608 7.17518 19.1107 5.8792 19.1107C4.58321 19.1107 3.33776 18.608 2.40489 17.7083L2.40371 17.7072C1.45136 16.7852 0.903833 15.5229 0.881337 14.1975C0.858841 12.8721 1.36322 11.592 2.28373 10.6381C2.28716 10.6346 2.29062 10.6311 2.29411 10.6276L3.71911 9.20257C4.04454 8.87714 4.57218 8.87714 4.89762 9.20257Z" fill="black"/>
<path fill-rule="evenodd" clip-rule="evenodd" d="M6.66659 0.833496C7.12682 0.833496 7.49992 1.20659 7.49992 1.66683V4.16683C7.49992 4.62707 7.12682 5.00016 6.66659 5.00016C6.20635 5.00016 5.83325 4.62707 5.83325 4.16683V1.66683C5.83325 1.20659 6.20635 0.833496 6.66659 0.833496Z" fill="black"/>
<path fill-rule="evenodd" clip-rule="evenodd" d="M0.833252 6.66683C0.833252 6.20659 1.20635 5.8335 1.66659 5.8335H4.16658C4.62682 5.8335 4.99992 6.20659 4.99992 6.66683C4.99992 7.12707 4.62682 7.50016 4.16658 7.50016H1.66659C1.20635 7.50016 0.833252 7.12707 0.833252 6.66683Z" fill="black"/>
<path fill-rule="evenodd" clip-rule="evenodd" d="M13.3333 15C13.7936 15 14.1667 15.3731 14.1667 15.8333V18.3333C14.1667 18.7936 13.7936 19.1667 13.3333 19.1667C12.8731 19.1667 12.5 18.7936 12.5 18.3333V15.8333C12.5 15.3731 12.8731 15 13.3333 15Z" fill="black"/>
<path fill-rule="evenodd" clip-rule="evenodd" d="M15 13.3333C15 12.8731 15.3731 12.5 15.8333 12.5H18.3333C18.7936 12.5 19.1667 12.8731 19.1667 13.3333C19.1667 13.7936 18.7936 14.1667 18.3333 14.1667H15.8333C15.3731 14.1667 15 13.7936 15 13.3333Z" fill="black"/>
</g>
<defs>
<clipPath id="clip0_2001_11020">
<rect width="20" height="20" fill="white"/>
</clipPath>
</defs>
</svg>
