<svg width="20" height="20" viewBox="0 0 20 20" fill="none" xmlns="http://www.w3.org/2000/svg">
<g clip-path="url(#clip0_2001_11027)">
<path fill-rule="evenodd" clip-rule="evenodd" d="M18.9226 1.07757C19.248 1.40301 19.248 1.93065 18.9226 2.25609L16.4226 4.75608C16.0972 5.08152 15.5695 5.08152 15.2441 4.75608C14.9186 4.43065 14.9186 3.90301 15.2441 3.57757L17.7441 1.07757C18.0695 0.752137 18.5972 0.752137 18.9226 1.07757Z" fill="black"/>
<path fill-rule="evenodd" clip-rule="evenodd" d="M4.75584 15.2441C5.08128 15.5695 5.08128 16.0972 4.75584 16.4226L2.25584 18.9226C1.9304 19.248 1.40277 19.248 1.07733 18.9226C0.751893 18.5972 0.751893 18.0695 1.07733 17.7441L3.57733 15.2441C3.90277 14.9186 4.4304 14.9186 4.75584 15.2441Z" fill="black"/>
<path fill-rule="evenodd" clip-rule="evenodd" d="M5.00011 9.1665C5.22112 9.1665 5.43308 9.2543 5.58936 9.41058L10.5894 14.4106C10.7456 14.5669 10.8334 14.7788 10.8334 14.9998C10.8334 15.2209 10.7456 15.4328 10.5894 15.5891L8.67372 17.5047C8.67351 17.5049 8.67329 17.5052 8.67308 17.5054C8.40998 17.7692 8.09743 17.9786 7.75332 18.1215C7.40892 18.2645 7.03968 18.3381 6.66678 18.3381C6.29387 18.3381 5.92463 18.2645 5.58023 18.1215C5.23616 17.9786 4.92364 17.7693 4.66057 17.5055C4.66032 17.5052 4.66008 17.505 4.65983 17.5047L2.49521 15.3401C2.49507 15.34 2.49493 15.3398 2.49479 15.3397C2.23085 15.0766 2.02141 14.7639 1.87848 14.4197C1.73548 14.0753 1.66187 13.7061 1.66187 13.3332C1.66187 12.9603 1.73548 12.591 1.87848 12.2466C2.02138 11.9025 2.23076 11.5899 2.49463 11.3268C2.49483 11.3266 2.49502 11.3264 2.49521 11.3262L4.41085 9.41058C4.56713 9.2543 4.7791 9.1665 5.00011 9.1665ZM5.00011 11.1783L3.67167 12.5068C3.56291 12.6152 3.47661 12.744 3.41773 12.8858C3.35884 13.0276 3.32853 13.1796 3.32853 13.3332C3.32853 13.4867 3.35884 13.6388 3.41773 13.7806C3.47661 13.9224 3.56291 14.0512 3.67167 14.1596L5.84039 16.3283C5.94878 16.437 6.07757 16.5233 6.21938 16.5822C6.36119 16.6411 6.51323 16.6714 6.66678 16.6714C6.82033 16.6714 6.97237 16.6411 7.11418 16.5822C7.25599 16.5233 7.38478 16.437 7.49317 16.3283L8.8216 14.9998L5.00011 11.1783Z" fill="black"/>
<path fill-rule="evenodd" clip-rule="evenodd" d="M8.92267 8.57757C9.24811 8.90301 9.24811 9.43065 8.92267 9.75609L6.83934 11.8394C6.5139 12.1649 5.98626 12.1649 5.66083 11.8394C5.33539 11.514 5.33539 10.9863 5.66083 10.6609L7.74416 8.57757C8.0696 8.25214 8.59723 8.25214 8.92267 8.57757Z" fill="black"/>
<path fill-rule="evenodd" clip-rule="evenodd" d="M11.4227 11.0776C11.7481 11.403 11.7481 11.9306 11.4227 12.2561L9.33934 14.3394C9.0139 14.6649 8.48626 14.6649 8.16083 14.3394C7.83539 14.014 7.83539 13.4863 8.16083 13.1609L10.2442 11.0776C10.5696 10.7521 11.0972 10.7521 11.4227 11.0776Z" fill="black"/>
<path fill-rule="evenodd" clip-rule="evenodd" d="M12.2469 1.87824C12.5913 1.73523 12.9605 1.66162 13.3334 1.66162C13.7063 1.66162 14.0756 1.73523 14.42 1.87824C14.7642 2.02117 15.0768 2.2306 15.3399 2.49455C15.3401 2.49469 15.3402 2.49483 15.3404 2.49497L17.505 4.65959C17.5052 4.65983 17.5055 4.66008 17.5057 4.66032C17.7695 4.9234 17.9788 5.23591 18.1217 5.57999C18.2647 5.92439 18.3383 6.29363 18.3383 6.66653C18.3383 7.03944 18.2647 7.40868 18.1217 7.75307C17.9788 8.09719 17.7695 8.40974 17.5056 8.67283C17.5054 8.67305 17.5052 8.67326 17.505 8.67348L15.5893 10.5891C15.4331 10.7454 15.2211 10.8332 15.0001 10.8332C14.7791 10.8332 14.5671 10.7454 14.4108 10.5891L9.41083 5.58912C9.25455 5.43284 9.16675 5.22088 9.16675 4.99986C9.16675 4.77885 9.25455 4.56689 9.41083 4.41061L11.3265 2.49497C11.3267 2.49477 11.3269 2.49458 11.327 2.49439C11.5902 2.23052 11.9027 2.02114 12.2469 1.87824ZM13.3334 3.32829C13.1799 3.32829 13.0278 3.3586 12.886 3.41748C12.7442 3.47637 12.6154 3.56267 12.507 3.67143L11.1786 4.99987L15.0001 8.82135L16.3285 7.49292C16.4373 7.38453 16.5236 7.25574 16.5825 7.11393C16.6413 6.97212 16.6717 6.82008 16.6717 6.66653C16.6717 6.51298 16.6413 6.36094 16.5825 6.21913C16.5236 6.07732 16.4373 5.94853 16.3285 5.84014L14.1598 3.67143C14.0514 3.56267 13.9226 3.47637 13.7808 3.41748C13.639 3.3586 13.487 3.32829 13.3334 3.32829Z" fill="black"/>
</g>
<defs>
<clipPath id="clip0_2001_11027">
<rect width="20" height="20" fill="white"/>
</clipPath>
</defs>
</svg>
