<svg width="20" height="20" viewBox="0 0 20 20" fill="none" xmlns="http://www.w3.org/2000/svg">
<path fill-rule="evenodd" clip-rule="evenodd" d="M2.50008 11.6665C2.96032 11.6665 3.33341 12.0396 3.33341 12.4998V15.8332C3.33341 16.0542 3.42121 16.2661 3.57749 16.4224C3.73377 16.5787 3.94573 16.6665 4.16675 16.6665H15.8334C16.0544 16.6665 16.2664 16.5787 16.4227 16.4224C16.5789 16.2661 16.6667 16.0542 16.6667 15.8332V12.4998C16.6667 12.0396 17.0398 11.6665 17.5001 11.6665C17.9603 11.6665 18.3334 12.0396 18.3334 12.4998V15.8332C18.3334 16.4962 18.07 17.1321 17.6012 17.6009C17.1323 18.0698 16.4965 18.3332 15.8334 18.3332H4.16675C3.50371 18.3332 2.86782 18.0698 2.39898 17.6009C1.93014 17.1321 1.66675 16.4962 1.66675 15.8332V12.4998C1.66675 12.0396 2.03984 11.6665 2.50008 11.6665Z" fill="black"/>
<path fill-rule="evenodd" clip-rule="evenodd" d="M9.41074 1.91058C9.73618 1.58514 10.2638 1.58514 10.5893 1.91058L14.7559 6.07725C15.0814 6.40269 15.0814 6.93032 14.7559 7.25576C14.4305 7.5812 13.9028 7.5812 13.5774 7.25576L10 3.67835L6.42259 7.25576C6.09715 7.5812 5.56951 7.5812 5.24408 7.25576C4.91864 6.93032 4.91864 6.40269 5.24408 6.07725L9.41074 1.91058Z" fill="black"/>
<path fill-rule="evenodd" clip-rule="evenodd" d="M10.0001 1.6665C10.4603 1.6665 10.8334 2.0396 10.8334 2.49984V12.4998C10.8334 12.9601 10.4603 13.3332 10.0001 13.3332C9.53984 13.3332 9.16675 12.9601 9.16675 12.4998V2.49984C9.16675 2.0396 9.53984 1.6665 10.0001 1.6665Z" fill="black"/>
</svg>
