<svg width="20" height="20" viewBox="0 0 20 20" fill="none" xmlns="http://www.w3.org/2000/svg">
<path fill-rule="evenodd" clip-rule="evenodd" d="M6.66675 5.83317C6.66675 4.9127 7.41294 4.1665 8.33341 4.1665C9.25389 4.1665 10.0001 4.9127 10.0001 5.83317C10.0001 6.75364 9.25389 7.49984 8.33341 7.49984C7.41294 7.49984 6.66675 6.75364 6.66675 5.83317Z" fill="black"/>
<path fill-rule="evenodd" clip-rule="evenodd" d="M1.66675 16.6667C1.66675 15.7462 2.41294 15 3.33341 15C4.25389 15 5.00008 15.7462 5.00008 16.6667C5.00008 17.5871 4.25389 18.3333 3.33341 18.3333C2.41294 18.3333 1.66675 17.5871 1.66675 16.6667Z" fill="black"/>
<path fill-rule="evenodd" clip-rule="evenodd" d="M16.4225 3.57757C16.7479 3.90301 16.7479 4.43065 16.4225 4.75609L4.50584 16.6728C4.1804 16.9982 3.65277 16.9982 3.32733 16.6728C3.00189 16.3473 3.00189 15.8197 3.32733 15.4942L15.244 3.57757C15.5694 3.25214 16.0971 3.25214 16.4225 3.57757Z" fill="black"/>
<path fill-rule="evenodd" clip-rule="evenodd" d="M18.0894 1.9106C18.3125 2.1338 18.3905 2.46394 18.2907 2.76338L17.4573 5.26338C17.366 5.53738 17.1393 5.74454 16.8582 5.8109C16.5771 5.87726 16.2817 5.79334 16.0775 5.58912L14.4108 3.92245C14.2066 3.71823 14.1227 3.42282 14.1891 3.14173C14.2554 2.86064 14.4626 2.63396 14.7366 2.54262L17.2366 1.70929C17.536 1.60948 17.8662 1.68741 18.0894 1.9106Z" fill="black"/>
<path fill-rule="evenodd" clip-rule="evenodd" d="M8.30173 5.80687C8.62943 6.13002 8.63312 6.65764 8.30997 6.98535L5.14287 10.1971L6.60701 13.8574C6.77793 14.2847 6.57009 14.7697 6.14277 14.9406C5.71545 15.1116 5.23047 14.9037 5.05954 14.4764L3.39288 10.3097C3.26986 10.0022 3.34067 9.65096 3.57325 9.41511L7.12325 5.81511C7.4464 5.4874 7.97402 5.48371 8.30173 5.80687Z" fill="black"/>
<path fill-rule="evenodd" clip-rule="evenodd" d="M16.0059 9.82757C16.3313 10.153 16.3313 10.6806 16.0059 11.0061L13.0892 13.9228C12.8535 14.1585 12.5 14.231 12.1905 14.1072L8.02382 12.4406C7.5965 12.2696 7.38865 11.7847 7.55958 11.3573C7.73051 10.93 8.21548 10.7222 8.6428 10.8931L12.2993 12.3557L14.8274 9.82757C15.1528 9.50214 15.6805 9.50214 16.0059 9.82757Z" fill="black"/>
<path fill-rule="evenodd" clip-rule="evenodd" d="M15.2442 8.57757C15.5696 8.25214 16.0972 8.25214 16.4227 8.57757L17.256 9.41091C17.5814 9.73634 17.5814 10.264 17.256 10.5894L16.4227 11.4228C16.0972 11.7482 15.5696 11.7482 15.2442 11.4228L14.4108 10.5894C14.0854 10.264 14.0854 9.73634 14.4108 9.41091L15.2442 8.57757Z" fill="black"/>
</svg>
