<svg width="20" height="20" viewBox="0 0 20 20" fill="none" xmlns="http://www.w3.org/2000/svg">
<path fill-rule="evenodd" clip-rule="evenodd" d="M3.02995 12.1967C4.43647 10.7902 6.34413 10 8.33325 10C10.3224 10 12.23 10.7902 13.6366 12.1967C15.0431 13.6032 15.8333 15.5109 15.8333 17.5C15.8333 17.9602 15.4602 18.3333 14.9999 18.3333C14.5397 18.3333 14.1666 17.9602 14.1666 17.5C14.1666 15.9529 13.552 14.4692 12.458 13.3752C11.3641 12.2812 9.88035 11.6667 8.33325 11.6667C6.78616 11.6667 5.30242 12.2812 4.20846 13.3752C3.1145 14.4692 2.49992 15.9529 2.49992 17.5C2.49992 17.9602 2.12682 18.3333 1.66659 18.3333C1.20635 18.3333 0.833252 17.9602 0.833252 17.5C0.833252 15.5109 1.62343 13.6032 3.02995 12.1967Z" fill="black"/>
<path fill-rule="evenodd" clip-rule="evenodd" d="M8.33325 3.33317C6.4923 3.33317 4.99992 4.82555 4.99992 6.6665C4.99992 8.50745 6.4923 9.99984 8.33325 9.99984C10.1742 9.99984 11.6666 8.50745 11.6666 6.6665C11.6666 4.82555 10.1742 3.33317 8.33325 3.33317ZM3.33325 6.6665C3.33325 3.90508 5.57183 1.6665 8.33325 1.6665C11.0947 1.6665 13.3333 3.90508 13.3333 6.6665C13.3333 9.42793 11.0947 11.6665 8.33325 11.6665C5.57183 11.6665 3.33325 9.42793 3.33325 6.6665Z" fill="black"/>
<path fill-rule="evenodd" clip-rule="evenodd" d="M13.9082 2.65836C14.143 2.26251 14.6542 2.13193 15.0501 2.36672C15.757 2.78598 16.3496 3.37303 16.7756 4.07592C17.2015 4.7788 17.4476 5.57585 17.4921 6.39652C17.5366 7.21718 17.3781 8.03617 17.0306 8.78098C16.8275 9.21654 16.5633 9.61889 16.2475 9.97655C17.8071 11.4958 19.1666 13.9821 19.1666 16.6668C19.1666 17.127 18.7935 17.5001 18.3333 17.5001C17.8731 17.5001 17.5 17.127 17.5 16.6668C17.5 14.1578 15.9883 11.7831 14.5 10.6668C14.2901 10.5094 14.1667 10.2625 14.1666 10.0002C14.1666 9.73792 14.2901 9.49094 14.4999 9.33355C14.9381 9.00472 15.2886 8.57294 15.5202 8.07639C15.7519 7.57985 15.8575 7.03386 15.8279 6.48674C15.7982 5.93963 15.6341 5.40827 15.3502 4.93968C15.0662 4.47109 14.6711 4.07972 14.1999 3.80021C13.804 3.56543 13.6734 3.0542 13.9082 2.65836Z" fill="black"/>
</svg>
