<svg width="20" height="20" viewBox="0 0 20 20" fill="none" xmlns="http://www.w3.org/2000/svg">
<path fill-rule="evenodd" clip-rule="evenodd" d="M2.05364 12.8869C2.83504 12.1055 3.89485 11.6665 4.99992 11.6665H9.99992C11.105 11.6665 12.1648 12.1055 12.9462 12.8869C13.7276 13.6683 14.1666 14.7281 14.1666 15.8332V17.4998C14.1666 17.9601 13.7935 18.3332 13.3333 18.3332C12.873 18.3332 12.4999 17.9601 12.4999 17.4998V15.8332C12.4999 15.1701 12.2365 14.5342 11.7677 14.0654C11.2988 13.5966 10.663 13.3332 9.99992 13.3332H4.99992C4.33688 13.3332 3.70099 13.5966 3.23215 14.0654C2.76331 14.5342 2.49992 15.1701 2.49992 15.8332V17.4998C2.49992 17.9601 2.12682 18.3332 1.66659 18.3332C1.20635 18.3332 0.833252 17.9601 0.833252 17.4998V15.8332C0.833252 14.7281 1.27224 13.6683 2.05364 12.8869Z" fill="black"/>
<path fill-rule="evenodd" clip-rule="evenodd" d="M7.49992 3.33317C6.11921 3.33317 4.99992 4.45246 4.99992 5.83317C4.99992 7.21388 6.11921 8.33317 7.49992 8.33317C8.88063 8.33317 9.99992 7.21388 9.99992 5.83317C9.99992 4.45246 8.88063 3.33317 7.49992 3.33317ZM3.33325 5.83317C3.33325 3.53198 5.19873 1.6665 7.49992 1.6665C9.80111 1.6665 11.6666 3.53198 11.6666 5.83317C11.6666 8.13436 9.80111 9.99984 7.49992 9.99984C5.19873 9.99984 3.33325 8.13436 3.33325 5.83317Z" fill="black"/>
<path fill-rule="evenodd" clip-rule="evenodd" d="M15.8333 5.8335C16.2936 5.8335 16.6667 6.20659 16.6667 6.66683V11.6668C16.6667 12.1271 16.2936 12.5002 15.8333 12.5002C15.3731 12.5002 15 12.1271 15 11.6668V6.66683C15 6.20659 15.3731 5.8335 15.8333 5.8335Z" fill="black"/>
<path fill-rule="evenodd" clip-rule="evenodd" d="M12.5 9.16683C12.5 8.70659 12.8731 8.3335 13.3333 8.3335H18.3333C18.7936 8.3335 19.1667 8.70659 19.1667 9.16683C19.1667 9.62707 18.7936 10.0002 18.3333 10.0002H13.3333C12.8731 10.0002 12.5 9.62707 12.5 9.16683Z" fill="black"/>
</svg>
