<svg width="20" height="20" viewBox="0 0 20 20" fill="none" xmlns="http://www.w3.org/2000/svg">
<path fill-rule="evenodd" clip-rule="evenodd" d="M15.0001 10.8332C14.0796 10.8332 13.3334 11.5794 13.3334 12.4998C13.3334 13.4203 14.0796 14.1665 15.0001 14.1665C15.9206 14.1665 16.6667 13.4203 16.6667 12.4998C16.6667 11.5794 15.9206 10.8332 15.0001 10.8332ZM11.6667 12.4998C11.6667 10.6589 13.1591 9.1665 15.0001 9.1665C16.841 9.1665 18.3334 10.6589 18.3334 12.4998C18.3334 14.3408 16.841 15.8332 15.0001 15.8332C13.1591 15.8332 11.6667 14.3408 11.6667 12.4998Z" fill="black"/>
<path fill-rule="evenodd" clip-rule="evenodd" d="M7.49992 3.33317C6.11921 3.33317 4.99992 4.45246 4.99992 5.83317C4.99992 7.21388 6.11921 8.33317 7.49992 8.33317C8.88063 8.33317 9.99992 7.21388 9.99992 5.83317C9.99992 4.45246 8.88063 3.33317 7.49992 3.33317ZM3.33325 5.83317C3.33325 3.53198 5.19873 1.6665 7.49992 1.6665C9.80111 1.6665 11.6666 3.53198 11.6666 5.83317C11.6666 8.13436 9.80111 9.99984 7.49992 9.99984C5.19873 9.99984 3.33325 8.13436 3.33325 5.83317Z" fill="black"/>
<path fill-rule="evenodd" clip-rule="evenodd" d="M2.05364 12.8869C2.83504 12.1055 3.89485 11.6665 4.99992 11.6665H8.33325C8.79349 11.6665 9.16658 12.0396 9.16658 12.4998C9.16658 12.9601 8.79349 13.3332 8.33325 13.3332H4.99992C4.33688 13.3332 3.70099 13.5966 3.23215 14.0654C2.76331 14.5342 2.49992 15.1701 2.49992 15.8332V17.4998C2.49992 17.9601 2.12682 18.3332 1.66659 18.3332C1.20635 18.3332 0.833252 17.9601 0.833252 17.4998V15.8332C0.833252 14.7281 1.27224 13.6683 2.05364 12.8869Z" fill="black"/>
<path fill-rule="evenodd" clip-rule="evenodd" d="M16.5427 13.153C16.6883 12.7164 17.1602 12.4805 17.5968 12.626L18.3468 12.876C18.7835 13.0215 19.0194 13.4935 18.8739 13.9301C18.7283 14.3667 18.2564 14.6027 17.8198 14.4571L17.0698 14.2071C16.6332 14.0616 16.3972 13.5897 16.5427 13.153Z" fill="black"/>
<path fill-rule="evenodd" clip-rule="evenodd" d="M11.126 11.07C11.2715 10.6334 11.7435 10.3975 12.1801 10.543L12.9301 10.793C13.3667 10.9385 13.6027 11.4105 13.4571 11.8471C13.3116 12.2837 12.8397 12.5197 12.403 12.3741L11.653 12.1241C11.2164 11.9786 10.9805 11.5067 11.126 11.07Z" fill="black"/>
<path fill-rule="evenodd" clip-rule="evenodd" d="M14.3468 14.043C14.7835 14.1885 15.0194 14.6605 14.8739 15.0971L14.6239 15.8471C14.4783 16.2837 14.0064 16.5197 13.5698 16.3741C13.1332 16.2286 12.8972 15.7567 13.0427 15.32L13.2927 14.57C13.4383 14.1334 13.9102 13.8975 14.3468 14.043Z" fill="black"/>
<path fill-rule="evenodd" clip-rule="evenodd" d="M16.4301 8.626C16.8667 8.77154 17.1027 9.24347 16.9571 9.68009L16.7071 10.4301C16.5616 10.8667 16.0897 11.1027 15.653 10.9571C15.2164 10.8116 14.9805 10.3397 15.126 9.90304L15.376 9.15304C15.5215 8.71643 15.9935 8.48046 16.4301 8.626Z" fill="black"/>
<path fill-rule="evenodd" clip-rule="evenodd" d="M15.6906 13.9763C16.1179 13.8054 16.6029 14.0132 16.7738 14.4406L17.1071 15.2739C17.2781 15.7012 17.0702 16.1862 16.6429 16.3571C16.2156 16.5281 15.7306 16.3202 15.5597 15.8929L15.2263 15.0596C15.0554 14.6322 15.2632 14.1473 15.6906 13.9763Z" fill="black"/>
<path fill-rule="evenodd" clip-rule="evenodd" d="M13.3571 8.64283C13.7844 8.4719 14.2694 8.67975 14.4403 9.10707L14.7736 9.9404C14.9446 10.3677 14.7367 10.8527 14.3094 11.0236C13.8821 11.1946 13.3971 10.9867 13.2262 10.5594L12.8928 9.72605C12.7219 9.29874 12.9298 8.81376 13.3571 8.64283Z" fill="black"/>
<path fill-rule="evenodd" clip-rule="evenodd" d="M13.5236 13.1906C13.6946 13.6179 13.4867 14.1029 13.0594 14.2738L12.2261 14.6071C11.7987 14.7781 11.3138 14.5702 11.1428 14.1429C10.9719 13.7156 11.1798 13.2306 11.6071 13.0597L12.4404 12.7263C12.8677 12.5554 13.3527 12.7632 13.5236 13.1906Z" fill="black"/>
<path fill-rule="evenodd" clip-rule="evenodd" d="M18.8571 10.8571C19.0281 11.2844 18.8202 11.7694 18.3929 11.9403L17.5596 12.2736C17.1322 12.4446 16.6473 12.2367 16.4763 11.8094C16.3054 11.3821 16.5132 10.8971 16.9406 10.7262L17.7739 10.3928C18.2012 10.2219 18.6862 10.4298 18.8571 10.8571Z" fill="black"/>
</svg>
