<svg width="20" height="20" viewBox="0 0 20 20" fill="none" xmlns="http://www.w3.org/2000/svg">
<path fill-rule="evenodd" clip-rule="evenodd" d="M2.88714 12.8869C3.66854 12.1055 4.72835 11.6665 5.83342 11.6665H9.58342C10.0437 11.6665 10.4167 12.0396 10.4167 12.4998C10.4167 12.9601 10.0437 13.3332 9.58342 13.3332H5.83342C5.17037 13.3332 4.53449 13.5966 4.06565 14.0654C3.59681 14.5342 3.33341 15.1701 3.33341 15.8332V17.4998C3.33341 17.9601 2.96032 18.3332 2.50008 18.3332C2.03984 18.3332 1.66675 17.9601 1.66675 17.4998V15.8332C1.66675 14.7281 2.10573 13.6683 2.88714 12.8869Z" fill="black"/>
<path fill-rule="evenodd" clip-rule="evenodd" d="M14.7223 10.7625C15.2106 10.2743 15.8728 10 16.5632 10C17.2537 10 17.9159 10.2743 18.4042 10.7625C18.8924 11.2508 19.1667 11.913 19.1667 12.6035C19.1667 13.2939 18.8924 13.9561 18.4042 14.4444L15.0601 17.7851C15.0601 17.7851 15.0601 17.7851 15.06 17.7852C14.763 18.0823 14.3959 18.2998 13.9926 18.4176L13.9924 18.4176L11.6007 19.1151C11.6007 19.1151 11.6007 19.1151 11.6007 19.1151C11.3856 19.1779 11.1576 19.1816 10.9405 19.126C10.7234 19.0704 10.5253 18.9575 10.3668 18.799C10.2084 18.6406 10.0955 18.4424 10.0398 18.2254C9.98423 18.0083 9.98799 17.7803 10.0507 17.5651C10.0507 17.5651 10.0507 17.5651 10.0507 17.5651L10.7483 15.1732C10.866 14.77 11.0835 14.403 11.3805 14.106C11.3805 14.106 11.3806 14.1059 11.3806 14.1059C11.3807 14.1058 11.3808 14.1058 11.3808 14.1057L14.7223 10.7625ZM15.901 11.9409C15.901 11.9409 15.9009 11.9409 15.9009 11.9409C15.9009 11.941 15.9009 11.941 15.9008 11.941L12.559 15.2845C12.46 15.3835 12.3875 15.5058 12.3482 15.6401C12.3482 15.6401 12.3482 15.6402 12.3482 15.6402C12.3482 15.6403 12.3482 15.6403 12.3482 15.6404L11.8634 17.3024L13.5255 16.8177C13.5256 16.8177 13.5257 16.8176 13.5258 16.8176C13.6601 16.7783 13.7824 16.7059 13.8813 16.6069L17.2256 13.2659C17.2257 13.2659 17.2257 13.2658 17.2257 13.2658C17.4013 13.0902 17.5 12.8519 17.5 12.6035C17.5 12.355 17.4013 12.1167 17.2256 11.941C17.05 11.7654 16.8117 11.6667 16.5632 11.6667C16.3148 11.6667 16.0766 11.7653 15.901 11.9409ZM11.1344 17.515C11.1343 17.5151 11.1342 17.5151 11.1341 17.5151C11.1341 17.5151 11.1341 17.5151 11.1341 17.5151M11.1344 17.515L11.1341 17.5151L11.1344 17.515Z" fill="black"/>
<path fill-rule="evenodd" clip-rule="evenodd" d="M8.33341 3.33317C6.9527 3.33317 5.83341 4.45246 5.83341 5.83317C5.83341 7.21388 6.9527 8.33317 8.33341 8.33317C9.71413 8.33317 10.8334 7.21388 10.8334 5.83317C10.8334 4.45246 9.71413 3.33317 8.33341 3.33317ZM4.16675 5.83317C4.16675 3.53198 6.03223 1.6665 8.33341 1.6665C10.6346 1.6665 12.5001 3.53198 12.5001 5.83317C12.5001 8.13436 10.6346 9.99984 8.33341 9.99984C6.03223 9.99984 4.16675 8.13436 4.16675 5.83317Z" fill="black"/>
</svg>
