<svg width="20" height="20" viewBox="0 0 20 20" fill="none" xmlns="http://www.w3.org/2000/svg">
<path fill-rule="evenodd" clip-rule="evenodd" d="M9.20151 11.7312C8.09134 11.5641 6.95653 11.7209 5.93327 12.1828C4.91001 12.6447 4.04178 13.392 3.43277 14.3352C2.82377 15.2783 2.49986 16.3772 2.49992 17.4998C2.49994 17.9601 2.12687 18.3332 1.66663 18.3332C1.20639 18.3332 0.833277 17.9602 0.833252 17.4999C0.833173 16.0565 1.24963 14.6437 2.03264 13.4311C2.81565 12.2185 3.93195 11.2576 5.24756 10.6637C6.56318 10.0698 8.02222 9.86821 9.44959 10.0831C10.877 10.2979 12.212 10.9201 13.2945 11.8749C13.6397 12.1794 13.6727 12.706 13.3682 13.0511C13.0638 13.3963 12.5372 13.4293 12.192 13.1248C11.3501 12.3822 10.3117 11.8983 9.20151 11.7312Z" fill="black"/>
<path fill-rule="evenodd" clip-rule="evenodd" d="M8.33325 3.33317C6.4923 3.33317 4.99992 4.82555 4.99992 6.6665C4.99992 8.50745 6.4923 9.99984 8.33325 9.99984C10.1742 9.99984 11.6666 8.50745 11.6666 6.6665C11.6666 4.82555 10.1742 3.33317 8.33325 3.33317ZM3.33325 6.6665C3.33325 3.90508 5.57183 1.6665 8.33325 1.6665C11.0947 1.6665 13.3333 3.90508 13.3333 6.6665C13.3333 9.42793 11.0947 11.6665 8.33325 11.6665C5.57183 11.6665 3.33325 9.42793 3.33325 6.6665Z" fill="black"/>
<path fill-rule="evenodd" clip-rule="evenodd" d="M15.8333 12.5C16.2936 12.5 16.6667 12.8731 16.6667 13.3333V18.3333C16.6667 18.7936 16.2936 19.1667 15.8333 19.1667C15.3731 19.1667 15 18.7936 15 18.3333V13.3333C15 12.8731 15.3731 12.5 15.8333 12.5Z" fill="black"/>
<path fill-rule="evenodd" clip-rule="evenodd" d="M12.5 15.8333C12.5 15.3731 12.8731 15 13.3333 15H18.3333C18.7936 15 19.1667 15.3731 19.1667 15.8333C19.1667 16.2936 18.7936 16.6667 18.3333 16.6667H13.3333C12.8731 16.6667 12.5 16.2936 12.5 15.8333Z" fill="black"/>
</svg>
