<svg width="20" height="20" viewBox="0 0 20 20" fill="none" xmlns="http://www.w3.org/2000/svg">
<path fill-rule="evenodd" clip-rule="evenodd" d="M11.1573 12.3958C10.2692 11.9045 9.26832 11.6533 8.25347 11.6672C7.23862 11.6811 6.24495 11.9595 5.37064 12.475C4.49634 12.9905 3.77165 13.7251 3.26819 14.6064C2.76473 15.4877 2.49992 16.4851 2.49992 17.5C2.49992 17.9602 2.12682 18.3333 1.66659 18.3333C1.20635 18.3333 0.833252 17.9602 0.833252 17.5C0.83325 16.1951 1.17372 14.9127 1.82103 13.7797C2.46834 12.6466 3.40007 11.702 4.52418 11.0393C5.64829 10.3765 6.92587 10.0185 8.23068 10.0007C9.53549 9.98285 10.8224 10.3058 11.9642 10.9375C12.3669 11.1603 12.5127 11.6674 12.2899 12.0701C12.0671 12.4728 11.56 12.6187 11.1573 12.3958Z" fill="black"/>
<path fill-rule="evenodd" clip-rule="evenodd" d="M8.33325 3.33317C6.4923 3.33317 4.99992 4.82555 4.99992 6.6665C4.99992 8.50745 6.4923 9.99984 8.33325 9.99984C10.1742 9.99984 11.6666 8.50745 11.6666 6.6665C11.6666 4.82555 10.1742 3.33317 8.33325 3.33317ZM3.33325 6.6665C3.33325 3.90508 5.57183 1.6665 8.33325 1.6665C11.0947 1.6665 13.3333 3.90508 13.3333 6.6665C13.3333 9.42793 11.0947 11.6665 8.33325 11.6665C5.57183 11.6665 3.33325 9.42793 3.33325 6.6665Z" fill="black"/>
<path fill-rule="evenodd" clip-rule="evenodd" d="M13.5773 13.5776C13.9028 13.2521 14.4304 13.2521 14.7558 13.5776L18.9225 17.7442C19.2479 18.0697 19.2479 18.5973 18.9225 18.9228C18.5971 19.2482 18.0694 19.2482 17.744 18.9228L13.5773 14.7561C13.2519 14.4306 13.2519 13.903 13.5773 13.5776Z" fill="black"/>
<path fill-rule="evenodd" clip-rule="evenodd" d="M18.9225 13.5776C19.2479 13.903 19.2479 14.4306 18.9225 14.7561L14.7558 18.9228C14.4304 19.2482 13.9028 19.2482 13.5773 18.9228C13.2519 18.5973 13.2519 18.0697 13.5773 17.7442L17.744 13.5776C18.0694 13.2521 18.5971 13.2521 18.9225 13.5776Z" fill="black"/>
</svg>
