<svg width="20" height="20" viewBox="0 0 20 20" fill="none" xmlns="http://www.w3.org/2000/svg">
<path fill-rule="evenodd" clip-rule="evenodd" d="M8.33341 3.33317C6.9527 3.33317 5.83341 4.45246 5.83341 5.83317C5.83341 7.21388 6.9527 8.33317 8.33341 8.33317C9.71413 8.33317 10.8334 7.21388 10.8334 5.83317C10.8334 4.45246 9.71413 3.33317 8.33341 3.33317ZM4.16675 5.83317C4.16675 3.53198 6.03223 1.6665 8.33341 1.6665C10.6346 1.6665 12.5001 3.53198 12.5001 5.83317C12.5001 8.13436 10.6346 9.99984 8.33341 9.99984C6.03223 9.99984 4.16675 8.13436 4.16675 5.83317Z" fill="black"/>
<path fill-rule="evenodd" clip-rule="evenodd" d="M2.88714 12.8869C3.66854 12.1055 4.72835 11.6665 5.83342 11.6665H8.58342C9.04365 11.6665 9.41675 12.0396 9.41675 12.4998C9.41675 12.9601 9.04365 13.3332 8.58342 13.3332H5.83342C5.17037 13.3332 4.53449 13.5966 4.06565 14.0654C3.59681 14.5342 3.33341 15.1701 3.33341 15.8332V17.4998C3.33341 17.9601 2.96032 18.3332 2.50008 18.3332C2.03984 18.3332 1.66675 17.9601 1.66675 17.4998V15.8332C1.66675 14.7281 2.10573 13.6683 2.88714 12.8869Z" fill="black"/>
<path fill-rule="evenodd" clip-rule="evenodd" d="M14.1666 12.5002C13.2461 12.5002 12.4999 13.2464 12.4999 14.1668C12.4999 15.0873 13.2461 15.8335 14.1666 15.8335C15.0871 15.8335 15.8333 15.0873 15.8333 14.1668C15.8333 13.2464 15.0871 12.5002 14.1666 12.5002ZM10.8333 14.1668C10.8333 12.3259 12.3256 10.8335 14.1666 10.8335C16.0075 10.8335 17.4999 12.3259 17.4999 14.1668C17.4999 16.0078 16.0075 17.5002 14.1666 17.5002C12.3256 17.5002 10.8333 16.0078 10.8333 14.1668Z" fill="black"/>
<path fill-rule="evenodd" clip-rule="evenodd" d="M15.3273 15.3276C15.6528 15.0021 16.1804 15.0021 16.5058 15.3276L18.0892 16.9109C18.4146 17.2363 18.4146 17.764 18.0892 18.0894C17.7637 18.4149 17.2361 18.4149 16.9107 18.0894L15.3273 16.5061C15.0019 16.1806 15.0019 15.653 15.3273 15.3276Z" fill="black"/>
</svg>
