<svg width="20" height="20" viewBox="0 0 20 20" fill="none" xmlns="http://www.w3.org/2000/svg">
<path fill-rule="evenodd" clip-rule="evenodd" d="M10.3902 12.0409C9.50743 11.7082 8.55711 11.5946 7.62077 11.7099C6.68443 11.8251 5.79001 12.1657 5.0142 12.7025C4.23839 13.2392 3.60434 13.9562 3.16643 14.7918C2.72852 15.6274 2.49981 16.5568 2.49992 17.5002C2.49997 17.9604 2.12691 18.3335 1.66668 18.3336C1.20644 18.3336 0.833303 17.9606 0.833252 17.5003C0.833118 16.2874 1.12717 15.0925 1.6902 14.0182C2.25323 12.9438 3.06843 12.022 4.0659 11.3319C5.06336 10.6417 6.21334 10.2038 7.4172 10.0557C8.62107 9.90752 9.84291 10.0536 10.9779 10.4813C11.4086 10.6436 11.6262 11.1243 11.4639 11.5549C11.3016 11.9856 10.8209 12.2032 10.3902 12.0409Z" fill="black"/>
<path fill-rule="evenodd" clip-rule="evenodd" d="M14.7223 10.7625C15.2106 10.2743 15.8728 10 16.5632 10C17.2537 10 17.9159 10.2743 18.4042 10.7625C18.8924 11.2508 19.1667 11.913 19.1667 12.6035C19.1667 13.2939 18.8924 13.9561 18.4042 14.4444L15.0601 17.7851C15.0601 17.7851 15.0601 17.7851 15.06 17.7852C14.763 18.0823 14.3959 18.2998 13.9926 18.4176L13.9924 18.4176L11.6007 19.1151C11.6007 19.1151 11.6007 19.1151 11.6007 19.1151C11.3856 19.1779 11.1576 19.1816 10.9405 19.126C10.7234 19.0704 10.5253 18.9575 10.3668 18.799C10.2084 18.6406 10.0955 18.4424 10.0398 18.2254C9.98423 18.0083 9.98799 17.7803 10.0507 17.5651C10.0507 17.5651 10.0507 17.5651 10.0507 17.5651L10.7483 15.1732C10.866 14.77 11.0835 14.403 11.3805 14.106C11.3805 14.106 11.3806 14.1059 11.3806 14.1059C11.3807 14.1058 11.3808 14.1058 11.3808 14.1057L14.7223 10.7625ZM15.901 11.9409C15.901 11.9409 15.9009 11.9409 15.9009 11.9409C15.9009 11.941 15.9009 11.941 15.9008 11.941L12.559 15.2845C12.46 15.3835 12.3875 15.5058 12.3482 15.6401C12.3482 15.6401 12.3482 15.6402 12.3482 15.6402C12.3482 15.6403 12.3482 15.6403 12.3482 15.6404L11.8634 17.3024L13.5255 16.8177C13.5256 16.8177 13.5257 16.8176 13.5258 16.8176C13.6601 16.7783 13.7824 16.7059 13.8813 16.6069L17.2256 13.2659C17.2257 13.2659 17.2257 13.2658 17.2257 13.2658C17.4013 13.0902 17.5 12.8519 17.5 12.6035C17.5 12.355 17.4013 12.1167 17.2256 11.941C17.05 11.7654 16.8117 11.6667 16.5632 11.6667C16.3148 11.6667 16.0766 11.7653 15.901 11.9409ZM11.1344 17.515C11.1343 17.5151 11.1342 17.5151 11.1341 17.5151C11.1341 17.5151 11.1341 17.5151 11.1341 17.5151M11.1344 17.515L11.1341 17.5151L11.1344 17.515Z" fill="black"/>
<path fill-rule="evenodd" clip-rule="evenodd" d="M8.33325 3.33317C6.4923 3.33317 4.99992 4.82555 4.99992 6.6665C4.99992 8.50745 6.4923 9.99984 8.33325 9.99984C10.1742 9.99984 11.6666 8.50745 11.6666 6.6665C11.6666 4.82555 10.1742 3.33317 8.33325 3.33317ZM3.33325 6.6665C3.33325 3.90508 5.57183 1.6665 8.33325 1.6665C11.0947 1.6665 13.3333 3.90508 13.3333 6.6665C13.3333 9.42793 11.0947 11.6665 8.33325 11.6665C5.57183 11.6665 3.33325 9.42793 3.33325 6.6665Z" fill="black"/>
</svg>
