<svg width="20" height="20" viewBox="0 0 20 20" fill="none" xmlns="http://www.w3.org/2000/svg">
<path fill-rule="evenodd" clip-rule="evenodd" d="M4.55364 12.8869C5.33504 12.1055 6.39485 11.6665 7.49992 11.6665H12.4999C13.605 11.6665 14.6648 12.1055 15.4462 12.8869C16.2276 13.6683 16.6666 14.7281 16.6666 15.8332V17.4998C16.6666 17.9601 16.2935 18.3332 15.8333 18.3332C15.373 18.3332 14.9999 17.9601 14.9999 17.4998V15.8332C14.9999 15.1701 14.7365 14.5342 14.2677 14.0654C13.7988 13.5966 13.163 13.3332 12.4999 13.3332H7.49992C6.83688 13.3332 6.20099 13.5966 5.73215 14.0654C5.26331 14.5342 4.99992 15.1701 4.99992 15.8332V17.4998C4.99992 17.9601 4.62682 18.3332 4.16659 18.3332C3.70635 18.3332 3.33325 17.9601 3.33325 17.4998V15.8332C3.33325 14.7281 3.77224 13.6683 4.55364 12.8869Z" fill="black"/>
<path fill-rule="evenodd" clip-rule="evenodd" d="M9.99992 3.33317C8.61921 3.33317 7.49992 4.45246 7.49992 5.83317C7.49992 7.21388 8.61921 8.33317 9.99992 8.33317C11.3806 8.33317 12.4999 7.21388 12.4999 5.83317C12.4999 4.45246 11.3806 3.33317 9.99992 3.33317ZM5.83325 5.83317C5.83325 3.53198 7.69873 1.6665 9.99992 1.6665C12.3011 1.6665 14.1666 3.53198 14.1666 5.83317C14.1666 8.13436 12.3011 9.99984 9.99992 9.99984C7.69873 9.99984 5.83325 8.13436 5.83325 5.83317Z" fill="black"/>
</svg>
