<svg width="20" height="20" viewBox="0 0 20 20" fill="none" xmlns="http://www.w3.org/2000/svg">
<path fill-rule="evenodd" clip-rule="evenodd" d="M8.33325 3.33317C6.4923 3.33317 4.99992 4.82555 4.99992 6.6665C4.99992 8.50745 6.4923 9.99984 8.33325 9.99984C10.1742 9.99984 11.6666 8.50745 11.6666 6.6665C11.6666 4.82555 10.1742 3.33317 8.33325 3.33317ZM3.33325 6.6665C3.33325 3.90508 5.57183 1.6665 8.33325 1.6665C11.0947 1.6665 13.3333 3.90508 13.3333 6.6665C13.3333 9.42793 11.0947 11.6665 8.33325 11.6665C5.57183 11.6665 3.33325 9.42793 3.33325 6.6665Z" fill="black"/>
<path fill-rule="evenodd" clip-rule="evenodd" d="M10.108 11.9437C9.23352 11.6644 8.30542 11.5954 7.39922 11.7424C6.49301 11.8894 5.6343 12.2482 4.89292 12.7897C4.15153 13.3311 3.5484 14.0399 3.13259 14.8584C2.71677 15.6768 2.5 16.5819 2.49992 17.5C2.49988 17.9602 2.12675 18.3332 1.66651 18.3332C1.20627 18.3332 0.833209 17.96 0.833252 17.4998C0.833361 16.3195 1.11206 15.1558 1.64668 14.1035C2.1813 13.0511 2.95675 12.1399 3.90996 11.4437C4.86317 10.7476 5.96723 10.2863 7.13235 10.0973C8.29746 9.90826 9.49074 9.99693 10.6151 10.356C11.0535 10.4961 11.2954 10.965 11.1554 11.4034C11.0154 11.8418 10.5465 12.0837 10.108 11.9437Z" fill="black"/>
<path fill-rule="evenodd" clip-rule="evenodd" d="M15.0001 13.3332C14.0796 13.3332 13.3334 14.0794 13.3334 14.9998C13.3334 15.9203 14.0796 16.6665 15.0001 16.6665C15.9206 16.6665 16.6667 15.9203 16.6667 14.9998C16.6667 14.0794 15.9206 13.3332 15.0001 13.3332ZM11.6667 14.9998C11.6667 13.1589 13.1591 11.6665 15.0001 11.6665C16.841 11.6665 18.3334 13.1589 18.3334 14.9998C18.3334 16.8408 16.841 18.3332 15.0001 18.3332C13.1591 18.3332 11.6667 16.8408 11.6667 14.9998Z" fill="black"/>
<path fill-rule="evenodd" clip-rule="evenodd" d="M16.1608 16.1606C16.4863 15.8351 17.0139 15.8351 17.3393 16.1606L18.9227 17.7439C19.2481 18.0694 19.2481 18.597 18.9227 18.9224C18.5972 19.2479 18.0696 19.2479 17.7442 18.9224L16.1608 17.3391C15.8354 17.0137 15.8354 16.486 16.1608 16.1606Z" fill="black"/>
</svg>
