<svg width="20" height="20" viewBox="0 0 20 20" fill="none" xmlns="http://www.w3.org/2000/svg">
<path fill-rule="evenodd" clip-rule="evenodd" d="M2.05364 12.8869C2.83504 12.1055 3.89485 11.6665 4.99992 11.6665H9.99992C11.105 11.6665 12.1648 12.1055 12.9462 12.8869C13.7276 13.6683 14.1666 14.7281 14.1666 15.8332V17.4998C14.1666 17.9601 13.7935 18.3332 13.3333 18.3332C12.873 18.3332 12.4999 17.9601 12.4999 17.4998V15.8332C12.4999 15.1701 12.2365 14.5342 11.7677 14.0654C11.2988 13.5966 10.663 13.3332 9.99992 13.3332H4.99992C4.33688 13.3332 3.70099 13.5966 3.23215 14.0654C2.76331 14.5342 2.49992 15.1701 2.49992 15.8332V17.4998C2.49992 17.9601 2.12682 18.3332 1.66659 18.3332C1.20635 18.3332 0.833252 17.9601 0.833252 17.4998V15.8332C0.833252 14.7281 1.27224 13.6683 2.05364 12.8869Z" fill="black"/>
<path fill-rule="evenodd" clip-rule="evenodd" d="M7.49992 3.33317C6.11921 3.33317 4.99992 4.45246 4.99992 5.83317C4.99992 7.21388 6.11921 8.33317 7.49992 8.33317C8.88063 8.33317 9.99992 7.21388 9.99992 5.83317C9.99992 4.45246 8.88063 3.33317 7.49992 3.33317ZM3.33325 5.83317C3.33325 3.53198 5.19873 1.6665 7.49992 1.6665C9.80111 1.6665 11.6666 3.53198 11.6666 5.83317C11.6666 8.13436 9.80111 9.99984 7.49992 9.99984C5.19873 9.99984 3.33325 8.13436 3.33325 5.83317Z" fill="black"/>
<path fill-rule="evenodd" clip-rule="evenodd" d="M18.9226 6.91058C19.248 7.23602 19.248 7.76366 18.9226 8.08909L15.5893 11.4224C15.2638 11.7479 14.7362 11.7479 14.4107 11.4224L12.7441 9.75576C12.4186 9.43032 12.4186 8.90269 12.7441 8.57725C13.0695 8.25181 13.5972 8.25181 13.9226 8.57725L15 9.65466L17.7441 6.91058C18.0695 6.58514 18.5972 6.58514 18.9226 6.91058Z" fill="black"/>
</svg>
