<svg width="20" height="20" viewBox="0 0 20 20" fill="none" xmlns="http://www.w3.org/2000/svg">
<path fill-rule="evenodd" clip-rule="evenodd" d="M2.05364 12.8869C2.83504 12.1055 3.89485 11.6665 4.99992 11.6665H9.99992C11.105 11.6665 12.1648 12.1055 12.9462 12.8869C13.7276 13.6683 14.1666 14.7281 14.1666 15.8332V17.4998C14.1666 17.9601 13.7935 18.3332 13.3333 18.3332C12.873 18.3332 12.4999 17.9601 12.4999 17.4998V15.8332C12.4999 15.1701 12.2365 14.5342 11.7677 14.0654C11.2988 13.5966 10.663 13.3332 9.99992 13.3332H4.99992C4.33688 13.3332 3.70099 13.5966 3.23215 14.0654C2.76331 14.5342 2.49992 15.1701 2.49992 15.8332V17.4998C2.49992 17.9601 2.12682 18.3332 1.66659 18.3332C1.20635 18.3332 0.833252 17.9601 0.833252 17.4998V15.8332C0.833252 14.7281 1.27224 13.6683 2.05364 12.8869Z" fill="black"/>
<path fill-rule="evenodd" clip-rule="evenodd" d="M7.49992 3.33317C6.11921 3.33317 4.99992 4.45246 4.99992 5.83317C4.99992 7.21388 6.11921 8.33317 7.49992 8.33317C8.88063 8.33317 9.99992 7.21388 9.99992 5.83317C9.99992 4.45246 8.88063 3.33317 7.49992 3.33317ZM3.33325 5.83317C3.33325 3.53198 5.19873 1.6665 7.49992 1.6665C9.80111 1.6665 11.6666 3.53198 11.6666 5.83317C11.6666 8.13436 9.80111 9.99984 7.49992 9.99984C5.19873 9.99984 3.33325 8.13436 3.33325 5.83317Z" fill="black"/>
<path fill-rule="evenodd" clip-rule="evenodd" d="M15.0264 12.4001C15.1415 11.9545 15.596 11.6865 16.0416 11.8016C16.9355 12.0324 17.7274 12.5535 18.293 13.2831C18.8587 14.0128 19.1659 14.9096 19.1666 15.8328L19.1666 17.5001C19.1666 17.9603 18.7935 18.3334 18.3333 18.3334C17.8731 18.3334 17.5 17.9603 17.5 17.5001V15.8337C17.4995 15.2799 17.3151 14.742 16.9758 14.3043C16.6364 13.8665 16.1613 13.5538 15.625 13.4153C15.1793 13.3002 14.9114 12.8457 15.0264 12.4001Z" fill="black"/>
<path fill-rule="evenodd" clip-rule="evenodd" d="M12.526 2.40174C12.6402 1.95588 13.0941 1.68699 13.54 1.80114C14.4363 2.03062 15.2307 2.55188 15.7979 3.28272C16.3652 4.01356 16.6732 4.91243 16.6732 5.8376C16.6732 6.76278 16.3652 7.66164 15.7979 8.39249C15.2307 9.12333 14.4363 9.64458 13.54 9.87406C13.0941 9.98822 12.6402 9.71932 12.526 9.27347C12.4118 8.82761 12.6807 8.37364 13.1266 8.25948C13.6643 8.12179 14.141 7.80904 14.4814 7.37053C14.8217 6.93203 15.0065 6.39271 15.0065 5.8376C15.0065 5.2825 14.8217 4.74318 14.4814 4.30467C14.141 3.86617 13.6643 3.55342 13.1266 3.41573C12.6807 3.30157 12.4118 2.84759 12.526 2.40174Z" fill="black"/>
</svg>
