<svg width="20" height="20" viewBox="0 0 20 20" fill="none" xmlns="http://www.w3.org/2000/svg">
<path fill-rule="evenodd" clip-rule="evenodd" d="M10.108 11.9437C9.23352 11.6644 8.30542 11.5954 7.39922 11.7424C6.49301 11.8894 5.6343 12.2482 4.89292 12.7897C4.15153 13.3311 3.5484 14.0399 3.13259 14.8584C2.71677 15.6768 2.5 16.5819 2.49992 17.5C2.49988 17.9602 2.12675 18.3332 1.66651 18.3332C1.20627 18.3332 0.833209 17.96 0.833252 17.4998C0.833361 16.3195 1.11206 15.1558 1.64668 14.1035C2.1813 13.0511 2.95675 12.1399 3.90996 11.4437C4.86317 10.7476 5.96723 10.2863 7.13235 10.0973C8.29746 9.90826 9.49074 9.99693 10.6151 10.356C11.0535 10.4961 11.2954 10.965 11.1554 11.4034C11.0154 11.8418 10.5465 12.0837 10.108 11.9437Z" fill="black"/>
<path fill-rule="evenodd" clip-rule="evenodd" d="M8.33325 3.33317C6.4923 3.33317 4.99992 4.82555 4.99992 6.6665C4.99992 8.50745 6.4923 9.99984 8.33325 9.99984C10.1742 9.99984 11.6666 8.50745 11.6666 6.6665C11.6666 4.82555 10.1742 3.33317 8.33325 3.33317ZM3.33325 6.6665C3.33325 3.90508 5.57183 1.6665 8.33325 1.6665C11.0947 1.6665 13.3333 3.90508 13.3333 6.6665C13.3333 9.42793 11.0947 11.6665 8.33325 11.6665C5.57183 11.6665 3.33325 9.42793 3.33325 6.6665Z" fill="black"/>
<path fill-rule="evenodd" clip-rule="evenodd" d="M15.0001 13.3332C14.0796 13.3332 13.3334 14.0794 13.3334 14.9998C13.3334 15.9203 14.0796 16.6665 15.0001 16.6665C15.9206 16.6665 16.6667 15.9203 16.6667 14.9998C16.6667 14.0794 15.9206 13.3332 15.0001 13.3332ZM11.6667 14.9998C11.6667 13.1589 13.1591 11.6665 15.0001 11.6665C16.841 11.6665 18.3334 13.1589 18.3334 14.9998C18.3334 16.8408 16.841 18.3332 15.0001 18.3332C13.1591 18.3332 11.6667 16.8408 11.6667 14.9998Z" fill="black"/>
<path fill-rule="evenodd" clip-rule="evenodd" d="M16.5886 11.155C17.0091 11.342 17.1986 11.8344 17.0116 12.255L16.6783 13.005C16.4914 13.4256 15.9989 13.615 15.5783 13.4281C15.1578 13.2411 14.9684 12.7487 15.1553 12.3281L15.4886 11.5781C15.6755 11.1575 16.168 10.9681 16.5886 11.155Z" fill="black"/>
<path fill-rule="evenodd" clip-rule="evenodd" d="M14.4218 16.572C14.8424 16.759 15.0318 17.2514 14.8449 17.672L14.5116 18.422C14.3246 18.8426 13.8322 19.032 13.4116 18.8451C12.991 18.6581 12.8016 18.1657 12.9885 17.7451L13.3219 16.9951C13.5088 16.5745 14.0013 16.3851 14.4218 16.572Z" fill="black"/>
<path fill-rule="evenodd" clip-rule="evenodd" d="M16.5718 15.5781C16.7587 15.1575 17.2512 14.9681 17.6717 15.155L18.4217 15.4884C18.8423 15.6753 19.0317 16.1678 18.8448 16.5883C18.6579 17.0089 18.1654 17.1983 17.7449 17.0114L16.9948 16.6781C16.5743 16.4911 16.3849 15.9987 16.5718 15.5781Z" fill="black"/>
<path fill-rule="evenodd" clip-rule="evenodd" d="M11.1553 13.4116C11.3422 12.991 11.8347 12.8016 12.2552 12.9885L13.0052 13.3219C13.4258 13.5088 13.6152 14.0013 13.4283 14.4218C13.2414 14.8424 12.7489 15.0318 12.3283 14.8449L11.5783 14.5116C11.1578 14.3246 10.9684 13.8322 11.1553 13.4116Z" fill="black"/>
<path fill-rule="evenodd" clip-rule="evenodd" d="M18.8448 13.4116C19.0317 13.8322 18.8423 14.3246 18.4217 14.5116L17.6717 14.8449C17.2512 15.0318 16.7587 14.8424 16.5718 14.4218C16.3849 14.0013 16.5743 13.5088 16.9948 13.3219L17.7449 12.9885C18.1654 12.8016 18.6579 12.991 18.8448 13.4116Z" fill="black"/>
<path fill-rule="evenodd" clip-rule="evenodd" d="M13.4283 15.5781C13.6152 15.9987 13.4258 16.4911 13.0052 16.6781L12.2552 17.0114C11.8347 17.1983 11.3422 17.0089 11.1553 16.5883C10.9684 16.1678 11.1578 15.6753 11.5783 15.4884L12.3283 15.155C12.7489 14.9681 13.2414 15.1575 13.4283 15.5781Z" fill="black"/>
<path fill-rule="evenodd" clip-rule="evenodd" d="M15.5783 16.572C15.9989 16.3851 16.4914 16.5745 16.6783 16.9951L17.0116 17.7451C17.1986 18.1657 17.0091 18.6581 16.5886 18.8451C16.168 19.032 15.6755 18.8426 15.4886 18.422L15.1553 17.672C14.9684 17.2514 15.1578 16.759 15.5783 16.572Z" fill="black"/>
<path fill-rule="evenodd" clip-rule="evenodd" d="M13.4116 11.155C13.8322 10.9681 14.3246 11.1575 14.5116 11.5781L14.8449 12.3281C15.0318 12.7487 14.8424 13.2411 14.4218 13.4281C14.0013 13.615 13.5088 13.4256 13.3219 13.005L12.9885 12.255C12.8016 11.8344 12.991 11.342 13.4116 11.155Z" fill="black"/>
</svg>
