<svg width="20" height="20" viewBox="0 0 20 20" fill="none" xmlns="http://www.w3.org/2000/svg">
<path fill-rule="evenodd" clip-rule="evenodd" d="M2.50008 0.833496C2.96032 0.833496 3.33341 1.20659 3.33341 1.66683V7.50016C3.33341 7.95659 3.71032 8.3335 4.16675 8.3335H7.50008C7.72109 8.3335 7.93306 8.2457 8.08934 8.08942C8.24562 7.93314 8.33341 7.72118 8.33341 7.50016V1.66683C8.33341 1.20659 8.70651 0.833496 9.16675 0.833496C9.62698 0.833496 10.0001 1.20659 10.0001 1.66683V7.50016C10.0001 8.1632 9.73669 8.79909 9.26785 9.26793C8.79901 9.73677 8.16312 10.0002 7.50008 10.0002H4.16675C2.78984 10.0002 1.66675 8.87707 1.66675 7.50016V1.66683C1.66675 1.20659 2.03984 0.833496 2.50008 0.833496Z" fill="black"/>
<path fill-rule="evenodd" clip-rule="evenodd" d="M5.83333 0.833496C6.29357 0.833496 6.66667 1.20659 6.66667 1.66683V18.3335C6.66667 18.7937 6.29357 19.1668 5.83333 19.1668C5.3731 19.1668 5 18.7937 5 18.3335V1.66683C5 1.20659 5.3731 0.833496 5.83333 0.833496Z" fill="black"/>
<path fill-rule="evenodd" clip-rule="evenodd" d="M13.9645 2.29796C14.9021 1.36028 16.1739 0.833496 17.5 0.833496C17.721 0.833496 17.933 0.921293 18.0893 1.07757C18.2455 1.23385 18.3333 1.44582 18.3333 1.66683V18.3335C18.3333 18.7937 17.9602 19.1668 17.5 19.1668C17.0398 19.1668 16.6667 18.7937 16.6667 18.3335V13.3335H15C13.6231 13.3335 12.5 12.2104 12.5 10.8335V5.8335C12.5 4.50741 13.0268 3.23564 13.9645 2.29796ZM16.6667 11.6668V2.606C16.095 2.75363 15.5676 3.05186 15.143 3.47647C14.5179 4.10159 14.1667 4.94944 14.1667 5.8335V10.8335C14.1667 11.2899 14.5436 11.6668 15 11.6668H16.6667Z" fill="black"/>
</svg>
