<svg width="20" height="20" viewBox="0 0 20 20" fill="none" xmlns="http://www.w3.org/2000/svg">
<g clip-path="url(#clip0_2001_11139)">
<path fill-rule="evenodd" clip-rule="evenodd" d="M13.9226 1.07757C14.248 1.40301 14.248 1.93065 13.9226 2.25609L12.0091 4.1695C11.7054 4.48077 11.5353 4.89849 11.5353 5.3335C11.5353 5.7685 11.7054 6.18621 12.0091 6.49748L13.5026 7.991C13.8139 8.29473 14.2316 8.46481 14.6666 8.46481C15.1016 8.46481 15.5193 8.29473 15.8306 7.991L17.744 6.07757C18.0695 5.75214 18.5971 5.75214 18.9226 6.07757C19.248 6.40301 19.248 6.93065 18.9226 7.25608L17.0059 9.17275C17.0046 9.17402 17.0033 9.17529 17.0021 9.17655C17.0014 9.17724 17.0007 9.17793 17 9.17861C16.3769 9.78937 15.5391 10.1315 14.6666 10.1315C13.7941 10.1315 12.9564 9.78937 12.3333 9.17861C12.3313 9.17667 12.3293 9.17472 12.3274 9.17275L10.8274 7.67275C10.8254 7.67079 10.8235 7.66881 10.8215 7.66683C10.2108 7.04373 9.86865 6.20601 9.86865 5.3335C9.86865 4.46099 10.2108 3.62326 10.8215 3.00016C10.8235 2.99818 10.8254 2.9962 10.8274 2.99424L12.744 1.07757C13.0695 0.752137 13.5971 0.752137 13.9226 1.07757Z" fill="black"/>
<path fill-rule="evenodd" clip-rule="evenodd" d="M2.16684 2.1546C2.49321 1.83482 3.01622 1.83749 3.33931 2.16058L18.9226 17.7439C19.2481 18.0694 19.2481 18.597 18.9226 18.9224C18.5972 19.2479 18.0696 19.2479 17.7441 18.9224L12.5001 13.6783L11.756 14.4224C11.7429 14.4355 11.7294 14.4481 11.7155 14.4603C10.7574 15.2986 9.17285 15.3511 8.24413 14.4224L2.16365 8.34194C1.75336 7.93911 1.42734 7.45865 1.20458 6.92854C0.981246 6.39705 0.866211 5.82634 0.866211 5.24984C0.866211 4.67333 0.981246 4.10262 1.20458 3.57114C1.42791 3.03965 1.75505 2.55807 2.16684 2.1546ZM11.3215 12.4998L2.83625 4.01454C2.80178 4.08049 2.77003 4.14796 2.7411 4.21679C2.60367 4.54386 2.53288 4.89507 2.53288 5.24984C2.53288 5.60461 2.60367 5.95582 2.7411 6.28288C2.87854 6.60995 3.07986 6.90631 3.33327 7.1546C3.33529 7.15658 3.33731 7.15858 3.33931 7.16058L9.42264 13.2439C9.65689 13.4782 10.2247 13.5327 10.6003 13.2211L11.3215 12.4998Z" fill="black"/>
<path fill-rule="evenodd" clip-rule="evenodd" d="M7.67729 12.3322C8.00016 12.6602 7.996 13.1878 7.66801 13.5107L2.33468 18.7607C2.00669 19.0836 1.47907 19.0794 1.1562 18.7514C0.83334 18.4234 0.837495 17.8958 1.16548 17.573L6.49882 12.323C6.82681 12.0001 7.35443 12.0042 7.67729 12.3322Z" fill="black"/>
<path fill-rule="evenodd" clip-rule="evenodd" d="M16.4227 3.57757C16.7481 3.90301 16.7481 4.43065 16.4227 4.75609L10.5893 10.5894C10.2639 10.9149 9.73626 10.9149 9.41083 10.5894C9.08539 10.264 9.08539 9.73634 9.41083 9.41091L15.2442 3.57757C15.5696 3.25214 16.0972 3.25214 16.4227 3.57757Z" fill="black"/>
</g>
<defs>
<clipPath id="clip0_2001_11139">
<rect width="20" height="20" fill="white"/>
</clipPath>
</defs>
</svg>
