<svg width="20" height="20" viewBox="0 0 20 20" fill="none" xmlns="http://www.w3.org/2000/svg">
<g clip-path="url(#clip0_2001_11148)">
<path fill-rule="evenodd" clip-rule="evenodd" d="M10.0001 0.833496C10.4603 0.833496 10.8334 1.20659 10.8334 1.66683V18.3335C10.8334 18.7937 10.4603 19.1668 10.0001 19.1668C9.53984 19.1668 9.16675 18.7937 9.16675 18.3335V1.66683C9.16675 1.20659 9.53984 0.833496 10.0001 0.833496Z" fill="black"/>
<path fill-rule="evenodd" clip-rule="evenodd" d="M0.833252 4.16683C0.833252 3.70659 1.20635 3.3335 1.66659 3.3335H18.3333C18.7935 3.3335 19.1666 3.70659 19.1666 4.16683C19.1666 4.62707 18.7935 5.00016 18.3333 5.00016H1.66659C1.20635 5.00016 0.833252 4.62707 0.833252 4.16683Z" fill="black"/>
<path fill-rule="evenodd" clip-rule="evenodd" d="M2.50008 1.6665C2.96032 1.6665 3.33341 2.0396 3.33341 2.49984V4.1665C3.33341 4.62674 2.96032 4.99984 2.50008 4.99984C2.03984 4.99984 1.66675 4.62674 1.66675 4.1665V2.49984C1.66675 2.0396 2.03984 1.6665 2.50008 1.6665Z" fill="black"/>
<path fill-rule="evenodd" clip-rule="evenodd" d="M5.83333 1.6665C6.29357 1.6665 6.66667 2.0396 6.66667 2.49984V4.1665C6.66667 4.62674 6.29357 4.99984 5.83333 4.99984C5.3731 4.99984 5 4.62674 5 4.1665V2.49984C5 2.0396 5.3731 1.6665 5.83333 1.6665Z" fill="black"/>
<path fill-rule="evenodd" clip-rule="evenodd" d="M14.1666 1.6665C14.6268 1.6665 14.9999 2.0396 14.9999 2.49984V4.1665C14.9999 4.62674 14.6268 4.99984 14.1666 4.99984C13.7063 4.99984 13.3333 4.62674 13.3333 4.1665V2.49984C13.3333 2.0396 13.7063 1.6665 14.1666 1.6665Z" fill="black"/>
<path fill-rule="evenodd" clip-rule="evenodd" d="M17.5001 1.6665C17.9603 1.6665 18.3334 2.0396 18.3334 2.49984V4.1665C18.3334 4.62674 17.9603 4.99984 17.5001 4.99984C17.0398 4.99984 16.6667 4.62674 16.6667 4.1665V2.49984C16.6667 2.0396 17.0398 1.6665 17.5001 1.6665Z" fill="black"/>
<path fill-rule="evenodd" clip-rule="evenodd" d="M3.57733 3.57757C3.90277 3.25214 4.4304 3.25214 4.75584 3.57757L9.99992 8.82165L15.244 3.57757C15.5694 3.25214 16.0971 3.25214 16.4225 3.57757C16.7479 3.90301 16.7479 4.43065 16.4225 4.75609L10.5892 10.5894C10.2637 10.9149 9.7361 10.9149 9.41066 10.5894L3.57733 4.75609C3.25189 4.43065 3.25189 3.90301 3.57733 3.57757Z" fill="black"/>
</g>
<defs>
<clipPath id="clip0_2001_11148">
<rect width="20" height="20" fill="white"/>
</clipPath>
</defs>
</svg>
