<svg width="20" height="20" viewBox="0 0 20 20" fill="none" xmlns="http://www.w3.org/2000/svg">
<path fill-rule="evenodd" clip-rule="evenodd" d="M4.16675 3.33317C3.70651 3.33317 3.33341 3.70627 3.33341 4.1665V15.8332C3.33341 16.2934 3.70651 16.6665 4.16675 16.6665H15.8334C16.2937 16.6665 16.6667 16.2934 16.6667 15.8332V4.1665C16.6667 3.70627 16.2937 3.33317 15.8334 3.33317H4.16675ZM1.66675 4.1665C1.66675 2.78579 2.78604 1.6665 4.16675 1.6665H15.8334C17.2141 1.6665 18.3334 2.78579 18.3334 4.1665V15.8332C18.3334 17.2139 17.2141 18.3332 15.8334 18.3332H4.16675C2.78604 18.3332 1.66675 17.2139 1.66675 15.8332V4.1665Z" fill="black"/>
<path d="M6.24992 6.66683C6.48004 6.66683 6.66659 6.48028 6.66659 6.25016C6.66659 6.02004 6.48004 5.8335 6.24992 5.8335C6.0198 5.8335 5.83325 6.02004 5.83325 6.25016C5.83325 6.48028 6.0198 6.66683 6.24992 6.66683Z" fill="black"/>
<path fill-rule="evenodd" clip-rule="evenodd" d="M6.25 6.66667C6.48012 6.66667 6.66667 6.48012 6.66667 6.25C6.66667 6.01988 6.48012 5.83333 6.25 5.83333C6.01988 5.83333 5.83333 6.01988 5.83333 6.25C5.83333 6.48012 6.01988 6.66667 6.25 6.66667ZM5 6.25C5 5.55964 5.55964 5 6.25 5C6.94036 5 7.5 5.55964 7.5 6.25C7.5 6.94036 6.94036 7.5 6.25 7.5C5.55964 7.5 5 6.94036 5 6.25Z" fill="black"/>
<path fill-rule="evenodd" clip-rule="evenodd" d="M5.99408 5.99408C6.31951 5.66864 6.84715 5.66864 7.17259 5.99408L9.42259 8.24408C9.74803 8.56951 9.74803 9.09715 9.42259 9.42259C9.09715 9.74803 8.56951 9.74803 8.24408 9.42259L5.99408 7.17259C5.66864 6.84715 5.66864 6.31951 5.99408 5.99408Z" fill="black"/>
<path d="M13.7499 6.66683C13.98 6.66683 14.1666 6.48028 14.1666 6.25016C14.1666 6.02004 13.98 5.8335 13.7499 5.8335C13.5198 5.8335 13.3333 6.02004 13.3333 6.25016C13.3333 6.48028 13.5198 6.66683 13.7499 6.66683Z" fill="black"/>
<path fill-rule="evenodd" clip-rule="evenodd" d="M13.75 6.66667C13.9801 6.66667 14.1667 6.48012 14.1667 6.25C14.1667 6.01988 13.9801 5.83333 13.75 5.83333C13.5199 5.83333 13.3333 6.01988 13.3333 6.25C13.3333 6.48012 13.5199 6.66667 13.75 6.66667ZM12.5 6.25C12.5 5.55964 13.0596 5 13.75 5C14.4404 5 15 5.55964 15 6.25C15 6.94036 14.4404 7.5 13.75 7.5C13.0596 7.5 12.5 6.94036 12.5 6.25Z" fill="black"/>
<path fill-rule="evenodd" clip-rule="evenodd" d="M14.0058 5.99408C14.3313 6.31951 14.3313 6.84715 14.0058 7.17259L11.7558 9.42259C11.4304 9.74803 10.9028 9.74803 10.5773 9.42259C10.2519 9.09715 10.2519 8.56952 10.5773 8.24408L12.8273 5.99408C13.1528 5.66864 13.6804 5.66864 14.0058 5.99408Z" fill="black"/>
<path d="M6.24992 14.1668C6.48004 14.1668 6.66659 13.9803 6.66659 13.7502C6.66659 13.52 6.48004 13.3335 6.24992 13.3335C6.0198 13.3335 5.83325 13.52 5.83325 13.7502C5.83325 13.9803 6.0198 14.1668 6.24992 14.1668Z" fill="black"/>
<path fill-rule="evenodd" clip-rule="evenodd" d="M6.25 14.1667C6.48012 14.1667 6.66667 13.9801 6.66667 13.75C6.66667 13.5199 6.48012 13.3333 6.25 13.3333C6.01988 13.3333 5.83333 13.5199 5.83333 13.75C5.83333 13.9801 6.01988 14.1667 6.25 14.1667ZM5 13.75C5 13.0596 5.55964 12.5 6.25 12.5C6.94036 12.5 7.5 13.0596 7.5 13.75C7.5 14.4404 6.94036 15 6.25 15C5.55964 15 5 14.4404 5 13.75Z" fill="black"/>
<path fill-rule="evenodd" clip-rule="evenodd" d="M9.42259 10.5776C9.74803 10.903 9.74803 11.4306 9.42259 11.7561L7.17259 14.0061C6.84715 14.3315 6.31951 14.3315 5.99408 14.0061C5.66864 13.6806 5.66864 13.153 5.99408 12.8276L8.24408 10.5776C8.56952 10.2521 9.09715 10.2521 9.42259 10.5776Z" fill="black"/>
<path d="M13.7499 14.1668C13.98 14.1668 14.1666 13.9803 14.1666 13.7502C14.1666 13.52 13.98 13.3335 13.7499 13.3335C13.5198 13.3335 13.3333 13.52 13.3333 13.7502C13.3333 13.9803 13.5198 14.1668 13.7499 14.1668Z" fill="black"/>
<path fill-rule="evenodd" clip-rule="evenodd" d="M13.75 14.1667C13.9801 14.1667 14.1667 13.9801 14.1667 13.75C14.1667 13.5199 13.9801 13.3333 13.75 13.3333C13.5199 13.3333 13.3333 13.5199 13.3333 13.75C13.3333 13.9801 13.5199 14.1667 13.75 14.1667ZM12.5 13.75C12.5 13.0596 13.0596 12.5 13.75 12.5C14.4404 12.5 15 13.0596 15 13.75C15 14.4404 14.4404 15 13.75 15C13.0596 15 12.5 14.4404 12.5 13.75Z" fill="black"/>
<path fill-rule="evenodd" clip-rule="evenodd" d="M10.5773 10.5776C10.9028 10.2521 11.4304 10.2521 11.7558 10.5776L14.0058 12.8276C14.3313 13.153 14.3313 13.6806 14.0058 14.0061C13.6804 14.3315 13.1528 14.3315 12.8273 14.0061L10.5773 11.7561C10.2519 11.4306 10.2519 10.903 10.5773 10.5776Z" fill="black"/>
<path fill-rule="evenodd" clip-rule="evenodd" d="M10 9.16667C9.53976 9.16667 9.16667 9.53976 9.16667 10C9.16667 10.4602 9.53976 10.8333 10 10.8333C10.4602 10.8333 10.8333 10.4602 10.8333 10C10.8333 9.53976 10.4602 9.16667 10 9.16667ZM7.5 10C7.5 8.61929 8.61929 7.5 10 7.5C11.3807 7.5 12.5 8.61929 12.5 10C12.5 11.3807 11.3807 12.5 10 12.5C8.61929 12.5 7.5 11.3807 7.5 10Z" fill="black"/>
</svg>
