<svg width="20" height="20" viewBox="0 0 20 20" fill="none" xmlns="http://www.w3.org/2000/svg">
<g clip-path="url(#clip0_2001_11176)">
<path fill-rule="evenodd" clip-rule="evenodd" d="M1.01517 1.14718C1.30218 0.7874 1.82651 0.728407 2.1863 1.01542C4.79637 3.09756 6.92182 5.723 8.41499 8.70934C9.09135 10.0621 9.63063 11.4742 10.0275 12.9244C10.5527 10.5079 11.2605 8.68195 12.6048 6.26216C12.8283 5.85984 13.3357 5.71489 13.738 5.9384C14.1403 6.16191 14.2853 6.66924 14.0617 7.07156C12.0531 10.6871 11.5708 12.7995 10.8261 18.4426C10.7693 18.8731 10.3914 19.1878 9.95774 19.1658C9.52405 19.1438 9.17995 18.7925 9.16699 18.3584C9.07454 15.2629 8.30924 12.2246 6.92428 9.4547C5.53931 6.68476 3.56787 4.24957 1.14694 2.3183C0.787156 2.03129 0.728163 1.50696 1.01517 1.14718Z" fill="black"/>
<path fill-rule="evenodd" clip-rule="evenodd" d="M13.9941 2.32757C15.0388 1.28284 16.5382 0.833496 18.3333 0.833496C18.7936 0.833496 19.1667 1.20659 19.1667 1.66683C19.1667 3.46195 18.7173 4.96135 17.6726 6.00608C16.6279 7.05082 15.1285 7.50016 13.3333 7.50016C12.8731 7.50016 12.5 7.12707 12.5 6.66683C12.5 4.87171 12.9493 3.37231 13.9941 2.32757ZM14.2139 5.78623C15.2663 5.66584 15.9998 5.32185 16.4941 4.82757C16.9884 4.33329 17.3323 3.59984 17.4527 2.54743C16.4003 2.66782 15.6669 3.01181 15.1726 3.50609C14.6783 4.00036 14.3343 4.73381 14.2139 5.78623Z" fill="black"/>
<path fill-rule="evenodd" clip-rule="evenodd" d="M8.53664 0.959369C10.7695 0.598308 13.057 1.07551 14.9592 2.2992C15.3463 2.54819 15.4582 3.06382 15.2092 3.45089C14.9602 3.83795 14.4446 3.94988 14.0575 3.70089C12.5012 2.69969 10.6296 2.30925 8.80269 2.60466C6.97582 2.90008 5.32267 3.86048 4.16116 5.30118C2.99965 6.74187 2.41179 8.56113 2.51063 10.4091C2.60948 12.257 3.38806 14.0032 4.69663 15.3118C6.0052 16.6204 7.75137 17.3989 9.59933 17.4978C11.4473 17.5966 13.2665 17.0088 14.7072 15.8473C16.1479 14.6857 17.1083 13.0326 17.4038 11.2057C17.6992 9.37885 17.3087 7.50727 16.3075 5.95089C16.0585 5.56382 16.1705 5.04819 16.5575 4.7992C16.9446 4.5502 17.4602 4.66213 17.7092 5.0492C18.9329 6.95144 19.4101 9.23894 19.049 11.4718C18.688 13.7046 17.5142 15.7251 15.7533 17.1448C13.9925 18.5644 11.7689 19.2829 9.5103 19.1621C7.25169 19.0413 5.11748 18.0897 3.51812 16.4903C1.91875 14.8909 0.96716 12.7567 0.846347 10.4981C0.725533 8.2395 1.44403 6.01596 2.86366 4.25511C4.28328 2.49426 6.3038 1.32043 8.53664 0.959369Z" fill="black"/>
</g>
<defs>
<clipPath id="clip0_2001_11176">
<rect width="20" height="20" fill="white"/>
</clipPath>
</defs>
</svg>
