<svg width="20" height="20" viewBox="0 0 20 20" fill="none" xmlns="http://www.w3.org/2000/svg">
<path fill-rule="evenodd" clip-rule="evenodd" d="M0.833252 5.83333C0.833252 5.3731 1.20635 5 1.66659 5H5.83325C5.84359 5 5.85394 5.00019 5.86427 5.00058C7.35976 5.05628 8.79873 5.55773 9.99992 6.43241C11.2011 5.55773 12.6401 5.05628 14.1356 5.00058C14.1459 5.00019 14.1562 5 14.1666 5H18.3333C18.7935 5 19.1666 5.3731 19.1666 5.83333V10C19.1666 11.3261 18.6398 12.5979 17.7021 13.5355C16.7684 14.4693 15.5034 14.9956 14.1833 15C12.8412 15.0533 11.5584 15.5681 10.5518 16.4578C10.2366 16.7363 9.76324 16.7363 9.44807 16.4578C8.44141 15.5681 7.15863 15.0533 5.81652 15C4.49648 14.9956 3.23146 14.4693 2.29772 13.5355C1.36004 12.5979 0.833252 11.3261 0.833252 10V5.83333ZM2.49992 6.66667V10C2.49992 10.8841 2.85111 11.7319 3.47623 12.357C4.10135 12.9821 4.9492 13.3333 5.83325 13.3333C5.84359 13.3333 5.85394 13.3335 5.86427 13.3339C7.35976 13.3896 8.79873 13.8911 9.99992 14.7657C11.2011 13.8911 12.6401 13.3896 14.1356 13.3339C14.1459 13.3335 14.1562 13.3333 14.1666 13.3333C15.0506 13.3333 15.8985 12.9821 16.5236 12.357C17.1487 11.7319 17.4999 10.8841 17.4999 10V6.66667H14.1826C12.8408 6.7201 11.5583 7.23491 10.5518 8.12442C10.2366 8.40297 9.76324 8.40297 9.44807 8.12442C8.44158 7.23491 7.15907 6.7201 5.81722 6.66667H2.49992Z" fill="black"/>
<path fill-rule="evenodd" clip-rule="evenodd" d="M4.16675 9.16683C4.16675 8.70659 4.53984 8.3335 5.00008 8.3335C5.6953 8.3335 6.48078 8.44586 7.12353 8.80295C7.81637 9.18786 8.33341 9.86223 8.33341 10.8335C8.33341 11.2937 7.96032 11.6668 7.50008 11.6668L7.4761 11.6668C7.07836 11.6668 6.68445 11.6669 6.33713 11.6379C5.98562 11.6086 5.60112 11.5449 5.2524 11.3705C4.87364 11.1811 4.57859 10.8823 4.39482 10.4688C4.22393 10.0843 4.16675 9.64044 4.16675 9.16683Z" fill="black"/>
<path fill-rule="evenodd" clip-rule="evenodd" d="M12.8766 8.80295C13.5194 8.44586 14.3049 8.3335 15.0001 8.3335C15.4603 8.3335 15.8334 8.70659 15.8334 9.16683C15.8334 9.64044 15.7762 10.0843 15.6053 10.4688C15.4216 10.8823 15.1265 11.1811 14.7478 11.3705C14.399 11.5449 14.0145 11.6086 13.663 11.6379C13.3157 11.6669 12.9218 11.6668 12.5241 11.6668L12.5001 11.6668C12.0398 11.6668 11.6667 11.2937 11.6667 10.8335C11.6667 9.86223 12.1838 9.18786 12.8766 8.80295Z" fill="black"/>
</svg>
