<svg width="20" height="20" viewBox="0 0 20 20" fill="none" xmlns="http://www.w3.org/2000/svg">
<path fill-rule="evenodd" clip-rule="evenodd" d="M1.07733 6.07757C1.40277 5.75214 1.9304 5.75214 2.25584 6.07757L3.92251 7.74424C4.24794 8.06968 4.24794 8.59731 3.92251 8.92275L2.8451 10.0002L3.92251 11.0776C4.24794 11.403 4.24794 11.9306 3.92251 12.2561L2.25584 13.9228C1.9304 14.2482 1.40277 14.2482 1.07733 13.9228C0.751893 13.5973 0.751893 13.0697 1.07733 12.7442L2.15474 11.6668L1.07733 10.5894C0.751893 10.264 0.751893 9.73634 1.07733 9.41091L2.15474 8.3335L1.07733 7.25609C0.751893 6.93065 0.751893 6.40301 1.07733 6.07757Z" fill="black"/>
<path fill-rule="evenodd" clip-rule="evenodd" d="M18.9225 6.07757C19.2479 6.40301 19.2479 6.93065 18.9225 7.25609L17.8451 8.3335L18.9225 9.41091C19.2479 9.73634 19.2479 10.264 18.9225 10.5894L17.8451 11.6668L18.9225 12.7442C19.2479 13.0697 19.2479 13.5973 18.9225 13.9228C18.5971 14.2482 18.0694 14.2482 17.744 13.9228L16.0773 12.2561C15.7519 11.9306 15.7519 11.403 16.0773 11.0776L17.1547 10.0002L16.0773 8.92275C15.7519 8.59731 15.7519 8.06968 16.0773 7.74424L17.744 6.07757C18.0694 5.75214 18.5971 5.75214 18.9225 6.07757Z" fill="black"/>
<path fill-rule="evenodd" clip-rule="evenodd" d="M7.49992 5.00016V15.0002H12.4999V5.00016H7.49992ZM5.83325 5.00016C5.83325 4.07969 6.57944 3.3335 7.49992 3.3335H12.4999C13.4204 3.3335 14.1666 4.07969 14.1666 5.00016V15.0002C14.1666 15.9206 13.4204 16.6668 12.4999 16.6668H7.49992C6.57944 16.6668 5.83325 15.9206 5.83325 15.0002V5.00016Z" fill="black"/>
</svg>
