<svg width="20" height="20" viewBox="0 0 20 20" fill="none" xmlns="http://www.w3.org/2000/svg">
<g clip-path="url(#clip0_2001_11184)">
<path fill-rule="evenodd" clip-rule="evenodd" d="M1.07733 6.07757C1.40277 5.75214 1.9304 5.75214 2.25584 6.07757L3.92251 7.74424C4.24794 8.06968 4.24794 8.59731 3.92251 8.92275L2.8451 10.0002L3.92251 11.0776C4.24794 11.403 4.24794 11.9306 3.92251 12.2561L2.25584 13.9228C1.9304 14.2482 1.40277 14.2482 1.07733 13.9228C0.751893 13.5973 0.751893 13.0697 1.07733 12.7442L2.15474 11.6668L1.07733 10.5894C0.751893 10.264 0.751893 9.73634 1.07733 9.41091L2.15474 8.3335L1.07733 7.25609C0.751893 6.93065 0.751893 6.40301 1.07733 6.07757Z" fill="black"/>
<path fill-rule="evenodd" clip-rule="evenodd" d="M18.9225 6.07757C19.2479 6.40301 19.2479 6.93065 18.9225 7.25609L17.8451 8.3335L18.9225 9.41091C19.2479 9.73634 19.2479 10.264 18.9225 10.5894L17.8451 11.6668L18.9225 12.7442C19.2479 13.0697 19.2479 13.5973 18.9225 13.9228C18.5971 14.2482 18.0694 14.2482 17.744 13.9228L16.0773 12.2561C15.7519 11.9306 15.7519 11.403 16.0773 11.0776L17.1547 10.0002L16.0773 8.92275C15.7519 8.59731 15.7519 8.06968 16.0773 7.74424L17.744 6.07757C18.0694 5.75214 18.5971 5.75214 18.9225 6.07757Z" fill="black"/>
<path fill-rule="evenodd" clip-rule="evenodd" d="M6.66659 5.8335C7.12682 5.8335 7.49992 6.20659 7.49992 6.66683V14.9987C7.49992 14.9987 7.49993 14.9987 7.49993 14.9987C7.50014 14.9989 7.50037 14.9992 7.50063 14.9994C7.50089 14.9997 7.50115 14.9999 7.5014 15.0001C7.50141 15.0002 7.50141 15.0002 7.50142 15.0002H12.4984C12.4984 15.0002 12.4984 15.0002 12.4984 15.0001C12.4987 14.9999 12.4989 14.9997 12.4992 14.9994C12.4995 14.9992 12.4997 14.9989 12.4999 14.9987C12.4999 14.9987 12.4999 14.9987 12.4999 14.9987V13.3335C12.4999 12.8733 12.873 12.5002 13.3333 12.5002C13.7935 12.5002 14.1666 12.8733 14.1666 13.3335V15.0002C14.1666 15.9187 13.4185 16.6668 12.4999 16.6668H7.49992C6.58135 16.6668 5.83325 15.9187 5.83325 15.0002V6.66683C5.83325 6.20659 6.20635 5.8335 6.66659 5.8335Z" fill="black"/>
<path fill-rule="evenodd" clip-rule="evenodd" d="M8.05005 4.16683C8.05005 3.70659 8.42314 3.3335 8.88338 3.3335H12.5C13.4186 3.3335 14.1667 4.08159 14.1667 5.00016V8.61683C14.1667 9.07707 13.7936 9.45016 13.3334 9.45016C12.8731 9.45016 12.5 9.07707 12.5 8.61683V5.00166C12.5 5.00166 12.5 5.00165 12.5 5.00164C12.4998 5.00139 12.4996 5.00113 12.4993 5.00088C12.4991 5.00062 12.4988 5.00038 12.4986 5.00018C12.4986 5.00017 12.4986 5.00017 12.4985 5.00016H8.88338C8.42314 5.00016 8.05005 4.62707 8.05005 4.16683Z" fill="black"/>
<path fill-rule="evenodd" clip-rule="evenodd" d="M1.07733 1.07757C1.40277 0.752137 1.9304 0.752137 2.25584 1.07757L18.9225 17.7442C19.2479 18.0697 19.2479 18.5973 18.9225 18.9228C18.5971 19.2482 18.0694 19.2482 17.744 18.9228L1.07733 2.25609C0.751893 1.93065 0.751893 1.40301 1.07733 1.07757Z" fill="black"/>
</g>
<defs>
<clipPath id="clip0_2001_11184">
<rect width="20" height="20" fill="white"/>
</clipPath>
</defs>
</svg>
