<svg width="20" height="20" viewBox="0 0 20 20" fill="none" xmlns="http://www.w3.org/2000/svg">
<path fill-rule="evenodd" clip-rule="evenodd" d="M3.33325 4.16667C2.87301 4.16667 2.49992 4.53976 2.49992 5V15C2.49992 15.4602 2.87301 15.8333 3.33325 15.8333H16.6666C17.1268 15.8333 17.4999 15.4602 17.4999 15V5C17.4999 4.53976 17.1268 4.16667 16.6666 4.16667H3.33325ZM0.833252 5C0.833252 3.61929 1.95254 2.5 3.33325 2.5H16.6666C18.0473 2.5 19.1666 3.61929 19.1666 5V15C19.1666 16.3807 18.0473 17.5 16.6666 17.5H3.33325C1.95254 17.5 0.833252 16.3807 0.833252 15V5Z" fill="black"/>
<path fill-rule="evenodd" clip-rule="evenodd" d="M0.833252 6.66683C0.833252 6.20659 1.20635 5.8335 1.66659 5.8335H18.3333C18.7935 5.8335 19.1666 6.20659 19.1666 6.66683C19.1666 7.12707 18.7935 7.50016 18.3333 7.50016H1.66659C1.20635 7.50016 0.833252 7.12707 0.833252 6.66683Z" fill="black"/>
<path fill-rule="evenodd" clip-rule="evenodd" d="M6.66675 10.8332C6.20651 10.8332 5.83341 11.2063 5.83341 11.6665C5.83341 12.1267 6.20651 12.4998 6.66675 12.4998C7.12699 12.4998 7.50008 12.1267 7.50008 11.6665C7.50008 11.2063 7.12699 10.8332 6.66675 10.8332ZM4.16675 11.6665C4.16675 10.2858 5.28604 9.1665 6.66675 9.1665C8.04746 9.1665 9.16675 10.2858 9.16675 11.6665C9.16675 13.0472 8.04746 14.1665 6.66675 14.1665C5.28604 14.1665 4.16675 13.0472 4.16675 11.6665Z" fill="black"/>
<path fill-rule="evenodd" clip-rule="evenodd" d="M5.83325 9.99984C5.83325 9.5396 6.20635 9.1665 6.66659 9.1665H13.3333C13.7935 9.1665 14.1666 9.5396 14.1666 9.99984C14.1666 10.4601 13.7935 10.8332 13.3333 10.8332H6.66659C6.20635 10.8332 5.83325 10.4601 5.83325 9.99984Z" fill="black"/>
<path fill-rule="evenodd" clip-rule="evenodd" d="M13.3333 10.8332C12.873 10.8332 12.4999 11.2063 12.4999 11.6665C12.4999 12.1267 12.873 12.4998 13.3333 12.4998C13.7935 12.4998 14.1666 12.1267 14.1666 11.6665C14.1666 11.2063 13.7935 10.8332 13.3333 10.8332ZM10.8333 11.6665C10.8333 10.2858 11.9525 9.1665 13.3333 9.1665C14.714 9.1665 15.8333 10.2858 15.8333 11.6665C15.8333 13.0472 14.714 14.1665 13.3333 14.1665C11.9525 14.1665 10.8333 13.0472 10.8333 11.6665Z" fill="black"/>
</svg>
