<svg width="20" height="20" viewBox="0 0 20 20" fill="none" xmlns="http://www.w3.org/2000/svg">
<path fill-rule="evenodd" clip-rule="evenodd" d="M17.9123 5.30811C18.1323 5.30737 18.3485 5.36466 18.5392 5.47422C18.7299 5.58378 18.8884 5.74172 18.9985 5.93209C19.1086 6.1224 19.1666 6.33837 19.1666 6.55823C19.1666 6.55831 19.1666 6.55839 19.1666 6.55848V13.3887C19.1664 13.6148 19.105 13.8366 18.9888 14.0306C18.8725 14.2245 18.7059 14.3833 18.5066 14.49C18.3072 14.5967 18.0827 14.6474 17.8568 14.6366C17.631 14.6258 17.4123 14.5539 17.2241 14.4287L12.871 11.5266C12.488 11.2713 12.3846 10.7539 12.6398 10.371C12.8951 9.98804 13.4125 9.88456 13.7955 10.1399L17.4999 12.6095V7.28362L13.7532 9.46967C13.3557 9.70161 12.8454 9.56738 12.6134 9.16986C12.3815 8.77233 12.5157 8.26206 12.9133 8.03012L17.2866 5.47848C17.2866 5.47847 17.2866 5.47846 17.2866 5.47845C17.4766 5.36762 17.6924 5.30886 17.9123 5.30811ZM18.1262 6.91821C18.1263 6.91813 18.1264 6.91806 18.1266 6.91798L18.1265 6.918L18.1262 6.91821Z" fill="black"/>
<path fill-rule="evenodd" clip-rule="evenodd" d="M3.33325 5.83317C2.87301 5.83317 2.49992 6.20627 2.49992 6.6665V13.3332C2.49992 13.7934 2.87301 14.1665 3.33325 14.1665H11.6666C12.1268 14.1665 12.4999 13.7934 12.4999 13.3332V6.6665C12.4999 6.20627 12.1268 5.83317 11.6666 5.83317H3.33325ZM0.833252 6.6665C0.833252 5.28579 1.95254 4.1665 3.33325 4.1665H11.6666C13.0473 4.1665 14.1666 5.28579 14.1666 6.6665V13.3332C14.1666 14.7139 13.0473 15.8332 11.6666 15.8332H3.33325C1.95254 15.8332 0.833252 14.7139 0.833252 13.3332V6.6665Z" fill="black"/>
</svg>
