<svg width="20" height="20" viewBox="0 0 20 20" fill="none" xmlns="http://www.w3.org/2000/svg">
<g clip-path="url(#clip0_2001_11194)">
<path fill-rule="evenodd" clip-rule="evenodd" d="M8.05005 4.99984C8.05005 4.5396 8.42314 4.1665 8.88338 4.1665H11.6667C12.3298 4.1665 12.9656 4.4299 13.4345 4.89874C13.9033 5.36758 14.1667 6.00346 14.1667 6.6665V7.29881L17.2867 5.47842C17.2867 5.47841 17.2867 5.4784 17.2868 5.47839C17.4767 5.36756 17.6925 5.3088 17.9125 5.30805C18.1324 5.30731 18.3487 5.36461 18.5394 5.47417C18.7301 5.58372 18.8885 5.74166 18.9987 5.93204C19.1088 6.12234 19.1667 6.33831 19.1667 6.55817C19.1667 6.55825 19.1667 6.55834 19.1667 6.55842V13.3882C19.1667 13.8484 18.7936 14.2215 18.3334 14.2215C17.8731 14.2215 17.5 13.8484 17.5 13.3882V7.28356L13.7533 9.46961C13.4956 9.61999 13.1771 9.62109 12.9184 9.47248C12.6596 9.32387 12.5 9.04824 12.5 8.74984V6.6665C12.5 6.44549 12.4123 6.23353 12.256 6.07725C12.0997 5.92097 11.8877 5.83317 11.6667 5.83317H8.88338C8.42314 5.83317 8.05005 5.46007 8.05005 4.99984ZM18.1263 6.91815C18.1265 6.91808 18.1266 6.918 18.1267 6.91792L18.1267 6.91795L18.1263 6.91815Z" fill="black"/>
<path fill-rule="evenodd" clip-rule="evenodd" d="M3.33325 5.83317C3.11224 5.83317 2.90028 5.92097 2.744 6.07725C2.58772 6.23353 2.49992 6.44549 2.49992 6.6665V13.3332C2.49992 13.5542 2.58772 13.7661 2.744 13.9224C2.90028 14.0787 3.11224 14.1665 3.33325 14.1665H11.6666C11.8876 14.1665 12.0996 14.0787 12.2558 13.9224C12.4121 13.7661 12.4999 13.5542 12.4999 13.3332C12.4999 12.8729 12.873 12.4998 13.3333 12.4998C13.7935 12.4998 14.1666 12.8729 14.1666 13.3332C14.1666 13.9962 13.9032 14.6321 13.4344 15.1009C12.9655 15.5698 12.3296 15.8332 11.6666 15.8332H3.33325C2.67021 15.8332 2.03433 15.5698 1.56548 15.1009C1.09664 14.6321 0.833252 13.9962 0.833252 13.3332V6.6665C0.833252 6.00346 1.09664 5.36758 1.56548 4.89874C2.03433 4.4299 2.67021 4.1665 3.33325 4.1665H4.99992C5.46016 4.1665 5.83325 4.5396 5.83325 4.99984C5.83325 5.46007 5.46016 5.83317 4.99992 5.83317H3.33325Z" fill="black"/>
<path fill-rule="evenodd" clip-rule="evenodd" d="M1.07733 1.07757C1.40277 0.752137 1.9304 0.752137 2.25584 1.07757L18.9225 17.7442C19.2479 18.0697 19.2479 18.5973 18.9225 18.9228C18.5971 19.2482 18.0694 19.2482 17.744 18.9228L1.07733 2.25609C0.751893 1.93065 0.751893 1.40301 1.07733 1.07757Z" fill="black"/>
</g>
<defs>
<clipPath id="clip0_2001_11194">
<rect width="20" height="20" fill="white"/>
</clipPath>
</defs>
</svg>
