<svg width="20" height="20" viewBox="0 0 20 20" fill="none" xmlns="http://www.w3.org/2000/svg">
<path fill-rule="evenodd" clip-rule="evenodd" d="M4.99992 7.50016C3.61921 7.50016 2.49992 8.61945 2.49992 10.0002C2.49992 11.3809 3.61921 12.5002 4.99992 12.5002C6.38063 12.5002 7.49992 11.3809 7.49992 10.0002C7.49992 8.61945 6.38063 7.50016 4.99992 7.50016ZM0.833252 10.0002C0.833252 7.69898 2.69873 5.8335 4.99992 5.8335C7.30111 5.8335 9.16658 7.69898 9.16658 10.0002C9.16658 12.3013 7.30111 14.1668 4.99992 14.1668C2.69873 14.1668 0.833252 12.3013 0.833252 10.0002Z" fill="black"/>
<path fill-rule="evenodd" clip-rule="evenodd" d="M14.9999 7.50016C13.6192 7.50016 12.4999 8.61945 12.4999 10.0002C12.4999 11.3809 13.6192 12.5002 14.9999 12.5002C16.3806 12.5002 17.4999 11.3809 17.4999 10.0002C17.4999 8.61945 16.3806 7.50016 14.9999 7.50016ZM10.8333 10.0002C10.8333 7.69898 12.6987 5.8335 14.9999 5.8335C17.3011 5.8335 19.1666 7.69898 19.1666 10.0002C19.1666 12.3013 17.3011 14.1668 14.9999 14.1668C12.6987 14.1668 10.8333 12.3013 10.8333 10.0002Z" fill="black"/>
<path fill-rule="evenodd" clip-rule="evenodd" d="M4.16675 13.3333C4.16675 12.8731 4.53984 12.5 5.00008 12.5H15.0001C15.4603 12.5 15.8334 12.8731 15.8334 13.3333C15.8334 13.7936 15.4603 14.1667 15.0001 14.1667H5.00008C4.53984 14.1667 4.16675 13.7936 4.16675 13.3333Z" fill="black"/>
</svg>
