<svg width="20" height="20" viewBox="0 0 20 20" fill="none" xmlns="http://www.w3.org/2000/svg">
<g clip-path="url(#clip0_2001_11216)">
<path fill-rule="evenodd" clip-rule="evenodd" d="M17.7901 9.88189C15.4169 7.84152 12.3854 6.72903 9.25566 6.74996C8.79543 6.75304 8.41985 6.38245 8.41677 5.92222C8.41369 5.462 8.78428 5.08641 9.24451 5.08334C12.7767 5.05971 16.1982 6.31528 18.8767 8.61808C19.2257 8.91812 19.2654 9.44426 18.9653 9.79325C18.6653 10.1422 18.1391 10.1819 17.7901 9.88189Z" fill="black"/>
<path fill-rule="evenodd" clip-rule="evenodd" d="M10.4973 9.33129C10.8666 9.60601 10.9432 10.1281 10.6685 10.4973C9.74176 11.743 8.56895 12.785 7.22282 13.5586C5.8767 14.3322 4.38597 14.821 2.84311 14.9947C2.38576 15.0461 1.97328 14.7171 1.92181 14.2598C1.87033 13.8024 2.19936 13.3899 2.65671 13.3384C3.97268 13.1903 5.24418 12.7734 6.39235 12.1136C7.54051 11.4537 8.54085 10.565 9.33132 9.50247C9.60603 9.13322 10.1281 9.05658 10.4973 9.33129Z" fill="black"/>
<path fill-rule="evenodd" clip-rule="evenodd" d="M14.41 10.6079C14.8107 10.8343 14.952 11.3427 14.7256 11.7434C12.9713 14.8484 10.1429 17.2054 6.77243 18.371C6.33747 18.5215 5.86292 18.2908 5.7125 17.8558C5.56207 17.4209 5.79274 16.9463 6.2277 16.7959C9.21406 15.7631 11.7201 13.6747 13.2745 10.9236C13.5009 10.5229 14.0093 10.3815 14.41 10.6079Z" fill="black"/>
<path fill-rule="evenodd" clip-rule="evenodd" d="M10.3132 0.894358C10.7396 1.06738 10.9451 1.55337 10.7721 1.97984C9.82897 4.30449 9.77307 6.88882 10.6044 9.24425C11.9621 9.4679 13.27 9.93365 14.4654 10.6207C15.8086 11.3926 16.982 12.428 17.9151 13.6646C18.1923 14.032 18.1192 14.5546 17.7518 14.8318C17.3844 15.109 16.8619 15.0359 16.5847 14.6685C15.7868 13.6111 14.7835 12.7257 13.635 12.0657C12.4864 11.4056 11.2164 10.9844 9.90107 10.8273C9.59973 10.7914 9.34177 10.5944 9.22767 10.3132C8.06213 7.44026 8.06213 4.2262 9.22767 1.35328C9.4007 0.926802 9.88668 0.721337 10.3132 0.894358Z" fill="black"/>
<path fill-rule="evenodd" clip-rule="evenodd" d="M5.41248 2.34963C5.8639 2.43932 6.15714 2.87796 6.06745 3.32938C5.45504 6.4119 5.98374 9.61194 7.55512 12.3337C7.78524 12.7322 7.64867 13.2419 7.2501 13.472C6.85152 13.7021 6.34186 13.5656 6.11174 13.167C4.33826 10.0952 3.74155 6.48359 4.43274 3.0046C4.52242 2.55319 4.96107 2.25995 5.41248 2.34963Z" fill="black"/>
<path fill-rule="evenodd" clip-rule="evenodd" d="M9.99992 2.50016C5.85778 2.50016 2.49992 5.85803 2.49992 10.0002C2.49992 14.1423 5.85778 17.5002 9.99992 17.5002C14.1421 17.5002 17.4999 14.1423 17.4999 10.0002C17.4999 5.85803 14.1421 2.50016 9.99992 2.50016ZM0.833252 10.0002C0.833252 4.93755 4.93731 0.833496 9.99992 0.833496C15.0625 0.833496 19.1666 4.93755 19.1666 10.0002C19.1666 15.0628 15.0625 19.1668 9.99992 19.1668C4.93731 19.1668 0.833252 15.0628 0.833252 10.0002Z" fill="black"/>
</g>
<defs>
<clipPath id="clip0_2001_11216">
<rect width="20" height="20" fill="white"/>
</clipPath>
</defs>
</svg>
