<svg width="20" height="20" viewBox="0 0 20 20" fill="none" xmlns="http://www.w3.org/2000/svg">
<path fill-rule="evenodd" clip-rule="evenodd" d="M12.8334 6.83322C13.2016 6.55708 13.7239 6.6317 14 6.99989C14.6492 7.86537 15 8.91804 15 9.99989C15 11.0817 14.6492 12.1344 14 12.9999C13.7239 13.3681 13.2016 13.4427 12.8334 13.1666C12.4652 12.8904 12.3906 12.3681 12.6667 11.9999C13.0995 11.4229 13.3334 10.7211 13.3334 9.99989C13.3334 9.27865 13.0995 8.57687 12.6667 7.99989C12.3906 7.6317 12.4652 7.10936 12.8334 6.83322Z" fill="black"/>
<path fill-rule="evenodd" clip-rule="evenodd" d="M9.52758 3.41575C9.8163 3.55452 9.99992 3.8465 9.99992 4.16684V15.8335C9.99992 16.1538 9.8163 16.4458 9.52758 16.5846C9.23886 16.7234 8.89615 16.6843 8.64601 16.4842L4.7076 13.3335H1.66659C1.20635 13.3335 0.833252 12.9604 0.833252 12.5002V7.50017C0.833252 7.03993 1.20635 6.66684 1.66659 6.66684H4.7076L8.64601 3.51611C8.89615 3.316 9.23886 3.27698 9.52758 3.41575ZM8.33325 5.90069L5.5205 8.15089C5.37274 8.2691 5.18915 8.3335 4.99992 8.3335H2.49992V11.6668H4.99992C5.18915 11.6668 5.37274 11.7312 5.5205 11.8494L8.33325 14.0997V5.90069Z" fill="black"/>
</svg>
