<svg width="20" height="20" viewBox="0 0 20 20" fill="none" xmlns="http://www.w3.org/2000/svg">
<g clip-path="url(#clip0_2001_11230)">
<path fill-rule="evenodd" clip-rule="evenodd" d="M12.8333 6.83327C13.2015 6.55709 13.7238 6.63166 14 6.99982C14.5044 7.67216 14.8311 8.46079 14.95 9.29282C15.0151 9.74843 14.6986 10.1706 14.2429 10.2357C13.7873 10.3008 13.3652 9.98423 13.3001 9.52862C13.2208 8.97393 13.003 8.44818 12.6668 7.99995C12.3906 7.63179 12.4652 7.10945 12.8333 6.83327Z" fill="black"/>
<path fill-rule="evenodd" clip-rule="evenodd" d="M15.5471 4.10753C15.8725 3.782 16.4001 3.78185 16.7256 4.10719C19.1257 6.50589 19.8298 10.2185 18.4747 13.3294C18.2909 13.7514 17.7999 13.9444 17.3779 13.7606C16.956 13.5768 16.7629 13.0858 16.9467 12.6638C18.0282 10.1812 17.4628 7.20031 15.5475 5.28604C15.2219 4.96069 15.2218 4.43306 15.5471 4.10753Z" fill="black"/>
<path fill-rule="evenodd" clip-rule="evenodd" d="M1.07733 1.07757C1.40277 0.752137 1.9304 0.752137 2.25584 1.07757L18.9225 17.7442C19.2479 18.0697 19.2479 18.5973 18.9225 18.9228C18.5971 19.2482 18.0694 19.2482 17.744 18.9228L1.07733 2.25609C0.751893 1.93065 0.751893 1.40301 1.07733 1.07757Z" fill="black"/>
<path fill-rule="evenodd" clip-rule="evenodd" d="M6.42251 5.24408C6.74794 5.56951 6.74794 6.09715 6.42251 6.42259C6.39354 6.45155 6.3589 6.48752 6.31975 6.52816C6.17493 6.6785 5.96843 6.89288 5.7595 7.05389C5.45551 7.28815 5.04605 7.50119 4.51219 7.5H2.50505C2.50499 7.50004 2.50493 7.50009 2.50487 7.50014L2.50474 7.50024L2.50467 7.50029L2.50456 7.50038L2.50447 7.50045C2.5044 7.5005 2.50433 7.50056 2.50426 7.50062C2.50419 7.50067 2.50411 7.50073 2.50404 7.50079C2.50397 7.50085 2.5039 7.50091 2.50383 7.50097C2.50375 7.50103 2.50368 7.5011 2.50361 7.50116L2.50347 7.50128L2.50339 7.50135C2.50332 7.50142 2.50324 7.50148 2.50317 7.50155C2.5031 7.50162 2.50302 7.50168 2.50295 7.50175C2.50288 7.50182 2.5028 7.50189 2.50273 7.50196C2.50266 7.50203 2.50259 7.5021 2.50251 7.50217C2.50244 7.50224 2.50237 7.50231 2.5023 7.50238C2.50226 7.50242 2.50222 7.50246 2.50218 7.50251L2.50209 7.5026C2.50202 7.50267 2.50195 7.50274 2.50188 7.50281C2.50181 7.50289 2.50174 7.50296 2.50167 7.50303C2.5016 7.50311 2.50153 7.50318 2.50147 7.50325C2.5014 7.50333 2.50133 7.5034 2.50127 7.50347C2.5012 7.50354 2.50114 7.50362 2.50108 7.50369C2.50101 7.50376 2.50095 7.50384 2.50089 7.50391C2.50083 7.50398 2.50077 7.50405 2.50071 7.50412C2.50065 7.5042 2.50059 7.50427 2.50054 7.50434C2.50048 7.50441 2.50042 7.50448 2.50037 7.50455C2.50031 7.50462 2.50026 7.50468 2.50021 7.50475C2.50015 7.50482 2.5001 7.50489 2.50005 7.50495C2.50001 7.50502 2.49996 7.50508 2.49992 7.50514V12.4949L2.50005 12.495L2.50021 12.4952L2.50037 12.4955L2.50054 12.4957L2.50071 12.4959L2.50089 12.4961L2.50108 12.4963L2.50127 12.4965L2.50147 12.4967L2.50167 12.497L2.50188 12.4972L2.50209 12.4974L2.5023 12.4976L2.50251 12.4978L2.50273 12.498L2.50287 12.4982L2.50295 12.4982C2.50302 12.4983 2.5031 12.4984 2.50317 12.4985C2.50324 12.4985 2.50332 12.4986 2.50339 12.4986L2.50361 12.4988L2.50383 12.499L2.50404 12.4992L2.50426 12.4994L2.50447 12.4996L2.50467 12.4997C2.50472 12.4998 2.50478 12.4998 2.50483 12.4998L2.50487 12.4999L2.50505 12.5H4.51205C5.0435 12.4988 5.55923 12.7124 5.93415 13.0891C5.93447 13.0894 5.93478 13.0897 5.93509 13.09L8.33325 15.4889V9.16667C8.33325 8.70643 8.70635 8.33333 9.16659 8.33333C9.62682 8.33333 9.99992 8.70643 9.99992 9.16667V16.0817C10.0007 17.3371 8.46128 17.975 7.57391 17.0867C7.57387 17.0866 7.57384 17.0866 7.5738 17.0866C7.57367 17.0864 7.57354 17.0863 7.57342 17.0862L4.75474 14.2667C4.75419 14.2661 4.75363 14.2656 4.75308 14.265C4.69182 14.2034 4.60258 14.1664 4.51569 14.1667C4.51488 14.1667 4.51407 14.1667 4.51325 14.1667H2.49992C1.58579 14.1667 0.833252 13.4141 0.833252 12.5V7.5C0.833252 6.58587 1.58579 5.83333 2.49992 5.83333H4.51325C4.51407 5.83333 4.51488 5.83333 4.51569 5.83334C4.56981 5.8335 4.62902 5.82092 4.74216 5.73374C4.80407 5.68603 4.87227 5.62324 4.95794 5.53712C4.99944 5.4954 5.04105 5.45231 5.08786 5.40383L5.09159 5.39996C5.13833 5.35157 5.19038 5.29769 5.244 5.24408C5.56943 4.91864 6.09707 4.91864 6.42251 5.24408Z" fill="black"/>
<path fill-rule="evenodd" clip-rule="evenodd" d="M8.3362 4.29734C8.33474 4.34448 8.33336 4.39833 8.33336 4.45269C8.33336 4.91293 8.70645 5.28603 9.16669 5.28603C9.62693 5.28603 10 4.91293 10 4.45269C10 4.39916 10.0013 4.36667 10.0028 4.32515C10.0044 4.28568 10.0062 4.23806 10.0075 4.15644C10.0096 4.0343 10.0083 3.86865 9.98052 3.69448C9.92019 3.31633 9.71307 2.82244 9.13226 2.58209C8.6087 2.36543 7.99954 2.48731 7.59964 2.88873C7.27483 3.21479 7.27584 3.74242 7.60189 4.06724C7.80192 4.26651 8.07781 4.34315 8.3362 4.29734ZM8.33262 3.9465C8.33263 3.94649 8.33275 3.94693 8.33296 3.94785C8.33272 3.94697 8.33261 3.94651 8.33262 3.9465Z" fill="black"/>
</g>
<defs>
<clipPath id="clip0_2001_11230">
<rect width="20" height="20" fill="white"/>
</clipPath>
</defs>
</svg>
