<svg width="20" height="20" viewBox="0 0 20 20" fill="none" xmlns="http://www.w3.org/2000/svg">
<path fill-rule="evenodd" clip-rule="evenodd" d="M18.9226 6.91058C19.248 7.23602 19.248 7.76366 18.9226 8.08909L13.9226 13.0891C13.5972 13.4145 13.0695 13.4145 12.7441 13.0891C12.4186 12.7637 12.4186 12.236 12.7441 11.9106L17.7441 6.91058C18.0695 6.58514 18.5972 6.58514 18.9226 6.91058Z" fill="black"/>
<path fill-rule="evenodd" clip-rule="evenodd" d="M12.7441 6.91058C13.0695 6.58514 13.5972 6.58514 13.9226 6.91058L18.9226 11.9106C19.248 12.236 19.248 12.7637 18.9226 13.0891C18.5972 13.4145 18.0695 13.4145 17.7441 13.0891L12.7441 8.08909C12.4186 7.76366 12.4186 7.23602 12.7441 6.91058Z" fill="black"/>
<path fill-rule="evenodd" clip-rule="evenodd" d="M9.52758 3.41575C9.8163 3.55452 9.99992 3.8465 9.99992 4.16684V15.8335C9.99992 16.1538 9.8163 16.4458 9.52758 16.5846C9.23886 16.7234 8.89615 16.6843 8.64601 16.4842L4.7076 13.3335H1.66659C1.20635 13.3335 0.833252 12.9604 0.833252 12.5002V7.50017C0.833252 7.03993 1.20635 6.66684 1.66659 6.66684H4.7076L8.64601 3.51611C8.89615 3.316 9.23886 3.27698 9.52758 3.41575ZM8.33325 5.90069L5.5205 8.15089C5.37274 8.2691 5.18915 8.3335 4.99992 8.3335H2.49992V11.6668H4.99992C5.18915 11.6668 5.37274 11.7312 5.5205 11.8494L8.33325 14.0997V5.90069Z" fill="black"/>
</svg>
