<svg width="20" height="20" viewBox="0 0 20 20" fill="none" xmlns="http://www.w3.org/2000/svg">
<path fill-rule="evenodd" clip-rule="evenodd" d="M13.0893 7.74408C13.4148 8.06951 13.4148 8.59715 13.0893 8.92259L9.756 12.2559C9.43057 12.5814 8.90293 12.5814 8.57749 12.2559L6.91083 10.5893C6.58539 10.2638 6.58539 9.73618 6.91083 9.41074C7.23626 9.08531 7.7639 9.08531 8.08934 9.41074L9.16675 10.4882L11.9108 7.74408C12.2363 7.41864 12.7639 7.41864 13.0893 7.74408Z" fill="black"/>
<path fill-rule="evenodd" clip-rule="evenodd" d="M5.83325 5.00016C5.37682 5.00016 4.99992 5.37707 4.99992 5.8335V15.0002H14.9999V5.8335C14.9999 5.61248 14.9121 5.40052 14.7558 5.24424C14.5996 5.08796 14.3876 5.00016 14.1666 5.00016H5.83325ZM3.33325 5.8335C3.33325 4.45659 4.45635 3.3335 5.83325 3.3335H14.1666C14.8296 3.3335 15.4655 3.59689 15.9344 4.06573C16.4032 4.53457 16.6666 5.17045 16.6666 5.8335V15.8335C16.6666 16.2937 16.2935 16.6668 15.8333 16.6668H4.16659C3.70635 16.6668 3.33325 16.2937 3.33325 15.8335V5.8335Z" fill="black"/>
<path fill-rule="evenodd" clip-rule="evenodd" d="M0.833252 15.8333C0.833252 15.3731 1.20635 15 1.66659 15H18.3333C18.7935 15 19.1666 15.3731 19.1666 15.8333C19.1666 16.2936 18.7935 16.6667 18.3333 16.6667H1.66659C1.20635 16.6667 0.833252 16.2936 0.833252 15.8333Z" fill="black"/>
</svg>
