<svg width="20" height="20" viewBox="0 0 20 20" fill="none" xmlns="http://www.w3.org/2000/svg">
<path fill-rule="evenodd" clip-rule="evenodd" d="M6.66675 6.66667C6.20651 6.66667 5.83341 7.03976 5.83341 7.5C5.83341 7.96024 6.20651 8.33333 6.66675 8.33333C7.12699 8.33333 7.50008 7.96024 7.50008 7.5C7.50008 7.03976 7.12699 6.66667 6.66675 6.66667ZM4.16675 7.5C4.16675 6.11929 5.28604 5 6.66675 5C8.04746 5 9.16675 6.11929 9.16675 7.5C9.16675 8.88071 8.04746 10 6.66675 10C5.28604 10 4.16675 8.88071 4.16675 7.5Z" fill="black"/>
<path fill-rule="evenodd" clip-rule="evenodd" d="M1.56549 2.39874C2.03433 1.9299 2.67021 1.6665 3.33325 1.6665H16.6666C17.3296 1.6665 17.9655 1.9299 18.4344 2.39874C18.9032 2.86758 19.1666 3.50346 19.1666 4.1665V12.4998C19.1666 13.1629 18.9032 13.7988 18.4344 14.2676C17.9655 14.7364 17.3296 14.9998 16.6666 14.9998H3.33325C2.67021 14.9998 2.03433 14.7364 1.56549 14.2676C1.09664 13.7988 0.833252 13.1629 0.833252 12.4998V4.1665C0.833252 3.50346 1.09664 2.86758 1.56549 2.39874ZM3.33325 3.33317C3.11224 3.33317 2.90028 3.42097 2.744 3.57725C2.58772 3.73353 2.49992 3.94549 2.49992 4.1665V12.4998C2.49992 12.7208 2.58772 12.9328 2.744 13.0891C2.90028 13.2454 3.11224 13.3332 3.33325 13.3332H7.15474L11.994 8.49391C11.9949 8.49297 11.9959 8.49202 11.9969 8.49107C11.9979 8.49005 11.9989 8.48904 11.9999 8.48802C12.4695 8.02785 13.1013 7.77114 13.7588 7.77348C14.4162 7.77582 15.0462 8.03702 15.5124 8.50052L15.5142 8.50225L17.4999 10.488V4.1665C17.4999 3.94549 17.4121 3.73353 17.2558 3.57725C17.0996 3.42097 16.8876 3.33317 16.6666 3.33317H3.33325ZM17.447 12.7921L14.3374 9.68248C14.3372 9.68224 14.3369 9.682 14.3367 9.68177C14.1813 9.52771 13.9716 9.44091 13.7528 9.44013C13.5348 9.43936 13.3253 9.52403 13.169 9.67591L9.51176 13.3332H16.6666C16.8876 13.3332 17.0996 13.2454 17.2558 13.0891C17.3409 13.0041 17.4056 12.9026 17.447 12.7921Z" fill="black"/>
<path fill-rule="evenodd" clip-rule="evenodd" d="M5.83325 17.4998C5.83325 17.0396 6.20635 16.6665 6.66659 16.6665H13.3333C13.7935 16.6665 14.1666 17.0396 14.1666 17.4998C14.1666 17.9601 13.7935 18.3332 13.3333 18.3332H6.66659C6.20635 18.3332 5.83325 17.9601 5.83325 17.4998Z" fill="black"/>
<path fill-rule="evenodd" clip-rule="evenodd" d="M10.0001 13.3335C10.4603 13.3335 10.8334 13.7066 10.8334 14.1668V17.5002C10.8334 17.9604 10.4603 18.3335 10.0001 18.3335C9.53984 18.3335 9.16675 17.9604 9.16675 17.5002V14.1668C9.16675 13.7066 9.53984 13.3335 10.0001 13.3335Z" fill="black"/>
</svg>
