<svg width="20" height="20" viewBox="0 0 20 20" fill="none" xmlns="http://www.w3.org/2000/svg">
<path fill-rule="evenodd" clip-rule="evenodd" d="M2.39898 2.39874C2.86782 1.9299 3.50371 1.6665 4.16675 1.6665H15.0001C15.4421 1.6665 15.866 1.8421 16.1786 2.15466C16.4912 2.46722 16.6667 2.89114 16.6667 3.33317V4.99984C17.1088 4.99984 17.5327 5.17543 17.8453 5.48799C18.1578 5.80055 18.3334 6.22448 18.3334 6.6665V9.38979C18.4585 9.462 18.5747 9.55076 18.6786 9.65466C18.9912 9.96722 19.1667 10.3911 19.1667 10.8332V12.4998C19.1667 12.9419 18.9912 13.3658 18.6786 13.6783C18.366 13.9909 17.9421 14.1665 17.5001 14.1665H15.0001C14.337 14.1665 13.7012 13.9031 13.2323 13.4343C12.7635 12.9654 12.5001 12.3295 12.5001 11.6665C12.5001 11.0035 12.7635 10.3676 13.2323 9.89874C13.7012 9.4299 14.337 9.1665 15.0001 9.1665H16.6667V6.6665H4.16675C3.50371 6.6665 2.86782 6.40311 2.39898 5.93427C1.93014 5.46543 1.66675 4.82955 1.66675 4.1665C1.66675 3.50346 1.93014 2.86758 2.39898 2.39874ZM15.0001 4.99984V3.33317H4.16675C3.94573 3.33317 3.73377 3.42097 3.57749 3.57725C3.42121 3.73353 3.33341 3.94549 3.33341 4.1665C3.33341 4.38752 3.42121 4.59948 3.57749 4.75576C3.73377 4.91204 3.94573 4.99984 4.16675 4.99984H15.0001ZM15.0001 10.8332C14.7791 10.8332 14.5671 10.921 14.4108 11.0772C14.2545 11.2335 14.1667 11.4455 14.1667 11.6665C14.1667 11.8875 14.2545 12.0995 14.4108 12.2558C14.5671 12.412 14.7791 12.4998 15.0001 12.4998H17.5001V10.8332H15.0001Z" fill="black"/>
<path fill-rule="evenodd" clip-rule="evenodd" d="M2.50008 3.3335C2.96032 3.3335 3.33341 3.70659 3.33341 4.16683V15.8335C3.33341 16.0545 3.42121 16.2665 3.57749 16.4228C3.73377 16.579 3.94573 16.6668 4.16675 16.6668H16.6667V13.3335C16.6667 12.8733 17.0398 12.5002 17.5001 12.5002C17.9603 12.5002 18.3334 12.8733 18.3334 13.3335V16.6668C18.3334 17.1089 18.1578 17.5328 17.8453 17.8453C17.5327 18.1579 17.1088 18.3335 16.6667 18.3335H4.16675C3.50371 18.3335 2.86782 18.0701 2.39898 17.6013C1.93014 17.1324 1.66675 16.4965 1.66675 15.8335V4.16683C1.66675 3.70659 2.03984 3.3335 2.50008 3.3335Z" fill="black"/>
</svg>
