<svg width="20" height="20" viewBox="0 0 20 20" fill="none" xmlns="http://www.w3.org/2000/svg">
<path fill-rule="evenodd" clip-rule="evenodd" d="M4.16675 3.33317C3.70651 3.33317 3.33341 3.70627 3.33341 4.1665V15.8332C3.33341 16.2934 3.70651 16.6665 4.16675 16.6665H15.8334C16.2937 16.6665 16.6667 16.2934 16.6667 15.8332V4.1665C16.6667 3.70627 16.2937 3.33317 15.8334 3.33317H4.16675ZM1.66675 4.1665C1.66675 2.78579 2.78604 1.6665 4.16675 1.6665H15.8334C17.2141 1.6665 18.3334 2.78579 18.3334 4.1665V15.8332C18.3334 17.2139 17.2141 18.3332 15.8334 18.3332H4.16675C2.78604 18.3332 1.66675 17.2139 1.66675 15.8332V4.1665Z" fill="black"/>
<path fill-rule="evenodd" clip-rule="evenodd" d="M4.16675 6.66667C3.94573 6.66667 3.73377 6.75446 3.57749 6.91074C3.42121 7.06702 3.33341 7.27899 3.33341 7.5C3.33341 7.96024 2.96032 8.33333 2.50008 8.33333C2.03984 8.33333 1.66675 7.96024 1.66675 7.5C1.66675 6.83696 1.93014 6.20107 2.39898 5.73223C2.86782 5.26339 3.50371 5 4.16675 5H15.8334C16.4965 5 17.1323 5.26339 17.6012 5.73223C18.07 6.20107 18.3334 6.83696 18.3334 7.5C18.3334 7.96024 17.9603 8.33333 17.5001 8.33333C17.0398 8.33333 16.6667 7.96024 16.6667 7.5C16.6667 7.27899 16.5789 7.06702 16.4227 6.91074C16.2664 6.75446 16.0544 6.66667 15.8334 6.66667H4.16675Z" fill="black"/>
<path fill-rule="evenodd" clip-rule="evenodd" d="M1.66675 9.16683C1.66675 8.70659 2.03984 8.3335 2.50008 8.3335H5.00008C5.82917 8.3335 6.72466 8.63322 7.33358 9.31752L8.19445 10.0219C8.21588 10.0394 8.23642 10.058 8.256 10.0776C9.2639 11.0855 10.8196 11.0855 11.8275 10.0776C11.8471 10.058 11.8676 10.0394 11.889 10.0219L12.7761 9.29606C13.3254 8.76287 14.1801 8.3335 15.0834 8.3335H17.5001C17.9603 8.3335 18.3334 8.70659 18.3334 9.16683C18.3334 9.62707 17.9603 10.0002 17.5001 10.0002H15.0834C14.6711 10.0002 14.2083 10.2204 13.9227 10.5061C13.9031 10.5257 13.8825 10.5443 13.8611 10.5618L12.975 11.2868C11.3252 12.9046 8.75831 12.9046 7.10855 11.2868L6.22238 10.5618C6.18143 10.5283 6.14377 10.491 6.1099 10.4503C5.88568 10.1813 5.4782 10.0002 5.00008 10.0002H2.50008C2.03984 10.0002 1.66675 9.62707 1.66675 9.16683Z" fill="black"/>
</svg>
