<svg width="20" height="20" viewBox="0 0 20 20" fill="none" xmlns="http://www.w3.org/2000/svg">
<path fill-rule="evenodd" clip-rule="evenodd" d="M13.3333 11.6668C13.3333 11.2066 13.7063 10.8335 14.1666 10.8335H14.1749C14.6352 10.8335 15.0083 11.2066 15.0083 11.6668C15.0083 12.1271 14.6352 12.5002 14.1749 12.5002H14.1666C13.7063 12.5002 13.3333 12.1271 13.3333 11.6668Z" fill="black"/>
<path fill-rule="evenodd" clip-rule="evenodd" d="M4.16675 3.33317C3.94573 3.33317 3.73377 3.42097 3.57749 3.57725C3.42121 3.73353 3.33341 3.94549 3.33341 4.1665V15.8332C3.33341 16.0542 3.42121 16.2661 3.57749 16.4224C3.73377 16.5787 3.94573 16.6665 4.16675 16.6665H15.8334C16.0544 16.6665 16.2664 16.5787 16.4227 16.4224C16.5789 16.2661 16.6667 16.0542 16.6667 15.8332V7.49984C16.6667 7.27882 16.5789 7.06686 16.4227 6.91058C16.2664 6.7543 16.0544 6.6665 15.8334 6.6665H5.83341C5.37318 6.6665 5.00008 6.29341 5.00008 5.83317C5.00008 5.37293 5.37318 4.99984 5.83341 4.99984H15.8334C16.4965 4.99984 17.1323 5.26323 17.6012 5.73207C18.07 6.20091 18.3334 6.8368 18.3334 7.49984V15.8332C18.3334 16.4962 18.07 17.1321 17.6012 17.6009C17.1323 18.0698 16.4965 18.3332 15.8334 18.3332H4.16675C3.50371 18.3332 2.86782 18.0698 2.39898 17.6009C1.93014 17.1321 1.66675 16.4962 1.66675 15.8332V4.1665C1.66675 3.50346 1.93014 2.86758 2.39898 2.39874C2.86782 1.9299 3.50371 1.6665 4.16675 1.6665H15.8334C16.2937 1.6665 16.6667 2.0396 16.6667 2.49984C16.6667 2.96007 16.2937 3.33317 15.8334 3.33317H4.16675Z" fill="black"/>
</svg>
