<svg width="20" height="20" viewBox="0 0 20 20" fill="none" xmlns="http://www.w3.org/2000/svg">
<path fill-rule="evenodd" clip-rule="evenodd" d="M12.5001 0.833496C12.9603 0.833496 13.3334 1.20659 13.3334 1.66683V3.3335C13.3334 3.79373 12.9603 4.16683 12.5001 4.16683C12.0398 4.16683 11.6667 3.79373 11.6667 3.3335V1.66683C11.6667 1.20659 12.0398 0.833496 12.5001 0.833496Z" fill="black"/>
<path fill-rule="evenodd" clip-rule="evenodd" d="M12.5001 10.8335C12.9603 10.8335 13.3334 11.2066 13.3334 11.6668V13.3335C13.3334 13.7937 12.9603 14.1668 12.5001 14.1668C12.0398 14.1668 11.6667 13.7937 11.6667 13.3335V11.6668C11.6667 11.2066 12.0398 10.8335 12.5001 10.8335Z" fill="black"/>
<path fill-rule="evenodd" clip-rule="evenodd" d="M5.83325 7.49984C5.83325 7.0396 6.20635 6.6665 6.66659 6.6665H8.33325C8.79349 6.6665 9.16658 7.0396 9.16658 7.49984C9.16658 7.96007 8.79349 8.33317 8.33325 8.33317H6.66659C6.20635 8.33317 5.83325 7.96007 5.83325 7.49984Z" fill="black"/>
<path fill-rule="evenodd" clip-rule="evenodd" d="M15.8333 7.49984C15.8333 7.0396 16.2063 6.6665 16.6666 6.6665H18.3333C18.7935 6.6665 19.1666 7.0396 19.1666 7.49984C19.1666 7.96007 18.7935 8.33317 18.3333 8.33317H16.6666C16.2063 8.33317 15.8333 7.96007 15.8333 7.49984Z" fill="black"/>
<path fill-rule="evenodd" clip-rule="evenodd" d="M14.2441 9.24408C14.5695 8.91864 15.0972 8.91864 15.4226 9.24408L16.4226 10.2441C16.748 10.5695 16.748 11.0972 16.4226 11.4226C16.0972 11.748 15.5695 11.748 15.2441 11.4226L14.2441 10.4226C13.9186 10.0972 13.9186 9.56951 14.2441 9.24408Z" fill="black"/>
<path fill-rule="evenodd" clip-rule="evenodd" d="M11.6667 7.49984C11.6667 7.0396 12.0398 6.6665 12.5001 6.6665H12.5084C12.9687 6.6665 13.3417 7.0396 13.3417 7.49984C13.3417 7.96007 12.9687 8.33317 12.5084 8.33317H12.5001C12.0398 8.33317 11.6667 7.96007 11.6667 7.49984Z" fill="black"/>
<path fill-rule="evenodd" clip-rule="evenodd" d="M16.4226 3.57757C16.748 3.90301 16.748 4.43065 16.4226 4.75609L15.4226 5.75609C15.0972 6.08152 14.5695 6.08152 14.2441 5.75608C13.9186 5.43065 13.9186 4.90301 14.2441 4.57757L15.2441 3.57757C15.5695 3.25214 16.0972 3.25214 16.4226 3.57757Z" fill="black"/>
<path fill-rule="evenodd" clip-rule="evenodd" d="M10.5893 9.41058C10.9148 9.73602 10.9148 10.2637 10.5893 10.5891L3.08934 18.0891C2.7639 18.4145 2.23626 18.4145 1.91083 18.0891C1.58539 17.7637 1.58539 17.236 1.91083 16.9106L9.41083 9.41058C9.73626 9.08514 10.2639 9.08514 10.5893 9.41058Z" fill="black"/>
<path fill-rule="evenodd" clip-rule="evenodd" d="M8.57733 3.57757C8.90277 3.25214 9.4304 3.25214 9.75584 3.57757L10.7558 4.57757C11.0813 4.90301 11.0813 5.43065 10.7558 5.75609C10.4304 6.08152 9.90277 6.08152 9.57733 5.75609L8.57733 4.75609C8.25189 4.43065 8.25189 3.90301 8.57733 3.57757Z" fill="black"/>
</svg>
