<svg width="20" height="20" viewBox="0 0 20 20" fill="none" xmlns="http://www.w3.org/2000/svg">
<g clip-path="url(#clip0_2001_11261)">
<path fill-rule="evenodd" clip-rule="evenodd" d="M15.5408 0.976484C15.7654 0.882741 16.0065 0.834473 16.2499 0.834473C16.4934 0.834473 16.7344 0.882741 16.9591 0.976484C17.183 1.06991 17.3862 1.20665 17.5571 1.37885C17.5577 1.37944 17.5583 1.38003 17.5589 1.38062L18.6191 2.44082C18.7925 2.61073 18.9304 2.81339 19.0248 3.03706C19.1201 3.26273 19.1692 3.5052 19.1692 3.75016C19.1692 3.99512 19.1201 4.23759 19.0248 4.46326C18.9304 4.68692 18.7925 4.88957 18.6191 5.05947L5.05923 18.6194C4.88932 18.7927 4.68667 18.9306 4.46301 19.025C4.23735 19.1203 3.99487 19.1694 3.74992 19.1694C3.50496 19.1694 3.26248 19.1203 3.03682 19.025C2.81315 18.9306 2.61049 18.7927 2.44058 18.6193L1.38037 17.5591C1.37978 17.5585 1.37919 17.5579 1.3786 17.5574C1.2064 17.3865 1.06966 17.1832 0.97624 16.9593C0.882496 16.7346 0.834229 16.4936 0.834229 16.2502C0.834229 16.0067 0.882496 15.7657 0.97624 15.541C1.06965 15.3171 1.20638 15.1139 1.37856 14.943C1.37916 14.9424 1.37977 14.9418 1.38037 14.9412L14.941 1.38062C14.9416 1.38001 14.9422 1.37941 14.9428 1.3788C15.1136 1.20662 15.3169 1.0699 15.5408 0.976484ZM16.2499 2.50114C16.2268 2.50114 16.2039 2.50573 16.1825 2.51463C16.1612 2.52354 16.1418 2.5366 16.1255 2.55304C16.1245 2.55405 16.1235 2.55507 16.1225 2.55608L2.55584 16.1227C2.55482 16.1238 2.55381 16.1248 2.55279 16.1258C2.53635 16.142 2.5233 16.1614 2.51439 16.1828C2.50548 16.2041 2.5009 16.227 2.5009 16.2502C2.5009 16.2733 2.50548 16.2962 2.51439 16.3175C2.5233 16.3389 2.53635 16.3583 2.55279 16.3745C2.55381 16.3755 2.55482 16.3766 2.55584 16.3776L3.6225 17.4442C3.62518 17.4469 3.62783 17.4496 3.63047 17.4523C3.646 17.4683 3.66458 17.481 3.68509 17.4896C3.7056 17.4983 3.72765 17.5027 3.74992 17.5027C3.77218 17.5027 3.79423 17.4983 3.81474 17.4896C3.83525 17.481 3.85383 17.4683 3.86936 17.4523C3.872 17.4496 3.87465 17.4469 3.87733 17.4442L17.444 3.87757C17.4467 3.8749 17.4494 3.87224 17.4521 3.8696C17.468 3.85407 17.4807 3.8355 17.4894 3.81499C17.498 3.79447 17.5025 3.77243 17.5025 3.75016C17.5025 3.72789 17.498 3.70585 17.4894 3.68533C17.4807 3.66482 17.468 3.64625 17.4521 3.63072C17.4494 3.62808 17.4467 3.62542 17.444 3.62275L16.3773 2.55608L16.3756 2.5544L16.3743 2.55304C16.358 2.5366 16.3387 2.52354 16.3173 2.51463C16.296 2.50573 16.273 2.50114 16.2499 2.50114Z" fill="black"/>
<path fill-rule="evenodd" clip-rule="evenodd" d="M11.0773 5.24408C11.4028 4.91864 11.9304 4.91864 12.2558 5.24408L14.7558 7.74408C15.0813 8.06951 15.0813 8.59715 14.7558 8.92259C14.4304 9.24803 13.9028 9.24803 13.5773 8.92259L11.0773 6.42259C10.7519 6.09715 10.7519 5.56951 11.0773 5.24408Z" fill="black"/>
<path fill-rule="evenodd" clip-rule="evenodd" d="M4.16659 4.1665C4.62682 4.1665 4.99992 4.5396 4.99992 4.99984V8.33317C4.99992 8.79341 4.62682 9.1665 4.16659 9.1665C3.70635 9.1665 3.33325 8.79341 3.33325 8.33317V4.99984C3.33325 4.5396 3.70635 4.1665 4.16659 4.1665Z" fill="black"/>
<path fill-rule="evenodd" clip-rule="evenodd" d="M15.8333 10.8335C16.2936 10.8335 16.6667 11.2066 16.6667 11.6668V15.0002C16.6667 15.4604 16.2936 15.8335 15.8333 15.8335C15.3731 15.8335 15 15.4604 15 15.0002V11.6668C15 11.2066 15.3731 10.8335 15.8333 10.8335Z" fill="black"/>
<path fill-rule="evenodd" clip-rule="evenodd" d="M8.33333 0.833496C8.79357 0.833496 9.16667 1.20659 9.16667 1.66683V3.3335C9.16667 3.79373 8.79357 4.16683 8.33333 4.16683C7.8731 4.16683 7.5 3.79373 7.5 3.3335V1.66683C7.5 1.20659 7.8731 0.833496 8.33333 0.833496Z" fill="black"/>
<path fill-rule="evenodd" clip-rule="evenodd" d="M1.66675 6.66683C1.66675 6.20659 2.03984 5.8335 2.50008 5.8335H5.83342C6.29365 5.8335 6.66675 6.20659 6.66675 6.66683C6.66675 7.12707 6.29365 7.50016 5.83342 7.50016H2.50008C2.03984 7.50016 1.66675 7.12707 1.66675 6.66683Z" fill="black"/>
<path fill-rule="evenodd" clip-rule="evenodd" d="M13.3333 13.3333C13.3333 12.8731 13.7063 12.5 14.1666 12.5H17.4999C17.9602 12.5 18.3333 12.8731 18.3333 13.3333C18.3333 13.7936 17.9602 14.1667 17.4999 14.1667H14.1666C13.7063 14.1667 13.3333 13.7936 13.3333 13.3333Z" fill="black"/>
<path fill-rule="evenodd" clip-rule="evenodd" d="M6.66675 2.49984C6.66675 2.0396 7.03984 1.6665 7.50008 1.6665H9.16675C9.62699 1.6665 10.0001 2.0396 10.0001 2.49984C10.0001 2.96007 9.62699 3.33317 9.16675 3.33317H7.50008C7.03984 3.33317 6.66675 2.96007 6.66675 2.49984Z" fill="black"/>
</g>
<defs>
<clipPath id="clip0_2001_11261">
<rect width="20" height="20" fill="white"/>
</clipPath>
</defs>
</svg>
