<svg width="20" height="20" viewBox="0 0 20 20" fill="none" xmlns="http://www.w3.org/2000/svg">
<path fill-rule="evenodd" clip-rule="evenodd" d="M9.69212 3.52394C9.69194 3.52401 9.69176 3.52408 9.69159 3.52415L3.02491 6.19082C2.87052 6.25231 2.73803 6.35855 2.64448 6.49591C2.55119 6.63288 2.50086 6.79455 2.49992 6.96025V16.6666C2.49992 16.8876 2.58772 17.0996 2.744 17.2559C2.90028 17.4122 3.11224 17.5 3.33325 17.5H16.6666C16.8876 17.5 17.0996 17.4122 17.2558 17.2559C17.4121 17.0996 17.4999 16.8876 17.4999 16.6666V6.9602C17.499 6.79452 17.4486 6.63287 17.3554 6.49591C17.2618 6.35855 17.1293 6.25231 16.9749 6.19082L10.3083 3.52415C10.3081 3.52409 10.308 3.52403 10.3078 3.52398C10.1101 3.44536 9.88983 3.44535 9.69212 3.52394ZM9.07492 1.97576C9.6689 1.7392 10.3309 1.7392 10.9249 1.97576L17.5916 4.64242C17.5918 4.64251 17.592 4.6426 17.5922 4.64269C18.0551 4.82719 18.4524 5.14583 18.7329 5.55771C19.0135 5.96978 19.1646 6.45636 19.1666 6.95493L19.1666 6.95829V16.6666C19.1666 17.3297 18.9032 17.9655 18.4344 18.4344C17.9655 18.9032 17.3296 19.1666 16.6666 19.1666H3.33325C2.67021 19.1666 2.03433 18.9032 1.56549 18.4344C1.09664 17.9655 0.833252 17.3297 0.833252 16.6666V6.95829C0.833252 6.95717 0.833254 6.95605 0.833259 6.95493C0.83527 6.45636 0.986306 5.96978 1.26696 5.55771C1.54749 5.14582 1.94471 4.82718 2.40764 4.64267C2.40784 4.64259 2.40805 4.64251 2.40826 4.64242L9.07492 1.97576Z" fill="black"/>
<path fill-rule="evenodd" clip-rule="evenodd" d="M4.16675 14.9998C4.16675 14.5396 4.53984 14.1665 5.00008 14.1665H15.0001C15.4603 14.1665 15.8334 14.5396 15.8334 14.9998C15.8334 15.4601 15.4603 15.8332 15.0001 15.8332H5.00008C4.53984 15.8332 4.16675 15.4601 4.16675 14.9998Z" fill="black"/>
<path fill-rule="evenodd" clip-rule="evenodd" d="M4.16675 11.6668C4.16675 11.2066 4.53984 10.8335 5.00008 10.8335H15.0001C15.4603 10.8335 15.8334 11.2066 15.8334 11.6668C15.8334 12.1271 15.4603 12.5002 15.0001 12.5002H5.00008C4.53984 12.5002 4.16675 12.1271 4.16675 11.6668Z" fill="black"/>
<path fill-rule="evenodd" clip-rule="evenodd" d="M4.16675 8.33333C4.16675 7.8731 4.53984 7.5 5.00008 7.5H15.0001C15.4603 7.5 15.8334 7.8731 15.8334 8.33333V18.3333C15.8334 18.7936 15.4603 19.1667 15.0001 19.1667H5.00008C4.53984 19.1667 4.16675 18.7936 4.16675 18.3333V8.33333ZM5.83341 9.16667V17.5H14.1667V9.16667H5.83341Z" fill="black"/>
</svg>
