<svg width="20" height="20" viewBox="0 0 20 20" fill="none" xmlns="http://www.w3.org/2000/svg">
<path fill-rule="evenodd" clip-rule="evenodd" d="M1.66675 4.99984C1.66675 4.5396 2.03984 4.1665 2.50008 4.1665H5.00008C5.46032 4.1665 5.83341 4.5396 5.83341 4.99984C5.83341 5.46007 5.46032 5.83317 5.00008 5.83317H2.50008C2.03984 5.83317 1.66675 5.46007 1.66675 4.99984Z" fill="black"/>
<path fill-rule="evenodd" clip-rule="evenodd" d="M13.3333 4.99984C13.3333 4.5396 13.7063 4.1665 14.1666 4.1665H14.1749C14.6352 4.1665 15.0083 4.5396 15.0083 4.99984C15.0083 5.46007 14.6352 5.83317 14.1749 5.83317H14.1666C13.7063 5.83317 13.3333 5.46007 13.3333 4.99984Z" fill="black"/>
<path fill-rule="evenodd" clip-rule="evenodd" d="M4.16675 2.50016C3.70651 2.50016 3.33341 2.87326 3.33341 3.3335V16.6668C3.33341 17.1271 3.70651 17.5002 4.16675 17.5002H15.8334C16.2937 17.5002 16.6667 17.1271 16.6667 16.6668V3.3335C16.6667 2.87326 16.2937 2.50016 15.8334 2.50016H4.16675ZM1.66675 3.3335C1.66675 1.95278 2.78604 0.833496 4.16675 0.833496H15.8334C17.2141 0.833496 18.3334 1.95278 18.3334 3.3335V16.6668C18.3334 18.0475 17.2141 19.1668 15.8334 19.1668H4.16675C2.78604 19.1668 1.66675 18.0475 1.66675 16.6668V3.3335Z" fill="black"/>
<path fill-rule="evenodd" clip-rule="evenodd" d="M10 7.50016C8.15905 7.50016 6.66667 8.99255 6.66667 10.8335C6.66667 12.6744 8.15905 14.1668 10 14.1668C11.8409 14.1668 13.3333 12.6744 13.3333 10.8335C13.3333 8.99255 11.8409 7.50016 10 7.50016ZM5 10.8335C5 8.07207 7.23858 5.8335 10 5.8335C12.7614 5.8335 15 8.07207 15 10.8335C15 13.5949 12.7614 15.8335 10 15.8335C7.23858 15.8335 5 13.5949 5 10.8335Z" fill="black"/>
<path fill-rule="evenodd" clip-rule="evenodd" d="M9.99992 7.50016C9.6684 7.50016 9.35046 7.63186 9.11604 7.86628C8.88161 8.1007 8.74992 8.41864 8.74992 8.75016C8.74992 9.08168 8.88161 9.39963 9.11604 9.63405C9.35046 9.86847 9.6684 10.0002 9.99992 10.0002C10.7735 10.0002 11.5153 10.3075 12.0623 10.8544C12.6093 11.4014 12.9166 12.1433 12.9166 12.9168C12.9166 13.6904 12.6093 14.4322 12.0623 14.9792C11.5153 15.5262 10.7735 15.8335 9.99992 15.8335C9.53968 15.8335 9.16659 15.4604 9.16659 15.0002C9.16659 14.5399 9.53968 14.1668 9.99992 14.1668C10.3314 14.1668 10.6494 14.0351 10.8838 13.8007C11.1182 13.5663 11.2499 13.2484 11.2499 12.9168C11.2499 12.5853 11.1182 12.2674 10.8838 12.0329C10.6494 11.7985 10.3314 11.6668 9.99992 11.6668C9.22637 11.6668 8.48451 11.3595 7.93752 10.8126C7.39054 10.2656 7.08325 9.52371 7.08325 8.75016C7.08325 7.97661 7.39054 7.23475 7.93752 6.68777C8.48451 6.14079 9.22637 5.8335 9.99992 5.8335C10.4602 5.8335 10.8333 6.20659 10.8333 6.66683C10.8333 7.12707 10.4602 7.50016 9.99992 7.50016Z" fill="black"/>
</svg>
