<svg width="20" height="20" viewBox="0 0 20 20" fill="none" xmlns="http://www.w3.org/2000/svg">
<path fill-rule="evenodd" clip-rule="evenodd" d="M10.0001 5.83317C7.6989 5.83317 5.83341 7.69865 5.83341 9.99984C5.83341 12.301 7.6989 14.1665 10.0001 14.1665C12.3013 14.1665 14.1667 12.301 14.1667 9.99984C14.1667 7.69865 12.3013 5.83317 10.0001 5.83317ZM4.16675 9.99984C4.16675 6.77818 6.77842 4.1665 10.0001 4.1665C13.2217 4.1665 15.8334 6.77818 15.8334 9.99984C15.8334 13.2215 13.2217 15.8332 10.0001 15.8332C6.77842 15.8332 4.16675 13.2215 4.16675 9.99984Z" fill="black"/>
<path fill-rule="evenodd" clip-rule="evenodd" d="M10.0001 7.5C10.4603 7.5 10.8334 7.8731 10.8334 8.33333V9.65482L11.4227 10.2441C11.7481 10.5695 11.7481 11.0972 11.4227 11.4226C11.0972 11.748 10.5696 11.748 10.2442 11.4226L9.41083 10.5893C9.25455 10.433 9.16675 10.221 9.16675 10V8.33333C9.16675 7.8731 9.53984 7.5 10.0001 7.5Z" fill="black"/>
<path fill-rule="evenodd" clip-rule="evenodd" d="M8.87389 0.833314H11.0929C11.6764 0.824181 12.2449 1.01951 12.6996 1.3856C13.1565 1.75336 13.4695 2.27002 13.5839 2.84522C13.584 2.84547 13.584 2.84572 13.5841 2.84597L14.2589 6.21988C14.3491 6.67118 14.0564 7.1102 13.6051 7.20047C13.1538 7.29073 12.7148 6.99804 12.6246 6.54674L11.9493 3.17066C11.9112 2.97883 11.8069 2.80651 11.6545 2.68387C11.5022 2.56123 11.3115 2.49608 11.116 2.49983C11.1107 2.49993 11.1054 2.49998 11.1 2.49998H8.86671C8.86138 2.49998 8.85606 2.49993 8.85074 2.49983C8.6552 2.49608 8.46457 2.56123 8.31222 2.68387C8.16039 2.80609 8.05622 2.97765 8.0178 3.16869L7.36834 6.54091C7.2813 6.99284 6.84437 7.28865 6.39244 7.20161C5.94051 7.11457 5.64471 6.67765 5.73174 6.22572L6.38175 2.85072C6.38205 2.84913 6.38236 2.84755 6.38267 2.84597C6.49698 2.27047 6.81006 1.75352 7.26711 1.3856C7.72187 1.01951 8.29034 0.824181 8.87389 0.833314Z" fill="black"/>
<path fill-rule="evenodd" clip-rule="evenodd" d="M13.6717 12.7746C14.123 12.8649 14.4157 13.3039 14.3255 13.7552L13.6507 17.1291C13.6506 17.1294 13.6506 17.1297 13.6505 17.1299C13.5361 17.7051 13.2231 18.2218 12.7663 18.5895C12.3115 18.9556 11.743 19.1509 11.1595 19.1418H8.90715C8.32361 19.1509 7.75514 18.9556 7.30038 18.5895C6.84349 18.2217 6.53047 17.705 6.41607 17.1297C6.41603 17.1295 6.41599 17.1293 6.41595 17.1291L5.7495 13.7969C5.65924 13.3456 5.95192 12.9066 6.40322 12.8163C6.85452 12.7261 7.29354 13.0187 7.3838 13.47L8.05068 16.8044C8.08878 16.9963 8.19314 17.1686 8.34549 17.2912C8.49784 17.4139 8.68847 17.479 8.88402 17.4753C8.88934 17.4752 8.89466 17.4751 8.89998 17.4751H11.1666C11.172 17.4751 11.1773 17.4752 11.1826 17.4753C11.3782 17.479 11.5688 17.4139 11.7211 17.2912C11.8735 17.1686 11.9778 16.9963 12.0159 16.8044L12.6912 13.4284C12.7814 12.9771 13.2204 12.6844 13.6717 12.7746Z" fill="black"/>
</svg>
