<svg width="20" height="20" viewBox="0 0 20 20" fill="none" xmlns="http://www.w3.org/2000/svg">
<path fill-rule="evenodd" clip-rule="evenodd" d="M5.34753 6.32435C4.906 6.53628 4.39171 6.66683 3.74994 6.66683C3.09262 6.66683 2.57136 6.53844 2.12656 6.32321C1.71078 6.12203 1.39372 5.85765 1.15391 5.65768C1.14692 5.65185 1.13998 5.64607 1.13312 5.64035C0.779555 5.34571 0.731785 4.82024 1.02642 4.46668C1.32106 4.11311 1.84653 4.06534 2.20009 4.35998C2.45791 4.57483 2.63457 4.7175 2.85249 4.82295C3.05352 4.92022 3.32393 5.00016 3.74994 5.00016C4.14984 5.00016 4.41679 4.92238 4.62631 4.82181C4.85358 4.71272 5.04393 4.56445 5.31269 4.34944C5.31967 4.34386 5.32671 4.33823 5.3338 4.33254C5.58313 4.13298 5.90698 3.87376 6.31902 3.67598C6.76054 3.46405 7.27484 3.3335 7.91661 3.3335C8.57393 3.3335 9.09519 3.46189 9.53999 3.67711C9.95577 3.8783 10.2728 4.14268 10.5126 4.34264C10.5196 4.34848 10.5266 4.35426 10.5334 4.35998C10.7912 4.57483 10.9679 4.7175 11.1858 4.82295C11.3869 4.92022 11.6573 5.00016 12.0833 5.00016C12.4832 5.00016 12.7501 4.92238 12.9596 4.82181C13.1869 4.71272 13.3773 4.56445 13.646 4.34944C13.653 4.34386 13.66 4.33823 13.6671 4.33255C13.9165 4.13298 14.2403 3.87376 14.6524 3.67598C15.0939 3.46405 15.6082 3.3335 16.2499 3.3335C16.9073 3.3335 17.4285 3.46189 17.8733 3.67711C18.2891 3.87829 18.6062 4.14268 18.846 4.34264C18.853 4.34847 18.8599 4.35426 18.8668 4.35998C19.2203 4.65462 19.2681 5.18009 18.9735 5.53365C18.6788 5.88721 18.1534 5.93498 17.7998 5.64035C17.542 5.4255 17.3653 5.28283 17.1474 5.17738C16.9464 5.0801 16.676 5.00016 16.2499 5.00016C15.85 5.00016 15.5831 5.07795 15.3736 5.17852C15.1463 5.28761 14.956 5.43587 14.6872 5.65089C14.6802 5.65647 14.6732 5.6621 14.6661 5.66778C14.4168 5.86734 14.0929 6.12657 13.6809 6.32435C13.2393 6.53628 12.725 6.66683 12.0833 6.66683C11.426 6.66683 10.9047 6.53844 10.4599 6.32321C10.0441 6.12203 9.72705 5.85765 9.48725 5.65768C9.48025 5.65185 9.47332 5.64607 9.46645 5.64035C9.20863 5.4255 9.03198 5.28283 8.81406 5.17738C8.61302 5.0801 8.34262 5.00016 7.91661 5.00016C7.51671 5.00016 7.24975 5.07795 7.04024 5.17852C6.81297 5.28761 6.62262 5.43587 6.35385 5.65089C6.34688 5.65647 6.33984 5.6621 6.33274 5.66778C6.08342 5.86735 5.75957 6.12657 5.34753 6.32435Z" fill="black"/>
<path fill-rule="evenodd" clip-rule="evenodd" d="M5.34753 11.3243C4.906 11.5363 4.39171 11.6668 3.74994 11.6668C3.09262 11.6668 2.57136 11.5384 2.12656 11.3232C1.71078 11.122 1.39372 10.8576 1.15391 10.6577C1.14692 10.6518 1.13998 10.6461 1.13312 10.6403C0.779555 10.3457 0.731785 9.82024 1.02642 9.46668C1.32106 9.11311 1.84653 9.06534 2.20009 9.35998C2.45791 9.57483 2.63457 9.7175 2.85249 9.82295C3.05352 9.92022 3.32393 10.0002 3.74994 10.0002C4.14984 10.0002 4.41679 9.92238 4.62631 9.82181C4.85358 9.71272 5.04393 9.56445 5.31269 9.34944C5.31967 9.34386 5.32671 9.33823 5.3338 9.33254C5.58313 9.13298 5.90698 8.87376 6.31902 8.67598C6.76054 8.46405 7.27484 8.3335 7.91661 8.3335C8.57393 8.3335 9.09519 8.46189 9.53999 8.67711C9.95577 8.8783 10.2728 9.14268 10.5126 9.34264C10.5196 9.34848 10.5266 9.35426 10.5334 9.35998C10.7912 9.57483 10.9679 9.7175 11.1858 9.82295C11.3869 9.92022 11.6573 10.0002 12.0833 10.0002C12.4832 10.0002 12.7501 9.92238 12.9596 9.82181C13.1869 9.71272 13.3773 9.56445 13.646 9.34944C13.653 9.34386 13.66 9.33823 13.6671 9.33255C13.9165 9.13298 14.2403 8.87376 14.6524 8.67598C15.0939 8.46405 15.6082 8.3335 16.2499 8.3335C16.9073 8.3335 17.4285 8.46189 17.8733 8.67711C18.2891 8.87829 18.6062 9.14268 18.846 9.34264C18.853 9.34847 18.8599 9.35426 18.8668 9.35998C19.2203 9.65462 19.2681 10.1801 18.9735 10.5336C18.6788 10.8872 18.1534 10.935 17.7998 10.6403C17.542 10.4255 17.3653 10.2828 17.1474 10.1774C16.9464 10.0801 16.676 10.0002 16.2499 10.0002C15.85 10.0002 15.5831 10.0779 15.3736 10.1785C15.1463 10.2876 14.956 10.4359 14.6872 10.6509C14.6802 10.6565 14.6732 10.6621 14.6661 10.6678C14.4168 10.8673 14.0929 11.1266 13.6809 11.3243C13.2393 11.5363 12.725 11.6668 12.0833 11.6668C11.426 11.6668 10.9047 11.5384 10.4599 11.3232C10.0441 11.122 9.72705 10.8576 9.48725 10.6577C9.48025 10.6518 9.47332 10.6461 9.46645 10.6403C9.20863 10.4255 9.03198 10.2828 8.81406 10.1774C8.61302 10.0801 8.34262 10.0002 7.91661 10.0002C7.51671 10.0002 7.24975 10.0779 7.04024 10.1785C6.81297 10.2876 6.62262 10.4359 6.35385 10.6509C6.34688 10.6565 6.33984 10.6621 6.33274 10.6678C6.08342 10.8673 5.75957 11.1266 5.34753 11.3243Z" fill="black"/>
<path fill-rule="evenodd" clip-rule="evenodd" d="M5.34753 16.3243C4.906 16.5363 4.39171 16.6668 3.74994 16.6668C3.09262 16.6668 2.57136 16.5384 2.12656 16.3232C1.71078 16.122 1.39372 15.8576 1.15391 15.6577C1.14692 15.6518 1.13998 15.6461 1.13312 15.6403C0.779555 15.3457 0.731785 14.8202 1.02642 14.4667C1.32106 14.1131 1.84653 14.0653 2.20009 14.36C2.45791 14.5748 2.63457 14.7175 2.85249 14.8229C3.05352 14.9202 3.32393 15.0002 3.74994 15.0002C4.14984 15.0002 4.41679 14.9224 4.62631 14.8218C4.85358 14.7127 5.04393 14.5645 5.31269 14.3494C5.31967 14.3439 5.32671 14.3382 5.3338 14.3325C5.58313 14.133 5.90698 13.8738 6.31902 13.676C6.76054 13.464 7.27484 13.3335 7.91661 13.3335C8.57393 13.3335 9.09519 13.4619 9.53999 13.6771C9.95577 13.8783 10.2728 14.1427 10.5126 14.3426C10.5196 14.3485 10.5266 14.3543 10.5334 14.36C10.7912 14.5748 10.9679 14.7175 11.1858 14.8229C11.3869 14.9202 11.6573 15.0002 12.0833 15.0002C12.4832 15.0002 12.7501 14.9224 12.9596 14.8218C13.1869 14.7127 13.3773 14.5645 13.646 14.3494C13.653 14.3439 13.66 14.3382 13.6671 14.3326C13.9165 14.133 14.2403 13.8738 14.6524 13.676C15.0939 13.464 15.6082 13.3335 16.2499 13.3335C16.9073 13.3335 17.4285 13.4619 17.8733 13.6771C18.2891 13.8783 18.6062 14.1427 18.846 14.3426C18.853 14.3485 18.8599 14.3543 18.8668 14.36C19.2203 14.6546 19.2681 15.1801 18.9735 15.5336C18.6788 15.8872 18.1534 15.935 17.7998 15.6403C17.542 15.4255 17.3653 15.2828 17.1474 15.1774C16.9464 15.0801 16.676 15.0002 16.2499 15.0002C15.85 15.0002 15.5831 15.0779 15.3736 15.1785C15.1463 15.2876 14.956 15.4359 14.6872 15.6509C14.6802 15.6565 14.6732 15.6621 14.6661 15.6678C14.4168 15.8673 14.0929 16.1266 13.6809 16.3243C13.2393 16.5363 12.725 16.6668 12.0833 16.6668C11.426 16.6668 10.9047 16.5384 10.4599 16.3232C10.0441 16.122 9.72705 15.8576 9.48725 15.6577C9.48025 15.6518 9.47332 15.6461 9.46645 15.6403C9.20863 15.4255 9.03198 15.2828 8.81406 15.1774C8.61302 15.0801 8.34262 15.0002 7.91661 15.0002C7.51671 15.0002 7.24975 15.0779 7.04024 15.1785C6.81297 15.2876 6.62262 15.4359 6.35385 15.6509C6.34688 15.6565 6.33984 15.6621 6.33274 15.6678C6.08342 15.8673 5.75957 16.1266 5.34753 16.3243Z" fill="black"/>
</svg>
