<svg width="20" height="20" viewBox="0 0 20 20" fill="none" xmlns="http://www.w3.org/2000/svg">
<g clip-path="url(#clip0_2001_11300)">
<path fill-rule="evenodd" clip-rule="evenodd" d="M9.99992 2.50016C9.30956 2.50016 8.74992 3.05981 8.74992 3.75016C8.74992 4.44052 9.30956 5.00016 9.99992 5.00016C10.6903 5.00016 11.2499 4.44052 11.2499 3.75016C11.2499 3.05981 10.6903 2.50016 9.99992 2.50016ZM7.08325 3.75016C7.08325 2.13933 8.38909 0.833496 9.99992 0.833496C11.6107 0.833496 12.9166 2.13933 12.9166 3.75016C12.9166 5.36099 11.6107 6.66683 9.99992 6.66683C8.38909 6.66683 7.08325 5.36099 7.08325 3.75016Z" fill="black"/>
<path fill-rule="evenodd" clip-rule="evenodd" d="M9.08934 4.66058C9.41477 4.98602 9.41477 5.51366 9.08934 5.83909L5.83934 9.08909C5.5139 9.41453 4.98626 9.41453 4.66083 9.08909C4.33539 8.76366 4.33539 8.23602 4.66083 7.91058L7.91083 4.66058C8.23626 4.33514 8.7639 4.33514 9.08934 4.66058Z" fill="black"/>
<path fill-rule="evenodd" clip-rule="evenodd" d="M3.74992 8.75016C3.05956 8.75016 2.49992 9.30981 2.49992 10.0002C2.49992 10.6905 3.05956 11.2502 3.74992 11.2502C4.44027 11.2502 4.99992 10.6905 4.99992 10.0002C4.99992 9.30981 4.44027 8.75016 3.74992 8.75016ZM0.833252 10.0002C0.833252 8.38933 2.13909 7.0835 3.74992 7.0835C5.36075 7.0835 6.66659 8.38933 6.66659 10.0002C6.66659 11.611 5.36075 12.9168 3.74992 12.9168C2.13909 12.9168 0.833252 11.611 0.833252 10.0002Z" fill="black"/>
<path fill-rule="evenodd" clip-rule="evenodd" d="M5 9.99984C5 9.5396 5.3731 9.1665 5.83333 9.1665H14.1667C14.6269 9.1665 15 9.5396 15 9.99984C15 10.4601 14.6269 10.8332 14.1667 10.8332H5.83333C5.3731 10.8332 5 10.4601 5 9.99984Z" fill="black"/>
<path fill-rule="evenodd" clip-rule="evenodd" d="M16.2499 8.75016C15.5596 8.75016 14.9999 9.30981 14.9999 10.0002C14.9999 10.6905 15.5596 11.2502 16.2499 11.2502C16.9403 11.2502 17.4999 10.6905 17.4999 10.0002C17.4999 9.30981 16.9403 8.75016 16.2499 8.75016ZM13.3333 10.0002C13.3333 8.38933 14.6391 7.0835 16.2499 7.0835C17.8607 7.0835 19.1666 8.38933 19.1666 10.0002C19.1666 11.611 17.8607 12.9168 16.2499 12.9168C14.6391 12.9168 13.3333 11.611 13.3333 10.0002Z" fill="black"/>
<path fill-rule="evenodd" clip-rule="evenodd" d="M15.3393 10.9106C15.6648 11.236 15.6648 11.7637 15.3393 12.0891L12.0893 15.3391C11.7639 15.6645 11.2363 15.6645 10.9108 15.3391C10.5854 15.0137 10.5854 14.486 10.9108 14.1606L14.1608 10.9106C14.4863 10.5851 15.0139 10.5851 15.3393 10.9106Z" fill="black"/>
<path fill-rule="evenodd" clip-rule="evenodd" d="M9.99992 15.0002C9.30956 15.0002 8.74992 15.5598 8.74992 16.2502C8.74992 16.9405 9.30956 17.5002 9.99992 17.5002C10.6903 17.5002 11.2499 16.9405 11.2499 16.2502C11.2499 15.5598 10.6903 15.0002 9.99992 15.0002ZM7.08325 16.2502C7.08325 14.6393 8.38909 13.3335 9.99992 13.3335C11.6107 13.3335 12.9166 14.6393 12.9166 16.2502C12.9166 17.861 11.6107 19.1668 9.99992 19.1668C8.38909 19.1668 7.08325 17.861 7.08325 16.2502Z" fill="black"/>
</g>
<defs>
<clipPath id="clip0_2001_11300">
<rect width="20" height="20" fill="white"/>
</clipPath>
</defs>
</svg>
