<svg width="20" height="20" viewBox="0 0 20 20" fill="none" xmlns="http://www.w3.org/2000/svg">
<path fill-rule="evenodd" clip-rule="evenodd" d="M10 2.50016C6.77834 2.50016 4.16667 5.11184 4.16667 8.3335C4.16667 11.5552 6.77834 14.1668 10 14.1668C13.2217 14.1668 15.8333 11.5552 15.8333 8.3335C15.8333 5.11184 13.2217 2.50016 10 2.50016ZM2.5 8.3335C2.5 4.19136 5.85786 0.833496 10 0.833496C14.1421 0.833496 17.5 4.19136 17.5 8.3335C17.5 12.4756 14.1421 15.8335 10 15.8335C5.85786 15.8335 2.5 12.4756 2.5 8.3335Z" fill="black"/>
<path fill-rule="evenodd" clip-rule="evenodd" d="M10.0001 6.66667C9.07961 6.66667 8.33341 7.41286 8.33341 8.33333C8.33341 9.25381 9.07961 10 10.0001 10C10.9206 10 11.6667 9.25381 11.6667 8.33333C11.6667 7.41286 10.9206 6.66667 10.0001 6.66667ZM6.66675 8.33333C6.66675 6.49238 8.15913 5 10.0001 5C11.841 5 13.3334 6.49238 13.3334 8.33333C13.3334 10.1743 11.841 11.6667 10.0001 11.6667C8.15913 11.6667 6.66675 10.1743 6.66675 8.33333Z" fill="black"/>
<path fill-rule="evenodd" clip-rule="evenodd" d="M5 18.3333C5 17.8731 5.3731 17.5 5.83333 17.5H14.1667C14.6269 17.5 15 17.8731 15 18.3333C15 18.7936 14.6269 19.1667 14.1667 19.1667H5.83333C5.3731 19.1667 5 18.7936 5 18.3333Z" fill="black"/>
<path fill-rule="evenodd" clip-rule="evenodd" d="M10.0001 14.1665C10.4603 14.1665 10.8334 14.5396 10.8334 14.9998V18.3332C10.8334 18.7934 10.4603 19.1665 10.0001 19.1665C9.53984 19.1665 9.16675 18.7934 9.16675 18.3332V14.9998C9.16675 14.5396 9.53984 14.1665 10.0001 14.1665Z" fill="black"/>
</svg>
