<svg width="20" height="20" viewBox="0 0 20 20" fill="none" xmlns="http://www.w3.org/2000/svg">
<path fill-rule="evenodd" clip-rule="evenodd" d="M2.57899 11.7906C2.97073 12.0322 3.09247 12.5456 2.85089 12.9374C2.62794 13.2989 2.50728 13.731 2.49993 14.1724C2.50145 14.7278 2.68788 15.267 3.02989 15.7047C3.37314 16.1441 3.8534 16.4561 4.39434 16.5911C4.93527 16.7262 5.50583 16.6765 6.01531 16.4501C6.52479 16.2236 6.94395 15.8334 7.20617 15.3414C7.2081 15.3377 7.21006 15.3341 7.21205 15.3305C7.67728 14.4878 8.59872 13.3166 10.0083 13.3166H14.9999C15.4602 13.3166 15.8333 13.6897 15.8333 14.15C15.8333 14.6102 15.4602 14.9833 14.9999 14.9833H10.0083C9.58536 14.9833 9.09136 15.377 8.67382 16.1312C8.23659 16.9484 7.53931 17.5966 6.69223 17.9731C5.8431 18.3505 4.89217 18.4332 3.99062 18.2082C3.08906 17.9831 2.28862 17.4631 1.71653 16.7308C1.14444 15.9986 0.833542 15.0961 0.833252 14.1669C0.833251 14.1628 0.833279 14.1588 0.833337 14.1547C0.843668 13.4316 1.03959 12.6993 1.43228 12.0625C1.67385 11.6708 2.18725 11.5491 2.57899 11.7906Z" fill="black"/>
<path fill-rule="evenodd" clip-rule="evenodd" d="M10.6753 2.58765C10.3532 2.49986 10.0168 2.47748 9.68594 2.52182C9.35506 2.56616 9.03641 2.67632 8.74879 2.8458C8.46116 3.01529 8.2104 3.24066 8.01129 3.50862C7.81219 3.77659 7.66876 4.08172 7.58949 4.40601C7.51021 4.7303 7.49669 5.06718 7.54972 5.39679C7.60237 5.72405 7.71957 6.03756 7.89449 6.31907C8.17919 6.75706 8.44376 7.29275 8.56771 7.86717C8.69334 8.44939 8.68291 9.12049 8.34044 9.74831C8.34016 9.74881 8.33989 9.74931 8.33962 9.7498L5.73278 14.5637C5.51363 14.9684 5.00788 15.1188 4.60318 14.8997C4.19847 14.6805 4.04805 14.1748 4.26721 13.7701L6.87554 8.95341C6.87604 8.95249 6.87654 8.95158 6.87704 8.95066C6.97543 8.77058 7.00656 8.53395 6.93854 8.21871C6.86943 7.89845 6.70713 7.54945 6.49365 7.22212C6.49076 7.21768 6.4879 7.2132 6.48509 7.2087C6.1901 6.73693 5.99259 6.21086 5.90421 5.66153C5.81583 5.11219 5.83837 4.55072 5.97049 4.01023C6.10262 3.46975 6.34166 2.9612 6.67351 2.51459C7.00536 2.06798 7.42329 1.69236 7.90266 1.40989C8.38203 1.12742 8.91311 0.943818 9.46458 0.869921C10.0161 0.796023 10.5767 0.833325 11.1136 0.979625C11.6504 1.12593 12.1525 1.37826 12.5902 1.72175C13.0279 2.06523 13.3924 2.4929 13.6622 2.97954C13.8853 3.38206 13.7399 3.88927 13.3374 4.1124C12.9348 4.33554 12.4276 4.19012 12.2045 3.78759C12.0426 3.49561 11.8239 3.23901 11.5613 3.03292C11.2987 2.82683 10.9974 2.67543 10.6753 2.58765Z" fill="black"/>
<path fill-rule="evenodd" clip-rule="evenodd" d="M9.6005 4.26866C10.0044 4.04803 10.5107 4.1966 10.7313 4.6005L13.3396 9.37542C13.3396 9.37545 13.3396 9.37548 13.3397 9.3755C13.5453 9.75175 14.1374 9.99999 15 9.99999C16.1051 9.99999 17.1649 10.439 17.9463 11.2204C18.7277 12.0018 19.1667 13.0616 19.1667 14.1667C19.1667 15.2717 18.7277 16.3315 17.9463 17.1129C17.1649 17.8943 16.1051 18.3333 15 18.3333C14.5398 18.3333 14.1667 17.9602 14.1667 17.5C14.1667 17.0398 14.5398 16.6667 15 16.6667C15.663 16.6667 16.2989 16.4033 16.7678 15.9344C17.2366 15.4656 17.5 14.8297 17.5 14.1667C17.5 13.5036 17.2366 12.8677 16.7678 12.3989C16.2989 11.9301 15.663 11.6667 15 11.6667C14.0293 11.6667 12.5548 11.4149 11.877 10.1746L9.26866 5.39948C9.04803 4.99558 9.1966 4.48929 9.6005 4.26866Z" fill="black"/>
</svg>
