<svg width="20" height="20" viewBox="0 0 20 20" fill="none" xmlns="http://www.w3.org/2000/svg">
<g clip-path="url(#clip0_2001_11313)">
<path fill-rule="evenodd" clip-rule="evenodd" d="M2.55045 11.7738C2.95154 11.9995 3.0937 12.5076 2.86798 12.9087C2.70825 13.1925 2.60599 13.505 2.56704 13.8284C2.52808 14.1517 2.5532 14.4795 2.64095 14.7932C2.7287 15.1068 2.87736 15.4001 3.07845 15.6563C3.27955 15.9125 3.52913 16.1265 3.81295 16.2863C4.09677 16.446 4.40928 16.5482 4.73262 16.5872C5.05596 16.6262 5.38381 16.601 5.69745 16.5133C6.01108 16.4255 6.30436 16.2769 6.56055 16.0758C6.81673 15.8747 7.0308 15.6251 7.19052 15.3413C7.19141 15.3397 7.19231 15.3381 7.19321 15.3365C7.45491 14.8786 7.80564 14.3902 8.25391 14.0102C8.70527 13.6275 9.29642 13.3228 10.0069 13.3333H14.1667C14.627 13.3333 15.0001 13.7064 15.0001 14.1667C15.0001 14.6269 14.627 15 14.1667 15H10.0001C9.99499 15 9.98989 14.9999 9.9848 14.9998C9.79073 14.9963 9.57644 15.074 9.33167 15.2815C9.08253 15.4927 8.84622 15.8035 8.64153 16.1613C8.37461 16.6348 8.01721 17.0512 7.58964 17.3868C7.16129 17.723 6.67091 17.9716 6.1465 18.1183C5.62209 18.265 5.07391 18.307 4.53327 18.2419C3.99263 18.1768 3.47011 18.0058 2.99555 17.7387C2.52099 17.4716 2.10368 17.1137 1.76744 16.6854C1.43121 16.257 1.18263 15.7666 1.03592 15.2422C0.889196 14.7178 0.847204 14.1696 0.912337 13.629C0.97747 13.0884 1.14845 12.5658 1.41552 12.0913C1.64124 11.6902 2.14937 11.548 2.55045 11.7738Z" fill="black"/>
<path fill-rule="evenodd" clip-rule="evenodd" d="M10.276 2.52313C9.87613 2.48265 9.47239 2.53918 9.09902 2.68792C8.72564 2.83666 8.39363 3.07322 8.13113 3.37756C7.83052 3.72607 7.30432 3.76491 6.95581 3.46431C6.6073 3.16371 6.56847 2.6375 6.86907 2.28899C7.30657 1.78176 7.85993 1.38748 8.48222 1.13958C9.10451 0.891684 9.7774 0.797474 10.4438 0.864936C11.1103 0.932398 11.7507 1.15955 12.3106 1.52712C12.8706 1.8947 13.3337 2.39187 13.6607 2.97649C13.8854 3.37817 13.7419 3.88592 13.3402 4.11058C12.9385 4.33524 12.4308 4.19174 12.2061 3.79006C12.0099 3.43929 11.7321 3.14099 11.3961 2.92044C11.0601 2.69989 10.6759 2.56361 10.276 2.52313Z" fill="black"/>
<path fill-rule="evenodd" clip-rule="evenodd" d="M7.31029 6.85584C7.73512 6.67881 8.22302 6.87968 8.40005 7.30451C8.55869 7.6852 8.63479 8.09521 8.62333 8.50748C8.61187 8.91974 8.5131 9.32489 8.33355 9.69618C8.32866 9.70629 8.32357 9.7163 8.31828 9.7262L5.73494 14.5595C5.518 14.9654 5.01308 15.1186 4.60719 14.9017C4.20129 14.6847 4.04811 14.1798 4.26506 13.7739L6.83944 8.95732C6.91239 8.80184 6.95253 8.63294 6.95731 8.46115C6.96222 8.28447 6.9296 8.10875 6.86162 7.9456C6.68458 7.52077 6.88546 7.03287 7.31029 6.85584Z" fill="black"/>
<path fill-rule="evenodd" clip-rule="evenodd" d="M17.6042 16.4459C17.8643 16.8256 17.7674 17.3442 17.3878 17.6044C16.6828 18.0874 15.8464 18.3419 14.9919 18.3335C14.5317 18.329 14.1623 17.9523 14.1668 17.4921C14.1713 17.0319 14.548 16.6624 15.0082 16.6669C15.5209 16.672 16.0228 16.5192 16.4457 16.2294C16.8254 15.9693 17.3441 16.0662 17.6042 16.4459Z" fill="black"/>
<path fill-rule="evenodd" clip-rule="evenodd" d="M14.6763 10.7071C14.746 10.2522 15.1714 9.93998 15.6263 10.0097C16.5148 10.146 17.3354 10.566 17.9656 11.2069C18.5958 11.8478 19.0019 12.6753 19.1232 13.566C19.1853 14.022 18.8659 14.4421 18.4099 14.5042C17.9539 14.5663 17.5338 14.2469 17.4717 13.7909C17.399 13.2565 17.1553 12.76 16.7772 12.3754C16.3991 11.9909 15.9067 11.7389 15.3736 11.6572C14.9187 11.5874 14.6065 11.162 14.6763 10.7071Z" fill="black"/>
<path fill-rule="evenodd" clip-rule="evenodd" d="M9.57122 4.28539C9.96587 4.0486 10.4778 4.17657 10.7145 4.57122L11.2145 5.40455C11.4513 5.7992 11.3234 6.31108 10.9287 6.54787C10.5341 6.78466 10.0222 6.65669 9.78539 6.26204L9.28539 5.42871C9.0486 5.03406 9.17657 4.52218 9.57122 4.28539Z" fill="black"/>
<path fill-rule="evenodd" clip-rule="evenodd" d="M1.07733 1.07757C1.40277 0.752137 1.9304 0.752137 2.25584 1.07757L18.9225 17.7442C19.2479 18.0697 19.2479 18.5973 18.9225 18.9228C18.5971 19.2482 18.0694 19.2482 17.744 18.9228L1.07733 2.25609C0.751893 1.93065 0.751893 1.40301 1.07733 1.07757Z" fill="black"/>
</g>
<defs>
<clipPath id="clip0_2001_11313">
<rect width="20" height="20" fill="white"/>
</clipPath>
</defs>
</svg>
