<svg width="20" height="20" viewBox="0 0 20 20" fill="none" xmlns="http://www.w3.org/2000/svg">
<path fill-rule="evenodd" clip-rule="evenodd" d="M10.0001 2.50016C9.07961 2.50016 8.33341 3.24635 8.33341 4.16683C8.33341 5.0873 9.07961 5.8335 10.0001 5.8335C10.9206 5.8335 11.6667 5.0873 11.6667 4.16683C11.6667 3.24635 10.9206 2.50016 10.0001 2.50016ZM6.66675 4.16683C6.66675 2.32588 8.15913 0.833496 10.0001 0.833496C11.841 0.833496 13.3334 2.32588 13.3334 4.16683C13.3334 6.00778 11.841 7.50016 10.0001 7.50016C8.15913 7.50016 6.66675 6.00778 6.66675 4.16683Z" fill="black"/>
<path fill-rule="evenodd" clip-rule="evenodd" d="M5.40812 5.83354C5.411 5.83351 5.41388 5.8335 5.41677 5.8335H14.5668C14.5691 5.8335 14.5714 5.83351 14.5736 5.83352C15.1243 5.83807 15.6581 6.02433 16.0921 6.36338C16.5234 6.70035 16.8322 7.16949 16.9711 7.69872L19.073 15.1575L19.0733 15.1585C19.1775 15.53 19.1943 15.9206 19.1223 16.2997C19.0504 16.6787 18.8917 17.036 18.6586 17.3435C18.4256 17.651 18.1245 17.9004 17.779 18.0722C17.4335 18.2439 17.0529 18.3334 16.6671 18.3335H3.33343C3.32837 18.3335 3.32332 18.3335 3.31826 18.3334C2.94058 18.3265 2.56938 18.2341 2.23252 18.0632C1.89567 17.8923 1.60193 17.6472 1.37336 17.3465C1.1448 17.0457 0.987359 16.6971 0.912866 16.3268C0.838372 15.9565 0.848765 15.5741 0.943262 15.2084C0.944404 15.2039 0.945583 15.1995 0.946798 15.1951L3.02596 7.66179C3.02626 7.66071 3.02656 7.65962 3.02687 7.65854C3.1729 7.13766 3.48394 6.67821 3.91331 6.34914C4.34267 6.02007 4.86719 5.83915 5.40812 5.83354ZM5.42183 7.50016C5.24278 7.50279 5.06931 7.56302 4.92714 7.67198C4.78439 7.78139 4.68088 7.93403 4.63204 8.1071C4.63191 8.10755 4.63179 8.108 4.63166 8.10845L2.55553 15.6308C2.52534 15.751 2.52234 15.8765 2.5468 15.9981C2.57163 16.1216 2.62411 16.2378 2.7003 16.338C2.77649 16.4383 2.8744 16.5199 2.98669 16.5769C3.0971 16.6329 3.21859 16.6636 3.34231 16.6668H16.6665C16.6666 16.6668 16.6667 16.6668 16.6668 16.6668C16.7953 16.6667 16.922 16.6369 17.0371 16.5797C17.1523 16.5225 17.2526 16.4393 17.3303 16.3368C17.408 16.2343 17.4609 16.1152 17.4849 15.9889C17.5088 15.8628 17.5033 15.7328 17.4687 15.6091C17.4687 15.6089 17.4686 15.6087 17.4685 15.6085L15.3647 8.14287C15.363 8.13697 15.3614 8.13106 15.3599 8.12513C15.314 7.94739 15.2107 7.78977 15.066 7.67675C14.9221 7.56432 14.7453 7.50229 14.5627 7.50016H5.42183Z" fill="black"/>
</svg>
