<svg width="48" height="48" viewBox="0 0 48 48" fill="none" xmlns="http://www.w3.org/2000/svg">
<path d="M24.1001 0C30.4935 0.00317222 36.4943 2.47993 41.0064 6.97571C45.5188 11.4713 48.0024 17.4478 48 23.8023C47.9948 36.7858 37.4857 47.3734 24.495 47.5839L24.1007 47.5871H24.0907C20.1523 47.5857 16.2814 46.6178 12.8312 44.7796L12.6699 44.6927L0 48L3.39056 35.6741C1.29938 32.0678 0.198938 27.9756 0.200625 23.7833C0.205875 10.6695 10.9273 0 24.1001 0ZM24.1084 4.01753C13.1514 4.01753 4.24012 12.8854 4.23581 23.7853C4.23431 27.4636 5.25281 31.048 7.18313 34.1626L7.27275 34.3061L7.74525 35.0542L5.73844 42.349L13.2566 40.3865L13.9821 40.8145C16.9834 42.5871 20.4171 43.5387 23.9227 43.5695L24.0924 43.5703H24.1007C35.0492 43.5703 43.9603 34.7019 43.9648 23.8012C43.9667 18.5189 41.9027 13.5517 38.1521 9.81504C34.4016 6.07835 29.4141 4.0192 24.1084 4.01734M15.639 12.7994C16.0369 12.7994 16.4359 12.8031 16.7835 12.8208C17.1502 12.8387 17.6424 12.6822 18.1269 13.8408C18.3129 14.2849 18.5957 14.971 18.8852 15.6719L18.9473 15.8221C19.4132 16.9501 19.8789 18.0748 19.9686 18.2533C20.1176 18.5506 20.217 18.898 20.0181 19.2944C19.8193 19.6913 19.7194 19.9389 19.4211 20.2864C19.1224 20.6331 18.7941 21.0613 18.5254 21.3274L18.4815 21.3709L18.438 21.4151C18.1717 21.6892 17.949 22.0035 18.2636 22.5398C18.6118 23.135 19.8101 25.0816 21.5854 26.6573C23.8663 28.6819 25.7906 29.3096 26.3878 29.6073C26.985 29.9049 27.3334 29.8551 27.6816 29.458C28.0301 29.0617 29.1742 27.723 29.5725 27.1279C29.9706 26.533 30.3686 26.6325 30.9161 26.8306C31.1762 26.9249 31.9762 27.2992 32.8084 27.6982L33.0671 27.8224C33.9002 28.2236 34.7126 28.6226 34.9965 28.764C35.5937 29.0617 35.9919 29.2104 36.141 29.458C36.2902 29.7062 36.2902 30.8958 35.7926 32.2841C35.295 33.6724 32.9093 34.9394 31.7619 35.1103C30.7331 35.263 29.4313 35.3268 28.0007 34.8748C27.1337 34.6005 26.0211 34.235 24.5962 33.6227C18.606 31.0488 14.6934 25.0454 14.3951 24.6491L14.3749 24.6222C14.0109 24.1382 11.9565 21.367 11.9565 18.501C11.9565 15.576 13.4994 14.1382 14.0466 13.5431C14.5941 12.9486 15.2409 12.7994 15.639 12.7994Z" fill="white"/>
</svg>
