<svg width="20" height="20" viewBox="0 0 20 20" fill="none" xmlns="http://www.w3.org/2000/svg">
<g clip-path="url(#clip0_2001_11328)">
<path fill-rule="evenodd" clip-rule="evenodd" d="M10.5892 9.41058C10.9146 9.73602 10.9146 10.2637 10.5892 10.5891L2.25584 18.9224C1.9304 19.2479 1.40277 19.2479 1.07733 18.9224C0.751893 18.597 0.751893 18.0694 1.07733 17.7439L9.41066 9.41058C9.7361 9.08514 10.2637 9.08514 10.5892 9.41058Z" fill="black"/>
<path fill-rule="evenodd" clip-rule="evenodd" d="M13.9225 6.07757C14.2479 6.40301 14.2479 6.93065 13.9225 7.25609L12.9475 8.23109C12.6221 8.55652 12.0944 8.55652 11.769 8.23109C11.4435 7.90565 11.4435 7.37801 11.769 7.05257L12.744 6.07757C13.0694 5.75214 13.5971 5.75214 13.9225 6.07757Z" fill="black"/>
<path fill-rule="evenodd" clip-rule="evenodd" d="M3.57755 8.57757C3.90298 8.25214 4.43062 8.25214 4.75606 8.57757L6.03222 9.85373C6.73229 10.5566 7.12536 11.5082 7.12536 12.5002C7.12536 13.4922 6.73229 14.4438 6.03222 15.1466L6.03106 15.1478L4.75606 16.4228C4.59978 16.579 4.38782 16.6668 4.1668 16.6668C3.94579 16.6668 3.73383 16.579 3.57755 16.4228L2.30139 15.1466C1.60132 14.4438 1.20825 13.4922 1.20825 12.5002C1.20825 11.5082 1.60132 10.5566 2.30139 9.85373L2.30255 9.85257L3.57755 8.57757ZM3.48169 11.0305C3.48151 11.0306 3.48186 11.0303 3.48169 11.0305C3.09309 11.4209 2.87492 11.9493 2.87492 12.5002C2.87492 13.051 3.09309 13.5795 3.48169 13.9699C3.48151 13.9697 3.48186 13.97 3.48169 13.9699L4.1668 14.655L4.85139 13.9704C4.85122 13.9706 4.85156 13.9702 4.85139 13.9704C5.24 13.58 5.45869 13.051 5.45869 12.5002C5.45869 11.9493 5.24053 11.4209 4.85194 11.0305C4.85176 11.0303 4.85213 11.0307 4.85194 11.0305L4.1668 10.3453L3.48169 11.0305Z" fill="black"/>
<path fill-rule="evenodd" clip-rule="evenodd" d="M7.25598 6.07757C7.58141 6.40301 7.58141 6.93065 7.25598 7.25609L6.81547 7.69659C6.8153 7.69676 6.81513 7.69693 6.81496 7.6971C6.42635 8.08752 6.20817 8.61596 6.20817 9.16683C6.20817 9.71767 6.42633 10.2461 6.8149 10.6365C6.81509 10.6367 6.81528 10.6369 6.81547 10.6371L7.50006 11.3217L8.1858 10.6359C8.51127 10.3104 8.70703 9.89569 8.76631 9.46886C8.82963 9.01299 9.2505 8.69477 9.70636 8.75809C10.1622 8.8214 10.4804 9.24227 10.4171 9.69814C10.3097 10.4713 9.95551 11.2232 9.36431 11.8144L8.08931 13.0894C7.76387 13.4149 7.23624 13.4149 6.9108 13.0894L5.6358 11.8144L5.63464 11.8133C4.93457 11.1104 4.5415 10.1588 4.5415 9.16683C4.5415 8.17482 4.93457 7.22323 5.63464 6.5204L5.6358 6.51924L5.6358 6.51924L6.07747 6.07757C6.4029 5.75214 6.93054 5.75214 7.25598 6.07757Z" fill="black"/>
<path fill-rule="evenodd" clip-rule="evenodd" d="M10.8334 1.6665C11.0545 1.6665 11.2664 1.7543 11.4227 1.91058L12.6991 3.18702C13.3431 3.83417 13.7289 4.69403 13.7842 5.60535C13.8394 6.51666 13.5603 7.41683 12.9991 8.13702C12.7163 8.50006 12.1926 8.56506 11.8296 8.28219C11.4665 7.99932 11.4015 7.4757 11.6844 7.11266C11.9962 6.71255 12.1512 6.21246 12.1205 5.70617C12.0899 5.20019 11.8758 4.72275 11.5184 4.3633C11.5182 4.36308 11.518 4.36287 11.5178 4.36266L10.8334 3.67835L10.1477 4.36409C10.0168 4.49499 9.90278 4.64501 9.81359 4.79961C9.5836 5.19826 9.07399 5.33498 8.67534 5.10499C8.27669 4.875 8.13996 4.36539 8.36995 3.96674C8.53076 3.68799 8.73341 3.42135 8.96918 3.18558L10.2442 1.91058C10.4005 1.7543 10.6124 1.6665 10.8334 1.6665Z" fill="black"/>
<path fill-rule="evenodd" clip-rule="evenodd" d="M16.6667 2.50016C16.0036 2.50016 15.3677 2.76355 14.8989 3.2324C14.4301 3.70124 14.1667 4.33712 14.1667 5.00016V5.8335H15C15.663 5.8335 16.2989 5.5701 16.7678 5.10126C17.2366 4.63242 17.5 3.99654 17.5 3.3335V2.50016H16.6667ZM13.7204 2.05388C14.5018 1.27248 15.5616 0.833496 16.6667 0.833496H18.3333C18.7936 0.833496 19.1667 1.20659 19.1667 1.66683V3.3335C19.1667 4.43857 18.7277 5.49837 17.9463 6.27977C17.1649 7.06118 16.1051 7.50016 15 7.50016H13.3333C12.8731 7.50016 12.5 7.12707 12.5 6.66683V5.00016C12.5 3.89509 12.939 2.83529 13.7204 2.05388Z" fill="black"/>
<path fill-rule="evenodd" clip-rule="evenodd" d="M6.02968 15.149C6.0295 15.1491 6.02986 15.1488 6.02968 15.149L5.3451 15.8336L6.02968 16.5181C6.02951 16.518 6.02985 16.5183 6.02968 16.5181C6.42009 16.9067 6.94904 17.1254 7.49992 17.1254C8.05077 17.1254 8.57919 16.9073 8.9696 16.5187C8.96942 16.5189 8.96979 16.5185 8.9696 16.5187L9.65474 15.8336L8.97016 15.149C8.96997 15.1488 8.97034 15.1491 8.97016 15.149C8.57975 14.7604 8.05077 14.5417 7.49992 14.5417C6.94905 14.5417 6.42009 14.7604 6.02968 15.149ZM4.85349 13.9681C5.55632 13.2681 6.50791 12.875 7.49992 12.875C8.49192 12.875 9.44351 13.2681 10.1463 13.9681L10.1475 13.9693L11.4225 15.2443C11.7479 15.5697 11.7479 16.0974 11.4225 16.4228L10.1475 17.6978L10.1463 17.699C9.44351 18.399 8.49192 18.7921 7.49992 18.7921C6.50791 18.7921 5.55632 18.399 4.85349 17.699L3.57733 16.4228C3.25189 16.0974 3.25189 15.5697 3.57733 15.2443L4.85349 13.9681Z" fill="black"/>
<path fill-rule="evenodd" clip-rule="evenodd" d="M11.2418 10.2916C11.3065 10.7473 10.9895 11.1691 10.5338 11.2337C10.0912 11.2965 9.68064 11.5006 9.36337 11.8155L8.67859 12.5003L9.36318 13.1849C9.36299 13.1847 9.36336 13.1851 9.36318 13.1849C9.75358 13.5735 10.2826 13.7922 10.8334 13.7922C11.3843 13.7922 11.9127 13.574 12.3031 13.1854C12.3029 13.1856 12.3033 13.1853 12.3031 13.1854L12.7442 12.7444C13.0696 12.4189 13.5972 12.4189 13.9227 12.7444C14.2481 13.0698 14.2481 13.5975 13.9227 13.9229L13.481 14.3646L13.4798 14.3657C12.777 15.0658 11.8254 15.4589 10.8334 15.4589C9.84141 15.4589 8.88982 15.0658 8.18699 14.3657L6.91083 13.0896C6.58539 12.7641 6.58539 12.2365 6.91083 11.911L8.18764 10.6342C8.75996 10.0654 9.50081 9.69689 10.2997 9.58356C10.7554 9.51892 11.1772 9.83592 11.2418 10.2916Z" fill="black"/>
<path fill-rule="evenodd" clip-rule="evenodd" d="M11.8629 7.00089C12.5831 6.43975 13.4833 6.16063 14.3946 6.21586C15.3059 6.27109 16.1658 6.65688 16.8129 7.30089L16.8144 7.30232L18.0894 8.57732C18.2457 8.7336 18.3335 8.94557 18.3335 9.16658C18.3335 9.38759 18.2457 9.59956 18.0894 9.75584L16.8144 11.0308C16.5786 11.2666 16.312 11.4693 16.0332 11.6301C15.6346 11.8601 15.125 11.7233 14.895 11.3247C14.665 10.926 14.8017 10.4164 15.2004 10.1864C15.3549 10.0972 15.505 9.98322 15.6359 9.85232L16.3216 9.16658L15.6373 8.48227C15.6371 8.48204 15.6369 8.48182 15.6366 8.4816C15.2772 8.12422 14.7998 7.91014 14.2938 7.87947C13.7875 7.84879 13.2874 8.00386 12.8873 8.3156C12.5243 8.59847 12.0006 8.53347 11.7178 8.17043C11.4349 7.80738 11.4999 7.28376 11.8629 7.00089Z" fill="black"/>
<path fill-rule="evenodd" clip-rule="evenodd" d="M1.07733 1.07757C1.40277 0.752137 1.9304 0.752137 2.25584 1.07757L18.9225 17.7442C19.2479 18.0697 19.2479 18.5973 18.9225 18.9228C18.5971 19.2482 18.0694 19.2482 17.744 18.9228L1.07733 2.25609C0.751893 1.93065 0.751893 1.40301 1.07733 1.07757Z" fill="black"/>
</g>
<defs>
<clipPath id="clip0_2001_11328">
<rect width="20" height="20" fill="white"/>
</clipPath>
</defs>
</svg>
