<svg width="20" height="20" viewBox="0 0 20 20" fill="none" xmlns="http://www.w3.org/2000/svg">
<g clip-path="url(#clip0_2001_11339)">
<path fill-rule="evenodd" clip-rule="evenodd" d="M13.9225 6.07757C14.2479 6.40301 14.2479 6.93065 13.9225 7.25609L2.25584 18.9228C1.9304 19.2482 1.40277 19.2482 1.07733 18.9228C0.751893 18.5973 0.751893 18.0697 1.07733 17.7442L12.744 6.07757C13.0694 5.75214 13.5971 5.75214 13.9225 6.07757Z" fill="black"/>
<path fill-rule="evenodd" clip-rule="evenodd" d="M3.57755 8.57757C3.90298 8.25214 4.43062 8.25214 4.75606 8.57757L6.03222 9.85373C6.73229 10.5566 7.12536 11.5082 7.12536 12.5002C7.12536 13.4922 6.73229 14.4438 6.03222 15.1466L6.03106 15.1478L4.75606 16.4228C4.59978 16.579 4.38782 16.6668 4.1668 16.6668C3.94579 16.6668 3.73383 16.579 3.57755 16.4228L2.30139 15.1466C1.60132 14.4438 1.20825 13.4922 1.20825 12.5002C1.20825 11.5082 1.60132 10.5566 2.30139 9.85373L2.30255 9.85257L3.57755 8.57757ZM3.48169 11.0305C3.48151 11.0306 3.48186 11.0303 3.48169 11.0305C3.09309 11.4209 2.87492 11.9493 2.87492 12.5002C2.87492 13.051 3.09309 13.5795 3.48169 13.9699C3.48151 13.9697 3.48186 13.97 3.48169 13.9699L4.1668 14.655L4.85139 13.9704C4.85122 13.9706 4.85156 13.9702 4.85139 13.9704C5.24 13.58 5.45869 13.051 5.45869 12.5002C5.45869 11.9493 5.24053 11.4209 4.85194 11.0305C4.85176 11.0303 4.85213 11.0307 4.85194 11.0305L4.1668 10.3453L3.48169 11.0305Z" fill="black"/>
<path fill-rule="evenodd" clip-rule="evenodd" d="M6.9108 5.24408C7.23624 4.91864 7.76387 4.91864 8.08931 5.24408L9.36547 6.52024C10.0655 7.22307 10.4586 8.17466 10.4586 9.16667C10.4586 10.1587 10.0655 11.1103 9.36547 11.8131L8.08931 13.0893C7.76387 13.4147 7.23624 13.4147 6.9108 13.0893L5.6358 11.8143L5.63464 11.8131C4.93457 11.1103 4.5415 10.1587 4.5415 9.16667C4.5415 8.17466 4.93457 7.22307 5.63464 6.52024L5.6358 6.51908L6.9108 5.24408ZM6.81494 7.69696C6.81476 7.69714 6.81512 7.69678 6.81494 7.69696C6.42634 8.08737 6.20817 8.6158 6.20817 9.16667C6.20817 9.71751 6.42633 10.2459 6.8149 10.6363C6.81471 10.6361 6.81509 10.6365 6.8149 10.6363L7.50006 11.3215L8.18464 10.6369C8.18447 10.6371 8.18481 10.6367 8.18464 10.6369C8.57325 10.2465 8.79194 9.71754 8.79194 9.16667C8.79194 8.61581 8.57378 8.08739 8.18519 7.69698C8.18501 7.6968 8.18538 7.69717 8.18519 7.69698L7.50006 7.01184L6.81494 7.69696Z" fill="black"/>
<path fill-rule="evenodd" clip-rule="evenodd" d="M10.8333 1.6665C11.0543 1.6665 11.2663 1.7543 11.4226 1.91058L12.6987 3.18674C13.3988 3.88957 13.7919 4.84116 13.7919 5.83317C13.7919 6.82518 13.3988 7.77677 12.6987 8.4796L11.4226 9.75576C11.0971 10.0812 10.5695 10.0812 10.2441 9.75576L8.96789 8.4796C8.26782 7.77677 7.87476 6.82518 7.87476 5.83317C7.87476 4.84116 8.26782 3.88957 8.96789 3.18674L8.96905 3.18558L10.2441 1.91058C10.4003 1.7543 10.6123 1.6665 10.8333 1.6665ZM10.1482 4.36347C10.148 4.36364 10.1484 4.36329 10.1482 4.36347C9.75959 4.75388 9.54142 5.28231 9.54142 5.83317C9.54142 6.38404 9.7596 6.91248 10.1482 7.3029C10.148 7.30273 10.1484 7.30307 10.1482 7.3029L10.8333 7.98799L11.5179 7.30341C11.5177 7.30358 11.5181 7.30324 11.5179 7.30341C11.9065 6.913 12.1252 6.38404 12.1252 5.83317C12.1252 5.2823 11.907 4.75386 11.5184 4.36344C11.5182 4.36327 11.5186 4.36361 11.5184 4.36344L10.8333 3.67835L10.1482 4.36347Z" fill="black"/>
<path fill-rule="evenodd" clip-rule="evenodd" d="M16.6667 2.50016C16.0036 2.50016 15.3677 2.76355 14.8989 3.2324C14.4301 3.70124 14.1667 4.33712 14.1667 5.00016V5.8335H15C15.663 5.8335 16.2989 5.5701 16.7678 5.10126C17.2366 4.63242 17.5 3.99654 17.5 3.3335V2.50016H16.6667ZM13.7204 2.05388C14.5018 1.27248 15.5616 0.833496 16.6667 0.833496H18.3333C18.7936 0.833496 19.1667 1.20659 19.1667 1.66683V3.3335C19.1667 4.43857 18.7277 5.49837 17.9463 6.27977C17.1649 7.06118 16.1051 7.50016 15 7.50016H13.3333C12.8731 7.50016 12.5 7.12707 12.5 6.66683V5.00016C12.5 3.89509 12.939 2.83529 13.7204 2.05388Z" fill="black"/>
<path fill-rule="evenodd" clip-rule="evenodd" d="M6.02968 15.149C6.0295 15.1491 6.02986 15.1488 6.02968 15.149L5.3451 15.8336L6.02968 16.5181C6.02951 16.518 6.02985 16.5183 6.02968 16.5181C6.42009 16.9067 6.94904 17.1254 7.49992 17.1254C8.05077 17.1254 8.57919 16.9073 8.9696 16.5187C8.96942 16.5189 8.96979 16.5185 8.9696 16.5187L9.65474 15.8336L8.97016 15.149C8.96997 15.1488 8.97034 15.1491 8.97016 15.149C8.57975 14.7604 8.05077 14.5417 7.49992 14.5417C6.94905 14.5417 6.42009 14.7604 6.02968 15.149ZM4.85349 13.9681C5.55632 13.2681 6.50791 12.875 7.49992 12.875C8.49192 12.875 9.44351 13.2681 10.1463 13.9681L10.1475 13.9693L11.4225 15.2443C11.7479 15.5697 11.7479 16.0974 11.4225 16.4228L10.1475 17.6978L10.1463 17.699C9.44351 18.399 8.49192 18.7921 7.49992 18.7921C6.50791 18.7921 5.55632 18.399 4.85349 17.699L3.57733 16.4228C3.25189 16.0974 3.25189 15.5697 3.57733 15.2443L4.85349 13.9681Z" fill="black"/>
<path fill-rule="evenodd" clip-rule="evenodd" d="M9.36318 11.8155C9.36299 11.8157 9.36336 11.8153 9.36318 11.8155L8.67859 12.5001L9.36318 13.1846C9.36299 13.1845 9.36336 13.1848 9.36318 13.1846C9.75358 13.5732 10.2826 13.7919 10.8334 13.7919C11.3843 13.7919 11.9127 13.5738 12.3031 13.1852C12.3029 13.1854 12.3033 13.185 12.3031 13.1852L12.9882 12.5001L12.3037 11.8155C12.3035 11.8153 12.3038 11.8156 12.3037 11.8155C11.9132 11.4269 11.3843 11.2082 10.8334 11.2082C10.2826 11.2082 9.75358 11.4269 9.36318 11.8155ZM8.18699 10.6346C8.88982 9.93457 9.84141 9.5415 10.8334 9.5415C11.8254 9.5415 12.777 9.93457 13.4798 10.6346L13.481 10.6358L14.756 11.9108C15.0814 12.2362 15.0814 12.7639 14.756 13.0893L13.481 14.3643L13.4798 14.3655C12.777 15.0655 11.8254 15.4586 10.8334 15.4586C9.84141 15.4586 8.88982 15.0655 8.18699 14.3655L6.91083 13.0893C6.58539 12.7639 6.58539 12.2362 6.91083 11.9108L8.18699 10.6346Z" fill="black"/>
<path fill-rule="evenodd" clip-rule="evenodd" d="M12.6964 8.48197C12.6962 8.48216 12.6966 8.48179 12.6964 8.48197L12.0118 9.16656L12.6964 9.85115C12.6962 9.85096 12.6966 9.85133 12.6964 9.85115C13.0868 10.2397 13.6158 10.4584 14.1667 10.4584C14.7175 10.4584 15.2459 10.2403 15.6363 9.8517C15.6362 9.85188 15.6365 9.85151 15.6363 9.8517L16.3215 9.16656L15.6369 8.48197C15.6367 8.4818 15.6371 8.48215 15.6369 8.48197C15.2465 8.09338 14.7175 7.87467 14.1667 7.87467C13.6158 7.87467 13.0868 8.09339 12.6964 8.48197ZM11.5202 7.30115C12.2231 6.60107 13.1747 6.20801 14.1667 6.20801C15.1587 6.20801 16.1103 6.60107 16.8131 7.30115L16.8143 7.3023L18.0893 8.5773C18.2455 8.73358 18.3333 8.94555 18.3333 9.16656C18.3333 9.38757 18.2455 9.59954 18.0893 9.75582L16.8143 11.0308L16.8131 11.032C16.1103 11.732 15.1587 12.1251 14.1667 12.1251C13.1747 12.1251 12.2231 11.732 11.5202 11.032L10.2441 9.75582C9.91864 9.43038 9.91864 8.90274 10.2441 8.5773L11.5202 7.30115Z" fill="black"/>
</g>
<defs>
<clipPath id="clip0_2001_11339">
<rect width="20" height="20" fill="white"/>
</clipPath>
</defs>
</svg>
