<svg width="20" height="20" viewBox="0 0 20 20" fill="none" xmlns="http://www.w3.org/2000/svg">
<path fill-rule="evenodd" clip-rule="evenodd" d="M5.83333 8.33317C4.91286 8.33317 4.16667 9.07936 4.16667 9.99984C4.16667 10.9203 4.91286 11.6665 5.83333 11.6665C6.75381 11.6665 7.5 10.9203 7.5 9.99984C7.5 9.07936 6.75381 8.33317 5.83333 8.33317ZM2.5 9.99984C2.5 8.15889 3.99238 6.6665 5.83333 6.6665C7.67428 6.6665 9.16667 8.15889 9.16667 9.99984C9.16667 11.8408 7.67428 13.3332 5.83333 13.3332C3.99238 13.3332 2.5 11.8408 2.5 9.99984Z" fill="black"/>
<path fill-rule="evenodd" clip-rule="evenodd" d="M8.33333 6.6665C8.79357 6.6665 9.16667 7.0396 9.16667 7.49984V12.4998C9.16667 12.9601 8.79357 13.3332 8.33333 13.3332C7.8731 13.3332 7.5 12.9601 7.5 12.4998V7.49984C7.5 7.0396 7.8731 6.6665 8.33333 6.6665Z" fill="black"/>
<path fill-rule="evenodd" clip-rule="evenodd" d="M14.1666 8.33317C13.2461 8.33317 12.4999 9.07936 12.4999 9.99984C12.4999 10.9203 13.2461 11.6665 14.1666 11.6665C15.0871 11.6665 15.8333 10.9203 15.8333 9.99984C15.8333 9.07936 15.0871 8.33317 14.1666 8.33317ZM10.8333 9.99984C10.8333 8.15889 12.3256 6.6665 14.1666 6.6665C16.0075 6.6665 17.4999 8.15889 17.4999 9.99984C17.4999 11.8408 16.0075 13.3332 14.1666 13.3332C12.3256 13.3332 10.8333 11.8408 10.8333 9.99984Z" fill="black"/>
<path fill-rule="evenodd" clip-rule="evenodd" d="M11.6666 5C12.1268 5 12.4999 5.3731 12.4999 5.83333V12.5C12.4999 12.9602 12.1268 13.3333 11.6666 13.3333C11.2063 13.3333 10.8333 12.9602 10.8333 12.5V5.83333C10.8333 5.3731 11.2063 5 11.6666 5Z" fill="black"/>
<path fill-rule="evenodd" clip-rule="evenodd" d="M1.66659 13.3335C2.12682 13.3335 2.49992 13.7066 2.49992 14.1668V14.9646C2.5 14.9647 2.50009 14.9648 2.50017 14.9649C2.50118 14.9663 2.50229 14.9678 2.50349 14.9694C2.50469 14.9709 2.50597 14.9725 2.50734 14.9741C2.50871 14.9758 2.51014 14.9774 2.51163 14.979C2.51313 14.9806 2.51467 14.9822 2.51626 14.9838C2.51784 14.9854 2.51945 14.987 2.52108 14.9884C2.5227 14.9899 2.52433 14.9914 2.52594 14.9927C2.52756 14.9941 2.52915 14.9954 2.5307 14.9966C2.53225 14.9978 2.53374 14.9989 2.53517 14.9999C2.53529 15 2.5354 15.0001 2.53552 15.0002H17.4643C17.4644 15.0001 17.4646 15 17.4647 14.9999C17.4661 14.9989 17.4676 14.9978 17.4691 14.9966C17.4701 14.9958 17.4712 14.995 17.4722 14.9942C17.4728 14.9937 17.4733 14.9932 17.4739 14.9927C17.4755 14.9914 17.4771 14.9899 17.4788 14.9884C17.4804 14.987 17.482 14.9854 17.4836 14.9838C17.4852 14.9822 17.4867 14.9806 17.4882 14.979C17.4897 14.9774 17.4911 14.9758 17.4925 14.9741C17.4939 14.9725 17.4951 14.9709 17.4964 14.9694C17.4976 14.9678 17.4987 14.9663 17.4997 14.9649C17.4998 14.9648 17.4998 14.9647 17.4999 14.9646V14.1668C17.4999 13.7066 17.873 13.3335 18.3333 13.3335C18.7935 13.3335 19.1666 13.7066 19.1666 14.1668V15.0002C19.1666 15.4795 18.9353 15.8891 18.6621 16.1623C18.3889 16.4355 17.9793 16.6668 17.4999 16.6668H2.49992C2.02056 16.6668 1.61095 16.4355 1.33775 16.1623C1.06454 15.8891 0.833252 15.4795 0.833252 15.0002V14.1668C0.833252 13.7066 1.20635 13.3335 1.66659 13.3335Z" fill="black"/>
</svg>
