<svg width="20" height="20" viewBox="0 0 20 20" fill="none" xmlns="http://www.w3.org/2000/svg">
<g clip-path="url(#clip0_2001_11361)">
<path fill-rule="evenodd" clip-rule="evenodd" d="M9.16675 16.6668C9.16675 16.2066 9.53984 15.8335 10.0001 15.8335H10.0084C10.4687 15.8335 10.8417 16.2066 10.8417 16.6668C10.8417 17.1271 10.4687 17.5002 10.0084 17.5002H10.0001C9.53984 17.5002 9.16675 17.1271 9.16675 16.6668Z" fill="black"/>
<path fill-rule="evenodd" clip-rule="evenodd" d="M10 13.3332C9.12749 13.3332 8.28976 13.6753 7.66667 14.286C7.33799 14.6082 6.81038 14.6029 6.48821 14.2742C6.16605 13.9456 6.17133 13.418 6.5 13.0958C7.43464 12.1797 8.69124 11.6665 10 11.6665C11.3088 11.6665 12.5654 12.1797 13.5 13.0958C13.8287 13.418 13.834 13.9456 13.5118 14.2742C13.1896 14.6029 12.662 14.6082 12.3333 14.286C11.7102 13.6753 10.8725 13.3332 10 13.3332Z" fill="black"/>
<path fill-rule="evenodd" clip-rule="evenodd" d="M9.29417 8.32158C9.37841 8.77404 9.07991 9.20912 8.62745 9.29336C7.16331 9.56596 5.81347 10.2683 4.74995 11.3109C4.42129 11.633 3.89368 11.6278 3.5715 11.2991C3.24931 10.9705 3.25456 10.4429 3.58322 10.1207C4.88308 8.84643 6.53288 7.98803 8.32239 7.65485C8.77485 7.57061 9.20993 7.86911 9.29417 8.32158Z" fill="black"/>
<path fill-rule="evenodd" clip-rule="evenodd" d="M13.4389 9.03064C13.6687 8.63189 14.1782 8.49493 14.577 8.72475C15.2466 9.11069 15.8648 9.57977 16.4167 10.1208C16.7454 10.443 16.7506 10.9706 16.4285 11.2993C16.1063 11.6279 15.5787 11.6332 15.25 11.311C14.7984 10.8683 14.2927 10.4845 13.7448 10.1688C13.346 9.93895 13.209 9.4294 13.4389 9.03064Z" fill="black"/>
<path fill-rule="evenodd" clip-rule="evenodd" d="M5.91542 4.82405C6.09407 5.2482 5.89504 5.73686 5.47089 5.91551C4.28174 6.41636 3.18391 7.11101 2.22212 7.97117C1.87906 8.27798 1.35224 8.24859 1.04543 7.90554C0.738627 7.56248 0.768014 7.03566 1.11107 6.72885C2.21027 5.74581 3.46493 4.95192 4.82396 4.37952C5.24811 4.20088 5.73677 4.3999 5.91542 4.82405Z" fill="black"/>
<path fill-rule="evenodd" clip-rule="evenodd" d="M8.85507 3.38325C10.6673 3.22703 12.4924 3.44327 14.2179 4.01866C15.9435 4.59405 17.533 5.51642 18.8889 6.72903C19.2319 7.03584 19.2613 7.56266 18.9545 7.90571C18.6476 8.24876 18.1208 8.27813 17.7778 7.97131C16.5914 6.91028 15.2006 6.10321 13.6907 5.59974C12.1808 5.09627 10.5839 4.90707 8.99821 5.04376C8.53968 5.08329 8.13592 4.74361 8.09639 4.28508C8.05686 3.82654 8.39654 3.42278 8.85507 3.38325Z" fill="black"/>
<path fill-rule="evenodd" clip-rule="evenodd" d="M1.07733 1.07757C1.40277 0.752137 1.9304 0.752137 2.25584 1.07757L18.9225 17.7442C19.2479 18.0697 19.2479 18.5973 18.9225 18.9228C18.5971 19.2482 18.0694 19.2482 17.744 18.9228L1.07733 2.25609C0.751893 1.93065 0.751893 1.40301 1.07733 1.07757Z" fill="black"/>
</g>
<defs>
<clipPath id="clip0_2001_11361">
<rect width="20" height="20" fill="white"/>
</clipPath>
</defs>
</svg>
