<svg width="20" height="20" viewBox="0 0 20 20" fill="none" xmlns="http://www.w3.org/2000/svg">
<path fill-rule="evenodd" clip-rule="evenodd" d="M9.16675 16.6668C9.16675 16.2066 9.53984 15.8335 10.0001 15.8335H10.0084C10.4687 15.8335 10.8417 16.2066 10.8417 16.6668C10.8417 17.1271 10.4687 17.5002 10.0084 17.5002H10.0001C9.53984 17.5002 9.16675 17.1271 9.16675 16.6668Z" fill="black"/>
<path fill-rule="evenodd" clip-rule="evenodd" d="M9.99992 9.16716C8.03677 9.16716 6.15189 9.93688 4.74992 11.3111C4.42124 11.6333 3.89363 11.628 3.57147 11.2993C3.2493 10.9706 3.25458 10.443 3.58325 10.1208C5.29677 8.44127 7.60052 7.50049 9.99992 7.50049C12.3993 7.50049 14.7031 8.44127 16.4166 10.1208C16.7453 10.443 16.7505 10.9706 16.4284 11.2993C16.1062 11.628 15.5786 11.6333 15.2499 11.3111C13.848 9.93688 11.9631 9.16716 9.99992 9.16716Z" fill="black"/>
<path fill-rule="evenodd" clip-rule="evenodd" d="M10 13.3332C9.12749 13.3332 8.28976 13.6753 7.66667 14.286C7.33799 14.6082 6.81038 14.6029 6.48821 14.2742C6.16605 13.9456 6.17133 13.418 6.5 13.0958C7.43464 12.1797 8.69124 11.6665 10 11.6665C11.3088 11.6665 12.5654 12.1797 13.5 13.0958C13.8287 13.418 13.834 13.9456 13.5118 14.2742C13.1896 14.6029 12.662 14.6082 12.3333 14.286C11.7102 13.6753 10.8725 13.3332 10 13.3332Z" fill="black"/>
</svg>
