<svg width="20" height="20" viewBox="0 0 20 20" fill="none" xmlns="http://www.w3.org/2000/svg">
<path fill-rule="evenodd" clip-rule="evenodd" d="M16.4481 6.69306C16.2491 6.65191 16.0431 6.65988 15.848 6.71628C15.6528 6.77268 15.4743 6.8758 15.3279 7.01672C14.9964 7.33595 14.4689 7.32597 14.1496 6.99444C13.8304 6.66291 13.8404 6.13537 14.1719 5.81614C14.5134 5.48733 14.9299 5.2467 15.3853 5.11511C15.8407 4.98352 16.3214 4.96492 16.7856 5.06093C17.2499 5.15694 17.6837 5.36465 18.0496 5.6661C18.4155 5.96754 18.7023 6.35363 18.8854 6.79092C19.0684 7.22821 19.1422 7.70353 19.1001 8.17573C19.0581 8.64792 18.9016 9.10276 18.6442 9.50085C18.3868 9.89894 18.0362 10.2283 17.6229 10.4604C17.2095 10.6925 16.7458 10.8203 16.2719 10.8328C16.268 10.8329 16.264 10.833 16.2601 10.833C16.2567 10.8331 16.2533 10.8331 16.2499 10.8331H1.66659C1.20635 10.8331 0.833252 10.46 0.833252 9.99976C0.833252 9.53953 1.20635 9.16643 1.66659 9.16643H16.2375C16.4373 9.15962 16.6325 9.10501 16.8069 9.00711C16.9841 8.90764 17.1343 8.76649 17.2446 8.59588C17.3549 8.42527 17.422 8.23034 17.44 8.02797C17.458 7.82561 17.4264 7.6219 17.348 7.43448C17.2695 7.24707 17.1466 7.08161 16.9898 6.95242C16.833 6.82323 16.6471 6.7342 16.4481 6.69306Z" fill="black"/>
<path fill-rule="evenodd" clip-rule="evenodd" d="M9.34939 4.18205C9.21406 4.15568 9.07429 4.1633 8.94262 4.20423C8.81095 4.24516 8.69149 4.31813 8.59496 4.41658C8.27275 4.74522 7.74513 4.75042 7.4165 4.42821C7.08787 4.106 7.08267 3.57838 7.40488 3.24975C7.69448 2.95438 8.05285 2.73549 8.44786 2.61269C8.84287 2.4899 9.26217 2.46704 9.66819 2.54616C10.0742 2.62528 10.4543 2.80392 10.7742 3.06605C11.0942 3.32819 11.3442 3.66563 11.5017 4.04813C11.6592 4.43062 11.7193 4.84623 11.6767 5.25768C11.634 5.66913 11.49 6.06358 11.2574 6.40565C11.0248 6.74773 10.711 7.02675 10.344 7.2177C9.97899 7.40766 9.57273 7.50456 9.16132 7.49984H1.66659C1.20635 7.49984 0.833252 7.12674 0.833252 6.6665C0.833252 6.20626 1.20635 5.83317 1.66659 5.83317H9.16659C9.16942 5.83317 9.17226 5.83318 9.1751 5.83321C9.17616 5.83322 9.17723 5.83324 9.17829 5.83325C9.31616 5.83519 9.45236 5.80288 9.57468 5.73923C9.69699 5.67558 9.8016 5.58258 9.87913 5.46855C9.95666 5.35453 10.0047 5.22305 10.0189 5.08589C10.0331 4.94874 10.0131 4.81021 9.96056 4.68271C9.90806 4.55521 9.82474 4.44273 9.71808 4.35535C9.61141 4.26797 9.48473 4.20843 9.34939 4.18205Z" fill="black"/>
<path fill-rule="evenodd" clip-rule="evenodd" d="M11.6613 12.5002C12.0727 12.4954 12.479 12.5923 12.844 12.7823C13.211 12.9733 13.5248 13.2523 13.7574 13.5943C13.99 13.9364 14.134 14.3309 14.1767 14.7423C14.2193 15.1538 14.1592 15.5694 14.0017 15.9519C13.8442 16.3344 13.5942 16.6718 13.2742 16.9339C12.9542 17.1961 12.5742 17.3747 12.1682 17.4538C11.7622 17.533 11.3429 17.5101 10.9479 17.3873C10.5528 17.2645 10.1945 17.0456 9.90488 16.7502C9.58267 16.4216 9.58787 15.894 9.9165 15.5718C10.2451 15.2496 10.7727 15.2548 11.095 15.5834C11.1915 15.6819 11.3109 15.7548 11.4426 15.7958C11.5743 15.8367 11.7141 15.8443 11.8494 15.8179C11.9847 15.7916 12.1114 15.732 12.2181 15.6446C12.3247 15.5573 12.4081 15.4448 12.4606 15.3173C12.5131 15.1898 12.5331 15.0513 12.5189 14.9141C12.5047 14.777 12.4567 14.6455 12.3791 14.5314C12.3016 14.4174 12.197 14.3244 12.0747 14.2608C11.9524 14.1971 11.8162 14.1648 11.6783 14.1667C11.6744 14.1668 11.6705 14.1668 11.6666 14.1668H1.66659C1.20635 14.1668 0.833252 13.7937 0.833252 13.3335C0.833252 12.8733 1.20635 12.5002 1.66659 12.5002H11.6613Z" fill="black"/>
</svg>
