<svg width="20" height="20" viewBox="0 0 20 20" fill="none" xmlns="http://www.w3.org/2000/svg">
<path fill-rule="evenodd" clip-rule="evenodd" d="M5.83325 18.3333C5.83325 17.8731 6.20635 17.5 6.66659 17.5H13.3333C13.7935 17.5 14.1666 17.8731 14.1666 18.3333C14.1666 18.7936 13.7935 19.1667 13.3333 19.1667H6.66659C6.20635 19.1667 5.83325 18.7936 5.83325 18.3333Z" fill="black"/>
<path fill-rule="evenodd" clip-rule="evenodd" d="M5 8.33333C5 7.8731 5.3731 7.5 5.83333 7.5H14.1667C14.6269 7.5 15 7.8731 15 8.33333C15 8.79357 14.6269 9.16667 14.1667 9.16667H5.83333C5.3731 9.16667 5 8.79357 5 8.33333Z" fill="black"/>
<path fill-rule="evenodd" clip-rule="evenodd" d="M10.0001 11.6665C10.4603 11.6665 10.8334 12.0396 10.8334 12.4998V18.3332C10.8334 18.7934 10.4603 19.1665 10.0001 19.1665C9.53984 19.1665 9.16675 18.7934 9.16675 18.3332V12.4998C9.16675 12.0396 9.53984 11.6665 10.0001 11.6665Z" fill="black"/>
<path fill-rule="evenodd" clip-rule="evenodd" d="M6.71973 1.37423C6.8417 1.04897 7.15263 0.833496 7.5 0.833496H12.5C12.8474 0.833496 13.1583 1.04897 13.2803 1.37423C14.5347 4.71928 15 6.50628 15 8.3335C15 9.65958 14.4732 10.9313 13.5355 11.869C12.5979 12.8067 11.3261 13.3335 10 13.3335C8.67392 13.3335 7.40215 12.8067 6.46447 11.869C5.52678 10.9313 5 9.65958 5 8.3335C5 6.50628 5.46533 4.71928 6.71973 1.37423ZM8.07951 2.50016C6.99467 5.45381 6.66667 6.91158 6.66667 8.3335C6.66667 9.21755 7.01786 10.0654 7.64298 10.6905C8.2681 11.3156 9.11595 11.6668 10 11.6668C10.8841 11.6668 11.7319 11.3156 12.357 10.6905C12.9821 10.0654 13.3333 9.21755 13.3333 8.3335C13.3333 6.91158 13.0053 5.45381 11.9205 2.50016H8.07951Z" fill="black"/>
</svg>
