<svg width="20" height="20" viewBox="0 0 20 20" fill="none" xmlns="http://www.w3.org/2000/svg">
<g clip-path="url(#clip0_2001_11380)">
<path fill-rule="evenodd" clip-rule="evenodd" d="M5.83325 18.3333C5.83325 17.8731 6.20635 17.5 6.66659 17.5H13.3333C13.7935 17.5 14.1666 17.8731 14.1666 18.3333C14.1666 18.7936 13.7935 19.1667 13.3333 19.1667H6.66659C6.20635 19.1667 5.83325 18.7936 5.83325 18.3333Z" fill="black"/>
<path fill-rule="evenodd" clip-rule="evenodd" d="M5 8.33333C5 7.8731 5.3731 7.5 5.83333 7.5H8.33333C8.79357 7.5 9.16667 7.8731 9.16667 8.33333C9.16667 8.79357 8.79357 9.16667 8.33333 9.16667H5.83333C5.3731 9.16667 5 8.79357 5 8.33333ZM12.2142 8.33333C12.2142 7.8731 12.5873 7.5 13.0475 7.5H14.1667C14.6269 7.5 15 7.8731 15 8.33333C15 8.79357 14.6269 9.16667 14.1667 9.16667H13.0475C12.5873 9.16667 12.2142 8.79357 12.2142 8.33333Z" fill="black"/>
<path fill-rule="evenodd" clip-rule="evenodd" d="M10.0001 11.6665C10.4603 11.6665 10.8334 12.0396 10.8334 12.4998V18.3332C10.8334 18.7934 10.4603 19.1665 10.0001 19.1665C9.53984 19.1665 9.16675 18.7934 9.16675 18.3332V12.4998C9.16675 12.0396 9.53984 11.6665 10.0001 11.6665Z" fill="black"/>
<path fill-rule="evenodd" clip-rule="evenodd" d="M6.7201 1.37322C6.84235 1.04849 7.15302 0.833496 7.5 0.833496H12.5C12.8474 0.833496 13.1583 1.04897 13.2803 1.37423C14.5347 4.71928 15 6.50628 15 8.3335C15 8.74096 14.9499 9.14231 14.8554 9.52953C14.7462 9.97663 14.2952 10.2506 13.8481 10.1414C13.401 10.0322 13.1271 9.58122 13.2363 9.13413C13.3001 8.87302 13.3333 8.60436 13.3333 8.3335C13.3333 6.91158 13.0053 5.45381 11.9205 2.50016H8.07897C8.04601 2.59007 8.01397 2.67839 7.98295 2.76509C7.82789 3.19842 7.35091 3.424 6.91758 3.26894C6.48425 3.11389 6.25866 2.6369 6.41372 2.20357C6.50933 1.93636 6.61286 1.65808 6.7201 1.37322ZM6.27399 5.27675C6.72276 5.37882 7.00382 5.82537 6.90175 6.27415C6.74795 6.95033 6.66912 7.64138 6.66667 8.33482C6.66693 8.9124 6.81727 9.48 7.10295 9.98199C7.38886 10.4844 7.8005 10.9038 8.29746 11.199C8.79442 11.4943 9.35962 11.6552 9.93756 11.666C10.5155 11.6769 11.0863 11.5372 11.594 11.2608C11.9982 11.0407 12.5043 11.19 12.7244 11.5942C12.9445 11.9984 12.7952 12.5045 12.391 12.7245C11.6295 13.1392 10.7733 13.3486 9.90634 13.3324C9.03942 13.3162 8.19163 13.0748 7.44619 12.6319C6.70075 12.189 6.08329 11.5599 5.65443 10.8063C5.22557 10.0528 5.00004 9.20061 5 8.33354C5 8.33259 5 8.33163 5 8.33068C5.00276 7.51425 5.09551 6.70061 5.27659 5.90451C5.37866 5.45573 5.82521 5.17468 6.27399 5.27675Z" fill="black"/>
<path fill-rule="evenodd" clip-rule="evenodd" d="M1.07733 1.07757C1.40277 0.752137 1.9304 0.752137 2.25584 1.07757L18.9225 17.7442C19.2479 18.0697 19.2479 18.5973 18.9225 18.9228C18.5971 19.2482 18.0694 19.2482 17.744 18.9228L1.07733 2.25609C0.751893 1.93065 0.751893 1.40301 1.07733 1.07757Z" fill="black"/>
</g>
<defs>
<clipPath id="clip0_2001_11380">
<rect width="20" height="20" fill="white"/>
</clipPath>
</defs>
</svg>
