<svg width="20" height="20" viewBox="0 0 20 20" fill="none" xmlns="http://www.w3.org/2000/svg">
<path fill-rule="evenodd" clip-rule="evenodd" d="M4.16675 3.33317C3.70651 3.33317 3.33341 3.70627 3.33341 4.1665V7.49984C3.33341 7.96007 3.70651 8.33317 4.16675 8.33317H7.50008C7.96032 8.33317 8.33341 7.96007 8.33341 7.49984V4.1665C8.33341 3.70627 7.96032 3.33317 7.50008 3.33317H4.16675ZM1.66675 4.1665C1.66675 2.78579 2.78604 1.6665 4.16675 1.6665H7.50008C8.88079 1.6665 10.0001 2.78579 10.0001 4.1665V7.49984C10.0001 8.88055 8.88079 9.99984 7.50008 9.99984H4.16675C2.78604 9.99984 1.66675 8.88055 1.66675 7.49984V4.1665Z" fill="black"/>
<path fill-rule="evenodd" clip-rule="evenodd" d="M5.83333 8.3335C6.29357 8.3335 6.66667 8.70659 6.66667 9.16683V12.5002C6.66667 12.7212 6.75446 12.9331 6.91074 13.0894C7.06702 13.2457 7.27899 13.3335 7.5 13.3335H10.8333C11.2936 13.3335 11.6667 13.7066 11.6667 14.1668C11.6667 14.6271 11.2936 15.0002 10.8333 15.0002H7.5C6.83696 15.0002 6.20107 14.7368 5.73223 14.2679C5.26339 13.7991 5 13.1632 5 12.5002V9.16683C5 8.70659 5.3731 8.3335 5.83333 8.3335Z" fill="black"/>
<path fill-rule="evenodd" clip-rule="evenodd" d="M12.5 11.6667C12.0398 11.6667 11.6667 12.0398 11.6667 12.5V15.8333C11.6667 16.2936 12.0398 16.6667 12.5 16.6667H15.8333C16.2936 16.6667 16.6667 16.2936 16.6667 15.8333V12.5C16.6667 12.0398 16.2936 11.6667 15.8333 11.6667H12.5ZM10 12.5C10 11.1193 11.1193 10 12.5 10H15.8333C17.214 10 18.3333 11.1193 18.3333 12.5V15.8333C18.3333 17.214 17.214 18.3333 15.8333 18.3333H12.5C11.1193 18.3333 10 17.214 10 15.8333V12.5Z" fill="black"/>
</svg>
