<svg width="20" height="20" viewBox="0 0 20 20" fill="none" xmlns="http://www.w3.org/2000/svg">
<path fill-rule="evenodd" clip-rule="evenodd" d="M16.2059 9.25466C16.6176 9.46049 16.7845 9.96105 16.5786 10.3727L15.3286 12.8727C15.1228 13.2843 14.6222 13.4512 14.2106 13.2454C13.7989 13.0396 13.6321 12.539 13.8379 12.1273L15.0879 9.62734C15.2937 9.21569 15.7943 9.04884 16.2059 9.25466Z" fill="black"/>
<path fill-rule="evenodd" clip-rule="evenodd" d="M15.6137 15.3009C15.8202 14.8896 16.3211 14.7236 16.7324 14.9301L18.7074 15.9218C19.1187 16.1283 19.2847 16.6291 19.0781 17.0404C18.8716 17.4517 18.3708 17.6177 17.9595 17.4112L15.9845 16.4195C15.5732 16.213 15.4072 15.7122 15.6137 15.3009Z" fill="black"/>
<path fill-rule="evenodd" clip-rule="evenodd" d="M2.86269 2.53084C3.97291 1.86782 5.25839 1.55758 6.54895 1.64133C7.84246 1.72527 9.07976 2.20102 10.0963 3.0053C11.1128 3.80958 11.8604 4.90428 12.2396 6.1438C12.6185 7.38206 12.6117 8.70623 12.2204 9.94053L11.6893 11.6665C11.653 11.7895 11.655 11.9207 11.6948 12.0426C11.735 12.1653 11.8117 12.2728 11.9146 12.3507C12.0176 12.4286 12.1419 12.4732 12.2709 12.4785C12.3993 12.4837 12.5263 12.4498 12.635 12.3812C12.6354 12.3809 12.6359 12.3805 12.6364 12.3802L12.9799 12.1594C12.9804 12.1591 12.981 12.1587 12.9815 12.1584C13.3033 11.95 13.6629 11.807 14.0399 11.7373C14.4175 11.6676 14.8051 11.673 15.1807 11.753C15.5562 11.8331 15.9123 11.9864 16.2286 12.2041C16.5449 12.4218 16.8153 12.6997 17.0242 13.0219C17.2331 13.344 17.3765 13.7042 17.4463 14.0818C17.516 14.4594 17.5106 14.8471 17.4306 15.2226C17.3505 15.5982 17.1972 15.9543 16.9795 16.2706C16.7618 16.5869 16.4839 16.8572 16.1617 17.0661L16.16 17.0673L15.812 17.2909C14.6981 18.0208 13.3859 18.3889 12.0548 18.3449C10.7223 18.3009 9.43599 17.8462 8.37195 17.0429C7.30791 16.2396 6.51814 15.1271 6.11078 13.8577C5.70363 12.5889 5.69838 11.2253 6.09572 9.95345L6.62602 8.22997C6.6558 8.12334 6.6537 8.01028 6.61992 7.90477C6.58558 7.79754 6.52009 7.70297 6.43178 7.63312C6.34348 7.56327 6.23637 7.52132 6.12412 7.5126C6.01492 7.50412 5.90568 7.52746 5.80958 7.57971L5.25529 7.91391C5.25348 7.915 5.25167 7.91609 5.24986 7.91716C5.24896 7.9177 5.24806 7.91823 5.24716 7.91876C4.577 8.31251 3.77787 8.42392 3.02558 8.22848C2.27328 8.03303 1.62943 7.54674 1.23568 6.87659C0.841923 6.20643 0.730513 5.40731 0.925958 4.65501C1.02273 4.28251 1.19193 3.93271 1.42389 3.6256C1.65584 3.31849 1.94602 3.06007 2.27785 2.86511C2.28074 2.86341 2.28364 2.86173 2.28655 2.86006L2.86269 2.53084ZM6.44102 3.3045C5.48524 3.24248 4.53323 3.4729 3.7116 3.96513C3.70669 3.96807 3.70175 3.97096 3.69678 3.9738L3.11837 4.30432C2.97683 4.38815 2.853 4.49881 2.75384 4.6301C2.65379 4.76256 2.58081 4.91343 2.53907 5.07409C2.45478 5.39856 2.50283 5.74323 2.67266 6.03228C2.84249 6.32132 3.12019 6.53106 3.44466 6.61536C3.7678 6.69931 4.11097 6.652 4.39928 6.48386L4.96138 6.14495C4.96813 6.14088 4.97494 6.1369 4.98181 6.13302C5.36816 5.91478 5.81077 5.81658 6.25317 5.85093C6.69558 5.88529 7.11771 6.05066 7.46574 6.32594C7.81376 6.60123 8.07189 6.97394 8.2072 7.39654C8.34251 7.81914 8.34887 8.27247 8.22546 8.6987C8.22417 8.70314 8.22285 8.70758 8.22148 8.712L7.68815 10.4453C7.68777 10.4466 7.68739 10.4478 7.68701 10.449C7.39162 11.3935 7.39537 12.4062 7.69774 13.3484C8.00011 14.2907 8.58633 15.1165 9.37613 15.7127C10.1659 16.309 11.1207 16.6465 12.1098 16.6792C13.0988 16.7118 14.0738 16.438 14.9012 15.8952C14.9034 15.8938 14.9055 15.8923 14.9077 15.891L15.2549 15.6677C15.2553 15.6675 15.2557 15.6672 15.2561 15.667C15.3942 15.5772 15.5132 15.4613 15.6066 15.3256C15.7002 15.1896 15.7661 15.0365 15.8005 14.875C15.835 14.7135 15.8373 14.5468 15.8073 14.3845C15.7773 14.2221 15.7156 14.0672 15.6258 13.9287C15.536 13.7901 15.4197 13.6706 15.2837 13.577C15.1477 13.4834 14.9946 13.4175 14.8331 13.3831C14.6716 13.3486 14.5049 13.3463 14.3425 13.3763C14.1802 13.4063 14.0253 13.468 13.8867 13.5578C13.8858 13.5584 13.8849 13.559 13.884 13.5596L13.534 13.7846C13.5327 13.7854 13.5315 13.7862 13.5302 13.787C13.1345 14.0384 12.6713 14.1629 12.2028 14.1438C11.7343 14.1246 11.2829 13.9627 10.909 13.6798C10.5351 13.3969 10.2566 13.0064 10.1108 12.5608C9.965 12.1152 9.9589 11.6356 10.0933 11.1864C10.0939 11.1843 10.0945 11.1823 10.0952 11.1802L10.6285 9.44686C10.6293 9.44443 10.63 9.442 10.6308 9.43958C10.9208 8.52676 10.9261 7.54727 10.6459 6.63139C10.3657 5.7155 9.8133 4.90663 9.06217 4.31234C8.31105 3.71805 7.3968 3.36652 6.44102 3.3045Z" fill="black"/>
</svg>
