<svg width="20" height="20" viewBox="0 0 20 20" fill="none" xmlns="http://www.w3.org/2000/svg">
<path fill-rule="evenodd" clip-rule="evenodd" d="M1.66675 4.99984C1.66675 4.5396 2.03984 4.1665 2.50008 4.1665H17.5001C17.9603 4.1665 18.3334 4.5396 18.3334 4.99984C18.3334 5.46007 17.9603 5.83317 17.5001 5.83317H2.50008C2.03984 5.83317 1.66675 5.46007 1.66675 4.99984Z" fill="black"/>
<path fill-rule="evenodd" clip-rule="evenodd" d="M1.66675 9.99984C1.66675 9.5396 2.03984 9.1665 2.50008 9.1665H15.0001C15.8841 9.1665 16.732 9.51769 17.3571 10.1428C17.9822 10.7679 18.3334 11.6158 18.3334 12.4998C18.3334 13.3839 17.9822 14.2317 17.3571 14.8569C16.732 15.482 15.8841 15.8332 15.0001 15.8332H11.6667C11.2065 15.8332 10.8334 15.4601 10.8334 14.9998C10.8334 14.5396 11.2065 14.1665 11.6667 14.1665H15.0001C15.4421 14.1665 15.866 13.9909 16.1786 13.6783C16.4912 13.3658 16.6667 12.9419 16.6667 12.4998C16.6667 12.0578 16.4912 11.6339 16.1786 11.3213C15.866 11.0088 15.4421 10.8332 15.0001 10.8332H2.50008C2.03984 10.8332 1.66675 10.4601 1.66675 9.99984Z" fill="black"/>
<path fill-rule="evenodd" clip-rule="evenodd" d="M13.9225 12.7441C14.2479 13.0695 14.2479 13.5972 13.9225 13.9226L12.8451 15L13.9225 16.0774C14.2479 16.4028 14.2479 16.9305 13.9225 17.2559C13.5971 17.5814 13.0694 17.5814 12.744 17.2559L11.0773 15.5893C10.7519 15.2638 10.7519 14.7362 11.0773 14.4107L12.744 12.7441C13.0694 12.4186 13.5971 12.4186 13.9225 12.7441Z" fill="black"/>
<path fill-rule="evenodd" clip-rule="evenodd" d="M1.66675 14.9998C1.66675 14.5396 2.03984 14.1665 2.50008 14.1665H8.33342C8.79365 14.1665 9.16675 14.5396 9.16675 14.9998C9.16675 15.4601 8.79365 15.8332 8.33342 15.8332H2.50008C2.03984 15.8332 1.66675 15.4601 1.66675 14.9998Z" fill="black"/>
</svg>
