<svg width="20" height="20" viewBox="0 0 20 20" fill="none" xmlns="http://www.w3.org/2000/svg">
<path fill-rule="evenodd" clip-rule="evenodd" d="M3.43596 5.48043C3.31 5.52089 3.1953 5.59081 3.10152 5.6846C3.00409 5.78203 2.93241 5.90202 2.89277 6.03376C2.3426 8.64919 2.3426 11.3505 2.89277 13.9659C2.93241 14.0977 3.00408 14.2176 3.10152 14.3151C3.19531 14.4089 3.31001 14.4788 3.43597 14.5192C7.78286 15.234 12.2173 15.234 16.5642 14.5192C16.6902 14.4788 16.8049 14.4089 16.8987 14.3151C16.9961 14.2176 17.0678 14.0977 17.1074 13.9659C17.6576 11.3505 17.6576 8.64919 17.1074 6.03377C17.0678 5.90202 16.9961 5.78203 16.8987 5.6846C16.8049 5.59081 16.6902 5.52089 16.5642 5.48043C12.2173 4.76585 7.78287 4.76585 3.43596 5.48043ZM3.11389 3.84438C7.67361 3.08898 12.3266 3.08898 16.8863 3.84438C16.9146 3.84907 16.9427 3.85523 16.9704 3.86283C17.3889 3.97756 17.7703 4.19925 18.0772 4.50609C18.384 4.81292 18.6057 5.19434 18.7204 5.61283C18.7247 5.62858 18.7286 5.64445 18.732 5.66042C19.3383 8.5216 19.3383 11.4781 18.732 14.3392C18.7286 14.3552 18.7247 14.3711 18.7204 14.3868C18.6057 14.8053 18.384 15.1867 18.0772 15.4936C17.7703 15.8004 17.3889 16.0221 16.9704 16.1368C16.9427 16.1444 16.9147 16.1506 16.8863 16.1553C12.3266 16.9108 7.67359 16.9108 3.11386 16.1553C3.08552 16.1506 3.05745 16.1444 3.02975 16.1368C2.61126 16.0221 2.22984 15.8004 1.923 15.4936C1.61617 15.1867 1.39448 14.8053 1.27975 14.3868C1.27543 14.3711 1.27157 14.3552 1.26819 14.3392C0.661906 11.4781 0.661906 8.5216 1.26819 5.66042C1.27157 5.64445 1.27543 5.62858 1.27975 5.61283C1.39448 5.19434 1.61617 4.81292 1.923 4.50609C2.22984 4.19925 2.61126 3.97756 3.02975 3.86283C3.05746 3.85523 3.08554 3.84907 3.11389 3.84438Z" fill="black"/>
<path fill-rule="evenodd" clip-rule="evenodd" d="M7.92275 6.77467C8.18401 6.62675 8.50464 6.63079 8.76208 6.78526L12.9287 9.28526C13.1798 9.43586 13.3333 9.70712 13.3333 9.99984C13.3333 10.2926 13.1798 10.5638 12.9287 10.7144L8.76208 13.2144C8.50464 13.3689 8.18401 13.3729 7.92275 13.225C7.66149 13.0771 7.5 12.8001 7.5 12.4998V7.49984C7.5 7.19961 7.66149 6.92259 7.92275 6.77467ZM9.16667 8.97166V11.028L10.8803 9.99984L9.16667 8.97166Z" fill="black"/>
</svg>
