<svg width="20" height="20" viewBox="0 0 20 20" fill="none" xmlns="http://www.w3.org/2000/svg">
<g clip-path="url(#clip0_2001_11412)">
<path fill-rule="evenodd" clip-rule="evenodd" d="M10.3116 3.6453L9.70857 5.53582C9.56871 5.97429 9.81078 6.44312 10.2493 6.58298C10.6877 6.72284 11.1566 6.48077 11.2964 6.0423L12.4439 2.4448C12.4473 2.43412 12.4505 2.42337 12.4535 2.41257C12.5287 2.13919 12.5087 1.84836 12.3968 1.58784C12.2849 1.32731 12.0878 1.11255 11.8378 0.978826C11.5878 0.845097 11.2997 0.800339 11.0209 0.851898C10.7519 0.901644 10.507 1.0382 10.3233 1.24022L8.16284 3.46616C7.8423 3.79642 7.85017 4.324 8.18043 4.64454C8.51069 4.96509 9.03826 4.95721 9.35881 4.62696L10.3116 3.6453Z" fill="black"/>
<path fill-rule="evenodd" clip-rule="evenodd" d="M16.6655 7.5C16.9803 7.49924 17.289 7.58767 17.5556 7.75505C17.8227 7.92272 18.0368 8.16275 18.173 8.44725C18.3091 8.73175 18.3617 9.04904 18.3247 9.36225C18.2877 9.67546 18.1626 9.97174 17.9639 10.2167C17.9484 10.2358 17.932 10.2542 17.9148 10.2719L16.4815 11.7494C16.161 12.0798 15.6335 12.0878 15.3031 11.7673C14.9728 11.4468 14.9648 10.9193 15.2853 10.5889L16.665 9.16667H13.0467C12.5865 9.16667 12.2134 8.79358 12.2134 8.33334C12.2134 7.8731 12.5865 7.5 13.0467 7.5H16.6655Z" fill="black"/>
<path fill-rule="evenodd" clip-rule="evenodd" d="M7.01959 5.84134C7.34983 6.16191 7.35767 6.68949 7.03711 7.01972L3.33508 10.8335H9.16539C9.43449 10.8328 9.69975 10.8973 9.93849 11.0215C10.1777 11.1459 10.3831 11.3265 10.5371 11.5478C10.6912 11.769 10.7893 12.0243 10.823 12.2918C10.8557 12.5514 10.8268 12.8149 10.7388 13.0611L9.68837 16.3546L12.9628 12.9806C13.2833 12.6503 13.8109 12.6424 14.1412 12.9629C14.4715 13.2835 14.4794 13.8111 14.1588 14.1413L9.67668 18.7598C9.49303 18.9618 9.24805 19.0984 8.97905 19.1481C8.70025 19.1997 8.4122 19.1549 8.16218 19.0212C7.91216 18.8875 7.71504 18.6727 7.60316 18.4122C7.49129 18.1517 7.47131 17.8608 7.5465 17.5875C7.54947 17.5767 7.55266 17.5659 7.55606 17.5552L9.15606 12.5386C9.16019 12.5257 9.16462 12.5128 9.16937 12.5001C9.16847 12.5001 9.16756 12.5001 9.16666 12.5001H3.3344C3.01962 12.5009 2.71106 12.4124 2.44442 12.2451C2.17729 12.0774 1.96322 11.8374 1.82709 11.5529C1.69095 11.2684 1.63832 10.9511 1.67533 10.6379C1.71235 10.3247 1.83747 10.0284 2.03617 9.78345C2.05174 9.76426 2.06816 9.74576 2.08538 9.72802L5.84121 5.85886C6.16178 5.52862 6.68936 5.52078 7.01959 5.84134Z" fill="black"/>
<path fill-rule="evenodd" clip-rule="evenodd" d="M1.07733 1.07757C1.40277 0.752137 1.9304 0.752137 2.25584 1.07757L18.9225 17.7442C19.2479 18.0697 19.2479 18.5973 18.9225 18.9228C18.5971 19.2482 18.0694 19.2482 17.744 18.9228L1.07733 2.25609C0.751893 1.93065 0.751893 1.40301 1.07733 1.07757Z" fill="black"/>
</g>
<defs>
<clipPath id="clip0_2001_11412">
<rect width="20" height="20" fill="white"/>
</clipPath>
</defs>
</svg>
