<svg width="20" height="20" viewBox="0 0 20 20" fill="none" xmlns="http://www.w3.org/2000/svg">
<path fill-rule="evenodd" clip-rule="evenodd" d="M10.3117 3.64521L3.33508 10.8332H9.16539C9.43449 10.8326 9.69975 10.8971 9.93849 11.0213C10.1777 11.1457 10.3831 11.3263 10.5371 11.5475C10.6912 11.7688 10.7893 12.0241 10.823 12.2916C10.8557 12.5511 10.8268 12.8147 10.7388 13.0608L9.68831 16.3546L16.6649 9.16656H10.8346C10.5655 9.1672 10.3002 9.10268 10.0615 8.97849C9.82233 8.85408 9.61691 8.67351 9.46285 8.45227C9.3088 8.23102 9.21072 7.97571 9.17702 7.70823C9.14432 7.44865 9.1732 7.18512 9.26118 6.93896L10.3117 3.64521ZM11.0209 0.851898C11.2997 0.800339 11.5878 0.845097 11.8378 0.978826C12.0878 1.11255 12.285 1.32731 12.3968 1.58784C12.5087 1.84836 12.5287 2.13919 12.4535 2.41257C12.4505 2.42336 12.4473 2.4341 12.4439 2.44477L10.8439 7.46144C10.8398 7.47437 10.8354 7.48719 10.8306 7.4999C10.8315 7.49989 10.8324 7.49989 10.8333 7.49989H16.6656C16.9804 7.49915 17.2889 7.58757 17.5556 7.75493C17.8227 7.92261 18.0368 8.16264 18.1729 8.44714C18.309 8.73164 18.3617 9.04892 18.3247 9.36213C18.2876 9.67535 18.1625 9.97163 17.9638 10.2166C17.9483 10.2357 17.9318 10.2542 17.9146 10.272L9.67665 18.7596C9.493 18.9616 9.24804 19.0981 8.97905 19.1479C8.70025 19.1994 8.4122 19.1547 8.16218 19.021C7.91216 18.8872 7.71504 18.6725 7.60316 18.4119C7.49129 18.1514 7.47131 17.8606 7.5465 17.5872C7.54947 17.5764 7.55266 17.5657 7.55606 17.555L9.15606 12.5383C9.16018 12.5254 9.16462 12.5126 9.16937 12.4999C9.16847 12.4999 9.16756 12.4999 9.16666 12.4999H3.3344C3.01962 12.5006 2.71106 12.4122 2.44442 12.2449C2.17729 12.0772 1.96322 11.8371 1.82709 11.5527C1.69095 11.2682 1.63832 10.9509 1.67533 10.6377C1.71235 10.3244 1.83747 10.0282 2.03617 9.78322C2.05173 9.76404 2.06814 9.74556 2.08534 9.72783L10.3233 1.24022C10.507 1.0382 10.7519 0.901644 11.0209 0.851898Z" fill="black"/>
</svg>
